<?xml version="1.0" encoding="UTF-8" standalone="no"?>
<!-- Created with Inkscape (http://www.inkscape.org/) -->

<svg
   width="210mm"
   height="297mm"
   viewBox="0 0 210 297"
   version="1.1"
   id="svg1"
   inkscape:version="1.4.2 (f4327f4, 2025-05-13)"
   sodipodi:docname="11.svg"
   xmlns:inkscape="http://www.inkscape.org/namespaces/inkscape"
   xmlns:sodipodi="http://sodipodi.sourceforge.net/DTD/sodipodi-0.dtd"
   xmlns="http://www.w3.org/2000/svg"
   xmlns:svg="http://www.w3.org/2000/svg">
  <sodipodi:namedview
     id="namedview1"
     pagecolor="#ffffff"
     bordercolor="#666666"
     borderopacity="1.0"
     inkscape:showpageshadow="2"
     inkscape:pageopacity="0.0"
     inkscape:pagecheckerboard="0"
     inkscape:deskcolor="#d1d1d1"
     inkscape:document-units="mm"
     inkscape:zoom="0.65477694"
     inkscape:cx="397.08179"
     inkscape:cy="561.25984"
     inkscape:window-width="1920"
     inkscape:window-height="974"
     inkscape:window-x="-11"
     inkscape:window-y="-11"
     inkscape:window-maximized="1"
     inkscape:current-layer="layer1" />
  <defs
     id="defs1">
    <rect
       x="216.86775"
       y="442.89892"
       width="478.02539"
       height="83.998072"
       id="rect1" />
  </defs>
  <g
     inkscape:label="Layer 1"
     inkscape:groupmode="layer"
     id="layer1">
    <path
       d="m 220.17211,492.24754 6.57391,-0.57477 q 0.467,3.95154 2.15539,6.50208 1.7243,2.51461 5.31661,4.09522 3.5923,1.54469 8.08268,1.54469 3.98746,0 7.04092,-1.18546 3.05346,-1.18546 4.5263,-3.23307 1.50877,-2.08354 1.50877,-4.5263 0,-2.47869 -1.43692,-4.31077 -1.43692,-1.868 -4.74184,-3.1253 -2.11946,-0.82623 -9.37592,-2.55054 -7.25645,-1.76023 -10.16622,-3.30492 -3.77192,-1.97577 -5.63992,-4.88554 -1.83207,-2.94569 -1.83207,-6.57391 0,-3.98746 2.26315,-7.43607 2.26315,-3.48454 6.60984,-5.28069 4.34669,-1.79615 9.6633,-1.79615 5.85546,0 10.30991,1.90392 4.49038,1.868 6.89723,5.53215 2.40684,3.66415 2.58646,8.29822 l -6.68169,0.50292 q -0.53884,-4.9933 -3.66415,-7.54384 -3.08938,-2.55053 -9.16038,-2.55053 -6.32245,0 -9.23222,2.335 -2.87384,2.29907 -2.87384,5.56807 0,2.83792 2.04761,4.66999 2.01169,1.83208 10.48953,3.77192 8.51376,1.90392 11.67499,3.34085 4.59815,2.11946 6.78946,5.38845 2.1913,3.23308 2.1913,7.472 0,4.20299 -2.40684,7.93899 -2.40685,3.70007 -6.93315,5.78361 -4.49038,2.04761 -10.1303,2.04761 -7.14869,0 -11.9983,-2.08353 -4.81368,-2.08354 -7.57976,-6.25061 -2.73015,-4.203 -2.87384,-9.48369 z m 50.61557,16.91976 v -52.66319 h 6.46615 v 18.89553 q 4.5263,-5.24477 11.42353,-5.24477 4.23892,0 7.36422,1.68838 3.12531,1.65246 4.45446,4.59815 1.36507,2.94569 1.36507,8.54969 v 24.17621 h -6.46614 v -24.17621 q 0,-4.84961 -2.11946,-7.04092 -2.08354,-2.22723 -5.92731,-2.22723 -2.87384,0 -5.42438,1.50877 -2.51461,1.47285 -3.5923,4.02338 -1.07769,2.55054 -1.07769,7.04092 v 20.87129 z m 40.95227,-45.22712 v -7.43607 h 6.46615 v 7.43607 z m 0,45.22712 v -38.15028 h 6.46615 v 38.15028 z m 26.90636,0 -14.51291,-38.15028 h 6.82538 l 8.19045,22.84706 q 1.32916,3.70007 2.44277,7.68753 0.86215,-3.01753 2.40684,-7.25645 l 8.47784,-23.27814 h 6.64577 l -14.44107,38.15028 z m 51.08258,-4.70592 q -3.59231,3.05346 -6.93315,4.31076 -3.30492,1.25731 -7.11277,1.25731 -6.28653,0 -9.66329,-3.05346 -3.37677,-3.08938 -3.37677,-7.86715 0,-2.80199 1.25731,-5.10107 1.29323,-2.335 3.34084,-3.73599 2.08354,-1.401 4.66999,-2.11946 1.90393,-0.50293 5.74769,-0.96993 7.83123,-0.934 11.5313,-2.22722 0.0359,-1.32916 0.0359,-1.68839 0,-3.95153 -1.83207,-5.56807 -2.47869,-2.19131 -7.36423,-2.19131 -4.56222,0 -6.75353,1.61654 -2.15538,1.58062 -3.19715,5.63992 l -6.32246,-0.86215 q 0.86216,-4.05931 2.83792,-6.538 1.97577,-2.51461 5.71177,-3.84376 3.736,-1.36508 8.65745,-1.36508 4.88554,0 7.939,1.14954 3.05345,1.14954 4.49038,2.90976 1.43692,1.72431 2.01169,4.38262 0.3233,1.65246 0.3233,5.96322 v 8.62153 q 0,9.01669 0.39516,11.42353 0.43107,2.37092 1.65246,4.56223 h -6.75354 q -1.00584,-2.01169 -1.29322,-4.70592 z m -0.53885,-14.44107 q -3.52046,1.43693 -10.56138,2.44277 -3.98745,0.57477 -5.63991,1.29323 -1.65246,0.71846 -2.55054,2.11946 -0.89808,1.36508 -0.89808,3.05346 0,2.58646 1.93985,4.31076 1.97577,1.72431 5.74769,1.72431 3.73599,0 6.64576,-1.61654 2.90977,-1.65246 4.27484,-4.49038 1.04177,-2.1913 1.04177,-6.46614 z"
       id="text1"
       style="font-size:73.5704px;line-height:1.25;font-family:Arial;-inkscape-font-specification:'Arial, Normal';font-variant-ligatures:none;letter-spacing:0px;word-spacing:0px;white-space:pre"
       transform="matrix(0.33966457,0,0,0.27200321,33.575327,-12.270337)"
       aria-label="Shiva" />
  </g>
</svg>
