<?xml version="1.0" encoding="UTF-8" standalone="no"?>
<!-- Created with Inkscape (http://www.inkscape.org/) -->

<svg
   width="210mm"
   height="297mm"
   viewBox="0 0 210 297"
   version="1.1"
   id="svg1"
   xml:space="preserve"
   inkscape:version="1.4.2 (f4327f4, 2025-05-13)"
   sodipodi:docname="drawing-4.svg"
   xmlns:inkscape="http://www.inkscape.org/namespaces/inkscape"
   xmlns:sodipodi="http://sodipodi.sourceforge.net/DTD/sodipodi-0.dtd"
   xmlns="http://www.w3.org/2000/svg"
   xmlns:svg="http://www.w3.org/2000/svg"><sodipodi:namedview
     id="namedview1"
     pagecolor="#ffffff"
     bordercolor="#666666"
     borderopacity="1.0"
     inkscape:showpageshadow="2"
     inkscape:pageopacity="0.0"
     inkscape:pagecheckerboard="0"
     inkscape:deskcolor="#d1d1d1"
     inkscape:document-units="mm"
     inkscape:zoom="0.65477694"
     inkscape:cx="397.08179"
     inkscape:cy="561.25984"
     inkscape:window-width="1920"
     inkscape:window-height="974"
     inkscape:window-x="-11"
     inkscape:window-y="-11"
     inkscape:window-maximized="1"
     inkscape:current-layer="layer1" /><defs
     id="defs1"><rect
       x="160.35996"
       y="392.50008"
       width="508.57014"
       height="123.70625"
       id="rect1" /></defs><g
     inkscape:label="Layer 1"
     inkscape:groupmode="layer"
     id="layer1"><path
       d="m 166.25075,458.76886 v -52.66318 h 6.96908 v 21.62567 h 27.37336 v -21.62567 h 6.96907 v 52.66318 h -6.96907 v -24.82282 h -27.37336 v 24.82282 z m 78.20447,-12.28568 6.68169,0.82623 q -1.58061,5.85545 -5.85546,9.08853 -4.27484,3.23307 -10.9206,3.23307 -8.37007,0 -13.29153,-5.13699 -4.88553,-5.17292 -4.88553,-14.47699 0,-9.62738 4.95738,-14.94399 4.95738,-5.31661 12.86045,-5.31661 7.65161,0 12.50122,5.20884 4.84961,5.20885 4.84961,14.65661 0,0.57477 -0.0359,1.7243 h -28.45106 q 0.35923,6.28654 3.55639,9.62738 3.19715,3.34084 7.97491,3.34084 3.55638,0 6.071,-1.868 2.51461,-1.86799 3.98745,-5.96322 z M 223.2247,436.02957 h 21.30237 q -0.43108,-4.81369 -2.44277,-7.22053 -3.08938,-3.736 -8.01084,-3.736 -4.45445,0 -7.50791,2.98162 -3.01754,2.98161 -3.34085,7.97491 z m 35.88713,22.73929 v -52.66318 h 6.46614 v 52.66318 z m 16.34498,0 v -52.66318 h 6.46615 v 52.66318 z m 14.08184,-19.07514 q 0,-10.5973 5.89138,-15.69837 4.92145,-4.23892 11.99829,-4.23892 7.86715,0 12.86045,5.17292 4.99331,5.137 4.99331,14.22553 0,7.36422 -2.22723,11.60314 -2.19131,4.203 -6.43023,6.538 -4.20299,2.33499 -9.1963,2.33499 -8.01084,0 -12.96822,-5.13699 -4.92145,-5.137 -4.92145,-14.8003 z m 6.64576,0 q 0,7.3283 3.19715,10.99245 3.19715,3.62823 8.04676,3.62823 4.81369,0 8.01084,-3.66415 3.19715,-3.66415 3.19715,-11.17207 0,-7.07684 -3.23307,-10.70506 -3.19715,-3.66415 -7.97492,-3.66415 -4.84961,0 -8.04676,3.62822 -3.19715,3.62823 -3.19715,10.95653 z"
       id="text1"
       style="font-size:73.5704px;line-height:1.25;font-family:Arial;-inkscape-font-specification:'Arial, Normal';font-variant-ligatures:none;letter-spacing:0px;word-spacing:0px;white-space:pre"
       transform="matrix(0.26458333,0,0,0.26458333,53.742857,0)"
       aria-label="Hello" /></g></svg>
