<?xml version="1.0" encoding="utf-8" ?>
<svg xmlns="http://www.w3.org/2000/svg" xmlns:cc="http://creativecommons.org/ns" xmlns:dc="http://purl.org/dc/elements/1.1/" xmlns:ev="http://www.w3.org/2001/xml-events" xmlns:inkscape="http://www.inkscape.org/namespaces/inkscape" xmlns:rdf="http://www.w3.org/1999/02/22-rdf-syntax-ns" xmlns:sodipodi="http://sodipodi.sourceforge.net/DTD/sodipodi-0.dtd" xmlns:xlink="http://www.w3.org/1999/xlink" baseProfile="tiny" height="0.34726562cm" version="1.2" viewBox="0 0 103.75 13.125" width="2.74505208cm">
  <metadata>
    <rdf:RDF>
      <cc:Work>
        <dc:format>image/svg+xml</dc:format>
        <dc:source>vpype text -f futural -s 20 'Hello World' write hello.svg
</dc:source>
        <dc:date>2025-06-18T22:39:45.991938</dc:date>
      </cc:Work>
    </rdf:RDF>
  </metadata>
  <defs/>
  <g fill="none" id="layer1" inkscape:groupmode="layer" inkscape:label="1" stroke="#0000ff" style="display:inline">
    <line x1="0.0" x2="0.0" y1="0.0" y2="13.125"/>
    <line x1="8.75" x2="8.75" y1="0.0" y2="13.125"/>
    <line x1="0.0" x2="8.75" y1="6.25" y2="6.25"/>
    <polyline points="13.125,8.125 20.625,8.125 20.625,6.875 20.0,5.625 19.375,5.0 18.125,4.375 16.25,4.375 15.0,5.0 13.75,6.25 13.125,8.125 13.125,9.375 13.75,11.25 15.0,12.5 16.25,13.125 18.125,13.125 19.375,12.5 20.625,11.25"/>
    <line x1="25.0" x2="25.0" y1="0.0" y2="13.125"/>
    <line x1="30.0" x2="30.0" y1="0.0" y2="13.125"/>
    <polygon points="37.5,4.375 36.25,5.0 35.0,6.25 34.375,8.125 34.375,9.375 35.0,11.25 36.25,12.5 37.5,13.125 39.375,13.125 40.625,12.5 41.875,11.25 42.5,9.375 42.5,8.125 41.875,6.25 40.625,5.0 39.375,4.375"/>
    <line x1="55.625" x2="58.75" y1="0.0" y2="13.125"/>
    <line x1="61.875" x2="58.75" y1="0.0" y2="13.125"/>
    <line x1="61.875" x2="65.0" y1="0.0" y2="13.125"/>
    <line x1="68.125" x2="65.0" y1="0.0" y2="13.125"/>
    <polygon points="74.375,4.375 73.125,5.0 71.875,6.25 71.25,8.125 71.25,9.375 71.875,11.25 73.125,12.5 74.375,13.125 76.25,13.125 77.5,12.5 78.75,11.25 79.375,9.375 79.375,8.125 78.75,6.25 77.5,5.0 76.25,4.375"/>
    <line x1="83.75" x2="83.75" y1="4.375" y2="13.125"/>
    <polyline points="83.75,8.125 84.375,6.25 85.625,5.0 86.875,4.375 88.75,4.375"/>
    <line x1="91.875" x2="91.875" y1="0.0" y2="13.125"/>
    <line x1="103.75" x2="103.75" y1="0.0" y2="13.125"/>
    <polyline points="103.75,6.25 102.5,5.0 101.25,4.375 99.375,4.375 98.125,5.0 96.875,6.25 96.25,8.125 96.25,9.375 96.875,11.25 98.125,12.5 99.375,13.125 101.25,13.125 102.5,12.5 103.75,11.25"/>
  </g>
</svg>
