<?xml version="1.0" encoding="UTF-8" standalone="no"?>
<svg
   width="220.0mm"
   height="160.0mm"
   viewBox="0 0 220.0 160.0"
   version="1.1"
   id="svg1"
   sodipodi:docname="input.svg"
   xmlns:inkscape="http://www.inkscape.org/namespaces/inkscape"
   xmlns:sodipodi="http://sodipodi.sourceforge.net/DTD/sodipodi-0.dtd"
   xmlns="http://www.w3.org/2000/svg"
   xmlns:svg="http://www.w3.org/2000/svg">
  <sodipodi:namedview
     id="namedview1"
     pagecolor="#ffffff"
     bordercolor="#666666"
     borderopacity="1.0"
     inkscape:showpageshadow="2"
     inkscape:pageopacity="0.0"
     inkscape:pagecheckerboard="0"
     inkscape:deskcolor="#d1d1d1"
     inkscape:document-units="mm" />
  <defs
     id="defs1">
    <style
       id="style1">text { font-family: sans-serif; font-size:
    10px; fill: black; }</style>
  </defs>
  <g
     id="g1">
    <path
       d="M 16.162109,13.588867 H 13.564453 V 20 H 12.597656 V 13.588867 H 10 v -0.859375 h 6.162109 z M 21.928711,20 h -4.790039 v -7.270508 h 4.790039 v 0.859375 h -3.823242 v 1.992188 h 3.823242 v 0.859375 h -3.823242 v 2.700195 h 3.823242 z m 6.816406,-2.075195 q 0,0.424804 -0.200195,0.839843 -0.195313,0.415039 -0.551758,0.703125 -0.390625,0.3125 -0.913086,0.488282 -0.517578,0.175781 -1.25,0.175781 -0.786133,0 -1.416016,-0.146484 -0.625,-0.146485 -1.274414,-0.434571 v -1.210937 h 0.06836 q 0.551758,0.458984 1.274414,0.708008 0.722656,0.249023 1.357422,0.249023 0.898437,0 1.396484,-0.336914 0.50293,-0.336914 0.50293,-0.898438 0,-0.483398 -0.239258,-0.71289 -0.234375,-0.229492 -0.717773,-0.356446 -0.366211,-0.09766 -0.795899,-0.161132 -0.424805,-0.06348 -0.90332,-0.161133 -0.966797,-0.205078 -1.435547,-0.698242 -0.463867,-0.498047 -0.463867,-1.293946 0,-0.913086 0.771484,-1.49414 0.771484,-0.585938 1.958008,-0.585938 0.766601,0 1.40625,0.146485 0.639648,0.146484 1.132812,0.361328 v 1.142578 h -0.06836 q -0.415039,-0.351563 -1.09375,-0.581055 -0.673828,-0.234375 -1.381836,-0.234375 -0.776367,0 -1.25,0.322266 -0.46875,0.322265 -0.46875,0.830078 0,0.454102 0.234375,0.712891 0.234375,0.258789 0.825195,0.395507 0.3125,0.06836 0.888672,0.166016 0.576172,0.09766 0.976563,0.200195 0.810547,0.214844 1.220703,0.649414 0.410156,0.434571 0.410156,1.215821 z m 6.738281,-4.335938 H 32.885742 V 20 h -0.966797 v -6.411133 h -2.597656 v -0.859375 h 6.162109 z"
       id="text1"
       style="font-size:10px"
       aria-label="TEST" />
  </g>
</svg>
