<?xml version="1.0" encoding="UTF-8" standalone="no"?>
<!-- Created with Inkscape (http://www.inkscape.org/) -->

<svg
   width="210mm"
   height="297mm"
   viewBox="0 0 210 297"
   version="1.1"
   id="svg1"
   inkscape:version="1.4.2 (f4327f4, 2025-05-13)"
   sodipodi:docname="shiva.svg"
   xmlns:inkscape="http://www.inkscape.org/namespaces/inkscape"
   xmlns:sodipodi="http://sodipodi.sourceforge.net/DTD/sodipodi-0.dtd"
   xmlns="http://www.w3.org/2000/svg"
   xmlns:svg="http://www.w3.org/2000/svg">
  <sodipodi:namedview
     id="namedview1"
     pagecolor="#ffffff"
     bordercolor="#666666"
     borderopacity="1.0"
     inkscape:showpageshadow="2"
     inkscape:pageopacity="0.0"
     inkscape:pagecheckerboard="0"
     inkscape:deskcolor="#d1d1d1"
     inkscape:document-units="mm"
     inkscape:zoom="0.92599442"
     inkscape:cx="340.17483"
     inkscape:cy="622.57394"
     inkscape:window-width="1920"
     inkscape:window-height="974"
     inkscape:window-x="-11"
     inkscape:window-y="-11"
     inkscape:window-maximized="1"
     inkscape:current-layer="layer1" />
  <defs
     id="defs1">
    <rect
       x="248.93974"
       y="471.91644"
       width="418.46312"
       height="74.834646"
       id="rect1" />
  </defs>
  <g
     inkscape:label="Layer 1"
     inkscape:groupmode="layer"
     id="layer1">
    <text
       xml:space="preserve"
       transform="scale(0.26458333)"
       id="text1"
       style="font-size:73.5704px;line-height:1.25;font-family:Arial;-inkscape-font-specification:'Arial, Normal';font-variant-ligatures:none;letter-spacing:0px;word-spacing:0px;white-space:pre;shape-inside:url(#rect1)"><tspan
         x="248.93945"
         y="613.02081"
         id="tspan3"><tspan
           dx="0 49.070881 40.916348 16.344986 36.785202"
           id="tspan2">Shiva</tspan></tspan></text>
    <path
       d="m 109.73712,144.10233 1.73935,-0.15208 q 0.12356,1.04551 0.57028,1.72034 0.45622,0.66533 1.40668,1.08353 0.95047,0.4087 2.13855,0.4087 1.05501,0 1.86291,-0.31365 0.80789,-0.31366 1.19758,-0.85542 0.3992,-0.55127 0.3992,-1.19759 0,-0.65582 -0.38019,-1.14055 -0.38018,-0.49424 -1.25461,-0.82691 -0.56078,-0.2186 -2.48071,-0.67483 -1.91994,-0.46572 -2.68981,-0.87442 -0.99799,-0.52276 -1.49223,-1.29263 -0.48474,-0.77938 -0.48474,-1.73935 0,-1.05502 0.59879,-1.96746 0.59879,-0.92195 1.74886,-1.39718 1.15006,-0.47524 2.55674,-0.47524 1.54926,0 2.72784,0.50375 1.18807,0.49424 1.82489,1.46371 0.63681,0.96948 0.68433,2.19558 l -1.76786,0.13306 q -0.14257,-1.32114 -0.96948,-1.99597 -0.8174,-0.67483 -2.42368,-0.67483 -1.67282,0 -2.44269,0.6178 -0.76037,0.6083 -0.76037,1.47322 0,0.75086 0.54176,1.2356 0.53226,0.48474 2.77536,0.99799 2.2526,0.50374 3.089,0.88393 1.2166,0.56077 1.79638,1.42569 0.57978,0.85542 0.57978,1.97697 0,1.11204 -0.63681,2.10052 -0.63681,0.97898 -1.83439,1.53025 -1.18808,0.54177 -2.68031,0.54177 -1.89142,0 -3.17455,-0.55127 -1.27362,-0.55127 -2.00548,-1.65381 -0.72235,-1.11204 -0.76037,-2.50922 z m 13.39204,4.47668 v -13.9338 h 1.71083 v 4.99944 q 1.19759,-1.38768 3.02248,-1.38768 1.12154,0 1.94845,0.44672 0.8269,0.43721 1.17857,1.21659 0.36118,0.77938 0.36118,2.26211 v 6.39662 h -1.71084 v -6.39662 q 0,-1.28313 -0.56077,-1.86291 -0.55127,-0.58929 -1.56827,-0.58929 -0.76037,0 -1.4352,0.3992 -0.66532,0.38969 -0.95046,1.06452 -0.28514,0.67483 -0.28514,1.8629 v 5.5222 z m 10.83528,-11.96634 v -1.96746 h 1.71084 v 1.96746 z m 0,11.96634 v -10.09393 h 1.71084 v 10.09393 z m 7.11898,0 -3.83987,-10.09393 h 1.80588 l 2.16706,6.04495 q 0.35167,0.97898 0.64631,2.034 0.22811,-0.79839 0.63681,-1.91994 l 2.2431,-6.15901 h 1.75835 l -3.82086,10.09393 z m 13.5156,-1.24511 q -0.95047,0.8079 -1.8344,1.14056 -0.87443,0.33266 -1.88192,0.33266 -1.66331,0 -2.55675,-0.80789 -0.89343,-0.8174 -0.89343,-2.08152 0,-0.74136 0.33266,-1.34966 0.34217,-0.6178 0.88393,-0.98848 0.55127,-0.37068 1.23561,-0.56077 0.50374,-0.13307 1.52074,-0.25663 2.07201,-0.24712 3.05099,-0.58929 0.01,-0.35167 0.01,-0.44671 0,-1.04551 -0.48474,-1.47322 -0.65582,-0.57979 -1.94845,-0.57979 -1.20709,0 -1.78687,0.42771 -0.57028,0.41821 -0.84591,1.49223 l -1.67282,-0.22811 q 0.22811,-1.07402 0.75087,-1.72984 0.52275,-0.66533 1.51124,-1.017 0.98848,-0.36118 2.29061,-0.36118 1.29264,0 2.10053,0.30415 0.80789,0.30415 1.18808,0.76988 0.38019,0.45622 0.53226,1.15956 0.0855,0.43722 0.0855,1.57777 v 2.28112 q 0,2.38566 0.10455,3.02247 0.11406,0.62731 0.43722,1.20709 h -1.78688 q -0.26613,-0.53226 -0.34216,-1.24511 z m -0.14257,-3.82086 q -0.93146,0.38018 -2.79437,0.64631 -1.05501,0.15208 -1.49223,0.34217 -0.43721,0.19009 -0.67482,0.56077 -0.23762,0.36118 -0.23762,0.8079 0,0.68433 0.51325,1.14055 0.52276,0.45623 1.52074,0.45623 0.98848,0 1.75836,-0.42771 0.76988,-0.43721 1.13105,-1.18808 0.27564,-0.57978 0.27564,-1.71084 z"
       id="text2"
       style="font-size:19.4655px;line-height:1.25;font-family:Arial;-inkscape-font-specification:'Arial, Normal';font-variant-ligatures:none;letter-spacing:0px;word-spacing:0px;stroke-width:0.264583"
       aria-label="Shiva" />
  </g>
</svg>
