<?xml version="1.0" encoding="UTF-8" standalone="no"?>
<!-- Created with Inkscape (http://www.inkscape.org/) -->

<svg
   width="210mm"
   height="297mm"
   viewBox="0 0 210 297"
   version="1.1"
   id="svg5"
   xml:space="preserve"
   sodipodi:docname="drawing-2.ngc.svg"
   inkscape:version="1.2.2 (732a01da63, 2022-12-09)"
   xmlns:inkscape="http://www.inkscape.org/namespaces/inkscape"
   xmlns:sodipodi="http://sodipodi.sourceforge.net/DTD/sodipodi-0.dtd"
   xmlns="http://www.w3.org/2000/svg"
   xmlns:svg="http://www.w3.org/2000/svg"><sodipodi:namedview
     id="namedview7"
     pagecolor="#ffffff"
     bordercolor="#666666"
     borderopacity="1.0"
     inkscape:showpageshadow="2"
     inkscape:pageopacity="0.0"
     inkscape:pagecheckerboard="0"
     inkscape:deskcolor="#d1d1d1"
     inkscape:document-units="mm"
     showgrid="false"
     inkscape:zoom="1.3826038"
     inkscape:cx="266.5261"
     inkscape:cy="455.66199"
     inkscape:window-width="1920"
     inkscape:window-height="974"
     inkscape:window-x="-11"
     inkscape:window-y="-11"
     inkscape:window-maximized="1"
     inkscape:current-layer="layer1" /><defs
     id="defs2"><rect
       x="146.82442"
       y="364.52959"
       width="320.40994"
       height="123.67968"
       id="rect2804" /><rect
       x="172.13897"
       y="455.66199"
       width="253.14555"
       height="186.60443"
       id="rect2026" /><rect
       x="293.64884"
       y="347.17104"
       width="122.95641"
       height="40.503288"
       id="rect1817" /><rect
       x="176.47861"
       y="354.40377"
       width="125.8495"
       height="31.824012"
       id="rect1780" /><rect
       x="124.40295"
       y="352.95722"
       width="611.88895"
       height="104.15131"
       id="rect1720" /><rect
       x="395.10204"
       y="80"
       width="277.55102"
       height="183.67347"
       id="rect246" /><rect
       x="397.55102"
       y="80"
       width="299.59184"
       height="174.69388"
       id="rect6" /></defs><g
     inkscape:label="Layer 1"
     inkscape:groupmode="layer"
     id="layer1"><text
       xml:space="preserve"
       transform="scale(0.26458333)"
       id="text1718"
       style="font-size:24px;line-height:1.25;font-family:Mukta;-inkscape-font-specification:'Mukta, Normal';font-variant-ligatures:none;letter-spacing:0px;word-spacing:0px;white-space:pre;shape-inside:url(#rect1720);display:inline" /><text
       xml:space="preserve"
       transform="scale(0.264583)"
       id="text1778"
       style="font-size:24px;line-height:1.25;font-family:Mukta;-inkscape-font-specification:'Mukta, Normal';font-variant-ligatures:none;letter-spacing:0px;word-spacing:0px;white-space:pre;shape-inside:url(#rect1780);display:inline" /><g
       inkscape:label="Hershey Text"
       style="fill:none;stroke:#000000;stroke-linecap:round;stroke-linejoin:round"
       id="g1806" /><text
       xml:space="preserve"
       transform="scale(0.26458333)"
       id="text1815"
       style="font-size:24px;line-height:1.25;font-family:Mukta;-inkscape-font-specification:'Mukta, Normal';font-variant-ligatures:none;letter-spacing:0px;word-spacing:0px;white-space:pre;shape-inside:url(#rect1817);display:inline" /><g
       transform="scale(0.264583, 0.264583)"
       id="text2024"
       style="font-size:24px;line-height:1.25;font-family:Mukta;-inkscape-font-specification:'Mukta, Normal';font-variant-ligatures:none;letter-spacing:0px;word-spacing:0px;white-space:pre;shape-inside:url(#rect2026)" /><g
       inkscape:label="Hershey Text"
       style="fill:none;stroke:#000000;stroke-linecap:round;stroke-linejoin:round"
       id="g2099" /><g
       aria-label="Shivani i like you .you success in your life."
       transform="matrix(0.264583,0,0,0.264583,19.136577,4.018686)"
       id="text2802"
       style="font-size:24px;line-height:1.25;font-family:Mukta;-inkscape-font-specification:'Mukta, Normal';font-variant-ligatures:none;letter-spacing:0px;word-spacing:0px;white-space:pre;shape-inside:url(#rect2804)"><path
         d="m 152.84822,368.53499 q 1.08,0 2.064,0.192 1.008,0.192 1.992,0.648 l -0.432,1.416 q -1.032,-0.48 -1.872,-0.672 -0.816,-0.192 -1.68,-0.192 -1.464,0 -2.352,0.672 -0.888,0.648 -0.888,1.848 0,1.056 0.672,1.68 0.672,0.6 2.088,1.056 l 1.608,0.528 q 1.848,0.624 2.688,1.704 0.864,1.056 0.864,2.424 0,0.984 -0.384,1.776 -0.36,0.768 -1.032,1.32 -0.672,0.528 -1.608,0.84 -0.936,0.288 -2.064,0.288 -1.152,0 -2.304,-0.216 -1.128,-0.216 -2.28,-0.744 l 0.456,-1.416 q 1.008,0.504 1.968,0.744 0.984,0.216 2.064,0.216 1.464,0 2.424,-0.648 0.984,-0.648 0.984,-1.992 0,-0.48 -0.144,-0.888 -0.12,-0.432 -0.456,-0.792 -0.336,-0.36 -0.912,-0.672 -0.576,-0.336 -1.464,-0.624 l -1.56,-0.504 q -1.512,-0.48 -2.448,-1.392 -0.936,-0.936 -0.936,-2.472 0,-1.896 1.272,-3 1.272,-1.128 3.672,-1.128 z"
         id="path2808" /><path
         d="m 162.13621,383.84699 h -1.68 v -17.04 h 1.68 v 7.248 q 0.792,-0.696 1.752,-1.152 0.96,-0.48 2.112,-0.48 0.936,0 1.632,0.288 0.696,0.264 1.128,0.768 0.456,0.48 0.672,1.152 0.24,0.648 0.24,1.44 v 7.776 h -1.68 v -7.32 q 0,-1.464 -0.648,-2.088 -0.624,-0.648 -1.776,-0.648 -0.84,0 -1.728,0.432 -0.864,0.432 -1.704,1.2 z"
         id="path2810" /><path
         d="m 173.36821,383.84699 v -11.28 h 1.68 v 11.28 z m 0.84,-14.184 q -0.48,0 -0.816,-0.312 -0.312,-0.312 -0.312,-0.816 0,-0.504 0.312,-0.816 0.336,-0.336 0.816,-0.336 0.432,0 0.768,0.312 0.36,0.312 0.36,0.84 0,0.528 -0.336,0.84 -0.336,0.288 -0.792,0.288 z"
         id="path2812" /><path
         d="m 185.32022,372.56699 h 1.8 l -4.08,11.28 h -1.584 l -4.128,-11.28 h 1.8 l 2.592,7.872 0.504,2.016 h 0.072 l 0.48,-1.992 z"
         id="path2814" /><path
         d="m 188.96823,373.57499 q 1.128,-0.6 2.064,-0.864 0.96,-0.288 2.112,-0.288 0.864,0 1.584,0.216 0.744,0.192 1.272,0.672 0.552,0.48 0.84,1.272 0.312,0.768 0.312,1.92 v 7.344 h -1.296 l -0.264,-1.368 h -0.048 q -0.72,0.84 -1.656,1.224 -0.912,0.36 -2.016,0.36 -0.792,0 -1.488,-0.216 -0.672,-0.24 -1.176,-0.672 -0.48,-0.432 -0.768,-1.032 -0.264,-0.6 -0.264,-1.344 0,-0.888 0.36,-1.56 0.36,-0.672 1.008,-1.128 0.672,-0.456 1.584,-0.672 0.936,-0.24 2.064,-0.24 h 2.28 v -0.84 q 0,-1.44 -0.672,-1.992 -0.672,-0.576 -1.776,-0.576 -0.672,0 -1.536,0.216 -0.84,0.192 -1.872,0.768 z m 6.504,4.848 -1.872,0.024 q -1.992,0.048 -2.832,0.696 -0.84,0.648 -0.84,1.584 0,1.128 0.696,1.584 0.696,0.456 1.656,0.456 0.84,0 1.704,-0.384 0.864,-0.408 1.488,-1.32 z"
         id="path2816" /><path
         d="m 202.09625,383.84699 h -1.68 v -11.28 h 1.272 l 0.264,1.56 q 0.84,-0.792 1.752,-1.248 0.936,-0.456 2.136,-0.456 1.728,0 2.712,0.96 0.984,0.96 0.984,2.688 v 7.776 h -1.68 v -7.464 q 0,-1.128 -0.576,-1.848 -0.576,-0.744 -1.92,-0.744 -0.84,0 -1.704,0.432 -0.864,0.408 -1.56,1.176 z"
         id="path2818" /><path
         d="m 213.20825,383.84699 v -11.28 h 1.68 v 11.28 z m 0.84,-14.184 q -0.48,0 -0.816,-0.312 -0.312,-0.312 -0.312,-0.816 0,-0.504 0.312,-0.816 0.336,-0.336 0.816,-0.336 0.432,0 0.768,0.312 0.36,0.312 0.36,0.84 0,0.528 -0.336,0.84 -0.336,0.288 -0.792,0.288 z"
         id="path2820" /><path
         d="m 223.98428,383.84699 v -11.28 h 1.68 v 11.28 z m 0.84,-14.184 q -0.48,0 -0.816,-0.312 -0.312,-0.312 -0.312,-0.816 0,-0.504 0.312,-0.816 0.336,-0.336 0.816,-0.336 0.432,0 0.768,0.312 0.36,0.312 0.36,0.84 0,0.528 -0.336,0.84 -0.336,0.288 -0.792,0.288 z"
         id="path2822" /><path
         d="m 234.64031,383.84699 v -17.04 h 1.656 v 17.04 z"
         id="path2824" /><path
         d="m 240.06433,383.84699 v -11.28 h 1.68 v 11.28 z m 0.84,-14.184 q -0.48,0 -0.816,-0.312 -0.312,-0.312 -0.312,-0.816 0,-0.504 0.312,-0.816 0.336,-0.336 0.816,-0.336 0.432,0 0.768,0.312 0.36,0.312 0.36,0.84 0,0.528 -0.336,0.84 -0.336,0.288 -0.792,0.288 z"
         id="path2826" /><path
         d="m 247.14434,379.71899 v 4.128 h -1.68 v -17.04 h 1.68 v 11.04 l 5.088,-5.28 h 2.088 l -4.68,4.752 4.896,6.528 h -1.992 l -4.008,-5.52 z"
         id="path2828" /><path
         d="m 264.95235,378.32699 h -8.064 v 0.216 q 0,1.992 1.08,3.096 1.08,1.104 2.952,1.104 0.84,0 1.56,-0.12 0.72,-0.144 1.488,-0.456 l 0.36,1.248 q -0.672,0.288 -1.584,0.456 -0.888,0.192 -1.896,0.192 -1.176,0 -2.208,-0.336 -1.032,-0.336 -1.824,-1.032 -0.768,-0.72 -1.224,-1.824 -0.456,-1.104 -0.456,-2.64 0,-1.32 0.384,-2.4 0.384,-1.08 1.056,-1.824 0.696,-0.768 1.656,-1.176 0.984,-0.408 2.184,-0.408 1.032,0 1.848,0.36 0.84,0.336 1.44,0.984 0.6,0.648 0.912,1.56 0.336,0.912 0.336,2.016 z m -1.728,-1.248 q 0,-0.672 -0.168,-1.272 -0.168,-0.624 -0.528,-1.08 -0.336,-0.48 -0.888,-0.744 -0.552,-0.288 -1.32,-0.288 -1.392,0 -2.304,0.912 -0.888,0.912 -1.08,2.496 z"
         id="path2830" /><path
         d="m 271.33639,372.56699 h 1.776 l 2.664,6.984 0.84,2.616 h 0.048 l 0.792,-2.616 2.4,-6.984 h 1.68 l -4.344,12.24 q -0.696,1.944 -1.752,3.048 -1.032,1.128 -2.496,1.68 l -0.696,-1.296 q 1.176,-0.48 2.04,-1.32 0.864,-0.84 1.392,-2.424 l 0.216,-0.648 z"
         id="path2832" /><path
         d="m 293.2724,378.08699 q 0,1.416 -0.408,2.544 -0.408,1.104 -1.128,1.872 -0.72,0.768 -1.704,1.176 -0.96,0.384 -2.064,0.384 -1.128,0 -2.088,-0.36 -0.96,-0.384 -1.656,-1.104 -0.696,-0.744 -1.104,-1.8 -0.408,-1.08 -0.408,-2.472 0,-1.416 0.408,-2.52 0.432,-1.104 1.152,-1.848 0.72,-0.768 1.68,-1.152 0.984,-0.384 2.112,-0.384 1.104,0 2.064,0.36 0.96,0.36 1.656,1.08 0.696,0.72 1.08,1.776 0.408,1.056 0.408,2.448 z m -1.752,0.12 q 0,-1.176 -0.312,-2.016 -0.288,-0.864 -0.792,-1.392 -0.48,-0.552 -1.128,-0.792 -0.624,-0.264 -1.296,-0.264 -0.672,0 -1.32,0.24 -0.624,0.24 -1.128,0.768 -0.48,0.528 -0.792,1.392 -0.288,0.84 -0.288,2.064 0,1.224 0.288,2.088 0.312,0.864 0.816,1.416 0.504,0.528 1.152,0.792 0.648,0.24 1.32,0.24 0.672,0 1.296,-0.216 0.624,-0.24 1.104,-0.768 0.504,-0.552 0.792,-1.416 0.288,-0.864 0.288,-2.136 z"
         id="path2834" /><path
         d="m 303.52041,372.56699 h 1.68 v 11.28 h -1.272 l -0.24,-1.416 h -0.072 q -0.624,0.672 -1.56,1.152 -0.936,0.48 -2.184,0.48 -1.752,0 -2.832,-0.96 -1.08,-0.984 -1.08,-3 v -7.536 h 1.68 v 7.272 q 0,0.84 0.192,1.392 0.192,0.552 0.528,0.888 0.36,0.336 0.816,0.48 0.48,0.12 1.032,0.12 1.032,0 1.872,-0.456 0.864,-0.456 1.44,-1.176 z"
         id="path2836" /><path
         d="m 313.26441,382.76699 q 0,-0.552 0.336,-0.912 0.36,-0.36 0.864,-0.36 0.504,0 0.84,0.36 0.36,0.36 0.36,0.912 0,0.6 -0.36,0.96 -0.336,0.336 -0.84,0.336 -0.504,0 -0.864,-0.336 -0.336,-0.36 -0.336,-0.96 z"
         id="path2838" /><path
         d="m 316.6484,372.56699 h 1.776 l 2.664,6.984 0.84,2.616 h 0.048 l 0.792,-2.616 2.4,-6.984 h 1.68 l -4.344,12.24 q -0.696,1.944 -1.752,3.048 -1.032,1.128 -2.496,1.68 l -0.696,-1.296 q 1.176,-0.48 2.04,-1.32 0.864,-0.84 1.392,-2.424 l 0.216,-0.648 z"
         id="path2840" /><path
         d="m 338.58441,378.08699 q 0,1.416 -0.408,2.544 -0.408,1.104 -1.128,1.872 -0.72,0.768 -1.704,1.176 -0.96,0.384 -2.064,0.384 -1.128,0 -2.088,-0.36 -0.96,-0.384 -1.656,-1.104 -0.696,-0.744 -1.104,-1.8 -0.408,-1.08 -0.408,-2.472 0,-1.416 0.408,-2.52 0.432,-1.104 1.152,-1.848 0.72,-0.768 1.68,-1.152 0.984,-0.384 2.112,-0.384 1.104,0 2.064,0.36 0.96,0.36 1.656,1.08 0.696,0.72 1.08,1.776 0.408,1.056 0.408,2.448 z m -1.752,0.12 q 0,-1.176 -0.312,-2.016 -0.288,-0.864 -0.792,-1.392 -0.48,-0.552 -1.128,-0.792 -0.624,-0.264 -1.296,-0.264 -0.672,0 -1.32,0.24 -0.624,0.24 -1.128,0.768 -0.48,0.528 -0.792,1.392 -0.288,0.84 -0.288,2.064 0,1.224 0.288,2.088 0.312,0.864 0.816,1.416 0.504,0.528 1.152,0.792 0.648,0.24 1.32,0.24 0.672,0 1.296,-0.216 0.624,-0.24 1.104,-0.768 0.504,-0.552 0.792,-1.416 0.288,-0.864 0.288,-2.136 z"
         id="path2842" /><path
         d="m 348.83242,372.56699 h 1.68 v 11.28 h -1.272 l -0.24,-1.416 h -0.072 q -0.624,0.672 -1.56,1.152 -0.936,0.48 -2.184,0.48 -1.752,0 -2.832,-0.96 -1.08,-0.984 -1.08,-3 v -7.536 h 1.68 v 7.272 q 0,0.84 0.192,1.392 0.192,0.552 0.528,0.888 0.36,0.336 0.816,0.48 0.48,0.12 1.032,0.12 1.032,0 1.872,-0.456 0.864,-0.456 1.44,-1.176 z"
         id="path2844" /><path
         d="m 365.22443,374.34299 q -0.696,-0.336 -1.344,-0.48 -0.624,-0.144 -1.32,-0.144 -1.224,0 -1.824,0.48 -0.6,0.48 -0.6,1.248 0,0.696 0.456,1.104 0.48,0.384 1.776,0.768 l 0.72,0.216 q 1.488,0.456 2.256,1.224 0.792,0.768 0.792,1.992 0,1.44 -1.08,2.376 -1.08,0.936 -3.096,0.936 -1.08,0 -1.992,-0.192 -0.912,-0.168 -1.584,-0.504 l 0.432,-1.32 q 0.648,0.336 1.392,0.528 0.744,0.168 1.632,0.168 1.224,0 1.896,-0.456 0.696,-0.48 0.696,-1.392 0,-0.768 -0.552,-1.2 -0.528,-0.456 -1.728,-0.84 l -0.768,-0.24 q -1.488,-0.48 -2.208,-1.2 -0.72,-0.744 -0.72,-1.872 0,-0.696 0.288,-1.272 0.288,-0.576 0.816,-0.984 0.528,-0.408 1.224,-0.624 0.72,-0.24 1.584,-0.24 0.792,0 1.656,0.144 0.864,0.144 1.608,0.48 z"
         id="path2846" /><path
         d="m 376.3604,372.56699 h 1.68 v 11.28 h -1.272 l -0.24,-1.416 h -0.072 q -0.624,0.672 -1.56,1.152 -0.936,0.48 -2.184,0.48 -1.752,0 -2.832,-0.96 -1.08,-0.984 -1.08,-3 v -7.536 h 1.68 v 7.272 q 0,0.84 0.192,1.392 0.192,0.552 0.528,0.888 0.36,0.336 0.816,0.48 0.48,0.12 1.032,0.12 1.032,0 1.872,-0.456 0.864,-0.456 1.44,-1.176 z"
         id="path2848" /><path
         d="m 386.58439,382.79099 q 0.768,0 1.368,-0.168 0.6,-0.168 1.152,-0.432 l 0.36,1.224 q -1.296,0.648 -3.048,0.648 -1.176,0 -2.208,-0.36 -1.032,-0.36 -1.824,-1.08 -0.768,-0.744 -1.224,-1.824 -0.432,-1.104 -0.432,-2.568 0,-1.344 0.408,-2.424 0.432,-1.08 1.176,-1.824 0.768,-0.768 1.8,-1.152 1.032,-0.408 2.28,-0.408 0.744,0 1.44,0.12 0.72,0.096 1.584,0.48 l -0.384,1.296 q -0.624,-0.336 -1.224,-0.456 -0.576,-0.144 -1.2,-0.144 -1.872,0 -3.024,1.176 -1.128,1.176 -1.128,3.264 0,1.32 0.36,2.208 0.36,0.888 0.936,1.44 0.576,0.528 1.32,0.768 0.744,0.216 1.512,0.216 z"
         id="path2850" /><path
         d="m 396.28037,382.79099 q 0.768,0 1.368,-0.168 0.6,-0.168 1.152,-0.432 l 0.36,1.224 q -1.296,0.648 -3.048,0.648 -1.176,0 -2.208,-0.36 -1.032,-0.36 -1.824,-1.08 -0.768,-0.744 -1.224,-1.824 -0.432,-1.104 -0.432,-2.568 0,-1.344 0.408,-2.424 0.432,-1.08 1.176,-1.824 0.768,-0.768 1.8,-1.152 1.032,-0.408 2.28,-0.408 0.744,0 1.44,0.12 0.72,0.096 1.584,0.48 l -0.384,1.296 q -0.624,-0.336 -1.224,-0.456 -0.576,-0.144 -1.2,-0.144 -1.872,0 -3.024,1.176 -1.128,1.176 -1.128,3.264 0,1.32 0.36,2.208 0.36,0.888 0.936,1.44 0.576,0.528 1.32,0.768 0.744,0.216 1.512,0.216 z"
         id="path2852" /><path
         d="m 410.03239,378.32699 h -8.064 v 0.216 q 0,1.992 1.08,3.096 1.08,1.104 2.952,1.104 0.84,0 1.56,-0.12 0.72,-0.144 1.488,-0.456 l 0.36,1.248 q -0.672,0.288 -1.584,0.456 -0.888,0.192 -1.896,0.192 -1.176,0 -2.208,-0.336 -1.032,-0.336 -1.824,-1.032 -0.768,-0.72 -1.224,-1.824 -0.456,-1.104 -0.456,-2.64 0,-1.32 0.384,-2.4 0.384,-1.08 1.056,-1.824 0.696,-0.768 1.656,-1.176 0.984,-0.408 2.184,-0.408 1.032,0 1.848,0.36 0.84,0.336 1.44,0.984 0.6,0.648 0.912,1.56 0.336,0.912 0.336,2.016 z m -1.728,-1.248 q 0,-0.672 -0.168,-1.272 -0.168,-0.624 -0.528,-1.08 -0.336,-0.48 -0.888,-0.744 -0.552,-0.288 -1.32,-0.288 -1.392,0 -2.304,0.912 -0.888,0.912 -1.08,2.496 z"
         id="path2854" /><path
         d="m 418.74441,374.34299 q -0.696,-0.336 -1.344,-0.48 -0.624,-0.144 -1.32,-0.144 -1.224,0 -1.824,0.48 -0.6,0.48 -0.6,1.248 0,0.696 0.456,1.104 0.48,0.384 1.776,0.768 l 0.72,0.216 q 1.488,0.456 2.256,1.224 0.792,0.768 0.792,1.992 0,1.44 -1.08,2.376 -1.08,0.936 -3.096,0.936 -1.08,0 -1.992,-0.192 -0.912,-0.168 -1.584,-0.504 l 0.432,-1.32 q 0.648,0.336 1.392,0.528 0.744,0.168 1.632,0.168 1.224,0 1.896,-0.456 0.696,-0.48 0.696,-1.392 0,-0.768 -0.552,-1.2 -0.528,-0.456 -1.728,-0.84 l -0.768,-0.24 q -1.488,-0.48 -2.208,-1.2 -0.72,-0.744 -0.72,-1.872 0,-0.696 0.288,-1.272 0.288,-0.576 0.816,-0.984 0.528,-0.408 1.224,-0.624 0.72,-0.24 1.584,-0.24 0.792,0 1.656,0.144 0.864,0.144 1.608,0.48 z"
         id="path2856" /><path
         d="m 428.36841,374.34299 q -0.696,-0.336 -1.344,-0.48 -0.624,-0.144 -1.32,-0.144 -1.224,0 -1.824,0.48 -0.6,0.48 -0.6,1.248 0,0.696 0.456,1.104 0.48,0.384 1.776,0.768 l 0.72,0.216 q 1.488,0.456 2.256,1.224 0.792,0.768 0.792,1.992 0,1.44 -1.08,2.376 -1.08,0.936 -3.096,0.936 -1.08,0 -1.992,-0.192 -0.912,-0.168 -1.584,-0.504 l 0.432,-1.32 q 0.648,0.336 1.392,0.528 0.744,0.168 1.632,0.168 1.224,0 1.896,-0.456 0.696,-0.48 0.696,-1.392 0,-0.768 -0.552,-1.2 -0.528,-0.456 -1.728,-0.84 l -0.768,-0.24 q -1.488,-0.48 -2.208,-1.2 -0.72,-0.744 -0.72,-1.872 0,-0.696 0.288,-1.272 0.288,-0.576 0.816,-0.984 0.528,-0.408 1.224,-0.624 0.72,-0.24 1.584,-0.24 0.792,0 1.656,0.144 0.864,0.144 1.608,0.48 z"
         id="path2858" /><path
         d="m 437.36838,383.84699 v -11.28 h 1.68 v 11.28 z m 0.84,-14.184 q -0.48,0 -0.816,-0.312 -0.312,-0.312 -0.312,-0.816 0,-0.504 0.312,-0.816 0.336,-0.336 0.816,-0.336 0.432,0 0.768,0.312 0.36,0.312 0.36,0.84 0,0.528 -0.336,0.84 -0.336,0.288 -0.792,0.288 z"
         id="path2860" /><path
         d="m 444.4004,383.84699 h -1.68 v -11.28 h 1.272 l 0.264,1.56 q 0.84,-0.792 1.752,-1.248 0.936,-0.456 2.136,-0.456 1.728,0 2.712,0.96 0.984,0.96 0.984,2.688 v 7.776 h -1.68 v -7.464 q 0,-1.128 -0.576,-1.848 -0.576,-0.744 -1.92,-0.744 -0.84,0 -1.704,0.432 -0.864,0.408 -1.56,1.176 z"
         id="path2862" /><path
         d="m 147.06422,402.56699 h 1.776 l 2.664,6.984 0.84,2.616 h 0.048 l 0.792,-2.616 2.4,-6.984 h 1.68 l -4.344,12.24 q -0.696,1.944 -1.752,3.048 -1.032,1.128 -2.496,1.68 l -0.696,-1.296 q 1.176,-0.48 2.04,-1.32 0.864,-0.84 1.392,-2.424 l 0.216,-0.648 z"
         id="path2864" /><path
         d="m 169.00022,408.08699 q 0,1.416 -0.408,2.544 -0.408,1.104 -1.128,1.872 -0.72,0.768 -1.704,1.176 -0.96,0.384 -2.064,0.384 -1.128,0 -2.088,-0.36 -0.96,-0.384 -1.656,-1.104 -0.696,-0.744 -1.104,-1.8 -0.408,-1.08 -0.408,-2.472 0,-1.416 0.408,-2.52 0.432,-1.104 1.152,-1.848 0.72,-0.768 1.68,-1.152 0.984,-0.384 2.112,-0.384 1.104,0 2.064,0.36 0.96,0.36 1.656,1.08 0.696,0.72 1.08,1.776 0.408,1.056 0.408,2.448 z m -1.752,0.12 q 0,-1.176 -0.312,-2.016 -0.288,-0.864 -0.792,-1.392 -0.48,-0.552 -1.128,-0.792 -0.624,-0.264 -1.296,-0.264 -0.672,0 -1.32,0.24 -0.624,0.24 -1.128,0.768 -0.48,0.528 -0.792,1.392 -0.288,0.84 -0.288,2.064 0,1.224 0.288,2.088 0.312,0.864 0.816,1.416 0.504,0.528 1.152,0.792 0.648,0.24 1.32,0.24 0.672,0 1.296,-0.216 0.624,-0.24 1.104,-0.768 0.504,-0.552 0.792,-1.416 0.288,-0.864 0.288,-2.136 z"
         id="path2866" /><path
         d="m 179.24824,402.56699 h 1.68 v 11.28 h -1.272 l -0.24,-1.416 h -0.072 q -0.624,0.672 -1.56,1.152 -0.936,0.48 -2.184,0.48 -1.752,0 -2.832,-0.96 -1.08,-0.984 -1.08,-3 v -7.536 h 1.68 v 7.272 q 0,0.84 0.192,1.392 0.192,0.552 0.528,0.888 0.36,0.336 0.816,0.48 0.48,0.12 1.032,0.12 1.032,0 1.872,-0.456 0.864,-0.456 1.44,-1.176 z"
         id="path2868" /><path
         d="m 184.33622,413.84699 v -11.28 h 1.2 l 0.312,2.256 q 0.408,-1.08 1.368,-1.728 0.96,-0.672 2.184,-0.672 0.6,0 1.032,0.096 0.432,0.096 0.696,0.216 l -0.312,1.488 q -0.288,-0.144 -0.648,-0.24 -0.36,-0.096 -0.84,-0.096 -0.696,0 -1.296,0.264 -0.6,0.24 -1.056,0.72 -0.456,0.48 -0.72,1.224 -0.264,0.744 -0.264,1.704 v 6.048 z"
         id="path2870" /><path
         d="m 198.40026,413.84699 v -17.04 h 1.656 v 17.04 z"
         id="path2872" /><path
         d="m 203.82428,413.84699 v -11.28 h 1.68 v 11.28 z m 0.84,-14.184 q -0.48,0 -0.816,-0.312 -0.312,-0.312 -0.312,-0.816 0,-0.504 0.312,-0.816 0.336,-0.336 0.816,-0.336 0.432,0 0.768,0.312 0.36,0.312 0.36,0.84 0,0.528 -0.336,0.84 -0.336,0.288 -0.792,0.288 z"
         id="path2874" /><path
         d="m 213.28029,396.68699 q 0.672,0 1.392,0.192 0.744,0.192 1.32,0.48 l -0.36,1.2 q -0.48,-0.24 -1.008,-0.36 -0.504,-0.144 -0.96,-0.144 -1.176,0 -1.728,0.672 -0.552,0.648 -0.552,2.232 v 1.608 h 3.648 v 1.272 h -3.648 v 10.008 h -1.68 v -10.008 h -1.848 v -1.272 h 1.848 v -2.064 q 0,-1.872 0.936,-2.832 0.936,-0.984 2.64,-0.984 z"
         id="path2876" /><path
         d="m 225.6163,408.32699 h -8.064 v 0.216 q 0,1.992 1.08,3.096 1.08,1.104 2.952,1.104 0.84,0 1.56,-0.12 0.72,-0.144 1.488,-0.456 l 0.36,1.248 q -0.672,0.288 -1.584,0.456 -0.888,0.192 -1.896,0.192 -1.176,0 -2.208,-0.336 -1.032,-0.336 -1.824,-1.032 -0.768,-0.72 -1.224,-1.824 -0.456,-1.104 -0.456,-2.64 0,-1.32 0.384,-2.4 0.384,-1.08 1.056,-1.824 0.696,-0.768 1.656,-1.176 0.984,-0.408 2.184,-0.408 1.032,0 1.848,0.36 0.84,0.336 1.44,0.984 0.6,0.648 0.912,1.56 0.336,0.912 0.336,2.016 z m -1.728,-1.248 q 0,-0.672 -0.168,-1.272 -0.168,-0.624 -0.528,-1.08 -0.336,-0.48 -0.888,-0.744 -0.552,-0.288 -1.32,-0.288 -1.392,0 -2.304,0.912 -0.888,0.912 -1.08,2.496 z"
         id="path2878" /><path
         d="m 227.68032,412.76699 q 0,-0.552 0.336,-0.912 0.36,-0.36 0.864,-0.36 0.504,0 0.84,0.36 0.36,0.36 0.36,0.912 0,0.6 -0.36,0.96 -0.336,0.336 -0.84,0.336 -0.504,0 -0.864,-0.336 -0.336,-0.36 -0.336,-0.96 z"
         id="path2880" /></g></g><plotdata
     application="axidraw"
     model="1"
     plob_version="n/a"
     layer="-1"
     pause_dist="225741"
     pause_ref="225741"
     last_x="81.86875000000018"
     last_y="93.85624999999995"
     rand_seed="1"
     row="0" /></svg>
