<?xml version="1.0" encoding="UTF-8" standalone="no"?>
<!-- Created with Inkscape (http://www.inkscape.org/) -->

<svg
   width="210mm"
   height="297mm"
   viewBox="0 0 210 297"
   version="1.1"
   id="svg5"
   xml:space="preserve"
   sodipodi:docname="drawing-1.svg"
   inkscape:version="1.2.2 (732a01da63, 2022-12-09)"
   xmlns:inkscape="http://www.inkscape.org/namespaces/inkscape"
   xmlns:sodipodi="http://sodipodi.sourceforge.net/DTD/sodipodi-0.dtd"
   xmlns="http://www.w3.org/2000/svg"
   xmlns:svg="http://www.w3.org/2000/svg"><sodipodi:namedview
     id="namedview7"
     pagecolor="#ffffff"
     bordercolor="#666666"
     borderopacity="1.0"
     inkscape:showpageshadow="2"
     inkscape:pageopacity="0.0"
     inkscape:pagecheckerboard="0"
     inkscape:deskcolor="#d1d1d1"
     inkscape:document-units="mm"
     showgrid="false"
     inkscape:zoom="0.69130191"
     inkscape:cx="396.3536"
     inkscape:cy="561.25984"
     inkscape:window-width="1920"
     inkscape:window-height="974"
     inkscape:window-x="-11"
     inkscape:window-y="-11"
     inkscape:window-maximized="1"
     inkscape:current-layer="layer1" /><defs
     id="defs2" /><g
     inkscape:label="Layer 1"
     inkscape:groupmode="layer"
     id="layer1"><path
       style="fill:#000000;stroke-width:0.264583"
       d="m 92.061287,121.0065 v -2.1316 l 9.764553,0.0811 c 5.3705,0.0446 9.71876,0.007 9.6628,-0.0832 -0.056,-0.0903 -0.45675,-0.23526 -0.89063,-0.32203 -1.05164,-0.21033 -2.79813,-1.82351 -3.36485,-3.10801 l -0.45704,-1.0359 -1.9996,-0.002 c -4.32691,-0.003 -5.039773,-0.70623 -5.041323,-4.97249 -0.002,-4.29621 0.731853,-5.08009 4.753013,-5.08009 h 2.12517 v -4.894792 -4.89479 h -0.79375 c -0.65914,0 -0.79375,-0.10657 -0.79375,-0.62839 0,-1.63932 -0.29428,-2.22871 -1.19735,-2.39812 -0.48195,-0.0904 -1.52692,-0.49258 -2.32214,-0.8937 l -1.44587,-0.72931 -1.023053,0.86032 -1.02305,0.86032 -1.50702,-1.48965 -1.50702,-1.48966 0.86023,-1.03559 0.86022,-1.0356 -0.73432,-1.45579 c -0.40387,-0.80068 -0.80836,-1.85047 -0.89885,-2.33286 -0.1566,-0.83475 -0.23358,-0.88569 -1.59546,-1.05585 l -1.43091,-0.17878 v -2.06714 -2.06714 l 1.42872,-0.17851 c 1.36382,-0.1704 1.43628,-0.21888 1.59545,-1.0673 0.0917,-0.48883 0.49718,-1.5439 0.90105,-2.34458 l 0.73432,-1.45579 -0.86022,-1.0356 -0.86023,-1.03559 1.50702,-1.48966 1.50702,-1.48965 1.02305,0.86032 1.023053,0.86032 1.44587,-0.72931 c 0.79522,-0.40112 1.84019,-0.80328 2.32214,-0.8937 0.90307,-0.16942 1.19735,-0.7588 1.19735,-2.39812 0,-0.60862 0.066,-0.62839 2.09762,-0.62839 h 2.09763 l 0.17878,1.43091 c 0.17016,1.36188 0.2211,1.43885 1.05585,1.59545 0.48239,0.0905 1.53218,0.49499 2.33287,0.89886 l 1.45579,0.73432 1.03559,-0.86023 1.0356,-0.86022 1.49807,1.51387 1.49807,1.51386 -0.82497,1.00083 -0.82496,1.00083 0.80397,1.77045 c 0.44219,0.97374 0.8439,2.00857 0.8927,2.29961 0.0688,0.41052 0.39999,0.58449 1.47702,0.77589 l 1.38829,0.24672 v 2.03117 2.03117 l -1.38625,0.23565 c -1.07861,0.18336 -1.40639,0.35309 -1.47701,0.76482 -0.0499,0.29104 -0.45356,1.32803 -0.89696,2.30441 l -0.80618,1.77525 0.81173,1.00288 0.81173,1.00287 -1.47805,1.5024 -1.47806,1.5024 -1.01518,-0.81583 -1.01519,-0.81582 -1.78998,0.81297 c -0.98449,0.44714 -2.02811,0.85383 -2.31915,0.90375 -0.41173,0.0706 -0.58146,0.39841 -0.76482,1.47701 -0.21993,1.29379 -0.2861,1.38625 -0.99218,1.38625 h -0.75654 v 4.85883 4.858832 l 1.22755,0.16825 c 0.67516,0.0925 4.02109,0.16826 7.43541,0.16826 h 6.20786 l 3.61094,2.15776 c 1.98602,1.18677 3.76254,2.27519 3.94781,2.41873 0.24649,0.19096 -0.67625,0.87199 -3.43958,2.53859 l -3.77645,2.27762 -7.32055,0.1323 c -4.0263,0.0728 -7.38588,0.1978 -7.46573,0.27788 -0.0798,0.0801 -0.0403,0.49679 0.0879,0.92604 0.1282,0.42925 0.24333,0.69656 0.25583,0.59404 0.0125,-0.10253 0.32154,0.11239 0.68674,0.47758 1.26532,1.26532 2.11088,1.42862 7.3973,1.42862 4.6476,0 4.9033,0.0263 4.9033,0.50468 0,0.42438 0.2316,0.5191 1.45556,0.59531 1.36003,0.0847 1.45555,0.0516 1.45521,-0.50468 l -3.6e-4,-0.59531 h 9.04195 9.04196 l -0.54027,-0.59531 c -1.64176,-1.80902 -1.52348,-0.30472 -1.66864,-21.220982 l -0.13229,-19.06183 h -8.00372 c -7.44623,0 -8.00372,-0.0322 -8.00365,-0.46302 7e-5,-0.43148 0.58597,-0.46302 8.59904,-0.46302 h 8.59896 v 4.36562 c 0,3.97981 -0.0409,4.36598 -0.46303,4.36968 -0.35501,0.003 -0.3806,0.0563 -0.10969,0.22802 0.39961,0.2533 0.39313,0.53734 -0.0237,1.03963 -0.21474,0.25873 -0.19244,0.32527 0.0886,0.26458 0.31731,-0.0685 0.38632,1.28251 0.44523,8.71632 l 0.0697,8.797402 h 1.71623 c 1.53983,0 1.71622,0.0544 1.71622,0.52916 0,0.4754 -0.17639,0.52917 -1.73582,0.52917 h -1.73583 l 0.0822,4.98241 0.0822,4.98241 0.74293,0.97315 c 2.07976,2.72425 6.21327,2.63821 8.07193,-0.16802 0.69547,-1.05003 0.71194,-1.17215 0.79713,-5.90851 l 0.087,-4.83631 -1.78244,-0.0787 c -1.42943,-0.0631 -1.79517,-0.16667 -1.84673,-0.52283 -0.0561,-0.38733 0.23687,-0.44413 2.29076,-0.44413 h 2.35507 v 4.75873 c 0,2.73748 -0.13057,5.27726 -0.3074,5.97953 -0.38648,1.53482 -2.36271,3.68828 -3.6145,3.93864 -1.71953,0.3439 -1.02345,0.55313 1.41577,0.42554 l 2.50612,-0.13109 v 2.15272 2.15272 H 122.0915 92.061287 Z m 7.03495,0.67697 c 0.0912,-0.36347 0.0771,-0.86949 -0.0314,-1.12448 -0.17029,-0.40026 -0.22481,-0.37323 -0.39903,0.19785 -0.1937,0.63493 -0.20285,0.6375 -0.22817,0.064 -0.0232,-0.52462 -0.16344,-0.5958 -1.15085,-0.58392 -0.61846,0.007 -1.30307,-0.0103 -1.52135,-0.0395 -0.75677,-0.1012 -1.32292,0.0317 -1.32292,0.31049 0,0.15411 0.14883,0.19617 0.33073,0.0935 0.26458,-0.14938 0.26458,-0.11546 0,0.16959 -0.77042,0.83002 -0.39704,1.09045 1.43308,0.99955 1.24094,-0.0616 1.79651,0.0104 1.87413,0.24312 0.19069,0.57165 0.84261,0.35977 1.01576,-0.33014 z m 48.726133,0.0656 c -0.11777,-0.35372 -2.05066,-0.51457 -2.05066,-0.17065 0,0.11267 0.44649,0.25155 0.99219,0.30863 0.5457,0.0571 1.03187,0.12381 1.08038,0.14827 0.0485,0.0245 0.0386,-0.10435 -0.0219,-0.28625 z m -2.31524,-0.23325 c 0,-0.11751 -0.41672,-0.198 -0.92604,-0.17885 -0.50933,0.0192 -0.92604,0.13096 -0.92604,0.24847 0,0.11751 0.41671,0.19799 0.92604,0.17885 0.50932,-0.0192 0.92604,-0.13096 0.92604,-0.24847 z m 4.23333,0.0721 c 0,-0.27178 -1.2779,-0.32416 -1.44173,-0.0591 -0.06,0.0971 0.23979,0.20321 0.66629,0.23571 0.42649,0.0325 0.77544,-0.047 0.77544,-0.17663 z m -45.64063,-12.2081 v -3.83646 l -0.98846,-0.0819 c -0.77016,-0.0638 -1.13537,0.065 -1.65365,0.58329 -0.61824,0.61824 -0.66518,0.84463 -0.66518,3.20814 0,1.39863 0.12685,2.77998 0.28188,3.06966 0.35332,0.66018 1.20252,1.02142 2.23166,0.94933 l 0.79375,-0.0556 z m 4.10105,0 v -3.96875 h -1.45521 -1.45521 v 3.96875 3.96875 h 1.45521 1.45521 z m 13.49375,2.11666 v -1.5875 h -6.21771 -6.21771 v 1.5875 1.5875 h 6.21771 6.21771 z m 4.01006,-0.46302 c 1.42726,-0.83674 2.59503,-1.58088 2.59503,-1.65364 0,-0.15529 -5.10586,-3.175 -5.36841,-3.175 -0.0981,0 -0.17835,1.42875 -0.17835,3.175 0,1.74625 0.0803,3.175 0.17835,3.175 0.0981,0 1.34611,-0.68461 2.77338,-1.52136 z m -10.36006,-1.65364 c 0,-0.14552 -0.12609,-0.26459 -0.2802,-0.26459 -0.15411,0 -0.20662,0.11907 -0.11668,0.26459 0.0899,0.14552 0.21603,0.26458 0.2802,0.26458 0.0642,0 0.11668,-0.11906 0.11668,-0.26458 z m 6.35,-2.11667 v -1.5875 h -6.21771 -6.21771 v 1.5875 1.5875 h 6.21771 6.21771 z M 108.46546,92.215658 v -1.2891 l 1.01527,-0.16235 c 0.5584,-0.0893 1.87281,-0.59136 2.92091,-1.11571 2.09014,-1.04565 1.80279,-1.06746 3.62967,0.27553 0.24512,0.1802 0.54674,0.0689 1.02122,-0.37685 0.83532,-0.78475 0.83469,-0.89328 -0.0116,-2.00283 l -0.68495,-0.89801 0.95329,-1.90552 c 0.52431,-1.04804 1.0254,-2.35645 1.11353,-2.90759 0.15626,-0.97721 0.19063,-1.00404 1.38531,-1.08142 1.2173,-0.0788 1.2256,-0.0859 1.30952,-1.11075 0.0981,-1.19795 -0.19365,-1.47226 -1.572,-1.47809 -0.90577,-0.004 -0.96728,-0.0598 -1.12072,-1.01932 -0.0893,-0.5584 -0.59133,-1.87275 -1.11564,-2.92079 l -0.95329,-1.90552 0.719,-0.94266 0.71901,-0.94267 -0.80989,-0.80989 -0.80989,-0.80989 -0.97149,0.85298 c -0.87818,0.77105 -1.01401,0.8145 -1.41416,0.45237 -0.63204,-0.57199 -3.16514,-1.68045 -4.31752,-1.8893 -0.94723,-0.17167 -0.98135,-0.21703 -1.05833,-1.40723 l -0.0795,-1.22984 -1.09008,-0.0797 c -1.17293,-0.0857 -1.4114,0.22053 -1.41985,1.82351 -0.003,0.61247 -0.1554,0.71947 -1.42847,1.00437 -0.78367,0.17538 -2.08377,0.71565 -2.88911,1.2006 l -1.46426,0.88172 -0.970253,-0.79976 -0.97026,-0.79977 -0.80899,0.80899 -0.80898,0.80899 0.79976,0.97025 0.79977,0.97026 -0.88173,1.46425 c -0.48495,0.80534 -1.02522,2.10544 -1.20059,2.88911 -0.31297,1.39846 -0.33648,1.42494 -1.26896,1.42891 -1.36978,0.006 -1.66167,0.28175 -1.5637,1.47809 0.0838,1.02384 0.0934,1.03198 1.302,1.11045 l 1.21756,0.079 0.31598,1.41196 c 0.17379,0.77658 0.71276,2.07088 1.19771,2.87622 l 0.88173,1.46425 -0.79977,0.97026 -0.79976,0.97025 0.81023,0.81024 0.81023,0.81023 1.06029,-0.83977 c 0.70267,-0.55652 1.122313,-0.73941 1.244173,-0.54225 0.27957,0.45237 3.21688,1.77267 4.38138,1.96941 0.95637,0.16158 1.03041,0.2374 1.03041,1.05523 0,1.48312 0.20296,1.71818 1.48351,1.71818 h 1.16232 z m -3.43958,-6.21277 c -0.50933,-0.1926 -0.96787,-0.56529 -1.01899,-0.82819 -0.075,-0.38587 -0.13799,-0.40685 -0.32668,-0.10887 -0.18134,0.2864 -0.23464,0.29151 -0.23778,0.0228 -0.002,-0.19049 -0.11312,-0.27894 -0.24641,-0.19656 -0.42254,0.26114 -2.13522,-2.02728 -2.54173,-3.39616 -0.49563,-1.66898 -0.4912,-2.37406 0.0259,-4.11521 0.77179,-2.59891 3.71909,-4.77802 6.46239,-4.77802 2.28113,0 5.04796,1.70776 6.15456,3.79874 0.76904,1.45316 0.81886,4.6144 0.0944,5.99085 -0.68627,1.3039 -1.96783,2.59943 -3.1985,3.23333 -1.29686,0.66801 -3.89645,0.85783 -5.16715,0.3773 z m 1.5875,-5.33043 v -4.6302 h 2.50523 c 2.82848,0 2.99324,-0.1983 1.15508,-1.39019 -3.08066,-1.99753 -7.31581,-0.53779 -8.54376,2.94481 -0.76974,2.18304 -0.35778,4.05694 1.269,5.77245 0.9115,0.9612 2.52634,1.86966 3.41601,1.92173 0.10914,0.006 0.19844,-2.07198 0.19844,-4.6186 z m 3.69246,3.62048 c 1.70563,-1.03911 2.74205,-3.08029 2.5995,-5.11957 -0.15293,-2.18755 -0.39289,-2.37254 -2.95926,-2.28126 l -2.14208,0.0762 -0.073,4.19759 -0.073,4.1976 0.73448,-0.17616 c 0.40396,-0.0969 1.26499,-0.49936 1.9134,-0.89439 z m 13.39498,17.713782 c -0.0779,-0.12611 0.33175,-1.63858 0.91042,-3.361042 0.57868,-1.72247 1.05214,-3.15546 1.05214,-3.18442 0,-0.029 -0.37248,-0.1825 -0.82774,-0.3412 -0.68633,-0.23926 -0.77279,-0.35476 -0.50609,-0.67612 0.20217,-0.2436 0.58362,-0.33516 1.02691,-0.2465 0.68884,0.13776 0.72814,0.0718 1.68777,-2.83288 0.79899,-2.41845 0.91728,-3.02757 0.63329,-3.26114 -1.1885,-0.97746 -1.63848,-2.80075 -0.69122,-2.80075 0.3593,0 0.52916,0.17639 0.52916,0.54952 0,0.30224 0.34803,0.89755 0.7734,1.32292 0.60793,0.60793 1.00984,0.7734 1.87854,0.7734 0.91191,0 1.26836,-0.16321 2.03857,-0.93343 0.84998,-0.84998 0.92004,-1.03331 0.78363,-2.05052 -0.29635,-2.20992 -2.43982,-3.21046 -4.36425,-2.03717 -1.11521,0.67994 -1.97302,0.37828 -1.11987,-0.39381 0.39711,-0.35937 0.53915,-0.81625 0.53915,-1.73415 0,-2.1444 1.37707,-3.22661 3.15467,-2.47918 0.90497,0.38051 1.34325,1.2457 1.34325,2.65168 0,0.57208 0.24513,1.24863 0.64085,1.76871 1.21591,1.598 1.21123,3.48005 -0.0123,4.93409 l -0.67328,0.80014 0.96964,2.90994 0.96963,2.90995 0.82838,-0.0643 c 1.07077,-0.0831 1.3449,0.71313 0.33298,0.9671 -0.37108,0.0931 -0.67469,0.31568 -0.67469,0.49453 0,0.17886 0.43005,1.61582 0.95567,3.19324 0.70129,2.104622 0.87736,2.946372 0.66146,3.162272 -0.45749,0.45749 -0.6806,0.0442 -1.75499,-3.251202 l -0.99203,-3.04271 h -3.53623 -3.53623 l -1.08011,3.24115 c -0.99873,2.996902 -1.48413,3.750302 -1.94052,3.011862 z m 9.30322,-7.396212 c 0.25143,-0.15966 0.12108,-0.83074 -0.55165,-2.84022 l -0.88087,-2.63116 -1.33966,-0.079 -1.33966,-0.079 -0.89633,2.78785 c -0.55226,1.7177 -0.79111,2.83182 -0.62222,2.90242 0.49205,0.20568 5.29239,0.15383 5.63039,-0.0608 z m -1.51983,-14.09088 c 0,-1.00529 -1.03033,-1.74216 -1.83434,-1.31187 -0.40244,0.21538 -0.54691,0.55284 -0.54691,1.27748 v 0.98479 l 1.19063,-0.0947 c 1.11319,-0.0885 1.19062,-0.14418 1.19062,-0.8557 z"
       id="path125" /></g><plotdata
     application="axidraw"
     model="1"
     plob_version="n/a"
     layer="-2"
     pause_dist="-25400"
     pause_ref="-25400"
     last_x="-1.378699238108183e-13"
     last_y="4.260793107224714e-14"
     rand_seed="1"
     row="0" /></svg>
