<?xml version="1.0" encoding="UTF-8" standalone="no"?>
<!-- Created with Inkscape (http://www.inkscape.org/) -->

<svg
   width="210mm"
   height="297mm"
   viewBox="0 0 210 297"
   version="1.1"
   id="svg1"
   inkscape:version="1.4.2 (f4327f4, 2025-05-13)"
   sodipodi:docname="drawing-2.svg"
   xmlns:inkscape="http://www.inkscape.org/namespaces/inkscape"
   xmlns:sodipodi="http://sodipodi.sourceforge.net/DTD/sodipodi-0.dtd"
   xmlns="http://www.w3.org/2000/svg"
   xmlns:svg="http://www.w3.org/2000/svg">
  <sodipodi:namedview
     id="namedview1"
     pagecolor="#ffffff"
     bordercolor="#666666"
     borderopacity="1.0"
     inkscape:showpageshadow="2"
     inkscape:pageopacity="0.0"
     inkscape:pagecheckerboard="0"
     inkscape:deskcolor="#d1d1d1"
     inkscape:document-units="mm"
     inkscape:zoom="0.65477694"
     inkscape:cx="334.46505"
     inkscape:cy="550.56918"
     inkscape:window-width="1920"
     inkscape:window-height="974"
     inkscape:window-x="-11"
     inkscape:window-y="-11"
     inkscape:window-maximized="1"
     inkscape:current-layer="layer1" />
  <defs
     id="defs1">
    <rect
       x="174.10509"
       y="433.7355"
       width="542.16937"
       height="109.96111"
       id="rect1" />
  </defs>
  <g
     inkscape:label="Layer 1"
     inkscape:groupmode="layer"
     id="layer1">
    <path
       d="m 25.820043,109.46522 h -0.944211 v 6.95966 h -0.732888 v -4.54657 h -1.46128 q -0.301249,0 -0.544046,0.0466 -0.242798,0.0414 -0.413655,0.17607 -0.170858,0.12946 -0.265278,0.36767 -0.08992,0.23301 -0.08992,0.61621 0,0.49712 0.139383,0.91656 0.14388,0.41944 0.364196,0.77157 0.220317,0.34694 0.485595,0.64211 0.269774,0.29516 0.517068,0.54372 l -0.449625,0.59033 q -0.04047,-0.0259 -0.193338,-0.15017 -0.148376,-0.12946 -0.350707,-0.34696 -0.197835,-0.21748 -0.422647,-0.52818 -0.220316,-0.31069 -0.409159,-0.69907 -0.184345,-0.39356 -0.310241,-0.86477 -0.121398,-0.47123 -0.121398,-1.01495 0,-0.53855 0.130391,-0.89067 0.134887,-0.35731 0.377684,-0.56444 0.242798,-0.21231 0.589009,-0.29517 0.346211,-0.0829 0.773354,-0.0829 h 1.65462 v -1.6467 h -4.27144 v -0.76121 h 5.948534 z m 2.392003,0 h -0.944212 v 6.95966 H 26.53045 v -6.95966 h -1.025144 v -0.76121 h 1.097083 q -0.08094,-0.52819 -0.206827,-0.90102 -0.125895,-0.37801 -0.274271,-0.62657 -0.148376,-0.25374 -0.310241,-0.39873 -0.161865,-0.145 -0.310241,-0.21749 -0.152872,-0.0725 -0.283264,-0.0932 -0.134887,-0.0207 -0.220315,-0.0207 -0.278768,0 -0.445128,0.10356 -0.170859,0.0984 -0.260783,0.23821 -0.08992,0.13982 -0.116903,0.29517 -0.03147,0.15016 -0.03147,0.25891 0,0.0414 0.01349,0.17088 0.009,0.12428 0.07194,0.31588 0.05845,0.1916 0.184347,0.42981 0.125895,0.2382 0.355204,0.50228 h -0.764363 q -0.283263,-0.37283 -0.422647,-0.77156 -0.143879,-0.40391 -0.143879,-0.78192 0,-0.31588 0.09892,-0.60069 0.09892,-0.28481 0.296752,-0.49194 0.197835,-0.21231 0.494587,-0.33659 0.296752,-0.12428 0.687925,-0.12428 0.539551,0 0.930723,0.24338 0.391174,0.2382 0.656452,0.65246 0.269775,0.41427 0.422648,0.97353 0.157368,0.55407 0.220315,1.18066 h 0.966694 z m 9.154358,-0.76121 v 0.76121 h -0.944213 v 6.95966 h -0.746377 v -3.47983 h -2.603326 q -0.238301,0.18124 -0.571024,0.21749 l -0.009,0.0259 q 0.436134,0.7871 0.957699,1.46546 0.521565,0.67837 1.187009,1.25833 l -0.481099,0.6369 q -0.38218,-0.32624 -0.72839,-0.70425 -0.341715,-0.37802 -0.647461,-0.78192 -0.301247,-0.4091 -0.566526,-0.82336 -0.265278,-0.41944 -0.485595,-0.82335 -0.220316,-0.4039 -0.39567,-0.77674 -0.175353,-0.37802 -0.305744,-0.69908 l 0.615985,-0.38319 q 0.08543,0.22784 0.166361,0.38319 0.08543,0.15018 0.170857,0.24338 0.08543,0.088 0.17985,0.12946 0.09442,0.0362 0.202332,0.0362 0.310241,0 0.45412,-0.27963 0.148377,-0.27963 0.148377,-0.73532 0,-0.26928 -0.04497,-0.52819 -0.04497,-0.26409 -0.116901,-0.50229 -0.06744,-0.24338 -0.148377,-0.4557 -0.08094,-0.2123 -0.152872,-0.38319 h -2.08176 v -0.76121 z m -1.69059,0.76121 h -2.396499 q 0.188842,0.47123 0.296753,0.94764 0.107909,0.4764 0.107909,0.94762 0,0.2175 -0.03147,0.42981 -0.02698,0.20713 -0.09442,0.39355 l 0.009,0.0103 h 2.108739 z m 7.324385,0 h -0.944212 v 6.95966 h -0.732888 v -4.54657 h -1.46128 q -0.301248,0 -0.544046,0.0466 -0.242797,0.0414 -0.413656,0.17607 -0.170856,0.12946 -0.265278,0.36767 -0.08992,0.23301 -0.08992,0.61621 0,0.49712 0.139385,0.91656 0.14388,0.41944 0.364195,0.77157 0.220316,0.34694 0.485594,0.64211 0.269777,0.29516 0.517069,0.54372 l -0.449624,0.59033 q -0.04047,-0.0259 -0.193338,-0.15017 -0.148376,-0.12946 -0.350708,-0.34696 -0.197835,-0.21748 -0.422648,-0.52818 -0.220315,-0.31069 -0.409157,-0.69907 -0.184347,-0.39356 -0.310241,-0.86477 -0.121399,-0.47123 -0.121399,-1.01495 0,-0.53855 0.13039,-0.89067 0.134887,-0.35731 0.377685,-0.56444 0.242797,-0.21231 0.589009,-0.29517 0.34621,-0.0829 0.773354,-0.0829 H 41.3231 v -1.6467 h -4.271434 v -0.76121 H 43.0002 Z m 5.633796,0 h -0.944211 v 6.95966 h -0.732889 v -4.54657 h -1.46128 q -0.301247,0 -0.544044,0.0466 -0.242798,0.0414 -0.413656,0.17607 -0.170857,0.12946 -0.265277,0.36767 -0.08992,0.23301 -0.08992,0.61621 0,0.49712 0.139382,0.91656 0.143881,0.41944 0.364196,0.77157 0.220317,0.34694 0.485596,0.64211 0.269774,0.29516 0.517067,0.54372 l -0.449624,0.59033 q -0.04047,-0.0259 -0.193339,-0.15017 -0.148376,-0.12946 -0.350707,-0.34696 -0.197835,-0.21748 -0.422646,-0.52818 -0.220317,-0.31069 -0.409159,-0.69907 -0.184347,-0.39356 -0.310241,-0.86477 -0.121399,-0.47123 -0.121399,-1.01495 0,-0.53855 0.130391,-0.89067 0.134887,-0.35731 0.377685,-0.56444 0.242798,-0.21231 0.589008,-0.29517 0.346211,-0.0829 0.773354,-0.0829 H 46.9569 v -1.6467 h -4.271433 v -0.76121 H 48.634 Z m 8.115724,0 h -0.944212 v 6.95966 h -0.74188 v -3.99248 h -2.104244 q 0,0.34176 -0.009,0.58514 -0.0045,0.24338 -0.03597,0.40391 -0.03147,0.15536 -0.09442,0.22785 -0.06295,0.0725 -0.175354,0.0725 -0.233804,0 -0.445128,-0.17606 -0.206827,-0.17607 -0.368692,-0.42462 -0.157369,-0.24856 -0.25179,-0.51784 -0.09442,-0.26927 -0.09442,-0.45569 0,-0.1657 0.06295,-0.25891 0.06294,-0.0932 0.166361,-0.13982 0.103413,-0.0466 0.233805,-0.0569 0.134887,-0.0104 0.269774,-0.0104 h 2.846124 v -2.21632 h -4.221949 v -0.76121 h 5.908067 z m 5.413479,0 h -0.944212 v 6.95966 h -0.737384 v -1.84866 l -0.01799,-0.005 q -0.08992,0.0984 -0.211322,0.20713 -0.121399,0.10357 -0.278768,0.1916 -0.157369,0.0829 -0.355203,0.13982 -0.193338,0.0569 -0.436136,0.0569 -0.445128,0 -0.813821,-0.19677 -0.364195,-0.19678 -0.629474,-0.52301 -0.265278,-0.33142 -0.413654,-0.75604 -0.143881,-0.4298 -0.143881,-0.89584 0,-0.46605 0.143881,-0.86479 0.148376,-0.4039 0.404661,-0.69907 0.256286,-0.29515 0.598001,-0.46086 0.341716,-0.17089 0.732888,-0.17089 0.107909,0 0.269775,0.0208 0.166361,0.0207 0.355203,0.0932 0.188842,0.0725 0.391174,0.2123 0.202331,0.13464 0.386676,0.36767 l 0.01799,-0.005 v -1.82277 h -4.046621 v -0.76121 h 5.728217 z m -1.66361,2.79111 q -0.283265,-0.39354 -0.615986,-0.63174 -0.332722,-0.24339 -0.755369,-0.24339 -0.332723,0 -0.566527,0.14499 -0.229309,0.14499 -0.377685,0.36766 -0.148376,0.2175 -0.21582,0.48676 -0.06744,0.26927 -0.06744,0.51783 0,0.26927 0.07644,0.53337 0.07644,0.26409 0.224813,0.4764 0.152872,0.20713 0.377683,0.34177 0.224813,0.12946 0.526062,0.12946 0.310241,0 0.566526,-0.13463 0.256287,-0.13982 0.440633,-0.35213 0.184346,-0.2123 0.283264,-0.47641 0.103414,-0.26408 0.103414,-0.51265 z m 7.256941,-2.79111 h -0.944212 v 6.95966 h -0.741882 v -3.99248 h -2.104242 q 0,0.34176 -0.009,0.58514 -0.0045,0.24338 -0.03597,0.40391 -0.03147,0.15536 -0.09442,0.22785 -0.06295,0.0725 -0.175353,0.0725 -0.233805,0 -0.445129,-0.17606 -0.206828,-0.17607 -0.368691,-0.42462 -0.157369,-0.24856 -0.251791,-0.51784 -0.09442,-0.26927 -0.09442,-0.45569 0,-0.1657 0.06294,-0.25891 0.06295,-0.0932 0.166363,-0.13982 0.103413,-0.0466 0.233804,-0.0569 0.134888,-0.0104 0.269775,-0.0104 h 2.846123 v -2.21632 h -4.22198 v -0.76122 h 5.908066 z m 5.413478,0 h -0.94421 v 6.95966 h -0.737384 v -1.84866 l -0.01797,-0.005 q -0.08992,0.0984 -0.211324,0.20713 -0.121401,0.10357 -0.278768,0.1916 -0.157368,0.0829 -0.355201,0.13982 -0.193339,0.0569 -0.436136,0.0569 -0.445128,0 -0.813821,-0.19677 -0.364198,-0.19678 -0.629475,-0.52301 -0.265281,-0.33142 -0.413656,-0.75604 -0.14388,-0.4298 -0.14388,-0.89584 0,-0.46605 0.14388,-0.86479 0.148375,-0.4039 0.404664,-0.69907 0.256283,-0.29515 0.597997,-0.46086 0.341719,-0.17089 0.73289,-0.17089 0.107909,0 0.269776,0.0208 0.16636,0.0207 0.355205,0.0932 0.18884,0.0725 0.391172,0.2123 0.202331,0.13464 0.386677,0.36767 l 0.01797,-0.005 v -1.82277 h -4.046624 v -0.76121 h 5.728218 z m -1.663608,2.79111 q -0.283267,-0.39354 -0.615987,-0.63174 -0.332722,-0.24339 -0.755371,-0.24339 -0.33272,0 -0.566524,0.14499 -0.229311,0.14499 -0.377685,0.36766 -0.14838,0.2175 -0.215823,0.48676 -0.06744,0.26927 -0.06744,0.51783 0,0.26927 0.07644,0.53337 0.07644,0.26409 0.224812,0.4764 0.152873,0.20713 0.377685,0.34177 0.224816,0.12946 0.526064,0.12946 0.310241,0 0.566524,-0.13463 0.256289,-0.13982 0.440635,-0.35213 0.184346,-0.2123 0.283263,-0.47641 0.103415,-0.26408 0.103415,-0.51265 z m 4.055617,-2.79111 h -0.944215 v 6.95966 h -0.737384 v -6.95966 h -1.025144 v -0.76121 h 1.097083 q -0.08094,-0.52819 -0.206826,-0.90102 -0.125896,-0.37801 -0.27427,-0.62657 -0.148375,-0.25374 -0.310241,-0.39873 -0.161866,-0.145 -0.310241,-0.21749 -0.152874,-0.0725 -0.283262,-0.0932 -0.134888,-0.0207 -0.220318,-0.0207 -0.278768,0 -0.445128,0.10356 -0.170859,0.0984 -0.260783,0.23821 -0.08992,0.13982 -0.116902,0.29517 -0.03146,0.15016 -0.03146,0.25891 0,0.0414 0.01349,0.17088 0.009,0.12428 0.07194,0.31588 0.05845,0.1916 0.184347,0.42981 0.125894,0.2382 0.3552,0.50228 h -0.764363 q -0.283262,-0.37283 -0.422644,-0.77156 -0.143881,-0.40391 -0.143881,-0.78192 0,-0.31588 0.09892,-0.60069 0.09892,-0.28481 0.296754,-0.49194 0.197833,-0.21231 0.494587,-0.33659 0.296749,-0.12428 0.687925,-0.12428 0.539547,0 0.930724,0.24338 0.391171,0.2382 0.656447,0.65246 0.269781,0.41427 0.42265,0.97353 0.157372,0.55407 0.220317,1.18066 h 0.966694 z m 5.59333,0 h -0.944215 v 6.95966 h -0.741878 v -3.99248 h -2.104242 q 0,0.34176 -0.009,0.58514 -0.0047,0.24338 -0.03595,0.40391 -0.03146,0.15536 -0.09442,0.22785 -0.06295,0.0725 -0.175353,0.0725 -0.233804,0 -0.445128,-0.17606 -0.206831,-0.17607 -0.368692,-0.42462 -0.157368,-0.24856 -0.25179,-0.51784 -0.09442,-0.26927 -0.09442,-0.45569 0,-0.1657 0.06294,-0.25891 0.06295,-0.0932 0.166366,-0.13982 0.10341,-0.0466 0.233804,-0.0569 0.134888,-0.0104 0.269776,-0.0104 h 2.84612 v -2.21632 h -4.221972 v -0.76121 h 5.908064 z m -55.07452,15.08967 v 0.76121 h -0.944212 v 6.95964 H 24.39923 v -5.04885 h -2.117733 v 0.0569 q 0.202331,0.12428 0.418151,0.32106 0.215819,0.19677 0.391173,0.45569 0.17985,0.25892 0.292257,0.57997 0.116902,0.31587 0.116902,0.68872 0,0.26926 -0.07194,0.51782 -0.07194,0.24338 -0.21582,0.45052 -0.139383,0.20713 -0.350707,0.3573 -0.211324,0.15017 -0.485594,0.22267 l -0.009,0.0155 q 0.130391,0.17607 0.265278,0.37802 0.139385,0.19677 0.287761,0.45052 0.152872,0.24855 0.323729,0.56443 0.175353,0.31588 0.377684,0.72497 l -0.63397,0.4039 q -0.05395,-0.12946 -0.148376,-0.32623 -0.09442,-0.19678 -0.215819,-0.42463 -0.116903,-0.22266 -0.256287,-0.46604 -0.134887,-0.24338 -0.274271,-0.46605 -0.134887,-0.22785 -0.269775,-0.41944 -0.130391,-0.19159 -0.238302,-0.31588 -0.305743,0 -0.530556,-0.0984 -0.224813,-0.0984 -0.377685,-0.24856 -0.148376,-0.15017 -0.224813,-0.33658 -0.07194,-0.18643 -0.07194,-0.36249 0,-0.12428 0.03597,-0.23302 0.03597,-0.11393 0.10791,-0.19678 0.07644,-0.088 0.188842,-0.13981 0.112407,-0.0518 0.265278,-0.0518 0.310241,0 0.562032,0.2123 0.256286,0.20713 0.458616,0.58516 0.395671,-0.0311 0.589008,-0.24856 0.197837,-0.22267 0.197837,-0.57998 0,-0.3573 -0.175354,-0.67835 -0.170859,-0.32624 -0.449626,-0.60069 -0.278767,-0.27444 -0.629474,-0.49193 -0.350707,-0.21749 -0.70591,-0.36249 v -0.69907 h 3.574513 v -1.14961 h -4.52772 v -0.76121 z m 2.392002,0.76121 h -0.944211 v 6.95964 h -0.737385 v -6.95964 h -1.025145 v -0.76121 h 2.706741 z m 5.593329,0 h -0.944211 v 6.95964 h -0.74188 v -3.99248 h -2.104243 q 0,0.34178 -0.009,0.58516 -0.0045,0.24338 -0.03597,0.4039 -0.03148,0.15536 -0.09442,0.22784 -0.06295,0.0725 -0.175354,0.0725 -0.233804,0 -0.445128,-0.17607 -0.206828,-0.17606 -0.368693,-0.42461 -0.157368,-0.24856 -0.251789,-0.51783 -0.09442,-0.26927 -0.09442,-0.45569 0,-0.16571 0.06295,-0.25892 0.06295,-0.0932 0.166361,-0.13981 0.103413,-0.0466 0.233805,-0.0569 0.134888,-0.0104 0.269775,-0.0104 h 2.846124 v -2.21631 h -4.22195 v -0.76121 h 5.908068 z m 8.43496,0 h -0.944213 v 6.95964 h -0.737383 v -1.99882 l -0.01799,-0.005 q -0.364197,0.45569 -0.746378,0.64212 -0.38218,0.18641 -0.777849,0.18641 -0.364197,0 -0.674438,-0.13463 -0.310241,-0.13981 -0.539549,-0.38319 -0.224813,-0.24857 -0.355203,-0.59034 -0.125896,-0.34176 -0.125896,-0.75603 0,-0.37283 0.121399,-0.69389 0.125896,-0.32106 0.436137,-0.60069 l -0.0045,-0.0207 q -0.265278,-0.0777 -0.472106,-0.2382 -0.206826,-0.16053 -0.350706,-0.37801 -0.139385,-0.22268 -0.21582,-0.48676 -0.07194,-0.2641 -0.07194,-0.54373 0,-0.23302 0.04946,-0.49194 0.05395,-0.26408 0.166361,-0.46604 H 36.27381 v -0.76121 h 6.227301 z m -4.500743,0 q -0.130391,0.18642 -0.193339,0.42979 -0.06295,0.24338 -0.06295,0.46088 0,0.22784 0.06744,0.42979 0.06744,0.19678 0.197835,0.34695 0.134887,0.15018 0.328224,0.2382 0.193339,0.0881 0.445129,0.0881 0.193338,0 0.368692,-0.0362 0.17985,-0.0414 0.296752,-0.0777 l 0.1214,0.79746 q -0.07194,0.0104 -0.193338,0.0414 -0.1214,0.0311 -0.265279,0.0932 -0.139384,0.0569 -0.28776,0.15535 -0.143881,0.0932 -0.260783,0.23303 -0.116903,0.13981 -0.193339,0.33141 -0.07194,0.1916 -0.07194,0.44016 0,0.2382 0.06744,0.4298 0.07194,0.18641 0.197834,0.32106 0.125896,0.12945 0.296752,0.20195 0.175354,0.0673 0.386678,0.0673 0.301248,0 0.553038,-0.12946 0.25179,-0.13464 0.449625,-0.32623 0.197835,-0.19677 0.341714,-0.41945 0.14388,-0.22784 0.229309,-0.40908 v -3.70768 z m 3.493583,-0.61622 h -0.651955 l -0.409159,-0.88549 q -0.260781,-0.56443 -0.472106,-0.89585 -0.215819,-0.33141 -0.404661,-0.50229 -0.193339,-0.17606 -0.377685,-0.22267 -0.184345,-0.0518 -0.386677,-0.0518 h -0.872272 v -0.83889 h 0.822813 q 0.260782,0 0.472106,0.0518 0.211324,0.0466 0.404662,0.17606 0.188843,0.12428 0.373188,0.35212 0.179851,0.22266 0.386678,0.57997 0.206828,0.35212 0.45412,0.84924 0.242798,0.49194 0.557535,1.16512 z m 6.640955,0.61622 h -0.944211 v 6.95964 h -0.732888 v -4.54655 h -1.46128 q -0.301249,0 -0.544046,0.0466 -0.242798,0.0414 -0.413655,0.17606 -0.170857,0.12945 -0.265278,0.36766 -0.08992,0.23302 -0.08992,0.61621 0,0.49713 0.139383,0.91657 0.14388,0.41944 0.364196,0.77157 0.220316,0.34695 0.485595,0.64211 0.269775,0.29516 0.517068,0.54372 l -0.449625,0.59033 q -0.04047,-0.0259 -0.193338,-0.15018 -0.148376,-0.12945 -0.350706,-0.34694 -0.197836,-0.21749 -0.422648,-0.52818 -0.220316,-0.31071 -0.409159,-0.69908 -0.184345,-0.39355 -0.310241,-0.86478 -0.121398,-0.47123 -0.121398,-1.01494 0,-0.53855 0.130391,-0.89067 0.134887,-0.35731 0.377684,-0.56444 0.242798,-0.21231 0.589009,-0.29516 0.34621,-0.0829 0.773355,-0.0829 h 1.654618 v -1.64671 h -4.271435 v -0.76121 h 5.948534 z m -1.007159,-0.61622 h -0.651956 l -0.409158,-0.88549 q -0.260783,-0.56443 -0.472106,-0.89585 -0.215821,-0.33141 -0.404663,-0.50229 -0.193338,-0.17606 -0.377684,-0.22267 -0.184347,-0.0518 -0.386677,-0.0518 h -0.872271 v -0.83889 h 0.822811 q 0.260783,0 0.472107,0.0518 0.211324,0.0466 0.404663,0.17606 0.188842,0.12428 0.373187,0.35212 0.17985,0.22266 0.386678,0.57997 0.206826,0.35212 0.454121,0.84924 0.242796,0.49194 0.557535,1.16512 z m 1.686091,7.57586 v -1.06155 h 0.921731 v 1.06155 z m -26.235594,6.29683 h -0.944211 v 6.95963 h -0.737385 v -6.95963 h -1.025145 v -0.76121 h 1.025145 q -0.247293,-0.68354 -0.247293,-1.27387 0,-0.37802 0.107909,-0.70425 0.107911,-0.32623 0.328225,-0.56444 0.224814,-0.2382 0.571024,-0.37283 0.346212,-0.13464 0.822813,-0.13464 0.624978,0 1.200498,0.23302 0.580015,0.23303 1.133054,0.64729 0.553037,0.41427 1.092588,0.98389 0.544045,0.5696 1.097084,1.24278 h -0.782348 q -0.125893,-0.13981 -0.337218,-0.36248 -0.206827,-0.22784 -0.481098,-0.48157 -0.274271,-0.25893 -0.606992,-0.51784 -0.332724,-0.26409 -0.701416,-0.47641 -0.368691,-0.2123 -0.768858,-0.34176 -0.39567,-0.13464 -0.800331,-0.13464 -0.328226,0 -0.553039,0.088 -0.220315,0.088 -0.359699,0.24338 -0.134888,0.15535 -0.193339,0.36766 -0.05845,0.20713 -0.05845,0.44534 0,0.46604 0.220317,1.11333 h 0.998167 z m 5.633796,0 h -0.944212 v 6.95963 h -0.732889 v -4.54654 h -1.461279 q -0.301249,0 -0.544045,0.0466 -0.242798,0.0414 -0.413655,0.17606 -0.170858,0.12946 -0.265279,0.36766 -0.08992,0.23302 -0.08992,0.61622 0,0.49712 0.139384,0.91656 0.14388,0.41944 0.364196,0.77156 0.220315,0.34695 0.485594,0.64212 0.269775,0.29516 0.517069,0.54372 l -0.449626,0.59032 q -0.04047,-0.0259 -0.193338,-0.15016 -0.148376,-0.12947 -0.350708,-0.34695 -0.197834,-0.21749 -0.422646,-0.52819 -0.220317,-0.3107 -0.409159,-0.69907 -0.184347,-0.39355 -0.310241,-0.86478 -0.121398,-0.47122 -0.121398,-1.01495 0,-0.53854 0.130392,-0.89066 0.134887,-0.35731 0.377683,-0.56444 0.242798,-0.21231 0.589008,-0.29516 0.346211,-0.0829 0.773354,-0.0829 h 1.654619 v -1.64671 h -4.271434 v -0.76121 h 5.948534 z m 6.227301,0 h -0.944212 v 6.95963 h -0.746376 v -2.18006 l -0.01799,-0.0155 q -0.247295,0.25891 -0.485595,0.40908 -0.233805,0.145 -0.440633,0.22267 -0.20233,0.0725 -0.368692,0.0932 -0.16636,0.0207 -0.27427,0.0207 -0.413655,0 -0.732889,-0.15017 -0.319233,-0.15017 -0.535053,-0.39355 -0.21582,-0.24856 -0.328226,-0.56443 -0.112406,-0.32106 -0.112406,-0.66283 0,-0.35731 0.125895,-0.70943 0.13039,-0.35212 0.404663,-0.63175 l -0.0045,-0.0207 h -1.425296 v -0.76122 h 3.614982 v 0.76122 h -0.463113 q -0.463113,0 -0.759866,0.13981 -0.296753,0.13982 -0.46761,0.34178 -0.170856,0.20195 -0.238301,0.43497 -0.06295,0.22784 -0.06295,0.41426 0,0.15535 0.04497,0.33659 0.04497,0.17606 0.148376,0.32623 0.10791,0.15018 0.283264,0.24856 0.179851,0.0984 0.449625,0.0984 0.283263,0 0.52606,-0.10357 0.247294,-0.10875 0.454122,-0.27963 0.206826,-0.17089 0.373187,-0.38319 0.170858,-0.2175 0.292256,-0.42981 v -3.52124 h -4.851451 v -0.76122 h 6.542038 z m -1.00716,-0.61622 h -0.651956 l -0.409157,-0.88549 q -0.260782,-0.56444 -0.472106,-0.89585 -0.21582,-0.33142 -0.404663,-0.5023 -0.193339,-0.17606 -0.377684,-0.22266 -0.184346,-0.0518 -0.386677,-0.0518 h -0.872273 v -0.8389 h 0.822814 q 0.260783,0 0.472105,0.0518 0.211324,0.0466 0.404663,0.17606 0.188843,0.12428 0.373189,0.35213 0.17985,0.22267 0.386676,0.57997 0.206828,0.35213 0.454122,0.84924 0.242797,0.49195 0.557533,1.16513 z m 8.448448,4.09604 h -2.580846 q -0.238301,0.18124 -0.571023,0.21749 l -0.009,0.0259 q 0.436136,0.78711 0.9577,1.46546 0.521565,0.67836 1.187009,1.25833 l -0.481098,0.63693 q -0.382181,-0.32624 -0.728392,-0.70424 -0.341715,-0.37802 -0.647459,-0.78193 -0.301249,-0.40909 -0.566528,-0.82336 -0.265278,-0.41943 -0.485595,-0.82334 -0.220315,-0.40391 -0.395668,-0.77675 -0.175354,-0.37802 -0.305745,-0.69908 l 0.615986,-0.38319 q 0.08542,0.22785 0.16636,0.38319 0.08542,0.15018 0.170857,0.24339 0.08543,0.088 0.179851,0.12946 0.09442,0.0362 0.20233,0.0362 0.310242,0 0.454121,-0.27962 0.148376,-0.27963 0.148376,-0.73531 0,-0.26928 -0.04497,-0.52819 -0.04497,-0.2641 -0.116903,-0.50229 -0.06744,-0.24339 -0.148376,-0.4557 -0.08094,-0.21232 -0.152873,-0.38319 h -2.081761 v -0.76121 h 5.12572 v 0.76121 h -2.266083 q 0.188842,0.47122 0.296752,0.94762 0.107911,0.47641 0.107911,0.94763 0,0.21749 -0.03147,0.4298 -0.02698,0.20714 -0.09442,0.39355 l 0.009,0.0104 h 2.018815 z m 4.397328,-3.47982 h -0.944211 v 6.95963 h -0.737385 v -1.84865 l -0.01799,-0.005 q -0.08992,0.0984 -0.211323,0.20713 -0.121399,0.10357 -0.278767,0.1916 -0.157369,0.0829 -0.355203,0.13981 -0.193339,0.0569 -0.436137,0.0569 -0.445128,0 -0.81382,-0.19677 -0.364197,-0.19678 -0.629475,-0.52302 -0.265279,-0.33141 -0.413655,-0.75602 -0.143879,-0.42981 -0.143879,-0.89586 0,-0.46604 0.143879,-0.86478 0.148376,-0.4039 0.404663,-0.69906 0.256285,-0.29517 0.598,-0.46087 0.341715,-0.17089 0.732889,-0.17089 0.107909,0 0.269774,0.0207 0.166361,0.0207 0.355204,0.0932 0.188842,0.0725 0.391173,0.21231 0.202331,0.13463 0.386677,0.36765 l 0.01799,-0.005 v -1.82276 h -4.046621 v -0.76121 h 5.728217 z m -1.663611,2.7911 q -0.283263,-0.39355 -0.615985,-0.63175 -0.332722,-0.24339 -0.75537,-0.24339 -0.332721,0 -0.566527,0.145 -0.229307,0.145 -0.377685,0.36766 -0.148376,0.21748 -0.215819,0.48676 -0.06744,0.26927 -0.06744,0.51783 0,0.26928 0.07644,0.53337 0.07644,0.2641 0.224813,0.4764 0.152872,0.20713 0.377683,0.34177 0.224814,0.12946 0.526062,0.12946 0.310241,0 0.566527,-0.13464 0.256286,-0.13981 0.440631,-0.35212 0.184348,-0.21232 0.283264,-0.4764 0.103414,-0.2641 0.103414,-0.51266 z m 7.207482,-2.7911 h -0.944211 v 6.95963 h -0.741882 v -2.43897 l -0.01349,-0.005 -1.919897,1.3878 q 0.148376,0.34176 0.21582,0.55924 0.07194,0.2175 0.07194,0.40391 0,0.1709 -0.07194,0.26411 -0.06744,0.0984 -0.278767,0.0984 -0.238301,0 -0.449624,-0.1191 -0.211325,-0.11392 -0.368692,-0.28481 -0.157369,-0.17088 -0.25179,-0.3573 -0.08992,-0.18642 -0.08992,-0.32624 0,-0.088 0.03597,-0.16052 0.03597,-0.0777 0.09892,-0.13981 0.06295,-0.0673 0.139383,-0.12428 0.08094,-0.0621 0.170858,-0.12428 l 0.881263,-0.6214 -0.0045,-0.0155 q -0.305745,-0.0466 -0.553037,-0.1916 -0.247294,-0.15017 -0.422648,-0.40391 -0.170858,-0.25374 -0.265278,-0.61622 -0.09442,-0.36765 -0.09442,-0.85442 v -2.8895 h -1.002663 v -0.7612 h 5.858608 z m -1.686093,0 H 47.69428 v 2.84288 q 0,0.32624 0.04497,0.58516 0.04946,0.25891 0.161865,0.44015 0.116902,0.18124 0.301248,0.27963 0.184347,0.0932 0.463115,0.0932 0.436135,0 0.804826,-0.22267 0.368692,-0.22784 0.665445,-0.59032 z m 10.408811,0 H 59.60034 v 6.95963 h -0.737384 v -2.90502 h -2.472935 v 0.61622 q 0,0.16053 -0.01349,0.28481 -0.009,0.12428 -0.04946,0.20713 -0.03597,0.0829 -0.10791,0.12946 -0.06744,0.0414 -0.184345,0.0414 -0.116904,0 -0.260783,-0.0777 -0.143879,-0.0829 -0.292256,-0.21748 -0.148377,-0.13982 -0.28776,-0.31071 -0.139383,-0.17606 -0.25179,-0.36248 -0.107909,-0.19159 -0.175353,-0.37801 -0.06744,-0.18642 -0.06744,-0.34177 0,-0.10874 0.03147,-0.17606 0.03597,-0.0725 0.09442,-0.10875 0.06295,-0.0362 0.148376,-0.0466 0.08543,-0.0155 0.193339,-0.0155 h 0.485594 v -3.29859 H 54.0295 v -0.76121 h 6.51506 z m -4.154531,0 v 3.29858 h 2.472935 v -3.29858 z m 6.546534,0 h -0.944212 v 6.95963 h -0.737384 v -6.95963 h -1.025146 v -0.76121 h 2.706742 z m -1.007161,-0.61622 h -0.651955 l -0.409158,-0.88549 q -0.260783,-0.56444 -0.476603,-0.89585 -0.211323,-0.33142 -0.400165,-0.5023 -0.193339,-0.17606 -0.377684,-0.22266 -0.184347,-0.0518 -0.386678,-0.0518 H 58.35488 v -0.8389 h 0.822812 q 0.260783,0 0.472106,0.0518 0.211324,0.0466 0.404662,0.17606 0.188842,0.12428 0.368692,0.35213 0.184346,0.22267 0.391174,0.57997 0.206828,0.35213 0.449624,0.84924 0.247294,0.49195 0.562032,1.16513 z m 3.866773,6.91304 q 0.373188,0 0.692421,-0.15535 0.319233,-0.15535 0.548542,-0.42981 0.233806,-0.27444 0.364194,-0.64728 0.130394,-0.37801 0.130394,-0.82335 0,-0.37284 -0.08993,-0.65247 -0.08542,-0.2848 -0.224811,-0.49193 -0.134885,-0.20714 -0.301246,-0.34696 -0.161865,-0.13981 -0.314738,-0.22784 -0.152872,-0.088 -0.27427,-0.12946 -0.116903,-0.0414 -0.166362,-0.0518 -0.116903,0.0621 -0.292256,0.12428 -0.170857,0.0569 -0.364196,0.12946 -0.224811,0.088 -0.454121,0.22266 -0.229307,0.13463 -0.413655,0.35213 -0.184345,0.21748 -0.301247,0.53854 -0.112407,0.32106 -0.112407,0.77675 0,0.39872 0.116902,0.73532 0.116903,0.33141 0.32373,0.5748 0.211324,0.2382 0.499084,0.37283 0.287759,0.12945 0.633971,0.12945 z m 3.394665,-6.29682 H 67.00116 v 0.83889 q 0,0.25373 -0.07194,0.52818 -0.07194,0.27445 -0.211323,0.46604 0.355203,0.145 0.63397,0.39874 0.283263,0.24855 0.476602,0.57997 0.197837,0.32623 0.301252,0.71978 0.107909,0.39355 0.107909,0.82336 0,0.56961 -0.179851,1.06672 -0.179848,0.49712 -0.50358,0.86996 -0.319235,0.36766 -0.764362,0.57997 -0.445128,0.2123 -0.975685,0.2123 -0.56203,0 -0.99367,-0.22783 -0.431641,-0.23303 -0.723895,-0.61623 -0.292257,-0.38319 -0.44513,-0.87513 -0.152872,-0.49193 -0.152872,-1.02013 0,-0.55407 0.139385,-0.96834 0.143878,-0.41426 0.391172,-0.7146 0.247294,-0.30552 0.584513,-0.50748 0.341715,-0.20195 0.74188,-0.33141 0.184345,-0.0621 0.350708,-0.12428 0.166361,-0.0621 0.287759,-0.17606 0.125895,-0.11393 0.197834,-0.29517 0.07194,-0.18641 0.07194,-0.48158 v -0.74567 h -3.641958 v -0.76121 h 6.569015 z m -2.252619,-0.61622 H 66.286258 L 65.8771,137.07086 q -0.260782,-0.56444 -0.472105,-0.89585 -0.215821,-0.33142 -0.404663,-0.5023 -0.193339,-0.17606 -0.377684,-0.22266 -0.184346,-0.0518 -0.386678,-0.0518 h -0.872272 v -0.8389 h 0.822813 q 0.260783,0 0.472106,0.0518 0.211324,0.0466 0.404663,0.17606 0.188842,0.12428 0.373189,0.35213 0.179849,0.22267 0.386676,0.57997 0.206828,0.35213 0.454121,0.84924 0.242797,0.49195 0.557534,1.16513 z m 5.665269,2.99824 q 0.06744,0.24338 0.157372,0.53336 0.08992,0.28481 0.21132,0.57997 0.125895,0.28999 0.278768,0.56443 0.157368,0.27446 0.355206,0.48677 0.202331,0.21232 0.445128,0.34177 0.242797,0.12428 0.539547,0.12428 0.29226,0 0.494587,-0.0984 0.202331,-0.0984 0.328227,-0.2641 0.125894,-0.1657 0.179851,-0.38837 0.05845,-0.22267 0.05845,-0.46604 0,-0.53336 -0.337219,-0.83371 -0.332721,-0.30034 -0.966695,-0.30034 -0.07643,0 -0.152869,0.005 -0.07644,0.005 -0.152872,0.0155 v -0.7871 q 0.03595,0.005 0.06294,0.005 0.03146,0 0.03595,0 0.314734,0 0.557536,-0.088 0.247291,-0.0932 0.413652,-0.24856 0.16636,-0.15535 0.251789,-0.36248 0.08544,-0.20713 0.08544,-0.43498 0,-0.20713 -0.06295,-0.36766 -0.06294,-0.16052 -0.170855,-0.26927 -0.107909,-0.10874 -0.256288,-0.16053 -0.148375,-0.0569 -0.323728,-0.0569 -0.121401,0 -0.233804,0.0207 -0.112408,0.0155 -0.238303,0.0569 -0.125895,0.0362 -0.269775,0.0984 -0.139383,0.0621 -0.31923,0.15535 l -0.256289,-0.70943 q 0.350707,-0.19678 0.674439,-0.29516 0.323728,-0.10357 0.660948,-0.10357 0.323728,0 0.598002,0.1191 0.278764,0.11911 0.476601,0.33142 0.202332,0.20713 0.314735,0.49712 0.112408,0.28998 0.112408,0.62657 0,0.92691 -0.768861,1.49135 v 0.0207 q 0.301253,0.145 0.503579,0.35731 0.130395,0.0259 0.274275,0.0414 0.148375,0.0155 0.269775,0.0155 0.125896,0 0.265278,-0.0207 0.139381,-0.0207 0.283262,-0.0777 0.14838,-0.0569 0.296754,-0.16053 0.152873,-0.10357 0.305742,-0.26927 v -2.86879 h 1.681598 v 0.76122 h -0.944214 v 6.95964 h -0.737384 v -3.93551 l -0.01797,-0.005 q -0.256284,0.19678 -0.481095,0.25892 -0.224812,0.0621 -0.463115,0.0621 -0.07644,0 -0.157368,-0.005 -0.08094,-0.0104 -0.166359,-0.0207 l -0.0047,0.0207 q 0.07194,0.2123 0.07194,0.52301 0,0.41944 -0.121396,0.77674 -0.121401,0.3573 -0.350706,0.6214 -0.224816,0.25892 -0.548544,0.40391 -0.319234,0.14499 -0.719398,0.14499 -0.427144,0 -0.773356,-0.17088 -0.341713,-0.17607 -0.620481,-0.45051 -0.27427,-0.27446 -0.481101,-0.61623 -0.206826,-0.34694 -0.3552,-0.69389 -0.14838,-0.34694 -0.242802,-0.65764 -0.09442,-0.31588 -0.139381,-0.52301 z m 13.295401,-3.14323 v 0.76121 h -0.94421 v 6.95963 h -0.746381 v -3.47981 h -2.603324 q -0.238303,0.18124 -0.571023,0.21749 l -0.009,0.0259 q 0.436135,0.78711 0.957701,1.46546 0.521565,0.67836 1.187011,1.25833 l -0.481099,0.63693 q -0.382179,-0.32624 -0.728392,-0.70424 -0.341713,-0.37802 -0.64746,-0.78193 -0.301248,-0.40909 -0.566525,-0.82336 -0.265281,-0.41943 -0.485594,-0.82334 -0.220318,-0.40391 -0.395671,-0.77675 -0.175353,-0.37802 -0.305746,-0.69908 l 0.615987,-0.38319 q 0.08543,0.22785 0.166361,0.38319 0.08543,0.15018 0.170859,0.24339 0.08543,0.088 0.179847,0.12946 0.09442,0.0362 0.202332,0.0362 0.31024,0 0.454122,-0.27962 0.148374,-0.27963 0.148374,-0.73531 0,-0.26928 -0.04494,-0.52819 -0.04494,-0.2641 -0.116901,-0.50229 -0.06744,-0.24339 -0.148376,-0.4557 -0.08093,-0.21232 -0.152873,-0.38319 h -2.081763 v -0.76121 z m -1.690591,0.76121 h -2.396498 q 0.188845,0.47122 0.296754,0.94762 0.10791,0.47641 0.10791,0.94763 0,0.21749 -0.03146,0.4298 -0.02696,0.20714 -0.09442,0.39355 l 0.009,0.0104 h 2.108736 z m 2.589841,9.61093 q -0.229305,-0.43497 -0.472102,-0.82853 -0.242797,-0.38837 -0.517072,-0.67835 -0.274269,-0.28999 -0.589009,-0.46088 -0.319229,-0.17087 -0.696914,-0.17087 -0.22931,0 -0.404663,0.0621 -0.179852,0.0621 -0.301248,0.16571 -0.121401,0.10357 -0.184346,0.2382 -0.06295,0.13982 -0.06295,0.28481 0,0.27962 0.197838,0.44533 0.193339,0.16571 0.530558,0.16571 0.314735,0 0.651955,-0.14499 l 0.157367,0.74567 q -0.193339,0.088 -0.391172,0.12946 -0.202331,0.0466 -0.39567,0.0466 -0.287761,0 -0.544046,-0.0932 -0.260782,-0.0932 -0.454121,-0.27445 -0.197837,-0.17607 -0.310241,-0.44534 -0.116902,-0.2641 -0.116902,-0.60586 0,-0.37803 0.139382,-0.66283 0.134887,-0.27963 0.359699,-0.46605 0.224811,-0.18124 0.512573,-0.26927 0.287761,-0.0932 0.58451,-0.0932 0.382183,0 0.719403,0.13464 0.332721,0.13463 0.620482,0.35213 0.287757,0.22265 0.52606,0.49711 0.238297,0.27963 0.427142,0.56443 0.193339,0.28481 0.33722,0.55408 0.148375,0.26928 0.247291,0.47123 z m 4.69408,-9.61093 h -0.94421 v 6.95963 h -0.741878 v -3.99247 h -2.104242 q 0,0.34177 -0.009,0.58516 -0.0047,0.24338 -0.03595,0.4039 -0.03146,0.15535 -0.09442,0.22785 -0.06294,0.0725 -0.175354,0.0725 -0.233804,0 -0.445128,-0.17607 -0.206826,-0.17606 -0.368692,-0.42461 -0.157367,-0.24856 -0.25179,-0.51784 -0.09441,-0.26927 -0.09441,-0.45568 0,-0.16571 0.06294,-0.25893 0.06295,-0.0932 0.166361,-0.1398 0.103415,-0.0466 0.233803,-0.0569 0.134888,-0.0103 0.269776,-0.0103 h 2.846125 v -2.21631 h -4.221976 v -0.7612 h 5.908069 z m 0.660947,6.95963 v -1.06154 h 0.92173 v 1.06154 q 0,0.58517 -0.179852,0.94247 -0.179847,0.36247 -0.571023,0.55925 l -0.224812,-0.39873 q 0.256288,-0.12946 0.377685,-0.38319 0.1214,-0.24856 0.134888,-0.7198 z m 10.08958,-6.95963 h -0.94421 v 6.95963 h -0.73289 v -4.54654 h -1.461281 q -0.301251,0 -0.544049,0.0466 -0.242798,0.0414 -0.413657,0.17606 -0.17085,0.12946 -0.265272,0.36766 -0.08988,0.23302 -0.08988,0.61622 0,0.49712 0.139379,0.91656 0.143877,0.41944 0.364202,0.77156 0.220305,0.34695 0.485586,0.64212 0.26977,0.29516 0.517067,0.54372 l -0.449617,0.59032 q -0.04048,-0.0259 -0.193343,-0.15016 -0.148376,-0.12947 -0.350706,-0.34695 -0.197831,-0.21749 -0.422645,-0.52819 -0.220324,-0.3107 -0.409158,-0.69907 -0.184346,-0.39355 -0.310239,-0.86478 -0.121403,-0.47122 -0.121403,-1.01495 0,-0.53854 0.130391,-0.89066 0.13488,-0.35731 0.377688,-0.56444 0.242798,-0.21231 0.589006,-0.29516 0.346207,-0.0829 0.773351,-0.0829 h 1.65462 v -1.64671 h -4.271435 v -0.76121 h 5.948535 z m 2.392,0 h -0.94421 v 6.95963 h -0.73738 v -6.95963 H 101.928 v -0.76121 h 1.09709 q -0.081,-0.52819 -0.20683,-0.90103 -0.12589,-0.37802 -0.27427,-0.62658 -0.14838,-0.25374 -0.31024,-0.39873 -0.16187,-0.14499 -0.31025,-0.21749 -0.15286,-0.0725 -0.28326,-0.0932 -0.13488,-0.0207 -0.22031,-0.0207 -0.27877,0 -0.44513,0.10356 -0.17085,0.0984 -0.26078,0.23821 -0.09,0.13981 -0.1169,0.29516 -0.0315,0.15018 -0.0315,0.25892 0,0.0414 0.0135,0.17089 0.009,0.12427 0.0719,0.31587 0.0584,0.19159 0.18434,0.42979 0.1259,0.2382 0.35521,0.50231 h -0.76436 q -0.28327,-0.37284 -0.42265,-0.77157 -0.143877,-0.40391 -0.143877,-0.78193 0,-0.31588 0.09891,-0.60068 0.09892,-0.28481 0.296757,-0.49195 0.19784,-0.2123 0.49459,-0.33658 0.29675,-0.12428 0.68792,-0.12428 0.53955,0 0.93072,0.24338 0.39117,0.2382 0.65646,0.65246 0.26978,0.41427 0.42264,0.97353 0.15737,0.55408 0.22032,1.18065 h 0.96669 z m 8.72272,0 h -0.94421 v 6.95963 h -0.73738 v -2.90502 h -2.47294 v 0.61622 q 0,0.16053 -0.0135,0.28481 -0.009,0.12428 -0.0495,0.20713 -0.036,0.0829 -0.10791,0.12946 -0.0674,0.0414 -0.18434,0.0414 -0.11691,0 -0.26079,-0.0777 -0.14388,-0.0829 -0.29225,-0.21748 -0.14838,-0.13982 -0.28776,-0.31071 -0.13938,-0.17606 -0.2518,-0.36248 -0.10791,-0.19159 -0.17535,-0.37801 -0.0674,-0.18642 -0.0674,-0.34177 0,-0.10874 0.0315,-0.17606 0.036,-0.0725 0.0944,-0.10875 0.0629,-0.0362 0.14837,-0.0466 0.0855,-0.0155 0.19334,-0.0155 h 0.4856 v -3.29859 h -1.62315 v -0.76121 h 6.51506 z m -4.15453,0 v 3.29858 h 2.47294 v -3.29858 z m 3.14737,-0.61622 h -0.65195 l -0.40916,-0.88549 q -0.26078,-0.56444 -0.47211,-0.89585 -0.21582,-0.33142 -0.40466,-0.5023 -0.19334,-0.17606 -0.37769,-0.22266 -0.18434,-0.0518 -0.38667,-0.0518 h -0.87228 v -0.8389 h 0.82282 q 0.26078,0 0.4721,0.0518 0.21133,0.0466 0.40467,0.17606 0.18884,0.12428 0.37318,0.35213 0.17986,0.22267 0.38669,0.57997 0.20681,0.35213 0.45411,0.84924 0.2428,0.49195 0.55754,1.16513 z m 4.14554,6.11558 q 0.14837,-0.0518 0.29225,-0.12946 0.14838,-0.0777 0.26078,-0.18642 0.11691,-0.11392 0.18885,-0.26409 0.0719,-0.15017 0.0719,-0.35213 0,-0.4298 -0.31024,-0.668 -0.31024,-0.24338 -0.88127,-0.24338 -0.2293,0 -0.4721,0.0569 -0.2383,0.0518 -0.43614,0.19678 -0.19783,0.13982 -0.32373,0.38838 -0.12589,0.24338 -0.12589,0.62139 0,0.3832 0.13039,0.71461 0.13039,0.32623 0.33721,0.60069 0.21133,0.27444 0.47211,0.49712 0.26079,0.22265 0.51707,0.39355 0.26078,0.17088 0.49009,0.2848 0.22931,0.1191 0.38218,0.18642 l -0.29675,0.71461 q -0.31474,-0.15535 -0.64296,-0.34177 -0.32373,-0.18125 -0.62947,-0.40391 -0.30575,-0.21749 -0.57552,-0.48158 -0.26978,-0.2641 -0.47211,-0.58516 -0.19783,-0.32105 -0.31474,-0.70424 -0.11241,-0.3832 -0.11241,-0.83371 0,-0.44016 0.0989,-0.76639 0.10341,-0.33141 0.28326,-0.57997 -0.24729,-0.32623 -0.36419,-0.65765 -0.1169,-0.33141 -0.1169,-0.71978 0,-0.22267 0.0449,-0.41945 0.0495,-0.19677 0.17086,-0.34176 0.12589,-0.15017 0.34621,-0.2382 0.22031,-0.088 0.57102,-0.088 h 2.03681 v -1.14958 h -4.07361 v -0.76121 h 5.85861 v 0.76121 h -1.04762 v 1.90561 h -2.58535 q -0.17535,0 -0.29675,0.0362 -0.1169,0.0311 -0.18884,0.0984 -0.0719,0.0674 -0.10341,0.17089 -0.0269,0.0984 -0.0269,0.23302 0,0.18125 0.0539,0.35213 0.054,0.17088 0.20233,0.38319 0.26078,-0.15535 0.57102,-0.22784 0.31474,-0.0777 0.65646,-0.0777 0.39566,0 0.73738,0.10356 0.34621,0.10357 0.59799,0.31589 0.2563,0.20713 0.40017,0.53336 0.14838,0.32105 0.14838,0.75604 0,0.41943 -0.12589,0.70942 -0.12141,0.28999 -0.31025,0.48677 -0.18435,0.19677 -0.40466,0.32105 -0.22032,0.1191 -0.40916,0.19677 z m 7.99882,-5.49936 h -0.94422 v 6.95963 h -0.74188 v -3.99247 h -2.10424 q 0,0.34177 -0.009,0.58516 -0.005,0.24338 -0.036,0.4039 -0.0315,0.15535 -0.0944,0.22785 -0.0629,0.0725 -0.17536,0.0725 -0.2338,0 -0.44513,-0.17607 -0.20683,-0.17606 -0.36869,-0.42461 -0.15737,-0.24856 -0.25179,-0.51784 -0.0944,-0.26927 -0.0944,-0.45568 0,-0.16571 0.0629,-0.25893 0.0629,-0.0932 0.16636,-0.1398 0.10342,-0.0466 0.23381,-0.0569 0.13488,-0.0103 0.26977,-0.0103 h 2.84613 V 138.5727 H 118.587 v -0.7612 h 5.90808 z m 5.6338,0 h -0.94422 v 6.95963 h -0.73288 v -4.54654 h -1.46128 q -0.30126,0 -0.54405,0.0466 -0.2428,0.0414 -0.41366,0.17606 -0.17086,0.12946 -0.26528,0.36766 -0.0899,0.23302 -0.0899,0.61622 0,0.49712 0.13938,0.91656 0.14387,0.41944 0.36419,0.77156 0.22032,0.34695 0.48559,0.64212 0.26978,0.29516 0.51708,0.54372 l -0.44963,0.59032 q -0.0405,-0.0259 -0.19334,-0.15016 -0.14838,-0.12947 -0.35071,-0.34695 -0.19783,-0.21749 -0.42265,-0.52819 -0.22031,-0.3107 -0.40916,-0.69907 -0.18433,-0.39355 -0.31024,-0.86478 -0.12139,-0.47122 -0.12139,-1.01495 0,-0.53854 0.13039,-0.89066 0.13489,-0.35731 0.37768,-0.56444 0.24281,-0.21231 0.589,-0.29516 0.34622,-0.0829 0.77336,-0.0829 h 1.65462 v -1.64671 h -4.27143 v -0.76121 h 5.94854 z m 2.39199,0 h -0.9442 v 6.95963 h -0.73739 v -6.95963 h -1.02515 v -0.76121 h 1.09708 q -0.081,-0.52819 -0.20682,-0.90103 -0.12589,-0.37802 -0.27427,-0.62658 -0.14838,-0.25374 -0.31024,-0.39873 -0.16186,-0.14499 -0.31025,-0.21749 -0.15287,-0.0725 -0.28326,-0.0932 -0.13488,-0.0207 -0.22032,-0.0207 -0.27875,0 -0.44512,0.10356 -0.17085,0.0984 -0.26078,0.23821 -0.09,0.13981 -0.1169,0.29516 -0.0315,0.15018 -0.0315,0.25892 0,0.0414 0.0134,0.17089 0.009,0.12427 0.0719,0.31587 0.0584,0.19159 0.18434,0.42979 0.12591,0.2382 0.3552,0.50231 h -0.76435 q -0.28327,-0.37284 -0.42265,-0.77157 -0.14388,-0.40391 -0.14388,-0.78193 0,-0.31588 0.0989,-0.60068 0.0989,-0.28481 0.29675,-0.49195 0.19784,-0.2123 0.49459,-0.33658 0.29676,-0.12428 0.68792,-0.12428 0.53956,0 0.93073,0.24338 0.39117,0.2382 0.65644,0.65246 0.26978,0.41427 0.42265,0.97353 0.15737,0.55408 0.22032,1.18065 h 0.96669 z m 5.59333,0 h -0.94422 v 6.95963 h -0.74187 v -3.99247 h -2.10423 q 0,0.34177 -0.009,0.58516 -0.005,0.24338 -0.036,0.4039 -0.0315,0.15535 -0.0944,0.22785 -0.0629,0.0725 -0.17535,0.0725 -0.23381,0 -0.44512,-0.17607 -0.20683,-0.17606 -0.36869,-0.42461 -0.15737,-0.24856 -0.25179,-0.51784 -0.0944,-0.26927 -0.0944,-0.45568 0,-0.16571 0.0629,-0.25893 0.0629,-0.0932 0.16637,-0.1398 0.10341,-0.0466 0.2338,-0.0569 0.13489,-0.0103 0.26978,-0.0103 h 2.84612 v -2.21631 h -4.22198 v -0.7612 h 5.90807 z m -1.00714,-0.61622 h -0.65196 l -0.40916,-0.88549 q -0.26079,-0.56444 -0.4721,-0.89585 -0.21583,-0.33142 -0.40467,-0.5023 -0.19335,-0.17606 -0.37768,-0.22266 -0.18436,-0.0518 -0.38668,-0.0518 h -0.87228 v -0.8389 h 0.82283 q 0.26077,0 0.4721,0.0518 0.21132,0.0466 0.40465,0.17606 0.18884,0.12428 0.3732,0.35213 0.17984,0.22267 0.38667,0.57997 0.20683,0.35213 0.45413,0.84924 0.24279,0.49195 0.55752,1.16513 z m 9.07342,0.61622 h -0.94422 v 6.95963 h -0.74188 v -2.47522 l -0.0179,-0.005 q -0.30124,0.3107 -0.67442,0.44533 -0.37319,0.12947 -0.73739,0.12947 -0.38668,0 -0.70592,-0.12947 -0.31923,-0.12945 -0.54853,-0.39354 -0.22932,-0.26928 -0.35971,-0.67318 -0.12589,-0.40909 -0.12589,-0.96835 v -2.88949 h -1.00267 v -0.76121 h 5.85862 z m -1.6861,0 h -2.44145 v 2.84288 q 0,0.32624 0.045,0.58516 0.0495,0.25891 0.16187,0.44015 0.1169,0.18124 0.30573,0.27963 0.18886,0.0932 0.47211,0.0932 0.46312,0 0.83631,-0.24856 0.37319,-0.25374 0.62048,-0.66283 z m -0.87677,7.11499 q 0.28777,-0.20714 0.63847,-0.32106 0.34622,-0.11392 0.66095,-0.11392 0.27428,0 0.51257,0.0932 0.23381,0.088 0.40916,0.25891 0.17535,0.17606 0.27427,0.42463 0.0989,0.24856 0.0989,0.55925 0,0.33142 -0.11691,0.62141 -0.11241,0.28998 -0.34171,0.50747 -0.22931,0.21749 -0.56653,0.34177 -0.33722,0.12945 -0.78235,0.12945 -0.50807,0 -0.90823,-0.16053 -0.40467,-0.15534 -0.7239,-0.39873 -0.31924,-0.2382 -0.56203,-0.52819 -0.24281,-0.28998 -0.42714,-0.5489 l 0.41814,-0.56443 q 0.2563,0.32105 0.4901,0.57997 0.23381,0.25892 0.48558,0.44016 0.25179,0.18641 0.54405,0.28481 0.28777,0.0984 0.65196,0.0984 0.31025,0 0.53056,-0.0725 0.21582,-0.0673 0.3552,-0.18124 0.13939,-0.10874 0.20234,-0.25374 0.0629,-0.13981 0.0629,-0.2848 0,-0.26409 -0.17086,-0.41944 -0.17535,-0.15535 -0.4721,-0.15535 -0.19333,0 -0.44513,0.0777 -0.25628,0.0777 -0.51707,0.25891 z m 8.46644,-7.11499 h -1.61417 v 2.27845 h -1.49724 q -0.38667,0 -0.67443,0.14499 -0.28328,0.13981 -0.4721,0.38838 -0.18886,0.24856 -0.28328,0.59032 -0.0944,0.34177 -0.0944,0.73532 0,0.77675 0.32373,1.32047 0.32823,0.53854 0.97119,0.78711 l 0.009,-0.0207 q -0.11691,-0.24855 -0.17086,-0.49711 -0.0539,-0.25373 -0.0539,-0.50229 0,-0.32106 0.0899,-0.60586 0.0944,-0.28999 0.26529,-0.50748 0.17086,-0.21749 0.41365,-0.34177 0.24729,-0.12946 0.55753,-0.12946 0.31025,0 0.55753,0.13465 0.25179,0.12945 0.42715,0.35211 0.17985,0.2175 0.27427,0.51266 0.0989,0.28998 0.0989,0.61104 0,0.32105 -0.10342,0.64729 -0.10341,0.32622 -0.32373,0.59033 -0.21582,0.26408 -0.55304,0.42979 -0.33721,0.16571 -0.80482,0.16571 -0.29226,0 -0.6025,-0.0725 -0.31024,-0.0725 -0.61148,-0.22783 -0.30125,-0.15536 -0.57103,-0.39873 -0.26528,-0.24339 -0.46762,-0.57998 -0.20233,-0.34177 -0.32372,-0.78192 -0.11691,-0.44016 -0.11691,-0.98905 0,-0.62141 0.15288,-1.09263 0.15737,-0.47123 0.43164,-0.7871 0.27877,-0.31589 0.65645,-0.47124 0.38218,-0.16052 0.8318,-0.16052 h 0.92623 v -1.52242 h -3.86678 v -0.76121 h 6.21832 z m -2.67527,6.3486 q 0.29225,0 0.49908,-0.10356 0.20683,-0.10357 0.33722,-0.2641 0.13038,-0.16053 0.18884,-0.3573 0.0629,-0.20196 0.0629,-0.38837 0,-0.18642 -0.054,-0.3366 -0.0495,-0.15017 -0.13938,-0.24856 -0.09,-0.10356 -0.21133,-0.15535 -0.1169,-0.0569 -0.2473,-0.0569 -0.29674,0 -0.48559,0.24856 -0.18434,0.24856 -0.18434,0.70425 0,0.47123 0.2338,0.95798 z m 0.99816,-6.96482 h -0.65196 l -0.40916,-0.88549 q -0.26078,-0.56444 -0.4721,-0.89585 -0.21582,-0.33142 -0.40466,-0.5023 -0.19335,-0.17606 -0.37769,-0.22266 -0.18434,-0.0518 -0.38668,-0.0518 h -0.87228 v -0.8389 h 0.82283 q 0.26078,0 0.47211,0.0518 0.21133,0.0466 0.40466,0.17606 0.18883,0.12428 0.37319,0.35213 0.17984,0.22267 0.38668,0.57997 0.20681,0.35213 0.45412,0.84924 0.24279,0.49195 0.55752,1.16513 z m 11.09224,0.61622 h -0.94421 v 6.95963 h -0.73738 v -4.49476 h -1.4478 l -0.005,0.0207 q 0.0539,0.0725 0.16186,0.22267 0.1079,0.14499 0.21582,0.36248 0.1079,0.21231 0.18884,0.48677 0.081,0.26926 0.081,0.58514 0,0.31588 -0.0944,0.62658 -0.0899,0.30551 -0.27427,0.55407 -0.17984,0.24338 -0.45862,0.39355 -0.27877,0.15018 -0.64746,0.15018 -0.36418,0 -0.66993,-0.14499 -0.30126,-0.15018 -0.55304,-0.39874 -0.24729,-0.24856 -0.44513,-0.57479 -0.19783,-0.32623 -0.3552,-0.68871 -0.15287,-0.36766 -0.26977,-0.74049 -0.11241,-0.37803 -0.19334,-0.7198 -0.081,-0.34694 -0.1304,-0.63693 -0.0495,-0.28998 -0.0764,-0.48158 l 0.66545,-0.15017 q 0.14838,0.9321 0.35971,1.63635 0.21581,0.69906 0.47659,1.17029 0.2608,0.47124 0.56204,0.70943 0.30124,0.23302 0.62946,0.23302 0.23381,0 0.3777,-0.10356 0.14388,-0.10874 0.2248,-0.25892 0.081,-0.15535 0.10792,-0.31587 0.0315,-0.16571 0.0315,-0.28482 0,-0.2123 -0.0764,-0.45051 -0.0719,-0.24337 -0.21583,-0.48158 -0.13938,-0.24338 -0.35071,-0.46604 -0.21131,-0.22268 -0.48558,-0.40391 v -0.60586 h 2.66627 v -1.70884 h -5.52589 v -0.76121 h 7.20749 z m 2.39201,0 h -0.94421 v 6.95963 h -0.73739 v -6.95963 h -1.02514 v -0.76121 h 2.70674 z m 5.63379,0 h -0.9442 v 6.95963 h -0.73289 v -4.54654 h -1.46129 q -0.30124,0 -0.54403,0.0466 -0.24281,0.0414 -0.41367,0.17606 -0.17085,0.12946 -0.26527,0.36766 -0.09,0.23302 -0.09,0.61622 0,0.49712 0.13939,0.91656 0.14389,0.41944 0.3642,0.77156 0.22031,0.34695 0.4856,0.64212 0.26977,0.29516 0.51705,0.54372 l -0.44962,0.59032 q -0.0405,-0.0259 -0.19334,-0.15016 -0.14837,-0.12947 -0.35071,-0.34695 -0.19783,-0.21749 -0.42264,-0.52819 -0.22032,-0.3107 -0.40916,-0.69907 -0.18435,-0.39355 -0.31023,-0.86478 -0.1214,-0.47122 -0.1214,-1.01495 0,-0.53854 0.13038,-0.89066 0.13489,-0.35731 0.37769,-0.56444 0.24279,-0.21231 0.58901,-0.29516 0.34621,-0.0829 0.77335,-0.0829 h 1.65462 v -1.64671 h -4.27144 v -0.76121 h 5.94853 z m -1.00716,-0.61622 h -0.65197 l -0.40915,-0.88549 q -0.26078,-0.56444 -0.47211,-0.89585 -0.21581,-0.33142 -0.40466,-0.5023 -0.19334,-0.17606 -0.37769,-0.22266 -0.18433,-0.0518 -0.38667,-0.0518 h -0.87227 v -0.8389 h 0.82281 q 0.26079,0 0.47211,0.0518 0.21133,0.0466 0.40466,0.17606 0.18884,0.12428 0.37319,0.35213 0.17985,0.22267 0.38668,0.57997 0.20682,0.35213 0.45412,0.84924 0.24279,0.49195 0.55753,1.16513 z m 1.68609,7.57585 v -1.06154 h 0.92173 v 1.06154 z m 2.36953,-4.90384 -0.22481,-1.44475 v -1.2428 h 0.92173 v 1.2428 l -0.20233,1.44475 z m 1.48826,0 -0.22032,-1.44475 v -1.2428 h 0.92174 v 1.2428 l -0.21582,1.44475 z m 1.7805,0 -0.2248,-1.44475 v -1.2428 h 0.92172 v 1.2428 l -0.20234,1.44475 z m 1.48826,0 -0.22032,-1.44475 v -1.2428 h 0.92173 v 1.2428 l -0.21582,1.44475 z m 1.78052,0 -0.22482,-1.44475 v -1.2428 h 0.92174 v 1.2428 l -0.20235,1.44475 z m 1.48825,0 -0.22031,-1.44475 v -1.2428 h 0.92172 v 1.2428 l -0.21581,1.44475 z"
       id="text1"
       style="font-size:73.5704px;line-height:1.25;font-family:Arial;-inkscape-font-specification:'Arial, Normal';font-variant-ligatures:none;letter-spacing:0px;word-spacing:0px;white-space:pre;stroke-width:0.134322"
       aria-label="ती सतत नवनवीन ज्ञान घेते.&#10;तिचे स्वप्न मोठे असून, ती मेहनतीने पुढे जाते.&quot;&quot;&quot;&#10;" />
  </g>
  <plotdata
     application="axidraw"
     model="1"
     plob_version="n/a"
     layer="-2"
     pause_dist="-25400"
     pause_ref="-25400"
     last_x="2.3916840730109354e-13"
     last_y="1.3487370942311116e-13"
     rand_seed="1"
     row="0" />
</svg>
