<?xml version="1.0" encoding="UTF-8" standalone="no"?>
<svg
   height="600pt"
   version="1.2"
   width="800pt"
   id="svg5"
   sodipodi:docname="output1.svg"
   inkscape:version="1.4.2 (f4327f4, 2025-05-13)"
   xmlns:inkscape="http://www.inkscape.org/namespaces/inkscape"
   xmlns:sodipodi="http://sodipodi.sourceforge.net/DTD/sodipodi-0.dtd"
   xmlns="http://www.w3.org/2000/svg"
   xmlns:svg="http://www.w3.org/2000/svg">
  <sodipodi:namedview
     id="namedview5"
     pagecolor="#ffffff"
     bordercolor="#666666"
     borderopacity="1.0"
     inkscape:showpageshadow="2"
     inkscape:pageopacity="0.0"
     inkscape:pagecheckerboard="0"
     inkscape:deskcolor="#d1d1d1"
     showgrid="false"
     inkscape:zoom="1.225"
     inkscape:cx="400"
     inkscape:cy="300"
     inkscape:window-width="1920"
     inkscape:window-height="974"
     inkscape:window-x="-11"
     inkscape:window-y="-11"
     inkscape:window-maximized="1"
     inkscape:current-layer="svg5"
     inkscape:document-units="pt" />
  <defs
     id="defs1">
    <rect
       x="397.55102"
       y="80"
       width="299.59184"
       height="174.69388"
       id="rect6" />
  </defs>
  <path
     d="m 417.25016,100.1215 v -4.409603 h -8.0704 v -1.0608 h 11.3568 v 1.0608 h -1.976 V 107.7551 h -1.3104 v -6.5104 h -4.576 l 0.104,1.664 q -0.0832,0.104 -0.312,0.208 -0.208,0.104 -0.5824,0.104 -0.728,0 -1.2064,-0.52 -0.4576,-0.5408 -0.4576,-1.3104 0,-0.52 0.3328,-0.8944 0.3536,-0.3744 1.0608,-0.3744 z m 4.84642,-4.409603 h -1.976 v -1.0608 h 5.2624 v 1.0608 h -1.976 V 107.7551 h -1.3104 z m 6.55199,0 v 5.532803 h 4.5968 v -5.532803 z m 0,8.174403 q -0.0832,0.104 -0.3328,0.1872 -0.2288,0.0832 -0.52,0.0832 -0.3536,0 -0.6864,-0.1248 -0.312,-0.1456 -0.5616,-0.3744 -0.2496,-0.2496 -0.3952,-0.5824 -0.1456,-0.3328 -0.1456,-0.728 0,-0.5408 0.2912,-0.8112 0.2912,-0.2912 0.832,-0.2912 h 0.208 v -5.532803 h -2.3712 v -1.0608 h 11.5648 v 1.0608 h -1.976 V 107.7551 h -1.3104 v -5.408 h -4.5968 z m 8.73599,2.9328 q 0,-0.4784 0.312,-0.7904 0.312,-0.312 0.7488,-0.312 0.416,0 0.728,0.312 0.312,0.312 0.312,0.7904 0,0.52 -0.312,0.8112 -0.312,0.2912 -0.728,0.2912 -0.4368,0 -0.7488,-0.2912 -0.312,-0.2912 -0.312,-0.8112 z m 0,-6.4272 q 0,-0.478403 0.312,-0.790403 0.312,-0.312 0.7488,-0.312 0.416,0 0.728,0.312 0.312,0.312 0.312,0.790403 0,0.52 -0.312,0.832 -0.312,0.2912 -0.728,0.2912 -0.4368,0 -0.7488,-0.2912 -0.312,-0.312 -0.312,-0.832 z m 9.256,-5.740803 q -0.1248,-0.208 -0.2288,-0.52 -0.0832,-0.3328 -0.0832,-0.6864 0,-0.6864 0.3328,-1.2896 0.3536,-0.6032 0.9984,-1.04 0.6656,-0.4368 1.6224,-0.6864 0.9776,-0.2496 2.2464,-0.2496 1.9344,0 3.5568,0.4784 1.6224,0.4576 2.8912,1.1648 1.2688,0.6864 2.184,1.4976 0.936,0.7904 1.4768,1.4352 l 0.208,0.2496 -0.8736,0.624 -0.2496,-0.2704 q -0.7488,-0.7904 -1.6848,-1.5184 -0.9152,-0.728 -2.0592,-1.2896 -1.1232,-0.5616 -2.4752,-0.8944 -1.3312,-0.3536 -2.912,-0.3536 -1.04,0 -1.7888,0.208 -0.728,0.1872 -1.2064,0.52 -0.4784,0.3328 -0.7072,0.7696 -0.208,0.4368 -0.208,0.9152 0,0.2496 0.0416,0.4992 0.0624,0.2496 0.1872,0.4368 h 2.2048 v 1.0608 h -1.976 V 107.7551 h -1.3104 V 95.711897 h -1.976 v -1.0608 z m 13.936,1.0608 h -1.2064 v -1.0608 h 4.472 v 1.0608 h -1.9552 V 107.7551 h -1.3104 z m -5.9696,-1.2688 q 0.832,0 1.4768,0.2912 0.6448,0.2912 1.0816,0.8112 0.4576,0.4992 0.6864,1.2064 0.2496,0.6864 0.2496,1.4976 0,1.0608 -0.3536,1.976003 -0.3328,0.8944 -0.936,1.6016 -0.5824,0.7072 -1.4144,1.2272 -0.8112,0.4992 -1.768,0.7696 l 3.64,3.2448 -1.0192,0.9152 -3.8272,-3.7856 q -0.3328,-0.0208 -0.6656,-0.1248 -0.3328,-0.104 -0.6032,-0.2912 -0.2704,-0.1872 -0.4576,-0.4784 -0.1664,-0.2912 -0.1664,-0.6656 0,-0.4992 0.312,-0.7696 0.312,-0.2912 0.6864,-0.2912 l 1.2272,1.1856 q 0.728,-0.1248 1.4352,-0.4784 0.7072,-0.3536 1.2688,-0.9152 0.5616,-0.5824 0.9152,-1.372803 0.3536,-0.7904 0.3536,-1.7888 0,-1.3312 -0.624,-1.976 -0.624,-0.6656 -1.4768,-0.6656 -0.832,0 -1.2896,0.4576 -0.4368,0.4576 -0.4368,1.1232 0,0.728 0.4992,1.1856 0.52,0.4576 1.4352,0.5616 l -0.3328,1.0608 q -0.6032,-0.0624 -1.144,-0.2704 -0.52,-0.2288 -0.936,-0.5824 -0.3952,-0.3744 -0.6448,-0.8736 -0.2288,-0.52 -0.2288,-1.1648 0,-0.5616 0.208,-1.04 0.2288,-0.4784 0.624,-0.832 0.3952,-0.3536 0.9568,-0.5408 0.5824,-0.208 1.2688,-0.208 z m 13.81119,3.5984 q 1.1232,0 1.8928,0.416 0.7904,0.416 1.2272,0.9152 v -3.6608 h -8.112 v -1.0608 h 11.3984 v 1.0608 h -1.976 V 107.7551 h -1.3104 v -3.6192 q -0.1664,0.2288 -0.4368,0.4576 -0.2704,0.2288 -0.6448,0.416 -0.3744,0.1872 -0.8528,0.312 -0.4784,0.1248 -1.1024,0.1248 -0.8528,0 -1.5808,-0.2496 -0.728,-0.2704 -1.2896,-0.7696 -0.5408,-0.4992 -0.8528,-1.2064 -0.312,-0.728 -0.312,-1.664 0,-0.8112 0.2912,-1.456 0.312,-0.665603 0.832,-1.123203 0.5408,-0.4576 1.248,-0.6864 0.728,-0.2496 1.5808,-0.2496 z m 3.1408,2.724803 q -0.1872,-0.2912 -0.4784,-0.5824 -0.2912,-0.291203 -0.6656,-0.520003 -0.3744,-0.2288 -0.832,-0.3744 -0.4576,-0.1456 -0.9776,-0.1456 -1.2272,0 -1.9968,0.6448 -0.7696,0.644803 -0.7696,1.830403 0,1.3312 0.7488,2.0176 0.7488,0.6864 2.1008,0.6864 0.6032,0 1.1232,-0.1872 0.5408,-0.208 0.9152,-0.5408 0.3952,-0.3536 0.6032,-0.832 0.2288,-0.4784 0.2288,-1.04 z m 4.8256,-5.054403 h -1.976 v -1.0608 h 5.2624 v 1.0608 h -1.976 V 107.7551 h -1.3104 z m 10.94079,4.409603 v -4.409603 h -8.0704 v -1.0608 h 11.3568 v 1.0608 h -1.976 V 107.7551 h -1.3104 v -6.5104 h -4.576 l 0.104,1.664 q -0.0832,0.104 -0.312,0.208 -0.208,0.104 -0.5824,0.104 -0.728,0 -1.2064,-0.52 -0.4576,-0.5408 -0.4576,-1.3104 0,-0.52 0.3328,-0.8944 0.3536,-0.3744 1.0608,-0.3744 z m -1.33118,-7.779203 q 0,-1.1856 0.7488,-1.9136 0.7488,-0.7488 2.1216,-0.7488 1.1024,0 1.872,0.5408 0.7904,0.5408 1.3104,1.3312 0.5408,0.7696 0.832,1.6224 0.312,0.8528 0.4368,1.4768 h 2.1424 v 1.0608 h -1.976 V 107.7551 h -1.3104 V 95.711897 h -1.976 v -1.0608 h 1.9136 q -0.1248,-0.5616 -0.3952,-1.2272 -0.2704,-0.6864 -0.6656,-1.248 -0.3952,-0.5824 -0.9152,-0.9776 -0.5408,-0.3952 -1.2064,-0.3952 -1.56,0 -1.56,1.7056 0,0.6032 0.2496,1.1856 0.2496,0.5824 0.5616,1.04 l 0.1664,0.2496 -0.8112,0.5408 q -0.6656,-0.6448 -1.1024,-1.456 -0.4368,-0.832 -0.4368,-1.7264 z m 11.232,15.600003 q -0.4368,-0.0624 -0.7072,-0.3744 -0.2496,-0.3328 -0.2496,-0.7904 0,-0.4368 0.2912,-0.7488 0.2912,-0.3328 0.7904,-0.3328 0.208,0 0.416,0.0832 0.2288,0.0624 0.416,0.2496 0.1872,0.1872 0.2912,0.52 0.1248,0.312 0.1248,0.8112 0,1.04 -0.624,1.8928 -0.624,0.8736 -1.5184,1.352 l -0.52,-0.7072 q 0.6032,-0.312 0.9984,-0.8112 0.416,-0.4784 0.5408,-1.1024 z m 8.21601,-12.230403 h -1.976 v -1.0608 h 1.7888 q -0.1248,-0.208 -0.2288,-0.5616 -0.0832,-0.3744 -0.0832,-0.728 0,-0.7072 0.312,-1.2896 0.3328,-0.6032 0.9152,-0.9984 0.6032,-0.416 1.456,-0.6448 0.8528,-0.2288 1.8928,-0.2288 1.6016,0 2.8912,0.4784 1.2896,0.4784 2.288,1.1856 0.9984,0.7072 1.7056,1.5184 0.728,0.8112 1.1856,1.456 l 0.1248,0.1872 -0.9568,0.6032 -0.208,-0.2704 q -0.5824,-0.7696 -1.3104,-1.4976 -0.7072,-0.728 -1.5808,-1.2896 -0.8528,-0.5616 -1.872,-0.8944 -1.0192,-0.3536 -2.2048,-0.3536 -1.6016,0 -2.4336,0.6656 -0.832,0.6448 -0.832,1.6432 0,0.624 0.1872,1.0192 h 2.2256 v 1.0608 h -1.976 V 107.7551 h -1.3104 z m 7.44639,2.3296 q 1.1232,0 1.8928,0.416 0.7904,0.416 1.2272,0.9152 v -3.6608 h -8.112 v -1.0608 h 11.3984 v 1.0608 h -1.976 V 107.7551 h -1.3104 v -3.6192 q -0.1664,0.2288 -0.4368,0.4576 -0.2704,0.2288 -0.6448,0.416 -0.3744,0.1872 -0.8528,0.312 -0.4784,0.1248 -1.1024,0.1248 -0.8528,0 -1.5808,-0.2496 -0.728,-0.2704 -1.2896,-0.7696 -0.5408,-0.4992 -0.8528,-1.2064 -0.312,-0.728 -0.312,-1.664 0,-0.8112 0.2912,-1.456 0.312,-0.665603 0.832,-1.123203 0.5408,-0.4576 1.248,-0.6864 0.728,-0.2496 1.5808,-0.2496 z m 3.1408,2.724803 q -0.1872,-0.2912 -0.4784,-0.5824 -0.2912,-0.291203 -0.6656,-0.520003 -0.3744,-0.2288 -0.832,-0.3744 -0.4576,-0.1456 -0.9776,-0.1456 -1.2272,0 -1.9968,0.6448 -0.7696,0.644803 -0.7696,1.830403 0,1.3312 0.7488,2.0176 0.7488,0.6864 2.1008,0.6864 0.6032,0 1.1232,-0.1872 0.5408,-0.208 0.9152,-0.5408 0.3952,-0.3536 0.6032,-0.832 0.2288,-0.4784 0.2288,-1.04 z m 13.70719,-5.054403 h -1.976 V 107.7551 h -1.3104 v -5.0752 q -0.3536,0.3536 -1.0192,0.6448 -0.6656,0.2912 -1.5808,0.2912 -0.7696,0 -1.4352,-0.208 -0.6656,-0.208 -1.1648,-0.6448 -0.4992,-0.4368 -0.7904,-1.1024 -0.2912,-0.6656 -0.2912,-1.56 v -4.388803 h -1.2896 v -1.0608 h 10.8576 z m -8.2576,4.2432 q 0,1.372803 0.6656,1.976003 0.6656,0.5824 1.7888,0.5824 0.6656,0 1.248,-0.2288 0.6032,-0.2496 0.9776,-0.6448 l -4.68,-4.700803 z m 4.9712,-4.2432 h -4.9296 l 4.9296,4.971203 z m 12.87522,0 V 107.7551 h -1.3104 v -3.9104 q -0.1456,0.1456 -0.3952,0.312 -0.2496,0.1664 -0.624,0.312 -0.3536,0.1456 -0.832,0.2496 -0.4784,0.104 -1.0816,0.104 -0.8944,0 -1.7472,-0.312 -0.832,-0.312 -1.4976,-0.9152 -0.6448,-0.624 -1.0608,-1.5184 -0.3952,-0.9152 -0.416,-2.121603 l 0.5824,-0.0208 q 1.5808,-0.0416 2.2048,-0.5616 0.6448,-0.52 0.6448,-1.4976 0,-0.6656 -0.312,-1.1856 -0.2912,-0.52 -0.7696,-0.9776 h -3.3904 v -1.0608 h 11.9808 v 1.0608 z m -1.3104,6.718403 v -6.718403 h -3.952 q 0.3952,0.3744 0.728,0.9568 0.3536,0.5824 0.3536,1.352 0,1.2688 -0.8736,2.080003 -0.8736,0.7904 -2.6,0.8944 0.2288,1.248 1.1232,1.976 0.9152,0.728 2.3504,0.728 1.0608,0 1.8096,-0.3952 0.7488,-0.416 1.0608,-0.8736 z m 4.1392,4.3888 q 0,-0.4784 0.312,-0.7904 0.312,-0.312 0.7488,-0.312 0.416,0 0.728,0.312 0.312,0.312 0.312,0.7904 0,0.52 -0.312,0.8112 -0.312,0.2912 -0.728,0.2912 -0.4368,0 -0.7488,-0.2912 -0.312,-0.2912 -0.312,-0.8112 z m 0,-6.4272 q 0,-0.478403 0.312,-0.790403 0.312,-0.312 0.7488,-0.312 0.416,0 0.728,0.312 0.312,0.312 0.312,0.790403 0,0.52 -0.312,0.832 -0.312,0.2912 -0.728,0.2912 -0.4368,0 -0.7488,-0.2912 -0.312,-0.312 -0.312,-0.832 z m 15.53759,-0.2704 v -4.409603 h -8.0704 v -1.0608 h 11.3568 v 1.0608 h -1.976 V 107.7551 h -1.3104 v -6.5104 h -4.576 l 0.104,1.664 q -0.0832,0.104 -0.312,0.208 -0.208,0.104 -0.5824,0.104 -0.728,0 -1.2064,-0.52 -0.4576,-0.5408 -0.4576,-1.3104 0,-0.52 0.3328,-0.8944 0.3536,-0.3744 1.0608,-0.3744 z m 1.31043,7.4256 v 1.0816 h -1.1232 q -0.6448,0 -1.0608,0.1456 -0.4368,0.1664 -0.6864,0.416 -0.2496,0.2496 -0.3536,0.5616 -0.104,0.3328 -0.104,0.6656 0,0.728 0.5616,1.248 0.5616,0.5408 1.6848,0.5408 0.8112,0 1.5808,-0.2912 0.7696,-0.2912 1.5392,-0.832 l 0.5824,0.9568 q -0.8944,0.6864 -1.8096,0.9776 -0.936,0.2912 -1.872,0.2912 -1.6224,0 -2.6,-0.8112 -0.9776,-0.8112 -0.9776,-2.2256 0,-0.5824 0.208,-1.0816 0.208,-0.4992 0.624,-0.8736 0.416,-0.3536 1.0192,-0.5616 0.6032,-0.208 1.4144,-0.208 z m 17.2848,-11.835203 V 107.7551 h -1.3104 v -3.9104 q -0.1456,0.1456 -0.3952,0.312 -0.2496,0.1664 -0.624,0.312 -0.3536,0.1456 -0.832,0.2496 -0.4784,0.104 -1.0816,0.104 -0.8528,0 -1.6432,-0.2704 -0.7904,-0.2704 -1.4352,-0.8112 -0.6448,-0.5408 -1.0816,-1.3312 -0.416,-0.8112 -0.52,-1.872 -0.3744,-0.1664 -0.7904,-0.2704 -0.3952,-0.104 -0.8528,-0.104 -1.352,0 -1.9552,0.6864 -0.6032,0.6864 -0.6032,1.7888 0,1.144 0.5616,2.2464 0.5616,1.1024 1.6016,2.3712 l -1.0816,0.6864 q -1.04,-1.248 -1.7472,-2.5584 -0.6864,-1.3312 -0.6864,-2.8288 0,-1.6848 0.9984,-2.600003 1.0192,-0.9152 2.704,-0.9152 0.9152,0 1.6016,0.2288 0.6864,0.208 1.2896,0.6448 1.2896,-0.1248 1.8096,-0.624 0.5408,-0.52 0.5408,-1.4144 0,-0.6656 -0.312,-1.1856 -0.2912,-0.52 -0.7696,-0.9776 h -9.1104 v -1.0608 h 17.7008 v 1.0608 z m -1.3104,6.718403 v -6.718403 h -3.952 q 0.3952,0.3744 0.728,0.9568 0.3536,0.5824 0.3536,1.352 0,1.2688 -0.8736,2.080003 -0.8736,0.7904 -2.6,0.8944 0.2288,1.248 1.1232,1.976 0.9152,0.728 2.3504,0.728 1.0608,0 1.8096,-0.3952 0.7488,-0.416 1.0608,-0.8736 z"
     id="text1"
     style="font-size:20.8px;font-family:Mukta;-inkscape-font-specification:'Mukta, Normal'"
     aria-label="नाम: शिवानी, विषय: नृत्य" />
  <path
     d="m 410.96856,134.6511 q -0.1248,-0.208 -0.2288,-0.52 -0.0832,-0.3328 -0.0832,-0.6864 0,-0.6864 0.3328,-1.2896 0.3536,-0.6032 0.9984,-1.04 0.6656,-0.4368 1.6224,-0.6864 0.9776,-0.2496 2.2464,-0.2496 1.9344,0 3.5568,0.4784 1.6224,0.4576 2.8912,1.1648 1.2688,0.6864 2.184,1.4976 0.936,0.7904 1.4768,1.4352 l 0.208,0.2496 -0.8736,0.624 -0.2496,-0.2704 q -0.7488,-0.7904 -1.6848,-1.5184 -0.9152,-0.728 -2.0592,-1.2896 -1.1232,-0.5616 -2.4752,-0.8944 -1.3312,-0.3536 -2.912,-0.3536 -1.04,0 -1.7888,0.208 -0.728,0.1872 -1.2064,0.52 -0.4784,0.3328 -0.7072,0.7696 -0.208,0.4368 -0.208,0.9152 0,0.2496 0.0416,0.4992 0.0624,0.2496 0.1872,0.4368 h 2.2048 v 1.0608 h -1.976 v 12.0432 h -1.3104 v -12.0432 h -1.976 v -1.0608 z m 13.936,1.0608 h -1.2064 v -1.0608 h 4.472 v 1.0608 h -1.9552 v 12.0432 h -1.3104 z m -5.9696,-1.2688 q 0.832,0 1.4768,0.2912 0.6448,0.2912 1.0816,0.8112 0.4576,0.4992 0.6864,1.2064 0.2496,0.6864 0.2496,1.4976 0,1.0608 -0.3536,1.976 -0.3328,0.8944 -0.936,1.6016 -0.5824,0.7072 -1.4144,1.2272 -0.8112,0.4992 -1.768,0.7696 l 3.64,3.2448 -1.0192,0.9152 -3.8272,-3.7856 q -0.3328,-0.0208 -0.6656,-0.1248 -0.3328,-0.104 -0.6032,-0.2912 -0.2704,-0.1872 -0.4576,-0.4784 -0.1664,-0.2912 -0.1664,-0.6656 0,-0.4992 0.312,-0.7696 0.312,-0.2912 0.6864,-0.2912 l 1.2272,1.1856 q 0.728,-0.1248 1.4352,-0.4784 0.7072,-0.3536 1.2688,-0.9152 0.5616,-0.5824 0.9152,-1.3728 0.3536,-0.7904 0.3536,-1.7888 0,-1.3312 -0.624,-1.976 -0.624,-0.6656 -1.4768,-0.6656 -0.832,0 -1.2896,0.4576 -0.4368,0.4576 -0.4368,1.1232 0,0.728 0.4992,1.1856 0.52,0.4576 1.4352,0.5616 l -0.3328,1.0608 q -0.6032,-0.0624 -1.144,-0.2704 -0.52,-0.2288 -0.936,-0.5824 -0.3952,-0.3744 -0.6448,-0.8736 -0.2288,-0.52 -0.2288,-1.1648 0,-0.5616 0.208,-1.04 0.2288,-0.4784 0.624,-0.832 0.3952,-0.3536 0.9568,-0.5408 0.5824,-0.208 1.2688,-0.208 z m 13.81119,3.5984 q 1.1232,0 1.8928,0.416 0.7904,0.416 1.2272,0.9152 v -3.6608 h -8.112 v -1.0608 h 11.3984 v 1.0608 h -1.976 v 12.0432 h -1.3104 v -3.6192 q -0.1664,0.2288 -0.4368,0.4576 -0.2704,0.2288 -0.6448,0.416 -0.3744,0.1872 -0.8528,0.312 -0.4784,0.1248 -1.1024,0.1248 -0.8528,0 -1.5808,-0.2496 -0.728,-0.2704 -1.2896,-0.7696 -0.5408,-0.4992 -0.8528,-1.2064 -0.312,-0.728 -0.312,-1.664 0,-0.8112 0.2912,-1.456 0.312,-0.6656 0.832,-1.1232 0.5408,-0.4576 1.248,-0.6864 0.728,-0.2496 1.5808,-0.2496 z m 3.1408,2.7248 q -0.1872,-0.2912 -0.4784,-0.5824 -0.2912,-0.2912 -0.6656,-0.52 -0.3744,-0.2288 -0.832,-0.3744 -0.4576,-0.1456 -0.9776,-0.1456 -1.2272,0 -1.9968,0.6448 -0.7696,0.6448 -0.7696,1.8304 0,1.3312 0.7488,2.0176 0.7488,0.6864 2.1008,0.6864 0.6032,0 1.1232,-0.1872 0.5408,-0.208 0.9152,-0.5408 0.3952,-0.3536 0.6032,-0.832 0.2288,-0.4784 0.2288,-1.04 z m 4.8256,-5.0544 h -1.976 v -1.0608 h 5.2624 v 1.0608 h -1.976 v 12.0432 h -1.3104 z m 10.94079,4.4096 v -4.4096 h -8.0704 v -1.0608 h 11.3568 v 1.0608 h -1.976 v 12.0432 h -1.3104 v -6.5104 h -4.576 l 0.104,1.664 q -0.0832,0.104 -0.312,0.208 -0.208,0.104 -0.5824,0.104 -0.728,0 -1.2064,-0.52 -0.4576,-0.5408 -0.4576,-1.3104 0,-0.52 0.3328,-0.8944 0.3536,-0.3744 1.0608,-0.3744 z m -1.33118,-7.7792 q 0,-1.1856 0.7488,-1.9136 0.7488,-0.7488 2.1216,-0.7488 1.1024,0 1.872,0.5408 0.7904,0.5408 1.3104,1.3312 0.5408,0.7696 0.832,1.6224 0.312,0.8528 0.4368,1.4768 h 2.1424 v 1.0608 h -1.976 v 12.0432 h -1.3104 v -12.0432 h -1.976 v -1.0608 h 1.9136 q -0.1248,-0.5616 -0.3952,-1.2272 -0.2704,-0.6864 -0.6656,-1.248 -0.3952,-0.5824 -0.9152,-0.9776 -0.5408,-0.3952 -1.2064,-0.3952 -1.56,0 -1.56,1.7056 0,0.6032 0.2496,1.1856 0.2496,0.5824 0.5616,1.04 l 0.1664,0.2496 -0.8112,0.5408 q -0.6656,-0.6448 -1.1024,-1.456 -0.4368,-0.832 -0.4368,-1.7264 z m 9.88,7.1968 v -1.1024 h 6.9264 v 1.1024 h -0.6032 q -1.3728,0 -2.0592,0.624 -0.6656,0.624 -0.6656,1.6224 0,0.5408 0.1872,0.936 0.208,0.3952 0.5408,0.6656 0.3536,0.2496 0.8112,0.3952 0.4576,0.1248 0.9776,0.1248 0.9984,0 1.7888,-0.4368 0.8112,-0.4576 1.248,-1.0608 v -6.6976 h -9.984 v -1.0608 h 13.2704 v 1.0608 h -1.976 v 12.0432 h -1.3104 v -3.9312 q -0.3952,0.416 -1.2064,0.8112 -0.8112,0.3952 -1.8928,0.3952 -0.832,0 -1.5392,-0.2288 -0.6864,-0.2496 -1.2064,-0.6656 -0.4992,-0.4368 -0.7904,-1.04 -0.2912,-0.6032 -0.2912,-1.352 0,-0.7488 0.3744,-1.352 0.3952,-0.624 0.9984,-0.8528 z m 7.8208,-7.1968 q 0,-1.1856 0.7488,-1.9136 0.7488,-0.7488 2.1216,-0.7488 1.1024,0 1.872,0.5408 0.7904,0.5408 1.3104,1.3312 0.5408,0.7696 0.832,1.6224 0.312,0.8528 0.4368,1.4768 h 2.1424 v 1.0608 h -1.976 v 12.0432 h -1.3104 v -12.0432 h -1.976 v -1.0608 h 1.9136 q -0.1248,-0.5616 -0.3952,-1.2272 -0.2704,-0.6864 -0.6656,-1.248 -0.3952,-0.5824 -0.9152,-0.9776 -0.5408,-0.3952 -1.2064,-0.3952 -1.56,0 -1.56,1.7056 0,0.6032 0.2496,1.1856 0.2496,0.5824 0.5616,1.04 l 0.1664,0.2496 -0.8112,0.5408 q -0.6656,-0.6448 -1.1024,-1.456 -0.4368,-0.832 -0.4368,-1.7264 z m 14.39361,7.1968 v -1.1024 h 6.9264 v 1.1024 h -0.6032 q -1.3728,0 -2.0592,0.624 -0.6656,0.624 -0.6656,1.6224 0,0.5408 0.1872,0.936 0.208,0.3952 0.5408,0.6656 0.3536,0.2496 0.8112,0.3952 0.4576,0.1248 0.9776,0.1248 0.9984,0 1.7888,-0.4368 0.8112,-0.4576 1.248,-1.0608 v -6.6976 h -9.984 v -1.0608 h 13.2704 v 1.0608 h -1.976 v 12.0432 h -1.3104 v -3.9312 q -0.3952,0.416 -1.2064,0.8112 -0.8112,0.3952 -1.8928,0.3952 -0.832,0 -1.5392,-0.2288 -0.6864,-0.2496 -1.2064,-0.6656 -0.4992,-0.4368 -0.7904,-1.04 -0.2912,-0.6032 -0.2912,-1.352 0,-0.7488 0.3744,-1.352 0.3952,-0.624 0.9984,-0.8528 z m 13.9984,-3.8272 h -1.976 v -1.0608 h 5.2624 v 1.0608 h -1.976 v 12.0432 h -1.3104 z m 9.7552,4.784 q -0.3536,-0.3952 -0.9152,-0.624 -0.5616,-0.2496 -1.1856,-0.2496 -1.04,0 -1.7264,0.624 -0.6656,0.6032 -0.6656,1.8512 0,0.8736 0.2704,1.6016 0.2912,0.7072 0.7904,1.3104 0.4992,0.6032 1.1648,1.1024 0.6656,0.4784 1.4144,0.8736 l -0.7904,0.9568 q -0.8528,-0.4576 -1.6224,-1.04 -0.7696,-0.6032 -1.352,-1.3312 -0.5616,-0.7488 -0.8944,-1.6224 -0.3328,-0.8944 -0.3328,-1.9344 0,-0.8736 0.2912,-1.5392 0.2912,-0.6656 0.7904,-1.1024 0.4992,-0.4368 1.144,-0.6448 0.6448,-0.2288 1.352,-0.2288 0.8528,0 1.56,0.312 0.728,0.312 1.2064,0.8528 0.416,-0.5408 1.0192,-0.832 0.6032,-0.2912 1.352,-0.2912 0.3952,0 0.7488,0.0832 0.3744,0.0624 0.6032,0.1664 v -3.0784 h -11.1072 v -1.0608 h 14.3936 v 1.0608 h -1.976 v 12.0432 h -1.3104 v -7.904 q -0.1664,-0.104 -0.4576,-0.1664 -0.2704,-0.0624 -0.6448,-0.0624 -1.1648,0 -1.7056,0.936 -0.52,0.9152 -0.5616,2.808 h -1.2896 q 0,-0.9984 0.1248,-1.6848 0.1456,-0.7072 0.312,-1.1856 z m 18.09603,6.6976 -1.1232,0.7488 -3.9104,-5.8864 q -0.3536,-0.4992 -0.4992,-0.7904 -0.1248,-0.2912 -0.1248,-0.52 0,-0.3328 0.2496,-0.4992 0.2704,-0.1872 0.6448,-0.1872 l 0.3536,0.4576 q 0.2912,0.3952 0.5824,0.5408 0.2912,0.1456 0.728,0.1456 0.9776,0 1.56,-0.6448 0.5824,-0.6448 0.5824,-1.8096 0,-1.0192 -0.3952,-1.7888 -0.3744,-0.7696 -0.7904,-1.248 h -4.3472 v -1.0608 h 14.0816 v 1.0608 h -1.976 v 12.0432 h -1.3104 v -5.6576 q -0.416,0.2288 -1.0192,0.3744 -0.6032,0.1248 -1.4768,0.1248 -0.728,0 -1.4768,-0.2288 -0.728,-0.2288 -1.2688,-0.624 -0.7696,0.5616 -1.9968,0.5616 -0.312,0 -0.52,-0.0624 z m 1.6848,-5.7408 q 0.8944,0 1.56,-0.208 0.6656,-0.2288 1.0608,-0.5616 v -4.9712 h -5.1168 q 0.1872,0.208 0.3952,0.5408 0.2288,0.3328 0.3952,0.7488 0.1872,0.3952 0.2912,0.8528 0.1248,0.4576 0.1248,0.9568 0,1.2688 -0.624,2.184 0.8112,0.4576 1.9136,0.4576 z m 2.3088,-9.8176 q 0,-0.3744 0.2704,-0.6656 0.2704,-0.2912 0.6864,-0.2912 0.416,0 0.6864,0.2912 0.2496,0.2912 0.2496,0.6656 0,0.4368 -0.2496,0.7072 -0.2704,0.2704 -0.6864,0.2704 -0.416,0 -0.6864,-0.2704 -0.2704,-0.2704 -0.2704,-0.7072 z m 6.448,10.0256 q 0.2912,-0.1872 0.5616,-0.7488 0.2704,-0.5824 0.2704,-1.4144 0,-1.1856 -0.52,-2.1424 -0.4992,-0.9776 -1.1856,-1.6432 h -2.392 v -1.0608 h 11.8768 v 1.0608 h -1.976 v 12.0432 h -1.3104 v -12.0432 h -4.7424 q 0.2496,0.2496 0.5408,0.6448 0.2912,0.3744 0.52,0.8736 0.2288,0.4992 0.3744,1.1232 0.1664,0.6032 0.1664,1.3104 0,0.8736 -0.2288,1.5808 -0.2288,0.7072 -0.6032,1.2064 -0.3744,0.4784 -0.8736,0.7488 -0.4784,0.2704 -0.9984,0.2704 -0.7072,0 -1.2064,-0.4368 -0.4992,-0.4368 -0.4992,-1.1024 0,-0.4992 0.3328,-0.8112 0.3328,-0.3328 0.7072,-0.3328 z m 3.99361,-9.3184 q 0,-1.1856 0.7488,-1.9136 0.7488,-0.7488 2.1216,-0.7488 1.1024,0 1.872,0.5408 0.7904,0.5408 1.3104,1.3312 0.5408,0.7696 0.832,1.6224 0.312,0.8528 0.4368,1.4768 h 2.1424 v 1.0608 h -1.976 v 12.0432 h -1.3104 v -12.0432 h -1.976 v -1.0608 h 1.9136 q -0.1248,-0.5616 -0.3952,-1.2272 -0.2704,-0.6864 -0.6656,-1.248 -0.3952,-0.5824 -0.9152,-0.9776 -0.5408,-0.3952 -1.2064,-0.3952 -1.56,0 -1.56,1.7056 0,0.6032 0.2496,1.1856 0.2496,0.5824 0.5616,1.04 l 0.1664,0.2496 -0.8112,0.5408 q -0.6656,-0.6448 -1.1024,-1.456 -0.4368,-0.832 -0.4368,-1.7264 z m 14.39359,7.8208 q -0.7488,0 -1.2688,0.1872 -0.52,0.1872 -0.8528,0.52 -0.312,0.312 -0.4784,0.7696 -0.1456,0.4576 -0.1456,0.9984 0,1.144 0.4992,2.288 0.4992,1.144 1.3936,2.4128 l -1.1232,0.6032 q -0.936,-1.3104 -1.5392,-2.6 -0.5824,-1.2896 -0.5824,-2.7872 0,-1.6848 0.9776,-2.6 0.9984,-0.9152 2.808,-0.9152 h 3.4736 v -3.328 h -8.5072 v -1.0608 h 11.7936 v 1.0608 h -1.976 v 12.0432 h -1.3104 v -7.592 z m 8.00802,-4.4512 h -1.976 v -1.0608 h 5.2624 v 1.0608 h -1.976 v 12.0432 h -1.3104 z m 9.35999,11.4816 -1.1232,0.7488 -3.9104,-5.8864 q -0.3536,-0.4992 -0.4992,-0.7904 -0.1248,-0.2912 -0.1248,-0.52 0,-0.3328 0.2496,-0.4992 0.2704,-0.1872 0.6448,-0.1872 l 0.3536,0.4576 q 0.2912,0.3952 0.5824,0.5408 0.2912,0.1456 0.728,0.1456 0.9776,0 1.56,-0.6448 0.5824,-0.6448 0.5824,-1.8096 0,-1.0192 -0.3952,-1.7888 -0.3744,-0.7696 -0.7904,-1.248 h -4.3472 v -1.0608 h 14.0816 v 1.0608 h -1.976 v 12.0432 h -1.3104 v -5.6576 q -0.416,0.2288 -1.0192,0.3744 -0.6032,0.1248 -1.4768,0.1248 -0.728,0 -1.4768,-0.2288 -0.728,-0.2288 -1.2688,-0.624 -0.7696,0.5616 -1.9968,0.5616 -0.312,0 -0.52,-0.0624 z m 1.6848,-5.7408 q 0.8944,0 1.56,-0.208 0.6656,-0.2288 1.0608,-0.5616 v -4.9712 h -5.1168 q 0.1872,0.208 0.3952,0.5408 0.2288,0.3328 0.3952,0.7488 0.1872,0.3952 0.2912,0.8528 0.1248,0.4576 0.1248,0.9568 0,1.2688 -0.624,2.184 0.8112,0.4576 1.9136,0.4576 z m 7.46721,-5.7408 h -1.976 v -1.0608 h 5.2624 v 1.0608 h -1.976 v 12.0432 h -1.3104 z m 9.46398,11.4816 -1.1232,0.7488 -4.01439,-5.8864 q -0.3536,-0.4992 -0.4992,-0.7904 -0.1248,-0.2912 -0.1248,-0.52 0,-0.3328 0.2704,-0.4992 0.2704,-0.1872 0.624,-0.1872 l 0.3536,0.4576 q 0.2912,0.3952 0.6032,0.5408 0.3328,0.1456 0.7696,0.1456 0.91519,0 1.47679,-0.624 0.5824,-0.6448 0.5824,-1.8096 0,-1.0192 -0.3536,-1.7888 -0.3536,-0.7696 -0.728,-1.2688 h -4.43039 v -1.0608 h 8.67359 v 1.0608 h -2.9328 q 0.1872,0.2288 0.3744,0.5616 0.208,0.312 0.3744,0.7072 0.1664,0.3952 0.2704,0.8736 0.104,0.4576 0.104,0.9776 0,0.7904 -0.2496,1.4352 -0.2288,0.624 -0.6656,1.0816 -0.416,0.4576 -1.0192,0.7072 -0.60319,0.2496 -1.33119,0.2496 -0.1456,0 -0.312,0 -0.1456,-0.0208 -0.2496,-0.0624 z m 14.41439,-3.848 q -0.2288,0.1664 -0.6656,0.3328 -0.416,0.1664 -1.144,0.1664 -0.5824,0 -1.1648,-0.1872 -0.5616,-0.208 -1.0192,-0.5824 -0.4576,-0.3952 -0.7488,-0.9776 -0.2704,-0.5824 -0.2704,-1.352 0,-0.7488 0.2288,-1.3312 0.2496,-0.5824 0.6864,-0.9568 0.4368,-0.3952 1.0192,-0.5824 0.6032,-0.208 1.2688,-0.208 0.5408,0 1.0192,0.1456 0.4992,0.1456 0.7904,0.3536 v -2.4544 h -7.5712 q 0.3536,0.52 0.6656,1.3104 0.312,0.7696 0.312,1.7264 0,0.728 -0.2288,1.352 -0.2288,0.6032 -0.6448,1.04 -0.3952,0.4368 -0.9568,0.6864 -0.5616,0.2288 -1.248,0.2288 -0.3952,0 -0.6656,-0.104 0.312,0.9776 0.9152,1.7472 0.6032,0.7696 1.4144,1.2896 0.8112,0.52 1.7888,0.7904 0.9984,0.2704 2.1008,0.2704 0.7072,0 1.352,-0.104 0.6448,-0.1248 1.1648,-0.2912 0.5408,-0.1872 0.936,-0.3952 0.416,-0.2288 0.6656,-0.4576 z m 0,-1.04 v -3.1408 q -0.3328,-0.2496 -0.7696,-0.3536 -0.416,-0.1248 -0.8736,-0.1248 -0.9152,0 -1.5392,0.5408 -0.6032,0.52 -0.6032,1.5184 0,0.5616 0.1664,0.9568 0.1872,0.3952 0.4784,0.6448 0.312,0.2496 0.6864,0.3744 0.3952,0.1248 0.8112,0.1248 0.5408,0 0.9776,-0.1456 0.4368,-0.1664 0.6656,-0.3952 z m 0,3.7856 q -0.5408,0.3536 -1.56,0.728 -0.9984,0.3536 -2.6,0.3536 -1.3312,0 -2.5792,-0.3536 -1.2272,-0.3536 -2.2464,-1.0816 -1.0192,-0.7488 -1.768,-1.872 -0.7488,-1.144 -1.1024,-2.704 -0.0208,-0.0832 -0.0624,-0.3328 -0.0416,-0.2496 -0.0416,-0.4992 0,-0.416 0.312,-0.6032 0.3328,-0.1872 0.7072,-0.0832 l 0.2496,0.624 q 0.2704,0.6864 0.8944,0.6864 0.3328,0 0.6656,-0.1248 0.3328,-0.1456 0.6032,-0.416 0.2704,-0.2912 0.416,-0.7072 0.1664,-0.4368 0.1664,-1.0192 0,-0.8736 -0.2704,-1.6432 -0.2496,-0.7904 -0.6656,-1.3312 h -3.8688 v -1.0608 h 16.0368 v 1.0608 h -1.976 v 12.0432 h -1.3104 z m -1.33121,-13.7488 q 0,-1.1856 0.7488,-1.9136 0.7488,-0.7488 2.1216,-0.7488 1.1024,0 1.872,0.5408 0.7904,0.5408 1.3104,1.3312 0.5408,0.7696 0.832,1.6224 0.312,0.8528 0.4368,1.4768 h 2.1424 v 1.0608 h -1.976 v 12.0432 h -1.3104 v -12.0432 h -1.976 v -1.0608 h 1.9136 q -0.1248,-0.5616 -0.3952,-1.2272 -0.2704,-0.6864 -0.6656,-1.248 -0.3952,-0.5824 -0.9152,-0.9776 -0.5408,-0.3952 -1.2064,-0.3952 -1.56,0 -1.56,1.7056 0,0.6032 0.2496,1.1856 0.2496,0.5824 0.5616,1.04 l 0.1664,0.2496 -0.8112,0.5408 q -0.6656,-0.6448 -1.1024,-1.456 -0.4368,-0.832 -0.4368,-1.7264 z"
     id="text2"
     style="font-size:20.8px;font-family:Mukta;-inkscape-font-specification:'Mukta, Normal'"
     aria-label="शिवानीची चाल संगीतासारखी" />
  <path
     d="m 417.25016,175.1215 v -4.4096 h -8.0704 v -1.0608 h 11.3568 v 1.0608 h -1.976 v 12.0432 h -1.3104 v -6.5104 h -4.576 l 0.104,1.664 q -0.0832,0.104 -0.312,0.208 -0.208,0.104 -0.5824,0.104 -0.728,0 -1.2064,-0.52 -0.4576,-0.5408 -0.4576,-1.3104 0,-0.52 0.3328,-0.8944 0.3536,-0.3744 1.0608,-0.3744 z m 1.31042,7.4256 v 1.0816 h -1.1232 q -0.6448,0 -1.0608,0.1456 -0.4368,0.1664 -0.6864,0.416 -0.2496,0.2496 -0.3536,0.5616 -0.104,0.3328 -0.104,0.6656 0,0.728 0.5616,1.248 0.5616,0.5408 1.6848,0.5408 0.8112,0 1.5808,-0.2912 0.7696,-0.2912 1.5392,-0.832 l 0.5824,0.9568 q -0.8944,0.6864 -1.8096,0.9776 -0.936,0.2912 -1.872,0.2912 -1.6224,0 -2.6,-0.8112 -0.9776,-0.8112 -0.9776,-2.2256 0,-0.5824 0.208,-1.0816 0.208,-0.4992 0.624,-0.8736 0.416,-0.3536 1.0192,-0.5616 0.6032,-0.208 1.4144,-0.208 z m 17.2848,-11.8352 v 12.0432 h -1.3104 v -3.9104 q -0.1456,0.1456 -0.3952,0.312 -0.2496,0.1664 -0.624,0.312 -0.3536,0.1456 -0.832,0.2496 -0.4784,0.104 -1.0816,0.104 -0.8528,0 -1.6432,-0.2704 -0.7904,-0.2704 -1.4352,-0.8112 -0.6448,-0.5408 -1.0816,-1.3312 -0.416,-0.8112 -0.52,-1.872 -0.3744,-0.1664 -0.7904,-0.2704 -0.3952,-0.104 -0.8528,-0.104 -1.352,0 -1.9552,0.6864 -0.6032,0.6864 -0.6032,1.7888 0,1.144 0.5616,2.2464 0.5616,1.1024 1.6016,2.3712 l -1.0816,0.6864 q -1.04,-1.248 -1.7472,-2.5584 -0.6864,-1.3312 -0.6864,-2.8288 0,-1.6848 0.9984,-2.6 1.0192,-0.9152 2.704,-0.9152 0.9152,0 1.6016,0.2288 0.6864,0.208 1.2896,0.6448 1.2896,-0.1248 1.8096,-0.624 0.5408,-0.52 0.5408,-1.4144 0,-0.6656 -0.312,-1.1856 -0.2912,-0.52 -0.7696,-0.9776 h -9.1104 v -1.0608 h 17.7008 v 1.0608 z m -1.3104,6.7184 v -6.7184 h -3.952 q 0.3952,0.3744 0.728,0.9568 0.3536,0.5824 0.3536,1.352 0,1.2688 -0.8736,2.08 -0.8736,0.7904 -2.6,0.8944 0.2288,1.248 1.1232,1.976 0.9152,0.728 2.3504,0.728 1.0608,0 1.8096,-0.3952 0.7488,-0.416 1.0608,-0.8736 z m 9.36,-6.7184 h -1.976 v -1.0608 h 1.7888 q -0.1248,-0.208 -0.2288,-0.5616 -0.0832,-0.3744 -0.0832,-0.728 0,-0.7072 0.312,-1.2896 0.3328,-0.6032 0.9152,-0.9984 0.6032,-0.416 1.456,-0.6448 0.8528,-0.2288 1.8928,-0.2288 1.6016,0 2.8912,0.4784 1.2896,0.4784 2.288,1.1856 0.9984,0.7072 1.7056,1.5184 0.728,0.8112 1.1856,1.456 l 0.1248,0.1872 -0.9568,0.6032 -0.208,-0.2704 q -0.5824,-0.7696 -1.3104,-1.4976 -0.7072,-0.728 -1.5808,-1.2896 -0.8528,-0.5616 -1.872,-0.8944 -1.0192,-0.3536 -2.2048,-0.3536 -1.6016,0 -2.4336,0.6656 -0.832,0.6448 -0.832,1.6432 0,0.624 0.1872,1.0192 h 2.2256 v 1.0608 h -1.976 v 12.0432 h -1.3104 z m 7.90401,4.4512 q -0.7488,0 -1.2688,0.1872 -0.52,0.1872 -0.8528,0.52 -0.312,0.312 -0.4784,0.7696 -0.1456,0.4576 -0.1456,0.9984 0,1.144 0.4992,2.288 0.4992,1.144 1.3936,2.4128 l -1.1232,0.6032 q -0.936,-1.3104 -1.5392,-2.6 -0.5824,-1.2896 -0.5824,-2.7872 0,-1.6848 0.9776,-2.6 0.9984,-0.9152 2.808,-0.9152 h 3.4736 v -3.328 h -8.5072 v -1.0608 h 11.7936 v 1.0608 h -1.976 v 12.0432 h -1.3104 v -7.592 z m 6.86402,-0.624 v -1.1024 h 6.9264 v 1.1024 h -0.6032 q -1.3728,0 -2.0592,0.624 -0.6656,0.624 -0.6656,1.6224 0,0.5408 0.1872,0.936 0.208,0.3952 0.5408,0.6656 0.3536,0.2496 0.8112,0.3952 0.4576,0.1248 0.9776,0.1248 0.9984,0 1.7888,-0.4368 0.8112,-0.4576 1.248,-1.0608 v -6.6976 h -9.984 v -1.0608 h 13.2704 v 1.0608 h -1.976 v 12.0432 h -1.3104 v -3.9312 q -0.3952,0.416 -1.2064,0.8112 -0.8112,0.3952 -1.8928,0.3952 -0.832,0 -1.5392,-0.2288 -0.6864,-0.2496 -1.2064,-0.6656 -0.4992,-0.4368 -0.7904,-1.04 -0.2912,-0.6032 -0.2912,-1.352 0,-0.7488 0.3744,-1.352 0.3952,-0.624 0.9984,-0.8528 z m 2.5168,-9.672 q 0.3536,-0.1872 0.936,-0.312 0.5616,-0.1456 1.144,-0.1456 1.4976,0 2.4752,0.7488 0.9776,0.7488 1.7056,2.1216 l 1.5808,2.9952 h -1.0608 l -1.4976,-2.4128 q -0.624,-1.04 -1.3104,-1.6016 -0.7072,-0.5824 -1.8928,-0.5824 -0.4368,0 -0.8736,0.104 -0.4576,0.104 -0.7696,0.2496 z m 11.6896,18.0752 q -0.4368,-0.0624 -0.7072,-0.3744 -0.2496,-0.3328 -0.2496,-0.7904 0,-0.4368 0.2912,-0.7488 0.2912,-0.3328 0.7904,-0.3328 0.208,0 0.416,0.0832 0.2288,0.0624 0.416,0.2496 0.1872,0.1872 0.2912,0.52 0.1248,0.312 0.1248,0.8112 0,1.04 -0.624,1.8928 -0.624,0.8736 -1.5184,1.352 l -0.52,-0.7072 q 0.6032,-0.312 0.9984,-0.8112 0.416,-0.4784 0.5408,-1.1024 z m 11.79361,-3.6608 q -0.0832,0.104 -0.312,0.1872 -0.208,0.0832 -0.52,0.0832 -0.728,0 -1.2896,-0.4784 -0.5616,-0.4992 -0.5616,-1.2896 0,-0.5408 0.3328,-0.832 0.3536,-0.2912 0.832,-0.2912 h 0.2288 v -4.4512 q 0,-0.7904 -0.3328,-1.2272 -0.312,-0.4368 -0.9568,-0.4368 -0.6656,0 -1.0608,0.3744 -0.3952,0.3744 -0.3952,1.1232 0,0.6656 0.3536,1.144 0.3536,0.4784 0.8944,0.728 l -0.4576,0.9568 q -0.3952,-0.104 -0.7696,-0.3536 -0.3744,-0.2704 -0.6864,-0.624 -0.2912,-0.3744 -0.4784,-0.8528 -0.1664,-0.4784 -0.1664,-1.0192 0,-1.1024 0.728,-1.8304 0.7488,-0.7488 1.976,-0.7488 1.3104,0 1.976,0.7696 0.6656,0.7488 0.6656,2.0592 v 4.3888 h 4.0144 v -5.9488 h -2.3088 v -1.0608 h 5.5952 v 1.0608 h -1.976 v 12.0432 h -1.3104 v -4.992 h -4.0144 z m 8.86079,-8.5696 h -1.976 v -1.0608 h 5.2624 v 1.0608 h -1.976 v 12.0432 h -1.3104 z m 7.8624,2.3296 q 1.1232,0 1.8928,0.416 0.7904,0.416 1.2272,0.9152 v -3.6608 h -8.112 v -1.0608 h 11.3984 v 1.0608 h -1.976 v 12.0432 h -1.3104 v -3.6192 q -0.1664,0.2288 -0.4368,0.4576 -0.2704,0.2288 -0.6448,0.416 -0.3744,0.1872 -0.8528,0.312 -0.4784,0.1248 -1.1024,0.1248 -0.8528,0 -1.5808,-0.2496 -0.728,-0.2704 -1.2896,-0.7696 -0.5408,-0.4992 -0.8528,-1.2064 -0.312,-0.728 -0.312,-1.664 0,-0.8112 0.2912,-1.456 0.312,-0.6656 0.832,-1.1232 0.5408,-0.4576 1.248,-0.6864 0.728,-0.2496 1.5808,-0.2496 z m 3.1408,2.7248 q -0.1872,-0.2912 -0.4784,-0.5824 -0.2912,-0.2912 -0.6656,-0.52 -0.3744,-0.2288 -0.832,-0.3744 -0.4576,-0.1456 -0.9776,-0.1456 -1.2272,0 -1.9968,0.6448 -0.7696,0.6448 -0.7696,1.8304 0,1.3312 0.7488,2.0176 0.7488,0.6864 2.1008,0.6864 0.6032,0 1.1232,-0.1872 0.5408,-0.208 0.9152,-0.5408 0.3952,-0.3536 0.6032,-0.832 0.2288,-0.4784 0.2288,-1.04 z m 10.92,-0.6448 v -4.4096 h -8.0704 v -1.0608 h 11.3568 v 1.0608 h -1.976 v 12.0432 h -1.3104 v -6.5104 h -4.576 l 0.104,1.664 q -0.0832,0.104 -0.312,0.208 -0.208,0.104 -0.5824,0.104 -0.728,0 -1.2064,-0.52 -0.4576,-0.5408 -0.4576,-1.3104 0,-0.52 0.3328,-0.8944 0.3536,-0.3744 1.0608,-0.3744 z m 4.84642,-4.4096 h -1.976 v -1.0608 h 5.2624 v 1.0608 h -1.976 v 12.0432 h -1.3104 z m -0.2912,-4.056 q 0,-0.3536 0.2496,-0.624 0.2704,-0.2912 0.6864,-0.2912 0.416,0 0.6656,0.2912 0.2496,0.2704 0.2496,0.624 0,0.416 -0.2496,0.6864 -0.2496,0.2704 -0.6656,0.2704 -0.416,0 -0.6864,-0.2704 -0.2496,-0.2704 -0.2496,-0.6864 z m 3.99359,7.8832 v -1.1024 h 6.9264 v 1.1024 h -0.6032 q -1.3728,0 -2.0592,0.624 -0.6656,0.624 -0.6656,1.6224 0,0.5408 0.1872,0.936 0.208,0.3952 0.5408,0.6656 0.3536,0.2496 0.8112,0.3952 0.4576,0.1248 0.9776,0.1248 0.9984,0 1.7888,-0.4368 0.8112,-0.4576 1.248,-1.0608 v -6.6976 h -9.984 v -1.0608 h 13.2704 v 1.0608 h -1.976 v 12.0432 h -1.3104 v -3.9312 q -0.3952,0.416 -1.2064,0.8112 -0.8112,0.3952 -1.8928,0.3952 -0.832,0 -1.5392,-0.2288 -0.6864,-0.2496 -1.2064,-0.6656 -0.4992,-0.4368 -0.7904,-1.04 -0.2912,-0.6032 -0.2912,-1.352 0,-0.7488 0.3744,-1.352 0.3952,-0.624 0.9984,-0.8528 z m 2.5168,-9.672 q 0.3536,-0.1872 0.936,-0.312 0.5616,-0.1456 1.144,-0.1456 1.4976,0 2.4752,0.7488 0.9776,0.7488 1.7056,2.1216 l 1.5808,2.9952 h -1.0608 l -1.4976,-2.4128 q -0.624,-1.04 -1.3104,-1.6016 -0.7072,-0.5824 -1.8928,-0.5824 -0.4368,0 -0.8736,0.104 -0.4576,0.104 -0.7696,0.2496 z m 20.50882,17.3264 -1.1232,0.7488 -3.9104,-5.8864 q -0.3536,-0.4992 -0.4992,-0.7904 -0.1248,-0.2912 -0.1248,-0.52 0,-0.3328 0.2496,-0.4992 0.2704,-0.1872 0.6448,-0.1872 l 0.3536,0.4576 q 0.2912,0.3952 0.5824,0.5408 0.2912,0.1456 0.728,0.1456 0.9776,0 1.56,-0.6448 0.5824,-0.6448 0.5824,-1.8096 0,-1.0192 -0.3952,-1.7888 -0.3744,-0.7696 -0.7904,-1.248 h -4.3472 v -1.0608 h 14.0816 v 1.0608 h -1.976 v 12.0432 h -1.3104 v -5.6576 q -0.416,0.2288 -1.0192,0.3744 -0.6032,0.1248 -1.4768,0.1248 -0.728,0 -1.4768,-0.2288 -0.728,-0.2288 -1.2688,-0.624 -0.7696,0.5616 -1.9968,0.5616 -0.312,0 -0.52,-0.0624 z m 1.6848,-5.7408 q 0.8944,0 1.56,-0.208 0.6656,-0.2288 1.0608,-0.5616 v -4.9712 h -5.1168 q 0.1872,0.208 0.3952,0.5408 0.2288,0.3328 0.3952,0.7488 0.1872,0.3952 0.2912,0.8528 0.1248,0.4576 0.1248,0.9568 0,1.2688 -0.624,2.184 0.8112,0.4576 1.9136,0.4576 z m 7.46719,-5.7408 h -1.976 v -1.0608 h 5.2624 v 1.0608 h -1.976 v 12.0432 h -1.3104 z m 6.136,5.9488 q 0.2912,-0.1872 0.5616,-0.7488 0.2704,-0.5824 0.2704,-1.4144 0,-1.1856 -0.52,-2.1424 -0.4992,-0.9776 -1.1856,-1.6432 h -2.392 v -1.0608 h 11.8768 v 1.0608 h -1.976 v 12.0432 h -1.3104 v -12.0432 h -4.7424 q 0.2496,0.2496 0.5408,0.6448 0.2912,0.3744 0.52,0.8736 0.2288,0.4992 0.3744,1.1232 0.1664,0.6032 0.1664,1.3104 0,0.8736 -0.2288,1.5808 -0.2288,0.7072 -0.6032,1.2064 -0.3744,0.4784 -0.8736,0.7488 -0.4784,0.2704 -0.9984,0.2704 -0.7072,0 -1.2064,-0.4368 -0.4992,-0.4368 -0.4992,-1.1024 0,-0.4992 0.3328,-0.8112 0.3328,-0.3328 0.7072,-0.3328 z m 14.78882,5.5328 -1.1232,0.7488 -4.0144,-5.8864 q -0.3536,-0.4992 -0.4992,-0.7904 -0.1248,-0.2912 -0.1248,-0.52 0,-0.3328 0.2704,-0.4992 0.2704,-0.1872 0.624,-0.1872 l 0.3536,0.4576 q 0.2912,0.3952 0.6032,0.5408 0.3328,0.1456 0.7696,0.1456 0.9152,0 1.4768,-0.624 0.5824,-0.6448 0.5824,-1.8096 0,-1.0192 -0.3536,-1.7888 -0.3536,-0.7696 -0.728,-1.2688 h -4.4304 v -1.0608 h 8.6736 v 1.0608 h -2.9328 q 0.1872,0.2288 0.3744,0.5616 0.208,0.312 0.3744,0.7072 0.1664,0.3952 0.2704,0.8736 0.104,0.4576 0.104,0.9776 0,0.7904 -0.2496,1.4352 -0.2288,0.624 -0.6656,1.0816 -0.416,0.4576 -1.0192,0.7072 -0.6032,0.2496 -1.3312,0.2496 -0.1456,0 -0.312,0 -0.1456,-0.0208 -0.2496,-0.0624 z m 3.43196,0.7488 q -0.4368,-0.0624 -0.7072,-0.3744 -0.2496,-0.3328 -0.2496,-0.7904 0,-0.4368 0.2912,-0.7488 0.2912,-0.3328 0.7904,-0.3328 0.208,0 0.416,0.0832 0.2288,0.0624 0.416,0.2496 0.1872,0.1872 0.2912,0.52 0.1248,0.312 0.1248,0.8112 0,1.04 -0.624,1.8928 -0.624,0.8736 -1.5184,1.352 l -0.52,-0.7072 q 0.6032,-0.312 0.9984,-0.8112 0.416,-0.4784 0.5408,-1.1024 z m 8.21602,-12.2304 h -1.976 v -1.0608 h 1.7888 q -0.1248,-0.208 -0.2288,-0.5616 -0.0832,-0.3744 -0.0832,-0.728 0,-0.7072 0.312,-1.2896 0.3328,-0.6032 0.9152,-0.9984 0.6032,-0.416 1.456,-0.6448 0.8528,-0.2288 1.8928,-0.2288 1.6016,0 2.8912,0.4784 1.2896,0.4784 2.288,1.1856 0.9984,0.7072 1.7056,1.5184 0.728,0.8112 1.1856,1.456 l 0.1248,0.1872 -0.9568,0.6032 -0.208,-0.2704 q -0.5824,-0.7696 -1.3104,-1.4976 -0.7072,-0.728 -1.5808,-1.2896 -0.8528,-0.5616 -1.872,-0.8944 -1.0192,-0.3536 -2.2048,-0.3536 -1.6016,0 -2.4336,0.6656 -0.832,0.6448 -0.832,1.6432 0,0.624 0.1872,1.0192 h 2.2256 v 1.0608 h -1.976 v 12.0432 h -1.3104 z m 10.9408,4.4096 v -4.4096 h -8.0704 v -1.0608 h 11.3568 v 1.0608 h -1.976 v 12.0432 h -1.3104 v -6.5104 h -4.576 l 0.104,1.664 q -0.0832,0.104 -0.312,0.208 -0.208,0.104 -0.5824,0.104 -0.728,0 -1.2064,-0.52 -0.4576,-0.5408 -0.4576,-1.3104 0,-0.52 0.3328,-0.8944 0.3536,-0.3744 1.0608,-0.3744 z m 15.62081,3.224 q -0.2288,0.1664 -0.6656,0.3328 -0.416,0.1664 -1.144,0.1664 -0.5824,0 -1.1648,-0.1872 -0.5616,-0.208 -1.0192,-0.5824 -0.4576,-0.3952 -0.7488,-0.9776 -0.2704,-0.5824 -0.2704,-1.352 0,-0.7488 0.2288,-1.3312 0.2496,-0.5824 0.6864,-0.9568 0.4368,-0.3952 1.0192,-0.5824 0.6032,-0.208 1.2688,-0.208 0.5408,0 1.0192,0.1456 0.4992,0.1456 0.7904,0.3536 v -2.4544 h -7.5712 q 0.3536,0.52 0.6656,1.3104 0.312,0.7696 0.312,1.7264 0,0.728 -0.2288,1.352 -0.2288,0.6032 -0.6448,1.04 -0.3952,0.4368 -0.9568,0.6864 -0.5616,0.2288 -1.248,0.2288 -0.3952,0 -0.6656,-0.104 0.312,0.9776 0.9152,1.7472 0.6032,0.7696 1.4144,1.2896 0.8112,0.52 1.7888,0.7904 0.9984,0.2704 2.1008,0.2704 0.7072,0 1.352,-0.104 0.6448,-0.1248 1.1648,-0.2912 0.5408,-0.1872 0.936,-0.3952 0.416,-0.2288 0.6656,-0.4576 z m 0,-1.04 v -3.1408 q -0.3328,-0.2496 -0.7696,-0.3536 -0.416,-0.1248 -0.8736,-0.1248 -0.9152,0 -1.5392,0.5408 -0.6032,0.52 -0.6032,1.5184 0,0.5616 0.1664,0.9568 0.1872,0.3952 0.4784,0.6448 0.312,0.2496 0.6864,0.3744 0.3952,0.1248 0.8112,0.1248 0.5408,0 0.9776,-0.1456 0.4368,-0.1664 0.6656,-0.3952 z m 0,3.7856 q -0.5408,0.3536 -1.56,0.728 -0.9984,0.3536 -2.6,0.3536 -1.3312,0 -2.5792,-0.3536 -1.2272,-0.3536 -2.2464,-1.0816 -1.0192,-0.7488 -1.768,-1.872 -0.7488,-1.144 -1.1024,-2.704 -0.0208,-0.0832 -0.0624,-0.3328 -0.0416,-0.2496 -0.0416,-0.4992 0,-0.416 0.312,-0.6032 0.3328,-0.1872 0.7072,-0.0832 l 0.2496,0.624 q 0.2704,0.6864 0.8944,0.6864 0.3328,0 0.6656,-0.1248 0.3328,-0.1456 0.6032,-0.416 0.2704,-0.2912 0.416,-0.7072 0.1664,-0.4368 0.1664,-1.0192 0,-0.8736 -0.2704,-1.6432 -0.2496,-0.7904 -0.6656,-1.3312 h -3.8688 v -1.0608 h 16.0368 v 1.0608 h -1.976 v 12.0432 h -1.3104 z m 7.61279,-7.592 q 1.1232,0 1.8096,0.4576 0.7072,0.4576 1.1856,1.0192 0.416,-0.728 1.1024,-1.0816 0.7072,-0.3744 1.4976,-0.3744 v -2.808 h -10.3376 v -1.0608 h 15.4544 v 1.0608 h -3.8064 v 2.8912 q 1.1024,0.2912 1.8304,1.2896 0.728,0.9984 0.728,2.6832 0,0.9568 -0.2912,1.7264 -0.2704,0.7696 -0.7904,1.3312 -0.4992,0.5408 -1.2272,0.8528 -0.7072,0.2912 -1.56,0.2912 -0.8736,0 -1.6016,-0.3536 -0.728,-0.3536 -1.1856,-0.8944 -0.9152,1.3104 -2.6416,1.3104 -0.7488,0 -1.456,-0.2496 -0.6864,-0.2496 -1.2272,-0.7696 -0.5408,-0.5408 -0.8736,-1.352 -0.312,-0.8112 -0.312,-1.9344 0,-0.9776 0.2704,-1.7264 0.2912,-0.7696 0.7696,-1.2688 0.4992,-0.52 1.1648,-0.7696 0.6864,-0.2704 1.4976,-0.2704 z m 3.224,6.0944 q 0.3328,0.4576 0.9152,0.7904 0.6032,0.312 1.3312,0.312 1.1232,0 1.872,-0.728 0.7696,-0.7488 0.7696,-2.4128 0,-1.3936 -0.6032,-2.1632 -0.6032,-0.7696 -1.6224,-0.7696 -0.8528,0 -1.4144,0.4784 -0.5616,0.4784 -0.7488,1.56 z m -0.6864,-3.64 q -0.3536,-0.4992 -0.9776,-0.9152 -0.6032,-0.4368 -1.4352,-0.4368 -0.4992,0 -0.9568,0.1872 -0.4576,0.1664 -0.7904,0.5408 -0.3328,0.3536 -0.5408,0.9152 -0.1872,0.5616 -0.1872,1.352 0,1.6224 0.6656,2.392 0.6864,0.7488 1.7056,0.7488 0.8736,0 1.3936,-0.52 0.52,-0.5408 0.6448,-1.3104 z m 9.52638,-5.2416 h -1.976 v -1.0608 h 1.8096 q -0.208,-0.5616 -0.5616,-1.2272 -0.3536,-0.6864 -0.8736,-1.2688 -0.4992,-0.5824 -1.144,-0.9568 -0.6656,-0.3952 -1.456,-0.3952 -0.9984,0 -1.456,0.4784 -0.4576,0.4784 -0.4576,1.3728 0,0.5824 0.2288,1.144 0.208,0.5616 0.5408,0.9984 l -0.8944,0.416 -0.2912,-0.3536 q -0.1456,-0.1664 -0.312,-0.416 -0.1664,-0.2496 -0.312,-0.5408 -0.1456,-0.312 -0.2496,-0.6656 -0.104,-0.3536 -0.104,-0.7488 0,-1.1856 0.832,-1.9968 0.832,-0.832 2.392,-0.832 0.8112,0 1.4976,0.2496 0.6656,0.2496 1.2064,0.6656 0.5616,0.416 0.9984,0.9568 0.4368,0.5408 0.7488,1.1024 0.3328,0.5408 0.5408,1.0816 0.2288,0.52 0.3744,0.936 h 2.2048 v 1.0608 h -1.976 v 12.0432 h -1.3104 z"
     id="text3"
     style="font-size:20.8px;font-family:Mukta;-inkscape-font-specification:'Mukta, Normal'"
     aria-label="नृत्य तिचे, भावनांचे सागर, निखळी" />
  <path
     d="m 414.52536,210.1631 q -0.7488,0 -1.2688,0.1872 -0.52,0.1872 -0.8528,0.52 -0.312,0.312 -0.4784,0.7696 -0.1456,0.4576 -0.1456,0.9984 0,1.144 0.4992,2.288 0.4992,1.144 1.3936,2.4128 l -1.1232,0.6032 q -0.936,-1.3104 -1.5392,-2.6 -0.5824,-1.2896 -0.5824,-2.7872 0,-1.6848 0.9776,-2.6 0.9984,-0.9152 2.808,-0.9152 h 3.4736 v -3.328 h -8.5072 v -1.0608 h 11.7936 v 1.0608 h -1.976 v 12.0432 h -1.3104 v -7.592 z m 8.00801,-4.4512 h -1.976 v -1.0608 h 5.2624 v 1.0608 h -1.976 v 12.0432 h -1.3104 z m 9.7552,4.784 q -0.3536,-0.3952 -0.9152,-0.624 -0.5616,-0.2496 -1.1856,-0.2496 -1.04,0 -1.7264,0.624 -0.6656,0.6032 -0.6656,1.8512 0,0.8736 0.2704,1.6016 0.2912,0.7072 0.7904,1.3104 0.4992,0.6032 1.1648,1.1024 0.6656,0.4784 1.4144,0.8736 l -0.7904,0.9568 q -0.8528,-0.4576 -1.6224,-1.04 -0.7696,-0.6032 -1.352,-1.3312 -0.5616,-0.7488 -0.8944,-1.6224 -0.3328,-0.8944 -0.3328,-1.9344 0,-0.8736 0.2912,-1.5392 0.2912,-0.6656 0.7904,-1.1024 0.4992,-0.4368 1.144,-0.6448 0.6448,-0.2288 1.352,-0.2288 0.8528,0 1.56,0.312 0.728,0.312 1.2064,0.8528 0.416,-0.5408 1.0192,-0.832 0.6032,-0.2912 1.352,-0.2912 0.3952,0 0.7488,0.0832 0.3744,0.0624 0.6032,0.1664 v -3.0784 h -11.1072 v -1.0608 h 14.3936 v 1.0608 h -1.976 v 12.0432 h -1.3104 v -7.904 q -0.1664,-0.104 -0.4576,-0.1664 -0.2704,-0.0624 -0.6448,-0.0624 -1.1648,0 -1.7056,0.936 -0.52,0.9152 -0.5616,2.808 h -1.2896 q 0,-0.9984 0.1248,-1.6848 0.1456,-0.7072 0.312,-1.1856 z m 18.49124,0 q -0.3536,-0.3952 -0.9152,-0.624 -0.5616,-0.2496 -1.1856,-0.2496 -1.04,0 -1.7264,0.624 -0.6656,0.6032 -0.6656,1.8512 0,0.8736 0.2704,1.6016 0.2912,0.7072 0.7904,1.3104 0.4992,0.6032 1.1648,1.1024 0.6656,0.4784 1.4144,0.8736 l -0.7904,0.9568 q -0.8528,-0.4576 -1.6224,-1.04 -0.7696,-0.6032 -1.352,-1.3312 -0.5616,-0.7488 -0.8944,-1.6224 -0.3328,-0.8944 -0.3328,-1.9344 0,-0.8736 0.2912,-1.5392 0.2912,-0.6656 0.7904,-1.1024 0.4992,-0.4368 1.144,-0.6448 0.6448,-0.2288 1.352,-0.2288 0.8528,0 1.56,0.312 0.728,0.312 1.2064,0.8528 0.416,-0.5408 1.0192,-0.832 0.6032,-0.2912 1.352,-0.2912 0.3952,0 0.7488,0.0832 0.3744,0.0624 0.6032,0.1664 v -3.0784 h -11.1072 v -1.0608 h 14.3936 v 1.0608 h -1.976 v 12.0432 h -1.3104 v -7.904 q -0.1664,-0.104 -0.4576,-0.1664 -0.2704,-0.0624 -0.6448,-0.0624 -1.1648,0 -1.7056,0.936 -0.52,0.9152 -0.5616,2.808 h -1.2896 q 0,-0.9984 0.1248,-1.6848 0.1456,-0.7072 0.312,-1.1856 z m 17.09762,-4.784 v 12.0432 h -1.3104 v -3.9104 q -0.1456,0.1456 -0.3952,0.312 -0.2496,0.1664 -0.624,0.312 -0.3536,0.1456 -0.832,0.2496 -0.4784,0.104 -1.0816,0.104 -0.8944,0 -1.7472,-0.312 -0.832,-0.312 -1.4976,-0.9152 -0.6448,-0.624 -1.0608,-1.5184 -0.3952,-0.9152 -0.416,-2.1216 l 0.5824,-0.0208 q 1.5808,-0.0416 2.2048,-0.5616 0.6448,-0.52 0.6448,-1.4976 0,-0.6656 -0.312,-1.1856 -0.2912,-0.52 -0.7696,-0.9776 h -3.3904 v -1.0608 h 11.9808 v 1.0608 z m -1.3104,6.7184 v -6.7184 h -3.952 q 0.3952,0.3744 0.728,0.9568 0.3536,0.5824 0.3536,1.352 0,1.2688 -0.8736,2.08 -0.8736,0.7904 -2.6,0.8944 0.2288,1.248 1.1232,1.976 0.9152,0.728 2.3504,0.728 1.0608,0 1.8096,-0.3952 0.7488,-0.416 1.0608,-0.8736 z m -1.33121,-10.088 q 0,-1.1856 0.7488,-1.9136 0.7488,-0.7488 2.1216,-0.7488 1.1024,0 1.872,0.5408 0.7904,0.5408 1.3104,1.3312 0.5408,0.7696 0.832,1.6224 0.312,0.8528 0.4368,1.4768 h 2.1424 v 1.0608 h -1.976 v 12.0432 h -1.3104 v -12.0432 h -1.976 v -1.0608 h 1.9136 q -0.1248,-0.5616 -0.3952,-1.2272 -0.2704,-0.6864 -0.6656,-1.248 -0.3952,-0.5824 -0.9152,-0.9776 -0.5408,-0.3952 -1.2064,-0.3952 -1.56,0 -1.56,1.7056 0,0.6032 0.2496,1.1856 0.2496,0.5824 0.5616,1.04 l 0.1664,0.2496 -0.8112,0.5408 q -0.6656,-0.6448 -1.1024,-1.456 -0.4368,-0.832 -0.4368,-1.7264 z m 14.39359,7.8208 q -0.7488,0 -1.2688,0.1872 -0.52,0.1872 -0.8528,0.52 -0.312,0.312 -0.4784,0.7696 -0.1456,0.4576 -0.1456,0.9984 0,1.144 0.4992,2.288 0.4992,1.144 1.3936,2.4128 l -1.1232,0.6032 q -0.936,-1.3104 -1.5392,-2.6 -0.5824,-1.2896 -0.5824,-2.7872 0,-1.6848 0.9776,-2.6 0.9984,-0.9152 2.808,-0.9152 h 3.4736 v -3.328 h -8.5072 v -1.0608 h 11.7936 v 1.0608 h -1.976 v 12.0432 h -1.3104 v -7.592 z m 15.89125,0 q -0.7488,0 -1.2688,0.1872 -0.52,0.1872 -0.8528,0.52 -0.312,0.312 -0.4784,0.7696 -0.1456,0.4576 -0.1456,0.9984 0,1.144 0.4992,2.288 0.4992,1.144 1.3936,2.4128 l -1.1232,0.6032 q -0.936,-1.3104 -1.5392,-2.6 -0.5824,-1.2896 -0.5824,-2.7872 0,-1.6848 0.9776,-2.6 0.9984,-0.9152 2.808,-0.9152 h 3.4736 v -3.328 h -8.5072 v -1.0608 h 11.7936 v 1.0608 h -1.976 v 12.0432 h -1.3104 v -7.592 z m 1.83041,-7.8208 q 0,-1.1856 0.7488,-1.9136 0.7488,-0.7488 2.1216,-0.7488 1.1024,0 1.872,0.5408 0.7904,0.5408 1.3104,1.3312 0.5408,0.7696 0.832,1.6224 0.312,0.8528 0.4368,1.4768 h 2.1424 v 1.0608 h -1.976 v 12.0432 h -1.3104 v -12.0432 h -1.976 v -1.0608 h 1.9136 q -0.1248,-0.5616 -0.3952,-1.2272 -0.2704,-0.6864 -0.6656,-1.248 -0.3952,-0.5824 -0.9152,-0.9776 -0.5408,-0.3952 -1.2064,-0.3952 -1.56,0 -1.56,1.7056 0,0.6032 0.2496,1.1856 0.2496,0.5824 0.5616,1.04 l 0.1664,0.2496 -0.8112,0.5408 q -0.6656,-0.6448 -1.1024,-1.456 -0.4368,-0.832 -0.4368,-1.7264 z m 21.63202,7.7792 v -4.4096 h -8.0704 v -1.0608 h 11.3568 v 1.0608 h -1.976 v 12.0432 h -1.3104 v -6.5104 h -4.576 l 0.104,1.664 q -0.0832,0.104 -0.312,0.208 -0.208,0.104 -0.5824,0.104 -0.728,0 -1.2064,-0.52 -0.4576,-0.5408 -0.4576,-1.3104 0,-0.52 0.3328,-0.8944 0.3536,-0.3744 1.0608,-0.3744 z m 4.84642,-4.4096 h -1.976 v -1.0608 h 5.2624 v 1.0608 h -1.976 v 12.0432 h -1.3104 z m 3.7024,3.8272 v -1.1024 h 6.9264 v 1.1024 h -0.6032 q -1.3728,0 -2.0592,0.624 -0.6656,0.624 -0.6656,1.6224 0,0.5408 0.1872,0.936 0.208,0.3952 0.5408,0.6656 0.3536,0.2496 0.8112,0.3952 0.4576,0.1248 0.9776,0.1248 0.9984,0 1.7888,-0.4368 0.8112,-0.4576 1.248,-1.0608 v -6.6976 h -9.984 v -1.0608 h 13.2704 v 1.0608 h -1.976 v 12.0432 h -1.3104 v -3.9312 q -0.3952,0.416 -1.2064,0.8112 -0.8112,0.3952 -1.8928,0.3952 -0.832,0 -1.5392,-0.2288 -0.6864,-0.2496 -1.2064,-0.6656 -0.4992,-0.4368 -0.7904,-1.04 -0.2912,-0.6032 -0.2912,-1.352 0,-0.7488 0.3744,-1.352 0.3952,-0.624 0.9984,-0.8528 z m 17.36799,0.624 q -0.7488,0 -1.2688,0.1872 -0.52,0.1872 -0.8528,0.52 -0.312,0.312 -0.4784,0.7696 -0.1456,0.4576 -0.1456,0.9984 0,1.144 0.4992,2.288 0.4992,1.144 1.3936,2.4128 l -1.1232,0.6032 q -0.936,-1.3104 -1.5392,-2.6 -0.5824,-1.2896 -0.5824,-2.7872 0,-1.6848 0.9776,-2.6 0.9984,-0.9152 2.808,-0.9152 h 3.4736 v -3.328 h -8.5072 v -1.0608 h 11.7936 v 1.0608 h -1.976 v 12.0432 h -1.3104 v -7.592 z m -3.47358,-10.296 q 0.3536,-0.1872 0.936,-0.312 0.5616,-0.1456 1.144,-0.1456 1.4976,0 2.4752,0.7488 0.9776,0.7488 1.7056,2.1216 l 1.5808,2.9952 h -1.0608 l -1.4976,-2.4128 q -0.624,-1.04 -1.3104,-1.6016 -0.7072,-0.5824 -1.8928,-0.5824 -0.4368,0 -0.8736,0.104 -0.4576,0.104 -0.7696,0.2496 z m 11.6896,18.0752 q -0.4368,-0.0624 -0.7072,-0.3744 -0.2496,-0.3328 -0.2496,-0.7904 0,-0.4368 0.2912,-0.7488 0.2912,-0.3328 0.7904,-0.3328 0.208,0 0.416,0.0832 0.2288,0.0624 0.416,0.2496 0.1872,0.1872 0.2912,0.52 0.1248,0.312 0.1248,0.8112 0,1.04 -0.624,1.8928 -0.624,0.8736 -1.5184,1.352 l -0.52,-0.7072 q 0.6032,-0.312 0.9984,-0.8112 0.416,-0.4784 0.5408,-1.1024 z m 9.92161,-12.2304 v 5.5328 h 4.5968 v -5.5328 z m 0,8.1744 q -0.0832,0.104 -0.3328,0.1872 -0.2288,0.0832 -0.52,0.0832 -0.3536,0 -0.6864,-0.1248 -0.312,-0.1456 -0.5616,-0.3744 -0.2496,-0.2496 -0.3952,-0.5824 -0.1456,-0.3328 -0.1456,-0.728 0,-0.5408 0.2912,-0.8112 0.2912,-0.2912 0.832,-0.2912 h 0.208 v -5.5328 h -2.3712 v -1.0608 h 11.5648 v 1.0608 h -1.976 v 12.0432 h -1.3104 v -5.408 h -4.5968 z m 15.53759,-3.7648 v -4.4096 h -8.0704 v -1.0608 h 11.3568 v 1.0608 h -1.976 v 12.0432 h -1.3104 v -6.5104 h -4.576 l 0.104,1.664 q -0.0832,0.104 -0.312,0.208 -0.208,0.104 -0.5824,0.104 -0.728,0 -1.2064,-0.52 -0.4576,-0.5408 -0.4576,-1.3104 0,-0.52 0.3328,-0.8944 0.3536,-0.3744 1.0608,-0.3744 z m 11.06564,-4.4096 v 5.5328 h 4.5968 v -5.5328 z m 0,8.1744 q -0.0832,0.104 -0.3328,0.1872 -0.2288,0.0832 -0.52,0.0832 -0.3536,0 -0.6864,-0.1248 -0.312,-0.1456 -0.5616,-0.3744 -0.2496,-0.2496 -0.3952,-0.5824 -0.1456,-0.3328 -0.1456,-0.728 0,-0.5408 0.2912,-0.8112 0.2912,-0.2912 0.832,-0.2912 h 0.208 v -5.5328 h -2.3712 v -1.0608 h 11.5648 v 1.0608 h -1.976 v 12.0432 h -1.3104 v -5.408 h -4.5968 z m 2.80799,-14.0192 q 0.3536,-0.1872 0.936,-0.312 0.5616,-0.1456 1.144,-0.1456 1.4976,0 2.4752,0.7488 0.9776,0.7488 1.7056,2.1216 l 1.248,2.3712 h 2.4128 v 1.0608 h -1.976 v 12.0432 h -1.3104 v -12.0432 h -1.976 v -1.0608 h 1.7264 l -1.1024,-1.7888 q -0.624,-1.04 -1.3104,-1.6016 -0.7072,-0.5824 -1.8928,-0.5824 -0.4576,0 -0.8944,0.104 -0.4368,0.104 -0.7488,0.2496 z m 11.48159,5.8448 h -1.976 v -1.0608 h 1.7888 q -0.104,-0.1664 -0.208,-0.52 -0.104,-0.3536 -0.104,-0.832 0,-0.6448 0.2496,-1.2064 0.2704,-0.5824 0.7696,-0.9984 0.52,-0.416 1.2688,-0.6448 0.7696,-0.2496 1.7888,-0.2496 1.3936,0 2.5376,0.4992 1.144,0.4784 2.0176,1.1856 0.8944,0.7072 1.5184,1.4976 0.6448,0.7904 1.0192,1.3936 l 0.1456,0.2496 -0.9984,0.5616 -0.2288,-0.3536 q -0.4784,-0.728 -1.1024,-1.4144 -0.6032,-0.7072 -1.352,-1.248 -0.7488,-0.5616 -1.6224,-0.8944 -0.8736,-0.3536 -1.872,-0.3536 -1.4768,0 -2.1216,0.6656 -0.6448,0.6448 -0.6448,1.56 0,0.2912 0.0416,0.5824 0.0416,0.2704 0.1664,0.52 h 2.2048 v 1.0608 h -1.976 v 12.0432 h -1.3104 z m 9.81761,13.9776 q -1.456,-0.1456 -2.5168,-0.5616 -1.04,-0.416 -1.7264,-1.04 -0.6864,-0.624 -1.0192,-1.3936 -0.3328,-0.7696 -0.3328,-1.6432 0,-0.7488 0.2496,-1.3312 0.2704,-0.6032 0.6864,-1.0192 -0.4784,-0.4576 -0.8112,-1.0192 -0.3328,-0.5824 -0.3328,-1.3104 0,-0.5824 0.208,-1.0192 0.2288,-0.4576 0.5824,-0.7488 0.3744,-0.312 0.8528,-0.4576 0.4992,-0.1456 1.04,-0.1456 h 2.8912 v -2.288 h -6.8224 v -1.0608 h 10.5248 v 1.0608 h -2.4128 v 3.3696 h -3.6192 q -0.3744,0 -0.728,0.0624 -0.3328,0.0624 -0.6032,0.2288 -0.2496,0.1456 -0.416,0.416 -0.1456,0.2704 -0.1456,0.7072 0,0.4784 0.1872,0.8944 0.208,0.3952 0.4992,0.6864 1.0192,-0.5824 2.3712,-0.5824 0.8736,0 1.56,0.2496 0.6864,0.2496 1.1648,0.6864 0.4992,0.416 0.7488,0.9984 0.2496,0.5616 0.2496,1.2064 0,0.6656 -0.2912,1.2272 -0.2704,0.5616 -0.6448,0.9152 l -0.9984,-0.728 q 0.2496,-0.2496 0.4368,-0.6032 0.1872,-0.3744 0.1872,-0.8528 0,-0.3328 -0.1456,-0.6864 -0.1248,-0.3536 -0.416,-0.6448 -0.2704,-0.2912 -0.728,-0.4576 -0.4576,-0.1872 -1.0816,-0.1872 -1.3104,0 -2.1008,0.6864 -0.7904,0.6864 -0.7904,1.8096 0,0.624 0.208,1.1856 0.208,0.5616 0.7072,1.04 0.52,0.4576 1.4144,0.7696 0.8944,0.3328 2.2672,0.4784 z m 8.50722,-9.5264 q -0.7488,0 -1.2688,0.1872 -0.52,0.1872 -0.8528,0.52 -0.312,0.312 -0.4784,0.7696 -0.1456,0.4576 -0.1456,0.9984 0,1.144 0.4992,2.288 0.4992,1.144 1.3936,2.4128 l -1.1232,0.6032 q -0.936,-1.3104 -1.5392,-2.6 -0.5824,-1.2896 -0.5824,-2.7872 0,-1.6848 0.9776,-2.6 0.9984,-0.9152 2.808,-0.9152 h 3.4736 v -3.328 h -8.5072 v -1.0608 h 11.7936 v 1.0608 h -1.976 v 12.0432 h -1.3104 v -7.592 z m 17.82565,0.2288 q -0.4576,-0.6032 -1.0608,-0.9152 -0.6032,-0.3328 -1.3936,-0.3328 -0.4784,0 -0.936,0.1456 -0.4368,0.1456 -0.7696,0.4368 -0.3328,0.2912 -0.5408,0.7488 -0.1872,0.4368 -0.1872,1.0608 0,1.248 0.6448,1.9136 0.6656,0.6656 1.7888,0.6656 1.04,0 1.7472,-0.624 0.7072,-0.6448 0.7072,-2.0176 z m 1.2688,7.3632 h -1.2896 v -3.6816 q -0.3328,0.5408 -1.04,0.8528 -0.6864,0.312 -1.4768,0.312 -0.728,0 -1.3936,-0.2288 -0.6656,-0.2496 -1.1856,-0.728 -0.52,-0.4784 -0.832,-1.1856 -0.2912,-0.7072 -0.2912,-1.6432 0,-0.832 0.2704,-1.4768 0.2912,-0.6448 0.7696,-1.0816 0.4992,-0.4368 1.144,-0.6448 0.6656,-0.2288 1.3936,-0.2288 0.7904,0 1.4768,0.2912 0.6864,0.2704 1.1648,0.8736 v -3.4736 h -7.2592 v -1.0608 h 16.016 v 1.0608 h -7.4672 v 3.7232 q 0.312,-0.5408 1.0608,-0.936 0.7488,-0.3952 1.6848,-0.3952 0.6864,0 1.3104,0.2288 0.6448,0.208 1.1232,0.6448 0.4992,0.416 0.7696,1.04 0.2912,0.624 0.2912,1.4352 0,0.936 -0.312,1.6016 -0.312,0.6656 -0.8528,1.1024 -0.52,0.4368 -1.2272,0.6448 -0.7072,0.208 -1.4768,0.208 -0.2288,0 -0.5408,-0.0208 -0.2912,-0.0416 -0.4576,-0.1248 l 0.2496,-1.04 q 0.312,0.0624 0.7072,0.0624 0.52,0 0.9776,-0.1248 0.4784,-0.1456 0.8112,-0.4368 0.3536,-0.312 0.5616,-0.7696 0.208,-0.4576 0.208,-1.1232 0,-1.0608 -0.624,-1.6224 -0.624,-0.5824 -1.6848,-0.5824 -1.1856,0 -1.8928,0.7488 -0.6864,0.7488 -0.6864,2.0384 z m 13.8528,-0.5616 -1.1232,0.7488 -4.0144,-5.8864 q -0.3536,-0.4992 -0.4992,-0.7904 -0.1248,-0.2912 -0.1248,-0.52 0,-0.3328 0.2704,-0.4992 0.2704,-0.1872 0.624,-0.1872 l 0.3536,0.4576 q 0.2912,0.3952 0.6032,0.5408 0.3328,0.1456 0.7696,0.1456 0.9152,0 1.4768,-0.624 0.5824,-0.6448 0.5824,-1.8096 0,-1.0192 -0.3536,-1.7888 -0.3536,-0.7696 -0.728,-1.2688 h -4.4304 v -1.0608 h 8.6736 v 1.0608 h -2.9328 q 0.1872,0.2288 0.3744,0.5616 0.208,0.312 0.3744,0.7072 0.1664,0.3952 0.2704,0.8736 0.104,0.4576 0.104,0.9776 0,0.7904 -0.2496,1.4352 -0.2288,0.624 -0.6656,1.0816 -0.416,0.4576 -1.0192,0.7072 -0.6032,0.2496 -1.3312,0.2496 -0.1456,0 -0.312,0 -0.1456,-0.0208 -0.2496,-0.0624 z m 6.38557,-7.0304 q -0.7488,0 -1.2688,0.1872 -0.52,0.1872 -0.8528,0.52 -0.312,0.312 -0.4784,0.7696 -0.1456,0.4576 -0.1456,0.9984 0,1.144 0.4992,2.288 0.4992,1.144 1.3936,2.4128 l -1.1232,0.6032 q -0.936,-1.3104 -1.5392,-2.6 -0.5824,-1.2896 -0.5824,-2.7872 0,-1.6848 0.9776,-2.6 0.9984,-0.9152 2.808,-0.9152 h 3.4736 v -3.328 h -8.5072 v -1.0608 h 11.7936 v 1.0608 h -1.976 v 12.0432 h -1.3104 v -7.592 z m -3.47359,-10.296 q 0.3536,-0.1872 0.936,-0.312 0.5616,-0.1456 1.144,-0.1456 1.4976,0 2.4752,0.7488 0.9776,0.7488 1.7056,2.1216 l 1.5808,2.9952 h -1.0608 l -1.4976,-2.4128 q -0.624,-1.04 -1.3104,-1.6016 -0.7072,-0.5824 -1.8928,-0.5824 -0.4368,0 -0.8736,0.104 -0.4576,0.104 -0.7696,0.2496 z"
     id="text4"
     style="font-size:20.8px;font-family:Mukta;-inkscape-font-specification:'Mukta, Normal'"
     aria-label="ताल लयीत ती नाचते, मन मोहित करते" />
  <path
     d="m 410.96856,239.6511 q -0.1248,-0.208 -0.2288,-0.52 -0.0832,-0.3328 -0.0832,-0.6864 0,-0.6864 0.3328,-1.2896 0.3536,-0.6032 0.9984,-1.04 0.6656,-0.4368 1.6224,-0.6864 0.9776,-0.2496 2.2464,-0.2496 1.9344,0 3.5568,0.4784 1.6224,0.4576 2.8912,1.1648 1.2688,0.6864 2.184,1.4976 0.936,0.7904 1.4768,1.4352 l 0.208,0.2496 -0.8736,0.624 -0.2496,-0.2704 q -0.7488,-0.7904 -1.6848,-1.5184 -0.9152,-0.728 -2.0592,-1.2896 -1.1232,-0.5616 -2.4752,-0.8944 -1.3312,-0.3536 -2.912,-0.3536 -1.04,0 -1.7888,0.208 -0.728,0.1872 -1.2064,0.52 -0.4784,0.3328 -0.7072,0.7696 -0.208,0.4368 -0.208,0.9152 0,0.2496 0.0416,0.4992 0.0624,0.2496 0.1872,0.4368 h 2.2048 v 1.0608 h -1.976 v 12.0432 h -1.3104 v -12.0432 h -1.976 v -1.0608 z m 13.936,1.0608 h -1.2064 v -1.0608 h 4.472 v 1.0608 h -1.9552 v 12.0432 h -1.3104 z m -5.9696,-1.2688 q 0.832,0 1.4768,0.2912 0.6448,0.2912 1.0816,0.8112 0.4576,0.4992 0.6864,1.2064 0.2496,0.6864 0.2496,1.4976 0,1.0608 -0.3536,1.976 -0.3328,0.8944 -0.936,1.6016 -0.5824,0.7072 -1.4144,1.2272 -0.8112,0.4992 -1.768,0.7696 l 3.64,3.2448 -1.0192,0.9152 -3.8272,-3.7856 q -0.3328,-0.0208 -0.6656,-0.1248 -0.3328,-0.104 -0.6032,-0.2912 -0.2704,-0.1872 -0.4576,-0.4784 -0.1664,-0.2912 -0.1664,-0.6656 0,-0.4992 0.312,-0.7696 0.312,-0.2912 0.6864,-0.2912 l 1.2272,1.1856 q 0.728,-0.1248 1.4352,-0.4784 0.7072,-0.3536 1.2688,-0.9152 0.5616,-0.5824 0.9152,-1.3728 0.3536,-0.7904 0.3536,-1.7888 0,-1.3312 -0.624,-1.976 -0.624,-0.6656 -1.4768,-0.6656 -0.832,0 -1.2896,0.4576 -0.4368,0.4576 -0.4368,1.1232 0,0.728 0.4992,1.1856 0.52,0.4576 1.4352,0.5616 l -0.3328,1.0608 q -0.6032,-0.0624 -1.144,-0.2704 -0.52,-0.2288 -0.936,-0.5824 -0.3952,-0.3744 -0.6448,-0.8736 -0.2288,-0.52 -0.2288,-1.1648 0,-0.5616 0.208,-1.04 0.2288,-0.4784 0.624,-0.832 0.3952,-0.3536 0.9568,-0.5408 0.5824,-0.208 1.2688,-0.208 z m 13.81119,3.5984 q 1.1232,0 1.8928,0.416 0.7904,0.416 1.2272,0.9152 v -3.6608 h -8.112 v -1.0608 h 11.3984 v 1.0608 h -1.976 v 12.0432 h -1.3104 v -3.6192 q -0.1664,0.2288 -0.4368,0.4576 -0.2704,0.2288 -0.6448,0.416 -0.3744,0.1872 -0.8528,0.312 -0.4784,0.1248 -1.1024,0.1248 -0.8528,0 -1.5808,-0.2496 -0.728,-0.2704 -1.2896,-0.7696 -0.5408,-0.4992 -0.8528,-1.2064 -0.312,-0.728 -0.312,-1.664 0,-0.8112 0.2912,-1.456 0.312,-0.6656 0.832,-1.1232 0.5408,-0.4576 1.248,-0.6864 0.728,-0.2496 1.5808,-0.2496 z m 3.1408,2.7248 q -0.1872,-0.2912 -0.4784,-0.5824 -0.2912,-0.2912 -0.6656,-0.52 -0.3744,-0.2288 -0.832,-0.3744 -0.4576,-0.1456 -0.9776,-0.1456 -1.2272,0 -1.9968,0.6448 -0.7696,0.6448 -0.7696,1.8304 0,1.3312 0.7488,2.0176 0.7488,0.6864 2.1008,0.6864 0.6032,0 1.1232,-0.1872 0.5408,-0.208 0.9152,-0.5408 0.3952,-0.3536 0.6032,-0.832 0.2288,-0.4784 0.2288,-1.04 z m 4.8256,-5.0544 h -1.976 v -1.0608 h 5.2624 v 1.0608 h -1.976 v 12.0432 h -1.3104 z m 10.94079,4.4096 v -4.4096 h -8.0704 v -1.0608 h 11.3568 v 1.0608 h -1.976 v 12.0432 h -1.3104 v -6.5104 h -4.576 l 0.104,1.664 q -0.0832,0.104 -0.312,0.208 -0.208,0.104 -0.5824,0.104 -0.728,0 -1.2064,-0.52 -0.4576,-0.5408 -0.4576,-1.3104 0,-0.52 0.3328,-0.8944 0.3536,-0.3744 1.0608,-0.3744 z m -1.33118,-7.7792 q 0,-1.1856 0.7488,-1.9136 0.7488,-0.7488 2.1216,-0.7488 1.1024,0 1.872,0.5408 0.7904,0.5408 1.3104,1.3312 0.5408,0.7696 0.832,1.6224 0.312,0.8528 0.4368,1.4768 h 2.1424 v 1.0608 h -1.976 v 12.0432 h -1.3104 v -12.0432 h -1.976 v -1.0608 h 1.9136 q -0.1248,-0.5616 -0.3952,-1.2272 -0.2704,-0.6864 -0.6656,-1.248 -0.3952,-0.5824 -0.9152,-0.9776 -0.5408,-0.3952 -1.2064,-0.3952 -1.56,0 -1.56,1.7056 0,0.6032 0.2496,1.1856 0.2496,0.5824 0.5616,1.04 l 0.1664,0.2496 -0.8112,0.5408 q -0.6656,-0.6448 -1.1024,-1.456 -0.4368,-0.832 -0.4368,-1.7264 z m 9.88,7.1968 v -1.1024 h 6.9264 v 1.1024 h -0.6032 q -1.3728,0 -2.0592,0.624 -0.6656,0.624 -0.6656,1.6224 0,0.5408 0.1872,0.936 0.208,0.3952 0.5408,0.6656 0.3536,0.2496 0.8112,0.3952 0.4576,0.1248 0.9776,0.1248 0.9984,0 1.7888,-0.4368 0.8112,-0.4576 1.248,-1.0608 v -6.6976 h -9.984 v -1.0608 h 13.2704 v 1.0608 h -1.976 v 12.0432 h -1.3104 v -3.9312 q -0.3952,0.416 -1.2064,0.8112 -0.8112,0.3952 -1.8928,0.3952 -0.832,0 -1.5392,-0.2288 -0.6864,-0.2496 -1.2064,-0.6656 -0.4992,-0.4368 -0.7904,-1.04 -0.2912,-0.6032 -0.2912,-1.352 0,-0.7488 0.3744,-1.352 0.3952,-0.624 0.9984,-0.8528 z m 2.5168,-9.672 q 0.3536,-0.1872 0.936,-0.312 0.5616,-0.1456 1.144,-0.1456 1.4976,0 2.4752,0.7488 0.9776,0.7488 1.7056,2.1216 l 1.5808,2.9952 h -1.0608 l -1.4976,-2.4128 q -0.624,-1.04 -1.3104,-1.6016 -0.7072,-0.5824 -1.8928,-0.5824 -0.4368,0 -0.8736,0.104 -0.4576,0.104 -0.7696,0.2496 z m 22.08961,10.2544 v -4.4096 h -8.0704 v -1.0608 h 11.3568 v 1.0608 h -1.976 v 12.0432 h -1.3104 v -6.5104 h -4.576 l 0.104,1.664 q -0.0832,0.104 -0.312,0.208 -0.208,0.104 -0.5824,0.104 -0.728,0 -1.2064,-0.52 -0.4576,-0.5408 -0.4576,-1.3104 0,-0.52 0.3328,-0.8944 0.3536,-0.3744 1.0608,-0.3744 z m 1.31042,7.4256 v 1.0816 h -1.1232 q -0.6448,0 -1.0608,0.1456 -0.4368,0.1664 -0.6864,0.416 -0.2496,0.2496 -0.3536,0.5616 -0.104,0.3328 -0.104,0.6656 0,0.728 0.5616,1.248 0.5616,0.5408 1.6848,0.5408 0.8112,0 1.5808,-0.2912 0.7696,-0.2912 1.5392,-0.832 l 0.5824,0.9568 q -0.8944,0.6864 -1.8096,0.9776 -0.936,0.2912 -1.872,0.2912 -1.6224,0 -2.6,-0.8112 -0.9776,-0.8112 -0.9776,-2.2256 0,-0.5824 0.208,-1.0816 0.208,-0.4992 0.624,-0.8736 0.416,-0.3536 1.0192,-0.5616 0.6032,-0.208 1.4144,-0.208 z m 17.2848,-11.8352 v 12.0432 h -1.3104 v -3.9104 q -0.1456,0.1456 -0.3952,0.312 -0.2496,0.1664 -0.624,0.312 -0.3536,0.1456 -0.832,0.2496 -0.4784,0.104 -1.0816,0.104 -0.8528,0 -1.6432,-0.2704 -0.7904,-0.2704 -1.4352,-0.8112 -0.6448,-0.5408 -1.0816,-1.3312 -0.416,-0.8112 -0.52,-1.872 -0.3744,-0.1664 -0.7904,-0.2704 -0.3952,-0.104 -0.8528,-0.104 -1.352,0 -1.9552,0.6864 -0.6032,0.6864 -0.6032,1.7888 0,1.144 0.5616,2.2464 0.5616,1.1024 1.6016,2.3712 l -1.0816,0.6864 q -1.04,-1.248 -1.7472,-2.5584 -0.6864,-1.3312 -0.6864,-2.8288 0,-1.6848 0.9984,-2.6 1.0192,-0.9152 2.704,-0.9152 0.9152,0 1.6016,0.2288 0.6864,0.208 1.2896,0.6448 1.2896,-0.1248 1.8096,-0.624 0.5408,-0.52 0.5408,-1.4144 0,-0.6656 -0.312,-1.1856 -0.2912,-0.52 -0.7696,-0.9776 h -9.1104 v -1.0608 h 17.7008 v 1.0608 z m -1.3104,6.7184 v -6.7184 h -3.952 q 0.3952,0.3744 0.728,0.9568 0.3536,0.5824 0.3536,1.352 0,1.2688 -0.8736,2.08 -0.8736,0.7904 -2.6,0.8944 0.2288,1.248 1.1232,1.976 0.9152,0.728 2.3504,0.728 1.0608,0 1.8096,-0.3952 0.7488,-0.416 1.0608,-0.8736 z m 5.05439,5.512 q -0.4368,-0.0624 -0.7072,-0.3744 -0.2496,-0.3328 -0.2496,-0.7904 0,-0.4368 0.2912,-0.7488 0.2912,-0.3328 0.7904,-0.3328 0.208,0 0.416,0.0832 0.2288,0.0624 0.416,0.2496 0.1872,0.1872 0.2912,0.52 0.1248,0.312 0.1248,0.8112 0,1.04 -0.624,1.8928 -0.624,0.8736 -1.5184,1.352 l -0.52,-0.7072 q 0.6032,-0.312 0.9984,-0.8112 0.416,-0.4784 0.5408,-1.1024 z m 13.16641,-7.8416 q 0.2704,0.1248 0.5408,0.3744 0.2704,0.2496 0.4784,0.6032 0.2288,0.3536 0.3744,0.8112 0.1456,0.4576 0.1456,0.9984 0,0.7488 -0.2704,1.3728 -0.2704,0.6032 -0.7488,1.04 -0.4784,0.416 -1.144,0.6656 -0.6448,0.2288 -1.4144,0.2288 -0.8112,0 -1.4976,-0.2288 -0.6656,-0.2496 -1.2064,-0.6656 -0.52,-0.416 -0.9152,-0.9568 -0.3952,-0.5616 -0.6656,-1.1856 l 0.9776,-0.52 q 0.5408,1.144 1.3312,1.8096 0.7904,0.6448 1.9136,0.6448 0.4576,0 0.8736,-0.1248 0.416,-0.1456 0.728,-0.416 0.312,-0.2704 0.4992,-0.6864 0.1872,-0.4368 0.1872,-1.04 0,-1.3104 -0.8528,-2.0176 -0.8528,-0.7072 -2.4336,-0.7072 h -0.6032 v -1.0816 h 7.8208 v -3.3072 h -11.0448 v -1.0608 h 14.3312 v 1.0608 h -1.976 v 12.0432 h -1.3104 v -7.6544 z m 10.25442,1.56 q 0.2912,-0.1872 0.5616,-0.7488 0.2704,-0.5824 0.2704,-1.4144 0,-1.1856 -0.52,-2.1424 -0.4992,-0.9776 -1.1856,-1.6432 h -2.392 v -1.0608 h 11.8768 v 1.0608 h -1.976 v 12.0432 h -1.3104 v -12.0432 h -4.7424 q 0.2496,0.2496 0.5408,0.6448 0.2912,0.3744 0.52,0.8736 0.2288,0.4992 0.3744,1.1232 0.1664,0.6032 0.1664,1.3104 0,0.8736 -0.2288,1.5808 -0.2288,0.7072 -0.6032,1.2064 -0.3744,0.4784 -0.8736,0.7488 -0.4784,0.2704 -0.9984,0.2704 -0.7072,0 -1.2064,-0.4368 -0.4992,-0.4368 -0.4992,-1.1024 0,-0.4992 0.3328,-0.8112 0.3328,-0.3328 0.7072,-0.3328 z m 10.17121,-5.9488 h -1.976 v -1.0608 h 5.2624 v 1.0608 h -1.976 v 12.0432 h -1.3104 z m 3.7024,3.8272 v -1.1024 h 6.9264 v 1.1024 h -0.6032 q -1.3728,0 -2.0592,0.624 -0.6656,0.624 -0.6656,1.6224 0,0.5408 0.1872,0.936 0.208,0.3952 0.5408,0.6656 0.3536,0.2496 0.8112,0.3952 0.4576,0.1248 0.9776,0.1248 0.9984,0 1.7888,-0.4368 0.8112,-0.4576 1.248,-1.0608 v -6.6976 h -9.984 v -1.0608 h 13.2704 v 1.0608 h -1.976 v 12.0432 h -1.3104 v -3.9312 q -0.3952,0.416 -1.2064,0.8112 -0.8112,0.3952 -1.8928,0.3952 -0.832,0 -1.5392,-0.2288 -0.6864,-0.2496 -1.2064,-0.6656 -0.4992,-0.4368 -0.7904,-1.04 -0.2912,-0.6032 -0.2912,-1.352 0,-0.7488 0.3744,-1.352 0.3952,-0.624 0.9984,-0.8528 z m 2.5168,-9.672 q 0.3536,-0.1872 0.936,-0.312 0.5616,-0.1456 1.144,-0.1456 1.4976,0 2.4752,0.7488 0.9776,0.7488 1.7056,2.1216 l 1.5808,2.9952 h -1.0608 l -1.4976,-2.4128 q -0.624,-1.04 -1.3104,-1.6016 -0.7072,-0.5824 -1.8928,-0.5824 -0.4368,0 -0.8736,0.104 -0.4576,0.104 -0.7696,0.2496 z m 17.70081,5.8448 v 5.5328 h 4.5968 v -5.5328 z m 0,8.1744 q -0.0832,0.104 -0.3328,0.1872 -0.2288,0.0832 -0.52,0.0832 -0.3536,0 -0.6864,-0.1248 -0.312,-0.1456 -0.5616,-0.3744 -0.2496,-0.2496 -0.3952,-0.5824 -0.1456,-0.3328 -0.1456,-0.728 0,-0.5408 0.2912,-0.8112 0.2912,-0.2912 0.832,-0.2912 h 0.208 v -5.5328 h -2.3712 v -1.0608 h 11.5648 v 1.0608 h -1.976 v 12.0432 h -1.3104 v -5.408 h -4.5968 z m 15.53759,-3.7648 v -4.4096 h -8.0704 v -1.0608 h 11.3568 v 1.0608 h -1.976 v 12.0432 h -1.3104 v -6.5104 h -4.576 l 0.104,1.664 q -0.0832,0.104 -0.312,0.208 -0.208,0.104 -0.5824,0.104 -0.728,0 -1.2064,-0.52 -0.4576,-0.5408 -0.4576,-1.3104 0,-0.52 0.3328,-0.8944 0.3536,-0.3744 1.0608,-0.3744 z m 14.43524,9.568 q -1.456,-0.1456 -2.5168,-0.5616 -1.04,-0.416 -1.7264,-1.04 -0.6864,-0.624 -1.0192,-1.3936 -0.3328,-0.7696 -0.3328,-1.6432 0,-0.7488 0.2496,-1.3312 0.2704,-0.6032 0.6864,-1.0192 -0.4784,-0.4576 -0.8112,-1.0192 -0.3328,-0.5824 -0.3328,-1.3104 0,-0.5824 0.208,-1.0192 0.2288,-0.4576 0.5824,-0.7488 0.3744,-0.312 0.8528,-0.4576 0.4992,-0.1456 1.04,-0.1456 h 2.8912 v -2.288 h -6.8224 v -1.0608 h 10.5248 v 1.0608 h -2.4128 v 3.3696 h -3.6192 q -0.3744,0 -0.728,0.0624 -0.3328,0.0624 -0.6032,0.2288 -0.2496,0.1456 -0.416,0.416 -0.1456,0.2704 -0.1456,0.7072 0,0.4784 0.1872,0.8944 0.208,0.3952 0.4992,0.6864 1.0192,-0.5824 2.3712,-0.5824 0.8736,0 1.56,0.2496 0.6864,0.2496 1.1648,0.6864 0.4992,0.416 0.7488,0.9984 0.2496,0.5616 0.2496,1.2064 0,0.6656 -0.2912,1.2272 -0.2704,0.5616 -0.6448,0.9152 l -0.9984,-0.728 q 0.2496,-0.2496 0.4368,-0.6032 0.1872,-0.3744 0.1872,-0.8528 0,-0.3328 -0.1456,-0.6864 -0.1248,-0.3536 -0.416,-0.6448 -0.2704,-0.2912 -0.728,-0.4576 -0.4576,-0.1872 -1.0816,-0.1872 -1.3104,0 -2.1008,0.6864 -0.7904,0.6864 -0.7904,1.8096 0,0.624 0.208,1.1856 0.208,0.5616 0.7072,1.04 0.52,0.4576 1.4144,0.7696 0.8944,0.3328 2.2672,0.4784 z m 9.75523,-2.496 -1.1232,0.7488 -4.0144,-5.8864 q -0.3536,-0.4992 -0.4992,-0.7904 -0.1248,-0.2912 -0.1248,-0.52 0,-0.3328 0.2704,-0.4992 0.2704,-0.1872 0.624,-0.1872 l 0.3536,0.4576 q 0.2912,0.3952 0.6032,0.5408 0.3328,0.1456 0.7696,0.1456 0.9152,0 1.4768,-0.624 0.5824,-0.6448 0.5824,-1.8096 0,-1.0192 -0.3536,-1.7888 -0.3536,-0.7696 -0.728,-1.2688 h -4.4304 v -1.0608 h 8.6736 v 1.0608 h -2.9328 q 0.1872,0.2288 0.3744,0.5616 0.208,0.312 0.3744,0.7072 0.1664,0.3952 0.2704,0.8736 0.104,0.4576 0.104,0.9776 0,0.7904 -0.2496,1.4352 -0.2288,0.624 -0.6656,1.0816 -0.416,0.4576 -1.0192,0.7072 -0.6032,0.2496 -1.3312,0.2496 -0.1456,0 -0.312,0 -0.1456,-0.0208 -0.2496,-0.0624 z m 6.38557,-7.0304 q -0.7488,0 -1.2688,0.1872 -0.52,0.1872 -0.8528,0.52 -0.312,0.312 -0.4784,0.7696 -0.1456,0.4576 -0.1456,0.9984 0,1.144 0.4992,2.288 0.4992,1.144 1.3936,2.4128 l -1.1232,0.6032 q -0.936,-1.3104 -1.5392,-2.6 -0.5824,-1.2896 -0.5824,-2.7872 0,-1.6848 0.9776,-2.6 0.9984,-0.9152 2.808,-0.9152 h 3.4736 v -3.328 h -8.5072 v -1.0608 h 11.7936 v 1.0608 h -1.976 v 12.0432 h -1.3104 v -7.592 z m -3.47359,-10.296 q 0.3536,-0.1872 0.936,-0.312 0.5616,-0.1456 1.144,-0.1456 1.4976,0 2.4752,0.7488 0.9776,0.7488 1.7056,2.1216 l 1.5808,2.9952 h -1.0608 l -1.4976,-2.4128 q -0.624,-1.04 -1.3104,-1.6016 -0.7072,-0.5824 -1.8928,-0.5824 -0.4368,0 -0.8736,0.104 -0.4576,0.104 -0.7696,0.2496 z"
     id="text5"
     style="font-size:20.8px;font-family:Mukta;-inkscape-font-specification:'Mukta, Normal'"
     aria-label="शिवानीचे नृत्य, जगाचे मन हरते" />
  <text
     xml:space="preserve"
     id="text6"
     style="font-size:43.7216px;line-height:1.25;font-family:Mukta;-inkscape-font-specification:'Mukta, Normal';letter-spacing:0px;word-spacing:0px;white-space:pre;shape-inside:url(#rect6);display:inline" />
</svg>
