<?xml version="1.0" encoding="UTF-8" standalone="no"?>
<svg
   width="800"
   height="600"
   version="1.1"
   id="svg4"
   sodipodi:docname="rohit_cricket.svg"
   xmlns:inkscape="http://www.inkscape.org/namespaces/inkscape"
   xmlns:sodipodi="http://sodipodi.sourceforge.net/DTD/sodipodi-0.dtd"
   xmlns="http://www.w3.org/2000/svg"
   xmlns:svg="http://www.w3.org/2000/svg">
  <sodipodi:namedview
     id="namedview4"
     pagecolor="#ffffff"
     bordercolor="#666666"
     borderopacity="1.0"
     inkscape:showpageshadow="2"
     inkscape:pageopacity="0.0"
     inkscape:pagecheckerboard="0"
     inkscape:deskcolor="#d1d1d1" />
  <defs
     id="defs1">
    <style
       type="text/css"
       id="style1">
      @font-face {{
        font-family: 'Kalam';
        src: url('Kalam-Regular.ttf');
      }}
    </style>
  </defs>
  <g
     id="g4">
    <g
       id="text4"
       style="font-size:32px;font-family:Kalam"
       aria-label="रोहितचाच हा खेळ अद्भुत,चेंडू मारतो जो अतिशय सुटसुट.क्रिकेटमध्ये तो नावारूपाला येतो,भारताचाच हा खेळाडू श्रेष्ठ तो.">
      <path
         d="m 66.1875,79 h -5.890625 q 0.796875,1.375 1.28125,2.8125 0.5,1.421875 0.5,2.890625 0,1.109375 -0.34375,2.140625 -0.328125,1.015625 -0.984375,1.828125 -0.640625,0.796875 -1.609375,1.3125 -0.953125,0.5 -2.203125,0.5625 L 56.90625,90.625 q 1.40625,2.1875 3.15625,4.140625 1.75,1.9375 4.046875,3.6875 L 62.4375,100.375 q -1.328125,-0.984375 -2.53125,-2.125 -1.1875,-1.15625 -2.25,-2.375 -1.0625,-1.234375 -1.984375,-2.484375 Q 54.765625,92.125 54,90.9375 53.25,89.734375 52.65625,88.640625 52.0625,87.53125 51.640625,86.625 l 2.140625,-1.15625 q 0.5625,1.21875 1.265625,1.921875 0.71875,0.6875 1.65625,0.6875 0.671875,0 1.203125,-0.34375 0.53125,-0.34375 0.890625,-0.875 0.359375,-0.546875 0.546875,-1.1875 0.1875,-0.65625 0.1875,-1.28125 0,-0.734375 -0.1875,-1.4375 Q 59.15625,82.234375 58.859375,81.5625 58.5625,80.875 58.1875,80.234375 57.828125,79.59375 57.484375,79 h -8.03125 V 76.703125 H 66.1875 Z M 74.5,79 h -3.28125 v 21 h -2.5625 V 79 h -3.5625 V 76.703125 H 74.5 Z M 71,77.140625 H 68.734375 L 67.3125,74.46875 q -0.90625,-1.703125 -1.65625,-2.703125 -0.734375,-1 -1.390625,-1.515625 -0.671875,-0.53125 -1.3125,-0.671875 -0.640625,-0.15625 -1.34375,-0.15625 h -3.03125 v -2.53125 H 61.4375 q 0.90625,0 1.640625,0.15625 0.734375,0.140625 1.40625,0.53125 0.65625,0.375 1.28125,1.0625 0.640625,0.671875 1.359375,1.75 0.71875,1.0625 1.5625,2.5625 0.859375,1.484375 1.953125,3.515625 z M 82.8125,79 h -3.28125 v 21 h -2.5625 V 79 h -3.5625 v -2.296875 h 3.5625 q -0.859375,-2.0625 -0.859375,-3.84375 0,-1.140625 0.375,-2.125 Q 76.859375,69.75 77.625,69.03125 78.40625,68.3125 79.609375,67.90625 80.8125,67.5 82.46875,67.5 q 2.171875,0 4.171875,0.703125 2.015625,0.703125 3.9375,1.953125 1.921875,1.25 3.796875,2.96875 1.890625,1.71875 3.8125,3.75 h -2.71875 q -0.4375,-0.421875 -1.171875,-1.09375 -0.71875,-0.6875 -1.671875,-1.453125 -0.953125,-0.78125 -2.109375,-1.5625 -1.15625,-0.796875 -2.4375,-1.4375 -1.28125,-0.640625 -2.671875,-1.03125 -1.375,-0.40625 -2.78125,-0.40625 -1.140625,0 -1.921875,0.265625 -0.765625,0.265625 -1.25,0.734375 -0.46875,0.46875 -0.671875,1.109375 -0.203125,0.625 -0.203125,1.34375 0,1.40625 0.765625,3.359375 h 3.46875 z m 10.90625,16.59375 q 0.515625,-0.15625 1.015625,-0.390625 0.515625,-0.234375 0.90625,-0.5625 0.40625,-0.34375 0.65625,-0.796875 0.25,-0.453125 0.25,-1.0625 0,-1.296875 -1.078125,-2.015625 -1.078125,-0.734375 -3.0625,-0.734375 -0.796875,0 -1.640625,0.171875 -0.828125,0.15625 -1.515625,0.59375 -0.6875,0.421875 -1.125,1.171875 -0.4375,0.734375 -0.4375,1.875 0,1.15625 0.453125,2.15625 0.453125,0.984375 1.171875,1.8125 0.734375,0.828125 1.640625,1.5 0.90625,0.671875 1.796875,1.1875 0.90625,0.51563 1.703125,0.85938 0.796875,0.35937 1.328125,0.5625 L 94.75,104.07813 q -1.09375,-0.46875 -2.234375,-1.03125 -1.125,-0.54688 -2.1875,-1.21875 -1.0625,-0.65625 -2,-1.45313 -0.9375,-0.796875 -1.640625,-1.765625 -0.6875,-0.96875 -1.09375,-2.125 -0.390625,-1.15625 -0.390625,-2.515625 0,-1.328125 0.34375,-2.3125 0.359375,-1 0.984375,-1.75 -0.859375,-0.984375 -1.265625,-1.984375 -0.40625,-1 -0.40625,-2.171875 0,-0.671875 0.15625,-1.265625 0.171875,-0.59375 0.59375,-1.03125 Q 86.046875,83 86.8125,82.734375 87.578125,82.46875 88.796875,82.46875 H 95.875 V 79 H 81.71875 v -2.296875 h 20.35938 V 79 H 98.4375 v 5.75 h -8.984375 q -0.609375,0 -1.03125,0.109375 -0.40625,0.09375 -0.65625,0.296875 -0.25,0.203125 -0.359375,0.515625 -0.09375,0.296875 -0.09375,0.703125 0,0.546875 0.1875,1.0625 0.1875,0.515625 0.703125,1.15625 0.90625,-0.46875 1.984375,-0.6875 1.09375,-0.234375 2.28125,-0.234375 1.375,0 2.5625,0.3125 1.203125,0.3125 2.078125,0.953125 Q 98,89.5625 98.5,90.546875 q 0.515625,0.96875 0.515625,2.28125 0,1.265625 -0.4375,2.140625 Q 98.15625,95.84375 97.5,96.4375 96.859375,97.03125 96.09375,97.40625 95.328125,97.765625 94.671875,98 Z M 121.65625,79 H 118.375 v 21 h -2.54687 V 86.28125 H 110.75 q -1.04687,0 -1.89062,0.140625 -0.84375,0.125 -1.4375,0.53125 -0.59375,0.390625 -0.92188,1.109375 -0.3125,0.703125 -0.3125,1.859375 0,1.5 0.48438,2.765625 0.5,1.265625 1.26562,2.328125 0.76563,1.046875 1.6875,1.9375 0.9375,0.890625 1.79688,1.640625 l -1.5625,1.78125 q -0.14063,-0.0781 -0.67188,-0.453125 Q 108.67188,99.53125 107.96875,98.875 107.28125,98.21875 106.5,97.28125 105.73438,96.34375 105.07813,95.171875 104.4375,93.984375 104,92.5625 103.57813,91.140625 103.57813,89.5 q 0,-1.625 0.45312,-2.6875 0.46875,-1.078125 1.3125,-1.703125 0.84375,-0.640625 2.04688,-0.890625 1.20312,-0.25 2.6875,-0.25 h 5.75 V 79 h -14.84375 v -2.296875 h 20.67187 z m 21.64062,0 h -3.28125 v 21 h -2.59375 v -6.578125 l -0.0625,-0.04687 q -0.85937,0.78125 -1.6875,1.234375 -0.8125,0.4375 -1.53125,0.671875 -0.70312,0.21875 -1.28125,0.28125 -0.57812,0.0625 -0.95312,0.0625 -1.4375,0 -2.54688,-0.453125 -1.10937,-0.453125 -1.85937,-1.1875 -0.75,-0.75 -1.14062,-1.703125 -0.39063,-0.96875 -0.39063,-2 0,-1.078125 0.4375,-2.140625 0.45313,-1.0625 1.40625,-1.90625 l -0.0156,-0.0625 h -4.95313 V 83.875 h 12.5625 v 2.296875 h -1.60938 q -1.60937,0 -2.64062,0.421875 -1.03125,0.421875 -1.625,1.03125 -0.59375,0.609375 -0.82813,1.3125 -0.21875,0.6875 -0.21875,1.25 0,0.46875 0.15625,1.015625 0.15625,0.53125 0.51563,0.984375 0.375,0.453125 0.98437,0.75 0.625,0.296875 1.5625,0.296875 0.98438,0 1.82813,-0.3125 0.85937,-0.328125 1.57812,-0.84375 0.71875,-0.515625 1.29688,-1.15625 Q 137,90.265625 137.42187,89.625 V 79 H 120.5625 v -2.296875 h 22.73437 z m 8.3125,0 h -3.28125 v 21 h -2.5625 V 79 h -3.5625 v -2.296875 h 9.40625 z M 173.25,79 h -3.28125 v 21 H 167.375 V 93.421875 L 167.3125,93.375 q -0.85938,0.78125 -1.6875,1.234375 -0.8125,0.4375 -1.53125,0.671875 -0.70313,0.21875 -1.28125,0.28125 -0.57813,0.0625 -0.95313,0.0625 -1.4375,0 -2.54687,-0.453125 -1.10938,-0.453125 -1.85938,-1.1875 -0.75,-0.75 -1.14062,-1.703125 -0.39063,-0.96875 -0.39063,-2 0,-1.078125 0.4375,-2.140625 0.45313,-1.0625 1.40625,-1.90625 l -0.0156,-0.0625 h -4.95313 V 83.875 h 12.5625 v 2.296875 H 163.75 q -1.60938,0 -2.64063,0.421875 -1.03125,0.421875 -1.625,1.03125 -0.59375,0.609375 -0.82812,1.3125 -0.21875,0.6875 -0.21875,1.25 0,0.46875 0.15625,1.015625 0.15625,0.53125 0.51562,0.984375 0.375,0.453125 0.98438,0.75 0.625,0.296875 1.5625,0.296875 0.98437,0 1.82812,-0.3125 0.85938,-0.328125 1.57813,-0.84375 0.71875,-0.515625 1.29687,-1.15625 0.59375,-0.65625 1.01563,-1.296875 V 79 H 150.51562 V 76.703125 H 173.25 Z m 19.67187,16.59375 q 0.51563,-0.15625 1.01563,-0.390625 0.51562,-0.234375 0.90625,-0.5625 0.40625,-0.34375 0.65625,-0.796875 0.25,-0.453125 0.25,-1.0625 0,-1.296875 -1.07813,-2.015625 -1.07812,-0.734375 -3.0625,-0.734375 -0.79687,0 -1.64062,0.171875 -0.82813,0.15625 -1.51563,0.59375 -0.6875,0.421875 -1.125,1.171875 -0.4375,0.734375 -0.4375,1.875 0,1.15625 0.45313,2.15625 0.45312,0.984375 1.17187,1.8125 0.73438,0.828125 1.64063,1.5 0.90625,0.671875 1.79687,1.1875 0.90625,0.51563 1.70313,0.85938 0.79687,0.35937 1.32812,0.5625 l -1.03125,2.15625 q -1.09375,-0.46875 -2.23437,-1.03125 -1.125,-0.54688 -2.1875,-1.21875 -1.0625,-0.65625 -2,-1.45313 -0.9375,-0.796875 -1.64063,-1.765625 -0.6875,-0.96875 -1.09375,-2.125 -0.39062,-1.15625 -0.39062,-2.515625 0,-1.328125 0.34375,-2.3125 0.35937,-1 0.98437,-1.75 -0.85937,-0.984375 -1.26562,-1.984375 -0.40625,-1 -0.40625,-2.171875 0,-0.671875 0.15625,-1.265625 0.17187,-0.59375 0.59375,-1.03125 Q 185.25,83 186.01562,82.734375 186.78125,82.46875 188,82.46875 h 7.07812 V 79 h -14.15625 v -2.296875 h 20.35938 V 79 h -3.64063 v 5.75 h -8.98437 q -0.60938,0 -1.03125,0.109375 -0.40625,0.09375 -0.65625,0.296875 -0.25,0.203125 -0.35938,0.515625 -0.0937,0.296875 -0.0937,0.703125 0,0.546875 0.1875,1.0625 0.1875,0.515625 0.70313,1.15625 0.90625,-0.46875 1.98437,-0.6875 1.09375,-0.234375 2.28125,-0.234375 1.375,0 2.5625,0.3125 1.20313,0.3125 2.07813,0.953125 0.89062,0.625 1.39062,1.609375 0.51563,0.96875 0.51563,2.28125 0,1.265625 -0.4375,2.140625 -0.42188,0.875 -1.07813,1.46875 -0.64062,0.59375 -1.40625,0.96875 Q 194.53125,97.765625 193.875,98 Z M 209.59375,79 h -3.28125 v 21 H 203.75 V 79 h -3.5625 v -2.296875 h 9.40625 z m 28.04687,20.65625 q -0.71875,0.265625 -1.76562,0.45313 -1.04688,0.1875 -2.375,0.1875 -2.48438,0 -4.4375,-0.85938 -1.95313,-0.859375 -3.625,-2.515625 -1.65625,-1.65625 -3.17188,-4.09375 -1.5,-2.4375 -3.09375,-5.578125 L 221.25,86.0625 q 0.59375,1.125 1.10937,1.609375 0.53125,0.46875 1.17188,0.46875 0.53125,0 0.92187,-0.296875 0.40625,-0.296875 0.65625,-0.765625 0.26563,-0.484375 0.39063,-1.09375 0.14062,-0.609375 0.14062,-1.21875 0,-0.703125 -0.15625,-1.46875 -0.15625,-0.765625 -0.42187,-1.515625 -0.26563,-0.75 -0.625,-1.453125 -0.34375,-0.71875 -0.73438,-1.3125 V 79 h -6.4375 v -2.296875 h 28.15625 V 79 h -3.28125 v 21 h -2.5625 v -7.59375 l -0.0625,-0.01563 q -0.85937,0.84375 -1.90625,1.25 -1.04687,0.40625 -2.07812,0.40625 -1.28125,0 -2.35938,-0.53125 -1.07812,-0.53125 -1.85937,-1.40625 -0.78125,-0.875 -1.21875,-2 -0.4375,-1.125 -0.4375,-2.328125 0,-1.140625 0.39062,-2.203125 0.40625,-1.0625 1.10938,-1.875 0.71875,-0.828125 1.6875,-1.3125 0.98437,-0.484375 2.15625,-0.484375 0.67187,0 1.28125,0.15625 0.60937,0.15625 1.17187,0.4375 0.5625,0.28125 1.07813,0.671875 0.51562,0.375 0.98437,0.8125 l 0.0625,-0.01563 V 79 H 226.4375 q 0.79687,1.515625 1.25,2.96875 0.45312,1.4375 0.45312,2.90625 0,1 -0.25,1.984375 -0.25,0.984375 -0.78125,1.78125 -0.51562,0.796875 -1.32812,1.328125 -0.8125,0.53125 -1.9375,0.625 v 0.07813 q 1.07812,2.109375 2.25,3.484375 1.1875,1.359375 2.40625,2.15625 1.21875,0.796875 2.4375,1.109375 1.23437,0.3125 2.40625,0.3125 1.32812,0 2.39062,-0.265625 1.0625,-0.28125 1.90625,-0.625 z m 1.95313,-12.765625 q -0.28125,-0.359375 -0.70313,-0.8125 -0.40625,-0.46875 -0.9375,-0.875 -0.51562,-0.40625 -1.15625,-0.671875 -0.625,-0.28125 -1.35937,-0.28125 -0.75,0 -1.35938,0.3125 -0.59375,0.296875 -1.03125,0.796875 -0.4375,0.5 -0.67187,1.171875 -0.23438,0.65625 -0.23438,1.375 0,0.75 0.25,1.4375 0.25,0.671875 0.6875,1.1875 0.45313,0.515625 1.07813,0.828125 0.625,0.296875 1.375,0.296875 0.57812,0 1.28125,-0.21875 0.71875,-0.21875 1.32812,-0.71875 0.625,-0.5 1.03125,-1.328125 0.42188,-0.828125 0.42188,-2.046875 z m 2.32812,-9.75 h -2.26562 l -1.42188,-2.671875 q -0.90625,-1.703125 -1.64062,-2.703125 -0.75,-1 -1.40625,-1.515625 -0.67188,-0.53125 -1.3125,-0.671875 -0.64063,-0.15625 -1.34375,-0.15625 H 229.5 v -2.53125 h 2.85937 q 0.90625,0 1.64063,0.15625 0.73437,0.140625 1.40625,0.53125 0.65625,0.375 1.29687,1.0625 0.625,0.671875 1.34375,1.75 0.71875,1.0625 1.57813,2.5625 0.84375,1.484375 1.9375,3.515625 z M 252.9375,96.46875 q -1.39063,0 -2.53125,-0.515625 -1.14063,-0.515625 -1.96875,-1.421875 -0.8125,-0.921875 -1.26563,-2.15625 -0.45312,-1.25 -0.45312,-2.6875 0,-1.5625 0.48437,-2.8125 0.48438,-1.265625 1.32813,-2.15625 0.85937,-0.890625 2,-1.359375 1.15625,-0.484375 2.48437,-0.484375 1.70313,0 3.21875,0.8125 1.51563,0.796875 3.03125,2.359375 0.70313,-1.09375 1.64063,-1.890625 0.9375,-0.8125 2.3125,-1.0625 V 79 h -18.89063 v -2.296875 h 29.26563 V 79 h -7.82813 v 4.171875 q 1.04688,0.25 1.89063,0.828125 0.84375,0.578125 1.42187,1.390625 0.59375,0.8125 0.90625,1.828125 0.32813,1 0.32813,2.109375 0,1.625 -0.5625,2.953125 -0.54688,1.328125 -1.48438,2.296875 -0.92187,0.953125 -2.10937,1.484375 -1.1875,0.515625 -2.45313,0.515625 -1.64062,0 -3.0625,-0.765625 -1.42187,-0.765625 -2.8125,-2.109375 -0.40625,0.59375 -0.90625,1.109375 -0.48437,0.5 -1.07812,0.875 -0.59375,0.359375 -1.3125,0.578125 -0.71875,0.203125 -1.59375,0.203125 z m 0.32812,-11.3125 q -0.9375,0 -1.6875,0.375 -0.73437,0.359375 -1.26562,0.984375 -0.53125,0.609375 -0.8125,1.453125 -0.28125,0.828125 -0.28125,1.765625 0,0.8125 0.23437,1.59375 0.23438,0.78125 0.6875,1.390625 0.46875,0.609375 1.15625,0.984375 0.6875,0.375 1.57813,0.375 1.09375,0 1.85937,-0.546875 0.78125,-0.5625 1.375,-1.453125 0.60938,-0.890625 1.10938,-2 0.5,-1.125 1.04687,-2.25 -1.1875,-1.375 -2.46875,-2.015625 -1.26562,-0.65625 -2.53125,-0.65625 z m 10.0625,9.03125 q 0.90625,0 1.71875,-0.28125 0.8125,-0.296875 1.42188,-0.875 0.625,-0.59375 0.98437,-1.46875 0.375,-0.890625 0.375,-2.09375 0,-0.765625 -0.20312,-1.515625 -0.1875,-0.75 -0.59375,-1.34375 -0.40625,-0.59375 -1.04688,-0.953125 -0.625,-0.375 -1.48437,-0.375 -0.76563,0 -1.375,0.296875 -0.60938,0.28125 -1.10938,0.78125 -0.5,0.484375 -0.92187,1.15625 -0.40625,0.65625 -0.78125,1.421875 -0.375,0.75 -0.75,1.5625 -0.35938,0.796875 -0.76563,1.578125 0.39063,0.390625 0.875,0.765625 0.5,0.375 1.0625,0.671875 0.57813,0.296875 1.23438,0.484375 0.65625,0.1875 1.35937,0.1875 z m 22.125,-8 q 0.23438,0.734375 0.54688,1.609375 0.3125,0.859375 0.73437,1.75 0.4375,0.875 0.96875,1.703125 0.54688,0.828125 1.23438,1.46875 0.70312,0.640625 1.54687,1.03125 0.84375,0.375 1.875,0.375 1.01563,0 1.71875,-0.296875 0.70313,-0.296875 1.14063,-0.796875 0.4375,-0.5 0.625,-1.171875 0.20312,-0.671875 0.20312,-1.40625 0,-1.609375 -1.17187,-2.515625 -1.15625,-0.90625 -3.35938,-0.90625 -0.26562,0 -0.53125,0.01563 -0.26562,0.01563 -0.53125,0.04687 v -2.375 q 0.125,0.01563 0.21875,0.01563 0.10938,0 0.125,0 1.09375,0 1.9375,-0.265625 0.85938,-0.28125 1.4375,-0.75 0.57813,-0.46875 0.875,-1.09375 0.29688,-0.625 0.29688,-1.3125 0,-0.625 -0.21875,-1.109375 -0.21875,-0.484375 -0.59375,-0.8125 -0.375,-0.328125 -0.89063,-0.484375 -0.51562,-0.171875 -1.125,-0.171875 -0.42187,0 -0.8125,0.0625 -0.39062,0.04687 -0.82812,0.171875 -0.4375,0.109375 -0.9375,0.296875 -0.48438,0.1875 -1.10938,0.46875 L 287.9375,77.59375 q 1.21875,-0.59375 2.34375,-0.890625 1.125,-0.3125 2.29687,-0.3125 1.125,0 2.07813,0.359375 0.96875,0.359375 1.65625,1 0.70312,0.625 1.09375,1.5 0.39062,0.875 0.39062,1.890625 0,2.796875 -2.67187,4.5 v 0.0625 q 1.04687,0.4375 1.75,1.078125 0.45312,0.07813 0.95312,0.125 0.51563,0.04687 0.9375,0.04687 0.4375,0 0.92188,-0.0625 0.48437,-0.0625 0.98437,-0.234375 0.51563,-0.171875 1.03125,-0.484375 0.53125,-0.3125 1.0625,-0.8125 v -8.65625 h 5.84375 V 79 h -3.28125 v 21 h -2.5625 V 88.125 l -0.0625,-0.01563 q -0.89062,0.59375 -1.67187,0.78125 -0.78125,0.1875 -1.60938,0.1875 -0.26562,0 -0.54687,-0.01563 Q 298.59375,89.03125 298.29687,89 l -0.0156,0.0625 q 0.25,0.640625 0.25,1.578125 0,1.265625 -0.42188,2.34375 -0.42187,1.078125 -1.21875,1.875 -0.78125,0.78125 -1.90625,1.21875 -1.10937,0.4375 -2.5,0.4375 -1.48437,0 -2.6875,-0.515625 -1.1875,-0.53125 -2.15625,-1.359375 Q 286.6875,93.8125 285.96875,92.78125 285.25,91.734375 284.73437,90.6875 284.21875,89.640625 283.89062,88.703125 283.5625,87.75 283.40625,87.125 Z M 328.53125,79 h -5.29688 v 6.859375 h -5.26562 q -2.45313,0 -3.70313,1.21875 -1.25,1.203125 -1.25,3.46875 0,1.28125 0.40625,2.265625 0.42188,0.984375 1.14063,1.65625 0.73437,0.65625 1.73437,1 1,0.34375 2.17188,0.34375 1.23437,0 1.98437,-0.375 -0.0625,-0.390625 -0.0937,-0.6875 -0.0312,-0.296875 -0.0312,-0.59375 0,-0.65625 0.15625,-1.34375 0.17188,-0.703125 0.5,-1.265625 0.34375,-0.578125 0.85938,-0.9375 Q 322.375,90.25 323.10937,90.25 q 0.45313,0 0.85938,0.15625 0.40625,0.15625 0.70312,0.484375 0.3125,0.3125 0.48438,0.796875 0.1875,0.484375 0.1875,1.125 0,0.640625 -0.17188,1.1875 -0.17187,0.53125 -0.45312,1 -0.26563,0.453125 -0.60938,0.859375 -0.34375,0.390625 -0.67187,0.71875 0.34375,0.75 0.71875,1.34375 0.39062,0.59375 0.79687,1.0625 0.42188,0.46875 0.84375,0.84375 0.42188,0.375005 0.84375,0.703125 l -1.92187,2.01563 q -0.82813,-0.73438 -1.42188,-1.46875 -0.57812,-0.71875 -0.98437,-1.35938 -0.39063,-0.640625 -0.64063,-1.15625 -0.25,-0.515625 -0.40625,-0.828125 -1.07812,0.421875 -2.65625,0.421875 -2.03125,0 -3.54687,-0.65625 -1.51563,-0.671875 -2.53125,-1.78125 -1,-1.125 -1.5,-2.5625 -0.5,-1.4375 -0.5,-2.984375 0,-1.609375 0.51562,-2.828125 0.51563,-1.234375 1.4375,-2.0625 0.92188,-0.84375 2.1875,-1.265625 1.28125,-0.4375 2.79688,-0.4375 h 3.20312 V 79 h -13.15625 v -2.296875 h 21.01563 z m -5.32813,29.01563 -6.21875,-5.79688 1.53125,-1.71875 6.26563,5.75 z M 351.46875,79 h -3.28125 v 21 h -2.5625 v -8.765625 h -8.20313 v 2.234375 q 0,0.234375 -0.0469,0.5 -0.0312,0.265625 -0.15625,0.5 -0.10938,0.21875 -0.3125,0.375 -0.1875,0.140625 -0.48438,0.140625 -0.35937,0 -0.85937,-0.21875 -0.48438,-0.234375 -1.01563,-0.609375 -0.51562,-0.390625 -1.03125,-0.875 -0.5,-0.5 -0.90625,-1.03125 -0.39062,-0.53125 -0.64062,-1.0625 -0.25,-0.53125 -0.25,-0.984375 0,-0.65625 0.46875,-0.953125 0.46875,-0.296875 1.23437,-0.296875 h 1.51563 V 80.375 q 0,-0.8125 -0.39063,-1.234375 -0.39062,-0.4375 -0.98437,-0.4375 -0.65625,0 -1.10938,0.484375 -0.4375,0.484375 -0.4375,1.234375 0,0.140625 0.0312,0.34375 0.0312,0.203125 0.15625,0.46875 0.125,0.25 0.375,0.578125 0.25,0.3125 0.67188,0.671875 l -1.39063,1.703125 q -0.71875,-0.390625 -1.17187,-0.859375 -0.45313,-0.484375 -0.70313,-0.984375 -0.25,-0.5 -0.34375,-0.96875 -0.0937,-0.484375 -0.0937,-0.890625 0,-0.75 0.25,-1.46875 0.26563,-0.734375 0.78125,-1.3125 0.51563,-0.59375 1.28125,-0.953125 0.78125,-0.359375 1.8125,-0.359375 0.90625,0 1.60938,0.296875 0.70312,0.296875 1.17187,0.859375 0.48438,0.546875 0.71875,1.328125 0.25,0.765625 0.25,1.71875 v 8.359375 h 8.20313 v -12.25 h 5.84375 z m -8.90625,21.46875 q 1,-0.625 2.21875,-0.96875 1.20312,-0.34375 2.29687,-0.34375 0.95313,0 1.78125,0.28125 0.8125,0.265625 1.42188,0.78125 0.60937,0.53125 0.95312,1.28125 0.34375,0.75 0.34375,1.6875 0,1 -0.40625,1.875 -0.39062,0.875 -1.1875,1.53125 -0.79687,0.65625 -1.96875,1.03125 -1.17187,0.39063 -2.71875,0.39063 -1.76562,0 -3.15625,-0.48438 -1.40625,-0.46875 -2.51562,-1.20312 -1.10938,-0.71875 -1.95313,-1.59375 -0.84375,-0.875 -1.48437,-1.65625 l 1.45312,-1.70313 q 0.89063,0.96875 1.70313,1.75 0.8125,0.78125 1.6875,1.32813 0.875,0.5625 1.89062,0.85937 1,0.29688 2.26563,0.29688 1.07812,0 1.84375,-0.21875 0.75,-0.20313 1.23437,-0.54688 0.48438,-0.32812 0.70313,-0.76562 0.21875,-0.42188 0.21875,-0.85938 0,-0.79687 -0.59375,-1.26562 -0.60938,-0.46875 -1.64063,-0.46875 -0.67187,0 -1.54687,0.23437 -0.89063,0.23438 -1.79688,0.78125 z M 371.04687,79 h -3.28125 v 21 h -2.54687 V 86.28125 h -5.07813 q -1.04687,0 -1.89062,0.140625 -0.84375,0.125 -1.4375,0.53125 -0.59375,0.390625 -0.92188,1.109375 -0.3125,0.703125 -0.3125,1.859375 0,1.5 0.48438,2.765625 0.5,1.265625 1.26562,2.328125 0.76563,1.046875 1.6875,1.9375 0.9375,0.890625 1.79688,1.640625 L 359.25,100.375 q -0.14063,-0.0781 -0.67188,-0.453125 -0.51562,-0.390625 -1.21875,-1.046875 -0.6875,-0.65625 -1.46875,-1.59375 -0.76562,-0.9375 -1.42187,-2.109375 -0.64063,-1.1875 -1.07813,-2.609375 -0.42187,-1.421875 -0.42187,-3.0625 0,-1.625 0.45312,-2.6875 0.46875,-1.078125 1.3125,-1.703125 0.84375,-0.640625 2.04688,-0.890625 1.20312,-0.25 2.6875,-0.25 h 5.75 V 79 H 350.375 v -2.296875 h 20.67187 z m 4.39063,17.4375 -2.5,7.6875 h -1.82813 l 1.82813,-7.6875 z"
         id="path4" />
      <path
         d="m 72.1875,129 h -3.28125 v 21 H 66.3125 v -6.57813 L 66.25,143.375 q -0.859375,0.78125 -1.6875,1.23437 -0.8125,0.4375 -1.53125,0.67188 -0.703125,0.21875 -1.28125,0.28125 -0.578125,0.0625 -0.953125,0.0625 -1.4375,0 -2.546875,-0.45313 -1.109375,-0.45312 -1.859375,-1.1875 -0.75,-0.75 -1.140625,-1.70312 -0.390625,-0.96875 -0.390625,-2 0,-1.07813 0.4375,-2.14063 0.453125,-1.0625 1.40625,-1.90625 l -0.01563,-0.0625 H 51.734375 V 133.875 h 12.5625 v 2.29687 H 62.6875 q -1.609375,0 -2.640625,0.42188 -1.03125,0.42187 -1.625,1.03125 -0.59375,0.60937 -0.828125,1.3125 -0.21875,0.6875 -0.21875,1.25 0,0.46875 0.15625,1.01562 0.15625,0.53125 0.515625,0.98438 0.375,0.45312 0.984375,0.75 0.625,0.29687 1.5625,0.29687 0.984375,0 1.828125,-0.3125 0.859375,-0.32812 1.578125,-0.84375 0.71875,-0.51562 1.296875,-1.15625 0.59375,-0.65625 1.015625,-1.29687 V 129 H 49.453125 v -2.29687 H 72.1875 Z m -3.5,-1.85937 H 66.421875 L 65,124.46875 q -0.90625,-1.70312 -1.640625,-2.70312 -0.75,-1 -1.40625,-1.51563 -0.671875,-0.53125 -1.3125,-0.67187 Q 60,119.42188 59.296875,119.42188 h -3.03125 v -2.53125 H 59.125 q 0.90625,0 1.640625,0.15625 0.734375,0.14062 1.40625,0.53125 0.65625,0.375 1.296875,1.0625 0.625,0.67187 1.34375,1.75 0.71875,1.0625 1.578125,2.5625 0.84375,1.48437 1.9375,3.51562 z m -0.328125,-5.20313 q 0,-0.89062 0.53125,-1.4375 0.515625,-0.5625 1.359375,-0.5625 0.390625,0 0.734375,0.15625 0.359375,0.15625 0.625,0.4375 0.265625,0.26563 0.40625,0.64063 0.15625,0.35937 0.15625,0.79687 0,0.89063 -0.53125,1.4375 -0.515625,0.54688 -1.359375,0.54688 -0.40625,0 -0.75,-0.14063 -0.359375,-0.15625 -0.609375,-0.42187 -0.265625,-0.28125 -0.40625,-0.64063 -0.15625,-0.375 -0.15625,-0.8125 z M 95.078125,129 h -4.65625 v 5.76562 H 82.59375 q -1.15625,0 -1.609375,0.32813 -0.4375,0.32812 -0.4375,1.0625 0,0.375 0.09375,0.78125 0.09375,0.40625 0.34375,0.76562 0.25,0.34375 0.671875,0.57813 0.4375,0.21875 1.109375,0.21875 H 87.1875 q 1.375,0 2.3125,0.375 0.953125,0.375 1.515625,1.03125 0.578125,0.65625 0.828125,1.54687 0.25,0.89063 0.25,1.90625 0,1.39063 -0.46875,2.65625 -0.453125,1.26563 -1.359375,2.23438 -0.90625,0.96875 -2.265625,1.54687 -1.34375,0.57813 -3.140625,0.57813 -1.953125,0 -3.75,-0.71875 -1.78125,-0.73438 -3.28125,-2.03125 -1.484375,-1.29688 -2.625,-3.07813 -1.125,-1.78125 -1.765625,-3.90625 l 2.171875,-0.85937 q 0.546875,1.60937 1.453125,3.09375 0.90625,1.48437 2.09375,2.625 1.203125,1.14062 2.640625,1.82812 1.4375,0.67188 3.03125,0.67188 1.125,0 2,-0.32813 0.890625,-0.32812 1.515625,-0.9375 0.625,-0.60937 0.953125,-1.45312 0.328125,-0.85938 0.328125,-1.92188 0,-0.75 -0.171875,-1.21875 -0.171875,-0.48437 -0.546875,-0.75 -0.359375,-0.26562 -0.921875,-0.35937 -0.5625,-0.10938 -1.34375,-0.10938 h -4.09375 q -1.15625,0 -2,-0.5 -0.84375,-0.5 -1.40625,-1.26562 -0.546875,-0.76563 -0.8125,-1.6875 -0.265625,-0.9375 -0.265625,-1.79688 0,-0.92187 0.296875,-1.53125 0.296875,-0.625 0.8125,-0.98437 0.515625,-0.375 1.21875,-0.53125 0.71875,-0.15625 1.546875,-0.15625 h 5.921875 V 129 H 71.09375 v -2.29687 h 23.984375 z m -2.78125,29 Q 91.5,156.6875 90.65625,155.5 q -0.84375,-1.17188 -1.796875,-2.04688 -0.953125,-0.875 -2.046875,-1.39062 -1.109375,-0.51563 -2.421875,-0.51563 -0.796875,0 -1.40625,0.1875 -0.625,0.1875 -1.046875,0.5 -0.421875,0.3125 -0.640625,0.71875 -0.21875,0.42188 -0.21875,0.85938 0,0.84375 0.6875,1.34375 0.671875,0.5 1.84375,0.5 1.09375,0 2.265625,-0.4375 l 0.546875,2.25 Q 85.75,157.73437 85.0625,157.85937 84.359375,158 83.6875,158 q -1,0 -1.890625,-0.28125 -0.90625,-0.28125 -1.578125,-0.82813 -0.6875,-0.53125 -1.078125,-1.34375 -0.40625,-0.79687 -0.40625,-1.82812 0,-1.14063 0.484375,-2 0.46875,-0.84375 1.25,-1.40625 Q 81.25,149.76562 82.25,149.5 q 1,-0.28125 2.03125,-0.28125 1.328125,0 2.5,0.40625 1.15625,0.40625 2.15625,1.0625 1,0.67187 1.828125,1.5 0.828125,0.84375 1.484375,1.70312 0.671875,0.85938 1.171875,1.67188 0.515625,0.8125 0.859375,1.42187 z m 33.093755,-29 h -3.28125 v 21 h -2.5625 v -8.76563 h -8.59375 v 1.85938 q 0,0.48437 -0.0469,0.85937 -0.0312,0.375 -0.17187,0.625 -0.125,0.25 -0.375,0.39063 -0.23438,0.125 -0.64063,0.125 -0.40625,0 -0.90625,-0.23438 -0.5,-0.25 -1.01562,-0.65625 -0.51563,-0.42187 -1,-0.9375 -0.48438,-0.53125 -0.875,-1.09375 -0.375,-0.57812 -0.60938,-1.14062 -0.23437,-0.5625 -0.23437,-1.03125 0,-0.32813 0.10937,-0.53125 0.125,-0.21875 0.32813,-0.32813 0.21875,-0.10937 0.51562,-0.14062 0.29688,-0.0469 0.67188,-0.0469 h 1.6875 V 129 H 102.75 v -2.29687 h 22.64063 z m -14.4375,0 v 9.95312 h 8.59375 V 129 Z m 22.74999,0 h -3.28125 v 21 h -2.56249 v -21 h -3.5625 v -2.29687 h 9.40624 z m 15.64063,0 h -5.89063 q 0.79688,1.375 1.28125,2.8125 0.5,1.42187 0.5,2.89062 0,1.10938 -0.34375,2.14063 -0.32812,1.01562 -0.98437,1.82812 -0.64063,0.79688 -1.60938,1.3125 -0.95312,0.5 -2.20312,0.5625 l -0.0312,0.0781 q 1.40625,2.1875 3.15625,4.14062 1.75,1.9375 4.04687,3.6875 l -1.67187,1.92188 q -1.32813,-0.98438 -2.53125,-2.125 -1.1875,-1.15625 -2.25,-2.375 -1.0625,-1.23438 -1.98438,-2.48438 -0.90625,-1.26562 -1.67187,-2.45312 -0.75,-1.20313 -1.34375,-2.29688 -0.59375,-1.10937 -1.01563,-2.01562 l 2.14063,-1.15625 q 0.5625,1.21875 1.26562,1.92187 0.71875,0.6875 1.65625,0.6875 0.67188,0 1.20313,-0.34375 0.53125,-0.34375 0.89062,-0.875 0.35938,-0.54687 0.54688,-1.1875 0.1875,-0.65625 0.1875,-1.28125 0,-0.73437 -0.1875,-1.4375 -0.1875,-0.71875 -0.48438,-1.39062 -0.29687,-0.6875 -0.67187,-1.32813 -0.35938,-0.64062 -0.70313,-1.23437 h -8.03125 v -2.29687 h 16.73438 z m 19.57812,0 h -3.28125 v 21 h -2.54687 v -13.71875 h -5.07813 q -1.04687,0 -1.89062,0.14062 -0.84375,0.125 -1.4375,0.53125 -0.59375,0.39063 -0.92188,1.10938 -0.3125,0.70312 -0.3125,1.85937 0,1.5 0.48438,2.76563 0.5,1.26562 1.26562,2.32812 0.76563,1.04688 1.6875,1.9375 0.9375,0.89063 1.79688,1.64063 l -1.5625,1.78125 q -0.14063,-0.0781 -0.67188,-0.45313 -0.51562,-0.39062 -1.21875,-1.04687 -0.6875,-0.65625 -1.46875,-1.59375 -0.76562,-0.9375 -1.42187,-2.10938 -0.64063,-1.1875 -1.07813,-2.60937 -0.42187,-1.42188 -0.42187,-3.0625 0,-1.625 0.45312,-2.6875 0.46875,-1.07813 1.3125,-1.70313 0.84375,-0.64062 2.04688,-0.89062 1.20312,-0.25 2.6875,-0.25 h 5.75 V 129 H 148.25 v -2.29687 h 20.67187 z m 8.3125,0 h -3.28125 v 21 h -2.5625 v -21 h -3.5625 v -2.29687 h 9.40625 z m -3.5,-1.85937 h -2.26562 l -1.42188,-2.67188 q -0.90625,-1.70312 -1.65625,-2.70312 -0.73437,-1 -1.39062,-1.51563 -0.67188,-0.53125 -1.3125,-0.67187 -0.64063,-0.15625 -1.34375,-0.15625 h -3.03125 v -2.53125 h 2.85937 q 0.90625,0 1.64063,0.15625 0.73437,0.14062 1.40625,0.53125 0.65625,0.375 1.28125,1.0625 0.64062,0.67187 1.35937,1.75 0.71875,1.0625 1.5625,2.5625 0.85938,1.48437 1.95313,3.51562 z M 209.95312,129 h -3.28125 v 21 h -2.5625 v -13.5625 h -5.03125 l -0.0156,0.0625 q 0.1875,0.21875 0.5625,0.67187 0.375,0.4375 0.75,1.09375 0.375,0.64063 0.65625,1.46875 0.28125,0.8125 0.28125,1.76563 0,0.95312 -0.32813,1.89062 -0.3125,0.92188 -0.95312,1.67188 -0.625,0.73437 -1.59375,1.1875 -0.96875,0.45312 -2.25,0.45312 -1.26563,0 -2.32813,-0.4375 -1.04687,-0.45312 -1.92187,-1.20312 -0.85938,-0.75 -1.54688,-1.73438 -0.6875,-0.98437 -1.23437,-2.07812 -0.53125,-1.10938 -0.9375,-2.23438 -0.39063,-1.14062 -0.67188,-2.17187 -0.28125,-1.04688 -0.45312,-1.92188 -0.17188,-0.875 -0.26563,-1.45312 l 2.3125,-0.45313 q 0.51563,2.8125 1.25,4.9375 0.75,2.10938 1.65625,3.53125 0.90625,1.42188 1.95313,2.14063 1.04687,0.70312 2.1875,0.70312 0.8125,0 1.3125,-0.3125 0.5,-0.32812 0.78125,-0.78125 0.28125,-0.46875 0.375,-0.95312 0.10937,-0.5 0.10937,-0.85938 0,-0.64062 -0.26562,-1.35937 -0.25,-0.73438 -0.75,-1.45313 -0.48438,-0.73437 -1.21875,-1.40625 -0.73438,-0.67187 -1.6875,-1.21875 v -1.82812 h 9.26562 V 129 h -19.20312 v -2.29687 h 25.04687 z m 8.3125,0 h -3.28125 v 21 h -2.5625 v -21 h -3.5625 v -2.29687 h 9.40625 z m -3.5,-1.85937 H 212.5 l -1.42188,-2.67188 q -0.90625,-1.70312 -1.65625,-2.70312 -0.73437,-1 -1.39062,-1.51563 -0.67188,-0.53125 -1.3125,-0.67187 -0.64063,-0.15625 -1.34375,-0.15625 h -3.03125 v -2.53125 h 2.85937 q 0.90625,0 1.64063,0.15625 0.73437,0.14062 1.40625,0.53125 0.65625,0.375 1.28125,1.0625 0.64062,0.67187 1.35937,1.75 0.71875,1.0625 1.5625,2.5625 0.85938,1.48437 1.95313,3.51562 z m 15.35938,9.04687 q 0.23437,0.73437 0.54687,1.60937 0.3125,0.85938 0.73438,1.75 0.4375,0.875 0.96875,1.70313 0.54687,0.82812 1.23437,1.46875 0.70313,0.64062 1.54688,1.03125 0.84375,0.375 1.875,0.375 1.01562,0 1.71875,-0.29688 0.70312,-0.29687 1.14062,-0.79687 0.4375,-0.5 0.625,-1.17188 0.20313,-0.67187 0.20313,-1.40625 0,-1.60937 -1.17188,-2.51562 -1.15625,-0.90625 -3.35937,-0.90625 -0.26563,0 -0.53125,0.0156 -0.26563,0.0156 -0.53125,0.0469 v -2.375 q 0.125,0.0156 0.21875,0.0156 0.10937,0 0.125,0 1.09375,0 1.9375,-0.26562 0.85937,-0.28125 1.4375,-0.75 0.57812,-0.46875 0.875,-1.09375 0.29687,-0.625 0.29687,-1.3125 0,-0.625 -0.21875,-1.10938 -0.21875,-0.48437 -0.59375,-0.8125 -0.375,-0.32812 -0.89062,-0.48437 -0.51563,-0.17188 -1.125,-0.17188 -0.42188,0 -0.8125,0.0625 -0.39063,0.0469 -0.82813,0.17188 -0.4375,0.10937 -0.9375,0.29687 -0.48437,0.1875 -1.10937,0.46875 l -0.89063,-2.14062 q 1.21875,-0.59375 2.34375,-0.89062 1.125,-0.3125 2.29688,-0.3125 1.125,0 2.07812,0.35937 0.96875,0.35938 1.65625,1 0.70313,0.625 1.09375,1.5 0.39063,0.875 0.39063,1.89062 0,2.79688 -2.67188,4.5 v 0.0625 q 1.04688,0.4375 1.75,1.07813 0.45313,0.0781 0.95313,0.125 0.51562,0.0469 0.9375,0.0469 0.4375,0 0.92187,-0.0625 0.48438,-0.0625 0.98438,-0.23437 0.51562,-0.17188 1.03125,-0.48438 0.53125,-0.3125 1.0625,-0.8125 v -8.65624 h 5.84375 V 129 H 250 v 21 h -2.5625 v -11.875 l -0.0625,-0.0156 q -0.89063,0.59375 -1.67188,0.78125 -0.78125,0.1875 -1.60937,0.1875 -0.26563,0 -0.54688,-0.0156 -0.28125,-0.0312 -0.57812,-0.0625 l -0.0156,0.0625 q 0.25,0.64062 0.25,1.57812 0,1.26563 -0.42187,2.34375 -0.42188,1.07813 -1.21875,1.875 -0.78125,0.78125 -1.90625,1.21875 -1.10938,0.4375 -2.5,0.4375 -1.48438,0 -2.6875,-0.51562 -1.1875,-0.53125 -2.15625,-1.35938 -0.95313,-0.82812 -1.67188,-1.85937 -0.71875,-1.04688 -1.23437,-2.09375 -0.51563,-1.04688 -0.84375,-1.98438 -0.32813,-0.95312 -0.48438,-1.57812 z M 261.59375,129 h -3.28125 v 21 H 255.75 v -21 h -3.5625 v -2.29687 h 3.5625 q -0.85938,-2.0625 -0.85938,-3.84375 0,-1.14063 0.375,-2.125 0.375,-0.98438 1.14063,-1.70313 0.78125,-0.71875 1.98437,-1.125 Q 259.59375,117.5 261.25,117.5 q 2.17187,0 4.17187,0.70313 2.01563,0.70312 3.9375,1.95312 1.92188,1.25 3.79688,2.96875 1.89062,1.71875 3.8125,3.75 H 274.25 q -0.4375,-0.42187 -1.17188,-1.09375 -0.71875,-0.6875 -1.67187,-1.45312 -0.95313,-0.78125 -2.10938,-1.5625 -1.15625,-0.79688 -2.4375,-1.4375 -1.28125,-0.64063 -2.67187,-1.03125 -1.375,-0.40625 -2.78125,-0.40625 -1.14063,0 -1.92188,0.26562 -0.76562,0.26563 -1.25,0.73438 -0.46875,0.46875 -0.67187,1.10937 -0.20313,0.625 -0.20313,1.34375 0,1.40625 0.76563,3.35938 h 3.46875 z m 19.57812,0 h -3.28125 v 21 h -2.54687 v -13.71875 h -5.07813 q -1.04687,0 -1.89062,0.14062 -0.84375,0.125 -1.4375,0.53125 -0.59375,0.39063 -0.92188,1.10938 -0.3125,0.70312 -0.3125,1.85937 0,1.5 0.48438,2.76563 0.5,1.26562 1.26562,2.32812 0.76563,1.04688 1.6875,1.9375 0.9375,0.89063 1.79688,1.64063 l -1.5625,1.78125 q -0.14063,-0.0781 -0.67188,-0.45313 -0.51562,-0.39062 -1.21875,-1.04687 -0.6875,-0.65625 -1.46875,-1.59375 -0.76562,-0.9375 -1.42187,-2.10938 -0.64063,-1.1875 -1.07813,-2.60937 -0.42187,-1.42188 -0.42187,-3.0625 0,-1.625 0.45312,-2.6875 0.46875,-1.07813 1.3125,-1.70313 0.84375,-0.64062 2.04688,-0.89062 1.20312,-0.25 2.6875,-0.25 h 5.75 V 129 H 260.5 v -2.29687 h 20.67187 z m 9.59375,8.5 q -0.28125,0.0312 -0.53125,0.0625 -0.25,0.0156 -0.51562,0.0156 -1.26563,0 -2.29688,-0.45312 -1.01562,-0.45313 -1.75,-1.21875 -0.71875,-0.76563 -1.10937,-1.76563 -0.39063,-1.01562 -0.39063,-2.125 0,-0.79687 0.21875,-1.54687 0.21875,-0.75 0.6875,-1.40625 L 285.0625,129 h -4.98438 v -2.29687 h 26.125 V 129 h -3.28125 v 21 h -2.5625 v -21 h -5.89062 l -0.0156,0.0625 q 0.40625,0.40625 0.75,0.98437 0.34375,0.5625 0.57813,1.23438 0.25,0.67187 0.39062,1.40625 0.14063,0.73437 0.14063,1.48437 0,1.21875 -0.39063,2.35938 -0.375,1.14062 -1.07812,2.15625 -0.6875,1.01562 -1.67188,1.89062 -0.96875,0.85938 -2.15625,1.53125 v 0.0625 q 0.78125,0.60938 1.67188,1.46875 0.89062,0.84375 1.76562,1.76563 0.875,0.92187 1.65625,1.84375 0.78125,0.90625 1.34375,1.65625 l -1.76562,1.48437 q -0.48438,-0.60937 -1.21875,-1.48437 -0.73438,-0.89063 -1.64063,-1.84375 -0.90625,-0.96875 -1.96875,-1.92188 -1.04687,-0.96875 -2.1875,-1.75 -0.5625,0.26563 -1.1875,0.39063 -0.60937,0.125 -1.21875,0.125 -0.70312,0 -1.35937,-0.17188 -0.64063,-0.17187 -1.15625,-0.5 -0.5,-0.32812 -0.79688,-0.79687 -0.29687,-0.48438 -0.29687,-1.10938 0,-0.98437 0.71875,-1.51562 0.73437,-0.54688 1.90625,-0.54688 0.85937,0 1.73437,0.3125 0.89063,0.29688 1.73438,0.90625 0.4375,-0.0937 0.98437,-0.32812 0.54688,-0.25 1.10938,-0.625 0.57812,-0.39063 1.10937,-0.90625 0.54688,-0.53125 0.96875,-1.20313 0.42188,-0.67187 0.67188,-1.46875 0.26562,-0.8125 0.26562,-1.75 0,-0.9375 -0.28125,-1.84375 -0.26562,-0.90625 -0.79687,-1.60937 -0.53125,-0.71875 -1.32813,-1.15625 -0.79687,-0.4375 -1.84375,-0.4375 -0.82812,0 -1.375,0.26562 -0.54687,0.25 -0.89062,0.65625 -0.34375,0.40625 -0.48438,0.90625 -0.14062,0.48438 -0.14062,0.95313 0,0.60937 0.21875,1.20312 0.21875,0.57813 0.64062,1.04688 0.4375,0.45312 1.07813,0.73437 0.64062,0.28125 1.46875,0.28125 0.26562,0 0.64062,-0.0469 z m 35.34375,-8.5 h -3.28125 v 21 h -2.5625 v -7.3125 l -0.0625,-0.0156 q -0.42187,0.34375 -1.01562,0.6875 -0.57813,0.32813 -1.29688,0.59375 -0.71875,0.25 -1.54687,0.42188 -0.82813,0.15625 -1.73438,0.15625 -1.8125,0 -3.10937,-0.65625 -1.28125,-0.65625 -2.15625,-1.75 -0.85938,-1.10938 -1.35938,-2.51563 -0.5,-1.42187 -0.71875,-2.95312 1.03125,-0.14063 1.76563,-0.48438 0.73437,-0.34375 1.1875,-0.8125 0.45312,-0.48437 0.65625,-1.04687 0.21875,-0.5625 0.21875,-1.125 0,-0.375 -0.0781,-0.84375 -0.0625,-0.46875 -0.23437,-1 -0.17188,-0.54688 -0.45313,-1.14063 Q 310.04687,129.60937 309.625,129 h -4.51563 v -2.29687 h 21 z m -13.71875,0 q 0.5625,0.95312 0.875,2.09375 0.32813,1.125 0.32813,2.21875 0,0.79687 -0.21875,1.54687 -0.20313,0.75 -0.64063,1.40625 -0.4375,0.64063 -1.09375,1.15625 -0.64062,0.5 -1.5,0.79688 0.25,1.04687 0.6875,1.79687 0.4375,0.73438 1.03125,1.21875 0.59375,0.46875 1.32813,0.6875 0.73437,0.21875 1.57812,0.21875 0.8125,0 1.59375,-0.1875 0.79688,-0.1875 1.5,-0.53125 0.71875,-0.35937 1.32813,-0.85937 0.60937,-0.5 1.07812,-1.125 V 129 Z m 45.53125,-2.29687 V 129 h -3.28125 v 21 h -2.59375 V 139.5 H 343 q -0.82813,0.54687 -1.98438,0.65625 l -0.0312,0.0781 q 1.51563,2.375 3.32813,4.42188 1.8125,2.04687 4.125,3.79687 l -1.67188,1.92188 q -1.32812,-0.98438 -2.53125,-2.125 -1.1875,-1.14063 -2.25,-2.35938 -1.04687,-1.23437 -1.96875,-2.48437 -0.92187,-1.26563 -1.6875,-2.48438 -0.76562,-1.21875 -1.375,-2.34375 -0.60937,-1.14062 -1.0625,-2.10937 l 2.14063,-1.15625 q 0.29687,0.6875 0.57812,1.15625 0.29688,0.45312 0.59375,0.73437 0.29688,0.26563 0.625,0.39063 0.32813,0.10937 0.70313,0.10937 1.07812,0 1.57812,-0.84375 0.51563,-0.84375 0.51563,-2.21875 0,-0.8125 -0.15625,-1.59375 -0.15625,-0.79687 -0.40625,-1.51562 -0.23438,-0.73438 -0.51563,-1.375 -0.28125,-0.64063 -0.53125,-1.15625 h -7.23437 v -2.29687 z M 352.04687,129 h -8.32812 q 0.65625,1.42187 1.03125,2.85937 0.375,1.4375 0.375,2.85938 0,0.65625 -0.10938,1.29687 -0.0937,0.625 -0.32812,1.1875 l 0.0312,0.0312 h 7.32812 z m -3.03125,21.46875 q 1,-0.625 2.21875,-0.96875 1.20313,-0.34375 2.29688,-0.34375 0.95312,0 1.78125,0.28125 0.8125,0.26562 1.42187,0.78125 0.60938,0.53125 0.95313,1.28125 0.34375,0.75 0.34375,1.6875 0,1 -0.40625,1.875 -0.39063,0.875 -1.1875,1.53125 -0.79688,0.65625 -1.96875,1.03125 -1.17188,0.39062 -2.71875,0.39062 -1.76563,0 -3.15625,-0.48437 -1.40625,-0.46875 -2.51563,-1.20313 -1.10937,-0.71875 -1.95312,-1.59375 -0.84375,-0.875 -1.48438,-1.65625 l 1.45313,-1.70312 q 0.89062,0.96875 1.70312,1.75 0.8125,0.78125 1.6875,1.32812 0.875,0.5625 1.89063,0.85938 1,0.29687 2.26562,0.29687 1.07813,0 1.84375,-0.21875 0.75,-0.20312 1.23438,-0.54687 0.48437,-0.32813 0.70312,-0.76563 0.21875,-0.42187 0.21875,-0.85937 0,-0.79688 -0.59375,-1.26563 -0.60937,-0.46875 -1.64062,-0.46875 -0.67188,0 -1.54688,0.23438 -0.89062,0.23437 -1.79687,0.78125 z m 24.875,-3.04688 q -1.26562,0.75 -2.6875,1.125 -1.42187,0.375 -2.84375,0.375 -1.9375,0 -3.51562,-0.64062 -1.5625,-0.65625 -2.6875,-1.79688 -1.10938,-1.15625 -1.71875,-2.70312 -0.59375,-1.54688 -0.59375,-3.35938 0,-1.71875 0.53125,-3 0.54687,-1.28125 1.48437,-2.125 0.9375,-0.85937 2.20313,-1.28125 1.28125,-0.42187 2.75,-0.42187 h 3.04687 V 129 h -13.03125 v -2.29687 h 20 V 129 h -4.40625 v 6.875 H 367.375 q -1.125,0 -2.0625,0.3125 -0.92188,0.3125 -1.59375,0.92187 -0.65625,0.60938 -1.03125,1.51563 -0.35938,0.89062 -0.35938,2.07812 0,1.29688 0.42188,2.35938 0.4375,1.0625 1.20312,1.82812 0.78125,0.76563 1.84375,1.1875 1.07813,0.42188 2.35938,0.42188 0.76562,0 1.54687,-0.15625 0.78125,-0.15625 1.51563,-0.42188 0.73437,-0.26562 1.40625,-0.60937 0.6875,-0.34375 1.26562,-0.73438 z M 399.875,126.70313 V 129 h -3.28125 v 21 H 394 v -10.5 h -9.04688 q -0.82812,0.54687 -1.98437,0.65625 l -0.0312,0.0781 q 1.51562,2.375 3.32812,4.42188 1.8125,2.04687 4.125,3.79687 l -1.67187,1.92188 q -1.32813,-0.98438 -2.53125,-2.125 -1.1875,-1.14063 -2.25,-2.35938 -1.04688,-1.23437 -1.96875,-2.48437 -0.92188,-1.26563 -1.6875,-2.48438 -0.76563,-1.21875 -1.375,-2.34375 -0.60938,-1.14062 -1.0625,-2.10937 l 2.14062,-1.15625 q 0.29688,0.6875 0.57813,1.15625 0.29687,0.45312 0.59375,0.73437 0.29687,0.26563 0.625,0.39063 0.32812,0.10937 0.70312,0.10937 1.07813,0 1.57813,-0.84375 0.51562,-0.84375 0.51562,-2.21875 0,-0.8125 -0.15625,-1.59375 -0.15625,-0.79687 -0.40625,-1.51562 -0.23437,-0.73438 -0.51562,-1.375 -0.28125,-0.64063 -0.53125,-1.15625 h -7.23438 v -2.29687 z M 394,129 h -8.32813 q 0.65625,1.42187 1.03125,2.85937 0.375,1.4375 0.375,2.85938 0,0.65625 -0.10937,1.29687 -0.0937,0.625 -0.32813,1.1875 l 0.0312,0.0312 H 394 Z m -3.03125,21.46875 q 1,-0.625 2.21875,-0.96875 1.20312,-0.34375 2.29687,-0.34375 0.95313,0 1.78125,0.28125 0.8125,0.26562 1.42188,0.78125 0.60937,0.53125 0.95312,1.28125 0.34375,0.75 0.34375,1.6875 0,1 -0.40625,1.875 -0.39062,0.875 -1.1875,1.53125 -0.79687,0.65625 -1.96875,1.03125 -1.17187,0.39062 -2.71875,0.39062 -1.76562,0 -3.15625,-0.48437 -1.40625,-0.46875 -2.51562,-1.20313 -1.10938,-0.71875 -1.95313,-1.59375 -0.84375,-0.875 -1.48437,-1.65625 l 1.45312,-1.70312 q 0.89063,0.96875 1.70313,1.75 0.8125,0.78125 1.6875,1.32812 0.875,0.5625 1.89062,0.85938 1,0.29687 2.26563,0.29687 1.07812,0 1.84375,-0.21875 0.75,-0.20312 1.23437,-0.54687 0.48438,-0.32813 0.70313,-0.76563 0.21875,-0.42187 0.21875,-0.85937 0,-0.79688 -0.59375,-1.26563 -0.60938,-0.46875 -1.64063,-0.46875 -0.67187,0 -1.54687,0.23438 -0.89063,0.23437 -1.79688,0.78125 z m 24.875,-3.04688 q -1.26563,0.75 -2.6875,1.125 -1.42188,0.375 -2.84375,0.375 -1.9375,0 -3.51563,-0.64062 -1.5625,-0.65625 -2.6875,-1.79688 -1.10937,-1.15625 -1.71875,-2.70312 -0.59375,-1.54688 -0.59375,-3.35938 0,-1.71875 0.53125,-3 0.54688,-1.28125 1.48438,-2.125 0.9375,-0.85937 2.20312,-1.28125 1.28125,-0.42187 2.75,-0.42187 h 3.04688 V 129 h -13.03125 v -2.29687 h 20 V 129 H 414.375 v 6.875 h -5.04688 q -1.125,0 -2.0625,0.3125 -0.92187,0.3125 -1.59375,0.92187 -0.65625,0.60938 -1.03125,1.51563 -0.35937,0.89062 -0.35937,2.07812 0,1.29688 0.42187,2.35938 0.4375,1.0625 1.20313,1.82812 0.78125,0.76563 1.84375,1.1875 1.07812,0.42188 2.35937,0.42188 0.76563,0 1.54688,-0.15625 0.78125,-0.15625 1.51562,-0.42188 0.73438,-0.26562 1.40625,-0.60937 0.6875,-0.34375 1.26563,-0.73438 z m 5.875,2.92188 q -0.71875,0 -1.23438,-0.51563 -0.5,-0.51562 -0.5,-1.23437 0,-0.71875 0.5,-1.23438 0.51563,-0.53125 1.23438,-0.53125 0.73437,0 1.25,0.53125 0.51562,0.51563 0.51562,1.23438 0,0.71875 -0.51562,1.23437 -0.51563,0.51563 -1.25,0.51563 z"
         id="path5" />
      <path
         d="m 58.859375,179 h -3.28125 v 21 h -2.5625 v -21 h -3.5625 v -2.29688 h 3.5625 q -0.859375,-2.0625 -0.859375,-3.84375 0,-1.14062 0.375,-2.125 0.375,-0.98437 1.140625,-1.70312 0.78125,-0.71875 1.984375,-1.125 1.203125,-0.40625 2.859375,-0.40625 2.171875,0 4.171875,0.70312 2.015625,0.70313 3.9375,1.95313 1.921875,1.25 3.796875,2.96875 1.890625,1.71875 3.8125,3.75 h -2.71875 q -0.4375,-0.42188 -1.171875,-1.09375 -0.71875,-0.6875 -1.671875,-1.45313 -0.953125,-0.78125 -2.109375,-1.5625 -1.15625,-0.79687 -2.4375,-1.4375 -1.28125,-0.64062 -2.671875,-1.03125 -1.375,-0.40625 -2.78125,-0.40625 -1.140625,0 -1.921875,0.26563 -0.765625,0.26562 -1.25,0.73437 -0.46875,0.46875 -0.671875,1.10938 -0.203125,0.625 -0.203125,1.34375 0,1.40625 0.765625,3.35937 h 3.46875 z m 27.625,0 H 73.28125 v 6.15625 l 0.07813,0.0312 q 0.796875,-1.09375 1.984375,-1.75 1.1875,-0.67188 2.609375,-0.67188 1.125,0 2.078125,0.46875 Q 81,183.6875 81.703125,184.5 q 0.703125,0.79687 1.09375,1.89062 0.40625,1.09375 0.40625,2.35938 0,1.4375 -0.5,2.65625 -0.5,1.20312 -1.28125,2.1875 -0.78125,0.98437 -1.765625,1.75 -0.984375,0.75 -1.9375,1.28125 l -1.390625,-2.40625 q 0.3125,-0.17188 0.765625,-0.45313 0.453125,-0.28125 0.9375,-0.65625 0.5,-0.375 0.96875,-0.84375 0.484375,-0.48437 0.859375,-1.04687 0.390625,-0.5625 0.625,-1.21875 0.234375,-0.65625 0.234375,-1.39063 0,-0.67187 -0.21875,-1.28125 -0.203125,-0.60937 -0.578125,-1.0625 -0.375,-0.45312 -0.90625,-0.71875 Q 78.5,185.28125 77.875,185.28125 q -0.8125,0 -1.578125,0.42187 -0.765625,0.42188 -1.390625,1.0625 -0.625,0.625 -1.0625,1.34375 -0.421875,0.71875 -0.5625,1.32813 V 200 h -2.5625 v -5.84375 l -0.04687,-0.0156 -8.28125,6.23438 -1.515625,-1.85938 4.3125,-3.09375 -0.01563,-0.0469 q -1.125,-0.20313 -2.0625,-0.78125 -0.921875,-0.57813 -1.578125,-1.42188 -0.65625,-0.84375 -1.015625,-1.92187 -0.359375,-1.09375 -0.359375,-2.34375 0,-1.34375 0.4375,-2.48438 0.453125,-1.14062 1.21875,-1.95312 0.78125,-0.82813 1.8125,-1.28125 1.046875,-0.46875 2.25,-0.46875 0.84375,0 1.5625,0.21875 0.734375,0.20312 1.328125,0.51562 0.609375,0.29688 1.078125,0.65625 0.484375,0.34375 0.8125,0.625 l 0.0625,-0.0156 V 179 H 57.765625 v -2.29688 h 28.71875 z M 66.25,185.15625 q -0.890625,0 -1.578125,0.375 -0.671875,0.35937 -1.125,0.9375 -0.453125,0.5625 -0.6875,1.28125 -0.21875,0.70312 -0.21875,1.39062 0,0.75 0.265625,1.5 0.265625,0.73438 0.75,1.32813 0.5,0.59375 1.1875,0.96875 0.6875,0.35937 1.515625,0.35937 0.703125,0 1.46875,-0.28125 0.78125,-0.29687 1.421875,-0.90625 Q 69.90625,191.5 70.328125,190.5625 70.75,189.60937 70.75,188.29687 v -0.76562 q -0.375,-0.46875 -0.890625,-0.89063 -0.5,-0.4375 -1.09375,-0.76562 -0.578125,-0.32813 -1.21875,-0.51563 Q 66.90625,185.15625 66.25,185.15625 Z M 114.10938,179 h -13.20313 v 6.15625 l 0.0781,0.0312 q 0.79687,-1.09375 1.98437,-1.75 1.1875,-0.67188 2.60938,-0.67188 1.125,0 2.07812,0.46875 0.96875,0.45313 1.67188,1.26563 0.70312,0.79687 1.09375,1.89062 0.40625,1.09375 0.40625,2.35938 0,1.4375 -0.5,2.65625 -0.5,1.20312 -1.28125,2.1875 -0.78125,0.98437 -1.76563,1.75 -0.98437,0.75 -1.9375,1.28125 l -1.39062,-2.40625 q 0.3125,-0.17188 0.76562,-0.45313 0.45313,-0.28125 0.9375,-0.65625 0.5,-0.375 0.96875,-0.84375 0.48438,-0.48437 0.85938,-1.04687 0.39062,-0.5625 0.625,-1.21875 0.23437,-0.65625 0.23437,-1.39063 0,-0.67187 -0.21875,-1.28125 -0.20312,-0.60937 -0.57812,-1.0625 -0.375,-0.45312 -0.90625,-0.71875 -0.51563,-0.26562 -1.14063,-0.26562 -0.8125,0 -1.57812,0.42187 -0.76563,0.42188 -1.39063,1.0625 -0.625,0.625 -1.0625,1.34375 -0.42187,0.71875 -0.5625,1.32813 V 200 h -2.5625 v -5.98438 l -0.0625,-0.0312 q -0.234375,0.20313 -0.59375,0.5 -0.359375,0.28125 -0.875,0.54688 -0.5,0.26562 -1.171875,0.45312 -0.65625,0.1875 -1.484375,0.1875 -1.375,0 -2.546875,-0.53125 -1.15625,-0.53125 -2.015625,-1.4375 -0.84375,-0.92187 -1.328125,-2.15625 -0.484375,-1.23437 -0.484375,-2.64062 0,-1.34375 0.4375,-2.48438 0.453125,-1.14062 1.21875,-1.95312 0.78125,-0.82813 1.8125,-1.28125 1.046875,-0.46875 2.25,-0.46875 0.84375,0 1.5625,0.21875 0.734375,0.20312 1.328125,0.51562 Q 97,183.75 97.46875,184.10937 q 0.484375,0.34375 0.8125,0.625 l 0.0625,-0.0156 V 179 H 85.390625 v -2.29688 H 114.10938 Z M 93.875,185.15625 q -0.890625,0 -1.578125,0.375 -0.671875,0.35937 -1.125,0.9375 -0.453125,0.5625 -0.6875,1.28125 -0.21875,0.70312 -0.21875,1.39062 0,0.75 0.265625,1.5 0.265625,0.73438 0.75,1.32813 0.5,0.59375 1.1875,0.96875 0.6875,0.35937 1.515625,0.35937 0.703125,0 1.46875,-0.28125 0.78125,-0.29687 1.421875,-0.90625 Q 97.53125,191.5 97.953125,190.5625 98.375,189.60937 98.375,188.29687 v -0.76562 Q 98,187.0625 97.484375,186.64062 q -0.5,-0.4375 -1.09375,-0.76562 -0.578125,-0.32813 -1.21875,-0.51563 -0.640625,-0.20312 -1.296875,-0.20312 z m 6.8125,-8.01563 H 98.421875 L 97,174.46875 q -0.90625,-1.70313 -1.640625,-2.70313 -0.75,-1 -1.40625,-1.51562 -0.671875,-0.53125 -1.3125,-0.67188 Q 92,169.42187 91.296875,169.42187 h -3.03125 v -2.53125 H 91.125 q 0.90625,0 1.640625,0.15625 0.734375,0.14063 1.40625,0.53125 0.65625,0.375 1.296875,1.0625 0.625,0.67188 1.34375,1.75 0.71875,1.0625 1.578125,2.5625 0.84375,1.48438 1.937505,3.51563 z m 29.39062,20.28125 q -1.26562,0.75 -2.68749,1.125 -1.42188,0.375 -2.84375,0.375 -1.9375,0 -3.51563,-0.64062 -1.5625,-0.65625 -2.6875,-1.79688 -1.10937,-1.15625 -1.71875,-2.70312 -0.59375,-1.54688 -0.59375,-3.35938 0,-1.71875 0.53125,-3 0.54688,-1.28125 1.48438,-2.125 0.9375,-0.85937 2.20312,-1.28125 1.28125,-0.42187 2.75,-0.42187 h 3.04688 V 179 h -13.03125 v -2.29688 h 19.99999 V 179 h -4.40625 v 6.875 h -5.04687 q -1.125,0 -2.0625,0.3125 -0.92187,0.3125 -1.59375,0.92187 -0.65625,0.60938 -1.03125,1.51563 -0.35937,0.89062 -0.35937,2.07812 0,1.29688 0.42187,2.35938 0.4375,1.0625 1.20313,1.82812 0.78125,0.76563 1.84375,1.1875 1.07812,0.42188 2.35937,0.42188 0.76563,0 1.54688,-0.15625 0.78125,-0.15625 1.51562,-0.42188 0.73437,-0.26562 1.40625,-0.60937 0.6875,-0.34375 1.26562,-0.73438 z M 154.5625,179 h -3.28125 v 21 h -2.5625 v -8.76563 H 140.125 v 1.85938 q 0,0.48437 -0.0469,0.85937 -0.0312,0.375 -0.17187,0.625 -0.125,0.25 -0.375,0.39063 -0.23438,0.125 -0.64063,0.125 -0.40625,0 -0.90625,-0.23438 -0.5,-0.25 -1.01562,-0.65625 -0.51563,-0.42187 -1,-0.9375 -0.48438,-0.53125 -0.875,-1.09375 -0.375,-0.57812 -0.60938,-1.14062 Q 134.25,190.46875 134.25,190 q 0,-0.32813 0.10937,-0.53125 0.125,-0.21875 0.32813,-0.32813 0.21875,-0.10937 0.51562,-0.14062 0.29688,-0.0469 0.67188,-0.0469 h 1.6875 V 179 h -5.64063 v -2.29688 h 22.64063 z m -14.4375,0 v 9.95312 h 8.59375 V 179 Z m 21.51562,2.98437 q 0.17188,-0.25 0.3125,-0.625 0.15625,-0.39062 0.15625,-0.875 0,-0.4375 -0.15625,-0.76562 -0.15625,-0.32813 -0.40625,-0.53125 -0.23437,-0.20313 -0.54687,-0.29688 -0.3125,-0.10937 -0.625,-0.10937 -0.375,0 -0.75,0.15625 -0.35938,0.14062 -0.65625,0.46875 -0.28125,0.32812 -0.46875,0.84375 -0.1875,0.5 -0.1875,1.20312 0,0.76563 0.21875,1.45313 0.23437,0.67187 0.70312,1.1875 0.48438,0.5 1.20313,0.79687 0.73437,0.29688 1.75,0.29688 0.70312,0 1.29687,-0.10938 0.59375,-0.125 1.03125,-0.23437 l 0.42188,2.40625 q -0.25,0.0312 -0.67188,0.125 -0.42187,0.0781 -0.92187,0.26562 -0.48438,0.17188 -1,0.45313 -0.5,0.28125 -0.90625,0.70312 -0.40625,0.40625 -0.67188,0.96875 -0.25,0.5625 -0.25,1.3125 0,1.40625 0.875,2.20313 0.89063,0.78125 2.39063,0.78125 0.85937,0 1.65625,-0.26563 0.8125,-0.28125 1.51562,-0.78125 0.71875,-0.51562 1.32813,-1.20312 0.625,-0.70313 1.10937,-1.54688 l 0.59375,2.95313 q -0.75,0.89062 -1.51562,1.51562 -0.76563,0.60938 -1.54688,1 -0.78125,0.375 -1.5625,0.54688 -0.78125,0.17187 -1.54687,0.17187 -1.25,0 -2.3125,-0.40625 -1.0625,-0.40625 -1.84375,-1.14062 -0.76563,-0.73438 -1.20313,-1.73438 -0.42187,-1.01562 -0.42187,-2.23437 0,-1.125 0.42187,-2.0625 0.4375,-0.9375 1.51563,-1.78125 l -0.0156,-0.0625 q -1.0625,-0.28125 -1.84375,-0.85938 -0.76562,-0.57812 -1.28125,-1.32812 -0.5,-0.75 -0.75,-1.625 -0.25,-0.89063 -0.25,-1.78125 0,-1.09375 0.34375,-2.01563 0.35938,-0.92187 0.98438,-1.59375 0.64062,-0.67187 1.5,-1.04687 0.85937,-0.39063 1.89062,-0.39063 1.07813,0 1.84375,0.375 0.78125,0.375 1.26563,0.95313 0.5,0.57812 0.73437,1.28125 0.23438,0.6875 0.23438,1.3125 0,0.4375 -0.0937,0.85937 -0.0937,0.42188 -0.23438,0.79688 -0.14062,0.375 -0.3125,0.6875 -0.15625,0.3125 -0.29687,0.53125 z M 185.57812,179 h -3.28125 v 21 h -2.5625 v -7.3125 l -0.0625,-0.0156 q -0.42187,0.34375 -1.01562,0.6875 -0.57813,0.32813 -1.29688,0.59375 -0.71875,0.25 -1.54687,0.42188 -0.82813,0.15625 -1.73438,0.15625 -1.8125,0 -3.10937,-0.65625 -1.28125,-0.65625 -2.15625,-1.75 -0.85938,-1.10938 -1.35938,-2.51563 -0.5,-1.42187 -0.71875,-2.95312 1.03125,-0.14063 1.76563,-0.48438 0.73437,-0.34375 1.1875,-0.8125 0.45312,-0.48437 0.65625,-1.04687 0.21875,-0.5625 0.21875,-1.125 0,-0.375 -0.0781,-0.84375 -0.0625,-0.46875 -0.23437,-1 -0.17188,-0.54688 -0.45313,-1.14063 -0.28125,-0.59375 -0.70312,-1.20312 h -2.79688 v -2.29688 h 19.28125 z m -13.71875,0 q 0.5625,0.95312 0.875,2.09375 0.32813,1.125 0.32813,2.21875 0,0.79687 -0.21875,1.54687 -0.20313,0.75 -0.64063,1.40625 -0.4375,0.64063 -1.09375,1.15625 -0.64062,0.5 -1.5,0.79688 0.25,1.04687 0.6875,1.79687 0.4375,0.73438 1.03125,1.21875 0.59375,0.46875 1.32813,0.6875 0.73437,0.21875 1.57812,0.21875 0.8125,0 1.59375,-0.1875 0.79688,-0.1875 1.5,-0.53125 0.71875,-0.35937 1.32813,-0.85937 0.60937,-0.5 1.07812,-1.125 V 179 Z m 10.21875,-1.85938 h -2.26562 l -1.42188,-2.67187 q -0.90625,-1.70313 -1.64062,-2.70313 -0.75,-1 -1.40625,-1.51562 -0.67188,-0.53125 -1.3125,-0.67188 -0.64063,-0.15625 -1.34375,-0.15625 h -3.03125 v -2.53125 h 2.85937 q 0.90625,0 1.64063,0.15625 0.73437,0.14063 1.40625,0.53125 0.65625,0.375 1.29687,1.0625 0.625,0.67188 1.34375,1.75 0.71875,1.0625 1.57813,2.5625 0.84375,1.48438 1.9375,3.51563 z M 213.92187,179 h -3.28125 v 21 h -2.54687 v -13.71875 h -5.07813 q -1.04687,0 -1.89062,0.14062 -0.84375,0.125 -1.4375,0.53125 -0.59375,0.39063 -0.92188,1.10938 -0.3125,0.70312 -0.3125,1.85937 0,1.5 0.48438,2.76563 0.5,1.26562 1.26562,2.32812 0.76563,1.04688 1.6875,1.9375 0.9375,0.89063 1.79688,1.64063 l -1.5625,1.78125 q -0.14063,-0.0781 -0.67188,-0.45313 -0.51562,-0.39062 -1.21875,-1.04687 -0.6875,-0.65625 -1.46875,-1.59375 -0.76562,-0.9375 -1.42187,-2.10938 -0.64063,-1.1875 -1.07813,-2.60937 -0.42187,-1.42188 -0.42187,-3.0625 0,-1.625 0.45312,-2.6875 0.46875,-1.07813 1.3125,-1.70313 0.84375,-0.64062 2.04688,-0.89062 1.20312,-0.25 2.6875,-0.25 h 5.75 V 179 H 193.25 v -2.29688 h 20.67187 z m 8.3125,0 h -3.28125 v 21 h -2.5625 v -21 h -3.5625 v -2.29688 h 9.40625 z m -3.5,-1.85938 h -2.26562 l -1.42188,-2.67187 q -0.90625,-1.70313 -1.65625,-2.70313 -0.73437,-1 -1.39062,-1.51562 -0.67188,-0.53125 -1.3125,-0.67188 -0.64063,-0.15625 -1.34375,-0.15625 h -3.03125 v -2.53125 h 2.85937 q 0.90625,0 1.64063,0.15625 0.73437,0.14063 1.40625,0.53125 0.65625,0.375 1.28125,1.0625 0.64062,0.67188 1.35937,1.75 0.71875,1.0625 1.5625,2.5625 0.85938,1.48438 1.95313,3.51563 z M 250.4375,179 h -3.28125 v 21 h -2.57813 v -12.04688 h -7.3125 q 0,1.03125 -0.0312,1.76563 -0.0156,0.73437 -0.125,1.21875 -0.10937,0.46875 -0.32812,0.6875 -0.21875,0.21875 -0.60938,0.21875 -0.8125,0 -1.54687,-0.53125 -0.71875,-0.53125 -1.28125,-1.28125 -0.54688,-0.75 -0.875,-1.5625 -0.32813,-0.8125 -0.32813,-1.375 0,-0.5 0.21875,-0.78125 0.21875,-0.28125 0.57813,-0.42188 0.35937,-0.14062 0.8125,-0.17187 0.46875,-0.0312 0.9375,-0.0312 h 9.89062 V 179 h -14.67187 v -2.29688 h 20.53125 z m 8.3125,0 h -3.28125 v 21 h -2.5625 v -21 h -3.5625 v -2.29688 H 258.75 Z m 18.8125,0 h -3.28125 v 21 h -2.5625 v -5.57813 l -0.0625,-0.0156 q -0.3125,0.29687 -0.73438,0.625 -0.42187,0.3125 -0.96875,0.57812 -0.54687,0.25 -1.23437,0.42188 -0.67188,0.17187 -1.51563,0.17187 -1.54687,0 -2.82812,-0.59375 -1.26563,-0.59375 -2.1875,-1.57812 -0.92188,-1 -1.4375,-2.28125 -0.5,-1.29688 -0.5,-2.70313 0,-1.40625 0.5,-2.60937 0.51562,-1.21875 1.40625,-2.10938 0.89062,-0.89062 2.07812,-1.39062 1.1875,-0.51563 2.54688,-0.51563 0.375,0 0.9375,0.0625 0.57812,0.0625 1.23437,0.28125 0.65625,0.21875 1.35938,0.64063 0.70312,0.40625 1.34375,1.10937 l 0.0625,-0.0156 V 179 h -14.0625 v -2.29688 h 19.90625 z m -5.78125,8.42187 q -0.98438,-1.1875 -2.14063,-1.90625 -1.15625,-0.73437 -2.625,-0.73437 -1.15625,0 -1.96875,0.4375 -0.79687,0.4375 -1.3125,1.10937 -0.51562,0.65625 -0.75,1.46875 -0.23437,0.8125 -0.23437,1.5625 0,0.8125 0.26562,1.60938 0.26563,0.79687 0.78125,1.4375 0.53125,0.625 1.3125,1.03125 0.78125,0.39062 1.82813,0.39062 1.07812,0 1.96875,-0.40625 0.89062,-0.42187 1.53125,-1.0625 0.64062,-0.64062 0.98437,-1.4375 0.35938,-0.79687 0.35938,-1.54687 z M 285.875,179 h -3.28125 v 21 h -2.5625 v -21 h -3.5625 v -2.29688 h 9.40625 z m 31.26562,0 H 295.625 q 0.75,1.32812 1.23437,2.67187 0.48438,1.32813 0.53125,2.75 0.70313,0.0469 1.32813,0.21875 0.64062,0.17188 1.23437,0.4375 0.79688,-0.98437 2.03125,-1.46875 1.25,-0.48437 2.625,-0.48437 1.32813,0 2.48438,0.4375 1.17187,0.42187 2.17187,1.125 1,0.70312 1.82813,1.59375 0.82812,0.875 1.48437,1.79687 0.67188,0.92188 1.17188,1.78125 0.51562,0.85938 0.85937,1.5 L 312.625,192.375 q -0.79688,-1.40625 -1.64063,-2.65625 -0.84375,-1.26563 -1.79687,-2.20313 -0.95313,-0.95312 -2.0625,-1.5 -1.09375,-0.5625 -2.40625,-0.5625 -0.79688,0 -1.42188,0.20313 -0.60937,0.20312 -1.03125,0.54687 -0.42187,0.32813 -0.64062,0.78125 -0.21875,0.4375 -0.21875,0.90625 0,0.9375 0.67187,1.46875 0.6875,0.51563 1.85938,0.51563 1.25,0 2.26562,-0.4375 l 0.54688,2.25 q -0.67188,0.26562 -1.375,0.40625 -0.6875,0.125 -1.35938,0.125 -1,0 -1.90625,-0.28125 -0.89062,-0.29688 -1.57812,-0.85938 -0.67188,-0.5625 -1.07813,-1.39062 -0.39062,-0.82813 -0.39062,-1.90625 0,-0.125 0,-0.23438 0,-0.10937 0.0156,-0.21875 -0.46875,-0.23437 -0.96875,-0.39062 -0.48437,-0.15625 -1.01562,-0.1875 -0.25,0.76562 -0.6875,1.4375 -0.42188,0.67187 -1.03125,1.1875 -0.59375,0.5 -1.375,0.8125 -0.78125,0.3125 -1.73438,0.35937 l -0.0312,0.0781 q 1.40625,2.1875 3.15625,4.14062 1.75,1.9375 4.04688,3.6875 l -1.67188,1.92188 q -1.32812,-0.98438 -2.53125,-2.125 -1.1875,-1.15625 -2.25,-2.375 -1.0625,-1.23438 -1.98437,-2.48438 -0.90625,-1.26562 -1.67188,-2.46875 -0.75,-1.20312 -1.34375,-2.29687 -0.59375,-1.09375 -1.01562,-2 l 2.14062,-1.15625 q 0.5625,1.21875 1.26563,1.92187 0.71875,0.6875 1.65625,0.6875 0.67187,0 1.20312,-0.34375 0.53125,-0.34375 0.89063,-0.875 0.35937,-0.54687 0.54687,-1.1875 0.1875,-0.65625 0.1875,-1.28125 0,-0.73437 -0.1875,-1.45312 -0.1875,-0.71875 -0.48437,-1.39063 -0.29688,-0.6875 -0.67188,-1.3125 Q 293.15625,179.59375 292.8125,179 h -8.03125 v -2.29688 h 32.35937 z m 19.26563,0 H 333.125 v 21 h -2.57813 v -7.46875 l -0.0625,-0.0156 q -1.04687,0.9375 -2.34375,1.34375 -1.29687,0.39063 -2.5625,0.39063 -1.34375,0 -2.45312,-0.39063 -1.10938,-0.39062 -1.90625,-1.1875 -0.79688,-0.8125 -1.25,-2.03125 -0.4375,-1.23437 -0.4375,-2.92187 V 179 h -3.48438 v -2.29688 h 20.35938 z m -5.85938,0 h -8.48437 v 8.57812 q 0,0.98438 0.15625,1.76563 0.17187,0.78125 0.5625,1.32812 0.40625,0.54688 1.0625,0.84375 0.65625,0.28125 1.64062,0.28125 1.60938,0 2.90625,-0.75 1.29688,-0.76562 2.15625,-2 z m 14.17188,0 h -3.28125 v 21 h -2.5625 v -21 h -3.5625 v -2.29688 h 9.40625 z m 22.85937,0 h -3.28125 v 21.01562 h -2.5625 V 185.375 q -0.82812,-0.29688 -1.5625,-0.29688 -0.73437,0 -1.28125,0.28125 -0.54687,0.26563 -0.92187,0.71875 -0.35938,0.45313 -0.54688,1.0625 -0.1875,0.60938 -0.1875,1.28125 0,0.26563 0.0156,0.54688 0.0312,0.26562 0.0625,0.53125 h -2.39063 q -0.125,-0.90625 -0.29687,-1.73438 -0.15625,-0.82812 -0.46875,-1.45312 -0.29688,-0.625 -0.78125,-0.98438 -0.48438,-0.375 -1.25,-0.375 -0.73438,0 -1.26563,0.29688 -0.51562,0.29687 -0.85937,0.82812 -0.34375,0.53125 -0.51563,1.25 -0.15625,0.70313 -0.15625,1.53125 0,1.78125 0.60938,3.20313 0.60937,1.40625 1.64062,2.53125 1.04688,1.125 2.40625,2.01562 1.375,0.875 2.89063,1.60938 l -1.26563,2.15625 q -0.5625,-0.25 -1.45312,-0.75 -0.875,-0.5 -1.875,-1.23438 -0.98438,-0.73437 -1.98438,-1.71875 -1,-0.98437 -1.8125,-2.20312 -0.79687,-1.21875 -1.29687,-2.6875 -0.5,-1.46875 -0.5,-3.17188 0,-1.3125 0.375,-2.4375 0.375,-1.14062 1.0625,-1.96875 0.70312,-0.84375 1.6875,-1.3125 0.98437,-0.48437 2.1875,-0.48437 0.90625,0 1.5625,0.26562 0.65625,0.25 1.125,0.64063 0.48437,0.375 0.79687,0.82812 0.3125,0.4375 0.54688,0.82813 l 0.0781,-0.0156 q 0.29688,-0.65625 0.70313,-1.10937 0.42187,-0.45313 0.90625,-0.73438 0.5,-0.28125 1.04687,-0.40625 0.54688,-0.14062 1.09375,-0.14062 0.48438,0 0.95313,0.0937 0.48437,0.0781 0.92187,0.23437 V 179 H 343.625 v -2.29688 h 23.95312 z m 8.3125,0 h -3.28125 v 21 h -2.5625 v -21 h -3.5625 v -2.29688 h 9.40625 z m 28.67188,0 h -3.28125 v 21 h -2.5625 v -7.3125 l -0.0625,-0.0156 q -0.42188,0.34375 -1.01563,0.6875 -0.57812,0.32813 -1.29687,0.59375 -0.71875,0.25 -1.54688,0.42188 -0.82812,0.15625 -1.73437,0.15625 -1.8125,0 -3.10938,-0.65625 -1.28125,-0.65625 -2.15625,-1.75 -0.85937,-1.10938 -1.35937,-2.51563 -0.5,-1.42187 -0.71875,-2.95312 1.03125,-0.14063 1.76562,-0.48438 0.73438,-0.34375 1.1875,-0.8125 0.45313,-0.48437 0.65625,-1.04687 0.21875,-0.5625 0.21875,-1.125 0,-0.375 -0.0781,-0.84375 -0.0625,-0.46875 -0.23438,-1 -0.17187,-0.54688 -0.45312,-1.14063 Q 388.5,179.60937 388.07812,179 h -4.51562 v -2.29688 h 21 z m -13.71875,0 q 0.5625,0.95312 0.875,2.09375 0.32812,1.125 0.32812,2.21875 0,0.79687 -0.21875,1.54687 -0.20312,0.75 -0.64062,1.40625 -0.4375,0.64063 -1.09375,1.15625 -0.64063,0.5 -1.5,0.79688 0.25,1.04687 0.6875,1.79687 0.4375,0.73438 1.03125,1.21875 0.59375,0.46875 1.32812,0.6875 0.73438,0.21875 1.57813,0.21875 0.8125,0 1.59375,-0.1875 0.79687,-0.1875 1.5,-0.53125 0.71875,-0.35937 1.32812,-0.85937 0.60938,-0.5 1.07813,-1.125 V 179 Z m 10.21875,-1.85938 h -2.26563 l -1.42187,-2.67187 q -0.90625,-1.70313 -1.64063,-2.70313 -0.75,-1 -1.40625,-1.51562 -0.67187,-0.53125 -1.3125,-0.67188 -0.64062,-0.15625 -1.34375,-0.15625 h -3.03125 v -2.53125 H 391.5 q 0.90625,0 1.64062,0.15625 0.73438,0.14063 1.40625,0.53125 0.65625,0.375 1.29688,1.0625 0.625,0.67188 1.34375,1.75 0.71875,1.0625 1.57812,2.5625 0.84375,1.48438 1.9375,3.51563 z M 424.14062,179 h -3.28125 v 21 h -2.54687 v -13.71875 h -5.07813 q -1.04687,0 -1.89062,0.14062 -0.84375,0.125 -1.4375,0.53125 -0.59375,0.39063 -0.92188,1.10938 -0.3125,0.70312 -0.3125,1.85937 0,1.5 0.48438,2.76563 0.5,1.26562 1.26562,2.32812 0.76563,1.04688 1.6875,1.9375 0.9375,0.89063 1.79688,1.64063 l -1.5625,1.78125 q -0.14063,-0.0781 -0.67188,-0.45313 -0.51562,-0.39062 -1.21875,-1.04687 -0.6875,-0.65625 -1.46875,-1.59375 -0.76562,-0.9375 -1.42187,-2.10938 -0.64063,-1.1875 -1.07813,-2.60937 -0.42187,-1.42188 -0.42187,-3.0625 0,-1.625 0.45312,-2.6875 0.46875,-1.07813 1.3125,-1.70313 0.84375,-0.64062 2.04688,-0.89062 1.20312,-0.25 2.6875,-0.25 h 5.75 V 179 h -14.84375 v -2.29688 h 20.67187 z m 8.3125,0 h -3.28125 v 21 h -2.5625 v -21 h -3.5625 v -2.29688 h 9.40625 z m -3.5,-1.85938 h -2.26562 l -1.42188,-2.67187 q -0.90625,-1.70313 -1.65625,-2.70313 -0.73437,-1 -1.39062,-1.51562 -0.67188,-0.53125 -1.3125,-0.67188 -0.64063,-0.15625 -1.34375,-0.15625 h -3.03125 v -2.53125 h 2.85937 q 0.90625,0 1.64063,0.15625 0.73437,0.14063 1.40625,0.53125 0.65625,0.375 1.28125,1.0625 0.64062,0.67188 1.35937,1.75 0.71875,1.0625 1.5625,2.5625 0.85938,1.48438 1.95313,3.51563 z m 7.89063,19.29688 -2.5,7.6875 h -1.82813 l 1.82813,-7.6875 z"
         id="path6" />
      <path
         d="m 73.484375,229 h -3.28125 v 21 h -2.5625 v -8.76563 H 59.4375 v 2.23438 q 0,0.23437 -0.04687,0.5 -0.03125,0.26562 -0.15625,0.5 -0.109375,0.21875 -0.3125,0.375 -0.1875,0.14062 -0.484375,0.14062 -0.359375,0 -0.859375,-0.21875 -0.484375,-0.23437 -1.015625,-0.60937 -0.515625,-0.39063 -1.03125,-0.875 -0.5,-0.5 -0.90625,-1.03125 -0.390625,-0.53125 -0.640625,-1.0625 -0.25,-0.53125 -0.25,-0.98438 0,-0.65625 0.46875,-0.95312 0.46875,-0.29688 1.234375,-0.29688 h 1.515625 V 230.375 q 0,-0.8125 -0.390625,-1.23438 -0.390625,-0.4375 -0.984375,-0.4375 -0.65625,0 -1.109375,0.48438 -0.4375,0.48437 -0.4375,1.23437 0,0.14063 0.03125,0.34375 0.03125,0.20313 0.15625,0.46875 0.125,0.25 0.375,0.57813 0.25,0.3125 0.671875,0.67187 L 53.875,234.1875 Q 53.15625,233.79687 52.703125,233.32812 52.25,232.84375 52,232.34375 q -0.25,-0.5 -0.34375,-0.96875 -0.09375,-0.48438 -0.09375,-0.89063 0,-0.75 0.25,-1.46875 0.265625,-0.73437 0.78125,-1.3125 0.515625,-0.59375 1.28125,-0.95312 0.78125,-0.35938 1.8125,-0.35938 0.90625,0 1.609375,0.29688 0.703125,0.29687 1.171875,0.85937 0.484375,0.54688 0.71875,1.32813 0.25,0.76562 0.25,1.71875 v 8.35937 h 8.203125 v -12.25 h 5.84375 z m 8.3125,0 h -3.28125 v 21 h -2.5625 v -21 h -3.5625 v -2.29688 h 9.40625 z m 15.640625,0 h -5.890625 q 0.796875,1.375 1.28125,2.8125 0.5,1.42187 0.5,2.89062 0,1.10938 -0.34375,2.14063 -0.328125,1.01562 -0.984375,1.82812 -0.640625,0.79688 -1.609375,1.3125 -0.953125,0.5 -2.203125,0.5625 l -0.03125,0.0781 q 1.40625,2.1875 3.15625,4.14062 1.75,1.9375 4.046875,3.6875 L 93.6875,250.375 q -1.328125,-0.98438 -2.53125,-2.125 -1.1875,-1.15625 -2.25,-2.375 -1.0625,-1.23438 -1.984375,-2.48438 Q 86.015625,242.125 85.25,240.9375 84.5,239.73437 83.90625,238.64062 83.3125,237.53125 82.890625,236.625 l 2.140625,-1.15625 q 0.5625,1.21875 1.265625,1.92187 0.71875,0.6875 1.65625,0.6875 0.671875,0 1.203125,-0.34375 0.53125,-0.34375 0.890625,-0.875 0.359375,-0.54687 0.546875,-1.1875 0.1875,-0.65625 0.1875,-1.28125 0,-0.73437 -0.1875,-1.4375 -0.1875,-0.71875 -0.484375,-1.39062 Q 89.8125,230.875 89.4375,230.23437 89.078125,229.59375 88.734375,229 h -8.03125 v -2.29688 H 97.4375 Z m 19.57813,0 h -3.28125 v 21 h -2.54688 v -13.71875 h -5.07812 q -1.04688,0 -1.89063,0.14062 -0.84375,0.125 -1.4375,0.53125 -0.59375,0.39063 -0.92187,1.10938 -0.3125,0.70312 -0.3125,1.85937 0,1.5 0.48437,2.76563 0.5,1.26562 1.26563,2.32812 0.76562,1.04688 1.6875,1.9375 0.9375,0.89063 1.79687,1.64063 l -1.5625,1.78125 q -0.14062,-0.0781 -0.67187,-0.45313 -0.51563,-0.39062 -1.21875,-1.04687 -0.6875,-0.65625 -1.46875,-1.59375 -0.76563,-0.9375 -1.42188,-2.10938 -0.640625,-1.1875 -1.078125,-2.60937 Q 98.9375,241.14062 98.9375,239.5 q 0,-1.625 0.453125,-2.6875 0.46875,-1.07813 1.312505,-1.70313 0.84375,-0.64062 2.04687,-0.89062 1.20313,-0.25 2.6875,-0.25 h 5.75 V 229 H 96.34375 v -2.29688 h 20.67188 z m 8.3125,0 h -3.28125 v 21 h -2.5625 v -21 h -3.5625 v -2.29688 h 9.40625 z m 21.64062,0 h -3.28125 v 21 h -2.59375 v -6.57813 l -0.0625,-0.0469 q -0.85938,0.78125 -1.6875,1.23437 -0.8125,0.4375 -1.53125,0.67188 -0.70313,0.21875 -1.28125,0.28125 -0.57813,0.0625 -0.95313,0.0625 -1.4375,0 -2.54687,-0.45313 -1.10938,-0.45312 -1.85938,-1.1875 -0.75,-0.75 -1.14062,-1.70312 -0.39063,-0.96875 -0.39063,-2 0,-1.07813 0.4375,-2.14063 0.45313,-1.0625 1.40625,-1.90625 l -0.0156,-0.0625 h -4.95312 V 233.875 h 12.56249 v 2.29687 h -1.60937 q -1.60938,0 -2.64063,0.42188 -1.03125,0.42187 -1.625,1.03125 -0.59375,0.60937 -0.82812,1.3125 -0.21875,0.6875 -0.21875,1.25 0,0.46875 0.15625,1.01562 0.15625,0.53125 0.51562,0.98438 0.375,0.45312 0.98438,0.75 0.625,0.29687 1.5625,0.29687 0.98437,0 1.82812,-0.3125 0.85938,-0.32812 1.57813,-0.84375 0.71875,-0.51562 1.29687,-1.15625 0.59375,-0.65625 1.01563,-1.29687 V 229 h -16.85937 v -2.29688 h 22.73437 z m 8.3125,0 H 152 v 21 h -2.5625 v -21 h -3.5625 v -2.29688 h 9.40625 z m 21.64062,0 h -3.28125 v 21 h -2.59375 v -6.57813 l -0.0625,-0.0469 q -0.85937,0.78125 -1.6875,1.23437 -0.8125,0.4375 -1.53125,0.67188 -0.70312,0.21875 -1.28125,0.28125 -0.57812,0.0625 -0.95312,0.0625 -1.4375,0 -2.54688,-0.45313 -1.10937,-0.45312 -1.85937,-1.1875 -0.75,-0.75 -1.14063,-1.70312 -0.39062,-0.96875 -0.39062,-2 0,-1.07813 0.4375,-2.14063 0.45312,-1.0625 1.40625,-1.90625 l -0.0156,-0.0625 h -4.95312 V 233.875 h 12.5625 v 2.29687 h -1.60938 q -1.60937,0 -2.64062,0.42188 -1.03125,0.42187 -1.625,1.03125 -0.59375,0.60937 -0.82813,1.3125 -0.21875,0.6875 -0.21875,1.25 0,0.46875 0.15625,1.01562 0.15625,0.53125 0.51563,0.98438 0.375,0.45312 0.98437,0.75 0.625,0.29687 1.5625,0.29687 0.98438,0 1.82813,-0.3125 0.85937,-0.32812 1.57812,-0.84375 0.71875,-0.51562 1.29688,-1.15625 0.59375,-0.65625 1.01562,-1.29687 V 229 H 154.1875 v -2.29688 h 22.73437 z m 19.67188,16.59375 q 0.51562,-0.15625 1.01562,-0.39063 0.51563,-0.23437 0.90625,-0.5625 0.40625,-0.34375 0.65625,-0.79687 0.25,-0.45313 0.25,-1.0625 0,-1.29688 -1.07812,-2.01563 -1.07813,-0.73437 -3.0625,-0.73437 -0.79688,0 -1.64063,0.17187 -0.82812,0.15625 -1.51562,0.59375 -0.6875,0.42188 -1.125,1.17188 -0.4375,0.73437 -0.4375,1.875 0,1.15625 0.45312,2.15625 0.45313,0.98437 1.17188,1.8125 0.73437,0.82812 1.64062,1.5 0.90625,0.67187 1.79688,1.1875 0.90625,0.51562 1.70312,0.85937 0.79688,0.35938 1.32813,0.5625 l -1.03125,2.15625 q -1.09375,-0.46875 -2.23438,-1.03125 -1.125,-0.54687 -2.1875,-1.21875 -1.0625,-0.65625 -2,-1.45312 -0.9375,-0.79688 -1.64062,-1.76563 -0.6875,-0.96875 -1.09375,-2.125 -0.39063,-1.15625 -0.39063,-2.51562 0,-1.32813 0.34375,-2.3125 0.35938,-1 0.98438,-1.75 -0.85938,-0.98438 -1.26563,-1.98438 -0.40625,-1 -0.40625,-2.17187 0,-0.67188 0.15625,-1.26563 0.17188,-0.59375 0.59375,-1.03125 0.4375,-0.45312 1.20313,-0.71875 0.76562,-0.26562 1.98437,-0.26562 H 198.75 V 229 h -14.15625 v -2.29688 h 20.35937 V 229 h -3.64062 v 5.75 h -8.98438 q -0.60937,0 -1.03125,0.10937 -0.40625,0.0937 -0.65625,0.29688 -0.25,0.20312 -0.35937,0.51562 -0.0937,0.29688 -0.0937,0.70313 0,0.54687 0.1875,1.0625 0.1875,0.51562 0.70312,1.15625 0.90625,-0.46875 1.98438,-0.6875 1.09375,-0.23438 2.28125,-0.23438 1.375,0 2.5625,0.3125 1.20312,0.3125 2.07812,0.95313 0.89063,0.625 1.39063,1.60937 0.51562,0.96875 0.51562,2.28125 0,1.26563 -0.4375,2.14063 -0.42187,0.875 -1.07812,1.46875 -0.64063,0.59375 -1.40625,0.96875 -0.76563,0.35937 -1.42188,0.59375 z M 213.26562,229 h -3.28125 v 21 h -2.5625 v -21 h -3.5625 v -2.29688 h 9.40625 z m 28.04688,20.65625 q -0.71875,0.26562 -1.76563,0.45312 -1.04687,0.1875 -2.375,0.1875 -2.48437,0 -4.4375,-0.85937 -1.95312,-0.85938 -3.625,-2.51563 -1.65625,-1.65625 -3.17187,-4.09375 -1.5,-2.4375 -3.09375,-5.57812 l 2.07812,-1.1875 q 0.59375,1.125 1.10938,1.60937 0.53125,0.46875 1.17187,0.46875 0.53125,0 0.92188,-0.29687 0.40625,-0.29688 0.65625,-0.76563 0.26562,-0.48437 0.39062,-1.09375 0.14063,-0.60937 0.14063,-1.21875 0,-0.70312 -0.15625,-1.46875 -0.15625,-0.76562 -0.42188,-1.51562 -0.26562,-0.75 -0.625,-1.45313 -0.34375,-0.71875 -0.73437,-1.3125 V 229 h -6.4375 v -2.29688 h 28.15625 V 229 h -3.28125 v 21 H 243.25 v -7.59375 l -0.0625,-0.0156 q -0.85938,0.84375 -1.90625,1.25 -1.04688,0.40625 -2.07813,0.40625 -1.28125,0 -2.35937,-0.53125 -1.07813,-0.53125 -1.85938,-1.40625 -0.78125,-0.875 -1.21875,-2 -0.4375,-1.125 -0.4375,-2.32812 0,-1.14063 0.39063,-2.20313 0.40625,-1.0625 1.10937,-1.875 0.71875,-0.82812 1.6875,-1.3125 0.98438,-0.48437 2.15625,-0.48437 0.67188,0 1.28125,0.15625 0.60938,0.15625 1.17188,0.4375 0.5625,0.28125 1.07812,0.67187 0.51563,0.375 0.98438,0.8125 l 0.0625,-0.0156 V 229 h -13.14063 q 0.79688,1.51562 1.25,2.96875 0.45313,1.4375 0.45313,2.90625 0,1 -0.25,1.98437 -0.25,0.98438 -0.78125,1.78125 -0.51563,0.79688 -1.32813,1.32813 -0.8125,0.53125 -1.9375,0.625 v 0.0781 q 1.07813,2.10938 2.25,3.48438 1.1875,1.35937 2.40625,2.15625 1.21875,0.79687 2.4375,1.10937 1.23438,0.3125 2.40625,0.3125 1.32813,0 2.39063,-0.26562 1.0625,-0.28125 1.90625,-0.625 z m 1.95312,-12.76563 q -0.28125,-0.35937 -0.70312,-0.8125 -0.40625,-0.46875 -0.9375,-0.875 -0.51563,-0.40625 -1.15625,-0.67187 -0.625,-0.28125 -1.35938,-0.28125 -0.75,0 -1.35937,0.3125 -0.59375,0.29687 -1.03125,0.79687 -0.4375,0.5 -0.67188,1.17188 -0.23437,0.65625 -0.23437,1.375 0,0.75 0.25,1.4375 0.25,0.67187 0.6875,1.1875 0.45312,0.51562 1.07812,0.82812 0.625,0.29688 1.375,0.29688 0.57813,0 1.28125,-0.21875 0.71875,-0.21875 1.32813,-0.71875 0.625,-0.5 1.03125,-1.32813 0.42187,-0.82812 0.42187,-2.04687 z m 2.32813,-9.75 h -2.26563 l -1.42187,-2.67187 q -0.90625,-1.70313 -1.64063,-2.70313 -0.75,-1 -1.40625,-1.51562 -0.67187,-0.53125 -1.3125,-0.67188 -0.64062,-0.15625 -1.34375,-0.15625 h -3.03125 v -2.53125 h 2.85938 q 0.90625,0 1.64062,0.15625 0.73438,0.14063 1.40625,0.53125 0.65625,0.375 1.29688,1.0625 0.625,0.67188 1.34375,1.75 0.71875,1.0625 1.57812,2.5625 0.84375,1.48438 1.9375,3.51563 z m 11.01562,19.32813 q -1.39062,0 -2.53125,-0.51563 -1.14062,-0.51562 -1.96875,-1.42187 -0.8125,-0.92188 -1.26562,-2.15625 -0.45313,-1.25 -0.45313,-2.6875 0,-1.5625 0.48438,-2.8125 0.48437,-1.26563 1.32812,-2.15625 0.85938,-0.89063 2,-1.35938 1.15625,-0.48437 2.48438,-0.48437 1.70312,0 3.21875,0.8125 1.51562,0.79687 3.03125,2.35937 0.70312,-1.09375 1.64062,-1.89062 0.9375,-0.8125 2.3125,-1.0625 V 229 H 248 v -2.29688 h 29.26562 V 229 h -7.82812 v 4.17187 q 1.04687,0.25 1.89062,0.82813 0.84375,0.57812 1.42188,1.39062 0.59375,0.8125 0.90625,1.82813 0.32812,1 0.32812,2.10937 0,1.625 -0.5625,2.95313 -0.54687,1.32812 -1.48437,2.29687 -0.92188,0.95313 -2.10938,1.48438 -1.1875,0.51562 -2.45312,0.51562 -1.64063,0 -3.0625,-0.76562 -1.42188,-0.76563 -2.8125,-2.10938 -0.40625,0.59375 -0.90625,1.10938 -0.48438,0.5 -1.07813,0.875 -0.59375,0.35937 -1.3125,0.57812 -0.71875,0.20313 -1.59375,0.20313 z m 0.32813,-11.3125 q -0.9375,0 -1.6875,0.375 -0.73438,0.35937 -1.26563,0.98437 -0.53125,0.60938 -0.8125,1.45313 -0.28125,0.82812 -0.28125,1.76562 0,0.8125 0.23438,1.59375 0.23437,0.78125 0.6875,1.39063 0.46875,0.60937 1.15625,0.98437 0.6875,0.375 1.57812,0.375 1.09375,0 1.85938,-0.54687 0.78125,-0.5625 1.375,-1.45313 0.60937,-0.89062 1.10937,-2 0.5,-1.125 1.04688,-2.25 -1.1875,-1.375 -2.46875,-2.01562 -1.26563,-0.65625 -2.53125,-0.65625 z M 267,244.1875 q 0.90625,0 1.71875,-0.28125 0.8125,-0.29688 1.42187,-0.875 0.625,-0.59375 0.98438,-1.46875 0.375,-0.89063 0.375,-2.09375 0,-0.76563 -0.20313,-1.51563 -0.1875,-0.75 -0.59375,-1.34375 -0.40625,-0.59375 -1.04687,-0.95312 -0.625,-0.375 -1.48438,-0.375 -0.76562,0 -1.375,0.29687 -0.60937,0.28125 -1.10937,0.78125 -0.5,0.48438 -0.92188,1.15625 -0.40625,0.65625 -0.78125,1.42188 -0.375,0.75 -0.75,1.5625 -0.35937,0.79687 -0.76562,1.57812 0.39062,0.39063 0.875,0.76563 0.5,0.375 1.0625,0.67187 0.57812,0.29688 1.23437,0.48438 0.65625,0.1875 1.35938,0.1875 z M 285.57812,229 h -3.28125 v 21 h -2.5625 v -21 h -3.5625 v -2.29688 h 9.40625 z m 22.89063,0 h -4.65625 v 5.76562 h -7.82813 q -1.15625,0 -1.60937,0.32813 -0.4375,0.32812 -0.4375,1.0625 0,0.375 0.0937,0.78125 0.0937,0.40625 0.34375,0.76562 0.25,0.34375 0.67187,0.57813 0.4375,0.21875 1.10938,0.21875 h 4.42187 q 1.375,0 2.3125,0.375 0.95313,0.375 1.51563,1.03125 0.57812,0.65625 0.82812,1.54687 0.25,0.89063 0.25,1.90625 0,1.39063 -0.46875,2.65625 -0.45312,1.26563 -1.35937,2.23438 -0.90625,0.96875 -2.26563,1.54687 -1.34375,0.57813 -3.14062,0.57813 -1.95313,0 -3.75,-0.71875 -1.78125,-0.73438 -3.28125,-2.03125 -1.48438,-1.29688 -2.625,-3.07813 -1.125,-1.78125 -1.76563,-3.90625 L 289,239.78125 q 0.54687,1.60937 1.45312,3.09375 0.90625,1.48437 2.09375,2.625 1.20313,1.14062 2.64063,1.82812 Q 296.625,248 298.21875,248 q 1.125,0 2,-0.32813 0.89062,-0.32812 1.51562,-0.9375 0.625,-0.60937 0.95313,-1.45312 0.32812,-0.85938 0.32812,-1.92188 0,-0.75 -0.17187,-1.21875 -0.17188,-0.48437 -0.54688,-0.75 -0.35937,-0.26562 -0.92187,-0.35937 -0.5625,-0.10938 -1.34375,-0.10938 h -4.09375 q -1.15625,0 -2,-0.5 -0.84375,-0.5 -1.40625,-1.26562 -0.54688,-0.76563 -0.8125,-1.6875 -0.26563,-0.9375 -0.26563,-1.79688 0,-0.92187 0.29688,-1.53125 0.29687,-0.625 0.8125,-0.98437 0.51562,-0.375 1.21875,-0.53125 0.71875,-0.15625 1.54687,-0.15625 H 301.25 V 229 h -16.76563 v -2.29688 h 23.98438 z m -2.78125,29 q -0.79688,-1.3125 -1.64063,-2.5 -0.84375,-1.17188 -1.79687,-2.04688 -0.95313,-0.875 -2.04688,-1.39062 -1.10937,-0.51563 -2.42187,-0.51563 -0.79688,0 -1.40625,0.1875 -0.625,0.1875 -1.04688,0.5 -0.42187,0.3125 -0.64062,0.71875 -0.21875,0.42188 -0.21875,0.85938 0,0.84375 0.6875,1.34375 0.67187,0.5 1.84375,0.5 1.09375,0 2.26562,-0.4375 l 0.54688,2.25 q -0.67188,0.26562 -1.35938,0.39062 Q 297.75,258 297.07812,258 q -1,0 -1.89062,-0.28125 -0.90625,-0.28125 -1.57813,-0.82813 -0.6875,-0.53125 -1.07812,-1.34375 -0.40625,-0.79687 -0.40625,-1.82812 0,-1.14063 0.48437,-2 0.46875,-0.84375 1.25,-1.40625 0.78125,-0.54688 1.78125,-0.8125 1,-0.28125 2.03125,-0.28125 1.32813,0 2.5,0.40625 1.15625,0.40625 2.15625,1.0625 1,0.67187 1.82813,1.5 0.82812,0.84375 1.48437,1.70312 0.67188,0.85938 1.17188,1.67188 0.51562,0.8125 0.85937,1.42187 z m 26.48437,-16.35938 -0.0469,-0.0156 -9.40625,7.5 -1.53125,-1.96875 9.67187,-7.54688 q -1.84375,-0.21875 -3.3125,-0.625 -1.45312,-0.42187 -2.60937,-0.96875 -1.28125,1.15625 -2.70313,2.125 -1.40625,0.96875 -2.67187,1.76563 l -1.39063,-2.07813 q 1.07813,-0.70312 2.28125,-1.46875 1.20313,-0.78125 2.3125,-1.67187 -0.8125,-0.64063 -1.375,-1.34375 -0.5625,-0.71875 -0.90625,-1.42188 -0.34375,-0.71875 -0.5,-1.42187 -0.14062,-0.70313 -0.14062,-1.32813 0,-0.95312 0.3125,-1.79687 0.3125,-0.84375 0.875,-1.46875 0.5625,-0.64063 1.34375,-1.01563 0.79687,-0.375 1.76562,-0.375 0.98438,0 1.8125,0.39063 0.82813,0.375 1.4375,1.04687 0.60938,0.67188 0.9375,1.5625 0.34375,0.89063 0.34375,1.90625 0,1.34375 -0.57812,2.5625 -0.5625,1.21875 -1.5,2.32813 1.35937,0.59375 2.82812,0.92187 1.46875,0.3125 2.75,0.375 v -10.90625 h 5.84375 V 229 h -3.28125 v 21 h -2.5625 z m -6.01562,-10.1875 q 0,-0.5 -0.125,-0.96875 -0.125,-0.46875 -0.375,-0.82812 -0.23438,-0.35938 -0.59375,-0.5625 -0.35938,-0.21875 -0.8125,-0.21875 -0.5,0 -0.85938,0.25 -0.35937,0.23437 -0.59375,0.60937 -0.21875,0.375 -0.32812,0.84375 -0.10938,0.46875 -0.10938,0.92188 0,1.09375 0.57813,2 0.57812,0.89062 1.53125,1.59375 0.76562,-0.84375 1.21875,-1.75 0.46875,-0.90625 0.46875,-1.89063 z m 8.35937,-4.3125 H 332.25 l -1.42188,-2.67187 q -0.90625,-1.70313 -1.64062,-2.70313 -0.75,-1 -1.40625,-1.51562 -0.67188,-0.53125 -1.3125,-0.67188 -0.64063,-0.15625 -1.34375,-0.15625 h -3.03125 v -2.53125 h 2.85937 q 0.90625,0 1.64063,0.15625 0.73437,0.14063 1.40625,0.53125 0.65625,0.375 1.29687,1.0625 0.625,0.67188 1.34375,1.75 0.71875,1.0625 1.57813,2.5625 0.84375,1.48438 1.9375,3.51563 z m 19.21875,8.20313 q 0,1.26562 -0.25,2.25 -0.23437,0.98437 -0.67187,1.73437 -0.42188,0.75 -1,1.29688 -0.57813,0.54687 -1.23438,0.95312 0.92188,0.42188 1.625,1.03125 0.71875,0.59375 1.1875,1.32813 0.48438,0.71875 0.73438,1.54687 0.25,0.82813 0.25,1.70313 0,1.32812 -0.54688,2.5 -0.54687,1.15625 -1.51562,2.01562 -0.96875,0.875 -2.3125,1.375 -1.34375,0.51563 -2.95313,0.51563 -1.64062,0 -2.9375,-0.53125 -1.28125,-0.51563 -2.17187,-1.40625 -0.89063,-0.875 -1.35938,-2.04688 -0.46875,-1.17187 -0.46875,-2.48437 0,-1.75 0.84375,-3.04688 0.84375,-1.3125 2.6875,-2.07812 v -0.0625 q -1.51562,-0.5 -2.375,-1.78125 -0.85937,-1.29688 -0.85937,-3.45313 V 229 h -3.48438 v -2.29688 h 20.71875 V 229 h -3.90625 z m -5.6875,7.42187 q -1.01562,0.375 -2,0.73438 -0.96875,0.34375 -1.73437,0.82812 -0.76563,0.46875 -1.23438,1.17188 -0.46875,0.6875 -0.46875,1.75 0,0.85937 0.3125,1.5625 0.32813,0.6875 0.90625,1.1875 0.59375,0.5 1.40625,0.76562 0.8125,0.28125 1.8125,0.28125 1.07813,0 1.96875,-0.3125 0.89063,-0.3125 1.51563,-0.85937 0.64062,-0.54688 0.98437,-1.28125 0.35938,-0.75 0.35938,-1.625 0,-0.95313 -0.39063,-1.67188 -0.39062,-0.73437 -0.96875,-1.25 -0.57812,-0.51562 -1.25,-0.82812 -0.65625,-0.3125 -1.21875,-0.45313 z m -5.10937,-12.03125 v 5.6875 q 0,1.39063 0.32812,2.26563 0.32813,0.875 0.82813,1.375 0.51562,0.48437 1.10937,0.6875 0.59375,0.1875 1.125,0.21875 0.8125,-0.26563 1.5625,-0.57813 0.75,-0.32812 1.40625,-0.75 l 0.0156,-0.0625 L 343,230.71875 Z m 8.21875,5.51563 V 229 h -6.625 v 0.0469 l 6.1875,9.04688 0.0625,0.0156 q 0.17187,-0.40625 0.26562,-0.85937 0.10938,-0.45313 0.10938,-1 z M 385.98437,229 h -3.28125 v 21 h -2.54687 v -13.71875 h -5.07813 q -1.04687,0 -1.89062,0.14062 -0.84375,0.125 -1.4375,0.53125 -0.59375,0.39063 -0.92188,1.10938 -0.3125,0.70312 -0.3125,1.85937 0,1.5 0.48438,2.76563 0.5,1.26562 1.26562,2.32812 0.76563,1.04688 1.6875,1.9375 0.9375,0.89063 1.79688,1.64063 l -1.5625,1.78125 q -0.14063,-0.0781 -0.67188,-0.45313 -0.51562,-0.39062 -1.21875,-1.04687 -0.6875,-0.65625 -1.46875,-1.59375 -0.76562,-0.9375 -1.42187,-2.10938 -0.64063,-1.1875 -1.07813,-2.60937 -0.42187,-1.42188 -0.42187,-3.0625 0,-1.625 0.45312,-2.6875 0.46875,-1.07813 1.3125,-1.70313 0.84375,-0.64062 2.04688,-0.89062 1.20312,-0.25 2.6875,-0.25 h 5.75 V 229 H 365.3125 v -2.29688 h 20.67187 z m 8.3125,0 h -3.28125 v 21 h -2.5625 v -21 h -3.5625 v -2.29688 h 9.40625 z m -3.5,-1.85938 h -2.26562 l -1.42188,-2.67187 q -0.90625,-1.70313 -1.65625,-2.70313 -0.73437,-1 -1.39062,-1.51562 -0.67188,-0.53125 -1.3125,-0.67188 -0.64063,-0.15625 -1.34375,-0.15625 H 378.375 v -2.53125 h 2.85937 q 0.90625,0 1.64063,0.15625 0.73437,0.14063 1.40625,0.53125 0.65625,0.375 1.28125,1.0625 0.64062,0.67188 1.35937,1.75 0.71875,1.0625 1.5625,2.5625 0.85938,1.48438 1.95313,3.51563 z m 6.4375,23.20313 q -0.71875,0 -1.23437,-0.51563 -0.5,-0.51562 -0.5,-1.23437 0,-0.71875 0.5,-1.23438 0.51562,-0.53125 1.23437,-0.53125 0.73438,0 1.25,0.53125 Q 399,247.875 399,248.59375 q 0,0.71875 -0.51563,1.23437 -0.51562,0.51563 -1.25,0.51563 z"
         id="path7" />
    </g>
  </g>
</svg>
