<?xml version="1.0" encoding="UTF-8" standalone="no"?>
<svg
   width="800"
   height="600"
   viewBox="0 0 800 600"
   version="1.1"
   id="svg1"
   sodipodi:docname="advik_sports.svg"
   xmlns:inkscape="http://www.inkscape.org/namespaces/inkscape"
   xmlns:sodipodi="http://sodipodi.sourceforge.net/DTD/sodipodi-0.dtd"
   xmlns="http://www.w3.org/2000/svg"
   xmlns:svg="http://www.w3.org/2000/svg">
  <defs
     id="defs1" />
  <sodipodi:namedview
     id="namedview1"
     pagecolor="#ffffff"
     bordercolor="#000000"
     borderopacity="0.25"
     inkscape:showpageshadow="2"
     inkscape:pageopacity="0.0"
     inkscape:pagecheckerboard="0"
     inkscape:deskcolor="#d1d1d1" />
  <g
     inkscape:label="Layer 1"
     inkscape:groupmode="layer"
     id="layer1"
     transform="translate(0,0)">
    <g
       id="text1"
       style="font-size:20px;line-height:1.25;font-family:Kalam;letter-spacing:0px;word-spacing:0px"
       aria-label="        अ‍ॅडिक झाला मी खेळाचा, दिवस रात्र खेळतच जातो. विरंगुळा नाही, व्यसन झाले, जीवन हेच मी गमावतो.          ">
      <path
         d="m 352.27539,371.36719 q 0.14648,0.45898 0.3418,1.00586 0.19531,0.53711 0.45898,1.09375 0.27344,0.54687 0.60547,1.06445 0.3418,0.51758 0.77148,0.91797 0.43946,0.40039 0.9668,0.64453 0.52735,0.23437 1.17188,0.23437 0.63476,0 1.07422,-0.18554 0.43945,-0.18555 0.71289,-0.49805 0.27343,-0.3125 0.39062,-0.73242 0.12695,-0.41992 0.12695,-0.87891 0,-1.00586 -0.73242,-1.57226 -0.72265,-0.56641 -2.09961,-0.56641 -0.16601,0 -0.33203,0.01 -0.16601,0.01 -0.33203,0.0293 v -1.48437 q 0.0781,0.01 0.13672,0.01 0.0684,0 0.0781,0 0.6836,0 1.21094,-0.16601 0.53711,-0.17578 0.89844,-0.46875 0.36133,-0.29297 0.54687,-0.6836 0.18555,-0.39062 0.18555,-0.82031 0,-0.39062 -0.13672,-0.69336 -0.13672,-0.30273 -0.37109,-0.50781 -0.23438,-0.20508 -0.55664,-0.30273 -0.32227,-0.10743 -0.70313,-0.10743 -0.26367,0 -0.50781,0.0391 -0.24414,0.0293 -0.51758,0.10742 -0.27344,0.0684 -0.58594,0.18555 -0.30273,0.11718 -0.69335,0.29296 l -0.55665,-1.33789 q 0.76172,-0.37109 1.46485,-0.55664 0.70312,-0.19531 1.43555,-0.19531 0.70312,0 1.29882,0.22461 0.60547,0.22461 1.03516,0.625 0.43945,0.39062 0.68359,0.9375 0.24414,0.54687 0.24414,1.18164 0,1.74805 -1.66992,2.8125 v 0.0391 q 0.6543,0.27344 1.09375,0.67383 0.28321,0.0488 0.59571,0.0781 0.32226,0.0293 0.58593,0.0293 0.27344,0 0.57617,-0.0391 0.30274,-0.0391 0.61524,-0.14648 0.32226,-0.10743 0.64453,-0.30274 0.33203,-0.19531 0.66406,-0.50781 v -5.41016 h 3.65235 v 1.43555 h -2.05078 V 380 h -1.60157 v -7.42188 l -0.0391,-0.01 q -0.55664,0.37109 -1.04492,0.48828 -0.48828,0.11719 -1.00586,0.11719 -0.16602,0 -0.3418,-0.01 -0.17578,-0.0195 -0.36133,-0.0391 l -0.01,0.0391 q 0.15625,0.40039 0.15625,0.98633 0,0.79102 -0.26367,1.46484 -0.26368,0.67383 -0.76172,1.17188 -0.48828,0.48828 -1.19141,0.76172 -0.69336,0.27344 -1.5625,0.27344 -0.92773,0 -1.67969,-0.32227 -0.74218,-0.33203 -1.34765,-0.84961 -0.59571,-0.51758 -1.04492,-1.16211 -0.44922,-0.6543 -0.77149,-1.30859 -0.32226,-0.6543 -0.52734,-1.24024 -0.20508,-0.5957 -0.30274,-0.98633 z m 8.68164,-11.97266 q 0.12695,0.49805 0.35156,1.05469 0.21485,0.55664 0.56641,1.01562 0.35156,0.45899 0.85937,0.76172 0.50782,0.30274 1.21094,0.30274 0.45899,0 0.89844,-0.13672 0.43945,-0.14649 0.82031,-0.49805 0.38086,-0.36133 0.67383,-0.9668 0.29297,-0.60546 0.45898,-1.5332 l 1.44532,0.40039 q -0.22461,0.94727 -0.61524,1.72852 -0.38086,0.78125 -0.92773,1.33789 -0.54688,0.55664 -1.25977,0.86914 -0.71289,0.30273 -1.59179,0.30273 -1.61133,0 -2.72461,-1.03515 -1.12305,-1.04493 -1.60157,-3.20313 z m 10.98633,7.48047 h -2.05078 V 380 h -1.60156 v -13.125 h -2.22657 v -1.43555 h 2.22657 q -0.53711,-1.28906 -0.53711,-2.40234 0,-0.71289 0.23437,-1.32813 0.23438,-0.61523 0.71289,-1.06445 0.48828,-0.44922 1.24024,-0.70312 0.75195,-0.25391 1.78711,-0.25391 1.35742,0 2.60742,0.43945 1.25976,0.43946 2.46093,1.22071 1.20118,0.78125 2.37305,1.85546 1.18164,1.07422 2.38281,2.34375 h -1.69921 q -0.27344,-0.26367 -0.73243,-0.68359 -0.44922,-0.42969 -1.04492,-0.9082 -0.5957,-0.48828 -1.31836,-0.97656 -0.72265,-0.49805 -1.52344,-0.89844 -0.80078,-0.40039 -1.66992,-0.64453 -0.85937,-0.25391 -1.73828,-0.25391 -0.71289,0 -1.20117,0.16602 -0.47852,0.16601 -0.78125,0.45898 -0.29297,0.29297 -0.41992,0.69336 -0.12696,0.39062 -0.12696,0.83984 0,0.87891 0.47852,2.09961 h 2.16797 z m 14.30664,0 h -2.91016 v 3.60352 h -4.89257 q -0.72266,0 -1.00586,0.20507 -0.27344,0.20508 -0.27344,0.66407 0,0.23437 0.0586,0.48828 0.0586,0.2539 0.21485,0.47851 0.15625,0.21485 0.41992,0.36133 0.27344,0.13672 0.69336,0.13672 h 2.76367 q 0.85937,0 1.44531,0.23437 0.5957,0.23438 0.94727,0.64454 0.36133,0.41015 0.51758,0.96679 0.15625,0.55664 0.15625,1.19141 0,0.86914 -0.29297,1.66016 -0.28321,0.79101 -0.84961,1.39648 -0.56641,0.60547 -1.41602,0.9668 -0.83984,0.36132 -1.96289,0.36132 -1.2207,0 -2.34375,-0.44921 -1.11328,-0.45899 -2.05078,-1.26954 -0.92773,-0.81054 -1.64063,-1.92382 -0.70312,-1.11328 -1.10351,-2.44141 l 1.35742,-0.53711 q 0.3418,1.00586 0.9082,1.93359 0.56641,0.92774 1.3086,1.64063 0.75195,0.71289 1.65039,1.14258 0.89844,0.41992 1.89453,0.41992 0.70312,0 1.25,-0.20508 0.55664,-0.20508 0.94727,-0.58594 0.39062,-0.38086 0.5957,-0.9082 0.20508,-0.53711 0.20508,-1.20117 0,-0.46875 -0.10743,-0.76172 -0.10742,-0.30273 -0.34179,-0.46875 -0.22461,-0.16602 -0.57617,-0.22461 -0.35157,-0.0684 -0.83985,-0.0684 h -2.55859 q -0.72266,0 -1.25,-0.3125 -0.52735,-0.3125 -0.87891,-0.79101 -0.34179,-0.47852 -0.50781,-1.05469 -0.16602,-0.58594 -0.16602,-1.12305 0,-0.57617 0.18555,-0.95703 0.18555,-0.39062 0.50781,-0.61523 0.32227,-0.23438 0.76172,-0.33204 0.44922,-0.0976 0.9668,-0.0976 h 3.70117 V 366.875 h -10.47851 v -1.43555 H 386.25 Z m 17.26562,0 h -8.25195 v 3.84766 l 0.0488,0.0195 q 0.49805,-0.6836 1.24023,-1.09375 0.74219,-0.41992 1.63086,-0.41992 0.70313,0 1.29883,0.29296 0.60547,0.28321 1.04492,0.79102 0.43946,0.49805 0.6836,1.18164 0.2539,0.68359 0.2539,1.47461 0,0.89844 -0.3125,1.66016 -0.3125,0.75195 -0.80078,1.36718 -0.48828,0.61524 -1.10351,1.09375 -0.61524,0.46875 -1.21094,0.80078 l -0.86914,-1.5039 q 0.19531,-0.10742 0.47851,-0.2832 0.28321,-0.17579 0.58594,-0.41016 0.3125,-0.23438 0.60547,-0.52734 0.30273,-0.30274 0.53711,-0.6543 0.24414,-0.35156 0.39062,-0.76172 0.14649,-0.41016 0.14649,-0.86914 0,-0.41992 -0.13672,-0.80078 -0.12695,-0.38086 -0.36133,-0.66406 -0.23437,-0.28321 -0.5664,-0.44922 -0.32227,-0.16602 -0.71289,-0.16602 -0.50782,0 -0.98633,0.26367 -0.47852,0.26367 -0.86914,0.66407 -0.39063,0.39062 -0.66407,0.83984 -0.26367,0.44922 -0.35156,0.83008 V 380 h -1.60156 v -3.74023 l -0.0391,-0.0195 q -0.14649,0.12696 -0.3711,0.3125 -0.22461,0.17579 -0.54687,0.3418 -0.3125,0.16602 -0.73242,0.2832 -0.41016,0.11719 -0.92774,0.11719 -0.85937,0 -1.5918,-0.33203 -0.72265,-0.33203 -1.25976,-0.89844 -0.52734,-0.57617 -0.83008,-1.34765 -0.30273,-0.77149 -0.30273,-1.65039 0,-0.83985 0.27343,-1.55274 0.28321,-0.71289 0.76172,-1.2207 0.48828,-0.51758 1.13282,-0.80078 0.65429,-0.29297 1.40625,-0.29297 0.52734,0 0.97656,0.13672 0.45898,0.12695 0.83008,0.32226 0.38086,0.18555 0.67382,0.41016 0.30274,0.21484 0.50782,0.39062 l 0.0391,-0.01 V 366.875 h -8.0957 v -1.43555 h 17.94921 z m -12.64648,3.84766 q -0.55664,0 -0.98633,0.23437 -0.41992,0.22461 -0.70312,0.58594 -0.28321,0.35156 -0.42969,0.80078 -0.13672,0.43945 -0.13672,0.86914 0,0.46875 0.16602,0.9375 0.16601,0.45898 0.46875,0.83008 0.3125,0.37109 0.74218,0.60547 0.42969,0.22461 0.94727,0.22461 0.43945,0 0.91797,-0.17578 0.48828,-0.18555 0.88867,-0.56641 0.41016,-0.38086 0.67383,-0.9668 0.26367,-0.5957 0.26367,-1.41601 v -0.47852 q -0.23437,-0.29297 -0.55664,-0.55664 -0.3125,-0.27344 -0.68359,-0.47852 -0.36133,-0.20507 -0.76172,-0.32226 -0.40039,-0.12695 -0.81055,-0.12695 z m 24.33594,8.49609 v 0.0488 q 0.44922,0.48828 0.94726,0.88867 0.49805,0.41016 0.95703,0.72266 0.46875,0.3125 0.85938,0.52734 0.40039,0.21484 0.6543,0.32227 l -0.69336,1.2207 q -0.61524,-0.32227 -1.23047,-0.75195 -0.60547,-0.42969 -1.18164,-0.89844 -0.56641,-0.46875 -1.07422,-0.95703 -0.49805,-0.48828 -0.89844,-0.92774 -0.83984,-0.0781 -1.42578,-0.30273 -0.57617,-0.22461 -0.94727,-0.53711 -0.36132,-0.3125 -0.52734,-0.67383 -0.16601,-0.36133 -0.16601,-0.70312 0,-0.24415 0.0781,-0.46875 0.0879,-0.22461 0.24414,-0.39063 0.16602,-0.16602 0.40039,-0.26367 0.24414,-0.0977 0.55664,-0.0977 0.33203,0 0.70313,0.11719 0.38086,0.11719 0.74218,0.35156 0.36133,0.23438 0.69336,0.59571 0.33204,0.35156 0.58594,0.83007 1.2207,-0.20507 1.8457,-0.82031 0.625,-0.625 0.625,-1.63086 0,-0.39062 -0.10742,-0.63476 -0.0977,-0.24414 -0.30273,-0.38086 -0.20508,-0.13672 -0.51758,-0.17578 -0.30273,-0.0488 -0.71289,-0.0488 h -2.68555 q -0.72265,0 -1.25,-0.30274 -0.52734,-0.3125 -0.8789,-0.78125 -0.3418,-0.47851 -0.50782,-1.04492 -0.16601,-0.57617 -0.16601,-1.10351 0,-0.57618 0.18555,-0.95704 0.18554,-0.39062 0.50781,-0.61523 0.32226,-0.23438 0.76172,-0.33203 0.44922,-0.0977 0.96679,-0.0977 h 3.40821 V 366.875 h -7.34375 v -1.43555 h 15.99609 v 1.43555 h -2.05078 V 380 h -1.60156 v -5.85938 l -0.0391,-0.01 q -0.2832,0.18555 -0.54687,0.30273 -0.25391,0.11719 -0.51758,0.18555 -0.25391,0.0684 -0.52734,0.0977 -0.27344,0.0195 -0.58594,0.0195 0.0586,0.32226 0.0586,0.68359 0,0.69336 -0.19531,1.29883 -0.19531,0.60547 -0.5957,1.10352 -0.40039,0.48828 -1.02539,0.8496 -0.61524,0.35157 -1.47461,0.54688 z m 2.05078,-8.83789 h -4.59961 q -0.73242,0 -1.00586,0.20508 -0.27344,0.20508 -0.27344,0.66406 0,0.21484 0.0586,0.46875 0.0586,0.24414 0.21484,0.45898 0.15625,0.20508 0.41992,0.35157 0.27344,0.13672 0.69336,0.13672 h 2.72461 q 0.83008,0 1.39649,0.19531 0.57617,0.19531 0.92773,0.55664 0.36133,0 0.70312,-0.0195 0.3418,-0.0293 0.6836,-0.12696 0.3418,-0.10742 0.70312,-0.30273 0.36133,-0.20508 0.75196,-0.55664 V 366.875 h -3.39844 z m 12.24609,-3.50586 h -2.05078 V 380 h -1.60156 v -13.125 h -2.22656 v -1.43555 h 5.8789 z m 14.28711,0 h -2.05078 v 13.13477 h -1.60156 v -9.1504 q -0.51758,-0.18554 -0.97656,-0.18554 -0.45899,0 -0.80079,0.17578 -0.34179,0.16601 -0.57617,0.44922 -0.22461,0.2832 -0.34179,0.66406 -0.11719,0.38086 -0.11719,0.80078 0,0.16602 0.01,0.3418 0.0195,0.16601 0.0391,0.33203 h -1.49414 q -0.0781,-0.56641 -0.18555,-1.08398 -0.0977,-0.51758 -0.29297,-0.90821 -0.18555,-0.39062 -0.48828,-0.61523 -0.30274,-0.23438 -0.78125,-0.23438 -0.45899,0 -0.79102,0.18555 -0.32226,0.18555 -0.53711,0.51758 -0.21484,0.33203 -0.32226,0.78125 -0.0977,0.43945 -0.0977,0.95703 0,1.11328 0.38086,2.00195 0.38086,0.87891 1.02539,1.58203 0.6543,0.70313 1.50391,1.25977 0.85937,0.54687 1.80664,1.00586 l -0.79102,1.34765 q -0.35156,-0.15625 -0.9082,-0.46875 -0.54687,-0.3125 -1.17187,-0.77148 -0.61524,-0.45898 -1.24024,-1.07422 -0.625,-0.61523 -1.13281,-1.37695 -0.49805,-0.76172 -0.81055,-1.67969 -0.3125,-0.91797 -0.3125,-1.98242 0,-0.82031 0.23438,-1.52344 0.23437,-0.71289 0.66406,-1.23047 0.43945,-0.52734 1.05469,-0.82031 0.61523,-0.30273 1.36718,-0.30273 0.56641,0 0.97657,0.16601 0.41015,0.15625 0.70312,0.40039 0.30274,0.23438 0.49805,0.51758 0.19531,0.27344 0.3418,0.51758 l 0.0488,-0.01 q 0.18555,-0.41015 0.43946,-0.69336 0.26367,-0.2832 0.5664,-0.45898 0.3125,-0.17578 0.6543,-0.25391 0.3418,-0.0879 0.68359,-0.0879 0.30274,0 0.59571,0.0586 0.30273,0.0488 0.57617,0.14648 V 366.875 h -11.31836 v -1.43555 h 14.9707 z m 5.19531,0 h -2.05078 V 380 h -1.60156 v -13.125 h -2.22656 v -1.43555 h 5.8789 z m 18.94532,0 h -2.05078 V 380 h -1.60157 v -5.47852 h -5.37109 v 1.16211 q 0,0.30274 -0.0293,0.53711 -0.0195,0.23438 -0.10742,0.39063 -0.0781,0.15625 -0.23437,0.24414 -0.14649,0.0781 -0.40039,0.0781 -0.25391,0 -0.56641,-0.14648 -0.3125,-0.15625 -0.63477,-0.41016 -0.32226,-0.26367 -0.625,-0.58593 -0.30273,-0.33204 -0.54687,-0.6836 -0.23438,-0.36133 -0.38086,-0.71289 -0.14649,-0.35156 -0.14649,-0.64453 0,-0.20508 0.0684,-0.33203 0.0781,-0.13672 0.20508,-0.20508 0.13672,-0.0684 0.32227,-0.0879 0.18554,-0.0293 0.41992,-0.0293 h 1.05469 v -6.2207 h -3.52539 v -1.43555 h 14.15039 z m -9.02344,0 v 6.2207 h 5.37109 v -6.2207 z m 14.21875,0 h -2.05078 V 380 h -1.60156 v -13.125 h -2.22657 v -1.43555 h 2.38282 q -0.17579,-0.99609 -0.44922,-1.69922 -0.27344,-0.71289 -0.59571,-1.18164 -0.32226,-0.47851 -0.67382,-0.75195 -0.35157,-0.27344 -0.67383,-0.41016 -0.33203,-0.13671 -0.61524,-0.17578 -0.29297,-0.0391 -0.47851,-0.0391 -0.60547,0 -0.9668,0.19531 -0.37109,0.18555 -0.56641,0.44922 -0.19531,0.26367 -0.2539,0.55664 -0.0684,0.28321 -0.0684,0.48828 0,0.0781 0.0293,0.32227 0.0195,0.23437 0.15625,0.5957 0.12695,0.36133 0.40039,0.81055 0.27343,0.44922 0.77148,0.94726 h -1.66016 q -0.61523,-0.70312 -0.91796,-1.45507 -0.3125,-0.76172 -0.3125,-1.47461 0,-0.59571 0.21484,-1.13282 0.21484,-0.5371 0.64453,-0.92773 0.42969,-0.40039 1.07422,-0.63477 0.64453,-0.23437 1.49414,-0.23437 1.17188,0 2.02148,0.45898 0.84961,0.44922 1.42579,1.23047 0.58593,0.78125 0.91796,1.83594 0.3418,1.04492 0.47852,2.22656 h 2.09961 z m 17.5293,12.91016 q -0.44922,0.16601 -1.10352,0.2832 -0.6543,0.11719 -1.48437,0.11719 -1.55274,0 -2.77344,-0.53711 -1.2207,-0.53711 -2.26563,-1.57227 -1.03515,-1.03515 -1.98242,-2.55859 -0.9375,-1.52344 -1.93359,-3.48633 l 1.29883,-0.74219 q 0.37109,0.70313 0.69336,1.00586 0.33203,0.29297 0.73242,0.29297 0.33203,0 0.57617,-0.18555 0.25391,-0.18554 0.41016,-0.47851 0.16601,-0.30274 0.24414,-0.6836 0.0879,-0.38086 0.0879,-0.76171 0,-0.43946 -0.0977,-0.91797 -0.0977,-0.47852 -0.26367,-0.94727 -0.16602,-0.46875 -0.39063,-0.9082 -0.21484,-0.44922 -0.45898,-0.82031 v -0.01 h -4.02344 v -1.43555 h 17.59766 V 366.875 H 493.4668 V 380 h -1.60157 v -4.74609 l -0.0391,-0.01 q -0.53711,0.52734 -1.1914,0.78125 -0.6543,0.25391 -1.29883,0.25391 -0.80078,0 -1.47461,-0.33203 -0.67383,-0.33204 -1.16211,-0.87891 -0.48828,-0.54688 -0.76172,-1.25 -0.27344,-0.70313 -0.27344,-1.45508 0,-0.71289 0.24414,-1.37695 0.25391,-0.66406 0.69336,-1.17188 0.44922,-0.51758 1.05469,-0.82031 0.61523,-0.30273 1.34766,-0.30273 0.41992,0 0.80078,0.0976 0.38086,0.0977 0.73242,0.27344 0.35156,0.17578 0.67383,0.41992 0.32226,0.23438 0.61523,0.50781 l 0.0391,-0.01 V 366.875 h -8.21289 q 0.49805,0.94727 0.78125,1.85547 0.28321,0.89844 0.28321,1.8164 0,0.625 -0.15625,1.24024 -0.15625,0.61523 -0.48828,1.11328 -0.32227,0.49805 -0.83008,0.83008 -0.50782,0.33203 -1.21094,0.39062 v 0.0488 q 0.67383,1.31836 1.40625,2.17774 0.74219,0.84961 1.50391,1.34765 0.76171,0.49805 1.52343,0.69336 0.77149,0.19531 1.50391,0.19531 0.83008,0 1.49414,-0.16601 0.66406,-0.17578 1.19141,-0.39063 z m 1.2207,-7.97852 q -0.17578,-0.22461 -0.43945,-0.50781 -0.25391,-0.29297 -0.58594,-0.54688 -0.32227,-0.2539 -0.72266,-0.41992 -0.39062,-0.17578 -0.84961,-0.17578 -0.46875,0 -0.84961,0.19531 -0.37109,0.18555 -0.64453,0.49805 -0.27343,0.3125 -0.41992,0.73242 -0.14648,0.41016 -0.14648,0.85938 0,0.46875 0.15625,0.89843 0.15625,0.41993 0.42968,0.74219 0.28321,0.32227 0.67383,0.51758 0.39063,0.18555 0.85938,0.18555 0.36133,0 0.80078,-0.13672 0.44922,-0.13672 0.83008,-0.44922 0.39062,-0.3125 0.64453,-0.83008 0.26367,-0.51758 0.26367,-1.2793 z m 1.45508,-6.09375 h -1.41602 l -0.88867,-1.66992 q -0.56641,-1.06445 -1.02539,-1.68945 -0.46875,-0.625 -0.87891,-0.94727 -0.41992,-0.33203 -0.82031,-0.41992 -0.40039,-0.0977 -0.83984,-0.0977 h -1.89453 v -1.58203 h 1.78711 q 0.5664,0 1.02539,0.0977 0.45898,0.0879 0.8789,0.33203 0.41016,0.23437 0.81055,0.66406 0.39062,0.41992 0.83984,1.09375 0.44922,0.66406 0.98633,1.60156 0.52734,0.92774 1.21094,2.19727 z m 6.88476,12.08008 q -0.86914,0 -1.58203,-0.32227 -0.71289,-0.32226 -1.23047,-0.88867 -0.50781,-0.57617 -0.79101,-1.34766 -0.28321,-0.78125 -0.28321,-1.67968 0,-0.97657 0.30274,-1.75782 0.30273,-0.79101 0.83008,-1.34765 0.53711,-0.55664 1.25,-0.84961 0.72265,-0.30274 1.55273,-0.30274 1.06445,0 2.01172,0.50782 0.94727,0.49804 1.89453,1.47461 0.43945,-0.6836 1.02539,-1.18164 0.58594,-0.50782 1.44531,-0.66407 V 366.875 h -11.80664 v -1.43555 H 513.125 v 1.43555 h -4.89258 v 2.60742 q 0.6543,0.15625 1.18164,0.51758 0.52735,0.36133 0.88867,0.86914 0.3711,0.50781 0.56641,1.14258 0.20508,0.625 0.20508,1.31836 0,1.01562 -0.35156,1.8457 -0.3418,0.83008 -0.92774,1.43555 -0.57617,0.5957 -1.31836,0.92773 -0.74219,0.32227 -1.5332,0.32227 -1.02539,0 -1.91406,-0.47852 -0.88868,-0.47851 -1.75782,-1.31836 -0.2539,0.3711 -0.5664,0.69336 -0.30274,0.3125 -0.67383,0.54688 -0.37109,0.22461 -0.82031,0.36133 -0.44922,0.12695 -0.9961,0.12695 z m 0.20508,-7.07031 q -0.58594,0 -1.05469,0.23437 -0.45898,0.22461 -0.79101,0.61524 -0.33203,0.38085 -0.50781,0.9082 -0.17579,0.51758 -0.17579,1.10351 0,0.50782 0.14649,0.9961 0.14648,0.48828 0.42969,0.86914 0.29297,0.38086 0.72265,0.61523 0.42969,0.23438 0.98633,0.23438 0.68359,0 1.16211,-0.3418 0.48828,-0.35156 0.85938,-0.9082 0.38085,-0.55664 0.69335,-1.25 0.3125,-0.70313 0.6543,-1.40625 -0.74219,-0.85938 -1.54297,-1.25977 -0.79101,-0.41015 -1.58203,-0.41015 z m 6.28906,5.64453 q 0.56641,0 1.07422,-0.17578 0.50782,-0.18555 0.88867,-0.54688 0.39063,-0.37109 0.61524,-0.91797 0.23437,-0.55664 0.23437,-1.30859 0,-0.47852 -0.12695,-0.94727 -0.11719,-0.46875 -0.37109,-0.83984 -0.25391,-0.37109 -0.6543,-0.5957 -0.39062,-0.23438 -0.92773,-0.23438 -0.47852,0 -0.85938,0.18555 -0.38086,0.17578 -0.69336,0.48828 -0.3125,0.30273 -0.57617,0.72266 -0.25391,0.41015 -0.48828,0.88867 -0.23438,0.46875 -0.46875,0.97656 -0.22461,0.49805 -0.47852,0.98633 0.24414,0.24414 0.54688,0.47851 0.3125,0.23438 0.66406,0.41993 0.36133,0.18554 0.77148,0.30273 0.41016,0.11719 0.84961,0.11719 z m 11.61133,-9.49219 h -2.05078 V 380 h -1.60156 v -13.125 h -2.22656 v -1.43555 h 5.8789 z m 13.52539,0 h -2.05078 V 380 h -1.62109 v -4.11133 l -0.0391,-0.0293 q -0.53711,0.48829 -1.05469,0.77149 -0.50781,0.27344 -0.95703,0.41992 -0.43946,0.13672 -0.80078,0.17578 -0.36133,0.0391 -0.59571,0.0391 -0.89844,0 -1.59179,-0.2832 -0.69336,-0.2832 -1.16211,-0.74219 -0.46875,-0.46875 -0.71289,-1.06445 -0.24415,-0.60547 -0.24415,-1.25 0,-0.67383 0.27344,-1.33789 0.28321,-0.66406 0.87891,-1.19141 l -0.01,-0.0391 h -3.0957 v -1.43555 h 7.85156 v 1.43555 h -1.00586 q -1.00586,0 -1.65039,0.26367 -0.64453,0.26368 -1.01562,0.64453 -0.3711,0.38086 -0.51758,0.82032 -0.13672,0.42968 -0.13672,0.78125 0,0.29297 0.0977,0.63476 0.0976,0.33203 0.32226,0.61524 0.23438,0.2832 0.61524,0.46875 0.39062,0.18554 0.97656,0.18554 0.61523,0 1.14258,-0.19531 0.53711,-0.20508 0.98633,-0.52734 0.44921,-0.32227 0.81054,-0.72266 0.3711,-0.41015 0.63477,-0.81055 V 366.875 h -10.53711 v -1.43555 h 14.20898 z m 5.19532,0 h -2.05079 V 380 h -1.60156 v -13.125 h -2.22656 v -1.43555 h 5.87891 z m 2.74414,10.89844 -1.5625,4.80468 h -1.14258 l 1.14258,-4.80468 z"
         id="path1" />
      <path
         d="m 355.53711,406.875 h -2.05078 V 420 h -1.60156 v -13.125 h -2.22657 v -1.43555 h 2.22657 q -0.53711,-1.28906 -0.53711,-2.40234 0,-0.71289 0.23437,-1.32813 0.23438,-0.61523 0.71289,-1.06445 0.48828,-0.44922 1.24024,-0.70312 0.75195,-0.25391 1.78711,-0.25391 1.35742,0 2.60742,0.43945 1.25976,0.43946 2.46093,1.22071 1.20118,0.78125 2.37305,1.85546 1.18164,1.07422 2.38281,2.34375 h -1.69921 q -0.27344,-0.26367 -0.73243,-0.68359 -0.44922,-0.42969 -1.04492,-0.9082 -0.5957,-0.48828 -1.31836,-0.97656 -0.72265,-0.49805 -1.52344,-0.89844 -0.80078,-0.40039 -1.66992,-0.64453 -0.85937,-0.25391 -1.73828,-0.25391 -0.71289,0 -1.20117,0.16602 -0.47852,0.16601 -0.78125,0.45898 -0.29297,0.29297 -0.41992,0.69336 -0.12696,0.39062 -0.12696,0.83984 0,0.87891 0.47852,2.09961 h 2.16797 z m 12.45117,0 h -3.31055 v 4.28711 h -3.29101 q -1.5332,0 -2.31445,0.76172 -0.78125,0.75195 -0.78125,2.16797 0,0.80078 0.2539,1.41601 0.26367,0.61524 0.71289,1.03516 0.45899,0.41015 1.08399,0.625 0.625,0.21484 1.35742,0.21484 0.77148,0 1.24023,-0.23437 -0.0391,-0.24414 -0.0586,-0.42969 -0.0195,-0.18555 -0.0195,-0.37109 0,-0.41016 0.0976,-0.83985 0.10743,-0.43945 0.3125,-0.79101 0.21485,-0.36133 0.53711,-0.58594 0.33203,-0.22461 0.79102,-0.22461 0.2832,0 0.53711,0.0977 0.2539,0.0976 0.43945,0.30273 0.19531,0.19531 0.30274,0.49805 0.11718,0.30273 0.11718,0.70312 0,0.40039 -0.10742,0.74219 -0.10742,0.33203 -0.2832,0.625 -0.16602,0.2832 -0.38086,0.53711 -0.21484,0.24414 -0.41992,0.44922 0.21484,0.46875 0.44922,0.83984 0.24414,0.3711 0.49804,0.66406 0.26367,0.29297 0.52735,0.52735 0.26367,0.23437 0.52734,0.43945 l -1.20117,1.25977 q -0.51758,-0.45899 -0.88867,-0.91797 -0.36133,-0.44922 -0.61524,-0.84961 -0.24414,-0.40039 -0.40039,-0.72266 -0.15625,-0.32226 -0.2539,-0.51758 -0.67383,0.26368 -1.66016,0.26368 -1.26953,0 -2.2168,-0.41016 -0.94726,-0.41992 -1.58203,-1.11328 -0.625,-0.70313 -0.9375,-1.60156 -0.3125,-0.89844 -0.3125,-1.86524 0,-1.00586 0.32227,-1.76758 0.32226,-0.77148 0.89843,-1.28906 0.57618,-0.52734 1.36719,-0.79101 0.80078,-0.27344 1.74805,-0.27344 h 2.00195 V 406.875 h -8.22265 v -1.43555 h 13.13476 z m 11.75781,0 h -2.05078 V 420 h -1.60156 v -3.48633 l -0.0391,-0.01 q -0.19532,0.18554 -0.45899,0.39062 -0.26367,0.19531 -0.60547,0.36133 -0.34179,0.15625 -0.77148,0.26367 -0.41992,0.10742 -0.94727,0.10742 -0.96679,0 -1.76757,-0.37109 -0.79102,-0.37109 -1.36719,-0.98633 -0.57617,-0.625 -0.89844,-1.42578 -0.3125,-0.81055 -0.3125,-1.68945 0,-0.87891 0.3125,-1.63086 0.32227,-0.76172 0.87891,-1.31836 0.55664,-0.55664 1.29883,-0.86914 0.74218,-0.32227 1.59179,-0.32227 0.23438,0 0.58594,0.0391 0.36133,0.0391 0.77148,0.17579 0.41016,0.13671 0.84961,0.40039 0.43946,0.2539 0.83985,0.69336 l 0.0391,-0.01 v -3.4375 h -8.78906 v -1.43555 h 12.4414 z m -3.61328,5.26367 q -0.61523,-0.74219 -1.33789,-1.1914 -0.72265,-0.45899 -1.64062,-0.45899 -0.72266,0 -1.23047,0.27344 -0.49805,0.27344 -0.82031,0.69336 -0.32227,0.41015 -0.46875,0.91797 -0.14649,0.50781 -0.14649,0.97656 0,0.50781 0.16602,1.00586 0.16601,0.49805 0.48828,0.89844 0.33203,0.39062 0.82031,0.64453 0.48828,0.24414 1.14258,0.24414 0.67383,0 1.23047,-0.25391 0.55664,-0.26367 0.95703,-0.66406 0.40039,-0.40039 0.61523,-0.89844 0.22461,-0.49805 0.22461,-0.9668 z m 18.01758,-6.69922 v 1.43555 h -2.05078 V 420 h -1.62109 v -6.5625 h -5.6543 q -0.51758,0.3418 -1.24024,0.41016 l -0.0195,0.0488 q 0.94727,1.48438 2.08008,2.76368 1.13281,1.27929 2.57813,2.37304 l -1.04493,1.20117 q -0.83007,-0.61523 -1.58203,-1.32812 -0.74218,-0.71289 -1.40625,-1.47461 -0.65429,-0.77148 -1.23047,-1.55273 -0.57617,-0.79102 -1.05468,-1.55274 -0.47852,-0.76172 -0.85938,-1.46484 -0.38086,-0.71289 -0.66406,-1.31836 l 1.33789,-0.72266 q 0.18555,0.42969 0.36133,0.72266 0.18554,0.2832 0.37109,0.45898 0.18555,0.16602 0.39063,0.24414 0.20507,0.0684 0.43945,0.0684 0.67383,0 0.98633,-0.52734 0.32226,-0.52734 0.32226,-1.38672 0,-0.50781 -0.0976,-0.99609 -0.0977,-0.49805 -0.25391,-0.94727 -0.14648,-0.45898 -0.32226,-0.85937 -0.17579,-0.40039 -0.33204,-0.72266 h -4.52148 v -1.43555 z m -3.67187,1.43555 h -5.20508 q 0.41015,0.88867 0.64453,1.78711 0.23437,0.89844 0.23437,1.78711 0,0.41015 -0.0684,0.81055 -0.0586,0.39062 -0.20507,0.74218 l 0.0195,0.0195 h 4.58008 z m 18.92578,0 h -3.68164 q 0.49804,0.85937 0.80078,1.75781 0.3125,0.88867 0.3125,1.80664 0,0.69336 -0.21485,1.33789 -0.20507,0.63477 -0.61523,1.14258 -0.40039,0.49805 -1.00586,0.82031 -0.5957,0.3125 -1.37695,0.35157 l -0.0195,0.0488 q 0.8789,1.36719 1.97265,2.5879 1.09375,1.21093 2.5293,2.30468 l -1.04492,1.20117 q -0.83008,-0.61523 -1.58203,-1.32812 -0.74219,-0.72266 -1.40625,-1.48438 -0.66407,-0.77148 -1.24024,-1.55273 -0.56641,-0.79102 -1.04492,-1.5332 -0.46875,-0.75196 -0.83984,-1.43555 -0.3711,-0.69336 -0.63477,-1.25977 l 1.33789,-0.72265 q 0.35156,0.76172 0.79102,1.20117 0.44921,0.42969 1.03515,0.42969 0.41992,0 0.75196,-0.21485 0.33203,-0.21484 0.55664,-0.54687 0.22461,-0.3418 0.34179,-0.74219 0.11719,-0.41015 0.11719,-0.80078 0,-0.45898 -0.11719,-0.89844 -0.11718,-0.44922 -0.30273,-0.86914 -0.18555,-0.42969 -0.41992,-0.83008 -0.22461,-0.40039 -0.43946,-0.77148 h -5.01953 v -1.43555 h 10.45899 z m 5.19531,0 h -2.05078 V 420 h -1.60156 v -13.125 h -2.22657 v -1.43555 h 5.87891 z m 11.48437,-1.43555 V 406.875 H 424.0332 V 420 h -1.60156 v -5.27344 l -0.0293,-0.01 -5.82031,3.93554 -0.84961,-1.29882 6.69922,-4.4336 q -0.64453,-0.53711 -1.11328,-0.9082 -0.45899,-0.3711 -0.82031,-0.5957 -0.36133,-0.23438 -0.67383,-0.33204 -0.3125,-0.10742 -0.64453,-0.10742 -0.28321,0 -0.625,0.0781 -0.33203,0.0781 -0.77149,0.23437 -0.43945,0.14649 -0.98633,0.38086 -0.54687,0.22461 -1.24023,0.52735 l -0.64453,-1.54297 q 0.70312,-0.30274 1.2793,-0.53711 0.57617,-0.24414 1.05468,-0.40039 0.47852,-0.16602 0.86914,-0.24414 0.40039,-0.0879 0.74219,-0.0879 0.36133,0 0.71289,0.12695 0.36133,0.11719 0.77149,0.38086 0.41992,0.2539 0.91797,0.65429 0.50781,0.4004 1.17187,0.95704 V 406.875 h -8.51562 v -1.43555 z m 17.5293,14.34571 q -0.44922,0.16601 -1.10351,0.2832 -0.6543,0.11719 -1.48438,0.11719 -1.55273,0 -2.77344,-0.53711 -1.2207,-0.53711 -2.26562,-1.57227 -1.03516,-1.03515 -1.98242,-2.55859 -0.9375,-1.52344 -1.9336,-3.48633 l 1.29883,-0.74219 q 0.37109,0.70313 0.69336,1.00586 0.33203,0.29297 0.73242,0.29297 0.33203,0 0.57617,-0.18555 0.25391,-0.18554 0.41016,-0.47851 0.16602,-0.30274 0.24414,-0.6836 0.0879,-0.38086 0.0879,-0.76171 0,-0.43946 -0.0977,-0.91797 -0.0976,-0.47852 -0.26367,-0.94727 -0.16601,-0.46875 -0.39062,-0.9082 -0.21485,-0.44922 -0.45899,-0.82031 v -0.01 h -4.02343 v -1.43555 h 17.59765 v 1.43555 h -2.05078 V 420 h -1.60156 v -4.74609 l -0.0391,-0.01 q -0.53711,0.52734 -1.19141,0.78125 -0.6543,0.25391 -1.29883,0.25391 -0.80078,0 -1.47461,-0.33203 -0.67383,-0.33204 -1.16211,-0.87891 -0.48828,-0.54688 -0.76172,-1.25 -0.27343,-0.70313 -0.27343,-1.45508 0,-0.71289 0.24414,-1.37695 0.2539,-0.66406 0.69336,-1.17188 0.44922,-0.51758 1.05468,-0.82031 0.61524,-0.30273 1.34766,-0.30273 0.41992,0 0.80078,0.0976 0.38086,0.0977 0.73242,0.27344 0.35157,0.17578 0.67383,0.41992 0.32227,0.23438 0.61524,0.50781 l 0.0391,-0.01 V 406.875 h -8.21289 q 0.49804,0.94727 0.78125,1.85547 0.2832,0.89844 0.2832,1.8164 0,0.625 -0.15625,1.24024 -0.15625,0.61523 -0.48828,1.11328 -0.32227,0.49805 -0.83008,0.83008 -0.50781,0.33203 -1.21094,0.39062 v 0.0488 q 0.67383,1.31836 1.40625,2.17774 0.74219,0.84961 1.50391,1.34765 0.76172,0.49805 1.52344,0.69336 0.77148,0.19531 1.5039,0.19531 0.83008,0 1.49414,-0.16601 0.66407,-0.17578 1.19141,-0.39063 z m 1.2207,-7.97852 q -0.17578,-0.22461 -0.43945,-0.50781 -0.25391,-0.29297 -0.58594,-0.54688 -0.32226,-0.2539 -0.72265,-0.41992 -0.39063,-0.17578 -0.84961,-0.17578 -0.46875,0 -0.84961,0.19531 -0.3711,0.18555 -0.64453,0.49805 -0.27344,0.3125 -0.41992,0.73242 -0.14649,0.41016 -0.14649,0.85938 0,0.46875 0.15625,0.89843 0.15625,0.41993 0.42969,0.74219 0.2832,0.32227 0.67383,0.51758 0.39062,0.18555 0.85937,0.18555 0.36133,0 0.80078,-0.13672 0.44922,-0.13672 0.83008,-0.44922 0.39063,-0.3125 0.64453,-0.83008 0.26367,-0.51758 0.26367,-1.2793 z m 1.45508,-6.09375 h -1.41601 l -0.88868,-1.66992 q -0.5664,-1.06445 -1.02539,-1.68945 -0.46875,-0.625 -0.8789,-0.94727 -0.41992,-0.33203 -0.82031,-0.41992 -0.4004,-0.0977 -0.83985,-0.0977 h -1.89453 v -1.58203 h 1.78711 q 0.56641,0 1.02539,0.0977 0.45898,0.0879 0.87891,0.33203 0.41015,0.23437 0.81054,0.66406 0.39063,0.41992 0.83985,1.09375 0.44922,0.66406 0.98633,1.60156 0.52734,0.92774 1.21093,2.19727 z m 6.88477,12.08008 q -0.86914,0 -1.58203,-0.32227 -0.71289,-0.32226 -1.23047,-0.88867 -0.50781,-0.57617 -0.79102,-1.34766 -0.2832,-0.78125 -0.2832,-1.67968 0,-0.97657 0.30273,-1.75782 0.30274,-0.79101 0.83008,-1.34765 0.53711,-0.55664 1.25,-0.84961 0.72266,-0.30274 1.55274,-0.30274 1.06445,0 2.01171,0.50782 0.94727,0.49804 1.89454,1.47461 0.43945,-0.6836 1.02539,-1.18164 0.58593,-0.50782 1.44531,-0.66407 V 406.875 h -11.80664 v -1.43555 h 18.29101 v 1.43555 h -4.89257 v 2.60742 q 0.65429,0.15625 1.18164,0.51758 0.52734,0.36133 0.88867,0.86914 0.37109,0.50781 0.5664,1.14258 0.20508,0.625 0.20508,1.31836 0,1.01562 -0.35156,1.8457 -0.3418,0.83008 -0.92773,1.43555 -0.57618,0.5957 -1.31836,0.92773 -0.74219,0.32227 -1.53321,0.32227 -1.02539,0 -1.91406,-0.47852 -0.88867,-0.47851 -1.75781,-1.31836 -0.25391,0.3711 -0.56641,0.69336 -0.30273,0.3125 -0.67383,0.54688 -0.37109,0.22461 -0.82031,0.36133 -0.44922,0.12695 -0.99609,0.12695 z m 0.20508,-7.07031 q -0.58594,0 -1.05469,0.23437 -0.45899,0.22461 -0.79102,0.61524 -0.33203,0.38085 -0.50781,0.9082 -0.17578,0.51758 -0.17578,1.10351 0,0.50782 0.14648,0.9961 0.14649,0.48828 0.42969,0.86914 0.29297,0.38086 0.72266,0.61523 0.42968,0.23438 0.98633,0.23438 0.68359,0 1.1621,-0.3418 0.48829,-0.35156 0.85938,-0.9082 0.38086,-0.55664 0.69336,-1.25 0.3125,-0.70313 0.6543,-1.40625 -0.74219,-0.85938 -1.54297,-1.25977 -0.79102,-0.41015 -1.58203,-0.41015 z m 6.28906,5.64453 q 0.5664,0 1.07422,-0.17578 0.50781,-0.18555 0.88867,-0.54688 0.39062,-0.37109 0.61523,-0.91797 0.23438,-0.55664 0.23438,-1.30859 0,-0.47852 -0.12695,-0.94727 -0.11719,-0.46875 -0.3711,-0.83984 -0.2539,-0.37109 -0.6543,-0.5957 -0.39062,-0.23438 -0.92773,-0.23438 -0.47852,0 -0.85937,0.18555 -0.38086,0.17578 -0.69336,0.48828 -0.3125,0.30273 -0.57618,0.72266 -0.2539,0.41015 -0.48828,0.88867 -0.23437,0.46875 -0.46875,0.97656 -0.22461,0.49805 -0.47851,0.98633 0.24414,0.24414 0.54687,0.47851 0.3125,0.23438 0.66406,0.41993 0.36133,0.18554 0.77149,0.30273 0.41016,0.11719 0.84961,0.11719 z m 18.65234,-9.49219 h -2.05078 V 420 h -1.5918 v -8.57422 h -3.17382 q -0.6543,0 -1.18164,0.0879 -0.52735,0.0781 -0.89844,0.33203 -0.3711,0.24414 -0.57617,0.69336 -0.19532,0.43946 -0.19532,1.16211 0,0.9375 0.30274,1.72852 0.3125,0.79101 0.79101,1.45508 0.47852,0.65429 1.05469,1.21093 0.58594,0.55664 1.12305,1.02539 l -0.97656,1.11328 q -0.0879,-0.0488 -0.41993,-0.2832 -0.32226,-0.24414 -0.76172,-0.6543 -0.42968,-0.41015 -0.91796,-0.99609 -0.47852,-0.58594 -0.88868,-1.31836 -0.40039,-0.74219 -0.67382,-1.63086 -0.26368,-0.88867 -0.26368,-1.91406 0,-1.01563 0.28321,-1.67969 0.29297,-0.67383 0.82031,-1.06445 0.52734,-0.40039 1.2793,-0.55664 0.75195,-0.15625 1.67968,-0.15625 h 3.59375 V 406.875 h -9.27734 v -1.43555 h 12.91992 z m 13.52539,0 h -2.05078 V 420 h -1.62109 v -4.11133 l -0.0391,-0.0293 q -0.53711,0.48829 -1.05469,0.77149 -0.50781,0.27344 -0.95703,0.41992 -0.43946,0.13672 -0.80078,0.17578 -0.36133,0.0391 -0.59571,0.0391 -0.89844,0 -1.59179,-0.2832 -0.69336,-0.2832 -1.16211,-0.74219 -0.46875,-0.46875 -0.71289,-1.06445 -0.24415,-0.60547 -0.24415,-1.25 0,-0.67383 0.27344,-1.33789 0.28321,-0.66406 0.87891,-1.19141 l -0.01,-0.0391 h -3.0957 v -1.43555 h 7.85156 v 1.43555 h -1.00586 q -1.00586,0 -1.65039,0.26367 -0.64453,0.26368 -1.01562,0.64453 -0.3711,0.38086 -0.51758,0.82032 -0.13672,0.42968 -0.13672,0.78125 0,0.29297 0.0977,0.63476 0.0977,0.33203 0.32226,0.61524 0.23438,0.2832 0.61524,0.46875 0.39062,0.18554 0.97656,0.18554 0.61523,0 1.14258,-0.19531 0.53711,-0.20508 0.98633,-0.52734 0.44921,-0.32227 0.81054,-0.72266 0.3711,-0.41015 0.63477,-0.81055 V 406.875 h -10.53711 v -1.43555 h 14.20898 z m 20.44922,0 h -2.05078 V 420 h -1.60156 v -8.47656 h -3.14453 l -0.01,0.0391 q 0.11719,0.13672 0.35156,0.41992 0.23438,0.27344 0.46875,0.6836 0.23438,0.40039 0.41016,0.91796 0.17578,0.50782 0.17578,1.10352 0,0.5957 -0.20508,1.18164 -0.19531,0.57617 -0.5957,1.04492 -0.39063,0.45899 -0.99609,0.74219 -0.60547,0.2832 -1.40625,0.2832 -0.79102,0 -1.45508,-0.27343 -0.6543,-0.28321 -1.20117,-0.75196 -0.53711,-0.46875 -0.9668,-1.08398 -0.42969,-0.61524 -0.77149,-1.29883 -0.33203,-0.69336 -0.58593,-1.39648 -0.24414,-0.7129 -0.41992,-1.35743 -0.17579,-0.65429 -0.28321,-1.20117 -0.10742,-0.54687 -0.16601,-0.9082 l 1.44531,-0.2832 q 0.32226,1.75781 0.78125,3.08593 0.46875,1.31836 1.03516,2.20703 0.5664,0.88868 1.2207,1.33789 0.6543,0.43946 1.36719,0.43946 0.50781,0 0.82031,-0.19531 0.3125,-0.20508 0.48828,-0.48829 0.17578,-0.29296 0.23437,-0.5957 0.0684,-0.3125 0.0684,-0.53711 0,-0.40039 -0.16601,-0.84961 -0.15625,-0.45898 -0.46875,-0.9082 -0.30274,-0.45899 -0.76172,-0.87891 -0.45898,-0.41992 -1.05469,-0.76172 v -1.14257 h 5.79102 V 406.875 h -12.00196 v -1.43555 h 15.6543 z m 5.19531,0 h -2.05078 V 420 h -1.60156 v -13.125 h -2.22656 v -1.43555 h 5.8789 z m 12.23633,0 h -2.05078 V 420 h -1.5918 v -8.57422 h -3.17382 q -0.6543,0 -1.18164,0.0879 -0.52735,0.0781 -0.89844,0.33203 -0.3711,0.24414 -0.57617,0.69336 -0.19532,0.43946 -0.19532,1.16211 0,0.9375 0.30274,1.72852 0.3125,0.79101 0.79101,1.45508 0.47852,0.65429 1.05469,1.21093 0.58594,0.55664 1.12305,1.02539 l -0.97656,1.11328 q -0.0879,-0.0488 -0.41993,-0.2832 -0.32226,-0.24414 -0.76172,-0.6543 -0.42968,-0.41015 -0.91796,-0.99609 -0.47852,-0.58594 -0.88868,-1.31836 -0.40039,-0.74219 -0.67382,-1.63086 -0.26368,-0.88867 -0.26368,-1.91406 0,-1.01563 0.28321,-1.67969 0.29297,-0.67383 0.82031,-1.06445 0.52734,-0.40039 1.2793,-0.55664 0.75195,-0.15625 1.67968,-0.15625 h 3.59375 V 406.875 h -9.27734 v -1.43555 h 12.91992 z m 5.19531,0 h -2.05078 V 420 h -1.60156 v -13.125 h -2.22656 v -1.43555 h 5.8789 z m -2.1875,-1.16211 h -1.41601 l -0.88867,-1.66992 q -0.56641,-1.06445 -1.03516,-1.68945 -0.45898,-0.625 -0.86914,-0.94727 -0.41992,-0.33203 -0.82031,-0.41992 -0.40039,-0.0977 -0.83985,-0.0977 h -1.89453 v -1.58203 h 1.78711 q 0.56641,0 1.02539,0.0977 0.45899,0.0879 0.87891,0.33203 0.41016,0.23437 0.80078,0.66406 0.40039,0.41992 0.84961,1.09375 0.44922,0.66406 0.97656,1.60156 0.53711,0.92774 1.22071,2.19727 z m 4.02344,14.50195 q -0.44922,0 -0.77148,-0.32226 -0.3125,-0.32227 -0.3125,-0.77149 0,-0.44922 0.3125,-0.77148 0.32226,-0.33203 0.77148,-0.33203 0.45899,0 0.78125,0.33203 0.32227,0.32226 0.32227,0.77148 0,0.44922 -0.32227,0.77149 -0.32226,0.32226 -0.78125,0.32226 z"
         id="path2" />
      <path
         d="m 355.53711,446.875 h -2.05078 V 460 h -1.60156 v -13.125 h -2.22657 v -1.43555 h 2.22657 q -0.53711,-1.28906 -0.53711,-2.40234 0,-0.71289 0.23437,-1.32813 0.23438,-0.61523 0.71289,-1.06445 0.48828,-0.44922 1.24024,-0.70312 0.75195,-0.25391 1.78711,-0.25391 1.35742,0 2.60742,0.43945 1.25976,0.43946 2.46093,1.22071 1.20118,0.78125 2.37305,1.85546 1.18164,1.07422 2.38281,2.34375 h -1.69921 q -0.27344,-0.26367 -0.73243,-0.68359 -0.44922,-0.42969 -1.04492,-0.9082 -0.5957,-0.48828 -1.31836,-0.97656 -0.72265,-0.49805 -1.52344,-0.89844 -0.80078,-0.40039 -1.66992,-0.64453 -0.85937,-0.25391 -1.73828,-0.25391 -0.71289,0 -1.20117,0.16602 -0.47852,0.16601 -0.78125,0.45898 -0.29297,0.29297 -0.41992,0.69336 -0.12696,0.39062 -0.12696,0.83984 0,0.87891 0.47852,2.09961 h 2.16797 z m 11.75781,0 h -2.05078 V 460 h -1.60156 v -3.48633 l -0.0391,-0.01 q -0.19532,0.18554 -0.45899,0.39062 -0.26367,0.19531 -0.60547,0.36133 -0.34179,0.15625 -0.77148,0.26367 -0.41992,0.10742 -0.94727,0.10742 -0.96679,0 -1.76758,-0.37109 -0.79101,-0.37109 -1.36718,-0.98633 -0.57618,-0.625 -0.89844,-1.42578 -0.3125,-0.81055 -0.3125,-1.68945 0,-0.87891 0.3125,-1.63086 0.32226,-0.76172 0.87891,-1.31836 0.55664,-0.55664 1.29882,-0.86914 0.74219,-0.32227 1.5918,-0.32227 0.23438,0 0.58594,0.0391 0.36133,0.0391 0.77148,0.17579 0.41016,0.13671 0.84961,0.40039 0.43945,0.2539 0.83985,0.69336 l 0.0391,-0.01 v -3.4375 h -8.78906 v -1.43555 h 12.4414 z m -3.61328,5.26367 q -0.61523,-0.74219 -1.33789,-1.1914 -0.72266,-0.45899 -1.64063,-0.45899 -0.72265,0 -1.23046,0.27344 -0.49805,0.27344 -0.82032,0.69336 -0.32226,0.41015 -0.46875,0.91797 -0.14648,0.50781 -0.14648,0.97656 0,0.50781 0.16601,1.00586 0.16602,0.49805 0.48829,0.89844 0.33203,0.39062 0.82031,0.64453 0.48828,0.24414 1.14258,0.24414 0.67382,0 1.23047,-0.25391 0.55664,-0.26367 0.95703,-0.66406 0.40039,-0.40039 0.61523,-0.89844 0.22461,-0.49805 0.22461,-0.9668 z m 13.38867,-5.26367 h -3.68164 q 0.49805,0.85937 0.80078,1.75781 0.3125,0.88867 0.3125,1.80664 0,0.69336 -0.21484,1.33789 -0.20508,0.63477 -0.61524,1.14258 -0.40039,0.49805 -1.00585,0.82031 -0.59571,0.3125 -1.37696,0.35157 l -0.0195,0.0488 q 0.87891,1.36719 1.97266,2.5879 1.09375,1.21093 2.52929,2.30468 l -1.04492,1.20117 q -0.83008,-0.61523 -1.58203,-1.32812 -0.74219,-0.72266 -1.40625,-1.48438 -0.66406,-0.77148 -1.24023,-1.55273 -0.56641,-0.79102 -1.04493,-1.5332 -0.46875,-0.75196 -0.83984,-1.43555 -0.37109,-0.69336 -0.63476,-1.25977 l 1.33789,-0.72265 q 0.35156,0.76172 0.79101,1.20117 0.44922,0.42969 1.03516,0.42969 0.41992,0 0.75195,-0.21485 0.33203,-0.21484 0.55664,-0.54687 0.22461,-0.3418 0.3418,-0.74219 0.11719,-0.41015 0.11719,-0.80078 0,-0.45898 -0.11719,-0.89844 -0.11719,-0.44922 -0.30274,-0.86914 -0.18554,-0.42969 -0.41992,-0.83008 -0.22461,-0.40039 -0.43945,-0.77148 h -5.01953 v -1.43555 h 10.45898 z m -5.8789,-4.41406 q 0,-0.55664 0.33203,-0.89844 0.32226,-0.35156 0.84961,-0.35156 0.24414,0 0.46875,0.0976 0.21484,0.0977 0.38086,0.27344 0.16601,0.16602 0.26367,0.40039 0.0879,0.22461 0.0879,0.49805 0,0.55664 -0.32227,0.89844 -0.33203,0.34179 -0.85937,0.34179 -0.25391,0 -0.46875,-0.0879 -0.22461,-0.0976 -0.38086,-0.26367 -0.16602,-0.17578 -0.25391,-0.40039 -0.0976,-0.23438 -0.0976,-0.50781 z m 18.34961,4.41406 h -2.05079 V 460 h -1.60156 v -13.125 h -4.4043 v 7.57812 q 0,0.15625 -0.0195,0.36133 -0.0195,0.20508 -0.0976,0.40039 -0.0684,0.18555 -0.20508,0.32227 -0.13672,0.12695 -0.38086,0.12695 -0.26367,0 -0.58594,-0.16601 -0.3125,-0.17578 -0.64453,-0.44922 -0.33203,-0.28321 -0.64453,-0.63477 -0.30273,-0.35156 -0.54688,-0.72265 -0.24414,-0.3711 -0.39062,-0.72266 -0.14648,-0.35156 -0.14648,-0.625 0,-0.24414 0.11718,-0.39063 0.12696,-0.14648 0.3418,-0.2246 0.22461,-0.0781 0.53711,-0.0977 0.32226,-0.0195 0.70312,-0.0195 h 0.3418 V 446.875 h -3.47656 v -1.43555 h 13.1543 z m -5.56641,13.41797 q 0.625,-0.39063 1.38672,-0.60547 0.75195,-0.21484 1.43554,-0.21484 0.59571,0 1.11329,0.17578 0.50781,0.16601 0.88867,0.48828 0.38086,0.33203 0.5957,0.80078 0.21484,0.46875 0.21484,1.05469 0,0.625 -0.2539,1.17187 -0.24414,0.54688 -0.74219,0.95703 -0.49805,0.41016 -1.23047,0.64453 -0.73242,0.24415 -1.69922,0.24415 -1.10351,0 -1.97265,-0.30274 -0.87891,-0.29297 -1.57227,-0.75195 -0.69336,-0.44922 -1.2207,-0.9961 -0.52735,-0.54687 -0.92774,-1.03515 l 0.90821,-1.06446 q 0.55664,0.60547 1.06445,1.09375 0.50781,0.48829 1.05469,0.83008 0.54687,0.35157 1.18164,0.53711 0.625,0.18555 1.41601,0.18555 0.67383,0 1.15235,-0.13672 0.46875,-0.12695 0.77148,-0.3418 0.30274,-0.20507 0.43946,-0.47851 0.13671,-0.26367 0.13671,-0.53711 0,-0.49805 -0.37109,-0.79102 -0.38086,-0.29297 -1.02539,-0.29297 -0.41992,0 -0.9668,0.14649 -0.55664,0.14648 -1.12304,0.48828 z m 10.26367,-2.5 q -0.86914,0 -1.58203,-0.32227 -0.71289,-0.32226 -1.23047,-0.88867 -0.50781,-0.57617 -0.79101,-1.34766 -0.28321,-0.78125 -0.28321,-1.67968 0,-0.97657 0.30274,-1.75782 0.30273,-0.79101 0.83007,-1.34765 0.53711,-0.55664 1.25,-0.84961 0.72266,-0.30274 1.55274,-0.30274 1.06445,0 2.01172,0.50782 0.94726,0.49804 1.89453,1.47461 0.43945,-0.6836 1.02539,-1.18164 0.58594,-0.50782 1.44531,-0.66407 V 446.875 h -11.80664 v -1.43555 h 18.29102 v 1.43555 h -4.89258 v 2.60742 q 0.6543,0.15625 1.18164,0.51758 0.52734,0.36133 0.88867,0.86914 0.3711,0.50781 0.56641,1.14258 0.20508,0.625 0.20508,1.31836 0,1.01562 -0.35157,1.8457 -0.34179,0.83008 -0.92773,1.43555 -0.57617,0.5957 -1.31836,0.92773 -0.74219,0.32227 -1.5332,0.32227 -1.02539,0 -1.91407,-0.47852 -0.88867,-0.47851 -1.75781,-1.31836 -0.2539,0.3711 -0.5664,0.69336 -0.30274,0.3125 -0.67383,0.54688 -0.3711,0.22461 -0.82032,0.36133 -0.44921,0.12695 -0.99609,0.12695 z m 0.20508,-7.07031 q -0.58594,0 -1.05469,0.23437 -0.45898,0.22461 -0.79101,0.61524 -0.33204,0.38085 -0.50782,0.9082 -0.17578,0.51758 -0.17578,1.10351 0,0.50782 0.14649,0.9961 0.14648,0.48828 0.42968,0.86914 0.29297,0.38086 0.72266,0.61523 0.42969,0.23438 0.98633,0.23438 0.68359,0 1.16211,-0.3418 0.48828,-0.35156 0.85937,-0.9082 0.38086,-0.55664 0.69336,-1.25 0.3125,-0.70313 0.6543,-1.40625 -0.74219,-0.85938 -1.54297,-1.25977 -0.79102,-0.41015 -1.58203,-0.41015 z m 6.28906,5.64453 q 0.56641,0 1.07422,-0.17578 0.50781,-0.18555 0.88867,-0.54688 0.39063,-0.37109 0.61524,-0.91797 0.23437,-0.55664 0.23437,-1.30859 0,-0.47852 -0.12695,-0.94727 -0.11719,-0.46875 -0.3711,-0.83984 -0.2539,-0.37109 -0.65429,-0.5957 -0.39063,-0.23438 -0.92774,-0.23438 -0.47851,0 -0.85937,0.18555 -0.38086,0.17578 -0.69336,0.48828 -0.3125,0.30273 -0.57617,0.72266 -0.25391,0.41015 -0.48828,0.88867 -0.23438,0.46875 -0.46875,0.97656 -0.22461,0.49805 -0.47852,0.98633 0.24414,0.24414 0.54688,0.47851 0.3125,0.23438 0.66406,0.41993 0.36133,0.18554 0.77148,0.30273 0.41016,0.11719 0.84961,0.11719 z m 11.61133,-9.49219 h -2.05078 V 460 h -1.60156 v -13.125 h -2.22657 v -1.43555 h 5.87891 z m 17.62695,0 h -2.05078 V 460 h -1.61133 v -7.5293 h -4.57031 q 0,0.64453 -0.0195,1.10352 -0.01,0.45898 -0.0781,0.76172 -0.0684,0.29297 -0.20507,0.42968 -0.13672,0.13672 -0.38086,0.13672 -0.50782,0 -0.9668,-0.33203 -0.44922,-0.33203 -0.80078,-0.80078 -0.3418,-0.46875 -0.54688,-0.97656 -0.20507,-0.50781 -0.20507,-0.85938 0,-0.3125 0.13671,-0.48828 0.13672,-0.17578 0.36133,-0.26367 0.22461,-0.0879 0.50782,-0.10742 0.29296,-0.0195 0.58593,-0.0195 h 6.18164 V 446.875 h -9.16992 v -1.43555 h 12.83203 z m 5.19532,0 h -2.05079 V 460 h -1.60156 v -13.125 h -2.22656 v -1.43555 h 5.87891 z m 6.8164,10.37109 q 0.32227,-0.0976 0.63477,-0.24414 0.32226,-0.14648 0.5664,-0.35156 0.25391,-0.21484 0.41016,-0.49805 0.15625,-0.2832 0.15625,-0.66406 0,-0.81055 -0.67383,-1.25976 -0.67383,-0.45899 -1.91406,-0.45899 -0.49805,0 -1.02539,0.10742 -0.51758,0.0977 -0.94727,0.3711 -0.42968,0.26367 -0.70312,0.73242 -0.27344,0.45898 -0.27344,1.17187 0,0.72266 0.2832,1.34766 0.28321,0.61523 0.73243,1.13281 0.45898,0.51758 1.02539,0.9375 0.5664,0.41992 1.12304,0.74219 0.56641,0.32227 1.06446,0.53711 0.49804,0.22461 0.83007,0.35156 l -0.64453,1.34766 q -0.68359,-0.29297 -1.39648,-0.64453 -0.70313,-0.3418 -1.36719,-0.76172 -0.66406,-0.41016 -1.25,-0.90821 -0.58594,-0.49804 -1.02539,-1.10351 -0.42969,-0.60547 -0.68359,-1.32813 -0.24414,-0.72265 -0.24414,-1.57226 0,-0.83008 0.21484,-1.44531 0.22461,-0.625 0.61523,-1.09375 -0.53711,-0.61524 -0.79101,-1.24024 -0.25391,-0.625 -0.25391,-1.35742 0,-0.41992 0.0977,-0.79102 0.10742,-0.37109 0.37109,-0.64453 0.27344,-0.2832 0.75196,-0.44922 0.47851,-0.16601 1.24023,-0.16601 h 4.42383 V 446.875 h -8.84766 v -1.43555 h 12.72461 v 1.43555 h -2.27539 v 3.59375 h -5.61523 q -0.38086,0 -0.64454,0.0684 -0.2539,0.0586 -0.41015,0.18555 -0.15625,0.12695 -0.22461,0.32226 -0.0586,0.18555 -0.0586,0.43945 0,0.3418 0.11718,0.66407 0.11719,0.32226 0.43946,0.72265 0.5664,-0.29297 1.24023,-0.42968 0.68359,-0.14649 1.42578,-0.14649 0.85938,0 1.60156,0.19531 0.75196,0.19532 1.29883,0.59571 0.55664,0.39062 0.86914,1.00586 0.32227,0.60547 0.32227,1.42578 0,0.79101 -0.27344,1.33789 -0.26367,0.54687 -0.67383,0.91797 -0.40039,0.37109 -0.8789,0.60547 -0.47852,0.22461 -0.88868,0.37109 z M 452.40234,446.875 h -2.05078 V 460 H 448.75 v -13.125 h -2.22656 v -1.43555 h 2.38281 q -0.17578,-0.99609 -0.44922,-1.69922 -0.27344,-0.71289 -0.5957,-1.18164 -0.32227,-0.47851 -0.67383,-0.75195 -0.35156,-0.27344 -0.67383,-0.41016 -0.33203,-0.13671 -0.61523,-0.17578 -0.29297,-0.0391 -0.47852,-0.0391 -0.60547,0 -0.9668,0.19531 -0.37109,0.18555 -0.5664,0.44922 -0.19531,0.26367 -0.25391,0.55664 -0.0684,0.28321 -0.0684,0.48828 0,0.0781 0.0293,0.32227 0.0195,0.23437 0.15625,0.5957 0.12695,0.36133 0.40039,0.81055 0.27344,0.44922 0.77148,0.94726 h -1.66015 q -0.61524,-0.70312 -0.91797,-1.45507 -0.3125,-0.76172 -0.3125,-1.47461 0,-0.59571 0.21484,-1.13282 0.21485,-0.5371 0.64453,-0.92773 0.42969,-0.40039 1.07422,-0.63477 0.64453,-0.23437 1.49414,-0.23437 1.17188,0 2.02149,0.45898 0.84961,0.44922 1.42578,1.23047 0.58594,0.78125 0.91797,1.83594 0.3418,1.04492 0.47851,2.22656 h 2.09961 z m 2.74414,10.89844 -1.5625,4.80468 h -1.14257 l 1.14257,-4.80468 z M 470.30273,446.875 h -8.76953 v -1.43555 h 8.76953 z m -7.14843,6.2793 q 0,-0.87891 0.30273,-1.63086 0.3125,-0.76172 0.85938,-1.31836 0.55664,-0.55664 1.30859,-0.86914 0.75195,-0.32227 1.64062,-0.32227 0.91797,0 1.69922,0.32227 0.79102,0.32226 1.39649,0.83008 0.60547,0.49804 0.99609,1.11328 0.40039,0.60547 0.53711,1.18164 -0.0195,1.23047 -0.32226,2.19726 -0.30274,0.95703 -0.84961,1.6211 -0.54688,0.66406 -1.33789,1.01562 -0.78125,0.3418 -1.76758,0.3418 -1.05469,0 -1.88477,-0.38086 -0.83008,-0.38086 -1.40625,-1.00586 -0.5664,-0.63477 -0.86914,-1.43555 -0.30273,-0.81054 -0.30273,-1.66015 z m 7.30468,-0.85938 q -0.64453,-0.86914 -1.39648,-1.33789 -0.75195,-0.46875 -1.66992,-0.46875 -0.72266,0 -1.23047,0.27344 -0.50781,0.26367 -0.83008,0.68359 -0.32226,0.41016 -0.46875,0.91797 -0.14648,0.49805 -0.14648,0.9668 0,0.49804 0.15625,1.00586 0.16601,0.49804 0.49804,0.9082 0.33203,0.40039 0.82032,0.6543 0.48828,0.24414 1.15234,0.24414 0.54687,0 1.08398,-0.20508 0.53711,-0.20508 0.97657,-0.6543 0.43945,-0.45898 0.72265,-1.1914 0.28321,-0.74219 0.33203,-1.79688 z m 11.66993,-5.41992 h -2.05079 V 460 h -1.60156 v -4.57031 l -0.0391,-0.01 q -0.26367,0.21485 -0.63477,0.42969 -0.36132,0.20508 -0.81054,0.37109 -0.44922,0.15625 -0.9668,0.26367 -0.51758,0.0977 -1.08398,0.0977 -1.13282,0 -1.94336,-0.41016 -0.80078,-0.41015 -1.34766,-1.09375 -0.53711,-0.69335 -0.84961,-1.57226 -0.3125,-0.88867 -0.44922,-1.8457 0.64453,-0.0879 1.10352,-0.30274 0.45898,-0.21484 0.74219,-0.50781 0.2832,-0.30274 0.41015,-0.6543 0.13672,-0.35156 0.13672,-0.70312 0,-0.23438 -0.0488,-0.52735 -0.0391,-0.29297 -0.14648,-0.625 -0.10742,-0.34179 -0.28321,-0.71289 -0.17578,-0.37109 -0.43945,-0.75195 h -2.82226 v -1.43555 h 13.125 z m -8.57422,0 q 0.35156,0.5957 0.54687,1.30859 0.20508,0.70313 0.20508,1.38672 0,0.49805 -0.13672,0.9668 -0.12695,0.46875 -0.40039,0.87891 -0.27344,0.40039 -0.68359,0.72265 -0.40039,0.3125 -0.9375,0.49805 0.15625,0.6543 0.42968,1.12305 0.27344,0.45898 0.64454,0.76171 0.37109,0.29297 0.83007,0.42969 0.45899,0.13672 0.98633,0.13672 0.50781,0 0.9961,-0.11719 0.49804,-0.11718 0.9375,-0.33203 0.44921,-0.22461 0.83007,-0.53711 0.38086,-0.3125 0.67383,-0.70312 V 446.875 Z m 22.97851,-1.43555 v 1.43555 h -2.05078 V 460 h -1.62109 v -6.5625 h -5.6543 q -0.51758,0.3418 -1.24023,0.41016 l -0.0195,0.0488 q 0.94726,1.48438 2.08007,2.76368 1.13282,1.27929 2.57813,2.37304 l -1.04492,1.20117 q -0.83008,-0.61523 -1.58203,-1.32812 -0.74219,-0.71289 -1.40625,-1.47461 -0.6543,-0.77148 -1.23047,-1.55273 -0.57618,-0.79102 -1.05469,-1.55274 -0.47852,-0.76172 -0.85938,-1.46484 -0.38086,-0.71289 -0.66406,-1.31836 l 1.33789,-0.72266 q 0.18555,0.42969 0.36133,0.72266 0.18555,0.2832 0.37109,0.45898 0.18555,0.16602 0.39063,0.24414 0.20508,0.0684 0.43945,0.0684 0.67383,0 0.98633,-0.52734 0.32227,-0.52734 0.32227,-1.38672 0,-0.50781 -0.0977,-0.99609 -0.0977,-0.49805 -0.25391,-0.94727 -0.14648,-0.45898 -0.32226,-0.85937 -0.17578,-0.40039 -0.33203,-0.72266 h -4.52149 v -1.43555 z m -3.67187,1.43555 h -5.20508 q 0.41016,0.88867 0.64453,1.78711 0.23438,0.89844 0.23438,1.78711 0,0.41015 -0.0684,0.81055 -0.0586,0.39062 -0.20508,0.74218 l 0.0195,0.0195 h 4.58008 z m 15.82031,0 h -2.05078 V 460 h -1.61133 v -7.5293 h -4.57031 q 0,0.64453 -0.0195,1.10352 -0.01,0.45898 -0.0781,0.76172 -0.0684,0.29297 -0.20508,0.42968 -0.13671,0.13672 -0.38086,0.13672 -0.50781,0 -0.96679,-0.33203 -0.44922,-0.33203 -0.80078,-0.80078 -0.3418,-0.46875 -0.54688,-0.97656 -0.20508,-0.50781 -0.20508,-0.85938 0,-0.3125 0.13672,-0.48828 0.13672,-0.17578 0.36133,-0.26367 0.22461,-0.0879 0.50781,-0.10742 0.29297,-0.0195 0.58594,-0.0195 h 6.18164 V 446.875 h -9.16992 v -1.43555 h 12.83203 z m 11.68945,12.34375 v 0.0488 q 0.44922,0.48828 0.94727,0.88867 0.49805,0.41016 0.95703,0.72266 0.46875,0.3125 0.85938,0.52734 0.40039,0.21484 0.65429,0.32227 l -0.69336,1.2207 q -0.61523,-0.32227 -1.23047,-0.75195 -0.60546,-0.42969 -1.18164,-0.89844 -0.5664,-0.46875 -1.07422,-0.95703 -0.49804,-0.48828 -0.89843,-0.92774 -0.83985,-0.0781 -1.42578,-0.30273 -0.57618,-0.22461 -0.94727,-0.53711 -0.36133,-0.3125 -0.52734,-0.67383 -0.16602,-0.36133 -0.16602,-0.70312 0,-0.24415 0.0781,-0.46875 0.0879,-0.22461 0.24414,-0.39063 0.16601,-0.16602 0.40039,-0.26367 0.24414,-0.0977 0.55664,-0.0977 0.33203,0 0.70312,0.11719 0.38086,0.11719 0.74219,0.35156 0.36133,0.23438 0.69336,0.59571 0.33203,0.35156 0.58594,0.83007 1.2207,-0.20507 1.8457,-0.82031 0.625,-0.625 0.625,-1.63086 0,-0.39062 -0.10742,-0.63476 -0.0977,-0.24414 -0.30274,-0.38086 -0.20507,-0.13672 -0.51757,-0.17578 -0.30274,-0.0488 -0.71289,-0.0488 h -2.68555 q -0.72266,0 -1.25,-0.30274 -0.52735,-0.3125 -0.87891,-0.78125 -0.34179,-0.47851 -0.50781,-1.04492 -0.16602,-0.57617 -0.16602,-1.10351 0,-0.57618 0.18555,-0.95704 0.18555,-0.39062 0.50781,-0.61523 0.32227,-0.23438 0.76172,-0.33203 0.44922,-0.0977 0.9668,-0.0977 h 3.4082 V 446.875 h -7.34375 v -1.43555 h 15.9961 v 1.43555 h -2.05079 V 460 h -1.60156 v -5.85938 l -0.0391,-0.01 q -0.2832,0.18555 -0.54688,0.30273 -0.2539,0.11719 -0.51757,0.18555 -0.25391,0.0684 -0.52735,0.0977 -0.27343,0.0195 -0.58593,0.0195 0.0586,0.32226 0.0586,0.68359 0,0.69336 -0.19531,1.29883 -0.19532,0.60547 -0.59571,1.10352 -0.40039,0.48828 -1.02539,0.8496 -0.61523,0.35157 -1.47461,0.54688 z m 2.05078,-8.83789 h -4.5996 q -0.73243,0 -1.00586,0.20508 -0.27344,0.20508 -0.27344,0.66406 0,0.21484 0.0586,0.46875 0.0586,0.24414 0.21485,0.45898 0.15625,0.20508 0.41992,0.35157 0.27344,0.13672 0.69336,0.13672 h 2.72461 q 0.83007,0 1.39648,0.19531 0.57617,0.19531 0.92774,0.55664 0.36132,0 0.70312,-0.0195 0.3418,-0.0293 0.68359,-0.12696 0.3418,-0.10742 0.70313,-0.30273 0.36133,-0.20508 0.75195,-0.55664 V 446.875 h -3.39844 z m 12.2461,-3.50586 h -2.05078 V 460 h -1.60157 v -13.125 h -2.22656 v -1.43555 h 5.87891 z m 14.28711,0 h -2.05078 v 13.13477 h -1.60157 v -9.1504 q -0.51757,-0.18554 -0.97656,-0.18554 -0.45898,0 -0.80078,0.17578 -0.3418,0.16601 -0.57617,0.44922 -0.22461,0.2832 -0.3418,0.66406 -0.11719,0.38086 -0.11719,0.80078 0,0.16602 0.01,0.3418 0.0195,0.16601 0.0391,0.33203 h -1.49414 q -0.0781,-0.56641 -0.18555,-1.08398 -0.0977,-0.51758 -0.29296,-0.90821 -0.18555,-0.39062 -0.48829,-0.61523 -0.30273,-0.23438 -0.78125,-0.23438 -0.45898,0 -0.79101,0.18555 -0.32227,0.18555 -0.53711,0.51758 -0.21484,0.33203 -0.32227,0.78125 -0.0977,0.43945 -0.0977,0.95703 0,1.11328 0.38086,2.00195 0.38086,0.87891 1.02539,1.58203 0.65429,0.70313 1.5039,1.25977 0.85938,0.54687 1.80664,1.00586 l -0.79101,1.34765 q -0.35156,-0.15625 -0.9082,-0.46875 -0.54688,-0.3125 -1.17188,-0.77148 -0.61523,-0.45898 -1.24023,-1.07422 -0.625,-0.61523 -1.13282,-1.37695 -0.49804,-0.76172 -0.81054,-1.67969 -0.3125,-0.91797 -0.3125,-1.98242 0,-0.82031 0.23437,-1.52344 0.23438,-0.71289 0.66406,-1.23047 0.43946,-0.52734 1.05469,-0.82031 0.61524,-0.30273 1.36719,-0.30273 0.56641,0 0.97656,0.16601 0.41016,0.15625 0.70313,0.40039 0.30273,0.23438 0.49804,0.51758 0.19532,0.27344 0.3418,0.51758 l 0.0488,-0.01 q 0.18555,-0.41015 0.43945,-0.69336 0.26367,-0.2832 0.56641,-0.45898 0.3125,-0.17578 0.6543,-0.25391 0.34179,-0.0879 0.68359,-0.0879 0.30273,0 0.5957,0.0586 0.30274,0.0488 0.57617,0.14648 V 446.875 h -11.31836 v -1.43555 h 14.97071 z m -2.1875,-1.16211 h -1.41602 l -0.88867,-1.66992 q -0.56641,-1.06445 -1.02539,-1.68945 -0.46875,-0.625 -0.87891,-0.94727 -0.41992,-0.33203 -0.82031,-0.41992 -0.40039,-0.0977 -0.83984,-0.0977 h -1.89453 v -1.58203 h 1.78711 q 0.5664,0 1.02539,0.0977 0.45898,0.0879 0.8789,0.33203 0.41016,0.23437 0.81055,0.66406 0.39062,0.41992 0.83984,1.09375 0.44922,0.66406 0.98633,1.60156 0.52734,0.92774 1.21094,2.19727 z m 4.93164,12.06055 -1.5625,4.80468 h -1.14258 l 1.14258,-4.80468 z"
         id="path3" />
      <path
         d="m 365.3125,486.875 h -2.05078 V 500 h -1.60156 v -8.47656 h -3.14454 l -0.01,0.0391 q 0.11719,0.13672 0.35156,0.41992 0.23438,0.27344 0.46875,0.6836 0.23438,0.40039 0.41016,0.91796 0.17578,0.50782 0.17578,1.10352 0,0.5957 -0.20508,1.18164 -0.19531,0.57617 -0.5957,1.04492 -0.39063,0.45899 -0.9961,0.74219 -0.60546,0.2832 -1.40625,0.2832 -0.79101,0 -1.45507,-0.27343 -0.6543,-0.28321 -1.20118,-0.75196 -0.53711,-0.46875 -0.96679,-1.08398 -0.42969,-0.61524 -0.77149,-1.29883 -0.33203,-0.69336 -0.58593,-1.39648 -0.24415,-0.7129 -0.41993,-1.35743 -0.17578,-0.65429 -0.2832,-1.20117 -0.10742,-0.54687 -0.16602,-0.9082 l 1.44532,-0.2832 q 0.32226,1.75781 0.78125,3.08593 0.46875,1.31836 1.03515,2.20703 0.56641,0.88868 1.22071,1.33789 0.65429,0.43946 1.36718,0.43946 0.50782,0 0.82032,-0.19531 0.3125,-0.20508 0.48828,-0.48829 0.17578,-0.29296 0.23437,-0.5957 0.0684,-0.3125 0.0684,-0.53711 0,-0.40039 -0.16601,-0.84961 -0.15625,-0.45898 -0.46875,-0.9082 -0.30274,-0.45899 -0.76172,-0.87891 -0.45899,-0.41992 -1.05469,-0.76172 v -1.14257 h 5.79102 V 486.875 H 349.6582 v -1.43555 h 15.6543 z m 5.19531,0 h -2.05078 V 500 h -1.60156 v -13.125 h -2.22656 v -1.43555 h 2.38281 q -0.17578,-0.99609 -0.44922,-1.69922 -0.27344,-0.71289 -0.5957,-1.18164 -0.32227,-0.47851 -0.67383,-0.75195 -0.35156,-0.27344 -0.67383,-0.41016 -0.33203,-0.13671 -0.61523,-0.17578 -0.29297,-0.0391 -0.47852,-0.0391 -0.60547,0 -0.9668,0.19531 -0.37109,0.18555 -0.5664,0.44922 -0.19532,0.26367 -0.25391,0.55664 -0.0684,0.28321 -0.0684,0.48828 0,0.0781 0.0293,0.32227 0.0195,0.23437 0.15625,0.5957 0.12695,0.36133 0.40039,0.81055 0.27344,0.44922 0.77148,0.94726 h -1.66015 q -0.61524,-0.70312 -0.91797,-1.45507 -0.3125,-0.76172 -0.3125,-1.47461 0,-0.59571 0.21484,-1.13282 0.21485,-0.5371 0.64453,-0.92773 0.42969,-0.40039 1.07422,-0.63477 0.64453,-0.23437 1.49414,-0.23437 1.17188,0 2.02149,0.45898 0.84961,0.44922 1.42578,1.23047 0.58594,0.78125 0.91797,1.83594 0.34179,1.04492 0.47851,2.22656 h 2.09961 z m 11.75781,0 h -2.05078 V 500 h -1.60156 v -3.48633 l -0.0391,-0.01 q -0.19531,0.18554 -0.45899,0.39062 -0.26367,0.19531 -0.60546,0.36133 -0.3418,0.15625 -0.77149,0.26367 -0.41992,0.10742 -0.94726,0.10742 -0.9668,0 -1.76758,-0.37109 -0.79102,-0.37109 -1.36719,-0.98633 -0.57617,-0.625 -0.89844,-1.42578 -0.3125,-0.81055 -0.3125,-1.68945 0,-0.87891 0.3125,-1.63086 0.32227,-0.76172 0.87891,-1.31836 0.55664,-0.55664 1.29883,-0.86914 0.74218,-0.32227 1.59179,-0.32227 0.23438,0 0.58594,0.0391 0.36133,0.0391 0.77149,0.17579 0.41015,0.13671 0.8496,0.40039 0.43946,0.2539 0.83985,0.69336 l 0.0391,-0.01 v -3.4375 h -8.78906 v -1.43555 h 12.4414 z m -3.61328,5.26367 q -0.61523,-0.74219 -1.33789,-1.1914 -0.72265,-0.45899 -1.64062,-0.45899 -0.72266,0 -1.23047,0.27344 -0.49805,0.27344 -0.82031,0.69336 -0.32227,0.41015 -0.46875,0.91797 -0.14649,0.50781 -0.14649,0.97656 0,0.50781 0.16602,1.00586 0.16601,0.49805 0.48828,0.89844 0.33203,0.39062 0.82031,0.64453 0.48828,0.24414 1.14258,0.24414 0.67383,0 1.23047,-0.25391 0.55664,-0.26367 0.95703,-0.66406 0.40039,-0.40039 0.61523,-0.89844 0.22461,-0.49805 0.22461,-0.9668 z m 15.76172,-5.26367 h -2.05078 V 500 h -1.61133 v -7.5293 h -4.57031 q 0,0.64453 -0.0195,1.10352 -0.01,0.45898 -0.0781,0.76172 -0.0684,0.29297 -0.20507,0.42968 -0.13672,0.13672 -0.38086,0.13672 -0.50782,0 -0.9668,-0.33203 -0.44922,-0.33203 -0.80078,-0.80078 -0.3418,-0.46875 -0.54688,-0.97656 -0.20507,-0.50781 -0.20507,-0.85938 0,-0.3125 0.13671,-0.48828 0.13672,-0.17578 0.36133,-0.26367 0.22461,-0.0879 0.50781,-0.10742 0.29297,-0.0195 0.58594,-0.0195 h 6.18164 V 486.875 h -9.16992 v -1.43555 h 12.83203 z m 12.29492,10.37109 q 0.32227,-0.0976 0.63477,-0.24414 0.32227,-0.14648 0.56641,-0.35156 0.2539,-0.21484 0.41015,-0.49805 0.15625,-0.2832 0.15625,-0.66406 0,-0.81055 -0.67383,-1.25976 -0.67382,-0.45899 -1.91406,-0.45899 -0.49805,0 -1.02539,0.10742 -0.51758,0.0977 -0.94726,0.3711 -0.42969,0.26367 -0.70313,0.73242 -0.27344,0.45898 -0.27344,1.17187 0,0.72266 0.28321,1.34766 0.2832,0.61523 0.73242,1.13281 0.45898,0.51758 1.02539,0.9375 0.5664,0.41992 1.12305,0.74219 0.5664,0.32227 1.06445,0.53711 0.49805,0.22461 0.83008,0.35156 l -0.64453,1.34766 q -0.6836,-0.29297 -1.39649,-0.64453 -0.70312,-0.3418 -1.36719,-0.76172 -0.66406,-0.41016 -1.25,-0.90821 -0.58593,-0.49804 -1.02539,-1.10351 -0.42968,-0.60547 -0.68359,-1.32813 -0.24414,-0.72265 -0.24414,-1.57226 0,-0.83008 0.21484,-1.44531 0.22461,-0.625 0.61524,-1.09375 -0.53711,-0.61524 -0.79102,-1.24024 -0.25391,-0.625 -0.25391,-1.35742 0,-0.41992 0.0977,-0.79102 0.10742,-0.37109 0.37109,-0.64453 0.27344,-0.2832 0.75196,-0.44922 0.47851,-0.16601 1.24023,-0.16601 h 4.42383 V 486.875 h -8.84766 v -1.43555 h 12.72461 v 1.43555 h -2.27539 v 3.59375 h -5.61523 q -0.38086,0 -0.64453,0.0684 -0.25391,0.0586 -0.41016,0.18555 -0.15625,0.12695 -0.22461,0.32226 -0.0586,0.18555 -0.0586,0.43945 0,0.3418 0.11719,0.66407 0.11718,0.32226 0.43945,0.72265 0.5664,-0.29297 1.24023,-0.42968 0.6836,-0.14649 1.42578,-0.14649 0.85938,0 1.60157,0.19531 0.75195,0.19532 1.29882,0.59571 0.55665,0.39062 0.86915,1.00586 0.32226,0.60547 0.32226,1.42578 0,0.79101 -0.27344,1.33789 -0.26367,0.54687 -0.67382,0.91797 -0.4004,0.37109 -0.87891,0.60547 -0.47852,0.22461 -0.88867,0.37109 z m 2.8125,-11.5332 h -1.41601 l -0.88867,-1.66992 q -0.56641,-1.06445 -1.02539,-1.68945 -0.46875,-0.625 -0.87891,-0.94727 -0.41992,-0.33203 -0.82031,-0.41992 -0.40039,-0.0977 -0.83985,-0.0977 h -1.89453 v -1.58203 h 1.78711 q 0.56641,0 1.02539,0.0977 0.45899,0.0879 0.87891,0.33203 0.41015,0.23437 0.81055,0.66406 0.39062,0.41992 0.83984,1.09375 0.44922,0.66406 0.98633,1.60156 0.52734,0.92774 1.21093,2.19727 z m 15.9375,1.16211 H 423.4082 V 500 h -1.62109 v -4.11133 l -0.0391,-0.0293 q -0.53711,0.48829 -1.05469,0.77149 -0.50781,0.27344 -0.95703,0.41992 -0.43946,0.13672 -0.80078,0.17578 -0.36133,0.0391 -0.59571,0.0391 -0.89843,0 -1.59179,-0.2832 -0.69336,-0.2832 -1.16211,-0.74219 -0.46875,-0.46875 -0.71289,-1.06445 -0.24414,-0.60547 -0.24414,-1.25 0,-0.67383 0.27343,-1.33789 0.28321,-0.66406 0.87891,-1.19141 l -0.01,-0.0391 h -3.0957 v -1.43555 h 7.85156 v 1.43555 h -1.00586 q -1.00586,0 -1.65039,0.26367 -0.64453,0.26368 -1.01562,0.64453 -0.3711,0.38086 -0.51758,0.82032 -0.13672,0.42968 -0.13672,0.78125 0,0.29297 0.0977,0.63476 0.0976,0.33203 0.32226,0.61524 0.23438,0.2832 0.61524,0.46875 0.39062,0.18554 0.97656,0.18554 0.61523,0 1.14258,-0.19531 0.53711,-0.20508 0.98633,-0.52734 0.44922,-0.32227 0.81054,-0.72266 0.3711,-0.41015 0.63477,-0.81055 V 486.875 H 411.25 v -1.43555 h 14.20898 z m 18.94532,0 h -2.05078 V 500 h -1.60157 v -5.47852 h -5.37109 v 1.16211 q 0,0.30274 -0.0293,0.53711 -0.0195,0.23438 -0.10742,0.39063 -0.0781,0.15625 -0.23437,0.24414 -0.14649,0.0781 -0.4004,0.0781 -0.2539,0 -0.5664,-0.14648 -0.3125,-0.15625 -0.63477,-0.41016 -0.32226,-0.26367 -0.625,-0.58593 -0.30273,-0.33204 -0.54687,-0.6836 -0.23438,-0.36133 -0.38086,-0.71289 -0.14649,-0.35156 -0.14649,-0.64453 0,-0.20508 0.0684,-0.33203 0.0781,-0.13672 0.20508,-0.20508 0.13672,-0.0684 0.32227,-0.0879 0.18554,-0.0293 0.41992,-0.0293 h 1.05469 v -6.2207 h -3.52539 v -1.43555 h 14.15039 z m -9.02344,0 v 6.2207 h 5.37109 v -6.2207 z m 14.21875,0 h -2.05078 V 500 h -1.60156 v -13.125 h -2.22657 v -1.43555 h 2.38282 q -0.17579,-0.99609 -0.44922,-1.69922 -0.27344,-0.71289 -0.59571,-1.18164 -0.32226,-0.47851 -0.67382,-0.75195 -0.35157,-0.27344 -0.67383,-0.41016 -0.33203,-0.13671 -0.61524,-0.17578 -0.29297,-0.0391 -0.47851,-0.0391 -0.60547,0 -0.9668,0.19531 -0.37109,0.18555 -0.56641,0.44922 -0.19531,0.26367 -0.2539,0.55664 -0.0684,0.28321 -0.0684,0.48828 0,0.0781 0.0293,0.32227 0.0195,0.23437 0.15625,0.5957 0.12695,0.36133 0.40039,0.81055 0.27343,0.44922 0.77148,0.94726 h -1.66016 q -0.61523,-0.70312 -0.91796,-1.45507 -0.3125,-0.76172 -0.3125,-1.47461 0,-0.59571 0.21484,-1.13282 0.21484,-0.5371 0.64453,-0.92773 0.42969,-0.40039 1.07422,-0.63477 0.64453,-0.23437 1.49414,-0.23437 1.17187,0 2.02148,0.45898 0.84961,0.44922 1.42579,1.23047 0.58593,0.78125 0.91796,1.83594 0.3418,1.04492 0.47852,2.22656 h 2.09961 z m 17.94922,0 h -2.05078 V 500 h -1.60157 v -13.125 h -4.40429 v 7.57812 q 0,0.15625 -0.0195,0.36133 -0.0195,0.20508 -0.0977,0.40039 -0.0684,0.18555 -0.20508,0.32227 -0.13672,0.12695 -0.38086,0.12695 -0.26367,0 -0.58594,-0.16601 -0.3125,-0.17578 -0.64453,-0.44922 -0.33203,-0.28321 -0.64453,-0.63477 -0.30273,-0.35156 -0.54687,-0.72265 -0.24414,-0.3711 -0.39063,-0.72266 -0.14648,-0.35156 -0.14648,-0.625 0,-0.24414 0.11719,-0.39063 0.12695,-0.14648 0.34179,-0.2246 0.22461,-0.0781 0.53711,-0.0977 0.32227,-0.0195 0.70313,-0.0195 h 0.34179 V 486.875 h -3.47656 v -1.43555 h 13.1543 z m 13.46679,0 h -2.05078 V 500 h -1.60156 v -5.47852 h -5.37109 v 1.16211 q 0,0.30274 -0.0293,0.53711 -0.0195,0.23438 -0.10742,0.39063 -0.0781,0.15625 -0.23438,0.24414 -0.14648,0.0781 -0.40039,0.0781 -0.2539,0 -0.5664,-0.14648 -0.3125,-0.15625 -0.63477,-0.41016 -0.32226,-0.26367 -0.625,-0.58593 -0.30273,-0.33204 -0.54687,-0.6836 -0.23438,-0.36133 -0.38086,-0.71289 -0.14649,-0.35156 -0.14649,-0.64453 0,-0.20508 0.0684,-0.33203 0.0781,-0.13672 0.20508,-0.20508 0.13672,-0.0684 0.32227,-0.0879 0.18554,-0.0293 0.41992,-0.0293 h 1.05468 v -6.2207 h -3.52539 v -1.43555 h 14.15039 z m -9.02343,0 v 6.2207 h 5.37109 v -6.2207 z m 14.21875,0 h -2.05078 V 500 h -1.60157 v -13.125 h -2.22656 v -1.43555 h 5.87891 z m 11.75781,0 h -2.05078 V 500 h -1.60156 v -3.48633 l -0.0391,-0.01 q -0.19531,0.18554 -0.45898,0.39062 -0.26367,0.19531 -0.60547,0.36133 -0.3418,0.15625 -0.77148,0.26367 -0.41993,0.10742 -0.94727,0.10742 -0.9668,0 -1.76758,-0.37109 -0.79101,-0.37109 -1.36719,-0.98633 -0.57617,-0.625 -0.89843,-1.42578 -0.3125,-0.81055 -0.3125,-1.68945 0,-0.87891 0.3125,-1.63086 0.32226,-0.76172 0.8789,-1.31836 0.55664,-0.55664 1.29883,-0.86914 0.74219,-0.32227 1.5918,-0.32227 0.23437,0 0.58594,0.0391 0.36132,0.0391 0.77148,0.17579 0.41016,0.13671 0.84961,0.40039 0.43945,0.2539 0.83984,0.69336 l 0.0391,-0.01 v -3.4375 h -8.78907 v -1.43555 h 12.44141 z m -3.61328,5.26367 q -0.61524,-0.74219 -1.33789,-1.1914 -0.72266,-0.45899 -1.64063,-0.45899 -0.72265,0 -1.23047,0.27344 -0.49804,0.27344 -0.82031,0.69336 -0.32226,0.41015 -0.46875,0.91797 -0.14648,0.50781 -0.14648,0.97656 0,0.50781 0.16601,1.00586 0.16602,0.49805 0.48828,0.89844 0.33204,0.39062 0.82032,0.64453 0.48828,0.24414 1.14257,0.24414 0.67383,0 1.23047,-0.25391 0.55664,-0.26367 0.95703,-0.66406 0.4004,-0.40039 0.61524,-0.89844 0.22461,-0.49805 0.22461,-0.9668 z M 510.20508,486.875 H 508.1543 V 500 h -1.5918 v -8.57422 h -3.17383 q -0.6543,0 -1.18164,0.0879 -0.52734,0.0781 -0.89844,0.33203 -0.37109,0.24414 -0.57617,0.69336 -0.19531,0.43946 -0.19531,1.16211 0,0.9375 0.30273,1.72852 0.3125,0.79101 0.79102,1.45508 0.47851,0.65429 1.05469,1.21093 0.58593,0.55664 1.12304,1.02539 l -0.97656,1.11328 q -0.0879,-0.0488 -0.41992,-0.2832 -0.32227,-0.24414 -0.76172,-0.6543 -0.42969,-0.41015 -0.91797,-0.99609 -0.47851,-0.58594 -0.88867,-1.31836 -0.40039,-0.74219 -0.67383,-1.63086 -0.26367,-0.88867 -0.26367,-1.91406 0,-1.01563 0.2832,-1.67969 0.29297,-0.67383 0.82032,-1.06445 0.52734,-0.40039 1.27929,-0.55664 0.75196,-0.15625 1.67969,-0.15625 h 3.59375 V 486.875 h -9.27734 v -1.43555 h 12.91992 z m 5.19531,0 h -2.05078 V 500 h -1.60156 v -13.125 h -2.22657 v -1.43555 h 5.87891 z m -2.1875,-1.16211 h -1.41602 l -0.88867,-1.66992 q -0.5664,-1.06445 -1.03515,-1.68945 -0.45899,-0.625 -0.86914,-0.94727 -0.41993,-0.33203 -0.82032,-0.41992 -0.40039,-0.0977 -0.83984,-0.0977 h -1.89453 v -1.58203 h 1.78711 q 0.5664,0 1.02539,0.0977 0.45898,0.0879 0.8789,0.33203 0.41016,0.23437 0.80079,0.66406 0.40039,0.41992 0.84961,1.09375 0.44921,0.66406 0.97656,1.60156 0.53711,0.92774 1.2207,2.19727 z m 4.02344,14.50195 q -0.44922,0 -0.77149,-0.32226 -0.3125,-0.32227 -0.3125,-0.77149 0,-0.44922 0.3125,-0.77148 0.32227,-0.33203 0.77149,-0.33203 0.45898,0 0.78125,0.33203 0.32226,0.32226 0.32226,0.77148 0,0.44922 -0.32226,0.77149 -0.32227,0.32226 -0.78125,0.32226 z"
         id="path4" />
    </g>
  </g>
</svg>
