<?xml version="1.0" encoding="UTF-8" standalone="no"?>
<svg
   width="800"
   height="600"
   version="1.1"
   id="svg4"
   sodipodi:docname="arnav_acting.svg"
   xmlns:inkscape="http://www.inkscape.org/namespaces/inkscape"
   xmlns:sodipodi="http://sodipodi.sourceforge.net/DTD/sodipodi-0.dtd"
   xmlns="http://www.w3.org/2000/svg"
   xmlns:svg="http://www.w3.org/2000/svg">
  <sodipodi:namedview
     id="namedview4"
     pagecolor="#ffffff"
     bordercolor="#666666"
     borderopacity="1.0"
     inkscape:showpageshadow="2"
     inkscape:pageopacity="0.0"
     inkscape:pagecheckerboard="0"
     inkscape:deskcolor="#d1d1d1" />
  <defs
     id="defs1">
    <style
       type="text/css"
       id="style1">
      @font-face {{
        font-family: 'Kalam';
        src: url('AxiDraw_API(1)/Kalam-Regular.ttf');
      }}
    </style>
  </defs>
  <g
     id="g4">
    <g
       id="text4"
       style="font-size:32px;font-family:Kalam"
       aria-label="अर्णव सागर जसा विस्तृत,अभिनय त्यातला तरंग सुंदरित.एक भावनांचा सागर गहन,दुसरा त्याचा प्रतिबिंब अद्भुत व मनन.">
      <path
         d="m 53.640625,86.1875 q 0.234375,0.734375 0.546875,1.609375 0.3125,0.859375 0.734375,1.75 0.4375,0.875 0.96875,1.703125 0.546875,0.828125 1.234375,1.46875 0.703125,0.640625 1.546875,1.03125 0.84375,0.375 1.875,0.375 1.015625,0 1.71875,-0.296875 0.703125,-0.296875 1.140625,-0.796875 0.4375,-0.5 0.625,-1.171875 0.203125,-0.671875 0.203125,-1.40625 0,-1.609375 -1.171875,-2.515625 -1.15625,-0.90625 -3.359375,-0.90625 -0.265625,0 -0.53125,0.01563 -0.265625,0.01563 -0.53125,0.04687 v -2.375 q 0.125,0.01563 0.21875,0.01563 0.109375,0 0.125,0 1.09375,0 1.9375,-0.265625 0.859375,-0.28125 1.4375,-0.75 Q 62.9375,83.25 63.234375,82.625 63.53125,82 63.53125,81.3125 q 0,-0.625 -0.21875,-1.109375 -0.21875,-0.484375 -0.59375,-0.8125 -0.375,-0.328125 -0.890625,-0.484375 -0.515625,-0.171875 -1.125,-0.171875 -0.421875,0 -0.8125,0.0625 Q 59.5,78.84375 59.0625,78.96875 q -0.4375,0.109375 -0.9375,0.296875 -0.484375,0.1875 -1.109375,0.46875 L 56.125,77.59375 Q 57.34375,77 58.46875,76.703125 q 1.125,-0.3125 2.296875,-0.3125 1.125,0 2.078125,0.359375 0.96875,0.359375 1.65625,1 0.703125,0.625 1.09375,1.5 0.390625,0.875 0.390625,1.890625 0,2.796875 -2.671875,4.5 v 0.0625 q 1.046875,0.4375 1.75,1.078125 0.453125,0.07813 0.953125,0.125 0.515625,0.04687 0.9375,0.04687 0.4375,0 0.921875,-0.0625 0.484375,-0.0625 0.984375,-0.234375 0.515625,-0.171875 1.03125,-0.484375 0.53125,-0.3125 1.0625,-0.8125 v -8.65625 h 5.84375 V 79 h -3.28125 v 21 h -2.5625 V 88.125 l -0.0625,-0.01563 Q 70,88.703125 69.21875,88.890625 q -0.78125,0.1875 -1.609375,0.1875 -0.265625,0 -0.546875,-0.01563 Q 66.78125,89.03125 66.484375,89 l -0.01563,0.0625 q 0.25,0.640625 0.25,1.578125 0,1.265625 -0.421875,2.34375 -0.421875,1.078125 -1.21875,1.875 -0.78125,0.78125 -1.90625,1.21875 -1.109375,0.4375 -2.5,0.4375 -1.484375,0 -2.6875,-0.515625 -1.1875,-0.53125 -2.15625,-1.359375 Q 54.875,93.8125 54.15625,92.78125 53.4375,91.734375 52.921875,90.6875 52.40625,89.640625 52.078125,88.703125 51.75,87.75 51.59375,87.125 Z M 100.51563,79 h -3.281255 v 21 h -2.5625 V 79 h -3.875 v 9.671875 q 0,1.625 -0.453125,2.796875 -0.4375,1.171875 -1.21875,1.9375 -0.765625,0.765625 -1.796875,1.140625 -1.03125,0.359375 -2.21875,0.359375 -1.328125,0 -2.40625,-0.421875 -1.0625,-0.421875 -1.8125,-1.25 -0.75,-0.828125 -1.15625,-2.046875 -0.40625,-1.234375 -0.40625,-2.828125 V 79 h -3.625 v -2.296875 h 24.812505 z m -18.593755,0 v 9.84375 q 0,0.71875 0.15625,1.390625 0.171875,0.65625 0.53125,1.171875 0.375,0.515625 0.96875,0.828125 0.609375,0.3125 1.484375,0.3125 0.890625,0 1.484375,-0.3125 0.609375,-0.3125 0.984375,-0.828125 0.375,-0.515625 0.53125,-1.171875 0.171875,-0.671875 0.171875,-1.390625 V 79 Z M 100.09375,69.875 Q 99.40625,69.09375 98.8125,68.734375 98.21875,68.375 97.421875,68.375 q -1.21875,0 -1.953125,0.84375 -0.734375,0.828125 -0.734375,2.34375 0,0.625 0.140625,1.3125 0.140625,0.671875 0.40625,1.359375 0.265625,0.6875 0.65625,1.359375 0.390625,0.671875 0.890625,1.28125 h -2.59375 q -0.9375,-1.328125 -1.40625,-2.71875 -0.46875,-1.40625 -0.46875,-2.734375 0,-1.28125 0.421875,-2.296875 Q 93.1875,68.109375 93.875,67.421875 94.5625,66.734375 95.484375,66.375 96.390625,66 97.40625,66 q 1.359375,0 2.421875,0.546875 1.078125,0.53125 2.015625,1.71875 z M 119.32813,79 h -3.28125 v 21 h -2.5625 v -5.578125 l -0.0625,-0.01563 q -0.3125,0.296875 -0.73438,0.625 -0.42187,0.3125 -0.96875,0.578125 -0.54687,0.25 -1.23437,0.421875 -0.67188,0.171875 -1.51563,0.171875 -1.54687,0 -2.82812,-0.59375 -1.26563,-0.59375 -2.1875,-1.578125 -0.92188,-1 -1.4375,-2.28125 -0.5,-1.296875 -0.5,-2.703125 0,-1.40625 0.5,-2.609375 0.51562,-1.21875 1.40625,-2.109375 Q 104.8125,83.4375 106,82.9375 q 1.1875,-0.515625 2.54688,-0.515625 0.375,0 0.9375,0.0625 0.57812,0.0625 1.23437,0.28125 0.65625,0.21875 1.35938,0.640625 0.70312,0.40625 1.34375,1.109375 L 113.48438,84.5 V 79 H 99.421875 v -2.296875 h 19.906255 z m -5.78125,8.421875 q -0.98438,-1.1875 -2.14063,-1.90625 -1.15625,-0.734375 -2.625,-0.734375 -1.15625,0 -1.96875,0.4375 -0.79687,0.4375 -1.3125,1.109375 -0.51562,0.65625 -0.75,1.46875 -0.23437,0.8125 -0.23437,1.5625 0,0.8125 0.26562,1.609375 0.26563,0.796875 0.78125,1.4375 0.53125,0.625 1.3125,1.03125 0.78125,0.390625 1.82813,0.390625 1.07812,0 1.96875,-0.40625 0.89062,-0.421875 1.53125,-1.0625 0.64062,-0.640625 0.98437,-1.4375 0.35938,-0.796875 0.35938,-1.546875 z m 37.59374,-10.71875 V 79 h -3.28125 v 21 h -2.59375 V 89.5 h -9.04687 q -0.82813,0.546875 -1.98438,0.65625 l -0.0312,0.07813 q 1.51563,2.375 3.32813,4.421875 1.8125,2.046875 4.125,3.796875 l -1.67188,1.921875 q -1.32812,-0.984375 -2.53125,-2.125 -1.1875,-1.140625 -2.25,-2.359375 -1.04687,-1.234375 -1.96875,-2.484375 -0.92187,-1.265625 -1.6875,-2.484375 -0.76562,-1.21875 -1.375,-2.34375 -0.60937,-1.140625 -1.0625,-2.109375 L 131.25,85.3125 q 0.29687,0.6875 0.57812,1.15625 0.29688,0.453125 0.59375,0.734375 0.29688,0.265625 0.625,0.390625 0.32813,0.109375 0.70313,0.109375 1.07812,0 1.57812,-0.84375 0.51563,-0.84375 0.51563,-2.21875 0,-0.8125 -0.15625,-1.59375 -0.15625,-0.796875 -0.40625,-1.515625 -0.23438,-0.734375 -0.51563,-1.375 Q 134.48437,79.515625 134.23437,79 H 127 V 76.703125 Z M 145.26562,79 h -8.32812 q 0.65625,1.421875 1.03125,2.859375 0.375,1.4375 0.375,2.859375 0,0.65625 -0.10938,1.296875 -0.0937,0.625 -0.32812,1.1875 l 0.0312,0.03125 h 7.32812 z m 14.1875,0 h -3.28125 v 21 h -2.5625 V 79 h -3.5625 v -2.296875 h 9.40625 z m 19.95313,0 H 176.125 v 21 h -2.5625 V 79 h -7.04688 v 12.125 q 0,0.25 -0.0312,0.578125 -0.0312,0.328125 -0.15625,0.640625 -0.10937,0.296875 -0.32812,0.515625 -0.21875,0.203125 -0.60938,0.203125 -0.42187,0 -0.9375,-0.265625 -0.5,-0.28125 -1.03125,-0.71875 -0.53125,-0.453125 -1.03125,-1.015625 -0.48437,-0.5625 -0.875,-1.15625 -0.39062,-0.59375 -0.625,-1.15625 -0.23437,-0.5625 -0.23437,-1 0,-0.390625 0.1875,-0.625 0.20312,-0.234375 0.54687,-0.359375 0.35938,-0.125 0.85938,-0.15625 0.51562,-0.03125 1.125,-0.03125 h 0.54687 V 79 h -5.5625 v -2.296875 h 21.04688 z m 15.64062,0 h -5.89062 q 0.79687,1.375 1.28125,2.8125 0.5,1.421875 0.5,2.890625 0,1.109375 -0.34375,2.140625 -0.32813,1.015625 -0.98438,1.828125 -0.64062,0.796875 -1.60937,1.3125 -0.95313,0.5 -2.20313,0.5625 l -0.0312,0.07813 q 1.40625,2.1875 3.15625,4.140625 1.75,1.9375 4.04688,3.6875 l -1.67188,1.921875 q -1.32812,-0.984375 -2.53125,-2.125 -1.1875,-1.15625 -2.25,-2.375 -1.0625,-1.234375 -1.98437,-2.484375 Q 183.625,92.125 182.85937,90.9375 q -0.75,-1.203125 -1.34375,-2.296875 Q 180.92187,87.53125 180.5,86.625 l 2.14062,-1.15625 q 0.5625,1.21875 1.26563,1.921875 0.71875,0.6875 1.65625,0.6875 0.67187,0 1.20312,-0.34375 0.53125,-0.34375 0.89063,-0.875 0.35937,-0.546875 0.54687,-1.1875 0.1875,-0.65625 0.1875,-1.28125 0,-0.734375 -0.1875,-1.4375 -0.1875,-0.71875 -0.48437,-1.390625 -0.29688,-0.6875 -0.67188,-1.328125 Q 186.6875,79.59375 186.34375,79 h -8.03125 v -2.296875 h 16.73437 z m 32.71875,0 h -3.28125 v 21 h -2.5625 V 86.4375 h -5.03125 L 216.875,86.5 q 0.1875,0.21875 0.5625,0.671875 0.375,0.4375 0.75,1.09375 0.375,0.640625 0.65625,1.46875 0.28125,0.8125 0.28125,1.765625 0,0.953125 -0.32813,1.890625 -0.3125,0.921875 -0.95312,1.671875 -0.625,0.734375 -1.59375,1.1875 -0.96875,0.453125 -2.25,0.453125 -1.26563,0 -2.32813,-0.4375 Q 210.625,95.8125 209.75,95.0625 q -0.85938,-0.75 -1.54688,-1.734375 -0.6875,-0.984375 -1.23437,-2.078125 -0.53125,-1.109375 -0.9375,-2.234375 -0.39063,-1.140625 -0.67188,-2.171875 -0.28125,-1.046875 -0.45312,-1.921875 -0.17188,-0.875 -0.26563,-1.453125 l 2.3125,-0.453125 q 0.51563,2.8125 1.25,4.9375 0.75,2.109375 1.65625,3.53125 0.90625,1.421875 1.95313,2.140625 1.04687,0.703125 2.1875,0.703125 0.8125,0 1.3125,-0.3125 0.5,-0.328125 0.78125,-0.78125 0.28125,-0.46875 0.375,-0.953125 0.10937,-0.5 0.10937,-0.859375 0,-0.640625 -0.26562,-1.359375 -0.25,-0.734375 -0.75,-1.453125 -0.48438,-0.734375 -1.21875,-1.40625 -0.73438,-0.671875 -1.6875,-1.21875 V 84.15625 h 9.26562 V 79 h -19.20312 v -2.296875 h 25.04687 z M 250.8125,76.703125 V 79 h -3.28125 v 21 H 244.9375 V 89.5 h -9.04688 q -0.82812,0.546875 -1.98437,0.65625 l -0.0312,0.07813 q 1.51562,2.375 3.32812,4.421875 1.8125,2.046875 4.125,3.796875 l -1.67187,1.921875 q -1.32813,-0.984375 -2.53125,-2.125 -1.1875,-1.140625 -2.25,-2.359375 -1.04688,-1.234375 -1.96875,-2.484375 -0.92188,-1.265625 -1.6875,-2.484375 -0.76563,-1.21875 -1.375,-2.34375 -0.60938,-1.140625 -1.0625,-2.109375 l 2.14062,-1.15625 Q 231.21875,86 231.5,86.46875 q 0.29687,0.453125 0.59375,0.734375 0.29687,0.265625 0.625,0.390625 0.32812,0.109375 0.70312,0.109375 1.07813,0 1.57813,-0.84375 0.51562,-0.84375 0.51562,-2.21875 0,-0.8125 -0.15625,-1.59375 Q 235.20312,82.25 234.95312,81.53125 234.71875,80.796875 234.4375,80.15625 234.15625,79.515625 233.90625,79 h -7.23438 V 76.703125 Z M 244.9375,79 h -8.32813 q 0.65625,1.421875 1.03125,2.859375 0.375,1.4375 0.375,2.859375 0,0.65625 -0.10937,1.296875 -0.0937,0.625 -0.32813,1.1875 l 0.0312,0.03125 h 7.32813 z m 14.1875,0 h -3.28125 v 21 h -2.5625 V 79 h -3.5625 v -2.296875 h 9.40625 z m 17.07812,0 h -3.28125 v 21 h -2.5625 V 79 h -3.5625 v -2.296875 h 3.5625 Q 269.5,74.640625 269.5,72.859375 q 0,-1.140625 0.375,-2.125 Q 270.25,69.75 271.01562,69.03125 271.79687,68.3125 273,67.90625 274.20312,67.5 275.85937,67.5 q 2.17188,0 4.17188,0.703125 2.01562,0.703125 3.9375,1.953125 1.92187,1.25 3.79687,2.96875 1.89063,1.71875 3.8125,3.75 h -2.71875 q -0.4375,-0.421875 -1.17187,-1.09375 -0.71875,-0.6875 -1.67188,-1.453125 -0.95312,-0.78125 -2.10937,-1.5625 -1.15625,-0.796875 -2.4375,-1.4375 -1.28125,-0.640625 -2.67188,-1.03125 -1.375,-0.40625 -2.78125,-0.40625 -1.14062,0 -1.92187,0.265625 -0.76563,0.265625 -1.25,0.734375 -0.46875,0.46875 -0.67188,1.109375 -0.20312,0.625 -0.20312,1.34375 0,1.40625 0.76562,3.359375 h 3.46875 z m 18.8125,0 h -3.28125 v 21 h -2.5625 v -5.578125 l -0.0625,-0.01563 q -0.3125,0.296875 -0.73437,0.625 -0.42188,0.3125 -0.96875,0.578125 -0.54688,0.25 -1.23438,0.421875 -0.67187,0.171875 -1.51562,0.171875 -1.54688,0 -2.82813,-0.59375 -1.26562,-0.59375 -2.1875,-1.578125 -0.92187,-1 -1.4375,-2.28125 -0.5,-1.296875 -0.5,-2.703125 0,-1.40625 0.5,-2.609375 0.51563,-1.21875 1.40625,-2.109375 Q 280.5,83.4375 281.6875,82.9375 q 1.1875,-0.515625 2.54687,-0.515625 0.375,0 0.9375,0.0625 0.57813,0.0625 1.23438,0.28125 0.65625,0.21875 1.35937,0.640625 0.70313,0.40625 1.34375,1.109375 L 289.17187,84.5 V 79 h -14.0625 v -2.296875 h 19.90625 z m -5.78125,8.421875 q -0.98437,-1.1875 -2.14062,-1.90625 -1.15625,-0.734375 -2.625,-0.734375 -1.15625,0 -1.96875,0.4375 -0.79688,0.4375 -1.3125,1.109375 -0.51563,0.65625 -0.75,1.46875 -0.23438,0.8125 -0.23438,1.5625 0,0.8125 0.26563,1.609375 0.26562,0.796875 0.78125,1.4375 0.53125,0.625 1.3125,1.03125 0.78125,0.390625 1.82812,0.390625 1.07813,0 1.96875,-0.40625 Q 287.25,93 287.89062,92.359375 288.53125,91.71875 288.875,90.921875 289.23437,90.125 289.23437,89.375 Z M 312.10937,89.5 h -8.96875 q -0.82812,0.546875 -1.98437,0.65625 l -0.0312,0.07813 q 1.51562,2.375 3.32812,4.421875 1.8125,2.046875 4.125,3.796875 l -1.67187,1.921875 q -1.32813,-0.984375 -2.53125,-2.125 -1.1875,-1.140625 -2.25,-2.359375 -1.04688,-1.234375 -1.96875,-2.484375 -0.92188,-1.265625 -1.6875,-2.484375 -0.76563,-1.21875 -1.375,-2.34375 -0.60938,-1.140625 -1.0625,-2.109375 l 2.14062,-1.15625 q 0.29688,0.6875 0.57813,1.15625 0.29687,0.453125 0.59375,0.734375 0.29687,0.265625 0.625,0.390625 0.32812,0.109375 0.70312,0.109375 1.07813,0 1.57813,-0.84375 0.51562,-0.84375 0.51562,-2.21875 0,-0.8125 -0.15625,-1.59375 Q 302.45312,82.25 302.20312,81.53125 301.96875,80.796875 301.6875,80.15625 301.40625,79.515625 301.15625,79 h -7.23438 v -2.296875 h 17.8125 V 79 h -7.875 q 0.65625,1.421875 1.03125,2.859375 0.375,1.4375 0.375,2.859375 0,0.65625 -0.10937,1.296875 -0.0937,0.625 -0.32813,1.1875 l 0.0312,0.03125 H 311.875 Z M 328.0625,79 h -3.28125 v 21 h -2.54688 V 86.28125 h -5.07812 q -1.04688,0 -1.89063,0.140625 -0.84375,0.125 -1.4375,0.53125 -0.59375,0.390625 -0.92187,1.109375 -0.3125,0.703125 -0.3125,1.859375 0,1.5 0.48437,2.765625 0.5,1.265625 1.26563,2.328125 0.76562,1.046875 1.6875,1.9375 0.9375,0.890625 1.79687,1.640625 l -1.5625,1.78125 q -0.14062,-0.0781 -0.67187,-0.453125 -0.51563,-0.390625 -1.21875,-1.046875 -0.6875,-0.65625 -1.46875,-1.59375 -0.76563,-0.9375 -1.42188,-2.109375 -0.64062,-1.1875 -1.07812,-2.609375 -0.42188,-1.421875 -0.42188,-3.0625 0,-1.625 0.45313,-2.6875 0.46875,-1.078125 1.3125,-1.703125 0.84375,-0.640625 2.04687,-0.890625 1.20313,-0.25 2.6875,-0.25 h 5.75 V 79 h -14.84375 v -2.296875 h 20.67188 z m -3.28125,22.54688 h -1.70313 q -1.48437,0 -2.20312,0.60937 -0.73438,0.625 -0.73438,1.51563 0,0.95312 0.78125,1.46875 0.76563,0.51562 2.23438,0.51562 0.70312,0 1.39062,-0.125 0.6875,-0.125 1.45313,-0.375 l 0.54687,2.25 q -0.79687,0.28125 -1.57812,0.4375 Q 324.1875,108 323.29687,108 q -1.20312,0 -2.20312,-0.3125 -1.01563,-0.3125 -1.73438,-0.89062 -0.73437,-0.57813 -1.14062,-1.42188 -0.42188,-0.82812 -0.42188,-1.89062 0,-1.10938 0.4375,-1.92188 0.4375,-0.79687 1.15625,-1.32812 0.71875,-0.51563 1.65625,-0.76563 0.92188,-0.25 1.92188,-0.25 h 1.8125 z M 347.64062,79 h -3.28125 v 21 H 341.8125 V 86.28125 h -5.07813 q -1.04687,0 -1.89062,0.140625 -0.84375,0.125 -1.4375,0.53125 -0.59375,0.390625 -0.92188,1.109375 -0.3125,0.703125 -0.3125,1.859375 0,1.5 0.48438,2.765625 0.5,1.265625 1.26562,2.328125 0.76563,1.046875 1.6875,1.9375 0.9375,0.890625 1.79688,1.640625 l -1.5625,1.78125 q -0.14063,-0.0781 -0.67188,-0.453125 -0.51562,-0.390625 -1.21875,-1.046875 -0.6875,-0.65625 -1.46875,-1.59375 -0.76562,-0.9375 -1.42187,-2.109375 -0.64063,-1.1875 -1.07813,-2.609375 -0.42187,-1.421875 -0.42187,-3.0625 0,-1.625 0.45312,-2.6875 0.46875,-1.078125 1.3125,-1.703125 0.84375,-0.640625 2.04688,-0.890625 1.20312,-0.25 2.6875,-0.25 h 5.75 V 79 h -14.84375 v -2.296875 h 20.67187 z m 4.39063,17.4375 -2.5,7.6875 h -1.82813 l 1.82813,-7.6875 z"
         id="path4" />
      <path
         d="m 53.640625,136.1875 q 0.234375,0.73437 0.546875,1.60937 0.3125,0.85938 0.734375,1.75 0.4375,0.875 0.96875,1.70313 0.546875,0.82812 1.234375,1.46875 0.703125,0.64062 1.546875,1.03125 0.84375,0.375 1.875,0.375 1.015625,0 1.71875,-0.29688 0.703125,-0.29687 1.140625,-0.79687 0.4375,-0.5 0.625,-1.17188 0.203125,-0.67187 0.203125,-1.40625 0,-1.60937 -1.171875,-2.51562 -1.15625,-0.90625 -3.359375,-0.90625 -0.265625,0 -0.53125,0.0156 -0.265625,0.0156 -0.53125,0.0469 v -2.375 q 0.125,0.0156 0.21875,0.0156 0.109375,0 0.125,0 1.09375,0 1.9375,-0.26562 0.859375,-0.28125 1.4375,-0.75 0.578125,-0.46875 0.875,-1.09375 0.296875,-0.625 0.296875,-1.3125 0,-0.625 -0.21875,-1.10938 -0.21875,-0.48437 -0.59375,-0.8125 -0.375,-0.32812 -0.890625,-0.48437 -0.515625,-0.17188 -1.125,-0.17188 -0.421875,0 -0.8125,0.0625 -0.390625,0.0469 -0.828125,0.17188 -0.4375,0.10937 -0.9375,0.29687 -0.484375,0.1875 -1.109375,0.46875 L 56.125,127.59375 q 1.21875,-0.59375 2.34375,-0.89062 1.125,-0.3125 2.296875,-0.3125 1.125,0 2.078125,0.35937 0.96875,0.35938 1.65625,1 0.703125,0.625 1.09375,1.5 0.390625,0.875 0.390625,1.89062 0,2.79688 -2.671875,4.5 v 0.0625 q 1.046875,0.4375 1.75,1.07813 0.453125,0.0781 0.953125,0.125 0.515625,0.0469 0.9375,0.0469 0.4375,0 0.921875,-0.0625 0.484375,-0.0625 0.984375,-0.23437 0.515625,-0.17188 1.03125,-0.48438 0.53125,-0.3125 1.0625,-0.8125 v -8.65624 h 5.84375 V 129 h -3.28125 v 21 h -2.5625 v -11.875 l -0.0625,-0.0156 Q 70,138.70312 69.21875,138.89062 q -0.78125,0.1875 -1.609375,0.1875 -0.265625,0 -0.546875,-0.0156 -0.28125,-0.0312 -0.578125,-0.0625 l -0.01563,0.0625 q 0.25,0.64062 0.25,1.57812 0,1.26563 -0.421875,2.34375 -0.421875,1.07813 -1.21875,1.875 -0.78125,0.78125 -1.90625,1.21875 -1.109375,0.4375 -2.5,0.4375 -1.484375,0 -2.6875,-0.51562 -1.1875,-0.53125 -2.15625,-1.35938 Q 54.875,143.8125 54.15625,142.78125 53.4375,141.73437 52.921875,140.6875 52.40625,139.64062 52.078125,138.70312 51.75,137.75 51.59375,137.125 Z M 85.109375,129 h -3.28125 v 21 h -2.5625 v -21 h -3.5625 v -2.29687 h 3.5625 q -0.859375,-2.0625 -0.859375,-3.84375 0,-1.14063 0.375,-2.125 0.375,-0.98438 1.140625,-1.70313 0.78125,-0.71875 1.984375,-1.125 1.203125,-0.40625 2.859375,-0.40625 2.171875,0 4.171875,0.70313 2.015625,0.70312 3.9375,1.95312 1.921875,1.25 3.796875,2.96875 1.890625,1.71875 3.812505,3.75 h -2.718755 q -0.4375,-0.42187 -1.171875,-1.09375 -0.71875,-0.6875 -1.671875,-1.45312 -0.953125,-0.78125 -2.109375,-1.5625 -1.15625,-0.79688 -2.4375,-1.4375 -1.28125,-0.64063 -2.671875,-1.03125 -1.375,-0.40625 -2.78125,-0.40625 -1.140625,0 -1.921875,0.26562 -0.765625,0.26563 -1.25,0.73438 -0.46875,0.46875 -0.671875,1.10937 -0.203125,0.625 -0.203125,1.34375 0,1.40625 0.765625,3.35938 h 3.46875 z m 22.937505,0 h -3.28125 v 21 h -2.5625 v -8.76563 H 94 v 2.23438 q 0,0.23437 -0.04687,0.5 -0.03125,0.26562 -0.15625,0.5 -0.109375,0.21875 -0.3125,0.375 -0.1875,0.14062 -0.484375,0.14062 -0.359375,0 -0.859375,-0.21875 -0.484375,-0.23437 -1.015625,-0.60937 -0.515625,-0.39063 -1.03125,-0.875 -0.5,-0.5 -0.90625,-1.03125 -0.390625,-0.53125 -0.640625,-1.0625 -0.25,-0.53125 -0.25,-0.98438 0,-0.65625 0.46875,-0.95312 0.46875,-0.29688 1.234375,-0.29688 h 1.515625 V 130.375 q 0,-0.8125 -0.390625,-1.23438 -0.390625,-0.4375 -0.984375,-0.4375 -0.65625,0 -1.109375,0.48438 -0.4375,0.48437 -0.4375,1.23437 0,0.14063 0.03125,0.34375 0.03125,0.20313 0.15625,0.46875 0.125,0.25 0.375,0.57813 0.25,0.3125 0.671875,0.67187 L 88.4375,134.1875 q -0.71875,-0.39063 -1.171875,-0.85938 -0.453125,-0.48437 -0.703125,-0.98437 -0.25,-0.5 -0.34375,-0.96875 -0.09375,-0.48438 -0.09375,-0.89063 0,-0.75 0.25,-1.46875 0.265625,-0.73437 0.78125,-1.31249 0.515625,-0.59375 1.28125,-0.95313 0.78125,-0.35937 1.8125,-0.35937 0.90625,0 1.609375,0.29687 0.703125,0.29688 1.171875,0.85938 0.484375,0.54687 0.71875,1.32812 0.25,0.76562 0.25,1.71875 v 8.35937 h 8.20313 v -12.24999 h 5.84375 z m 19.4375,0 h -3.28125 v 21 H 121.625 v -12.04688 h -7.3125 q 0,1.03125 -0.0312,1.76563 -0.0156,0.73437 -0.125,1.21875 -0.10937,0.46875 -0.32812,0.6875 -0.21875,0.21875 -0.60938,0.21875 -0.8125,0 -1.54687,-0.53125 -0.71875,-0.53125 -1.28125,-1.28125 -0.54688,-0.75 -0.875,-1.5625 -0.32813,-0.8125 -0.32813,-1.375 0,-0.5 0.21875,-0.78125 0.21875,-0.28125 0.57813,-0.42188 0.35937,-0.14062 0.8125,-0.17187 0.46875,-0.0312 0.9375,-0.0312 H 121.625 V 129 h -14.67187 v -2.29687 h 20.53125 z m 19.90624,0 h -3.28125 v 21 h -2.5625 v -7.3125 l -0.0625,-0.0156 q -0.42187,0.34375 -1.01562,0.6875 -0.57813,0.32813 -1.29688,0.59375 -0.71875,0.25 -1.54687,0.42188 -0.82813,0.15625 -1.73438,0.15625 -1.8125,0 -3.10937,-0.65625 -1.28125,-0.65625 -2.15625,-1.75 -0.85938,-1.10938 -1.35938,-2.51563 -0.5,-1.42187 -0.71875,-2.95312 1.03125,-0.14063 1.76563,-0.48438 0.73437,-0.34375 1.1875,-0.8125 0.45312,-0.48437 0.65625,-1.04687 0.21875,-0.5625 0.21875,-1.125 0,-0.375 -0.0781,-0.84375 -0.0625,-0.46875 -0.23437,-1 -0.17188,-0.54688 -0.45313,-1.14063 -0.28125,-0.59375 -0.70312,-1.20312 h -4.51562 v -2.29687 h 20.99999 z m -13.71875,0 q 0.5625,0.95312 0.875,2.09375 0.32813,1.125 0.32813,2.21875 0,0.79687 -0.21875,1.54687 -0.20313,0.75 -0.64063,1.40625 -0.4375,0.64063 -1.09375,1.15625 -0.64062,0.5 -1.5,0.79688 0.25,1.04687 0.6875,1.79687 0.4375,0.73438 1.03125,1.21875 0.59375,0.46875 1.32813,0.6875 0.73437,0.21875 1.57812,0.21875 0.8125,0 1.59375,-0.1875 0.79688,-0.1875 1.5,-0.53125 0.71875,-0.35937 1.32813,-0.85937 0.60937,-0.5 1.07812,-1.125 V 129 Z m 51.14063,0 h -3.28125 v 21 h -2.5625 v -7.3125 l -0.0625,-0.0156 q -0.42188,0.34375 -1.01563,0.6875 -0.57812,0.32813 -1.29687,0.59375 -0.71875,0.25 -1.54688,0.42188 -0.82812,0.15625 -1.73437,0.15625 -1.46875,0 -2.51563,-0.40625 -1.03125,-0.40625 -1.78125,-1.04688 -0.73437,-0.65625 -1.26562,-1.46875 -0.51563,-0.82812 -0.95313,-1.65625 -0.35937,-0.67187 -0.73437,-1.26562 -0.35938,-0.60938 -0.8125,-1.0625 -0.45313,-0.46875 -1.01563,-0.73438 -0.5625,-0.28125 -1.3125,-0.28125 -1.375,0 -2.01562,0.92188 -0.64063,0.90625 -0.64063,2.45312 0,1.48438 0.5,2.75 0.51563,1.25 1.28125,2.3125 0.78125,1.0625 1.70313,1.95313 0.92187,0.875 1.75,1.59375 l -1.5625,1.78125 q -0.14063,-0.0781 -0.67188,-0.46875 -0.51562,-0.40625 -1.21875,-1.07813 -0.6875,-0.6875 -1.46875,-1.625 -0.76562,-0.95312 -1.42187,-2.10937 -0.64063,-1.17188 -1.07813,-2.54688 -0.42187,-1.375 -0.42187,-2.90625 0,-1.5 0.45312,-2.54687 0.45313,-1.0625 1.17188,-1.71875 0.73437,-0.67188 1.625,-0.98438 0.89062,-0.3125 1.78125,-0.3125 1.17187,0 2.3125,0.5 1.15625,0.5 2.28125,1.78125 0.67187,-0.23437 1.14062,-0.57812 0.48438,-0.35938 0.78125,-0.76563 0.3125,-0.42187 0.45313,-0.89062 0.14062,-0.46875 0.14062,-0.9375 0,-0.375 -0.0781,-0.84375 -0.0625,-0.46875 -0.23438,-1 -0.17187,-0.54688 -0.45312,-1.14063 Q 168.75,129.60937 168.32812,129 H 155.0625 v -2.29687 h 29.75 z m -13.71875,0 q 0.5625,0.95312 0.875,2.09375 0.32812,1.125 0.32812,2.21875 0,0.79687 -0.21875,1.54687 -0.20312,0.75 -0.64062,1.40625 -0.4375,0.64063 -1.09375,1.15625 -0.64063,0.5 -1.5,0.79688 0.25,1.04687 0.6875,1.79687 0.4375,0.73438 1.03125,1.21875 0.59375,0.46875 1.32812,0.6875 0.73438,0.21875 1.57813,0.21875 0.8125,0 1.59375,-0.1875 0.79687,-0.1875 1.5,-0.53125 0.71875,-0.35937 1.32812,-0.85937 0.60938,-0.5 1.07813,-1.125 V 129 Z m 22.03125,0 h -3.28125 v 21 h -2.5625 v -21 h -3.5625 v -2.29687 h 9.40625 z m 19.57812,0 h -3.28125 v 21 H 206.875 v -13.71875 h -5.07813 q -1.04687,0 -1.89062,0.14062 -0.84375,0.125 -1.4375,0.53125 -0.59375,0.39063 -0.92188,1.10938 -0.3125,0.70312 -0.3125,1.85937 0,1.5 0.48438,2.76563 0.5,1.26562 1.26562,2.32812 0.76563,1.04688 1.6875,1.9375 0.9375,0.89063 1.79688,1.64063 l -1.5625,1.78125 q -0.14063,-0.0781 -0.67188,-0.45313 -0.51562,-0.39062 -1.21875,-1.04687 -0.6875,-0.65625 -1.46875,-1.59375 -0.76562,-0.9375 -1.42187,-2.10938 -0.64063,-1.1875 -1.07813,-2.60937 -0.42187,-1.42188 -0.42187,-3.0625 0,-1.625 0.45312,-2.6875 0.46875,-1.07813 1.3125,-1.70313 0.84375,-0.64062 2.04688,-0.89062 1.20312,-0.25 2.6875,-0.25 h 5.75 V 129 h -14.84375 v -2.29687 h 20.67187 z m 22.85938,0 h -3.28125 v 21.01562 h -2.5625 V 135.375 q -0.82813,-0.29688 -1.5625,-0.29688 -0.73438,0 -1.28125,0.28125 -0.54688,0.26563 -0.92188,0.71875 -0.35937,0.45313 -0.54687,1.0625 -0.1875,0.60938 -0.1875,1.28125 0,0.26563 0.0156,0.54688 0.0312,0.26562 0.0625,0.53125 h -2.39062 q -0.125,-0.90625 -0.29688,-1.73438 -0.15625,-0.82812 -0.46875,-1.45312 -0.29687,-0.625 -0.78125,-0.98438 -0.48437,-0.375 -1.25,-0.375 -0.73437,0 -1.26562,0.29688 -0.51563,0.29687 -0.85938,0.82812 -0.34375,0.53125 -0.51562,1.25 -0.15625,0.70313 -0.15625,1.53125 0,1.78125 0.60937,3.20313 0.60938,1.40625 1.64063,2.53125 1.04687,1.125 2.40625,2.01562 1.375,0.875 2.89062,1.60938 l -1.26562,2.15625 q -0.5625,-0.25 -1.45313,-0.75 -0.875,-0.5 -1.875,-1.23438 -0.98437,-0.73437 -1.98437,-1.71875 -1,-0.98437 -1.8125,-2.20312 -0.79688,-1.21875 -1.29688,-2.6875 -0.5,-1.46875 -0.5,-3.17188 0,-1.3125 0.375,-2.4375 0.375,-1.14062 1.0625,-1.96875 0.70313,-0.84375 1.6875,-1.3125 0.98438,-0.48437 2.1875,-0.48437 0.90625,0 1.5625,0.26562 0.65625,0.25 1.125,0.64063 0.48438,0.375 0.79688,0.82812 0.3125,0.4375 0.54687,0.82813 l 0.0781,-0.0156 q 0.29687,-0.65625 0.70312,-1.10937 0.42188,-0.45313 0.90625,-0.73438 0.5,-0.28125 1.04688,-0.40625 0.54687,-0.14062 1.09375,-0.14062 0.48437,0 0.95312,0.0937 0.48438,0.0781 0.92188,0.23437 V 129 h -18.10938 v -2.29687 h 23.95313 z m 8.3125,0 h -3.28125 v 21 h -2.5625 v -21 h -3.5625 v -2.29687 h 9.40625 z m 28.34375,0 h -3.28125 v 21 h -2.54688 v -13.71875 h -5.07812 q -1.04688,0 -1.89063,0.14062 -0.84375,0.125 -1.4375,0.53125 -0.59375,0.39063 -0.92187,1.10938 -0.3125,0.70312 -0.3125,1.85937 0,1.5 0.48437,2.76563 0.5,1.26562 1.26563,2.32812 0.76562,1.04688 1.6875,1.9375 0.9375,0.89063 1.79687,1.64063 l -1.5625,1.78125 q -0.14062,-0.0781 -0.67187,-0.45313 -0.51563,-0.39062 -1.21875,-1.04687 -0.6875,-0.65625 -1.46875,-1.59375 -0.76563,-0.9375 -1.42188,-2.10938 -0.64062,-1.1875 -1.07812,-2.60937 -0.42188,-1.42188 -0.42188,-3.0625 0,-1.625 0.45313,-2.6875 0.46875,-1.07813 1.3125,-1.70313 0.84375,-0.64062 2.04687,-0.89062 1.20313,-0.25 2.6875,-0.25 h 5.75 V 129 h -14.84375 v -2.29687 h 20.67188 z m 15.64062,0 h -5.89062 q 0.79687,1.375 1.28125,2.8125 0.5,1.42187 0.5,2.89062 0,1.10938 -0.34375,2.14063 -0.32813,1.01562 -0.98438,1.82812 -0.64062,0.79688 -1.60937,1.3125 -0.95313,0.5 -2.20313,0.5625 l -0.0312,0.0781 q 1.40625,2.1875 3.15625,4.14062 1.75,1.9375 4.04688,3.6875 l -1.67188,1.92188 q -1.32812,-0.98438 -2.53125,-2.125 -1.1875,-1.15625 -2.25,-2.375 -1.0625,-1.23438 -1.98437,-2.48438 -0.90625,-1.26562 -1.67188,-2.45312 -0.75,-1.20313 -1.34375,-2.29688 -0.59375,-1.10937 -1.01562,-2.01562 l 2.14062,-1.15625 q 0.5625,1.21875 1.26563,1.92187 0.71875,0.6875 1.65625,0.6875 0.67187,0 1.20312,-0.34375 0.53125,-0.34375 0.89063,-0.875 0.35937,-0.54687 0.54687,-1.1875 0.1875,-0.65625 0.1875,-1.28125 0,-0.73437 -0.1875,-1.4375 -0.1875,-0.71875 -0.48437,-1.39062 -0.29688,-0.6875 -0.67188,-1.32813 Q 279.5,129.59375 279.15625,129 H 271.125 v -2.29687 h 16.73437 z m -9.40625,-7.0625 q 0,-0.89062 0.53125,-1.4375 0.51563,-0.5625 1.35938,-0.5625 0.39062,0 0.75,0.15625 0.34375,0.15625 0.60937,0.4375 0.26563,0.26563 0.42188,0.64063 0.14062,0.35937 0.14062,0.79687 0,0.89063 -0.51562,1.4375 -0.53125,0.54688 -1.375,0.54688 -0.40625,0 -0.75,-0.14063 -0.35938,-0.15625 -0.60938,-0.42187 -0.26562,-0.28125 -0.40625,-0.64063 -0.15625,-0.375 -0.15625,-0.8125 z M 307.8125,129 h -3.28125 v 21 h -2.5625 v -21 h -7.04688 v 12.125 q 0,0.25 -0.0312,0.57812 -0.0312,0.32813 -0.15625,0.64063 -0.10937,0.29687 -0.32812,0.51562 -0.21875,0.20313 -0.60938,0.20313 -0.42187,0 -0.9375,-0.26563 -0.5,-0.28125 -1.03125,-0.71875 -0.53125,-0.45312 -1.03125,-1.01562 -0.48437,-0.5625 -0.875,-1.15625 -0.39062,-0.59375 -0.625,-1.15625 -0.23437,-0.5625 -0.23437,-1 0,-0.39063 0.1875,-0.625 0.20312,-0.23438 0.54687,-0.35938 0.35938,-0.125 0.85938,-0.15625 0.51562,-0.0312 1.125,-0.0312 h 0.54687 V 129 h -5.5625 v -2.29687 h 21.04688 z m 31.8125,-2.29687 V 129 h -3.28125 v 21 H 333.75 v -10.5 h -9.04688 q -0.82812,0.54687 -1.98437,0.65625 l -0.0312,0.0781 q 1.51562,2.375 3.32812,4.42188 1.8125,2.04687 4.125,3.79687 l -1.67187,1.92188 q -1.32813,-0.98438 -2.53125,-2.125 -1.1875,-1.14063 -2.25,-2.35938 -1.04688,-1.23437 -1.96875,-2.48437 -0.92188,-1.26563 -1.6875,-2.48438 -0.76563,-1.21875 -1.375,-2.34375 -0.60938,-1.14062 -1.0625,-2.10937 l 2.14062,-1.15625 q 0.29688,0.6875 0.57813,1.15625 0.29687,0.45312 0.59375,0.73437 0.29687,0.26563 0.625,0.39063 0.32812,0.10937 0.70312,0.10937 1.07813,0 1.57813,-0.84375 0.51562,-0.84375 0.51562,-2.21875 0,-0.8125 -0.15625,-1.59375 -0.15625,-0.79687 -0.40625,-1.51562 -0.23437,-0.73438 -0.51562,-1.375 -0.28125,-0.64063 -0.53125,-1.15625 h -7.23438 v -2.29687 z M 333.75,129 h -8.32813 q 0.65625,1.42187 1.03125,2.85937 0.375,1.4375 0.375,2.85938 0,0.65625 -0.10937,1.29687 -0.0937,0.625 -0.32813,1.1875 l 0.0312,0.0312 H 333.75 Z m -3.03125,21.46875 q 1,-0.625 2.21875,-0.96875 1.20312,-0.34375 2.29687,-0.34375 0.95313,0 1.78125,0.28125 0.8125,0.26562 1.42188,0.78125 0.60937,0.53125 0.95312,1.28125 0.34375,0.75 0.34375,1.6875 0,1 -0.40625,1.875 -0.39062,0.875 -1.1875,1.53125 -0.79687,0.65625 -1.96875,1.03125 -1.17187,0.39062 -2.71875,0.39062 -1.76562,0 -3.15625,-0.48437 -1.40625,-0.46875 -2.51562,-1.20313 -1.10938,-0.71875 -1.95313,-1.59375 -0.84375,-0.875 -1.48437,-1.65625 l 1.45312,-1.70312 q 0.89063,0.96875 1.70313,1.75 0.8125,0.78125 1.6875,1.32812 0.875,0.5625 1.89062,0.85938 1,0.29687 2.26563,0.29687 1.07812,0 1.84375,-0.21875 0.75,-0.20312 1.23437,-0.54687 0.48438,-0.32813 0.70313,-0.76563 0.21875,-0.42187 0.21875,-0.85937 0,-0.79688 -0.59375,-1.26563 -0.60938,-0.46875 -1.64063,-0.46875 -0.67187,0 -1.54687,0.23438 -0.89063,0.23437 -1.79688,0.78125 z m 2.42187,-28.53125 q 0,-0.89062 0.53125,-1.4375 0.51563,-0.5625 1.35938,-0.5625 0.39062,0 0.75,0.15625 0.34375,0.15625 0.60937,0.4375 0.26563,0.26563 0.42188,0.64063 0.14062,0.35937 0.14062,0.79687 0,0.89063 -0.51562,1.4375 -0.53125,0.54688 -1.375,0.54688 -0.40625,0 -0.75,-0.14063 -0.35938,-0.15625 -0.60938,-0.42187 -0.26562,-0.28125 -0.40625,-0.64063 -0.15625,-0.375 -0.15625,-0.8125 z M 359.54687,129 H 354.25 v 6.85937 h -5.26563 q -2.45312,0 -3.70312,1.21875 -1.25,1.20313 -1.25,3.46875 0,1.28125 0.40625,2.26563 0.42187,0.98437 1.14062,1.65625 0.73438,0.65625 1.73438,1 1,0.34375 2.17187,0.34375 1.23438,0 1.98438,-0.375 -0.0625,-0.39063 -0.0937,-0.6875 -0.0312,-0.29688 -0.0312,-0.59375 0,-0.65625 0.15625,-1.34375 0.17187,-0.70313 0.5,-1.26563 0.34375,-0.57812 0.85937,-0.9375 0.53125,-0.35937 1.26563,-0.35937 0.45312,0 0.85937,0.15625 0.40625,0.15625 0.70313,0.48437 0.3125,0.3125 0.48437,0.79688 0.1875,0.48437 0.1875,1.125 0,0.64062 -0.17187,1.1875 -0.17188,0.53125 -0.45313,1 -0.26562,0.45312 -0.60937,0.85937 -0.34375,0.39063 -0.67188,0.71875 0.34375,0.75 0.71875,1.34375 0.39063,0.59375 0.79688,1.0625 0.42187,0.46875 0.84375,0.84375 0.42187,0.375 0.84375,0.70313 l -1.92188,2.01562 q -0.82812,-0.73437 -1.42187,-1.46875 -0.57813,-0.71875 -0.98438,-1.35937 -0.39062,-0.64063 -0.64062,-1.15625 -0.25,-0.51563 -0.40625,-0.82813 -1.07813,0.42188 -2.65625,0.42188 -2.03125,0 -3.54688,-0.65625 -1.51562,-0.67188 -2.53125,-1.78125 -1,-1.125 -1.5,-2.5625 -0.5,-1.4375 -0.5,-2.98438 0,-1.60937 0.51563,-2.82812 0.51562,-1.23438 1.4375,-2.0625 0.92187,-0.84375 2.1875,-1.26563 1.28125,-0.4375 2.79687,-0.4375 h 3.20313 V 129 h -13.15625 v -2.29687 h 21.01562 z m 8.3125,0 h -3.28125 v 21 h -2.5625 v -21 h -3.5625 v -2.29687 h 3.5625 q -0.85937,-2.09375 -0.85937,-3.875 0,-1.15625 0.32812,-2.125 0.34375,-0.98438 0.98438,-1.6875 0.64062,-0.71875 1.5625,-1.10938 0.92187,-0.40625 2.07812,-0.40625 1.42188,0 2.71875,0.625 1.29688,0.625 2.5,1.82813 1.20313,1.1875 2.34375,2.9375 1.15625,1.73437 2.29688,3.98437 h -2.32813 q -0.35937,-0.60937 -0.8125,-1.35937 -0.45312,-0.76563 -0.98437,-1.53125 -0.53125,-0.78125 -1.14063,-1.51563 -0.60937,-0.73437 -1.29687,-1.3125 -0.67188,-0.57812 -1.40625,-0.92187 -0.71875,-0.34375 -1.5,-0.34375 -0.65625,0 -1.1875,0.26562 -0.53125,0.26563 -0.90625,0.73438 -0.375,0.46875 -0.57813,1.10937 -0.20312,0.625 -0.20312,1.35938 0,1.42187 0.76562,3.34375 h 3.46875 z M 383.5,129 h -5.89063 q 0.79688,1.375 1.28125,2.8125 0.5,1.42187 0.5,2.89062 0,1.10938 -0.34375,2.14063 -0.32812,1.01562 -0.98437,1.82812 -0.64063,0.79688 -1.60938,1.3125 -0.95312,0.5 -2.20312,0.5625 l -0.0312,0.0781 q 1.40625,2.1875 3.15625,4.14062 1.75,1.9375 4.04687,3.6875 L 379.75,150.375 q -1.32813,-0.98438 -2.53125,-2.125 -1.1875,-1.15625 -2.25,-2.375 -1.0625,-1.23438 -1.98438,-2.48438 -0.90625,-1.26562 -1.67187,-2.45312 -0.75,-1.20313 -1.34375,-2.29688 -0.59375,-1.10937 -1.01563,-2.01562 l 2.14063,-1.15625 q 0.5625,1.21875 1.26562,1.92187 0.71875,0.6875 1.65625,0.6875 0.67188,0 1.20313,-0.34375 0.53125,-0.34375 0.89062,-0.875 0.35938,-0.54687 0.54688,-1.1875 0.1875,-0.65625 0.1875,-1.28125 0,-0.73437 -0.1875,-1.4375 -0.1875,-0.71875 -0.48438,-1.39062 Q 375.875,130.875 375.5,130.23437 375.14062,129.59375 374.79687,129 h -8.03125 v -2.29687 H 383.5 Z m 19.57812,0 h -3.28125 v 21 H 397.25 v -13.71875 h -5.07813 q -1.04687,0 -1.89062,0.14062 -0.84375,0.125 -1.4375,0.53125 -0.59375,0.39063 -0.92188,1.10938 -0.3125,0.70312 -0.3125,1.85937 0,1.5 0.48438,2.76563 0.5,1.26562 1.26562,2.32812 0.76563,1.04688 1.6875,1.9375 0.9375,0.89063 1.79688,1.64063 l -1.5625,1.78125 q -0.14063,-0.0781 -0.67188,-0.45313 -0.51562,-0.39062 -1.21875,-1.04687 -0.6875,-0.65625 -1.46875,-1.59375 -0.76562,-0.9375 -1.42187,-2.10938 -0.64063,-1.1875 -1.07813,-2.60937 Q 385,141.14062 385,139.5 q 0,-1.625 0.45312,-2.6875 0.46875,-1.07813 1.3125,-1.70313 0.84375,-0.64062 2.04688,-0.89062 1.20312,-0.25 2.6875,-0.25 h 5.75 V 129 h -14.84375 v -2.29687 h 20.67187 z m 2.9375,21.34375 q -0.71875,0 -1.23437,-0.51563 -0.5,-0.51562 -0.5,-1.23437 0,-0.71875 0.5,-1.23438 0.51562,-0.53125 1.23437,-0.53125 0.73438,0 1.25,0.53125 0.51563,0.51563 0.51563,1.23438 0,0.71875 -0.51563,1.23437 -0.51562,0.51563 -1.25,0.51563 z"
         id="path5" />
      <path
         d="M 62.953125,179 H 55.53125 v 11.1875 q 0,1.14062 0.28125,1.90625 0.296875,0.75 0.9375,1.34375 0.640625,0.57812 1.640625,1.125 1.015625,0.53125 2.453125,1.25 1.328125,0.65625 2.46875,1.26562 1.15625,0.60938 2,1.28125 0.84375,0.67188 1.328125,1.45313 0.484375,0.78125 0.484375,1.78125 0,0.76562 -0.3125,1.53125 -0.3125,0.78125 -0.90625,1.48437 l -2.109375,-1.28125 q 0.234375,-0.375 0.4375,-0.79687 0.21875,-0.42188 0.21875,-0.875 0,-0.60938 -0.421875,-1.14063 Q 63.625,200 62.9375,199.53125 62.25,199.04687 61.359375,198.59375 60.46875,198.14062 59.5,197.67187 q -1.640625,-0.79687 -2.859375,-1.4375 -1.21875,-0.64062 -2.046875,-1.39062 -0.8125,-0.76563 -1.21875,-1.78125 -0.40625,-1.01563 -0.40625,-2.54688 V 179 h -3.515625 v -2.29688 h 19.34375 V 179 h -3.28125 v 9.90625 q 0,1.20312 -0.34375,2 -0.328125,0.78125 -0.859375,1.23437 -0.515625,0.45313 -1.15625,0.64063 -0.625,0.17187 -1.21875,0.17187 -0.59375,0 -1.171875,-0.125 -0.578125,-0.14062 -1.09375,-0.35937 v -2.54688 q 0.34375,0.20313 0.84375,0.35938 0.5,0.14062 1,0.14062 0.46875,0 0.75,-0.15625 0.28125,-0.15625 0.4375,-0.46875 0.15625,-0.3125 0.203125,-0.76562 0.04687,-0.45313 0.04687,-1.04688 z m 33.46875,0 H 83.21875 v 6.15625 l 0.07813,0.0312 q 0.796875,-1.09375 1.984375,-1.75 1.1875,-0.67188 2.609375,-0.67188 1.125,0 2.078125,0.46875 0.96875,0.45313 1.671875,1.26563 0.703125,0.79687 1.09375,1.89062 0.40625,1.09375 0.40625,2.35938 0,1.4375 -0.5,2.65625 -0.5,1.20312 -1.28125,2.1875 -0.78125,0.98437 -1.765625,1.75 -0.984375,0.75 -1.9375,1.28125 l -1.390625,-2.40625 q 0.3125,-0.17188 0.765625,-0.45313 0.453125,-0.28125 0.9375,-0.65625 0.5,-0.375 0.96875,-0.84375 0.484375,-0.48437 0.859375,-1.04687 0.390625,-0.5625 0.625,-1.21875 0.234375,-0.65625 0.234375,-1.39063 0,-0.67187 -0.21875,-1.28125 -0.203125,-0.60937 -0.578125,-1.0625 -0.375,-0.45312 -0.90625,-0.71875 -0.515625,-0.26562 -1.140625,-0.26562 -0.8125,0 -1.578125,0.42187 -0.765625,0.42188 -1.390625,1.0625 -0.625,0.625 -1.0625,1.34375 -0.421875,0.71875 -0.5625,1.32813 V 200 h -2.5625 v -5.98438 l -0.0625,-0.0312 q -0.234375,0.20313 -0.59375,0.5 -0.359375,0.28125 -0.875,0.54688 -0.5,0.26562 -1.171875,0.45312 -0.65625,0.1875 -1.484375,0.1875 -1.375,0 -2.546875,-0.53125 -1.15625,-0.53125 -2.015625,-1.4375 -0.84375,-0.92187 -1.328125,-2.15625 -0.484375,-1.23437 -0.484375,-2.64062 0,-1.34375 0.4375,-2.48438 0.453125,-1.14062 1.21875,-1.95312 0.78125,-0.82813 1.8125,-1.28125 1.046875,-0.46875 2.25,-0.46875 0.84375,0 1.5625,0.21875 0.734375,0.20312 1.328125,0.51562 0.609375,0.29688 1.078125,0.65625 0.484375,0.34375 0.8125,0.625 l 0.0625,-0.0156 V 179 H 67.703125 v -2.29688 h 28.71875 z M 76.1875,185.15625 q -0.890625,0 -1.578125,0.375 -0.671875,0.35937 -1.125,0.9375 -0.453125,0.5625 -0.6875,1.28125 -0.21875,0.70312 -0.21875,1.39062 0,0.75 0.265625,1.5 0.265625,0.73438 0.75,1.32813 0.5,0.59375 1.1875,0.96875 0.6875,0.35937 1.515625,0.35937 0.703125,0 1.46875,-0.28125 0.78125,-0.29687 1.421875,-0.90625 0.65625,-0.60937 1.078125,-1.54687 0.421875,-0.95313 0.421875,-2.26563 v -0.76562 q -0.375,-0.46875 -0.890625,-0.89063 -0.5,-0.4375 -1.09375,-0.76562 -0.578125,-0.32813 -1.21875,-0.51563 -0.640625,-0.20312 -1.296875,-0.20312 z M 128.125,179 h -3.28125 v 21 h -2.5625 v -8.76563 h -8.20312 v 2.23438 q 0,0.23437 -0.0469,0.5 -0.0312,0.26562 -0.15625,0.5 -0.10937,0.21875 -0.3125,0.375 -0.1875,0.14062 -0.48437,0.14062 -0.35938,0 -0.85938,-0.21875 -0.48437,-0.23437 -1.01562,-0.60937 -0.51563,-0.39063 -1.03125,-0.875 -0.5,-0.5 -0.90625,-1.03125 -0.39063,-0.53125 -0.64063,-1.0625 -0.25,-0.53125 -0.25,-0.98438 0,-0.65625 0.46875,-0.95312 0.46875,-0.29688 1.23438,-0.29688 h 1.51562 V 180.375 q 0,-0.8125 -0.39062,-1.23438 -0.39063,-0.4375 -0.98438,-0.4375 -0.65625,0 -1.10937,0.48438 -0.4375,0.48437 -0.4375,1.23437 0,0.14063 0.0312,0.34375 0.0312,0.20313 0.15625,0.46875 0.125,0.25 0.375,0.57813 0.25,0.3125 0.67187,0.67187 l -1.39062,1.70313 q -0.71875,-0.39063 -1.17188,-0.85938 -0.45312,-0.48437 -0.70312,-0.98437 -0.25,-0.5 -0.34375,-0.96875 -0.0937,-0.48438 -0.0937,-0.89063 0,-0.75 0.25,-1.46875 0.26562,-0.73437 0.78125,-1.3125 0.51562,-0.59375 1.28125,-0.95312 0.78125,-0.35938 1.8125,-0.35938 0.90625,0 1.60937,0.29688 0.70313,0.29687 1.17188,0.85937 0.48437,0.54688 0.71875,1.32813 0.25,0.76562 0.25,1.71875 v 8.35937 h 8.20312 v -12.25 h 5.84375 z m 8.3125,0 h -3.28125 v 21 h -2.5625 v -21 h -3.5625 v -2.29688 h 9.40625 z m 18.8125,0 h -3.28125 v 21 h -2.5625 v -5.57813 l -0.0625,-0.0156 q -0.3125,0.29687 -0.73438,0.625 -0.42187,0.3125 -0.96875,0.57812 -0.54687,0.25 -1.23437,0.42188 -0.67188,0.17187 -1.51563,0.17187 -1.54687,0 -2.82812,-0.59375 -1.26563,-0.59375 -2.1875,-1.57812 -0.92188,-1 -1.4375,-2.28125 -0.5,-1.29688 -0.5,-2.70313 0,-1.40625 0.5,-2.60937 0.51562,-1.21875 1.40625,-2.10938 0.89062,-0.89062 2.07812,-1.39062 1.1875,-0.51563 2.54688,-0.51563 0.375,0 0.9375,0.0625 0.57812,0.0625 1.23437,0.28125 0.65625,0.21875 1.35938,0.64063 0.70312,0.40625 1.34375,1.10937 l 0.0625,-0.0156 V 179 h -14.0625 v -2.29688 H 155.25 Z m -5.78125,8.42187 q -0.98438,-1.1875 -2.14063,-1.90625 -1.15625,-0.73437 -2.625,-0.73437 -1.15625,0 -1.96875,0.4375 -0.79687,0.4375 -1.3125,1.10937 -0.51562,0.65625 -0.75,1.46875 -0.23437,0.8125 -0.23437,1.5625 0,0.8125 0.26562,1.60938 0.26563,0.79687 0.78125,1.4375 0.53125,0.625 1.3125,1.03125 0.78125,0.39062 1.82813,0.39062 1.07812,0 1.96875,-0.40625 0.89062,-0.42187 1.53125,-1.0625 0.64062,-0.64062 0.98437,-1.4375 0.35938,-0.79687 0.35938,-1.54687 z M 174.6875,179 h -3.28125 v 21 h -2.57813 v -12.04688 h -7.3125 q 0,1.03125 -0.0312,1.76563 -0.0156,0.73437 -0.125,1.21875 -0.10937,0.46875 -0.32812,0.6875 -0.21875,0.21875 -0.60938,0.21875 -0.8125,0 -1.54687,-0.53125 -0.71875,-0.53125 -1.28125,-1.28125 -0.54688,-0.75 -0.875,-1.5625 -0.32813,-0.8125 -0.32813,-1.375 0,-0.5 0.21875,-0.78125 0.21875,-0.28125 0.57813,-0.42188 0.35937,-0.14062 0.8125,-0.17187 0.46875,-0.0312 0.9375,-0.0312 h 9.89062 V 179 h -14.67187 v -2.29688 H 174.6875 Z M 183,179 h -3.28125 v 21 h -2.5625 v -21 h -3.5625 v -2.29688 H 183 Z m -6.79688,-7.0625 q 0,-0.89063 0.53125,-1.4375 0.51563,-0.5625 1.35938,-0.5625 0.39062,0 0.75,0.15625 0.34375,0.15625 0.60937,0.4375 0.26563,0.26562 0.42188,0.64062 0.14062,0.35938 0.14062,0.79688 0,0.89062 -0.51562,1.4375 -0.53125,0.54687 -1.375,0.54687 -0.40625,0 -0.75,-0.14062 -0.35938,-0.15625 -0.60938,-0.42188 -0.26562,-0.28125 -0.40625,-0.64062 -0.15625,-0.375 -0.15625,-0.8125 z M 204.64062,179 h -3.28125 v 21 h -2.59375 v -6.57813 l -0.0625,-0.0469 q -0.85937,0.78125 -1.6875,1.23437 -0.8125,0.4375 -1.53125,0.67188 -0.70312,0.21875 -1.28125,0.28125 -0.57812,0.0625 -0.95312,0.0625 -1.4375,0 -2.54688,-0.45313 -1.10937,-0.45312 -1.85937,-1.1875 -0.75,-0.75 -1.14063,-1.70312 -0.39062,-0.96875 -0.39062,-2 0,-1.07813 0.4375,-2.14063 0.45312,-1.0625 1.40625,-1.90625 l -0.0156,-0.0625 H 184.1875 V 183.875 H 196.75 v 2.29687 h -1.60938 q -1.60937,0 -2.64062,0.42188 -1.03125,0.42187 -1.625,1.03125 -0.59375,0.60937 -0.82813,1.3125 -0.21875,0.6875 -0.21875,1.25 0,0.46875 0.15625,1.01562 0.15625,0.53125 0.51563,0.98438 0.375,0.45312 0.98437,0.75 0.625,0.29687 1.5625,0.29687 0.98438,0 1.82813,-0.3125 0.85937,-0.32812 1.57812,-0.84375 0.71875,-0.51562 1.29688,-1.15625 0.59375,-0.65625 1.01562,-1.29687 V 179 h -16.85937 v -2.29688 h 22.73437 z m 8.3125,0 h -3.28125 v 21 h -2.5625 v -21 h -3.5625 v -2.29688 h 9.40625 z m 31.8125,-2.29688 V 179 h -3.28125 v 21 h -2.59375 v -10.5 h -9.04687 q -0.82813,0.54687 -1.98438,0.65625 l -0.0312,0.0781 q 1.51563,2.375 3.32813,4.42188 1.8125,2.04687 4.125,3.79687 l -1.67188,1.92188 q -1.32812,-0.98438 -2.53125,-2.125 -1.1875,-1.14063 -2.25,-2.35938 -1.04687,-1.23437 -1.96875,-2.48437 -0.92187,-1.26563 -1.6875,-2.48438 -0.76562,-1.21875 -1.375,-2.34375 -0.60937,-1.14062 -1.0625,-2.10937 l 2.14063,-1.15625 q 0.29687,0.6875 0.57812,1.15625 0.29688,0.45312 0.59375,0.73437 0.29688,0.26563 0.625,0.39063 0.32813,0.10937 0.70313,0.10937 1.07812,0 1.57812,-0.84375 0.51563,-0.84375 0.51563,-2.21875 0,-0.8125 -0.15625,-1.59375 -0.15625,-0.79687 -0.40625,-1.51562 -0.23438,-0.73438 -0.51563,-1.375 Q 228.10937,179.51562 227.85937,179 H 220.625 v -2.29688 z M 238.89062,179 h -8.32812 q 0.65625,1.42187 1.03125,2.85937 0.375,1.4375 0.375,2.85938 0,0.65625 -0.10938,1.29687 -0.0937,0.625 -0.32812,1.1875 l 0.0312,0.0312 h 7.32812 z m 14.1875,0 h -3.28125 v 21 h -2.5625 v -21 h -3.5625 v -2.29688 h 9.40625 z m 19.95313,0 H 269.75 v 21 h -2.5625 v -21 h -7.04688 v 12.125 q 0,0.25 -0.0312,0.57812 -0.0312,0.32813 -0.15625,0.64063 -0.10937,0.29687 -0.32812,0.51562 -0.21875,0.20313 -0.60938,0.20313 -0.42187,0 -0.9375,-0.26563 -0.5,-0.28125 -1.03125,-0.71875 -0.53125,-0.45312 -1.03125,-1.01562 -0.48437,-0.5625 -0.875,-1.15625 -0.39062,-0.59375 -0.625,-1.15625 -0.23437,-0.5625 -0.23437,-1 0,-0.39063 0.1875,-0.625 0.20312,-0.23438 0.54687,-0.35938 0.35938,-0.125 0.85938,-0.15625 0.51562,-0.0312 1.125,-0.0312 h 0.54687 V 179 h -5.5625 v -2.29688 h 21.04688 z m 15.64062,0 h -5.89062 q 0.79687,1.375 1.28125,2.8125 0.5,1.42187 0.5,2.89062 0,1.10938 -0.34375,2.14063 -0.32813,1.01562 -0.98438,1.82812 -0.64062,0.79688 -1.60937,1.3125 -0.95313,0.5 -2.20313,0.5625 l -0.0312,0.0781 q 1.40625,2.1875 3.15625,4.14062 1.75,1.9375 4.04688,3.6875 l -1.67188,1.92188 q -1.32812,-0.98438 -2.53125,-2.125 -1.1875,-1.15625 -2.25,-2.375 -1.0625,-1.23438 -1.98437,-2.48438 -0.90625,-1.26562 -1.67188,-2.45312 -0.75,-1.20313 -1.34375,-2.29688 -0.59375,-1.10937 -1.01562,-2.01562 l 2.14062,-1.15625 q 0.5625,1.21875 1.26563,1.92187 0.71875,0.6875 1.65625,0.6875 0.67187,0 1.20312,-0.34375 0.53125,-0.34375 0.89063,-0.875 0.35937,-0.54687 0.54687,-1.1875 0.1875,-0.65625 0.1875,-1.28125 0,-0.73437 -0.1875,-1.4375 -0.1875,-0.71875 -0.48437,-1.39062 -0.29688,-0.6875 -0.67188,-1.32813 Q 280.3125,179.59375 279.96875,179 h -8.03125 v -2.29688 h 16.73437 z m 28.71875,0 h -3.28125 v 21 h -2.5625 V 179 H 304.5 v 12.125 q 0,0.25 -0.0312,0.57812 -0.0312,0.32813 -0.15625,0.64063 -0.10938,0.29687 -0.32813,0.51562 -0.21875,0.20313 -0.60937,0.20313 -0.42188,0 -0.9375,-0.26563 -0.5,-0.28125 -1.03125,-0.71875 -0.53125,-0.45312 -1.03125,-1.01562 -0.48438,-0.5625 -0.875,-1.15625 -0.39063,-0.59375 -0.625,-1.15625 -0.23438,-0.5625 -0.23438,-1 0,-0.39063 0.1875,-0.625 0.20313,-0.23438 0.54688,-0.35938 0.35937,-0.125 0.85937,-0.15625 0.51563,-0.0312 1.125,-0.0312 h 0.54688 V 179 h -5.5625 v -2.29688 h 21.04687 z m 10.90625,16.59375 q 0.51563,-0.15625 1.01563,-0.39063 0.51562,-0.23437 0.90625,-0.5625 0.40625,-0.34375 0.65625,-0.79687 0.25,-0.45313 0.25,-1.0625 0,-1.29688 -1.07813,-2.01563 -1.07812,-0.73437 -3.0625,-0.73437 -0.79687,0 -1.64062,0.17187 -0.82813,0.15625 -1.51563,0.59375 -0.6875,0.42188 -1.125,1.17188 -0.4375,0.73437 -0.4375,1.875 0,1.15625 0.45313,2.15625 0.45312,0.98437 1.17187,1.8125 0.73438,0.82812 1.64063,1.5 0.90625,0.67187 1.79687,1.1875 0.90625,0.51562 1.70313,0.85937 0.79687,0.35938 1.32812,0.5625 l -1.03125,2.15625 q -1.09375,-0.46875 -2.23437,-1.03125 -1.125,-0.54687 -2.1875,-1.21875 -1.0625,-0.65625 -2,-1.45312 -0.9375,-0.79688 -1.64063,-1.76563 -0.6875,-0.96875 -1.09375,-2.125 -0.39062,-1.15625 -0.39062,-2.51562 0,-1.32813 0.34375,-2.3125 0.35937,-1 0.98437,-1.75 -0.85937,-0.98438 -1.26562,-1.98438 -0.40625,-1 -0.40625,-2.17187 0,-0.67188 0.15625,-1.26563 0.17187,-0.59375 0.59375,-1.03125 0.4375,-0.45312 1.20312,-0.71875 0.76563,-0.26562 1.98438,-0.26562 h 7.07812 V 179 h -14.15625 v -2.29688 h 20.35938 V 179 h -3.64063 v 5.75 h -8.98437 q -0.60938,0 -1.03125,0.10937 -0.40625,0.0937 -0.65625,0.29688 -0.25,0.20312 -0.35938,0.51562 -0.0937,0.29688 -0.0937,0.70313 0,0.54687 0.1875,1.0625 0.1875,0.51562 0.70313,1.15625 0.90625,-0.46875 1.98437,-0.6875 1.09375,-0.23438 2.28125,-0.23438 1.375,0 2.5625,0.3125 1.20313,0.3125 2.07813,0.95313 0.89062,0.625 1.39062,1.60937 0.51563,0.96875 0.51563,2.28125 0,1.26563 -0.4375,2.14063 -0.42188,0.875 -1.07813,1.46875 -0.64062,0.59375 -1.40625,0.96875 Q 329.90625,197.76562 329.25,198 Z M 356.09375,179 h -3.28125 v 21 h -2.57813 v -12.04688 h -7.3125 q 0,1.03125 -0.0312,1.76563 -0.0156,0.73437 -0.125,1.21875 -0.10937,0.46875 -0.32812,0.6875 -0.21875,0.21875 -0.60938,0.21875 -0.8125,0 -1.54687,-0.53125 -0.71875,-0.53125 -1.28125,-1.28125 -0.54688,-0.75 -0.875,-1.5625 -0.32813,-0.8125 -0.32813,-1.375 0,-0.5 0.21875,-0.78125 0.21875,-0.28125 0.57813,-0.42188 0.35937,-0.14062 0.8125,-0.17187 0.46875,-0.0312 0.9375,-0.0312 h 9.89062 V 179 H 335.5625 v -2.29688 h 20.53125 z m 4.39062,17.4375 -2.5,7.6875 h -1.82812 l 1.82812,-7.6875 z"
         id="path6" />
      <path
         d="m 70.46875,229 h -5.296875 v 6.85937 H 59.90625 q -2.453125,0 -3.703125,1.21875 -1.25,1.20313 -1.25,3.46875 0,1.28125 0.40625,2.26563 0.421875,0.98437 1.140625,1.65625 0.734375,0.65625 1.734375,1 1,0.34375 2.171875,0.34375 1.234375,0 1.984375,-0.375 -0.0625,-0.39063 -0.09375,-0.6875 -0.03125,-0.29688 -0.03125,-0.59375 0,-0.65625 0.15625,-1.34375 0.171875,-0.70313 0.5,-1.26563 0.34375,-0.57812 0.859375,-0.9375 0.53125,-0.35937 1.265625,-0.35937 0.453125,0 0.859375,0.15625 0.40625,0.15625 0.703125,0.48437 0.3125,0.3125 0.484375,0.79688 0.1875,0.48437 0.1875,1.125 0,0.64062 -0.171875,1.1875 -0.171875,0.53125 -0.453125,1 -0.265625,0.45312 -0.609375,0.85937 -0.34375,0.39063 -0.671875,0.71875 0.34375,0.75 0.71875,1.34375 0.390625,0.59375 0.796875,1.0625 0.421875,0.46875 0.84375,0.84375 0.421875,0.375 0.84375,0.70313 l -1.921875,2.01562 q -0.828125,-0.73437 -1.421875,-1.46875 -0.578125,-0.71875 -0.984375,-1.35937 -0.390625,-0.64063 -0.640625,-1.15625 -0.25,-0.51563 -0.40625,-0.82813 -1.078125,0.42188 -2.65625,0.42188 -2.03125,0 -3.546875,-0.65625 -1.515625,-0.67188 -2.53125,-1.78125 -1,-1.125 -1.5,-2.5625 -0.5,-1.4375 -0.5,-2.98438 0,-1.60937 0.515625,-2.82812 0.515625,-1.23438 1.4375,-2.0625 0.921875,-0.84375 2.1875,-1.26563 1.28125,-0.4375 2.796875,-0.4375 h 3.203125 V 229 h -13.15625 v -2.29688 H 70.46875 Z m -10.0625,21.46875 q 1,-0.625 2.21875,-0.96875 1.203125,-0.34375 2.296875,-0.34375 0.953125,0 1.78125,0.28125 0.8125,0.26562 1.421875,0.78125 0.609375,0.53125 0.953125,1.28125 0.34375,0.75 0.34375,1.6875 0,1 -0.40625,1.875 -0.390625,0.875 -1.1875,1.53125 -0.796875,0.65625 -1.96875,1.03125 -1.171875,0.39062 -2.71875,0.39062 -1.765625,0 -3.15625,-0.48437 -1.40625,-0.46875 -2.515625,-1.20313 -1.109375,-0.71875 -1.953125,-1.59375 -0.84375,-0.875 -1.484375,-1.65625 l 1.453125,-1.70312 q 0.890625,0.96875 1.703125,1.75 0.8125,0.78125 1.6875,1.32812 0.875,0.5625 1.890625,0.85938 1,0.29687 2.265625,0.29687 1.078125,0 1.84375,-0.21875 0.75,-0.20312 1.234375,-0.54687 0.484375,-0.32813 0.703125,-0.76563 0.21875,-0.42187 0.21875,-0.85937 0,-0.79688 -0.59375,-1.26563 -0.609375,-0.46875 -1.640625,-0.46875 -0.671875,0 -1.546875,0.23438 -0.890625,0.23437 -1.796875,0.78125 z M 93.515625,226.70312 V 229 h -3.28125 v 21 h -2.59375 V 239.5 H 78.59375 q -0.828125,0.54687 -1.984375,0.65625 l -0.03125,0.0781 q 1.515625,2.375 3.328125,4.42188 1.8125,2.04687 4.125,3.79687 l -1.671875,1.92188 q -1.328125,-0.98438 -2.53125,-2.125 -1.1875,-1.14063 -2.25,-2.35938 -1.046875,-1.23437 -1.96875,-2.48437 -0.921875,-1.26563 -1.6875,-2.48438 -0.765625,-1.21875 -1.375,-2.34375 -0.609375,-1.14062 -1.0625,-2.10937 L 73.625,235.3125 q 0.296875,0.6875 0.578125,1.15625 0.296875,0.45312 0.59375,0.73437 0.296875,0.26563 0.625,0.39063 0.328125,0.10937 0.703125,0.10937 1.078125,0 1.578125,-0.84375 0.515625,-0.84375 0.515625,-2.21875 0,-0.8125 -0.15625,-1.59375 -0.15625,-0.79687 -0.40625,-1.51562 -0.234375,-0.73438 -0.515625,-1.375 Q 76.859375,229.51562 76.609375,229 H 69.375 v -2.29688 z M 87.640625,229 H 79.3125 q 0.65625,1.42187 1.03125,2.85937 0.375,1.4375 0.375,2.85938 0,0.65625 -0.109375,1.29687 -0.09375,0.625 -0.328125,1.1875 l 0.03125,0.0312 h 7.328125 z m 21.515625,0 h -5.89062 q 0.79687,1.375 1.28125,2.8125 0.5,1.42187 0.5,2.89062 0,1.10938 -0.34375,2.14063 -0.32813,1.01562 -0.98438,1.82812 -0.64062,0.79688 -1.60937,1.3125 -0.95313,0.5 -2.20313,0.5625 L 99.875,240.625 q 1.40625,2.1875 3.15625,4.14062 1.75,1.9375 4.04688,3.6875 l -1.67188,1.92188 q -1.32812,-0.98438 -2.53125,-2.125 -1.1875,-1.15625 -2.25,-2.375 -1.0625,-1.23438 -1.984375,-2.48438 -0.90625,-1.26562 -1.671875,-2.45312 -0.75,-1.20313 -1.34375,-2.29688 -0.59375,-1.10937 -1.015625,-2.01562 L 96.75,235.46875 q 0.5625,1.21875 1.265625,1.92187 0.71875,0.6875 1.65625,0.6875 0.671875,0 1.203125,-0.34375 0.53125,-0.34375 0.89063,-0.875 0.35937,-0.54687 0.54687,-1.1875 0.1875,-0.65625 0.1875,-1.28125 0,-0.73437 -0.1875,-1.4375 -0.1875,-0.71875 -0.48437,-1.39062 -0.29688,-0.6875 -0.67188,-1.32813 -0.35937,-0.64062 -0.70312,-1.23437 h -8.031255 v -2.29688 h 16.734375 z m 8.3125,0 h -3.28125 v 21 h -2.5625 v -21 h -3.5625 v -2.29688 h 9.40625 z m 37.42187,0 h -3.28125 v 21 h -2.5625 v -7.3125 l -0.0625,-0.0156 q -0.42187,0.34375 -1.01562,0.6875 -0.57813,0.32813 -1.29688,0.59375 -0.71875,0.25 -1.54687,0.42188 -0.82813,0.15625 -1.73438,0.15625 -1.46875,0 -2.51562,-0.40625 -1.03125,-0.40625 -1.78125,-1.04688 -0.73438,-0.65625 -1.26563,-1.46875 -0.51562,-0.82812 -0.95312,-1.65625 -0.35938,-0.67187 -0.73438,-1.26562 -0.35937,-0.60938 -0.8125,-1.0625 -0.45312,-0.46875 -1.01562,-0.73438 -0.5625,-0.28125 -1.3125,-0.28125 -1.375,0 -2.01563,0.92188 -0.64062,0.90625 -0.64062,2.45312 0,1.48438 0.5,2.75 0.51562,1.25 1.28125,2.3125 0.78125,1.0625 1.70312,1.95313 0.92188,0.875 1.75,1.59375 l -1.5625,1.78125 q -0.14062,-0.0781 -0.67187,-0.46875 -0.51563,-0.40625 -1.21875,-1.07813 -0.6875,-0.6875 -1.46875,-1.625 -0.76563,-0.95312 -1.42188,-2.10937 -0.64062,-1.17188 -1.07812,-2.54688 -0.42187,-1.375 -0.42187,-2.90625 0,-1.5 0.45312,-2.54687 0.45312,-1.0625 1.17187,-1.71875 0.73438,-0.67188 1.625,-0.98438 0.89063,-0.3125 1.78125,-0.3125 1.17188,0 2.3125,0.5 1.15625,0.5 2.28125,1.78125 0.67188,-0.23437 1.14063,-0.57812 0.48437,-0.35938 0.78125,-0.76563 0.3125,-0.42187 0.45312,-0.89062 0.14063,-0.46875 0.14063,-0.9375 0,-0.375 -0.0781,-0.84375 -0.0625,-0.46875 -0.23437,-1 -0.17188,-0.54688 -0.45313,-1.14063 -0.28125,-0.59375 -0.70312,-1.20312 h -13.26562 v -2.29688 h 29.74999 z m -13.71875,0 q 0.5625,0.95312 0.875,2.09375 0.32813,1.125 0.32813,2.21875 0,0.79687 -0.21875,1.54687 -0.20313,0.75 -0.64063,1.40625 -0.4375,0.64063 -1.09375,1.15625 -0.64062,0.5 -1.5,0.79688 0.25,1.04687 0.6875,1.79687 0.4375,0.73438 1.03125,1.21875 0.59375,0.46875 1.32813,0.6875 0.73437,0.21875 1.57812,0.21875 0.8125,0 1.59375,-0.1875 0.79688,-0.1875 1.5,-0.53125 0.71875,-0.35937 1.32813,-0.85937 0.60937,-0.5 1.07812,-1.125 V 229 Z m 22.03125,0 h -3.28125 v 21 h -2.5625 v -21 h -3.5625 v -2.29688 h 9.40625 z m 21.64063,0 h -3.28125 v 21 h -2.59375 v -6.57813 l -0.0625,-0.0469 q -0.85938,0.78125 -1.6875,1.23437 -0.8125,0.4375 -1.53125,0.67188 -0.70313,0.21875 -1.28125,0.28125 -0.57813,0.0625 -0.95313,0.0625 -1.4375,0 -2.54687,-0.45313 -1.10938,-0.45312 -1.85938,-1.1875 -0.75,-0.75 -1.14062,-1.70312 -0.39063,-0.96875 -0.39063,-2 0,-1.07813 0.4375,-2.14063 0.45313,-1.0625 1.40625,-1.90625 l -0.0156,-0.0625 h -4.95313 V 233.875 h 12.5625 v 2.29687 h -1.60937 q -1.60938,0 -2.64063,0.42188 -1.03125,0.42187 -1.625,1.03125 -0.59375,0.60937 -0.82812,1.3125 -0.21875,0.6875 -0.21875,1.25 0,0.46875 0.15625,1.01562 0.15625,0.53125 0.51562,0.98438 0.375,0.45312 0.98438,0.75 0.625,0.29687 1.5625,0.29687 0.98437,0 1.82812,-0.3125 0.85938,-0.32812 1.57813,-0.84375 0.71875,-0.51562 1.29687,-1.15625 0.59375,-0.65625 1.01563,-1.29687 V 229 h -16.85938 v -2.29688 h 22.73438 z m 8.3125,0 H 189.875 v 21 h -2.5625 V 229 H 183.75 v -2.29688 h 9.40625 z m 28.03125,0 h -3.28125 v 21 h -2.57813 v -6.96875 l -0.0625,-0.0156 -9.53125,7.17188 -1.60937,-1.95313 5.54687,-3.98437 -0.0156,-0.0625 q -1.20313,-0.0937 -2.1875,-0.53125 -0.98438,-0.4375 -1.6875,-1.23438 -0.70313,-0.79687 -1.09375,-1.96875 -0.375,-1.17187 -0.375,-2.73437 V 229 h -3.48438 v -2.29688 h 20.35938 z m -5.85938,0 h -8.48437 v 8.57812 q 0,0.98438 0.15625,1.76563 0.17187,0.78125 0.5625,1.32812 0.40625,0.54688 1.0625,0.84375 0.65625,0.28125 1.64062,0.28125 1.60938,0 2.90625,-0.70312 1.29688,-0.71875 2.15625,-1.89063 z M 229.5,229 h -3.28125 v 21 h -2.5625 v -21 h -3.5625 v -2.29688 h 3.5625 q -0.85938,-2.0625 -0.85938,-3.84375 0,-1.14062 0.375,-2.125 0.375,-0.98437 1.14063,-1.70312 0.78125,-0.71875 1.98437,-1.125 Q 227.5,217.5 229.15625,217.5 q 2.17187,0 4.17187,0.70312 2.01563,0.70313 3.9375,1.95313 1.92188,1.25 3.79688,2.96875 1.89062,1.71875 3.8125,3.75 h -2.71875 q -0.4375,-0.42188 -1.17188,-1.09375 -0.71875,-0.6875 -1.67187,-1.45313 -0.95313,-0.78125 -2.10938,-1.5625 -1.15625,-0.79687 -2.4375,-1.4375 -1.28125,-0.64062 -2.67187,-1.03125 -1.375,-0.40625 -2.78125,-0.40625 -1.14063,0 -1.92188,0.26563 -0.76562,0.26562 -1.25,0.73437 -0.46875,0.46875 -0.67187,1.10938 -0.20313,0.625 -0.20313,1.34375 0,1.40625 0.76563,3.35937 H 229.5 Z m 19.57812,0 h -3.28125 v 21 H 243.25 v -13.71875 h -5.07813 q -1.04687,0 -1.89062,0.14062 -0.84375,0.125 -1.4375,0.53125 -0.59375,0.39063 -0.92188,1.10938 -0.3125,0.70312 -0.3125,1.85937 0,1.5 0.48438,2.76563 0.5,1.26562 1.26562,2.32812 0.76563,1.04688 1.6875,1.9375 0.9375,0.89063 1.79688,1.64063 l -1.5625,1.78125 q -0.14063,-0.0781 -0.67188,-0.45313 -0.51562,-0.39062 -1.21875,-1.04687 -0.6875,-0.65625 -1.46875,-1.59375 -0.76562,-0.9375 -1.42187,-2.10938 -0.64063,-1.1875 -1.07813,-2.60937 Q 231,241.14062 231,239.5 q 0,-1.625 0.45312,-2.6875 0.46875,-1.07813 1.3125,-1.70313 0.84375,-0.64062 2.04688,-0.89062 1.20312,-0.25 2.6875,-0.25 h 5.75 V 229 h -14.84375 v -2.29688 h 20.67187 z m 8.3125,0 h -3.28125 v 21 h -2.5625 v -21 h -3.5625 v -2.29688 h 3.5625 q -0.85937,-2.0625 -0.85937,-3.84375 0,-1.14062 0.375,-2.125 0.375,-0.98437 1.14062,-1.70312 0.78125,-0.71875 1.98438,-1.125 1.20312,-0.40625 2.85937,-0.40625 2.17188,0 4.17188,0.70312 2.01562,0.70313 3.9375,1.95313 1.92187,1.25 3.79687,2.96875 1.89063,1.71875 3.8125,3.75 h -2.71875 q -0.4375,-0.42188 -1.17187,-1.09375 -0.71875,-0.6875 -1.67188,-1.45313 -0.95312,-0.78125 -2.10937,-1.5625 -1.15625,-0.79687 -2.4375,-1.4375 -1.28125,-0.64062 -2.67188,-1.03125 -1.375,-0.40625 -2.78125,-0.40625 -1.14062,0 -1.92187,0.26563 -0.76563,0.26562 -1.25,0.73437 -0.46875,0.46875 -0.67188,1.10938 -0.20312,0.625 -0.20312,1.34375 0,1.40625 0.76562,3.35937 h 3.46875 z m 19.9375,0 h -3.28125 v 21 h -2.5625 v -5.53125 l -0.0625,-0.0156 q -0.34375,0.29688 -0.8125,0.60938 -0.45312,0.3125 -1.0625,0.57812 -0.59375,0.26563 -1.34375,0.4375 -0.75,0.17188 -1.65625,0.17188 -1.70312,0 -3.10937,-0.59375 -1.40625,-0.60938 -2.42188,-1.60938 -1,-1.01562 -1.5625,-2.3125 -0.5625,-1.3125 -0.5625,-2.73437 0,-1.4375 0.5625,-2.67188 0.5625,-1.23437 1.53125,-2.125 0.98438,-0.90625 2.28125,-1.42187 1.29688,-0.51563 2.76563,-0.51563 0.45312,0 1.07812,0.0781 0.625,0.0625 1.32813,0.29687 0.71875,0.23438 1.48437,0.67188 0.76563,0.42187 1.5,1.14062 l 0.0625,-0.0156 V 229 h -15.1875 v -2.29688 h 21.03125 z m -15.9375,10.25 q 0,0.85937 0.29688,1.6875 0.29687,0.82812 0.89062,1.48437 0.59375,0.65625 1.46875,1.0625 0.875,0.39063 2.04688,0.39063 1.04687,0 2,-0.34375 l -5.15625,-7.75 q -0.71875,0.59375 -1.14063,1.5 -0.40625,0.90625 -0.40625,1.96875 z m 10.15625,-1.89063 q -0.5625,-0.60937 -1.15625,-1.10937 -0.57812,-0.5 -1.23437,-0.85938 -0.65625,-0.35937 -1.39063,-0.5625 -0.71875,-0.20312 -1.54687,-0.20312 -0.35938,0 -0.6875,0.0469 -0.32813,0.0469 -0.67188,0.125 l 5.07813,7.625 q 0.76562,-0.6875 1.1875,-1.51562 0.42187,-0.84375 0.42187,-1.64063 z m -0.70312,-15.42187 q 0,-0.89063 0.53125,-1.4375 0.51562,-0.5625 1.35937,-0.5625 0.39063,0 0.75,0.15625 0.34375,0.15625 0.60938,0.4375 0.26562,0.26562 0.42187,0.64062 0.14063,0.35938 0.14063,0.79688 0,0.89062 -0.51563,1.4375 -0.53125,0.54687 -1.375,0.54687 -0.40625,0 -0.75,-0.14062 -0.35937,-0.15625 -0.60937,-0.42188 Q 271.14062,223.10937 271,222.75 q -0.15625,-0.375 -0.15625,-0.8125 z M 297.26562,229 h -3.28125 v 21 h -2.5625 v -5.53125 l -0.0625,-0.0156 q -0.34375,0.29688 -0.8125,0.60938 -0.45312,0.3125 -1.0625,0.57812 -0.59375,0.26563 -1.34375,0.4375 -0.75,0.17188 -1.65625,0.17188 -1.70312,0 -3.10937,-0.59375 -1.40625,-0.60938 -2.42188,-1.60938 -1,-1.01562 -1.5625,-2.3125 -0.5625,-1.3125 -0.5625,-2.73437 0,-1.4375 0.5625,-2.67188 0.5625,-1.23437 1.53125,-2.125 0.98438,-0.90625 2.28125,-1.42187 1.29688,-0.51563 2.76563,-0.51563 0.45312,0 1.07812,0.0781 0.625,0.0625 1.32813,0.29687 0.71875,0.23438 1.48437,0.67188 0.76563,0.42187 1.5,1.14062 l 0.0625,-0.0156 V 229 h -15.1875 v -2.29688 h 21.03125 z m -15.9375,10.25 q 0,0.85937 0.29688,1.6875 0.29687,0.82812 0.89062,1.48437 0.59375,0.65625 1.46875,1.0625 0.875,0.39063 2.04688,0.39063 1.04687,0 2,-0.34375 l -5.15625,-7.75 q -0.71875,0.59375 -1.14063,1.5 -0.40625,0.90625 -0.40625,1.96875 z m 10.15625,-1.89063 q -0.5625,-0.60937 -1.15625,-1.10937 -0.57812,-0.5 -1.23437,-0.85938 -0.65625,-0.35937 -1.39063,-0.5625 -0.71875,-0.20312 -1.54687,-0.20312 -0.35938,0 -0.6875,0.0469 -0.32813,0.0469 -0.67188,0.125 l 5.07813,7.625 q 0.76562,-0.6875 1.1875,-1.51562 0.42187,-0.84375 0.42187,-1.64063 z M 309.125,236.1875 q 0.23437,0.73437 0.54687,1.60937 0.3125,0.85938 0.73438,1.75 0.4375,0.875 0.96875,1.70313 0.54687,0.82812 1.23437,1.46875 0.70313,0.64062 1.54688,1.03125 0.84375,0.375 1.875,0.375 1.01562,0 1.71875,-0.29688 0.70312,-0.29687 1.14062,-0.79687 0.4375,-0.5 0.625,-1.17188 0.20313,-0.67187 0.20313,-1.40625 0,-1.60937 -1.17188,-2.51562 -1.15625,-0.90625 -3.35937,-0.90625 -0.26563,0 -0.53125,0.0156 -0.26563,0.0156 -0.53125,0.0469 v -2.375 q 0.125,0.0156 0.21875,0.0156 0.10937,0 0.125,0 1.09375,0 1.9375,-0.26562 0.85937,-0.28125 1.4375,-0.75 0.57812,-0.46875 0.875,-1.09375 0.29687,-0.625 0.29687,-1.3125 0,-0.625 -0.21875,-1.10938 -0.21875,-0.48437 -0.59375,-0.8125 -0.375,-0.32812 -0.89062,-0.48437 -0.51563,-0.17188 -1.125,-0.17188 -0.42188,0 -0.8125,0.0625 -0.39063,0.0469 -0.82813,0.17188 -0.4375,0.10937 -0.9375,0.29687 -0.48437,0.1875 -1.10937,0.46875 l -0.89063,-2.14062 q 1.21875,-0.59375 2.34375,-0.89063 1.125,-0.3125 2.29688,-0.3125 1.125,0 2.07812,0.35938 0.96875,0.35937 1.65625,1 0.70313,0.625 1.09375,1.5 0.39063,0.875 0.39063,1.89062 0,2.79688 -2.67188,4.5 v 0.0625 q 1.04688,0.4375 1.75,1.07813 0.45313,0.0781 0.95313,0.125 0.51562,0.0469 0.9375,0.0469 0.4375,0 0.92187,-0.0625 0.48438,-0.0625 0.98438,-0.23437 0.51562,-0.17188 1.03125,-0.48438 0.53125,-0.3125 1.0625,-0.8125 v -8.65625 h 5.84375 V 229 H 329 v 21 h -2.5625 v -11.875 l -0.0625,-0.0156 q -0.89063,0.59375 -1.67188,0.78125 -0.78125,0.1875 -1.60937,0.1875 -0.26563,0 -0.54688,-0.0156 -0.28125,-0.0312 -0.57812,-0.0625 l -0.0156,0.0625 q 0.25,0.64062 0.25,1.57812 0,1.26563 -0.42187,2.34375 -0.42188,1.07813 -1.21875,1.875 -0.78125,0.78125 -1.90625,1.21875 -1.10938,0.4375 -2.5,0.4375 -1.48438,0 -2.6875,-0.51562 -1.1875,-0.53125 -2.15625,-1.35938 -0.95313,-0.82812 -1.67188,-1.85937 -0.71875,-1.04688 -1.23437,-2.09375 -0.51563,-1.04688 -0.84375,-1.98438 -0.32813,-0.95312 -0.48438,-1.57812 z M 352.20312,229 h -5.29687 v 6.85937 h -5.26563 q -2.45312,0 -3.70312,1.21875 -1.25,1.20313 -1.25,3.46875 0,1.28125 0.40625,2.26563 0.42187,0.98437 1.14062,1.65625 0.73438,0.65625 1.73438,1 1,0.34375 2.17187,0.34375 1.23438,0 1.98438,-0.375 -0.0625,-0.39063 -0.0937,-0.6875 Q 344,244.45312 344,244.15625 q 0,-0.65625 0.15625,-1.34375 0.17187,-0.70313 0.5,-1.26563 0.34375,-0.57812 0.85937,-0.9375 0.53125,-0.35937 1.26563,-0.35937 0.45312,0 0.85937,0.15625 0.40625,0.15625 0.70313,0.48437 0.3125,0.3125 0.48437,0.79688 0.1875,0.48437 0.1875,1.125 0,0.64062 -0.17187,1.1875 -0.17188,0.53125 -0.45313,1 -0.26562,0.45312 -0.60937,0.85937 -0.34375,0.39063 -0.67188,0.71875 0.34375,0.75 0.71875,1.34375 0.39063,0.59375 0.79688,1.0625 0.42187,0.46875 0.84375,0.84375 0.42187,0.375 0.84375,0.70313 l -1.92188,2.01562 q -0.82812,-0.73437 -1.42187,-1.46875 -0.57813,-0.71875 -0.98438,-1.35937 -0.39062,-0.64063 -0.64062,-1.15625 -0.25,-0.51563 -0.40625,-0.82813 -1.07813,0.42188 -2.65625,0.42188 -2.03125,0 -3.54688,-0.65625 -1.51562,-0.67188 -2.53125,-1.78125 -1,-1.125 -1.5,-2.5625 -0.5,-1.4375 -0.5,-2.98438 0,-1.60937 0.51563,-2.82812 0.51562,-1.23438 1.4375,-2.0625 0.92187,-0.84375 2.1875,-1.26563 1.28125,-0.4375 2.79687,-0.4375 h 3.20313 V 229 H 331.1875 v -2.29688 h 21.01562 z m -5.32812,29.01562 -6.21875,-5.79687 1.53125,-1.71875 6.26562,5.75 z M 375.14062,229 h -3.28125 v 21 h -2.5625 v -8.76563 h -8.20312 v 2.23438 q 0,0.23437 -0.0469,0.5 -0.0312,0.26562 -0.15625,0.5 -0.10937,0.21875 -0.3125,0.375 -0.1875,0.14062 -0.48437,0.14062 -0.35938,0 -0.85938,-0.21875 -0.48437,-0.23437 -1.01562,-0.60937 -0.51563,-0.39063 -1.03125,-0.875 -0.5,-0.5 -0.90625,-1.03125 -0.39063,-0.53125 -0.64063,-1.0625 -0.25,-0.53125 -0.25,-0.98438 0,-0.65625 0.46875,-0.95312 0.46875,-0.29688 1.23438,-0.29688 h 1.51562 V 230.375 q 0,-0.8125 -0.39062,-1.23438 -0.39063,-0.4375 -0.98438,-0.4375 -0.65625,0 -1.10937,0.48438 -0.4375,0.48437 -0.4375,1.23437 0,0.14063 0.0312,0.34375 0.0312,0.20313 0.15625,0.46875 0.125,0.25 0.375,0.57813 0.25,0.3125 0.67187,0.67187 l -1.39062,1.70313 q -0.71875,-0.39063 -1.17188,-0.85938 -0.45312,-0.48437 -0.70312,-0.98437 -0.25,-0.5 -0.34375,-0.96875 -0.0937,-0.48438 -0.0937,-0.89063 0,-0.75 0.25,-1.46875 0.26562,-0.73437 0.78125,-1.3125 0.51562,-0.59375 1.28125,-0.95312 0.78125,-0.35938 1.8125,-0.35938 0.90625,0 1.60937,0.29688 0.70313,0.29687 1.17188,0.85937 0.48437,0.54688 0.71875,1.32813 0.25,0.76562 0.25,1.71875 v 8.35937 h 8.20312 v -12.25 h 5.84375 z m -8.90625,21.46875 q 1,-0.625 2.21875,-0.96875 1.20313,-0.34375 2.29688,-0.34375 0.95312,0 1.78125,0.28125 0.8125,0.26562 1.42187,0.78125 0.60938,0.53125 0.95313,1.28125 0.34375,0.75 0.34375,1.6875 0,1 -0.40625,1.875 -0.39063,0.875 -1.1875,1.53125 -0.79688,0.65625 -1.96875,1.03125 -1.17188,0.39062 -2.71875,0.39062 -1.76563,0 -3.15625,-0.48437 -1.40625,-0.46875 -2.51563,-1.20313 -1.10937,-0.71875 -1.95312,-1.59375 -0.84375,-0.875 -1.48438,-1.65625 l 1.45313,-1.70312 q 0.89062,0.96875 1.70312,1.75 0.8125,0.78125 1.6875,1.32812 0.875,0.5625 1.89063,0.85938 1,0.29687 2.26562,0.29687 1.07813,0 1.84375,-0.21875 0.75,-0.20312 1.23438,-0.54687 0.48437,-0.32813 0.70312,-0.76563 0.21875,-0.42187 0.21875,-0.85937 0,-0.79688 -0.59375,-1.26563 -0.60937,-0.46875 -1.64062,-0.46875 -0.67188,0 -1.54688,0.23438 -0.89062,0.23437 -1.79687,0.78125 z M 394.71875,229 h -3.28125 v 21 h -2.54688 v -13.71875 h -5.07812 q -1.04688,0 -1.89063,0.14062 -0.84375,0.125 -1.4375,0.53125 -0.59375,0.39063 -0.92187,1.10938 -0.3125,0.70312 -0.3125,1.85937 0,1.5 0.48437,2.76563 0.5,1.26562 1.26563,2.32812 0.76562,1.04688 1.6875,1.9375 0.9375,0.89063 1.79687,1.64063 l -1.5625,1.78125 q -0.14062,-0.0781 -0.67187,-0.45313 -0.51563,-0.39062 -1.21875,-1.04687 -0.6875,-0.65625 -1.46875,-1.59375 -0.76563,-0.9375 -1.42188,-2.10938 -0.64062,-1.1875 -1.07812,-2.60937 -0.42188,-1.42188 -0.42188,-3.0625 0,-1.625 0.45313,-2.6875 0.46875,-1.07813 1.3125,-1.70313 0.84375,-0.64062 2.04687,-0.89062 1.20313,-0.25 2.6875,-0.25 h 5.75 V 229 h -14.84375 v -2.29688 h 20.67188 z m 27.57812,0 h -3.28125 v 21 h -2.5625 v -5.57813 l -0.0625,-0.0156 q -0.3125,0.29687 -0.73437,0.625 -0.42188,0.3125 -0.96875,0.57812 -0.54688,0.25 -1.23438,0.42188 -0.67187,0.17187 -1.51562,0.17187 -1.54688,0 -2.82813,-0.59375 -1.26562,-0.59375 -2.1875,-1.57812 -0.92187,-1 -1.4375,-2.28125 -0.5,-1.29688 -0.5,-2.70313 0,-1.40625 0.5,-2.60937 0.51563,-1.21875 1.40625,-2.10938 0.89063,-0.89062 2.07813,-1.39062 1.1875,-0.51563 2.54687,-0.51563 0.375,0 0.9375,0.0625 0.57813,0.0625 1.23438,0.28125 0.65625,0.21875 1.35937,0.64063 0.70313,0.40625 1.34375,1.10937 l 0.0625,-0.0156 V 229 h -14.0625 v -2.29688 h 19.90625 z m -5.78125,8.42187 q -0.98437,-1.1875 -2.14062,-1.90625 -1.15625,-0.73437 -2.625,-0.73437 -1.15625,0 -1.96875,0.4375 -0.79688,0.4375 -1.3125,1.10937 -0.51563,0.65625 -0.75,1.46875 -0.23438,0.8125 -0.23438,1.5625 0,0.8125 0.26563,1.60938 0.26562,0.79687 0.78125,1.4375 0.53125,0.625 1.3125,1.03125 0.78125,0.39062 1.82812,0.39062 1.07813,0 1.96875,-0.40625 0.89063,-0.42187 1.53125,-1.0625 0.64063,-0.64062 0.98438,-1.4375 0.35937,-0.79687 0.35937,-1.54687 z M 452.60937,229 h -3.28125 v 21 h -2.5625 v -8.76563 h -8.59375 v 1.85938 q 0,0.48437 -0.0469,0.85937 -0.0312,0.375 -0.17188,0.625 -0.125,0.25 -0.375,0.39063 -0.23437,0.125 -0.64062,0.125 -0.40625,0 -0.90625,-0.23438 -0.5,-0.25 -1.01563,-0.65625 -0.51562,-0.42187 -1,-0.9375 -0.48437,-0.53125 -0.875,-1.09375 -0.375,-0.57812 -0.60937,-1.14062 -0.23438,-0.5625 -0.23438,-1.03125 0,-0.32813 0.10938,-0.53125 0.125,-0.21875 0.32812,-0.32813 0.21875,-0.10937 0.51563,-0.14062 0.29687,-0.0469 0.67187,-0.0469 h 1.6875 V 229 h -5.64062 v -2.29688 h 22.64062 z m -14.4375,0 v 9.95312 h 8.59375 V 229 Z m 33.875,0 h -3.28125 v 21 h -2.57812 v -12.04688 h -7.3125 q 0,1.03125 -0.0312,1.76563 -0.0156,0.73437 -0.125,1.21875 -0.10938,0.46875 -0.32813,0.6875 -0.21875,0.21875 -0.60937,0.21875 -0.8125,0 -1.54688,-0.53125 -0.71875,-0.53125 -1.28125,-1.28125 -0.54687,-0.75 -0.875,-1.5625 -0.32812,-0.8125 -0.32812,-1.375 0,-0.5 0.21875,-0.78125 0.21875,-0.28125 0.57812,-0.42188 0.35938,-0.14062 0.8125,-0.17187 0.46875,-0.0312 0.9375,-0.0312 h 9.89063 V 229 h -14.67188 v -2.29688 h 20.53125 z m 19.4375,0 h -3.28125 v 21 H 485.625 v -12.04688 h -7.3125 q 0,1.03125 -0.0312,1.76563 -0.0156,0.73437 -0.125,1.21875 -0.10938,0.46875 -0.32813,0.6875 -0.21875,0.21875 -0.60937,0.21875 -0.8125,0 -1.54688,-0.53125 -0.71875,-0.53125 -1.28125,-1.28125 -0.54687,-0.75 -0.875,-1.5625 -0.32812,-0.8125 -0.32812,-1.375 0,-0.5 0.21875,-0.78125 0.21875,-0.28125 0.57812,-0.42188 0.35938,-0.14062 0.8125,-0.17187 0.46875,-0.0312 0.9375,-0.0312 H 485.625 V 229 h -14.67188 v -2.29688 h 20.53125 z m 2.9375,21.34375 q -0.71875,0 -1.23437,-0.51563 -0.5,-0.51562 -0.5,-1.23437 0,-0.71875 0.5,-1.23438 0.51562,-0.53125 1.23437,-0.53125 0.73438,0 1.25,0.53125 0.51563,0.51563 0.51563,1.23438 0,0.71875 -0.51563,1.23437 -0.51562,0.51563 -1.25,0.51563 z"
         id="path7" />
    </g>
  </g>
</svg>
