<?xml version="1.0" encoding="UTF-8" standalone="no"?>
<svg
   width="800"
   height="600"
   version="1.1"
   id="svg4"
   sodipodi:docname="bhim_acting.svg"
   xmlns:inkscape="http://www.inkscape.org/namespaces/inkscape"
   xmlns:sodipodi="http://sodipodi.sourceforge.net/DTD/sodipodi-0.dtd"
   xmlns="http://www.w3.org/2000/svg"
   xmlns:svg="http://www.w3.org/2000/svg">
  <sodipodi:namedview
     id="namedview4"
     pagecolor="#ffffff"
     bordercolor="#666666"
     borderopacity="1.0"
     inkscape:showpageshadow="2"
     inkscape:pageopacity="0.0"
     inkscape:pagecheckerboard="0"
     inkscape:deskcolor="#d1d1d1" />
  <defs
     id="defs1">
    <style
       type="text/css"
       id="style1">
      @font-face {{
        font-family: 'Kalam';
        src: url('AxiDraw_API(1)/Kalam-Regular.ttf');
      }}
    </style>
  </defs>
  <g
     id="g4">
    <g
       id="text4"
       style="font-size:32px;font-family:Kalam"
       aria-label="भिमाचा बल, अभिनयाचा रंग,नाटकात साकारतो तो प्रसंग।भावनांचा धारा वाहतो रे,मन मोहतो, करतो आकर्षण ते.">
      <path
         d="m 58.859375,79 h -3.28125 v 21 h -2.5625 V 79 h -3.5625 v -2.296875 h 3.5625 q -0.859375,-2.0625 -0.859375,-3.84375 0,-1.140625 0.375,-2.125 0.375,-0.984375 1.140625,-1.703125 0.78125,-0.71875 1.984375,-1.125 Q 56.859375,67.5 58.515625,67.5 q 2.171875,0 4.171875,0.703125 2.015625,0.703125 3.9375,1.953125 1.921875,1.25 3.796875,2.96875 1.890625,1.71875 3.8125,3.75 h -2.71875 q -0.4375,-0.421875 -1.171875,-1.09375 -0.71875,-0.6875 -1.671875,-1.453125 -0.953125,-0.78125 -2.109375,-1.5625 -1.15625,-0.796875 -2.4375,-1.4375 -1.28125,-0.640625 -2.671875,-1.03125 -1.375,-0.40625 -2.78125,-0.40625 -1.140625,0 -1.921875,0.265625 -0.765625,0.265625 -1.25,0.734375 Q 55.03125,71.359375 54.828125,72 54.625,72.625 54.625,73.34375 q 0,1.40625 0.765625,3.359375 h 3.46875 z m 22.9375,0 h -3.28125 v 21 h -2.5625 V 91.234375 H 67.75 v 2.234375 q 0,0.234375 -0.04687,0.5 -0.03125,0.265625 -0.15625,0.5 -0.109375,0.21875 -0.3125,0.375 -0.1875,0.140625 -0.484375,0.140625 -0.359375,0 -0.859375,-0.21875 Q 65.40625,94.53125 64.875,94.15625 q -0.515625,-0.390625 -1.03125,-0.875 -0.5,-0.5 -0.90625,-1.03125 -0.390625,-0.53125 -0.640625,-1.0625 -0.25,-0.53125 -0.25,-0.984375 0,-0.65625 0.46875,-0.953125 0.46875,-0.296875 1.234375,-0.296875 h 1.515625 V 80.375 q 0,-0.8125 -0.390625,-1.234375 -0.390625,-0.4375 -0.984375,-0.4375 -0.65625,0 -1.109375,0.484375 -0.4375,0.484375 -0.4375,1.234375 0,0.140625 0.03125,0.34375 0.03125,0.203125 0.15625,0.46875 0.125,0.25 0.375,0.578125 0.25,0.3125 0.671875,0.671875 L 62.1875,84.1875 Q 61.46875,83.796875 61.015625,83.328125 60.5625,82.84375 60.3125,82.34375 q -0.25,-0.5 -0.34375,-0.96875 -0.09375,-0.484375 -0.09375,-0.890625 0,-0.75 0.25,-1.46875 0.265625,-0.734375 0.78125,-1.3125 Q 61.421875,77.109375 62.1875,76.75 62.96875,76.390625 64,76.390625 q 0.90625,0 1.609375,0.296875 0.703125,0.296875 1.171875,0.859375 0.484375,0.546875 0.71875,1.328125 0.25,0.765625 0.25,1.71875 v 8.359375 h 8.203125 v -12.25 h 5.84375 z m 21.546875,0 h -3.28125 v 21 H 97.5 v -8.765625 h -8.59375 v 1.859375 q 0,0.484375 -0.04687,0.859375 -0.03125,0.375 -0.171875,0.625 -0.125,0.25 -0.375,0.390625 -0.234375,0.125 -0.640625,0.125 -0.40625,0 -0.90625,-0.234375 -0.5,-0.25 -1.015625,-0.65625 -0.515625,-0.421875 -1,-0.9375 -0.484375,-0.53125 -0.875,-1.09375 Q 83.5,91.59375 83.265625,91.03125 83.03125,90.46875 83.03125,90 q 0,-0.328125 0.109375,-0.53125 0.125,-0.21875 0.328125,-0.328125 Q 83.6875,89.03125 83.984375,89 q 0.296875,-0.04687 0.671875,-0.04687 h 1.6875 V 79 h -5.640625 v -2.296875 h 22.640625 z m -14.4375,0 v 9.953125 H 97.5 V 79 Z m 22.75,0 H 108.375 v 21 h -2.5625 V 79 H 102.25 v -2.296875 h 9.40625 z m 21.64062,0 h -3.28125 v 21 h -2.59374 v -6.578125 l -0.0625,-0.04687 q -0.85938,0.78125 -1.6875,1.234375 -0.8125,0.4375 -1.53125,0.671875 -0.70313,0.21875 -1.28125,0.28125 -0.57813,0.0625 -0.95313,0.0625 -1.4375,0 -2.54687,-0.453125 -1.10938,-0.453125 -1.85938,-1.1875 -0.75,-0.75 -1.14062,-1.703125 -0.39063,-0.96875 -0.39063,-2 0,-1.078125 0.4375,-2.140625 0.45313,-1.0625 1.40625,-1.90625 l -0.0156,-0.0625 h -4.95313 V 83.875 h 12.5625 v 2.296875 h -1.60937 q -1.60938,0 -2.64063,0.421875 -1.03125,0.421875 -1.625,1.03125 -0.59375,0.609375 -0.82812,1.3125 -0.21875,0.6875 -0.21875,1.25 0,0.46875 0.15625,1.015625 0.15625,0.53125 0.51562,0.984375 0.375,0.453125 0.98438,0.75 0.625,0.296875 1.5625,0.296875 0.98437,0 1.82812,-0.3125 0.85938,-0.328125 1.57813,-0.84375 0.71875,-0.515625 1.29687,-1.15625 Q 127,90.265625 127.42188,89.625 V 79 H 110.5625 v -2.296875 h 22.73437 z m 8.3125,0 h -3.28125 v 21 h -2.5625 V 79 h -3.5625 v -2.296875 h 9.40625 z m 28.70313,0 h -3.28125 v 21 h -2.5625 v -5.53125 l -0.0625,-0.01563 q -0.34375,0.296875 -0.8125,0.609375 -0.45313,0.3125 -1.0625,0.578125 -0.59375,0.265625 -1.34375,0.4375 -0.75,0.171875 -1.65625,0.171875 -1.70313,0 -3.10938,-0.59375 Q 155.01562,95.046875 154,94.046875 153,93.03125 152.4375,91.734375 151.875,90.421875 151.875,89 q 0,-1.4375 0.5625,-2.671875 0.5625,-1.234375 1.53125,-2.125 0.98437,-0.90625 2.28125,-1.421875 1.29687,-0.515625 2.76562,-0.515625 0.45313,0 1.07813,0.07813 0.625,0.0625 1.32812,0.296875 0.71875,0.234375 1.48438,0.671875 0.76562,0.421875 1.5,1.140625 l 0.0625,-0.01563 V 79 h -15.1875 V 76.703125 H 170.3125 Z M 154.375,89.25 q 0,0.859375 0.29687,1.6875 0.29688,0.828125 0.89063,1.484375 0.59375,0.65625 1.46875,1.0625 0.875,0.390625 2.04687,0.390625 1.04688,0 2,-0.34375 l -5.15625,-7.75 q -0.71875,0.59375 -1.14062,1.5 Q 154.375,88.1875 154.375,89.25 Z m 10.15625,-1.890625 Q 163.96875,86.75 163.375,86.25 162.79687,85.75 162.14062,85.390625 161.48437,85.03125 160.75,84.828125 160.03125,84.625 159.20312,84.625 q -0.35937,0 -0.6875,0.04687 -0.32812,0.04687 -0.67187,0.125 l 5.07812,7.625 q 0.76563,-0.6875 1.1875,-1.515625 0.42188,-0.84375 0.42188,-1.640625 z M 193.17187,79 h -3.28125 v 21.01563 h -2.5625 V 85.375 q -0.82812,-0.296875 -1.5625,-0.296875 -0.73437,0 -1.28125,0.28125 -0.54687,0.265625 -0.92187,0.71875 -0.35938,0.453125 -0.54688,1.0625 -0.1875,0.609375 -0.1875,1.28125 0,0.265625 0.0156,0.546875 0.0312,0.265625 0.0625,0.53125 h -2.39063 q -0.125,-0.90625 -0.29687,-1.734375 Q 180.0625,86.9375 179.75,86.3125 q -0.29688,-0.625 -0.78125,-0.984375 -0.48438,-0.375 -1.25,-0.375 -0.73438,0 -1.26563,0.296875 -0.51562,0.296875 -0.85937,0.828125 -0.34375,0.53125 -0.51563,1.25 -0.15625,0.703125 -0.15625,1.53125 0,1.78125 0.60938,3.203125 0.60937,1.40625 1.64062,2.53125 1.04688,1.125 2.40625,2.015625 1.375,0.875 2.89063,1.609375 l -1.26563,2.15625 q -0.5625,-0.25 -1.45312,-0.75 -0.875,-0.5 -1.875,-1.234375 -0.98438,-0.734375 -1.98438,-1.71875 -1,-0.984375 -1.8125,-2.203125 -0.79687,-1.21875 -1.29687,-2.6875 -0.5,-1.46875 -0.5,-3.171875 0,-1.3125 0.375,-2.4375 0.375,-1.140625 1.0625,-1.96875 0.70312,-0.84375 1.6875,-1.3125 0.98437,-0.484375 2.1875,-0.484375 0.90625,0 1.5625,0.265625 0.65625,0.25 1.125,0.640625 0.48437,0.375 0.79687,0.828125 0.3125,0.4375 0.54688,0.828125 l 0.0781,-0.01563 q 0.29688,-0.65625 0.70313,-1.109375 0.42187,-0.453125 0.90625,-0.734375 0.5,-0.28125 1.04687,-0.40625 0.54688,-0.140625 1.09375,-0.140625 0.48438,0 0.95313,0.09375 0.48437,0.07813 0.92187,0.234375 V 79 h -18.10937 v -2.296875 h 23.95312 z m 4.39063,17.4375 -2.5,7.6875 h -1.82813 l 1.82813,-7.6875 z m 14.40625,-10.25 q 0.23437,0.734375 0.54687,1.609375 0.3125,0.859375 0.73438,1.75 0.4375,0.875 0.96875,1.703125 0.54687,0.828125 1.23437,1.46875 0.70313,0.640625 1.54688,1.03125 0.84375,0.375 1.875,0.375 1.01562,0 1.71875,-0.296875 0.70312,-0.296875 1.14062,-0.796875 0.4375,-0.5 0.625,-1.171875 0.20313,-0.671875 0.20313,-1.40625 0,-1.609375 -1.17188,-2.515625 -1.15625,-0.90625 -3.35937,-0.90625 -0.26563,0 -0.53125,0.01563 -0.26563,0.01563 -0.53125,0.04687 v -2.375 q 0.125,0.01563 0.21875,0.01563 0.10937,0 0.125,0 1.09375,0 1.9375,-0.265625 0.85937,-0.28125 1.4375,-0.75 0.57812,-0.46875 0.875,-1.09375 0.29687,-0.625 0.29687,-1.3125 0,-0.625 -0.21875,-1.109375 -0.21875,-0.484375 -0.59375,-0.8125 -0.375,-0.328125 -0.89062,-0.484375 -0.51563,-0.171875 -1.125,-0.171875 -0.42188,0 -0.8125,0.0625 -0.39063,0.04687 -0.82813,0.171875 -0.4375,0.109375 -0.9375,0.296875 -0.48437,0.1875 -1.10937,0.46875 l -0.89063,-2.140625 q 1.21875,-0.59375 2.34375,-0.890625 1.125,-0.3125 2.29688,-0.3125 1.125,0 2.07812,0.359375 0.96875,0.359375 1.65625,1 0.70313,0.625 1.09375,1.5 0.39063,0.875 0.39063,1.890625 0,2.796875 -2.67188,4.5 v 0.0625 q 1.04688,0.4375 1.75,1.078125 0.45313,0.07813 0.95313,0.125 0.51562,0.04687 0.9375,0.04687 0.4375,0 0.92187,-0.0625 0.48438,-0.0625 0.98438,-0.234375 0.51562,-0.171875 1.03125,-0.484375 0.53125,-0.3125 1.0625,-0.8125 v -8.65625 H 235.125 V 79 h -3.28125 v 21 h -2.5625 V 88.125 l -0.0625,-0.01563 q -0.89063,0.59375 -1.67188,0.78125 -0.78125,0.1875 -1.60937,0.1875 -0.26563,0 -0.54688,-0.01563 Q 225.10937,89.03125 224.8125,89 l -0.0156,0.0625 q 0.25,0.640625 0.25,1.578125 0,1.265625 -0.42187,2.34375 -0.42188,1.078125 -1.21875,1.875 -0.78125,0.78125 -1.90625,1.21875 -1.10938,0.4375 -2.5,0.4375 -1.48438,0 -2.6875,-0.515625 -1.1875,-0.53125 -2.15625,-1.359375 Q 213.20312,93.8125 212.48437,92.78125 211.76562,91.734375 211.25,90.6875 210.73437,89.640625 210.40625,88.703125 210.07812,87.75 209.92187,87.125 Z M 243.4375,79 h -3.28125 v 21 h -2.5625 V 79 h -3.5625 v -2.296875 h 3.5625 q -0.85938,-2.0625 -0.85938,-3.84375 0,-1.140625 0.375,-2.125 0.375,-0.984375 1.14063,-1.703125 0.78125,-0.71875 1.98437,-1.125 Q 241.4375,67.5 243.09375,67.5 q 2.17187,0 4.17187,0.703125 2.01563,0.703125 3.9375,1.953125 1.92188,1.25 3.79688,2.96875 1.89062,1.71875 3.8125,3.75 h -2.71875 q -0.4375,-0.421875 -1.17188,-1.09375 -0.71875,-0.6875 -1.67187,-1.453125 -0.95313,-0.78125 -2.10938,-1.5625 -1.15625,-0.796875 -2.4375,-1.4375 -1.28125,-0.640625 -2.67187,-1.03125 -1.375,-0.40625 -2.78125,-0.40625 -1.14063,0 -1.92188,0.265625 -0.76562,0.265625 -1.25,0.734375 -0.46875,0.46875 -0.67187,1.109375 -0.20313,0.625 -0.20313,1.34375 0,1.40625 0.76563,3.359375 h 3.46875 z m 22.9375,0 h -3.28125 v 21 h -2.5625 v -8.765625 h -8.20313 v 2.234375 q 0,0.234375 -0.0469,0.5 -0.0312,0.265625 -0.15625,0.5 -0.10938,0.21875 -0.3125,0.375 -0.1875,0.140625 -0.48438,0.140625 -0.35937,0 -0.85937,-0.21875 -0.48438,-0.234375 -1.01563,-0.609375 -0.51562,-0.390625 -1.03125,-0.875 -0.5,-0.5 -0.90625,-1.03125 -0.39062,-0.53125 -0.64062,-1.0625 -0.25,-0.53125 -0.25,-0.984375 0,-0.65625 0.46875,-0.953125 0.46875,-0.296875 1.23437,-0.296875 h 1.51563 V 80.375 q 0,-0.8125 -0.39063,-1.234375 -0.39062,-0.4375 -0.98437,-0.4375 -0.65625,0 -1.10938,0.484375 -0.4375,0.484375 -0.4375,1.234375 0,0.140625 0.0312,0.34375 0.0312,0.203125 0.15625,0.46875 0.125,0.25 0.375,0.578125 0.25,0.3125 0.67188,0.671875 l -1.39063,1.703125 q -0.71875,-0.390625 -1.17187,-0.859375 -0.45313,-0.484375 -0.70313,-0.984375 -0.25,-0.5 -0.34375,-0.96875 -0.0937,-0.484375 -0.0937,-0.890625 0,-0.75 0.25,-1.46875 0.26563,-0.734375 0.78125,-1.3125 Q 246,77.109375 246.76562,76.75 q 0.78125,-0.359375 1.8125,-0.359375 0.90625,0 1.60938,0.296875 0.70312,0.296875 1.17187,0.859375 0.48438,0.546875 0.71875,1.328125 0.25,0.765625 0.25,1.71875 v 8.359375 h 8.20313 v -12.25 h 5.84375 z m 19.4375,0 h -3.28125 v 21 h -2.57813 V 87.953125 h -7.3125 q 0,1.03125 -0.0312,1.765625 -0.0156,0.734375 -0.125,1.21875 -0.10937,0.46875 -0.32812,0.6875 -0.21875,0.21875 -0.60938,0.21875 -0.8125,0 -1.54687,-0.53125 -0.71875,-0.53125 -1.28125,-1.28125 -0.54688,-0.75 -0.875,-1.5625 -0.32813,-0.8125 -0.32813,-1.375 0,-0.5 0.21875,-0.78125 0.21875,-0.28125 0.57813,-0.421875 0.35937,-0.140625 0.8125,-0.171875 0.46875,-0.03125 0.9375,-0.03125 h 9.89062 V 79 h -14.67187 v -2.296875 h 20.53125 z m 19.90625,0 h -3.28125 v 21 h -2.5625 v -7.3125 l -0.0625,-0.01563 q -0.42188,0.34375 -1.01563,0.6875 -0.57812,0.328125 -1.29687,0.59375 -0.71875,0.25 -1.54688,0.421875 -0.82812,0.15625 -1.73437,0.15625 -1.8125,0 -3.10938,-0.65625 -1.28125,-0.65625 -2.15625,-1.75 -0.85937,-1.109375 -1.35937,-2.515625 -0.5,-1.421875 -0.71875,-2.953125 1.03125,-0.140625 1.76562,-0.484375 0.73438,-0.34375 1.1875,-0.8125 0.45313,-0.484375 0.65625,-1.046875 0.21875,-0.5625 0.21875,-1.125 0,-0.375 -0.0781,-0.84375 -0.0625,-0.46875 -0.23438,-1 -0.17187,-0.546875 -0.45312,-1.140625 Q 289.65625,79.609375 289.23437,79 h -4.51562 v -2.296875 h 21 z M 292,79 q 0.5625,0.953125 0.875,2.09375 0.32812,1.125 0.32812,2.21875 0,0.796875 -0.21875,1.546875 -0.20312,0.75 -0.64062,1.40625 -0.4375,0.640625 -1.09375,1.15625 -0.64063,0.5 -1.5,0.796875 0.25,1.046875 0.6875,1.796875 0.4375,0.734375 1.03125,1.21875 0.59375,0.46875 1.32812,0.6875 0.73438,0.21875 1.57813,0.21875 0.8125,0 1.59375,-0.1875 0.79687,-0.1875 1.5,-0.53125 0.71875,-0.359375 1.32812,-0.859375 0.60938,-0.5 1.07813,-1.125 V 79 Z m 22.03125,0 H 310.75 v 21 h -2.5625 V 79 h -3.5625 v -2.296875 h 9.40625 z m 21.64062,0 h -3.28125 v 21 h -2.59375 v -6.578125 l -0.0625,-0.04687 q -0.85937,0.78125 -1.6875,1.234375 -0.8125,0.4375 -1.53125,0.671875 -0.70312,0.21875 -1.28125,0.28125 -0.57812,0.0625 -0.95312,0.0625 -1.4375,0 -2.54688,-0.453125 -1.10937,-0.453125 -1.85937,-1.1875 -0.75,-0.75 -1.14063,-1.703125 -0.39062,-0.96875 -0.39062,-2 0,-1.078125 0.4375,-2.140625 0.45312,-1.0625 1.40625,-1.90625 l -0.0156,-0.0625 h -4.95312 V 83.875 h 12.5625 v 2.296875 h -1.60938 q -1.60937,0 -2.64062,0.421875 -1.03125,0.421875 -1.625,1.03125 -0.59375,0.609375 -0.82813,1.3125 -0.21875,0.6875 -0.21875,1.25 0,0.46875 0.15625,1.015625 0.15625,0.53125 0.51563,0.984375 0.375,0.453125 0.98437,0.75 0.625,0.296875 1.5625,0.296875 0.98438,0 1.82813,-0.3125 0.85937,-0.328125 1.57812,-0.84375 0.71875,-0.515625 1.29688,-1.15625 0.59375,-0.65625 1.01562,-1.296875 V 79 H 312.9375 v -2.296875 h 22.73437 z m 8.3125,0 h -3.28125 v 21 h -2.5625 V 79 h -3.5625 v -2.296875 h 9.40625 z m 24.40625,0 H 362.5 q 0.79687,1.375 1.28125,2.8125 0.5,1.421875 0.5,2.890625 0,1.109375 -0.34375,2.140625 -0.32813,1.015625 -0.98438,1.828125 -0.64062,0.796875 -1.60937,1.3125 -0.95313,0.5 -2.20313,0.5625 l -0.0312,0.07813 q 1.40625,2.1875 3.15625,4.140625 1.75,1.9375 4.04688,3.6875 l -1.67188,1.921875 q -1.32812,-0.984375 -2.53125,-2.125 -1.1875,-1.15625 -2.25,-2.375 -1.0625,-1.234375 -1.98437,-2.484375 -0.90625,-1.265625 -1.67188,-2.453125 -0.75,-1.203125 -1.34375,-2.296875 -0.59375,-1.109375 -1.01562,-2.015625 l 2.14062,-1.15625 q 0.5625,1.21875 1.26563,1.921875 0.71875,0.6875 1.65625,0.6875 0.67187,0 1.20312,-0.34375 0.53125,-0.34375 0.89063,-0.875 0.35937,-0.546875 0.54687,-1.1875 0.1875,-0.65625 0.1875,-1.28125 0,-0.734375 -0.1875,-1.4375 -0.1875,-0.71875 -0.48437,-1.390625 -0.29688,-0.6875 -0.67188,-1.328125 Q 360.03125,79.59375 359.6875,79 h -8.03125 v -2.296875 h 16.73437 z m -9.40625,-7.0625 q 0,-0.890625 0.53125,-1.4375 0.51563,-0.5625 1.35938,-0.5625 0.39062,0 0.75,0.15625 0.34375,0.15625 0.60937,0.4375 0.26563,0.265625 0.42188,0.640625 0.14062,0.359375 0.14062,0.796875 0,0.890625 -0.51562,1.4375 -0.53125,0.546875 -1.375,0.546875 -0.40625,0 -0.75,-0.140625 -0.35938,-0.15625 -0.60938,-0.421875 -0.26562,-0.28125 -0.40625,-0.640625 -0.15625,-0.375 -0.15625,-0.8125 z M 388.34375,79 h -3.28125 v 21 H 382.5 V 79 h -7.04688 v 12.125 q 0,0.25 -0.0312,0.578125 -0.0312,0.328125 -0.15625,0.640625 -0.10937,0.296875 -0.32812,0.515625 -0.21875,0.203125 -0.60938,0.203125 -0.42187,0 -0.9375,-0.265625 -0.5,-0.28125 -1.03125,-0.71875 -0.53125,-0.453125 -1.03125,-1.015625 -0.48437,-0.5625 -0.875,-1.15625 -0.39062,-0.59375 -0.625,-1.15625 -0.23437,-0.5625 -0.23437,-1 0,-0.390625 0.1875,-0.625 0.20312,-0.234375 0.54687,-0.359375 0.35938,-0.125 0.85938,-0.15625 0.51562,-0.03125 1.125,-0.03125 h 0.54687 V 79 h -5.5625 v -2.296875 h 21.04688 z m 4.39062,17.4375 -2.5,7.6875 h -1.82812 l 1.82812,-7.6875 z"
         id="path4" />
      <path
         d="m 69.984375,129 h -3.28125 v 21 H 64.125 v -12.04688 h -7.3125 q 0,1.03125 -0.03125,1.76563 -0.01563,0.73437 -0.125,1.21875 -0.109375,0.46875 -0.328125,0.6875 -0.21875,0.21875 -0.609375,0.21875 -0.8125,0 -1.546875,-0.53125 -0.71875,-0.53125 -1.28125,-1.28125 -0.546875,-0.75 -0.875,-1.5625 -0.328125,-0.8125 -0.328125,-1.375 0,-0.5 0.21875,-0.78125 0.21875,-0.28125 0.578125,-0.42188 0.359375,-0.14062 0.8125,-0.17187 0.46875,-0.0312 0.9375,-0.0312 H 64.125 V 129 H 49.453125 v -2.29687 h 20.53125 z m 8.3125,0 h -3.28125 v 21 h -2.5625 v -21 h -3.5625 v -2.29687 h 9.40625 z m 15.96875,18.42187 q -1.265625,0.75 -2.6875,1.125 -1.421875,0.375 -2.84375,0.375 -1.9375,0 -3.515625,-0.64062 -1.5625,-0.65625 -2.6875,-1.79688 -1.109375,-1.15625 -1.71875,-2.70312 -0.59375,-1.54688 -0.59375,-3.35938 0,-1.71875 0.53125,-3 0.546875,-1.28125 1.484375,-2.125 0.9375,-0.85937 2.203125,-1.28125 1.28125,-0.42187 2.75,-0.42187 h 3.046875 V 129 h -13.03125 v -2.29687 h 20 V 129 h -4.40625 v 6.875 H 87.75 q -1.125,0 -2.0625,0.3125 -0.921875,0.3125 -1.59375,0.92187 -0.65625,0.60938 -1.03125,1.51563 -0.359375,0.89062 -0.359375,2.07812 0,1.29688 0.421875,2.35938 0.4375,1.0625 1.203125,1.82812 0.78125,0.76563 1.84375,1.1875 Q 87.25,146.5 88.53125,146.5 q 0.765625,0 1.546875,-0.15625 0.78125,-0.15625 1.515625,-0.42188 0.734375,-0.26562 1.40625,-0.60937 0.6875,-0.34375 1.265625,-0.73438 z M 124.82813,129 H 111.625 v 6.15625 l 0.0781,0.0312 q 0.79687,-1.09375 1.98437,-1.75 1.1875,-0.67188 2.60938,-0.67188 1.125,0 2.07812,0.46875 0.96875,0.45313 1.67188,1.26563 0.70312,0.79687 1.09375,1.89062 0.40625,1.09375 0.40625,2.35938 0,1.4375 -0.5,2.65625 -0.5,1.20312 -1.28125,2.1875 -0.78125,0.98437 -1.76563,1.75 -0.98437,0.75 -1.9375,1.28125 l -1.39062,-2.40625 q 0.3125,-0.17188 0.76562,-0.45313 0.45313,-0.28125 0.9375,-0.65625 0.5,-0.375 0.96875,-0.84375 0.48438,-0.48437 0.85938,-1.04687 0.39062,-0.5625 0.625,-1.21875 0.23437,-0.65625 0.23437,-1.39063 0,-0.67187 -0.21875,-1.28125 -0.20312,-0.60937 -0.57812,-1.0625 -0.375,-0.45312 -0.90625,-0.71875 -0.51563,-0.26562 -1.14063,-0.26562 -0.8125,0 -1.57812,0.42187 -0.76563,0.42188 -1.39063,1.0625 -0.625,0.625 -1.0625,1.34375 -0.42187,0.71875 -0.5625,1.32813 V 150 h -2.5625 v -5.98438 L 109,143.98437 q -0.23437,0.20313 -0.59375,0.5 -0.35937,0.28125 -0.875,0.54688 -0.5,0.26562 -1.17187,0.45312 -0.65625,0.1875 -1.48438,0.1875 -1.375,0 -2.54687,-0.53125 -1.15625,-0.53125 -2.01563,-1.4375 -0.84375,-0.92187 -1.328125,-2.15625 Q 98.5,140.3125 98.5,138.90625 q 0,-1.34375 0.4375,-2.48438 0.453125,-1.14062 1.21875,-1.95312 0.78125,-0.82813 1.8125,-1.28125 1.04688,-0.46875 2.25,-0.46875 0.84375,0 1.5625,0.21875 0.73438,0.20312 1.32813,0.51562 0.60937,0.29688 1.07812,0.65625 0.48438,0.34375 0.8125,0.625 l 0.0625,-0.0156 V 129 H 96.109375 v -2.29687 h 28.718755 z m -20.23438,6.15625 q -0.89062,0 -1.57812,0.375 -0.67188,0.35937 -1.125,0.9375 -0.45313,0.5625 -0.6875,1.28125 -0.21875,0.70312 -0.21875,1.39062 0,0.75 0.26562,1.5 0.26563,0.73438 0.75,1.32813 0.5,0.59375 1.1875,0.96875 0.6875,0.35937 1.51563,0.35937 0.70312,0 1.46875,-0.28125 0.78125,-0.29687 1.42187,-0.90625 0.65625,-0.60937 1.07813,-1.54687 0.42187,-0.95313 0.42187,-2.26563 v -0.76562 q -0.375,-0.46875 -0.89062,-0.89063 -0.5,-0.4375 -1.09375,-0.76562 -0.57813,-0.32813 -1.21875,-0.51563 -0.64063,-0.20312 -1.29688,-0.20312 z M 133.14062,129 h -3.28125 v 21 h -2.56249 v -21 h -3.5625 v -2.29687 h 9.40624 z m 19.57813,0 h -3.28125 v 21 h -2.54688 v -13.71875 h -5.07812 q -1.04688,0 -1.89063,0.14062 -0.84375,0.125 -1.4375,0.53125 -0.59375,0.39063 -0.92187,1.10938 -0.3125,0.70312 -0.3125,1.85937 0,1.5 0.48437,2.76563 0.5,1.26562 1.26563,2.32812 0.76562,1.04688 1.6875,1.9375 0.9375,0.89063 1.79687,1.64063 l -1.5625,1.78125 q -0.14062,-0.0781 -0.67187,-0.45313 -0.51563,-0.39062 -1.21875,-1.04687 -0.6875,-0.65625 -1.46875,-1.59375 -0.76563,-0.9375 -1.42188,-2.10938 -0.64062,-1.1875 -1.07812,-2.60937 -0.42188,-1.42188 -0.42188,-3.0625 0,-1.625 0.45313,-2.6875 0.46875,-1.07813 1.3125,-1.70313 0.84375,-0.64062 2.04687,-0.89062 1.20313,-0.25 2.6875,-0.25 h 5.75 V 129 h -14.84375 v -2.29687 h 20.67188 z m 31.8125,-2.29687 V 129 H 181.25 v 21 h -2.59375 v -10.5 h -9.04688 q -0.82812,0.54687 -1.98437,0.65625 l -0.0312,0.0781 q 1.51562,2.375 3.32812,4.42188 1.8125,2.04687 4.125,3.79687 L 173.375,150.375 q -1.32813,-0.98438 -2.53125,-2.125 -1.1875,-1.14063 -2.25,-2.35938 -1.04688,-1.23437 -1.96875,-2.48437 -0.92188,-1.26563 -1.6875,-2.48438 -0.76563,-1.21875 -1.375,-2.34375 -0.60938,-1.14062 -1.0625,-2.10937 l 2.14062,-1.15625 q 0.29688,0.6875 0.57813,1.15625 0.29687,0.45312 0.59375,0.73437 0.29687,0.26563 0.625,0.39063 0.32812,0.10937 0.70312,0.10937 1.07813,0 1.57813,-0.84375 0.51562,-0.84375 0.51562,-2.21875 0,-0.8125 -0.15625,-1.59375 -0.15625,-0.79687 -0.40625,-1.51562 -0.23437,-0.73438 -0.51562,-1.375 Q 167.875,129.51562 167.625,129 h -7.23438 v -2.29687 z M 178.65625,129 h -8.32813 q 0.65625,1.42187 1.03125,2.85937 0.375,1.4375 0.375,2.85938 0,0.65625 -0.10937,1.29687 -0.0937,0.625 -0.32813,1.1875 l 0.0312,0.0312 h 7.32813 z m 14.1875,0 h -3.28125 v 21 H 187 v -21 h -3.5625 v -2.29687 h 9.40625 z m 27.625,0 h -13.20313 v 6.15625 l 0.0781,0.0312 q 0.79687,-1.09375 1.98437,-1.75 1.1875,-0.67188 2.60938,-0.67188 1.125,0 2.07812,0.46875 0.96875,0.45313 1.67188,1.26563 0.70312,0.79687 1.09375,1.89062 0.40625,1.09375 0.40625,2.35938 0,1.4375 -0.5,2.65625 -0.5,1.20312 -1.28125,2.1875 -0.78125,0.98437 -1.76563,1.75 -0.98437,0.75 -1.9375,1.28125 l -1.39062,-2.40625 q 0.3125,-0.17188 0.76562,-0.45313 0.45313,-0.28125 0.9375,-0.65625 0.5,-0.375 0.96875,-0.84375 0.48438,-0.48437 0.85938,-1.04687 0.39062,-0.5625 0.625,-1.21875 0.23437,-0.65625 0.23437,-1.39063 0,-0.67187 -0.21875,-1.28125 -0.20312,-0.60937 -0.57812,-1.0625 -0.375,-0.45312 -0.90625,-0.71875 -0.51563,-0.26562 -1.14063,-0.26562 -0.8125,0 -1.57812,0.42187 -0.76563,0.42188 -1.39063,1.0625 -0.625,0.625 -1.0625,1.34375 -0.42187,0.71875 -0.5625,1.32813 V 150 h -2.5625 v -5.98438 l -0.0625,-0.0312 q -0.23437,0.20313 -0.59375,0.5 -0.35937,0.28125 -0.875,0.54688 -0.5,0.26562 -1.17187,0.45312 -0.65625,0.1875 -1.48438,0.1875 -1.375,0 -2.54687,-0.53125 -1.15625,-0.53125 -2.01563,-1.4375 -0.84375,-0.92187 -1.32812,-2.15625 -0.48438,-1.23437 -0.48438,-2.64062 0,-1.34375 0.4375,-2.48438 0.45313,-1.14062 1.21875,-1.95312 0.78125,-0.82813 1.8125,-1.28125 1.04688,-0.46875 2.25,-0.46875 0.84375,0 1.5625,0.21875 0.73438,0.20312 1.32813,0.51562 0.60937,0.29688 1.07812,0.65625 0.48438,0.34375 0.8125,0.625 l 0.0625,-0.0156 V 129 H 191.75 v -2.29687 h 28.71875 z m -20.23438,6.15625 q -0.89062,0 -1.57812,0.375 -0.67188,0.35937 -1.125,0.9375 -0.45313,0.5625 -0.6875,1.28125 -0.21875,0.70312 -0.21875,1.39062 0,0.75 0.26562,1.5 0.26563,0.73438 0.75,1.32813 0.5,0.59375 1.1875,0.96875 0.6875,0.35937 1.51563,0.35937 0.70312,0 1.46875,-0.28125 0.78125,-0.29687 1.42187,-0.90625 0.65625,-0.60937 1.07813,-1.54687 0.42187,-0.95313 0.42187,-2.26563 v -0.76562 q -0.375,-0.46875 -0.89062,-0.89063 -0.5,-0.4375 -1.09375,-0.76562 -0.57813,-0.32813 -1.21875,-0.51563 -0.64063,-0.20312 -1.29688,-0.20312 z M 228.78125,129 H 225.5 v 21 h -2.5625 v -21 h -3.5625 v -2.29687 h 9.40625 z m 15.64062,0 h -5.89062 q 0.79687,1.375 1.28125,2.8125 0.5,1.42187 0.5,2.89062 0,1.10938 -0.34375,2.14063 -0.32813,1.01562 -0.98438,1.82812 -0.64062,0.79688 -1.60937,1.3125 -0.95313,0.5 -2.20313,0.5625 l -0.0312,0.0781 q 1.40625,2.1875 3.15625,4.14062 1.75,1.9375 4.04688,3.6875 l -1.67188,1.92188 q -1.32812,-0.98438 -2.53125,-2.125 -1.1875,-1.15625 -2.25,-2.375 -1.0625,-1.23438 -1.98437,-2.48438 Q 233,142.125 232.23437,140.9375 q -0.75,-1.20313 -1.34375,-2.29688 -0.59375,-1.10937 -1.01562,-2.01562 l 2.14062,-1.15625 q 0.5625,1.21875 1.26563,1.92187 0.71875,0.6875 1.65625,0.6875 0.67187,0 1.20312,-0.34375 0.53125,-0.34375 0.89063,-0.875 0.35937,-0.54687 0.54687,-1.1875 0.1875,-0.65625 0.1875,-1.28125 0,-0.73437 -0.1875,-1.4375 -0.1875,-0.71875 -0.48437,-1.39062 -0.29688,-0.6875 -0.67188,-1.32813 Q 236.0625,129.59375 235.71875,129 h -8.03125 v -2.29687 h 16.73437 z M 264,129 h -3.28125 v 21 h -2.54688 v -13.71875 h -5.07812 q -1.04688,0 -1.89063,0.14062 -0.84375,0.125 -1.4375,0.53125 -0.59375,0.39063 -0.92187,1.10938 -0.3125,0.70312 -0.3125,1.85937 0,1.5 0.48437,2.76563 0.5,1.26562 1.26563,2.32812 0.76562,1.04688 1.6875,1.9375 0.9375,0.89063 1.79687,1.64063 l -1.5625,1.78125 q -0.14062,-0.0781 -0.67187,-0.45313 -0.51563,-0.39062 -1.21875,-1.04687 -0.6875,-0.65625 -1.46875,-1.59375 -0.76563,-0.9375 -1.42188,-2.10938 -0.64062,-1.1875 -1.07812,-2.60937 -0.42188,-1.42188 -0.42188,-3.0625 0,-1.625 0.45313,-2.6875 0.46875,-1.07813 1.3125,-1.70313 0.84375,-0.64062 2.04687,-0.89062 1.20313,-0.25 2.6875,-0.25 h 5.75 V 129 h -14.84375 v -2.29687 H 264 Z m 8.3125,0 h -3.28125 v 21 h -2.5625 v -21 h -3.5625 v -2.29687 h 9.40625 z m -3.5,-1.85937 h -2.26563 l -1.42187,-2.67188 q -0.90625,-1.70312 -1.65625,-2.70312 -0.73438,-1 -1.39063,-1.51563 -0.67187,-0.53125 -1.3125,-0.67187 -0.64062,-0.15625 -1.34375,-0.15625 h -3.03125 v -2.53125 H 259.25 q 0.90625,0 1.64062,0.15625 0.73438,0.14062 1.40625,0.53125 0.65625,0.375 1.28125,1.0625 0.64063,0.67187 1.35938,1.75 0.71875,1.0625 1.5625,2.5625 0.85937,1.48437 1.95312,3.51562 z M 300.65625,129 H 297.375 v 21 h -2.54688 V 136.28125 H 289.75 q -1.04688,0 -1.89063,0.14062 -0.84375,0.125 -1.4375,0.53125 -0.59375,0.39063 -0.92187,1.10938 -0.3125,0.70312 -0.3125,1.85937 0,1.5 0.48437,2.76563 0.5,1.26562 1.26563,2.32812 0.76562,1.04688 1.6875,1.9375 0.9375,0.89063 1.79687,1.64063 l -1.5625,1.78125 q -0.14062,-0.0781 -0.67187,-0.45313 -0.51563,-0.39062 -1.21875,-1.04687 -0.6875,-0.65625 -1.46875,-1.59375 -0.76563,-0.9375 -1.42188,-2.10938 -0.64062,-1.1875 -1.07812,-2.60937 -0.42188,-1.42188 -0.42188,-3.0625 0,-1.625 0.45313,-2.6875 0.46875,-1.07813 1.3125,-1.70313 0.84375,-0.64062 2.04687,-0.89062 1.20313,-0.25 2.6875,-0.25 h 5.75 V 129 h -14.84375 v -2.29687 h 20.67188 z m 8.3125,0 h -3.28125 v 21 h -2.5625 v -21 h -3.5625 v -2.29687 h 9.40625 z m -3.5,-1.85937 h -2.26563 l -1.42187,-2.67188 q -0.90625,-1.70312 -1.65625,-2.70312 -0.73438,-1 -1.39063,-1.51563 -0.67187,-0.53125 -1.3125,-0.67187 -0.64062,-0.15625 -1.34375,-0.15625 h -3.03125 v -2.53125 h 2.85938 q 0.90625,0 1.64062,0.15625 0.73438,0.14062 1.40625,0.53125 0.65625,0.375 1.28125,1.0625 0.64063,0.67187 1.35938,1.75 0.71875,1.0625 1.5625,2.5625 0.85937,1.48437 1.95312,3.51562 z M 337,129 h -3.28125 v 21 h -2.57813 v -6.96875 l -0.0625,-0.0156 -9.53125,7.17188 -1.60937,-1.95313 5.54687,-3.98437 -0.0156,-0.0625 q -1.20313,-0.0937 -2.1875,-0.53125 -0.98438,-0.4375 -1.6875,-1.23438 -0.70313,-0.79687 -1.09375,-1.96875 -0.375,-1.17187 -0.375,-2.73437 V 129 h -3.48438 v -2.29687 H 337 Z m -5.85938,0 h -8.48437 v 8.57812 q 0,0.98438 0.15625,1.76563 0.17187,0.78125 0.5625,1.32812 0.40625,0.54688 1.0625,0.84375 0.65625,0.28125 1.64062,0.28125 1.60938,0 2.90625,-0.70312 1.29688,-0.71875 2.15625,-1.89063 z m 28.90625,-2.29687 V 129 h -3.28125 v 21 h -2.59375 V 139.5 H 345.125 q -0.82813,0.54687 -1.98438,0.65625 l -0.0312,0.0781 q 1.51563,2.375 3.32813,4.42188 1.8125,2.04687 4.125,3.79687 l -1.67188,1.92188 q -1.32812,-0.98438 -2.53125,-2.125 -1.1875,-1.14063 -2.25,-2.35938 -1.04687,-1.23437 -1.96875,-2.48437 -0.92187,-1.26563 -1.6875,-2.48438 -0.76562,-1.21875 -1.375,-2.34375 -0.60937,-1.14062 -1.0625,-2.10937 l 2.14063,-1.15625 q 0.29687,0.6875 0.57812,1.15625 0.29688,0.45312 0.59375,0.73437 0.29688,0.26563 0.625,0.39063 0.32813,0.10937 0.70313,0.10937 1.07812,0 1.57812,-0.84375 0.51563,-0.84375 0.51563,-2.21875 0,-0.8125 -0.15625,-1.59375 -0.15625,-0.79687 -0.40625,-1.51562 -0.23438,-0.73438 -0.51563,-1.375 -0.28125,-0.64063 -0.53125,-1.15625 h -7.23437 v -2.29687 z M 354.17187,129 h -8.32812 q 0.65625,1.42187 1.03125,2.85937 0.375,1.4375 0.375,2.85938 0,0.65625 -0.10938,1.29687 -0.0937,0.625 -0.32812,1.1875 l 0.0312,0.0312 h 7.32812 z m -0.60937,-7.0625 q 0,-0.89062 0.53125,-1.4375 0.51562,-0.5625 1.35937,-0.5625 0.39063,0 0.75,0.15625 0.34375,0.15625 0.60938,0.4375 0.26562,0.26563 0.42187,0.64063 0.14063,0.35937 0.14063,0.79687 0,0.89063 -0.51563,1.4375 -0.53125,0.54688 -1.375,0.54688 -0.40625,0 -0.75,-0.14063 -0.35937,-0.15625 -0.60937,-0.42187 -0.26563,-0.28125 -0.40625,-0.64063 -0.15625,-0.375 -0.15625,-0.8125 z M 380,129 h -3.28125 v 21 h -2.5625 v -21 h -7.04688 v 12.125 q 0,0.25 -0.0312,0.57812 -0.0312,0.32813 -0.15625,0.64063 -0.10937,0.29687 -0.32812,0.51562 -0.21875,0.20313 -0.60938,0.20313 -0.42187,0 -0.9375,-0.26563 -0.5,-0.28125 -1.03125,-0.71875 -0.53125,-0.45312 -1.03125,-1.01562 -0.48437,-0.5625 -0.875,-1.15625 -0.39062,-0.59375 -0.625,-1.15625 -0.23437,-0.5625 -0.23437,-1 0,-0.39063 0.1875,-0.625 0.20312,-0.23438 0.54687,-0.35938 0.35938,-0.125 0.85938,-0.15625 0.51562,-0.0312 1.125,-0.0312 h 0.54687 V 129 h -5.5625 v -2.29687 H 380 Z m 9.39062,21 h -2.5625 v -23.29687 h 2.5625 z"
         id="path5" />
      <path
         d="m 73.484375,179 h -3.28125 v 21 h -2.5625 v -8.76563 H 59.4375 v 2.23438 q 0,0.23437 -0.04687,0.5 -0.03125,0.26562 -0.15625,0.5 -0.109375,0.21875 -0.3125,0.375 -0.1875,0.14062 -0.484375,0.14062 -0.359375,0 -0.859375,-0.21875 -0.484375,-0.23437 -1.015625,-0.60937 -0.515625,-0.39063 -1.03125,-0.875 -0.5,-0.5 -0.90625,-1.03125 -0.390625,-0.53125 -0.640625,-1.0625 -0.25,-0.53125 -0.25,-0.98438 0,-0.65625 0.46875,-0.95312 0.46875,-0.29688 1.234375,-0.29688 h 1.515625 V 180.375 q 0,-0.8125 -0.390625,-1.23438 -0.390625,-0.4375 -0.984375,-0.4375 -0.65625,0 -1.109375,0.48438 -0.4375,0.48437 -0.4375,1.23437 0,0.14063 0.03125,0.34375 0.03125,0.20313 0.15625,0.46875 0.125,0.25 0.375,0.57813 0.25,0.3125 0.671875,0.67187 L 53.875,184.1875 Q 53.15625,183.79687 52.703125,183.32812 52.25,182.84375 52,182.34375 q -0.25,-0.5 -0.34375,-0.96875 -0.09375,-0.48438 -0.09375,-0.89063 0,-0.75 0.25,-1.46875 0.265625,-0.73437 0.78125,-1.3125 0.515625,-0.59375 1.28125,-0.95312 0.78125,-0.35938 1.8125,-0.35938 0.90625,0 1.609375,0.29688 0.703125,0.29687 1.171875,0.85937 0.484375,0.54688 0.71875,1.32813 0.25,0.76562 0.25,1.71875 v 8.35937 h 8.203125 v -12.25 h 5.84375 z m 8.3125,0 h -3.28125 v 21 h -2.5625 v -21 h -3.5625 v -2.29688 h 9.40625 z m 18.812505,0 h -3.281255 v 21 h -2.5625 v -5.57813 l -0.0625,-0.0156 q -0.3125,0.29687 -0.734375,0.625 -0.421875,0.3125 -0.96875,0.57812 -0.546875,0.25 -1.234375,0.42188 -0.671875,0.17187 -1.515625,0.17187 -1.546875,0 -2.828125,-0.59375 -1.265625,-0.59375 -2.1875,-1.57812 -0.921875,-1 -1.4375,-2.28125 -0.5,-1.29688 -0.5,-2.70313 0,-1.40625 0.5,-2.60937 0.515625,-1.21875 1.40625,-2.10938 0.890625,-0.89062 2.078125,-1.39062 1.1875,-0.51563 2.546875,-0.51563 0.375,0 0.9375,0.0625 0.578125,0.0625 1.234375,0.28125 0.65625,0.21875 1.359375,0.64063 0.703125,0.40625 1.34375,1.10937 l 0.0625,-0.0156 V 179 h -14.0625 v -2.29688 h 19.906255 z m -5.781255,8.42187 q -0.984375,-1.1875 -2.140625,-1.90625 -1.15625,-0.73437 -2.625,-0.73437 -1.15625,0 -1.96875,0.4375 -0.796875,0.4375 -1.3125,1.10937 -0.515625,0.65625 -0.75,1.46875 -0.234375,0.8125 -0.234375,1.5625 0,0.8125 0.265625,1.60938 0.265625,0.79687 0.78125,1.4375 0.53125,0.625 1.3125,1.03125 0.78125,0.39062 1.828125,0.39062 1.078125,0 1.96875,-0.40625 0.890625,-0.42187 1.53125,-1.0625 0.640625,-0.64062 0.984375,-1.4375 0.359375,-0.79687 0.359375,-1.54687 z M 120.04688,179 h -3.28125 v 21 h -2.57813 v -12.04688 h -7.3125 q 0,1.03125 -0.0312,1.76563 -0.0156,0.73437 -0.125,1.21875 -0.10937,0.46875 -0.32812,0.6875 -0.21875,0.21875 -0.60938,0.21875 -0.8125,0 -1.54687,-0.53125 -0.71875,-0.53125 -1.28125,-1.28125 -0.54688,-0.75 -0.875,-1.5625 -0.32813,-0.8125 -0.32813,-1.375 0,-0.5 0.21875,-0.78125 0.21875,-0.28125 0.57813,-0.42188 0.35937,-0.14062 0.8125,-0.17187 0.46875,-0.0312 0.9375,-0.0312 h 9.89062 V 179 H 99.515625 v -2.29688 h 20.531255 z m 8.31249,0 h -3.28124 v 21 h -2.5625 v -21 h -3.5625 v -2.29688 h 9.40624 z m -6.79687,-7.0625 q 0,-0.89063 0.53125,-1.4375 0.51563,-0.5625 1.35938,-0.5625 0.39062,0 0.75,0.15625 0.34375,0.15625 0.60937,0.4375 0.26563,0.26562 0.42188,0.64062 0.14062,0.35938 0.14062,0.79688 0,0.89062 -0.51562,1.4375 -0.53125,0.54687 -1.375,0.54687 -0.40625,0 -0.75,-0.14062 -0.35938,-0.15625 -0.60938,-0.42188 -0.26562,-0.28125 -0.40625,-0.64062 -0.15625,-0.375 -0.15625,-0.8125 z M 150,179 h -3.28125 v 21 H 144.125 v -6.57813 l -0.0625,-0.0469 q -0.85938,0.78125 -1.6875,1.23437 -0.8125,0.4375 -1.53125,0.67188 -0.70313,0.21875 -1.28125,0.28125 -0.57813,0.0625 -0.95313,0.0625 -1.4375,0 -2.54687,-0.45313 -1.10938,-0.45312 -1.85938,-1.1875 -0.75,-0.75 -1.14062,-1.70312 -0.39063,-0.96875 -0.39063,-2 0,-1.07813 0.4375,-2.14063 0.45313,-1.0625 1.40625,-1.90625 l -0.0156,-0.0625 h -4.95313 V 183.875 h 12.5625 v 2.29687 H 140.5 q -1.60938,0 -2.64063,0.42188 -1.03125,0.42187 -1.625,1.03125 -0.59375,0.60937 -0.82812,1.3125 -0.21875,0.6875 -0.21875,1.25 0,0.46875 0.15625,1.01562 0.15625,0.53125 0.51562,0.98438 0.375,0.45312 0.98438,0.75 0.625,0.29687 1.5625,0.29687 0.98437,0 1.82812,-0.3125 0.85938,-0.32812 1.57813,-0.84375 0.71875,-0.51562 1.29687,-1.15625 0.59375,-0.65625 1.01563,-1.29687 V 179 h -16.85937 v -2.29688 H 150 Z m 8.3125,0 h -3.28125 v 21 h -2.5625 v -21 h -3.5625 v -2.29688 h 9.40625 z m 15.84375,2.98437 q 0.17187,-0.25 0.3125,-0.625 0.15625,-0.39062 0.15625,-0.875 0,-0.4375 -0.15625,-0.76562 -0.15625,-0.32813 -0.40625,-0.53125 -0.23438,-0.20313 -0.54688,-0.29688 -0.3125,-0.10937 -0.625,-0.10937 -0.375,0 -0.75,0.15625 -0.35937,0.14062 -0.65625,0.46875 -0.28125,0.32812 -0.46875,0.84375 -0.1875,0.5 -0.1875,1.20312 0,0.76563 0.21875,1.45313 0.23438,0.67187 0.70313,1.1875 0.48437,0.5 1.20312,0.79687 0.73438,0.29688 1.75,0.29688 0.70313,0 1.29688,-0.10938 0.59375,-0.125 1.03125,-0.23437 l 0.42187,2.40625 q -0.25,0.0312 -0.67187,0.125 -0.42188,0.0781 -0.92188,0.26562 -0.48437,0.17188 -1,0.45313 -0.5,0.28125 -0.90625,0.70312 -0.40625,0.40625 -0.67187,0.96875 -0.25,0.5625 -0.25,1.3125 0,0.70313 0.23437,1.25 0.23438,0.54688 0.65625,0.9375 0.42188,0.39063 1.01563,0.59375 0.59375,0.20313 1.29687,0.20313 1,0 1.84375,-0.375 0.84375,-0.375 1.51563,-0.92188 0.67187,-0.5625 1.15625,-1.20312 0.48437,-0.64063 0.76562,-1.17188 v -13.6875 h 5.84375 V 179 h -3.28125 v 21 h -2.5625 v -5.84375 l -0.0625,-0.0156 q -0.57812,0.64063 -1.21875,1.07813 -0.64062,0.4375 -1.3125,0.71875 -0.65625,0.26562 -1.32812,0.39062 -0.67188,0.125 -1.29688,0.125 -1.23437,0 -2.29687,-0.40625 -1.04688,-0.40625 -1.8125,-1.14062 -0.76563,-0.73438 -1.20313,-1.73438 -0.4375,-1.01562 -0.4375,-2.23437 0,-1.125 0.42188,-2.0625 0.4375,-0.9375 1.51562,-1.78125 l -0.0156,-0.0625 q -1.0625,-0.28125 -1.84375,-0.85938 -0.76563,-0.57812 -1.28125,-1.32812 -0.5,-0.75 -0.75,-1.625 -0.25,-0.89063 -0.25,-1.78125 0,-1.09375 0.34375,-2.01563 0.35937,-0.92187 0.98437,-1.59375 0.64063,-0.67187 1.5,-1.04687 0.85938,-0.39063 1.89063,-0.39063 1.07812,0 1.84375,0.375 0.78125,0.375 1.26562,0.95313 0.5,0.57812 0.73438,1.28125 0.23437,0.6875 0.23437,1.3125 0,0.4375 -0.0937,0.85937 -0.0937,0.42188 -0.23437,0.79688 -0.14063,0.375 -0.3125,0.6875 -0.15625,0.3125 -0.29688,0.53125 z M 195.67187,179 h -3.28125 v 21 h -2.5625 v -21 h -3.5625 v -2.29688 h 9.40625 z m 15.64063,0 h -5.89063 q 0.79688,1.375 1.28125,2.8125 0.5,1.42187 0.5,2.89062 0,1.10938 -0.34375,2.14063 -0.32812,1.01562 -0.98437,1.82812 -0.64063,0.79688 -1.60938,1.3125 -0.95312,0.5 -2.20312,0.5625 l -0.0312,0.0781 q 1.40625,2.1875 3.15625,4.14062 1.75,1.9375 4.04687,3.6875 l -1.67187,1.92188 q -1.32813,-0.98438 -2.53125,-2.125 -1.1875,-1.15625 -2.25,-2.375 -1.0625,-1.23438 -1.98438,-2.48438 -0.90625,-1.26562 -1.67187,-2.45312 -0.75,-1.20313 -1.34375,-2.29688 -0.59375,-1.10937 -1.01563,-2.01562 l 2.14063,-1.15625 q 0.5625,1.21875 1.26562,1.92187 0.71875,0.6875 1.65625,0.6875 0.67188,0 1.20313,-0.34375 0.53125,-0.34375 0.89062,-0.875 0.35938,-0.54687 0.54688,-1.1875 0.1875,-0.65625 0.1875,-1.28125 0,-0.73437 -0.1875,-1.4375 -0.1875,-0.71875 -0.48438,-1.39062 -0.29687,-0.6875 -0.67187,-1.32813 -0.35938,-0.64062 -0.70313,-1.23437 h -8.03125 v -2.29688 h 16.73438 z m 8.3125,0 h -3.28125 v 21 h -2.5625 v -21 h -3.5625 v -2.29688 h 9.40625 z m 27.57812,0 h -3.28125 v 21 h -2.5625 v -5.57813 l -0.0625,-0.0156 q -0.3125,0.29687 -0.73437,0.625 -0.42188,0.3125 -0.96875,0.57812 -0.54688,0.25 -1.23438,0.42188 -0.67187,0.17187 -1.51562,0.17187 -1.54688,0 -2.82813,-0.59375 -1.26562,-0.59375 -2.1875,-1.57812 -0.92187,-1 -1.4375,-2.28125 -0.5,-1.29688 -0.5,-2.70313 0,-1.40625 0.5,-2.60937 0.51563,-1.21875 1.40625,-2.10938 0.89063,-0.89062 2.07813,-1.39062 1.1875,-0.51563 2.54687,-0.51563 0.375,0 0.9375,0.0625 0.57813,0.0625 1.23438,0.28125 0.65625,0.21875 1.35937,0.64063 0.70313,0.40625 1.34375,1.10937 l 0.0625,-0.0156 V 179 h -14.0625 v -2.29688 h 19.90625 z m -5.78125,8.42187 q -0.98437,-1.1875 -2.14062,-1.90625 -1.15625,-0.73437 -2.625,-0.73437 -1.15625,0 -1.96875,0.4375 -0.79688,0.4375 -1.3125,1.10937 -0.51563,0.65625 -0.75,1.46875 -0.23438,0.8125 -0.23438,1.5625 0,0.8125 0.26563,1.60938 0.26562,0.79687 0.78125,1.4375 0.53125,0.625 1.3125,1.03125 0.78125,0.39062 1.82812,0.39062 1.07813,0 1.96875,-0.40625 0.89063,-0.42187 1.53125,-1.0625 0.64063,-0.64062 0.98438,-1.4375 0.35937,-0.79687 0.35937,-1.54687 z M 255.51562,179 h -3.28125 v 21 h -2.5625 v -21 h -3.5625 v -2.29688 h 9.40625 z m 10.90625,16.59375 q 0.51563,-0.15625 1.01563,-0.39063 0.51562,-0.23437 0.90625,-0.5625 0.40625,-0.34375 0.65625,-0.79687 0.25,-0.45313 0.25,-1.0625 0,-1.29688 -1.07813,-2.01563 -1.07812,-0.73437 -3.0625,-0.73437 -0.79687,0 -1.64062,0.17187 -0.82813,0.15625 -1.51563,0.59375 -0.6875,0.42188 -1.125,1.17188 -0.4375,0.73437 -0.4375,1.875 0,1.15625 0.45313,2.15625 0.45312,0.98437 1.17187,1.8125 0.73438,0.82812 1.64063,1.5 0.90625,0.67187 1.79687,1.1875 0.90625,0.51562 1.70313,0.85937 0.79687,0.35938 1.32812,0.5625 l -1.03125,2.15625 q -1.09375,-0.46875 -2.23437,-1.03125 -1.125,-0.54687 -2.1875,-1.21875 -1.0625,-0.65625 -2,-1.45312 -0.9375,-0.79688 -1.64063,-1.76563 -0.6875,-0.96875 -1.09375,-2.125 -0.39062,-1.15625 -0.39062,-2.51562 0,-1.32813 0.34375,-2.3125 0.35937,-1 0.98437,-1.75 -0.85937,-0.98438 -1.26562,-1.98438 -0.40625,-1 -0.40625,-2.17187 0,-0.67188 0.15625,-1.26563 0.17187,-0.59375 0.59375,-1.03125 0.4375,-0.45312 1.20312,-0.71875 0.76563,-0.26562 1.98438,-0.26562 h 7.07812 V 179 h -14.15625 v -2.29688 h 20.35938 V 179 h -3.64063 v 5.75 h -8.98437 q -0.60938,0 -1.03125,0.10937 -0.40625,0.0937 -0.65625,0.29688 -0.25,0.20312 -0.35938,0.51562 -0.0937,0.29688 -0.0937,0.70313 0,0.54687 0.1875,1.0625 0.1875,0.51562 0.70313,1.15625 0.90625,-0.46875 1.98437,-0.6875 1.09375,-0.23438 2.28125,-0.23438 1.375,0 2.5625,0.3125 1.20313,0.3125 2.07813,0.95313 0.89062,0.625 1.39062,1.60937 0.51563,0.96875 0.51563,2.28125 0,1.26563 -0.4375,2.14063 -0.42188,0.875 -1.07813,1.46875 -0.64062,0.59375 -1.40625,0.96875 Q 268.03125,197.76562 267.375,198 Z M 294.35937,179 h -3.28125 v 21 h -2.54687 v -13.71875 h -5.07813 q -1.04687,0 -1.89062,0.14062 -0.84375,0.125 -1.4375,0.53125 -0.59375,0.39063 -0.92188,1.10938 -0.3125,0.70312 -0.3125,1.85937 0,1.5 0.48438,2.76563 0.5,1.26562 1.26562,2.32812 0.76563,1.04688 1.6875,1.9375 0.9375,0.89063 1.79688,1.64063 l -1.5625,1.78125 q -0.14063,-0.0781 -0.67188,-0.45313 -0.51562,-0.39062 -1.21875,-1.04687 -0.6875,-0.65625 -1.46875,-1.59375 -0.76562,-0.9375 -1.42187,-2.10938 -0.64063,-1.1875 -1.07813,-2.60937 -0.42187,-1.42188 -0.42187,-3.0625 0,-1.625 0.45312,-2.6875 0.46875,-1.07813 1.3125,-1.70313 0.84375,-0.64062 2.04688,-0.89062 1.20312,-0.25 2.6875,-0.25 h 5.75 V 179 H 273.6875 v -2.29688 h 20.67187 z m 8.3125,0 h -3.28125 v 21 h -2.5625 v -21 h -3.5625 v -2.29688 h 9.40625 z m -3.5,-1.85938 h -2.26562 l -1.42188,-2.67187 q -0.90625,-1.70313 -1.65625,-2.70313 -0.73437,-1 -1.39062,-1.51562 -0.67188,-0.53125 -1.3125,-0.67188 -0.64063,-0.15625 -1.34375,-0.15625 H 286.75 v -2.53125 h 2.85937 q 0.90625,0 1.64063,0.15625 0.73437,0.14063 1.40625,0.53125 0.65625,0.375 1.28125,1.0625 0.64062,0.67188 1.35937,1.75 0.71875,1.0625 1.5625,2.5625 0.85938,1.48438 1.95313,3.51563 z M 327.07812,179 h -5.89062 q 0.79687,1.375 1.28125,2.8125 0.5,1.42187 0.5,2.89062 0,1.10938 -0.34375,2.14063 -0.32813,1.01562 -0.98438,1.82812 -0.64062,0.79688 -1.60937,1.3125 -0.95313,0.5 -2.20313,0.5625 l -0.0312,0.0781 q 1.40625,2.1875 3.15625,4.14062 1.75,1.9375 4.04688,3.6875 l -1.67188,1.92188 Q 322,199.39062 320.79687,198.25 q -1.1875,-1.15625 -2.25,-2.375 -1.0625,-1.23438 -1.98437,-2.48438 -0.90625,-1.26562 -1.67188,-2.45312 -0.75,-1.20313 -1.34375,-2.29688 -0.59375,-1.10937 -1.01562,-2.01562 l 2.14062,-1.15625 q 0.5625,1.21875 1.26563,1.92187 0.71875,0.6875 1.65625,0.6875 0.67187,0 1.20312,-0.34375 0.53125,-0.34375 0.89063,-0.875 0.35937,-0.54687 0.54687,-1.1875 0.1875,-0.65625 0.1875,-1.28125 0,-0.73437 -0.1875,-1.4375 -0.1875,-0.71875 -0.48437,-1.39062 -0.29688,-0.6875 -0.67188,-1.32813 Q 318.71875,179.59375 318.375,179 h -8.03125 v -2.29688 h 16.73437 z m -6.26562,-1.85938 h -2.26563 l -1.42187,-2.67187 q -0.90625,-1.70313 -1.64063,-2.70313 -0.75,-1 -1.40625,-1.51562 -0.67187,-0.53125 -1.3125,-0.67188 -0.64062,-0.15625 -1.34375,-0.15625 h -3.03125 v -2.53125 H 311.25 q 0.90625,0 1.64062,0.15625 0.73438,0.14063 1.40625,0.53125 0.65625,0.375 1.29688,1.0625 0.625,0.67188 1.34375,1.75 0.71875,1.0625 1.57812,2.5625 0.84375,1.48438 1.9375,3.51563 z m 10.65625,19.29688 -2.5,7.6875 h -1.82813 l 1.82813,-7.6875 z"
         id="path6" />
      <path
         d="M 72.09375,229 H 68.8125 v 21 H 66.25 v -8.76563 h -8.59375 v 1.85938 q 0,0.48437 -0.04687,0.85937 -0.03125,0.375 -0.171875,0.625 -0.125,0.25 -0.375,0.39063 -0.234375,0.125 -0.640625,0.125 -0.40625,0 -0.90625,-0.23438 -0.5,-0.25 -1.015625,-0.65625 -0.515625,-0.42187 -1,-0.9375 -0.484375,-0.53125 -0.875,-1.09375 -0.375,-0.57812 -0.609375,-1.14062 Q 51.78125,240.46875 51.78125,240 q 0,-0.32813 0.109375,-0.53125 0.125,-0.21875 0.328125,-0.32813 0.21875,-0.10937 0.515625,-0.14062 0.296875,-0.0469 0.671875,-0.0469 h 1.6875 V 229 h -5.640625 v -2.29688 H 72.09375 Z m -14.4375,0 v 9.95312 H 66.25 V 229 Z m 33.875,0 H 88.25 v 21 h -2.578125 v -12.04688 h -7.3125 q 0,1.03125 -0.03125,1.76563 -0.01563,0.73437 -0.125,1.21875 -0.109375,0.46875 -0.328125,0.6875 -0.21875,0.21875 -0.609375,0.21875 -0.8125,0 -1.546875,-0.53125 Q 75,240.78125 74.4375,240.03125 q -0.546875,-0.75 -0.875,-1.5625 -0.328125,-0.8125 -0.328125,-1.375 0,-0.5 0.21875,-0.78125 0.21875,-0.28125 0.578125,-0.42188 0.359375,-0.14062 0.8125,-0.17187 0.46875,-0.0312 0.9375,-0.0312 h 9.890625 V 229 H 71 v -2.29688 h 20.53125 z m 30.3125,0 h -3.28125 v 21 H 116 v -8.76563 h -8.59375 v 1.85938 q 0,0.48437 -0.0469,0.85937 -0.0312,0.375 -0.17188,0.625 -0.125,0.25 -0.375,0.39063 -0.23437,0.125 -0.64062,0.125 -0.40625,0 -0.90625,-0.23438 -0.5,-0.25 -1.01563,-0.65625 -0.51562,-0.42187 -1,-0.9375 -0.48437,-0.53125 -0.875,-1.09375 -0.375,-0.57812 -0.60937,-1.14062 -0.23438,-0.5625 -0.23438,-1.03125 0,-0.32813 0.10938,-0.53125 0.125,-0.21875 0.32812,-0.32813 0.21875,-0.10937 0.51563,-0.14062 0.29687,-0.0469 0.67187,-0.0469 h 1.6875 V 229 h -5.640625 v -2.29688 h 22.640625 z m -14.4375,0 v 9.95312 H 116 V 229 Z m 22.75,0 H 126.875 v 21 h -2.5625 V 229 H 120.75 v -2.29688 h 9.40625 z m -3.5,-1.85938 h -2.26562 l -1.42188,-2.67187 q -0.90625,-1.70313 -1.65625,-2.70313 -0.73437,-1 -1.39062,-1.51562 -0.67188,-0.53125 -1.3125,-0.67188 -0.64063,-0.15625 -1.34375,-0.15625 h -3.03125 v -2.53125 h 2.85937 q 0.90625,0 1.64063,0.15625 0.73437,0.14063 1.40625,0.53125 0.65625,0.375 1.28125,1.0625 0.64062,0.67188 1.35937,1.75 0.71875,1.0625 1.5625,2.5625 0.85938,1.48438 1.95313,3.51563 z m 14.40625,18.45313 q 0.51562,-0.15625 1.01562,-0.39063 0.51563,-0.23437 0.90625,-0.5625 0.40625,-0.34375 0.65625,-0.79687 0.25,-0.45313 0.25,-1.0625 0,-1.29688 -1.07812,-2.01563 -1.07813,-0.73437 -3.0625,-0.73437 -0.79688,0 -1.64063,0.17187 -0.82812,0.15625 -1.51562,0.59375 -0.6875,0.42188 -1.125,1.17188 -0.4375,0.73437 -0.4375,1.875 0,1.15625 0.45312,2.15625 0.45313,0.98437 1.17188,1.8125 0.73437,0.82812 1.64062,1.5 0.90625,0.67187 1.79688,1.1875 0.90625,0.51562 1.70312,0.85937 0.79688,0.35938 1.32813,0.5625 l -1.03125,2.15625 q -1.09375,-0.46875 -2.23438,-1.03125 -1.125,-0.54687 -2.1875,-1.21875 -1.0625,-0.65625 -2,-1.45312 -0.9375,-0.79688 -1.64062,-1.76563 -0.6875,-0.96875 -1.09375,-2.125 -0.39063,-1.15625 -0.39063,-2.51562 0,-1.32813 0.34375,-2.3125 0.35938,-1 0.98438,-1.75 -0.85938,-0.98438 -1.26563,-1.98438 -0.40625,-1 -0.40625,-2.17187 0,-0.67188 0.15625,-1.26563 0.17188,-0.59375 0.59375,-1.03125 0.4375,-0.45312 1.20313,-0.71875 0.76562,-0.26562 1.98437,-0.26562 h 7.07813 V 229 H 129.0625 v -2.29688 h 20.35937 V 229 h -3.64062 v 5.75 h -8.98438 q -0.60937,0 -1.03125,0.10937 -0.40625,0.0937 -0.65625,0.29688 -0.25,0.20312 -0.35937,0.51562 -0.0937,0.29688 -0.0937,0.70313 0,0.54687 0.1875,1.0625 0.1875,0.51562 0.70312,1.15625 0.90625,-0.46875 1.98438,-0.6875 1.09375,-0.23438 2.28125,-0.23438 1.375,0 2.5625,0.3125 1.20312,0.3125 2.07812,0.95313 0.89063,0.625 1.39063,1.60937 0.51562,0.96875 0.51562,2.28125 0,1.26563 -0.4375,2.14063 -0.42187,0.875 -1.07812,1.46875 -0.64063,0.59375 -1.40625,0.96875 -0.76563,0.35937 -1.42188,0.59375 z M 169,229 h -3.28125 v 21 h -2.54688 v -13.71875 h -5.07812 q -1.04688,0 -1.89063,0.14062 -0.84375,0.125 -1.4375,0.53125 -0.59375,0.39063 -0.92187,1.10938 -0.3125,0.70312 -0.3125,1.85937 0,1.5 0.48437,2.76563 0.5,1.26562 1.26563,2.32812 0.76562,1.04688 1.6875,1.9375 0.9375,0.89063 1.79687,1.64063 l -1.5625,1.78125 q -0.14062,-0.0781 -0.67187,-0.45313 -0.51563,-0.39062 -1.21875,-1.04687 -0.6875,-0.65625 -1.46875,-1.59375 -0.76563,-0.9375 -1.42188,-2.10938 -0.64062,-1.1875 -1.07812,-2.60937 -0.42188,-1.42188 -0.42188,-3.0625 0,-1.625 0.45313,-2.6875 0.46875,-1.07813 1.3125,-1.70313 0.84375,-0.64062 2.04687,-0.89062 1.20313,-0.25 2.6875,-0.25 h 5.75 V 229 h -14.84375 v -2.29688 H 169 Z m 8.3125,0 h -3.28125 v 21 h -2.5625 v -21 h -3.5625 v -2.29688 h 9.40625 z m -3.5,-1.85938 h -2.26563 l -1.42187,-2.67187 q -0.90625,-1.70313 -1.65625,-2.70313 -0.73438,-1 -1.39063,-1.51562 -0.67187,-0.53125 -1.3125,-0.67188 -0.64062,-0.15625 -1.34375,-0.15625 h -3.03125 v -2.53125 H 164.25 q 0.90625,0 1.64062,0.15625 0.73438,0.14063 1.40625,0.53125 0.65625,0.375 1.28125,1.0625 0.64063,0.67188 1.35938,1.75 0.71875,1.0625 1.5625,2.5625 0.85937,1.48438 1.95312,3.51563 z m 7.89062,19.29688 -2.5,7.6875 H 177.375 l 1.82812,-7.6875 z M 220.64062,229 H 207.4375 v 6.15625 l 0.0781,0.0312 q 0.79688,-1.09375 1.98438,-1.75 1.1875,-0.67188 2.60937,-0.67188 1.125,0 2.07813,0.46875 0.96875,0.45313 1.67187,1.26563 0.70313,0.79687 1.09375,1.89062 0.40625,1.09375 0.40625,2.35938 0,1.4375 -0.5,2.65625 -0.5,1.20312 -1.28125,2.1875 -0.78125,0.98437 -1.76562,1.75 -0.98438,0.75 -1.9375,1.28125 l -1.39063,-2.40625 q 0.3125,-0.17188 0.76563,-0.45313 0.45312,-0.28125 0.9375,-0.65625 0.5,-0.375 0.96875,-0.84375 0.48437,-0.48437 0.85937,-1.04687 0.39063,-0.5625 0.625,-1.21875 0.23438,-0.65625 0.23438,-1.39063 0,-0.67187 -0.21875,-1.28125 -0.20313,-0.60937 -0.57813,-1.0625 -0.375,-0.45312 -0.90625,-0.71875 -0.51562,-0.26562 -1.14062,-0.26562 -0.8125,0 -1.57813,0.42187 -0.76562,0.42188 -1.39062,1.0625 -0.625,0.625 -1.0625,1.34375 -0.42188,0.71875 -0.5625,1.32813 V 250 h -2.5625 v -5.98438 l -0.0625,-0.0312 q -0.23438,0.20313 -0.59375,0.5 -0.35938,0.28125 -0.875,0.54688 -0.5,0.26562 -1.17188,0.45312 -0.65625,0.1875 -1.48437,0.1875 -1.375,0 -2.54688,-0.53125 -1.15625,-0.53125 -2.01562,-1.4375 -0.84375,-0.92187 -1.32813,-2.15625 -0.48437,-1.23437 -0.48437,-2.64062 0,-1.34375 0.4375,-2.48438 0.45312,-1.14062 1.21875,-1.95312 0.78125,-0.82813 1.8125,-1.28125 1.04687,-0.46875 2.25,-0.46875 0.84375,0 1.5625,0.21875 0.73437,0.20312 1.32812,0.51562 0.60938,0.29688 1.07813,0.65625 0.48437,0.34375 0.8125,0.625 l 0.0625,-0.0156 V 229 h -12.95313 v -2.29688 h 28.71875 z m -20.23437,6.15625 q -0.89063,0 -1.57813,0.375 -0.67187,0.35937 -1.125,0.9375 -0.45312,0.5625 -0.6875,1.28125 -0.21875,0.70312 -0.21875,1.39062 0,0.75 0.26563,1.5 0.26562,0.73438 0.75,1.32813 0.5,0.59375 1.1875,0.96875 0.6875,0.35937 1.51562,0.35937 0.70313,0 1.46875,-0.28125 0.78125,-0.29687 1.42188,-0.90625 0.65625,-0.60937 1.07812,-1.54687 0.42188,-0.95313 0.42188,-2.26563 v -0.76562 q -0.375,-0.46875 -0.89063,-0.89063 -0.5,-0.4375 -1.09375,-0.76562 -0.57812,-0.32813 -1.21875,-0.51563 -0.64062,-0.20312 -1.29687,-0.20312 z M 236.28125,229 h -5.89063 q 0.79688,1.375 1.28125,2.8125 0.5,1.42187 0.5,2.89062 0,1.10938 -0.34375,2.14063 -0.32812,1.01562 -0.98437,1.82812 -0.64063,0.79688 -1.60938,1.3125 -0.95312,0.5 -2.20312,0.5625 L 227,240.625 q 1.40625,2.1875 3.15625,4.14062 1.75,1.9375 4.04687,3.6875 l -1.67187,1.92188 Q 231.20312,249.39062 230,248.25 q -1.1875,-1.15625 -2.25,-2.375 -1.0625,-1.23438 -1.98438,-2.48438 -0.90625,-1.26562 -1.67187,-2.45312 -0.75,-1.20313 -1.34375,-2.29688 -0.59375,-1.10937 -1.01563,-2.01562 l 2.14063,-1.15625 q 0.5625,1.21875 1.26562,1.92187 0.71875,0.6875 1.65625,0.6875 0.67188,0 1.20313,-0.34375 0.53125,-0.34375 0.89062,-0.875 0.35938,-0.54687 0.54688,-1.1875 0.1875,-0.65625 0.1875,-1.28125 0,-0.73437 -0.1875,-1.4375 -0.1875,-0.71875 -0.48438,-1.39062 -0.29687,-0.6875 -0.67187,-1.32813 -0.35938,-0.64062 -0.70313,-1.23437 h -8.03125 v -2.29688 h 16.73438 z m 19.57812,0 h -3.28125 v 21 h -2.54687 v -13.71875 h -5.07813 q -1.04687,0 -1.89062,0.14062 -0.84375,0.125 -1.4375,0.53125 -0.59375,0.39063 -0.92188,1.10938 -0.3125,0.70312 -0.3125,1.85937 0,1.5 0.48438,2.76563 0.5,1.26562 1.26562,2.32812 0.76563,1.04688 1.6875,1.9375 0.9375,0.89063 1.79688,1.64063 l -1.5625,1.78125 q -0.14063,-0.0781 -0.67188,-0.45313 -0.51562,-0.39062 -1.21875,-1.04687 -0.6875,-0.65625 -1.46875,-1.59375 -0.76562,-0.9375 -1.42187,-2.10938 -0.64063,-1.1875 -1.07813,-2.60937 -0.42187,-1.42188 -0.42187,-3.0625 0,-1.625 0.45312,-2.6875 0.46875,-1.07813 1.3125,-1.70313 0.84375,-0.64062 2.04688,-0.89062 1.20312,-0.25 2.6875,-0.25 h 5.75 V 229 H 235.1875 v -2.29688 h 20.67187 z m 8.3125,0 h -3.28125 v 21 h -2.5625 v -21 h -3.5625 v -2.29688 h 9.40625 z m -3.5,-1.85938 h -2.26562 l -1.42188,-2.67187 q -0.90625,-1.70313 -1.65625,-2.70313 -0.73437,-1 -1.39062,-1.51562 -0.67188,-0.53125 -1.3125,-0.67188 -0.64063,-0.15625 -1.34375,-0.15625 H 248.25 v -2.53125 h 2.85937 q 0.90625,0 1.64063,0.15625 0.73437,0.14063 1.40625,0.53125 0.65625,0.375 1.28125,1.0625 0.64062,0.67188 1.35937,1.75 0.71875,1.0625 1.5625,2.5625 0.85938,1.48438 1.95313,3.51563 z m 15.35938,9.04688 q 0.23437,0.73437 0.54687,1.60937 0.3125,0.85938 0.73438,1.75 0.4375,0.875 0.96875,1.70313 0.54687,0.82812 1.23437,1.46875 0.70313,0.64062 1.54688,1.03125 0.84375,0.375 1.875,0.375 1.01562,0 1.71875,-0.29688 0.70312,-0.29687 1.14062,-0.79687 0.4375,-0.5 0.625,-1.17188 0.20313,-0.67187 0.20313,-1.40625 0,-1.60937 -1.17188,-2.51562 -1.15625,-0.90625 -3.35937,-0.90625 -0.26563,0 -0.53125,0.0156 -0.26563,0.0156 -0.53125,0.0469 v -2.375 q 0.125,0.0156 0.21875,0.0156 0.10937,0 0.125,0 1.09375,0 1.9375,-0.26562 0.85937,-0.28125 1.4375,-0.75 0.57812,-0.46875 0.875,-1.09375 0.29687,-0.625 0.29687,-1.3125 0,-0.625 -0.21875,-1.10938 -0.21875,-0.48437 -0.59375,-0.8125 -0.375,-0.32812 -0.89062,-0.48437 -0.51563,-0.17188 -1.125,-0.17188 -0.42188,0 -0.8125,0.0625 -0.39063,0.0469 -0.82813,0.17188 -0.4375,0.10937 -0.9375,0.29687 -0.48437,0.1875 -1.10937,0.46875 l -0.89063,-2.14062 q 1.21875,-0.59375 2.34375,-0.89063 1.125,-0.3125 2.29688,-0.3125 1.125,0 2.07812,0.35938 0.96875,0.35937 1.65625,1 0.70313,0.625 1.09375,1.5 0.39063,0.875 0.39063,1.89062 0,2.79688 -2.67188,4.5 v 0.0625 q 1.04688,0.4375 1.75,1.07813 0.45313,0.0781 0.95313,0.125 0.51562,0.0469 0.9375,0.0469 0.4375,0 0.92187,-0.0625 0.48438,-0.0625 0.98438,-0.23437 0.51562,-0.17188 1.03125,-0.48438 0.53125,-0.3125 1.0625,-0.8125 v -8.65625 h 5.84375 V 229 h -3.28125 v 21 h -2.5625 v -11.875 l -0.0625,-0.0156 q -0.89063,0.59375 -1.67188,0.78125 -0.78125,0.1875 -1.60937,0.1875 -0.26563,0 -0.54688,-0.0156 -0.28125,-0.0312 -0.57812,-0.0625 l -0.0156,0.0625 q 0.25,0.64062 0.25,1.57812 0,1.26563 -0.42187,2.34375 -0.42188,1.07813 -1.21875,1.875 -0.78125,0.78125 -1.90625,1.21875 -1.10938,0.4375 -2.5,0.4375 -1.48438,0 -2.6875,-0.51562 -1.1875,-0.53125 -2.15625,-1.35938 -0.95313,-0.82812 -1.67188,-1.85937 -0.71875,-1.04688 -1.23437,-2.09375 -0.51563,-1.04688 -0.84375,-1.98438 -0.32813,-0.95312 -0.48438,-1.57812 z M 307.5,229 h -3.28125 v 21 h -2.5625 v -21 h -3.5625 v -2.29688 H 307.5 Z m 27.625,0 h -13.20313 v 6.15625 L 322,235.1875 q 0.79687,-1.09375 1.98437,-1.75 1.1875,-0.67188 2.60938,-0.67188 1.125,0 2.07812,0.46875 0.96875,0.45313 1.67188,1.26563 0.70312,0.79687 1.09375,1.89062 0.40625,1.09375 0.40625,2.35938 0,1.4375 -0.5,2.65625 -0.5,1.20312 -1.28125,2.1875 -0.78125,0.98437 -1.76563,1.75 -0.98437,0.75 -1.9375,1.28125 l -1.39062,-2.40625 q 0.3125,-0.17188 0.76562,-0.45313 0.45313,-0.28125 0.9375,-0.65625 0.5,-0.375 0.96875,-0.84375 0.48438,-0.48437 0.85938,-1.04687 0.39062,-0.5625 0.625,-1.21875 0.23437,-0.65625 0.23437,-1.39063 0,-0.67187 -0.21875,-1.28125 -0.20312,-0.60937 -0.57812,-1.0625 -0.375,-0.45312 -0.90625,-0.71875 -0.51563,-0.26562 -1.14063,-0.26562 -0.8125,0 -1.57812,0.42187 -0.76563,0.42188 -1.39063,1.0625 -0.625,0.625 -1.0625,1.34375 -0.42187,0.71875 -0.5625,1.32813 V 250 h -2.5625 v -5.98438 l -0.0625,-0.0312 q -0.23437,0.20313 -0.59375,0.5 -0.35937,0.28125 -0.875,0.54688 -0.5,0.26562 -1.17187,0.45312 -0.65625,0.1875 -1.48438,0.1875 -1.375,0 -2.54687,-0.53125 -1.15625,-0.53125 -2.01563,-1.4375 -0.84375,-0.92187 -1.32812,-2.15625 -0.48438,-1.23437 -0.48438,-2.64062 0,-1.34375 0.4375,-2.48438 0.45313,-1.14062 1.21875,-1.95312 0.78125,-0.82813 1.8125,-1.28125 1.04688,-0.46875 2.25,-0.46875 0.84375,0 1.5625,0.21875 0.73438,0.20312 1.32813,0.51562 0.60937,0.29688 1.07812,0.65625 0.48438,0.34375 0.8125,0.625 l 0.0625,-0.0156 V 229 h -12.95312 v -2.29688 H 335.125 Z m -20.23438,6.15625 q -0.89062,0 -1.57812,0.375 -0.67188,0.35937 -1.125,0.9375 -0.45313,0.5625 -0.6875,1.28125 -0.21875,0.70312 -0.21875,1.39062 0,0.75 0.26562,1.5 0.26563,0.73438 0.75,1.32813 0.5,0.59375 1.1875,0.96875 0.6875,0.35937 1.51563,0.35937 0.70312,0 1.46875,-0.28125 0.78125,-0.29687 1.42187,-0.90625 0.65625,-0.60937 1.07813,-1.54687 0.42187,-0.95313 0.42187,-2.26563 v -0.76562 q -0.375,-0.46875 -0.89062,-0.89063 -0.5,-0.4375 -1.09375,-0.76562 -0.57813,-0.32813 -1.21875,-0.51563 -0.64063,-0.20312 -1.29688,-0.20312 z M 354.53125,229 H 351.25 v 21 h -2.5625 v -7.53125 l -0.0625,-0.0156 q -1.09375,0.9375 -2.42188,1.375 -1.3125,0.42188 -2.64062,0.42188 -1.34375,0 -2.45313,-0.39063 -1.10937,-0.39062 -1.90625,-1.1875 -0.79687,-0.8125 -1.25,-2.03125 -0.4375,-1.23437 -0.4375,-2.92187 V 229 h -3.48437 v -2.29688 h 20.5 z m -7.4375,11.53125 -6.98438,-9.8125 -0.0625,0.0156 v 6.84375 q 0,0.98438 0.15625,1.76563 0.17188,0.78125 0.5625,1.32812 0.40625,0.54688 1.0625,0.84375 0.65625,0.28125 1.64063,0.28125 1.07812,0 1.96875,-0.3125 0.90625,-0.3125 1.67187,-0.875 z M 348.6875,229 h -7.04688 v 0.0469 l 6.96875,10.09375 0.0781,-0.10937 z m 5.42187,-9.125 q -0.6875,-0.78125 -1.28125,-1.14063 -0.59375,-0.35937 -1.39062,-0.35937 -1.21875,0 -1.95313,0.84375 -0.73437,0.82812 -0.73437,2.34375 0,0.625 0.14062,1.3125 0.14063,0.67187 0.40625,1.35937 0.26563,0.6875 0.65625,1.35938 0.39063,0.67187 0.89063,1.28125 H 348.25 q -0.9375,-1.32813 -1.40625,-2.71875 -0.46875,-1.40625 -0.46875,-2.73438 0,-1.28125 0.42187,-2.29687 0.40625,-1.01563 1.09375,-1.70313 0.6875,-0.6875 1.60938,-1.04687 0.90625,-0.375 1.92187,-0.375 1.35938,0 2.42188,0.54687 1.07812,0.53125 2.01562,1.71875 z M 378.25,229 h -3.28125 v 21 h -2.5625 v -21 h -3.875 v 9.67187 q 0,1.625 -0.45313,2.79688 -0.4375,1.17187 -1.21875,1.9375 -0.76562,0.76562 -1.79687,1.14062 -1.03125,0.35938 -2.21875,0.35938 -1.32813,0 -2.40625,-0.42188 -1.0625,-0.42187 -1.8125,-1.25 -0.75,-0.82812 -1.15625,-2.04687 -0.40625,-1.23438 -0.40625,-2.82813 V 229 h -3.625 v -2.29688 H 378.25 Z m -18.59375,0 v 9.84375 q 0,0.71875 0.15625,1.39062 0.17187,0.65625 0.53125,1.17188 0.375,0.51562 0.96875,0.82812 0.60937,0.3125 1.48437,0.3125 0.89063,0 1.48438,-0.3125 0.60937,-0.3125 0.98437,-0.82812 0.375,-0.51563 0.53125,-1.17188 0.17188,-0.67187 0.17188,-1.39062 V 229 Z m 46.9375,0 h -3.28125 v 21 h -2.54688 v -13.71875 h -5.07812 q -1.04688,0 -1.89063,0.14062 -0.84375,0.125 -1.4375,0.53125 -0.59375,0.39063 -0.92187,1.10938 -0.3125,0.70312 -0.3125,1.85937 0,1.5 0.48437,2.76563 0.5,1.26562 1.26563,2.32812 0.76562,1.04688 1.6875,1.9375 0.9375,0.89063 1.79687,1.64063 l -1.5625,1.78125 q -0.14062,-0.0781 -0.67187,-0.45313 -0.51563,-0.39062 -1.21875,-1.04687 -0.6875,-0.65625 -1.46875,-1.59375 -0.76563,-0.9375 -1.42188,-2.10938 -0.64062,-1.1875 -1.07812,-2.60937 -0.42188,-1.42188 -0.42188,-3.0625 0,-1.625 0.45313,-2.6875 0.46875,-1.07813 1.3125,-1.70313 0.84375,-0.64062 2.04687,-0.89062 1.20313,-0.25 2.6875,-0.25 h 5.75 V 229 h -14.84375 v -2.29688 h 20.67188 z m -3.5,-1.85938 h -2.26563 l -1.42187,-2.67187 q -0.90625,-1.70313 -1.64063,-2.70313 -0.75,-1 -1.40625,-1.51562 -0.67187,-0.53125 -1.3125,-0.67188 -0.64062,-0.15625 -1.34375,-0.15625 h -3.03125 v -2.53125 h 2.85938 q 0.90625,0 1.64062,0.15625 0.73438,0.14063 1.40625,0.53125 0.65625,0.375 1.29688,1.0625 0.625,0.67188 1.34375,1.75 0.71875,1.0625 1.57812,2.5625 0.84375,1.48438 1.9375,3.51563 z m 6.4375,23.20313 q -0.71875,0 -1.23438,-0.51563 -0.5,-0.51562 -0.5,-1.23437 0,-0.71875 0.5,-1.23438 0.51563,-0.53125 1.23438,-0.53125 0.73437,0 1.25,0.53125 0.51562,0.51563 0.51562,1.23438 0,0.71875 -0.51562,1.23437 -0.51563,0.51563 -1.25,0.51563 z"
         id="path7" />
    </g>
  </g>
</svg>
