<?xml version="1.0" encoding="UTF-8" standalone="no"?>
<svg
   width="800"
   height="600"
   viewBox="0 0 800 600"
   version="1.1"
   id="svg1"
   sodipodi:docname="kaveri_nature.svg"
   xmlns:inkscape="http://www.inkscape.org/namespaces/inkscape"
   xmlns:sodipodi="http://sodipodi.sourceforge.net/DTD/sodipodi-0.dtd"
   xmlns="http://www.w3.org/2000/svg"
   xmlns:svg="http://www.w3.org/2000/svg">
  <defs
     id="defs1" />
  <sodipodi:namedview
     id="namedview1"
     pagecolor="#ffffff"
     bordercolor="#000000"
     borderopacity="0.25"
     inkscape:showpageshadow="2"
     inkscape:pageopacity="0.0"
     inkscape:pagecheckerboard="0"
     inkscape:deskcolor="#d1d1d1" />
  <g
     inkscape:label="Layer 1"
     inkscape:groupmode="layer"
     id="layer1"
     transform="translate(0,0)">
    <g
       id="text1"
       style="font-size:20px;line-height:1.25;font-family:Kalam;letter-spacing:0px;word-spacing:0px"
       aria-label="       कावेरी वाहते, सागर सारखी,       निसर्गाची ती लेणी, सुंदर स्वप्नी.       हरित झाडे, फुले रंगीत,       कावेरीच्या काठी, मन मोहित.    ">
      <path
         d="m 257.95703,226.875 h -8.25195 v 3.84766 l 0.0488,0.0195 q 0.49804,-0.6836 1.24023,-1.09375 0.74219,-0.41992 1.63086,-0.41992 0.70312,0 1.29883,0.29296 0.60547,0.28321 1.04492,0.79102 0.43945,0.49805 0.68359,1.18164 0.25391,0.68359 0.25391,1.47461 0,0.89844 -0.3125,1.66016 -0.3125,0.75195 -0.80078,1.36718 -0.48828,0.61524 -1.10352,1.09375 -0.61523,0.46875 -1.21093,0.80078 l -0.86915,-1.5039 q 0.19532,-0.10742 0.47852,-0.2832 0.2832,-0.17579 0.58594,-0.41016 0.3125,-0.23438 0.60547,-0.52734 0.30273,-0.30274 0.53711,-0.6543 0.24414,-0.35156 0.39062,-0.76172 0.14649,-0.41016 0.14649,-0.86914 0,-0.41992 -0.13672,-0.80078 -0.12696,-0.38086 -0.36133,-0.66406 -0.23438,-0.28321 -0.56641,-0.44922 -0.32226,-0.16602 -0.71289,-0.16602 -0.50781,0 -0.98633,0.26367 -0.47851,0.26367 -0.86914,0.66407 -0.39062,0.39062 -0.66406,0.83984 -0.26367,0.44922 -0.35156,0.83008 V 240 h -1.60156 v -3.74023 l -0.0391,-0.0195 q -0.14648,0.12696 -0.37109,0.3125 -0.22461,0.17579 -0.54688,0.3418 -0.3125,0.16602 -0.73242,0.2832 -0.41015,0.11719 -0.92773,0.11719 -0.85938,0 -1.5918,-0.33203 -0.72266,-0.33203 -1.25976,-0.89844 -0.52735,-0.57617 -0.83008,-1.34765 -0.30274,-0.77149 -0.30274,-1.65039 0,-0.83985 0.27344,-1.55274 0.2832,-0.71289 0.76172,-1.2207 0.48828,-0.51758 1.13281,-0.80078 0.6543,-0.29297 1.40625,-0.29297 0.52735,0 0.97656,0.13672 0.45899,0.12695 0.83008,0.32226 0.38086,0.18555 0.67383,0.41016 0.30273,0.21484 0.50781,0.39062 l 0.0391,-0.01 V 226.875 h -8.09571 v -1.43555 h 17.94922 z m -12.64648,3.84766 q -0.55664,0 -0.98633,0.23437 -0.41992,0.22461 -0.70313,0.58594 -0.2832,0.35156 -0.42968,0.80078 -0.13672,0.43945 -0.13672,0.86914 0,0.46875 0.16601,0.9375 0.16602,0.45898 0.46875,0.83008 0.3125,0.37109 0.74219,0.60547 0.42969,0.22461 0.94727,0.22461 0.43945,0 0.91796,-0.17578 0.48829,-0.18555 0.88868,-0.56641 0.41015,-0.38086 0.67382,-0.9668 0.26368,-0.5957 0.26368,-1.41601 v -0.47852 q -0.23438,-0.29297 -0.55664,-0.55664 -0.3125,-0.27344 -0.6836,-0.47852 -0.36133,-0.20507 -0.76172,-0.32226 -0.40039,-0.12695 -0.81054,-0.12695 z m 17.84179,-3.84766 h -2.05078 V 240 H 259.5 v -13.125 h -2.22656 v -1.43555 h 5.8789 z m 11.75782,0 h -2.05079 V 240 h -1.60156 v -3.48633 l -0.0391,-0.01 q -0.19531,0.18554 -0.45898,0.39062 -0.26368,0.19531 -0.60547,0.36133 -0.3418,0.15625 -0.77149,0.26367 -0.41992,0.10742 -0.94726,0.10742 -0.9668,0 -1.76758,-0.37109 -0.79102,-0.37109 -1.36719,-0.98633 -0.57617,-0.625 -0.89844,-1.42578 -0.3125,-0.81055 -0.3125,-1.68945 0,-0.87891 0.3125,-1.63086 0.32227,-0.76172 0.87891,-1.31836 0.55664,-0.55664 1.29883,-0.86914 0.74219,-0.32227 1.59179,-0.32227 0.23438,0 0.58594,0.0391 0.36133,0.0391 0.77149,0.17579 0.41015,0.13671 0.84961,0.40039 0.43945,0.2539 0.83984,0.69336 l 0.0391,-0.01 v -3.4375 h -8.78906 v -1.43555 h 12.44141 z m -3.61329,5.26367 q -0.61523,-0.74219 -1.33789,-1.1914 -0.72265,-0.45899 -1.64062,-0.45899 -0.72266,0 -1.23047,0.27344 -0.49805,0.27344 -0.82031,0.69336 -0.32227,0.41015 -0.46875,0.91797 -0.14649,0.50781 -0.14649,0.97656 0,0.50781 0.16602,1.00586 0.16601,0.49805 0.48828,0.89844 0.33203,0.39062 0.82031,0.64453 0.48828,0.24414 1.14258,0.24414 0.67383,0 1.23047,-0.25391 0.55664,-0.26367 0.95703,-0.66406 0.40039,-0.40039 0.61524,-0.89844 0.2246,-0.49805 0.2246,-0.9668 z m 1.42579,-6.42578 h -1.41602 l -0.88867,-1.66992 q -0.56641,-1.06445 -1.02539,-1.68945 -0.46875,-0.625 -0.87891,-0.94727 -0.41992,-0.33203 -0.82031,-0.41992 -0.40039,-0.0977 -0.83984,-0.0977 h -1.89454 v -1.58203 h 1.78711 q 0.56641,0 1.02539,0.0977 0.45899,0.0879 0.87891,0.33203 0.41016,0.23437 0.81055,0.66406 0.39062,0.41992 0.83984,1.09375 0.44922,0.66406 0.98633,1.60156 0.52734,0.92774 1.21094,2.19727 z m 11.96289,1.16211 h -3.68164 q 0.49804,0.85937 0.80078,1.75781 0.3125,0.88867 0.3125,1.80664 0,0.69336 -0.21485,1.33789 -0.20507,0.63477 -0.61523,1.14258 -0.40039,0.49805 -1.00586,0.82031 -0.5957,0.3125 -1.37695,0.35157 l -0.0195,0.0488 q 0.8789,1.36719 1.97265,2.5879 1.09375,1.21093 2.5293,2.30468 l -1.04492,1.20117 q -0.83008,-0.61523 -1.58203,-1.32812 -0.74219,-0.72266 -1.40625,-1.48438 -0.66407,-0.77148 -1.24024,-1.55273 -0.56641,-0.79102 -1.04492,-1.5332 -0.46875,-0.75196 -0.83984,-1.43555 -0.3711,-0.69336 -0.63477,-1.25977 l 1.33789,-0.72265 q 0.35156,0.76172 0.79102,1.20117 0.44921,0.42969 1.03515,0.42969 0.41992,0 0.75196,-0.21485 0.33203,-0.21484 0.55664,-0.54687 0.22461,-0.3418 0.34179,-0.74219 0.11719,-0.41015 0.11719,-0.80078 0,-0.45898 -0.11719,-0.89844 -0.11718,-0.44922 -0.30273,-0.86914 -0.18555,-0.42969 -0.41992,-0.83008 -0.22461,-0.40039 -0.43946,-0.77148 h -5.01953 v -1.43555 h 10.45899 z m 5.19531,0 h -2.05078 V 240 h -1.60156 v -13.125 h -2.22657 v -1.43555 h 2.38282 q -0.17579,-0.99609 -0.44922,-1.69922 -0.27344,-0.71289 -0.59571,-1.18164 -0.32226,-0.47851 -0.67382,-0.75195 -0.35157,-0.27344 -0.67383,-0.41016 -0.33203,-0.13671 -0.61524,-0.17578 -0.29297,-0.0391 -0.47851,-0.0391 -0.60547,0 -0.9668,0.19531 -0.37109,0.18555 -0.56641,0.44922 -0.19531,0.26367 -0.2539,0.55664 -0.0684,0.28321 -0.0684,0.48828 0,0.0781 0.0293,0.32227 0.0195,0.23437 0.15625,0.5957 0.12695,0.36133 0.40039,0.81055 0.27343,0.44922 0.77148,0.94726 h -1.66016 q -0.61523,-0.70312 -0.91796,-1.45507 -0.3125,-0.76172 -0.3125,-1.47461 0,-0.59571 0.21484,-1.13282 0.21484,-0.5371 0.64453,-0.92773 0.42969,-0.40039 1.07422,-0.63477 0.64453,-0.23437 1.49414,-0.23437 1.17187,0 2.02148,0.45898 0.84961,0.44922 1.42579,1.23047 0.58593,0.78125 0.91796,1.83594 0.3418,1.04492 0.47852,2.22656 h 2.09961 z m 17.23633,0 h -2.05078 V 240 h -1.60157 v -3.48633 l -0.0391,-0.01 q -0.19531,0.18554 -0.45898,0.39062 -0.26368,0.19531 -0.60547,0.36133 -0.3418,0.15625 -0.77149,0.26367 -0.41992,0.10742 -0.94726,0.10742 -0.9668,0 -1.76758,-0.37109 -0.79102,-0.37109 -1.36719,-0.98633 -0.57617,-0.625 -0.89844,-1.42578 -0.3125,-0.81055 -0.3125,-1.68945 0,-0.87891 0.3125,-1.63086 0.32227,-0.76172 0.87891,-1.31836 0.55664,-0.55664 1.29883,-0.86914 0.74219,-0.32227 1.5918,-0.32227 0.23437,0 0.58593,0.0391 0.36133,0.0391 0.77149,0.17579 0.41015,0.13671 0.84961,0.40039 0.43945,0.2539 0.83984,0.69336 l 0.0391,-0.01 v -3.4375 h -8.78906 v -1.43555 h 12.44141 z m -3.61328,5.26367 q -0.61524,-0.74219 -1.33789,-1.1914 -0.72266,-0.45899 -1.64063,-0.45899 -0.72266,0 -1.23047,0.27344 -0.49805,0.27344 -0.82031,0.69336 -0.32227,0.41015 -0.46875,0.91797 -0.14649,0.50781 -0.14649,0.97656 0,0.50781 0.16602,1.00586 0.16602,0.49805 0.48828,0.89844 0.33203,0.39062 0.82031,0.64453 0.48829,0.24414 1.14258,0.24414 0.67383,0 1.23047,-0.25391 0.55664,-0.26367 0.95703,-0.66406 0.40039,-0.40039 0.61524,-0.89844 0.22461,-0.49805 0.22461,-0.9668 z m 8.80859,-5.26367 h -2.05078 V 240 h -1.60156 v -13.125 h -2.22657 v -1.43555 h 5.87891 z m 6.81641,10.37109 q 0.32226,-0.0977 0.63476,-0.24414 0.32227,-0.14648 0.56641,-0.35156 0.2539,-0.21484 0.41015,-0.49805 0.15625,-0.2832 0.15625,-0.66406 0,-0.81055 -0.67382,-1.25976 -0.67383,-0.45899 -1.91407,-0.45899 -0.49804,0 -1.02539,0.10742 -0.51758,0.0977 -0.94726,0.3711 -0.42969,0.26367 -0.70313,0.73242 -0.27344,0.45898 -0.27344,1.17187 0,0.72266 0.28321,1.34766 0.2832,0.61523 0.73242,1.13281 0.45898,0.51758 1.02539,0.9375 0.56641,0.41992 1.12305,0.74219 0.5664,0.32227 1.06445,0.53711 0.49805,0.22461 0.83008,0.35156 l -0.64453,1.34766 q -0.6836,-0.29297 -1.39649,-0.64453 -0.70312,-0.3418 -1.36718,-0.76172 -0.66407,-0.41016 -1.25,-0.90821 -0.58594,-0.49804 -1.0254,-1.10351 -0.42968,-0.60547 -0.68359,-1.32813 -0.24414,-0.72265 -0.24414,-1.57226 0,-0.83008 0.21484,-1.44531 0.22461,-0.625 0.61524,-1.09375 -0.53711,-0.61524 -0.79102,-1.24024 -0.2539,-0.625 -0.2539,-1.35742 0,-0.41992 0.0977,-0.79102 0.10742,-0.37109 0.3711,-0.64453 0.27343,-0.2832 0.75195,-0.44922 0.47852,-0.16601 1.24023,-0.16601 h 4.42383 V 226.875 h -8.84765 v -1.43555 h 12.72461 v 1.43555 h -2.2754 v 3.59375 h -5.61523 q -0.38086,0 -0.64453,0.0684 -0.25391,0.0586 -0.41016,0.18555 -0.15625,0.12695 -0.22461,0.32226 -0.0586,0.18555 -0.0586,0.43945 0,0.3418 0.11719,0.66407 0.11718,0.32226 0.43945,0.72265 0.56641,-0.29297 1.24023,-0.42968 0.6836,-0.14649 1.42579,-0.14649 0.85937,0 1.60156,0.19531 0.75195,0.19532 1.29883,0.59571 0.55664,0.39062 0.86914,1.00586 0.32226,0.60547 0.32226,1.42578 0,0.79101 -0.27343,1.33789 -0.26368,0.54687 -0.67383,0.91797 -0.40039,0.37109 -0.87891,0.60547 -0.47851,0.22461 -0.88867,0.37109 z M 336.58984,226.875 h -2.05078 V 240 h -1.59179 v -8.57422 h -3.17383 q -0.6543,0 -1.18164,0.0879 -0.52735,0.0781 -0.89844,0.33203 -0.37109,0.24414 -0.57617,0.69336 -0.19532,0.43946 -0.19532,1.16211 0,0.9375 0.30274,1.72852 0.3125,0.79101 0.79101,1.45508 0.47852,0.65429 1.05469,1.21093 0.58594,0.55664 1.12305,1.02539 l -0.97656,1.11328 q -0.0879,-0.0488 -0.41993,-0.2832 -0.32226,-0.24414 -0.76171,-0.6543 -0.42969,-0.41015 -0.91797,-0.99609 -0.47852,-0.58594 -0.88867,-1.31836 -0.4004,-0.74219 -0.67383,-1.63086 -0.26367,-0.88867 -0.26367,-1.91406 0,-1.01563 0.2832,-1.67969 0.29297,-0.67383 0.82031,-1.06445 0.52734,-0.40039 1.2793,-0.55664 0.75195,-0.15625 1.67969,-0.15625 h 3.59375 V 226.875 h -9.27735 v -1.43555 h 12.91992 z m -2.1875,-1.16211 h -1.41601 l -0.88867,-1.66992 q -0.56641,-1.06445 -1.02539,-1.68945 -0.46875,-0.625 -0.87891,-0.94727 -0.41992,-0.33203 -0.82031,-0.41992 -0.40039,-0.0977 -0.83985,-0.0977 h -1.89453 v -1.58203 h 1.78711 q 0.56641,0 1.02539,0.0977 0.45899,0.0879 0.87891,0.33203 0.41015,0.23437 0.81054,0.66406 0.39063,0.41992 0.83985,1.09375 0.44922,0.66406 0.98633,1.60156 0.52734,0.92774 1.21093,2.19727 z m 4.93164,12.06055 -1.5625,4.80468 h -1.14257 l 1.14257,-4.80468 z m 21.47461,-12.33399 v 1.43555 h -2.05078 V 240 h -1.62109 v -6.5625 h -5.6543 q -0.51758,0.3418 -1.24023,0.41016 l -0.0195,0.0488 q 0.94726,1.48438 2.08007,2.76368 1.13282,1.27929 2.57813,2.37304 l -1.04492,1.20117 q -0.83008,-0.61523 -1.58203,-1.32812 -0.74219,-0.71289 -1.40625,-1.47461 -0.6543,-0.77148 -1.23047,-1.55273 -0.57617,-0.79102 -1.05469,-1.55274 -0.47852,-0.76172 -0.85938,-1.46484 -0.38085,-0.71289 -0.66406,-1.31836 l 1.33789,-0.72266 q 0.18555,0.42969 0.36133,0.72266 0.18555,0.2832 0.37109,0.45898 0.18555,0.16602 0.39063,0.24414 0.20508,0.0684 0.43945,0.0684 0.67383,0 0.98633,-0.52734 0.32227,-0.52734 0.32227,-1.38672 0,-0.50781 -0.0977,-0.99609 -0.0977,-0.49805 -0.25391,-0.94727 -0.14648,-0.45898 -0.32226,-0.85937 -0.17578,-0.40039 -0.33203,-0.72266 h -4.52149 v -1.43555 z m -3.67187,1.43555 h -5.20508 q 0.41016,0.88867 0.64453,1.78711 0.23438,0.89844 0.23438,1.78711 0,0.41015 -0.0684,0.81055 -0.0586,0.39062 -0.20508,0.74218 l 0.0195,0.0195 h 4.58008 z m 8.86719,0 h -2.05079 V 240 h -1.60156 V 226.875 H 360.125 v -1.43555 h 5.87891 z m 12.4707,0 h -2.05078 V 240 h -1.60156 v -13.125 h -4.4043 v 7.57812 q 0,0.15625 -0.0195,0.36133 -0.0195,0.20508 -0.0977,0.40039 -0.0684,0.18555 -0.20508,0.32227 -0.13672,0.12695 -0.38086,0.12695 -0.26367,0 -0.58593,-0.16601 -0.3125,-0.17578 -0.64454,-0.44922 -0.33203,-0.28321 -0.64453,-0.63477 -0.30273,-0.35156 -0.54687,-0.72265 -0.24414,-0.3711 -0.39063,-0.72266 -0.14648,-0.35156 -0.14648,-0.625 0,-0.24414 0.11719,-0.39063 0.12695,-0.14648 0.34179,-0.2246 0.22461,-0.0781 0.53711,-0.0977 0.32227,-0.0195 0.70313,-0.0195 h 0.34179 V 226.875 h -3.47656 v -1.43555 h 13.1543 z m 9.77539,0 h -3.68164 q 0.49805,0.85937 0.80078,1.75781 0.3125,0.88867 0.3125,1.80664 0,0.69336 -0.21484,1.33789 -0.20508,0.63477 -0.61524,1.14258 -0.40039,0.49805 -1.00586,0.82031 -0.5957,0.3125 -1.37695,0.35157 l -0.0195,0.0488 q 0.8789,1.36719 1.97265,2.5879 1.09375,1.21093 2.5293,2.30468 l -1.04492,1.20117 q -0.83008,-0.61523 -1.58203,-1.32812 -0.74219,-0.72266 -1.40625,-1.48438 -0.66406,-0.77148 -1.24024,-1.55273 -0.5664,-0.79102 -1.04492,-1.5332 -0.46875,-0.75196 -0.83984,-1.43555 -0.3711,-0.69336 -0.63477,-1.25977 l 1.33789,-0.72265 q 0.35157,0.76172 0.79102,1.20117 0.44922,0.42969 1.03516,0.42969 0.41992,0 0.75195,-0.21485 0.33203,-0.21484 0.55664,-0.54687 0.22461,-0.3418 0.3418,-0.74219 0.11718,-0.41015 0.11718,-0.80078 0,-0.45898 -0.11718,-0.89844 -0.11719,-0.44922 -0.30274,-0.86914 -0.18555,-0.42969 -0.41992,-0.83008 -0.22461,-0.40039 -0.43945,-0.77148 h -5.01953 v -1.43555 H 388.25 Z m 19.88281,-1.43555 v 1.43555 h -2.05078 V 240 h -1.62109 v -6.5625 h -5.6543 q -0.51758,0.3418 -1.24023,0.41016 l -0.0195,0.0488 q 0.94727,1.48438 2.08008,2.76368 1.13282,1.27929 2.57813,2.37304 l -1.04492,1.20117 q -0.83008,-0.61523 -1.58204,-1.32812 -0.74218,-0.71289 -1.40625,-1.47461 -0.65429,-0.77148 -1.23046,-1.55273 -0.57618,-0.79102 -1.05469,-1.55274 -0.47852,-0.76172 -0.85938,-1.46484 -0.38086,-0.71289 -0.66406,-1.31836 l 1.33789,-0.72266 q 0.18555,0.42969 0.36133,0.72266 0.18555,0.2832 0.37109,0.45898 0.18555,0.16602 0.39063,0.24414 0.20508,0.0684 0.43945,0.0684 0.67383,0 0.98633,-0.52734 0.32227,-0.52734 0.32227,-1.38672 0,-0.50781 -0.0977,-0.99609 -0.0977,-0.49805 -0.25391,-0.94727 -0.14648,-0.45898 -0.32226,-0.85937 -0.17578,-0.40039 -0.33203,-0.72266 h -4.52149 v -1.43555 z m -3.67187,1.43555 h -5.20508 q 0.41016,0.88867 0.64453,1.78711 0.23438,0.89844 0.23438,1.78711 0,0.41015 -0.0684,0.81055 -0.0586,0.39062 -0.20508,0.74218 l 0.0195,0.0195 h 4.58008 z m 8.86718,0 h -2.05078 V 240 h -1.60156 v -13.125 h -2.22656 v -1.43555 h 5.8789 z m 9.7754,0 h -3.68165 q 0.49805,0.85937 0.80079,1.75781 0.3125,0.88867 0.3125,1.80664 0,0.69336 -0.21485,1.33789 -0.20508,0.63477 -0.61523,1.14258 -0.40039,0.49805 -1.00586,0.82031 -0.5957,0.3125 -1.37695,0.35157 l -0.0195,0.0488 q 0.87891,1.36719 1.97266,2.5879 1.09375,1.21093 2.5293,2.30468 l -1.04492,1.20117 q -0.83008,-0.61523 -1.58204,-1.32812 -0.74218,-0.72266 -1.40625,-1.48438 -0.66406,-0.77148 -1.24023,-1.55273 -0.56641,-0.79102 -1.04492,-1.5332 -0.46875,-0.75196 -0.83985,-1.43555 -0.37109,-0.69336 -0.63476,-1.25977 l 1.33789,-0.72265 q 0.35156,0.76172 0.79101,1.20117 0.44922,0.42969 1.03516,0.42969 0.41992,0 0.75195,-0.21485 0.33204,-0.21484 0.55664,-0.54687 0.22461,-0.3418 0.3418,-0.74219 0.11719,-0.41015 0.11719,-0.80078 0,-0.45898 -0.11719,-0.89844 -0.11719,-0.44922 -0.30273,-0.86914 -0.18555,-0.42969 -0.41992,-0.83008 -0.22461,-0.40039 -0.43946,-0.77148 h -5.01953 v -1.43555 h 10.45899 z m 12.05078,12.91016 q -0.44922,0.16601 -1.10352,0.2832 -0.6543,0.11719 -1.48437,0.11719 -1.55274,0 -2.77344,-0.53711 -1.2207,-0.53711 -2.26563,-1.57227 -1.03515,-1.03515 -1.98242,-2.55859 -0.9375,-1.52344 -1.93359,-3.48633 l 1.29883,-0.74219 q 0.37109,0.70313 0.69336,1.00586 0.33203,0.29297 0.73242,0.29297 0.33203,0 0.57617,-0.18555 0.25391,-0.18554 0.41016,-0.47851 0.16601,-0.30274 0.24414,-0.6836 0.0879,-0.38086 0.0879,-0.76171 0,-0.43946 -0.0977,-0.91797 -0.0977,-0.47852 -0.26367,-0.94727 -0.16602,-0.46875 -0.39063,-0.9082 -0.21484,-0.44922 -0.45898,-0.82031 v -0.01 h -4.02344 v -1.43555 h 17.59766 V 226.875 H 437.9668 V 240 h -1.60157 v -4.74609 l -0.0391,-0.01 q -0.53711,0.52734 -1.1914,0.78125 -0.6543,0.25391 -1.29883,0.25391 -0.80078,0 -1.47461,-0.33203 -0.67383,-0.33204 -1.16211,-0.87891 -0.48828,-0.54688 -0.76172,-1.25 -0.27344,-0.70313 -0.27344,-1.45508 0,-0.71289 0.24414,-1.37695 0.25391,-0.66406 0.69336,-1.17188 0.44922,-0.51758 1.05469,-0.82031 0.61523,-0.30273 1.34766,-0.30273 0.41992,0 0.80078,0.0977 0.38086,0.0977 0.73242,0.27344 0.35156,0.17578 0.67383,0.41992 0.32226,0.23438 0.61523,0.50781 l 0.0391,-0.01 V 226.875 h -8.21289 q 0.49805,0.94727 0.78125,1.85547 0.28321,0.89844 0.28321,1.8164 0,0.625 -0.15625,1.24024 -0.15625,0.61523 -0.48828,1.11328 -0.32227,0.49805 -0.83008,0.83008 -0.50782,0.33203 -1.21094,0.39062 v 0.0488 q 0.67383,1.31836 1.40625,2.17774 0.74219,0.84961 1.50391,1.34765 0.76171,0.49805 1.52343,0.69336 0.77149,0.19531 1.50391,0.19531 0.83008,0 1.49414,-0.16601 0.66406,-0.17578 1.19141,-0.39063 z m 1.2207,-7.97852 q -0.17578,-0.22461 -0.43945,-0.50781 -0.25391,-0.29297 -0.58594,-0.54688 -0.32227,-0.2539 -0.72266,-0.41992 -0.39062,-0.17578 -0.84961,-0.17578 -0.46875,0 -0.84961,0.19531 -0.37109,0.18555 -0.64453,0.49805 -0.27343,0.3125 -0.41992,0.73242 -0.14648,0.41016 -0.14648,0.85938 0,0.46875 0.15625,0.89843 0.15625,0.41993 0.42968,0.74219 0.28321,0.32227 0.67383,0.51758 0.39063,0.18555 0.85938,0.18555 0.36133,0 0.80078,-0.13672 0.44922,-0.13672 0.83008,-0.44922 0.39062,-0.3125 0.64453,-0.83008 0.26367,-0.51758 0.26367,-1.2793 z m 8.83789,-4.93164 h -2.05078 V 240 h -1.60156 v -13.125 h -2.22657 v -1.43555 h 2.38282 q -0.17578,-0.99609 -0.44922,-1.69922 -0.27344,-0.71289 -0.59571,-1.18164 -0.32226,-0.47851 -0.67382,-0.75195 -0.35157,-0.27344 -0.67383,-0.41016 -0.33203,-0.13671 -0.61524,-0.17578 -0.29296,-0.0391 -0.47851,-0.0391 -0.60547,0 -0.9668,0.19531 -0.37109,0.18555 -0.5664,0.44922 -0.19532,0.26367 -0.25391,0.55664 -0.0684,0.28321 -0.0684,0.48828 0,0.0781 0.0293,0.32227 0.0195,0.23437 0.15625,0.5957 0.12695,0.36133 0.40039,0.81055 0.27343,0.44922 0.77148,0.94726 h -1.66015 q -0.61524,-0.70312 -0.91797,-1.45507 -0.3125,-0.76172 -0.3125,-1.47461 0,-0.59571 0.21484,-1.13282 0.21484,-0.5371 0.64453,-0.92773 0.42969,-0.40039 1.07422,-0.63477 0.64453,-0.23437 1.49414,-0.23437 1.17188,0 2.02149,0.45898 0.8496,0.44922 1.42578,1.23047 0.58593,0.78125 0.91797,1.83594 0.34179,1.04492 0.47851,2.22656 h 2.09961 z m 2.74414,10.89844 -1.5625,4.80468 h -1.14258 l 1.14258,-4.80468 z"
         id="path1" />
      <path
         d="m 493.09375,226.875 h -2.05078 V 240 h -1.60156 v -13.125 h -2.22657 v -1.43555 h 2.22657 q -0.53711,-1.28906 -0.53711,-2.40234 0,-0.71289 0.23437,-1.32813 0.23438,-0.61523 0.71289,-1.06445 0.48828,-0.44922 1.24024,-0.70312 0.75195,-0.25391 1.78711,-0.25391 1.35742,0 2.60742,0.43945 1.25976,0.43946 2.46094,1.22071 1.20117,0.78125 2.37304,1.85546 1.18164,1.07422 2.38281,2.34375 h -1.69921 q -0.27344,-0.26367 -0.73243,-0.68359 -0.44921,-0.42969 -1.04492,-0.9082 -0.5957,-0.48828 -1.31836,-0.97656 -0.72265,-0.49805 -1.52343,-0.89844 -0.80079,-0.40039 -1.66993,-0.64453 -0.85937,-0.25391 -1.73828,-0.25391 -0.71289,0 -1.20117,0.16602 -0.47852,0.16601 -0.78125,0.45898 -0.29297,0.29297 -0.41992,0.69336 -0.12695,0.39062 -0.12695,0.83984 0,0.87891 0.47851,2.09961 h 2.16797 z m 12.14844,0 h -2.05078 V 240 h -1.61133 v -7.5293 h -4.57031 q 0,0.64453 -0.0195,1.10352 -0.01,0.45898 -0.0781,0.76172 -0.0684,0.29297 -0.20508,0.42968 -0.13672,0.13672 -0.38086,0.13672 -0.50781,0 -0.9668,-0.33203 -0.44921,-0.33203 -0.80078,-0.80078 -0.34179,-0.46875 -0.54687,-0.97656 -0.20508,-0.50781 -0.20508,-0.85938 0,-0.3125 0.13672,-0.48828 0.13672,-0.17578 0.36133,-0.26367 0.22461,-0.0879 0.50781,-0.10742 0.29297,-0.0195 0.58594,-0.0195 h 6.18164 V 226.875 h -9.16992 v -1.43555 h 12.83203 z m 14.40429,-1.43555 V 226.875 H 517.5957 V 240 h -1.62109 v -6.5625 h -5.6543 q -0.51758,0.3418 -1.24023,0.41016 l -0.0195,0.0488 q 0.94726,1.48438 2.08007,2.76368 1.13282,1.27929 2.57813,2.37304 l -1.04492,1.20117 q -0.83008,-0.61523 -1.58203,-1.32812 -0.74219,-0.71289 -1.40625,-1.47461 -0.6543,-0.77148 -1.23047,-1.55273 -0.57617,-0.79102 -1.05469,-1.55274 -0.47852,-0.76172 -0.85937,-1.46484 -0.38086,-0.71289 -0.66407,-1.31836 l 1.33789,-0.72266 q 0.18555,0.42969 0.36133,0.72266 0.18555,0.2832 0.3711,0.45898 0.18554,0.16602 0.39062,0.24414 0.20508,0.0684 0.43945,0.0684 0.67383,0 0.98633,-0.52734 0.32227,-0.52734 0.32227,-1.38672 0,-0.50781 -0.0977,-0.99609 -0.0977,-0.49805 -0.25391,-0.94727 -0.14648,-0.45898 -0.32226,-0.85937 -0.17578,-0.40039 -0.33203,-0.72266 h -4.52149 v -1.43555 z m -3.67187,1.43555 h -5.20508 q 0.41016,0.88867 0.64453,1.78711 0.23438,0.89844 0.23438,1.78711 0,0.41015 -0.0684,0.81055 -0.0586,0.39062 -0.20508,0.74218 l 0.0195,0.0195 h 4.58008 z m 16.14258,0 h -2.05078 V 240 h -1.60157 v -13.125 h -4.40429 v 7.57812 q 0,0.15625 -0.0195,0.36133 -0.0195,0.20508 -0.0977,0.40039 -0.0684,0.18555 -0.20508,0.32227 -0.13672,0.12695 -0.38086,0.12695 -0.26367,0 -0.58594,-0.16601 -0.3125,-0.17578 -0.64453,-0.44922 -0.33203,-0.28321 -0.64453,-0.63477 -0.30273,-0.35156 -0.54687,-0.72265 -0.24414,-0.3711 -0.39063,-0.72266 -0.14648,-0.35156 -0.14648,-0.625 0,-0.24414 0.11718,-0.39063 0.12696,-0.14648 0.3418,-0.2246 0.22461,-0.0781 0.53711,-0.0977 0.32227,-0.0195 0.70313,-0.0195 h 0.34179 V 226.875 h -3.47656 v -1.43555 h 13.1543 z m 5.19531,0 h -2.05078 V 240 h -1.60156 v -13.125 h -2.22657 v -1.43555 h 5.87891 z m -0.45898,-5.70313 q -0.42969,-0.48828 -0.80079,-0.71289 -0.37109,-0.22461 -0.86914,-0.22461 -0.76172,0 -1.2207,0.52735 -0.45898,0.51758 -0.45898,1.46484 0,0.39063 0.0879,0.82031 0.0879,0.41993 0.2539,0.84961 0.16602,0.42969 0.41016,0.84961 0.24414,0.41993 0.55664,0.80078 h -1.62109 q -0.58594,-0.83007 -0.87891,-1.69921 -0.29297,-0.87891 -0.29297,-1.70899 0,-0.80078 0.26367,-1.43555 0.25391,-0.63476 0.6836,-1.06445 0.42968,-0.42969 1.00586,-0.6543 0.5664,-0.23437 1.20117,-0.23437 0.84961,0 1.51367,0.3418 0.67383,0.33203 1.25977,1.07422 z m 13.98437,5.70313 h -2.05078 V 240 h -1.62109 v -4.11133 l -0.0391,-0.0293 q -0.53711,0.48829 -1.05468,0.77149 -0.50782,0.27344 -0.95704,0.41992 -0.43945,0.13672 -0.80078,0.17578 -0.36133,0.0391 -0.5957,0.0391 -0.89844,0 -1.5918,-0.2832 -0.69336,-0.2832 -1.16211,-0.74219 -0.46875,-0.46875 -0.71289,-1.06445 -0.24414,-0.60547 -0.24414,-1.25 0,-0.67383 0.27344,-1.33789 0.2832,-0.66406 0.87891,-1.19141 l -0.01,-0.0391 h -3.0957 v -1.43555 h 7.85156 v 1.43555 h -1.00586 q -1.00586,0 -1.65039,0.26367 -0.64453,0.26368 -1.01563,0.64453 -0.37109,0.38086 -0.51757,0.82032 -0.13672,0.42968 -0.13672,0.78125 0,0.29297 0.0977,0.63476 0.0977,0.33203 0.32227,0.61524 0.23437,0.2832 0.61523,0.46875 0.39063,0.18554 0.97657,0.18554 0.61523,0 1.14257,-0.19531 0.53711,-0.20508 0.98633,-0.52734 0.44922,-0.32227 0.81055,-0.72266 0.37109,-0.41015 0.63477,-0.81055 V 226.875 h -10.53711 v -1.43555 h 14.20898 z m 5.19531,0 h -2.05078 V 240 h -1.60156 v -13.125 h -2.22656 v -1.43555 h 2.38281 q -0.17578,-0.99609 -0.44922,-1.69922 -0.27344,-0.71289 -0.5957,-1.18164 -0.32227,-0.47851 -0.67383,-0.75195 -0.35156,-0.27344 -0.67383,-0.41016 -0.33203,-0.13671 -0.61523,-0.17578 -0.29297,-0.0391 -0.47852,-0.0391 -0.60547,0 -0.9668,0.19531 -0.37109,0.18555 -0.5664,0.44922 -0.19531,0.26367 -0.25391,0.55664 -0.0684,0.28321 -0.0684,0.48828 0,0.0781 0.0293,0.32227 0.0195,0.23437 0.15625,0.5957 0.12695,0.36133 0.40039,0.81055 0.27344,0.44922 0.77148,0.94726 h -1.66015 q -0.61524,-0.70312 -0.91797,-1.45507 -0.3125,-0.76172 -0.3125,-1.47461 0,-0.59571 0.21484,-1.13282 0.21485,-0.5371 0.64453,-0.92773 0.42969,-0.40039 1.07422,-0.63477 0.64453,-0.23437 1.49414,-0.23437 1.17188,0 2.02149,0.45898 0.84961,0.44922 1.42578,1.23047 0.58594,0.78125 0.91797,1.83594 0.34179,1.04492 0.47851,2.22656 h 2.09961 z m 17.71485,0 h -2.05078 V 240 h -1.5918 v -8.57422 h -3.17383 q -0.6543,0 -1.18164,0.0879 -0.52734,0.0781 -0.89844,0.33203 -0.37109,0.24414 -0.57617,0.69336 -0.19531,0.43946 -0.19531,1.16211 0,0.9375 0.30273,1.72852 0.3125,0.79101 0.79102,1.45508 0.47851,0.65429 1.05469,1.21093 0.58593,0.55664 1.12304,1.02539 l -0.97656,1.11328 q -0.0879,-0.0488 -0.41992,-0.2832 -0.32227,-0.24414 -0.76172,-0.6543 -0.42969,-0.41015 -0.91797,-0.99609 -0.47852,-0.58594 -0.88867,-1.31836 -0.40039,-0.74219 -0.67383,-1.63086 -0.26367,-0.88867 -0.26367,-1.91406 0,-1.01563 0.2832,-1.67969 0.29297,-0.67383 0.82031,-1.06445 0.52735,-0.40039 1.2793,-0.55664 0.75195,-0.15625 1.67969,-0.15625 h 3.59375 V 226.875 h -9.27735 v -1.43555 h 12.91993 z m 5.19531,0 h -2.05078 V 240 h -1.60156 v -13.125 h -2.22657 v -1.43555 h 2.38282 q -0.17579,-0.99609 -0.44922,-1.69922 -0.27344,-0.71289 -0.59571,-1.18164 -0.32226,-0.47851 -0.67382,-0.75195 -0.35157,-0.27344 -0.67383,-0.41016 -0.33203,-0.13671 -0.61524,-0.17578 -0.29297,-0.0391 -0.47851,-0.0391 -0.60547,0 -0.9668,0.19531 -0.37109,0.18555 -0.56641,0.44922 -0.19531,0.26367 -0.2539,0.55664 -0.0684,0.28321 -0.0684,0.48828 0,0.0781 0.0293,0.32227 0.0195,0.23437 0.15625,0.5957 0.12695,0.36133 0.40039,0.81055 0.27343,0.44922 0.77148,0.94726 h -1.66016 q -0.61523,-0.70312 -0.91796,-1.45507 -0.3125,-0.76172 -0.3125,-1.47461 0,-0.59571 0.21484,-1.13282 0.21484,-0.5371 0.64453,-0.92773 0.42969,-0.40039 1.07422,-0.63477 0.64453,-0.23437 1.49414,-0.23437 1.17187,0 2.02148,0.45898 0.84961,0.44922 1.42579,1.23047 0.58593,0.78125 0.91796,1.83594 0.3418,1.04492 0.47852,2.22656 h 2.09961 z m 19.76562,0 h -2.05078 v 13.13477 h -1.60156 v -9.1504 q -0.51758,-0.18554 -0.97656,-0.18554 -0.45899,0 -0.80078,0.17578 -0.3418,0.16601 -0.57618,0.44922 -0.2246,0.2832 -0.34179,0.66406 -0.11719,0.38086 -0.11719,0.80078 0,0.16602 0.01,0.3418 0.0195,0.16601 0.0391,0.33203 h -1.49414 q -0.0781,-0.56641 -0.18555,-1.08398 -0.0977,-0.51758 -0.29297,-0.90821 -0.18554,-0.39062 -0.48828,-0.61523 -0.30273,-0.23438 -0.78125,-0.23438 -0.45898,0 -0.79101,0.18555 -0.32227,0.18555 -0.53711,0.51758 -0.21485,0.33203 -0.32227,0.78125 -0.0977,0.43945 -0.0977,0.95703 0,1.11328 0.38086,2.00195 0.38086,0.87891 1.02539,1.58203 0.6543,0.70313 1.50391,1.25977 0.85938,0.54687 1.80664,1.00586 l -0.79101,1.34765 q -0.35157,-0.15625 -0.90821,-0.46875 -0.54687,-0.3125 -1.17187,-0.77148 -0.61524,-0.45898 -1.24024,-1.07422 -0.625,-0.61523 -1.13281,-1.37695 -0.49805,-0.76172 -0.81055,-1.67969 -0.3125,-0.91797 -0.3125,-1.98242 0,-0.82031 0.23438,-1.52344 0.23437,-0.71289 0.66406,-1.23047 0.43945,-0.52734 1.05469,-0.82031 0.61523,-0.30273 1.36719,-0.30273 0.5664,0 0.97656,0.16601 0.41015,0.15625 0.70312,0.40039 0.30274,0.23438 0.49805,0.51758 0.19531,0.27344 0.3418,0.51758 l 0.0488,-0.01 q 0.18554,-0.41015 0.43945,-0.69336 0.26367,-0.2832 0.5664,-0.45898 0.3125,-0.17578 0.6543,-0.25391 0.3418,-0.0879 0.6836,-0.0879 0.30273,0 0.5957,0.0586 0.30273,0.0488 0.57617,0.14648 V 226.875 h -11.31836 v -1.43555 h 14.9707 z m -2.1875,-1.16211 h -1.41601 l -0.88867,-1.66992 q -0.56641,-1.06445 -1.02539,-1.68945 -0.46875,-0.625 -0.87891,-0.94727 -0.41992,-0.33203 -0.82031,-0.41992 -0.40039,-0.0977 -0.83985,-0.0977 h -1.89453 v -1.58203 h 1.78711 q 0.56641,0 1.02539,0.0977 0.45899,0.0879 0.87891,0.33203 0.41015,0.23437 0.81055,0.66406 0.39062,0.41992 0.83984,1.09375 0.44922,0.66406 0.98633,1.60156 0.52734,0.92774 1.21093,2.19727 z m 17.01172,1.16211 h -2.05078 V 240 h -1.60156 v -13.125 h -2.42188 v 6.04492 q 0,1.01563 -0.2832,1.74805 -0.27344,0.73242 -0.76172,1.21094 -0.47851,0.47851 -1.12304,0.71289 -0.64454,0.22461 -1.38672,0.22461 -0.83008,0 -1.50391,-0.26368 -0.66406,-0.26367 -1.13281,-0.78125 -0.46875,-0.51757 -0.72266,-1.27929 -0.2539,-0.77149 -0.2539,-1.76758 V 226.875 h -2.26563 v -1.43555 h 15.50781 z m -11.62109,0 v 6.15234 q 0,0.44922 0.0977,0.86914 0.10742,0.41016 0.33203,0.73243 0.23437,0.32226 0.60547,0.51757 0.38085,0.19532 0.92773,0.19532 0.55664,0 0.92773,-0.19532 0.38086,-0.19531 0.61524,-0.51757 0.23437,-0.32227 0.33203,-0.73243 0.10742,-0.41992 0.10742,-0.86914 V 226.875 Z m 16.81641,0 h -2.05079 V 240 h -1.60156 v -13.125 h -2.22656 v -1.43555 h 2.38281 q -0.17578,-0.99609 -0.44922,-1.69922 -0.27343,-0.71289 -0.5957,-1.18164 -0.32227,-0.47851 -0.67383,-0.75195 -0.35156,-0.27344 -0.67383,-0.41016 -0.33203,-0.13671 -0.61523,-0.17578 -0.29297,-0.0391 -0.47852,-0.0391 -0.60547,0 -0.96679,0.19531 -0.3711,0.18555 -0.56641,0.44922 -0.19531,0.26367 -0.25391,0.55664 -0.0684,0.28321 -0.0684,0.48828 0,0.0781 0.0293,0.32227 0.0195,0.23437 0.15625,0.5957 0.12695,0.36133 0.40039,0.81055 0.27344,0.44922 0.77149,0.94726 h -1.66016 q -0.61523,-0.70312 -0.91797,-1.45507 -0.3125,-0.76172 -0.3125,-1.47461 0,-0.59571 0.21485,-1.13282 0.21484,-0.5371 0.64453,-0.92773 0.42968,-0.40039 1.07422,-0.63477 0.64453,-0.23437 1.49414,-0.23437 1.17187,0 2.02148,0.45898 0.84961,0.44922 1.42578,1.23047 0.58594,0.78125 0.91797,1.83594 0.3418,1.04492 0.47852,2.22656 h 2.09961 z m 2.74414,10.89844 -1.5625,4.80468 h -1.14258 l 1.14258,-4.80468 z m 21.47461,-12.33399 v 1.43555 h -2.05079 V 240 h -1.62109 v -6.5625 h -5.6543 q -0.51757,0.3418 -1.24023,0.41016 l -0.0195,0.0488 q 0.94726,1.48438 2.08008,2.76368 1.13281,1.27929 2.57812,2.37304 l -1.04492,1.20117 q -0.83008,-0.61523 -1.58203,-1.32812 -0.74219,-0.71289 -1.40625,-1.47461 -0.6543,-0.77148 -1.23047,-1.55273 -0.57617,-0.79102 -1.05469,-1.55274 -0.47851,-0.76172 -0.85937,-1.46484 -0.38086,-0.71289 -0.66407,-1.31836 l 1.33789,-0.72266 q 0.18555,0.42969 0.36133,0.72266 0.18555,0.2832 0.3711,0.45898 0.18554,0.16602 0.39062,0.24414 0.20508,0.0684 0.43945,0.0684 0.67383,0 0.98633,-0.52734 0.32227,-0.52734 0.32227,-1.38672 0,-0.50781 -0.0977,-0.99609 -0.0976,-0.49805 -0.2539,-0.94727 -0.14649,-0.45898 -0.32227,-0.85937 -0.17578,-0.40039 -0.33203,-0.72266 h -4.52149 v -1.43555 z m -3.67188,1.43555 h -5.20508 q 0.41016,0.88867 0.64453,1.78711 0.23438,0.89844 0.23438,1.78711 0,0.41015 -0.0684,0.81055 -0.0586,0.39062 -0.20508,0.74218 l 0.0195,0.0195 h 4.58008 z m -1.89453,13.41797 q 0.625,-0.39063 1.38672,-0.60547 0.75195,-0.21484 1.43554,-0.21484 0.59571,0 1.11329,0.17578 0.50781,0.16601 0.88867,0.48828 0.38086,0.33203 0.5957,0.80078 0.21484,0.46875 0.21484,1.05469 0,0.625 -0.2539,1.17187 -0.24414,0.54688 -0.74219,0.95703 -0.49805,0.41016 -1.23047,0.64453 -0.73242,0.24415 -1.69922,0.24415 -1.10351,0 -1.97265,-0.30274 -0.87891,-0.29297 -1.57227,-0.75195 -0.69336,-0.44922 -1.2207,-0.9961 -0.52735,-0.54687 -0.92774,-1.03515 l 0.90821,-1.06446 q 0.55664,0.60547 1.06445,1.09375 0.50781,0.48829 1.05469,0.83008 0.54687,0.35157 1.18164,0.53711 0.625,0.18555 1.41601,0.18555 0.67383,0 1.15235,-0.13672 0.46875,-0.12695 0.77148,-0.3418 0.30274,-0.20507 0.43946,-0.47851 0.13671,-0.26367 0.13671,-0.53711 0,-0.49805 -0.37109,-0.79102 -0.38086,-0.29297 -1.02539,-0.29297 -0.41992,0 -0.9668,0.14649 -0.55664,0.14648 -1.12304,0.48828 z m 1.51367,-17.83203 q 0,-0.55664 0.33203,-0.89844 0.32227,-0.35156 0.84961,-0.35156 0.24414,0 0.46875,0.0977 0.21485,0.0977 0.38086,0.27344 0.16602,0.16602 0.26367,0.40039 0.0879,0.22461 0.0879,0.49805 0,0.55664 -0.32226,0.89844 -0.33203,0.34179 -0.85938,0.34179 -0.2539,0 -0.46875,-0.0879 -0.22461,-0.0977 -0.38086,-0.26367 -0.16601,-0.17578 -0.2539,-0.40039 -0.0977,-0.23438 -0.0977,-0.50781 z m 16.50391,4.41406 h -3.31055 v 4.28711 h -3.29102 q -1.5332,0 -2.31445,0.76172 -0.78125,0.75195 -0.78125,2.16797 0,0.80078 0.25391,1.41601 0.26367,0.61524 0.71289,1.03516 0.45898,0.41015 1.08398,0.625 0.625,0.21484 1.35742,0.21484 0.77149,0 1.24024,-0.23437 -0.0391,-0.24414 -0.0586,-0.42969 -0.0195,-0.18555 -0.0195,-0.37109 0,-0.41016 0.0977,-0.83985 0.10742,-0.43945 0.3125,-0.79101 0.21484,-0.36133 0.53711,-0.58594 0.33203,-0.22461 0.79102,-0.22461 0.2832,0 0.5371,0.0977 0.25391,0.0977 0.43946,0.30273 0.19531,0.19531 0.30273,0.49805 0.11719,0.30273 0.11719,0.70312 0,0.40039 -0.10742,0.74219 -0.10742,0.33203 -0.28321,0.625 -0.16601,0.2832 -0.38085,0.53711 -0.21485,0.24414 -0.41993,0.44922 0.21485,0.46875 0.44922,0.83984 0.24414,0.3711 0.49805,0.66406 0.26367,0.29297 0.52734,0.52735 0.26367,0.23437 0.52735,0.43945 l -1.20118,1.25977 q -0.51757,-0.45899 -0.88867,-0.91797 -0.36133,-0.44922 -0.61523,-0.84961 -0.24414,-0.40039 -0.40039,-0.72266 -0.15625,-0.32226 -0.25391,-0.51758 -0.67383,0.26368 -1.66015,0.26368 -1.26954,0 -2.2168,-0.41016 -0.94727,-0.41992 -1.58203,-1.11328 -0.625,-0.70313 -0.9375,-1.60156 -0.3125,-0.89844 -0.3125,-1.86524 0,-1.00586 0.32226,-1.76758 0.32227,-0.77148 0.89844,-1.28906 0.57617,-0.52734 1.36719,-0.79101 0.80078,-0.27344 1.74804,-0.27344 h 2.00196 V 226.875 h -8.22266 v -1.43555 h 13.13477 z m 9.77539,0 h -3.68164 q 0.49804,0.85937 0.80078,1.75781 0.3125,0.88867 0.3125,1.80664 0,0.69336 -0.21485,1.33789 -0.20507,0.63477 -0.61523,1.14258 -0.40039,0.49805 -1.00586,0.82031 -0.5957,0.3125 -1.37695,0.35157 l -0.0195,0.0488 q 0.8789,1.36719 1.97265,2.5879 1.09375,1.21093 2.5293,2.30468 l -1.04492,1.20117 q -0.83008,-0.61523 -1.58203,-1.32812 -0.74219,-0.72266 -1.40625,-1.48438 -0.66407,-0.77148 -1.24024,-1.55273 -0.5664,-0.79102 -1.04492,-1.5332 -0.46875,-0.75196 -0.83984,-1.43555 -0.3711,-0.69336 -0.63477,-1.25977 l 1.33789,-0.72265 q 0.35156,0.76172 0.79102,1.20117 0.44922,0.42969 1.03515,0.42969 0.41993,0 0.75196,-0.21485 0.33203,-0.21484 0.55664,-0.54687 0.22461,-0.3418 0.34179,-0.74219 0.11719,-0.41015 0.11719,-0.80078 0,-0.45898 -0.11719,-0.89844 -0.11718,-0.44922 -0.30273,-0.86914 -0.18555,-0.42969 -0.41992,-0.83008 -0.22461,-0.40039 -0.43946,-0.77148 h -5.01953 v -1.43555 h 10.45899 z m 16.16211,6.5625 h -5.60547 q -0.51758,0.3418 -1.24024,0.41016 l -0.0195,0.0488 q 0.94727,1.48438 2.08008,2.76368 1.13281,1.27929 2.57813,2.37304 l -1.04493,1.20117 q -0.83007,-0.61523 -1.58203,-1.32812 -0.74218,-0.71289 -1.40625,-1.47461 -0.65429,-0.77148 -1.23047,-1.55273 -0.57617,-0.79102 -1.05468,-1.55274 -0.47852,-0.76172 -0.85938,-1.46484 -0.38086,-0.71289 -0.66406,-1.31836 l 1.33789,-0.72266 q 0.18555,0.42969 0.36133,0.72266 0.18554,0.2832 0.37109,0.45898 0.18555,0.16602 0.39063,0.24414 0.20507,0.0684 0.43945,0.0684 0.67383,0 0.98633,-0.52734 0.32226,-0.52734 0.32226,-1.38672 0,-0.50781 -0.0976,-0.99609 -0.0977,-0.49805 -0.25391,-0.94727 -0.14648,-0.45898 -0.32226,-0.85937 -0.17579,-0.40039 -0.33204,-0.72266 h -4.52148 v -1.43555 h 11.13281 v 1.43555 h -4.92187 q 0.41015,0.88867 0.64453,1.78711 0.23437,0.89844 0.23437,1.78711 0,0.41015 -0.0684,0.81055 -0.0586,0.39062 -0.20507,0.74218 l 0.0195,0.0195 h 4.38476 z m 9.55078,-6.5625 h -2.05078 V 240 h -1.60157 v -3.48633 l -0.0391,-0.01 q -0.19531,0.18554 -0.45898,0.39062 -0.26367,0.19531 -0.60547,0.36133 -0.3418,0.15625 -0.77149,0.26367 -0.41992,0.10742 -0.94726,0.10742 -0.9668,0 -1.76758,-0.37109 -0.79101,-0.37109 -1.36719,-0.98633 -0.57617,-0.625 -0.89843,-1.42578 -0.3125,-0.81055 -0.3125,-1.68945 0,-0.87891 0.3125,-1.63086 0.32226,-0.76172 0.8789,-1.31836 0.55664,-0.55664 1.29883,-0.86914 0.74219,-0.32227 1.5918,-0.32227 0.23437,0 0.58593,0.0391 0.36133,0.0391 0.77149,0.17579 0.41016,0.13671 0.84961,0.40039 0.43945,0.2539 0.83984,0.69336 l 0.0391,-0.01 v -3.4375 h -8.78906 v -1.43555 h 12.44141 z m -3.61328,5.26367 q -0.61524,-0.74219 -1.33789,-1.1914 -0.72266,-0.45899 -1.64063,-0.45899 -0.72265,0 -1.23047,0.27344 -0.49804,0.27344 -0.82031,0.69336 -0.32227,0.41015 -0.46875,0.91797 -0.14648,0.50781 -0.14648,0.97656 0,0.50781 0.16601,1.00586 0.16602,0.49805 0.48828,0.89844 0.33203,0.39062 0.82032,0.64453 0.48828,0.24414 1.14257,0.24414 0.67383,0 1.23047,-0.25391 0.55664,-0.26367 0.95703,-0.66406 0.40039,-0.40039 0.61524,-0.89844 0.22461,-0.49805 0.22461,-0.9668 z m 15.65429,-5.26367 h -2.05078 V 240 h -1.61133 v -4.59961 l -0.0293,-0.01 -4.16992,2.61719 q 0.32226,0.64453 0.46875,1.05469 0.15625,0.41016 0.15625,0.76172 0,0.32226 -0.15625,0.49805 -0.14649,0.18554 -0.60547,0.18554 -0.51758,0 -0.97657,-0.22461 -0.45898,-0.21484 -0.80078,-0.53711 -0.34179,-0.32226 -0.54687,-0.67382 -0.19531,-0.35157 -0.19531,-0.61524 0,-0.16601 0.0781,-0.30273 0.0781,-0.14649 0.21484,-0.26368 0.13672,-0.12695 0.30274,-0.23437 0.17578,-0.11719 0.37109,-0.23438 l 1.91407,-1.17187 -0.01,-0.0293 q -0.66406,-0.0879 -1.20117,-0.36133 -0.53711,-0.2832 -0.91797,-0.76171 -0.37109,-0.47852 -0.57617,-1.16211 -0.20508,-0.69336 -0.20508,-1.61133 V 226.875 h -2.17774 v -1.43555 h 12.72461 z m -3.66211,0 h -5.30273 v 5.36133 q 0,0.61523 0.0977,1.10351 0.10742,0.48828 0.35156,0.83008 0.25391,0.3418 0.6543,0.52735 0.40039,0.17578 1.00586,0.17578 0.94726,0 1.74804,-0.41993 0.80078,-0.42968 1.44531,-1.11328 z m 8.85743,0 h -2.05078 V 240 h -1.60157 v -13.125 h -2.22656 v -1.43555 h 2.38281 q -0.17578,-0.99609 -0.44922,-1.69922 -0.27343,-0.71289 -0.5957,-1.18164 -0.32226,-0.47851 -0.67383,-0.75195 -0.35156,-0.27344 -0.67383,-0.41016 -0.33203,-0.13671 -0.61523,-0.17578 -0.29297,-0.0391 -0.47852,-0.0391 -0.60546,0 -0.96679,0.19531 -0.3711,0.18555 -0.56641,0.44922 -0.19531,0.26367 -0.2539,0.55664 -0.0684,0.28321 -0.0684,0.48828 0,0.0781 0.0293,0.32227 0.0195,0.23437 0.15625,0.5957 0.12696,0.36133 0.40039,0.81055 0.27344,0.44922 0.77149,0.94726 h -1.66016 q -0.61523,-0.70312 -0.91797,-1.45507 -0.3125,-0.76172 -0.3125,-1.47461 0,-0.59571 0.21485,-1.13282 0.21484,-0.5371 0.64453,-0.92773 0.42969,-0.40039 1.07422,-0.63477 0.64453,-0.23437 1.49414,-0.23437 1.17187,0 2.02148,0.45898 0.84961,0.44922 1.42578,1.23047 0.58594,0.78125 0.91797,1.83594 0.3418,1.04492 0.47852,2.22656 h 2.09961 z m 1.83593,13.33984 q -0.44921,0 -0.77148,-0.32226 -0.3125,-0.32227 -0.3125,-0.77149 0,-0.44922 0.3125,-0.77148 0.32227,-0.33203 0.77148,-0.33203 0.45899,0 0.78125,0.33203 0.32227,0.32226 0.32227,0.77148 0,0.44922 -0.32227,0.77149 -0.32226,0.32226 -0.78125,0.32226 z"
         id="path2" />
      <path
         d="m 757.625,237.24609 q 0.32227,-0.0977 0.63477,-0.24414 0.32226,-0.14648 0.5664,-0.35156 0.25391,-0.21484 0.41016,-0.49805 0.15625,-0.2832 0.15625,-0.66406 0,-0.81055 -0.67383,-1.25976 -0.67383,-0.45899 -1.91406,-0.45899 -0.49805,0 -1.02539,0.10742 -0.51758,0.0977 -0.94727,0.3711 -0.42969,0.26367 -0.70312,0.73242 -0.27344,0.45898 -0.27344,1.17187 0,0.72266 0.2832,1.34766 0.2832,0.61523 0.73242,1.13281 0.45899,0.51758 1.02539,0.9375 0.56641,0.41992 1.12305,0.74219 0.56641,0.32227 1.06445,0.53711 0.49805,0.22461 0.83008,0.35156 l -0.64453,1.34766 q -0.68359,-0.29297 -1.39648,-0.64453 -0.70313,-0.3418 -1.36719,-0.76172 -0.66406,-0.41016 -1.25,-0.90821 -0.58594,-0.49804 -1.02539,-1.10351 -0.42969,-0.60547 -0.6836,-1.32813 -0.24414,-0.72265 -0.24414,-1.57226 0,-0.83008 0.21485,-1.44531 0.22461,-0.625 0.61523,-1.09375 -0.53711,-0.61524 -0.79101,-1.24024 -0.25391,-0.625 -0.25391,-1.35742 0,-0.41992 0.0977,-0.79102 0.10742,-0.37109 0.37109,-0.64453 0.27344,-0.2832 0.75195,-0.44922 0.47852,-0.16601 1.24024,-0.16601 h 4.42383 V 226.875 H 750.125 v -1.43555 h 12.72461 v 1.43555 h -2.27539 v 3.59375 h -5.61524 q -0.38086,0 -0.64453,0.0684 -0.2539,0.0586 -0.41015,0.18555 -0.15625,0.12695 -0.22461,0.32226 -0.0586,0.18555 -0.0586,0.43945 0,0.3418 0.11719,0.66407 0.11719,0.32226 0.43945,0.72265 0.56641,-0.29297 1.24024,-0.42968 0.68359,-0.14649 1.42578,-0.14649 0.85937,0 1.60156,0.19531 0.75196,0.19532 1.29883,0.59571 0.55664,0.39062 0.86914,1.00586 0.32227,0.60547 0.32227,1.42578 0,0.79101 -0.27344,1.33789 -0.26367,0.54687 -0.67383,0.91797 -0.40039,0.37109 -0.87891,0.60547 -0.47851,0.22461 -0.88867,0.37109 z M 768.04492,226.875 h -2.05078 V 240 h -1.60156 v -13.125 h -2.22656 v -1.43555 h 2.22656 q -0.53711,-1.30859 -0.53711,-2.42187 0,-0.72266 0.20508,-1.32813 0.21484,-0.61523 0.61523,-1.05468 0.40039,-0.44922 0.97656,-0.69336 0.57618,-0.25391 1.29883,-0.25391 0.88867,0 1.69922,0.39062 0.81055,0.39063 1.5625,1.14258 0.75195,0.74219 1.46484,1.83594 0.72266,1.08398 1.43555,2.49023 h -1.45508 q -0.22461,-0.38085 -0.50781,-0.8496 -0.2832,-0.47852 -0.61523,-0.95704 -0.33204,-0.48828 -0.71289,-0.94726 -0.38086,-0.45899 -0.81055,-0.82031 -0.41992,-0.36133 -0.87891,-0.57618 -0.44922,-0.21484 -0.9375,-0.21484 -0.41015,0 -0.74219,0.16602 -0.33203,0.16601 -0.5664,0.45898 -0.23438,0.29297 -0.36133,0.69336 -0.12695,0.39062 -0.12695,0.84961 0,0.88867 0.47851,2.08984 h 2.16797 z m 9.77539,0 h -3.68164 q 0.49805,0.85937 0.80078,1.75781 0.3125,0.88867 0.3125,1.80664 0,0.69336 -0.21484,1.33789 -0.20508,0.63477 -0.61524,1.14258 -0.40039,0.49805 -1.00585,0.82031 -0.59571,0.3125 -1.37696,0.35157 l -0.0195,0.0488 q 0.87891,1.36719 1.97266,2.5879 1.09375,1.21093 2.52929,2.30468 l -1.04492,1.20117 q -0.83008,-0.61523 -1.58203,-1.32812 -0.74219,-0.72266 -1.40625,-1.48438 -0.66406,-0.77148 -1.24023,-1.55273 -0.56641,-0.79102 -1.04493,-1.5332 -0.46875,-0.75196 -0.83984,-1.43555 -0.37109,-0.69336 -0.63476,-1.25977 l 1.33789,-0.72265 q 0.35156,0.76172 0.79101,1.20117 0.44922,0.42969 1.03516,0.42969 0.41992,0 0.75195,-0.21485 0.33203,-0.21484 0.55664,-0.54687 0.22461,-0.3418 0.3418,-0.74219 0.11719,-0.41015 0.11719,-0.80078 0,-0.45898 -0.11719,-0.89844 -0.11719,-0.44922 -0.30274,-0.86914 -0.18554,-0.42969 -0.41992,-0.83008 -0.22461,-0.40039 -0.43945,-0.77148 h -5.01953 v -1.43555 h 10.45898 z m 12.23633,0 h -2.05078 V 240 h -1.5918 v -8.57422 h -3.17383 q -0.65429,0 -1.18164,0.0879 -0.52734,0.0781 -0.89843,0.33203 -0.3711,0.24414 -0.57618,0.69336 -0.19531,0.43946 -0.19531,1.16211 0,0.9375 0.30274,1.72852 0.3125,0.79101 0.79101,1.45508 0.47852,0.65429 1.05469,1.21093 0.58594,0.55664 1.12305,1.02539 l -0.97657,1.11328 q -0.0879,-0.0488 -0.41992,-0.2832 -0.32226,-0.24414 -0.76172,-0.6543 -0.42968,-0.41015 -0.91797,-0.99609 -0.47851,-0.58594 -0.88867,-1.31836 -0.40039,-0.74219 -0.67383,-1.63086 -0.26367,-0.88867 -0.26367,-1.91406 0,-1.01563 0.28321,-1.67969 0.29296,-0.67383 0.82031,-1.06445 0.52734,-0.40039 1.27929,-0.55664 0.75196,-0.15625 1.67969,-0.15625 h 3.59375 V 226.875 h -9.27734 v -1.43555 h 12.91992 z m 11.68945,12.34375 v 0.0488 q 0.44922,0.48828 0.94727,0.88867 0.49805,0.41016 0.95703,0.72266 0.46875,0.3125 0.85938,0.52734 0.40039,0.21484 0.65429,0.32227 l -0.69336,1.2207 q -0.61523,-0.32227 -1.23047,-0.75195 -0.60546,-0.42969 -1.18164,-0.89844 -0.5664,-0.46875 -1.07422,-0.95703 -0.49804,-0.48828 -0.89843,-0.92774 -0.83985,-0.0781 -1.42578,-0.30273 -0.57618,-0.22461 -0.94727,-0.53711 -0.36133,-0.3125 -0.52734,-0.67383 -0.16602,-0.36133 -0.16602,-0.70312 0,-0.24415 0.0781,-0.46875 0.0879,-0.22461 0.24414,-0.39063 0.16601,-0.16602 0.40039,-0.26367 0.24414,-0.0977 0.55664,-0.0977 0.33203,0 0.70312,0.11719 0.38086,0.11719 0.74219,0.35156 0.36133,0.23438 0.69336,0.59571 0.33203,0.35156 0.58594,0.83007 1.2207,-0.20507 1.8457,-0.82031 0.625,-0.625 0.625,-1.63086 0,-0.39062 -0.10742,-0.63476 -0.0977,-0.24414 -0.30274,-0.38086 -0.20507,-0.13672 -0.51757,-0.17578 -0.30274,-0.0488 -0.71289,-0.0488 h -2.68555 q -0.72266,0 -1.25,-0.30274 -0.52735,-0.3125 -0.87891,-0.78125 -0.34179,-0.47851 -0.50781,-1.04492 -0.16602,-0.57617 -0.16602,-1.10351 0,-0.57618 0.18555,-0.95704 0.18555,-0.39062 0.50781,-0.61523 0.32227,-0.23438 0.76172,-0.33203 0.44922,-0.0977 0.9668,-0.0977 h 3.4082 V 226.875 h -7.34375 v -1.43555 h 15.9961 v 1.43555 h -2.05079 V 240 h -1.60156 v -5.85938 l -0.0391,-0.01 q -0.2832,0.18555 -0.54688,0.30273 -0.2539,0.11719 -0.51757,0.18555 -0.25391,0.0684 -0.52735,0.0977 -0.27343,0.0195 -0.58593,0.0195 0.0586,0.32226 0.0586,0.68359 0,0.69336 -0.19531,1.29883 -0.19532,0.60547 -0.59571,1.10352 -0.40039,0.48828 -1.02539,0.8496 -0.61523,0.35157 -1.47461,0.54688 z m 2.05078,-8.83789 h -4.5996 q -0.73243,0 -1.00586,0.20508 -0.27344,0.20508 -0.27344,0.66406 0,0.21484 0.0586,0.46875 0.0586,0.24414 0.21485,0.45898 0.15625,0.20508 0.41992,0.35157 0.27344,0.13672 0.69336,0.13672 h 2.72461 q 0.83007,0 1.39648,0.19531 0.57617,0.19531 0.92774,0.55664 0.36132,0 0.70312,-0.0195 0.3418,-0.0293 0.68359,-0.12696 0.3418,-0.10742 0.70313,-0.30273 0.36133,-0.20508 0.75195,-0.55664 V 226.875 h -3.39844 z m 12.2461,-3.50586 h -2.05078 V 240 h -1.60157 v -13.125 h -2.22656 v -1.43555 h 5.87891 z m 14.30664,0 h -2.91016 v 3.60352 h -4.89258 q -0.72265,0 -1.00585,0.20507 -0.27344,0.20508 -0.27344,0.66407 0,0.23437 0.0586,0.48828 0.0586,0.2539 0.21485,0.47851 0.15625,0.21485 0.41992,0.36133 0.27343,0.13672 0.69336,0.13672 h 2.76367 q 0.85937,0 1.44531,0.23437 0.5957,0.23438 0.94727,0.64454 0.36132,0.41015 0.51757,0.96679 0.15625,0.55664 0.15625,1.19141 0,0.86914 -0.29296,1.66016 -0.28321,0.79101 -0.84961,1.39648 -0.56641,0.60547 -1.41602,0.9668 -0.83984,0.36132 -1.96289,0.36132 -1.2207,0 -2.34375,-0.44921 -1.11328,-0.45899 -2.05078,-1.26954 -0.92774,-0.81054 -1.64063,-1.92382 -0.70312,-1.11328 -1.10351,-2.44141 l 1.35742,-0.53711 q 0.3418,1.00586 0.9082,1.93359 0.56641,0.92774 1.3086,1.64063 0.75195,0.71289 1.65039,1.14258 0.89844,0.41992 1.89453,0.41992 0.70312,0 1.25,-0.20508 0.55664,-0.20508 0.94726,-0.58594 0.39063,-0.38086 0.59571,-0.9082 0.20508,-0.53711 0.20508,-1.20117 0,-0.46875 -0.10743,-0.76172 -0.10742,-0.30273 -0.34179,-0.46875 -0.22461,-0.16602 -0.57617,-0.22461 -0.35157,-0.0684 -0.83985,-0.0684 h -2.55859 q -0.72266,0 -1.25,-0.3125 -0.52735,-0.3125 -0.87891,-0.79101 -0.3418,-0.47852 -0.50781,-1.05469 -0.16602,-0.58594 -0.16602,-1.12305 0,-0.57617 0.18555,-0.95703 0.18555,-0.39062 0.50781,-0.61523 0.32227,-0.23438 0.76172,-0.33204 0.44922,-0.0977 0.9668,-0.0977 h 3.70117 V 226.875 h -10.47852 v -1.43555 h 14.99024 z m -3.04688,-1.16211 h -1.41601 l -0.88867,-1.66992 q -0.56641,-1.06445 -1.02539,-1.68945 -0.46875,-0.625 -0.87891,-0.94727 -0.41992,-0.33203 -0.82031,-0.41992 -0.40039,-0.0977 -0.83985,-0.0977 h -1.89453 v -1.58203 h 1.78711 q 0.56641,0 1.02539,0.0977 0.45899,0.0879 0.87891,0.33203 0.41015,0.23437 0.81055,0.66406 0.39062,0.41992 0.83984,1.09375 0.44922,0.66406 0.98633,1.60156 0.52734,0.92774 1.21093,2.19727 z m 5.79102,12.06055 -1.5625,4.80468 h -1.14258 l 1.14258,-4.80468 z M 858.05469,226.875 h -8.42774 v 3.75 l 0.0488,0.0195 q 0.25391,-0.3418 0.57617,-0.61523 0.33203,-0.28321 0.71289,-0.47852 0.39063,-0.20508 0.81055,-0.3125 0.42969,-0.10742 0.86914,-0.10742 0.72266,0 1.33789,0.29297 0.61524,0.2832 1.06445,0.79101 0.44922,0.49805 0.70313,1.18164 0.25391,0.6836 0.25391,1.48438 0,0.89844 -0.3125,1.65039 -0.30274,0.75195 -0.79102,1.36719 -0.47852,0.61523 -1.07422,1.09375 -0.5957,0.46875 -1.18164,0.80078 l -0.86914,-1.50391 q 0.18555,-0.10742 0.45898,-0.2832 0.27344,-0.17578 0.56641,-0.41016 0.30274,-0.23437 0.5957,-0.52734 0.29297,-0.30274 0.52735,-0.6543 0.23437,-0.35156 0.38086,-0.75195 0.14648,-0.40039 0.14648,-0.85938 0,-0.43945 -0.13672,-0.82031 -0.13672,-0.38086 -0.38086,-0.66406 -0.23437,-0.2832 -0.57617,-0.44922 -0.33203,-0.16602 -0.73242,-0.16602 -0.51758,0 -1.01563,0.26368 -0.49804,0.26367 -0.9082,0.66406 -0.41015,0.39062 -0.70312,0.83984 -0.28321,0.44922 -0.3711,0.83008 V 240 h -1.60156 v -4.63867 l -0.0293,-0.01 q -0.60547,0.55664 -1.30859,0.81055 -0.70313,0.24414 -1.46484,0.24414 -0.79102,0 -1.44532,-0.24414 -0.65429,-0.24414 -1.12304,-0.74219 -0.46875,-0.50781 -0.73243,-1.26953 -0.26367,-0.77148 -0.26367,-1.82617 V 226.875 h -2.17773 v -1.43555 h 18.57422 z m -10.0293,0 h -4.78516 v 5.36133 q 0,0.61523 0.0879,1.10351 0.0977,0.48828 0.32227,0.83008 0.23438,0.3418 0.60547,0.52735 0.37109,0.17578 0.92773,0.17578 0.46875,0 0.86914,-0.12696 0.41016,-0.13672 0.76172,-0.36132 0.35157,-0.23438 0.6543,-0.55665 0.30273,-0.32226 0.55664,-0.70312 z m -1.91406,13.41797 q 0.625,-0.39063 1.38672,-0.60547 0.75195,-0.21484 1.43554,-0.21484 0.59571,0 1.11328,0.17578 0.50782,0.16601 0.88868,0.48828 0.38086,0.33203 0.5957,0.80078 0.21484,0.46875 0.21484,1.05469 0,0.625 -0.2539,1.17187 -0.24414,0.54688 -0.74219,0.95703 -0.49805,0.41016 -1.23047,0.64453 -0.73242,0.24415 -1.69922,0.24415 -1.10351,0 -1.97265,-0.30274 -0.87891,-0.29297 -1.57227,-0.75195 -0.69336,-0.44922 -1.2207,-0.9961 -0.52735,-0.54687 -0.92774,-1.03515 l 0.90821,-1.06446 q 0.55664,0.60547 1.06445,1.09375 0.50781,0.48829 1.05469,0.83008 0.54687,0.35157 1.18164,0.53711 0.625,0.18555 1.41601,0.18555 0.67383,0 1.15235,-0.13672 0.46875,-0.12695 0.77148,-0.3418 0.30274,-0.20507 0.43945,-0.47851 0.13672,-0.26367 0.13672,-0.53711 0,-0.49805 -0.37109,-0.79102 -0.38086,-0.29297 -1.02539,-0.29297 -0.41992,0 -0.9668,0.14649 -0.55664,0.14648 -1.12305,0.48828 z M 872.3418,226.875 h -2.05078 v 13.13477 h -1.60157 v -9.1504 q -0.51758,-0.18554 -0.97656,-0.18554 -0.45898,0 -0.80078,0.17578 -0.3418,0.16601 -0.57617,0.44922 -0.22461,0.2832 -0.3418,0.66406 -0.11719,0.38086 -0.11719,0.80078 0,0.16602 0.01,0.3418 0.0195,0.16601 0.0391,0.33203 h -1.49414 q -0.0781,-0.56641 -0.18555,-1.08398 -0.0976,-0.51758 -0.29297,-0.90821 -0.18554,-0.39062 -0.48828,-0.61523 -0.30273,-0.23438 -0.78125,-0.23438 -0.45898,0 -0.79101,0.18555 -0.32227,0.18555 -0.53711,0.51758 -0.21485,0.33203 -0.32227,0.78125 -0.0976,0.43945 -0.0976,0.95703 0,1.11328 0.38086,2.00195 0.38086,0.87891 1.02539,1.58203 0.65429,0.70313 1.5039,1.25977 0.85938,0.54687 1.80664,1.00586 l -0.79101,1.34765 q -0.35156,-0.15625 -0.90821,-0.46875 -0.54687,-0.3125 -1.17187,-0.77148 -0.61523,-0.45898 -1.24023,-1.07422 -0.625,-0.61523 -1.13282,-1.37695 -0.49804,-0.76172 -0.81054,-1.67969 -0.3125,-0.91797 -0.3125,-1.98242 0,-0.82031 0.23437,-1.52344 0.23438,-0.71289 0.66406,-1.23047 0.43946,-0.52734 1.05469,-0.82031 0.61524,-0.30273 1.36719,-0.30273 0.5664,0 0.97656,0.16601 0.41016,0.15625 0.70313,0.40039 0.30273,0.23438 0.49804,0.51758 0.19532,0.27344 0.3418,0.51758 l 0.0488,-0.01 q 0.18554,-0.41015 0.43945,-0.69336 0.26367,-0.2832 0.56641,-0.45898 0.3125,-0.17578 0.65429,-0.25391 0.3418,-0.0879 0.6836,-0.0879 0.30273,0 0.5957,0.0586 0.30274,0.0488 0.57617,0.14648 V 226.875 h -11.31836 v -1.43555 h 14.97071 z m -2.1875,-1.16211 h -1.41602 l -0.88867,-1.66992 q -0.56641,-1.06445 -1.02539,-1.68945 -0.46875,-0.625 -0.87891,-0.94727 -0.41992,-0.33203 -0.82031,-0.41992 -0.40039,-0.0977 -0.83984,-0.0977 h -1.89454 v -1.58203 h 1.78711 q 0.56641,0 1.02539,0.0977 0.45899,0.0879 0.87891,0.33203 0.41016,0.23437 0.81055,0.66406 0.39062,0.41992 0.83984,1.09375 0.44922,0.66406 0.98633,1.60156 0.52734,0.92774 1.21094,2.19727 z m 17.4414,1.16211 h -3.68164 q 0.49805,0.85937 0.80078,1.75781 0.3125,0.88867 0.3125,1.80664 0,0.69336 -0.21484,1.33789 -0.20508,0.63477 -0.61523,1.14258 -0.4004,0.49805 -1.00586,0.82031 -0.59571,0.3125 -1.37696,0.35157 l -0.0195,0.0488 q 0.87891,1.36719 1.97266,2.5879 1.09375,1.21093 2.52929,2.30468 l -1.04492,1.20117 q -0.83008,-0.61523 -1.58203,-1.32812 -0.74219,-0.72266 -1.40625,-1.48438 -0.66406,-0.77148 -1.24023,-1.55273 -0.56641,-0.79102 -1.04492,-1.5332 -0.46875,-0.75196 -0.83985,-1.43555 -0.37109,-0.69336 -0.63476,-1.25977 l 1.33789,-0.72265 q 0.35156,0.76172 0.79101,1.20117 0.44922,0.42969 1.03516,0.42969 0.41992,0 0.75195,-0.21485 0.33203,-0.21484 0.55664,-0.54687 0.22461,-0.3418 0.3418,-0.74219 0.11719,-0.41015 0.11719,-0.80078 0,-0.45898 -0.11719,-0.89844 -0.11719,-0.44922 -0.30274,-0.86914 -0.18554,-0.42969 -0.41992,-0.83008 -0.22461,-0.40039 -0.43945,-0.77148 h -5.01953 v -1.43555 h 10.45898 z m -5.8789,-4.41406 q 0,-0.55664 0.33203,-0.89844 0.32226,-0.35156 0.84961,-0.35156 0.24414,0 0.46875,0.0977 0.21484,0.0977 0.38086,0.27344 0.16601,0.16602 0.26367,0.40039 0.0879,0.22461 0.0879,0.49805 0,0.55664 -0.32227,0.89844 -0.33203,0.34179 -0.85937,0.34179 -0.25391,0 -0.46875,-0.0879 -0.22461,-0.0977 -0.38086,-0.26367 -0.16602,-0.17578 -0.25391,-0.40039 -0.0976,-0.23438 -0.0976,-0.50781 z m 18.34961,4.41406 h -2.05079 V 240 h -1.60156 v -13.125 h -4.40429 v 7.57812 q 0,0.15625 -0.0195,0.36133 -0.0195,0.20508 -0.0977,0.40039 -0.0684,0.18555 -0.20508,0.32227 -0.13672,0.12695 -0.38086,0.12695 -0.26367,0 -0.58594,-0.16601 -0.3125,-0.17578 -0.64453,-0.44922 -0.33203,-0.28321 -0.64453,-0.63477 -0.30273,-0.35156 -0.54687,-0.72265 -0.24415,-0.3711 -0.39063,-0.72266 -0.14648,-0.35156 -0.14648,-0.625 0,-0.24414 0.11718,-0.39063 0.12696,-0.14648 0.3418,-0.2246 0.22461,-0.0781 0.53711,-0.0977 0.32227,-0.0195 0.70312,-0.0195 h 0.3418 V 226.875 h -3.47656 v -1.43555 h 13.1543 z m 5.19531,0 h -2.05078 V 240 h -1.60157 v -13.125 h -2.22656 v -1.43555 h 2.38281 q -0.17578,-0.99609 -0.44921,-1.69922 -0.27344,-0.71289 -0.59571,-1.18164 -0.32226,-0.47851 -0.67383,-0.75195 -0.35156,-0.27344 -0.67382,-0.41016 -0.33203,-0.13671 -0.61524,-0.17578 -0.29297,-0.0391 -0.47851,-0.0391 -0.60547,0 -0.9668,0.19531 -0.37109,0.18555 -0.56641,0.44922 -0.19531,0.26367 -0.2539,0.55664 -0.0684,0.28321 -0.0684,0.48828 0,0.0781 0.0293,0.32227 0.0195,0.23437 0.15625,0.5957 0.12696,0.36133 0.4004,0.81055 0.27343,0.44922 0.77148,0.94726 h -1.66016 q -0.61523,-0.70312 -0.91797,-1.45507 -0.3125,-0.76172 -0.3125,-1.47461 0,-0.59571 0.21485,-1.13282 0.21484,-0.5371 0.64453,-0.92773 0.42969,-0.40039 1.07422,-0.63477 0.64453,-0.23437 1.49414,-0.23437 1.17187,0 2.02148,0.45898 0.84961,0.44922 1.42578,1.23047 0.58594,0.78125 0.91797,1.83594 0.3418,1.04492 0.47852,2.22656 h 2.09961 z m 12.23633,0 h -2.05078 V 240 h -1.5918 v -8.57422 h -3.17383 q -0.6543,0 -1.18164,0.0879 -0.52734,0.0781 -0.89844,0.33203 -0.37109,0.24414 -0.57617,0.69336 -0.19531,0.43946 -0.19531,1.16211 0,0.9375 0.30273,1.72852 0.3125,0.79101 0.79102,1.45508 0.47851,0.65429 1.05469,1.21093 0.58593,0.55664 1.12304,1.02539 l -0.97656,1.11328 q -0.0879,-0.0488 -0.41992,-0.2832 -0.32227,-0.24414 -0.76172,-0.6543 -0.42969,-0.41015 -0.91797,-0.99609 -0.47852,-0.58594 -0.88867,-1.31836 -0.40039,-0.74219 -0.67383,-1.63086 -0.26367,-0.88867 -0.26367,-1.91406 0,-1.01563 0.2832,-1.67969 0.29297,-0.67383 0.82031,-1.06445 0.52735,-0.40039 1.2793,-0.55664 0.75195,-0.15625 1.67969,-0.15625 h 3.59375 V 226.875 h -9.27735 v -1.43555 h 12.91993 z m 2.74414,10.89844 -1.5625,4.80468 h -1.14258 l 1.14258,-4.80468 z"
         id="path3" />
      <path
         d="m 977.44922,226.875 h -8.25195 v 3.84766 l 0.0488,0.0195 q 0.49805,-0.6836 1.24024,-1.09375 0.74219,-0.41992 1.63086,-0.41992 0.70312,0 1.29883,0.29296 0.60546,0.28321 1.04492,0.79102 0.43945,0.49805 0.68359,1.18164 0.25391,0.68359 0.25391,1.47461 0,0.89844 -0.3125,1.66016 -0.3125,0.75195 -0.80078,1.36718 -0.48829,0.61524 -1.10352,1.09375 -0.61523,0.46875 -1.21094,0.80078 l -0.86914,-1.5039 q 0.19531,-0.10742 0.47852,-0.2832 0.2832,-0.17579 0.58594,-0.41016 0.3125,-0.23438 0.60546,-0.52734 0.30274,-0.30274 0.53711,-0.6543 0.24414,-0.35156 0.39063,-0.76172 0.14648,-0.41016 0.14648,-0.86914 0,-0.41992 -0.13672,-0.80078 -0.12695,-0.38086 -0.36132,-0.66406 -0.23438,-0.28321 -0.56641,-0.44922 -0.32227,-0.16602 -0.71289,-0.16602 -0.50781,0 -0.98633,0.26367 -0.47851,0.26367 -0.86914,0.66407 -0.39062,0.39062 -0.66406,0.83984 -0.26367,0.44922 -0.35156,0.83008 V 240 h -1.60157 v -3.74023 l -0.0391,-0.0195 q -0.14648,0.12696 -0.37109,0.3125 -0.22461,0.17579 -0.54688,0.3418 -0.3125,0.16602 -0.73242,0.2832 -0.41016,0.11719 -0.92773,0.11719 -0.85938,0 -1.5918,-0.33203 -0.72266,-0.33203 -1.25977,-0.89844 -0.52734,-0.57617 -0.83008,-1.34765 -0.30273,-0.77149 -0.30273,-1.65039 0,-0.83985 0.27344,-1.55274 0.2832,-0.71289 0.76172,-1.2207 0.48828,-0.51758 1.13281,-0.80078 0.6543,-0.29297 1.40625,-0.29297 0.52734,0 0.97656,0.13672 0.45899,0.12695 0.83008,0.32226 0.38086,0.18555 0.67383,0.41016 0.30273,0.21484 0.50781,0.39062 l 0.0391,-0.01 V 226.875 H 959.5 v -1.43555 h 17.94922 z m -12.64649,3.84766 q -0.55664,0 -0.98632,0.23437 -0.41993,0.22461 -0.70313,0.58594 -0.2832,0.35156 -0.42969,0.80078 -0.13672,0.43945 -0.13672,0.86914 0,0.46875 0.16602,0.9375 0.16602,0.45898 0.46875,0.83008 0.3125,0.37109 0.74219,0.60547 0.42969,0.22461 0.94726,0.22461 0.43946,0 0.91797,-0.17578 0.48828,-0.18555 0.88867,-0.56641 0.41016,-0.38086 0.67383,-0.9668 0.26367,-0.5957 0.26367,-1.41601 v -0.47852 q -0.23437,-0.29297 -0.55664,-0.55664 -0.3125,-0.27344 -0.68359,-0.47852 -0.36133,-0.20507 -0.76172,-0.32226 -0.40039,-0.12695 -0.81055,-0.12695 z m 17.8418,-3.84766 h -2.05078 V 240 h -1.60156 v -13.125 h -2.22657 v -1.43555 h 5.87891 z m 11.75781,0 h -2.05078 V 240 H 990.75 v -3.48633 l -0.0391,-0.01 q -0.19532,0.18554 -0.45899,0.39062 -0.26367,0.19531 -0.60547,0.36133 -0.34179,0.15625 -0.77148,0.26367 -0.41992,0.10742 -0.94727,0.10742 -0.96679,0 -1.76757,-0.37109 -0.79102,-0.37109 -1.36719,-0.98633 -0.57617,-0.625 -0.89844,-1.42578 -0.3125,-0.81055 -0.3125,-1.68945 0,-0.87891 0.3125,-1.63086 0.32227,-0.76172 0.87891,-1.31836 0.55664,-0.55664 1.29883,-0.86914 0.74218,-0.32227 1.59179,-0.32227 0.23438,0 0.58594,0.0391 0.36133,0.0391 0.77148,0.17579 0.41016,0.13671 0.84961,0.40039 0.43946,0.2539 0.83985,0.69336 l 0.0391,-0.01 v -3.4375 h -8.78906 v -1.43555 h 12.4414 z m -3.61328,5.26367 q -0.61523,-0.74219 -1.33789,-1.1914 -0.72265,-0.45899 -1.64062,-0.45899 -0.72266,0 -1.23047,0.27344 -0.49805,0.27344 -0.82031,0.69336 -0.32227,0.41015 -0.46875,0.91797 -0.14649,0.50781 -0.14649,0.97656 0,0.50781 0.16602,1.00586 0.16601,0.49805 0.48828,0.89844 0.33203,0.39062 0.82031,0.64453 0.48828,0.24414 1.14258,0.24414 0.67383,0 1.23047,-0.25391 0.55664,-0.26367 0.95703,-0.66406 0.40039,-0.40039 0.61523,-0.89844 0.22461,-0.49805 0.22461,-0.9668 z m 1.42578,-6.42578 h -1.41601 l -0.88867,-1.66992 q -0.56641,-1.06445 -1.02539,-1.68945 -0.46875,-0.625 -0.87891,-0.94727 -0.41992,-0.33203 -0.82031,-0.41992 -0.40039,-0.0977 -0.83985,-0.0977 h -1.89453 v -1.58203 h 1.78711 q 0.56641,0 1.02539,0.0977 0.45899,0.0879 0.87891,0.33203 0.41015,0.23437 0.81054,0.66406 0.39063,0.41992 0.83985,1.09375 0.44922,0.66406 0.98633,1.60156 0.52734,0.92774 1.21093,2.19727 z m 11.96286,1.16211 h -3.6816 q 0.498,0.85937 0.8008,1.75781 0.3125,0.88867 0.3125,1.80664 0,0.69336 -0.2149,1.33789 -0.205,0.63477 -0.6152,1.14258 -0.4004,0.49805 -1.00586,0.82031 -0.59571,0.3125 -1.37696,0.35157 l -0.0195,0.0488 q 0.87891,1.36719 1.97265,2.5879 1.0938,1.21093 2.5293,2.30468 l -1.0449,1.20117 q -0.8301,-0.61523 -1.582,-1.32812 -0.74223,-0.72266 -1.4063,-1.48438 -0.66406,-0.77148 -1.24023,-1.55273 -0.56641,-0.79102 -1.04492,-1.5332 -0.46875,-0.75196 -0.83985,-1.43555 -0.37109,-0.69336 -0.63476,-1.25977 l 1.33789,-0.72265 q 0.35156,0.76172 0.79101,1.20117 0.44922,0.42969 1.03516,0.42969 0.41992,0 0.75195,-0.21485 0.33203,-0.21484 0.55664,-0.54687 0.22461,-0.3418 0.3418,-0.74219 0.11721,-0.41015 0.11721,-0.80078 0,-0.45898 -0.11721,-0.89844 -0.11719,-0.44922 -0.30273,-0.86914 -0.18555,-0.42969 -0.41993,-0.83008 -0.22461,-0.40039 -0.43945,-0.77148 h -5.01953 v -1.43555 h 10.45895 z m 5.1953,0 h -2.0507 V 240 h -1.6016 v -13.125 h -2.2266 v -1.43555 h 2.3829 q -0.1758,-0.99609 -0.4493,-1.69922 -0.2734,-0.71289 -0.5957,-1.18164 -0.3222,-0.47851 -0.6738,-0.75195 -0.3516,-0.27344 -0.6738,-0.41016 -0.3321,-0.13671 -0.6153,-0.17578 -0.2929,-0.0391 -0.4785,-0.0391 -0.6054,0 -0.9668,0.19531 -0.3711,0.18555 -0.5664,0.44922 -0.1953,0.26367 -0.2539,0.55664 -0.068,0.28321 -0.068,0.48828 0,0.0781 0.029,0.32227 0.019,0.23437 0.1562,0.5957 0.127,0.36133 0.4004,0.81055 0.2734,0.44922 0.7715,0.94726 h -1.6602 q -0.61521,-0.70312 -0.91795,-1.45507 -0.3125,-0.76172 -0.3125,-1.47461 0,-0.59571 0.21485,-1.13282 0.21484,-0.5371 0.64453,-0.92773 0.42967,-0.40039 1.07417,-0.63477 0.6446,-0.23437 1.4942,-0.23437 1.1719,0 2.0215,0.45898 0.8496,0.44922 1.4258,1.23047 0.5859,0.78125 0.9179,1.83594 0.3418,1.04492 0.4785,2.22656 h 2.0996 z m 8.1153,0 h -8.7988 v -1.43555 h 8.7988 z m 2.3437,8.4082 q -0.6836,0.70313 -1.3183,1.10352 -0.625,0.40039 -1.1621,0.5957 -0.5274,0.19531 -0.9375,0.24414 -0.4004,0.0391 -0.6348,0.0391 -0.8984,0 -1.5918,-0.2832 -0.6934,-0.2832 -1.1621,-0.74219 -0.4688,-0.46875 -0.7129,-1.06445 -0.2441,-0.60547 -0.2441,-1.25 0,-0.67383 0.2734,-1.33789 0.2832,-0.66406 0.8789,-1.19141 l -0.01,-0.0391 h -3.0957 v -1.43555 h 7.6563 v 1.43555 h -0.8106 q -1.0058,0 -1.6504,0.26367 -0.6445,0.26368 -1.0156,0.64453 -0.3711,0.38086 -0.5176,0.82032 -0.1367,0.42968 -0.1367,0.78125 0,0.29297 0.098,0.63476 0.098,0.33203 0.3222,0.61524 0.2344,0.2832 0.6153,0.46875 0.3906,0.18554 0.9765,0.18554 0.6153,0 1.1426,-0.19531 0.5371,-0.20508 0.9863,-0.51758 0.4493,-0.3125 0.8106,-0.69336 0.3711,-0.38086 0.6348,-0.75195 z m 10.293,-8.4082 h -2.0508 V 240 h -1.6015 v -4.57031 l -0.039,-0.01 q -0.2637,0.21485 -0.6348,0.42969 -0.3613,0.20508 -0.8105,0.37109 -0.4492,0.15625 -0.9668,0.26367 -0.5176,0.0977 -1.084,0.0977 -1.1328,0 -1.9434,-0.41016 -0.8007,-0.41015 -1.3476,-1.09375 -0.5371,-0.69335 -0.8496,-1.57226 -0.3125,-0.88867 -0.4492,-1.8457 0.6445,-0.0879 1.1035,-0.30274 0.459,-0.21484 0.7422,-0.50781 0.2832,-0.30274 0.4101,-0.6543 0.1367,-0.35156 0.1367,-0.70312 0,-0.23438 -0.049,-0.52735 -0.039,-0.29297 -0.1465,-0.625 -0.1074,-0.34179 -0.2832,-0.71289 -0.1758,-0.37109 -0.4394,-0.75195 H 1017 v -1.43555 h 13.125 z m -8.5742,0 q 0.3515,0.5957 0.5469,1.30859 0.205,0.70313 0.205,1.38672 0,0.49805 -0.1367,0.9668 -0.1269,0.46875 -0.4004,0.87891 -0.2734,0.40039 -0.6836,0.72265 -0.4004,0.3125 -0.9375,0.49805 0.1563,0.6543 0.4297,1.12305 0.2735,0.45898 0.6445,0.76171 0.3711,0.29297 0.8301,0.42969 0.459,0.13672 0.9864,0.13672 0.5078,0 0.9961,-0.11719 0.498,-0.11718 0.9375,-0.33203 0.4492,-0.22461 0.83,-0.53711 0.3809,-0.3125 0.6739,-0.70312 V 226.875 Z m 13.7695,0 h -2.0508 V 240 h -1.6015 v -13.125 h -2.2266 v -1.43555 h 5.8789 z m 22.7442,0 h -8.252 v 3.84766 l 0.049,0.0195 q 0.4981,-0.6836 1.2403,-1.09375 0.7422,-0.41992 1.6308,-0.41992 0.7031,0 1.2989,0.29296 0.6054,0.28321 1.0449,0.79102 0.4394,0.49805 0.6836,1.18164 0.2539,0.68359 0.2539,1.47461 0,0.89844 -0.3125,1.66016 -0.3125,0.75195 -0.8008,1.36718 -0.4883,0.61524 -1.1035,1.09375 -0.6153,0.46875 -1.211,0.80078 l -0.8691,-1.5039 q 0.1953,-0.10742 0.4785,-0.2832 0.2832,-0.17579 0.586,-0.41016 0.3125,-0.23438 0.6054,-0.52734 0.3028,-0.30274 0.5371,-0.6543 0.2442,-0.35156 0.3907,-0.76172 0.1464,-0.41016 0.1464,-0.86914 0,-0.41992 -0.1367,-0.80078 -0.1269,-0.38086 -0.3613,-0.66406 -0.2344,-0.28321 -0.5664,-0.44922 -0.3223,-0.16602 -0.7129,-0.16602 -0.5078,0 -0.9863,0.26367 -0.4785,0.26367 -0.8692,0.66407 -0.3906,0.39062 -0.664,0.83984 -0.2637,0.44922 -0.3516,0.83008 V 240 h -1.6016 v -3.74023 l -0.039,-0.0195 q -0.1465,0.12696 -0.3711,0.3125 -0.2246,0.17579 -0.5469,0.3418 -0.3125,0.16602 -0.7324,0.2832 -0.4102,0.11719 -0.9277,0.11719 -0.8594,0 -1.5918,-0.33203 -0.7227,-0.33203 -1.2598,-0.89844 -0.5274,-0.57617 -0.8301,-1.34765 -0.3027,-0.77149 -0.3027,-1.65039 0,-0.83985 0.2734,-1.55274 0.2832,-0.71289 0.7617,-1.2207 0.4883,-0.51758 1.1328,-0.80078 0.6543,-0.29297 1.4063,-0.29297 0.5273,0 0.9766,0.13672 0.4589,0.12695 0.83,0.32226 0.3809,0.18555 0.6739,0.41016 0.3027,0.21484 0.5078,0.39062 l 0.039,-0.01 V 226.875 h -8.0957 v -1.43555 h 17.9493 z m -12.6465,3.84766 q -0.5567,0 -0.9864,0.23437 -0.4199,0.22461 -0.7031,0.58594 -0.2832,0.35156 -0.4297,0.80078 -0.1367,0.43945 -0.1367,0.86914 0,0.46875 0.166,0.9375 0.166,0.45898 0.4688,0.83008 0.3125,0.37109 0.7422,0.60547 0.4297,0.22461 0.9472,0.22461 0.4395,0 0.918,-0.17578 0.4883,-0.18555 0.8887,-0.56641 0.4101,-0.38086 0.6738,-0.9668 0.2637,-0.5957 0.2637,-1.41601 v -0.47852 q -0.2344,-0.29297 -0.5567,-0.55664 -0.3125,-0.27344 -0.6836,-0.47852 -0.3613,-0.20507 -0.7617,-0.32226 -0.4004,-0.12695 -0.8105,-0.12695 z m 17.8418,-3.84766 h -2.0508 V 240 h -1.6016 v -13.125 h -2.2265 v -1.43555 h 5.8789 z m 6.2109,11.875 q 0.8106,0 1.5039,-0.29297 0.6934,-0.29297 1.1914,-0.81055 0.5078,-0.51757 0.791,-1.2207 0.2832,-0.71289 0.2832,-1.55273 0,-0.70313 -0.1953,-1.23047 -0.1855,-0.53711 -0.4883,-0.92774 -0.2929,-0.39062 -0.6543,-0.65429 -0.3515,-0.26368 -0.6835,-0.42969 -0.3321,-0.16602 -0.5958,-0.24414 -0.2539,-0.0781 -0.3613,-0.0977 -0.2539,0.11719 -0.6347,0.23438 -0.3711,0.10742 -0.7911,0.24414 -0.4882,0.16601 -0.9863,0.41992 -0.498,0.25391 -0.8984,0.66406 -0.4004,0.41016 -0.6543,1.01563 -0.2442,0.60547 -0.2442,1.46484 0,0.75195 0.2539,1.38672 0.2539,0.625 0.7032,1.08398 0.459,0.44922 1.084,0.70313 0.625,0.24414 1.3769,0.24414 z m 7.3731,-11.875 h -4.7559 v 1.58203 q 0,0.47852 -0.1563,0.99609 -0.1562,0.51758 -0.4589,0.87891 0.7714,0.27344 1.3769,0.75195 0.6152,0.46875 1.0352,1.09375 0.4297,0.61524 0.6543,1.35743 0.2343,0.74218 0.2343,1.55273 0,1.07422 -0.3906,2.01172 -0.3906,0.9375 -1.0937,1.64062 -0.6934,0.69336 -1.6602,1.09375 -0.9668,0.40039 -2.1191,0.40039 -1.2207,0 -2.1582,-0.42968 -0.9375,-0.43946 -1.5723,-1.16211 -0.6348,-0.72266 -0.9668,-1.65039 -0.332,-0.92774 -0.332,-1.92383 0,-1.04492 0.3027,-1.82617 0.3125,-0.78125 0.8496,-1.34766 0.5371,-0.57617 1.2695,-0.95703 0.7422,-0.38086 1.6114,-0.625 0.4004,-0.11719 0.7617,-0.23438 0.3613,-0.11718 0.625,-0.33203 0.2734,-0.21484 0.4297,-0.55664 0.1562,-0.35156 0.1562,-0.9082 V 226.875 h -7.9101 v -1.43555 h 14.2676 z m 5.1953,0 h -2.0508 V 240 h -1.6016 v -13.125 h -2.2265 v -1.43555 h 2.3828 q -0.1758,-0.99609 -0.4492,-1.69922 -0.2735,-0.71289 -0.5958,-1.18164 -0.3222,-0.47851 -0.6738,-0.75195 -0.3515,-0.27344 -0.6738,-0.41016 -0.332,-0.13671 -0.6152,-0.17578 -0.293,-0.0391 -0.4786,-0.0391 -0.6054,0 -0.9668,0.19531 -0.371,0.18555 -0.5664,0.44922 -0.1953,0.26367 -0.2539,0.55664 -0.068,0.28321 -0.068,0.48828 0,0.0781 0.029,0.32227 0.02,0.23437 0.1562,0.5957 0.127,0.36133 0.4004,0.81055 0.2734,0.44922 0.7715,0.94726 h -1.6602 q -0.6152,-0.70312 -0.9179,-1.45507 -0.3125,-0.76172 -0.3125,-1.47461 0,-0.59571 0.2148,-1.13282 0.2149,-0.5371 0.6445,-0.92773 0.4297,-0.40039 1.0743,-0.63477 0.6445,-0.23437 1.4941,-0.23437 1.1719,0 2.0215,0.45898 0.8496,0.44922 1.4258,1.23047 0.5859,0.78125 0.9179,1.83594 0.3418,1.04492 0.4786,2.22656 h 2.0996 z m 2.7441,10.89844 -1.5625,4.80468 h -1.1426 l 1.1426,-4.80468 z m 20.5371,-10.89844 h -2.0508 V 240 h -1.6015 v -5.47852 h -5.3711 v 1.16211 q 0,0.30274 -0.029,0.53711 -0.02,0.23438 -0.1074,0.39063 -0.078,0.15625 -0.2344,0.24414 -0.1465,0.0781 -0.4004,0.0781 -0.2539,0 -0.5664,-0.14648 -0.3125,-0.15625 -0.6348,-0.41016 -0.3222,-0.26367 -0.625,-0.58593 -0.3027,-0.33204 -0.5469,-0.6836 -0.2343,-0.36133 -0.3808,-0.71289 -0.1465,-0.35156 -0.1465,-0.64453 0,-0.20508 0.068,-0.33203 0.078,-0.13672 0.205,-0.20508 0.1368,-0.0684 0.3223,-0.0879 0.1856,-0.0293 0.4199,-0.0293 h 1.0547 v -6.2207 h -3.5254 v -1.43555 h 14.1504 z m -9.0234,0 v 6.2207 h 5.3711 v -6.2207 z m 21.1719,0 h -2.0508 V 240 h -1.6114 v -7.5293 h -4.5703 q 0,0.64453 -0.02,1.10352 -0.01,0.45898 -0.078,0.76172 -0.068,0.29297 -0.2051,0.42968 -0.1367,0.13672 -0.3809,0.13672 -0.5078,0 -0.9668,-0.33203 -0.4492,-0.33203 -0.8007,-0.80078 -0.3418,-0.46875 -0.5469,-0.97656 -0.2051,-0.50781 -0.2051,-0.85938 0,-0.3125 0.1367,-0.48828 0.1367,-0.17578 0.3614,-0.26367 0.2246,-0.0879 0.5078,-0.10742 0.2929,-0.0195 0.5859,-0.0195 h 6.1816 V 226.875 h -9.1699 v -1.43555 h 12.8321 z m 18.9453,0 h -2.0508 V 240 h -1.6016 v -5.47852 h -5.3711 v 1.16211 q 0,0.30274 -0.029,0.53711 -0.02,0.23438 -0.1074,0.39063 -0.078,0.15625 -0.2344,0.24414 -0.1465,0.0781 -0.4004,0.0781 -0.2539,0 -0.5664,-0.14648 -0.3125,-0.15625 -0.6347,-0.41016 -0.3223,-0.26367 -0.625,-0.58593 -0.3028,-0.33204 -0.5469,-0.6836 -0.2344,-0.36133 -0.3809,-0.71289 -0.1464,-0.35156 -0.1464,-0.64453 0,-0.20508 0.068,-0.33203 0.078,-0.13672 0.2051,-0.20508 0.1367,-0.0684 0.3223,-0.0879 0.1855,-0.0293 0.4199,-0.0293 h 1.0547 v -6.2207 h -3.5254 v -1.43555 h 14.1504 z m -9.0235,0 v 6.2207 h 5.3711 v -6.2207 z m 14.2188,0 h -2.0508 V 240 h -1.6016 v -13.125 h -2.2265 v -1.43555 h 5.8789 z m -2.1875,-1.16211 h -1.416 l -0.8887,-1.66992 q -0.5664,-1.06445 -1.0352,-1.68945 -0.459,-0.625 -0.8691,-0.94727 -0.4199,-0.33203 -0.8203,-0.41992 -0.4004,-0.0977 -0.8399,-0.0977 h -1.8945 v -1.58203 h 1.7871 q 0.5664,0 1.0254,0.0977 0.459,0.0879 0.8789,0.33203 0.4102,0.23437 0.8008,0.66406 0.4004,0.41992 0.8496,1.09375 0.4492,0.66406 0.9766,1.60156 0.5371,0.92774 1.2207,2.19727 z m 7.3828,1.16211 h -2.0508 V 240 h -1.6016 v -13.125 h -2.2265 v -1.43555 h 2.2265 q -0.5371,-1.28906 -0.5371,-2.40234 0,-0.71289 0.2344,-1.32813 0.2344,-0.61523 0.7129,-1.06445 0.4883,-0.44922 1.2402,-0.70312 0.752,-0.25391 1.7871,-0.25391 1.3575,0 2.6075,0.43945 1.2597,0.43946 2.4609,1.22071 1.2012,0.78125 2.3731,1.85546 1.1816,1.07422 2.3828,2.34375 h -1.6993 q -0.2734,-0.26367 -0.7324,-0.68359 -0.4492,-0.42969 -1.0449,-0.9082 -0.5957,-0.48828 -1.3184,-0.97656 -0.7226,-0.49805 -1.5234,-0.89844 -0.8008,-0.40039 -1.6699,-0.64453 -0.8594,-0.25391 -1.7383,-0.25391 -0.7129,0 -1.2012,0.16602 -0.4785,0.16601 -0.7812,0.45898 -0.293,0.29297 -0.4199,0.69336 -0.127,0.39062 -0.127,0.83984 0,0.87891 0.4785,2.09961 h 2.168 z m 6.8164,10.37109 q 0.3223,-0.0977 0.6348,-0.24414 0.3222,-0.14648 0.5664,-0.35156 0.2539,-0.21484 0.4101,-0.49805 0.1563,-0.2832 0.1563,-0.66406 0,-0.81055 -0.6739,-1.25976 -0.6738,-0.45899 -1.914,-0.45899 -0.4981,0 -1.0254,0.10742 -0.5176,0.0977 -0.9473,0.3711 -0.4297,0.26367 -0.7031,0.73242 -0.2734,0.45898 -0.2734,1.17187 0,0.72266 0.2832,1.34766 0.2832,0.61523 0.7324,1.13281 0.459,0.51758 1.0254,0.9375 0.5664,0.41992 1.123,0.74219 0.5664,0.32227 1.0645,0.53711 0.498,0.22461 0.8301,0.35156 l -0.6446,1.34766 q -0.6836,-0.29297 -1.3965,-0.64453 -0.7031,-0.3418 -1.3671,-0.76172 -0.6641,-0.41016 -1.25,-0.90821 -0.586,-0.49804 -1.0254,-1.10351 -0.4297,-0.60547 -0.6836,-1.32813 -0.2442,-0.72265 -0.2442,-1.57226 0,-0.83008 0.2149,-1.44531 0.2246,-0.625 0.6152,-1.09375 -0.5371,-0.61524 -0.791,-1.24024 -0.2539,-0.625 -0.2539,-1.35742 0,-0.41992 0.098,-0.79102 0.1075,-0.37109 0.3711,-0.64453 0.2735,-0.2832 0.752,-0.44922 0.4785,-0.16601 1.2402,-0.16601 h 4.4239 V 226.875 h -8.8477 v -1.43555 h 12.7246 v 1.43555 h -2.2754 v 3.59375 h -5.6152 q -0.3809,0 -0.6446,0.0684 -0.2539,0.0586 -0.4101,0.18555 -0.1563,0.12695 -0.2246,0.32226 -0.059,0.18555 -0.059,0.43945 0,0.3418 0.1172,0.66407 0.1172,0.32226 0.4394,0.72265 0.5664,-0.29297 1.2403,-0.42968 0.6836,-0.14649 1.4257,-0.14649 0.8594,0 1.6016,0.19531 0.752,0.19532 1.2988,0.59571 0.5567,0.39062 0.8692,1.00586 0.3222,0.60547 0.3222,1.42578 0,0.79101 -0.2734,1.33789 -0.2637,0.54687 -0.6738,0.91797 -0.4004,0.37109 -0.8789,0.60547 -0.4785,0.22461 -0.8887,0.37109 z M 1171.082,226.875 h -2.0507 V 240 h -1.5918 v -8.57422 h -3.1739 q -0.6543,0 -1.1816,0.0879 -0.5274,0.0781 -0.8985,0.33203 -0.371,0.24414 -0.5761,0.69336 -0.1953,0.43946 -0.1953,1.16211 0,0.9375 0.3027,1.72852 0.3125,0.79101 0.791,1.45508 0.4785,0.65429 1.0547,1.21093 0.5859,0.55664 1.123,1.02539 l -0.9765,1.11328 q -0.088,-0.0488 -0.4199,-0.2832 -0.3223,-0.24414 -0.7618,-0.6543 -0.4296,-0.41015 -0.9179,-0.99609 -0.4785,-0.58594 -0.8887,-1.31836 -0.4004,-0.74219 -0.6738,-1.63086 -0.2637,-0.88867 -0.2637,-1.91406 0,-1.01563 0.2832,-1.67969 0.293,-0.67383 0.8203,-1.06445 0.5274,-0.40039 1.2793,-0.55664 0.752,-0.15625 1.6797,-0.15625 h 3.5938 V 226.875 h -9.2774 v -1.43555 h 12.9199 z m 1.836,13.33984 q -0.4492,0 -0.7715,-0.32226 -0.3125,-0.32227 -0.3125,-0.77149 0,-0.44922 0.3125,-0.77148 0.3223,-0.33203 0.7715,-0.33203 0.459,0 0.7812,0.33203 0.3223,0.32226 0.3223,0.77148 0,0.44922 -0.3223,0.77149 -0.3222,0.32226 -0.7812,0.32226 z"
         id="path4" />
    </g>
  </g>
</svg>
