<?xml version="1.0" encoding="UTF-8" standalone="no"?>
<svg
   width="800"
   height="600"
   version="1.1"
   id="svg4"
   sodipodi:docname="kaveri_history.svg"
   xmlns:inkscape="http://www.inkscape.org/namespaces/inkscape"
   xmlns:sodipodi="http://sodipodi.sourceforge.net/DTD/sodipodi-0.dtd"
   xmlns="http://www.w3.org/2000/svg"
   xmlns:svg="http://www.w3.org/2000/svg">
  <sodipodi:namedview
     id="namedview4"
     pagecolor="#ffffff"
     bordercolor="#666666"
     borderopacity="1.0"
     inkscape:showpageshadow="2"
     inkscape:pageopacity="0.0"
     inkscape:pagecheckerboard="0"
     inkscape:deskcolor="#d1d1d1" />
  <defs
     id="defs1">
    <style
       type="text/css"
       id="style1">
      @font-face {{
        font-family: 'Kalam';
        src: url('AxiDraw_API(1)/Kalam-Regular.ttf');
      }}
    </style>
  </defs>
  <g
     id="g4">
    <g
       id="text4"
       style="font-size:32px;font-family:Kalam"
       aria-label="कावेरीचा प्रवाह, ऐतिहासिक गौरव,प्राचीन काळाचा, साक्षीदार सौंदर्य, जीवंत भाव.पौराणिक कथा, गावोगाव गाण्या,काळाच्या पडघमा, कावेरीला मानणे.">
      <path
         d="M 78.171875,79 H 64.96875 v 6.15625 l 0.07813,0.03125 q 0.796875,-1.09375 1.984375,-1.75 1.1875,-0.671875 2.609375,-0.671875 1.125,0 2.078125,0.46875 0.96875,0.453125 1.671875,1.265625 0.703125,0.796875 1.09375,1.890625 0.40625,1.09375 0.40625,2.359375 0,1.4375 -0.5,2.65625 -0.5,1.203125 -1.28125,2.1875 -0.78125,0.984375 -1.765625,1.75 -0.984375,0.75 -1.9375,1.28125 l -1.390625,-2.40625 q 0.3125,-0.171875 0.765625,-0.453125 0.453125,-0.28125 0.9375,-0.65625 0.5,-0.375 0.96875,-0.84375 0.484375,-0.484375 0.859375,-1.046875 0.390625,-0.5625 0.625,-1.21875 0.234375,-0.65625 0.234375,-1.390625 0,-0.671875 -0.21875,-1.28125 -0.203125,-0.609375 -0.578125,-1.0625 -0.375,-0.453125 -0.90625,-0.71875 Q 70.1875,85.28125 69.5625,85.28125 q -0.8125,0 -1.578125,0.421875 -0.765625,0.421875 -1.390625,1.0625 -0.625,0.625 -1.0625,1.34375 -0.421875,0.71875 -0.5625,1.328125 V 100 h -2.5625 v -5.984375 l -0.0625,-0.03125 q -0.234375,0.203125 -0.59375,0.5 -0.359375,0.28125 -0.875,0.546875 -0.5,0.265625 -1.171875,0.453125 -0.65625,0.1875 -1.484375,0.1875 -1.375,0 -2.546875,-0.53125 -1.15625,-0.53125 -2.015625,-1.4375 Q 52.8125,92.78125 52.328125,91.546875 51.84375,90.3125 51.84375,88.90625 q 0,-1.34375 0.4375,-2.484375 0.453125,-1.140625 1.21875,-1.953125 0.78125,-0.828125 1.8125,-1.28125 1.046875,-0.46875 2.25,-0.46875 0.84375,0 1.5625,0.21875 0.734375,0.203125 1.328125,0.515625 0.609375,0.296875 1.078125,0.65625 0.484375,0.34375 0.8125,0.625 l 0.0625,-0.01563 V 79 H 49.453125 v -2.296875 h 28.71875 z M 57.9375,85.15625 q -0.890625,0 -1.578125,0.375 -0.671875,0.359375 -1.125,0.9375 -0.453125,0.5625 -0.6875,1.28125 -0.21875,0.703125 -0.21875,1.390625 0,0.75 0.265625,1.5 0.265625,0.734375 0.75,1.328125 0.5,0.59375 1.1875,0.96875 0.6875,0.359375 1.515625,0.359375 0.703125,0 1.46875,-0.28125 0.78125,-0.296875 1.421875,-0.90625 Q 61.59375,91.5 62.015625,90.5625 62.4375,89.609375 62.4375,88.296875 V 87.53125 q -0.375,-0.46875 -0.890625,-0.890625 -0.5,-0.4375 -1.09375,-0.765625 Q 59.875,85.546875 59.234375,85.359375 58.59375,85.15625 57.9375,85.15625 Z M 86.484375,79 h -3.28125 v 21 h -2.5625 V 79 h -3.5625 v -2.296875 h 9.40625 z m 18.812505,0 h -3.28125 v 21 h -2.562505 v -5.578125 l -0.0625,-0.01563 q -0.3125,0.296875 -0.734375,0.625 -0.421875,0.3125 -0.96875,0.578125 -0.546875,0.25 -1.234375,0.421875 -0.671875,0.171875 -1.515625,0.171875 -1.546875,0 -2.828125,-0.59375 -1.265625,-0.59375 -2.1875,-1.578125 -0.921875,-1 -1.4375,-2.28125 -0.5,-1.296875 -0.5,-2.703125 0,-1.40625 0.5,-2.609375 Q 89,85.21875 89.890625,84.328125 90.78125,83.4375 91.96875,82.9375 q 1.1875,-0.515625 2.546875,-0.515625 0.375,0 0.9375,0.0625 0.578125,0.0625 1.234375,0.28125 0.65625,0.21875 1.359375,0.640625 0.703125,0.40625 1.34375,1.109375 L 99.453125,84.5 V 79 h -14.0625 v -2.296875 h 19.906255 z m -5.781255,8.421875 Q 98.53125,86.234375 97.375,85.515625 96.21875,84.78125 94.75,84.78125 q -1.15625,0 -1.96875,0.4375 -0.796875,0.4375 -1.3125,1.109375 -0.515625,0.65625 -0.75,1.46875 -0.234375,0.8125 -0.234375,1.5625 0,0.8125 0.265625,1.609375 0.265625,0.796875 0.78125,1.4375 0.53125,0.625 1.3125,1.03125 0.78125,0.390625 1.828125,0.390625 1.078125,0 1.96875,-0.40625 Q 97.53125,93 98.171875,92.359375 98.8125,91.71875 99.15625,90.921875 99.515625,90.125 99.515625,89.375 Z m 2.281255,-10.28125 H 99.53125 L 98.109375,74.46875 q -0.90625,-1.703125 -1.640625,-2.703125 -0.75,-1 -1.40625,-1.515625 -0.671875,-0.53125 -1.3125,-0.671875 -0.640625,-0.15625 -1.34375,-0.15625 H 89.375 v -2.53125 h 2.859375 q 0.90625,0 1.640625,0.15625 0.734375,0.140625 1.40625,0.53125 0.65625,0.375 1.296875,1.0625 0.625,0.671875 1.34375,1.75 0.71875,1.0625 1.578125,2.5625 0.84375,1.484375 1.9375,3.515625 z M 120.9375,79 h -5.89062 q 0.79687,1.375 1.28125,2.8125 0.5,1.421875 0.5,2.890625 0,1.109375 -0.34375,2.140625 -0.32813,1.015625 -0.98438,1.828125 -0.64062,0.796875 -1.60937,1.3125 -0.95313,0.5 -2.20313,0.5625 l -0.0312,0.07813 q 1.40625,2.1875 3.15625,4.140625 1.75,1.9375 4.04688,3.6875 L 117.1875,100.375 q -1.32812,-0.984375 -2.53125,-2.125 -1.1875,-1.15625 -2.25,-2.375 -1.0625,-1.234375 -1.98437,-2.484375 Q 109.51563,92.125 108.75,90.9375 108,89.734375 107.40625,88.640625 106.8125,87.53125 106.39063,86.625 l 2.14062,-1.15625 q 0.5625,1.21875 1.26563,1.921875 0.71875,0.6875 1.65625,0.6875 0.67187,0 1.20312,-0.34375 0.53125,-0.34375 0.89063,-0.875 0.35937,-0.546875 0.54687,-1.1875 0.1875,-0.65625 0.1875,-1.28125 0,-0.734375 -0.1875,-1.4375 -0.1875,-0.71875 -0.48437,-1.390625 Q 113.3125,80.875 112.9375,80.234375 112.57813,79.59375 112.23438,79 h -8.03125 v -2.296875 h 16.73437 z m 8.3125,0 h -3.28125 v 21 h -2.5625 V 79 h -3.5625 v -2.296875 h 3.8125 q -0.28125,-1.59375 -0.71875,-2.71875 -0.4375,-1.140625 -0.95312,-1.890625 -0.51563,-0.765625 -1.07813,-1.203125 -0.5625,-0.4375 -1.07812,-0.65625 -0.53125,-0.21875 -0.98438,-0.28125 -0.46875,-0.0625 -0.76562,-0.0625 -0.96875,0 -1.54688,0.3125 -0.59375,0.296875 -0.90625,0.71875 -0.3125,0.421875 -0.40625,0.890625 -0.10937,0.453125 -0.10937,0.78125 0,0.125 0.0469,0.515625 0.0312,0.375 0.25,0.953125 0.20313,0.578125 0.64063,1.296875 0.4375,0.71875 1.23437,1.515625 H 114.625 q -0.98437,-1.125 -1.46875,-2.328125 -0.5,-1.21875 -0.5,-2.359375 0,-0.953125 0.34375,-1.8125 0.34375,-0.859375 1.03125,-1.484375 Q 114.71875,68.25 115.75,67.875 q 1.03125,-0.375 2.39063,-0.375 1.875,0 3.23437,0.734375 1.35938,0.71875 2.28125,1.96875 0.9375,1.25 1.46875,2.9375 0.54688,1.671875 0.76563,3.5625 H 129.25 Z m 21.64062,0 h -3.28125 v 21 h -2.59375 v -6.578125 l -0.0625,-0.04687 q -0.85937,0.78125 -1.6875,1.234375 -0.8125,0.4375 -1.53125,0.671875 Q 141.03125,95.5 140.45312,95.5625 139.875,95.625 139.5,95.625 q -1.4375,0 -2.54688,-0.453125 -1.10937,-0.453125 -1.85937,-1.1875 -0.75,-0.75 -1.14063,-1.703125 -0.39062,-0.96875 -0.39062,-2 0,-1.078125 0.4375,-2.140625 0.45312,-1.0625 1.40625,-1.90625 l -0.0156,-0.0625 H 130.4375 V 83.875 H 143 v 2.296875 h -1.60938 q -1.60937,0 -2.64062,0.421875 -1.03125,0.421875 -1.625,1.03125 -0.59375,0.609375 -0.82813,1.3125 -0.21875,0.6875 -0.21875,1.25 0,0.46875 0.15625,1.015625 0.15625,0.53125 0.51563,0.984375 0.375,0.453125 0.98437,0.75 0.625,0.296875 1.5625,0.296875 0.98438,0 1.82813,-0.3125 0.85937,-0.328125 1.57812,-0.84375 0.71875,-0.515625 1.29688,-1.15625 0.59375,-0.65625 1.01562,-1.296875 V 79 h -16.85937 v -2.296875 h 22.73437 z m 8.3125,0 h -3.28125 v 21 h -2.5625 V 79 h -3.5625 v -2.296875 h 9.40625 z m 28.03125,0 h -3.28125 v 21 H 181.375 v -6.96875 l -0.0625,-0.01563 -9.53125,7.171875 -1.60938,-1.953125 5.54688,-3.984375 -0.0156,-0.0625 q -1.20312,-0.09375 -2.1875,-0.53125 -0.98437,-0.4375 -1.6875,-1.234375 -0.70312,-0.796875 -1.09375,-1.96875 -0.375,-1.171875 -0.375,-2.734375 V 79 H 166.875 v -2.296875 h 20.35937 z m -5.85937,0 h -8.48438 v 8.578125 q 0,0.984375 0.15625,1.765625 0.17188,0.78125 0.5625,1.328125 0.40625,0.546875 1.0625,0.84375 0.65625,0.28125 1.64063,0.28125 1.60937,0 2.90625,-0.703125 1.29687,-0.71875 2.15625,-1.890625 z m 24.67187,0 h -3.28125 v 21 h -2.5625 v -5.578125 l -0.0625,-0.01563 q -0.3125,0.296875 -0.73437,0.625 -0.42188,0.3125 -0.96875,0.578125 -0.54688,0.25 -1.23438,0.421875 -0.67187,0.171875 -1.51562,0.171875 -1.54688,0 -2.82813,-0.59375 -1.26562,-0.59375 -2.1875,-1.578125 -0.92187,-1 -1.4375,-2.28125 -0.5,-1.296875 -0.5,-2.703125 0,-1.40625 0.5,-2.609375 0.51563,-1.21875 1.40625,-2.109375 0.89063,-0.890625 2.07813,-1.390625 1.1875,-0.515625 2.54687,-0.515625 0.375,0 0.9375,0.0625 0.57813,0.0625 1.23438,0.28125 0.65625,0.21875 1.35937,0.640625 0.70313,0.40625 1.34375,1.109375 L 200.20312,84.5 V 79 h -14.0625 v -2.296875 h 19.90625 z m -5.78125,8.421875 q -0.98437,-1.1875 -2.14062,-1.90625 -1.15625,-0.734375 -2.625,-0.734375 -1.15625,0 -1.96875,0.4375 -0.79688,0.4375 -1.3125,1.109375 -0.51563,0.65625 -0.75,1.46875 -0.23438,0.8125 -0.23438,1.5625 0,0.8125 0.26563,1.609375 0.26562,0.796875 0.78125,1.4375 0.53125,0.625 1.3125,1.03125 0.78125,0.390625 1.82812,0.390625 1.07813,0 1.96875,-0.40625 0.89063,-0.421875 1.53125,-1.0625 0.64063,-0.640625 0.98438,-1.4375 Q 200.26562,90.125 200.26562,89.375 Z M 214.35937,79 h -3.28125 v 21 h -2.5625 V 79 h -3.5625 v -2.296875 h 9.40625 z m 10.90625,16.59375 q 0.51563,-0.15625 1.01563,-0.390625 0.51562,-0.234375 0.90625,-0.5625 0.40625,-0.34375 0.65625,-0.796875 0.25,-0.453125 0.25,-1.0625 0,-1.296875 -1.07813,-2.015625 -1.07812,-0.734375 -3.0625,-0.734375 -0.79687,0 -1.64062,0.171875 -0.82813,0.15625 -1.51563,0.59375 -0.6875,0.421875 -1.125,1.171875 -0.4375,0.734375 -0.4375,1.875 0,1.15625 0.45313,2.15625 0.45312,0.984375 1.17187,1.8125 0.73438,0.828125 1.64063,1.5 0.90625,0.671875 1.79687,1.1875 0.90625,0.51563 1.70313,0.85938 0.79687,0.35937 1.32812,0.5625 l -1.03125,2.15625 q -1.09375,-0.46875 -2.23437,-1.03125 -1.125,-0.54688 -2.1875,-1.21875 -1.0625,-0.65625 -2,-1.45313 -0.9375,-0.796875 -1.64063,-1.765625 -0.6875,-0.96875 -1.09375,-2.125 -0.39062,-1.15625 -0.39062,-2.515625 0,-1.328125 0.34375,-2.3125 0.35937,-1 0.98437,-1.75 -0.85937,-0.984375 -1.26562,-1.984375 -0.40625,-1 -0.40625,-2.171875 0,-0.671875 0.15625,-1.265625 0.17187,-0.59375 0.59375,-1.03125 0.4375,-0.453125 1.20312,-0.71875 0.76563,-0.265625 1.98438,-0.265625 h 7.07812 V 79 H 213.26562 V 76.703125 H 233.625 V 79 h -3.64063 v 5.75 H 221 q -0.60938,0 -1.03125,0.109375 -0.40625,0.09375 -0.65625,0.296875 -0.25,0.203125 -0.35938,0.515625 -0.0937,0.296875 -0.0937,0.703125 0,0.546875 0.1875,1.0625 0.1875,0.515625 0.70313,1.15625 0.90625,-0.46875 1.98437,-0.6875 1.09375,-0.234375 2.28125,-0.234375 1.375,0 2.5625,0.3125 1.20313,0.3125 2.07813,0.953125 0.89062,0.625 1.39062,1.609375 0.51563,0.96875 0.51563,2.28125 0,1.265625 -0.4375,2.140625 -0.42188,0.875 -1.07813,1.46875 -0.64062,0.59375 -1.40625,0.96875 Q 226.875,97.765625 226.21875,98 Z m 12.75,0.84375 -2.5,7.6875 h -1.82812 l 1.82812,-7.6875 z M 261.73437,79 h -7.42187 v 11.1875 q 0,1.140625 0.28125,1.90625 0.29687,0.75 0.9375,1.34375 0.64062,0.578125 1.64062,1.125 1.01563,0.53125 2.45313,1.25 1.32812,0.65625 2.46875,1.265625 1.15625,0.609375 2,1.28125 0.84375,0.671875 1.32812,1.453125 0.48438,0.78125 0.48438,1.78125 0,0.76563 -0.3125,1.53125 -0.3125,0.78125 -0.90625,1.48438 l -2.10938,-1.28125 q 0.23438,-0.375 0.4375,-0.79688 0.21875,-0.42187 0.21875,-0.875 0,-0.60937 -0.42187,-1.14062 -0.40625,-0.51563 -1.09375,-0.98438 -0.6875,-0.484375 -1.57813,-0.9375 Q 259.25,98.140625 258.28125,97.671875 256.64062,96.875 255.42187,96.234375 254.20312,95.59375 253.375,94.84375 252.5625,94.078125 252.15625,93.0625 251.75,92.046875 251.75,90.515625 V 79 h -3.51563 v -2.296875 h 19.34375 V 79 h -3.28125 v 9.90625 q 0,1.203125 -0.34375,2 -0.32812,0.78125 -0.85937,1.234375 -0.51563,0.453125 -1.15625,0.640625 -0.625,0.171875 -1.21875,0.171875 -0.59375,0 -1.17188,-0.125 -0.57812,-0.140625 -1.09375,-0.359375 v -2.546875 q 0.34375,0.203125 0.84375,0.359375 0.5,0.140625 1,0.140625 0.46875,0 0.75,-0.15625 0.28125,-0.15625 0.4375,-0.46875 0.15625,-0.3125 0.20313,-0.765625 0.0469,-0.453125 0.0469,-1.046875 z m 2.34375,-1.859375 h -2.26562 l -1.42188,-2.671875 q -0.90625,-1.703125 -1.65625,-2.703125 -0.73437,-1 -1.40625,-1.515625 -0.65625,-0.53125 -1.29687,-0.671875 -0.64063,-0.15625 -1.34375,-0.15625 h -3.03125 v -2.53125 h 2.85937 q 0.90625,0 1.64063,0.15625 0.73437,0.140625 1.39062,0.53125 0.67188,0.375 1.29688,1.0625 0.64062,0.671875 1.35937,1.75 0.71875,1.0625 1.5625,2.5625 0.85938,1.484375 1.95313,3.515625 z M 275.89062,79 h -3.28125 v 21 h -2.5625 V 79 h -3.5625 v -2.296875 h 3.5625 q -0.85937,-2.0625 -0.85937,-3.84375 0,-1.140625 0.375,-2.125 0.375,-0.984375 1.14062,-1.703125 0.78125,-0.71875 1.98438,-1.125 1.20312,-0.40625 2.85937,-0.40625 2.17188,0 4.17188,0.703125 2.01562,0.703125 3.9375,1.953125 1.92187,1.25 3.79687,2.96875 1.89063,1.71875 3.8125,3.75 h -2.71875 q -0.4375,-0.421875 -1.17187,-1.09375 -0.71875,-0.6875 -1.67188,-1.453125 -0.95312,-0.78125 -2.10937,-1.5625 -1.15625,-0.796875 -2.4375,-1.4375 -1.28125,-0.640625 -2.67188,-1.03125 -1.375,-0.40625 -2.78125,-0.40625 -1.14062,0 -1.92187,0.265625 -0.76563,0.265625 -1.25,0.734375 -0.46875,0.46875 -0.67188,1.109375 -0.20312,0.625 -0.20312,1.34375 0,1.40625 0.76562,3.359375 h 3.46875 z m 19.57813,0 h -3.28125 v 21 h -2.54688 V 86.28125 h -5.07812 q -1.04688,0 -1.89063,0.140625 -0.84375,0.125 -1.4375,0.53125 Q 280.64062,87.34375 280.3125,88.0625 280,88.765625 280,89.921875 q 0,1.5 0.48437,2.765625 0.5,1.265625 1.26563,2.328125 0.76562,1.046875 1.6875,1.9375 0.9375,0.890625 1.79687,1.640625 l -1.5625,1.78125 Q 283.53125,100.29688 283,99.921875 282.48437,99.53125 281.78125,98.875 q -0.6875,-0.65625 -1.46875,-1.59375 -0.76563,-0.9375 -1.42188,-2.109375 -0.64062,-1.1875 -1.07812,-2.609375 -0.42188,-1.421875 -0.42188,-3.0625 0,-1.625 0.45313,-2.6875 0.46875,-1.078125 1.3125,-1.703125 0.84375,-0.640625 2.04687,-0.890625 1.20313,-0.25 2.6875,-0.25 h 5.75 V 79 h -14.84375 v -2.296875 h 20.67188 z M 306.375,95.59375 q 0.51562,-0.15625 1.01562,-0.390625 0.51563,-0.234375 0.90625,-0.5625 0.40625,-0.34375 0.65625,-0.796875 0.25,-0.453125 0.25,-1.0625 0,-1.296875 -1.07812,-2.015625 -1.07813,-0.734375 -3.0625,-0.734375 -0.79688,0 -1.64063,0.171875 -0.82812,0.15625 -1.51562,0.59375 -0.6875,0.421875 -1.125,1.171875 -0.4375,0.734375 -0.4375,1.875 0,1.15625 0.45312,2.15625 0.45313,0.984375 1.17188,1.8125 0.73437,0.828125 1.64062,1.5 0.90625,0.671875 1.79688,1.1875 0.90625,0.51563 1.70312,0.85938 0.79688,0.35937 1.32813,0.5625 l -1.03125,2.15625 q -1.09375,-0.46875 -2.23438,-1.03125 -1.125,-0.54688 -2.1875,-1.21875 -1.0625,-0.65625 -2,-1.45313 -0.9375,-0.796875 -1.64062,-1.765625 -0.6875,-0.96875 -1.09375,-2.125 -0.39063,-1.15625 -0.39063,-2.515625 0,-1.328125 0.34375,-2.3125 0.35938,-1 0.98438,-1.75 -0.85938,-0.984375 -1.26563,-1.984375 -0.40625,-1 -0.40625,-2.171875 0,-0.671875 0.15625,-1.265625 0.17188,-0.59375 0.59375,-1.03125 0.4375,-0.453125 1.20313,-0.71875 0.76562,-0.265625 1.98437,-0.265625 h 7.07813 V 79 H 294.375 v -2.296875 h 20.35937 V 79 h -3.64062 v 5.75 h -8.98438 q -0.60937,0 -1.03125,0.109375 -0.40625,0.09375 -0.65625,0.296875 -0.25,0.203125 -0.35937,0.515625 -0.0937,0.296875 -0.0937,0.703125 0,0.546875 0.1875,1.0625 0.1875,0.515625 0.70312,1.15625 0.90625,-0.46875 1.98438,-0.6875 1.09375,-0.234375 2.28125,-0.234375 1.375,0 2.5625,0.3125 1.20312,0.3125 2.07812,0.953125 0.89063,0.625 1.39063,1.609375 0.51562,0.96875 0.51562,2.28125 0,1.265625 -0.4375,2.140625 -0.42187,0.875 -1.07812,1.46875 -0.64063,0.59375 -1.40625,0.96875 Q 307.98437,97.765625 307.32812,98 Z M 323.04687,79 h -3.28125 v 21 h -2.5625 V 79 h -3.5625 v -2.296875 h 9.40625 z m 8.3125,0 h -3.28125 v 21 h -2.5625 V 79 h -3.5625 v -2.296875 h 3.5625 q -0.85937,-2.0625 -0.85937,-3.84375 0,-1.140625 0.375,-2.125 0.375,-0.984375 1.14062,-1.703125 0.78125,-0.71875 1.98438,-1.125 1.20312,-0.40625 2.85937,-0.40625 2.17188,0 4.17188,0.703125 2.01562,0.703125 3.9375,1.953125 1.92187,1.25 3.79687,2.96875 1.89063,1.71875 3.8125,3.75 h -2.71875 q -0.4375,-0.421875 -1.17187,-1.09375 -0.71875,-0.6875 -1.67188,-1.453125 -0.95312,-0.78125 -2.10937,-1.5625 -1.15625,-0.796875 -2.4375,-1.4375 -1.28125,-0.640625 -2.67188,-1.03125 -1.375,-0.40625 -2.78125,-0.40625 -1.14062,0 -1.92187,0.265625 -0.76563,0.265625 -1.25,0.734375 -0.46875,0.46875 -0.67188,1.109375 -0.20312,0.625 -0.20312,1.34375 0,1.40625 0.76562,3.359375 h 3.46875 z m 23.04688,-2.296875 V 79 H 351.125 v 21 h -2.59375 V 89.5 h -9.04688 q -0.82812,0.546875 -1.98437,0.65625 l -0.0312,0.07813 q 1.51562,2.375 3.32812,4.421875 1.8125,2.046875 4.125,3.796875 L 343.25,100.375 q -1.32813,-0.984375 -2.53125,-2.125 -1.1875,-1.140625 -2.25,-2.359375 -1.04688,-1.234375 -1.96875,-2.484375 -0.92188,-1.265625 -1.6875,-2.484375 -0.76563,-1.21875 -1.375,-2.34375 -0.60938,-1.140625 -1.0625,-2.109375 l 2.14062,-1.15625 q 0.29688,0.6875 0.57813,1.15625 0.29687,0.453125 0.59375,0.734375 0.29687,0.265625 0.625,0.390625 0.32812,0.109375 0.70312,0.109375 1.07813,0 1.57813,-0.84375 0.51562,-0.84375 0.51562,-2.21875 0,-0.8125 -0.15625,-1.59375 Q 338.79687,82.25 338.54687,81.53125 338.3125,80.796875 338.03125,80.15625 337.75,79.515625 337.5,79 h -7.23438 V 76.703125 Z M 348.53125,79 h -8.32813 q 0.65625,1.421875 1.03125,2.859375 0.375,1.4375 0.375,2.859375 0,0.65625 -0.10937,1.296875 -0.0937,0.625 -0.32813,1.1875 l 0.0312,0.03125 h 7.32813 z m 33.5,0 h -13.20313 v 6.15625 l 0.0781,0.03125 q 0.79687,-1.09375 1.98437,-1.75 1.1875,-0.671875 2.60938,-0.671875 1.125,0 2.07812,0.46875 0.96875,0.453125 1.67188,1.265625 0.70312,0.796875 1.09375,1.890625 0.40625,1.09375 0.40625,2.359375 0,1.4375 -0.5,2.65625 -0.5,1.203125 -1.28125,2.1875 -0.78125,0.984375 -1.76563,1.75 -0.98437,0.75 -1.9375,1.28125 L 371.875,94.21875 q 0.3125,-0.171875 0.76562,-0.453125 0.45313,-0.28125 0.9375,-0.65625 0.5,-0.375 0.96875,-0.84375 0.48438,-0.484375 0.85938,-1.046875 0.39062,-0.5625 0.625,-1.21875 0.23437,-0.65625 0.23437,-1.390625 0,-0.671875 -0.21875,-1.28125 -0.20312,-0.609375 -0.57812,-1.0625 -0.375,-0.453125 -0.90625,-0.71875 -0.51563,-0.265625 -1.14063,-0.265625 -0.8125,0 -1.57812,0.421875 -0.76563,0.421875 -1.39063,1.0625 -0.625,0.625 -1.0625,1.34375 -0.42187,0.71875 -0.5625,1.328125 V 100 h -2.5625 v -5.984375 l -0.0625,-0.03125 q -0.23437,0.203125 -0.59375,0.5 -0.35937,0.28125 -0.875,0.546875 -0.5,0.265625 -1.17187,0.453125 -0.65625,0.1875 -1.48438,0.1875 -1.375,0 -2.54687,-0.53125 -1.15625,-0.53125 -2.01563,-1.4375 -0.84375,-0.921875 -1.32812,-2.15625 -0.48438,-1.234375 -0.48438,-2.640625 0,-1.34375 0.4375,-2.484375 0.45313,-1.140625 1.21875,-1.953125 0.78125,-0.828125 1.8125,-1.28125 1.04688,-0.46875 2.25,-0.46875 0.84375,0 1.5625,0.21875 0.73438,0.203125 1.32813,0.515625 0.60937,0.296875 1.07812,0.65625 0.48438,0.34375 0.8125,0.625 l 0.0625,-0.01563 V 79 H 353.3125 v -2.296875 h 28.71875 z m -20.23438,6.15625 q -0.89062,0 -1.57812,0.375 -0.67188,0.359375 -1.125,0.9375 -0.45313,0.5625 -0.6875,1.28125 -0.21875,0.703125 -0.21875,1.390625 0,0.75 0.26562,1.5 0.26563,0.734375 0.75,1.328125 0.5,0.59375 1.1875,0.96875 0.6875,0.359375 1.51563,0.359375 0.70312,0 1.46875,-0.28125 0.78125,-0.296875 1.42187,-0.90625 Q 365.45312,91.5 365.875,90.5625 q 0.42187,-0.953125 0.42187,-2.265625 V 87.53125 q -0.375,-0.46875 -0.89062,-0.890625 -0.5,-0.4375 -1.09375,-0.765625 -0.57813,-0.328125 -1.21875,-0.515625 -0.64063,-0.203125 -1.29688,-0.203125 z M 410.75,79 h -3.28125 v 21 h -2.5625 V 79 h -7.04688 v 12.125 q 0,0.25 -0.0312,0.578125 -0.0312,0.328125 -0.15625,0.640625 -0.10937,0.296875 -0.32812,0.515625 -0.21875,0.203125 -0.60938,0.203125 -0.42187,0 -0.9375,-0.265625 -0.5,-0.28125 -1.03125,-0.71875 Q 394.23437,91.625 393.73437,91.0625 393.25,90.5 392.85937,89.90625 392.46875,89.3125 392.23437,88.75 392,88.1875 392,87.75 q 0,-0.390625 0.1875,-0.625 0.20312,-0.234375 0.54687,-0.359375 0.35938,-0.125 0.85938,-0.15625 0.51562,-0.03125 1.125,-0.03125 h 0.54687 V 79 h -5.5625 V 76.703125 H 410.75 Z m 8.3125,0 h -3.28125 v 21 h -2.5625 V 79 h -3.5625 v -2.296875 h 9.40625 z m -3.39063,-1.859375 h -2.07812 l -0.5625,-0.5 q -1.21875,-1.078125 -2.15625,-1.8125 -0.92188,-0.75 -1.64063,-1.234375 -0.71875,-0.484375 -1.28125,-0.75 -0.5625,-0.265625 -1.04687,-0.390625 -0.48438,-0.125 -0.9375,-0.140625 -0.45313,-0.03125 -0.95313,-0.03125 h -3 V 70.0625 h 2.78125 q 0.6875,0 1.26563,0.09375 0.57812,0.07813 1.125,0.296875 0.53125,0.203125 1.07812,0.546875 0.54688,0.328125 1.20313,0.84375 0.64062,0.515625 1.42187,1.21875 0.79688,0.703125 1.8125,1.625 l 0.0937,-0.0625 q -0.90625,-1.484375 -1.60937,-2.5625 -0.70313,-1.09375 -1.28125,-1.84375 -0.57813,-0.765625 -1.0625,-1.25 -0.48438,-0.484375 -0.9375,-0.75 -0.45313,-0.265625 -0.92188,-0.359375 -0.46875,-0.09375 -1.01562,-0.09375 H 402.9375 V 65.46875 h 2.85937 q 0.90625,0 1.625,0.171875 0.70313,0.171875 1.35938,0.625 0.64062,0.453125 1.28125,1.234375 0.64062,0.78125 1.39062,2.015625 0.76563,1.21875 1.6875,2.9375 0.9375,1.703125 2.17188,4.015625 z M 434.70312,79 h -5.89062 q 0.79687,1.375 1.28125,2.8125 0.5,1.421875 0.5,2.890625 0,1.109375 -0.34375,2.140625 -0.32813,1.015625 -0.98438,1.828125 -0.64062,0.796875 -1.60937,1.3125 -0.95313,0.5 -2.20313,0.5625 l -0.0312,0.07813 q 1.40625,2.1875 3.15625,4.140625 1.75,1.9375 4.04688,3.6875 l -1.67188,1.921875 q -1.32812,-0.984375 -2.53125,-2.125 -1.1875,-1.15625 -2.25,-2.375 -1.0625,-1.234375 -1.98437,-2.484375 -0.90625,-1.265625 -1.67188,-2.453125 -0.75,-1.203125 -1.34375,-2.296875 -0.59375,-1.109375 -1.01562,-2.015625 l 2.14062,-1.15625 q 0.5625,1.21875 1.26563,1.921875 0.71875,0.6875 1.65625,0.6875 0.67187,0 1.20312,-0.34375 0.53125,-0.34375 0.89063,-0.875 0.35937,-0.546875 0.54687,-1.1875 0.1875,-0.65625 0.1875,-1.28125 0,-0.734375 -0.1875,-1.4375 -0.1875,-0.71875 -0.48437,-1.390625 -0.29688,-0.6875 -0.67188,-1.328125 Q 426.34375,79.59375 426,79 h -8.03125 v -2.296875 h 16.73437 z m 18.8125,0 h -3.28125 v 21 h -2.5625 v -5.578125 l -0.0625,-0.01563 q -0.3125,0.296875 -0.73437,0.625 -0.42188,0.3125 -0.96875,0.578125 -0.54688,0.25 -1.23438,0.421875 -0.67187,0.171875 -1.51562,0.171875 -1.54688,0 -2.82813,-0.59375 -1.26562,-0.59375 -2.1875,-1.578125 -0.92187,-1 -1.4375,-2.28125 -0.5,-1.296875 -0.5,-2.703125 0,-1.40625 0.5,-2.609375 0.51563,-1.21875 1.40625,-2.109375 Q 439,83.4375 440.1875,82.9375 q 1.1875,-0.515625 2.54687,-0.515625 0.375,0 0.9375,0.0625 0.57813,0.0625 1.23438,0.28125 0.65625,0.21875 1.35937,0.640625 0.70313,0.40625 1.34375,1.109375 L 447.67187,84.5 V 79 h -14.0625 v -2.296875 h 19.90625 z m -5.78125,8.421875 q -0.98437,-1.1875 -2.14062,-1.90625 -1.15625,-0.734375 -2.625,-0.734375 -1.15625,0 -1.96875,0.4375 -0.79688,0.4375 -1.3125,1.109375 -0.51563,0.65625 -0.75,1.46875 -0.23438,0.8125 -0.23438,1.5625 0,0.8125 0.26563,1.609375 0.26562,0.796875 0.78125,1.4375 0.53125,0.625 1.3125,1.03125 0.78125,0.390625 1.82812,0.390625 1.07813,0 1.96875,-0.40625 Q 445.75,93 446.39062,92.359375 447.03125,91.71875 447.375,90.921875 447.73437,90.125 447.73437,89.375 Z m 10.17188,9.015625 -2.5,7.6875 h -1.82813 l 1.82813,-7.6875 z"
         id="path4" />
      <path
         d="m 69.8125,129 h -3.28125 v 21 h -2.578125 v -6.96875 l -0.0625,-0.0156 -9.53125,7.17188 L 52.75,148.23437 58.296875,144.25 58.28125,144.1875 q -1.203125,-0.0937 -2.1875,-0.53125 -0.984375,-0.4375 -1.6875,-1.23438 -0.703125,-0.79687 -1.09375,-1.96875 -0.375,-1.17187 -0.375,-2.73437 V 129 h -3.484375 v -2.29687 H 69.8125 Z m -5.859375,0 H 55.46875 v 8.57812 q 0,0.98438 0.15625,1.76563 0.171875,0.78125 0.5625,1.32812 0.40625,0.54688 1.0625,0.84375 0.65625,0.28125 1.640625,0.28125 1.609375,0 2.90625,-0.70312 1.296875,-0.71875 2.15625,-1.89063 z M 78.125,129 h -3.28125 v 21 h -2.5625 v -21 h -3.5625 v -2.29687 H 78.125 Z m 21.640625,0 h -3.28125 v 21 h -2.59375 v -6.57813 l -0.0625,-0.0469 q -0.859375,0.78125 -1.6875,1.23437 -0.8125,0.4375 -1.53125,0.67188 Q 89.90625,145.5 89.328125,145.5625 88.75,145.625 88.375,145.625 q -1.4375,0 -2.546875,-0.45313 -1.109375,-0.45312 -1.859375,-1.1875 -0.75,-0.75 -1.140625,-1.70312 -0.390625,-0.96875 -0.390625,-2 0,-1.07813 0.4375,-2.14063 0.453125,-1.0625 1.40625,-1.90625 l -0.01563,-0.0625 H 79.3125 V 133.875 H 91.875 v 2.29687 h -1.609375 q -1.609375,0 -2.640625,0.42188 -1.03125,0.42187 -1.625,1.03125 -0.59375,0.60937 -0.828125,1.3125 -0.21875,0.6875 -0.21875,1.25 0,0.46875 0.15625,1.01562 0.15625,0.53125 0.515625,0.98438 0.375,0.45312 0.984375,0.75 0.625,0.29687 1.5625,0.29687 0.984375,0 1.828125,-0.3125 0.859375,-0.32812 1.578125,-0.84375 0.71875,-0.51562 1.296875,-1.15625 0.59375,-0.65625 1.015625,-1.29687 V 129 H 77.03125 v -2.29687 h 22.734375 z m 8.312505,0 h -3.28125 v 21 h -2.5625 v -21 h -3.562505 v -2.29687 h 3.812505 q -0.28125,-1.59375 -0.71875,-2.71875 -0.4375,-1.14063 -0.95313,-1.89063 -0.51562,-0.76562 -1.078125,-1.20312 -0.5625,-0.4375 -1.078125,-0.65625 -0.53125,-0.21875 -0.984375,-0.28125 -0.46875,-0.0625 -0.765625,-0.0625 -0.96875,0 -1.546875,0.3125 -0.59375,0.29687 -0.90625,0.71875 -0.3125,0.42187 -0.40625,0.89062 -0.109375,0.45313 -0.109375,0.78125 0,0.125 0.04687,0.51563 0.03125,0.375 0.25,0.95312 0.203125,0.57813 0.640625,1.29688 0.4375,0.71875 1.234375,1.51562 h -2.65625 q -0.984375,-1.125 -1.46875,-2.32812 -0.5,-1.21875 -0.5,-2.35938 0,-0.95312 0.34375,-1.8125 0.34375,-0.85937 1.03125,-1.48437 0.6875,-0.64063 1.71875,-1.01563 1.03125,-0.375 2.390625,-0.375 1.875,0 3.23438,0.73438 1.35937,0.71875 2.28125,1.96875 0.9375,1.25 1.46875,2.9375 0.54687,1.67187 0.76562,3.5625 h 3.35938 z m 19.4375,0 h -3.28125 v 21 h -2.57813 v -12.04688 h -7.3125 q 0,1.03125 -0.0312,1.76563 -0.0156,0.73437 -0.125,1.21875 -0.10937,0.46875 -0.32812,0.6875 -0.21875,0.21875 -0.60938,0.21875 -0.8125,0 -1.54687,-0.53125 -0.71875,-0.53125 -1.28125,-1.28125 -0.54688,-0.75 -0.875,-1.5625 -0.32813,-0.8125 -0.32813,-1.375 0,-0.5 0.21875,-0.78125 0.21875,-0.28125 0.57813,-0.42188 0.35937,-0.14062 0.8125,-0.17187 0.46875,-0.0312 0.9375,-0.0312 h 9.89062 V 129 h -14.67187 v -2.29687 h 20.53125 z m 36.39062,0 h -13.20313 v 6.15625 l 0.0781,0.0312 q 0.79687,-1.09375 1.98437,-1.75 1.1875,-0.67188 2.60938,-0.67188 1.125,0 2.07812,0.46875 0.96875,0.45313 1.67188,1.26563 0.70312,0.79687 1.09375,1.89062 0.40625,1.09375 0.40625,2.35938 0,1.4375 -0.5,2.65625 -0.5,1.20312 -1.28125,2.1875 -0.78125,0.98437 -1.76563,1.75 -0.98437,0.75 -1.9375,1.28125 L 153.75,144.21875 q 0.3125,-0.17188 0.76562,-0.45313 0.45313,-0.28125 0.9375,-0.65625 0.5,-0.375 0.96875,-0.84375 0.48438,-0.48437 0.85938,-1.04687 0.39062,-0.5625 0.625,-1.21875 0.23437,-0.65625 0.23437,-1.39063 0,-0.67187 -0.21875,-1.28125 -0.20312,-0.60937 -0.57812,-1.0625 -0.375,-0.45312 -0.90625,-0.71875 -0.51563,-0.26562 -1.14063,-0.26562 -0.8125,0 -1.57812,0.42187 -0.76563,0.42188 -1.39063,1.0625 -0.625,0.625 -1.0625,1.34375 -0.42187,0.71875 -0.5625,1.32813 V 150 h -2.5625 v -5.98438 l -0.0625,-0.0312 q -0.23437,0.20313 -0.59375,0.5 -0.35937,0.28125 -0.875,0.54688 -0.5,0.26562 -1.17187,0.45312 -0.65625,0.1875 -1.48438,0.1875 -1.375,0 -2.54687,-0.53125 -1.15625,-0.53125 -2.01563,-1.4375 -0.84375,-0.92187 -1.32812,-2.15625 -0.48438,-1.23437 -0.48438,-2.64062 0,-1.34375 0.4375,-2.48438 0.45313,-1.14062 1.21875,-1.95312 0.78125,-0.82813 1.8125,-1.28125 1.04688,-0.46875 2.25,-0.46875 0.84375,0 1.5625,0.21875 0.73438,0.20312 1.32813,0.51562 0.60937,0.29688 1.07812,0.65625 0.48438,0.34375 0.8125,0.625 l 0.0625,-0.0156 V 129 H 135.1875 v -2.29687 h 28.71875 z m -20.23438,6.15625 q -0.89062,0 -1.57812,0.375 -0.67188,0.35937 -1.125,0.9375 -0.45313,0.5625 -0.6875,1.28125 -0.21875,0.70312 -0.21875,1.39062 0,0.75 0.26562,1.5 0.26563,0.73438 0.75,1.32813 0.5,0.59375 1.1875,0.96875 0.6875,0.35937 1.51563,0.35937 0.70312,0 1.46875,-0.28125 0.78125,-0.29687 1.42187,-0.90625 0.65625,-0.60937 1.07813,-1.54687 0.42187,-0.95313 0.42187,-2.26563 v -0.76562 q -0.375,-0.46875 -0.89062,-0.89063 -0.5,-0.4375 -1.09375,-0.76562 -0.57813,-0.32813 -1.21875,-0.51563 -0.64063,-0.20312 -1.29688,-0.20312 z M 172.21875,129 h -3.28125 v 21 h -2.5625 v -21 h -3.5625 v -2.29687 h 9.40625 z m 7.51562,17.46875 q -1.39062,0 -2.53125,-0.51563 -1.14062,-0.51562 -1.96875,-1.42187 -0.8125,-0.92188 -1.26562,-2.15625 -0.45313,-1.25 -0.45313,-2.6875 0,-1.5625 0.48438,-2.8125 0.48437,-1.26563 1.32812,-2.15625 0.85938,-0.89063 2,-1.35938 1.15625,-0.48437 2.48438,-0.48437 1.70312,0 3.21875,0.8125 1.51562,0.79687 3.03125,2.35937 0.70312,-1.09375 1.64062,-1.89062 0.9375,-0.8125 2.3125,-1.0625 V 129 H 171.125 v -2.29687 h 29.26562 V 129 h -7.82812 v 4.17187 q 1.04687,0.25 1.89062,0.82813 0.84375,0.57812 1.42188,1.39062 0.59375,0.8125 0.90625,1.82813 0.32812,1 0.32812,2.10937 0,1.625 -0.5625,2.95313 -0.54687,1.32812 -1.48437,2.29687 -0.92188,0.95313 -2.10938,1.48438 -1.1875,0.51562 -2.45312,0.51562 -1.64063,0 -3.0625,-0.76562 -1.42188,-0.76563 -2.8125,-2.10938 -0.40625,0.59375 -0.90625,1.10938 -0.48438,0.5 -1.07813,0.875 -0.59375,0.35937 -1.3125,0.57812 -0.71875,0.20313 -1.59375,0.20313 z m 0.32813,-11.3125 q -0.9375,0 -1.6875,0.375 -0.73438,0.35937 -1.26563,0.98437 -0.53125,0.60938 -0.8125,1.45313 -0.28125,0.82812 -0.28125,1.76562 0,0.8125 0.23438,1.59375 0.23437,0.78125 0.6875,1.39063 0.46875,0.60937 1.15625,0.98437 0.6875,0.375 1.57812,0.375 1.09375,0 1.85938,-0.54687 0.78125,-0.5625 1.375,-1.45313 0.60937,-0.89062 1.10937,-2 0.5,-1.125 1.04688,-2.25 -1.1875,-1.375 -2.46875,-2.01562 -1.26563,-0.65625 -2.53125,-0.65625 z m 10.0625,9.03125 q 0.90625,0 1.71875,-0.28125 0.8125,-0.29688 1.42187,-0.875 0.625,-0.59375 0.98438,-1.46875 0.375,-0.89063 0.375,-2.09375 0,-0.76563 -0.20313,-1.51563 -0.1875,-0.75 -0.59375,-1.34375 -0.40625,-0.59375 -1.04687,-0.95312 -0.625,-0.375 -1.48438,-0.375 -0.76562,0 -1.375,0.29687 -0.60937,0.28125 -1.10937,0.78125 -0.5,0.48438 -0.92188,1.15625 -0.40625,0.65625 -0.78125,1.42188 -0.375,0.75 -0.75,1.5625 -0.35937,0.79687 -0.76562,1.57812 0.39062,0.39063 0.875,0.76563 0.5,0.375 1.0625,0.67187 0.57812,0.29688 1.23437,0.48438 0.65625,0.1875 1.35938,0.1875 z M 208.70312,129 h -3.28125 v 21 h -2.5625 v -21 h -3.5625 v -2.29687 h 9.40625 z m 21.64063,0 h -3.28125 v 21 h -2.59375 v -6.57813 l -0.0625,-0.0469 q -0.85938,0.78125 -1.6875,1.23437 -0.8125,0.4375 -1.53125,0.67188 -0.70313,0.21875 -1.28125,0.28125 -0.57813,0.0625 -0.95313,0.0625 -1.4375,0 -2.54687,-0.45313 -1.10938,-0.45312 -1.85938,-1.1875 -0.75,-0.75 -1.14062,-1.70312 -0.39063,-0.96875 -0.39063,-2 0,-1.07813 0.4375,-2.14063 0.45313,-1.0625 1.40625,-1.90625 l -0.0156,-0.0625 h -4.95313 V 133.875 h 12.5625 v 2.29687 h -1.60937 q -1.60938,0 -2.64063,0.42188 -1.03125,0.42187 -1.625,1.03125 -0.59375,0.60937 -0.82812,1.3125 -0.21875,0.6875 -0.21875,1.25 0,0.46875 0.15625,1.01562 0.15625,0.53125 0.51562,0.98438 0.375,0.45312 0.98438,0.75 0.625,0.29687 1.5625,0.29687 0.98437,0 1.82812,-0.3125 0.85938,-0.32812 1.57813,-0.84375 0.71875,-0.51562 1.29687,-1.15625 0.59375,-0.65625 1.01563,-1.29687 V 129 h -16.85938 v -2.29687 h 22.73438 z m 8.3125,0 H 235.375 v 21 h -2.5625 V 129 H 229.25 v -2.29687 h 9.40625 z m 4.39062,17.4375 -2.5,7.6875 h -1.82812 l 1.82812,-7.6875 z m 34.35938,-19.73437 V 129 H 274.125 v 21 h -2.59375 v -10.5 h -9.04688 q -0.82812,0.54687 -1.98437,0.65625 l -0.0312,0.0781 q 1.51562,2.375 3.32812,4.42188 1.8125,2.04687 4.125,3.79687 L 266.25,150.375 q -1.32813,-0.98438 -2.53125,-2.125 -1.1875,-1.14063 -2.25,-2.35938 -1.04688,-1.23437 -1.96875,-2.48437 -0.92188,-1.26563 -1.6875,-2.48438 -0.76563,-1.21875 -1.375,-2.34375 -0.60938,-1.14062 -1.0625,-2.10937 l 2.14062,-1.15625 q 0.29688,0.6875 0.57813,1.15625 0.29687,0.45312 0.59375,0.73437 0.29687,0.26563 0.625,0.39063 0.32812,0.10937 0.70312,0.10937 1.07813,0 1.57813,-0.84375 0.51562,-0.84375 0.51562,-2.21875 0,-0.8125 -0.15625,-1.59375 -0.15625,-0.79687 -0.40625,-1.51562 -0.23437,-0.73438 -0.51562,-1.375 Q 260.75,129.51562 260.5,129 h -7.23438 v -2.29687 z M 271.53125,129 h -8.32813 q 0.65625,1.42187 1.03125,2.85937 0.375,1.4375 0.375,2.85938 0,0.65625 -0.10937,1.29687 -0.0937,0.625 -0.32813,1.1875 l 0.0312,0.0312 h 7.32813 z m 14.1875,0 h -3.28125 v 21 h -2.5625 v -21 h -3.5625 v -2.29687 h 9.40625 z m 17.10937,-2.29687 h 5.84375 V 129 h -3.28125 v 21 h -2.5625 v -13.57813 q -1.57812,0.64063 -2.95312,0.89063 -1.35938,0.25 -2.625,0.25 -1.32813,0 -2.39063,-0.21875 -1.04687,-0.21875 -1.98437,-0.625 -0.67188,0.45312 -1.3125,0.98437 -0.625,0.53125 -1.125,1.1875 -0.48438,0.64063 -0.79688,1.4375 -0.29687,0.79688 -0.29687,1.78125 0,0.5625 0.14062,1.26563 0.15625,0.70312 0.60938,1.34375 0.45312,0.625 1.29687,1.0625 0.85938,0.42187 2.26563,0.42187 0.5,0 0.98437,-0.0625 0.5,-0.0625 0.85938,-0.20312 -0.0625,-0.29688 -0.0937,-0.59375 -0.0312,-0.3125 -0.0312,-0.64063 0,-0.70312 0.15625,-1.40625 0.17187,-0.70312 0.5,-1.25 0.34375,-0.5625 0.85937,-0.90625 0.51563,-0.34375 1.20313,-0.34375 0.53125,0 0.92187,0.20313 0.39063,0.20312 0.65625,0.54687 0.26563,0.34375 0.39063,0.8125 0.14062,0.45313 0.14062,0.96875 0,0.57813 -0.15625,1.10938 -0.15625,0.53125 -0.42187,1 -0.25,0.45312 -0.59375,0.85937 -0.32813,0.39063 -0.70313,0.71875 0.29688,0.67188 0.625,1.20313 0.32813,0.51562 0.67188,0.9375 0.35937,0.40625 0.71875,0.75 0.375,0.32812 0.73437,0.625 l -1.92187,2.01562 q -0.71875,-0.67187 -1.23438,-1.34375 -0.5,-0.65625 -0.84375,-1.23437 -0.34375,-0.57813 -0.5625,-1.04688 -0.21875,-0.46875 -0.35937,-0.75 -0.51563,0.21875 -1.17188,0.3125 -0.64062,0.0781 -1.20312,0.0781 -1.53125,0 -2.8125,-0.48438 -1.26563,-0.5 -2.17188,-1.39062 -0.90625,-0.89063 -1.40625,-2.125 -0.5,-1.25 -0.5,-2.73438 0,-1.28125 0.34375,-2.26562 0.35938,-1 0.9375,-1.76563 0.57813,-0.76562 1.29688,-1.34375 0.73437,-0.59375 1.46875,-1.07812 l 0.0156,-0.0625 q -1.17187,-0.9375 -1.6875,-2.01563 -0.51562,-1.09375 -0.51562,-2.26562 0,-1.04688 0.35937,-1.89063 0.375,-0.85937 1,-1.46874 0.625,-0.60938 1.4375,-0.9375 0.8125,-0.34375 1.6875,-0.34375 0.85938,0 1.65625,0.3125 0.79688,0.3125 1.42188,0.90625 0.625,0.57812 1,1.43749 0.375,0.84375 0.375,1.90625 0,0.71875 -0.17188,1.29688 -0.17187,0.57812 -0.48437,1.0625 -0.29688,0.48437 -0.73438,0.90625 -0.4375,0.40625 -0.95312,0.78125 l 0.0156,0.0625 q 0.45313,0.0937 0.92188,0.14062 0.46875,0.0312 0.90625,0.0312 1.28125,0 2.70312,-0.34375 1.42188,-0.34375 2.9375,-1.23437 z m -7.625,4.23437 q 0,-0.48438 -0.15625,-0.875 -0.14062,-0.40625 -0.42187,-0.6875 -0.26563,-0.29688 -0.625,-0.45313 -0.35938,-0.15625 -0.78125,-0.15625 -0.3125,0 -0.65625,0.10938 -0.34375,0.0937 -0.65625,0.35937 -0.29688,0.25 -0.5,0.6875 -0.1875,0.42188 -0.1875,1.07813 0,0.98437 0.45312,1.70312 0.46875,0.70313 1.40625,1.25 0.4375,-0.29687 0.82813,-0.60937 0.39062,-0.3125 0.67187,-0.67188 0.29688,-0.375 0.45313,-0.79687 0.17187,-0.42188 0.17187,-0.9375 z M 316.98437,129 h -3.28125 v 21 h -2.5625 v -21 h -3.5625 v -2.29687 h 3.8125 q -0.28125,-1.59375 -0.71875,-2.71875 -0.4375,-1.14063 -0.95312,-1.89063 -0.51563,-0.76562 -1.07813,-1.20312 -0.5625,-0.4375 -1.07812,-0.65625 -0.53125,-0.21875 -0.98438,-0.28125 -0.46875,-0.0625 -0.76562,-0.0625 -0.96875,0 -1.54688,0.3125 -0.59375,0.29687 -0.90625,0.71875 -0.3125,0.42187 -0.40625,0.89062 -0.10937,0.45313 -0.10937,0.78125 0,0.125 0.0469,0.51563 0.0312,0.375 0.25,0.95312 0.20313,0.57813 0.64063,1.29688 0.4375,0.71875 1.23437,1.51562 h -2.65625 q -0.98437,-1.125 -1.46875,-2.32812 -0.5,-1.21875 -0.5,-2.35938 0,-0.95312 0.34375,-1.8125 0.34375,-0.85937 1.03125,-1.48437 0.6875,-0.64063 1.71875,-1.01563 1.03125,-0.375 2.39063,-0.375 1.875,0 3.23437,0.73438 1.35938,0.71875 2.28125,1.96875 0.9375,1.25 1.46875,2.9375 0.54688,1.67187 0.76563,3.5625 h 3.35937 z m 19.92188,0 h -5.29688 v 6.85937 h -5.26562 q -2.45313,0 -3.70313,1.21875 -1.25,1.20313 -1.25,3.46875 0,1.28125 0.40625,2.26563 0.42188,0.98437 1.14063,1.65625 0.73437,0.65625 1.73437,1 1,0.34375 2.17188,0.34375 1.23437,0 1.98437,-0.375 -0.0625,-0.39063 -0.0937,-0.6875 -0.0312,-0.29688 -0.0312,-0.59375 0,-0.65625 0.15625,-1.34375 0.17188,-0.70313 0.5,-1.26563 0.34375,-0.57812 0.85938,-0.9375 0.53125,-0.35937 1.26562,-0.35937 0.45313,0 0.85938,0.15625 0.40625,0.15625 0.70312,0.48437 0.3125,0.3125 0.48438,0.79688 0.1875,0.48437 0.1875,1.125 0,0.64062 -0.17188,1.1875 -0.17187,0.53125 -0.45312,1 -0.26563,0.45312 -0.60938,0.85937 -0.34375,0.39063 -0.67187,0.71875 0.34375,0.75 0.71875,1.34375 0.39062,0.59375 0.79687,1.0625 0.42188,0.46875 0.84375,0.84375 0.42188,0.375 0.84375,0.70313 l -1.92187,2.01562 q -0.82813,-0.73437 -1.42188,-1.46875 -0.57812,-0.71875 -0.98437,-1.35937 -0.39063,-0.64063 -0.64063,-1.15625 -0.25,-0.51563 -0.40625,-0.82813 -1.07812,0.42188 -2.65625,0.42188 -2.03125,0 -3.54687,-0.65625 -1.51563,-0.67188 -2.53125,-1.78125 -1,-1.125 -1.5,-2.5625 -0.5,-1.4375 -0.5,-2.98438 0,-1.60937 0.51562,-2.82812 0.51563,-1.23438 1.4375,-2.0625 0.92188,-0.84375 2.1875,-1.26563 1.28125,-0.4375 2.79688,-0.4375 h 3.20312 V 129 h -13.15625 v -2.29687 h 21.01563 z m 8.3125,0 h -3.28125 v 21 h -2.5625 v -21 h -3.5625 v -2.29687 h 9.40625 z m 15.64062,0 h -5.89062 q 0.79687,1.375 1.28125,2.8125 0.5,1.42187 0.5,2.89062 0,1.10938 -0.34375,2.14063 -0.32813,1.01562 -0.98438,1.82812 -0.64062,0.79688 -1.60937,1.3125 -0.95313,0.5 -2.20313,0.5625 l -0.0312,0.0781 q 1.40625,2.1875 3.15625,4.14062 1.75,1.9375 4.04688,3.6875 l -1.67188,1.92188 q -1.32812,-0.98438 -2.53125,-2.125 -1.1875,-1.15625 -2.25,-2.375 -1.0625,-1.23438 -1.98437,-2.48438 -0.90625,-1.26562 -1.67188,-2.45312 -0.75,-1.20313 -1.34375,-2.29688 -0.59375,-1.10937 -1.01562,-2.01562 l 2.14062,-1.15625 q 0.5625,1.21875 1.26563,1.92187 0.71875,0.6875 1.65625,0.6875 0.67187,0 1.20312,-0.34375 0.53125,-0.34375 0.89063,-0.875 0.35937,-0.54687 0.54687,-1.1875 0.1875,-0.65625 0.1875,-1.28125 0,-0.73437 -0.1875,-1.4375 -0.1875,-0.71875 -0.48437,-1.39062 -0.29688,-0.6875 -0.67188,-1.32813 Q 352.5,129.59375 352.15625,129 H 344.125 v -2.29687 h 16.73437 z m 31.8125,-2.29687 V 129 h -3.28125 v 21 h -2.59375 V 139.5 H 377.75 q -0.82813,0.54687 -1.98438,0.65625 l -0.0312,0.0781 q 1.51563,2.375 3.32813,4.42188 1.8125,2.04687 4.125,3.79687 l -1.67188,1.92188 q -1.32812,-0.98438 -2.53125,-2.125 -1.1875,-1.14063 -2.25,-2.35938 -1.04687,-1.23437 -1.96875,-2.48437 -0.92187,-1.26563 -1.6875,-2.48438 -0.76562,-1.21875 -1.375,-2.34375 -0.60937,-1.14062 -1.0625,-2.10937 l 2.14063,-1.15625 q 0.29687,0.6875 0.57812,1.15625 0.29688,0.45312 0.59375,0.73437 0.29688,0.26563 0.625,0.39063 0.32813,0.10937 0.70313,0.10937 1.07812,0 1.57812,-0.84375 0.51563,-0.84375 0.51563,-2.21875 0,-0.8125 -0.15625,-1.59375 -0.15625,-0.79687 -0.40625,-1.51562 -0.23438,-0.73438 -0.51563,-1.375 -0.28125,-0.64063 -0.53125,-1.15625 h -7.23437 v -2.29687 z M 386.79687,129 h -8.32812 q 0.65625,1.42187 1.03125,2.85937 0.375,1.4375 0.375,2.85938 0,0.65625 -0.10938,1.29687 -0.0937,0.625 -0.32812,1.1875 l 0.0312,0.0312 h 7.32812 z m 14.1875,0 h -3.28125 v 21 h -2.5625 v -21 h -3.5625 v -2.29687 h 9.40625 z m -3.39062,-1.85937 h -2.07813 l -0.5625,-0.5 q -1.21875,-1.07813 -2.15625,-1.8125 -0.92187,-0.75 -1.64062,-1.23438 -0.71875,-0.48437 -1.28125,-0.75 -0.5625,-0.26562 -1.04688,-0.39062 -0.48437,-0.125 -0.9375,-0.14063 -0.45312,-0.0312 -0.95312,-0.0312 h -3 v -2.21875 h 2.78125 q 0.6875,0 1.26562,0.0937 0.57813,0.0781 1.125,0.29688 0.53125,0.20312 1.07813,0.54687 0.54687,0.32813 1.20312,0.84375 0.64063,0.51563 1.42188,1.21875 0.79687,0.70313 1.8125,1.625 l 0.0937,-0.0625 q -0.90625,-1.48437 -1.60938,-2.5625 -0.70312,-1.09375 -1.28125,-1.84375 -0.57812,-0.76562 -1.0625,-1.25 -0.48437,-0.48437 -0.9375,-0.75 -0.45312,-0.26562 -0.92187,-0.35937 -0.46875,-0.0937 -1.01563,-0.0937 h -3.03125 v -2.29688 h 2.85938 q 0.90625,0 1.625,0.17188 0.70312,0.17187 1.35937,0.625 0.64063,0.45312 1.28125,1.23437 0.64063,0.78125 1.39063,2.01563 0.76562,1.21875 1.6875,2.9375 0.9375,1.70312 2.17187,4.01562 z m -0.75,-5.20313 q 0,-0.89062 0.53125,-1.4375 0.51562,-0.5625 1.35937,-0.5625 0.39063,0 0.75,0.15625 0.34375,0.15625 0.60938,0.4375 0.26562,0.26563 0.42187,0.64063 0.14063,0.35937 0.14063,0.79687 0,0.89063 -0.51563,1.4375 -0.53125,0.54688 -1.375,0.54688 -0.40625,0 -0.75,-0.14063 -0.35937,-0.15625 -0.60937,-0.42187 Q 397.14062,123.10938 397,122.75 q -0.15625,-0.375 -0.15625,-0.8125 z M 420.90625,129 h -5.29688 v 6.85937 h -5.26562 q -2.45313,0 -3.70313,1.21875 -1.25,1.20313 -1.25,3.46875 0,1.28125 0.40625,2.26563 0.42188,0.98437 1.14063,1.65625 0.73437,0.65625 1.73437,1 1,0.34375 2.17188,0.34375 1.23437,0 1.98437,-0.375 -0.0625,-0.39063 -0.0937,-0.6875 -0.0312,-0.29688 -0.0312,-0.59375 0,-0.65625 0.15625,-1.34375 0.17188,-0.70313 0.5,-1.26563 0.34375,-0.57812 0.85938,-0.9375 0.53125,-0.35937 1.26562,-0.35937 0.45313,0 0.85938,0.15625 0.40625,0.15625 0.70312,0.48437 0.3125,0.3125 0.48438,0.79688 0.1875,0.48437 0.1875,1.125 0,0.64062 -0.17188,1.1875 -0.17187,0.53125 -0.45312,1 -0.26563,0.45312 -0.60938,0.85937 -0.34375,0.39063 -0.67187,0.71875 0.34375,0.75 0.71875,1.34375 0.39062,0.59375 0.79687,1.0625 0.42188,0.46875 0.84375,0.84375 0.42188,0.375 0.84375,0.70313 l -1.92187,2.01562 q -0.82813,-0.73437 -1.42188,-1.46875 -0.57812,-0.71875 -0.98437,-1.35937 -0.39063,-0.64063 -0.64063,-1.15625 -0.25,-0.51563 -0.40625,-0.82813 -1.07812,0.42188 -2.65625,0.42188 -2.03125,0 -3.54687,-0.65625 -1.51563,-0.67188 -2.53125,-1.78125 -1,-1.125 -1.5,-2.5625 -0.5,-1.4375 -0.5,-2.98438 0,-1.60937 0.51562,-2.82812 0.51563,-1.23438 1.4375,-2.0625 0.92188,-0.84375 2.1875,-1.26563 1.28125,-0.4375 2.79688,-0.4375 h 3.20312 V 129 h -13.15625 v -2.29687 h 21.01563 z m 19.90625,0 h -3.28125 v 21 h -2.5625 v -7.3125 l -0.0625,-0.0156 q -0.42188,0.34375 -1.01563,0.6875 -0.57812,0.32813 -1.29687,0.59375 -0.71875,0.25 -1.54688,0.42188 -0.82812,0.15625 -1.73437,0.15625 -1.8125,0 -3.10938,-0.65625 -1.28125,-0.65625 -2.15625,-1.75 -0.85937,-1.10938 -1.35937,-2.51563 -0.5,-1.42187 -0.71875,-2.95312 1.03125,-0.14063 1.76562,-0.48438 0.73438,-0.34375 1.1875,-0.8125 0.45313,-0.48437 0.65625,-1.04687 0.21875,-0.5625 0.21875,-1.125 0,-0.375 -0.0781,-0.84375 -0.0625,-0.46875 -0.23438,-1 -0.17187,-0.54688 -0.45312,-1.14063 Q 424.75,129.60937 424.32812,129 h -4.51562 v -2.29687 h 21 z m -13.71875,0 q 0.5625,0.95312 0.875,2.09375 0.32812,1.125 0.32812,2.21875 0,0.79687 -0.21875,1.54687 -0.20312,0.75 -0.64062,1.40625 -0.4375,0.64063 -1.09375,1.15625 -0.64063,0.5 -1.5,0.79688 0.25,1.04687 0.6875,1.79687 0.4375,0.73438 1.03125,1.21875 0.59375,0.46875 1.32812,0.6875 0.73438,0.21875 1.57813,0.21875 0.8125,0 1.59375,-0.1875 0.79687,-0.1875 1.5,-0.53125 0.71875,-0.35937 1.32812,-0.85937 0.60938,-0.5 1.07813,-1.125 V 129 Z m 13.29687,-9.125 q -0.6875,-0.78125 -1.28125,-1.14062 -0.59375,-0.35938 -1.39062,-0.35938 -1.21875,0 -1.95313,0.84375 -0.73437,0.82813 -0.73437,2.34375 0,0.625 0.14062,1.3125 0.14063,0.67188 0.40625,1.35938 0.26563,0.6875 0.65625,1.35937 0.39063,0.67188 0.89063,1.28125 h -2.59375 q -0.9375,-1.32812 -1.40625,-2.71875 -0.46875,-1.40625 -0.46875,-2.73437 0,-1.28125 0.42187,-2.29688 0.40625,-1.01562 1.09375,-1.70312 0.6875,-0.6875 1.60938,-1.04688 0.90625,-0.375 1.92187,-0.375 1.35938,0 2.42188,0.54688 1.07812,0.53125 2.01562,1.71875 z m 4.8125,26.5625 -2.5,7.6875 H 440.875 l 1.82812,-7.6875 z M 480.46875,129 h -3.28125 v 21 h -2.5625 v -13.5625 h -5.03125 l -0.0156,0.0625 q 0.1875,0.21875 0.5625,0.67187 0.375,0.4375 0.75,1.09375 0.375,0.64063 0.65625,1.46875 0.28125,0.8125 0.28125,1.76563 0,0.95312 -0.32812,1.89062 -0.3125,0.92188 -0.95313,1.67188 -0.625,0.73437 -1.59375,1.1875 -0.96875,0.45312 -2.25,0.45312 -1.26562,0 -2.32812,-0.4375 -1.04688,-0.45312 -1.92188,-1.20312 -0.85937,-0.75 -1.54687,-1.73438 -0.6875,-0.98437 -1.23438,-2.07812 -0.53125,-1.10938 -0.9375,-2.23438 -0.39062,-1.14062 -0.67187,-2.17187 -0.28125,-1.04688 -0.45313,-1.92188 -0.17187,-0.875 -0.26562,-1.45312 l 2.3125,-0.45313 q 0.51562,2.8125 1.25,4.9375 0.75,2.10938 1.65625,3.53125 0.90625,1.42188 1.95312,2.14063 1.04688,0.70312 2.1875,0.70312 0.8125,0 1.3125,-0.3125 0.5,-0.32812 0.78125,-0.78125 0.28125,-0.46875 0.375,-0.95312 0.10938,-0.5 0.10938,-0.85938 0,-0.64062 -0.26563,-1.35937 -0.25,-0.73438 -0.75,-1.45313 -0.48437,-0.73437 -1.21875,-1.40625 -0.73437,-0.67187 -1.6875,-1.21875 v -1.82812 H 474.625 V 129 h -19.20313 v -2.29687 h 25.04688 z m 8.3125,0 H 485.5 v 21 h -2.5625 v -21 h -3.5625 v -2.29687 h 3.8125 q -0.28125,-1.59375 -0.71875,-2.71875 -0.4375,-1.14063 -0.95313,-1.89063 -0.51562,-0.76562 -1.07812,-1.20312 -0.5625,-0.4375 -1.07813,-0.65625 -0.53125,-0.21875 -0.98437,-0.28125 -0.46875,-0.0625 -0.76563,-0.0625 -0.96875,0 -1.54687,0.3125 -0.59375,0.29687 -0.90625,0.71875 -0.3125,0.42187 -0.40625,0.89062 -0.10938,0.45313 -0.10938,0.78125 0,0.125 0.0469,0.51563 0.0312,0.375 0.25,0.95312 0.20312,0.57813 0.64062,1.29688 0.4375,0.71875 1.23438,1.51562 h -2.65625 q -0.98438,-1.125 -1.46875,-2.32812 -0.5,-1.21875 -0.5,-2.35938 0,-0.95312 0.34375,-1.8125 0.34375,-0.85937 1.03125,-1.48437 0.6875,-0.64063 1.71875,-1.01563 1.03125,-0.375 2.39062,-0.375 1.875,0 3.23438,0.73438 1.35937,0.71875 2.28125,1.96875 0.9375,1.25 1.46875,2.9375 0.54687,1.67187 0.76562,3.5625 h 3.35938 z m 18.8125,0 h -3.28125 v 21 H 501.75 v -5.57813 l -0.0625,-0.0156 q -0.3125,0.29687 -0.73438,0.625 -0.42187,0.3125 -0.96875,0.57812 -0.54687,0.25 -1.23437,0.42188 -0.67188,0.17187 -1.51563,0.17187 -1.54687,0 -2.82812,-0.59375 -1.26563,-0.59375 -2.1875,-1.57812 -0.92188,-1 -1.4375,-2.28125 -0.5,-1.29688 -0.5,-2.70313 0,-1.40625 0.5,-2.60937 0.51562,-1.21875 1.40625,-2.10938 0.89062,-0.89062 2.07812,-1.39062 1.1875,-0.51563 2.54688,-0.51563 0.375,0 0.9375,0.0625 0.57812,0.0625 1.23437,0.28125 0.65625,0.21875 1.35938,0.64063 0.70312,0.40625 1.34375,1.10937 L 501.75,134.5 V 129 h -14.0625 v -2.29687 h 19.90625 z m -5.78125,8.42187 q -0.98438,-1.1875 -2.14063,-1.90625 -1.15625,-0.73437 -2.625,-0.73437 -1.15625,0 -1.96875,0.4375 -0.79687,0.4375 -1.3125,1.10937 -0.51562,0.65625 -0.75,1.46875 -0.23437,0.8125 -0.23437,1.5625 0,0.8125 0.26562,1.60938 0.26563,0.79687 0.78125,1.4375 0.53125,0.625 1.3125,1.03125 0.78125,0.39062 1.82813,0.39062 1.07812,0 1.96875,-0.40625 0.89062,-0.42187 1.53125,-1.0625 0.64062,-0.64062 0.98437,-1.4375 0.35938,-0.79687 0.35938,-1.54687 z m -0.70313,-15.48437 q 0,-0.89062 0.53125,-1.4375 0.51563,-0.5625 1.35938,-0.5625 0.39062,0 0.75,0.15625 0.34375,0.15625 0.60937,0.4375 0.26563,0.26563 0.42188,0.64063 0.14062,0.35937 0.14062,0.79687 0,0.89063 -0.51562,1.4375 -0.53125,0.54688 -1.375,0.54688 -0.40625,0 -0.75,-0.14063 -0.35938,-0.15625 -0.60938,-0.42187 -0.26562,-0.28125 -0.40625,-0.64063 -0.15625,-0.375 -0.15625,-0.8125 z M 527.17187,129 h -3.28125 v 21 h -2.54687 v -13.71875 h -5.07813 q -1.04687,0 -1.89062,0.14062 -0.84375,0.125 -1.4375,0.53125 -0.59375,0.39063 -0.92188,1.10938 -0.3125,0.70312 -0.3125,1.85937 0,1.5 0.48438,2.76563 0.5,1.26562 1.26562,2.32812 0.76563,1.04688 1.6875,1.9375 0.9375,0.89063 1.79688,1.64063 l -1.5625,1.78125 q -0.14063,-0.0781 -0.67188,-0.45313 -0.51562,-0.39062 -1.21875,-1.04687 -0.6875,-0.65625 -1.46875,-1.59375 -0.76562,-0.9375 -1.42187,-2.10938 -0.64063,-1.1875 -1.07813,-2.60937 -0.42187,-1.42188 -0.42187,-3.0625 0,-1.625 0.45312,-2.6875 0.46875,-1.07813 1.3125,-1.70313 0.84375,-0.64062 2.04688,-0.89062 1.20312,-0.25 2.6875,-0.25 h 5.75 V 129 H 506.5 v -2.29687 h 20.67187 z m 31.70313,0 h -3.28125 v 21 h -2.5625 v -8.76563 h -8.20313 v 2.23438 q 0,0.23437 -0.0469,0.5 -0.0312,0.26562 -0.15625,0.5 -0.10938,0.21875 -0.3125,0.375 -0.1875,0.14062 -0.48438,0.14062 -0.35937,0 -0.85937,-0.21875 -0.48438,-0.23437 -1.01563,-0.60937 -0.51562,-0.39063 -1.03125,-0.875 -0.5,-0.5 -0.90625,-1.03125 -0.39062,-0.53125 -0.64062,-1.0625 -0.25,-0.53125 -0.25,-0.98438 0,-0.65625 0.46875,-0.95312 0.46875,-0.29688 1.23437,-0.29688 h 1.51563 V 130.375 q 0,-0.8125 -0.39063,-1.23438 -0.39062,-0.4375 -0.98437,-0.4375 -0.65625,0 -1.10938,0.48438 -0.4375,0.48437 -0.4375,1.23437 0,0.14063 0.0312,0.34375 0.0312,0.20313 0.15625,0.46875 0.125,0.25 0.375,0.57813 0.25,0.3125 0.67188,0.67187 l -1.39063,1.70313 q -0.71875,-0.39063 -1.17187,-0.85938 -0.45313,-0.48437 -0.70313,-0.98437 -0.25,-0.5 -0.34375,-0.96875 -0.0937,-0.48438 -0.0937,-0.89063 0,-0.75 0.25,-1.46875 0.26563,-0.73437 0.78125,-1.31249 0.51563,-0.59375 1.28125,-0.95313 0.78125,-0.35937 1.8125,-0.35937 0.90625,0 1.60938,0.29687 0.70312,0.29688 1.17187,0.85938 0.48438,0.54687 0.71875,1.32812 0.25,0.76562 0.25,1.71875 v 8.35937 h 8.20313 v -12.24999 h 5.84375 z m 8.3125,0 h -3.28125 v 21 h -2.5625 v -21 h -3.5625 v -2.29687 h 9.40625 z M 586,129 h -3.28125 v 21 h -2.5625 v -5.57813 l -0.0625,-0.0156 q -0.3125,0.29687 -0.73438,0.625 -0.42187,0.3125 -0.96875,0.57812 -0.54687,0.25 -1.23437,0.42188 -0.67188,0.17187 -1.51563,0.17187 -1.54687,0 -2.82812,-0.59375 -1.26563,-0.59375 -2.1875,-1.57812 -0.92188,-1 -1.4375,-2.28125 -0.5,-1.29688 -0.5,-2.70313 0,-1.40625 0.5,-2.60937 0.51562,-1.21875 1.40625,-2.10938 0.89062,-0.89062 2.07812,-1.39062 1.1875,-0.51563 2.54688,-0.51563 0.375,0 0.9375,0.0625 0.57812,0.0625 1.23437,0.28125 0.65625,0.21875 1.35938,0.64063 0.70312,0.40625 1.34375,1.10937 l 0.0625,-0.0156 V 129 h -14.0625 v -2.29687 H 586 Z m -5.78125,8.42187 q -0.98438,-1.1875 -2.14063,-1.90625 -1.15625,-0.73437 -2.625,-0.73437 -1.15625,0 -1.96875,0.4375 -0.79687,0.4375 -1.3125,1.10937 -0.51562,0.65625 -0.75,1.46875 -0.23437,0.8125 -0.23437,1.5625 0,0.8125 0.26562,1.60938 0.26563,0.79687 0.78125,1.4375 0.53125,0.625 1.3125,1.03125 0.78125,0.39062 1.82813,0.39062 1.07812,0 1.96875,-0.40625 0.89062,-0.42187 1.53125,-1.0625 0.64062,-0.64062 0.98437,-1.4375 0.35938,-0.79687 0.35938,-1.54687 z m 8.71875,12.92188 q -0.71875,0 -1.23438,-0.51563 -0.5,-0.51562 -0.5,-1.23437 0,-0.71875 0.5,-1.23438 0.51563,-0.53125 1.23438,-0.53125 0.73437,0 1.25,0.53125 0.51562,0.51563 0.51562,1.23438 0,0.71875 -0.51562,1.23437 -0.51563,0.51563 -1.25,0.51563 z"
         id="path5" />
      <path
         d="m 69.8125,179 h -3.28125 v 21 h -2.578125 v -7.46875 l -0.0625,-0.0156 q -1.046875,0.9375 -2.34375,1.34375 -1.296875,0.39063 -2.5625,0.39063 -1.34375,0 -2.453125,-0.39063 -1.109375,-0.39062 -1.90625,-1.1875 -0.796875,-0.8125 -1.25,-2.03125 -0.4375,-1.23437 -0.4375,-2.92187 V 179 h -3.484375 v -2.29688 H 69.8125 Z m -5.859375,0 H 55.46875 v 8.57812 q 0,0.98438 0.15625,1.76563 0.171875,0.78125 0.5625,1.32812 0.40625,0.54688 1.0625,0.84375 0.65625,0.28125 1.640625,0.28125 1.609375,0 2.90625,-0.75 1.296875,-0.76562 2.15625,-2 z M 78.125,179 h -3.28125 v 21 h -2.5625 v -21 h -3.5625 v -2.29688 H 78.125 Z m -3.390625,-1.85938 H 72.65625 l -0.5625,-0.5 q -1.21875,-1.07812 -2.15625,-1.8125 -0.921875,-0.75 -1.640625,-1.23437 -0.71875,-0.48438 -1.28125,-0.75 -0.5625,-0.26563 -1.046875,-0.39063 -0.484375,-0.125 -0.9375,-0.14062 -0.453125,-0.0312 -0.953125,-0.0312 h -3 v -2.21875 h 2.78125 q 0.6875,0 1.265625,0.0937 0.578125,0.0781 1.125,0.29687 0.53125,0.20313 1.078125,0.54688 0.546875,0.32812 1.203125,0.84375 0.640625,0.51562 1.421875,1.21875 0.796875,0.70312 1.8125,1.625 l 0.09375,-0.0625 q -0.90625,-1.48438 -1.609375,-2.5625 -0.703125,-1.09375 -1.28125,-1.84375 -0.578125,-0.76563 -1.0625,-1.25 -0.484375,-0.48438 -0.9375,-0.75 -0.453125,-0.26563 -0.921875,-0.35938 -0.46875,-0.0937 -1.015625,-0.0937 H 62 v -2.29687 h 2.859375 q 0.90625,0 1.625,0.17187 0.703125,0.17188 1.359375,0.625 0.640625,0.45313 1.28125,1.23438 0.640625,0.78125 1.390625,2.01562 0.765625,1.21875 1.6875,2.9375 0.9375,1.70313 2.171875,4.01563 z M 93.765625,179 H 87.875 q 0.796875,1.375 1.28125,2.8125 0.5,1.42187 0.5,2.89062 0,1.10938 -0.34375,2.14063 -0.328125,1.01562 -0.984375,1.82812 -0.640625,0.79688 -1.609375,1.3125 -0.953125,0.5 -2.203125,0.5625 l -0.03125,0.0781 q 1.40625,2.1875 3.15625,4.14062 1.75,1.9375 4.046875,3.6875 l -1.671875,1.92188 q -1.328125,-0.98438 -2.53125,-2.125 -1.1875,-1.15625 -2.25,-2.375 -1.0625,-1.23438 -1.984375,-2.48438 -0.90625,-1.26562 -1.671875,-2.45312 -0.75,-1.20313 -1.34375,-2.29688 -0.59375,-1.10937 -1.015625,-2.01562 l 2.140625,-1.15625 q 0.5625,1.21875 1.265625,1.92187 0.71875,0.6875 1.65625,0.6875 0.671875,0 1.203125,-0.34375 0.53125,-0.34375 0.890625,-0.875 0.359375,-0.54687 0.546875,-1.1875 0.1875,-0.65625 0.1875,-1.28125 0,-0.73437 -0.1875,-1.4375 -0.1875,-0.71875 -0.484375,-1.39062 -0.296875,-0.6875 -0.671875,-1.32813 Q 85.40625,179.59375 85.0625,179 h -8.03125 v -2.29688 h 16.734375 z m 8.312505,0 h -3.281255 v 21 h -2.5625 v -21 h -3.5625 v -2.29688 h 9.406255 z m 8.3125,0 h -3.28125 v 21 h -2.5625 v -21 h -3.5625 v -2.29688 h 3.5625 q -0.85938,-2.0625 -0.85938,-3.84375 0,-1.14062 0.375,-2.125 0.375,-0.98437 1.14063,-1.70312 0.78125,-0.71875 1.98437,-1.125 1.20313,-0.40625 2.85938,-0.40625 2.17187,0 4.17187,0.70312 2.01563,0.70313 3.9375,1.95313 1.92188,1.25 3.79688,2.96875 1.89062,1.71875 3.8125,3.75 h -2.71875 q -0.4375,-0.42188 -1.17188,-1.09375 -0.71875,-0.6875 -1.67187,-1.45313 -0.95313,-0.78125 -2.10938,-1.5625 -1.15625,-0.79687 -2.4375,-1.4375 -1.28125,-0.64062 -2.67187,-1.03125 -1.375,-0.40625 -2.78125,-0.40625 -1.14063,0 -1.92188,0.26563 -0.76562,0.26562 -1.25,0.73437 -0.46875,0.46875 -0.67187,1.10938 -0.20313,0.625 -0.20313,1.34375 0,1.40625 0.76563,3.35937 h 3.46875 z m 23.71874,0 h -3.28125 v 21 h -2.5625 v -21 h -3.87499 v 9.67187 q 0,1.625 -0.45313,2.79688 -0.4375,1.17187 -1.21875,1.9375 -0.76562,0.76562 -1.79687,1.14062 -1.03125,0.35938 -2.21875,0.35938 -1.32813,0 -2.40625,-0.42188 -1.0625,-0.42187 -1.8125,-1.25 -0.75,-0.82812 -1.15625,-2.04687 -0.40625,-1.23438 -0.40625,-2.82813 V 179 h -3.625 v -2.29688 h 24.81249 z m -18.59374,0 v 9.84375 q 0,0.71875 0.15625,1.39062 0.17187,0.65625 0.53125,1.17188 0.375,0.51562 0.96875,0.82812 0.60937,0.3125 1.48437,0.3125 0.89063,0 1.48438,-0.3125 0.60937,-0.3125 0.98437,-0.82812 0.375,-0.51563 0.53125,-1.17188 0.17188,-0.67187 0.17188,-1.39062 V 179 Z m 46.21874,0 h -13.20312 v 6.15625 l 0.0781,0.0312 q 0.79688,-1.09375 1.98438,-1.75 1.1875,-0.67188 2.60937,-0.67188 1.125,0 2.07813,0.46875 0.96875,0.45313 1.67187,1.26563 0.70313,0.79687 1.09375,1.89062 0.40625,1.09375 0.40625,2.35938 0,1.4375 -0.5,2.65625 -0.5,1.20312 -1.28125,2.1875 -0.78125,0.98437 -1.76562,1.75 -0.98438,0.75 -1.9375,1.28125 l -1.39063,-2.40625 q 0.3125,-0.17188 0.76563,-0.45313 0.45312,-0.28125 0.9375,-0.65625 0.5,-0.375 0.96875,-0.84375 0.48437,-0.48437 0.85937,-1.04687 0.39063,-0.5625 0.625,-1.21875 0.23438,-0.65625 0.23438,-1.39063 0,-0.67187 -0.21875,-1.28125 -0.20313,-0.60937 -0.57813,-1.0625 -0.375,-0.45312 -0.90625,-0.71875 -0.51562,-0.26562 -1.14062,-0.26562 -0.8125,0 -1.57813,0.42187 -0.76562,0.42188 -1.39062,1.0625 -0.625,0.625 -1.0625,1.34375 -0.42188,0.71875 -0.5625,1.32813 V 200 h -2.5625 v -5.98438 l -0.0625,-0.0312 q -0.23438,0.20313 -0.59375,0.5 -0.35938,0.28125 -0.875,0.54688 -0.5,0.26562 -1.17188,0.45312 -0.65625,0.1875 -1.48437,0.1875 -1.375,0 -2.54688,-0.53125 -1.15625,-0.53125 -2.01562,-1.4375 -0.84375,-0.92187 -1.32813,-2.15625 -0.48437,-1.23437 -0.48437,-2.64062 0,-1.34375 0.4375,-2.48438 0.45312,-1.14062 1.21875,-1.95312 0.78125,-0.82813 1.8125,-1.28125 1.04687,-0.46875 2.25,-0.46875 0.84375,0 1.5625,0.21875 0.73437,0.20312 1.32812,0.51562 0.60938,0.29688 1.07813,0.65625 0.48437,0.34375 0.8125,0.625 l 0.0625,-0.0156 V 179 h -12.95313 v -2.29688 h 28.71875 z M 141.5,185.15625 q -0.89063,0 -1.57813,0.375 -0.67187,0.35937 -1.125,0.9375 -0.45312,0.5625 -0.6875,1.28125 -0.21875,0.70312 -0.21875,1.39062 0,0.75 0.26563,1.5 0.26562,0.73438 0.75,1.32813 0.5,0.59375 1.1875,0.96875 0.6875,0.35937 1.51562,0.35937 0.70313,0 1.46875,-0.28125 0.78125,-0.29687 1.42188,-0.90625 0.65625,-0.60937 1.07812,-1.54687 Q 146,189.60937 146,188.29687 v -0.76562 q -0.375,-0.46875 -0.89063,-0.89063 -0.5,-0.4375 -1.09375,-0.76562 -0.57812,-0.32813 -1.21875,-0.51563 -0.64062,-0.20312 -1.29687,-0.20312 z M 198.125,179 h -13.20313 v 6.15625 L 185,185.1875 q 0.79687,-1.09375 1.98437,-1.75 1.1875,-0.67188 2.60938,-0.67188 1.125,0 2.07812,0.46875 0.96875,0.45313 1.67188,1.26563 0.70312,0.79687 1.09375,1.89062 0.40625,1.09375 0.40625,2.35938 0,1.4375 -0.5,2.65625 -0.5,1.20312 -1.28125,2.1875 -0.78125,0.98437 -1.76563,1.75 -0.98437,0.75 -1.9375,1.28125 l -1.39062,-2.40625 q 0.3125,-0.17188 0.76562,-0.45313 0.45313,-0.28125 0.9375,-0.65625 0.5,-0.375 0.96875,-0.84375 0.48438,-0.48437 0.85938,-1.04687 0.39062,-0.5625 0.625,-1.21875 0.23437,-0.65625 0.23437,-1.39063 0,-0.67187 -0.21875,-1.28125 -0.20312,-0.60937 -0.57812,-1.0625 -0.375,-0.45312 -0.90625,-0.71875 -0.51563,-0.26562 -1.14063,-0.26562 -0.8125,0 -1.57812,0.42187 -0.76563,0.42188 -1.39063,1.0625 -0.625,0.625 -1.0625,1.34375 -0.42187,0.71875 -0.5625,1.32813 V 200 h -2.5625 v -5.98438 l -0.0625,-0.0312 q -0.23437,0.20313 -0.59375,0.5 -0.35937,0.28125 -0.875,0.54688 -0.5,0.26562 -1.17187,0.45312 -0.65625,0.1875 -1.48438,0.1875 -1.375,0 -2.54687,-0.53125 -1.15625,-0.53125 -2.01563,-1.4375 -0.84375,-0.92187 -1.32812,-2.15625 -0.48438,-1.23437 -0.48438,-2.64062 0,-1.34375 0.4375,-2.48438 0.45313,-1.14062 1.21875,-1.95312 0.78125,-0.82813 1.8125,-1.28125 1.04688,-0.46875 2.25,-0.46875 0.84375,0 1.5625,0.21875 0.73438,0.20312 1.32813,0.51562 0.60937,0.29688 1.07812,0.65625 0.48438,0.34375 0.8125,0.625 l 0.0625,-0.0156 V 179 h -12.95312 v -2.29688 H 198.125 Z m -20.23438,6.15625 q -0.89062,0 -1.57812,0.375 -0.67188,0.35937 -1.125,0.9375 -0.45313,0.5625 -0.6875,1.28125 -0.21875,0.70312 -0.21875,1.39062 0,0.75 0.26562,1.5 0.26563,0.73438 0.75,1.32813 0.5,0.59375 1.1875,0.96875 0.6875,0.35937 1.51563,0.35937 0.70312,0 1.46875,-0.28125 0.78125,-0.29687 1.42187,-0.90625 0.65625,-0.60937 1.07813,-1.54687 0.42187,-0.95313 0.42187,-2.26563 v -0.76562 q -0.375,-0.46875 -0.89062,-0.89063 -0.5,-0.4375 -1.09375,-0.76562 -0.57813,-0.32813 -1.21875,-0.51563 -0.64063,-0.20312 -1.29688,-0.20312 z m 29.70313,-3.6875 q 0,1.125 -0.28125,2.15625 -0.28125,1.03125 -0.84375,1.90625 -0.5625,0.85937 -1.40625,1.54687 -0.82813,0.67188 -1.95313,1.10938 0.23438,1.0625 0.65625,1.8125 0.42188,0.73437 1,1.21875 0.57813,0.48437 1.28125,0.70312 0.70313,0.21875 1.48438,0.21875 1.5625,0 2.89062,-0.71875 1.34375,-0.71875 2.25,-1.98437 v -12.73438 h 5.84375 V 179 h -3.28125 v 21 h -2.5625 v -7.3125 l -0.0625,-0.0156 q -0.40625,0.34375 -0.96875,0.6875 -0.5625,0.32813 -1.25,0.59375 -0.67187,0.25 -1.45312,0.42188 -0.78125,0.15625 -1.625,0.15625 -1.75,0 -3,-0.67188 -1.23438,-0.6875 -2.07813,-1.79687 -0.82812,-1.10938 -1.3125,-2.51563 -0.46875,-1.42187 -0.67187,-2.90625 1.375,-0.28125 2.29687,-0.8125 0.9375,-0.53125 1.5,-1.21875 0.5625,-0.70312 0.79688,-1.5 0.25,-0.8125 0.25,-1.64062 0,-1.375 -0.54688,-2.0625 -0.53125,-0.70313 -1.34375,-0.70313 -0.71875,0 -1.15625,0.48438 -0.4375,0.48437 -0.4375,1.23437 0,0.14063 0.0312,0.34375 0.0312,0.20313 0.15625,0.46875 0.125,0.25 0.375,0.57813 0.25,0.3125 0.67188,0.67187 l -1.39063,1.70313 q -0.71875,-0.39063 -1.17187,-0.85938 -0.45313,-0.48437 -0.70313,-0.98437 -0.25,-0.5 -0.34375,-0.96875 -0.0937,-0.48438 -0.0937,-0.89063 0,-0.75 0.25,-1.46875 0.26563,-0.73437 0.78125,-1.3125 0.51563,-0.59375 1.29688,-0.95312 0.78125,-0.35938 1.82812,-0.35938 1.04688,0 1.84375,0.375 0.79688,0.375 1.34375,1.04688 0.54688,0.67187 0.82813,1.60937 0.28125,0.92188 0.28125,2.04688 z M 226.82812,179 h -3.28125 v 21 h -2.5625 v -21 h -3.5625 v -2.29688 h 9.40625 z m 4.39063,17.4375 -2.5,7.6875 h -1.82813 l 1.82813,-7.6875 z M 262.48437,179 h -3.28125 v 21 h -2.5625 v -21 h -7.04687 v 12.125 q 0,0.25 -0.0312,0.57812 -0.0312,0.32813 -0.15625,0.64063 -0.10938,0.29687 -0.32813,0.51562 -0.21875,0.20313 -0.60937,0.20313 -0.42188,0 -0.9375,-0.26563 -0.5,-0.28125 -1.03125,-0.71875 -0.53125,-0.45312 -1.03125,-1.01562 -0.48438,-0.5625 -0.875,-1.15625 -0.39063,-0.59375 -0.625,-1.15625 -0.23438,-0.5625 -0.23438,-1 0,-0.39063 0.1875,-0.625 0.20313,-0.23438 0.54688,-0.35938 0.35937,-0.125 0.85937,-0.15625 0.51563,-0.0312 1.125,-0.0312 H 247 V 179 h -5.5625 v -2.29688 h 21.04687 z m 8.3125,0 h -3.28125 v 21 h -2.5625 v -21 h -3.5625 v -2.29688 h 9.40625 z m 18.8125,0 h -3.28125 v 21 h -2.5625 v -5.57813 l -0.0625,-0.0156 q -0.3125,0.29687 -0.73437,0.625 -0.42188,0.3125 -0.96875,0.57812 -0.54688,0.25 -1.23438,0.42188 -0.67187,0.17187 -1.51562,0.17187 -1.54688,0 -2.82813,-0.59375 -1.26562,-0.59375 -2.1875,-1.57812 -0.92187,-1 -1.4375,-2.28125 -0.5,-1.29688 -0.5,-2.70313 0,-1.40625 0.5,-2.60937 0.51563,-1.21875 1.40625,-2.10938 0.89063,-0.89062 2.07813,-1.39062 1.1875,-0.51563 2.54687,-0.51563 0.375,0 0.9375,0.0625 0.57813,0.0625 1.23438,0.28125 0.65625,0.21875 1.35937,0.64063 0.70313,0.40625 1.34375,1.10937 l 0.0625,-0.0156 V 179 h -14.0625 v -2.29688 h 19.90625 z m -5.78125,8.42187 q -0.98437,-1.1875 -2.14062,-1.90625 -1.15625,-0.73437 -2.625,-0.73437 -1.15625,0 -1.96875,0.4375 -0.79688,0.4375 -1.3125,1.10937 -0.51563,0.65625 -0.75,1.46875 -0.23438,0.8125 -0.23438,1.5625 0,0.8125 0.26563,1.60938 0.26562,0.79687 0.78125,1.4375 0.53125,0.625 1.3125,1.03125 0.78125,0.39062 1.82812,0.39062 1.07813,0 1.96875,-0.40625 0.89063,-0.42187 1.53125,-1.0625 0.64063,-0.64062 0.98438,-1.4375 0.35937,-0.79687 0.35937,-1.54687 z M 297.92187,179 h -3.28125 v 21 h -2.5625 v -21 h -3.5625 v -2.29688 h 9.40625 z m -3.5,-1.85938 h -2.26562 l -1.42188,-2.67187 q -0.90625,-1.70313 -1.65625,-2.70313 -0.73437,-1 -1.39062,-1.51562 -0.67188,-0.53125 -1.3125,-0.67188 -0.64063,-0.15625 -1.34375,-0.15625 H 282 v -2.53125 h 2.85937 q 0.90625,0 1.64063,0.15625 0.73437,0.14063 1.40625,0.53125 0.65625,0.375 1.28125,1.0625 0.64062,0.67188 1.35937,1.75 0.71875,1.0625 1.5625,2.5625 0.85938,1.48438 1.95313,3.51563 z M 317.875,179 h -3.28125 v 21 h -2.5625 v -21 h -7.04688 v 12.125 q 0,0.25 -0.0312,0.57812 -0.0312,0.32813 -0.15625,0.64063 -0.10937,0.29687 -0.32812,0.51562 -0.21875,0.20313 -0.60938,0.20313 -0.42187,0 -0.9375,-0.26563 -0.5,-0.28125 -1.03125,-0.71875 -0.53125,-0.45312 -1.03125,-1.01562 -0.48437,-0.5625 -0.875,-1.15625 -0.39062,-0.59375 -0.625,-1.15625 -0.23437,-0.5625 -0.23437,-1 0,-0.39063 0.1875,-0.625 0.20312,-0.23438 0.54687,-0.35938 0.35938,-0.125 0.85938,-0.15625 0.51562,-0.0312 1.125,-0.0312 h 0.54687 V 179 h -5.5625 v -2.29688 H 317.875 Z m 8.3125,0 h -3.28125 v 21 h -2.5625 v -21 h -3.5625 v -2.29688 h 9.40625 z M 345,179 h -3.28125 v 21 h -2.5625 v -5.57813 l -0.0625,-0.0156 q -0.3125,0.29687 -0.73438,0.625 -0.42187,0.3125 -0.96875,0.57812 -0.54687,0.25 -1.23437,0.42188 -0.67188,0.17187 -1.51563,0.17187 -1.54687,0 -2.82812,-0.59375 -1.26563,-0.59375 -2.1875,-1.57812 -0.92188,-1 -1.4375,-2.28125 -0.5,-1.29688 -0.5,-2.70313 0,-1.40625 0.5,-2.60937 0.51562,-1.21875 1.40625,-2.10938 0.89062,-0.89062 2.07812,-1.39062 1.1875,-0.51563 2.54688,-0.51563 0.375,0 0.9375,0.0625 0.57812,0.0625 1.23437,0.28125 0.65625,0.21875 1.35938,0.64063 0.70312,0.40625 1.34375,1.10937 l 0.0625,-0.0156 V 179 h -14.0625 v -2.29688 H 345 Z m -5.78125,8.42187 q -0.98438,-1.1875 -2.14063,-1.90625 -1.15625,-0.73437 -2.625,-0.73437 -1.15625,0 -1.96875,0.4375 -0.79687,0.4375 -1.3125,1.10937 -0.51562,0.65625 -0.75,1.46875 -0.23437,0.8125 -0.23437,1.5625 0,0.8125 0.26562,1.60938 0.26563,0.79687 0.78125,1.4375 0.53125,0.625 1.3125,1.03125 0.78125,0.39062 1.82813,0.39062 1.07812,0 1.96875,-0.40625 0.89062,-0.42187 1.53125,-1.0625 0.64062,-0.64062 0.98437,-1.4375 0.35938,-0.79687 0.35938,-1.54687 z m 34.5,-8.42187 h -3.28125 v 21 h -2.5625 v -21 h -7.04688 v 12.125 q 0,0.25 -0.0312,0.57812 -0.0312,0.32813 -0.15625,0.64063 -0.10937,0.29687 -0.32812,0.51562 -0.21875,0.20313 -0.60938,0.20313 -0.42187,0 -0.9375,-0.26563 -0.5,-0.28125 -1.03125,-0.71875 -0.53125,-0.45312 -1.03125,-1.01562 -0.48437,-0.5625 -0.875,-1.15625 -0.39062,-0.59375 -0.625,-1.15625 -0.23437,-0.5625 -0.23437,-1 0,-0.39063 0.1875,-0.625 0.20312,-0.23438 0.54687,-0.35938 0.35938,-0.125 0.85938,-0.15625 0.51562,-0.0312 1.125,-0.0312 h 0.54687 V 179 h -5.5625 v -2.29688 h 21.04688 z m 8.3125,0 H 378.75 v 21 h -2.5625 v -21 h -3.5625 v -2.29688 h 9.40625 z m 17.5625,0 h -3.5625 v 9.67187 q 0,1.625 -0.45313,2.79688 -0.4375,1.17187 -1.21875,1.9375 -0.76562,0.76562 -1.79687,1.14062 -1.03125,0.35938 -2.21875,0.35938 -1.32813,0 -2.40625,-0.42188 -1.0625,-0.42187 -1.8125,-1.25 -0.75,-0.82812 -1.15625,-2.04687 -0.40625,-1.23438 -0.40625,-2.82813 V 179 h -3.625 v -2.29688 h 18.65625 z m -12.4375,0 v 9.84375 q 0,0.71875 0.15625,1.39062 0.17187,0.65625 0.53125,1.17188 0.375,0.51562 0.96875,0.82812 0.60937,0.3125 1.48437,0.3125 0.89063,0 1.48438,-0.3125 0.60937,-0.3125 0.98437,-0.82812 0.375,-0.51563 0.53125,-1.17188 0.17188,-0.67187 0.17188,-1.39062 V 179 Z m 30.40625,0 h -3.28125 v 21 h -2.5625 v -7.3125 l -0.0625,-0.0156 q -0.42188,0.34375 -1.01563,0.6875 -0.57812,0.32813 -1.29687,0.59375 -0.71875,0.25 -1.54688,0.42188 -0.82812,0.15625 -1.73437,0.15625 -1.8125,0 -3.10938,-0.65625 -1.28125,-0.65625 -2.15625,-1.75 -0.85937,-1.10938 -1.35937,-2.51563 -0.5,-1.42187 -0.71875,-2.95312 1.03125,-0.14063 1.76562,-0.48438 0.73438,-0.34375 1.1875,-0.8125 0.45313,-0.48437 0.65625,-1.04687 0.21875,-0.5625 0.21875,-1.125 0,-0.375 -0.0781,-0.84375 -0.0625,-0.46875 -0.23438,-1 -0.17187,-0.54688 -0.45312,-1.14063 Q 401.5,179.60937 401.07812,179 h -4.51562 v -2.29688 h 21 z m -13.71875,0 q 0.5625,0.95312 0.875,2.09375 0.32812,1.125 0.32812,2.21875 0,0.79687 -0.21875,1.54687 -0.20312,0.75 -0.64062,1.40625 -0.4375,0.64063 -1.09375,1.15625 -0.64063,0.5 -1.5,0.79688 0.25,1.04687 0.6875,1.79687 0.4375,0.73438 1.03125,1.21875 0.59375,0.46875 1.32812,0.6875 0.73438,0.21875 1.57813,0.21875 0.8125,0 1.59375,-0.1875 0.79687,-0.1875 1.5,-0.53125 0.71875,-0.35937 1.32812,-0.85937 0.60938,-0.5 1.07813,-1.125 V 179 Z m 22.03125,0 h -3.28125 v 21 h -2.5625 v -21 h -3.5625 v -2.29688 h 9.40625 z m 4.39062,17.4375 -2.5,7.6875 h -1.82812 l 1.82812,-7.6875 z"
         id="path6" />
      <path
         d="M 78.171875,229 H 64.96875 v 6.15625 l 0.07813,0.0312 q 0.796875,-1.09375 1.984375,-1.75 1.1875,-0.67188 2.609375,-0.67188 1.125,0 2.078125,0.46875 0.96875,0.45313 1.671875,1.26563 0.703125,0.79687 1.09375,1.89062 0.40625,1.09375 0.40625,2.35938 0,1.4375 -0.5,2.65625 -0.5,1.20312 -1.28125,2.1875 -0.78125,0.98437 -1.765625,1.75 -0.984375,0.75 -1.9375,1.28125 l -1.390625,-2.40625 q 0.3125,-0.17188 0.765625,-0.45313 0.453125,-0.28125 0.9375,-0.65625 0.5,-0.375 0.96875,-0.84375 0.484375,-0.48437 0.859375,-1.04687 0.390625,-0.5625 0.625,-1.21875 0.234375,-0.65625 0.234375,-1.39063 0,-0.67187 -0.21875,-1.28125 -0.203125,-0.60937 -0.578125,-1.0625 -0.375,-0.45312 -0.90625,-0.71875 -0.515625,-0.26562 -1.140625,-0.26562 -0.8125,0 -1.578125,0.42187 -0.765625,0.42188 -1.390625,1.0625 -0.625,0.625 -1.0625,1.34375 -0.421875,0.71875 -0.5625,1.32813 V 250 h -2.5625 v -5.98438 l -0.0625,-0.0312 q -0.234375,0.20313 -0.59375,0.5 -0.359375,0.28125 -0.875,0.54688 -0.5,0.26562 -1.171875,0.45312 -0.65625,0.1875 -1.484375,0.1875 -1.375,0 -2.546875,-0.53125 -1.15625,-0.53125 -2.015625,-1.4375 -0.84375,-0.92187 -1.328125,-2.15625 -0.484375,-1.23437 -0.484375,-2.64062 0,-1.34375 0.4375,-2.48438 0.453125,-1.14062 1.21875,-1.95312 0.78125,-0.82813 1.8125,-1.28125 1.046875,-0.46875 2.25,-0.46875 0.84375,0 1.5625,0.21875 0.734375,0.20312 1.328125,0.51562 0.609375,0.29688 1.078125,0.65625 0.484375,0.34375 0.8125,0.625 l 0.0625,-0.0156 V 229 H 49.453125 v -2.29688 h 28.71875 z M 57.9375,235.15625 q -0.890625,0 -1.578125,0.375 -0.671875,0.35937 -1.125,0.9375 -0.453125,0.5625 -0.6875,1.28125 -0.21875,0.70312 -0.21875,1.39062 0,0.75 0.265625,1.5 0.265625,0.73438 0.75,1.32813 0.5,0.59375 1.1875,0.96875 0.6875,0.35937 1.515625,0.35937 0.703125,0 1.46875,-0.28125 0.78125,-0.29687 1.421875,-0.90625 0.65625,-0.60937 1.078125,-1.54687 0.421875,-0.95313 0.421875,-2.26563 v -0.76562 q -0.375,-0.46875 -0.890625,-0.89063 -0.5,-0.4375 -1.09375,-0.76562 -0.578125,-0.32813 -1.21875,-0.51563 -0.640625,-0.20312 -1.296875,-0.20312 z M 86.484375,229 h -3.28125 v 21 h -2.5625 v -21 h -3.5625 v -2.29688 h 9.40625 z M 94,246.46875 q -1.390625,0 -2.53125,-0.51563 -1.140625,-0.51562 -1.96875,-1.42187 -0.8125,-0.92188 -1.265625,-2.15625 -0.453125,-1.25 -0.453125,-2.6875 0,-1.5625 0.484375,-2.8125 0.484375,-1.26563 1.328125,-2.15625 0.859375,-0.89063 2,-1.35938 1.15625,-0.48437 2.484375,-0.48437 1.703125,0 3.21875,0.8125 1.515625,0.79687 3.031255,2.35937 0.70312,-1.09375 1.64062,-1.89062 0.9375,-0.8125 2.3125,-1.0625 V 229 H 85.390625 v -2.29688 H 114.65625 V 229 h -7.82812 v 4.17187 q 1.04687,0.25 1.89062,0.82813 0.84375,0.57812 1.42188,1.39062 0.59375,0.8125 0.90625,1.82813 0.32812,1 0.32812,2.10937 0,1.625 -0.5625,2.95313 -0.54687,1.32812 -1.48437,2.29687 -0.92188,0.95313 -2.10938,1.48438 -1.1875,0.51562 -2.45312,0.51562 -1.64063,0 -3.0625,-0.76562 -1.42188,-0.76563 -2.812505,-2.10938 -0.40625,0.59375 -0.90625,1.10938 -0.484375,0.5 -1.078125,0.875 -0.59375,0.35937 -1.3125,0.57812 Q 94.875,246.46875 94,246.46875 Z m 0.328125,-11.3125 q -0.9375,0 -1.6875,0.375 -0.734375,0.35937 -1.265625,0.98437 -0.53125,0.60938 -0.8125,1.45313 -0.28125,0.82812 -0.28125,1.76562 0,0.8125 0.234375,1.59375 0.234375,0.78125 0.6875,1.39063 0.46875,0.60937 1.15625,0.98437 0.6875,0.375 1.578125,0.375 1.09375,0 1.859375,-0.54687 0.78125,-0.5625 1.375,-1.45313 0.609375,-0.89062 1.109375,-2 0.5,-1.125 1.046875,-2.25 -1.1875,-1.375 -2.46875,-2.01562 -1.265625,-0.65625 -2.53125,-0.65625 z m 10.062505,9.03125 q 0.90625,0 1.71875,-0.28125 0.8125,-0.29688 1.42187,-0.875 0.625,-0.59375 0.98438,-1.46875 0.375,-0.89063 0.375,-2.09375 0,-0.76563 -0.20313,-1.51563 -0.1875,-0.75 -0.59375,-1.34375 -0.40625,-0.59375 -1.04687,-0.95312 -0.625,-0.375 -1.48438,-0.375 -0.76562,0 -1.375,0.29687 -0.60937,0.28125 -1.10937,0.78125 -0.5,0.48438 -0.92188,1.15625 -0.40625,0.65625 -0.78125,1.42188 -0.375,0.75 -0.75,1.5625 -0.35937,0.79687 -0.765625,1.57812 0.390625,0.39063 0.875005,0.76563 0.5,0.375 1.0625,0.67187 0.57812,0.29688 1.23437,0.48438 0.65625,0.1875 1.35938,0.1875 z M 122.96875,229 h -3.28125 v 21 h -2.5625 v -21 h -3.5625 v -2.29688 h 9.40625 z m 12.98437,0 H 121.875 v -2.29688 h 14.07812 z m 3.75,13.45312 q -1.09375,1.125 -2.10937,1.76563 -1,0.64062 -1.85938,0.95312 -0.84375,0.3125 -1.5,0.39063 -0.64062,0.0625 -1.01562,0.0625 -1.4375,0 -2.54688,-0.45313 -1.10937,-0.45312 -1.85937,-1.1875 -0.75,-0.75 -1.14062,-1.70312 -0.39063,-0.96875 -0.39063,-2 0,-1.07813 0.4375,-2.14063 0.45312,-1.0625 1.40625,-1.90625 l -0.0156,-0.0625 h -4.95312 V 233.875 h 12.25 v 2.29687 h -1.29688 q -1.60937,0 -2.64062,0.42188 -1.03125,0.42187 -1.625,1.03125 -0.59375,0.60937 -0.82813,1.3125 -0.21875,0.6875 -0.21875,1.25 0,0.46875 0.15625,1.01562 0.15625,0.53125 0.51563,0.98438 0.375,0.45312 0.98437,0.75 0.625,0.29687 1.5625,0.29687 0.98438,0 1.82813,-0.3125 0.85937,-0.32812 1.57812,-0.82812 0.71875,-0.5 1.29688,-1.10938 0.59375,-0.60937 1.01562,-1.20312 z M 156.17187,229 h -3.28125 v 21 h -2.5625 v -7.3125 l -0.0625,-0.0156 q -0.42187,0.34375 -1.01562,0.6875 -0.57813,0.32813 -1.29688,0.59375 -0.71875,0.25 -1.54687,0.42188 -0.82813,0.15625 -1.73438,0.15625 -1.8125,0 -3.10937,-0.65625 -1.28125,-0.65625 -2.15625,-1.75 -0.85938,-1.10938 -1.35938,-2.51563 -0.5,-1.42187 -0.71875,-2.95312 1.03125,-0.14063 1.76563,-0.48438 0.73437,-0.34375 1.1875,-0.8125 0.45312,-0.48437 0.65625,-1.04687 0.21875,-0.5625 0.21875,-1.125 0,-0.375 -0.0781,-0.84375 -0.0625,-0.46875 -0.23437,-1 -0.17188,-0.54688 -0.45313,-1.14063 Q 140.10937,229.60937 139.6875,229 h -4.51563 v -2.29688 h 21 z m -13.71875,0 q 0.5625,0.95312 0.875,2.09375 0.32813,1.125 0.32813,2.21875 0,0.79687 -0.21875,1.54687 -0.20313,0.75 -0.64063,1.40625 -0.4375,0.64063 -1.09375,1.15625 -0.64062,0.5 -1.5,0.79688 0.25,1.04687 0.6875,1.79687 0.4375,0.73438 1.03125,1.21875 0.59375,0.46875 1.32813,0.6875 0.73437,0.21875 1.57812,0.21875 0.8125,0 1.59375,-0.1875 0.79688,-0.1875 1.5,-0.53125 0.71875,-0.35937 1.32813,-0.85937 0.60937,-0.5 1.07812,-1.125 V 229 Z m 22.03125,0 h -3.28125 v 21 h -2.5625 v -21 h -3.5625 v -2.29688 h 9.40625 z m 28.03125,0 h -3.28125 v 21 h -2.57812 v -7.46875 l -0.0625,-0.0156 q -1.04688,0.9375 -2.34375,1.34375 -1.29688,0.39063 -2.5625,0.39063 -1.34375,0 -2.45313,-0.39063 -1.10937,-0.39062 -1.90625,-1.1875 -0.79687,-0.8125 -1.25,-2.03125 -0.4375,-1.23437 -0.4375,-2.92187 V 229 h -3.48437 v -2.29688 h 20.35937 z m -5.85937,0 h -8.48438 v 8.57812 q 0,0.98438 0.15625,1.76563 0.17188,0.78125 0.5625,1.32812 0.40625,0.54688 1.0625,0.84375 0.65625,0.28125 1.64063,0.28125 1.60937,0 2.90625,-0.75 1.29687,-0.76562 2.15625,-2 z m 28.75,0 H 210.75 v 5.76562 h -7.82813 q -1.15625,0 -1.60937,0.32813 -0.4375,0.32812 -0.4375,1.0625 0,0.375 0.0937,0.78125 0.0937,0.40625 0.34375,0.76562 0.25,0.34375 0.67187,0.57813 0.4375,0.21875 1.10938,0.21875 h 4.42187 q 1.375,0 2.3125,0.375 0.95313,0.375 1.51563,1.03125 0.57812,0.65625 0.82812,1.54687 0.25,0.89063 0.25,1.90625 0,1.39063 -0.46875,2.65625 -0.45312,1.26563 -1.35937,2.23438 -0.90625,0.96875 -2.26563,1.54687 -1.34375,0.57813 -3.14062,0.57813 -1.95313,0 -3.75,-0.71875 -1.78125,-0.73438 -3.28125,-2.03125 -1.48438,-1.29688 -2.625,-3.07813 -1.125,-1.78125 -1.76563,-3.90625 l 2.17188,-0.85937 q 0.54687,1.60937 1.45312,3.09375 0.90625,1.48437 2.09375,2.625 1.20313,1.14062 2.64063,1.82812 1.4375,0.67188 3.03125,0.67188 1.125,0 2,-0.32813 0.89062,-0.32812 1.51562,-0.9375 0.625,-0.60937 0.95313,-1.45312 0.32812,-0.85938 0.32812,-1.92188 0,-0.75 -0.17187,-1.21875 -0.17188,-0.48437 -0.54688,-0.75 -0.35937,-0.26562 -0.92187,-0.35937 -0.5625,-0.10938 -1.34375,-0.10938 H 202.875 q -1.15625,0 -2,-0.5 -0.84375,-0.5 -1.40625,-1.26562 -0.54688,-0.76563 -0.8125,-1.6875 -0.26563,-0.9375 -0.26563,-1.79688 0,-0.92187 0.29688,-1.53125 0.29687,-0.625 0.8125,-0.98437 0.51562,-0.375 1.21875,-0.53125 0.71875,-0.15625 1.54687,-0.15625 h 5.92188 V 229 h -16.76563 v -2.29688 h 23.98438 z m 20.54687,0 h -3.28125 v 21 h -2.5625 v -6.03125 l -0.0625,-0.0156 q -1.26562,1.375 -2.59375,1.9375 -1.32812,0.5625 -2.70312,0.5625 -1.26563,0 -2.34375,-0.40625 -1.07813,-0.42187 -1.875,-1.15625 -0.78125,-0.75 -1.23438,-1.78125 -0.4375,-1.03125 -0.4375,-2.28125 0,-1.125 0.42188,-2.09375 0.4375,-0.96875 1.51562,-1.8125 l -0.0156,-0.0625 q -0.92188,-0.23437 -1.64063,-0.71875 -0.71875,-0.48437 -1.21875,-1.14062 -0.48437,-0.67188 -0.75,-1.46875 -0.25,-0.79688 -0.25,-1.64063 0,-0.70312 0.17188,-1.48437 0.1875,-0.79688 0.57812,-1.40625 h -3.35937 v -2.29688 h 21.64062 z m -15.64062,0 q -0.45313,0.5625 -0.67188,1.29687 -0.21875,0.73438 -0.21875,1.39063 0,0.6875 0.23438,1.29687 0.23437,0.59375 0.6875,1.04688 0.46875,0.45312 1.14062,0.71875 0.67188,0.26562 1.54688,0.26562 0.67187,0 1.28125,-0.10937 0.625,-0.125 1.03125,-0.23438 l 0.42187,2.40625 q -0.25,0.0312 -0.67187,0.125 -0.42188,0.0937 -0.92188,0.28125 -0.48437,0.17188 -1,0.46875 -0.5,0.28125 -0.90625,0.70313 -0.40625,0.42187 -0.67187,1 -0.25,0.57812 -0.25,1.32812 0,0.71875 0.23437,1.29688 0.25,0.5625 0.6875,0.96875 0.4375,0.39062 1.03125,0.60937 0.60938,0.20313 1.34375,0.20313 1.04688,0 1.92188,-0.39063 0.875,-0.40625 1.5625,-0.98437 0.6875,-0.59375 1.1875,-1.26563 0.5,-0.6875 0.79687,-1.23437 V 229 Z m 37.1875,0 h -3.28125 v 21 h -2.5625 v -8.76563 h -8.59375 v 1.85938 q 0,0.48437 -0.0469,0.85937 -0.0312,0.375 -0.17187,0.625 -0.125,0.25 -0.375,0.39063 -0.23438,0.125 -0.64063,0.125 -0.40625,0 -0.90625,-0.23438 -0.5,-0.25 -1.01562,-0.65625 -0.51563,-0.42187 -1,-0.9375 -0.48438,-0.53125 -0.875,-1.09375 -0.375,-0.57812 -0.60938,-1.14062 -0.23437,-0.5625 -0.23437,-1.03125 0,-0.32813 0.10937,-0.53125 0.125,-0.21875 0.32813,-0.32813 0.21875,-0.10937 0.51562,-0.14062 0.29688,-0.0469 0.67188,-0.0469 H 240.5 V 229 h -5.64063 v -2.29688 H 257.5 Z m -14.4375,0 v 9.95312 h 8.59375 V 229 Z m 22.75,0 h -3.28125 v 21 h -2.5625 v -21 h -3.5625 v -2.29688 h 9.40625 z m 4.39062,17.4375 -2.5,7.6875 H 265.875 l 1.82812,-7.6875 z M 309.14062,229 H 295.9375 v 6.15625 l 0.0781,0.0312 q 0.79688,-1.09375 1.98438,-1.75 1.1875,-0.67188 2.60937,-0.67188 1.125,0 2.07813,0.46875 0.96875,0.45313 1.67187,1.26563 0.70313,0.79687 1.09375,1.89062 0.40625,1.09375 0.40625,2.35938 0,1.4375 -0.5,2.65625 -0.5,1.20312 -1.28125,2.1875 -0.78125,0.98437 -1.76562,1.75 -0.98438,0.75 -1.9375,1.28125 l -1.39063,-2.40625 q 0.3125,-0.17188 0.76563,-0.45313 0.45312,-0.28125 0.9375,-0.65625 0.5,-0.375 0.96875,-0.84375 0.48437,-0.48437 0.85937,-1.04687 0.39063,-0.5625 0.625,-1.21875 0.23438,-0.65625 0.23438,-1.39063 0,-0.67187 -0.21875,-1.28125 -0.20313,-0.60937 -0.57813,-1.0625 -0.375,-0.45312 -0.90625,-0.71875 -0.51562,-0.26562 -1.14062,-0.26562 -0.8125,0 -1.57813,0.42187 -0.76562,0.42188 -1.39062,1.0625 -0.625,0.625 -1.0625,1.34375 -0.42188,0.71875 -0.5625,1.32813 V 250 h -2.5625 v -5.98438 l -0.0625,-0.0312 q -0.23438,0.20313 -0.59375,0.5 -0.35938,0.28125 -0.875,0.54688 -0.5,0.26562 -1.17188,0.45312 -0.65625,0.1875 -1.48437,0.1875 -1.375,0 -2.54688,-0.53125 -1.15625,-0.53125 -2.01562,-1.4375 -0.84375,-0.92187 -1.32813,-2.15625 -0.48437,-1.23437 -0.48437,-2.64062 0,-1.34375 0.4375,-2.48438 0.45312,-1.14062 1.21875,-1.95312 0.78125,-0.82813 1.8125,-1.28125 1.04687,-0.46875 2.25,-0.46875 0.84375,0 1.5625,0.21875 0.73437,0.20312 1.32812,0.51562 0.60938,0.29688 1.07813,0.65625 0.48437,0.34375 0.8125,0.625 l 0.0625,-0.0156 V 229 h -12.95313 v -2.29688 h 28.71875 z m -20.23437,6.15625 q -0.89063,0 -1.57813,0.375 -0.67187,0.35937 -1.125,0.9375 -0.45312,0.5625 -0.6875,1.28125 -0.21875,0.70312 -0.21875,1.39062 0,0.75 0.26563,1.5 0.26562,0.73438 0.75,1.32813 0.5,0.59375 1.1875,0.96875 0.6875,0.35937 1.51562,0.35937 0.70313,0 1.46875,-0.28125 0.78125,-0.29687 1.42188,-0.90625 0.65625,-0.60937 1.07812,-1.54687 0.42188,-0.95313 0.42188,-2.26563 v -0.76562 q -0.375,-0.46875 -0.89063,-0.89063 -0.5,-0.4375 -1.09375,-0.76562 -0.57812,-0.32813 -1.21875,-0.51563 -0.64062,-0.20312 -1.29687,-0.20312 z M 317.45312,229 h -3.28125 v 21 h -2.5625 v -21 h -3.5625 v -2.29688 h 9.40625 z m 18.8125,0 h -3.28125 v 21 h -2.5625 v -5.57813 l -0.0625,-0.0156 q -0.3125,0.29687 -0.73437,0.625 -0.42188,0.3125 -0.96875,0.57812 -0.54688,0.25 -1.23438,0.42188 -0.67187,0.17187 -1.51562,0.17187 -1.54688,0 -2.82813,-0.59375 -1.26562,-0.59375 -2.1875,-1.57812 -0.92187,-1 -1.4375,-2.28125 -0.5,-1.29688 -0.5,-2.70313 0,-1.40625 0.5,-2.60937 0.51563,-1.21875 1.40625,-2.10938 0.89063,-0.89062 2.07813,-1.39062 1.1875,-0.51563 2.54687,-0.51563 0.375,0 0.9375,0.0625 0.57813,0.0625 1.23438,0.28125 0.65625,0.21875 1.35937,0.64063 0.70313,0.40625 1.34375,1.10937 l 0.0625,-0.0156 V 229 h -14.0625 v -2.29688 h 19.90625 z m -5.78125,8.42187 q -0.98437,-1.1875 -2.14062,-1.90625 -1.15625,-0.73437 -2.625,-0.73437 -1.15625,0 -1.96875,0.4375 -0.79688,0.4375 -1.3125,1.10937 -0.51563,0.65625 -0.75,1.46875 -0.23438,0.8125 -0.23438,1.5625 0,0.8125 0.26563,1.60938 0.26562,0.79687 0.78125,1.4375 0.53125,0.625 1.3125,1.03125 0.78125,0.39062 1.82812,0.39062 1.07813,0 1.96875,-0.40625 0.89063,-0.42187 1.53125,-1.0625 0.64063,-0.64062 0.98438,-1.4375 0.35937,-0.79687 0.35937,-1.54687 z m 2.28125,-10.28125 H 330.5 l -1.42188,-2.67187 q -0.90625,-1.70313 -1.64062,-2.70313 -0.75,-1 -1.40625,-1.51562 -0.67188,-0.53125 -1.3125,-0.67188 -0.64063,-0.15625 -1.34375,-0.15625 h -3.03125 v -2.53125 h 2.85937 q 0.90625,0 1.64063,0.15625 0.73437,0.14063 1.40625,0.53125 0.65625,0.375 1.29687,1.0625 0.625,0.67188 1.34375,1.75 0.71875,1.0625 1.57813,2.5625 0.84375,1.48438 1.9375,3.51563 z M 351.90625,229 h -5.89063 q 0.79688,1.375 1.28125,2.8125 0.5,1.42187 0.5,2.89062 0,1.10938 -0.34375,2.14063 -0.32812,1.01562 -0.98437,1.82812 -0.64063,0.79688 -1.60938,1.3125 -0.95312,0.5 -2.20312,0.5625 l -0.0312,0.0781 q 1.40625,2.1875 3.15625,4.14062 1.75,1.9375 4.04687,3.6875 l -1.67187,1.92188 q -1.32813,-0.98438 -2.53125,-2.125 -1.1875,-1.15625 -2.25,-2.375 -1.0625,-1.23438 -1.98438,-2.48438 -0.90625,-1.26562 -1.67187,-2.45312 -0.75,-1.20313 -1.34375,-2.29688 -0.59375,-1.10937 -1.01563,-2.01562 L 339.5,235.46875 q 0.5625,1.21875 1.26562,1.92187 0.71875,0.6875 1.65625,0.6875 0.67188,0 1.20313,-0.34375 0.53125,-0.34375 0.89062,-0.875 0.35938,-0.54687 0.54688,-1.1875 0.1875,-0.65625 0.1875,-1.28125 0,-0.73437 -0.1875,-1.4375 -0.1875,-0.71875 -0.48438,-1.39062 -0.29687,-0.6875 -0.67187,-1.32813 -0.35938,-0.64062 -0.70313,-1.23437 h -8.03125 v -2.29688 h 16.73438 z m 8.3125,0 h -3.28125 v 21 h -2.5625 v -21 h -3.5625 v -2.29688 h 3.8125 q -0.28125,-1.59375 -0.71875,-2.71875 -0.4375,-1.14062 -0.95313,-1.89062 -0.51562,-0.76563 -1.07812,-1.20313 -0.5625,-0.4375 -1.07813,-0.65625 -0.53125,-0.21875 -0.98437,-0.28125 -0.46875,-0.0625 -0.76563,-0.0625 -0.96875,0 -1.54687,0.3125 -0.59375,0.29688 -0.90625,0.71875 -0.3125,0.42188 -0.40625,0.89063 -0.10938,0.45312 -0.10938,0.78125 0,0.125 0.0469,0.51562 0.0312,0.375 0.25,0.95313 0.20312,0.57812 0.64062,1.29687 0.4375,0.71875 1.23438,1.51563 h -2.65625 q -0.98438,-1.125 -1.46875,-2.32813 -0.5,-1.21875 -0.5,-2.35937 0,-0.95313 0.34375,-1.8125 0.34375,-0.85938 1.03125,-1.48438 0.6875,-0.64062 1.71875,-1.01562 1.03125,-0.375 2.39062,-0.375 1.875,0 3.23438,0.73437 1.35937,0.71875 2.28125,1.96875 0.9375,1.25 1.46875,2.9375 0.54687,1.67188 0.76562,3.5625 h 3.35938 z m 22.85937,0 h -3.28125 v 21.01562 h -2.5625 V 235.375 q -0.82812,-0.29688 -1.5625,-0.29688 -0.73437,0 -1.28125,0.28125 -0.54687,0.26563 -0.92187,0.71875 -0.35938,0.45313 -0.54688,1.0625 -0.1875,0.60938 -0.1875,1.28125 0,0.26563 0.0156,0.54688 0.0312,0.26562 0.0625,0.53125 h -2.39063 q -0.125,-0.90625 -0.29687,-1.73438 -0.15625,-0.82812 -0.46875,-1.45312 -0.29688,-0.625 -0.78125,-0.98438 -0.48438,-0.375 -1.25,-0.375 -0.73438,0 -1.26563,0.29688 -0.51562,0.29687 -0.85937,0.82812 -0.34375,0.53125 -0.51563,1.25 -0.15625,0.70313 -0.15625,1.53125 0,1.78125 0.60938,3.20313 0.60937,1.40625 1.64062,2.53125 1.04688,1.125 2.40625,2.01562 1.375,0.875 2.89063,1.60938 l -1.26563,2.15625 q -0.5625,-0.25 -1.45312,-0.75 -0.875,-0.5 -1.875,-1.23438 -0.98438,-0.73437 -1.98438,-1.71875 -1,-0.98437 -1.8125,-2.20312 -0.79687,-1.21875 -1.29687,-2.6875 -0.5,-1.46875 -0.5,-3.17188 0,-1.3125 0.375,-2.4375 0.375,-1.14062 1.0625,-1.96875 0.70312,-0.84375 1.6875,-1.3125 0.98437,-0.48437 2.1875,-0.48437 0.90625,0 1.5625,0.26562 0.65625,0.25 1.125,0.64063 0.48437,0.375 0.79687,0.82812 0.3125,0.4375 0.54688,0.82813 l 0.0781,-0.0156 q 0.29688,-0.65625 0.70313,-1.10937 0.42187,-0.45313 0.90625,-0.73438 0.5,-0.28125 1.04687,-0.40625 0.54688,-0.14062 1.09375,-0.14062 0.48438,0 0.95313,0.0937 0.48437,0.0781 0.92187,0.23437 V 229 H 359.125 v -2.29688 h 23.95312 z m 8.3125,0 h -3.28125 v 21 h -2.5625 v -21 h -3.5625 v -2.29688 h 9.40625 z m 30.3125,0 h -3.28125 v 21 h -2.5625 v -8.76563 h -8.59375 v 1.85938 q 0,0.48437 -0.0469,0.85937 -0.0312,0.375 -0.17188,0.625 -0.125,0.25 -0.375,0.39063 -0.23437,0.125 -0.64062,0.125 -0.40625,0 -0.90625,-0.23438 -0.5,-0.25 -1.01563,-0.65625 -0.51562,-0.42187 -1,-0.9375 -0.48437,-0.53125 -0.875,-1.09375 -0.375,-0.57812 -0.60937,-1.14062 -0.23438,-0.5625 -0.23438,-1.03125 0,-0.32813 0.10938,-0.53125 0.125,-0.21875 0.32812,-0.32813 0.21875,-0.10937 0.51563,-0.14062 0.29687,-0.0469 0.67187,-0.0469 h 1.6875 V 229 h -5.64062 v -2.29688 h 22.64062 z m -14.4375,0 v 9.95312 h 8.59375 V 229 Z m 22.75,0 h -3.28125 v 21 h -2.5625 v -21 h -3.5625 v -2.29688 h 9.40625 z m 19.4375,0 h -3.28125 v 21 h -2.57812 v -12.04688 h -7.3125 q 0,1.03125 -0.0312,1.76563 -0.0156,0.73437 -0.125,1.21875 -0.10938,0.46875 -0.32813,0.6875 -0.21875,0.21875 -0.60937,0.21875 -0.8125,0 -1.54688,-0.53125 -0.71875,-0.53125 -1.28125,-1.28125 -0.54687,-0.75 -0.875,-1.5625 -0.32812,-0.8125 -0.32812,-1.375 0,-0.5 0.21875,-0.78125 0.21875,-0.28125 0.57812,-0.42188 0.35938,-0.14062 0.8125,-0.17187 0.46875,-0.0312 0.9375,-0.0312 h 9.89063 V 229 h -14.67188 v -2.29688 h 20.53125 z m 23.71875,0 h -3.28125 v 21 h -2.5625 v -21 h -3.875 v 9.67187 q 0,1.625 -0.45312,2.79688 -0.4375,1.17187 -1.21875,1.9375 -0.76563,0.76562 -1.79688,1.14062 -1.03125,0.35938 -2.21875,0.35938 -1.32812,0 -2.40625,-0.42188 -1.0625,-0.42187 -1.8125,-1.25 -0.75,-0.82812 -1.15625,-2.04687 -0.40625,-1.23438 -0.40625,-2.82813 V 229 h -3.625 v -2.29688 h 24.8125 z m -18.59375,0 v 9.84375 q 0,0.71875 0.15625,1.39062 0.17188,0.65625 0.53125,1.17188 0.375,0.51562 0.96875,0.82812 0.60938,0.3125 1.48438,0.3125 0.89062,0 1.48437,-0.3125 0.60938,-0.3125 0.98438,-0.82812 0.375,-0.51563 0.53125,-1.17188 0.17187,-0.67187 0.17187,-1.39062 V 229 Z m 15.09375,-1.85938 h -2.26562 l -1.42188,-2.67187 q -0.90625,-1.70313 -1.64062,-2.70313 -0.75,-1 -1.40625,-1.51562 -0.67188,-0.53125 -1.3125,-0.67188 -0.64063,-0.15625 -1.34375,-0.15625 H 457.25 v -2.53125 h 2.85937 q 0.90625,0 1.64063,0.15625 0.73437,0.14063 1.40625,0.53125 0.65625,0.375 1.29687,1.0625 0.625,0.67188 1.34375,1.75 0.71875,1.0625 1.57813,2.5625 0.84375,1.48438 1.9375,3.51563 z m 6.4375,23.20313 q -0.71875,0 -1.23437,-0.51563 -0.5,-0.51562 -0.5,-1.23437 0,-0.71875 0.5,-1.23438 0.51562,-0.53125 1.23437,-0.53125 0.73438,0 1.25,0.53125 0.51563,0.51563 0.51563,1.23438 0,0.71875 -0.51563,1.23437 -0.51562,0.51563 -1.25,0.51563 z"
         id="path7" />
    </g>
  </g>
</svg>
