<?xml version="1.0" encoding="UTF-8" standalone="no"?>
<svg
   width="600"
   height="100"
   version="1.1"
   id="svg1"
   xmlns="http://www.w3.org/2000/svg"
   xmlns:svg="http://www.w3.org/2000/svg">
  <defs
     id="defs1" />
  <path
     d="m 21.025391,43.4375 h -5.605469 q -0.517578,0.341797 -1.240234,0.410156 l -0.01953,0.04883 q 0.947266,1.484375 2.080078,2.763672 1.132813,1.279297 2.578125,2.373047 l -1.044922,1.201172 Q 16.943359,49.619141 16.191406,48.90625 15.449219,48.193359 14.785156,47.431641 14.130859,46.660156 13.554688,45.878906 12.978516,45.087891 12.5,44.326172 12.021484,43.564453 11.640625,42.861328 11.259766,42.148437 10.976563,41.542969 l 1.33789,-0.722657 Q 12.5,41.25 12.675781,41.542969 q 0.185547,0.283203 0.371094,0.458984 0.185547,0.166016 0.390625,0.244141 0.205078,0.06836 0.439453,0.06836 0.673828,0 0.986328,-0.527344 0.322266,-0.527343 0.322266,-1.386718 0,-0.507813 -0.09766,-0.996094 Q 14.990234,38.90625 14.833984,38.457031 14.6875,37.998047 14.511719,37.597656 14.335938,37.197266 14.179688,36.875 H 9.6582031 V 35.439453 H 20.791016 V 36.875 h -4.921875 q 0.410156,0.888672 0.644531,1.787109 0.234375,0.898438 0.234375,1.78711 0,0.410156 -0.06836,0.810547 -0.05859,0.390625 -0.205078,0.742187 l 0.01953,0.01953 h 4.384765 z M 30.576172,36.875 H 28.525391 V 50 h -1.601563 v -3.486328 l -0.03906,-0.0098 q -0.195313,0.185547 -0.458985,0.390625 -0.263672,0.195313 -0.605469,0.361328 -0.341796,0.15625 -0.771484,0.263672 -0.419922,0.107422 -0.947266,0.107422 -0.966796,0 -1.767578,-0.371094 -0.791015,-0.371093 -1.367187,-0.986328 -0.576172,-0.625 -0.898438,-1.425781 -0.3125,-0.810547 -0.3125,-1.689453 0,-0.878906 0.3125,-1.63086 0.322266,-0.761718 0.878907,-1.318359 0.55664,-0.556641 1.298828,-0.869141 0.742187,-0.322265 1.591797,-0.322265 0.234375,0 0.585937,0.03906 0.361328,0.03906 0.771484,0.175782 0.410157,0.136718 0.84961,0.40039 0.439453,0.253906 0.839844,0.69336 l 0.03906,-0.0098 V 36.875 h -8.789062 v -1.435547 h 12.441406 z m -3.613281,5.263672 Q 26.347656,41.396484 25.625,40.947266 q -0.722656,-0.458985 -1.640625,-0.458985 -0.722656,0 -1.230469,0.273438 -0.498047,0.273437 -0.820312,0.693359 -0.322266,0.410156 -0.46875,0.917969 -0.146485,0.507812 -0.146485,0.976562 0,0.507813 0.166016,1.00586 0.166016,0.498047 0.488281,0.898437 0.332031,0.390625 0.820313,0.644531 0.488281,0.244141 1.142578,0.244141 0.673828,0 1.230469,-0.253906 0.55664,-0.263672 0.957031,-0.664063 0.40039,-0.40039 0.615234,-0.898437 0.22461,-0.498047 0.22461,-0.966797 z M 42.617187,36.875 H 40.566406 V 50 h -1.611328 v -4.599609 l -0.0293,-0.0098 -4.169922,2.617187 q 0.322266,0.644532 0.46875,1.054688 0.15625,0.410156 0.15625,0.761719 0,0.322265 -0.15625,0.498047 -0.146484,0.185546 -0.605468,0.185546 -0.517579,0 -0.976563,-0.224609 Q 33.183594,50.068359 32.841797,49.746094 32.5,49.423828 32.294922,49.072266 q -0.195313,-0.351563 -0.195313,-0.615235 0,-0.166015 0.07813,-0.302734 0.07813,-0.146485 0.214844,-0.263672 0.136719,-0.126953 0.302734,-0.234375 0.175782,-0.117188 0.371094,-0.234375 L 34.980469,46.25 l -0.0098,-0.0293 q -0.664062,-0.08789 -1.201172,-0.361328 -0.537109,-0.283203 -0.917969,-0.761719 -0.371093,-0.478515 -0.576171,-1.162109 -0.205079,-0.69336 -0.205079,-1.611328 V 36.875 h -2.177734 v -1.435547 h 12.724609 z m -3.662109,0 h -5.302734 v 5.361328 q 0,0.615234 0.09766,1.103516 0.107422,0.488281 0.351562,0.830078 0.253907,0.341797 0.654297,0.527344 0.400391,0.175781 1.00586,0.175781 0.947265,0 1.748047,-0.419922 0.800781,-0.429688 1.445312,-1.113281 z m 18.574219,7.646484 h -4.990235 v 1.16211 q 0,0.302734 -0.0293,0.537109 -0.01953,0.234375 -0.107422,0.390625 -0.07813,0.15625 -0.234375,0.244141 -0.146485,0.07813 -0.400391,0.07813 -0.253906,0 -0.566406,-0.146485 -0.3125,-0.15625 -0.634766,-0.410156 -0.322265,-0.263672 -0.625,-0.585937 -0.302734,-0.332032 -0.546875,-0.683594 -0.234375,-0.361328 -0.380859,-0.712891 -0.146485,-0.351562 -0.146485,-0.644531 0,-0.205078 0.06836,-0.332031 0.07813,-0.136719 0.205078,-0.205078 0.136719,-0.06836 0.322266,-0.08789 0.185546,-0.0293 0.419921,-0.0293 H 50.9375 V 36.875 h -3.525391 v -1.435547 h 9.296875 V 36.875 h -4.169922 v 6.220703 h 4.990235 z m 4.199219,2.72461 q 0.322265,-0.09766 0.634765,-0.244141 0.322266,-0.146484 0.566406,-0.351562 0.253907,-0.214844 0.410157,-0.498047 0.15625,-0.283203 0.15625,-0.664063 0,-0.810547 -0.673828,-1.259765 -0.673829,-0.458985 -1.914063,-0.458985 -0.498047,0 -1.025391,0.107422 -0.517578,0.09766 -0.947265,0.371094 -0.429688,0.263672 -0.703125,0.732422 -0.273438,0.458984 -0.273438,1.171875 0,0.722656 0.283203,1.347656 0.283204,0.615234 0.732422,1.132812 0.458985,0.517579 1.025391,0.9375 0.566406,0.419922 1.123047,0.742188 0.566406,0.322266 1.064453,0.537109 0.498047,0.22461 0.830078,0.351563 l -0.644531,1.347656 q -0.683594,-0.292969 -1.396485,-0.644531 -0.703125,-0.341797 -1.367187,-0.761719 -0.664063,-0.410156 -1.25,-0.908203 -0.585938,-0.498047 -1.025391,-1.103516 -0.429687,-0.605468 -0.683593,-1.328125 -0.244141,-0.722656 -0.244141,-1.572265 0,-0.830078 0.214844,-1.445313 0.224609,-0.625 0.615234,-1.09375 -0.537109,-0.615234 -0.791016,-1.240234 -0.253906,-0.625 -0.253906,-1.357422 0,-0.419922 0.09766,-0.791016 0.107422,-0.371093 0.371094,-0.644531 0.273438,-0.283203 0.751953,-0.449219 0.478516,-0.166015 1.240235,-0.166015 h 4.423828 V 36.875 H 54.228516 V 35.439453 H 66.953125 V 36.875 h -2.275391 v 3.59375 H 59.0625 q -0.380859,0 -0.644531,0.06836 -0.253907,0.05859 -0.410157,0.185547 -0.15625,0.126953 -0.224609,0.322266 -0.05859,0.185547 -0.05859,0.439453 0,0.341797 0.117188,0.664062 0.117187,0.322266 0.439453,0.722657 0.566406,-0.292969 1.240234,-0.429688 0.683594,-0.146484 1.425782,-0.146484 0.859375,0 1.601562,0.195312 0.751953,0.195313 1.298828,0.595703 0.556641,0.390625 0.869141,1.00586 0.322265,0.605469 0.322265,1.425781 0,0.791016 -0.273437,1.337891 -0.263672,0.546875 -0.673828,0.917968 -0.400391,0.371094 -0.878906,0.605469 -0.478516,0.22461 -0.888672,0.371094 z M 81.777344,36.875 H 79.726562 V 50 H 78.125 V 36.875 h -2.421875 v 6.044922 q 0,1.015625 -0.283203,1.748047 -0.273438,0.732422 -0.761719,1.210937 -0.478516,0.478516 -1.123047,0.712891 -0.644531,0.224609 -1.386719,0.224609 -0.830078,0 -1.503906,-0.263672 -0.664062,-0.263672 -1.132812,-0.78125 -0.46875,-0.517578 -0.722657,-1.279297 -0.253906,-0.771484 -0.253906,-1.767578 V 36.875 h -2.265625 v -1.435547 h 15.507813 z m -11.621094,0 v 6.152344 q 0,0.449218 0.09766,0.86914 0.107422,0.410157 0.332031,0.732422 0.234375,0.322266 0.605469,0.517578 0.38086,0.195313 0.927735,0.195313 0.55664,0 0.927734,-0.195313 0.380859,-0.195312 0.615234,-0.517578 0.234375,-0.322265 0.332032,-0.732422 0.107421,-0.419922 0.107421,-0.86914 V 36.875 Z m 26.591797,0 H 94.697266 V 50 h -1.601563 v -8.476563 h -3.144531 l -0.0098,0.03906 q 0.117188,0.136719 0.351563,0.419922 0.234375,0.273437 0.46875,0.683594 0.234375,0.40039 0.410156,0.917968 0.175781,0.507813 0.175781,1.103516 0,0.595703 -0.205078,1.181641 -0.195312,0.576171 -0.595703,1.044921 -0.390625,0.458985 -0.996094,0.742188 -0.605469,0.283203 -1.40625,0.283203 -0.791015,0 -1.455078,-0.273437 -0.654297,-0.283204 -1.201172,-0.751954 -0.537109,-0.46875 -0.966797,-1.083984 Q 84.091797,45.214844 83.75,44.53125 83.417969,43.837891 83.164062,43.134766 82.919922,42.421875 82.744141,41.777344 82.568359,41.123047 82.460937,40.576172 82.353516,40.029297 82.294922,39.667969 l 1.445312,-0.283203 q 0.322266,1.757812 0.78125,3.085937 0.46875,1.318359 1.035157,2.207031 0.566406,0.888672 1.220703,1.337891 0.654297,0.439453 1.367187,0.439453 0.507813,0 0.820313,-0.195312 0.3125,-0.205079 0.488281,-0.488282 0.175781,-0.292968 0.234375,-0.595703 0.06836,-0.3125 0.06836,-0.537109 0,-0.400391 -0.166015,-0.84961 -0.15625,-0.458984 -0.46875,-0.908203 -0.302735,-0.458984 -0.761719,-0.878906 -0.458984,-0.419922 -1.054688,-0.761719 v -1.142578 h 5.791016 V 36.875 H 81.09375 v -1.435547 h 15.654297 z m -2.1875,-1.162109 h -1.416016 l -0.888672,-1.669922 q -0.566406,-1.064453 -1.02539,-1.689453 -0.46875,-0.625 -0.878907,-0.947266 -0.419921,-0.332031 -0.820312,-0.419922 -0.400391,-0.09766 -0.839844,-0.09766 h -1.894531 v -1.582031 h 1.787109 q 0.566407,0 1.025391,0.09766 0.458984,0.08789 0.878906,0.332031 0.410156,0.234375 0.810547,0.664063 0.390625,0.419921 0.839844,1.09375 0.449219,0.664062 0.986328,1.601562 0.527344,0.927734 1.210937,2.197266 z M 119.49219,36.875 h -8.25196 v 3.847656 l 0.0488,0.01953 q 0.49805,-0.683593 1.24024,-1.09375 0.74218,-0.419921 1.63086,-0.419921 0.70312,0 1.29882,0.292968 0.60547,0.283203 1.04493,0.791016 0.43945,0.498047 0.68359,1.181641 0.25391,0.683593 0.25391,1.474609 0,0.898437 -0.3125,1.660156 -0.3125,0.751953 -0.80078,1.367188 -0.48829,0.615234 -1.10352,1.09375 -0.61523,0.46875 -1.21094,0.800781 l -0.86914,-1.503906 q 0.19531,-0.107422 0.47852,-0.283203 0.2832,-0.175782 0.58593,-0.410157 0.3125,-0.234375 0.60547,-0.527343 0.30274,-0.302735 0.53711,-0.654297 0.24414,-0.351563 0.39063,-0.761719 0.14648,-0.410156 0.14648,-0.869141 0,-0.419922 -0.13672,-0.800781 -0.12695,-0.380859 -0.36132,-0.664062 -0.23438,-0.283204 -0.56641,-0.449219 -0.32227,-0.166016 -0.71289,-0.166016 -0.50781,0 -0.98633,0.263672 -0.47852,0.263672 -0.86914,0.664063 -0.39063,0.390625 -0.66406,0.839843 -0.26367,0.449219 -0.35157,0.830078 V 50 h -1.60156 v -3.740234 l -0.0391,-0.01953 q -0.14648,0.126953 -0.37109,0.3125 -0.22461,0.175782 -0.54688,0.341797 -0.3125,0.166016 -0.73242,0.283203 -0.41016,0.117188 -0.92774,0.117188 -0.85937,0 -1.59179,-0.332031 -0.72266,-0.332032 -1.25977,-0.898438 -0.52734,-0.576172 -0.83008,-1.347656 -0.30273,-0.771485 -0.30273,-1.650391 0,-0.839844 0.27344,-1.552734 0.2832,-0.712891 0.76172,-1.220703 0.48828,-0.517578 1.13281,-0.800782 0.6543,-0.292968 1.40625,-0.292968 0.52734,0 0.97656,0.136718 0.45899,0.126954 0.83008,0.322266 0.38086,0.185547 0.67383,0.410156 0.30273,0.214844 0.50781,0.390625 l 0.0391,-0.0098 V 36.875 h -8.0957 v -1.435547 h 17.94922 z m -12.64649,3.847656 q -0.55664,0 -0.98632,0.234375 -0.41993,0.22461 -0.70313,0.585938 -0.2832,0.351562 -0.42969,0.800781 -0.13672,0.439453 -0.13672,0.869141 0,0.46875 0.16602,0.9375 0.16602,0.458984 0.46875,0.830078 0.3125,0.371093 0.74219,0.605468 0.42968,0.22461 0.94726,0.22461 0.43946,0 0.91797,-0.175781 0.48828,-0.185547 0.88867,-0.566407 0.41016,-0.380859 0.67383,-0.966797 0.26367,-0.595703 0.26367,-1.416015 v -0.478516 q -0.23437,-0.292969 -0.55664,-0.55664 -0.3125,-0.273438 -0.68359,-0.478516 -0.36133,-0.205078 -0.76172,-0.322266 -0.40039,-0.126953 -0.81055,-0.126953 z M 124.6875,36.875 h -2.05078 V 50 h -1.60156 V 36.875 h -2.22657 v -1.435547 h 5.87891 z m 12.44141,0 h -2.05079 V 50 h -1.60156 v -4.570313 l -0.0391,-0.0098 q -0.26367,0.214844 -0.63477,0.429687 -0.36132,0.205078 -0.81054,0.371094 -0.44922,0.15625 -0.9668,0.263672 -0.51758,0.09766 -1.08398,0.09766 -1.13282,0 -1.94336,-0.410156 -0.80078,-0.410156 -1.34766,-1.09375 -0.53711,-0.693359 -0.84961,-1.572266 -0.3125,-0.888672 -0.44922,-1.845703 0.64453,-0.08789 1.10352,-0.302734 0.45898,-0.214844 0.74219,-0.507813 0.2832,-0.302734 0.41015,-0.654297 0.13672,-0.351562 0.13672,-0.703125 0,-0.234375 -0.0488,-0.527343 -0.0391,-0.292969 -0.14648,-0.625 -0.10742,-0.341797 -0.2832,-0.712891 -0.17579,-0.371094 -0.43946,-0.751953 h -2.82226 v -1.435547 h 13.125 z m -8.57422,0 q 0.35156,0.595703 0.54687,1.308594 0.20508,0.703125 0.20508,1.386718 0,0.498047 -0.13672,0.966797 -0.12695,0.46875 -0.40039,0.878907 -0.27344,0.40039 -0.68359,0.722656 -0.40039,0.3125 -0.9375,0.498047 0.15625,0.654297 0.42969,1.123047 0.27343,0.458984 0.64453,0.761718 0.37109,0.292969 0.83007,0.429688 0.45899,0.136719 0.98633,0.136719 0.50781,0 0.9961,-0.117188 0.49804,-0.117187 0.9375,-0.332031 0.44921,-0.22461 0.83007,-0.53711 0.38086,-0.3125 0.67383,-0.703125 V 36.875 Z m 11.5039,9.238281 q -0.0879,-0.253906 -0.15625,-0.654297 -0.0684,-0.410156 -0.0684,-0.810547 0,-0.625 0.24414,-1.123046 0.25391,-0.507813 0.625,-0.947266 0.3711,-0.439453 0.81055,-0.839844 0.43945,-0.410156 0.81055,-0.820312 0.37109,-0.419922 0.61523,-0.869141 0.25391,-0.458984 0.25391,-1.005859 0,-0.46875 -0.18555,-0.830078 -0.17578,-0.361329 -0.48828,-0.605469 -0.3125,-0.244141 -0.72266,-0.361328 -0.41015,-0.126953 -0.86914,-0.126953 -1.65039,0 -2.86132,1.298828 v -1.71875 q 1.49414,-0.9375 3.0957,-0.9375 0.74219,0 1.39648,0.195312 0.6543,0.195313 1.14258,0.585938 0.49805,0.380859 0.78125,0.957031 0.2832,0.576172 0.2832,1.337891 0,0.722656 -0.2539,1.289062 -0.25391,0.566406 -0.64453,1.044922 -0.38086,0.46875 -0.83008,0.878906 -0.44922,0.410156 -0.83984,0.820313 -0.38086,0.40039 -0.63477,0.839843 -0.25391,0.439454 -0.25391,0.966797 0,0.449219 0.10743,0.820313 0.10742,0.361328 0.21484,0.615234 z m 0.87891,4.0625 q -0.42969,0 -0.76172,-0.3125 -0.32226,-0.3125 -0.32226,-0.761719 0,-0.458984 0.32226,-0.761718 0.32227,-0.322266 0.76172,-0.322266 0.43945,0 0.76172,0.322266 0.32226,0.302734 0.32226,0.761718 0,0.449219 -0.32226,0.761719 -0.33203,0.3125 -0.76172,0.3125 z"
     id="text1"
     style="font-size:20px;font-family:'Hershey Sans 1'"
     aria-label="स्वप्न म्हणजे काय?" />
</svg>
