<?xml version="1.0" encoding="UTF-8" standalone="no"?>
<svg
   width="800"
   height="600"
   version="1.1"
   id="svg4"
   sodipodi:docname="prachi_robotic.svg"
   xmlns:inkscape="http://www.inkscape.org/namespaces/inkscape"
   xmlns:sodipodi="http://sodipodi.sourceforge.net/DTD/sodipodi-0.dtd"
   xmlns="http://www.w3.org/2000/svg"
   xmlns:svg="http://www.w3.org/2000/svg">
  <sodipodi:namedview
     id="namedview4"
     pagecolor="#ffffff"
     bordercolor="#666666"
     borderopacity="1.0"
     inkscape:showpageshadow="2"
     inkscape:pageopacity="0.0"
     inkscape:pagecheckerboard="0"
     inkscape:deskcolor="#d1d1d1" />
  <defs
     id="defs1">
    <style
       type="text/css"
       id="style1">
      @font-face {{
        font-family: 'Kalam';
        src: url('AxiDraw_API(1)/Kalam-Regular.ttf');
      }}
    </style>
  </defs>
  <g
     id="g4">
    <g
       id="text4"
       style="font-size:32px;font-family:Kalam"
       aria-label="With circuits bright, Prachi's soul takes flight,A metal heart, a future shining light.No flesh and bone, yet spirit takes its hold,A robotic grace, a story to unfold.">
      <path
         d="M 80.203125,76.734375 74.15625,100 H 70.671875 L 65.78125,80.6875 61,100 H 57.59375 L 51.4375,76.734375 h 3.171875 L 59.5,96.078125 64.3125,76.734375 h 3.140625 l 4.859375,19.53125 4.859375,-19.53125 z M 87.6875,79.625 H 84.375 v -3.046875 h 3.3125 z M 87.5,100 H 84.5625 V 82.546875 H 87.5 Z m 14.875,-0.15625 q -0.82812,0.21875 -1.8125,0.35938 -0.96875,0.14062 -1.734375,0.14062 -2.671875,0 -4.0625,-1.4375 Q 93.375,97.46875 93.375,94.296875 v -9.28125 h -1.984375 v -2.46875 H 93.375 V 77.53125 h 2.9375 v 5.015625 h 6.0625 v 2.46875 h -6.0625 v 7.953125 q 0,1.375 0.0625,2.15625 0.0625,0.765625 0.4375,1.4375 0.34375,0.625 0.9375,0.921875 0.609375,0.28125 1.84375,0.28125 0.71875,0 1.5,-0.203125 0.78125,-0.21875 1.125,-0.359375 H 102.375 Z M 120.51563,100 h -2.9375 v -9.9375 q 0,-1.203125 -0.14063,-2.25 -0.14062,-1.0625 -0.51562,-1.65625 -0.39063,-0.65625 -1.125,-0.96875 -0.73438,-0.328125 -1.90625,-0.328125 -1.20313,0 -2.51563,0.59375 -1.3125,0.59375 -2.51562,1.515625 V 100 h -2.9375 V 75.6875 h 2.9375 v 8.796875 q 1.375,-1.140625 2.84375,-1.78125 1.46875,-0.640625 3.01562,-0.640625 2.82813,0 4.3125,1.703125 1.48438,1.703125 1.48438,4.90625 z m 29.81249,-1.09375 q -1.46875,0.703125 -2.79687,1.09375 -1.3125,0.39063 -2.79688,0.39063 -1.89062,0 -3.46875,-0.54688 -1.57812,-0.5625 -2.70312,-1.6875 -1.14063,-1.125 -1.76563,-2.84375 -0.625,-1.71875 -0.625,-4.015625 0,-4.28125 2.34375,-6.71875 2.35938,-2.4375 6.21875,-2.4375 1.5,0 2.9375,0.421875 1.45313,0.421875 2.65625,1.03125 v 3.265625 h -0.15625 Q 148.82812,85.8125 147.39062,85.25 q -1.42187,-0.5625 -2.78125,-0.5625 -2.5,0 -3.95312,1.6875 -1.4375,1.671875 -1.4375,4.921875 0,3.15625 1.40625,4.859375 1.42187,1.6875 3.98437,1.6875 0.89063,0 1.8125,-0.234375 Q 147.34375,97.375 148.07812,97 q 0.64063,-0.328125 1.20313,-0.6875 0.5625,-0.375 0.89062,-0.640625 h 0.15625 z M 157.25,79.625 h -3.3125 V 76.578125 H 157.25 Z M 157.0625,100 H 154.125 V 82.546875 h 2.9375 z m 16.70312,-14.25 h -0.15625 q -0.65625,-0.15625 -1.28125,-0.21875 -0.60937,-0.07813 -1.45312,-0.07813 -1.35938,0 -2.625,0.609375 -1.26563,0.59375 -2.4375,1.546875 V 100 H 162.875 V 82.546875 h 2.9375 V 85.125 q 1.75,-1.40625 3.07812,-1.984375 1.34375,-0.59375 2.73438,-0.59375 0.76562,0 1.10937,0.04687 0.34375,0.03125 1.03125,0.140625 z m 15.67188,13.15625 q -1.46875,0.703125 -2.79688,1.09375 -1.3125,0.39063 -2.79687,0.39063 -1.89063,0 -3.46875,-0.54688 -1.57813,-0.5625 -2.70313,-1.6875 -1.14062,-1.125 -1.76562,-2.84375 -0.625,-1.71875 -0.625,-4.015625 0,-4.28125 2.34375,-6.71875 2.35937,-2.4375 6.21875,-2.4375 1.5,0 2.9375,0.421875 1.45312,0.421875 2.65625,1.03125 v 3.265625 h -0.15625 Q 187.9375,85.8125 186.5,85.25 q -1.42188,-0.5625 -2.78125,-0.5625 -2.5,0 -3.95313,1.6875 -1.4375,1.671875 -1.4375,4.921875 0,3.15625 1.40625,4.859375 1.42188,1.6875 3.98438,1.6875 0.89062,0 1.8125,-0.234375 Q 186.45312,97.375 187.1875,97 q 0.64062,-0.328125 1.20312,-0.6875 0.5625,-0.375 0.89063,-0.640625 h 0.15625 z M 207.67187,100 h -2.9375 v -1.9375 q -1.48437,1.171875 -2.84375,1.796875 -1.35937,0.625005 -3,0.625005 -2.75,0 -4.28125,-1.67188 -1.53125,-1.6875 -1.53125,-4.9375 V 82.546875 h 2.9375 v 9.9375 q 0,1.328125 0.125,2.28125 0.125,0.9375 0.53125,1.609375 0.42188,0.6875 1.09375,1 0.67188,0.3125 1.95313,0.3125 1.14062,0 2.48437,-0.59375 1.35938,-0.59375 2.53125,-1.515625 v -13.03125 h 2.9375 z m 8.9375,-20.375 h -3.3125 v -3.046875 h 3.3125 z M 216.42187,100 h -2.9375 V 82.546875 h 2.9375 z m 14.875,-0.15625 q -0.82812,0.21875 -1.8125,0.35938 -0.96875,0.14062 -1.73437,0.14062 -2.67188,0 -4.0625,-1.4375 -1.39063,-1.4375 -1.39063,-4.609375 v -9.28125 h -1.98437 v -2.46875 h 1.98437 V 77.53125 h 2.9375 v 5.015625 h 6.0625 v 2.46875 h -6.0625 v 7.953125 q 0,1.375 0.0625,2.15625 0.0625,0.765625 0.4375,1.4375 0.34375,0.625 0.9375,0.921875 0.60938,0.28125 1.84375,0.28125 0.71875,0 1.5,-0.203125 0.78125,-0.21875 1.125,-0.359375 h 0.15625 z m 16.01563,-4.875 q 0,2.390625 -1.98438,3.921875 -1.96875,1.531255 -5.39062,1.531255 -1.9375,0 -3.5625,-0.45313 Q 234.76562,99.5 233.67187,98.953125 V 95.65625 h 0.15625 q 1.39063,1.046875 3.09375,1.671875 1.70313,0.609375 3.26563,0.609375 1.9375,0 3.03125,-0.625 1.09375,-0.625 1.09375,-1.96875 0,-1.03125 -0.59375,-1.5625 Q 243.125,93.25 241.4375,92.875 q -0.625,-0.140625 -1.64063,-0.328125 -1,-0.1875 -1.82812,-0.40625 -2.29688,-0.609375 -3.26563,-1.78125 -0.95312,-1.1875 -0.95312,-2.90625 0,-1.078125 0.4375,-2.03125 0.45312,-0.953125 1.35937,-1.703125 0.875,-0.734375 2.21875,-1.15625 1.35938,-0.4375 3.03125,-0.4375 1.5625,0 3.15625,0.390625 1.60938,0.375 2.67188,0.921875 v 3.140625 h -0.15625 q -1.125,-0.828125 -2.73438,-1.390625 -1.60937,-0.578125 -3.15625,-0.578125 -1.60937,0 -2.71875,0.625 Q 236.75,85.84375 236.75,87.0625 q 0,1.078125 0.67187,1.625 0.65625,0.546875 2.125,0.890625 0.8125,0.1875 1.8125,0.375 1.01563,0.1875 1.6875,0.34375 2.04688,0.46875 3.15625,1.609375 1.10938,1.15625 1.10938,3.0625 z m 30.8125,-3.828125 q 0,2.1875 -0.625,3.9375 -0.60938,1.75 -1.65625,2.9375 -1.10938,1.234375 -2.4375,1.859375 -1.32813,0.60938 -2.92188,0.60938 -1.48437,0 -2.59375,-0.35938 -1.10937,-0.34375 -2.1875,-0.9375 L 265.51562,100 h -2.75 V 75.6875 h 2.9375 v 8.6875 q 1.23438,-1.015625 2.625,-1.65625 1.39063,-0.65625 3.125,-0.65625 3.09375,0 4.875,2.375 1.79688,2.375 1.79688,6.703125 z m -3.03125,0.07813 q 0,-3.125 -1.03125,-4.734375 -1.03125,-1.625 -3.32813,-1.625 -1.28125,0 -2.59375,0.5625 -1.3125,0.546875 -2.4375,1.421875 v 10 q 1.25,0.5625 2.14063,0.78125 0.90625,0.21875 2.04687,0.21875 2.4375,0 3.8125,-1.59375 1.39063,-1.609375 1.39063,-5.03125 z m 18.5,-5.46875 h -0.15625 q -0.65625,-0.15625 -1.28125,-0.21875 -0.60938,-0.07813 -1.45313,-0.07813 -1.35937,0 -2.625,0.609375 -1.26562,0.59375 -2.4375,1.546875 V 100 h -2.9375 V 82.546875 h 2.9375 V 85.125 q 1.75,-1.40625 3.07813,-1.984375 1.34375,-0.59375 2.73437,-0.59375 0.76563,0 1.10938,0.04687 0.34375,0.03125 1.03125,0.140625 z m 5.92187,-6.125 h -3.3125 v -3.046875 h 3.3125 z M 299.32812,100 h -2.9375 V 82.546875 h 2.9375 z m 19.96875,-1.984375 q 0,4.437505 -2.01562,6.515625 -2.01563,2.07813 -6.20313,2.07813 -1.39062,0 -2.71875,-0.20313 -1.3125,-0.1875 -2.59375,-0.54687 v -3 h 0.15625 q 0.71875,0.28125 2.28125,0.6875 1.5625,0.42187 3.125,0.42187 1.5,0 2.48438,-0.35937 0.98437,-0.35938 1.53125,-1 0.54687,-0.60938 0.78125,-1.46875 0.23437,-0.85938 0.23437,-1.92188 V 97.625 q -1.32812,1.0625 -2.54687,1.59375 -1.20313,0.515625 -3.07813,0.515625 -3.125,0 -4.96875,-2.25 -1.82812,-2.265625 -1.82812,-6.375 0,-2.25 0.625,-3.875 0.64062,-1.640625 1.73437,-2.828125 1.01563,-1.109375 2.46875,-1.71875 1.45313,-0.625 2.89063,-0.625 1.51562,0 2.53125,0.3125 1.03125,0.296875 2.17187,0.921875 l 0.1875,-0.75 h 2.75 z m -2.9375,-2.8125 V 85.6875 q -1.17187,-0.53125 -2.1875,-0.75 -1,-0.234375 -2,-0.234375 -2.42187,0 -3.8125,1.625 -1.39062,1.625 -1.39062,4.71875 0,2.9375 1.03125,4.453125 1.03125,1.515625 3.42187,1.515625 1.28125,0 2.5625,-0.484375 1.29688,-0.5 2.375,-1.328125 z M 339.67187,100 h -2.9375 v -9.9375 q 0,-1.203125 -0.14062,-2.25 -0.14063,-1.0625 -0.51563,-1.65625 -0.39062,-0.65625 -1.125,-0.96875 -0.73437,-0.328125 -1.90625,-0.328125 -1.20312,0 -2.51562,0.59375 -1.3125,0.59375 -2.51563,1.515625 V 100 h -2.9375 V 75.6875 h 2.9375 v 8.796875 q 1.375,-1.140625 2.84375,-1.78125 1.46875,-0.640625 3.01563,-0.640625 2.82812,0 4.3125,1.703125 1.48437,1.703125 1.48437,4.90625 z m 14.71875,-0.15625 q -0.82812,0.21875 -1.8125,0.35938 -0.96875,0.14062 -1.73437,0.14062 -2.67188,0 -4.0625,-1.4375 -1.39063,-1.4375 -1.39063,-4.609375 v -9.28125 h -1.98437 v -2.46875 h 1.98437 V 77.53125 h 2.9375 v 5.015625 h 6.0625 v 2.46875 h -6.0625 v 7.953125 q 0,1.375 0.0625,2.15625 0.0625,0.765625 0.4375,1.4375 0.34375,0.625 0.9375,0.921875 0.60938,0.28125 1.84375,0.28125 0.71875,0 1.5,-0.203125 0.78125,-0.21875 1.125,-0.359375 h 0.15625 z m 9.64063,-4.296875 -4.40625,10.234375 h -2.28125 l 2.71875,-10.234375 z m 32.25,-11.78125 q 0,1.546875 -0.54688,2.875 -0.53125,1.3125 -1.5,2.28125 -1.20312,1.203125 -2.84375,1.8125 -1.64062,0.59375 -4.14062,0.59375 h -3.09375 V 100 H 381.0625 V 76.734375 h 6.3125 q 2.09375,0 3.54687,0.359375 1.45313,0.34375 2.57813,1.09375 1.32812,0.890625 2.04687,2.21875 0.73438,1.328125 0.73438,3.359375 z m -3.21875,0.07813 q 0,-1.203125 -0.42188,-2.09375 -0.42187,-0.890625 -1.28125,-1.453125 -0.75,-0.484375 -1.71875,-0.6875 -0.95312,-0.21875 -2.42187,-0.21875 h -3.0625 V 88.6875 h 2.60937 q 1.875,0 3.04688,-0.328125 1.17187,-0.34375 1.90625,-1.078125 0.73437,-0.75 1.03125,-1.578125 0.3125,-0.828125 0.3125,-1.859375 z M 411.01562,85.75 h -0.15625 q -0.65625,-0.15625 -1.28125,-0.21875 -0.60937,-0.07813 -1.45312,-0.07813 -1.35938,0 -2.625,0.609375 -1.26563,0.59375 -2.4375,1.546875 V 100 H 400.125 V 82.546875 h 2.9375 V 85.125 q 1.75,-1.40625 3.07812,-1.984375 1.34375,-0.59375 2.73438,-0.59375 0.76562,0 1.10937,0.04687 0.34375,0.03125 1.03125,0.140625 z M 426.78125,100 h -2.92188 v -1.859375 q -0.39062,0.265625 -1.0625,0.75 -0.65625,0.46875 -1.28125,0.75 -0.73437,0.359375 -1.6875,0.593755 -0.95312,0.25 -2.23437,0.25 -2.35938,0 -4,-1.562505 -1.64063,-1.5625 -1.64063,-3.984375 0,-1.984375 0.84375,-3.203125 0.85938,-1.234375 2.4375,-1.9375 1.59375,-0.703125 3.82813,-0.953125 2.23437,-0.25 4.79687,-0.375 v -0.453125 q 0,-1 -0.35937,-1.65625 -0.34375,-0.65625 -1,-1.03125 -0.625,-0.359375 -1.5,-0.484375 -0.875,-0.125 -1.82813,-0.125 -1.15625,0 -2.57812,0.3125 -1.42188,0.296875 -2.9375,0.875 H 413.5 v -2.984375 q 0.85937,-0.234375 2.48437,-0.515625 1.625,-0.28125 3.20313,-0.28125 1.84375,0 3.20312,0.3125 1.375,0.296875 2.375,1.03125 0.98438,0.71875 1.5,1.859375 0.51563,1.140625 0.51563,2.828125 z m -2.92188,-4.296875 V 90.84375 q -1.34375,0.07813 -3.17187,0.234375 -1.8125,0.15625 -2.875,0.453125 -1.26563,0.359375 -2.04688,1.125 -0.78125,0.75 -0.78125,2.078125 0,1.5 0.90625,2.265625 0.90625,0.75 2.76563,0.75 1.54687,0 2.82812,-0.59375 1.28125,-0.609375 2.375,-1.453125 z m 21.48438,3.203125 Q 443.875,99.609375 442.54687,100 q -1.3125,0.39063 -2.79687,0.39063 -1.89063,0 -3.46875,-0.54688 -1.57813,-0.5625 -2.70313,-1.6875 -1.14062,-1.125 -1.76562,-2.84375 -0.625,-1.71875 -0.625,-4.015625 0,-4.28125 2.34375,-6.71875 2.35937,-2.4375 6.21875,-2.4375 1.5,0 2.9375,0.421875 1.45312,0.421875 2.65625,1.03125 v 3.265625 H 445.1875 Q 443.84375,85.8125 442.40625,85.25 q -1.42188,-0.5625 -2.78125,-0.5625 -2.5,0 -3.95313,1.6875 -1.4375,1.671875 -1.4375,4.921875 0,3.15625 1.40625,4.859375 1.42188,1.6875 3.98438,1.6875 0.89062,0 1.8125,-0.234375 Q 442.35937,97.375 443.09375,97 q 0.64062,-0.328125 1.20312,-0.6875 0.5625,-0.375 0.89063,-0.640625 h 0.15625 z M 463.70312,100 h -2.9375 v -9.9375 q 0,-1.203125 -0.14062,-2.25 -0.14063,-1.0625 -0.51563,-1.65625 -0.39062,-0.65625 -1.125,-0.96875 -0.73437,-0.328125 -1.90625,-0.328125 -1.20312,0 -2.51562,0.59375 -1.3125,0.59375 -2.51563,1.515625 V 100 h -2.9375 V 75.6875 h 2.9375 v 8.796875 q 1.375,-1.140625 2.84375,-1.78125 1.46875,-0.640625 3.01563,-0.640625 2.82812,0 4.3125,1.703125 1.48437,1.703125 1.48437,4.90625 z m 8.8125,-20.375 h -3.3125 v -3.046875 h 3.3125 z M 472.32812,100 h -2.9375 V 82.546875 h 2.9375 z m 8.95313,-24.3125 -0.67188,9.046875 h -2.125 L 477.8125,75.6875 Z m 17.92187,19.28125 q 0,2.390625 -1.98437,3.921875 -1.96875,1.531255 -5.39063,1.531255 -1.9375,0 -3.5625,-0.45313 Q 486.65625,99.5 485.5625,98.953125 V 95.65625 h 0.15625 q 1.39062,1.046875 3.09375,1.671875 1.70312,0.609375 3.26562,0.609375 1.9375,0 3.03125,-0.625 1.09375,-0.625 1.09375,-1.96875 0,-1.03125 -0.59375,-1.5625 -0.59375,-0.53125 -2.28125,-0.90625 -0.625,-0.140625 -1.64062,-0.328125 -1,-0.1875 -1.82813,-0.40625 -2.29687,-0.609375 -3.26562,-1.78125 -0.95313,-1.1875 -0.95313,-2.90625 0,-1.078125 0.4375,-2.03125 0.45313,-0.953125 1.35938,-1.703125 0.875,-0.734375 2.21875,-1.15625 1.35937,-0.4375 3.03125,-0.4375 1.5625,0 3.15625,0.390625 1.60937,0.375 2.67187,0.921875 v 3.140625 h -0.15625 Q 497.23437,85.75 495.625,85.1875 q -1.60938,-0.578125 -3.15625,-0.578125 -1.60938,0 -2.71875,0.625 -1.10938,0.609375 -1.10938,1.828125 0,1.078125 0.67188,1.625 0.65625,0.546875 2.125,0.890625 0.8125,0.1875 1.8125,0.375 1.01562,0.1875 1.6875,0.34375 2.04687,0.46875 3.15625,1.609375 1.10937,1.15625 1.10937,3.0625 z m 27.92188,0 q 0,2.390625 -1.98438,3.921875 -1.96875,1.531255 -5.39062,1.531255 -1.9375,0 -3.5625,-0.45313 Q 514.57812,99.5 513.48437,98.953125 V 95.65625 h 0.15625 q 1.39063,1.046875 3.09375,1.671875 Q 518.4375,97.9375 520,97.9375 q 1.9375,0 3.03125,-0.625 1.09375,-0.625 1.09375,-1.96875 0,-1.03125 -0.59375,-1.5625 Q 522.9375,93.25 521.25,92.875 q -0.625,-0.140625 -1.64063,-0.328125 -1,-0.1875 -1.82812,-0.40625 -2.29688,-0.609375 -3.26563,-1.78125 -0.95312,-1.1875 -0.95312,-2.90625 0,-1.078125 0.4375,-2.03125 0.45312,-0.953125 1.35937,-1.703125 0.875,-0.734375 2.21875,-1.15625 1.35938,-0.4375 3.03125,-0.4375 1.5625,0 3.15625,0.390625 1.60938,0.375 2.67188,0.921875 v 3.140625 h -0.15625 q -1.125,-0.828125 -2.73438,-1.390625 -1.60937,-0.578125 -3.15625,-0.578125 -1.60937,0 -2.71875,0.625 -1.10937,0.609375 -1.10937,1.828125 0,1.078125 0.67187,1.625 0.65625,0.546875 2.125,0.890625 0.8125,0.1875 1.8125,0.375 1.01563,0.1875 1.6875,0.34375 2.04688,0.46875 3.15625,1.609375 1.10938,1.15625 1.10938,3.0625 z m 19.07812,-3.6875 q 0,4.265625 -2.1875,6.734375 -2.1875,2.468755 -5.85937,2.468755 -3.70313,0 -5.89063,-2.468755 -2.17187,-2.46875 -2.17187,-6.734375 0,-4.265625 2.17187,-6.734375 2.1875,-2.484375 5.89063,-2.484375 3.67187,0 5.85937,2.484375 2.1875,2.46875 2.1875,6.734375 z m -3.03125,0 q 0,-3.390625 -1.32812,-5.03125 -1.32813,-1.65625 -3.6875,-1.65625 -2.39063,0 -3.71875,1.65625 -1.3125,1.640625 -1.3125,5.03125 0,3.28125 1.32812,4.984375 1.32813,1.6875 3.70313,1.6875 2.34375,0 3.67187,-1.671875 1.34375,-1.6875 1.34375,-5 z M 565.21875,100 h -2.9375 v -1.9375 q -1.48438,1.171875 -2.84375,1.796875 -1.35938,0.625005 -3,0.625005 -2.75,0 -4.28125,-1.67188 Q 550.625,97.125 550.625,93.875 V 82.546875 h 2.9375 v 9.9375 q 0,1.328125 0.125,2.28125 0.125,0.9375 0.53125,1.609375 0.42187,0.6875 1.09375,1 0.67187,0.3125 1.95312,0.3125 1.14063,0 2.48438,-0.59375 1.35937,-0.59375 2.53125,-1.515625 v -13.03125 h 2.9375 z m 8.75,0 h -2.9375 V 75.6875 h 2.9375 z m 26.125,-0.15625 q -0.82813,0.21875 -1.8125,0.35938 -0.96875,0.14062 -1.73438,0.14062 -2.67187,0 -4.0625,-1.4375 -1.39062,-1.4375 -1.39062,-4.609375 v -9.28125 h -1.98438 v -2.46875 h 1.98438 V 77.53125 h 2.9375 v 5.015625 h 6.0625 v 2.46875 h -6.0625 v 7.953125 q 0,1.375 0.0625,2.15625 0.0625,0.765625 0.4375,1.4375 0.34375,0.625 0.9375,0.921875 0.60937,0.28125 1.84375,0.28125 0.71875,0 1.5,-0.203125 0.78125,-0.21875 1.125,-0.359375 h 0.15625 z M 617.20312,100 h -2.92187 v -1.859375 q -0.39063,0.265625 -1.0625,0.75 -0.65625,0.46875 -1.28125,0.75 -0.73438,0.359375 -1.6875,0.593755 -0.95313,0.25 -2.23438,0.25 -2.35937,0 -4,-1.562505 -1.64062,-1.5625 -1.64062,-3.984375 0,-1.984375 0.84375,-3.203125 0.85937,-1.234375 2.4375,-1.9375 1.59375,-0.703125 3.82812,-0.953125 2.23438,-0.25 4.79688,-0.375 v -0.453125 q 0,-1 -0.35938,-1.65625 -0.34375,-0.65625 -1,-1.03125 -0.625,-0.359375 -1.5,-0.484375 -0.875,-0.125 -1.82812,-0.125 -1.15625,0 -2.57813,0.3125 -1.42187,0.296875 -2.9375,0.875 h -0.15625 v -2.984375 q 0.85938,-0.234375 2.48438,-0.515625 1.625,-0.28125 3.20312,-0.28125 1.84375,0 3.20313,0.3125 1.375,0.296875 2.375,1.03125 0.98437,0.71875 1.5,1.859375 0.51562,1.140625 0.51562,2.828125 z m -2.92187,-4.296875 V 90.84375 q -1.34375,0.07813 -3.17188,0.234375 -1.8125,0.15625 -2.875,0.453125 -1.26562,0.359375 -2.04687,1.125 -0.78125,0.75 -0.78125,2.078125 0,1.5 0.90625,2.265625 0.90625,0.75 2.76562,0.75 1.54688,0 2.82813,-0.59375 1.28125,-0.609375 2.375,-1.453125 z M 638.70312,100 h -3.875 l -7,-7.640625 -1.90625,1.8125 V 100 h -2.9375 V 75.6875 h 2.9375 v 15.59375 l 8.48438,-8.734375 h 3.70312 L 630,90.609375 Z m 17.39063,-8.421875 h -12.85938 q 0,1.609375 0.48438,2.8125 0.48437,1.1875 1.32812,1.953125 0.8125,0.75 1.92188,1.125 1.125,0.375 2.46875,0.375 1.78125,0 3.57812,-0.703125 1.8125,-0.71875 2.57813,-1.40625 H 655.75 V 98.9375 q -1.48438,0.625 -3.03125,1.046875 -1.54688,0.421875 -3.25,0.421875 -4.34375,0 -6.78125,-2.34375 -2.4375,-2.359375 -2.4375,-6.6875 0,-4.28125 2.32812,-6.796875 2.34375,-2.515625 6.15625,-2.515625 3.53125,0 5.4375,2.0625 1.92188,2.0625 1.92188,5.859375 z m -2.85938,-2.25 q -0.0156,-2.3125 -1.17187,-3.578125 -1.14063,-1.265625 -3.48438,-1.265625 -2.35937,0 -3.76562,1.390625 -1.39063,1.390625 -1.57813,3.453125 z m 19.78125,5.640625 q 0,2.390625 -1.98437,3.921875 -1.96875,1.531255 -5.39063,1.531255 -1.9375,0 -3.5625,-0.45313 Q 660.46875,99.5 659.375,98.953125 V 95.65625 h 0.15625 q 1.39062,1.046875 3.09375,1.671875 1.70312,0.609375 3.26562,0.609375 1.9375,0 3.03125,-0.625 1.09375,-0.625 1.09375,-1.96875 0,-1.03125 -0.59375,-1.5625 -0.59375,-0.53125 -2.28125,-0.90625 -0.625,-0.140625 -1.64062,-0.328125 -1,-0.1875 -1.82813,-0.40625 -2.29687,-0.609375 -3.26562,-1.78125 -0.95313,-1.1875 -0.95313,-2.90625 0,-1.078125 0.4375,-2.03125 0.45313,-0.953125 1.35938,-1.703125 0.875,-0.734375 2.21875,-1.15625 1.35937,-0.4375 3.03125,-0.4375 1.5625,0 3.15625,0.390625 1.60937,0.375 2.67187,0.921875 v 3.140625 h -0.15625 Q 671.04687,85.75 669.4375,85.1875 q -1.60938,-0.578125 -3.15625,-0.578125 -1.60938,0 -2.71875,0.625 -1.10938,0.609375 -1.10938,1.828125 0,1.078125 0.67188,1.625 0.65625,0.546875 2.125,0.890625 0.8125,0.1875 1.8125,0.375 1.01562,0.1875 1.6875,0.34375 2.04687,0.46875 3.15625,1.609375 1.10937,1.15625 1.10937,3.0625 z m 24.84375,-16.4375 h -0.15625 q -0.48437,-0.140625 -1.26562,-0.28125 -0.78125,-0.15625 -1.375,-0.15625 -1.89063,0 -2.75,0.84375 -0.84375,0.828125 -0.84375,3.015625 v 0.59375 h 5.29687 v 2.46875 H 691.5625 V 100 H 688.625 V 85.015625 h -1.98438 v -2.46875 H 688.625 V 81.96875 q 0,-3.109375 1.54687,-4.765625 1.54688,-1.671875 4.46875,-1.671875 0.98438,0 1.76563,0.09375 0.79687,0.09375 1.45312,0.21875 z M 702.6875,100 H 699.75 V 75.6875 h 2.9375 z m 8.96875,-20.375 h -3.3125 v -3.046875 h 3.3125 z M 711.46875,100 h -2.9375 V 82.546875 h 2.9375 z m 19.96875,-1.984375 q 0,4.437505 -2.01563,6.515625 -2.01562,2.07813 -6.20312,2.07813 -1.39063,0 -2.71875,-0.20313 -1.3125,-0.1875 -2.59375,-0.54687 v -3 h 0.15625 q 0.71875,0.28125 2.28125,0.6875 1.5625,0.42187 3.125,0.42187 1.5,0 2.48437,-0.35937 0.98438,-0.35938 1.53125,-1 Q 728.03125,102 728.26562,101.14063 728.5,100.28125 728.5,99.21875 V 97.625 q -1.32813,1.0625 -2.54688,1.59375 -1.20312,0.515625 -3.07812,0.515625 -3.125,0 -4.96875,-2.25 -1.82813,-2.265625 -1.82813,-6.375 0,-2.25 0.625,-3.875 0.64063,-1.640625 1.73438,-2.828125 1.01562,-1.109375 2.46875,-1.71875 1.45312,-0.625 2.89062,-0.625 1.51563,0 2.53125,0.3125 1.03125,0.296875 2.17188,0.921875 l 0.1875,-0.75 h 2.75 z M 728.5,95.203125 V 85.6875 q -1.17188,-0.53125 -2.1875,-0.75 -1,-0.234375 -2,-0.234375 -2.42188,0 -3.8125,1.625 -1.39063,1.625 -1.39063,4.71875 0,2.9375 1.03125,4.453125 1.03125,1.515625 3.42188,1.515625 1.28125,0 2.5625,-0.484375 1.29687,-0.5 2.375,-1.328125 z M 751.8125,100 h -2.9375 v -9.9375 q 0,-1.203125 -0.14063,-2.25 -0.14062,-1.0625 -0.51562,-1.65625 -0.39063,-0.65625 -1.125,-0.96875 -0.73438,-0.328125 -1.90625,-0.328125 -1.20313,0 -2.51563,0.59375 -1.3125,0.59375 -2.51562,1.515625 V 100 h -2.9375 V 75.6875 h 2.9375 v 8.796875 q 1.375,-1.140625 2.84375,-1.78125 1.46875,-0.640625 3.01562,-0.640625 2.82813,0 4.3125,1.703125 1.48438,1.703125 1.48438,4.90625 z m 14.71875,-0.15625 q -0.82813,0.21875 -1.8125,0.35938 -0.96875,0.14062 -1.73438,0.14062 -2.67187,0 -4.0625,-1.4375 -1.39062,-1.4375 -1.39062,-4.609375 v -9.28125 h -1.98438 v -2.46875 h 1.98438 V 77.53125 h 2.9375 v 5.015625 h 6.0625 v 2.46875 h -6.0625 v 7.953125 q 0,1.375 0.0625,2.15625 0.0625,0.765625 0.4375,1.4375 0.34375,0.625 0.9375,0.921875 0.60937,0.28125 1.84375,0.28125 0.71875,0 1.5,-0.203125 0.78125,-0.21875 1.125,-0.359375 h 0.15625 z m 9.64062,-4.296875 -4.40625,10.234375 h -2.28125 l 2.71875,-10.234375 z"
         id="path4" />
      <path
         d="m 71.46875,150 h -3.296875 l -2.28125,-6.48438 h -10.0625 L 53.546875,150 H 50.40625 L 58.875,126.73438 H 63 Z m -6.53125,-9.14063 -4.078125,-11.42187 -4.09375,11.42187 z M 111.48438,150 h -2.9375 v -9.9375 q 0,-1.125 -0.10938,-2.17188 -0.0937,-1.04687 -0.42187,-1.67187 -0.35938,-0.67188 -1.03125,-1.01563 -0.67188,-0.34375 -1.9375,-0.34375 -1.23438,0 -2.46875,0.625 -1.23438,0.60938 -2.46875,1.5625 0.0469,0.35938 0.0781,0.84375 0.0312,0.46875 0.0312,0.9375 V 150 h -2.9375 v -9.9375 q 0,-1.15625 -0.109375,-2.1875 -0.09375,-1.04688 -0.421875,-1.67188 -0.359375,-0.67187 -1.03125,-1 -0.671875,-0.34375 -1.9375,-0.34375 -1.203125,0 -2.421875,0.59375 -1.203125,0.59375 -2.40625,1.51563 V 150 h -2.9375 v -17.45313 h 2.9375 v 1.9375 q 1.375,-1.14062 2.734375,-1.78125 1.375,-0.64062 2.921875,-0.64062 1.78125,0 3.015625,0.75 1.25,0.75 1.859375,2.07812 1.781255,-1.5 3.250005,-2.15625 1.46875,-0.67187 3.14062,-0.67187 2.875,0 4.23438,1.75 1.375,1.73437 1.375,4.85937 z M 131.75,141.57812 h -12.85937 q 0,1.60938 0.48437,2.8125 0.48438,1.1875 1.32813,1.95313 0.8125,0.75 1.92187,1.125 1.125,0.375 2.46875,0.375 1.78125,0 3.57812,-0.70313 1.8125,-0.71875 2.57813,-1.40625 h 0.15625 v 3.20313 q -1.48438,0.625 -3.03125,1.04687 -1.54687,0.42188 -3.25,0.42188 -4.34375,0 -6.78125,-2.34375 -2.4375,-2.35938 -2.4375,-6.6875 0,-4.28125 2.32813,-6.79688 2.34375,-2.51562 6.15625,-2.51562 3.53125,0 5.43749,2.0625 1.92188,2.0625 1.92188,5.85937 z m -2.85938,-2.25 q -0.0156,-2.3125 -1.17187,-3.57812 -1.14062,-1.26563 -3.48437,-1.26563 -2.35938,0 -3.76563,1.39063 -1.39062,1.39062 -1.57812,3.45312 z m 16.375,10.51563 q -0.82812,0.21875 -1.8125,0.35937 -0.96875,0.14063 -1.73437,0.14063 -2.67188,0 -4.0625,-1.4375 -1.39063,-1.4375 -1.39063,-4.60938 v -9.28125 h -1.98437 v -2.46875 h 1.98437 v -5.01562 h 2.9375 v 5.01562 h 6.0625 v 2.46875 h -6.0625 v 7.95313 q 0,1.375 0.0625,2.15625 0.0625,0.76562 0.4375,1.4375 0.34375,0.625 0.9375,0.92187 0.60938,0.28125 1.84375,0.28125 0.71875,0 1.5,-0.20312 0.78125,-0.21875 1.125,-0.35938 h 0.15625 z M 162.375,150 h -2.92188 v -1.85938 q -0.39062,0.26563 -1.0625,0.75 -0.65625,0.46875 -1.28125,0.75 -0.73437,0.35938 -1.6875,0.59375 -0.95312,0.25 -2.23437,0.25 -2.35938,0 -4,-1.5625 -1.64063,-1.5625 -1.64063,-3.98437 0,-1.98438 0.84375,-3.20313 0.85938,-1.23437 2.4375,-1.9375 1.59375,-0.70312 3.82813,-0.95312 2.23437,-0.25 4.79687,-0.375 v -0.45313 q 0,-1 -0.35937,-1.65625 -0.34375,-0.65625 -1,-1.03125 -0.625,-0.35937 -1.5,-0.48437 -0.875,-0.125 -1.82813,-0.125 -1.15625,0 -2.57812,0.3125 -1.42188,0.29687 -2.9375,0.875 h -0.15625 v -2.98438 q 0.85937,-0.23437 2.48437,-0.51562 1.625,-0.28125 3.20313,-0.28125 1.84375,0 3.20312,0.3125 1.375,0.29687 2.375,1.03125 0.98438,0.71875 1.5,1.85937 0.51563,1.14063 0.51563,2.82813 z m -2.92188,-4.29688 v -4.85937 q -1.34375,0.0781 -3.17187,0.23437 -1.8125,0.15625 -2.875,0.45313 -1.26563,0.35937 -2.04688,1.125 -0.78125,0.75 -0.78125,2.07812 0,1.5 0.90625,2.26563 0.90625,0.75 2.76563,0.75 1.54687,0 2.82812,-0.59375 1.28125,-0.60938 2.375,-1.45313 z M 171,150 h -2.9375 V 125.6875 H 171 Z m 31.65625,0 h -2.9375 v -9.9375 q 0,-1.20313 -0.14063,-2.25 -0.14062,-1.0625 -0.51562,-1.65625 -0.39063,-0.65625 -1.125,-0.96875 -0.73438,-0.32813 -1.90625,-0.32813 -1.20313,0 -2.51563,0.59375 -1.3125,0.59375 -2.51562,1.51563 V 150 h -2.9375 V 125.6875 H 191 v 8.79687 q 1.375,-1.14062 2.84375,-1.78125 1.46875,-0.64062 3.01562,-0.64062 2.82813,0 4.3125,1.70312 1.48438,1.70313 1.48438,4.90625 z m 20.26562,-8.42188 H 210.0625 q 0,1.60938 0.48437,2.8125 0.48438,1.1875 1.32813,1.95313 0.8125,0.75 1.92187,1.125 1.125,0.375 2.46875,0.375 1.78125,0 3.57813,-0.70313 1.8125,-0.71875 2.57812,-1.40625 h 0.15625 v 3.20313 q -1.48437,0.625 -3.03125,1.04687 -1.54687,0.42188 -3.25,0.42188 -4.34375,0 -6.78125,-2.34375 -2.4375,-2.35938 -2.4375,-6.6875 0,-4.28125 2.32813,-6.79688 2.34375,-2.51562 6.15625,-2.51562 3.53125,0 5.4375,2.0625 1.92187,2.0625 1.92187,5.85937 z m -2.85937,-2.25 q -0.0156,-2.3125 -1.17188,-3.57812 -1.14062,-1.26563 -3.48437,-1.26563 -2.35938,0 -3.76563,1.39063 -1.39062,1.39062 -1.57812,3.45312 z M 240.9375,150 h -2.92188 v -1.85938 q -0.39062,0.26563 -1.0625,0.75 -0.65625,0.46875 -1.28125,0.75 -0.73437,0.35938 -1.6875,0.59375 -0.95312,0.25 -2.23437,0.25 -2.35938,0 -4,-1.5625 -1.64063,-1.5625 -1.64063,-3.98437 0,-1.98438 0.84375,-3.20313 0.85938,-1.23437 2.4375,-1.9375 1.59375,-0.70312 3.82813,-0.95312 2.23437,-0.25 4.79687,-0.375 v -0.45313 q 0,-1 -0.35937,-1.65625 -0.34375,-0.65625 -1,-1.03125 -0.625,-0.35937 -1.5,-0.48437 -0.875,-0.125 -1.82813,-0.125 -1.15625,0 -2.57812,0.3125 -1.42188,0.29687 -2.9375,0.875 h -0.15625 v -2.98438 q 0.85937,-0.23437 2.48437,-0.51562 1.625,-0.28125 3.20313,-0.28125 1.84375,0 3.20312,0.3125 1.375,0.29687 2.375,1.03125 0.98438,0.71875 1.5,1.85937 0.51563,1.14063 0.51563,2.82813 z m -2.92188,-4.29688 v -4.85937 q -1.34375,0.0781 -3.17187,0.23437 -1.8125,0.15625 -2.875,0.45313 -1.26563,0.35937 -2.04688,1.125 -0.78125,0.75 -0.78125,2.07812 0,1.5 0.90625,2.26563 0.90625,0.75 2.76563,0.75 1.54687,0 2.82812,-0.59375 1.28125,-0.60938 2.375,-1.45313 z M 257.48437,135.75 h -0.15625 q -0.65625,-0.15625 -1.28125,-0.21875 -0.60937,-0.0781 -1.45312,-0.0781 -1.35938,0 -2.625,0.60938 -1.26563,0.59375 -2.4375,1.54687 V 150 h -2.9375 v -17.45313 h 2.9375 v 2.57813 q 1.75,-1.40625 3.07812,-1.98438 1.34375,-0.59375 2.73438,-0.59375 0.76562,0 1.10937,0.0469 0.34375,0.0312 1.03125,0.14062 z m 11.82813,14.09375 q -0.82813,0.21875 -1.8125,0.35937 -0.96875,0.14063 -1.73438,0.14063 -2.67187,0 -4.0625,-1.4375 -1.39062,-1.4375 -1.39062,-4.60938 v -9.28125 h -1.98438 v -2.46875 h 1.98438 v -5.01562 h 2.9375 v 5.01562 h 6.0625 v 2.46875 H 263.25 v 7.95313 q 0,1.375 0.0625,2.15625 0.0625,0.76562 0.4375,1.4375 0.34375,0.625 0.9375,0.92187 0.60937,0.28125 1.84375,0.28125 0.71875,0 1.5,-0.20312 0.78125,-0.21875 1.125,-0.35938 h 0.15625 z m 9.64062,-4.29688 -4.40625,10.23438 h -2.28125 l 2.71875,-10.23438 z M 309.3125,150 h -2.92188 v -1.85938 q -0.39062,0.26563 -1.0625,0.75 -0.65625,0.46875 -1.28125,0.75 -0.73437,0.35938 -1.6875,0.59375 -0.95312,0.25 -2.23437,0.25 -2.35938,0 -4,-1.5625 -1.64063,-1.5625 -1.64063,-3.98437 0,-1.98438 0.84375,-3.20313 0.85938,-1.23437 2.4375,-1.9375 1.59375,-0.70312 3.82813,-0.95312 2.23437,-0.25 4.79687,-0.375 v -0.45313 q 0,-1 -0.35937,-1.65625 -0.34375,-0.65625 -1,-1.03125 -0.625,-0.35937 -1.5,-0.48437 -0.875,-0.125 -1.82813,-0.125 -1.15625,0 -2.57812,0.3125 -1.42188,0.29687 -2.9375,0.875 h -0.15625 v -2.98438 q 0.85937,-0.23437 2.48437,-0.51562 1.625,-0.28125 3.20313,-0.28125 1.84375,0 3.20312,0.3125 1.375,0.29687 2.375,1.03125 0.98438,0.71875 1.5,1.85937 0.51563,1.14063 0.51563,2.82813 z m -2.92188,-4.29688 v -4.85937 q -1.34375,0.0781 -3.17187,0.23437 -1.8125,0.15625 -2.875,0.45313 -1.26563,0.35937 -2.04688,1.125 -0.78125,0.75 -0.78125,2.07812 0,1.5 0.90625,2.26563 0.90625,0.75 2.76563,0.75 1.54687,0 2.82812,-0.59375 1.28125,-0.60938 2.375,-1.45313 z m 29.21875,-17.17187 h -0.15625 q -0.48437,-0.14063 -1.26562,-0.28125 -0.78125,-0.15625 -1.375,-0.15625 -1.89063,0 -2.75,0.84375 -0.84375,0.82812 -0.84375,3.01562 v 0.59375 h 5.29687 v 2.46875 H 329.3125 V 150 h -2.9375 v -14.98438 h -1.98438 v -2.46875 h 1.98438 v -0.57812 q 0,-3.10938 1.54687,-4.76562 1.54688,-1.67188 4.46875,-1.67188 0.98438,0 1.76563,0.0937 0.79687,0.0937 1.45312,0.21875 z M 351.9375,150 H 349 v -1.9375 q -1.48438,1.17187 -2.84375,1.79687 -1.35938,0.625 -3,0.625 -2.75,0 -4.28125,-1.67187 -1.53125,-1.6875 -1.53125,-4.9375 v -11.32813 h 2.9375 v 9.9375 q 0,1.32813 0.125,2.28125 0.125,0.9375 0.53125,1.60938 0.42187,0.6875 1.09375,1 0.67187,0.3125 1.95312,0.3125 1.14063,0 2.48438,-0.59375 Q 347.82812,146.5 349,145.57812 v -13.03125 h 2.9375 z m 14.84375,-0.15625 q -0.82813,0.21875 -1.8125,0.35937 -0.96875,0.14063 -1.73438,0.14063 -2.67187,0 -4.0625,-1.4375 -1.39062,-1.4375 -1.39062,-4.60938 v -9.28125 h -1.98438 v -2.46875 h 1.98438 v -5.01562 h 2.9375 v 5.01562 h 6.0625 v 2.46875 h -6.0625 v 7.95313 q 0,1.375 0.0625,2.15625 0.0625,0.76562 0.4375,1.4375 0.34375,0.625 0.9375,0.92187 0.60937,0.28125 1.84375,0.28125 0.71875,0 1.5,-0.20312 0.78125,-0.21875 1.125,-0.35938 h 0.15625 z M 384.79687,150 h -2.9375 v -1.9375 q -1.48437,1.17187 -2.84375,1.79687 -1.35937,0.625 -3,0.625 -2.75,0 -4.28125,-1.67187 -1.53125,-1.6875 -1.53125,-4.9375 v -11.32813 h 2.9375 v 9.9375 q 0,1.32813 0.125,2.28125 0.125,0.9375 0.53125,1.60938 0.42188,0.6875 1.09375,1 0.67188,0.3125 1.95313,0.3125 1.14062,0 2.48437,-0.59375 1.35938,-0.59375 2.53125,-1.51563 v -13.03125 h 2.9375 z m 16.67188,-14.25 h -0.15625 q -0.65625,-0.15625 -1.28125,-0.21875 -0.60938,-0.0781 -1.45313,-0.0781 -1.35937,0 -2.625,0.60938 -1.26562,0.59375 -2.4375,1.54687 V 150 h -2.9375 v -17.45313 h 2.9375 v 2.57813 q 1.75,-1.40625 3.07813,-1.98438 1.34375,-0.59375 2.73437,-0.59375 0.76563,0 1.10938,0.0469 0.34375,0.0312 1.03125,0.14062 z m 17.375,5.82812 h -12.85938 q 0,1.60938 0.48438,2.8125 0.48437,1.1875 1.32812,1.95313 0.8125,0.75 1.92188,1.125 1.125,0.375 2.46875,0.375 1.78125,0 3.57812,-0.70313 1.8125,-0.71875 2.57813,-1.40625 H 418.5 v 3.20313 q -1.48438,0.625 -3.03125,1.04687 -1.54688,0.42188 -3.25,0.42188 -4.34375,0 -6.78125,-2.34375 Q 403,145.70312 403,141.375 q 0,-4.28125 2.32812,-6.79688 2.34375,-2.51562 6.15625,-2.51562 3.53125,0 5.4375,2.0625 1.92188,2.0625 1.92188,5.85937 z m -2.85938,-2.25 q -0.0156,-2.3125 -1.17187,-3.57812 -1.14063,-1.26563 -3.48438,-1.26563 -2.35937,0 -3.76562,1.39063 -1.39063,1.39062 -1.57813,3.45312 z m 31.03125,5.64063 q 0,2.39062 -1.98437,3.92187 -1.96875,1.53125 -5.39063,1.53125 -1.9375,0 -3.5625,-0.45312 -1.60937,-0.46875 -2.70312,-1.01563 v -3.29687 h 0.15625 q 1.39062,1.04687 3.09375,1.67187 1.70312,0.60938 3.26562,0.60938 1.9375,0 3.03125,-0.625 1.09375,-0.625 1.09375,-1.96875 0,-1.03125 -0.59375,-1.5625 -0.59375,-0.53125 -2.28125,-0.90625 -0.625,-0.14063 -1.64062,-0.32813 -1,-0.1875 -1.82813,-0.40625 -2.29687,-0.60937 -3.26562,-1.78125 -0.95313,-1.1875 -0.95313,-2.90625 0,-1.07812 0.4375,-2.03125 0.45313,-0.95312 1.35938,-1.70312 0.875,-0.73438 2.21875,-1.15625 1.35937,-0.4375 3.03125,-0.4375 1.5625,0 3.15625,0.39062 1.60937,0.375 2.67187,0.92188 v 3.14062 h -0.15625 q -1.125,-0.82812 -2.73437,-1.39062 -1.60938,-0.57813 -3.15625,-0.57813 -1.60938,0 -2.71875,0.625 -1.10938,0.60938 -1.10938,1.82813 0,1.07812 0.67188,1.625 0.65625,0.54687 2.125,0.89062 0.8125,0.1875 1.8125,0.375 1.01562,0.1875 1.6875,0.34375 2.04687,0.46875 3.15625,1.60938 1.10937,1.15625 1.10937,3.0625 z M 465.8125,150 h -2.9375 v -9.9375 q 0,-1.20313 -0.14063,-2.25 -0.14062,-1.0625 -0.51562,-1.65625 -0.39063,-0.65625 -1.125,-0.96875 -0.73438,-0.32813 -1.90625,-0.32813 -1.20313,0 -2.51563,0.59375 -1.3125,0.59375 -2.51562,1.51563 V 150 h -2.9375 v -24.3125 h 2.9375 v 8.79687 q 1.375,-1.14062 2.84375,-1.78125 1.46875,-0.64062 3.01562,-0.64062 2.82813,0 4.3125,1.70312 1.48438,1.70313 1.48438,4.90625 z m 8.8125,-20.375 h -3.3125 v -3.04687 h 3.3125 z M 474.4375,150 H 471.5 v -17.45313 h 2.9375 z m 20.40625,0 h -2.9375 v -9.9375 q 0,-1.20313 -0.14063,-2.25 -0.14062,-1.0625 -0.51562,-1.65625 -0.39063,-0.65625 -1.125,-0.96875 -0.73438,-0.32813 -1.90625,-0.32813 -1.20313,0 -2.51563,0.59375 -1.3125,0.59375 -2.51562,1.51563 V 150 H 480.25 v -17.45313 h 2.9375 v 1.9375 q 1.375,-1.14062 2.84375,-1.78125 1.46875,-0.64062 3.01562,-0.64062 2.82813,0 4.3125,1.70312 1.48438,1.70313 1.48438,4.90625 z m 8.8125,-20.375 h -3.3125 v -3.04687 h 3.3125 z M 503.46875,150 h -2.9375 v -17.45313 h 2.9375 z m 20.40625,0 h -2.9375 v -9.9375 q 0,-1.20313 -0.14063,-2.25 -0.14062,-1.0625 -0.51562,-1.65625 -0.39063,-0.65625 -1.125,-0.96875 -0.73438,-0.32813 -1.90625,-0.32813 -1.20313,0 -2.51563,0.59375 -1.3125,0.59375 -2.51562,1.51563 V 150 h -2.9375 v -17.45313 h 2.9375 v 1.9375 q 1.375,-1.14062 2.84375,-1.78125 1.46875,-0.64062 3.01562,-0.64062 2.82813,0 4.3125,1.70312 1.48438,1.70313 1.48438,4.90625 z m 19.8125,-1.98438 q 0,4.4375 -2.01563,6.51563 -2.01562,2.07812 -6.20312,2.07812 -1.39063,0 -2.71875,-0.20312 -1.3125,-0.1875 -2.59375,-0.54688 v -3 h 0.15625 q 0.71875,0.28125 2.28125,0.6875 1.5625,0.42188 3.125,0.42188 1.5,0 2.48437,-0.35938 0.98438,-0.35937 1.53125,-1 0.54688,-0.60937 0.78125,-1.46875 0.23438,-0.85937 0.23438,-1.92187 V 147.625 q -1.32813,1.0625 -2.54688,1.59375 -1.20312,0.51562 -3.07812,0.51562 -3.125,0 -4.96875,-2.25 -1.82813,-2.26562 -1.82813,-6.375 0,-2.25 0.625,-3.875 0.64063,-1.64062 1.73438,-2.82812 1.01562,-1.10938 2.46875,-1.71875 1.45312,-0.625 2.89062,-0.625 1.51563,0 2.53125,0.3125 1.03125,0.29687 2.17188,0.92187 l 0.1875,-0.75 h 2.75 z m -2.9375,-2.8125 v -9.51562 q -1.17188,-0.53125 -2.1875,-0.75 -1,-0.23438 -2,-0.23438 -2.42188,0 -3.8125,1.625 -1.39063,1.625 -1.39063,4.71875 0,2.9375 1.03125,4.45313 1.03125,1.51562 3.42188,1.51562 1.28125,0 2.5625,-0.48437 1.29687,-0.5 2.375,-1.32813 z M 563.6875,150 H 560.75 v -24.3125 h 2.9375 z m 8.96875,-20.375 h -3.3125 v -3.04687 h 3.3125 z M 572.46875,150 h -2.9375 v -17.45313 h 2.9375 z m 19.96875,-1.98438 q 0,4.4375 -2.01563,6.51563 -2.01562,2.07812 -6.20312,2.07812 -1.39063,0 -2.71875,-0.20312 -1.3125,-0.1875 -2.59375,-0.54688 v -3 h 0.15625 q 0.71875,0.28125 2.28125,0.6875 1.5625,0.42188 3.125,0.42188 1.5,0 2.48437,-0.35938 0.98438,-0.35937 1.53125,-1 Q 589.03125,152 589.26562,151.14062 589.5,150.28125 589.5,149.21875 V 147.625 q -1.32813,1.0625 -2.54688,1.59375 -1.20312,0.51562 -3.07812,0.51562 -3.125,0 -4.96875,-2.25 -1.82813,-2.26562 -1.82813,-6.375 0,-2.25 0.625,-3.875 0.64063,-1.64062 1.73438,-2.82812 1.01562,-1.10938 2.46875,-1.71875 1.45312,-0.625 2.89062,-0.625 1.51563,0 2.53125,0.3125 1.03125,0.29687 2.17188,0.92187 l 0.1875,-0.75 h 2.75 z m -2.9375,-2.8125 v -9.51562 q -1.17188,-0.53125 -2.1875,-0.75 -1,-0.23438 -2,-0.23438 -2.42188,0 -3.8125,1.625 -1.39063,1.625 -1.39063,4.71875 0,2.9375 1.03125,4.45313 1.03125,1.51562 3.42188,1.51562 1.28125,0 2.5625,-0.48437 1.29687,-0.5 2.375,-1.32813 z M 612.8125,150 h -2.9375 v -9.9375 q 0,-1.20313 -0.14063,-2.25 -0.14062,-1.0625 -0.51562,-1.65625 -0.39063,-0.65625 -1.125,-0.96875 -0.73438,-0.32813 -1.90625,-0.32813 -1.20313,0 -2.51563,0.59375 -1.3125,0.59375 -2.51562,1.51563 V 150 h -2.9375 v -24.3125 h 2.9375 v 8.79687 q 1.375,-1.14062 2.84375,-1.78125 1.46875,-0.64062 3.01562,-0.64062 2.82813,0 4.3125,1.70312 1.48438,1.70313 1.48438,4.90625 z m 14.71875,-0.15625 q -0.82813,0.21875 -1.8125,0.35937 -0.96875,0.14063 -1.73438,0.14063 -2.67187,0 -4.0625,-1.4375 -1.39062,-1.4375 -1.39062,-4.60938 v -9.28125 h -1.98438 v -2.46875 h 1.98438 v -5.01562 h 2.9375 v 5.01562 h 6.0625 v 2.46875 h -6.0625 v 7.95313 q 0,1.375 0.0625,2.15625 0.0625,0.76562 0.4375,1.4375 0.34375,0.625 0.9375,0.92187 0.60937,0.28125 1.84375,0.28125 0.71875,0 1.5,-0.20312 0.78125,-0.21875 1.125,-0.35938 h 0.15625 z M 635.875,150 h -3.73438 v -4.45313 h 3.73438 z"
         id="path5" />
      <path
         d="M 70.875,200 H 67.046875 L 56.015625,179.1875 V 200 H 53.125 v -23.26563 h 4.796875 l 10.0625,19 v -19 H 70.875 Z m 20.828125,-8.71875 q 0,4.26562 -2.1875,6.73437 -2.1875,2.46875 -5.859375,2.46875 -3.703125,0 -5.890625,-2.46875 -2.171875,-2.46875 -2.171875,-6.73437 0,-4.26563 2.171875,-6.73438 2.1875,-2.48437 5.890625,-2.48437 3.671875,0 5.859375,2.48437 2.1875,2.46875 2.1875,6.73438 z m -3.03125,0 q 0,-3.39063 -1.328125,-5.03125 -1.328125,-1.65625 -3.6875,-1.65625 -2.390625,0 -3.71875,1.65625 -1.3125,1.64062 -1.3125,5.03125 0,3.28125 1.328125,4.98437 1.328125,1.6875 3.703125,1.6875 2.34375,0 3.671875,-1.67187 1.34375,-1.6875 1.34375,-5 z m 28.218755,-12.75 h -0.15625 q -0.48438,-0.14063 -1.26563,-0.28125 -0.78125,-0.15625 -1.375,-0.15625 -1.89062,0 -2.75,0.84375 -0.84375,0.82812 -0.84375,3.01562 v 0.59375 h 5.29688 v 2.46875 h -5.20313 V 200 h -2.9375 v -14.98438 h -1.98437 v -2.46875 h 1.98437 v -0.57812 q 0,-3.10938 1.54688,-4.76563 1.54687,-1.67187 4.46875,-1.67187 0.98437,0 1.76562,0.0937 0.79688,0.0937 1.45313,0.21875 z M 121.71875,200 h -2.9375 v -24.3125 h 2.9375 z m 20.42187,-8.42188 h -12.85937 q 0,1.60938 0.48437,2.8125 0.48438,1.1875 1.32813,1.95313 0.8125,0.75 1.92187,1.125 1.125,0.375 2.46875,0.375 1.78125,0 3.57813,-0.70313 1.8125,-0.71875 2.57812,-1.40625 h 0.15625 v 3.20313 q -1.48437,0.625 -3.03125,1.04687 -1.54687,0.42188 -3.25,0.42188 -4.34375,0 -6.78125,-2.34375 -2.43749,-2.35938 -2.43749,-6.6875 0,-4.28125 2.32812,-6.79688 2.34375,-2.51562 6.15625,-2.51562 3.53125,0 5.4375,2.0625 1.92187,2.0625 1.92187,5.85937 z m -2.85937,-2.25 q -0.0156,-2.3125 -1.17188,-3.57812 -1.14062,-1.26563 -3.48437,-1.26563 -2.35938,0 -3.76563,1.39063 -1.39062,1.39062 -1.57812,3.45312 z m 19.78125,5.64063 q 0,2.39062 -1.98438,3.92187 -1.96875,1.53125 -5.39062,1.53125 -1.9375,0 -3.5625,-0.45312 -1.60938,-0.46875 -2.70313,-1.01563 v -3.29687 h 0.15625 q 1.39063,1.04687 3.09375,1.67187 1.70313,0.60938 3.26563,0.60938 1.9375,0 3.03125,-0.625 1.09375,-0.625 1.09375,-1.96875 0,-1.03125 -0.59375,-1.5625 -0.59375,-0.53125 -2.28125,-0.90625 -0.625,-0.14063 -1.64063,-0.32813 -1,-0.1875 -1.82812,-0.40625 -2.29688,-0.60937 -3.26563,-1.78125 -0.95312,-1.1875 -0.95312,-2.90625 0,-1.07812 0.4375,-2.03125 0.45312,-0.95312 1.35937,-1.70312 0.875,-0.73438 2.21875,-1.15625 1.35938,-0.4375 3.03125,-0.4375 1.5625,0 3.15625,0.39062 1.60938,0.375 2.67188,0.92188 v 3.14062 h -0.15625 q -1.125,-0.82812 -2.73438,-1.39062 -1.60937,-0.57813 -3.15625,-0.57813 -1.60937,0 -2.71875,0.625 -1.10937,0.60938 -1.10937,1.82813 0,1.07812 0.67187,1.625 0.65625,0.54687 2.125,0.89062 0.8125,0.1875 1.8125,0.375 1.01563,0.1875 1.6875,0.34375 2.04688,0.46875 3.15625,1.60938 1.10938,1.15625 1.10938,3.0625 z M 177.85937,200 h -2.9375 v -9.9375 q 0,-1.20313 -0.14062,-2.25 -0.14063,-1.0625 -0.51563,-1.65625 -0.39062,-0.65625 -1.125,-0.96875 -0.73437,-0.32813 -1.90625,-0.32813 -1.20312,0 -2.51562,0.59375 -1.3125,0.59375 -2.51563,1.51563 V 200 h -2.9375 v -24.3125 h 2.9375 v 8.79687 q 1.375,-1.14062 2.84375,-1.78125 1.46875,-0.64062 3.01563,-0.64062 2.82812,0 4.3125,1.70312 1.48437,1.70313 1.48437,4.90625 z m 30.46875,0 h -2.92187 v -1.85938 q -0.39063,0.26563 -1.0625,0.75 -0.65625,0.46875 -1.28125,0.75 -0.73438,0.35938 -1.6875,0.59375 -0.95313,0.25 -2.23438,0.25 -2.35937,0 -4,-1.5625 -1.64062,-1.5625 -1.64062,-3.98437 0,-1.98438 0.84375,-3.20313 0.85937,-1.23437 2.4375,-1.9375 1.59375,-0.70312 3.82812,-0.95312 2.23438,-0.25 4.79688,-0.375 v -0.45313 q 0,-1 -0.35938,-1.65625 -0.34375,-0.65625 -1,-1.03125 -0.625,-0.35937 -1.5,-0.48437 -0.875,-0.125 -1.82812,-0.125 -1.15625,0 -2.57813,0.3125 -1.42187,0.29687 -2.9375,0.875 h -0.15625 v -2.98438 q 0.85938,-0.23437 2.48438,-0.51562 1.625,-0.28125 3.20312,-0.28125 1.84375,0 3.20313,0.3125 1.375,0.29687 2.375,1.03125 0.98437,0.71875 1.5,1.85937 0.51562,1.14063 0.51562,2.82813 z m -2.92187,-4.29688 v -4.85937 q -1.34375,0.0781 -3.17188,0.23437 -1.8125,0.15625 -2.875,0.45313 -1.26562,0.35937 -2.04687,1.125 -0.78125,0.75 -0.78125,2.07812 0,1.5 0.90625,2.26563 0.90625,0.75 2.76562,0.75 1.54688,0 2.82813,-0.59375 1.28125,-0.60938 2.375,-1.45313 z M 228.57812,200 h -2.9375 v -9.9375 q 0,-1.20313 -0.14062,-2.25 -0.14063,-1.0625 -0.51563,-1.65625 -0.39062,-0.65625 -1.125,-0.96875 -0.73437,-0.32813 -1.90625,-0.32813 -1.20312,0 -2.51562,0.59375 -1.3125,0.59375 -2.51563,1.51563 V 200 h -2.9375 v -17.45313 h 2.9375 v 1.9375 q 1.375,-1.14062 2.84375,-1.78125 1.46875,-0.64062 3.01563,-0.64062 2.82812,0 4.3125,1.70312 1.48437,1.70313 1.48437,4.90625 z m 19.8125,0 h -2.9375 v -1.82813 q -1.26562,1.09375 -2.64062,1.70313 -1.375,0.60937 -2.98438,0.60937 -3.125,0 -4.96875,-2.40625 -1.82812,-2.40625 -1.82812,-6.67187 0,-2.21875 0.625,-3.95313 0.64062,-1.73437 1.71875,-2.95312 1.0625,-1.1875 2.46875,-1.8125 1.42187,-0.625 2.9375,-0.625 1.375,0 2.4375,0.29687 1.0625,0.28125 2.23437,0.89063 v -7.5625 h 2.9375 z m -2.9375,-4.29688 V 185.6875 q -1.1875,-0.53125 -2.125,-0.73438 -0.9375,-0.20312 -2.04687,-0.20312 -2.46875,0 -3.84375,1.71875 -1.375,1.71875 -1.375,4.875 0,3.10937 1.0625,4.73437 1.0625,1.60938 3.40625,1.60938 1.25,0 2.53125,-0.54688 1.28125,-0.5625 2.39062,-1.4375 z m 35.32813,-4.5625 q 0,2.1875 -0.625,3.9375 -0.60938,1.75 -1.65625,2.9375 -1.10938,1.23438 -2.4375,1.85938 -1.32813,0.60937 -2.92188,0.60937 -1.48437,0 -2.59375,-0.35937 -1.10937,-0.34375 -2.1875,-0.9375 L 268.17187,200 h -2.75 v -24.3125 h 2.9375 v 8.6875 q 1.23438,-1.01563 2.625,-1.65625 1.39063,-0.65625 3.125,-0.65625 3.09375,0 4.875,2.375 1.79688,2.375 1.79688,6.70312 z m -3.03125,0.0781 q 0,-3.125 -1.03125,-4.73438 -1.03125,-1.625 -3.32813,-1.625 -1.28125,0 -2.59375,0.5625 -1.3125,0.54688 -2.4375,1.42188 v 10 q 1.25,0.5625 2.14063,0.78125 0.90625,0.21875 2.04687,0.21875 2.4375,0 3.8125,-1.59375 1.39063,-1.60938 1.39063,-5.03125 z m 22.48437,0.0625 q 0,4.26562 -2.1875,6.73437 -2.1875,2.46875 -5.85937,2.46875 -3.70313,0 -5.89063,-2.46875 -2.17187,-2.46875 -2.17187,-6.73437 0,-4.26563 2.17187,-6.73438 2.1875,-2.48437 5.89063,-2.48437 3.67187,0 5.85937,2.48437 2.1875,2.46875 2.1875,6.73438 z m -3.03125,0 q 0,-3.39063 -1.32812,-5.03125 -1.32813,-1.65625 -3.6875,-1.65625 -2.39063,0 -3.71875,1.65625 -1.3125,1.64062 -1.3125,5.03125 0,3.28125 1.32812,4.98437 1.32813,1.6875 3.70313,1.6875 2.34375,0 3.67187,-1.67187 1.34375,-1.6875 1.34375,-5 z M 319.375,200 h -2.9375 v -9.9375 q 0,-1.20313 -0.14063,-2.25 -0.14062,-1.0625 -0.51562,-1.65625 -0.39063,-0.65625 -1.125,-0.96875 -0.73438,-0.32813 -1.90625,-0.32813 -1.20313,0 -2.51563,0.59375 -1.3125,0.59375 -2.51562,1.51563 V 200 h -2.9375 v -17.45313 h 2.9375 v 1.9375 q 1.375,-1.14062 2.84375,-1.78125 1.46875,-0.64062 3.01562,-0.64062 2.82813,0 4.3125,1.70312 1.48438,1.70313 1.48438,4.90625 z m 20.26562,-8.42188 h -12.85937 q 0,1.60938 0.48437,2.8125 0.48438,1.1875 1.32813,1.95313 0.8125,0.75 1.92187,1.125 1.125,0.375 2.46875,0.375 1.78125,0 3.57813,-0.70313 1.8125,-0.71875 2.57812,-1.40625 h 0.15625 v 3.20313 q -1.48437,0.625 -3.03125,1.04687 -1.54687,0.42188 -3.25,0.42188 -4.34375,0 -6.78125,-2.34375 -2.4375,-2.35938 -2.4375,-6.6875 0,-4.28125 2.32813,-6.79688 2.34375,-2.51562 6.15625,-2.51562 3.53125,0 5.4375,2.0625 1.92187,2.0625 1.92187,5.85937 z m -2.85937,-2.25 q -0.0156,-2.3125 -1.17188,-3.57812 -1.14062,-1.26563 -3.48437,-1.26563 -2.35938,0 -3.76563,1.39063 -1.39062,1.39062 -1.57812,3.45312 z m 13.40625,6.21875 -4.40625,10.23438 H 343.5 l 2.71875,-10.23438 z m 31.89062,-13 -10.1875,23.89063 H 368.75 l 3.25,-7.28125 -6.95313,-16.60938 h 3.1875 l 5.35938,12.9375 L 379,182.54687 Z m 18.17188,9.03125 h -12.85938 q 0,1.60938 0.48438,2.8125 0.48437,1.1875 1.32812,1.95313 0.8125,0.75 1.92188,1.125 1.125,0.375 2.46875,0.375 1.78125,0 3.57812,-0.70313 1.8125,-0.71875 2.57813,-1.40625 h 0.15625 v 3.20313 q -1.48438,0.625 -3.03125,1.04687 -1.54688,0.42188 -3.25,0.42188 -4.34375,0 -6.78125,-2.34375 -2.4375,-2.35938 -2.4375,-6.6875 0,-4.28125 2.32812,-6.79688 2.34375,-2.51562 6.15625,-2.51562 3.53125,0 5.4375,2.0625 1.92188,2.0625 1.92188,5.85937 z m -2.85938,-2.25 q -0.0156,-2.3125 -1.17187,-3.57812 -1.14063,-1.26563 -3.48438,-1.26563 -2.35937,0 -3.76562,1.39063 -1.39063,1.39062 -1.57813,3.45312 z m 16.375,10.51563 q -0.82812,0.21875 -1.8125,0.35937 -0.96875,0.14063 -1.73437,0.14063 -2.67188,0 -4.0625,-1.4375 -1.39063,-1.4375 -1.39063,-4.60938 v -9.28125 h -1.98437 v -2.46875 h 1.98437 v -5.01562 h 2.9375 v 5.01562 h 6.0625 v 2.46875 h -6.0625 v 7.95313 q 0,1.375 0.0625,2.15625 0.0625,0.76562 0.4375,1.4375 0.34375,0.625 0.9375,0.92187 0.60938,0.28125 1.84375,0.28125 0.71875,0 1.5,-0.20312 0.78125,-0.21875 1.125,-0.35938 h 0.15625 z m 27.26563,-4.875 q 0,2.39062 -1.98438,3.92187 -1.96875,1.53125 -5.39062,1.53125 -1.9375,0 -3.5625,-0.45312 -1.60938,-0.46875 -2.70313,-1.01563 v -3.29687 h 0.15625 q 1.39063,1.04687 3.09375,1.67187 1.70313,0.60938 3.26563,0.60938 1.9375,0 3.03125,-0.625 1.09375,-0.625 1.09375,-1.96875 0,-1.03125 -0.59375,-1.5625 -0.59375,-0.53125 -2.28125,-0.90625 -0.625,-0.14063 -1.64063,-0.32813 -1,-0.1875 -1.82812,-0.40625 -2.29688,-0.60937 -3.26563,-1.78125 -0.95312,-1.1875 -0.95312,-2.90625 0,-1.07812 0.4375,-2.03125 0.45312,-0.95312 1.35937,-1.70312 0.875,-0.73438 2.21875,-1.15625 1.35938,-0.4375 3.03125,-0.4375 1.5625,0 3.15625,0.39062 1.60938,0.375 2.67188,0.92188 v 3.14062 h -0.15625 q -1.125,-0.82812 -2.73438,-1.39062 -1.60937,-0.57813 -3.15625,-0.57813 -1.60937,0 -2.71875,0.625 -1.10937,0.60938 -1.10937,1.82813 0,1.07812 0.67187,1.625 0.65625,0.54687 2.125,0.89062 0.8125,0.1875 1.8125,0.375 1.01563,0.1875 1.6875,0.34375 2.04688,0.46875 3.15625,1.60938 1.10938,1.15625 1.10938,3.0625 z m 19.5625,-3.90625 q 0,2.125 -0.60938,3.89062 -0.60937,1.75 -1.71875,2.96875 -1.03125,1.15625 -2.4375,1.79688 -1.39062,0.625 -2.95312,0.625 -1.35938,0 -2.46875,-0.29688 -1.09375,-0.29687 -2.23438,-0.92187 v 7.3125 h -2.9375 v -23.89063 h 2.9375 v 1.82813 q 1.17188,-0.98438 2.625,-1.64063 1.46875,-0.67187 3.125,-0.67187 3.15625,0 4.90625,2.39062 1.76563,2.375 1.76563,6.60938 z m -3.03125,0.0781 q 0,-3.15625 -1.07813,-4.71875 -1.07812,-1.5625 -3.3125,-1.5625 -1.26562,0 -2.54687,0.54688 -1.28125,0.54687 -2.45313,1.4375 v 9.89062 q 1.25,0.5625 2.14063,0.76563 0.90625,0.20312 2.04687,0.20312 2.45313,0 3.82813,-1.65625 1.375,-1.65625 1.375,-4.90625 z M 468.32812,179.625 h -3.3125 v -3.04688 h 3.3125 z M 468.14062,200 h -2.9375 v -17.45313 h 2.9375 z m 16.70313,-14.25 h -0.15625 q -0.65625,-0.15625 -1.28125,-0.21875 -0.60938,-0.0781 -1.45313,-0.0781 -1.35937,0 -2.625,0.60938 -1.26562,0.59375 -2.4375,1.54687 V 200 h -2.9375 v -17.45313 h 2.9375 v 2.57813 q 1.75,-1.40625 3.07813,-1.98438 1.34375,-0.59375 2.73437,-0.59375 0.76563,0 1.10938,0.0469 0.34375,0.0312 1.03125,0.14062 z m 5.92187,-6.125 h -3.3125 v -3.04688 h 3.3125 z M 490.57812,200 h -2.9375 v -17.45313 h 2.9375 z m 14.875,-0.15625 q -0.82812,0.21875 -1.8125,0.35937 -0.96875,0.14063 -1.73437,0.14063 -2.67188,0 -4.0625,-1.4375 -1.39063,-1.4375 -1.39063,-4.60938 v -9.28125 h -1.98437 v -2.46875 h 1.98437 v -5.01562 h 2.9375 v 5.01562 h 6.0625 v 2.46875 h -6.0625 v 7.95313 q 0,1.375 0.0625,2.15625 0.0625,0.76562 0.4375,1.4375 0.34375,0.625 0.9375,0.92187 0.60938,0.28125 1.84375,0.28125 0.71875,0 1.5,-0.20312 0.78125,-0.21875 1.125,-0.35938 h 0.15625 z m 23.85938,0 q -0.82813,0.21875 -1.8125,0.35937 -0.96875,0.14063 -1.73438,0.14063 -2.67187,0 -4.0625,-1.4375 -1.39062,-1.4375 -1.39062,-4.60938 v -9.28125 h -1.98438 v -2.46875 h 1.98438 v -5.01562 h 2.9375 v 5.01562 h 6.0625 v 2.46875 H 523.25 v 7.95313 q 0,1.375 0.0625,2.15625 0.0625,0.76562 0.4375,1.4375 0.34375,0.625 0.9375,0.92187 0.60937,0.28125 1.84375,0.28125 0.71875,0 1.5,-0.20312 0.78125,-0.21875 1.125,-0.35938 h 0.15625 z M 546.42187,200 H 543.5 v -1.85938 q -0.39063,0.26563 -1.0625,0.75 -0.65625,0.46875 -1.28125,0.75 -0.73438,0.35938 -1.6875,0.59375 -0.95313,0.25 -2.23438,0.25 -2.35937,0 -4,-1.5625 -1.64062,-1.5625 -1.64062,-3.98437 0,-1.98438 0.84375,-3.20313 0.85937,-1.23437 2.4375,-1.9375 1.59375,-0.70312 3.82812,-0.95312 2.23438,-0.25 4.79688,-0.375 v -0.45313 q 0,-1 -0.35938,-1.65625 -0.34375,-0.65625 -1,-1.03125 -0.625,-0.35937 -1.5,-0.48437 -0.875,-0.125 -1.82812,-0.125 -1.15625,0 -2.57813,0.3125 -1.42187,0.29687 -2.9375,0.875 h -0.15625 v -2.98438 Q 534,182.6875 535.625,182.40625 q 1.625,-0.28125 3.20312,-0.28125 1.84375,0 3.20313,0.3125 1.375,0.29687 2.375,1.03125 0.98437,0.71875 1.5,1.85937 0.51562,1.14063 0.51562,2.82813 z M 543.5,195.70312 v -4.85937 q -1.34375,0.0781 -3.17188,0.23437 -1.8125,0.15625 -2.875,0.45313 -1.26562,0.35937 -2.04687,1.125 -0.78125,0.75 -0.78125,2.07812 0,1.5 0.90625,2.26563 0.90625,0.75 2.76562,0.75 1.54688,0 2.82813,-0.59375 1.28125,-0.60938 2.375,-1.45313 z M 567.92187,200 h -3.875 l -7,-7.64063 -1.90625,1.8125 V 200 h -2.9375 v -24.3125 h 2.9375 v 15.59375 l 8.48438,-8.73438 h 3.70312 l -8.10937,8.0625 z m 17.39063,-8.42188 h -12.85938 q 0,1.60938 0.48438,2.8125 0.48437,1.1875 1.32812,1.95313 0.8125,0.75 1.92188,1.125 1.125,0.375 2.46875,0.375 1.78125,0 3.57812,-0.70313 1.8125,-0.71875 2.57813,-1.40625 h 0.15625 v 3.20313 q -1.48438,0.625 -3.03125,1.04687 -1.54688,0.42188 -3.25,0.42188 -4.34375,0 -6.78125,-2.34375 -2.4375,-2.35938 -2.4375,-6.6875 0,-4.28125 2.32812,-6.79688 2.34375,-2.51562 6.15625,-2.51562 3.53125,0 5.4375,2.0625 1.92188,2.0625 1.92188,5.85937 z m -2.85938,-2.25 q -0.0156,-2.3125 -1.17187,-3.57812 -1.14063,-1.26563 -3.48438,-1.26563 -2.35937,0 -3.76562,1.39063 -1.39063,1.39062 -1.57813,3.45312 z m 19.78125,5.64063 q 0,2.39062 -1.98437,3.92187 -1.96875,1.53125 -5.39063,1.53125 -1.9375,0 -3.5625,-0.45312 -1.60937,-0.46875 -2.70312,-1.01563 v -3.29687 H 588.75 q 1.39062,1.04687 3.09375,1.67187 1.70312,0.60938 3.26562,0.60938 1.9375,0 3.03125,-0.625 1.09375,-0.625 1.09375,-1.96875 0,-1.03125 -0.59375,-1.5625 -0.59375,-0.53125 -2.28125,-0.90625 -0.625,-0.14063 -1.64062,-0.32813 -1,-0.1875 -1.82813,-0.40625 -2.29687,-0.60937 -3.26562,-1.78125 -0.95313,-1.1875 -0.95313,-2.90625 0,-1.07812 0.4375,-2.03125 0.45313,-0.95312 1.35938,-1.70312 0.875,-0.73438 2.21875,-1.15625 1.35937,-0.4375 3.03125,-0.4375 1.5625,0 3.15625,0.39062 1.60937,0.375 2.67187,0.92188 v 3.14062 h -0.15625 q -1.125,-0.82812 -2.73437,-1.39062 -1.60938,-0.57813 -3.15625,-0.57813 -1.60938,0 -2.71875,0.625 -1.10938,0.60938 -1.10938,1.82813 0,1.07812 0.67188,1.625 0.65625,0.54687 2.125,0.89062 0.8125,0.1875 1.8125,0.375 1.01562,0.1875 1.6875,0.34375 2.04687,0.46875 3.15625,1.60938 1.10937,1.15625 1.10937,3.0625 z M 620.84375,179.625 h -3.3125 v -3.04688 h 3.3125 z M 620.65625,200 h -2.9375 v -17.45313 h 2.9375 z m 14.875,-0.15625 q -0.82813,0.21875 -1.8125,0.35937 -0.96875,0.14063 -1.73438,0.14063 -2.67187,0 -4.0625,-1.4375 -1.39062,-1.4375 -1.39062,-4.60938 v -9.28125 h -1.98438 v -2.46875 h 1.98438 v -5.01562 h 2.9375 v 5.01562 h 6.0625 v 2.46875 h -6.0625 v 7.95313 q 0,1.375 0.0625,2.15625 0.0625,0.76562 0.4375,1.4375 0.34375,0.625 0.9375,0.92187 0.60937,0.28125 1.84375,0.28125 0.71875,0 1.5,-0.20312 0.78125,-0.21875 1.125,-0.35938 h 0.15625 z m 16.01562,-4.875 q 0,2.39062 -1.98437,3.92187 -1.96875,1.53125 -5.39063,1.53125 -1.9375,0 -3.5625,-0.45312 Q 639,199.5 637.90625,198.95312 v -3.29687 h 0.15625 q 1.39062,1.04687 3.09375,1.67187 1.70312,0.60938 3.26562,0.60938 1.9375,0 3.03125,-0.625 1.09375,-0.625 1.09375,-1.96875 0,-1.03125 -0.59375,-1.5625 -0.59375,-0.53125 -2.28125,-0.90625 -0.625,-0.14063 -1.64062,-0.32813 -1,-0.1875 -1.82813,-0.40625 -2.29687,-0.60937 -3.26562,-1.78125 -0.95313,-1.1875 -0.95313,-2.90625 0,-1.07812 0.4375,-2.03125 0.45313,-0.95312 1.35938,-1.70312 0.875,-0.73438 2.21875,-1.15625 1.35937,-0.4375 3.03125,-0.4375 1.5625,0 3.15625,0.39062 1.60937,0.375 2.67187,0.92188 v 3.14062 h -0.15625 q -1.125,-0.82812 -2.73437,-1.39062 -1.60938,-0.57813 -3.15625,-0.57813 -1.60938,0 -2.71875,0.625 -1.10938,0.60938 -1.10938,1.82813 0,1.07812 0.67188,1.625 0.65625,0.54687 2.125,0.89062 0.8125,0.1875 1.8125,0.375 1.01562,0.1875 1.6875,0.34375 2.04687,0.46875 3.15625,1.60938 1.10937,1.15625 1.10937,3.0625 z M 681.59375,200 h -2.9375 v -9.9375 q 0,-1.20313 -0.14063,-2.25 Q 678.375,186.75 678,186.15625 677.60937,185.5 676.875,185.1875 q -0.73438,-0.32813 -1.90625,-0.32813 -1.20313,0 -2.51563,0.59375 -1.3125,0.59375 -2.51562,1.51563 V 200 H 667 v -24.3125 h 2.9375 v 8.79687 q 1.375,-1.14062 2.84375,-1.78125 1.46875,-0.64062 3.01562,-0.64062 2.82813,0 4.3125,1.70312 1.48438,1.70313 1.48438,4.90625 z m 20.53125,-8.71875 q 0,4.26562 -2.1875,6.73437 -2.1875,2.46875 -5.85938,2.46875 -3.70312,0 -5.89062,-2.46875 -2.17188,-2.46875 -2.17188,-6.73437 0,-4.26563 2.17188,-6.73438 2.1875,-2.48437 5.89062,-2.48437 3.67188,0 5.85938,2.48437 2.1875,2.46875 2.1875,6.73438 z m -3.03125,0 q 0,-3.39063 -1.32813,-5.03125 -1.32812,-1.65625 -3.6875,-1.65625 -2.39062,0 -3.71875,1.65625 -1.3125,1.64062 -1.3125,5.03125 0,3.28125 1.32813,4.98437 1.32812,1.6875 3.70312,1.6875 2.34375,0 3.67188,-1.67187 1.34375,-1.6875 1.34375,-5 z M 709.64062,200 h -2.9375 v -24.3125 h 2.9375 z m 19.96875,0 h -2.9375 v -1.82813 q -1.26562,1.09375 -2.64062,1.70313 -1.375,0.60937 -2.98438,0.60937 -3.125,0 -4.96875,-2.40625 -1.82812,-2.40625 -1.82812,-6.67187 0,-2.21875 0.625,-3.95313 0.64062,-1.73437 1.71875,-2.95312 1.0625,-1.1875 2.46875,-1.8125 1.42187,-0.625 2.9375,-0.625 1.375,0 2.4375,0.29687 1.0625,0.28125 2.23437,0.89063 v -7.5625 h 2.9375 z m -2.9375,-4.29688 V 185.6875 q -1.1875,-0.53125 -2.125,-0.73438 Q 723.60937,184.75 722.5,184.75 q -2.46875,0 -3.84375,1.71875 -1.375,1.71875 -1.375,4.875 0,3.10937 1.0625,4.73437 1.0625,1.60938 3.40625,1.60938 1.25,0 2.53125,-0.54688 1.28125,-0.5625 2.39062,-1.4375 z m 14.8125,-0.15625 -4.40625,10.23438 h -2.28125 l 2.71875,-10.23438 z"
         id="path6" />
      <path
         d="m 71.46875,250 h -3.296875 l -2.28125,-6.48438 h -10.0625 L 53.546875,250 H 50.40625 L 58.875,226.73437 H 63 Z m -6.53125,-9.14063 -4.078125,-11.42187 -4.09375,11.42187 z M 96.90625,235.75 H 96.75 q -0.65625,-0.15625 -1.28125,-0.21875 -0.609375,-0.0781 -1.453125,-0.0781 -1.359375,0 -2.625,0.60938 -1.265625,0.59375 -2.4375,1.54687 V 250 h -2.9375 v -17.45313 h 2.9375 v 2.57813 q 1.75,-1.40625 3.078125,-1.98438 1.34375,-0.59375 2.734375,-0.59375 0.765625,0 1.109375,0.0469 0.34375,0.0312 1.03125,0.14062 z m 17.64063,5.53125 q 0,4.26562 -2.1875,6.73437 -2.1875,2.46875 -5.85938,2.46875 -3.70312,0 -5.89062,-2.46875 -2.17188,-2.46875 -2.17188,-6.73437 0,-4.26563 2.17188,-6.73438 2.1875,-2.48437 5.89062,-2.48437 3.67188,0 5.85938,2.48437 2.1875,2.46875 2.1875,6.73438 z m -3.03125,0 q 0,-3.39063 -1.32813,-5.03125 -1.32812,-1.65625 -3.6875,-1.65625 -2.39062,0 -3.71875,1.65625 -1.3125,1.64062 -1.3125,5.03125 0,3.28125 1.32813,4.98437 1.32812,1.6875 3.70312,1.6875 2.34375,0 3.67188,-1.67187 1.34375,-1.6875 1.34375,-5 z m 22.93749,-0.14063 q 0,2.1875 -0.625,3.9375 -0.60937,1.75 -1.65625,2.9375 -1.10937,1.23438 -2.4375,1.85938 -1.32812,0.60937 -2.92187,0.60937 -1.48437,0 -2.59375,-0.35937 -1.10937,-0.34375 -2.1875,-0.9375 L 121.84375,250 h -2.75 v -24.3125 h 2.9375 v 8.6875 q 1.23438,-1.01563 2.625,-1.65625 1.39063,-0.65625 3.125,-0.65625 3.09375,0 4.875,2.375 1.79687,2.375 1.79687,6.70312 z m -3.03125,0.0781 q 0,-3.125 -1.03125,-4.73438 -1.03125,-1.625 -3.32812,-1.625 -1.28125,0 -2.59375,0.5625 -1.3125,0.54688 -2.4375,1.42188 v 10 q 1.25,0.5625 2.14063,0.78125 0.90625,0.21875 2.04687,0.21875 2.4375,0 3.8125,-1.59375 1.39062,-1.60938 1.39062,-5.03125 z m 22.48438,0.0625 q 0,4.26562 -2.1875,6.73437 -2.1875,2.46875 -5.85938,2.46875 -3.70312,0 -5.89062,-2.46875 -2.17188,-2.46875 -2.17188,-6.73437 0,-4.26563 2.17188,-6.73438 2.1875,-2.48437 5.89062,-2.48437 3.67188,0 5.85938,2.48437 2.1875,2.46875 2.1875,6.73438 z m -3.03125,0 q 0,-3.39063 -1.32813,-5.03125 -1.32812,-1.65625 -3.6875,-1.65625 -2.39062,0 -3.71875,1.65625 -1.3125,1.64062 -1.3125,5.03125 0,3.28125 1.32813,4.98437 1.32812,1.6875 3.70312,1.6875 2.34375,0 3.67188,-1.67187 1.34375,-1.6875 1.34375,-5 z m 16.64062,8.5625 q -0.82812,0.21875 -1.8125,0.35937 -0.96875,0.14063 -1.73437,0.14063 -2.67188,0 -4.0625,-1.4375 -1.39063,-1.4375 -1.39063,-4.60938 v -9.28125 h -1.98437 v -2.46875 h 1.98437 v -5.01562 h 2.9375 v 5.01562 h 6.0625 v 2.46875 h -6.0625 v 7.95313 q 0,1.375 0.0625,2.15625 0.0625,0.76562 0.4375,1.4375 0.34375,0.625 0.9375,0.92187 0.60938,0.28125 1.84375,0.28125 0.71875,0 1.5,-0.20312 0.78125,-0.21875 1.125,-0.35938 h 0.15625 z m 6.70313,-20.21875 h -3.3125 v -3.04688 h 3.3125 z M 174.03125,250 h -2.9375 v -17.45313 h 2.9375 z M 192.75,248.90625 q -1.46875,0.70312 -2.79688,1.09375 -1.3125,0.39062 -2.79687,0.39062 -1.89063,0 -3.46875,-0.54687 -1.57813,-0.5625 -2.70313,-1.6875 -1.14062,-1.125 -1.76562,-2.84375 -0.625,-1.71875 -0.625,-4.01563 0,-4.28125 2.34375,-6.71875 2.35937,-2.4375 6.21875,-2.4375 1.5,0 2.9375,0.42188 1.45312,0.42187 2.65625,1.03125 v 3.26562 h -0.15625 Q 191.25,235.8125 189.8125,235.25 q -1.42188,-0.5625 -2.78125,-0.5625 -2.5,0 -3.95313,1.6875 -1.4375,1.67187 -1.4375,4.92187 0,3.15625 1.40625,4.85938 1.42188,1.6875 3.98438,1.6875 0.89062,0 1.8125,-0.23438 Q 189.76562,247.375 190.5,247 q 0.64062,-0.32813 1.20312,-0.6875 0.5625,-0.375 0.89063,-0.64063 H 192.75 Z m 29.17187,-0.89063 q 0,4.4375 -2.01562,6.51563 -2.01563,2.07812 -6.20313,2.07812 -1.39062,0 -2.71875,-0.20312 -1.3125,-0.1875 -2.59375,-0.54688 v -3 h 0.15625 q 0.71875,0.28125 2.28125,0.6875 1.5625,0.42188 3.125,0.42188 1.5,0 2.48438,-0.35938 0.98437,-0.35937 1.53125,-1 0.54687,-0.60937 0.78125,-1.46875 0.23437,-0.85937 0.23437,-1.92187 V 247.625 q -1.32812,1.0625 -2.54687,1.59375 -1.20313,0.51562 -3.07813,0.51562 -3.125,0 -4.96875,-2.25 -1.82812,-2.26562 -1.82812,-6.375 0,-2.25 0.625,-3.875 0.64062,-1.64062 1.73437,-2.82812 1.01563,-1.10938 2.46875,-1.71875 1.45313,-0.625 2.89063,-0.625 1.51562,0 2.53125,0.3125 1.03125,0.29687 2.17187,0.92187 l 0.1875,-0.75 h 2.75 z m -2.9375,-2.8125 v -9.51562 q -1.17187,-0.53125 -2.1875,-0.75 -1,-0.23438 -2,-0.23438 -2.42187,0 -3.8125,1.625 -1.39062,1.625 -1.39062,4.71875 0,2.9375 1.03125,4.45313 1.03125,1.51562 3.42187,1.51562 1.28125,0 2.5625,-0.48437 1.29688,-0.5 2.375,-1.32813 z M 238.59375,235.75 h -0.15625 q -0.65625,-0.15625 -1.28125,-0.21875 -0.60938,-0.0781 -1.45313,-0.0781 -1.35937,0 -2.625,0.60938 -1.26562,0.59375 -2.4375,1.54687 V 250 h -2.9375 v -17.45313 h 2.9375 v 2.57813 q 1.75,-1.40625 3.07813,-1.98438 1.34375,-0.59375 2.73437,-0.59375 0.76563,0 1.10938,0.0469 0.34375,0.0312 1.03125,0.14062 z M 254.35937,250 h -2.92187 v -1.85938 q -0.39063,0.26563 -1.0625,0.75 -0.65625,0.46875 -1.28125,0.75 -0.73438,0.35938 -1.6875,0.59375 -0.95313,0.25 -2.23438,0.25 -2.35937,0 -4,-1.5625 -1.64062,-1.5625 -1.64062,-3.98437 0,-1.98438 0.84375,-3.20313 0.85937,-1.23437 2.4375,-1.9375 1.59375,-0.70312 3.82812,-0.95312 2.23438,-0.25 4.79688,-0.375 v -0.45313 q 0,-1 -0.35938,-1.65625 -0.34375,-0.65625 -1,-1.03125 -0.625,-0.35937 -1.5,-0.48437 -0.875,-0.125 -1.82812,-0.125 -1.15625,0 -2.57813,0.3125 -1.42187,0.29687 -2.9375,0.875 h -0.15625 v -2.98438 q 0.85938,-0.23437 2.48438,-0.51562 1.625,-0.28125 3.20312,-0.28125 1.84375,0 3.20313,0.3125 1.375,0.29687 2.375,1.03125 0.98437,0.71875 1.5,1.85937 0.51562,1.14063 0.51562,2.82813 z m -2.92187,-4.29688 v -4.85937 q -1.34375,0.0781 -3.17188,0.23437 -1.8125,0.15625 -2.875,0.45313 -1.26562,0.35937 -2.04687,1.125 -0.78125,0.75 -0.78125,2.07812 0,1.5 0.90625,2.26563 0.90625,0.75 2.76562,0.75 1.54688,0 2.82813,-0.59375 1.28125,-0.60938 2.375,-1.45313 z m 21.48437,3.20313 q -1.46875,0.70312 -2.79687,1.09375 -1.3125,0.39062 -2.79688,0.39062 -1.89062,0 -3.46875,-0.54687 -1.57812,-0.5625 -2.70312,-1.6875 -1.14063,-1.125 -1.76563,-2.84375 -0.625,-1.71875 -0.625,-4.01563 0,-4.28125 2.34375,-6.71875 2.35938,-2.4375 6.21875,-2.4375 1.5,0 2.9375,0.42188 1.45313,0.42187 2.65625,1.03125 v 3.26562 h -0.15625 q -1.34375,-1.04687 -2.78125,-1.60937 -1.42187,-0.5625 -2.78125,-0.5625 -2.5,0 -3.95312,1.6875 -1.4375,1.67187 -1.4375,4.92187 0,3.15625 1.40625,4.85938 1.42187,1.6875 3.98437,1.6875 0.89063,0 1.8125,-0.23438 0.92188,-0.23437 1.65625,-0.60937 0.64063,-0.32813 1.20313,-0.6875 0.5625,-0.375 0.89062,-0.64063 h 0.15625 z m 18.375,-7.32813 H 278.4375 q 0,1.60938 0.48437,2.8125 0.48438,1.1875 1.32813,1.95313 0.8125,0.75 1.92187,1.125 1.125,0.375 2.46875,0.375 1.78125,0 3.57813,-0.70313 1.8125,-0.71875 2.57812,-1.40625 h 0.15625 v 3.20313 q -1.48437,0.625 -3.03125,1.04687 -1.54687,0.42188 -3.25,0.42188 -4.34375,0 -6.78125,-2.34375 -2.4375,-2.35938 -2.4375,-6.6875 0,-4.28125 2.32813,-6.79688 2.34375,-2.51562 6.15625,-2.51562 3.53125,0 5.4375,2.0625 1.92187,2.0625 1.92187,5.85937 z m -2.85937,-2.25 q -0.0156,-2.3125 -1.17188,-3.57812 -1.14062,-1.26563 -3.48437,-1.26563 -2.35938,0 -3.76563,1.39063 -1.39062,1.39062 -1.57812,3.45312 z m 13.40625,6.21875 -4.40625,10.23438 h -2.28125 L 297.875,245.54687 Z M 332.20312,250 h -2.92187 v -1.85938 q -0.39063,0.26563 -1.0625,0.75 -0.65625,0.46875 -1.28125,0.75 -0.73438,0.35938 -1.6875,0.59375 -0.95313,0.25 -2.23438,0.25 -2.35937,0 -4,-1.5625 -1.64062,-1.5625 -1.64062,-3.98437 0,-1.98438 0.84375,-3.20313 0.85937,-1.23437 2.4375,-1.9375 1.59375,-0.70312 3.82812,-0.95312 2.23438,-0.25 4.79688,-0.375 v -0.45313 q 0,-1 -0.35938,-1.65625 -0.34375,-0.65625 -1,-1.03125 -0.625,-0.35937 -1.5,-0.48437 -0.875,-0.125 -1.82812,-0.125 -1.15625,0 -2.57813,0.3125 -1.42187,0.29687 -2.9375,0.875 h -0.15625 v -2.98438 q 0.85938,-0.23437 2.48438,-0.51562 1.625,-0.28125 3.20312,-0.28125 1.84375,0 3.20313,0.3125 1.375,0.29687 2.375,1.03125 0.98437,0.71875 1.5,1.85937 0.51562,1.14063 0.51562,2.82813 z m -2.92187,-4.29688 v -4.85937 q -1.34375,0.0781 -3.17188,0.23437 -1.8125,0.15625 -2.875,0.45313 -1.26562,0.35937 -2.04687,1.125 -0.78125,0.75 -0.78125,2.07812 0,1.5 0.90625,2.26563 0.90625,0.75 2.76562,0.75 1.54688,0 2.82813,-0.59375 1.28125,-0.60938 2.375,-1.45313 z m 32.29687,-0.73437 q 0,2.39062 -1.98437,3.92187 -1.96875,1.53125 -5.39063,1.53125 -1.9375,0 -3.5625,-0.45312 -1.60937,-0.46875 -2.70312,-1.01563 v -3.29687 h 0.15625 q 1.39062,1.04687 3.09375,1.67187 1.70312,0.60938 3.26562,0.60938 1.9375,0 3.03125,-0.625 1.09375,-0.625 1.09375,-1.96875 0,-1.03125 -0.59375,-1.5625 -0.59375,-0.53125 -2.28125,-0.90625 -0.625,-0.14063 -1.64062,-0.32813 -1,-0.1875 -1.82813,-0.40625 -2.29687,-0.60937 -3.26562,-1.78125 -0.95313,-1.1875 -0.95313,-2.90625 0,-1.07812 0.4375,-2.03125 0.45313,-0.95312 1.35938,-1.70312 0.875,-0.73438 2.21875,-1.15625 1.35937,-0.4375 3.03125,-0.4375 1.5625,0 3.15625,0.39062 1.60937,0.375 2.67187,0.92188 v 3.14062 h -0.15625 Q 359.60937,235.75 358,235.1875 q -1.60938,-0.57813 -3.15625,-0.57813 -1.60938,0 -2.71875,0.625 -1.10938,0.60938 -1.10938,1.82813 0,1.07812 0.67188,1.625 0.65625,0.54687 2.125,0.89062 0.8125,0.1875 1.8125,0.375 1.01562,0.1875 1.6875,0.34375 2.04687,0.46875 3.15625,1.60938 1.10937,1.15625 1.10937,3.0625 z m 13.26563,4.875 q -0.82813,0.21875 -1.8125,0.35937 -0.96875,0.14063 -1.73438,0.14063 -2.67187,0 -4.0625,-1.4375 -1.39062,-1.4375 -1.39062,-4.60938 v -9.28125 h -1.98438 v -2.46875 h 1.98438 v -5.01562 h 2.9375 v 5.01562 h 6.0625 v 2.46875 h -6.0625 v 7.95313 q 0,1.375 0.0625,2.15625 0.0625,0.76562 0.4375,1.4375 0.34375,0.625 0.9375,0.92187 0.60937,0.28125 1.84375,0.28125 0.71875,0 1.5,-0.20312 0.78125,-0.21875 1.125,-0.35938 h 0.15625 z m 18.42187,-8.5625 q 0,4.26562 -2.1875,6.73437 -2.1875,2.46875 -5.85937,2.46875 -3.70313,0 -5.89063,-2.46875 -2.17187,-2.46875 -2.17187,-6.73437 0,-4.26563 2.17187,-6.73438 2.1875,-2.48437 5.89063,-2.48437 3.67187,0 5.85937,2.48437 2.1875,2.46875 2.1875,6.73438 z m -3.03125,0 q 0,-3.39063 -1.32812,-5.03125 -1.32813,-1.65625 -3.6875,-1.65625 -2.39063,0 -3.71875,1.65625 -1.3125,1.64062 -1.3125,5.03125 0,3.28125 1.32812,4.98437 1.32813,1.6875 3.70313,1.6875 2.34375,0 3.67187,-1.67187 1.34375,-1.6875 1.34375,-5 z M 408.70312,235.75 h -0.15625 q -0.65625,-0.15625 -1.28125,-0.21875 -0.60937,-0.0781 -1.45312,-0.0781 -1.35938,0 -2.625,0.60938 -1.26563,0.59375 -2.4375,1.54687 V 250 h -2.9375 v -17.45313 h 2.9375 v 2.57813 q 1.75,-1.40625 3.07812,-1.98438 1.34375,-0.59375 2.73438,-0.59375 0.76562,0 1.10937,0.0469 0.34375,0.0312 1.03125,0.14062 z m 17.85938,-3.20313 -10.1875,23.89063 h -3.14063 l 3.25,-7.28125 -6.95312,-16.60938 h 3.1875 l 5.35937,12.9375 5.40625,-12.9375 z m 24.15625,17.29688 q -0.82813,0.21875 -1.8125,0.35937 -0.96875,0.14063 -1.73438,0.14063 -2.67187,0 -4.0625,-1.4375 -1.39062,-1.4375 -1.39062,-4.60938 v -9.28125 h -1.98438 v -2.46875 h 1.98438 v -5.01562 h 2.9375 v 5.01562 h 6.0625 v 2.46875 h -6.0625 v 7.95313 q 0,1.375 0.0625,2.15625 0.0625,0.76562 0.4375,1.4375 0.34375,0.625 0.9375,0.92187 0.60937,0.28125 1.84375,0.28125 0.71875,0 1.5,-0.20312 0.78125,-0.21875 1.125,-0.35938 h 0.15625 z m 18.42187,-8.5625 q 0,4.26562 -2.1875,6.73437 -2.1875,2.46875 -5.85937,2.46875 -3.70313,0 -5.89063,-2.46875 -2.17187,-2.46875 -2.17187,-6.73437 0,-4.26563 2.17187,-6.73438 2.1875,-2.48437 5.89063,-2.48437 3.67187,0 5.85937,2.48437 2.1875,2.46875 2.1875,6.73438 z m -3.03125,0 q 0,-3.39063 -1.32812,-5.03125 -1.32813,-1.65625 -3.6875,-1.65625 -2.39063,0 -3.71875,1.65625 -1.3125,1.64062 -1.3125,5.03125 0,3.28125 1.32812,4.98437 1.32813,1.6875 3.70313,1.6875 2.34375,0 3.67187,-1.67187 1.34375,-1.6875 1.34375,-5 z M 499.40625,250 h -2.9375 v -1.9375 q -1.48438,1.17187 -2.84375,1.79687 -1.35938,0.625 -3,0.625 -2.75,0 -4.28125,-1.67187 -1.53125,-1.6875 -1.53125,-4.9375 v -11.32813 h 2.9375 v 9.9375 q 0,1.32813 0.125,2.28125 0.125,0.9375 0.53125,1.60938 0.42187,0.6875 1.09375,1 0.67187,0.3125 1.95312,0.3125 1.14063,0 2.48438,-0.59375 1.35937,-0.59375 2.53125,-1.51563 v -13.03125 h 2.9375 z m 20.375,0 h -2.9375 v -9.9375 q 0,-1.20313 -0.14063,-2.25 -0.14062,-1.0625 -0.51562,-1.65625 -0.39063,-0.65625 -1.125,-0.96875 -0.73438,-0.32813 -1.90625,-0.32813 -1.20313,0 -2.51563,0.59375 -1.3125,0.59375 -2.51562,1.51563 V 250 h -2.9375 v -17.45313 h 2.9375 v 1.9375 q 1.375,-1.14062 2.84375,-1.78125 1.46875,-0.64062 3.01562,-0.64062 2.82813,0 4.3125,1.70312 1.48438,1.70313 1.48438,4.90625 z m 15.04687,-21.46875 h -0.15625 q -0.48437,-0.14063 -1.26562,-0.28125 -0.78125,-0.15625 -1.375,-0.15625 -1.89063,0 -2.75,0.84375 -0.84375,0.82812 -0.84375,3.01562 v 0.59375 h 5.29687 v 2.46875 h -5.20312 V 250 h -2.9375 v -14.98438 h -1.98438 v -2.46875 h 1.98438 v -0.57812 q 0,-3.10938 1.54687,-4.76563 1.54688,-1.67187 4.46875,-1.67187 0.98438,0 1.76563,0.0937 0.79687,0.0937 1.45312,0.21875 z m 16.73438,12.75 q 0,4.26562 -2.1875,6.73437 -2.1875,2.46875 -5.85938,2.46875 -3.70312,0 -5.89062,-2.46875 -2.17188,-2.46875 -2.17188,-6.73437 0,-4.26563 2.17188,-6.73438 2.1875,-2.48437 5.89062,-2.48437 3.67188,0 5.85938,2.48437 2.1875,2.46875 2.1875,6.73438 z m -3.03125,0 q 0,-3.39063 -1.32813,-5.03125 -1.32812,-1.65625 -3.6875,-1.65625 -2.39062,0 -3.71875,1.65625 -1.3125,1.64062 -1.3125,5.03125 0,3.28125 1.32813,4.98437 1.32812,1.6875 3.70312,1.6875 2.34375,0 3.67188,-1.67187 1.34375,-1.6875 1.34375,-5 z M 559.07812,250 h -2.9375 v -24.3125 h 2.9375 z m 19.96875,0 h -2.9375 v -1.82813 q -1.26562,1.09375 -2.64062,1.70313 -1.375,0.60937 -2.98438,0.60937 -3.125,0 -4.96875,-2.40625 -1.82812,-2.40625 -1.82812,-6.67187 0,-2.21875 0.625,-3.95313 0.64062,-1.73437 1.71875,-2.95312 1.0625,-1.1875 2.46875,-1.8125 1.42187,-0.625 2.9375,-0.625 1.375,0 2.4375,0.29687 1.0625,0.28125 2.23437,0.89063 v -7.5625 h 2.9375 z m -2.9375,-4.29688 V 235.6875 q -1.1875,-0.53125 -2.125,-0.73438 -0.9375,-0.20312 -2.04687,-0.20312 -2.46875,0 -3.84375,1.71875 -1.375,1.71875 -1.375,4.875 0,3.10937 1.0625,4.73437 1.0625,1.60938 3.40625,1.60938 1.25,0 2.53125,-0.54688 1.28125,-0.5625 2.39062,-1.4375 z M 589.625,250 h -3.73438 v -4.45313 h 3.73438 z"
         id="path7" />
    </g>
  </g>
</svg>
