<?xml version="1.0" encoding="UTF-8" standalone="no"?>
<svg
   width="800"
   height="600"
   version="1.1"
   id="svg4"
   sodipodi:docname="rima_water.svg"
   xmlns:inkscape="http://www.inkscape.org/namespaces/inkscape"
   xmlns:sodipodi="http://sodipodi.sourceforge.net/DTD/sodipodi-0.dtd"
   xmlns="http://www.w3.org/2000/svg"
   xmlns:svg="http://www.w3.org/2000/svg">
  <sodipodi:namedview
     id="namedview4"
     pagecolor="#ffffff"
     bordercolor="#666666"
     borderopacity="1.0"
     inkscape:showpageshadow="2"
     inkscape:pageopacity="0.0"
     inkscape:pagecheckerboard="0"
     inkscape:deskcolor="#d1d1d1" />
  <defs
     id="defs1">
    <style
       type="text/css"
       id="style1">
      @font-face {{
        font-family: 'Kalam';
        src: url('AxiDraw_API(1)/Kalam-Regular.ttf');
      }}
    </style>
  </defs>
  <g
     id="g4">
    <g
       id="text4"
       style="font-size:32px;font-family:Kalam"
       aria-label="रीमा खेळे पाण्यात, मज्जा ती अनोखी,छोटेसे हास्य तिच्या ओठांवर फुलोखी.पाण्याच्या थेंबांनी, ती करते नाच रंगी,आनंदाचा सागर, तिच्या हृदयात रांगी.">
      <path
         d="m 66.1875,79 h -5.890625 q 0.796875,1.375 1.28125,2.8125 0.5,1.421875 0.5,2.890625 0,1.109375 -0.34375,2.140625 -0.328125,1.015625 -0.984375,1.828125 -0.640625,0.796875 -1.609375,1.3125 -0.953125,0.5 -2.203125,0.5625 L 56.90625,90.625 q 1.40625,2.1875 3.15625,4.140625 1.75,1.9375 4.046875,3.6875 L 62.4375,100.375 q -1.328125,-0.984375 -2.53125,-2.125 -1.1875,-1.15625 -2.25,-2.375 -1.0625,-1.234375 -1.984375,-2.484375 Q 54.765625,92.125 54,90.9375 53.25,89.734375 52.65625,88.640625 52.0625,87.53125 51.640625,86.625 l 2.140625,-1.15625 q 0.5625,1.21875 1.265625,1.921875 0.71875,0.6875 1.65625,0.6875 0.671875,0 1.203125,-0.34375 0.53125,-0.34375 0.890625,-0.875 0.359375,-0.546875 0.546875,-1.1875 0.1875,-0.65625 0.1875,-1.28125 0,-0.734375 -0.1875,-1.4375 Q 59.15625,82.234375 58.859375,81.5625 58.5625,80.875 58.1875,80.234375 57.828125,79.59375 57.484375,79 h -8.03125 V 76.703125 H 66.1875 Z M 74.5,79 h -3.28125 v 21 h -2.5625 V 79 h -3.5625 v -2.296875 h 3.8125 Q 68.625,75.109375 68.1875,73.984375 67.75,72.84375 67.234375,72.09375 66.71875,71.328125 66.15625,70.890625 q -0.5625,-0.4375 -1.078125,-0.65625 -0.53125,-0.21875 -0.984375,-0.28125 -0.46875,-0.0625 -0.765625,-0.0625 -0.96875,0 -1.546875,0.3125 Q 61.1875,70.5 60.875,70.921875 60.5625,71.34375 60.46875,71.8125 q -0.109375,0.453125 -0.109375,0.78125 0,0.125 0.04687,0.515625 0.03125,0.375 0.25,0.953125 0.203125,0.578125 0.640625,1.296875 0.4375,0.71875 1.234375,1.515625 H 59.875 q -0.984375,-1.125 -1.46875,-2.328125 -0.5,-1.21875 -0.5,-2.359375 0,-0.953125 0.34375,-1.8125 0.34375,-0.859375 1.03125,-1.484375 Q 59.96875,68.25 61,67.875 62.03125,67.5 63.390625,67.5 q 1.875,0 3.234375,0.734375 1.359375,0.71875 2.28125,1.96875 0.9375,1.25 1.46875,2.9375 0.546875,1.671875 0.765625,3.5625 H 74.5 Z m 21.546875,0 h -3.28125 v 21 h -2.5625 v -8.765625 h -8.59375 v 1.859375 q 0,0.484375 -0.04687,0.859375 -0.03125,0.375 -0.171875,0.625 -0.125,0.25 -0.375,0.390625 -0.234375,0.125 -0.640625,0.125 -0.40625,0 -0.90625,-0.234375 -0.5,-0.25 -1.015625,-0.65625 -0.515625,-0.421875 -1,-0.9375 -0.484375,-0.53125 -0.875,-1.09375 Q 76.203125,91.59375 75.96875,91.03125 75.734375,90.46875 75.734375,90 q 0,-0.328125 0.109375,-0.53125 0.125,-0.21875 0.328125,-0.328125 Q 76.390625,89.03125 76.6875,89 q 0.296875,-0.04687 0.671875,-0.04687 h 1.6875 V 79 H 73.40625 v -2.296875 h 22.640625 z m -14.4375,0 v 9.953125 h 8.59375 V 79 Z m 22.750005,0 h -3.28125 v 21 H 98.515625 V 79 h -3.5625 v -2.296875 h 9.406255 z m 28.04687,20.65625 q -0.71875,0.265625 -1.76563,0.45313 -1.04687,0.1875 -2.375,0.1875 -2.48437,0 -4.43749,-0.85938 -1.95313,-0.859375 -3.625,-2.515625 -1.65625,-1.65625 -3.17188,-4.09375 -1.5,-2.4375 -3.09375,-5.578125 l 2.07813,-1.1875 q 0.59375,1.125 1.10937,1.609375 0.53125,0.46875 1.17188,0.46875 0.53125,0 0.92187,-0.296875 0.40625,-0.296875 0.65625,-0.765625 0.26563,-0.484375 0.39063,-1.09375 0.14062,-0.609375 0.14062,-1.21875 0,-0.703125 -0.15625,-1.46875 -0.15625,-0.765625 -0.42187,-1.515625 -0.26563,-0.75 -0.625,-1.453125 -0.34375,-0.71875 -0.73438,-1.3125 V 79 h -6.4375 V 76.703125 H 140.1875 V 79 h -3.28125 v 21 h -2.5625 v -7.59375 l -0.0625,-0.01563 q -0.85938,0.84375 -1.90625,1.25 -1.04688,0.40625 -2.07813,0.40625 -1.28125,0 -2.35937,-0.53125 -1.07812,-0.53125 -1.85937,-1.40625 -0.78125,-0.875 -1.21875,-2 -0.4375,-1.125 -0.4375,-2.328125 0,-1.140625 0.39062,-2.203125 0.40625,-1.0625 1.10938,-1.875 0.71875,-0.828125 1.6875,-1.3125 0.98437,-0.484375 2.15624,-0.484375 0.67188,0 1.28125,0.15625 0.60938,0.15625 1.17188,0.4375 0.5625,0.28125 1.07812,0.671875 0.51563,0.375 0.98438,0.8125 l 0.0625,-0.01563 V 79 h -13.14062 q 0.79687,1.515625 1.25,2.96875 0.45312,1.4375 0.45312,2.90625 0,1 -0.25,1.984375 -0.25,0.984375 -0.78125,1.78125 -0.51562,0.796875 -1.32812,1.328125 -0.8125,0.53125 -1.9375,0.625 v 0.07813 q 1.07812,2.109375 2.25,3.484375 1.1875,1.359375 2.40625,2.15625 1.21875,0.796875 2.4375,1.109375 1.23437,0.3125 2.40624,0.3125 1.32813,0 2.39063,-0.265625 1.0625,-0.28125 1.90625,-0.625 z m 1.95312,-12.765625 q -0.28125,-0.359375 -0.70312,-0.8125 -0.40625,-0.46875 -0.9375,-0.875 -0.51563,-0.40625 -1.15625,-0.671875 -0.625,-0.28125 -1.35938,-0.28125 -0.75,0 -1.35937,0.3125 -0.59375,0.296875 -1.03125,0.796875 -0.4375,0.5 -0.67187,1.171875 -0.23438,0.65625 -0.23438,1.375 0,0.75 0.25,1.4375 0.25,0.671875 0.6875,1.1875 0.45312,0.515625 1.07812,0.828125 0.625,0.296875 1.375,0.296875 0.57813,0 1.28125,-0.21875 0.71875,-0.21875 1.32813,-0.71875 0.625,-0.5 1.03125,-1.328125 0.42187,-0.828125 0.42187,-2.046875 z m 2.32813,-9.75 h -2.26563 L 133,74.46875 q -0.90625,-1.703125 -1.64063,-2.703125 -0.75,-1 -1.40625,-1.515625 -0.67187,-0.53125 -1.3125,-0.671875 -0.64062,-0.15625 -1.34374,-0.15625 h -3.03125 v -2.53125 h 2.85937 q 0.90625,0 1.64062,0.15625 0.73438,0.140625 1.40625,0.53125 0.65625,0.375 1.29688,1.0625 0.625,0.671875 1.34375,1.75 0.71875,1.0625 1.57812,2.5625 0.84375,1.484375 1.9375,3.515625 z m 11.01562,19.328125 q -1.39062,0 -2.53125,-0.515625 -1.14062,-0.515625 -1.96875,-1.421875 -0.8125,-0.921875 -1.26562,-2.15625 -0.45313,-1.25 -0.45313,-2.6875 0,-1.5625 0.48438,-2.8125 0.48437,-1.265625 1.32812,-2.15625 0.85938,-0.890625 2,-1.359375 1.15625,-0.484375 2.48438,-0.484375 1.70312,0 3.21875,0.8125 1.51562,0.796875 3.03125,2.359375 0.70312,-1.09375 1.64062,-1.890625 0.9375,-0.8125 2.3125,-1.0625 V 79 h -18.89062 v -2.296875 h 29.26562 V 79 h -7.82812 v 4.171875 q 1.04687,0.25 1.89062,0.828125 0.84375,0.578125 1.42188,1.390625 0.59375,0.8125 0.90625,1.828125 0.32812,1 0.32812,2.109375 0,1.625 -0.5625,2.953125 -0.54687,1.328125 -1.48437,2.296875 -0.92188,0.953125 -2.10938,1.484375 -1.1875,0.515625 -2.45312,0.515625 -1.64063,0 -3.0625,-0.765625 -1.42188,-0.765625 -2.8125,-2.109375 -0.40625,0.59375 -0.90625,1.109375 -0.48438,0.5 -1.07813,0.875 -0.59375,0.359375 -1.3125,0.578125 -0.71875,0.203125 -1.59375,0.203125 z m 0.32813,-11.3125 q -0.9375,0 -1.6875,0.375 -0.73438,0.359375 -1.26563,0.984375 -0.53125,0.609375 -0.8125,1.453125 -0.28125,0.828125 -0.28125,1.765625 0,0.8125 0.23438,1.59375 0.23437,0.78125 0.6875,1.390625 0.46875,0.609375 1.15625,0.984375 0.6875,0.375 1.57812,0.375 1.09375,0 1.85938,-0.546875 0.78125,-0.5625 1.375,-1.453125 0.60937,-0.890625 1.10937,-2 0.5,-1.125 1.04688,-2.25 -1.1875,-1.375 -2.46875,-2.015625 -1.26563,-0.65625 -2.53125,-0.65625 z m 10.0625,9.03125 q 0.90625,0 1.71875,-0.28125 0.8125,-0.296875 1.42187,-0.875 0.625,-0.59375 0.98438,-1.46875 0.375,-0.890625 0.375,-2.09375 0,-0.765625 -0.20313,-1.515625 -0.1875,-0.75 -0.59375,-1.34375 -0.40625,-0.59375 -1.04687,-0.953125 -0.625,-0.375 -1.48438,-0.375 -0.76562,0 -1.375,0.296875 -0.60937,0.28125 -1.10937,0.78125 -0.5,0.484375 -0.92188,1.15625 -0.40625,0.65625 -0.78125,1.421875 -0.375,0.75 -0.75,1.5625 -0.35937,0.796875 -0.76562,1.578125 0.39062,0.390625 0.875,0.765625 0.5,0.375 1.0625,0.671875 0.57812,0.296875 1.23437,0.484375 0.65625,0.1875 1.35938,0.1875 z m 2.21875,-17.046875 h -2.26563 L 156.625,74.46875 q -0.90625,-1.703125 -1.64063,-2.703125 -0.75,-1 -1.40625,-1.515625 -0.67187,-0.53125 -1.3125,-0.671875 -0.64062,-0.15625 -1.34375,-0.15625 h -3.03125 v -2.53125 H 150.75 q 0.90625,0 1.64062,0.15625 0.73438,0.140625 1.40625,0.53125 0.65625,0.375 1.29688,1.0625 0.625,0.671875 1.34375,1.75 0.71875,1.0625 1.57812,2.5625 0.84375,1.484375 1.9375,3.515625 z M 196.39062,79 h -3.28125 v 21 h -2.57812 v -7.46875 l -0.0625,-0.01563 q -1.04688,0.9375 -2.34375,1.34375 -1.29688,0.390625 -2.5625,0.390625 -1.34375,0 -2.45313,-0.390625 -1.10937,-0.390625 -1.90625,-1.1875 -0.79687,-0.8125 -1.25,-2.03125 -0.4375,-1.234375 -0.4375,-2.921875 V 79 h -3.48437 v -2.296875 h 20.35937 z m -5.85937,0 h -8.48438 v 8.578125 q 0,0.984375 0.15625,1.765625 0.17188,0.78125 0.5625,1.328125 0.40625,0.546875 1.0625,0.84375 0.65625,0.28125 1.64063,0.28125 1.60937,0 2.90625,-0.75 1.29687,-0.765625 2.15625,-2 z m 14.17187,0 h -3.28125 v 21 h -2.5625 V 79 h -3.5625 v -2.296875 h 9.40625 z m 17.5625,0 h -3.5625 v 9.671875 q 0,1.625 -0.45312,2.796875 -0.4375,1.171875 -1.21875,1.9375 -0.76563,0.765625 -1.79688,1.140625 -1.03125,0.359375 -2.21875,0.359375 -1.32812,0 -2.40625,-0.421875 -1.0625,-0.421875 -1.8125,-1.25 -0.75,-0.828125 -1.15625,-2.046875 -0.40625,-1.234375 -0.40625,-2.828125 V 79 h -3.625 v -2.296875 h 18.65625 z m -12.4375,0 v 9.84375 q 0,0.71875 0.15625,1.390625 0.17188,0.65625 0.53125,1.171875 0.375,0.515625 0.96875,0.828125 0.60938,0.3125 1.48438,0.3125 0.89062,0 1.48437,-0.3125 0.60938,-0.3125 0.98438,-0.828125 0.375,-0.515625 0.53125,-1.171875 0.17187,-0.671875 0.17187,-1.390625 V 79 Z m 30.40625,0 h -3.28125 v 21 h -2.5625 v -7.3125 l -0.0625,-0.01563 q -0.42187,0.34375 -1.01562,0.6875 -0.57813,0.328125 -1.29688,0.59375 -0.71875,0.25 -1.54687,0.421875 -0.82813,0.15625 -1.73438,0.15625 -1.8125,0 -3.10937,-0.65625 -1.28125,-0.65625 -2.15625,-1.75 -0.85938,-1.109375 -1.35938,-2.515625 -0.5,-1.421875 -0.71875,-2.953125 1.03125,-0.140625 1.76563,-0.484375 0.73437,-0.34375 1.1875,-0.8125 Q 224.79687,84.875 225,84.3125 q 0.21875,-0.5625 0.21875,-1.125 0,-0.375 -0.0781,-0.84375 -0.0625,-0.46875 -0.23437,-1 -0.17188,-0.546875 -0.45313,-1.140625 Q 224.17187,79.609375 223.75,79 h -4.51563 v -2.296875 h 21 z m -13.71875,0 q 0.5625,0.953125 0.875,2.09375 0.32813,1.125 0.32813,2.21875 0,0.796875 -0.21875,1.546875 -0.20313,0.75 -0.64063,1.40625 -0.4375,0.640625 -1.09375,1.15625 -0.64062,0.5 -1.5,0.796875 0.25,1.046875 0.6875,1.796875 0.4375,0.734375 1.03125,1.21875 0.59375,0.46875 1.32813,0.6875 0.73437,0.21875 1.57812,0.21875 0.8125,0 1.59375,-0.1875 0.79688,-0.1875 1.5,-0.53125 0.71875,-0.359375 1.32813,-0.859375 0.60937,-0.5 1.07812,-1.125 V 79 Z m 22.03125,0 h -3.28125 v 21 h -2.5625 V 79 h -3.5625 v -2.296875 h 9.40625 z m 19.57813,0 h -3.28125 v 21 h -2.54688 V 86.28125 h -5.07812 q -1.04688,0 -1.89063,0.140625 -0.84375,0.125 -1.4375,0.53125 -0.59375,0.390625 -0.92187,1.109375 -0.3125,0.703125 -0.3125,1.859375 0,1.5 0.48437,2.765625 0.5,1.265625 1.26563,2.328125 0.76562,1.046875 1.6875,1.9375 0.9375,0.890625 1.79687,1.640625 l -1.5625,1.78125 q -0.14062,-0.0781 -0.67187,-0.453125 -0.51563,-0.390625 -1.21875,-1.046875 -0.6875,-0.65625 -1.46875,-1.59375 -0.76563,-0.9375 -1.42188,-2.109375 -0.64062,-1.1875 -1.07812,-2.609375 -0.42188,-1.421875 -0.42188,-3.0625 0,-1.625 0.45313,-2.6875 0.46875,-1.078125 1.3125,-1.703125 0.84375,-0.640625 2.04687,-0.890625 1.20313,-0.25 2.6875,-0.25 h 5.75 V 79 H 247.45312 V 76.703125 H 268.125 Z m 4.39062,17.4375 -2.5,7.6875 h -1.82812 l 1.82812,-7.6875 z M 305.375,79 h -3.28125 v 21 h -2.5625 v -8.765625 h -8.59375 v 1.859375 q 0,0.484375 -0.0469,0.859375 -0.0312,0.375 -0.17187,0.625 -0.125,0.25 -0.375,0.390625 -0.23438,0.125 -0.64063,0.125 -0.40625,0 -0.90625,-0.234375 -0.5,-0.25 -1.01562,-0.65625 -0.51563,-0.421875 -1,-0.9375 -0.48438,-0.53125 -0.875,-1.09375 -0.375,-0.578125 -0.60938,-1.140625 Q 285.0625,90.46875 285.0625,90 q 0,-0.328125 0.10937,-0.53125 Q 285.29687,89.25 285.5,89.140625 285.71875,89.03125 286.01562,89 q 0.29688,-0.04687 0.67188,-0.04687 h 1.6875 V 79 h -5.64063 V 76.703125 H 305.375 Z m -14.4375,0 v 9.953125 h 8.59375 V 79 Z m 42.42187,0 h -29.07812 v -2.296875 h 29.07812 z m 1.03125,7.4375 H 328.25 l -0.0156,0.0625 q 0.1875,0.21875 0.5625,0.671875 0.375,0.4375 0.75,1.09375 0.375,0.640625 0.65625,1.46875 0.28125,0.8125 0.28125,1.765625 0,0.953125 -0.3125,1.890625 -0.3125,0.921875 -0.9375,1.671875 -0.625,0.734375 -1.57812,1.1875 -0.95313,0.453125 -2.21875,0.453125 -0.84375,0 -1.59375,-0.203125 -0.75,-0.21875 -1.40625,-0.59375 -0.65625,-0.375 -1.21875,-0.890625 -0.5625,-0.53125 -1.04688,-1.15625 -0.28125,0.59375 -0.70312,1.125 -0.42188,0.515625 -1,0.90625 -0.57813,0.375 -1.29688,0.59375 -0.71875,0.21875 -1.60937,0.21875 -1.26563,0 -2.32813,-0.4375 Q 312.1875,95.8125 311.3125,95.0625 310.45312,94.3125 309.76562,93.328125 309.07812,92.34375 308.53125,91.25 308,90.140625 307.59375,89.015625 307.20312,87.875 306.92187,86.84375 q -0.28125,-1.046875 -0.45312,-1.921875 -0.17188,-0.875 -0.26563,-1.453125 l 2.3125,-0.453125 q 0.51563,2.8125 1.25,4.9375 0.75,2.109375 1.65625,3.53125 0.90625,1.421875 1.95313,2.140625 1.04687,0.703125 2.1875,0.703125 0.8125,0 1.3125,-0.3125 0.5,-0.328125 0.78125,-0.78125 0.28125,-0.46875 0.375,-0.953125 0.10937,-0.5 0.10937,-0.859375 0,-0.640625 -0.26562,-1.359375 -0.25,-0.734375 -0.75,-1.453125 -0.48438,-0.734375 -1.21875,-1.40625 -0.73438,-0.671875 -1.6875,-1.21875 V 84.15625 h 21.26562 z m -9.65625,0 h -6.28125 L 318.4375,86.5 q 0.125,0.140625 0.34375,0.390625 0.21875,0.25 0.46875,0.625 0.26562,0.359375 0.54687,0.859375 0.28125,0.5 0.53125,1.125 0.95313,2.40625 2.26563,3.625 1.3125,1.203125 2.8125,1.203125 0.79687,0 1.28125,-0.3125 0.5,-0.328125 0.78125,-0.78125 0.28125,-0.46875 0.375,-0.953125 0.0937,-0.5 0.0937,-0.859375 0,-0.578125 -0.21875,-1.21875 -0.20313,-0.65625 -0.625,-1.296875 -0.40625,-0.65625 -1,-1.28125 Q 325.5,86.984375 324.73437,86.4375 Z M 339.125,79 h -3.28125 v 21 h -2.5625 V 79 h -3.5625 v -2.296875 h 9.40625 z m 8.3125,0 h -3.28125 v 21 h -2.5625 V 79 h -3.5625 v -2.296875 h 9.40625 z m 28.34375,0 H 372.5 v 21 h -2.54688 V 86.28125 H 364.875 q -1.04688,0 -1.89063,0.140625 -0.84375,0.125 -1.4375,0.53125 -0.59375,0.390625 -0.92187,1.109375 -0.3125,0.703125 -0.3125,1.859375 0,1.5 0.48437,2.765625 0.5,1.265625 1.26563,2.328125 0.76562,1.046875 1.6875,1.9375 0.9375,0.890625 1.79687,1.640625 l -1.5625,1.78125 q -0.14062,-0.0781 -0.67187,-0.453125 -0.51563,-0.390625 -1.21875,-1.046875 -0.6875,-0.65625 -1.46875,-1.59375 -0.76563,-0.9375 -1.42188,-2.109375 -0.64062,-1.1875 -1.07812,-2.609375 -0.42188,-1.421875 -0.42188,-3.0625 0,-1.625 0.45313,-2.6875 0.46875,-1.078125 1.3125,-1.703125 0.84375,-0.640625 2.04687,-0.890625 1.20313,-0.25 2.6875,-0.25 h 5.75 V 79 h -14.84375 v -2.296875 h 20.67188 z m 8.3125,0 h -3.28125 v 21 H 378.25 V 79 h -3.5625 V 76.703125 H 378.5 q -0.28125,-1.59375 -0.71875,-2.71875 -0.4375,-1.140625 -0.95313,-1.890625 -0.51562,-0.765625 -1.07812,-1.203125 -0.5625,-0.4375 -1.07813,-0.65625 -0.53125,-0.21875 -0.98437,-0.28125 -0.46875,-0.0625 -0.76563,-0.0625 -0.96875,0 -1.54687,0.3125 -0.59375,0.296875 -0.90625,0.71875 -0.3125,0.421875 -0.40625,0.890625 -0.10938,0.453125 -0.10938,0.78125 0,0.125 0.0469,0.515625 0.0312,0.375 0.25,0.953125 0.20312,0.578125 0.64062,1.296875 0.4375,0.71875 1.23438,1.515625 h -2.65625 Q 368.48437,75.75 368,74.546875 q -0.5,-1.21875 -0.5,-2.359375 0,-0.953125 0.34375,-1.8125 0.34375,-0.859375 1.03125,-1.484375 Q 369.5625,68.25 370.59375,67.875 371.625,67.5 372.98437,67.5 q 1.875,0 3.23438,0.734375 1.35937,0.71875 2.28125,1.96875 0.9375,1.25 1.46875,2.9375 0.54687,1.671875 0.76562,3.5625 h 3.35938 z m 11.85937,7.1875 q 0.23438,0.734375 0.54688,1.609375 0.3125,0.859375 0.73437,1.75 0.4375,0.875 0.96875,1.703125 0.54688,0.828125 1.23438,1.46875 0.70312,0.640625 1.54687,1.03125 0.84375,0.375 1.875,0.375 1.01563,0 1.71875,-0.296875 0.70313,-0.296875 1.14063,-0.796875 0.4375,-0.5 0.625,-1.171875 0.20312,-0.671875 0.20312,-1.40625 0,-1.609375 -1.17187,-2.515625 -1.15625,-0.90625 -3.35938,-0.90625 -0.26562,0 -0.53125,0.01563 -0.26562,0.01563 -0.53125,0.04687 v -2.375 q 0.125,0.01563 0.21875,0.01563 0.10938,0 0.125,0 1.09375,0 1.9375,-0.265625 0.85938,-0.28125 1.4375,-0.75 0.57813,-0.46875 0.875,-1.09375 0.29688,-0.625 0.29688,-1.3125 0,-0.625 -0.21875,-1.109375 -0.21875,-0.484375 -0.59375,-0.8125 -0.375,-0.328125 -0.89063,-0.484375 -0.51562,-0.171875 -1.125,-0.171875 -0.42187,0 -0.8125,0.0625 -0.39062,0.04687 -0.82812,0.171875 -0.4375,0.109375 -0.9375,0.296875 -0.48438,0.1875 -1.10938,0.46875 L 398.4375,77.59375 q 1.21875,-0.59375 2.34375,-0.890625 1.125,-0.3125 2.29687,-0.3125 1.125,0 2.07813,0.359375 0.96875,0.359375 1.65625,1 0.70312,0.625 1.09375,1.5 0.39062,0.875 0.39062,1.890625 0,2.796875 -2.67187,4.5 v 0.0625 q 1.04687,0.4375 1.75,1.078125 0.45312,0.07813 0.95312,0.125 0.51563,0.04687 0.9375,0.04687 0.4375,0 0.92188,-0.0625 0.48437,-0.0625 0.98437,-0.234375 0.51563,-0.171875 1.03125,-0.484375 0.53125,-0.3125 1.0625,-0.8125 v -8.65625 h 5.84375 V 79 h -3.28125 v 21 h -2.5625 V 88.125 l -0.0625,-0.01563 q -0.89062,0.59375 -1.67187,0.78125 -0.78125,0.1875 -1.60938,0.1875 -0.26562,0 -0.54687,-0.01563 Q 409.09375,89.03125 408.79687,89 l -0.0156,0.0625 q 0.25,0.640625 0.25,1.578125 0,1.265625 -0.42188,2.34375 -0.42187,1.078125 -1.21875,1.875 -0.78125,0.78125 -1.90625,1.21875 -1.10937,0.4375 -2.5,0.4375 -1.48437,0 -2.6875,-0.515625 -1.1875,-0.53125 -2.15625,-1.359375 Q 397.1875,93.8125 396.46875,92.78125 395.75,91.734375 395.23437,90.6875 394.71875,89.640625 394.39062,88.703125 394.0625,87.75 393.90625,87.125 Z M 438.54687,79 h -3.28125 v 21 H 432.6875 V 87.953125 h -7.3125 q 0,1.03125 -0.0312,1.765625 -0.0156,0.734375 -0.125,1.21875 -0.10938,0.46875 -0.32813,0.6875 -0.21875,0.21875 -0.60937,0.21875 -0.8125,0 -1.54688,-0.53125 -0.71875,-0.53125 -1.28125,-1.28125 -0.54687,-0.75 -0.875,-1.5625 -0.32812,-0.8125 -0.32812,-1.375 0,-0.5 0.21875,-0.78125 0.21875,-0.28125 0.57812,-0.421875 0.35938,-0.140625 0.8125,-0.171875 0.46875,-0.03125 0.9375,-0.03125 h 9.89063 V 79 h -14.67188 v -2.296875 h 20.53125 z m 8.3125,0 h -3.28125 v 21 h -2.5625 V 79 h -3.5625 v -2.296875 h 9.40625 z m -3.5,-1.859375 h -2.26562 l -1.42188,-2.671875 q -0.90625,-1.703125 -1.65625,-2.703125 -0.73437,-1 -1.39062,-1.515625 -0.67188,-0.53125 -1.3125,-0.671875 -0.64063,-0.15625 -1.34375,-0.15625 h -3.03125 v -2.53125 h 2.85937 q 0.90625,0 1.64063,0.15625 0.73437,0.140625 1.40625,0.53125 0.65625,0.375 1.28125,1.0625 0.64062,0.671875 1.35937,1.75 0.71875,1.0625 1.5625,2.5625 Q 441.90625,74.4375 443,76.46875 Z m 22.78125,22.515625 q -0.71875,0.265625 -1.76562,0.45313 -1.04688,0.1875 -2.375,0.1875 -2.48438,0 -4.4375,-0.85938 -1.95313,-0.859375 -3.625,-2.515625 -1.65625,-1.65625 -3.17188,-4.09375 -1.5,-2.4375 -3.09375,-5.578125 L 449.75,86.0625 q 0.59375,1.125 1.10937,1.609375 0.53125,0.46875 1.17188,0.46875 0.53125,0 0.92187,-0.296875 0.40625,-0.296875 0.65625,-0.765625 0.26563,-0.484375 0.39063,-1.09375 0.14062,-0.609375 0.14062,-1.21875 0,-0.703125 -0.15625,-1.46875 -0.15625,-0.765625 -0.42187,-1.515625 -0.26563,-0.75 -0.625,-1.453125 -0.34375,-0.71875 -0.73438,-1.3125 V 79 h -6.4375 v -2.296875 h 28.15625 V 79 h -3.28125 v 21 h -2.5625 v -7.59375 l -0.0625,-0.01563 q -0.85937,0.84375 -1.90625,1.25 -1.04687,0.40625 -2.07812,0.40625 -1.28125,0 -2.35938,-0.53125 -1.07812,-0.53125 -1.85937,-1.40625 -0.78125,-0.875 -1.21875,-2 -0.4375,-1.125 -0.4375,-2.328125 0,-1.140625 0.39062,-2.203125 0.40625,-1.0625 1.10938,-1.875 0.71875,-0.828125 1.6875,-1.3125 0.98437,-0.484375 2.15625,-0.484375 0.67187,0 1.28125,0.15625 0.60937,0.15625 1.17187,0.4375 0.5625,0.28125 1.07813,0.671875 0.51562,0.375 0.98437,0.8125 l 0.0625,-0.01563 V 79 H 454.9375 q 0.79687,1.515625 1.25,2.96875 0.45312,1.4375 0.45312,2.90625 0,1 -0.25,1.984375 -0.25,0.984375 -0.78125,1.78125 -0.51562,0.796875 -1.32812,1.328125 -0.8125,0.53125 -1.9375,0.625 v 0.07813 q 1.07812,2.109375 2.25,3.484375 1.1875,1.359375 2.40625,2.15625 1.21875,0.796875 2.4375,1.109375 1.23437,0.3125 2.40625,0.3125 1.32812,0 2.39062,-0.265625 1.0625,-0.28125 1.90625,-0.625 z m 1.95313,-12.765625 q -0.28125,-0.359375 -0.70313,-0.8125 -0.40625,-0.46875 -0.9375,-0.875 -0.51562,-0.40625 -1.15625,-0.671875 -0.625,-0.28125 -1.35937,-0.28125 -0.75,0 -1.35938,0.3125 -0.59375,0.296875 -1.03125,0.796875 -0.4375,0.5 -0.67187,1.171875 -0.23438,0.65625 -0.23438,1.375 0,0.75 0.25,1.4375 0.25,0.671875 0.6875,1.1875 0.45313,0.515625 1.07813,0.828125 0.625,0.296875 1.375,0.296875 0.57812,0 1.28125,-0.21875 0.71875,-0.21875 1.32812,-0.71875 0.625,-0.5 1.03125,-1.328125 0.42188,-0.828125 0.42188,-2.046875 z M 482.23437,79 h -3.28125 v 21 h -2.5625 V 79 h -3.5625 v -2.296875 h 3.8125 q -0.28125,-1.59375 -0.71875,-2.71875 -0.4375,-1.140625 -0.95312,-1.890625 -0.51563,-0.765625 -1.07813,-1.203125 -0.5625,-0.4375 -1.07812,-0.65625 -0.53125,-0.21875 -0.98438,-0.28125 -0.46875,-0.0625 -0.76562,-0.0625 -0.96875,0 -1.54688,0.3125 -0.59375,0.296875 -0.90625,0.71875 -0.3125,0.421875 -0.40625,0.890625 -0.10937,0.453125 -0.10937,0.78125 0,0.125 0.0469,0.515625 0.0312,0.375 0.25,0.953125 0.20313,0.578125 0.64063,1.296875 0.4375,0.71875 1.23437,1.515625 h -2.65625 q -0.98437,-1.125 -1.46875,-2.328125 -0.5,-1.21875 -0.5,-2.359375 0,-0.953125 0.34375,-1.8125 0.34375,-0.859375 1.03125,-1.484375 0.6875,-0.640625 1.71875,-1.015625 1.03125,-0.375 2.39063,-0.375 1.875,0 3.23437,0.734375 1.35938,0.71875 2.28125,1.96875 0.9375,1.25 1.46875,2.9375 0.54688,1.671875 0.76563,3.5625 h 3.35937 z m 4.39063,17.4375 -2.5,7.6875 h -1.82813 l 1.82813,-7.6875 z"
         id="path4" />
      <path
         d="m 62.6875,136.5625 q 0,-0.9375 0.21875,-1.6875 0.234375,-0.75 0.625,-1.3125 0.390625,-0.57813 0.921875,-0.95313 0.546875,-0.39062 1.1875,-0.59375 V 129 h -16.1875 v -2.29687 h 26.40625 V 129 h -7.65625 v 2.92187 q 0.921875,0.20313 1.71875,0.76563 0.8125,0.54687 1.390625,1.42187 0.59375,0.85938 0.921875,2.03125 0.34375,1.17188 0.34375,2.625 0,1.54688 -0.390625,3.01563 -0.390625,1.45312 -1.109375,2.75 -0.71875,1.28125 -1.734375,2.35937 -1,1.07813 -2.265625,1.85938 -1.25,0.76562 -2.71875,1.20312 -1.453125,0.42188 -3.0625,0.42188 -1.734375,0 -3.015625,-0.46875 -1.265625,-0.48438 -2.109375,-1.25 -0.84375,-0.78125 -1.265625,-1.76563 -0.40625,-1 -0.40625,-2.01562 0,-0.76563 0.234375,-1.54688 0.234375,-0.78125 0.71875,-1.4375 l -0.03125,-0.0781 q -1.1875,-0.4375 -1.859375,-1.10938 -0.65625,-0.67187 -0.984375,-1.35937 -0.328125,-0.6875 -0.40625,-1.28125 -0.0625,-0.60938 -0.0625,-0.90625 0,-1.125 0.375,-1.96875 0.375,-0.84375 1.015625,-1.40625 0.65625,-0.5625 1.5,-0.84375 0.859375,-0.28125 1.796875,-0.28125 0.75,0 1.484375,0.1875 0.734375,0.17187 1.453125,0.5625 v 2.28125 q -0.625,-0.28125 -1.328125,-0.45313 -0.6875,-0.1875 -1.34375,-0.1875 -0.5,0 -0.953125,0.125 -0.453125,0.125 -0.796875,0.40625 -0.328125,0.26563 -0.53125,0.70313 -0.1875,0.42187 -0.1875,1.03125 0,0.70312 0.25,1.23437 0.25,0.51563 0.640625,0.875 0.40625,0.34375 0.890625,0.53125 0.5,0.17188 0.96875,0.17188 0.578125,0 1.328125,-0.20313 0.75,-0.20312 1.5,-0.45312 l 0.65625,2.20312 q -1.03125,0.20313 -1.765625,0.5625 -0.734375,0.34375 -1.1875,0.79688 -0.453125,0.45312 -0.671875,0.98437 Q 57,144.53125 57,145.07812 q 0,0.625 0.265625,1.15625 0.28125,0.53125 0.796875,0.92188 0.515625,0.39062 1.265625,0.60937 0.765625,0.21875 1.734375,0.21875 1.296875,0 2.53125,-0.40625 1.25,-0.40625 2.328125,-1.125 1.078125,-0.73437 1.9375,-1.73437 0.875,-1.01563 1.4375,-2.23438 -1.59375,-0.0156 -2.828125,-0.45312 -1.234375,-0.4375 -2.078125,-1.21875 -0.84375,-0.78125 -1.28125,-1.85938 Q 62.6875,137.85937 62.6875,136.5625 Z m 7.421875,2.23437 q 0,-1 -0.21875,-1.8125 -0.21875,-0.8125 -0.59375,-1.39062 -0.375,-0.57813 -0.890625,-0.89063 -0.515625,-0.3125 -1.109375,-0.3125 -0.453125,0 -0.84375,0.1875 -0.390625,0.17188 -0.6875,0.5 -0.28125,0.32813 -0.453125,0.79688 -0.15625,0.45312 -0.15625,1.01562 0,0.79688 0.328125,1.40625 0.34375,0.59375 0.96875,1.01563 0.640625,0.40625 1.53125,0.625 0.890625,0.21875 2.015625,0.25 0.04687,-0.34375 0.07813,-0.6875 0.03125,-0.34375 0.03125,-0.70313 z M 84.171875,129 h -3.28125 v 21 h -2.5625 v -21 h -3.5625 v -2.29687 h 9.40625 z m -3.5,-1.85937 H 78.40625 l -1.421875,-2.67188 q -0.90625,-1.70312 -1.65625,-2.70312 -0.734375,-1 -1.390625,-1.51563 -0.671875,-0.53125 -1.3125,-0.67187 -0.640625,-0.15625 -1.34375,-0.15625 H 68.25 v -2.53125 h 2.859375 q 0.90625,0 1.640625,0.15625 0.734375,0.14062 1.40625,0.53125 0.65625,0.375 1.28125,1.0625 0.640625,0.67187 1.359375,1.75 0.71875,1.0625 1.5625,2.5625 0.859375,1.48437 1.953125,3.51562 z m 19.468755,20.28124 q -1.26563,0.75 -2.687505,1.125 -1.421875,0.375 -2.84375,0.375 -1.9375,0 -3.515625,-0.64062 -1.5625,-0.65625 -2.6875,-1.79688 -1.109375,-1.15625 -1.71875,-2.70312 -0.59375,-1.54688 -0.59375,-3.35938 0,-1.71875 0.53125,-3 0.546875,-1.28125 1.484375,-2.125 0.9375,-0.85937 2.203125,-1.28125 1.28125,-0.42187 2.75,-0.42187 h 3.046875 V 129 h -13.03125 v -2.29687 H 103.07813 V 129 h -4.406255 v 6.875 H 93.625 q -1.125,0 -2.0625,0.3125 -0.921875,0.3125 -1.59375,0.92187 -0.65625,0.60938 -1.03125,1.51563 -0.359375,0.89062 -0.359375,2.07812 0,1.29688 0.421875,2.35938 0.4375,1.0625 1.203125,1.82812 0.78125,0.76563 1.84375,1.1875 Q 93.125,146.5 94.40625,146.5 q 0.765625,0 1.546875,-0.15625 0.78125,-0.15625 1.515625,-0.42188 0.734375,-0.26562 1.40625,-0.60937 0.6875,-0.34375 1.26563,-0.73438 z M 98.453125,127.14063 H 96.1875 l -1.421875,-2.67188 q -0.90625,-1.70312 -1.640625,-2.70312 -0.75,-1 -1.40625,-1.51563 -0.671875,-0.53125 -1.3125,-0.67187 -0.640625,-0.15625 -1.34375,-0.15625 h -3.03125 v -2.53125 h 2.859375 q 0.90625,0 1.640625,0.15625 0.734375,0.14062 1.40625,0.53125 0.65625,0.375 1.296875,1.0625 0.625,0.67187 1.34375,1.75 0.71875,1.0625 1.578125,2.5625 0.84375,1.48437 1.9375,3.51562 z M 126.125,126.70313 V 129 h -3.28125 v 21 H 120.25 v -10.5 h -9.04687 q -0.82813,0.54687 -1.98438,0.65625 l -0.0312,0.0781 q 1.51563,2.375 3.32813,4.42188 1.8125,2.04687 4.125,3.79687 l -1.67188,1.92188 q -1.32812,-0.98438 -2.53125,-2.125 -1.1875,-1.14063 -2.25,-2.35938 -1.04687,-1.23437 -1.96875,-2.48437 -0.92187,-1.26563 -1.6875,-2.48438 -0.76562,-1.21875 -1.375,-2.34375 -0.60937,-1.14062 -1.0625,-2.10937 l 2.14063,-1.15625 q 0.29687,0.6875 0.57812,1.15625 0.29688,0.45312 0.59375,0.73437 0.29688,0.26563 0.625,0.39063 0.32813,0.10937 0.70313,0.10937 1.07812,0 1.57812,-0.84375 0.51563,-0.84375 0.51563,-2.21875 0,-0.8125 -0.15625,-1.59375 -0.15625,-0.79687 -0.40625,-1.51562 -0.23438,-0.73438 -0.51563,-1.375 -0.28125,-0.64063 -0.53125,-1.15625 h -7.23437 v -2.29687 z M 120.25,129 h -8.32812 q 0.65625,1.42187 1.03125,2.85937 0.375,1.4375 0.375,2.85938 0,0.65625 -0.10938,1.29687 -0.0937,0.625 -0.32812,1.1875 l 0.0312,0.0312 H 120.25 Z m 2.375,-1.85937 h -2.26562 l -1.42188,-2.67188 q -0.90625,-1.70312 -1.64062,-2.70312 -0.75,-1 -1.40625,-1.51563 -0.67188,-0.53125 -1.3125,-0.67187 -0.64063,-0.15625 -1.34375,-0.15625 h -3.03125 v -2.53125 h 2.85937 q 0.90625,0 1.64063,0.15625 0.73437,0.14062 1.40625,0.53125 0.65625,0.375 1.29687,1.0625 0.625,0.67187 1.34375,1.75 0.71875,1.0625 1.57813,2.5625 0.84375,1.48437 1.9375,3.51562 z m 23.17187,18.45312 q 0.51563,-0.15625 1.01563,-0.39063 0.51562,-0.23437 0.90625,-0.5625 0.40625,-0.34375 0.65625,-0.79687 0.25,-0.45313 0.25,-1.0625 0,-1.29688 -1.07813,-2.01563 -1.07812,-0.73437 -3.0625,-0.73437 -0.79687,0 -1.64062,0.17187 -0.82813,0.15625 -1.51563,0.59375 -0.6875,0.42188 -1.125,1.17188 -0.4375,0.73437 -0.4375,1.875 0,1.15625 0.45313,2.15625 0.45312,0.98437 1.17187,1.8125 0.73438,0.82812 1.64063,1.5 0.90625,0.67187 1.79687,1.1875 0.90625,0.51562 1.70313,0.85937 0.79687,0.35938 1.32812,0.5625 l -1.03125,2.15625 q -1.09375,-0.46875 -2.23437,-1.03125 -1.125,-0.54687 -2.1875,-1.21875 -1.0625,-0.65625 -2,-1.45312 -0.9375,-0.79688 -1.64063,-1.76563 -0.6875,-0.96875 -1.09375,-2.125 -0.39062,-1.15625 -0.39062,-2.51562 0,-1.32813 0.34375,-2.3125 0.35937,-1 0.98437,-1.75 -0.85937,-0.98438 -1.26562,-1.98438 -0.40625,-1 -0.40625,-2.17187 0,-0.67188 0.15625,-1.26563 0.17187,-0.59375 0.59375,-1.03125 0.4375,-0.45312 1.20312,-0.71875 0.76563,-0.26562 1.98438,-0.26562 h 7.07812 V 129 h -14.15625 v -2.29687 h 20.35938 V 129 h -3.64063 v 5.75 h -8.98437 q -0.60938,0 -1.03125,0.10937 -0.40625,0.0937 -0.65625,0.29688 -0.25,0.20312 -0.35938,0.51562 -0.0937,0.29688 -0.0937,0.70313 0,0.54687 0.1875,1.0625 0.1875,0.51562 0.70313,1.15625 0.90625,-0.46875 1.98437,-0.6875 1.09375,-0.23438 2.28125,-0.23438 1.375,0 2.5625,0.3125 1.20313,0.3125 2.07813,0.95313 0.89062,0.625 1.39062,1.60937 0.51563,0.96875 0.51563,2.28125 0,1.26563 -0.4375,2.14063 -0.42188,0.875 -1.07813,1.46875 -0.64062,0.59375 -1.40625,0.96875 Q 147.40625,147.76562 146.75,148 Z M 162.46875,129 h -3.28125 v 21 h -2.5625 v -21 h -3.5625 v -2.29687 h 9.40625 z m 17.09375,10.5 h -8.96875 q -0.82813,0.54687 -1.98438,0.65625 l -0.0312,0.0781 q 1.51563,2.375 3.32813,4.42188 1.8125,2.04687 4.125,3.79687 l -1.67188,1.92188 q -1.32812,-0.98438 -2.53125,-2.125 -1.1875,-1.14063 -2.25,-2.35938 -1.04687,-1.23437 -1.96875,-2.48437 -0.92187,-1.26563 -1.6875,-2.48438 -0.76562,-1.21875 -1.375,-2.34375 -0.60937,-1.14062 -1.0625,-2.10937 l 2.14063,-1.15625 q 0.29687,0.6875 0.57812,1.15625 0.29688,0.45312 0.59375,0.73437 0.29688,0.26563 0.625,0.39063 0.32813,0.10937 0.70313,0.10937 1.07812,0 1.57812,-0.84375 0.51563,-0.84375 0.51563,-2.21875 0,-0.8125 -0.15625,-1.59375 -0.15625,-0.79687 -0.40625,-1.51562 -0.23438,-0.73438 -0.51563,-1.375 Q 168.85937,129.51562 168.60937,129 H 161.375 v -2.29687 h 17.8125 V 129 h -7.875 q 0.65625,1.42187 1.03125,2.85937 0.375,1.4375 0.375,2.85938 0,0.65625 -0.10938,1.29687 -0.0937,0.625 -0.32812,1.1875 l 0.0312,0.0312 h 7.01562 z M 195.70312,129 h -3.28125 v 21 h -2.5625 v -7.3125 l -0.0625,-0.0156 q -0.42187,0.34375 -1.01562,0.6875 -0.57813,0.32813 -1.29688,0.59375 -0.71875,0.25 -1.54687,0.42188 -0.82813,0.15625 -1.73438,0.15625 -1.8125,0 -3.10937,-0.65625 -1.28125,-0.65625 -2.15625,-1.75 -0.85938,-1.10938 -1.35938,-2.51563 -0.5,-1.42187 -0.71875,-2.95312 1.03125,-0.14063 1.76563,-0.48438 0.73437,-0.34375 1.1875,-0.8125 0.45312,-0.48437 0.65625,-1.04687 0.21875,-0.5625 0.21875,-1.125 0,-0.375 -0.0781,-0.84375 -0.0625,-0.46875 -0.23437,-1 -0.17188,-0.54688 -0.45313,-1.14063 -0.28125,-0.59375 -0.70312,-1.20312 h -4.51563 v -2.29687 h 21 z m -13.71875,0 q 0.5625,0.95312 0.875,2.09375 0.32813,1.125 0.32813,2.21875 0,0.79687 -0.21875,1.54687 -0.20313,0.75 -0.64063,1.40625 -0.4375,0.64063 -1.09375,1.15625 -0.64062,0.5 -1.5,0.79688 0.25,1.04687 0.6875,1.79687 0.4375,0.73438 1.03125,1.21875 0.59375,0.46875 1.32813,0.6875 0.73437,0.21875 1.57812,0.21875 0.8125,0 1.59375,-0.1875 0.79688,-0.1875 1.5,-0.53125 0.71875,-0.35937 1.32813,-0.85937 0.60937,-0.5 1.07812,-1.125 V 129 Z m 30.79688,0 H 209.5 v 21 h -2.5625 v -21 h -3.5625 v -2.29687 h 3.5625 q -0.85938,-2.0625 -0.85938,-3.84375 0,-1.14063 0.375,-2.125 0.375,-0.98438 1.14063,-1.70313 0.78125,-0.71875 1.98437,-1.125 1.20313,-0.40625 2.85938,-0.40625 2.17187,0 4.17187,0.70313 2.01563,0.70312 3.9375,1.95312 1.92188,1.25 3.79688,2.96875 1.89062,1.71875 3.8125,3.75 h -2.71875 q -0.4375,-0.42187 -1.17188,-1.09375 -0.71875,-0.6875 -1.67187,-1.45312 -0.95313,-0.78125 -2.10938,-1.5625 -1.15625,-0.79688 -2.4375,-1.4375 -1.28125,-0.64063 -2.67187,-1.03125 -1.375,-0.40625 -2.78125,-0.40625 -1.14063,0 -1.92188,0.26562 -0.76562,0.26563 -1.25,0.73438 -0.46875,0.46875 -0.67187,1.10937 -0.20313,0.625 -0.20313,1.34375 0,1.40625 0.76563,3.35938 h 3.46875 z m 19.57812,0 h -3.28125 v 21 h -2.54687 v -13.71875 h -5.07813 q -1.04687,0 -1.89062,0.14062 -0.84375,0.125 -1.4375,0.53125 -0.59375,0.39063 -0.92188,1.10938 -0.3125,0.70312 -0.3125,1.85937 0,1.5 0.48438,2.76563 0.5,1.26562 1.26562,2.32812 0.76563,1.04688 1.6875,1.9375 0.9375,0.89063 1.79688,1.64063 l -1.5625,1.78125 q -0.14063,-0.0781 -0.67188,-0.45313 -0.51562,-0.39062 -1.21875,-1.04687 -0.6875,-0.65625 -1.46875,-1.59375 -0.76562,-0.9375 -1.42187,-2.10938 -0.64063,-1.1875 -1.07813,-2.60937 -0.42187,-1.42188 -0.42187,-3.0625 0,-1.625 0.45312,-2.6875 0.46875,-1.07813 1.3125,-1.70313 0.84375,-0.64062 2.04688,-0.89062 1.20312,-0.25 2.6875,-0.25 h 5.75 V 129 H 211.6875 v -2.29687 h 20.67187 z m 12.98438,0 h -14.07813 v -2.29687 h 14.07813 z m 3.75,13.45312 q -1.09375,1.125 -2.10938,1.76563 -1,0.64062 -1.85937,0.95312 -0.84375,0.3125 -1.5,0.39063 -0.64063,0.0625 -1.01563,0.0625 -1.4375,0 -2.54687,-0.45313 -1.10938,-0.45312 -1.85938,-1.1875 -0.75,-0.75 -1.14062,-1.70312 -0.39063,-0.96875 -0.39063,-2 0,-1.07813 0.4375,-2.14063 0.45313,-1.0625 1.40625,-1.90625 l -0.0156,-0.0625 h -4.95313 V 133.875 h 12.25 v 2.29687 H 244.5 q -1.60938,0 -2.64063,0.42188 -1.03125,0.42187 -1.625,1.03125 -0.59375,0.60937 -0.82812,1.3125 -0.21875,0.6875 -0.21875,1.25 0,0.46875 0.15625,1.01562 0.15625,0.53125 0.51562,0.98438 0.375,0.45312 0.98438,0.75 0.625,0.29687 1.5625,0.29687 0.98437,0 1.82812,-0.3125 0.85938,-0.32812 1.57813,-0.82812 0.71875,-0.5 1.29687,-1.10938 0.59375,-0.60937 1.01563,-1.20312 z M 265.5625,129 h -3.28125 v 21 h -2.5625 v -7.3125 l -0.0625,-0.0156 q -0.42188,0.34375 -1.01563,0.6875 -0.57812,0.32813 -1.29687,0.59375 -0.71875,0.25 -1.54688,0.42188 -0.82812,0.15625 -1.73437,0.15625 -1.8125,0 -3.10938,-0.65625 -1.28125,-0.65625 -2.15625,-1.75 -0.85937,-1.10938 -1.35937,-2.51563 -0.5,-1.42187 -0.71875,-2.95312 1.03125,-0.14063 1.76562,-0.48438 0.73438,-0.34375 1.1875,-0.8125 0.45313,-0.48437 0.65625,-1.04687 0.21875,-0.5625 0.21875,-1.125 0,-0.375 -0.0781,-0.84375 -0.0625,-0.46875 -0.23438,-1 -0.17187,-0.54688 -0.45312,-1.14063 Q 249.5,129.60937 249.07812,129 h -4.51562 v -2.29687 h 21 z m -13.71875,0 q 0.5625,0.95312 0.875,2.09375 0.32812,1.125 0.32812,2.21875 0,0.79687 -0.21875,1.54687 -0.20312,0.75 -0.64062,1.40625 -0.4375,0.64063 -1.09375,1.15625 -0.64063,0.5 -1.5,0.79688 0.25,1.04687 0.6875,1.79687 0.4375,0.73438 1.03125,1.21875 0.59375,0.46875 1.32812,0.6875 0.73438,0.21875 1.57813,0.21875 0.8125,0 1.59375,-0.1875 0.79687,-0.1875 1.5,-0.53125 0.71875,-0.35937 1.32812,-0.85937 0.60938,-0.5 1.07813,-1.125 V 129 Z m 22.03125,0 h -3.28125 v 21 h -2.5625 v -21 h -3.5625 v -2.29687 h 9.40625 z m 11.85937,7.1875 q 0.23438,0.73437 0.54688,1.60937 0.3125,0.85938 0.73437,1.75 0.4375,0.875 0.96875,1.70313 0.54688,0.82812 1.23438,1.46875 0.70312,0.64062 1.54687,1.03125 0.84375,0.375 1.875,0.375 1.01563,0 1.71875,-0.29688 0.70313,-0.29687 1.14063,-0.79687 0.4375,-0.5 0.625,-1.17188 0.20312,-0.67187 0.20312,-1.40625 0,-1.60937 -1.17187,-2.51562 -1.15625,-0.90625 -3.35938,-0.90625 -0.26562,0 -0.53125,0.0156 -0.26562,0.0156 -0.53125,0.0469 v -2.375 q 0.125,0.0156 0.21875,0.0156 0.10938,0 0.125,0 1.09375,0 1.9375,-0.26562 0.85938,-0.28125 1.4375,-0.75 0.57813,-0.46875 0.875,-1.09375 0.29688,-0.625 0.29688,-1.3125 0,-0.625 -0.21875,-1.10938 -0.21875,-0.48437 -0.59375,-0.8125 -0.375,-0.32812 -0.89063,-0.48437 -0.51562,-0.17188 -1.125,-0.17188 -0.42187,0 -0.8125,0.0625 -0.39062,0.0469 -0.82812,0.17188 -0.4375,0.10937 -0.9375,0.29687 -0.48438,0.1875 -1.10938,0.46875 l -0.89062,-2.14062 q 1.21875,-0.59375 2.34375,-0.89062 1.125,-0.3125 2.29687,-0.3125 1.125,0 2.07813,0.35937 0.96875,0.35938 1.65625,1 0.70312,0.625 1.09375,1.5 0.39062,0.875 0.39062,1.89062 0,2.79688 -2.67187,4.5 v 0.0625 q 1.04687,0.4375 1.75,1.07813 0.45312,0.0781 0.95312,0.125 0.51563,0.0469 0.9375,0.0469 0.4375,0 0.92188,-0.0625 0.48437,-0.0625 0.98437,-0.23437 0.51563,-0.17188 1.03125,-0.48438 0.53125,-0.3125 1.0625,-0.8125 v -8.65624 h 5.84375 V 129 h -3.28125 v 21 h -2.5625 v -11.875 l -0.0625,-0.0156 q -0.89062,0.59375 -1.67187,0.78125 -0.78125,0.1875 -1.60938,0.1875 -0.26562,0 -0.54687,-0.0156 -0.28125,-0.0312 -0.57813,-0.0625 l -0.0156,0.0625 q 0.25,0.64062 0.25,1.57812 0,1.26563 -0.42188,2.34375 -0.42187,1.07813 -1.21875,1.875 -0.78125,0.78125 -1.90625,1.21875 -1.10937,0.4375 -2.5,0.4375 -1.48437,0 -2.6875,-0.51562 -1.1875,-0.53125 -2.15625,-1.35938 -0.95312,-0.82812 -1.67187,-1.85937 -0.71875,-1.04688 -1.23438,-2.09375 Q 284.5,139.64062 284.17187,138.70312 283.84375,137.75 283.6875,137.125 Z M 317.20312,129 h -3.28125 v 21 h -2.5625 v -21 h -3.5625 v -2.29687 h 9.40625 z m -3.51562,-1.85937 h -2.26563 L 310,124.46875 q -0.90625,-1.70312 -1.65625,-2.70312 -0.73438,-1 -1.40625,-1.51563 -0.65625,-0.53125 -1.29688,-0.67187 -0.64062,-0.15625 -1.34375,-0.15625 h -3.03125 v -2.53125 h 2.85938 q 0.90625,0 1.64062,0.15625 0.73438,0.14062 1.39063,0.53125 0.67187,0.375 1.29687,1.0625 0.64063,0.67187 1.35938,1.75 0.71875,1.0625 1.5625,2.5625 0.85937,1.48437 1.95312,3.51562 z M 327.14062,148 q 1.29688,0 2.40625,-0.46875 1.10938,-0.46875 1.90625,-1.29688 0.8125,-0.82812 1.26563,-1.95312 0.45312,-1.14063 0.45312,-2.48438 0,-1.125 -0.3125,-1.96875 -0.29687,-0.85937 -0.78125,-1.48437 -0.46875,-0.625 -1.04687,-1.04688 -0.5625,-0.42187 -1.09375,-0.6875 -0.53125,-0.26562 -0.95313,-0.39062 -0.40625,-0.125 -0.57812,-0.15625 -0.40625,0.1875 -1.01563,0.375 -0.59375,0.17187 -1.26562,0.39062 -0.78125,0.26563 -1.57813,0.67188 -0.79687,0.40625 -1.4375,1.0625 -0.64062,0.65625 -1.04687,1.625 -0.39063,0.96875 -0.39063,2.34375 0,1.20312 0.40625,2.21875 0.40625,1 1.125,1.73437 0.73438,0.71875 1.73438,1.125 1,0.39063 2.20312,0.39063 z m 11.79688,-19 h -7.60938 v 2.53125 q 0,0.76562 -0.25,1.59375 -0.25,0.82812 -0.73437,1.40625 1.23437,0.4375 2.20312,1.20312 0.98438,0.75 1.65625,1.75 0.6875,0.98438 1.04688,2.17188 0.375,1.1875 0.375,2.48437 0,1.71875 -0.625,3.21875 -0.625,1.5 -1.75,2.625 -1.10938,1.10938 -2.65625,1.75 -1.54688,0.64063 -3.39063,0.64063 -1.95312,0 -3.45312,-0.6875 -1.5,-0.70313 -2.51563,-1.85938 -1.01562,-1.15625 -1.54687,-2.64062 -0.53125,-1.48438 -0.53125,-3.07813 0,-1.67187 0.48437,-2.92187 0.5,-1.25 1.35938,-2.15625 0.85937,-0.92188 2.03125,-1.53125 1.1875,-0.60938 2.57812,-1 0.64063,-0.1875 1.21875,-0.375 0.57813,-0.1875 1,-0.53125 0.4375,-0.34375 0.6875,-0.89063 0.25,-0.5625 0.25,-1.45312 V 129 h -12.65625 v -2.29687 h 22.82813 z m 8.3125,0 h -3.28125 v 21 h -2.5625 v -21 h -3.5625 v -2.29687 H 347.25 Z m -6.79688,-7.0625 q 0,-0.89062 0.53125,-1.4375 0.51563,-0.5625 1.35938,-0.5625 0.39062,0 0.75,0.15625 0.34375,0.15625 0.60937,0.4375 0.26563,0.26563 0.42188,0.64063 0.14062,0.35937 0.14062,0.79687 0,0.89063 -0.51562,1.4375 -0.53125,0.54688 -1.375,0.54688 -0.40625,0 -0.75,-0.14063 -0.35938,-0.15625 -0.60938,-0.42187 -0.26562,-0.28125 -0.40625,-0.64063 -0.15625,-0.375 -0.15625,-0.8125 z M 366.0625,129 h -3.28125 v 21 h -2.5625 v -5.57813 l -0.0625,-0.0156 q -0.3125,0.29687 -0.73438,0.625 -0.42187,0.3125 -0.96875,0.57812 -0.54687,0.25 -1.23437,0.42188 -0.67188,0.17187 -1.51563,0.17187 -1.54687,0 -2.82812,-0.59375 -1.26563,-0.59375 -2.1875,-1.57812 -0.92188,-1 -1.4375,-2.28125 -0.5,-1.29688 -0.5,-2.70313 0,-1.40625 0.5,-2.60937 0.51562,-1.21875 1.40625,-2.10938 0.89062,-0.89062 2.07812,-1.39062 1.1875,-0.51563 2.54688,-0.51563 0.375,0 0.9375,0.0625 0.57812,0.0625 1.23437,0.28125 0.65625,0.21875 1.35938,0.64063 0.70312,0.40625 1.34375,1.10937 l 0.0625,-0.0156 V 129 h -14.0625 v -2.29687 h 19.90625 z m -5.78125,8.42187 q -0.98438,-1.1875 -2.14063,-1.90625 -1.15625,-0.73437 -2.625,-0.73437 -1.15625,0 -1.96875,0.4375 -0.79687,0.4375 -1.3125,1.10937 -0.51562,0.65625 -0.75,1.46875 -0.23437,0.8125 -0.23437,1.5625 0,0.8125 0.26562,1.60938 0.26563,0.79687 0.78125,1.4375 0.53125,0.625 1.3125,1.03125 0.78125,0.39062 1.82813,0.39062 1.07812,0 1.96875,-0.40625 0.89062,-0.42187 1.53125,-1.0625 0.64062,-0.64062 0.98437,-1.4375 0.35938,-0.79687 0.35938,-1.54687 z M 381.70312,129 h -5.89062 q 0.79687,1.375 1.28125,2.8125 0.5,1.42187 0.5,2.89062 0,1.10938 -0.34375,2.14063 -0.32813,1.01562 -0.98438,1.82812 -0.64062,0.79688 -1.60937,1.3125 -0.95313,0.5 -2.20313,0.5625 l -0.0312,0.0781 q 1.40625,2.1875 3.15625,4.14062 1.75,1.9375 4.04688,3.6875 l -1.67188,1.92188 q -1.32812,-0.98438 -2.53125,-2.125 -1.1875,-1.15625 -2.25,-2.375 -1.0625,-1.23438 -1.98437,-2.48438 -0.90625,-1.26562 -1.67188,-2.45312 -0.75,-1.20313 -1.34375,-2.29688 -0.59375,-1.10937 -1.01562,-2.01562 l 2.14062,-1.15625 q 0.5625,1.21875 1.26563,1.92187 0.71875,0.6875 1.65625,0.6875 0.67187,0 1.20312,-0.34375 0.53125,-0.34375 0.89063,-0.875 0.35937,-0.54687 0.54687,-1.1875 0.1875,-0.65625 0.1875,-1.28125 0,-0.73437 -0.1875,-1.4375 -0.1875,-0.71875 -0.48437,-1.39062 -0.29688,-0.6875 -0.67188,-1.32813 Q 373.34375,129.59375 373,129 h -8.03125 v -2.29687 h 16.73437 z m 37.39063,0 h -13.48438 v 6 l 0.0781,0.0312 q 0.40625,-0.54688 0.92187,-0.98438 0.53125,-0.45312 1.14063,-0.76562 0.625,-0.32813 1.29687,-0.5 0.6875,-0.17188 1.39063,-0.17188 1.15625,0 2.14062,0.46875 0.98438,0.45313 1.70313,1.26563 0.71875,0.79687 1.125,1.89062 0.40625,1.09375 0.40625,2.375 0,1.4375 -0.5,2.64063 -0.48438,1.20312 -1.26563,2.1875 -0.76562,0.98437 -1.71875,1.75 -0.95312,0.75 -1.89062,1.28125 l -1.39063,-2.40625 q 0.29688,-0.17188 0.73438,-0.45313 0.4375,-0.28125 0.90625,-0.65625 0.48437,-0.375 0.95312,-0.84375 0.46875,-0.48437 0.84375,-1.04687 0.375,-0.5625 0.60938,-1.20313 0.23437,-0.64062 0.23437,-1.375 0,-0.70312 -0.21875,-1.3125 -0.21875,-0.60937 -0.60937,-1.0625 -0.375,-0.45312 -0.92188,-0.71875 -0.53125,-0.26562 -1.17187,-0.26562 -0.82813,0 -1.625,0.42187 -0.79688,0.42188 -1.45313,1.0625 -0.65625,0.625 -1.125,1.34375 -0.45312,0.71875 -0.59375,1.32813 V 150 h -2.5625 v -7.42188 L 403,142.5625 q -0.96875,0.89062 -2.09375,1.29687 -1.125,0.39063 -2.34375,0.39063 -1.26563,0 -2.3125,-0.39063 -1.04688,-0.39062 -1.79688,-1.1875 -0.75,-0.8125 -1.17187,-2.03125 -0.42188,-1.23437 -0.42188,-2.92187 V 129 H 389.375 v -2.29687 h 29.71875 z m -16.04688,0 h -7.65625 v 8.57812 q 0,0.98438 0.14063,1.76563 0.15625,0.78125 0.51562,1.32812 0.375,0.54688 0.96875,0.84375 0.59375,0.28125 1.48438,0.28125 0.75,0 1.39062,-0.20312 0.65625,-0.21875 1.21875,-0.57813 0.5625,-0.375 1.04688,-0.89062 0.48437,-0.51563 0.89062,-1.125 z m -3.0625,21.46875 q 1,-0.625 2.21875,-0.96875 1.20313,-0.34375 2.29688,-0.34375 0.95312,0 1.78125,0.28125 0.8125,0.26562 1.42187,0.78125 0.60938,0.53125 0.95313,1.28125 0.34375,0.75 0.34375,1.6875 0,1 -0.40625,1.875 -0.39063,0.875 -1.1875,1.53125 -0.79688,0.65625 -1.96875,1.03125 -1.17188,0.39062 -2.71875,0.39062 -1.76563,0 -3.15625,-0.48437 -1.40625,-0.46875 -2.51563,-1.20313 -1.10937,-0.71875 -1.95312,-1.59375 -0.84375,-0.875 -1.48438,-1.65625 l 1.45313,-1.70312 q 0.89062,0.96875 1.70312,1.75 0.8125,0.78125 1.6875,1.32812 0.875,0.5625 1.89063,0.85938 1,0.29687 2.26562,0.29687 1.07813,0 1.84375,-0.21875 0.75,-0.20312 1.23438,-0.54687 0.48437,-0.32813 0.70312,-0.76563 0.21875,-0.42187 0.21875,-0.85937 0,-0.79688 -0.59375,-1.26563 -0.60937,-0.46875 -1.64062,-0.46875 -0.67188,0 -1.54688,0.23438 -0.89062,0.23437 -1.79687,0.78125 z M 441.95312,129 h -3.28125 v 21.01562 h -2.5625 V 135.375 q -0.82812,-0.29688 -1.5625,-0.29688 -0.73437,0 -1.28125,0.28125 -0.54687,0.26563 -0.92187,0.71875 -0.35938,0.45313 -0.54688,1.0625 -0.1875,0.60938 -0.1875,1.28125 0,0.26563 0.0156,0.54688 0.0312,0.26562 0.0625,0.53125 h -2.39063 q -0.125,-0.90625 -0.29687,-1.73438 -0.15625,-0.82812 -0.46875,-1.45312 -0.29688,-0.625 -0.78125,-0.98438 -0.48438,-0.375 -1.25,-0.375 -0.73438,0 -1.26563,0.29688 -0.51562,0.29687 -0.85937,0.82812 -0.34375,0.53125 -0.51563,1.25 -0.15625,0.70313 -0.15625,1.53125 0,1.78125 0.60938,3.20313 0.60937,1.40625 1.64062,2.53125 1.04688,1.125 2.40625,2.01562 1.375,0.875 2.89063,1.60938 l -1.26563,2.15625 q -0.5625,-0.25 -1.45312,-0.75 -0.875,-0.5 -1.875,-1.23438 -0.98438,-0.73437 -1.98438,-1.71875 -1,-0.98437 -1.8125,-2.20312 -0.79687,-1.21875 -1.29687,-2.6875 -0.5,-1.46875 -0.5,-3.17188 0,-1.3125 0.375,-2.4375 0.375,-1.14062 1.0625,-1.96875 0.70312,-0.84375 1.6875,-1.3125 0.98437,-0.48437 2.1875,-0.48437 0.90625,0 1.5625,0.26562 0.65625,0.25 1.125,0.64063 0.48437,0.375 0.79687,0.82812 0.3125,0.4375 0.54688,0.82813 l 0.0781,-0.0156 q 0.29688,-0.65625 0.70313,-1.10937 0.42187,-0.45313 0.90625,-0.73438 0.5,-0.28125 1.04687,-0.40625 0.54688,-0.14062 1.09375,-0.14062 0.48438,0 0.95313,0.0937 0.48437,0.0781 0.92187,0.23437 V 129 H 418 v -2.29687 h 23.95312 z m 8.3125,0 h -3.28125 v 21 h -2.5625 v -21 h -3.5625 v -2.29687 h 9.40625 z m -3.5,-1.85937 H 444.5 l -1.42188,-2.67188 q -0.90625,-1.70312 -1.65625,-2.70312 -0.73437,-1 -1.39062,-1.51563 -0.67188,-0.53125 -1.3125,-0.67187 -0.64063,-0.15625 -1.34375,-0.15625 h -3.03125 v -2.53125 h 2.85937 q 0.90625,0 1.64063,0.15625 0.73437,0.14062 1.40625,0.53125 0.65625,0.375 1.28125,1.0625 0.64062,0.67187 1.35937,1.75 0.71875,1.0625 1.5625,2.5625 0.85938,1.48437 1.95313,3.51562 z m 22.78125,22.51562 q -0.71875,0.26562 -1.76562,0.45312 -1.04688,0.1875 -2.375,0.1875 -2.48438,0 -4.4375,-0.85937 -1.95313,-0.85938 -3.625,-2.51563 -1.65625,-1.65625 -3.17188,-4.09375 -1.5,-2.4375 -3.09375,-5.57812 l 2.07813,-1.1875 q 0.59375,1.125 1.10937,1.60937 0.53125,0.46875 1.17188,0.46875 0.53125,0 0.92187,-0.29687 0.40625,-0.29688 0.65625,-0.76563 0.26563,-0.48437 0.39063,-1.09375 0.14062,-0.60937 0.14062,-1.21875 0,-0.70312 -0.15625,-1.46875 -0.15625,-0.76562 -0.42187,-1.51562 -0.26563,-0.75 -0.625,-1.45313 -0.34375,-0.71875 -0.73438,-1.3125 V 129 h -6.4375 v -2.29687 h 28.15625 V 129 h -3.28125 v 21 h -2.5625 v -7.59375 l -0.0625,-0.0156 q -0.85937,0.84375 -1.90625,1.25 -1.04687,0.40625 -2.07812,0.40625 -1.28125,0 -2.35938,-0.53125 -1.07812,-0.53125 -1.85937,-1.40625 -0.78125,-0.875 -1.21875,-2 -0.4375,-1.125 -0.4375,-2.32812 0,-1.14063 0.39062,-2.20313 0.40625,-1.0625 1.10938,-1.875 0.71875,-0.82812 1.6875,-1.3125 0.98437,-0.48437 2.15625,-0.48437 0.67187,0 1.28125,0.15625 0.60937,0.15625 1.17187,0.4375 0.5625,0.28125 1.07813,0.67187 0.51562,0.375 0.98437,0.8125 l 0.0625,-0.0156 V 129 h -13.14062 q 0.79687,1.51562 1.25,2.96875 0.45312,1.4375 0.45312,2.90625 0,1 -0.25,1.98437 -0.25,0.98438 -0.78125,1.78125 -0.51562,0.79688 -1.32812,1.32813 -0.8125,0.53125 -1.9375,0.625 v 0.0781 q 1.07812,2.10938 2.25,3.48438 1.1875,1.35937 2.40625,2.15625 1.21875,0.79687 2.4375,1.10937 1.23437,0.3125 2.40625,0.3125 1.32812,0 2.39062,-0.26562 1.0625,-0.28125 1.90625,-0.625 z M 471.5,136.89062 q -0.28125,-0.35937 -0.70313,-0.8125 -0.40625,-0.46875 -0.9375,-0.875 -0.51562,-0.40625 -1.15625,-0.67187 -0.625,-0.28125 -1.35937,-0.28125 -0.75,0 -1.35938,0.3125 -0.59375,0.29687 -1.03125,0.79687 -0.4375,0.5 -0.67187,1.17188 -0.23438,0.65625 -0.23438,1.375 0,0.75 0.25,1.4375 0.25,0.67187 0.6875,1.1875 0.45313,0.51562 1.07813,0.82812 0.625,0.29688 1.375,0.29688 0.57812,0 1.28125,-0.21875 0.71875,-0.21875 1.32812,-0.71875 0.625,-0.5 1.03125,-1.32813 Q 471.5,138.5625 471.5,137.34375 Z M 485.64062,129 h -3.28125 v 21 h -2.5625 v -21 h -3.5625 v -2.29687 h 3.8125 q -0.28125,-1.59375 -0.71875,-2.71875 -0.4375,-1.14063 -0.95312,-1.89063 -0.51563,-0.76562 -1.07813,-1.20312 -0.5625,-0.4375 -1.07812,-0.65625 -0.53125,-0.21875 -0.98438,-0.28125 -0.46875,-0.0625 -0.76562,-0.0625 -0.96875,0 -1.54688,0.3125 -0.59375,0.29687 -0.90625,0.71875 -0.3125,0.42187 -0.40625,0.89062 -0.10937,0.45313 -0.10937,0.78125 0,0.125 0.0469,0.51563 0.0312,0.375 0.25,0.95312 0.20313,0.57813 0.64063,1.29688 0.4375,0.71875 1.23437,1.51562 h -2.65625 q -0.98437,-1.125 -1.46875,-2.32812 -0.5,-1.21875 -0.5,-2.35938 0,-0.95312 0.34375,-1.8125 0.34375,-0.85937 1.03125,-1.48437 0.6875,-0.64063 1.71875,-1.01563 1.03125,-0.375 2.39063,-0.375 1.875,0 3.23437,0.73438 1.35938,0.71875 2.28125,1.96875 0.9375,1.25 1.46875,2.9375 0.54688,1.67187 0.76563,3.5625 h 3.35937 z m 2.9375,21.34375 q -0.71875,0 -1.23437,-0.51563 -0.5,-0.51562 -0.5,-1.23437 0,-0.71875 0.5,-1.23438 0.51562,-0.53125 1.23437,-0.53125 0.73438,0 1.25,0.53125 0.51563,0.51563 0.51563,1.23438 0,0.71875 -0.51563,1.23437 -0.51562,0.51563 -1.25,0.51563 z"
         id="path5" />
      <path
         d="m 69.8125,179 h -3.28125 v 21 h -2.578125 v -7.46875 l -0.0625,-0.0156 q -1.046875,0.9375 -2.34375,1.34375 -1.296875,0.39063 -2.5625,0.39063 -1.34375,0 -2.453125,-0.39063 -1.109375,-0.39062 -1.90625,-1.1875 -0.796875,-0.8125 -1.25,-2.03125 -0.4375,-1.23437 -0.4375,-2.92187 V 179 h -3.484375 v -2.29688 H 69.8125 Z m -5.859375,0 H 55.46875 v 8.57812 q 0,0.98438 0.15625,1.76563 0.171875,0.78125 0.5625,1.32812 0.40625,0.54688 1.0625,0.84375 0.65625,0.28125 1.640625,0.28125 1.609375,0 2.90625,-0.75 1.296875,-0.76562 2.15625,-2 z M 78.125,179 h -3.28125 v 21 h -2.5625 v -21 h -3.5625 v -2.29688 H 78.125 Z m 17.5625,0 H 92.125 v 9.67187 q 0,1.625 -0.453125,2.79688 -0.4375,1.17187 -1.21875,1.9375 -0.765625,0.76562 -1.796875,1.14062 -1.03125,0.35938 -2.21875,0.35938 -1.328125,0 -2.40625,-0.42188 -1.0625,-0.42187 -1.8125,-1.25 -0.75,-0.82812 -1.15625,-2.04687 -0.40625,-1.23438 -0.40625,-2.82813 V 179 h -3.625 v -2.29688 H 95.6875 Z M 83.25,179 v 9.84375 q 0,0.71875 0.15625,1.39062 0.171875,0.65625 0.53125,1.17188 0.375,0.51562 0.96875,0.82812 0.609375,0.3125 1.484375,0.3125 0.890625,0 1.484375,-0.3125 0.609375,-0.3125 0.984375,-0.82812 0.375,-0.51563 0.53125,-1.17188 0.171875,-0.67187 0.171875,-1.39062 V 179 Z m 30.40625,0 H 110.375 v 21 h -2.5625 v -7.3125 l -0.0625,-0.0156 q -0.42187,0.34375 -1.01562,0.6875 -0.57813,0.32813 -1.29688,0.59375 -0.71875,0.25 -1.54687,0.42188 -0.82813,0.15625 -1.73438,0.15625 -1.8125,0 -3.109375,-0.65625 -1.28125,-0.65625 -2.15625,-1.75 -0.859375,-1.10938 -1.359375,-2.51563 -0.5,-1.42187 -0.71875,-2.95312 1.03125,-0.14063 1.765625,-0.48438 0.734375,-0.34375 1.1875,-0.8125 0.453125,-0.48437 0.65625,-1.04687 0.21875,-0.5625 0.21875,-1.125 0,-0.375 -0.07813,-0.84375 -0.0625,-0.46875 -0.234375,-1 Q 98.15625,180.79687 97.875,180.20312 97.59375,179.60937 97.171875,179 H 92.65625 v -2.29688 h 21 z m -13.71875,0 q 0.5625,0.95312 0.875,2.09375 0.32813,1.125 0.32813,2.21875 0,0.79687 -0.21875,1.54687 -0.20313,0.75 -0.64063,1.40625 -0.4375,0.64063 -1.09375,1.15625 -0.640625,0.5 -1.5,0.79688 0.25,1.04687 0.6875,1.79687 0.4375,0.73438 1.03125,1.21875 0.59375,0.46875 1.32813,0.6875 0.73437,0.21875 1.57812,0.21875 0.8125,0 1.59375,-0.1875 0.79688,-0.1875 1.5,-0.53125 0.71875,-0.35937 1.32813,-0.85937 0.60937,-0.5 1.07812,-1.125 V 179 Z m 22.03125,0 h -3.28125 v 21 h -2.5625 v -21 h -3.5625 v -2.29688 h 9.40625 z m 12.98437,0 H 120.875 v -2.29688 h 14.07812 z m 3.75,13.45312 q -1.09375,1.125 -2.10937,1.76563 -1,0.64062 -1.85938,0.95312 -0.84375,0.3125 -1.5,0.39063 -0.64062,0.0625 -1.01562,0.0625 -1.4375,0 -2.54688,-0.45313 -1.10937,-0.45312 -1.85937,-1.1875 -0.75,-0.75 -1.14062,-1.70312 -0.39063,-0.96875 -0.39063,-2 0,-1.07813 0.4375,-2.14063 0.45313,-1.0625 1.40625,-1.90625 l -0.0156,-0.0625 h -4.95312 V 183.875 h 12.25 v 2.29687 h -1.29688 q -1.60937,0 -2.64062,0.42188 -1.03125,0.42187 -1.625,1.03125 -0.59375,0.60937 -0.82813,1.3125 -0.21875,0.6875 -0.21875,1.25 0,0.46875 0.15625,1.01562 0.15625,0.53125 0.51563,0.98438 0.375,0.45312 0.98437,0.75 0.625,0.29687 1.5625,0.29687 0.98438,0 1.82813,-0.3125 0.85937,-0.32812 1.57812,-0.82812 0.71875,-0.5 1.29688,-1.10938 0.59375,-0.60937 1.01562,-1.20312 z M 155.17187,179 h -3.28125 v 21 h -2.5625 v -7.3125 l -0.0625,-0.0156 q -0.42187,0.34375 -1.01562,0.6875 -0.57813,0.32813 -1.29688,0.59375 -0.71875,0.25 -1.54687,0.42188 -0.82813,0.15625 -1.73438,0.15625 -1.8125,0 -3.10937,-0.65625 -1.28125,-0.65625 -2.15625,-1.75 -0.85938,-1.10938 -1.35938,-2.51563 -0.5,-1.42187 -0.71875,-2.95312 1.03125,-0.14063 1.76563,-0.48438 0.73437,-0.34375 1.1875,-0.8125 0.45312,-0.48437 0.65625,-1.04687 0.21875,-0.5625 0.21875,-1.125 0,-0.375 -0.0781,-0.84375 -0.0625,-0.46875 -0.23437,-1 -0.17188,-0.54688 -0.45313,-1.14063 Q 139.10937,179.60937 138.6875,179 h -4.51563 v -2.29688 h 21 z m -13.71875,0 q 0.5625,0.95312 0.875,2.09375 0.32813,1.125 0.32813,2.21875 0,0.79687 -0.21875,1.54687 -0.20313,0.75 -0.64063,1.40625 -0.4375,0.64063 -1.09375,1.15625 -0.64062,0.5 -1.5,0.79688 0.25,1.04687 0.6875,1.79687 0.4375,0.73438 1.03125,1.21875 0.59375,0.46875 1.32813,0.6875 0.73437,0.21875 1.57812,0.21875 0.8125,0 1.59375,-0.1875 0.79688,-0.1875 1.5,-0.53125 0.71875,-0.35937 1.32813,-0.85937 0.60937,-0.5 1.07812,-1.125 V 179 Z m 22.03125,0 h -3.28125 v 21 h -2.5625 v -21 h -3.5625 v -2.29688 h 9.40625 z m 18.23438,2.46875 q 0,1.125 -0.28125,2.15625 -0.28125,1.03125 -0.84375,1.90625 -0.5625,0.85937 -1.40625,1.54687 -0.82813,0.67188 -1.95313,1.10938 0.23438,1.0625 0.65625,1.8125 0.42188,0.73437 1,1.21875 0.57813,0.48437 1.28125,0.70312 0.70313,0.21875 1.48438,0.21875 1.5625,0 2.89062,-0.71875 1.34375,-0.71875 2.25,-1.98437 v -12.73438 h 5.84375 V 179 h -3.28125 v 21 h -2.5625 v -7.3125 l -0.0625,-0.0156 q -0.40625,0.34375 -0.96875,0.6875 -0.5625,0.32813 -1.25,0.59375 -0.67187,0.25 -1.45312,0.42188 -0.78125,0.15625 -1.625,0.15625 -1.75,0 -3,-0.67188 -1.23438,-0.6875 -2.07813,-1.79687 -0.82812,-1.10938 -1.3125,-2.51563 -0.46875,-1.42187 -0.67187,-2.90625 1.375,-0.28125 2.29687,-0.8125 0.9375,-0.53125 1.5,-1.21875 0.5625,-0.70312 0.79688,-1.5 0.25,-0.8125 0.25,-1.64062 0,-1.375 -0.54688,-2.0625 -0.53125,-0.70313 -1.34375,-0.70313 -0.71875,0 -1.15625,0.48438 -0.4375,0.48437 -0.4375,1.23437 0,0.14063 0.0312,0.34375 0.0312,0.20313 0.15625,0.46875 0.125,0.25 0.375,0.57813 0.25,0.3125 0.67188,0.67187 l -1.39063,1.70313 q -0.71875,-0.39063 -1.17187,-0.85938 -0.45313,-0.48437 -0.70313,-0.98437 -0.25,-0.5 -0.34375,-0.96875 -0.0937,-0.48438 -0.0937,-0.89063 0,-0.75 0.25,-1.46875 0.26563,-0.73437 0.78125,-1.3125 0.51563,-0.59375 1.29688,-0.95312 0.78125,-0.35938 1.82812,-0.35938 1.04688,0 1.84375,0.375 0.79688,0.375 1.34375,1.04688 0.54688,0.67187 0.82813,1.60937 0.28125,0.92188 0.28125,2.04688 z m 7.42187,-4.32813 H 186.875 l -1.42188,-2.67187 q -0.90625,-1.70313 -1.64062,-2.70313 -0.75,-1 -1.40625,-1.51562 -0.67188,-0.53125 -1.3125,-0.67188 -0.64063,-0.15625 -1.34375,-0.15625 h -3.03125 v -2.53125 h 2.85937 q 0.90625,0 1.64063,0.15625 0.73437,0.14063 1.40625,0.53125 0.65625,0.375 1.29687,1.0625 0.625,0.67188 1.34375,1.75 0.71875,1.0625 1.57813,2.5625 0.84375,1.48438 1.9375,3.51563 z m -0.32812,-5.20312 q 0,-0.89063 0.53125,-1.4375 0.51562,-0.5625 1.35937,-0.5625 0.39063,0 0.73438,0.15625 0.35937,0.15625 0.625,0.4375 0.26562,0.26562 0.40625,0.64062 0.15625,0.35938 0.15625,0.79688 0,0.89062 -0.53125,1.4375 -0.51563,0.54687 -1.35938,0.54687 -0.40625,0 -0.75,-0.14062 -0.35937,-0.15625 -0.60937,-0.42188 -0.26563,-0.28125 -0.40625,-0.64062 -0.15625,-0.375 -0.15625,-0.8125 z M 212.57812,179 h -3.28125 v 21 h -2.5625 v -5.53125 l -0.0625,-0.0156 q -0.34375,0.29688 -0.8125,0.60938 -0.45312,0.3125 -1.0625,0.57812 -0.59375,0.26563 -1.34375,0.4375 -0.75,0.17188 -1.65625,0.17188 -1.70312,0 -3.10937,-0.59375 -1.40625,-0.60938 -2.42188,-1.60938 -1,-1.01562 -1.5625,-2.3125 -0.5625,-1.3125 -0.5625,-2.73437 0,-1.4375 0.5625,-2.67188 0.5625,-1.23437 1.53125,-2.125 0.98438,-0.90625 2.28125,-1.42187 1.29688,-0.51563 2.76563,-0.51563 0.45312,0 1.07812,0.0781 0.625,0.0625 1.32813,0.29687 0.71875,0.23438 1.48437,0.67188 0.76563,0.42187 1.5,1.14062 l 0.0625,-0.0156 V 179 h -15.1875 v -2.29688 h 21.03125 z m -15.9375,10.25 q 0,0.85937 0.29688,1.6875 0.29687,0.82812 0.89062,1.48437 0.59375,0.65625 1.46875,1.0625 0.875,0.39063 2.04688,0.39063 1.04687,0 2,-0.34375 l -5.15625,-7.75 q -0.71875,0.59375 -1.14063,1.5 -0.40625,0.90625 -0.40625,1.96875 z m 10.15625,-1.89063 q -0.5625,-0.60937 -1.15625,-1.10937 -0.57812,-0.5 -1.23437,-0.85938 -0.65625,-0.35937 -1.39063,-0.5625 -0.71875,-0.20312 -1.54687,-0.20312 -0.35938,0 -0.6875,0.0469 -0.32813,0.0469 -0.67188,0.125 l 5.07813,7.625 q 0.76562,-0.6875 1.1875,-1.51562 0.42187,-0.84375 0.42187,-1.64063 z M 220.89062,179 h -3.28125 v 21 h -2.5625 v -21 h -3.5625 v -2.29688 h 9.40625 z m -6.79687,-7.0625 q 0,-0.89063 0.53125,-1.4375 0.51562,-0.5625 1.35937,-0.5625 0.39063,0 0.75,0.15625 0.34375,0.15625 0.60938,0.4375 0.26562,0.26562 0.42187,0.64062 0.14063,0.35938 0.14063,0.79688 0,0.89062 -0.51563,1.4375 -0.53125,0.54687 -1.375,0.54687 -0.40625,0 -0.75,-0.14062 -0.35937,-0.15625 -0.60937,-0.42188 -0.26563,-0.28125 -0.40625,-0.64062 -0.15625,-0.375 -0.15625,-0.8125 z M 240.32812,179 h -3.28125 v 21 h -2.57812 v -12.04688 h -7.3125 q 0,1.03125 -0.0312,1.76563 -0.0156,0.73437 -0.125,1.21875 -0.10938,0.46875 -0.32813,0.6875 -0.21875,0.21875 -0.60937,0.21875 -0.8125,0 -1.54688,-0.53125 -0.71875,-0.53125 -1.28125,-1.28125 -0.54687,-0.75 -0.875,-1.5625 -0.32812,-0.8125 -0.32812,-1.375 0,-0.5 0.21875,-0.78125 0.21875,-0.28125 0.57812,-0.42188 0.35938,-0.14062 0.8125,-0.17187 0.46875,-0.0312 0.9375,-0.0312 h 9.89063 V 179 h -14.67188 v -2.29688 h 20.53125 z m 8.3125,0 h -3.28125 v 21 h -2.5625 v -21 h -3.5625 v -2.29688 h 3.8125 q -0.28125,-1.59375 -0.71875,-2.71875 -0.4375,-1.14062 -0.95312,-1.89062 -0.51563,-0.76563 -1.07813,-1.20313 -0.5625,-0.4375 -1.07812,-0.65625 -0.53125,-0.21875 -0.98438,-0.28125 -0.46875,-0.0625 -0.76562,-0.0625 -0.96875,0 -1.54688,0.3125 -0.59375,0.29688 -0.90625,0.71875 -0.3125,0.42188 -0.40625,0.89063 -0.10937,0.45312 -0.10937,0.78125 0,0.125 0.0469,0.51562 0.0312,0.375 0.25,0.95313 0.20313,0.57812 0.64063,1.29687 0.4375,0.71875 1.23437,1.51563 h -2.65625 q -0.98437,-1.125 -1.46875,-2.32813 -0.5,-1.21875 -0.5,-2.35937 0,-0.95313 0.34375,-1.8125 0.34375,-0.85938 1.03125,-1.48438 0.6875,-0.64062 1.71875,-1.01562 1.03125,-0.375 2.39063,-0.375 1.875,0 3.23437,0.73437 1.35938,0.71875 2.28125,1.96875 0.9375,1.25 1.46875,2.9375 0.54688,1.67188 0.76563,3.5625 h 3.35937 z m 4.39063,17.4375 -2.5,7.6875 h -1.82813 l 1.82813,-7.6875 z M 283.92187,179 h -3.28125 v 21 h -2.54687 v -13.71875 h -5.07813 q -1.04687,0 -1.89062,0.14062 -0.84375,0.125 -1.4375,0.53125 -0.59375,0.39063 -0.92188,1.10938 -0.3125,0.70312 -0.3125,1.85937 0,1.5 0.48438,2.76563 0.5,1.26562 1.26562,2.32812 0.76563,1.04688 1.6875,1.9375 0.9375,0.89063 1.79688,1.64063 l -1.5625,1.78125 q -0.14063,-0.0781 -0.67188,-0.45313 -0.51562,-0.39062 -1.21875,-1.04687 -0.6875,-0.65625 -1.46875,-1.59375 -0.76562,-0.9375 -1.42187,-2.10938 -0.64063,-1.1875 -1.07813,-2.60937 -0.42187,-1.42188 -0.42187,-3.0625 0,-1.625 0.45312,-2.6875 0.46875,-1.07813 1.3125,-1.70313 0.84375,-0.64062 2.04688,-0.89062 1.20312,-0.25 2.6875,-0.25 h 5.75 V 179 H 263.25 v -2.29688 h 20.67187 z m 8.3125,0 h -3.28125 v 21 h -2.5625 v -21 h -3.5625 v -2.29688 h 3.8125 q -0.28125,-1.59375 -0.71875,-2.71875 -0.4375,-1.14062 -0.95312,-1.89062 -0.51563,-0.76563 -1.07813,-1.20313 -0.5625,-0.4375 -1.07812,-0.65625 -0.53125,-0.21875 -0.98438,-0.28125 -0.46875,-0.0625 -0.76562,-0.0625 -0.96875,0 -1.54688,0.3125 -0.59375,0.29688 -0.90625,0.71875 -0.3125,0.42188 -0.40625,0.89063 -0.10937,0.45312 -0.10937,0.78125 0,0.125 0.0469,0.51562 0.0312,0.375 0.25,0.95313 0.20313,0.57812 0.64063,1.29687 0.4375,0.71875 1.23437,1.51563 h -2.65625 q -0.98437,-1.125 -1.46875,-2.32813 -0.5,-1.21875 -0.5,-2.35937 0,-0.95313 0.34375,-1.8125 0.34375,-0.85938 1.03125,-1.48438 0.6875,-0.64062 1.71875,-1.01562 1.03125,-0.375 2.39063,-0.375 1.875,0 3.23437,0.73437 1.35938,0.71875 2.28125,1.96875 0.9375,1.25 1.46875,2.9375 0.54688,1.67188 0.76563,3.5625 h 3.35937 z m 36.39063,0 h -13.20313 v 6.15625 l 0.0781,0.0312 q 0.79687,-1.09375 1.98437,-1.75 1.1875,-0.67188 2.60938,-0.67188 1.125,0 2.07812,0.46875 0.96875,0.45313 1.67188,1.26563 0.70312,0.79687 1.09375,1.89062 0.40625,1.09375 0.40625,2.35938 0,1.4375 -0.5,2.65625 -0.5,1.20312 -1.28125,2.1875 -0.78125,0.98437 -1.76563,1.75 -0.98437,0.75 -1.9375,1.28125 l -1.39062,-2.40625 q 0.3125,-0.17188 0.76562,-0.45313 0.45313,-0.28125 0.9375,-0.65625 0.5,-0.375 0.96875,-0.84375 0.48438,-0.48437 0.85938,-1.04687 0.39062,-0.5625 0.625,-1.21875 0.23437,-0.65625 0.23437,-1.39063 0,-0.67187 -0.21875,-1.28125 -0.20312,-0.60937 -0.57812,-1.0625 -0.375,-0.45312 -0.90625,-0.71875 -0.51563,-0.26562 -1.14063,-0.26562 -0.8125,0 -1.57812,0.42187 -0.76563,0.42188 -1.39063,1.0625 -0.625,0.625 -1.0625,1.34375 -0.42187,0.71875 -0.5625,1.32813 V 200 h -2.5625 v -5.98438 l -0.0625,-0.0312 q -0.23437,0.20313 -0.59375,0.5 -0.35937,0.28125 -0.875,0.54688 -0.5,0.26562 -1.17187,0.45312 -0.65625,0.1875 -1.48438,0.1875 -1.375,0 -2.54687,-0.53125 -1.15625,-0.53125 -2.01563,-1.4375 -0.84375,-0.92187 -1.32812,-2.15625 -0.48438,-1.23437 -0.48438,-2.64062 0,-1.34375 0.4375,-2.48438 0.45313,-1.14062 1.21875,-1.95312 0.78125,-0.82813 1.8125,-1.28125 1.04688,-0.46875 2.25,-0.46875 0.84375,0 1.5625,0.21875 0.73438,0.20312 1.32813,0.51562 0.60937,0.29688 1.07812,0.65625 0.48438,0.34375 0.8125,0.625 l 0.0625,-0.0156 V 179 h -12.95312 v -2.29688 H 328.625 Z m -20.23438,6.15625 q -0.89062,0 -1.57812,0.375 -0.67188,0.35937 -1.125,0.9375 -0.45313,0.5625 -0.6875,1.28125 -0.21875,0.70312 -0.21875,1.39062 0,0.75 0.26562,1.5 0.26563,0.73438 0.75,1.32813 0.5,0.59375 1.1875,0.96875 0.6875,0.35937 1.51563,0.35937 0.70312,0 1.46875,-0.28125 0.78125,-0.29687 1.42187,-0.90625 0.65625,-0.60937 1.07813,-1.54687 0.42187,-0.95313 0.42187,-2.26563 v -0.76562 q -0.375,-0.46875 -0.89062,-0.89063 -0.5,-0.4375 -1.09375,-0.76562 -0.57813,-0.32813 -1.21875,-0.51563 -0.64063,-0.20312 -1.29688,-0.20312 z M 344.26562,179 H 338.375 q 0.79687,1.375 1.28125,2.8125 0.5,1.42187 0.5,2.89062 0,1.10938 -0.34375,2.14063 -0.32813,1.01562 -0.98438,1.82812 -0.64062,0.79688 -1.60937,1.3125 -0.95313,0.5 -2.20313,0.5625 l -0.0312,0.0781 q 1.40625,2.1875 3.15625,4.14062 1.75,1.9375 4.04688,3.6875 l -1.67188,1.92188 q -1.32812,-0.98438 -2.53125,-2.125 -1.1875,-1.15625 -2.25,-2.375 -1.0625,-1.23438 -1.98437,-2.48438 -0.90625,-1.26562 -1.67188,-2.45312 -0.75,-1.20313 -1.34375,-2.29688 -0.59375,-1.10937 -1.01562,-2.01562 l 2.14062,-1.15625 q 0.5625,1.21875 1.26563,1.92187 0.71875,0.6875 1.65625,0.6875 0.67187,0 1.20312,-0.34375 0.53125,-0.34375 0.89063,-0.875 0.35937,-0.54687 0.54687,-1.1875 0.1875,-0.65625 0.1875,-1.28125 0,-0.73437 -0.1875,-1.4375 -0.1875,-0.71875 -0.48437,-1.39062 -0.29688,-0.6875 -0.67188,-1.32813 Q 335.90625,179.59375 335.5625,179 h -8.03125 v -2.29688 h 16.73437 z m 19.57813,0 h -3.28125 v 21 h -2.54688 v -13.71875 h -5.07812 q -1.04688,0 -1.89063,0.14062 -0.84375,0.125 -1.4375,0.53125 -0.59375,0.39063 -0.92187,1.10938 -0.3125,0.70312 -0.3125,1.85937 0,1.5 0.48437,2.76563 0.5,1.26562 1.26563,2.32812 0.76562,1.04688 1.6875,1.9375 0.9375,0.89063 1.79687,1.64063 l -1.5625,1.78125 q -0.14062,-0.0781 -0.67187,-0.45313 -0.51563,-0.39062 -1.21875,-1.04687 -0.6875,-0.65625 -1.46875,-1.59375 -0.76563,-0.9375 -1.42188,-2.10938 -0.64062,-1.1875 -1.07812,-2.60937 -0.42188,-1.42188 -0.42188,-3.0625 0,-1.625 0.45313,-2.6875 0.46875,-1.07813 1.3125,-1.70313 0.84375,-0.64062 2.04687,-0.89062 1.20313,-0.25 2.6875,-0.25 h 5.75 V 179 h -14.84375 v -2.29688 h 20.67188 z m -3.5,-1.85938 h -2.26563 l -1.42187,-2.67187 q -0.90625,-1.70313 -1.64063,-2.70313 -0.75,-1 -1.40625,-1.51562 -0.67187,-0.53125 -1.3125,-0.67188 -0.64062,-0.15625 -1.34375,-0.15625 h -3.03125 v -2.53125 h 2.85938 q 0.90625,0 1.64062,0.15625 0.73438,0.14063 1.40625,0.53125 0.65625,0.375 1.29688,1.0625 0.625,0.67188 1.34375,1.75 0.71875,1.0625 1.57812,2.5625 0.84375,1.48438 1.9375,3.51563 z M 392.04687,179 h -3.28125 v 21 h -2.57812 v -12.04688 h -7.3125 q 0,1.03125 -0.0312,1.76563 -0.0156,0.73437 -0.125,1.21875 -0.10938,0.46875 -0.32813,0.6875 -0.21875,0.21875 -0.60937,0.21875 -0.8125,0 -1.54688,-0.53125 -0.71875,-0.53125 -1.28125,-1.28125 -0.54687,-0.75 -0.875,-1.5625 -0.32812,-0.8125 -0.32812,-1.375 0,-0.5 0.21875,-0.78125 0.21875,-0.28125 0.57812,-0.42188 0.35938,-0.14062 0.8125,-0.17187 0.46875,-0.0312 0.9375,-0.0312 h 9.89063 V 179 h -14.67188 v -2.29688 h 20.53125 z m 8.3125,0 h -3.28125 v 21 h -2.5625 v -21 h -3.5625 v -2.29688 h 9.40625 z M 422,179 h -3.28125 v 21 H 416.125 v -6.57813 l -0.0625,-0.0469 q -0.85938,0.78125 -1.6875,1.23437 -0.8125,0.4375 -1.53125,0.67188 -0.70313,0.21875 -1.28125,0.28125 -0.57813,0.0625 -0.95313,0.0625 -1.4375,0 -2.54687,-0.45313 -1.10938,-0.45312 -1.85938,-1.1875 -0.75,-0.75 -1.14062,-1.70312 -0.39063,-0.96875 -0.39063,-2 0,-1.07813 0.4375,-2.14063 0.45313,-1.0625 1.40625,-1.90625 l -0.0156,-0.0625 h -4.95313 V 183.875 h 12.5625 v 2.29687 H 412.5 q -1.60938,0 -2.64063,0.42188 -1.03125,0.42187 -1.625,1.03125 -0.59375,0.60937 -0.82812,1.3125 -0.21875,0.6875 -0.21875,1.25 0,0.46875 0.15625,1.01562 0.15625,0.53125 0.51562,0.98438 0.375,0.45312 0.98438,0.75 0.625,0.29687 1.5625,0.29687 0.98437,0 1.82812,-0.3125 0.85938,-0.32812 1.57813,-0.84375 0.71875,-0.51562 1.29687,-1.15625 0.59375,-0.65625 1.01563,-1.29687 V 179 h -16.85938 v -2.29688 H 422 Z m 24.40625,0 h -5.89063 q 0.79688,1.375 1.28125,2.8125 0.5,1.42187 0.5,2.89062 0,1.10938 -0.34375,2.14063 -0.32812,1.01562 -0.98437,1.82812 -0.64063,0.79688 -1.60938,1.3125 -0.95312,0.5 -2.20312,0.5625 l -0.0312,0.0781 q 1.40625,2.1875 3.15625,4.14062 1.75,1.9375 4.04687,3.6875 l -1.67187,1.92188 q -1.32813,-0.98438 -2.53125,-2.125 -1.1875,-1.15625 -2.25,-2.375 -1.0625,-1.23438 -1.98438,-2.48438 -0.90625,-1.26562 -1.67187,-2.45312 -0.75,-1.20313 -1.34375,-2.29688 -0.59375,-1.10937 -1.01563,-2.01562 L 434,185.46875 q 0.5625,1.21875 1.26562,1.92187 0.71875,0.6875 1.65625,0.6875 0.67188,0 1.20313,-0.34375 0.53125,-0.34375 0.89062,-0.875 0.35938,-0.54687 0.54688,-1.1875 0.1875,-0.65625 0.1875,-1.28125 0,-0.73437 -0.1875,-1.4375 -0.1875,-0.71875 -0.48438,-1.39062 -0.29687,-0.6875 -0.67187,-1.32813 -0.35938,-0.64062 -0.70313,-1.23437 h -8.03125 v -2.29688 h 16.73438 z M 437,171.9375 q 0,-0.89063 0.53125,-1.4375 0.51562,-0.5625 1.35937,-0.5625 0.39063,0 0.75,0.15625 0.34375,0.15625 0.60938,0.4375 0.26562,0.26562 0.42187,0.64062 0.14063,0.35938 0.14063,0.79688 0,0.89062 -0.51563,1.4375 -0.53125,0.54687 -1.375,0.54687 -0.40625,0 -0.75,-0.14062 -0.35937,-0.15625 -0.60937,-0.42188 -0.26563,-0.28125 -0.40625,-0.64062 Q 437,172.375 437,171.9375 Z M 466.35937,179 h -3.28125 v 21 h -2.5625 v -21 h -7.04687 v 12.125 q 0,0.25 -0.0312,0.57812 -0.0312,0.32813 -0.15625,0.64063 -0.10938,0.29687 -0.32813,0.51562 -0.21875,0.20313 -0.60937,0.20313 -0.42188,0 -0.9375,-0.26563 -0.5,-0.28125 -1.03125,-0.71875 -0.53125,-0.45312 -1.03125,-1.01562 -0.48438,-0.5625 -0.875,-1.15625 -0.39063,-0.59375 -0.625,-1.15625 -0.23438,-0.5625 -0.23438,-1 0,-0.39063 0.1875,-0.625 0.20313,-0.23438 0.54688,-0.35938 0.35937,-0.125 0.85937,-0.15625 0.51563,-0.0312 1.125,-0.0312 H 450.875 V 179 h -5.5625 v -2.29688 h 21.04687 z m 8.3125,0 h -3.28125 v 21 h -2.5625 v -21 h -3.5625 v -2.29688 h 3.8125 q -0.28125,-1.59375 -0.71875,-2.71875 -0.4375,-1.14062 -0.95312,-1.89062 -0.51563,-0.76563 -1.07813,-1.20313 -0.5625,-0.4375 -1.07812,-0.65625 -0.53125,-0.21875 -0.98438,-0.28125 -0.46875,-0.0625 -0.76562,-0.0625 -0.96875,0 -1.54688,0.3125 -0.59375,0.29688 -0.90625,0.71875 -0.3125,0.42188 -0.40625,0.89063 -0.10937,0.45312 -0.10937,0.78125 0,0.125 0.0469,0.51562 0.0312,0.375 0.25,0.95313 0.20313,0.57812 0.64063,1.29687 0.4375,0.71875 1.23437,1.51563 h -2.65625 q -0.98437,-1.125 -1.46875,-2.32813 -0.5,-1.21875 -0.5,-2.35937 0,-0.95313 0.34375,-1.8125 0.34375,-0.85938 1.03125,-1.48438 0.6875,-0.64062 1.71875,-1.01562 1.03125,-0.375 2.39063,-0.375 1.875,0 3.23437,0.73437 1.35938,0.71875 2.28125,1.96875 0.9375,1.25 1.46875,2.9375 0.54688,1.67188 0.76563,3.5625 h 3.35937 z m 4.39063,17.4375 -2.5,7.6875 h -1.82813 l 1.82813,-7.6875 z"
         id="path6" />
      <path
         d="m 53.640625,236.1875 q 0.234375,0.73437 0.546875,1.60937 0.3125,0.85938 0.734375,1.75 0.4375,0.875 0.96875,1.70313 0.546875,0.82812 1.234375,1.46875 0.703125,0.64062 1.546875,1.03125 0.84375,0.375 1.875,0.375 1.015625,0 1.71875,-0.29688 0.703125,-0.29687 1.140625,-0.79687 0.4375,-0.5 0.625,-1.17188 0.203125,-0.67187 0.203125,-1.40625 0,-1.60937 -1.171875,-2.51562 -1.15625,-0.90625 -3.359375,-0.90625 -0.265625,0 -0.53125,0.0156 -0.265625,0.0156 -0.53125,0.0469 v -2.375 q 0.125,0.0156 0.21875,0.0156 0.109375,0 0.125,0 1.09375,0 1.9375,-0.26562 0.859375,-0.28125 1.4375,-0.75 0.578125,-0.46875 0.875,-1.09375 0.296875,-0.625 0.296875,-1.3125 0,-0.625 -0.21875,-1.10938 -0.21875,-0.48437 -0.59375,-0.8125 -0.375,-0.32812 -0.890625,-0.48437 -0.515625,-0.17188 -1.125,-0.17188 -0.421875,0 -0.8125,0.0625 -0.390625,0.0469 -0.828125,0.17188 -0.4375,0.10937 -0.9375,0.29687 -0.484375,0.1875 -1.109375,0.46875 L 56.125,227.59375 q 1.21875,-0.59375 2.34375,-0.89063 1.125,-0.3125 2.296875,-0.3125 1.125,0 2.078125,0.35938 0.96875,0.35937 1.65625,1 0.703125,0.625 1.09375,1.5 0.390625,0.875 0.390625,1.89062 0,2.79688 -2.671875,4.5 v 0.0625 q 1.046875,0.4375 1.75,1.07813 0.453125,0.0781 0.953125,0.125 0.515625,0.0469 0.9375,0.0469 0.4375,0 0.921875,-0.0625 0.484375,-0.0625 0.984375,-0.23437 0.515625,-0.17188 1.03125,-0.48438 0.53125,-0.3125 1.0625,-0.8125 v -8.65625 h 5.84375 V 229 h -3.28125 v 21 h -2.5625 v -11.875 l -0.0625,-0.0156 Q 70,238.70312 69.21875,238.89062 q -0.78125,0.1875 -1.609375,0.1875 -0.265625,0 -0.546875,-0.0156 -0.28125,-0.0312 -0.578125,-0.0625 l -0.01563,0.0625 q 0.25,0.64062 0.25,1.57812 0,1.26563 -0.421875,2.34375 -0.421875,1.07813 -1.21875,1.875 -0.78125,0.78125 -1.90625,1.21875 -1.109375,0.4375 -2.5,0.4375 -1.484375,0 -2.6875,-0.51562 -1.1875,-0.53125 -2.15625,-1.35938 Q 54.875,243.8125 54.15625,242.78125 53.4375,241.73437 52.921875,240.6875 52.40625,239.64062 52.078125,238.70312 51.75,237.75 51.59375,237.125 Z M 85.109375,229 h -3.28125 v 21 h -2.5625 v -21 h -3.5625 v -2.29688 h 9.40625 z m 19.437505,0 h -3.28125 v 21 H 98.6875 V 237.95312 H 91.375 q 0,1.03125 -0.03125,1.76563 -0.01563,0.73437 -0.125,1.21875 -0.109375,0.46875 -0.328125,0.6875 -0.21875,0.21875 -0.609375,0.21875 -0.8125,0 -1.546875,-0.53125 -0.71875,-0.53125 -1.28125,-1.28125 -0.546875,-0.75 -0.875,-1.5625 -0.328125,-0.8125 -0.328125,-1.375 0,-0.5 0.21875,-0.78125 0.21875,-0.28125 0.578125,-0.42188 0.359375,-0.14062 0.8125,-0.17187 0.46875,-0.0312 0.9375,-0.0312 H 98.6875 V 229 H 84.015625 v -2.29688 h 20.531255 z m -6.48438,-7.0625 q 0,-0.89063 0.53125,-1.4375 0.515625,-0.5625 1.359375,-0.5625 0.390625,0 0.750005,0.15625 0.34375,0.15625 0.60937,0.4375 0.26563,0.26562 0.42188,0.64062 0.14062,0.35938 0.14062,0.79688 0,0.89062 -0.51562,1.4375 -0.53125,0.54687 -1.375005,0.54687 -0.40625,0 -0.75,-0.14062 Q 98.875,223.65625 98.625,223.39062 98.359375,223.10937 98.21875,222.75 98.0625,222.375 98.0625,221.9375 Z M 124.46875,229 h -5.29687 v 6.85937 h -5.26563 q -2.45312,0 -3.70312,1.21875 -1.25,1.20313 -1.25,3.46875 0,1.28125 0.40625,2.26563 0.42187,0.98437 1.14062,1.65625 0.73438,0.65625 1.73438,1 1,0.34375 2.17187,0.34375 1.23438,0 1.98438,-0.375 -0.0625,-0.39063 -0.0937,-0.6875 -0.0312,-0.29688 -0.0312,-0.59375 0,-0.65625 0.15625,-1.34375 0.17187,-0.70313 0.5,-1.26563 0.34375,-0.57812 0.85937,-0.9375 0.53125,-0.35937 1.26563,-0.35937 0.45312,0 0.85937,0.15625 0.40625,0.15625 0.70313,0.48437 0.3125,0.3125 0.48437,0.79688 0.1875,0.48437 0.1875,1.125 0,0.64062 -0.17187,1.1875 -0.17188,0.53125 -0.45313,1 -0.26562,0.45312 -0.60937,0.85937 -0.34375,0.39063 -0.67188,0.71875 0.34375,0.75 0.71875,1.34375 0.39063,0.59375 0.79688,1.0625 0.42187,0.46875 0.84375,0.84375 0.42187,0.375 0.84375,0.70313 l -1.92188,2.01562 q -0.82812,-0.73437 -1.42187,-1.46875 -0.57813,-0.71875 -0.98438,-1.35937 -0.39062,-0.64063 -0.64062,-1.15625 -0.25,-0.51563 -0.40625,-0.82813 -1.07813,0.42188 -2.65625,0.42188 -2.03125,0 -3.54688,-0.65625 -1.51562,-0.67188 -2.53125,-1.78125 -1,-1.125 -1.5,-2.5625 -0.5,-1.4375 -0.5,-2.98438 0,-1.60937 0.51563,-2.82812 0.51562,-1.23438 1.4375,-2.0625 0.92187,-0.84375 2.1875,-1.26563 1.28125,-0.4375 2.79687,-0.4375 h 3.20313 V 229 h -13.15625 v -2.29688 h 21.01562 z m 8.3125,0 H 129.5 v 21 h -2.5625 v -21 h -3.5625 v -2.29688 h 9.40625 z m 21.64062,0 h -3.28125 v 21 h -2.59375 v -6.57813 l -0.0625,-0.0469 q -0.85937,0.78125 -1.6875,1.23437 -0.8125,0.4375 -1.53125,0.67188 -0.70312,0.21875 -1.28125,0.28125 -0.57812,0.0625 -0.95312,0.0625 -1.4375,0 -2.54688,-0.45313 -1.10937,-0.45312 -1.85937,-1.1875 -0.75,-0.75 -1.14063,-1.70312 -0.39062,-0.96875 -0.39062,-2 0,-1.07813 0.4375,-2.14063 0.45312,-1.0625 1.40625,-1.90625 l -0.0156,-0.0625 h -4.95312 V 233.875 h 12.5625 v 2.29687 h -1.60938 q -1.60937,0 -2.64062,0.42188 -1.03125,0.42187 -1.625,1.03125 -0.59375,0.60937 -0.82813,1.3125 -0.21875,0.6875 -0.21875,1.25 0,0.46875 0.15625,1.01562 0.15625,0.53125 0.51563,0.98438 0.375,0.45312 0.98437,0.75 0.625,0.29687 1.5625,0.29687 0.98438,0 1.82813,-0.3125 0.85937,-0.32812 1.57812,-0.84375 0.71875,-0.51562 1.29688,-1.15625 0.59375,-0.65625 1.01562,-1.29687 V 229 H 131.6875 v -2.29688 h 22.73437 z m 8.3125,0 h -3.28125 v 21 h -2.5625 v -21 h -3.5625 v -2.29688 h 9.40625 z m 31.8125,-2.29688 V 229 h -3.28125 v 21 h -2.59375 V 239.5 H 179.625 q -0.82813,0.54687 -1.98438,0.65625 l -0.0312,0.0781 q 1.51563,2.375 3.32813,4.42188 1.8125,2.04687 4.125,3.79687 l -1.67188,1.92188 q -1.32812,-0.98438 -2.53125,-2.125 -1.1875,-1.14063 -2.25,-2.35938 -1.04687,-1.23437 -1.96875,-2.48437 -0.92187,-1.26563 -1.6875,-2.48438 -0.76562,-1.21875 -1.375,-2.34375 -0.60937,-1.14062 -1.0625,-2.10937 l 2.14063,-1.15625 q 0.29687,0.6875 0.57812,1.15625 0.29688,0.45312 0.59375,0.73437 0.29688,0.26563 0.625,0.39063 0.32813,0.10937 0.70313,0.10937 1.07812,0 1.57812,-0.84375 0.51563,-0.84375 0.51563,-2.21875 0,-0.8125 -0.15625,-1.59375 -0.15625,-0.79687 -0.40625,-1.51562 -0.23438,-0.73438 -0.51563,-1.375 -0.28125,-0.64063 -0.53125,-1.15625 h -7.23437 v -2.29688 z M 188.67187,229 h -8.32812 q 0.65625,1.42187 1.03125,2.85937 0.375,1.4375 0.375,2.85938 0,0.65625 -0.10938,1.29687 -0.0937,0.625 -0.32812,1.1875 l 0.0312,0.0312 h 7.32812 z m 14.1875,0 h -3.28125 v 21 h -2.5625 v -21 h -3.5625 v -2.29688 h 9.40625 z m 19.95313,0 h -3.28125 v 21 h -2.5625 v -21 h -7.04688 v 12.125 q 0,0.25 -0.0312,0.57812 -0.0312,0.32813 -0.15625,0.64063 -0.10937,0.29687 -0.32812,0.51562 -0.21875,0.20313 -0.60938,0.20313 -0.42187,0 -0.9375,-0.26563 -0.5,-0.28125 -1.03125,-0.71875 -0.53125,-0.45312 -1.03125,-1.01562 -0.48437,-0.5625 -0.875,-1.15625 -0.39062,-0.59375 -0.625,-1.15625 -0.23437,-0.5625 -0.23437,-1 0,-0.39063 0.1875,-0.625 0.20312,-0.23438 0.54687,-0.35938 0.35938,-0.125 0.85938,-0.15625 0.51562,-0.0312 1.125,-0.0312 h 0.54687 V 229 h -5.5625 v -2.29688 h 21.04688 z m 15.64062,0 h -5.89062 q 0.79687,1.375 1.28125,2.8125 0.5,1.42187 0.5,2.89062 0,1.10938 -0.34375,2.14063 -0.32813,1.01562 -0.98438,1.82812 -0.64062,0.79688 -1.60937,1.3125 -0.95313,0.5 -2.20313,0.5625 l -0.0312,0.0781 q 1.40625,2.1875 3.15625,4.14062 1.75,1.9375 4.04688,3.6875 l -1.67188,1.92188 q -1.32812,-0.98438 -2.53125,-2.125 -1.1875,-1.15625 -2.25,-2.375 -1.0625,-1.23438 -1.98437,-2.48438 -0.90625,-1.26562 -1.67188,-2.45312 -0.75,-1.20313 -1.34375,-2.29688 -0.59375,-1.10937 -1.01562,-2.01562 l 2.14062,-1.15625 q 0.5625,1.21875 1.26563,1.92187 0.71875,0.6875 1.65625,0.6875 0.67187,0 1.20312,-0.34375 0.53125,-0.34375 0.89063,-0.875 0.35937,-0.54687 0.54687,-1.1875 0.1875,-0.65625 0.1875,-1.28125 0,-0.73437 -0.1875,-1.4375 -0.1875,-0.71875 -0.48437,-1.39062 -0.29688,-0.6875 -0.67188,-1.32813 Q 230.09375,229.59375 229.75,229 h -8.03125 v -2.29688 h 16.73437 z m 4.39063,17.4375 -2.5,7.6875 h -1.82813 l 1.82813,-7.6875 z M 262.46875,229 h -3.28125 v 21 h -2.5625 v -21 h -3.5625 v -2.29688 h 3.5625 q -0.85938,-2.0625 -0.85938,-3.84375 0,-1.14062 0.375,-2.125 0.375,-0.98437 1.14063,-1.70312 0.78125,-0.71875 1.98437,-1.125 1.20313,-0.40625 2.85938,-0.40625 2.17187,0 4.17187,0.70312 2.01563,0.70313 3.9375,1.95313 1.92188,1.25 3.79688,2.96875 1.89062,1.71875 3.8125,3.75 H 275.125 q -0.4375,-0.42188 -1.17188,-1.09375 -0.71875,-0.6875 -1.67187,-1.45313 -0.95313,-0.78125 -2.10938,-1.5625 -1.15625,-0.79687 -2.4375,-1.4375 -1.28125,-0.64062 -2.67187,-1.03125 -1.375,-0.40625 -2.78125,-0.40625 -1.14063,0 -1.92188,0.26563 -0.76562,0.26562 -1.25,0.73437 -0.46875,0.46875 -0.67187,1.10938 -0.20313,0.625 -0.20313,1.34375 0,1.40625 0.76563,3.35937 h 3.46875 z m 19.57812,0 h -3.28125 v 21 h -2.54687 v -13.71875 h -5.07813 q -1.04687,0 -1.89062,0.14062 -0.84375,0.125 -1.4375,0.53125 -0.59375,0.39063 -0.92188,1.10938 -0.3125,0.70312 -0.3125,1.85937 0,1.5 0.48438,2.76563 0.5,1.26562 1.26562,2.32812 0.76563,1.04688 1.6875,1.9375 0.9375,0.89063 1.79688,1.64063 L 270.25,250.375 q -0.14063,-0.0781 -0.67188,-0.45313 -0.51562,-0.39062 -1.21875,-1.04687 -0.6875,-0.65625 -1.46875,-1.59375 -0.76562,-0.9375 -1.42187,-2.10938 -0.64063,-1.1875 -1.07813,-2.60937 -0.42187,-1.42188 -0.42187,-3.0625 0,-1.625 0.45312,-2.6875 0.46875,-1.07813 1.3125,-1.70313 0.84375,-0.64062 2.04688,-0.89062 1.20312,-0.25 2.6875,-0.25 h 5.75 V 229 H 261.375 v -2.29688 h 20.67187 z m 12.98438,0 h -14.07813 v -2.29688 h 14.07813 z m 3.75,13.45312 q -1.09375,1.125 -2.10938,1.76563 -1,0.64062 -1.85937,0.95312 -0.84375,0.3125 -1.5,0.39063 -0.64063,0.0625 -1.01563,0.0625 -1.4375,0 -2.54687,-0.45313 -1.10938,-0.45312 -1.85938,-1.1875 -0.75,-0.75 -1.14062,-1.70312 -0.39063,-0.96875 -0.39063,-2 0,-1.07813 0.4375,-2.14063 0.45313,-1.0625 1.40625,-1.90625 l -0.0156,-0.0625 h -4.95313 V 233.875 h 12.25 v 2.29687 h -1.29687 q -1.60938,0 -2.64063,0.42188 -1.03125,0.42187 -1.625,1.03125 -0.59375,0.60937 -0.82812,1.3125 -0.21875,0.6875 -0.21875,1.25 0,0.46875 0.15625,1.01562 0.15625,0.53125 0.51562,0.98438 0.375,0.45312 0.98438,0.75 0.625,0.29687 1.5625,0.29687 0.98437,0 1.82812,-0.3125 0.85938,-0.32812 1.57813,-0.82812 0.71875,-0.5 1.29687,-1.10938 0.59375,-0.60937 1.01563,-1.20312 z M 315.25,229 h -3.28125 v 21 h -2.5625 v -7.3125 l -0.0625,-0.0156 q -0.42188,0.34375 -1.01563,0.6875 -0.57812,0.32813 -1.29687,0.59375 -0.71875,0.25 -1.54688,0.42188 -0.82812,0.15625 -1.73437,0.15625 -1.8125,0 -3.10938,-0.65625 -1.28125,-0.65625 -2.15625,-1.75 -0.85937,-1.10938 -1.35937,-2.51563 -0.5,-1.42187 -0.71875,-2.95312 1.03125,-0.14063 1.76562,-0.48438 0.73438,-0.34375 1.1875,-0.8125 0.45313,-0.48437 0.65625,-1.04687 0.21875,-0.5625 0.21875,-1.125 0,-0.375 -0.0781,-0.84375 -0.0625,-0.46875 -0.23438,-1 -0.17187,-0.54688 -0.45312,-1.14063 Q 299.1875,229.60937 298.76562,229 H 294.25 v -2.29688 h 21 z m -13.71875,0 q 0.5625,0.95312 0.875,2.09375 0.32812,1.125 0.32812,2.21875 0,0.79687 -0.21875,1.54687 -0.20312,0.75 -0.64062,1.40625 -0.4375,0.64063 -1.09375,1.15625 -0.64063,0.5 -1.5,0.79688 0.25,1.04687 0.6875,1.79687 0.4375,0.73438 1.03125,1.21875 0.59375,0.46875 1.32812,0.6875 0.73438,0.21875 1.57813,0.21875 0.8125,0 1.59375,-0.1875 0.79687,-0.1875 1.5,-0.53125 0.71875,-0.35937 1.32812,-0.85937 0.60938,-0.5 1.07813,-1.125 V 229 Z m 22.03125,0 h -3.28125 v 21 h -2.5625 v -21 h -3.5625 v -2.29688 h 9.40625 z m 26.03125,12.21875 q 0,0.67187 -0.29688,1.125 -0.28125,0.45312 -0.75,0.78125 -0.46875,0.3125 -1.0625,0.53125 -0.57812,0.20312 -1.15625,0.39062 -0.64062,0.20313 -1.17187,0.39063 -0.53125,0.1875 -0.90625,0.45312 -0.375,0.25 -0.59375,0.60938 -0.20313,0.35937 -0.20313,0.89062 0,0.9375 0.8125,1.46875 0.8125,0.51563 2.28125,0.51563 0.70313,0 1.39063,-0.125 0.6875,-0.125 1.45312,-0.375 l 0.54688,2.25 q -0.79688,0.28125 -1.57813,0.4375 -0.78125,0.15625 -1.64062,0.15625 -1.20313,0 -2.23438,-0.32813 -1.03125,-0.3125 -1.78125,-0.89062 -0.75,-0.57813 -1.17187,-1.375 -0.42188,-0.79688 -0.42188,-1.75 0,-1.01563 0.32813,-1.70313 0.34375,-0.6875 0.89062,-1.14062 0.54688,-0.46875 1.23438,-0.76563 0.70312,-0.29687 1.4375,-0.53125 0.48437,-0.15625 0.875,-0.26562 0.39062,-0.125 0.67187,-0.23438 0.28125,-0.10937 0.42188,-0.23437 0.15625,-0.125 0.15625,-0.3125 0,-0.21875 -0.29688,-0.46875 -0.28125,-0.25 -0.82812,-0.45313 -0.53125,-0.20312 -1.32813,-0.32812 -0.79687,-0.14063 -1.79687,-0.14063 -0.95313,0 -1.96875,0.17188 -1,0.17187 -1.82813,0.65625 -0.8125,0.48437 -1.34375,1.375 -0.53125,0.89062 -0.53125,2.3125 0,1.40625 0.51563,2.625 0.51562,1.21875 1.34375,2.23437 0.82812,1.01563 1.84375,1.84375 1.03125,0.82813 2.04687,1.45313 1.01563,0.625 1.90625,1.0625 0.90625,0.4375 1.46875,0.67187 l -1.03125,2.15625 q -1.21875,-0.54687 -2.48437,-1.20312 -1.25,-0.65625 -2.42188,-1.46875 -1.17187,-0.79688 -2.20312,-1.76563 -1.03125,-0.96875 -1.8125,-2.10937 -0.76563,-1.15625 -1.21875,-2.5 -0.4375,-1.35938 -0.4375,-2.9375 0,-1.5 0.35937,-2.5625 0.375,-1.07813 1.03125,-1.84375 -0.9375,-1.03125 -1.34375,-2.03125 -0.39062,-1.01563 -0.39062,-2.1875 0,-0.67188 0.15625,-1.26563 0.17187,-0.59375 0.59375,-1.03125 0.4375,-0.45312 1.20312,-0.71875 0.76563,-0.26562 1.98438,-0.26562 h 8.09375 V 229 h -15.17188 v -2.29688 H 352.6875 V 229 h -3.71875 v 5.75 h -10 q -0.625,0 -1.04688,0.10937 -0.40625,0.0937 -0.65625,0.3125 -0.23437,0.20313 -0.34375,0.51563 -0.0937,0.29687 -0.0937,0.71875 0,0.53125 0.1875,1.04687 0.1875,0.5 0.70313,1.15625 0.64062,-0.375 1.32812,-0.59375 0.70313,-0.23437 1.375,-0.35937 0.6875,-0.14063 1.3125,-0.17188 0.625,-0.0469 1.14063,-0.0469 1.42187,0 2.64062,0.26562 1.23438,0.25 2.14063,0.73438 0.90625,0.48437 1.42187,1.1875 0.51563,0.70312 0.51563,1.59375 z M 372.60937,229 h -5.29687 v 6.85937 h -5.26563 q -2.45312,0 -3.70312,1.21875 -1.25,1.20313 -1.25,3.46875 0,1.28125 0.40625,2.26563 0.42187,0.98437 1.14062,1.65625 0.73438,0.65625 1.73438,1 1,0.34375 2.17187,0.34375 1.23438,0 1.98438,-0.375 -0.0625,-0.39063 -0.0937,-0.6875 -0.0312,-0.29688 -0.0312,-0.59375 0,-0.65625 0.15625,-1.34375 0.17187,-0.70313 0.5,-1.26563 0.34375,-0.57812 0.85937,-0.9375 0.53125,-0.35937 1.26563,-0.35937 0.45312,0 0.85937,0.15625 0.40625,0.15625 0.70313,0.48437 0.3125,0.3125 0.48437,0.79688 0.1875,0.48437 0.1875,1.125 0,0.64062 -0.17187,1.1875 -0.17188,0.53125 -0.45313,1 -0.26562,0.45312 -0.60937,0.85937 -0.34375,0.39063 -0.67188,0.71875 0.34375,0.75 0.71875,1.34375 0.39063,0.59375 0.79688,1.0625 0.42187,0.46875 0.84375,0.84375 0.42187,0.375 0.84375,0.70313 l -1.92188,2.01562 q -0.82812,-0.73437 -1.42187,-1.46875 -0.57813,-0.71875 -0.98438,-1.35937 Q 366,249.07812 365.75,248.5625 q -0.25,-0.51563 -0.40625,-0.82813 -1.07813,0.42188 -2.65625,0.42188 -2.03125,0 -3.54688,-0.65625 -1.51562,-0.67188 -2.53125,-1.78125 -1,-1.125 -1.5,-2.5625 -0.5,-1.4375 -0.5,-2.98438 0,-1.60937 0.51563,-2.82812 0.51562,-1.23438 1.4375,-2.0625 0.92187,-0.84375 2.1875,-1.26563 1.28125,-0.4375 2.79687,-0.4375 H 364.75 V 229 h -13.15625 v -2.29688 h 21.01562 z m 19.90625,0 h -3.28125 v 21 h -2.5625 v -7.3125 l -0.0625,-0.0156 q -0.42187,0.34375 -1.01562,0.6875 -0.57813,0.32813 -1.29688,0.59375 -0.71875,0.25 -1.54687,0.42188 -0.82813,0.15625 -1.73438,0.15625 -1.8125,0 -3.10937,-0.65625 -1.28125,-0.65625 -2.15625,-1.75 -0.85938,-1.10938 -1.35938,-2.51563 -0.5,-1.42187 -0.71875,-2.95312 1.03125,-0.14063 1.76563,-0.48438 0.73437,-0.34375 1.1875,-0.8125 0.45312,-0.48437 0.65625,-1.04687 0.21875,-0.5625 0.21875,-1.125 0,-0.375 -0.0781,-0.84375 -0.0625,-0.46875 -0.23437,-1 -0.17188,-0.54688 -0.45313,-1.14063 -0.28125,-0.59375 -0.70312,-1.20312 h -4.51563 v -2.29688 h 21 z m -13.71875,0 q 0.5625,0.95312 0.875,2.09375 0.32813,1.125 0.32813,2.21875 0,0.79687 -0.21875,1.54687 -0.20313,0.75 -0.64063,1.40625 -0.4375,0.64063 -1.09375,1.15625 -0.64062,0.5 -1.5,0.79688 0.25,1.04687 0.6875,1.79687 0.4375,0.73438 1.03125,1.21875 0.59375,0.46875 1.32813,0.6875 0.73437,0.21875 1.57812,0.21875 0.8125,0 1.59375,-0.1875 0.79688,-0.1875 1.5,-0.53125 0.71875,-0.35937 1.32813,-0.85937 0.60937,-0.5 1.07812,-1.125 V 229 Z m 22.03125,0 h -3.28125 v 21 h -2.5625 v -21 h -3.5625 v -2.29688 h 9.40625 z m 19.57813,0 H 417.125 v 21 h -2.54688 V 236.28125 H 409.5 q -1.04688,0 -1.89063,0.14062 -0.84375,0.125 -1.4375,0.53125 -0.59375,0.39063 -0.92187,1.10938 -0.3125,0.70312 -0.3125,1.85937 0,1.5 0.48437,2.76563 0.5,1.26562 1.26563,2.32812 0.76562,1.04688 1.6875,1.9375 0.9375,0.89063 1.79687,1.64063 l -1.5625,1.78125 q -0.14062,-0.0781 -0.67187,-0.45313 -0.51563,-0.39062 -1.21875,-1.04687 -0.6875,-0.65625 -1.46875,-1.59375 -0.76563,-0.9375 -1.42188,-2.10938 -0.64062,-1.1875 -1.07812,-2.60937 -0.42188,-1.42188 -0.42188,-3.0625 0,-1.625 0.45313,-2.6875 0.46875,-1.07813 1.3125,-1.70313 0.84375,-0.64062 2.04687,-0.89062 1.20313,-0.25 2.6875,-0.25 h 5.75 V 229 h -14.84375 v -2.29688 h 20.67188 z m 24.40625,0 h -5.89063 q 0.79688,1.375 1.28125,2.8125 0.5,1.42187 0.5,2.89062 0,1.10938 -0.34375,2.14063 -0.32812,1.01562 -0.98437,1.82812 -0.64063,0.79688 -1.60938,1.3125 -0.95312,0.5 -2.20312,0.5625 l -0.0312,0.0781 q 1.40625,2.1875 3.15625,4.14062 1.75,1.9375 4.04687,3.6875 l -1.67187,1.92188 q -1.32813,-0.98438 -2.53125,-2.125 -1.1875,-1.15625 -2.25,-2.375 -1.0625,-1.23438 -1.98438,-2.48438 -0.90625,-1.26562 -1.67187,-2.45312 -0.75,-1.20313 -1.34375,-2.29688 -0.59375,-1.10937 -1.01563,-2.01562 l 2.14063,-1.15625 q 0.5625,1.21875 1.26562,1.92187 0.71875,0.6875 1.65625,0.6875 0.67188,0 1.20313,-0.34375 0.53125,-0.34375 0.89062,-0.875 0.35938,-0.54687 0.54688,-1.1875 0.1875,-0.65625 0.1875,-1.28125 0,-0.73437 -0.1875,-1.4375 -0.1875,-0.71875 -0.48438,-1.39062 -0.29687,-0.6875 -0.67187,-1.32813 -0.35938,-0.64062 -0.70313,-1.23437 h -8.03125 v -2.29688 h 16.73438 z m 8.3125,0 h -3.28125 v 21 h -2.5625 v -21 h -3.5625 v -2.29688 h 9.40625 z m -6.79688,-7.0625 q 0,-0.89063 0.53125,-1.4375 0.51563,-0.5625 1.35938,-0.5625 0.39062,0 0.75,0.15625 0.34375,0.15625 0.60937,0.4375 0.26563,0.26562 0.42188,0.64062 0.14062,0.35938 0.14062,0.79688 0,0.89062 -0.51562,1.4375 -0.53125,0.54687 -1.375,0.54687 -0.40625,0 -0.75,-0.14062 -0.35938,-0.15625 -0.60938,-0.42188 -0.26562,-0.28125 -0.40625,-0.64062 -0.15625,-0.375 -0.15625,-0.8125 z m 26.75,7.0625 h -3.28125 v 21 h -2.5625 v -21 h -7.04687 v 12.125 q 0,0.25 -0.0312,0.57812 -0.0312,0.32813 -0.15625,0.64063 -0.10938,0.29687 -0.32813,0.51562 -0.21875,0.20313 -0.60937,0.20313 -0.42188,0 -0.9375,-0.26563 -0.5,-0.28125 -1.03125,-0.71875 -0.53125,-0.45312 -1.03125,-1.01562 -0.48438,-0.5625 -0.875,-1.15625 -0.39063,-0.59375 -0.625,-1.15625 -0.23438,-0.5625 -0.23438,-1 0,-0.39063 0.1875,-0.625 0.20313,-0.23438 0.54688,-0.35938 0.35937,-0.125 0.85937,-0.15625 0.51563,-0.0312 1.125,-0.0312 h 0.54688 V 229 h -5.5625 v -2.29688 h 21.04687 z m 8.3125,0 h -3.28125 v 21 h -2.5625 v -21 h -3.5625 v -2.29688 h 3.8125 q -0.28125,-1.59375 -0.71875,-2.71875 -0.4375,-1.14062 -0.95312,-1.89062 -0.51563,-0.76563 -1.07813,-1.20313 -0.5625,-0.4375 -1.07812,-0.65625 -0.53125,-0.21875 -0.98438,-0.28125 -0.46875,-0.0625 -0.76562,-0.0625 -0.96875,0 -1.54688,0.3125 -0.59375,0.29688 -0.90625,0.71875 -0.3125,0.42188 -0.40625,0.89063 -0.10937,0.45312 -0.10937,0.78125 0,0.125 0.0469,0.51562 0.0312,0.375 0.25,0.95313 0.20313,0.57812 0.64063,1.29687 0.4375,0.71875 1.23437,1.51563 h -2.65625 q -0.98437,-1.125 -1.46875,-2.32813 -0.5,-1.21875 -0.5,-2.35937 0,-0.95313 0.34375,-1.8125 0.34375,-0.85938 1.03125,-1.48438 0.6875,-0.64062 1.71875,-1.01562 1.03125,-0.375 2.39063,-0.375 1.875,0 3.23437,0.73437 1.35938,0.71875 2.28125,1.96875 0.9375,1.25 1.46875,2.9375 0.54688,1.67188 0.76563,3.5625 h 3.35937 z m 2.9375,21.34375 q -0.71875,0 -1.23437,-0.51563 -0.5,-0.51562 -0.5,-1.23437 0,-0.71875 0.5,-1.23438 0.51562,-0.53125 1.23437,-0.53125 0.73438,0 1.25,0.53125 0.51563,0.51563 0.51563,1.23438 0,0.71875 -0.51563,1.23437 -0.51562,0.51563 -1.25,0.51563 z"
         id="path7" />
    </g>
  </g>
</svg>
