<?xml version="1.0" encoding="UTF-8" standalone="no"?>
<svg
   width="800"
   height="600"
   version="1.1"
   id="svg4"
   sodipodi:docname="rupa_marathi.svg"
   xmlns:inkscape="http://www.inkscape.org/namespaces/inkscape"
   xmlns:sodipodi="http://sodipodi.sourceforge.net/DTD/sodipodi-0.dtd"
   xmlns="http://www.w3.org/2000/svg"
   xmlns:svg="http://www.w3.org/2000/svg">
  <sodipodi:namedview
     id="namedview4"
     pagecolor="#ffffff"
     bordercolor="#666666"
     borderopacity="1.0"
     inkscape:showpageshadow="2"
     inkscape:pageopacity="0.0"
     inkscape:pagecheckerboard="0"
     inkscape:deskcolor="#d1d1d1" />
  <defs
     id="defs1">
    <style
       type="text/css"
       id="style1">
      @font-face {{
        font-family: 'Kalam';
        src: url('AxiDraw_API(1)/Kalam-Regular.ttf');
      }}
    </style>
  </defs>
  <g
     id="g4">
    <g
       id="text4"
       style="font-size:32px;font-family:Kalam"
       aria-label="रुपा रंगीबेरंगी, मनाला भुरळ घालणारी,मराठी माझी भाषा, प्रेमाची ज्योत पेटवणारी.रुपाचे आकर्षण, मराठीचे गोड गाणे,दोन्ही एकत्रित, मन मोहक, सुंदर आणि अद्भुत माणे.">
      <path
         d="m 72.234375,79 h -11.9375 q 0.75,1.328125 1.25,2.71875 0.5,1.390625 0.5,2.765625 v 0.21875 l 0.04687,0.01563 Q 62.75,84.3125 63.40625,84.125 q 0.65625,-0.1875 1.3125,-0.1875 0.9375,0 1.796875,0.375 0.875,0.359375 1.546875,1.03125 0.671875,0.671875 1.0625,1.640625 0.40625,0.96875 0.40625,2.15625 0,1.78125 -0.90625,3.21875 -0.90625,1.4375 -2.515625,2.5625 L 64.34375,92.953125 Q 65,92.46875 65.484375,92.046875 q 0.484375,-0.4375 0.8125,-0.890625 0.328125,-0.453125 0.484375,-0.953125 0.15625,-0.5 0.15625,-1.109375 0,-0.546875 -0.171875,-1.015625 -0.171875,-0.484375 -0.5,-0.84375 -0.3125,-0.359375 -0.78125,-0.5625 -0.453125,-0.203125 -1.015625,-0.203125 -0.609375,0 -1.15625,0.21875 -0.53125,0.21875 -1,0.546875 -0.453125,0.3125 -0.828125,0.6875 -0.375,0.359375 -0.65625,0.65625 -0.3125,0.328125 -0.671875,0.671875 -0.34375,0.328125 -0.796875,0.59375 -0.453125,0.265625 -1.046875,0.453125 -0.59375,0.1875 -1.390625,0.234375 l -0.03125,0.07813 q 1.421875,2.203125 3.15625,4.15625 1.75,1.9375 4.0625,3.6875 L 62.4375,100.375 q -1.328125,-0.984375 -2.53125,-2.125 -1.1875,-1.15625 -2.25,-2.375 -1.0625,-1.234375 -1.984375,-2.484375 Q 54.765625,92.125 54,90.921875 53.25,89.71875 52.65625,88.625 q -0.59375,-1.09375 -1.015625,-2 l 2.140625,-1.15625 q 0.5625,1.21875 1.265625,1.921875 0.71875,0.6875 1.65625,0.6875 0.671875,0 1.203125,-0.328125 0.53125,-0.34375 0.890625,-0.875 0.359375,-0.546875 0.546875,-1.21875 0.1875,-0.671875 0.1875,-1.328125 0,-0.734375 -0.21875,-1.484375 -0.203125,-0.75 -0.53125,-1.4375 -0.3125,-0.703125 -0.671875,-1.3125 -0.34375,-0.625 -0.625,-1.09375 h -8.03125 v -2.296875 h 22.78125 z M 91.5,79 h -3.28125 v 21 h -2.578125 v -7.46875 l -0.0625,-0.01563 q -1.046875,0.9375 -2.34375,1.34375 Q 81.9375,94.25 80.671875,94.25 q -1.34375,0 -2.453125,-0.390625 -1.109375,-0.390625 -1.90625,-1.1875 -0.796875,-0.8125 -1.25,-2.03125 Q 74.625,89.40625 74.625,87.71875 V 79 H 71.140625 V 76.703125 H 91.5 Z m -5.859375,0 H 77.15625 v 8.578125 q 0,0.984375 0.15625,1.765625 0.171875,0.78125 0.5625,1.328125 0.40625,0.546875 1.0625,0.84375 0.65625,0.28125 1.640625,0.28125 1.609375,0 2.90625,-0.75 1.296875,-0.765625 2.15625,-2 z M 99.8125,79 h -3.28125 v 21 h -2.5625 V 79 h -3.5625 v -2.296875 h 9.40625 z m 24.40625,0 h -5.89062 q 0.79687,1.375 1.28125,2.8125 0.5,1.421875 0.5,2.890625 0,1.109375 -0.34375,2.140625 -0.32813,1.015625 -0.98438,1.828125 -0.64062,0.796875 -1.60937,1.3125 -0.95313,0.5 -2.20313,0.5625 l -0.0312,0.07813 q 1.40625,2.1875 3.15625,4.140625 1.75,1.9375 4.04688,3.6875 l -1.67188,1.921875 q -1.32812,-0.984375 -2.53125,-2.125 -1.1875,-1.15625 -2.25,-2.375 -1.0625,-1.234375 -1.98437,-2.484375 -0.90625,-1.265625 -1.67188,-2.453125 -0.75,-1.203125 -1.34375,-2.296875 -0.59375,-1.109375 -1.01562,-2.015625 l 2.14062,-1.15625 q 0.5625,1.21875 1.26563,1.921875 0.71875,0.6875 1.65625,0.6875 0.67187,0 1.20312,-0.34375 0.53125,-0.34375 0.89063,-0.875 0.35937,-0.546875 0.54687,-1.1875 0.1875,-0.65625 0.1875,-1.28125 0,-0.734375 -0.1875,-1.4375 -0.1875,-0.71875 -0.48437,-1.390625 -0.29688,-0.6875 -0.67188,-1.328125 Q 115.85938,79.59375 115.51563,79 h -8.03125 v -2.296875 h 16.73437 z m -9.40625,-7.0625 q 0,-0.890625 0.53125,-1.4375 0.51563,-0.5625 1.35938,-0.5625 0.39062,0 0.75,0.15625 0.34375,0.15625 0.60937,0.4375 0.26563,0.265625 0.42188,0.640625 0.14062,0.359375 0.14062,0.796875 0,0.890625 -0.51562,1.4375 -0.53125,0.546875 -1.375,0.546875 -0.40625,0 -0.75,-0.140625 Q 115.625,73.65625 115.375,73.390625 115.10938,73.109375 114.96875,72.75 114.8125,72.375 114.8125,71.9375 Z M 144.17187,79 h -3.28125 v 21 h -2.5625 V 79 h -7.04687 v 12.125 q 0,0.25 -0.0312,0.578125 -0.0312,0.328125 -0.15625,0.640625 -0.10938,0.296875 -0.32813,0.515625 -0.21875,0.203125 -0.60937,0.203125 -0.42188,0 -0.9375,-0.265625 -0.5,-0.28125 -1.03125,-0.71875 -0.53125,-0.453125 -1.03125,-1.015625 -0.48437,-0.5625 -0.875,-1.15625 -0.39062,-0.59375 -0.625,-1.15625 -0.23437,-0.5625 -0.23437,-1 0,-0.390625 0.1875,-0.625 0.20312,-0.234375 0.54687,-0.359375 0.35938,-0.125 0.85938,-0.15625 0.51562,-0.03125 1.12499,-0.03125 h 0.54688 V 79 h -5.5625 v -2.296875 h 21.04687 z m 8.3125,0 h -3.28125 v 21 h -2.5625 V 79 h -3.5625 v -2.296875 h 3.8125 q -0.28125,-1.59375 -0.71875,-2.71875 -0.4375,-1.140625 -0.95312,-1.890625 -0.51563,-0.765625 -1.07813,-1.203125 -0.5625,-0.4375 -1.07812,-0.65625 -0.53125,-0.21875 -0.98438,-0.28125 -0.46875,-0.0625 -0.76562,-0.0625 -0.96875,0 -1.54688,0.3125 -0.59375,0.296875 -0.90625,0.71875 -0.3125,0.421875 -0.40625,0.890625 -0.10937,0.453125 -0.10937,0.78125 0,0.125 0.0469,0.515625 0.0312,0.375 0.25,0.953125 0.20313,0.578125 0.64063,1.296875 0.4375,0.71875 1.23437,1.515625 h -2.65625 q -0.98437,-1.125 -1.46875,-2.328125 -0.5,-1.21875 -0.5,-2.359375 0,-0.953125 0.34375,-1.8125 0.34375,-0.859375 1.03125,-1.484375 0.6875,-0.640625 1.71875,-1.015625 1.03125,-0.375 2.39063,-0.375 1.875,0 3.23437,0.734375 1.35938,0.71875 2.28125,1.96875 0.9375,1.25 1.46875,2.9375 0.54688,1.671875 0.76563,3.5625 h 3.35937 z m 19.9375,0 h -3.28125 v 21 h -2.5625 v -5.53125 l -0.0625,-0.01563 q -0.34375,0.296875 -0.8125,0.609375 -0.45312,0.3125 -1.0625,0.578125 -0.59375,0.265625 -1.34375,0.4375 -0.75,0.171875 -1.65625,0.171875 -1.70312,0 -3.10937,-0.59375 -1.40625,-0.609375 -2.42188,-1.609375 -1,-1.015625 -1.5625,-2.3125 -0.5625,-1.3125 -0.5625,-2.734375 0,-1.4375 0.5625,-2.671875 0.5625,-1.234375 1.53125,-2.125 0.98438,-0.90625 2.28125,-1.421875 1.29688,-0.515625 2.76563,-0.515625 0.45312,0 1.07812,0.07813 0.625,0.0625 1.32813,0.296875 0.71875,0.234375 1.48437,0.671875 0.76563,0.421875 1.5,1.140625 l 0.0625,-0.01563 V 79 h -15.1875 v -2.296875 h 21.03125 z m -15.9375,10.25 q 0,0.859375 0.29688,1.6875 0.29687,0.828125 0.89062,1.484375 0.59375,0.65625 1.46875,1.0625 0.875,0.390625 2.04688,0.390625 1.04687,0 2,-0.34375 l -5.15625,-7.75 q -0.71875,0.59375 -1.14063,1.5 -0.40625,0.90625 -0.40625,1.96875 z m 10.15625,-1.890625 Q 166.07812,86.75 165.48437,86.25 164.90625,85.75 164.25,85.390625 163.59375,85.03125 162.85937,84.828125 162.14062,84.625 161.3125,84.625 q -0.35938,0 -0.6875,0.04687 -0.32813,0.04687 -0.67188,0.125 l 5.07813,7.625 q 0.76562,-0.6875 1.1875,-1.515625 0.42187,-0.84375 0.42187,-1.640625 z m 2.28125,-10.21875 h -2.26562 l -1.42188,-2.671875 q -0.90625,-1.703125 -1.64062,-2.703125 -0.75,-1 -1.40625,-1.515625 -0.67188,-0.53125 -1.3125,-0.671875 -0.64063,-0.15625 -1.34375,-0.15625 H 156.5 v -2.53125 h 2.85937 q 0.90625,0 1.64063,0.15625 0.73437,0.140625 1.40625,0.53125 0.65625,0.375 1.29687,1.0625 0.625,0.671875 1.34375,1.75 0.71875,1.0625 1.57813,2.5625 0.84375,1.484375 1.9375,3.515625 z M 188.0625,79 h -5.89063 q 0.79688,1.375 1.28125,2.8125 0.5,1.421875 0.5,2.890625 0,1.109375 -0.34375,2.140625 -0.32812,1.015625 -0.98437,1.828125 -0.64063,0.796875 -1.60938,1.3125 -0.95312,0.5 -2.20312,0.5625 l -0.0312,0.07813 q 1.40625,2.1875 3.15625,4.140625 1.75,1.9375 4.04687,3.6875 L 184.3125,100.375 q -1.32813,-0.984375 -2.53125,-2.125 -1.1875,-1.15625 -2.25,-2.375 -1.0625,-1.234375 -1.98438,-2.484375 Q 176.64062,92.125 175.875,90.9375 175.125,89.734375 174.53125,88.640625 173.9375,87.53125 173.51562,86.625 l 2.14063,-1.15625 q 0.5625,1.21875 1.26562,1.921875 0.71875,0.6875 1.65625,0.6875 0.67188,0 1.20313,-0.34375 0.53125,-0.34375 0.89062,-0.875 0.35938,-0.546875 0.54688,-1.1875 0.1875,-0.65625 0.1875,-1.28125 0,-0.734375 -0.1875,-1.4375 -0.1875,-0.71875 -0.48438,-1.390625 Q 180.4375,80.875 180.0625,80.234375 179.70312,79.59375 179.35937,79 h -8.03125 v -2.296875 h 16.73438 z m -9.40625,-7.0625 q 0,-0.890625 0.53125,-1.4375 0.51562,-0.5625 1.35937,-0.5625 0.39063,0 0.75,0.15625 0.34375,0.15625 0.60938,0.4375 0.26562,0.265625 0.42187,0.640625 0.14063,0.359375 0.14063,0.796875 0,0.890625 -0.51563,1.4375 -0.53125,0.546875 -1.375,0.546875 -0.40625,0 -0.75,-0.140625 -0.35937,-0.15625 -0.60937,-0.421875 -0.26563,-0.28125 -0.40625,-0.640625 -0.15625,-0.375 -0.15625,-0.8125 z M 208.01562,79 h -3.28125 v 21 h -2.5625 V 79 H 195.125 v 12.125 q 0,0.25 -0.0312,0.578125 -0.0312,0.328125 -0.15625,0.640625 -0.10938,0.296875 -0.32813,0.515625 Q 194.39062,93.0625 194,93.0625 q -0.42188,0 -0.9375,-0.265625 -0.5,-0.28125 -1.03125,-0.71875 Q 191.5,91.625 191,91.0625 190.51562,90.5 190.125,89.90625 189.73437,89.3125 189.5,88.75 q -0.23438,-0.5625 -0.23438,-1 0,-0.390625 0.1875,-0.625 0.20313,-0.234375 0.54688,-0.359375 0.35937,-0.125 0.85937,-0.15625 0.51563,-0.03125 1.125,-0.03125 h 0.54688 V 79 h -5.5625 v -2.296875 h 21.04687 z m 8.3125,0 h -3.28125 v 21 h -2.5625 V 79 h -3.5625 v -2.296875 h 3.8125 q -0.28125,-1.59375 -0.71875,-2.71875 -0.4375,-1.140625 -0.95312,-1.890625 -0.51563,-0.765625 -1.07813,-1.203125 -0.5625,-0.4375 -1.07812,-0.65625 -0.53125,-0.21875 -0.98438,-0.28125 -0.46875,-0.0625 -0.76562,-0.0625 -0.96875,0 -1.54688,0.3125 -0.59375,0.296875 -0.90625,0.71875 -0.3125,0.421875 -0.40625,0.890625 -0.10937,0.453125 -0.10937,0.78125 0,0.125 0.0469,0.515625 0.0312,0.375 0.25,0.953125 0.20313,0.578125 0.64063,1.296875 0.4375,0.71875 1.23437,1.515625 h -2.65625 q -0.98437,-1.125 -1.46875,-2.328125 -0.5,-1.21875 -0.5,-2.359375 0,-0.953125 0.34375,-1.8125 0.34375,-0.859375 1.03125,-1.484375 0.6875,-0.640625 1.71875,-1.015625 1.03125,-0.375 2.39063,-0.375 1.875,0 3.23437,0.734375 1.35938,0.71875 2.28125,1.96875 0.9375,1.25 1.46875,2.9375 0.54688,1.671875 0.76563,3.5625 h 3.35937 z m 4.39063,17.4375 -2.5,7.6875 h -1.82813 l 1.82813,-7.6875 z M 253.57812,79 h -3.28125 v 21 h -2.5625 v -8.765625 h -8.59375 v 1.859375 q 0,0.484375 -0.0469,0.859375 -0.0312,0.375 -0.17188,0.625 -0.125,0.25 -0.375,0.390625 -0.23437,0.125 -0.64062,0.125 -0.40625,0 -0.90625,-0.234375 -0.5,-0.25 -1.01563,-0.65625 -0.51562,-0.421875 -1,-0.9375 -0.48437,-0.53125 -0.875,-1.09375 Q 233.73437,91.59375 233.5,91.03125 233.26562,90.46875 233.26562,90 q 0,-0.328125 0.10938,-0.53125 Q 233.5,89.25 233.70312,89.140625 233.92187,89.03125 234.21875,89 q 0.29687,-0.04687 0.67187,-0.04687 h 1.6875 V 79 h -5.64062 v -2.296875 h 22.64062 z m -14.4375,0 v 9.953125 h 8.59375 V 79 Z m 33.875,0 h -3.28125 v 21 h -2.57812 V 87.953125 h -7.3125 q 0,1.03125 -0.0312,1.765625 -0.0156,0.734375 -0.125,1.21875 -0.10938,0.46875 -0.32813,0.6875 -0.21875,0.21875 -0.60937,0.21875 -0.8125,0 -1.54688,-0.53125 -0.71875,-0.53125 -1.28125,-1.28125 -0.54687,-0.75 -0.875,-1.5625 -0.32812,-0.8125 -0.32812,-1.375 0,-0.5 0.21875,-0.78125 0.21875,-0.28125 0.57812,-0.421875 0.35938,-0.140625 0.8125,-0.171875 0.46875,-0.03125 0.9375,-0.03125 h 9.89063 V 79 h -14.67188 v -2.296875 h 20.53125 z m 8.3125,0 h -3.28125 v 21 h -2.5625 V 79 h -3.5625 v -2.296875 h 9.40625 z m 22.85938,0 h -3.28125 v 21.01563 h -2.5625 V 85.375 q -0.82813,-0.296875 -1.5625,-0.296875 -0.73438,0 -1.28125,0.28125 -0.54688,0.265625 -0.92188,0.71875 -0.35937,0.453125 -0.54687,1.0625 -0.1875,0.609375 -0.1875,1.28125 0,0.265625 0.0156,0.546875 0.0312,0.265625 0.0625,0.53125 h -2.39062 q -0.125,-0.90625 -0.29688,-1.734375 -0.15625,-0.828125 -0.46875,-1.453125 -0.29687,-0.625 -0.78125,-0.984375 -0.48437,-0.375 -1.25,-0.375 -0.73437,0 -1.26562,0.296875 -0.51563,0.296875 -0.85938,0.828125 -0.34375,0.53125 -0.51562,1.25 -0.15625,0.703125 -0.15625,1.53125 0,1.78125 0.60937,3.203125 0.60938,1.40625 1.64063,2.53125 1.04687,1.125 2.40625,2.015625 1.375,0.875 2.89062,1.609375 l -1.26562,2.15625 q -0.5625,-0.25 -1.45313,-0.75 -0.875,-0.5 -1.875,-1.234375 -0.98437,-0.734375 -1.98437,-1.71875 -1,-0.984375 -1.8125,-2.203125 -0.79688,-1.21875 -1.29688,-2.6875 -0.5,-1.46875 -0.5,-3.171875 0,-1.3125 0.375,-2.4375 0.375,-1.140625 1.0625,-1.96875 0.70313,-0.84375 1.6875,-1.3125 0.98438,-0.484375 2.1875,-0.484375 0.90625,0 1.5625,0.265625 0.65625,0.25 1.125,0.640625 0.48438,0.375 0.79688,0.828125 0.3125,0.4375 0.54687,0.828125 l 0.0781,-0.01563 q 0.29687,-0.65625 0.70312,-1.109375 0.42188,-0.453125 0.90625,-0.734375 0.5,-0.28125 1.04688,-0.40625 0.54687,-0.140625 1.09375,-0.140625 0.48437,0 0.95312,0.09375 0.48438,0.07813 0.92188,0.234375 V 79 h -18.10938 v -2.296875 h 23.95313 z m 8.3125,0 h -3.28125 v 21 h -2.5625 V 79 h -3.5625 V 76.703125 H 312.5 Z m 31.70312,0 h -3.28125 v 21 h -2.5625 v -8.765625 h -8.20312 v 2.234375 q 0,0.234375 -0.0469,0.5 -0.0312,0.265625 -0.15625,0.5 -0.10937,0.21875 -0.3125,0.375 -0.1875,0.140625 -0.48437,0.140625 -0.35938,0 -0.85938,-0.21875 -0.48437,-0.234375 -1.01562,-0.609375 -0.51563,-0.390625 -1.03125,-0.875 -0.5,-0.5 -0.90625,-1.03125 -0.39063,-0.53125 -0.64063,-1.0625 -0.25,-0.53125 -0.25,-0.984375 0,-0.65625 0.46875,-0.953125 0.46875,-0.296875 1.23438,-0.296875 h 1.51562 V 80.375 q 0,-0.8125 -0.39062,-1.234375 -0.39063,-0.4375 -0.98438,-0.4375 -0.65625,0 -1.10937,0.484375 -0.4375,0.484375 -0.4375,1.234375 0,0.140625 0.0312,0.34375 0.0312,0.203125 0.15625,0.46875 0.125,0.25 0.375,0.578125 0.25,0.3125 0.67187,0.671875 l -1.39062,1.703125 q -0.71875,-0.390625 -1.17188,-0.859375 -0.45312,-0.484375 -0.70312,-0.984375 -0.25,-0.5 -0.34375,-0.96875 -0.0937,-0.484375 -0.0937,-0.890625 0,-0.75 0.25,-1.46875 0.26562,-0.734375 0.78125,-1.3125 0.51562,-0.59375 1.28125,-0.953125 0.78125,-0.359375 1.8125,-0.359375 0.90625,0 1.60937,0.296875 0.70313,0.296875 1.17188,0.859375 0.48437,0.546875 0.71875,1.328125 0.25,0.765625 0.25,1.71875 v 8.359375 h 8.20312 v -12.25 h 5.84375 z m -8.90625,21.46875 q 1,-0.625 2.21875,-0.96875 1.20313,-0.34375 2.29688,-0.34375 0.95312,0 1.78125,0.28125 0.8125,0.265625 1.42187,0.78125 0.60938,0.53125 0.95313,1.28125 0.34375,0.75 0.34375,1.6875 0,1 -0.40625,1.875 -0.39063,0.875 -1.1875,1.53125 -0.79688,0.65625 -1.96875,1.03125 -1.17188,0.39063 -2.71875,0.39063 -1.76563,0 -3.15625,-0.48438 -1.40625,-0.46875 -2.51563,-1.20312 -1.10937,-0.71875 -1.95312,-1.59375 -0.84375,-0.875 -1.48438,-1.65625 L 330.375,101.375 q 0.89062,0.96875 1.70312,1.75 0.8125,0.78125 1.6875,1.32813 0.875,0.5625 1.89063,0.85937 1,0.29688 2.26562,0.29688 1.07813,0 1.84375,-0.21875 0.75,-0.20313 1.23438,-0.54688 0.48437,-0.32812 0.70312,-0.76562 0.21875,-0.42188 0.21875,-0.85938 0,-0.79687 -0.59375,-1.26562 -0.60937,-0.46875 -1.64062,-0.46875 -0.67188,0 -1.54688,0.23437 -0.89062,0.23438 -1.79687,0.78125 z M 359.84375,79 h -5.89063 q 0.79688,1.375 1.28125,2.8125 0.5,1.421875 0.5,2.890625 0,1.109375 -0.34375,2.140625 -0.32812,1.015625 -0.98437,1.828125 -0.64063,0.796875 -1.60938,1.3125 -0.95312,0.5 -2.20312,0.5625 l -0.0312,0.07813 q 1.40625,2.1875 3.15625,4.140625 1.75,1.9375 4.04687,3.6875 l -1.67187,1.921875 q -1.32813,-0.984375 -2.53125,-2.125 -1.1875,-1.15625 -2.25,-2.375 -1.0625,-1.234375 -1.98438,-2.484375 -0.90625,-1.265625 -1.67187,-2.453125 -0.75,-1.203125 -1.34375,-2.296875 -0.59375,-1.109375 -1.01563,-2.015625 l 2.14063,-1.15625 q 0.5625,1.21875 1.26562,1.921875 0.71875,0.6875 1.65625,0.6875 0.67188,0 1.20313,-0.34375 0.53125,-0.34375 0.89062,-0.875 0.35938,-0.546875 0.54688,-1.1875 0.1875,-0.65625 0.1875,-1.28125 0,-0.734375 -0.1875,-1.4375 -0.1875,-0.71875 -0.48438,-1.390625 -0.29687,-0.6875 -0.67187,-1.328125 Q 351.48437,79.59375 351.14062,79 h -8.03125 v -2.296875 h 16.73438 z m 7.51562,17.46875 q -1.39062,0 -2.53125,-0.515625 -1.14062,-0.515625 -1.96875,-1.421875 -0.8125,-0.921875 -1.26562,-2.15625 -0.45313,-1.25 -0.45313,-2.6875 0,-1.5625 0.48438,-2.8125 0.48437,-1.265625 1.32812,-2.15625 0.85938,-0.890625 2,-1.359375 1.15625,-0.484375 2.48438,-0.484375 1.70312,0 3.21875,0.8125 1.51562,0.796875 3.03125,2.359375 0.70312,-1.09375 1.64062,-1.890625 0.9375,-0.8125 2.3125,-1.0625 V 79 H 358.75 v -2.296875 h 29.26562 V 79 h -7.82812 v 4.171875 q 1.04687,0.25 1.89062,0.828125 0.84375,0.578125 1.42188,1.390625 0.59375,0.8125 0.90625,1.828125 0.32812,1 0.32812,2.109375 0,1.625 -0.5625,2.953125 -0.54687,1.328125 -1.48437,2.296875 -0.92188,0.953125 -2.10938,1.484375 -1.1875,0.515625 -2.45312,0.515625 -1.64063,0 -3.0625,-0.765625 -1.42188,-0.765625 -2.8125,-2.109375 -0.40625,0.59375 -0.90625,1.109375 -0.48438,0.5 -1.07813,0.875 -0.59375,0.359375 -1.3125,0.578125 -0.71875,0.203125 -1.59375,0.203125 z m 0.32813,-11.3125 q -0.9375,0 -1.6875,0.375 -0.73438,0.359375 -1.26563,0.984375 -0.53125,0.609375 -0.8125,1.453125 -0.28125,0.828125 -0.28125,1.765625 0,0.8125 0.23438,1.59375 0.23437,0.78125 0.6875,1.390625 0.46875,0.609375 1.15625,0.984375 0.6875,0.375 1.57812,0.375 1.09375,0 1.85938,-0.546875 0.78125,-0.5625 1.375,-1.453125 0.60937,-0.890625 1.10937,-2 0.5,-1.125 1.04688,-2.25 -1.1875,-1.375 -2.46875,-2.015625 -1.26563,-0.65625 -2.53125,-0.65625 z M 377.75,94.1875 q 0.90625,0 1.71875,-0.28125 0.8125,-0.296875 1.42187,-0.875 0.625,-0.59375 0.98438,-1.46875 0.375,-0.890625 0.375,-2.09375 0,-0.765625 -0.20313,-1.515625 -0.1875,-0.75 -0.59375,-1.34375 -0.40625,-0.59375 -1.04687,-0.953125 -0.625,-0.375 -1.48438,-0.375 -0.76562,0 -1.375,0.296875 -0.60937,0.28125 -1.10937,0.78125 -0.5,0.484375 -0.92188,1.15625 -0.40625,0.65625 -0.78125,1.421875 -0.375,0.75 -0.75,1.5625 -0.35937,0.796875 -0.76562,1.578125 0.39062,0.390625 0.875,0.765625 0.5,0.375 1.0625,0.671875 0.57812,0.296875 1.23437,0.484375 0.65625,0.1875 1.35938,0.1875 z M 417.32812,79 h -3.28125 v 21 h -2.5625 v -6.03125 l -0.0625,-0.01563 q -1.26562,1.375 -2.59375,1.9375 -1.32812,0.5625 -2.70312,0.5625 -1.26563,0 -2.34375,-0.40625 -1.07813,-0.421875 -1.875,-1.15625 -0.78125,-0.75 -1.23438,-1.78125 -0.4375,-1.03125 -0.4375,-2.28125 0,-1.125 0.42188,-2.09375 0.4375,-0.96875 1.51562,-1.8125 l -0.0156,-0.0625 Q 401.23437,86.625 400.51562,86.140625 399.79687,85.65625 399.29687,85 q -0.48437,-0.671875 -0.75,-1.46875 -0.25,-0.796875 -0.25,-1.640625 0,-0.703125 0.17188,-1.484375 0.1875,-0.796875 0.57812,-1.40625 h -3.35937 v -2.296875 h 21.64062 z m -15.64062,0 q -0.45313,0.5625 -0.67188,1.296875 -0.21875,0.734375 -0.21875,1.390625 0,0.6875 0.23438,1.296875 0.23437,0.59375 0.6875,1.046875 0.46875,0.453125 1.14062,0.71875 0.67188,0.265625 1.54688,0.265625 0.67187,0 1.28125,-0.109375 0.625,-0.125 1.03125,-0.234375 l 0.42187,2.40625 q -0.25,0.03125 -0.67187,0.125 -0.42188,0.09375 -0.92188,0.28125 -0.48437,0.171875 -1,0.46875 -0.5,0.28125 -0.90625,0.703125 -0.40625,0.421875 -0.67187,1 -0.25,0.578125 -0.25,1.328125 0,0.71875 0.23437,1.296875 0.25,0.5625 0.6875,0.96875 0.4375,0.390625 1.03125,0.609375 0.60938,0.203125 1.34375,0.203125 1.04688,0 1.92188,-0.390625 0.875,-0.40625 1.5625,-0.984375 0.6875,-0.59375 1.1875,-1.265625 0.5,-0.6875 0.79687,-1.234375 V 79 Z m 23.95312,0 h -3.28125 v 21 h -2.5625 V 79 h -3.5625 v -2.296875 h 9.40625 z M 448.5,79 h -3.28125 v 21.01563 h -2.5625 V 85.375 q -0.82813,-0.296875 -1.5625,-0.296875 -0.73438,0 -1.28125,0.28125 -0.54688,0.265625 -0.92188,0.71875 -0.35937,0.453125 -0.54687,1.0625 -0.1875,0.609375 -0.1875,1.28125 0,0.265625 0.0156,0.546875 0.0312,0.265625 0.0625,0.53125 h -2.39062 q -0.125,-0.90625 -0.29688,-1.734375 -0.15625,-0.828125 -0.46875,-1.453125 -0.29687,-0.625 -0.78125,-0.984375 -0.48437,-0.375 -1.25,-0.375 -0.73437,0 -1.26562,0.296875 -0.51563,0.296875 -0.85938,0.828125 -0.34375,0.53125 -0.51562,1.25 -0.15625,0.703125 -0.15625,1.53125 0,1.78125 0.60937,3.203125 0.60938,1.40625 1.64063,2.53125 1.04687,1.125 2.40625,2.015625 1.375,0.875 2.89062,1.609375 l -1.26562,2.15625 q -0.5625,-0.25 -1.45313,-0.75 -0.875,-0.5 -1.875,-1.234375 -0.98437,-0.734375 -1.98437,-1.71875 -1,-0.984375 -1.8125,-2.203125 -0.79688,-1.21875 -1.29688,-2.6875 -0.5,-1.46875 -0.5,-3.171875 0,-1.3125 0.375,-2.4375 0.375,-1.140625 1.0625,-1.96875 0.70313,-0.84375 1.6875,-1.3125 0.98438,-0.484375 2.1875,-0.484375 0.90625,0 1.5625,0.265625 0.65625,0.25 1.125,0.640625 0.48438,0.375 0.79688,0.828125 0.3125,0.4375 0.54687,0.828125 l 0.0781,-0.01563 q 0.29687,-0.65625 0.70312,-1.109375 0.42188,-0.453125 0.90625,-0.734375 0.5,-0.28125 1.04688,-0.40625 0.54687,-0.140625 1.09375,-0.140625 0.48437,0 0.95312,0.09375 0.48438,0.07813 0.92188,0.234375 V 79 H 424.54687 V 76.703125 H 448.5 Z m 23.71875,0 h -3.28125 v 21 H 466.375 V 79 H 462.5 v 9.671875 q 0,1.625 -0.45313,2.796875 -0.4375,1.171875 -1.21875,1.9375 -0.76562,0.765625 -1.79687,1.140625 Q 458,94.90625 456.8125,94.90625 q -1.32813,0 -2.40625,-0.421875 -1.0625,-0.421875 -1.8125,-1.25 -0.75,-0.828125 -1.15625,-2.046875 -0.40625,-1.234375 -0.40625,-2.828125 V 79 h -3.625 v -2.296875 h 24.8125 z M 453.625,79 v 9.84375 q 0,0.71875 0.15625,1.390625 0.17187,0.65625 0.53125,1.171875 0.375,0.515625 0.96875,0.828125 0.60937,0.3125 1.48437,0.3125 0.89063,0 1.48438,-0.3125 0.60937,-0.3125 0.98437,-0.828125 0.375,-0.515625 0.53125,-1.171875 0.17188,-0.671875 0.17188,-1.390625 V 79 Z m 26.90625,0 H 477.25 v 21 h -2.5625 V 79 h -3.5625 v -2.296875 h 9.40625 z m 15.64062,0 h -5.89062 q 0.79687,1.375 1.28125,2.8125 0.5,1.421875 0.5,2.890625 0,1.109375 -0.34375,2.140625 -0.32813,1.015625 -0.98438,1.828125 -0.64062,0.796875 -1.60937,1.3125 -0.95313,0.5 -2.20313,0.5625 l -0.0312,0.07813 q 1.40625,2.1875 3.15625,4.140625 1.75,1.9375 4.04688,3.6875 l -1.67188,1.921875 q -1.32812,-0.984375 -2.53125,-2.125 -1.1875,-1.15625 -2.25,-2.375 -1.0625,-1.234375 -1.98437,-2.484375 Q 484.75,92.125 483.98437,90.9375 q -0.75,-1.203125 -1.34375,-2.296875 Q 482.04687,87.53125 481.625,86.625 l 2.14062,-1.15625 q 0.5625,1.21875 1.26563,1.921875 0.71875,0.6875 1.65625,0.6875 0.67187,0 1.20312,-0.34375 0.53125,-0.34375 0.89063,-0.875 0.35937,-0.546875 0.54687,-1.1875 0.1875,-0.65625 0.1875,-1.28125 0,-0.734375 -0.1875,-1.4375 -0.1875,-0.71875 -0.48437,-1.390625 -0.29688,-0.6875 -0.67188,-1.328125 Q 487.8125,79.59375 487.46875,79 h -8.03125 v -2.296875 h 16.73437 z m 8.3125,0 h -3.28125 v 21 h -2.5625 V 79 h -3.5625 v -2.296875 h 3.8125 q -0.28125,-1.59375 -0.71875,-2.71875 -0.4375,-1.140625 -0.95312,-1.890625 -0.51563,-0.765625 -1.07813,-1.203125 -0.5625,-0.4375 -1.07812,-0.65625 -0.53125,-0.21875 -0.98438,-0.28125 -0.46875,-0.0625 -0.76562,-0.0625 -0.96875,0 -1.54688,0.3125 -0.59375,0.296875 -0.90625,0.71875 -0.3125,0.421875 -0.40625,0.890625 -0.10937,0.453125 -0.10937,0.78125 0,0.125 0.0469,0.515625 0.0312,0.375 0.25,0.953125 0.20313,0.578125 0.64063,1.296875 0.4375,0.71875 1.23437,1.515625 h -2.65625 q -0.98437,-1.125 -1.46875,-2.328125 -0.5,-1.21875 -0.5,-2.359375 0,-0.953125 0.34375,-1.8125 0.34375,-0.859375 1.03125,-1.484375 0.6875,-0.640625 1.71875,-1.015625 1.03125,-0.375 2.39063,-0.375 1.875,0 3.23437,0.734375 1.35938,0.71875 2.28125,1.96875 0.9375,1.25 1.46875,2.9375 0.54688,1.671875 0.76563,3.5625 h 3.35937 z m 4.39063,17.4375 -2.5,7.6875 h -1.82813 l 1.82813,-7.6875 z"
         id="path4" />
      <path
         d="M 72.09375,129 H 68.8125 v 21 H 66.25 v -8.76563 h -8.59375 v 1.85938 q 0,0.48437 -0.04687,0.85937 -0.03125,0.375 -0.171875,0.625 -0.125,0.25 -0.375,0.39063 -0.234375,0.125 -0.640625,0.125 -0.40625,0 -0.90625,-0.23438 -0.5,-0.25 -1.015625,-0.65625 -0.515625,-0.42187 -1,-0.9375 -0.484375,-0.53125 -0.875,-1.09375 -0.375,-0.57812 -0.609375,-1.14062 Q 51.78125,140.46875 51.78125,140 q 0,-0.32813 0.109375,-0.53125 0.125,-0.21875 0.328125,-0.32813 0.21875,-0.10937 0.515625,-0.14062 0.296875,-0.0469 0.671875,-0.0469 h 1.6875 V 129 h -5.640625 v -2.29687 H 72.09375 Z m -14.4375,0 v 9.95312 H 66.25 V 129 Z m 30.078125,0 H 81.84375 q 0.796875,1.375 1.28125,2.8125 0.5,1.42187 0.5,2.89062 0,1.10938 -0.34375,2.14063 -0.328125,1.01562 -0.984375,1.82812 -0.640625,0.79688 -1.609375,1.3125 -0.953125,0.5 -2.203125,0.5625 l -0.03125,0.0781 q 1.40625,2.1875 3.15625,4.14062 1.75,1.9375 4.046875,3.6875 l -1.671875,1.92188 q -1.328125,-0.98438 -2.53125,-2.125 -1.1875,-1.15625 -2.25,-2.375 -1.0625,-1.23438 -1.984375,-2.48438 -0.90625,-1.26562 -1.671875,-2.45312 -0.75,-1.20313 -1.34375,-2.29688 -0.59375,-1.10937 -1.015625,-2.01562 l 2.140625,-1.15625 q 0.5625,1.21875 1.265625,1.92187 0.71875,0.6875 1.65625,0.6875 0.671875,0 1.203125,-0.34375 0.53125,-0.34375 0.890625,-0.875 0.359375,-0.54687 0.546875,-1.1875 0.1875,-0.65625 0.1875,-1.28125 0,-0.73437 -0.1875,-1.4375 -0.1875,-0.71875 -0.484375,-1.39062 -0.296875,-0.6875 -0.671875,-1.32813 Q 79.375,129.59375 79.03125,129 H 71 v -2.29687 h 16.734375 z m 8.3125,0 h -3.28125 v 21 h -2.5625 v -21 h -3.5625 v -2.29687 h 9.40625 z m 9.937505,19 q 1.29687,0 2.40625,-0.46875 1.10937,-0.46875 1.90625,-1.29688 0.8125,-0.82812 1.26562,-1.95312 0.45313,-1.14063 0.45313,-2.48438 0,-1.125 -0.3125,-1.96875 -0.29688,-0.85937 -0.78125,-1.48437 -0.46875,-0.625 -1.04688,-1.04688 -0.5625,-0.42187 -1.09375,-0.6875 -0.53125,-0.26562 -0.95312,-0.39062 -0.40625,-0.125 -0.57813,-0.15625 -0.40625,0.1875 -1.01562,0.375 -0.59375,0.17187 -1.26563,0.39062 -0.78125,0.26563 -1.57812,0.67188 -0.79688,0.40625 -1.4375,1.0625 -0.64063,0.65625 -1.04688,1.625 -0.39062,0.96875 -0.39062,2.34375 0,1.20312 0.40625,2.21875 0.40625,1 1.125,1.73437 0.73437,0.71875 1.73437,1.125 1,0.39063 2.20313,0.39063 z m 11.79687,-19 h -7.60937 v 2.53125 q 0,0.76562 -0.25,1.59375 -0.25,0.82812 -0.73438,1.40625 1.23438,0.4375 2.20313,1.20312 0.98437,0.75 1.65625,1.75 0.6875,0.98438 1.04687,2.17188 0.375,1.1875 0.375,2.48437 0,1.71875 -0.625,3.21875 -0.625,1.5 -1.75,2.625 -1.10937,1.10938 -2.65625,1.75 -1.54687,0.64063 -3.39062,0.64063 -1.95313,0 -3.45313,-0.6875 -1.5,-0.70313 -2.51562,-1.85938 Q 99.0625,146.67187 98.53125,145.1875 98,143.70312 98,142.10937 q 0,-1.67187 0.484375,-2.92187 0.5,-1.25 1.359375,-2.15625 0.85938,-0.92188 2.03125,-1.53125 1.1875,-0.60938 2.57813,-1 0.64062,-0.1875 1.21875,-0.375 0.57812,-0.1875 1,-0.53125 0.4375,-0.34375 0.6875,-0.89063 0.25,-0.5625 0.25,-1.45312 V 129 H 94.953125 v -2.29687 h 22.828125 z m 8.3125,0 h -3.28125 v 21 H 120.25 v -21 h -3.5625 v -2.29687 H 120.5 q -0.28125,-1.59375 -0.71875,-2.71875 -0.4375,-1.14063 -0.95312,-1.89063 -0.51563,-0.76562 -1.07813,-1.20312 -0.5625,-0.4375 -1.07812,-0.65625 -0.53125,-0.21875 -0.98438,-0.28125 -0.46875,-0.0625 -0.76562,-0.0625 -0.96875,0 -1.54688,0.3125 -0.59375,0.29687 -0.90625,0.71875 -0.3125,0.42187 -0.40625,0.89062 -0.10937,0.45313 -0.10937,0.78125 0,0.125 0.0469,0.51563 0.0312,0.375 0.25,0.95312 0.20313,0.57813 0.64063,1.29688 0.4375,0.71875 1.23437,1.51562 h -2.65625 Q 110.48438,125.75 110,124.54688 q -0.5,-1.21875 -0.5,-2.35938 0,-0.95312 0.34375,-1.8125 0.34375,-0.85937 1.03125,-1.48437 0.6875,-0.64063 1.71875,-1.01563 1.03125,-0.375 2.39063,-0.375 1.875,0 3.23437,0.73438 1.35938,0.71875 2.28125,1.96875 0.9375,1.25 1.46875,2.9375 0.54688,1.67187 0.76563,3.5625 h 3.35937 z m 30.3125,0 H 153.125 v 21 h -2.5625 v -8.76563 h -8.59375 v 1.85938 q 0,0.48437 -0.0469,0.85937 -0.0312,0.375 -0.17187,0.625 -0.125,0.25 -0.375,0.39063 -0.23438,0.125 -0.64063,0.125 -0.40625,0 -0.90625,-0.23438 -0.5,-0.25 -1.01562,-0.65625 -0.51563,-0.42187 -1,-0.9375 -0.48438,-0.53125 -0.875,-1.09375 -0.375,-0.57812 -0.60938,-1.14062 -0.23437,-0.5625 -0.23437,-1.03125 0,-0.32813 0.10937,-0.53125 0.125,-0.21875 0.32813,-0.32813 0.21875,-0.10937 0.51562,-0.14062 0.29688,-0.0469 0.67188,-0.0469 h 1.6875 V 129 h -5.64063 v -2.29687 h 22.64063 z m -14.4375,0 v 9.95312 h 8.59375 V 129 Z m 22.75,0 h -3.28125 v 21 h -2.5625 v -21 h -3.5625 v -2.29687 h 9.40625 z m 9.9375,19.75 v 0.0781 q 0.71875,0.78125 1.51562,1.42188 0.79688,0.65625 1.53125,1.15625 0.75,0.5 1.375,0.84375 0.64063,0.34375 1.04688,0.51562 l -1.10938,1.95313 q -0.98437,-0.51563 -1.96875,-1.20313 -0.96875,-0.6875 -1.89062,-1.4375 -0.90625,-0.75 -1.71875,-1.53125 -0.79688,-0.78125 -1.4375,-1.48437 -1.34375,-0.125 -2.28125,-0.48438 -0.92188,-0.35937 -1.51563,-0.85937 -0.57812,-0.5 -0.84375,-1.07813 -0.26562,-0.57812 -0.26562,-1.125 0,-0.39062 0.125,-0.75 0.14062,-0.35937 0.39062,-0.625 0.26563,-0.26562 0.64063,-0.42187 0.39062,-0.15625 0.89062,-0.15625 0.53125,0 1.125,0.1875 0.60938,0.1875 1.1875,0.5625 0.57813,0.375 1.10938,0.95312 0.53125,0.5625 0.9375,1.32813 1.95312,-0.32813 2.95312,-1.3125 1,-1 1,-2.60938 0,-0.625 -0.17187,-1.01562 -0.15625,-0.39063 -0.48438,-0.60938 -0.32812,-0.21875 -0.82812,-0.28125 -0.48438,-0.0781 -1.14063,-0.0781 h -4.29687 q -1.15625,0 -2,-0.48438 -0.84375,-0.5 -1.40625,-1.25 -0.54688,-0.76562 -0.8125,-1.67187 -0.26563,-0.92188 -0.26563,-1.76563 0,-0.92187 0.29688,-1.53125 0.29687,-0.625 0.8125,-0.98437 0.51562,-0.375 1.21875,-0.53125 0.71875,-0.15625 1.54687,-0.15625 H 175.375 V 129 h -11.75 v -2.29687 h 25.59375 V 129 h -3.28125 v 21 h -2.5625 v -9.375 l -0.0625,-0.0156 q -0.45313,0.29688 -0.875,0.48438 -0.40625,0.1875 -0.82813,0.29687 -0.40625,0.10938 -0.84375,0.15625 -0.4375,0.0312 -0.9375,0.0312 0.0937,0.51563 0.0937,1.09375 0,1.10938 -0.3125,2.07813 -0.3125,0.96875 -0.95312,1.76562 -0.64063,0.78125 -1.64063,1.35938 -0.98437,0.5625 -2.35937,0.875 z m 3.28125,-14.14063 h -7.35938 q -1.17187,0 -1.60937,0.32813 -0.4375,0.32812 -0.4375,1.0625 0,0.34375 0.0937,0.75 0.0937,0.39062 0.34375,0.73437 0.25,0.32813 0.67187,0.5625 0.4375,0.21875 1.10938,0.21875 h 4.35937 q 1.32813,0 2.23438,0.3125 0.92187,0.3125 1.48437,0.89063 0.57813,0 1.125,-0.0312 0.54688,-0.0469 1.09375,-0.20313 0.54688,-0.17187 1.125,-0.48437 0.57813,-0.32813 1.20313,-0.89063 V 129 h -5.4375 z M 197.53125,129 H 194.25 v 21 h -2.5625 v -21 h -3.5625 v -2.29687 h 3.8125 q -0.28125,-1.59375 -0.71875,-2.71875 -0.4375,-1.14063 -0.95313,-1.89063 -0.51562,-0.76562 -1.07812,-1.20312 -0.5625,-0.4375 -1.07813,-0.65625 -0.53125,-0.21875 -0.98437,-0.28125 -0.46875,-0.0625 -0.76563,-0.0625 -0.96875,0 -1.54687,0.3125 -0.59375,0.29687 -0.90625,0.71875 -0.3125,0.42187 -0.40625,0.89062 -0.10938,0.45313 -0.10938,0.78125 0,0.125 0.0469,0.51563 0.0312,0.375 0.25,0.95312 0.20312,0.57813 0.64062,1.29688 0.4375,0.71875 1.23438,1.51562 h -2.65625 q -0.98438,-1.125 -1.46875,-2.32812 -0.5,-1.21875 -0.5,-2.35938 0,-0.95312 0.34375,-1.8125 0.34375,-0.85937 1.03125,-1.48437 0.6875,-0.64063 1.71875,-1.01563 1.03125,-0.375 2.39062,-0.375 1.875,0 3.23438,0.73438 1.35937,0.71875 2.28125,1.96875 0.9375,1.25 1.46875,2.9375 0.54687,1.67187 0.76562,3.5625 h 3.35938 z m 31.70312,0 h -3.28125 v 21 h -2.5625 v -8.76563 h -8.20312 v 2.23438 q 0,0.23437 -0.0469,0.5 -0.0312,0.26562 -0.15625,0.5 -0.10937,0.21875 -0.3125,0.375 -0.1875,0.14062 -0.48437,0.14062 -0.35938,0 -0.85938,-0.21875 -0.48437,-0.23437 -1.01562,-0.60937 -0.51563,-0.39063 -1.03125,-0.875 -0.5,-0.5 -0.90625,-1.03125 -0.39063,-0.53125 -0.64063,-1.0625 -0.25,-0.53125 -0.25,-0.98438 0,-0.65625 0.46875,-0.95312 0.46875,-0.29688 1.23438,-0.29688 h 1.51562 V 130.375 q 0,-0.8125 -0.39062,-1.23438 -0.39063,-0.4375 -0.98438,-0.4375 -0.65625,0 -1.10937,0.48438 -0.4375,0.48437 -0.4375,1.23437 0,0.14063 0.0312,0.34375 0.0312,0.20313 0.15625,0.46875 0.125,0.25 0.375,0.57813 0.25,0.3125 0.67187,0.67187 l -1.39062,1.70313 q -0.71875,-0.39063 -1.17188,-0.85938 Q 208,132.84375 207.75,132.34375 q -0.25,-0.5 -0.34375,-0.96875 -0.0937,-0.48438 -0.0937,-0.89063 0,-0.75 0.25,-1.46875 0.26562,-0.73437 0.78125,-1.31249 0.51562,-0.59375 1.28125,-0.95313 0.78125,-0.35937 1.8125,-0.35937 0.90625,0 1.60937,0.29687 0.70313,0.29688 1.17188,0.85938 0.48437,0.54687 0.71875,1.32812 0.25,0.76562 0.25,1.71875 v 8.35937 h 8.20312 v -12.24999 h 5.84375 z m 8.3125,0 h -3.28125 v 21 h -2.5625 v -21 h -3.5625 v -2.29687 h 9.40625 z m 19.40625,0 h -3.28125 v 21 h -2.5625 v -7.53125 l -0.0625,-0.0156 q -1.09375,0.9375 -2.42187,1.375 -1.3125,0.42188 -2.64063,0.42188 -1.34375,0 -2.45312,-0.39063 -1.10938,-0.39062 -1.90625,-1.1875 -0.79688,-0.8125 -1.25,-2.03125 -0.4375,-1.23437 -0.4375,-2.92187 V 129 h -3.48438 v -2.29687 h 20.5 z m -7.4375,11.53125 -6.98437,-9.8125 -0.0625,0.0156 v 6.84375 q 0,0.98438 0.15625,1.76563 0.17187,0.78125 0.5625,1.32812 0.40625,0.54688 1.0625,0.84375 0.65625,0.28125 1.64062,0.28125 1.07813,0 1.96875,-0.3125 0.90625,-0.3125 1.67188,-0.875 z M 251.10937,129 h -7.04687 v 0.0469 l 6.96875,10.09375 0.0781,-0.10937 z m 14.15625,0 h -3.28125 v 21 h -2.5625 v -21 h -3.5625 v -2.29687 h 9.40625 z m 4.39063,17.4375 -2.5,7.6875 h -1.82813 l 1.82813,-7.6875 z M 300.23437,129 h -3.28125 v 21 H 294.375 v -6.96875 l -0.0625,-0.0156 -9.53125,7.17188 -1.60938,-1.95313 5.54688,-3.98437 -0.0156,-0.0625 q -1.20312,-0.0937 -2.1875,-0.53125 -0.98437,-0.4375 -1.6875,-1.23438 -0.70312,-0.79687 -1.09375,-1.96875 -0.375,-1.17187 -0.375,-2.73437 V 129 H 279.875 v -2.29687 h 20.35937 z m -5.85937,0 h -8.48438 v 8.57812 q 0,0.98438 0.15625,1.76563 0.17188,0.78125 0.5625,1.32812 0.40625,0.54688 1.0625,0.84375 0.65625,0.28125 1.64063,0.28125 1.60937,0 2.90625,-0.70312 1.29687,-0.71875 2.15625,-1.89063 z m 2.35937,-1.85937 h -2.26562 l -1.42188,-2.67188 q -0.90625,-1.70312 -1.64062,-2.70312 -0.75,-1 -1.40625,-1.51563 -0.67188,-0.53125 -1.3125,-0.67187 -0.64063,-0.15625 -1.34375,-0.15625 h -3.03125 v -2.53125 h 2.85937 q 0.90625,0 1.64063,0.15625 0.73437,0.14062 1.40625,0.53125 0.65625,0.375 1.29687,1.0625 0.625,0.67187 1.34375,1.75 0.71875,1.0625 1.57813,2.5625 0.84375,1.48437 1.9375,3.51562 z M 321.78125,129 H 318.5 v 21 h -2.5625 v -8.76563 h -8.59375 v 1.85938 q 0,0.48437 -0.0469,0.85937 -0.0312,0.375 -0.17187,0.625 -0.125,0.25 -0.375,0.39063 -0.23438,0.125 -0.64063,0.125 -0.40625,0 -0.90625,-0.23438 -0.5,-0.25 -1.01562,-0.65625 -0.51563,-0.42187 -1,-0.9375 -0.48438,-0.53125 -0.875,-1.09375 -0.375,-0.57812 -0.60938,-1.14062 -0.23437,-0.5625 -0.23437,-1.03125 0,-0.32813 0.10937,-0.53125 0.125,-0.21875 0.32813,-0.32813 0.21875,-0.10937 0.51562,-0.14062 0.29688,-0.0469 0.67188,-0.0469 h 1.6875 V 129 h -5.64063 v -2.29687 h 22.64063 z m -14.4375,0 v 9.95312 h 8.59375 V 129 Z m 22.75,0 h -3.28125 v 21 H 324.25 v -21 h -3.5625 v -2.29687 h 9.40625 z m 21.64062,0 h -3.28125 v 21 h -2.59375 v -6.57813 l -0.0625,-0.0469 q -0.85937,0.78125 -1.6875,1.23437 -0.8125,0.4375 -1.53125,0.67188 -0.70312,0.21875 -1.28125,0.28125 -0.57812,0.0625 -0.95312,0.0625 -1.4375,0 -2.54688,-0.45313 -1.10937,-0.45312 -1.85937,-1.1875 -0.75,-0.75 -1.14063,-1.70312 -0.39062,-0.96875 -0.39062,-2 0,-1.07813 0.4375,-2.14063 0.45312,-1.0625 1.40625,-1.90625 l -0.0156,-0.0625 h -4.95312 V 133.875 h 12.5625 v 2.29687 h -1.60938 q -1.60937,0 -2.64062,0.42188 -1.03125,0.42187 -1.625,1.03125 -0.59375,0.60937 -0.82813,1.3125 -0.21875,0.6875 -0.21875,1.25 0,0.46875 0.15625,1.01562 0.15625,0.53125 0.51563,0.98438 0.375,0.45312 0.98437,0.75 0.625,0.29687 1.5625,0.29687 0.98438,0 1.82813,-0.3125 0.85937,-0.32812 1.57812,-0.84375 0.71875,-0.51562 1.29688,-1.15625 0.59375,-0.65625 1.01562,-1.29687 V 129 H 329 v -2.29687 h 22.73437 z m 8.3125,0 h -3.28125 v 21 h -2.5625 v -21 h -3.5625 v -2.29687 h 3.8125 q -0.28125,-1.59375 -0.71875,-2.71875 -0.4375,-1.14063 -0.95312,-1.89063 -0.51563,-0.76562 -1.07813,-1.20312 -0.5625,-0.4375 -1.07812,-0.65625 -0.53125,-0.21875 -0.98438,-0.28125 -0.46875,-0.0625 -0.76562,-0.0625 -0.96875,0 -1.54688,0.3125 -0.59375,0.29687 -0.90625,0.71875 -0.3125,0.42187 -0.40625,0.89062 -0.10937,0.45313 -0.10937,0.78125 0,0.125 0.0469,0.51563 0.0312,0.375 0.25,0.95312 0.20313,0.57813 0.64063,1.29688 0.4375,0.71875 1.23437,1.51562 h -2.65625 q -0.98437,-1.125 -1.46875,-2.32812 -0.5,-1.21875 -0.5,-2.35938 0,-0.95312 0.34375,-1.8125 0.34375,-0.85937 1.03125,-1.48437 0.6875,-0.64063 1.71875,-1.01563 1.03125,-0.375 2.39063,-0.375 1.875,0 3.23437,0.73438 1.35938,0.71875 2.28125,1.96875 0.9375,1.25 1.46875,2.9375 0.54688,1.67187 0.76563,3.5625 h 3.35937 z M 387,129 h -19.28125 v -2.29687 H 387 Z m 1.48437,8.375 h -6.59375 l -0.0156,0.0625 q 0.1875,0.21875 0.5625,0.67187 0.375,0.4375 0.75,1.09375 0.375,0.64063 0.65625,1.46875 0.28125,0.8125 0.28125,1.76563 0,0.95312 -0.32813,1.89062 -0.3125,0.92188 -0.95312,1.67188 -0.625,0.73437 -1.59375,1.1875 -0.96875,0.45312 -2.25,0.45312 -1.26563,0 -2.32813,-0.4375 Q 375.625,146.75 374.75,146 q -0.85938,-0.75 -1.54688,-1.73438 -0.6875,-0.98437 -1.23437,-2.07812 -0.53125,-1.10938 -0.9375,-2.23438 -0.39063,-1.14062 -0.67188,-2.17187 -0.28125,-1.04688 -0.45312,-1.92188 -0.17188,-0.875 -0.26563,-1.45312 l 2.3125,-0.45313 q 0.51563,2.8125 1.25,4.9375 0.75,2.10938 1.65625,3.53125 0.90625,1.42188 1.95313,2.14063 1.04687,0.70312 2.1875,0.70312 0.8125,0 1.3125,-0.3125 0.5,-0.32812 0.78125,-0.78125 0.28125,-0.46875 0.375,-0.95312 0.10937,-0.5 0.10937,-0.85938 0,-0.64062 -0.26562,-1.35937 -0.25,-0.73438 -0.75,-1.45313 -0.48438,-0.73437 -1.21875,-1.40625 -0.73438,-0.67187 -1.6875,-1.21875 v -1.82812 h 12.23437 z M 404.5,129 h -3.28125 v 21 h -2.5625 v -7.3125 l -0.0625,-0.0156 q -0.42188,0.34375 -1.01563,0.6875 -0.57812,0.32813 -1.29687,0.59375 -0.71875,0.25 -1.54688,0.42188 -0.82812,0.15625 -1.73437,0.15625 -1.8125,0 -3.10938,-0.65625 -1.28125,-0.65625 -2.15625,-1.75 -0.85937,-1.10938 -1.35937,-2.51563 -0.5,-1.42187 -0.71875,-2.95312 1.03125,-0.14063 1.76562,-0.48438 0.73438,-0.34375 1.1875,-0.8125 0.45313,-0.48437 0.65625,-1.04687 0.21875,-0.5625 0.21875,-1.125 0,-0.375 -0.0781,-0.84375 -0.0625,-0.46875 -0.23438,-1 Q 389,130.79687 388.71875,130.20312 388.4375,129.60937 388.01562,129 H 383.5 v -2.29687 h 21 z m -13.71875,0 q 0.5625,0.95312 0.875,2.09375 0.32812,1.125 0.32812,2.21875 0,0.79687 -0.21875,1.54687 -0.20312,0.75 -0.64062,1.40625 -0.4375,0.64063 -1.09375,1.15625 -0.64063,0.5 -1.5,0.79688 0.25,1.04687 0.6875,1.79687 0.4375,0.73438 1.03125,1.21875 0.59375,0.46875 1.32812,0.6875 0.73438,0.21875 1.57813,0.21875 0.8125,0 1.59375,-0.1875 0.79687,-0.1875 1.5,-0.53125 0.71875,-0.35937 1.32812,-0.85937 0.60938,-0.5 1.07813,-1.125 V 129 Z m 22.03125,0 h -3.28125 v 21 h -2.5625 v -21 h -3.5625 v -2.29687 h 9.40625 z m -3.5,-1.85937 h -2.26563 l -1.42187,-2.67188 q -0.90625,-1.70312 -1.65625,-2.70312 -0.73438,-1 -1.39063,-1.51563 -0.67187,-0.53125 -1.3125,-0.67187 -0.64062,-0.15625 -1.34375,-0.15625 h -3.03125 v -2.53125 H 399.75 q 0.90625,0 1.64062,0.15625 0.73438,0.14062 1.40625,0.53125 0.65625,0.375 1.28125,1.0625 0.64063,0.67187 1.35938,1.75 0.71875,1.0625 1.5625,2.5625 0.85937,1.48437 1.95312,3.51562 z M 432.39062,129 h -3.28125 v 21 h -2.54687 v -13.71875 h -5.07813 q -1.04687,0 -1.89062,0.14062 -0.84375,0.125 -1.4375,0.53125 -0.59375,0.39063 -0.92188,1.10938 -0.3125,0.70312 -0.3125,1.85937 0,1.5 0.48438,2.76563 0.5,1.26562 1.26562,2.32812 0.76563,1.04688 1.6875,1.9375 0.9375,0.89063 1.79688,1.64063 l -1.5625,1.78125 q -0.14063,-0.0781 -0.67188,-0.45313 -0.51562,-0.39062 -1.21875,-1.04687 -0.6875,-0.65625 -1.46875,-1.59375 -0.76562,-0.9375 -1.42187,-2.10938 -0.64063,-1.1875 -1.07813,-2.60937 -0.42187,-1.42188 -0.42187,-3.0625 0,-1.625 0.45312,-2.6875 0.46875,-1.07813 1.3125,-1.70313 0.84375,-0.64062 2.04688,-0.89062 1.20312,-0.25 2.6875,-0.25 h 5.75 V 129 h -14.84375 v -2.29687 h 20.67187 z m 28.03125,0 h -3.28125 v 21 h -2.57812 v -7.46875 l -0.0625,-0.0156 q -1.04688,0.9375 -2.34375,1.34375 -1.29688,0.39063 -2.5625,0.39063 -1.34375,0 -2.45313,-0.39063 -1.10937,-0.39062 -1.90625,-1.1875 -0.79687,-0.8125 -1.25,-2.03125 -0.4375,-1.23437 -0.4375,-2.92187 V 129 h -3.48437 v -2.29687 h 20.35937 z m -5.85937,0 h -8.48438 v 8.57812 q 0,0.98438 0.15625,1.76563 0.17188,0.78125 0.5625,1.32812 0.40625,0.54688 1.0625,0.84375 0.65625,0.28125 1.64063,0.28125 1.60937,0 2.90625,-0.75 1.29687,-0.76562 2.15625,-2 z m 2.35937,-1.85937 h -2.26562 l -1.42188,-2.67188 q -0.90625,-1.70312 -1.64062,-2.70312 -0.75,-1 -1.40625,-1.51563 -0.67188,-0.53125 -1.3125,-0.67187 -0.64063,-0.15625 -1.34375,-0.15625 H 444.5 v -2.53125 h 2.85937 q 0.90625,0 1.64063,0.15625 0.73437,0.14062 1.40625,0.53125 0.65625,0.375 1.29687,1.0625 0.625,0.67187 1.34375,1.75 0.71875,1.0625 1.57813,2.5625 0.84375,1.48437 1.9375,3.51562 z m 19.46875,20.28124 q -1.26562,0.75 -2.6875,1.125 -1.42187,0.375 -2.84375,0.375 -1.9375,0 -3.51562,-0.64062 -1.5625,-0.65625 -2.6875,-1.79688 -1.10938,-1.15625 -1.71875,-2.70312 -0.59375,-1.54688 -0.59375,-3.35938 0,-1.71875 0.53125,-3 0.54687,-1.28125 1.48437,-2.125 0.9375,-0.85937 2.20313,-1.28125 1.28125,-0.42187 2.75,-0.42187 h 3.04687 V 129 h -13.03125 v -2.29687 h 20 V 129 h -4.40625 v 6.875 H 469.875 q -1.125,0 -2.0625,0.3125 -0.92188,0.3125 -1.59375,0.92187 -0.65625,0.60938 -1.03125,1.51563 -0.35938,0.89062 -0.35938,2.07812 0,1.29688 0.42188,2.35938 0.4375,1.0625 1.20312,1.82812 0.78125,0.76563 1.84375,1.1875 1.07813,0.42188 2.35938,0.42188 0.76562,0 1.54687,-0.15625 0.78125,-0.15625 1.51563,-0.42188 0.73437,-0.26562 1.40625,-0.60937 0.6875,-0.34375 1.26562,-0.73438 z M 498.14062,129 h -3.28125 v 21 h -2.5625 v -5.57813 l -0.0625,-0.0156 q -0.3125,0.29687 -0.73437,0.625 -0.42188,0.3125 -0.96875,0.57812 -0.54688,0.25 -1.23438,0.42188 -0.67187,0.17187 -1.51562,0.17187 -1.54688,0 -2.82813,-0.59375 -1.26562,-0.59375 -2.1875,-1.57812 -0.92187,-1 -1.4375,-2.28125 -0.5,-1.29688 -0.5,-2.70313 0,-1.40625 0.5,-2.60937 0.51563,-1.21875 1.40625,-2.10938 0.89063,-0.89062 2.07813,-1.39062 1.1875,-0.51563 2.54687,-0.51563 0.375,0 0.9375,0.0625 0.57813,0.0625 1.23438,0.28125 0.65625,0.21875 1.35937,0.64063 0.70313,0.40625 1.34375,1.10937 l 0.0625,-0.0156 V 129 h -14.0625 v -2.29687 h 19.90625 z m -5.78125,8.42187 q -0.98437,-1.1875 -2.14062,-1.90625 -1.15625,-0.73437 -2.625,-0.73437 -1.15625,0 -1.96875,0.4375 -0.79688,0.4375 -1.3125,1.10937 -0.51563,0.65625 -0.75,1.46875 -0.23438,0.8125 -0.23438,1.5625 0,0.8125 0.26563,1.60938 0.26562,0.79687 0.78125,1.4375 0.53125,0.625 1.3125,1.03125 0.78125,0.39062 1.82812,0.39062 1.07813,0 1.96875,-0.40625 0.89063,-0.42187 1.53125,-1.0625 0.64063,-0.64062 0.98438,-1.4375 0.35937,-0.79687 0.35937,-1.54687 z m 29.5,-8.42187 h -3.28125 v 21 h -2.5625 v -21 h -3.875 v 9.67187 q 0,1.625 -0.45312,2.79688 -0.4375,1.17187 -1.21875,1.9375 -0.76563,0.76562 -1.79688,1.14062 -1.03125,0.35938 -2.21875,0.35938 -1.32812,0 -2.40625,-0.42188 -1.0625,-0.42187 -1.8125,-1.25 -0.75,-0.82812 -1.15625,-2.04687 -0.40625,-1.23438 -0.40625,-2.82813 V 129 h -3.625 v -2.29687 h 24.8125 z m -18.59375,0 v 9.84375 q 0,0.71875 0.15625,1.39062 0.17188,0.65625 0.53125,1.17188 0.375,0.51562 0.96875,0.82812 0.60938,0.3125 1.48438,0.3125 0.89062,0 1.48437,-0.3125 0.60938,-0.3125 0.98438,-0.82812 0.375,-0.51563 0.53125,-1.17188 0.17187,-0.67187 0.17187,-1.39062 V 129 Z m 26.90625,0 h -3.28125 v 21 h -2.5625 v -21 h -3.5625 v -2.29687 h 9.40625 z m 15.64063,0 h -5.89063 q 0.79688,1.375 1.28125,2.8125 0.5,1.42187 0.5,2.89062 0,1.10938 -0.34375,2.14063 -0.32812,1.01562 -0.98437,1.82812 -0.64063,0.79688 -1.60938,1.3125 -0.95312,0.5 -2.20312,0.5625 l -0.0312,0.0781 q 1.40625,2.1875 3.15625,4.14062 1.75,1.9375 4.04687,3.6875 l -1.67187,1.92188 q -1.32813,-0.98438 -2.53125,-2.125 -1.1875,-1.15625 -2.25,-2.375 -1.0625,-1.23438 -1.98438,-2.48438 -0.90625,-1.26562 -1.67187,-2.45312 -0.75,-1.20313 -1.34375,-2.29688 -0.59375,-1.10937 -1.01563,-2.01562 l 2.14063,-1.15625 q 0.5625,1.21875 1.26562,1.92187 0.71875,0.6875 1.65625,0.6875 0.67188,0 1.20313,-0.34375 0.53125,-0.34375 0.89062,-0.875 0.35938,-0.54687 0.54688,-1.1875 0.1875,-0.65625 0.1875,-1.28125 0,-0.73437 -0.1875,-1.4375 -0.1875,-0.71875 -0.48438,-1.39062 -0.29687,-0.6875 -0.67187,-1.32813 -0.35938,-0.64062 -0.70313,-1.23437 h -8.03125 v -2.29687 h 16.73438 z m 8.3125,0 h -3.28125 v 21 h -2.5625 v -21 h -3.5625 v -2.29687 h 3.8125 q -0.28125,-1.59375 -0.71875,-2.71875 -0.4375,-1.14063 -0.95313,-1.89063 -0.51562,-0.76562 -1.07812,-1.20312 -0.5625,-0.4375 -1.07813,-0.65625 -0.53125,-0.21875 -0.98437,-0.28125 -0.46875,-0.0625 -0.76563,-0.0625 -0.96875,0 -1.54687,0.3125 -0.59375,0.29687 -0.90625,0.71875 -0.3125,0.42187 -0.40625,0.89062 -0.10938,0.45313 -0.10938,0.78125 0,0.125 0.0469,0.51563 0.0312,0.375 0.25,0.95312 0.20312,0.57813 0.64062,1.29688 0.4375,0.71875 1.23438,1.51562 H 539.5 q -0.98438,-1.125 -1.46875,-2.32812 -0.5,-1.21875 -0.5,-2.35938 0,-0.95312 0.34375,-1.8125 0.34375,-0.85937 1.03125,-1.48437 0.6875,-0.64063 1.71875,-1.01563 1.03125,-0.375 2.39062,-0.375 1.875,0 3.23438,0.73438 1.35937,0.71875 2.28125,1.96875 0.9375,1.25 1.46875,2.9375 0.54687,1.67187 0.76562,3.5625 h 3.35938 z m 2.9375,21.34375 q -0.71875,0 -1.23438,-0.51563 -0.5,-0.51562 -0.5,-1.23437 0,-0.71875 0.5,-1.23438 0.51563,-0.53125 1.23438,-0.53125 0.73437,0 1.25,0.53125 0.51562,0.51563 0.51562,1.23438 0,0.71875 -0.51562,1.23437 -0.51563,0.51563 -1.25,0.51563 z"
         id="path5" />
      <path
         d="m 72.234375,179 h -11.9375 q 0.75,1.32812 1.25,2.71875 0.5,1.39062 0.5,2.76562 v 0.21875 l 0.04687,0.0156 q 0.65625,-0.40625 1.3125,-0.59375 0.65625,-0.1875 1.3125,-0.1875 0.9375,0 1.796875,0.375 0.875,0.35937 1.546875,1.03125 0.671875,0.67187 1.0625,1.64062 0.40625,0.96875 0.40625,2.15625 0,1.78125 -0.90625,3.21875 -0.90625,1.4375 -2.515625,2.5625 l -1.765625,-1.96875 q 0.65625,-0.48437 1.140625,-0.90625 0.484375,-0.4375 0.8125,-0.89062 0.328125,-0.45313 0.484375,-0.95313 0.15625,-0.5 0.15625,-1.10937 0,-0.54688 -0.171875,-1.01563 -0.171875,-0.48437 -0.5,-0.84375 -0.3125,-0.35937 -0.78125,-0.5625 -0.453125,-0.20312 -1.015625,-0.20312 -0.609375,0 -1.15625,0.21875 -0.53125,0.21875 -1,0.54687 -0.453125,0.3125 -0.828125,0.6875 -0.375,0.35938 -0.65625,0.65625 -0.3125,0.32813 -0.671875,0.67188 -0.34375,0.32812 -0.796875,0.59375 -0.453125,0.26562 -1.046875,0.45312 -0.59375,0.1875 -1.390625,0.23438 l -0.03125,0.0781 q 1.421875,2.20313 3.15625,4.15625 1.75,1.9375 4.0625,3.6875 L 62.4375,200.375 q -1.328125,-0.98438 -2.53125,-2.125 -1.1875,-1.15625 -2.25,-2.375 -1.0625,-1.23438 -1.984375,-2.48438 Q 54.765625,192.125 54,190.92187 q -0.75,-1.20312 -1.34375,-2.29687 -0.59375,-1.09375 -1.015625,-2 l 2.140625,-1.15625 q 0.5625,1.21875 1.265625,1.92187 0.71875,0.6875 1.65625,0.6875 0.671875,0 1.203125,-0.32812 0.53125,-0.34375 0.890625,-0.875 0.359375,-0.54688 0.546875,-1.21875 0.1875,-0.67188 0.1875,-1.32813 0,-0.73437 -0.21875,-1.48437 -0.203125,-0.75 -0.53125,-1.4375 -0.3125,-0.70313 -0.671875,-1.3125 -0.34375,-0.625 -0.625,-1.09375 h -8.03125 v -2.29688 h 22.78125 z M 91.5,179 h -3.28125 v 21 h -2.578125 v -7.46875 l -0.0625,-0.0156 q -1.046875,0.9375 -2.34375,1.34375 -1.296875,0.39063 -2.5625,0.39063 -1.34375,0 -2.453125,-0.39063 -1.109375,-0.39062 -1.90625,-1.1875 -0.796875,-0.8125 -1.25,-2.03125 -0.4375,-1.23437 -0.4375,-2.92187 V 179 h -3.484375 v -2.29688 H 91.5 Z m -5.859375,0 H 77.15625 v 8.57812 q 0,0.98438 0.15625,1.76563 0.171875,0.78125 0.5625,1.32812 0.40625,0.54688 1.0625,0.84375 0.65625,0.28125 1.640625,0.28125 1.609375,0 2.90625,-0.75 1.296875,-0.76562 2.15625,-2 z m 14.171875,0 h -3.28125 v 21 h -2.5625 v -21 h -3.5625 v -2.29688 h 9.40625 z m 21.64063,0 h -3.28125 v 21 h -2.59375 v -6.57813 l -0.0625,-0.0469 q -0.85938,0.78125 -1.6875,1.23437 -0.8125,0.4375 -1.53125,0.67188 -0.70313,0.21875 -1.28125,0.28125 -0.57813,0.0625 -0.95313,0.0625 -1.4375,0 -2.54687,-0.45313 -1.10938,-0.45312 -1.85938,-1.1875 -0.75,-0.75 -1.14062,-1.70312 -0.39063,-0.96875 -0.39063,-2 0,-1.07813 0.4375,-2.14063 0.45313,-1.0625 1.40625,-1.90625 l -0.0156,-0.0625 H 101 V 183.875 h 12.5625 v 2.29687 h -1.60937 q -1.60938,0 -2.64063,0.42188 -1.03125,0.42187 -1.625,1.03125 -0.59375,0.60937 -0.82812,1.3125 -0.21875,0.6875 -0.21875,1.25 0,0.46875 0.15625,1.01562 0.15625,0.53125 0.51562,0.98438 0.375,0.45312 0.98438,0.75 0.625,0.29687 1.5625,0.29687 0.98437,0 1.82812,-0.3125 0.85938,-0.32812 1.57813,-0.84375 0.71875,-0.51562 1.29687,-1.15625 0.59375,-0.65625 1.01563,-1.29687 V 179 H 98.71875 v -2.29688 h 22.73438 z m -3.5,-1.85938 h -2.26563 l -1.42187,-2.67187 q -0.90625,-1.70313 -1.64063,-2.70313 -0.75,-1 -1.40625,-1.51562 -0.67187,-0.53125 -1.3125,-0.67188 -0.64062,-0.15625 -1.34375,-0.15625 h -3.03125 v -2.53125 h 2.85938 q 0.90625,0 1.64062,0.15625 0.73438,0.14063 1.40625,0.53125 0.65625,0.375 1.29688,1.0625 0.625,0.67188 1.34375,1.75 0.71875,1.0625 1.57812,2.5625 0.84375,1.48438 1.9375,3.51563 z m 15.35937,9.04688 q 0.23437,0.73437 0.54687,1.60937 0.3125,0.85938 0.73438,1.75 0.4375,0.875 0.96875,1.70313 0.54687,0.82812 1.23437,1.46875 0.70313,0.64062 1.54688,1.03125 0.84375,0.375 1.875,0.375 1.01562,0 1.71875,-0.29688 0.70312,-0.29687 1.14062,-0.79687 0.4375,-0.5 0.625,-1.17188 0.20313,-0.67187 0.20313,-1.40625 0,-1.60937 -1.17188,-2.51562 -1.15625,-0.90625 -3.35937,-0.90625 -0.26563,0 -0.53125,0.0156 -0.26563,0.0156 -0.53125,0.0469 v -2.375 q 0.125,0.0156 0.21875,0.0156 0.10937,0 0.125,0 1.09375,0 1.9375,-0.26562 0.85937,-0.28125 1.4375,-0.75 0.57812,-0.46875 0.875,-1.09375 0.29687,-0.625 0.29687,-1.3125 0,-0.625 -0.21875,-1.10938 -0.21875,-0.48437 -0.59375,-0.8125 -0.375,-0.32812 -0.89062,-0.48437 -0.51563,-0.17188 -1.125,-0.17188 -0.42188,0 -0.8125,0.0625 -0.39063,0.0469 -0.82813,0.17188 -0.4375,0.10937 -0.9375,0.29687 -0.48437,0.1875 -1.10937,0.46875 l -0.89063,-2.14062 q 1.21875,-0.59375 2.34375,-0.89063 1.125,-0.3125 2.29688,-0.3125 1.125,0 2.07812,0.35938 0.96875,0.35937 1.65625,1 0.70313,0.625 1.09375,1.5 0.39063,0.875 0.39063,1.89062 0,2.79688 -2.67188,4.5 v 0.0625 q 1.04688,0.4375 1.75,1.07813 0.45313,0.0781 0.95313,0.125 0.51562,0.0469 0.9375,0.0469 0.4375,0 0.92187,-0.0625 0.48438,-0.0625 0.98438,-0.23437 0.51562,-0.17188 1.03125,-0.48438 0.53125,-0.3125 1.0625,-0.8125 v -8.65625 h 5.84375 V 179 h -3.28125 v 21 h -2.5625 v -11.875 l -0.0625,-0.0156 q -0.89063,0.59375 -1.67188,0.78125 -0.78125,0.1875 -1.60937,0.1875 -0.26563,0 -0.54688,-0.0156 -0.28125,-0.0312 -0.57812,-0.0625 l -0.0156,0.0625 q 0.25,0.64062 0.25,1.57812 0,1.26563 -0.42187,2.34375 -0.42188,1.07813 -1.21875,1.875 -0.78125,0.78125 -1.90625,1.21875 -1.10938,0.4375 -2.5,0.4375 -1.48438,0 -2.6875,-0.51562 -1.1875,-0.53125 -2.15625,-1.35938 -0.95313,-0.82812 -1.67188,-1.85937 -0.71875,-1.04688 -1.23437,-2.09375 -0.51563,-1.04688 -0.84375,-1.98438 -0.32813,-0.95312 -0.48438,-1.57812 z M 164.78125,179 H 161.5 v 21 h -2.5625 v -21 h -3.5625 v -2.29688 h 9.40625 z m 27.625,0 h -13.20313 v 6.15625 l 0.0781,0.0312 q 0.79687,-1.09375 1.98437,-1.75 1.1875,-0.67188 2.60938,-0.67188 1.125,0 2.07812,0.46875 0.96875,0.45313 1.67188,1.26563 0.70312,0.79687 1.09375,1.89062 0.40625,1.09375 0.40625,2.35938 0,1.4375 -0.5,2.65625 -0.5,1.20312 -1.28125,2.1875 -0.78125,0.98437 -1.76563,1.75 -0.98437,0.75 -1.9375,1.28125 L 182.25,194.21875 q 0.3125,-0.17188 0.76562,-0.45313 0.45313,-0.28125 0.9375,-0.65625 0.5,-0.375 0.96875,-0.84375 0.48438,-0.48437 0.85938,-1.04687 0.39062,-0.5625 0.625,-1.21875 0.23437,-0.65625 0.23437,-1.39063 0,-0.67187 -0.21875,-1.28125 -0.20312,-0.60937 -0.57812,-1.0625 -0.375,-0.45312 -0.90625,-0.71875 -0.51563,-0.26562 -1.14063,-0.26562 -0.8125,0 -1.57812,0.42187 -0.76563,0.42188 -1.39063,1.0625 -0.625,0.625 -1.0625,1.34375 -0.42187,0.71875 -0.5625,1.32813 V 200 h -2.5625 v -5.98438 l -0.0625,-0.0312 q -0.23437,0.20313 -0.59375,0.5 -0.35937,0.28125 -0.875,0.54688 -0.5,0.26562 -1.17187,0.45312 -0.65625,0.1875 -1.48438,0.1875 -1.375,0 -2.54687,-0.53125 -1.15625,-0.53125 -2.01563,-1.4375 -0.84375,-0.92187 -1.32812,-2.15625 -0.48438,-1.23437 -0.48438,-2.64062 0,-1.34375 0.4375,-2.48438 0.45313,-1.14062 1.21875,-1.95312 0.78125,-0.82813 1.8125,-1.28125 1.04688,-0.46875 2.25,-0.46875 0.84375,0 1.5625,0.21875 0.73438,0.20312 1.32813,0.51562 0.60937,0.29688 1.07812,0.65625 0.48438,0.34375 0.8125,0.625 l 0.0625,-0.0156 V 179 H 163.6875 v -2.29688 h 28.71875 z m -20.23438,6.15625 q -0.89062,0 -1.57812,0.375 -0.67188,0.35937 -1.125,0.9375 -0.45313,0.5625 -0.6875,1.28125 -0.21875,0.70312 -0.21875,1.39062 0,0.75 0.26562,1.5 0.26563,0.73438 0.75,1.32813 0.5,0.59375 1.1875,0.96875 0.6875,0.35937 1.51563,0.35937 0.70312,0 1.46875,-0.28125 0.78125,-0.29687 1.42187,-0.90625 0.65625,-0.60937 1.07813,-1.54687 0.42187,-0.95313 0.42187,-2.26563 v -0.76562 q -0.375,-0.46875 -0.89062,-0.89063 -0.5,-0.4375 -1.09375,-0.76562 -0.57813,-0.32813 -1.21875,-0.51563 -0.64063,-0.20312 -1.29688,-0.20312 z M 211.8125,179 h -3.28125 v 21 h -2.5625 v -7.53125 l -0.0625,-0.0156 q -1.09375,0.9375 -2.42188,1.375 -1.3125,0.42188 -2.64062,0.42188 -1.34375,0 -2.45313,-0.39063 -1.10937,-0.39062 -1.90625,-1.1875 -0.79687,-0.8125 -1.25,-2.03125 -0.4375,-1.23437 -0.4375,-2.92187 V 179 h -3.48437 v -2.29688 h 20.5 z m -7.4375,11.53125 -6.98438,-9.8125 -0.0625,0.0156 v 6.84375 q 0,0.98438 0.15625,1.76563 0.17188,0.78125 0.5625,1.32812 0.40625,0.54688 1.0625,0.84375 0.65625,0.28125 1.64063,0.28125 1.07812,0 1.96875,-0.3125 0.90625,-0.3125 1.67187,-0.875 z M 205.96875,179 h -7.04688 v 0.0469 l 6.96875,10.09375 0.0781,-0.10937 z m 5.42187,-9.125 q -0.6875,-0.78125 -1.28125,-1.14063 -0.59375,-0.35937 -1.39062,-0.35937 -1.21875,0 -1.95313,0.84375 -0.73437,0.82812 -0.73437,2.34375 0,0.625 0.14062,1.3125 0.14063,0.67187 0.40625,1.35937 0.26563,0.6875 0.65625,1.35938 0.39063,0.67187 0.89063,1.28125 h -2.59375 q -0.9375,-1.32813 -1.40625,-2.71875 -0.46875,-1.40625 -0.46875,-2.73438 0,-1.28125 0.42187,-2.29687 0.40625,-1.01563 1.09375,-1.70313 0.6875,-0.6875 1.60938,-1.04687 0.90625,-0.375 1.92187,-0.375 1.35938,0 2.42188,0.54687 1.07812,0.53125 2.01562,1.71875 z M 235.53125,179 H 232.25 v 21 h -2.5625 v -21 h -3.875 v 9.67187 q 0,1.625 -0.45313,2.79688 -0.4375,1.17187 -1.21875,1.9375 -0.76562,0.76562 -1.79687,1.14062 -1.03125,0.35938 -2.21875,0.35938 -1.32813,0 -2.40625,-0.42188 -1.0625,-0.42187 -1.8125,-1.25 -0.75,-0.82812 -1.15625,-2.04687 -0.40625,-1.23438 -0.40625,-2.82813 V 179 h -3.625 v -2.29688 h 24.8125 z m -18.59375,0 v 9.84375 q 0,0.71875 0.15625,1.39062 0.17187,0.65625 0.53125,1.17188 0.375,0.51562 0.96875,0.82812 0.60937,0.3125 1.48437,0.3125 0.89063,0 1.48438,-0.3125 0.60937,-0.3125 0.98437,-0.82812 0.375,-0.51563 0.53125,-1.17188 0.17188,-0.67187 0.17188,-1.39062 V 179 Z m 22.98437,17.4375 -2.5,7.6875 h -1.82812 l 1.82812,-7.6875 z M 272.78125,179 H 269.5 v 21 h -2.5625 v -8.76563 h -8.59375 v 1.85938 q 0,0.48437 -0.0469,0.85937 -0.0312,0.375 -0.17187,0.625 -0.125,0.25 -0.375,0.39063 -0.23438,0.125 -0.64063,0.125 -0.40625,0 -0.90625,-0.23438 -0.5,-0.25 -1.01562,-0.65625 -0.51563,-0.42187 -1,-0.9375 -0.48438,-0.53125 -0.875,-1.09375 -0.375,-0.57812 -0.60938,-1.14062 -0.23437,-0.5625 -0.23437,-1.03125 0,-0.32813 0.10937,-0.53125 0.125,-0.21875 0.32813,-0.32813 0.21875,-0.10937 0.51562,-0.14062 0.29688,-0.0469 0.67188,-0.0469 h 1.6875 V 179 h -5.64063 v -2.29688 h 22.64063 z m -14.4375,0 v 9.95312 h 8.59375 V 179 Z m 30.07812,0 h -5.89062 q 0.79687,1.375 1.28125,2.8125 0.5,1.42187 0.5,2.89062 0,1.10938 -0.34375,2.14063 -0.32813,1.01562 -0.98438,1.82812 -0.64062,0.79688 -1.60937,1.3125 -0.95313,0.5 -2.20313,0.5625 l -0.0312,0.0781 q 1.40625,2.1875 3.15625,4.14062 1.75,1.9375 4.04688,3.6875 l -1.67188,1.92188 q -1.32812,-0.98438 -2.53125,-2.125 -1.1875,-1.15625 -2.25,-2.375 -1.0625,-1.23438 -1.98437,-2.48438 Q 277,192.125 276.23437,190.9375 q -0.75,-1.20313 -1.34375,-2.29688 -0.59375,-1.10937 -1.01562,-2.01562 l 2.14062,-1.15625 q 0.5625,1.21875 1.26563,1.92187 0.71875,0.6875 1.65625,0.6875 0.67187,0 1.20312,-0.34375 0.53125,-0.34375 0.89063,-0.875 0.35937,-0.54687 0.54687,-1.1875 0.1875,-0.65625 0.1875,-1.28125 0,-0.73437 -0.1875,-1.4375 -0.1875,-0.71875 -0.48437,-1.39062 -0.29688,-0.6875 -0.67188,-1.32813 Q 280.0625,179.59375 279.71875,179 h -8.03125 v -2.29688 h 16.73437 z m 8.3125,0 h -3.28125 v 21 h -2.5625 v -21 h -3.5625 v -2.29688 h 9.40625 z m 9.9375,19 q 1.29688,0 2.40625,-0.46875 1.10938,-0.46875 1.90625,-1.29688 0.8125,-0.82812 1.26563,-1.95312 0.45312,-1.14063 0.45312,-2.48438 0,-1.125 -0.3125,-1.96875 -0.29687,-0.85937 -0.78125,-1.48437 -0.46875,-0.625 -1.04687,-1.04688 -0.5625,-0.42187 -1.09375,-0.6875 -0.53125,-0.26562 -0.95313,-0.39062 -0.40625,-0.125 -0.57812,-0.15625 -0.40625,0.1875 -1.01563,0.375 -0.59375,0.17187 -1.26562,0.39062 -0.78125,0.26563 -1.57813,0.67188 -0.79687,0.40625 -1.4375,1.0625 -0.64062,0.65625 -1.04687,1.625 -0.39063,0.96875 -0.39063,2.34375 0,1.20312 0.40625,2.21875 0.40625,1 1.125,1.73437 0.73438,0.71875 1.73438,1.125 1,0.39063 2.20312,0.39063 z m 11.79688,-19 h -7.60938 v 2.53125 q 0,0.76562 -0.25,1.59375 -0.25,0.82812 -0.73437,1.40625 1.23437,0.4375 2.20312,1.20312 0.98438,0.75 1.65625,1.75 0.6875,0.98438 1.04688,2.17188 0.375,1.1875 0.375,2.48437 0,1.71875 -0.625,3.21875 -0.625,1.5 -1.75,2.625 -1.10938,1.10938 -2.65625,1.75 -1.54688,0.64063 -3.39063,0.64063 -1.95312,0 -3.45312,-0.6875 -1.5,-0.70313 -2.51563,-1.85938 -1.01562,-1.15625 -1.54687,-2.64062 -0.53125,-1.48438 -0.53125,-3.07813 0,-1.67187 0.48437,-2.92187 0.5,-1.25 1.35938,-2.15625 0.85937,-0.92188 2.03125,-1.53125 1.1875,-0.60938 2.57812,-1 0.64063,-0.1875 1.21875,-0.375 0.57813,-0.1875 1,-0.53125 0.4375,-0.34375 0.6875,-0.89063 0.25,-0.5625 0.25,-1.45312 V 179 h -12.65625 v -2.29688 h 22.82813 z m 8.3125,0 H 323.5 v 21 h -2.5625 v -21 h -3.5625 v -2.29688 h 3.8125 q -0.28125,-1.59375 -0.71875,-2.71875 -0.4375,-1.14062 -0.95313,-1.89062 -0.51562,-0.76563 -1.07812,-1.20313 -0.5625,-0.4375 -1.07813,-0.65625 -0.53125,-0.21875 -0.98437,-0.28125 -0.46875,-0.0625 -0.76563,-0.0625 -0.96875,0 -1.54687,0.3125 -0.59375,0.29688 -0.90625,0.71875 -0.3125,0.42188 -0.40625,0.89063 -0.10938,0.45312 -0.10938,0.78125 0,0.125 0.0469,0.51562 0.0312,0.375 0.25,0.95313 0.20312,0.57812 0.64062,1.29687 0.4375,0.71875 1.23438,1.51563 h -2.65625 q -0.98438,-1.125 -1.46875,-2.32813 -0.5,-1.21875 -0.5,-2.35937 0,-0.95313 0.34375,-1.8125 0.34375,-0.85938 1.03125,-1.48438 0.6875,-0.64062 1.71875,-1.01562 1.03125,-0.375 2.39062,-0.375 1.875,0 3.23438,0.73437 1.35937,0.71875 2.28125,1.96875 0.9375,1.25 1.46875,2.9375 0.54687,1.67188 0.76562,3.5625 h 3.35938 z m 21.64062,0 h -3.28125 v 21 h -2.59375 v -6.57813 l -0.0625,-0.0469 q -0.85937,0.78125 -1.6875,1.23437 -0.8125,0.4375 -1.53125,0.67188 -0.70312,0.21875 -1.28125,0.28125 -0.57812,0.0625 -0.95312,0.0625 -1.4375,0 -2.54688,-0.45313 -1.10937,-0.45312 -1.85937,-1.1875 -0.75,-0.75 -1.14063,-1.70312 -0.39062,-0.96875 -0.39062,-2 0,-1.07813 0.4375,-2.14063 0.45312,-1.0625 1.40625,-1.90625 l -0.0156,-0.0625 h -4.95312 V 183.875 h 12.5625 v 2.29687 h -1.60938 q -1.60937,0 -2.64062,0.42188 -1.03125,0.42187 -1.625,1.03125 -0.59375,0.60937 -0.82813,1.3125 -0.21875,0.6875 -0.21875,1.25 0,0.46875 0.15625,1.01562 0.15625,0.53125 0.51563,0.98438 0.375,0.45312 0.98437,0.75 0.625,0.29687 1.5625,0.29687 0.98438,0 1.82813,-0.3125 0.85937,-0.32812 1.57812,-0.84375 0.71875,-0.51562 1.29688,-1.15625 0.59375,-0.65625 1.01562,-1.29687 V 179 H 325.6875 v -2.29688 h 22.73437 z m -3.5,-1.85938 h -2.26562 l -1.42188,-2.67187 q -0.90625,-1.70313 -1.64062,-2.70313 -0.75,-1 -1.40625,-1.51562 -0.67188,-0.53125 -1.3125,-0.67188 -0.64063,-0.15625 -1.34375,-0.15625 H 332.5 v -2.53125 h 2.85937 q 0.90625,0 1.64063,0.15625 0.73437,0.14063 1.40625,0.53125 0.65625,0.375 1.29687,1.0625 0.625,0.67188 1.34375,1.75 0.71875,1.0625 1.57813,2.5625 0.84375,1.48438 1.9375,3.51563 z M 377.14062,179 h -3.28125 v 21 h -2.5625 V 179 H 364.25 v 12.125 q 0,0.25 -0.0312,0.57812 -0.0312,0.32813 -0.15625,0.64063 -0.10938,0.29687 -0.32813,0.51562 -0.21875,0.20313 -0.60937,0.20313 -0.42188,0 -0.9375,-0.26563 -0.5,-0.28125 -1.03125,-0.71875 -0.53125,-0.45312 -1.03125,-1.01562 -0.48438,-0.5625 -0.875,-1.15625 -0.39063,-0.59375 -0.625,-1.15625 -0.23438,-0.5625 -0.23438,-1 0,-0.39063 0.1875,-0.625 0.20313,-0.23438 0.54688,-0.35938 0.35937,-0.125 0.85937,-0.15625 0.51563,-0.0312 1.125,-0.0312 h 0.54688 V 179 h -5.5625 v -2.29688 h 21.04687 z m 8.3125,0 h -3.28125 v 21 h -2.5625 v -21 h -3.5625 v -2.29688 h 9.40625 z m -3.5,-1.85938 h -2.26562 l -1.42188,-2.67187 q -0.90625,-1.70313 -1.65625,-2.70313 -0.73437,-1 -1.39062,-1.51562 -0.67188,-0.53125 -1.3125,-0.67188 -0.64063,-0.15625 -1.34375,-0.15625 h -3.03125 v -2.53125 h 2.85937 q 0.90625,0 1.64063,0.15625 0.73437,0.14063 1.40625,0.53125 0.65625,0.375 1.28125,1.0625 0.64062,0.67188 1.35937,1.75 0.71875,1.0625 1.5625,2.5625 0.85938,1.48438 1.95313,3.51563 z M 408.34375,179 h -4.65625 v 5.76562 h -7.82813 q -1.15625,0 -1.60937,0.32813 -0.4375,0.32812 -0.4375,1.0625 0,0.375 0.0937,0.78125 0.0937,0.40625 0.34375,0.76562 0.25,0.34375 0.67187,0.57813 0.4375,0.21875 1.10938,0.21875 h 4.42187 q 1.375,0 2.3125,0.375 0.95313,0.375 1.51563,1.03125 0.57812,0.65625 0.82812,1.54687 0.25,0.89063 0.25,1.90625 0,1.39063 -0.46875,2.65625 -0.45312,1.26563 -1.35937,2.23438 -0.90625,0.96875 -2.26563,1.54687 -1.34375,0.57813 -3.14062,0.57813 -1.95313,0 -3.75,-0.71875 -1.78125,-0.73438 -3.28125,-2.03125 -1.48438,-1.29688 -2.625,-3.07813 -1.125,-1.78125 -1.76563,-3.90625 l 2.17188,-0.85937 q 0.54687,1.60937 1.45312,3.09375 0.90625,1.48437 2.09375,2.625 1.20313,1.14062 2.64063,1.82812 Q 396.5,198 398.09375,198 q 1.125,0 2,-0.32813 0.89062,-0.32812 1.51562,-0.9375 0.625,-0.60937 0.95313,-1.45312 0.32812,-0.85938 0.32812,-1.92188 0,-0.75 -0.17187,-1.21875 -0.17188,-0.48437 -0.54688,-0.75 -0.35937,-0.26562 -0.92187,-0.35937 -0.5625,-0.10938 -1.34375,-0.10938 h -4.09375 q -1.15625,0 -2,-0.5 -0.84375,-0.5 -1.40625,-1.26562 -0.54688,-0.76563 -0.8125,-1.6875 -0.26563,-0.9375 -0.26563,-1.79688 0,-0.92187 0.29688,-1.53125 0.29687,-0.625 0.8125,-0.98437 0.51562,-0.375 1.21875,-0.53125 0.71875,-0.15625 1.54687,-0.15625 H 401.125 V 179 h -16.76563 v -2.29688 h 23.98438 z m 28.71875,0 h -3.28125 v 21 h -2.5625 v -21 h -7.04688 v 12.125 q 0,0.25 -0.0312,0.57812 -0.0312,0.32813 -0.15625,0.64063 -0.10937,0.29687 -0.32812,0.51562 -0.21875,0.20313 -0.60938,0.20313 -0.42187,0 -0.9375,-0.26563 -0.5,-0.28125 -1.03125,-0.71875 -0.53125,-0.45312 -1.03125,-1.01562 -0.48437,-0.5625 -0.875,-1.15625 -0.39062,-0.59375 -0.625,-1.15625 -0.23437,-0.5625 -0.23437,-1 0,-0.39063 0.1875,-0.625 0.20312,-0.23438 0.54687,-0.35938 0.35938,-0.125 0.85938,-0.15625 0.51562,-0.0312 1.125,-0.0312 h 0.54687 V 179 h -5.5625 v -2.29688 h 21.04688 z m 8.3125,0 h -3.28125 v 21 h -2.5625 v -21 h -3.5625 v -2.29688 h 9.40625 z m 23.71875,0 h -3.28125 v 21 H 463.25 v -21 h -3.875 v 9.67187 q 0,1.625 -0.45313,2.79688 -0.4375,1.17187 -1.21875,1.9375 -0.76562,0.76562 -1.79687,1.14062 -1.03125,0.35938 -2.21875,0.35938 -1.32813,0 -2.40625,-0.42188 -1.0625,-0.42187 -1.8125,-1.25 -0.75,-0.82812 -1.15625,-2.04687 -0.40625,-1.23438 -0.40625,-2.82813 V 179 h -3.625 v -2.29688 h 24.8125 z M 450.5,179 v 9.84375 q 0,0.71875 0.15625,1.39062 0.17187,0.65625 0.53125,1.17188 0.375,0.51562 0.96875,0.82812 0.60937,0.3125 1.48437,0.3125 0.89063,0 1.48438,-0.3125 0.60937,-0.3125 0.98437,-0.82812 0.375,-0.51563 0.53125,-1.17188 0.17188,-0.67187 0.17188,-1.39062 V 179 Z m 15.09375,-1.85938 h -2.26563 l -1.42187,-2.67187 q -0.90625,-1.70313 -1.64063,-2.70313 -0.75,-1 -1.40625,-1.51562 -0.67187,-0.53125 -1.3125,-0.67188 -0.64062,-0.15625 -1.34375,-0.15625 h -3.03125 v -2.53125 h 2.85938 q 0.90625,0 1.64062,0.15625 0.73438,0.14063 1.40625,0.53125 0.65625,0.375 1.29688,1.0625 0.625,0.67188 1.34375,1.75 0.71875,1.0625 1.57812,2.5625 0.84375,1.48438 1.9375,3.51563 z m 7.89062,19.29688 -2.5,7.6875 h -1.82812 l 1.82812,-7.6875 z"
         id="path6" />
      <path
         d="m 70.46875,229 h -5.296875 v 6.85937 H 59.90625 q -2.453125,0 -3.703125,1.21875 -1.25,1.20313 -1.25,3.46875 0,1.28125 0.40625,2.26563 0.421875,0.98437 1.140625,1.65625 0.734375,0.65625 1.734375,1 1,0.34375 2.171875,0.34375 1.234375,0 1.984375,-0.375 -0.0625,-0.39063 -0.09375,-0.6875 -0.03125,-0.29688 -0.03125,-0.59375 0,-0.65625 0.15625,-1.34375 0.171875,-0.70313 0.5,-1.26563 0.34375,-0.57812 0.859375,-0.9375 0.53125,-0.35937 1.265625,-0.35937 0.453125,0 0.859375,0.15625 0.40625,0.15625 0.703125,0.48437 0.3125,0.3125 0.484375,0.79688 0.1875,0.48437 0.1875,1.125 0,0.64062 -0.171875,1.1875 -0.171875,0.53125 -0.453125,1 -0.265625,0.45312 -0.609375,0.85937 -0.34375,0.39063 -0.671875,0.71875 0.34375,0.75 0.71875,1.34375 0.390625,0.59375 0.796875,1.0625 0.421875,0.46875 0.84375,0.84375 0.421875,0.375 0.84375,0.70313 l -1.921875,2.01562 q -0.828125,-0.73437 -1.421875,-1.46875 -0.578125,-0.71875 -0.984375,-1.35937 -0.390625,-0.64063 -0.640625,-1.15625 -0.25,-0.51563 -0.40625,-0.82813 -1.078125,0.42188 -2.65625,0.42188 -2.03125,0 -3.546875,-0.65625 -1.515625,-0.67188 -2.53125,-1.78125 -1,-1.125 -1.5,-2.5625 -0.5,-1.4375 -0.5,-2.98438 0,-1.60937 0.515625,-2.82812 0.515625,-1.23438 1.4375,-2.0625 0.921875,-0.84375 2.1875,-1.26563 1.28125,-0.4375 2.796875,-0.4375 h 3.203125 V 229 h -13.15625 v -2.29688 H 70.46875 Z m 8.3125,0 H 75.5 v 21 H 72.9375 V 229 H 69.375 v -2.29688 h 9.40625 z m -3.5,-1.85938 h -2.265625 l -1.421875,-2.67187 q -0.90625,-1.70313 -1.65625,-2.70313 -0.734375,-1 -1.390625,-1.51562 -0.671875,-0.53125 -1.3125,-0.67188 -0.640625,-0.15625 -1.34375,-0.15625 h -3.03125 v -2.53125 h 2.859375 q 0.90625,0 1.640625,0.15625 0.734375,0.14063 1.40625,0.53125 0.65625,0.375 1.28125,1.0625 0.640625,0.67188 1.359375,1.75 0.71875,1.0625 1.5625,2.5625 0.859375,1.48438 1.953125,3.51563 z M 90.90625,229 H 77.6875 v -2.29688 h 13.21875 z m 0.953125,8.95312 h -6.8125 q 0,1.03125 -0.03125,1.76563 -0.01563,0.73437 -0.125,1.21875 -0.109375,0.46875 -0.328125,0.6875 -0.21875,0.21875 -0.609375,0.21875 -0.8125,0 -1.546875,-0.53125 -0.71875,-0.53125 -1.28125,-1.28125 -0.546875,-0.75 -0.875,-1.5625 -0.328125,-0.8125 -0.328125,-1.375 0,-0.5 0.21875,-0.78125 0.21875,-0.28125 0.578125,-0.42188 0.359375,-0.14062 0.8125,-0.17187 0.46875,-0.0312 0.9375,-0.0312 h 9.390625 z m 6.4375,7.64063 q 0.515625,-0.15625 1.015625,-0.39063 0.515625,-0.23437 0.90625,-0.5625 0.40625,-0.34375 0.65625,-0.79687 0.25,-0.45313 0.25,-1.0625 0,-1.29688 -1.07812,-2.01563 -1.07813,-0.73437 -3.062505,-0.73437 -0.796875,0 -1.640625,0.17187 -0.828125,0.15625 -1.515625,0.59375 -0.6875,0.42188 -1.125,1.17188 -0.4375,0.73437 -0.4375,1.875 0,1.15625 0.453125,2.15625 0.453125,0.98437 1.171875,1.8125 0.734375,0.82812 1.640625,1.5 0.90625,0.67187 1.796875,1.1875 0.90625,0.51562 1.703125,0.85937 0.796875,0.35938 1.32813,0.5625 l -1.031255,2.15625 q -1.09375,-0.46875 -2.234375,-1.03125 -1.125,-0.54687 -2.1875,-1.21875 -1.0625,-0.65625 -2,-1.45312 -0.9375,-0.79688 -1.640625,-1.76563 -0.6875,-0.96875 -1.09375,-2.125 -0.390625,-1.15625 -0.390625,-2.51562 0,-1.32813 0.34375,-2.3125 0.359375,-1 0.984375,-1.75 -0.859375,-0.98438 -1.265625,-1.98438 -0.40625,-1 -0.40625,-2.17187 0,-0.67188 0.15625,-1.26563 0.171875,-0.59375 0.59375,-1.03125 Q 90.625,233 91.390625,232.73437 92.15625,232.46875 93.375,232.46875 h 7.07813 V 229 H 86.296875 v -2.29688 H 106.65625 V 229 h -3.64062 v 5.75 h -8.98438 q -0.609375,0 -1.03125,0.10937 -0.40625,0.0937 -0.65625,0.29688 -0.25,0.20312 -0.359375,0.51562 -0.09375,0.29688 -0.09375,0.70313 0,0.54687 0.1875,1.0625 0.1875,0.51562 0.703125,1.15625 0.90625,-0.46875 1.984375,-0.6875 1.09375,-0.23438 2.28125,-0.23438 1.375,0 2.5625,0.3125 1.203125,0.3125 2.078125,0.95313 0.89063,0.625 1.39063,1.60937 0.51562,0.96875 0.51562,2.28125 0,1.26563 -0.4375,2.14063 -0.42187,0.875 -1.07812,1.46875 -0.64063,0.59375 -1.40625,0.96875 Q 99.90625,247.76562 99.25,248 Z M 114.96875,229 h -3.28125 v 21 h -2.5625 v -21 h -3.5625 v -2.29688 h 3.8125 q -0.28125,-1.59375 -0.71875,-2.71875 -0.4375,-1.14062 -0.95312,-1.89062 -0.51563,-0.76563 -1.07813,-1.20313 -0.5625,-0.4375 -1.07812,-0.65625 -0.53125,-0.21875 -0.98438,-0.28125 -0.46875,-0.0625 -0.76562,-0.0625 -0.96875,0 -1.54688,0.3125 -0.59375,0.29688 -0.90625,0.71875 -0.3125,0.42188 -0.40625,0.89063 -0.10937,0.45312 -0.10937,0.78125 0,0.125 0.0469,0.51562 0.0312,0.375 0.25,0.95313 0.20313,0.57812 0.64063,1.29687 0.4375,0.71875 1.23437,1.51563 h -2.65625 q -0.984375,-1.125 -1.46875,-2.32813 -0.5,-1.21875 -0.5,-2.35937 0,-0.95313 0.34375,-1.8125 0.34375,-0.85938 1.03125,-1.48438 0.6875,-0.64062 1.71875,-1.01562 1.03125,-0.375 2.39063,-0.375 1.875,0 3.23437,0.73437 1.35938,0.71875 2.28125,1.96875 0.9375,1.25 1.46875,2.9375 0.54688,1.67188 0.76563,3.5625 h 3.35937 z m 21.17187,0 h -7.42187 v 11.1875 q 0,1.14062 0.28125,1.90625 0.29687,0.75 0.9375,1.34375 0.64062,0.57812 1.64062,1.125 1.01563,0.53125 2.45313,1.25 1.32812,0.65625 2.46875,1.26562 1.15625,0.60938 2,1.28125 0.84375,0.67188 1.32812,1.45313 0.48438,0.78125 0.48438,1.78125 0,0.76562 -0.3125,1.53125 -0.3125,0.78125 -0.90625,1.48437 l -2.10938,-1.28125 q 0.23438,-0.375 0.4375,-0.79687 0.21875,-0.42188 0.21875,-0.875 0,-0.60938 -0.42187,-1.14063 Q 136.8125,250 136.125,249.53125 q -0.6875,-0.48438 -1.57813,-0.9375 -0.89062,-0.45313 -1.85937,-0.92188 -1.64063,-0.79687 -2.85938,-1.4375 -1.21875,-0.64062 -2.04687,-1.39062 -0.8125,-0.76563 -1.21875,-1.78125 -0.40625,-1.01563 -0.40625,-2.54688 V 229 h -3.51562 v -2.29688 h 19.34374 V 229 h -3.28125 v 9.90625 q 0,1.20312 -0.34375,2 -0.32812,0.78125 -0.85937,1.23437 -0.51563,0.45313 -1.15625,0.64063 -0.625,0.17187 -1.21875,0.17187 -0.59375,0 -1.17188,-0.125 -0.57812,-0.14062 -1.09375,-0.35937 v -2.54688 q 0.34375,0.20313 0.84375,0.35938 0.5,0.14062 1,0.14062 0.46875,0 0.75,-0.15625 0.28125,-0.15625 0.4375,-0.46875 0.15625,-0.3125 0.20313,-0.76562 0.0469,-0.45313 0.0469,-1.04688 z m 33.46875,0 h -13.20312 v 6.15625 l 0.0781,0.0312 q 0.79688,-1.09375 1.98438,-1.75 1.1875,-0.67188 2.60937,-0.67188 1.125,0 2.07813,0.46875 0.96875,0.45313 1.67187,1.26563 0.70313,0.79687 1.09375,1.89062 0.40625,1.09375 0.40625,2.35938 0,1.4375 -0.5,2.65625 -0.5,1.20312 -1.28125,2.1875 -0.78125,0.98437 -1.76562,1.75 -0.98438,0.75 -1.9375,1.28125 l -1.39063,-2.40625 q 0.3125,-0.17188 0.76563,-0.45313 0.45312,-0.28125 0.9375,-0.65625 0.5,-0.375 0.96875,-0.84375 0.48437,-0.48437 0.85937,-1.04687 0.39063,-0.5625 0.625,-1.21875 0.23438,-0.65625 0.23438,-1.39063 0,-0.67187 -0.21875,-1.28125 -0.20313,-0.60937 -0.57813,-1.0625 -0.375,-0.45312 -0.90625,-0.71875 -0.51562,-0.26562 -1.14062,-0.26562 -0.8125,0 -1.57813,0.42187 -0.76562,0.42188 -1.39062,1.0625 -0.625,0.625 -1.0625,1.34375 -0.42188,0.71875 -0.5625,1.32813 V 250 h -2.5625 v -5.98438 l -0.0625,-0.0312 q -0.23438,0.20313 -0.59375,0.5 -0.35938,0.28125 -0.875,0.54688 -0.5,0.26562 -1.17188,0.45312 -0.65625,0.1875 -1.48437,0.1875 -1.375,0 -2.54688,-0.53125 -1.15625,-0.53125 -2.01562,-1.4375 -0.84375,-0.92187 -1.32813,-2.15625 -0.48437,-1.23437 -0.48437,-2.64062 0,-1.34375 0.4375,-2.48438 0.45312,-1.14062 1.21875,-1.95312 0.78125,-0.82813 1.8125,-1.28125 1.04687,-0.46875 2.25,-0.46875 0.84375,0 1.5625,0.21875 0.73437,0.20312 1.32812,0.51562 0.60938,0.29688 1.07813,0.65625 0.48437,0.34375 0.8125,0.625 l 0.0625,-0.0156 V 229 h -12.95313 v -2.29688 h 28.71875 z m -20.23437,6.15625 q -0.89063,0 -1.57813,0.375 -0.67187,0.35937 -1.125,0.9375 -0.45312,0.5625 -0.6875,1.28125 -0.21875,0.70312 -0.21875,1.39062 0,0.75 0.26563,1.5 0.26562,0.73438 0.75,1.32813 0.5,0.59375 1.1875,0.96875 0.6875,0.35937 1.51562,0.35937 0.70313,0 1.46875,-0.28125 0.78125,-0.29687 1.42188,-0.90625 0.65625,-0.60937 1.07812,-1.54687 0.42188,-0.95313 0.42188,-2.26563 v -0.76562 q -0.375,-0.46875 -0.89063,-0.89063 -0.5,-0.4375 -1.09375,-0.76562 -0.57812,-0.32813 -1.21875,-0.51563 -0.64062,-0.20312 -1.29687,-0.20312 z M 177.92187,229 h -3.28125 v 21 h -2.5625 v -21 h -3.5625 v -2.29688 h 3.5625 q -0.85937,-2.0625 -0.85937,-3.84375 0,-1.14062 0.375,-2.125 0.375,-0.98437 1.14062,-1.70312 0.78125,-0.71875 1.98438,-1.125 1.20312,-0.40625 2.85937,-0.40625 2.17188,0 4.17188,0.70312 2.01562,0.70313 3.9375,1.95313 1.92187,1.25 3.79687,2.96875 1.89063,1.71875 3.8125,3.75 h -2.71875 q -0.4375,-0.42188 -1.17187,-1.09375 -0.71875,-0.6875 -1.67188,-1.45313 -0.95312,-0.78125 -2.10937,-1.5625 -1.15625,-0.79687 -2.4375,-1.4375 -1.28125,-0.64062 -2.67188,-1.03125 -1.375,-0.40625 -2.78125,-0.40625 -1.14062,0 -1.92187,0.26563 -0.76563,0.26562 -1.25,0.73437 -0.46875,0.46875 -0.67188,1.10938 -0.20312,0.625 -0.20312,1.34375 0,1.40625 0.76562,3.35937 h 3.46875 z m 18.375,-2.29688 V 229 h -3.28125 v 21 h -2.5625 v -8.4375 l -0.0469,-0.0156 -9.3125,6.29688 -1.35938,-2.07813 10.71875,-7.09375 q -1.03125,-0.85937 -1.78125,-1.45312 -0.73437,-0.59375 -1.3125,-0.95313 -0.57812,-0.375 -1.07812,-0.53125 -0.5,-0.17187 -1.03125,-0.17187 -0.45313,0 -1,0.125 -0.53125,0.125 -1.23438,0.375 -0.70312,0.23437 -1.57812,0.60937 -0.875,0.35938 -1.98438,0.84375 l -1.03125,-2.46875 q 1.125,-0.48437 2.04688,-0.85937 0.92187,-0.39063 1.6875,-0.64063 0.76562,-0.26562 1.39062,-0.39062 0.64063,-0.14063 1.1875,-0.14063 0.57813,0 1.14063,0.20313 0.57812,0.1875 1.23437,0.60937 0.67188,0.40625 1.46875,1.04688 0.8125,0.64062 1.875,1.53125 V 229 h -13.625 v -2.29688 z M 215.875,229 h -3.28125 v 21 h -2.54688 v -13.71875 h -5.07812 q -1.04688,0 -1.89063,0.14062 -0.84375,0.125 -1.4375,0.53125 -0.59375,0.39063 -0.92187,1.10938 -0.3125,0.70312 -0.3125,1.85937 0,1.5 0.48437,2.76563 0.5,1.26562 1.26563,2.32812 0.76562,1.04688 1.6875,1.9375 0.9375,0.89063 1.79687,1.64063 l -1.5625,1.78125 q -0.14062,-0.0781 -0.67187,-0.45313 -0.51563,-0.39062 -1.21875,-1.04687 -0.6875,-0.65625 -1.46875,-1.59375 -0.76563,-0.9375 -1.42188,-2.10938 -0.64062,-1.1875 -1.07812,-2.60937 -0.42188,-1.42188 -0.42188,-3.0625 0,-1.625 0.45313,-2.6875 0.46875,-1.07813 1.3125,-1.70313 0.84375,-0.64062 2.04687,-0.89062 1.20313,-0.25 2.6875,-0.25 h 5.75 V 229 h -14.84375 v -2.29688 H 215.875 Z m 4.39062,17.4375 -2.5,7.6875 h -1.82812 l 1.82812,-7.6875 z M 253.125,229 h -3.28125 v 21 h -2.5625 v -8.76563 h -8.59375 v 1.85938 q 0,0.48437 -0.0469,0.85937 -0.0312,0.375 -0.17187,0.625 -0.125,0.25 -0.375,0.39063 -0.23438,0.125 -0.64063,0.125 -0.40625,0 -0.90625,-0.23438 -0.5,-0.25 -1.01562,-0.65625 -0.51563,-0.42187 -1,-0.9375 -0.48438,-0.53125 -0.875,-1.09375 -0.375,-0.57812 -0.60938,-1.14062 -0.23437,-0.5625 -0.23437,-1.03125 0,-0.32813 0.10937,-0.53125 0.125,-0.21875 0.32813,-0.32813 0.21875,-0.10937 0.51562,-0.14062 0.29688,-0.0469 0.67188,-0.0469 h 1.6875 V 229 h -5.64063 v -2.29688 H 253.125 Z m -14.4375,0 v 9.95312 h 8.59375 V 229 Z m 33.875,0 h -3.28125 v 21 h -2.57813 v -12.04688 h -7.3125 q 0,1.03125 -0.0312,1.76563 -0.0156,0.73437 -0.125,1.21875 -0.10937,0.46875 -0.32812,0.6875 -0.21875,0.21875 -0.60938,0.21875 -0.8125,0 -1.54687,-0.53125 -0.71875,-0.53125 -1.28125,-1.28125 -0.54688,-0.75 -0.875,-1.5625 -0.32813,-0.8125 -0.32813,-1.375 0,-0.5 0.21875,-0.78125 0.21875,-0.28125 0.57813,-0.42188 0.35937,-0.14062 0.8125,-0.17187 0.46875,-0.0312 0.9375,-0.0312 h 9.89062 V 229 h -14.67187 v -2.29688 h 20.53125 z m 30.3125,0 h -3.28125 v 21 h -2.5625 v -8.76563 h -8.59375 v 1.85938 q 0,0.48437 -0.0469,0.85937 -0.0312,0.375 -0.17187,0.625 -0.125,0.25 -0.375,0.39063 -0.23438,0.125 -0.64063,0.125 -0.40625,0 -0.90625,-0.23438 -0.5,-0.25 -1.01562,-0.65625 -0.51563,-0.42187 -1,-0.9375 -0.48438,-0.53125 -0.875,-1.09375 -0.375,-0.57812 -0.60938,-1.14062 -0.23437,-0.5625 -0.23437,-1.03125 0,-0.32813 0.10937,-0.53125 0.125,-0.21875 0.32813,-0.32813 0.21875,-0.10937 0.51562,-0.14062 0.29688,-0.0469 0.67188,-0.0469 h 1.6875 V 229 h -5.64063 v -2.29688 H 302.875 Z m -14.4375,0 v 9.95312 h 8.59375 V 229 Z m 22.75,0 h -3.28125 v 21 h -2.5625 v -21 h -3.5625 v -2.29688 h 9.40625 z m -3.5,-1.85938 h -2.26563 L 304,224.46875 q -0.90625,-1.70313 -1.65625,-2.70313 -0.73438,-1 -1.39063,-1.51562 -0.67187,-0.53125 -1.3125,-0.67188 -0.64062,-0.15625 -1.34375,-0.15625 h -3.03125 v -2.53125 h 2.85938 q 0.90625,0 1.64062,0.15625 0.73438,0.14063 1.40625,0.53125 0.65625,0.375 1.28125,1.0625 0.64063,0.67188 1.35938,1.75 0.71875,1.0625 1.5625,2.5625 0.85937,1.48438 1.95312,3.51563 z m 14.40625,18.45313 q 0.51562,-0.15625 1.01562,-0.39063 0.51563,-0.23437 0.90625,-0.5625 0.40625,-0.34375 0.65625,-0.79687 0.25,-0.45313 0.25,-1.0625 0,-1.29688 -1.07812,-2.01563 -1.07813,-0.73437 -3.0625,-0.73437 -0.79688,0 -1.64063,0.17187 -0.82812,0.15625 -1.51562,0.59375 -0.6875,0.42188 -1.125,1.17188 -0.4375,0.73437 -0.4375,1.875 0,1.15625 0.45312,2.15625 0.45313,0.98437 1.17188,1.8125 0.73437,0.82812 1.64062,1.5 0.90625,0.67187 1.79688,1.1875 0.90625,0.51562 1.70312,0.85937 0.79688,0.35938 1.32813,0.5625 l -1.03125,2.15625 q -1.09375,-0.46875 -2.23438,-1.03125 -1.125,-0.54687 -2.1875,-1.21875 -1.0625,-0.65625 -2,-1.45312 -0.9375,-0.79688 -1.64062,-1.76563 -0.6875,-0.96875 -1.09375,-2.125 -0.39063,-1.15625 -0.39063,-2.51562 0,-1.32813 0.34375,-2.3125 0.35938,-1 0.98438,-1.75 -0.85938,-0.98438 -1.26563,-1.98438 -0.40625,-1 -0.40625,-2.17187 0,-0.67188 0.15625,-1.26563 0.17188,-0.59375 0.59375,-1.03125 0.4375,-0.45312 1.20313,-0.71875 0.76562,-0.26562 1.98437,-0.26562 H 324.25 V 229 h -14.15625 v -2.29688 h 20.35937 V 229 h -3.64062 v 5.75 h -8.98438 q -0.60937,0 -1.03125,0.10937 -0.40625,0.0937 -0.65625,0.29688 -0.25,0.20312 -0.35937,0.51562 -0.0937,0.29688 -0.0937,0.70313 0,0.54687 0.1875,1.0625 0.1875,0.51562 0.70312,1.15625 0.90625,-0.46875 1.98438,-0.6875 1.09375,-0.23438 2.28125,-0.23438 1.375,0 2.5625,0.3125 1.20312,0.3125 2.07812,0.95313 0.89063,0.625 1.39063,1.60937 0.51562,0.96875 0.51562,2.28125 0,1.26563 -0.4375,2.14063 -0.42187,0.875 -1.07812,1.46875 -0.64063,0.59375 -1.40625,0.96875 -0.76563,0.35937 -1.42188,0.59375 z M 358.07812,229 H 344.875 v 6.15625 l 0.0781,0.0312 q 0.79688,-1.09375 1.98438,-1.75 1.1875,-0.67188 2.60937,-0.67188 1.125,0 2.07813,0.46875 0.96875,0.45313 1.67187,1.26563 0.70313,0.79687 1.09375,1.89062 0.40625,1.09375 0.40625,2.35938 0,1.4375 -0.5,2.65625 -0.5,1.20312 -1.28125,2.1875 -0.78125,0.98437 -1.76562,1.75 -0.98438,0.75 -1.9375,1.28125 l -1.39063,-2.40625 q 0.3125,-0.17188 0.76563,-0.45313 0.45312,-0.28125 0.9375,-0.65625 0.5,-0.375 0.96875,-0.84375 0.48437,-0.48437 0.85937,-1.04687 0.39063,-0.5625 0.625,-1.21875 0.23438,-0.65625 0.23438,-1.39063 0,-0.67187 -0.21875,-1.28125 -0.20313,-0.60937 -0.57813,-1.0625 -0.375,-0.45312 -0.90625,-0.71875 -0.51562,-0.26562 -1.14062,-0.26562 -0.8125,0 -1.57813,0.42187 -0.76562,0.42188 -1.39062,1.0625 -0.625,0.625 -1.0625,1.34375 -0.42188,0.71875 -0.5625,1.32813 V 250 h -2.5625 v -5.98438 l -0.0625,-0.0312 q -0.23438,0.20313 -0.59375,0.5 -0.35938,0.28125 -0.875,0.54688 -0.5,0.26562 -1.17188,0.45312 -0.65625,0.1875 -1.48437,0.1875 -1.375,0 -2.54688,-0.53125 -1.15625,-0.53125 -2.01562,-1.4375 -0.84375,-0.92187 -1.32813,-2.15625 -0.48437,-1.23437 -0.48437,-2.64062 0,-1.34375 0.4375,-2.48438 0.45312,-1.14062 1.21875,-1.95312 0.78125,-0.82813 1.8125,-1.28125 1.04687,-0.46875 2.25,-0.46875 0.84375,0 1.5625,0.21875 0.73437,0.20312 1.32812,0.51562 0.60938,0.29688 1.07813,0.65625 0.48437,0.34375 0.8125,0.625 l 0.0625,-0.0156 V 229 h -12.95313 v -2.29688 h 28.71875 z m -20.23437,6.15625 q -0.89063,0 -1.57813,0.375 -0.67187,0.35937 -1.125,0.9375 -0.45312,0.5625 -0.6875,1.28125 -0.21875,0.70312 -0.21875,1.39062 0,0.75 0.26563,1.5 0.26562,0.73438 0.75,1.32813 0.5,0.59375 1.1875,0.96875 0.6875,0.35937 1.51562,0.35937 0.70313,0 1.46875,-0.28125 0.78125,-0.29687 1.42188,-0.90625 0.65625,-0.60937 1.07812,-1.54687 0.42188,-0.95313 0.42188,-2.26563 v -0.76562 q -0.375,-0.46875 -0.89063,-0.89063 -0.5,-0.4375 -1.09375,-0.76562 -0.57812,-0.32813 -1.21875,-0.51563 -0.64062,-0.20312 -1.29687,-0.20312 z m 24.625,11.28125 -2.5,7.6875 h -1.82813 l 1.82813,-7.6875 z m 34.35937,-19.73438 V 229 h -3.28125 v 21 h -2.59375 v -10.5 h -9.04687 q -0.82813,0.54687 -1.98438,0.65625 l -0.0312,0.0781 q 1.51563,2.375 3.32813,4.42188 1.8125,2.04687 4.125,3.79687 l -1.67188,1.92188 q -1.32812,-0.98438 -2.53125,-2.125 -1.1875,-1.14063 -2.25,-2.35938 -1.04687,-1.23437 -1.96875,-2.48437 -0.92187,-1.26563 -1.6875,-2.48438 -0.76562,-1.21875 -1.375,-2.34375 -0.60937,-1.14062 -1.0625,-2.10937 l 2.14063,-1.15625 q 0.29687,0.6875 0.57812,1.15625 0.29688,0.45312 0.59375,0.73437 0.29688,0.26563 0.625,0.39063 0.32813,0.10937 0.70313,0.10937 1.07812,0 1.57812,-0.84375 0.51563,-0.84375 0.51563,-2.21875 0,-0.8125 -0.15625,-1.59375 -0.15625,-0.79687 -0.40625,-1.51562 -0.23438,-0.73438 -0.51563,-1.375 -0.28125,-0.64063 -0.53125,-1.15625 h -7.23437 v -2.29688 z M 390.95312,229 H 382.625 q 0.65625,1.42187 1.03125,2.85937 0.375,1.4375 0.375,2.85938 0,0.65625 -0.10938,1.29687 -0.0937,0.625 -0.32812,1.1875 l 0.0312,0.0312 h 7.32812 z m -3.03125,21.46875 q 1,-0.625 2.21875,-0.96875 1.20313,-0.34375 2.29688,-0.34375 0.95312,0 1.78125,0.28125 0.8125,0.26562 1.42187,0.78125 0.60938,0.53125 0.95313,1.28125 0.34375,0.75 0.34375,1.6875 0,1 -0.40625,1.875 -0.39063,0.875 -1.1875,1.53125 -0.79688,0.65625 -1.96875,1.03125 -1.17188,0.39062 -2.71875,0.39062 -1.76563,0 -3.15625,-0.48437 -1.40625,-0.46875 -2.51563,-1.20313 -1.10937,-0.71875 -1.95312,-1.59375 -0.84375,-0.875 -1.48438,-1.65625 L 383,251.375 q 0.89062,0.96875 1.70312,1.75 0.8125,0.78125 1.6875,1.32812 0.875,0.5625 1.89063,0.85938 1,0.29687 2.26562,0.29687 1.07813,0 1.84375,-0.21875 0.75,-0.20312 1.23438,-0.54687 0.48437,-0.32813 0.70312,-0.76563 0.21875,-0.42187 0.21875,-0.85937 0,-0.79688 -0.59375,-1.26563 -0.60937,-0.46875 -1.64062,-0.46875 -0.67188,0 -1.54688,0.23438 -0.89062,0.23437 -1.79687,0.78125 z m 2.42188,-28.53125 q 0,-0.89063 0.53125,-1.4375 0.51562,-0.5625 1.35937,-0.5625 0.39063,0 0.75,0.15625 0.34375,0.15625 0.60938,0.4375 0.26562,0.26562 0.42187,0.64062 0.14063,0.35938 0.14063,0.79688 0,0.89062 -0.51563,1.4375 -0.53125,0.54687 -1.375,0.54687 -0.40625,0 -0.75,-0.14062 -0.35937,-0.15625 -0.60937,-0.42188 -0.26563,-0.28125 -0.40625,-0.64062 -0.15625,-0.375 -0.15625,-0.8125 z M 416.75,229 h -5.29688 v 6.85937 h -5.26562 q -2.45313,0 -3.70313,1.21875 -1.25,1.20313 -1.25,3.46875 0,1.28125 0.40625,2.26563 0.42188,0.98437 1.14063,1.65625 0.73437,0.65625 1.73437,1 1,0.34375 2.17188,0.34375 1.23437,0 1.98437,-0.375 -0.0625,-0.39063 -0.0937,-0.6875 -0.0312,-0.29688 -0.0312,-0.59375 0,-0.65625 0.15625,-1.34375 0.17188,-0.70313 0.5,-1.26563 0.34375,-0.57812 0.85938,-0.9375 0.53125,-0.35937 1.26562,-0.35937 0.45313,0 0.85938,0.15625 0.40625,0.15625 0.70312,0.48437 0.3125,0.3125 0.48438,0.79688 0.1875,0.48437 0.1875,1.125 0,0.64062 -0.17188,1.1875 -0.17187,0.53125 -0.45312,1 -0.26563,0.45312 -0.60938,0.85937 -0.34375,0.39063 -0.67187,0.71875 0.34375,0.75 0.71875,1.34375 0.39062,0.59375 0.79687,1.0625 0.42188,0.46875 0.84375,0.84375 0.42188,0.375 0.84375,0.70313 l -1.92187,2.01562 q -0.82813,-0.73437 -1.42188,-1.46875 -0.57812,-0.71875 -0.98437,-1.35937 -0.39063,-0.64063 -0.64063,-1.15625 -0.25,-0.51563 -0.40625,-0.82813 -1.07812,0.42188 -2.65625,0.42188 -2.03125,0 -3.54687,-0.65625 -1.51563,-0.67188 -2.53125,-1.78125 -1,-1.125 -1.5,-2.5625 -0.5,-1.4375 -0.5,-2.98438 0,-1.60937 0.51562,-2.82812 0.51563,-1.23438 1.4375,-2.0625 0.92188,-0.84375 2.1875,-1.26563 1.28125,-0.4375 2.79688,-0.4375 h 3.20312 V 229 h -13.15625 v -2.29688 H 416.75 Z m 15.64062,0 H 426.5 q 0.79687,1.375 1.28125,2.8125 0.5,1.42187 0.5,2.89062 0,1.10938 -0.34375,2.14063 -0.32813,1.01562 -0.98438,1.82812 -0.64062,0.79688 -1.60937,1.3125 -0.95313,0.5 -2.20313,0.5625 l -0.0312,0.0781 q 1.40625,2.1875 3.15625,4.14062 1.75,1.9375 4.04688,3.6875 l -1.67188,1.92188 q -1.32812,-0.98438 -2.53125,-2.125 -1.1875,-1.15625 -2.25,-2.375 -1.0625,-1.23438 -1.98437,-2.48438 -0.90625,-1.26562 -1.67188,-2.45312 -0.75,-1.20313 -1.34375,-2.29688 -0.59375,-1.10937 -1.01562,-2.01562 l 2.14062,-1.15625 q 0.5625,1.21875 1.26563,1.92187 0.71875,0.6875 1.65625,0.6875 0.67187,0 1.20312,-0.34375 0.53125,-0.34375 0.89063,-0.875 0.35937,-0.54687 0.54687,-1.1875 0.1875,-0.65625 0.1875,-1.28125 0,-0.73437 -0.1875,-1.4375 -0.1875,-0.71875 -0.48437,-1.39062 -0.29688,-0.6875 -0.67188,-1.32813 Q 424.03125,229.59375 423.6875,229 h -8.03125 v -2.29688 h 16.73437 z m 11.85938,7.1875 q 0.23437,0.73437 0.54687,1.60937 0.3125,0.85938 0.73438,1.75 0.4375,0.875 0.96875,1.70313 0.54687,0.82812 1.23437,1.46875 0.70313,0.64062 1.54688,1.03125 0.84375,0.375 1.875,0.375 1.01562,0 1.71875,-0.29688 0.70312,-0.29687 1.14062,-0.79687 0.4375,-0.5 0.625,-1.17188 0.20313,-0.67187 0.20313,-1.40625 0,-1.60937 -1.17188,-2.51562 -1.15625,-0.90625 -3.35937,-0.90625 -0.26563,0 -0.53125,0.0156 -0.26563,0.0156 -0.53125,0.0469 v -2.375 q 0.125,0.0156 0.21875,0.0156 0.10937,0 0.125,0 1.09375,0 1.9375,-0.26562 0.85937,-0.28125 1.4375,-0.75 0.57812,-0.46875 0.875,-1.09375 0.29687,-0.625 0.29687,-1.3125 0,-0.625 -0.21875,-1.10938 -0.21875,-0.48437 -0.59375,-0.8125 -0.375,-0.32812 -0.89062,-0.48437 -0.51563,-0.17188 -1.125,-0.17188 -0.42188,0 -0.8125,0.0625 -0.39063,0.0469 -0.82813,0.17188 -0.4375,0.10937 -0.9375,0.29687 -0.48437,0.1875 -1.10937,0.46875 l -0.89063,-2.14062 q 1.21875,-0.59375 2.34375,-0.89063 1.125,-0.3125 2.29688,-0.3125 1.125,0 2.07812,0.35938 0.96875,0.35937 1.65625,1 0.70313,0.625 1.09375,1.5 0.39063,0.875 0.39063,1.89062 0,2.79688 -2.67188,4.5 v 0.0625 q 1.04688,0.4375 1.75,1.07813 0.45313,0.0781 0.95313,0.125 0.51562,0.0469 0.9375,0.0469 0.4375,0 0.92187,-0.0625 0.48438,-0.0625 0.98438,-0.23437 0.51562,-0.17188 1.03125,-0.48438 0.53125,-0.3125 1.0625,-0.8125 v -8.65625 h 5.84375 V 229 H 464.125 v 21 h -2.5625 v -11.875 l -0.0625,-0.0156 q -0.89063,0.59375 -1.67188,0.78125 -0.78125,0.1875 -1.60937,0.1875 -0.26563,0 -0.54688,-0.0156 -0.28125,-0.0312 -0.57812,-0.0625 l -0.0156,0.0625 q 0.25,0.64062 0.25,1.57812 0,1.26563 -0.42187,2.34375 -0.42188,1.07813 -1.21875,1.875 -0.78125,0.78125 -1.90625,1.21875 -1.10938,0.4375 -2.5,0.4375 -1.48438,0 -2.6875,-0.51562 -1.1875,-0.53125 -2.15625,-1.35938 -0.95313,-0.82812 -1.67188,-1.85937 -0.71875,-1.04688 -1.23437,-2.09375 -0.51563,-1.04688 -0.84375,-1.98438 -0.32813,-0.95312 -0.48438,-1.57812 z M 475.71875,229 h -3.28125 v 21 h -2.5625 v -21 h -3.5625 v -2.29688 h 9.40625 z m 8.3125,0 H 480.75 v 21 h -2.5625 v -21 h -3.5625 v -2.29688 h 3.5625 q -0.85938,-2.0625 -0.85938,-3.84375 0,-1.14062 0.375,-2.125 0.375,-0.98437 1.14063,-1.70312 0.78125,-0.71875 1.98437,-1.125 1.20313,-0.40625 2.85938,-0.40625 2.17187,0 4.17187,0.70312 2.01563,0.70313 3.9375,1.95313 1.92188,1.25 3.79688,2.96875 1.89062,1.71875 3.8125,3.75 h -2.71875 q -0.4375,-0.42188 -1.17188,-1.09375 -0.71875,-0.6875 -1.67187,-1.45313 -0.95313,-0.78125 -2.10938,-1.5625 -1.15625,-0.79687 -2.4375,-1.4375 -1.28125,-0.64062 -2.67187,-1.03125 -1.375,-0.40625 -2.78125,-0.40625 -1.14063,0 -1.92188,0.26563 -0.76562,0.26562 -1.25,0.73437 Q 480.20312,221.35937 480,222 q -0.20313,0.625 -0.20313,1.34375 0,1.40625 0.76563,3.35937 h 3.46875 z m 23.71875,0 h -3.28125 v 21 h -2.5625 v -21 h -3.875 v 9.67187 q 0,1.625 -0.45313,2.79688 -0.4375,1.17187 -1.21875,1.9375 -0.76562,0.76562 -1.79687,1.14062 -1.03125,0.35938 -2.21875,0.35938 -1.32813,0 -2.40625,-0.42188 -1.0625,-0.42187 -1.8125,-1.25 -0.75,-0.82812 -1.15625,-2.04687 -0.40625,-1.23438 -0.40625,-2.82813 V 229 h -3.625 v -2.29688 H 507.75 Z m -18.59375,0 v 9.84375 q 0,0.71875 0.15625,1.39062 0.17187,0.65625 0.53125,1.17188 0.375,0.51562 0.96875,0.82812 0.60937,0.3125 1.48437,0.3125 0.89063,0 1.48438,-0.3125 0.60937,-0.3125 0.98437,-0.82812 0.375,-0.51563 0.53125,-1.17188 0.17188,-0.67187 0.17188,-1.39062 V 229 Z m 30.45312,7.1875 q 0.23438,0.73437 0.54688,1.60937 0.3125,0.85938 0.73437,1.75 0.4375,0.875 0.96875,1.70313 0.54688,0.82812 1.23438,1.46875 0.70312,0.64062 1.54687,1.03125 0.84375,0.375 1.875,0.375 1.01563,0 1.71875,-0.29688 0.70313,-0.29687 1.14063,-0.79687 0.4375,-0.5 0.625,-1.17188 0.20312,-0.67187 0.20312,-1.40625 0,-1.60937 -1.17187,-2.51562 -1.15625,-0.90625 -3.35938,-0.90625 -0.26562,0 -0.53125,0.0156 -0.26562,0.0156 -0.53125,0.0469 v -2.375 q 0.125,0.0156 0.21875,0.0156 0.10938,0 0.125,0 1.09375,0 1.9375,-0.26562 0.85938,-0.28125 1.4375,-0.75 0.57813,-0.46875 0.875,-1.09375 Q 529.5,232 529.5,231.3125 q 0,-0.625 -0.21875,-1.10938 -0.21875,-0.48437 -0.59375,-0.8125 -0.375,-0.32812 -0.89063,-0.48437 -0.51562,-0.17188 -1.125,-0.17188 -0.42187,0 -0.8125,0.0625 -0.39062,0.0469 -0.82812,0.17188 -0.4375,0.10937 -0.9375,0.29687 -0.48438,0.1875 -1.10938,0.46875 l -0.89062,-2.14062 q 1.21875,-0.59375 2.34375,-0.89063 1.125,-0.3125 2.29687,-0.3125 1.125,0 2.07813,0.35938 0.96875,0.35937 1.65625,1 0.70312,0.625 1.09375,1.5 0.39062,0.875 0.39062,1.89062 0,2.79688 -2.67187,4.5 v 0.0625 q 1.04687,0.4375 1.75,1.07813 0.45312,0.0781 0.95312,0.125 0.51563,0.0469 0.9375,0.0469 0.4375,0 0.92188,-0.0625 0.48437,-0.0625 0.98437,-0.23437 0.51563,-0.17188 1.03125,-0.48438 0.53125,-0.3125 1.0625,-0.8125 v -8.65625 h 5.84375 V 229 h -3.28125 v 21 h -2.5625 v -11.875 l -0.0625,-0.0156 q -0.89062,0.59375 -1.67187,0.78125 -0.78125,0.1875 -1.60938,0.1875 -0.26562,0 -0.54687,-0.0156 Q 532.75,239.03125 532.45312,239 l -0.0156,0.0625 q 0.25,0.64062 0.25,1.57812 0,1.26563 -0.42188,2.34375 -0.42187,1.07813 -1.21875,1.875 -0.78125,0.78125 -1.90625,1.21875 -1.10937,0.4375 -2.5,0.4375 -1.48437,0 -2.6875,-0.51562 -1.1875,-0.53125 -2.15625,-1.35938 -0.95312,-0.82812 -1.67187,-1.85937 -0.71875,-1.04688 -1.23438,-2.09375 -0.51562,-1.04688 -0.84375,-1.98438 Q 517.71875,237.75 517.5625,237.125 Z M 562.6875,229 h -5.29688 v 6.85937 H 552.125 q -2.45313,0 -3.70313,1.21875 -1.25,1.20313 -1.25,3.46875 0,1.28125 0.40625,2.26563 0.42188,0.98437 1.14063,1.65625 0.73437,0.65625 1.73437,1 1,0.34375 2.17188,0.34375 1.23437,0 1.98437,-0.375 -0.0625,-0.39063 -0.0937,-0.6875 -0.0312,-0.29688 -0.0312,-0.59375 0,-0.65625 0.15625,-1.34375 0.17188,-0.70313 0.5,-1.26563 0.34375,-0.57812 0.85938,-0.9375 0.53125,-0.35937 1.26562,-0.35937 0.45313,0 0.85938,0.15625 0.40625,0.15625 0.70312,0.48437 0.3125,0.3125 0.48438,0.79688 0.1875,0.48437 0.1875,1.125 0,0.64062 -0.17188,1.1875 -0.17187,0.53125 -0.45312,1 -0.26563,0.45312 -0.60938,0.85937 -0.34375,0.39063 -0.67187,0.71875 0.34375,0.75 0.71875,1.34375 0.39062,0.59375 0.79687,1.0625 0.42188,0.46875 0.84375,0.84375 0.42188,0.375 0.84375,0.70313 l -1.92187,2.01562 q -0.82813,-0.73437 -1.42188,-1.46875 -0.57812,-0.71875 -0.98437,-1.35937 -0.39063,-0.64063 -0.64063,-1.15625 -0.25,-0.51563 -0.40625,-0.82813 -1.07812,0.42188 -2.65625,0.42188 -2.03125,0 -3.54687,-0.65625 -1.51563,-0.67188 -2.53125,-1.78125 -1,-1.125 -1.5,-2.5625 -0.5,-1.4375 -0.5,-2.98438 0,-1.60937 0.51562,-2.82812 0.51563,-1.23438 1.4375,-2.0625 0.92188,-0.84375 2.1875,-1.26563 1.28125,-0.4375 2.79688,-0.4375 h 3.20312 V 229 h -13.15625 v -2.29688 h 21.01563 z m -5.32813,29.01562 -6.21875,-5.79687 1.53125,-1.71875 6.26563,5.75 z M 585.625,229 h -3.28125 v 21 h -2.5625 v -8.76563 h -8.20313 v 2.23438 q 0,0.23437 -0.0469,0.5 -0.0312,0.26562 -0.15625,0.5 -0.10938,0.21875 -0.3125,0.375 -0.1875,0.14062 -0.48438,0.14062 -0.35937,0 -0.85937,-0.21875 -0.48438,-0.23437 -1.01563,-0.60937 -0.51562,-0.39063 -1.03125,-0.875 -0.5,-0.5 -0.90625,-1.03125 -0.39062,-0.53125 -0.64062,-1.0625 -0.25,-0.53125 -0.25,-0.98438 0,-0.65625 0.46875,-0.95312 0.46875,-0.29688 1.23437,-0.29688 h 1.51563 V 230.375 q 0,-0.8125 -0.39063,-1.23438 -0.39062,-0.4375 -0.98437,-0.4375 -0.65625,0 -1.10938,0.48438 -0.4375,0.48437 -0.4375,1.23437 0,0.14063 0.0312,0.34375 0.0312,0.20313 0.15625,0.46875 0.125,0.25 0.375,0.57813 0.25,0.3125 0.67188,0.67187 l -1.39063,1.70313 q -0.71875,-0.39063 -1.17187,-0.85938 -0.45313,-0.48437 -0.70313,-0.98437 -0.25,-0.5 -0.34375,-0.96875 -0.0937,-0.48438 -0.0937,-0.89063 0,-0.75 0.25,-1.46875 0.26563,-0.73437 0.78125,-1.3125 0.51563,-0.59375 1.28125,-0.95312 0.78125,-0.35938 1.8125,-0.35938 0.90625,0 1.60938,0.29688 0.70312,0.29687 1.17187,0.85937 0.48438,0.54688 0.71875,1.32813 0.25,0.76562 0.25,1.71875 v 8.35937 h 8.20313 v -12.25 h 5.84375 z m -8.90625,21.46875 q 1,-0.625 2.21875,-0.96875 1.20312,-0.34375 2.29687,-0.34375 0.95313,0 1.78125,0.28125 0.8125,0.26562 1.42188,0.78125 0.60937,0.53125 0.95312,1.28125 0.34375,0.75 0.34375,1.6875 0,1 -0.40625,1.875 -0.39062,0.875 -1.1875,1.53125 -0.79687,0.65625 -1.96875,1.03125 -1.17187,0.39062 -2.71875,0.39062 -1.76562,0 -3.15625,-0.48437 -1.40625,-0.46875 -2.51562,-1.20313 -1.10938,-0.71875 -1.95313,-1.59375 -0.84375,-0.875 -1.48437,-1.65625 l 1.45312,-1.70312 q 0.89063,0.96875 1.70313,1.75 0.8125,0.78125 1.6875,1.32812 0.875,0.5625 1.89062,0.85938 1,0.29687 2.26563,0.29687 1.07812,0 1.84375,-0.21875 0.75,-0.20312 1.23437,-0.54687 0.48438,-0.32813 0.70313,-0.76563 0.21875,-0.42187 0.21875,-0.85937 0,-0.79688 -0.59375,-1.26563 -0.60938,-0.46875 -1.64063,-0.46875 -0.67187,0 -1.54687,0.23438 -0.89063,0.23437 -1.79688,0.78125 z M 605.20312,229 h -3.28125 v 21 H 599.375 v -13.71875 h -5.07813 q -1.04687,0 -1.89062,0.14062 -0.84375,0.125 -1.4375,0.53125 -0.59375,0.39063 -0.92188,1.10938 -0.3125,0.70312 -0.3125,1.85937 0,1.5 0.48438,2.76563 0.5,1.26562 1.26562,2.32812 0.76563,1.04688 1.6875,1.9375 0.9375,0.89063 1.79688,1.64063 l -1.5625,1.78125 q -0.14063,-0.0781 -0.67188,-0.45313 -0.51562,-0.39062 -1.21875,-1.04687 -0.6875,-0.65625 -1.46875,-1.59375 -0.76562,-0.9375 -1.42187,-2.10938 -0.64063,-1.1875 -1.07813,-2.60937 -0.42187,-1.42188 -0.42187,-3.0625 0,-1.625 0.45312,-2.6875 0.46875,-1.07813 1.3125,-1.70313 0.84375,-0.64062 2.04688,-0.89062 1.20312,-0.25 2.6875,-0.25 h 5.75 V 229 h -14.84375 v -2.29688 h 20.67187 z m 30.3125,0 h -3.28125 v 21 h -2.5625 v -8.76563 h -8.59375 v 1.85938 q 0,0.48437 -0.0469,0.85937 -0.0312,0.375 -0.17188,0.625 -0.125,0.25 -0.375,0.39063 -0.23437,0.125 -0.64062,0.125 -0.40625,0 -0.90625,-0.23438 -0.5,-0.25 -1.01563,-0.65625 -0.51562,-0.42187 -1,-0.9375 -0.48437,-0.53125 -0.875,-1.09375 -0.375,-0.57812 -0.60937,-1.14062 -0.23438,-0.5625 -0.23438,-1.03125 0,-0.32813 0.10938,-0.53125 0.125,-0.21875 0.32812,-0.32813 0.21875,-0.10937 0.51563,-0.14062 0.29687,-0.0469 0.67187,-0.0469 h 1.6875 V 229 H 612.875 v -2.29688 h 22.64062 z m -14.4375,0 v 9.95312 h 8.59375 V 229 Z m 22.75,0 h -3.28125 v 21 h -2.5625 v -21 h -3.5625 v -2.29688 h 9.40625 z m 23.71875,0 h -3.28125 v 21 h -2.5625 v -21 h -3.875 v 9.67187 q 0,1.625 -0.45312,2.79688 -0.4375,1.17187 -1.21875,1.9375 -0.76563,0.76562 -1.79688,1.14062 -1.03125,0.35938 -2.21875,0.35938 -1.32812,0 -2.40625,-0.42188 -1.0625,-0.42187 -1.8125,-1.25 -0.75,-0.82812 -1.15625,-2.04687 -0.40625,-1.23438 -0.40625,-2.82813 V 229 h -3.625 v -2.29688 h 24.8125 z m -18.59375,0 v 9.84375 q 0,0.71875 0.15625,1.39062 0.17188,0.65625 0.53125,1.17188 0.375,0.51562 0.96875,0.82812 0.60938,0.3125 1.48438,0.3125 0.89062,0 1.48437,-0.3125 0.60938,-0.3125 0.98438,-0.82812 0.375,-0.51563 0.53125,-1.17188 0.17187,-0.67187 0.17187,-1.39062 V 229 Z m 15.09375,-1.85938 h -2.26562 l -1.42188,-2.67187 q -0.90625,-1.70313 -1.64062,-2.70313 -0.75,-1 -1.40625,-1.51562 -0.67188,-0.53125 -1.3125,-0.67188 -0.64063,-0.15625 -1.34375,-0.15625 H 651.625 v -2.53125 h 2.85937 q 0.90625,0 1.64063,0.15625 0.73437,0.14063 1.40625,0.53125 0.65625,0.375 1.29687,1.0625 0.625,0.67188 1.34375,1.75 0.71875,1.0625 1.57813,2.5625 0.84375,1.48438 1.9375,3.51563 z m 6.4375,23.20313 q -0.71875,0 -1.23437,-0.51563 -0.5,-0.51562 -0.5,-1.23437 0,-0.71875 0.5,-1.23438 0.51562,-0.53125 1.23437,-0.53125 0.73438,0 1.25,0.53125 0.51563,0.51563 0.51563,1.23438 0,0.71875 -0.51563,1.23437 -0.51562,0.51563 -1.25,0.51563 z"
         id="path7" />
    </g>
  </g>
</svg>
