<?xml version="1.0" encoding="UTF-8" standalone="no"?>
<svg
   width="800"
   height="600"
   version="1.1"
   id="svg4"
   sodipodi:docname="suresh_nature.svg"
   xmlns:inkscape="http://www.inkscape.org/namespaces/inkscape"
   xmlns:sodipodi="http://sodipodi.sourceforge.net/DTD/sodipodi-0.dtd"
   xmlns="http://www.w3.org/2000/svg"
   xmlns:svg="http://www.w3.org/2000/svg">
  <sodipodi:namedview
     id="namedview4"
     pagecolor="#ffffff"
     bordercolor="#666666"
     borderopacity="1.0"
     inkscape:showpageshadow="2"
     inkscape:pageopacity="0.0"
     inkscape:pagecheckerboard="0"
     inkscape:deskcolor="#d1d1d1" />
  <defs
     id="defs1">
    <style
       type="text/css"
       id="style1">
      @font-face {{
        font-family: 'Kalam';
        src: url('AxiDraw_API(1)/Kalam-Regular.ttf');
      }}
    </style>
  </defs>
  <g
     id="g4">
    <g
       id="text4"
       style="font-size:32px;font-family:Kalam"
       aria-label="सुरेश गेला निसर्गाच्या कुशीत,शांत मन झाले त्याचे शुद्धीत.पावसाचे गाणे ऐकत,आनंदाने मन भरले त्याचे, मीठ.">
      <path
         d="M 73.59375,76.703125 V 79 H 70.3125 v 21 H 67.71875 V 89.5 H 58.671875 Q 57.84375,90.046875 56.6875,90.15625 l -0.03125,0.07813 q 1.515625,2.375 3.328125,4.421875 1.8125,2.046875 4.125,3.796875 L 62.4375,100.375 q -1.328125,-0.984375 -2.53125,-2.125 -1.1875,-1.140625 -2.25,-2.359375 Q 56.609375,94.65625 55.6875,93.40625 54.765625,92.140625 54,90.921875 53.234375,89.703125 52.625,88.578125 52.015625,87.4375 51.5625,86.46875 L 53.703125,85.3125 Q 54,86 54.28125,86.46875 q 0.296875,0.453125 0.59375,0.734375 0.296875,0.265625 0.625,0.390625 0.328125,0.109375 0.703125,0.109375 1.078125,0 1.578125,-0.84375 0.515625,-0.84375 0.515625,-2.21875 0,-0.8125 -0.15625,-1.59375 Q 57.984375,82.25 57.734375,81.53125 57.5,80.796875 57.21875,80.15625 56.9375,79.515625 56.6875,79 H 49.453125 V 76.703125 Z M 67.71875,79 h -8.328125 q 0.65625,1.421875 1.03125,2.859375 0.375,1.4375 0.375,2.859375 0,0.65625 -0.109375,1.296875 -0.09375,0.625 -0.328125,1.1875 l 0.03125,0.03125 h 7.328125 z m -3.03125,21.46875 q 1,-0.625 2.21875,-0.96875 1.203125,-0.34375 2.296875,-0.34375 0.953125,0 1.78125,0.28125 0.8125,0.265625 1.421875,0.78125 0.609375,0.53125 0.953125,1.28125 0.34375,0.75 0.34375,1.6875 0,1 -0.40625,1.875 -0.390625,0.875 -1.1875,1.53125 -0.796875,0.65625 -1.96875,1.03125 -1.171875,0.39063 -2.71875,0.39063 -1.765625,0 -3.15625,-0.48438 -1.40625,-0.46875 -2.515625,-1.20312 -1.109375,-0.71875 -1.953125,-1.59375 -0.84375,-0.875 -1.484375,-1.65625 l 1.453125,-1.70313 q 0.890625,0.96875 1.703125,1.75 0.8125,0.78125 1.6875,1.32813 0.875,0.5625 1.890625,0.85937 1,0.29688 2.265625,0.29688 1.078125,0 1.84375,-0.21875 0.75,-0.20313 1.234375,-0.54688 0.484375,-0.32812 0.703125,-0.76562 0.21875,-0.42188 0.21875,-0.85938 0,-0.79687 -0.59375,-1.26562 -0.609375,-0.46875 -1.640625,-0.46875 -0.671875,0 -1.546875,0.23437 -0.890625,0.23438 -1.796875,0.78125 z M 89.234375,79 H 83.34375 q 0.796875,1.375 1.28125,2.8125 0.5,1.421875 0.5,2.890625 0,1.109375 -0.34375,2.140625 -0.328125,1.015625 -0.984375,1.828125 -0.640625,0.796875 -1.609375,1.3125 -0.953125,0.5 -2.203125,0.5625 l -0.03125,0.07813 q 1.40625,2.1875 3.15625,4.140625 1.75,1.9375 4.046875,3.6875 L 85.484375,100.375 q -1.328125,-0.984375 -2.53125,-2.125 -1.1875,-1.15625 -2.25,-2.375 -1.0625,-1.234375 -1.984375,-2.484375 Q 77.8125,92.125 77.046875,90.9375 q -0.75,-1.203125 -1.34375,-2.296875 Q 75.109375,87.53125 74.6875,86.625 l 2.140625,-1.15625 q 0.5625,1.21875 1.265625,1.921875 0.71875,0.6875 1.65625,0.6875 0.671875,0 1.203125,-0.34375 0.53125,-0.34375 0.890625,-0.875 0.359375,-0.546875 0.546875,-1.1875 0.1875,-0.65625 0.1875,-1.28125 0,-0.734375 -0.1875,-1.4375 Q 82.203125,82.234375 81.90625,81.5625 81.609375,80.875 81.234375,80.234375 80.875,79.59375 80.53125,79 H 72.5 V 76.703125 H 89.234375 Z M 82.96875,77.140625 H 80.703125 L 79.28125,74.46875 q -0.90625,-1.703125 -1.640625,-2.703125 -0.75,-1 -1.40625,-1.515625 -0.671875,-0.53125 -1.3125,-0.671875 -0.640625,-0.15625 -1.34375,-0.15625 h -3.03125 v -2.53125 h 2.859375 q 0.90625,0 1.640625,0.15625 0.734375,0.140625 1.40625,0.53125 0.65625,0.375 1.296875,1.0625 0.625,0.671875 1.34375,1.75 0.71875,1.0625 1.578125,2.5625 0.84375,1.484375 1.9375,3.515625 z M 98.828125,87.5 q -0.28125,0.03125 -0.53125,0.0625 -0.25,0.01563 -0.515625,0.01563 -1.265625,0 -2.296875,-0.453125 -1.015625,-0.453125 -1.75,-1.21875 -0.71875,-0.765625 -1.109375,-1.765625 -0.390625,-1.015625 -0.390625,-2.125 0,-0.796875 0.21875,-1.546875 0.21875,-0.75 0.6875,-1.40625 L 93.125,79 H 88.140625 V 76.703125 H 114.26563 V 79 h -3.28125 v 21 h -2.5625 V 79 h -5.89063 l -0.0156,0.0625 q 0.40625,0.40625 0.75,0.984375 0.34375,0.5625 0.57812,1.234375 0.25,0.671875 0.39063,1.40625 0.14062,0.734375 0.14062,1.484375 0,1.21875 -0.39062,2.359375 -0.375,1.140625 -1.07813,2.15625 -0.6875,1.015625 -1.67187,1.890625 -0.96875,0.859375 -2.156255,1.53125 v 0.0625 q 0.78125,0.609375 1.671875,1.46875 0.89063,0.84375 1.76563,1.765625 0.875,0.921875 1.65625,1.84375 0.78125,0.90625 1.34375,1.65625 l -1.76563,1.48438 q -0.48437,-0.60938 -1.21875,-1.48438 -0.73437,-0.890625 -1.64062,-1.84375 -0.906255,-0.96875 -1.968755,-1.921875 -1.046875,-0.96875 -2.1875,-1.75 -0.5625,0.265625 -1.1875,0.390625 -0.609375,0.125 -1.21875,0.125 -0.703125,0 -1.359375,-0.171875 -0.640625,-0.171875 -1.15625,-0.5 -0.5,-0.328125 -0.796875,-0.796875 -0.296875,-0.484375 -0.296875,-1.109375 0,-0.984375 0.71875,-1.515625 0.734375,-0.546875 1.90625,-0.546875 0.859375,0 1.734375,0.3125 0.890625,0.296875 1.734375,0.90625 0.4375,-0.09375 0.984375,-0.328125 0.546875,-0.25 1.109375,-0.625 0.578125,-0.390625 1.10938,-0.90625 0.54687,-0.53125 0.96875,-1.203125 0.42187,-0.671875 0.67187,-1.46875 0.26563,-0.8125 0.26563,-1.75 0,-0.9375 -0.28125,-1.84375 -0.26563,-0.90625 -0.79688,-1.609375 -0.53125,-0.71875 -1.328125,-1.15625 -0.796875,-0.4375 -1.84375,-0.4375 -0.828125,0 -1.375,0.265625 -0.546875,0.25 -0.890625,0.65625 -0.34375,0.40625 -0.484375,0.90625 -0.140625,0.484375 -0.140625,0.953125 0,0.609375 0.21875,1.203125 0.21875,0.578125 0.640625,1.046875 0.4375,0.453125 1.078125,0.734375 0.640625,0.28125 1.46875,0.28125 0.265625,0 0.640625,-0.04687 z M 142.98437,79 h -3.28125 v 21 h -2.5625 V 79 h -7.04687 v 12.125 q 0,0.25 -0.0312,0.578125 -0.0312,0.328125 -0.15625,0.640625 -0.10938,0.296875 -0.32813,0.515625 -0.21875,0.203125 -0.60937,0.203125 -0.42188,0 -0.9375,-0.265625 -0.5,-0.28125 -1.03125,-0.71875 -0.53125,-0.453125 -1.03125,-1.015625 -0.48437,-0.5625 -0.875,-1.15625 -0.39062,-0.59375 -0.625,-1.15625 -0.23437,-0.5625 -0.23437,-1 0,-0.390625 0.1875,-0.625 0.20312,-0.234375 0.54687,-0.359375 0.35938,-0.125 0.85938,-0.15625 0.51562,-0.03125 1.125,-0.03125 H 127.5 V 79 h -5.5625 v -2.296875 h 21.04687 z m -3.5,-1.859375 h -2.26562 l -1.42188,-2.671875 q -0.90625,-1.703125 -1.64062,-2.703125 -0.75,-1 -1.40625,-1.515625 -0.67188,-0.53125 -1.3125,-0.671875 -0.64063,-0.15625 -1.34375,-0.15625 h -3.03125 v -2.53125 h 2.85937 q 0.90625,0 1.64063,0.15625 0.73437,0.140625 1.40625,0.53125 0.65625,0.375 1.29687,1.0625 0.625,0.671875 1.34375,1.75 0.71875,1.0625 1.57813,2.5625 0.84375,1.484375 1.9375,3.515625 z M 165.84375,79 h -3.28125 v 21.01563 H 160 V 85.375 q -0.82813,-0.296875 -1.5625,-0.296875 -0.73438,0 -1.28125,0.28125 -0.54688,0.265625 -0.92188,0.71875 -0.35937,0.453125 -0.54687,1.0625 Q 155.5,87.75 155.5,88.421875 q 0,0.265625 0.0156,0.546875 0.0312,0.265625 0.0625,0.53125 h -2.39062 q -0.125,-0.90625 -0.29688,-1.734375 -0.15625,-0.828125 -0.46875,-1.453125 -0.29687,-0.625 -0.78125,-0.984375 -0.48437,-0.375 -1.25,-0.375 -0.73437,0 -1.26562,0.296875 -0.51563,0.296875 -0.85938,0.828125 -0.34375,0.53125 -0.51562,1.25 -0.15625,0.703125 -0.15625,1.53125 0,1.78125 0.60937,3.203125 0.60938,1.40625 1.64063,2.53125 1.04687,1.125 2.40625,2.015625 1.375,0.875 2.89062,1.609375 L 153.875,100.375 q -0.5625,-0.25 -1.45313,-0.75 -0.875,-0.5 -1.875,-1.234375 -0.98437,-0.734375 -1.98437,-1.71875 -1,-0.984375 -1.8125,-2.203125 -0.79688,-1.21875 -1.29688,-2.6875 -0.5,-1.46875 -0.5,-3.171875 0,-1.3125 0.375,-2.4375 0.375,-1.140625 1.0625,-1.96875 0.70313,-0.84375 1.6875,-1.3125 0.98438,-0.484375 2.1875,-0.484375 0.90625,0 1.5625,0.265625 0.65625,0.25 1.125,0.640625 0.48438,0.375 0.79688,0.828125 0.3125,0.4375 0.54687,0.828125 l 0.0781,-0.01563 q 0.29687,-0.65625 0.70312,-1.109375 0.42188,-0.453125 0.90625,-0.734375 0.5,-0.28125 1.04688,-0.40625 0.54687,-0.140625 1.09375,-0.140625 0.48437,0 0.95312,0.09375 0.48438,0.07813 0.92188,0.234375 V 79 h -18.10938 v -2.296875 h 23.95313 z m 8.3125,0 H 170.875 v 21 h -2.5625 V 79 H 164.75 v -2.296875 h 9.40625 z m 17.07812,0 h -3.28125 v 21 h -2.5625 V 79 h -3.5625 v -2.296875 h 3.5625 q -0.85937,-2.0625 -0.85937,-3.84375 0,-1.140625 0.375,-2.125 0.375,-0.984375 1.14062,-1.703125 0.78125,-0.71875 1.98438,-1.125 1.20312,-0.40625 2.85937,-0.40625 2.17188,0 4.17188,0.703125 2.01562,0.703125 3.9375,1.953125 1.92187,1.25 3.79687,2.96875 1.89063,1.71875 3.8125,3.75 h -2.71875 q -0.4375,-0.421875 -1.17187,-1.09375 -0.71875,-0.6875 -1.67188,-1.453125 -0.95312,-0.78125 -2.10937,-1.5625 -1.15625,-0.796875 -2.4375,-1.4375 -1.28125,-0.640625 -2.67188,-1.03125 -1.375,-0.40625 -2.78125,-0.40625 -1.14062,0 -1.92187,0.265625 -0.76563,0.265625 -1.25,0.734375 Q 187.40625,71.359375 187.20312,72 187,72.625 187,73.34375 q 0,1.40625 0.76562,3.359375 h 3.46875 z m 19.4375,0 h -3.28125 v 21 H 204.8125 V 87.953125 H 197.5 q 0,1.03125 -0.0312,1.765625 -0.0156,0.734375 -0.125,1.21875 -0.10938,0.46875 -0.32813,0.6875 -0.21875,0.21875 -0.60937,0.21875 -0.8125,0 -1.54688,-0.53125 -0.71875,-0.53125 -1.28125,-1.28125 -0.54687,-0.75 -0.875,-1.5625 -0.32812,-0.8125 -0.32812,-1.375 0,-0.5 0.21875,-0.78125 0.21875,-0.28125 0.57812,-0.421875 0.35938,-0.140625 0.8125,-0.171875 0.46875,-0.03125 0.9375,-0.03125 h 9.89063 V 79 h -14.67188 v -2.296875 h 20.53125 z m 23.04688,-2.296875 V 79 h -3.28125 v 21 h -2.59375 V 89.5 h -9.04688 q -0.82812,0.546875 -1.98437,0.65625 l -0.0312,0.07813 q 1.51562,2.375 3.32812,4.421875 1.8125,2.046875 4.125,3.796875 L 222.5625,100.375 q -1.32813,-0.984375 -2.53125,-2.125 -1.1875,-1.140625 -2.25,-2.359375 -1.04688,-1.234375 -1.96875,-2.484375 -0.92188,-1.265625 -1.6875,-2.484375 -0.76563,-1.21875 -1.375,-2.34375 -0.60938,-1.140625 -1.0625,-2.109375 l 2.14062,-1.15625 q 0.29688,0.6875 0.57813,1.15625 0.29687,0.453125 0.59375,0.734375 0.29687,0.265625 0.625,0.390625 0.32812,0.109375 0.70312,0.109375 1.07813,0 1.57813,-0.84375 0.51562,-0.84375 0.51562,-2.21875 0,-0.8125 -0.15625,-1.59375 Q 218.10937,82.25 217.85937,81.53125 217.625,80.796875 217.34375,80.15625 217.0625,79.515625 216.8125,79 h -7.23438 V 76.703125 Z M 227.84375,79 h -8.32813 q 0.65625,1.421875 1.03125,2.859375 0.375,1.4375 0.375,2.859375 0,0.65625 -0.10937,1.296875 -0.0937,0.625 -0.32813,1.1875 l 0.0312,0.03125 h 7.32813 z m 25.82812,0 h -3.28125 v 21 h -2.5625 V 79 h -7.04687 v 12.125 q 0,0.25 -0.0312,0.578125 -0.0312,0.328125 -0.15625,0.640625 -0.10938,0.296875 -0.32813,0.515625 -0.21875,0.203125 -0.60937,0.203125 -0.42188,0 -0.9375,-0.265625 -0.5,-0.28125 -1.03125,-0.71875 -0.53125,-0.453125 -1.03125,-1.015625 -0.48438,-0.5625 -0.875,-1.15625 -0.39063,-0.59375 -0.625,-1.15625 -0.23438,-0.5625 -0.23438,-1 0,-0.390625 0.1875,-0.625 0.20313,-0.234375 0.54688,-0.359375 0.35937,-0.125 0.85937,-0.15625 0.51563,-0.03125 1.125,-0.03125 h 0.54688 V 79 h -5.5625 v -2.296875 h 21.04687 z m 8.3125,0 h -3.28125 v 21 h -2.5625 V 79 h -3.5625 v -2.296875 h 9.40625 z M 261.25,69.875 Q 260.5625,69.09375 259.96875,68.734375 259.375,68.375 258.57812,68.375 q -1.21875,0 -1.95312,0.84375 -0.73438,0.828125 -0.73438,2.34375 0,0.625 0.14063,1.3125 0.14062,0.671875 0.40625,1.359375 0.26562,0.6875 0.65625,1.359375 0.39062,0.671875 0.89062,1.28125 h -2.59375 q -0.9375,-1.328125 -1.40625,-2.71875 -0.46875,-1.40625 -0.46875,-2.734375 0,-1.28125 0.42188,-2.296875 0.40625,-1.015625 1.09375,-1.703125 0.6875,-0.6875 1.60937,-1.046875 Q 257.54687,66 258.5625,66 q 1.35937,0 2.42187,0.546875 1.07813,0.53125 2.01563,1.71875 z M 274.96875,79 h -14.07813 v -2.296875 h 14.07813 z m 3.75,13.453125 q -1.09375,1.125 -2.10938,1.765625 -1,0.640625 -1.85937,0.953125 -0.84375,0.3125 -1.5,0.390625 -0.64063,0.0625 -1.01563,0.0625 -1.4375,0 -2.54687,-0.453125 -1.10938,-0.453125 -1.85938,-1.1875 -0.75,-0.75 -1.14062,-1.703125 -0.39063,-0.96875 -0.39063,-2 0,-1.078125 0.4375,-2.140625 0.45313,-1.0625 1.40625,-1.90625 l -0.0156,-0.0625 h -4.95313 V 83.875 h 12.25 v 2.296875 H 274.125 q -1.60938,0 -2.64063,0.421875 -1.03125,0.421875 -1.625,1.03125 -0.59375,0.609375 -0.82812,1.3125 -0.21875,0.6875 -0.21875,1.25 0,0.46875 0.15625,1.015625 0.15625,0.53125 0.51562,0.984375 0.375,0.453125 0.98438,0.75 0.625,0.296875 1.5625,0.296875 0.98437,0 1.82812,-0.3125 0.85938,-0.328125 1.57813,-0.828125 0.71875,-0.5 1.29687,-1.109375 Q 277.32812,90.375 277.75,89.78125 Z M 295.1875,79 h -3.28125 v 21 h -2.5625 v -7.3125 l -0.0625,-0.01563 q -0.42188,0.34375 -1.01563,0.6875 -0.57812,0.328125 -1.29687,0.59375 -0.71875,0.25 -1.54688,0.421875 -0.82812,0.15625 -1.73437,0.15625 -1.8125,0 -3.10938,-0.65625 -1.28125,-0.65625 -2.15625,-1.75 -0.85937,-1.109375 -1.35937,-2.515625 -0.5,-1.421875 -0.71875,-2.953125 1.03125,-0.140625 1.76562,-0.484375 0.73438,-0.34375 1.1875,-0.8125 0.45313,-0.484375 0.65625,-1.046875 0.21875,-0.5625 0.21875,-1.125 0,-0.375 -0.0781,-0.84375 -0.0625,-0.46875 -0.23438,-1 -0.17187,-0.546875 -0.45312,-1.140625 Q 279.125,79.609375 278.70312,79 h -4.51562 v -2.296875 h 21 z m -13.71875,0 q 0.5625,0.953125 0.875,2.09375 0.32812,1.125 0.32812,2.21875 0,0.796875 -0.21875,1.546875 -0.20312,0.75 -0.64062,1.40625 -0.4375,0.640625 -1.09375,1.15625 -0.64063,0.5 -1.5,0.796875 0.25,1.046875 0.6875,1.796875 0.4375,0.734375 1.03125,1.21875 0.59375,0.46875 1.32812,0.6875 0.73438,0.21875 1.57813,0.21875 0.8125,0 1.59375,-0.1875 0.79687,-0.1875 1.5,-0.53125 0.71875,-0.359375 1.32812,-0.859375 0.60938,-0.5 1.07813,-1.125 V 79 Z M 303.5,79 h -3.28125 v 21 h -2.5625 V 79 h -3.5625 V 76.703125 H 303.5 Z m 36.39062,0 H 326.6875 v 6.15625 l 0.0781,0.03125 q 0.79688,-1.09375 1.98438,-1.75 1.1875,-0.671875 2.60937,-0.671875 1.125,0 2.07813,0.46875 0.96875,0.453125 1.67187,1.265625 0.70313,0.796875 1.09375,1.890625 0.40625,1.09375 0.40625,2.359375 0,1.4375 -0.5,2.65625 -0.5,1.203125 -1.28125,2.1875 -0.78125,0.984375 -1.76562,1.75 -0.98438,0.75 -1.9375,1.28125 l -1.39063,-2.40625 q 0.3125,-0.171875 0.76563,-0.453125 0.45312,-0.28125 0.9375,-0.65625 0.5,-0.375 0.96875,-0.84375 0.48437,-0.484375 0.85937,-1.046875 0.39063,-0.5625 0.625,-1.21875 0.23438,-0.65625 0.23438,-1.390625 0,-0.671875 -0.21875,-1.28125 -0.20313,-0.609375 -0.57813,-1.0625 -0.375,-0.453125 -0.90625,-0.71875 -0.51562,-0.265625 -1.14062,-0.265625 -0.8125,0 -1.57813,0.421875 -0.76562,0.421875 -1.39062,1.0625 -0.625,0.625 -1.0625,1.34375 -0.42188,0.71875 -0.5625,1.328125 V 100 h -2.5625 v -5.984375 l -0.0625,-0.03125 q -0.23438,0.203125 -0.59375,0.5 -0.35938,0.28125 -0.875,0.546875 -0.5,0.265625 -1.17188,0.453125 -0.65625,0.1875 -1.48437,0.1875 -1.375,0 -2.54688,-0.53125 -1.15625,-0.53125 -2.01562,-1.4375 -0.84375,-0.921875 -1.32813,-2.15625 -0.48437,-1.234375 -0.48437,-2.640625 0,-1.34375 0.4375,-2.484375 0.45312,-1.140625 1.21875,-1.953125 0.78125,-0.828125 1.8125,-1.28125 1.04687,-0.46875 2.25,-0.46875 0.84375,0 1.5625,0.21875 0.73437,0.203125 1.32812,0.515625 0.60938,0.296875 1.07813,0.65625 0.48437,0.34375 0.8125,0.625 l 0.0625,-0.01563 V 79 h -12.95313 v -2.296875 h 28.71875 z m -20.23437,6.15625 q -0.89063,0 -1.57813,0.375 -0.67187,0.359375 -1.125,0.9375 -0.45312,0.5625 -0.6875,1.28125 -0.21875,0.703125 -0.21875,1.390625 0,0.75 0.26563,1.5 0.26562,0.734375 0.75,1.328125 0.5,0.59375 1.1875,0.96875 0.6875,0.359375 1.51562,0.359375 0.70313,0 1.46875,-0.28125 0.78125,-0.296875 1.42188,-0.90625 0.65625,-0.609375 1.07812,-1.546875 0.42188,-0.953125 0.42188,-2.265625 V 87.53125 q -0.375,-0.46875 -0.89063,-0.890625 -0.5,-0.4375 -1.09375,-0.765625 -0.57812,-0.328125 -1.21875,-0.515625 -0.64062,-0.203125 -1.29687,-0.203125 z m 1.40625,15.3125 q 1,-0.625 2.21875,-0.96875 1.20312,-0.34375 2.29687,-0.34375 0.95313,0 1.78125,0.28125 0.8125,0.265625 1.42188,0.78125 0.60937,0.53125 0.95312,1.28125 0.34375,0.75 0.34375,1.6875 0,1 -0.40625,1.875 -0.39062,0.875 -1.1875,1.53125 -0.79687,0.65625 -1.96875,1.03125 -1.17187,0.39063 -2.71875,0.39063 -1.76562,0 -3.15625,-0.48438 -1.40625,-0.46875 -2.51562,-1.20312 -1.10938,-0.71875 -1.95313,-1.59375 -0.84375,-0.875 -1.48437,-1.65625 l 1.45312,-1.70313 q 0.89063,0.96875 1.70313,1.75 0.8125,0.78125 1.6875,1.32813 0.875,0.5625 1.89062,0.85937 1,0.29688 2.26563,0.29688 1.07812,0 1.84375,-0.21875 0.75,-0.20313 1.23437,-0.54688 0.48438,-0.32812 0.70313,-0.76562 0.21875,-0.42188 0.21875,-0.85938 0,-0.79687 -0.59375,-1.26562 -0.60938,-0.46875 -1.64063,-0.46875 -0.67187,0 -1.54687,0.23437 -0.89063,0.23438 -1.79688,0.78125 z M 349.48437,87.5 q -0.28125,0.03125 -0.53125,0.0625 -0.25,0.01563 -0.51562,0.01563 -1.26563,0 -2.29688,-0.453125 -1.01562,-0.453125 -1.75,-1.21875 -0.71875,-0.765625 -1.10937,-1.765625 -0.39063,-1.015625 -0.39063,-2.125 0,-0.796875 0.21875,-1.546875 0.21875,-0.75 0.6875,-1.40625 L 343.78125,79 h -4.98438 v -2.296875 h 26.125 V 79 h -3.28125 v 21 h -2.5625 V 79 h -5.89062 l -0.0156,0.0625 q 0.40625,0.40625 0.75,0.984375 0.34375,0.5625 0.57813,1.234375 0.25,0.671875 0.39062,1.40625 0.14063,0.734375 0.14063,1.484375 0,1.21875 -0.39063,2.359375 -0.375,1.140625 -1.07812,2.15625 -0.6875,1.015625 -1.67188,1.890625 -0.96875,0.859375 -2.15625,1.53125 v 0.0625 q 0.78125,0.609375 1.67188,1.46875 0.89062,0.84375 1.76562,1.765625 0.875,0.921875 1.65625,1.84375 0.78125,0.90625 1.34375,1.65625 l -1.76562,1.48438 q -0.48438,-0.60938 -1.21875,-1.48438 -0.73438,-0.890625 -1.64063,-1.84375 -0.90625,-0.96875 -1.96875,-1.921875 -1.04687,-0.96875 -2.1875,-1.75 -0.5625,0.265625 -1.1875,0.390625 -0.60937,0.125 -1.21875,0.125 -0.70312,0 -1.35937,-0.171875 -0.64063,-0.171875 -1.15625,-0.5 -0.5,-0.328125 -0.79688,-0.796875 -0.29687,-0.484375 -0.29687,-1.109375 0,-0.984375 0.71875,-1.515625 0.73437,-0.546875 1.90625,-0.546875 0.85937,0 1.73437,0.3125 0.89063,0.296875 1.73438,0.90625 0.4375,-0.09375 0.98437,-0.328125 0.54688,-0.25 1.10938,-0.625 0.57812,-0.390625 1.10937,-0.90625 0.54688,-0.53125 0.96875,-1.203125 0.42188,-0.671875 0.67188,-1.46875 0.26562,-0.8125 0.26562,-1.75 0,-0.9375 -0.28125,-1.84375 Q 352.03125,81.453125 351.5,80.75 q -0.53125,-0.71875 -1.32813,-1.15625 -0.79687,-0.4375 -1.84375,-0.4375 -0.82812,0 -1.375,0.265625 -0.54687,0.25 -0.89062,0.65625 -0.34375,0.40625 -0.48438,0.90625 -0.14062,0.484375 -0.14062,0.953125 0,0.609375 0.21875,1.203125 0.21875,0.578125 0.64062,1.046875 0.4375,0.453125 1.07813,0.734375 0.64062,0.28125 1.46875,0.28125 0.26562,0 0.64062,-0.04687 z m 23.75,-8.5 h -3.28125 v 21 h -2.5625 V 79 h -3.5625 v -2.296875 h 3.8125 q -0.28125,-1.59375 -0.71875,-2.71875 -0.4375,-1.140625 -0.95312,-1.890625 -0.51563,-0.765625 -1.07813,-1.203125 -0.5625,-0.4375 -1.07812,-0.65625 -0.53125,-0.21875 -0.98438,-0.28125 -0.46875,-0.0625 -0.76562,-0.0625 -0.96875,0 -1.54688,0.3125 -0.59375,0.296875 -0.90625,0.71875 -0.3125,0.421875 -0.40625,0.890625 -0.10937,0.453125 -0.10937,0.78125 0,0.125 0.0469,0.515625 0.0312,0.375 0.25,0.953125 0.20313,0.578125 0.64063,1.296875 0.4375,0.71875 1.23437,1.515625 h -2.65625 q -0.98437,-1.125 -1.46875,-2.328125 -0.5,-1.21875 -0.5,-2.359375 0,-0.953125 0.34375,-1.8125 0.34375,-0.859375 1.03125,-1.484375 0.6875,-0.640625 1.71875,-1.015625 1.03125,-0.375 2.39063,-0.375 1.875,0 3.23437,0.734375 1.35938,0.71875 2.28125,1.96875 0.9375,1.25 1.46875,2.9375 0.54688,1.671875 0.76563,3.5625 h 3.35937 z m 19.57813,0 h -3.28125 v 21 h -2.54688 V 86.28125 h -5.07812 q -1.04688,0 -1.89063,0.140625 -0.84375,0.125 -1.4375,0.53125 -0.59375,0.390625 -0.92187,1.109375 -0.3125,0.703125 -0.3125,1.859375 0,1.5 0.48437,2.765625 0.5,1.265625 1.26563,2.328125 0.76562,1.046875 1.6875,1.9375 0.9375,0.890625 1.79687,1.640625 l -1.5625,1.78125 q -0.14062,-0.0781 -0.67187,-0.453125 -0.51563,-0.390625 -1.21875,-1.046875 -0.6875,-0.65625 -1.46875,-1.59375 -0.76563,-0.9375 -1.42188,-2.109375 -0.64062,-1.1875 -1.07812,-2.609375 -0.42188,-1.421875 -0.42188,-3.0625 0,-1.625 0.45313,-2.6875 0.46875,-1.078125 1.3125,-1.703125 0.84375,-0.640625 2.04687,-0.890625 1.20313,-0.25 2.6875,-0.25 h 5.75 V 79 h -14.84375 v -2.296875 h 20.67188 z m 4.39062,17.4375 -2.5,7.6875 H 392.875 l 1.82812,-7.6875 z"
         id="path4" />
      <path
         d="m 60.140625,137.5 q -0.28125,0.0312 -0.53125,0.0625 -0.25,0.0156 -0.515625,0.0156 -1.265625,0 -2.296875,-0.45312 -1.015625,-0.45313 -1.75,-1.21875 -0.71875,-0.76563 -1.109375,-1.76563 -0.390625,-1.01562 -0.390625,-2.125 0,-0.79687 0.21875,-1.54687 0.21875,-0.75 0.6875,-1.40625 L 54.4375,129 h -4.984375 v -2.29687 h 26.125 V 129 h -3.28125 v 21 h -2.5625 V 129 H 63.84375 l -0.01563,0.0625 q 0.40625,0.40625 0.75,0.98437 0.34375,0.5625 0.578125,1.23438 0.25,0.67187 0.390625,1.40625 0.140625,0.73437 0.140625,1.48437 0,1.21875 -0.390625,2.35938 -0.375,1.14062 -1.078125,2.15625 -0.6875,1.01562 -1.671875,1.89062 -0.96875,0.85938 -2.15625,1.53125 v 0.0625 q 0.78125,0.60938 1.671875,1.46875 0.890625,0.84375 1.765625,1.76563 0.875,0.92187 1.65625,1.84375 0.78125,0.90625 1.34375,1.65625 l -1.765625,1.48437 q -0.484375,-0.60937 -1.21875,-1.48437 -0.734375,-0.89063 -1.640625,-1.84375 -0.90625,-0.96875 -1.96875,-1.92188 -1.046875,-0.96875 -2.1875,-1.75 -0.5625,0.26563 -1.1875,0.39063 -0.609375,0.125 -1.21875,0.125 -0.703125,0 -1.359375,-0.17188 -0.640625,-0.17187 -1.15625,-0.5 -0.5,-0.32812 -0.796875,-0.79687 -0.296875,-0.48438 -0.296875,-1.10938 0,-0.98437 0.71875,-1.51562 0.734375,-0.54688 1.90625,-0.54688 0.859375,0 1.734375,0.3125 0.890625,0.29688 1.734375,0.90625 0.4375,-0.0937 0.984375,-0.32812 0.546875,-0.25 1.109375,-0.625 0.578125,-0.39063 1.109375,-0.90625 0.546875,-0.53125 0.96875,-1.20313 0.421875,-0.67187 0.671875,-1.46875 0.265625,-0.8125 0.265625,-1.75 0,-0.9375 -0.28125,-1.84375 -0.265625,-0.90625 -0.796875,-1.60937 -0.53125,-0.71875 -1.328125,-1.15625 -0.796875,-0.4375 -1.84375,-0.4375 -0.828125,0 -1.375,0.26562 -0.546875,0.25 -0.890625,0.65625 -0.34375,0.40625 -0.484375,0.90625 -0.140625,0.48438 -0.140625,0.95313 0,0.60937 0.21875,1.20312 0.21875,0.57813 0.640625,1.04688 0.4375,0.45312 1.078125,0.73437 0.640625,0.28125 1.46875,0.28125 0.265625,0 0.640625,-0.0469 z m 23.75,-8.5 h -3.28125 v 21 h -2.5625 v -21 h -3.5625 v -2.29687 h 9.40625 z m -6.796875,-7.0625 q 0,-0.89062 0.53125,-1.4375 0.515625,-0.5625 1.359375,-0.5625 0.390625,0 0.75,0.15625 0.34375,0.15625 0.609375,0.4375 0.265625,0.26563 0.421875,0.64063 0.140625,0.35937 0.140625,0.79687 0,0.89063 -0.515625,1.4375 -0.53125,0.54688 -1.375,0.54688 -0.40625,0 -0.75,-0.14063 -0.359375,-0.15625 -0.609375,-0.42187 -0.265625,-0.28125 -0.40625,-0.64063 -0.15625,-0.375 -0.15625,-0.8125 z m 26.375,7.0625 h -3.28125 v 21 H 97.640625 V 136.28125 H 92.5625 q -1.046875,0 -1.890625,0.14062 -0.84375,0.125 -1.4375,0.53125 -0.59375,0.39063 -0.921875,1.10938 Q 88,138.76562 88,139.92187 q 0,1.5 0.484375,2.76563 0.5,1.26562 1.265625,2.32812 0.765625,1.04688 1.6875,1.9375 0.9375,0.89063 1.796875,1.64063 l -1.5625,1.78125 Q 91.53125,150.29687 91,149.92187 q -0.515625,-0.39062 -1.21875,-1.04687 -0.6875,-0.65625 -1.46875,-1.59375 -0.765625,-0.9375 -1.421875,-2.10938 Q 86.25,143.98437 85.8125,142.5625 85.390625,141.14062 85.390625,139.5 q 0,-1.625 0.453125,-2.6875 0.46875,-1.07813 1.3125,-1.70313 0.84375,-0.64062 2.046875,-0.89062 1.203125,-0.25 2.6875,-0.25 h 5.75 V 129 h -14.84375 v -2.29687 h 20.671875 z m 30.3125,0 H 130.5 v 21 h -2.5625 v -8.76563 h -8.59375 v 1.85938 q 0,0.48437 -0.0469,0.85937 -0.0312,0.375 -0.17188,0.625 -0.125,0.25 -0.375,0.39063 -0.23437,0.125 -0.64062,0.125 -0.40625,0 -0.90625,-0.23438 -0.5,-0.25 -1.01563,-0.65625 -0.51562,-0.42187 -1,-0.9375 -0.48437,-0.53125 -0.875,-1.09375 -0.375,-0.57812 -0.60937,-1.14062 -0.23438,-0.5625 -0.23438,-1.03125 0,-0.32813 0.10938,-0.53125 0.125,-0.21875 0.32812,-0.32813 0.21875,-0.10937 0.51563,-0.14062 0.29687,-0.0469 0.67187,-0.0469 h 1.6875 V 129 h -5.64062 v -2.29687 h 22.64062 z m -14.4375,0 v 9.95312 h 8.59375 V 129 Z m 33.875,0 h -3.28125 v 21 h -2.57813 v -12.04688 h -7.3125 q 0,1.03125 -0.0312,1.76563 -0.0156,0.73437 -0.125,1.21875 -0.10937,0.46875 -0.32812,0.6875 -0.21875,0.21875 -0.60938,0.21875 -0.8125,0 -1.54687,-0.53125 -0.71875,-0.53125 -1.28125,-1.28125 -0.54688,-0.75 -0.875,-1.5625 -0.32813,-0.8125 -0.32813,-1.375 0,-0.5 0.21875,-0.78125 0.21875,-0.28125 0.57813,-0.42188 0.35937,-0.14062 0.8125,-0.17187 0.46875,-0.0312 0.9375,-0.0312 h 9.89062 V 129 H 132.6875 v -2.29687 h 20.53125 z m 18.70312,19.75 v 0.0781 q 0.71875,0.78125 1.51563,1.42188 0.79687,0.65625 1.53125,1.15625 0.75,0.5 1.375,0.84375 0.64062,0.34375 1.04687,0.51562 l -1.10937,1.95313 q -0.98438,-0.51563 -1.96875,-1.20313 -0.96875,-0.6875 -1.89063,-1.4375 -0.90625,-0.75 -1.71875,-1.53125 -0.79687,-0.78125 -1.4375,-1.48437 -1.34375,-0.125 -2.28125,-0.48438 -0.92187,-0.35937 -1.51562,-0.85937 -0.57813,-0.5 -0.84375,-1.07813 -0.26563,-0.57812 -0.26563,-1.125 0,-0.39062 0.125,-0.75 0.14063,-0.35937 0.39063,-0.625 0.26562,-0.26562 0.64062,-0.42187 0.39063,-0.15625 0.89063,-0.15625 0.53125,0 1.125,0.1875 0.60937,0.1875 1.1875,0.5625 0.57812,0.375 1.10937,0.95312 0.53125,0.5625 0.9375,1.32813 1.95313,-0.32813 2.95313,-1.3125 1,-1 1,-2.60938 0,-0.625 -0.17188,-1.01562 -0.15625,-0.39063 -0.48437,-0.60938 -0.32813,-0.21875 -0.82813,-0.28125 -0.48437,-0.0781 -1.14062,-0.0781 h -4.29688 q -1.15625,0 -2,-0.48438 -0.84375,-0.5 -1.40625,-1.25 -0.54687,-0.76562 -0.8125,-1.67187 -0.26562,-0.92188 -0.26562,-1.76563 0,-0.92187 0.29687,-1.53125 0.29688,-0.625 0.8125,-0.98437 0.51563,-0.375 1.21875,-0.53125 0.71875,-0.15625 1.54688,-0.15625 h 5.45312 V 129 h -11.75 v -2.29687 h 25.59375 V 129 h -3.28125 v 21 h -2.5625 v -9.375 l -0.0625,-0.0156 q -0.45312,0.29688 -0.875,0.48438 -0.40625,0.1875 -0.82812,0.29687 -0.40625,0.10938 -0.84375,0.15625 -0.4375,0.0312 -0.9375,0.0312 0.0937,0.51563 0.0937,1.09375 0,1.10938 -0.3125,2.07813 -0.3125,0.96875 -0.95313,1.76562 -0.64062,0.78125 -1.64062,1.35938 -0.98438,0.5625 -2.35938,0.875 z m 3.28125,-14.14063 h -7.35937 q -1.17188,0 -1.60938,0.32813 -0.4375,0.32812 -0.4375,1.0625 0,0.34375 0.0937,0.75 0.0937,0.39062 0.34375,0.73437 0.25,0.32813 0.67188,0.5625 0.4375,0.21875 1.10937,0.21875 h 4.35938 q 1.32812,0 2.23437,0.3125 0.92188,0.3125 1.48438,0.89063 0.57812,0 1.125,-0.0312 0.54687,-0.0469 1.09375,-0.20313 0.54687,-0.17187 1.125,-0.48437 0.57812,-0.32813 1.20312,-0.89063 V 129 h -5.4375 z M 194.79687,129 h -3.28125 v 21 h -2.5625 v -21 h -3.5625 v -2.29687 h 9.40625 z m 22.85938,0 H 214.375 v 21.01562 h -2.5625 V 135.375 q -0.82813,-0.29688 -1.5625,-0.29688 -0.73438,0 -1.28125,0.28125 -0.54688,0.26563 -0.92188,0.71875 -0.35937,0.45313 -0.54687,1.0625 -0.1875,0.60938 -0.1875,1.28125 0,0.26563 0.0156,0.54688 0.0312,0.26562 0.0625,0.53125 H 205 q -0.125,-0.90625 -0.29688,-1.73438 -0.15625,-0.82812 -0.46875,-1.45312 -0.29687,-0.625 -0.78125,-0.98438 -0.48437,-0.375 -1.25,-0.375 -0.73437,0 -1.26562,0.29688 -0.51563,0.29687 -0.85938,0.82812 -0.34375,0.53125 -0.51562,1.25 -0.15625,0.70313 -0.15625,1.53125 0,1.78125 0.60937,3.20313 0.60938,1.40625 1.64063,2.53125 1.04687,1.125 2.40625,2.01562 1.375,0.875 2.89062,1.60938 l -1.26562,2.15625 q -0.5625,-0.25 -1.45313,-0.75 -0.875,-0.5 -1.875,-1.23438 -0.98437,-0.73437 -1.98437,-1.71875 -1,-0.98437 -1.8125,-2.20312 -0.79688,-1.21875 -1.29688,-2.6875 -0.5,-1.46875 -0.5,-3.17188 0,-1.3125 0.375,-2.4375 0.375,-1.14062 1.0625,-1.96875 0.70313,-0.84375 1.6875,-1.3125 0.98438,-0.48437 2.1875,-0.48437 0.90625,0 1.5625,0.26562 0.65625,0.25 1.125,0.64063 0.48438,0.375 0.79688,0.82812 0.3125,0.4375 0.54687,0.82813 l 0.0781,-0.0156 q 0.29687,-0.65625 0.70312,-1.10937 0.42188,-0.45313 0.90625,-0.73438 0.5,-0.28125 1.04688,-0.40625 0.54687,-0.14062 1.09375,-0.14062 0.48437,0 0.95312,0.0937 0.48438,0.0781 0.92188,0.23437 V 129 h -18.10938 v -2.29687 h 23.95313 z m -3.5,-1.85937 h -2.26563 l -1.42187,-2.67188 q -0.90625,-1.70312 -1.64063,-2.70312 -0.75,-1 -1.40625,-1.51563 -0.67187,-0.53125 -1.3125,-0.67187 -0.64062,-0.15625 -1.34375,-0.15625 h -3.03125 v -2.53125 h 2.85938 q 0.90625,0 1.64062,0.15625 0.73438,0.14062 1.40625,0.53125 0.65625,0.375 1.29688,1.0625 0.625,0.67187 1.34375,1.75 0.71875,1.0625 1.57812,2.5625 0.84375,1.48437 1.9375,3.51562 z M 255.07812,129 h -3.28125 v 21 h -2.5625 v -7.3125 l -0.0625,-0.0156 q -0.42187,0.34375 -1.01562,0.6875 -0.57813,0.32813 -1.29688,0.59375 -0.71875,0.25 -1.54687,0.42188 -0.82813,0.15625 -1.73438,0.15625 -1.46875,0 -2.51562,-0.40625 -1.03125,-0.40625 -1.78125,-1.04688 -0.73438,-0.65625 -1.26563,-1.46875 -0.51562,-0.82812 -0.95312,-1.65625 -0.35938,-0.67187 -0.73438,-1.26562 -0.35937,-0.60938 -0.8125,-1.0625 -0.45312,-0.46875 -1.01562,-0.73438 -0.5625,-0.28125 -1.3125,-0.28125 -1.375,0 -2.01563,0.92188 -0.64062,0.90625 -0.64062,2.45312 0,1.48438 0.5,2.75 0.51562,1.25 1.28125,2.3125 0.78125,1.0625 1.70312,1.95313 0.92188,0.875 1.75,1.59375 l -1.5625,1.78125 q -0.14062,-0.0781 -0.67187,-0.46875 -0.51563,-0.40625 -1.21875,-1.07813 -0.6875,-0.6875 -1.46875,-1.625 -0.76563,-0.95312 -1.42188,-2.10937 -0.64062,-1.17188 -1.07812,-2.54688 -0.42188,-1.375 -0.42188,-2.90625 0,-1.5 0.45313,-2.54687 0.45312,-1.0625 1.17187,-1.71875 0.73438,-0.67188 1.625,-0.98438 0.89063,-0.3125 1.78125,-0.3125 1.17188,0 2.3125,0.5 1.15625,0.5 2.28125,1.78125 0.67188,-0.23437 1.14063,-0.57812 0.48437,-0.35938 0.78125,-0.76563 0.3125,-0.42187 0.45312,-0.89062 0.14063,-0.46875 0.14063,-0.9375 0,-0.375 -0.0781,-0.84375 -0.0625,-0.46875 -0.23437,-1 -0.17188,-0.54688 -0.45313,-1.14063 -0.28125,-0.59375 -0.70312,-1.20312 h -13.26563 v -2.29687 h 29.75 z m -13.71875,0 q 0.5625,0.95312 0.875,2.09375 0.32813,1.125 0.32813,2.21875 0,0.79687 -0.21875,1.54687 -0.20313,0.75 -0.64063,1.40625 -0.4375,0.64063 -1.09375,1.15625 -0.64062,0.5 -1.5,0.79688 0.25,1.04687 0.6875,1.79687 0.4375,0.73438 1.03125,1.21875 0.59375,0.46875 1.32813,0.6875 0.73437,0.21875 1.57812,0.21875 0.8125,0 1.59375,-0.1875 0.79688,-0.1875 1.5,-0.53125 0.71875,-0.35937 1.32813,-0.85937 0.60937,-0.5 1.07812,-1.125 V 129 Z m 22.03125,0 h -3.28125 v 21 h -2.5625 v -21 h -3.5625 v -2.29687 h 9.40625 z m 21.64063,0 H 281.75 v 21 h -2.59375 v -6.57813 l -0.0625,-0.0469 q -0.85938,0.78125 -1.6875,1.23437 -0.8125,0.4375 -1.53125,0.67188 -0.70313,0.21875 -1.28125,0.28125 -0.57813,0.0625 -0.95313,0.0625 -1.4375,0 -2.54687,-0.45313 -1.10938,-0.45312 -1.85938,-1.1875 -0.75,-0.75 -1.14062,-1.70312 -0.39063,-0.96875 -0.39063,-2 0,-1.07813 0.4375,-2.14063 0.45313,-1.0625 1.40625,-1.90625 l -0.0156,-0.0625 h -4.95313 V 133.875 h 12.5625 v 2.29687 h -1.60937 q -1.60938,0 -2.64063,0.42188 -1.03125,0.42187 -1.625,1.03125 -0.59375,0.60937 -0.82812,1.3125 -0.21875,0.6875 -0.21875,1.25 0,0.46875 0.15625,1.01562 0.15625,0.53125 0.51562,0.98438 0.375,0.45312 0.98438,0.75 0.625,0.29687 1.5625,0.29687 0.98437,0 1.82812,-0.3125 0.85938,-0.32812 1.57813,-0.84375 0.71875,-0.51562 1.29687,-1.15625 0.59375,-0.65625 1.01563,-1.29687 V 129 h -16.85938 v -2.29687 h 22.73438 z m -3.5,-1.85937 h -2.26563 l -1.42187,-2.67188 q -0.90625,-1.70312 -1.64063,-2.70312 -0.75,-1 -1.40625,-1.51563 -0.67187,-0.53125 -1.3125,-0.67187 -0.64062,-0.15625 -1.34375,-0.15625 h -3.03125 v -2.53125 h 2.85938 q 0.90625,0 1.64062,0.15625 0.73438,0.14062 1.40625,0.53125 0.65625,0.375 1.29688,1.0625 0.625,0.67187 1.34375,1.75 0.71875,1.0625 1.57812,2.5625 0.84375,1.48437 1.9375,3.51562 z M 303.39062,137.5 q -0.28125,0.0312 -0.53125,0.0625 -0.25,0.0156 -0.51562,0.0156 -1.26563,0 -2.29688,-0.45312 -1.01562,-0.45313 -1.75,-1.21875 -0.71875,-0.76563 -1.10937,-1.76563 -0.39063,-1.01562 -0.39063,-2.125 0,-0.79687 0.21875,-1.54687 0.21875,-0.75 0.6875,-1.40625 L 297.6875,129 h -4.98438 v -2.29687 h 26.125 V 129 h -3.28125 v 21 h -2.5625 v -21 h -5.89062 l -0.0156,0.0625 q 0.40625,0.40625 0.75,0.98437 0.34375,0.5625 0.57813,1.23438 0.25,0.67187 0.39062,1.40625 0.14063,0.73437 0.14063,1.48437 0,1.21875 -0.39063,2.35938 -0.375,1.14062 -1.07812,2.15625 -0.6875,1.01562 -1.67188,1.89062 -0.96875,0.85938 -2.15625,1.53125 v 0.0625 q 0.78125,0.60938 1.67188,1.46875 0.89062,0.84375 1.76562,1.76563 0.875,0.92187 1.65625,1.84375 0.78125,0.90625 1.34375,1.65625 l -1.76562,1.48437 q -0.48438,-0.60937 -1.21875,-1.48437 -0.73438,-0.89063 -1.64063,-1.84375 -0.90625,-0.96875 -1.96875,-1.92188 -1.04687,-0.96875 -2.1875,-1.75 -0.5625,0.26563 -1.1875,0.39063 -0.60937,0.125 -1.21875,0.125 -0.70312,0 -1.35937,-0.17188 -0.64063,-0.17187 -1.15625,-0.5 -0.5,-0.32812 -0.79688,-0.79687 -0.29687,-0.48438 -0.29687,-1.10938 0,-0.98437 0.71875,-1.51562 0.73437,-0.54688 1.90625,-0.54688 0.85937,0 1.73437,0.3125 0.89063,0.29688 1.73438,0.90625 0.4375,-0.0937 0.98437,-0.32812 0.54688,-0.25 1.10938,-0.625 0.57812,-0.39063 1.10937,-0.90625 0.54688,-0.53125 0.96875,-1.20313 0.42188,-0.67187 0.67188,-1.46875 0.26562,-0.8125 0.26562,-1.75 0,-0.9375 -0.28125,-1.84375 -0.26562,-0.90625 -0.79687,-1.60937 -0.53125,-0.71875 -1.32813,-1.15625 -0.79687,-0.4375 -1.84375,-0.4375 -0.82812,0 -1.375,0.26562 -0.54687,0.25 -0.89062,0.65625 -0.34375,0.40625 -0.48438,0.90625 -0.14062,0.48438 -0.14062,0.95313 0,0.60937 0.21875,1.20312 0.21875,0.57813 0.64062,1.04688 0.4375,0.45312 1.07813,0.73437 0.64062,0.28125 1.46875,0.28125 0.26562,0 0.64062,-0.0469 z m 6.53125,12.96875 q 1,-0.625 2.21875,-0.96875 1.20313,-0.34375 2.29688,-0.34375 0.95312,0 1.78125,0.28125 0.8125,0.26562 1.42187,0.78125 0.60938,0.53125 0.95313,1.28125 0.34375,0.75 0.34375,1.6875 0,1 -0.40625,1.875 -0.39063,0.875 -1.1875,1.53125 -0.79688,0.65625 -1.96875,1.03125 -1.17188,0.39062 -2.71875,0.39062 -1.76563,0 -3.15625,-0.48437 -1.40625,-0.46875 -2.51563,-1.20313 -1.10937,-0.71875 -1.95312,-1.59375 -0.84375,-0.875 -1.48438,-1.65625 L 305,151.375 q 0.89062,0.96875 1.70312,1.75 0.8125,0.78125 1.6875,1.32812 0.875,0.5625 1.89063,0.85938 1,0.29687 2.26562,0.29687 1.07813,0 1.84375,-0.21875 0.75,-0.20312 1.23438,-0.54687 0.48437,-0.32813 0.70312,-0.76563 0.21875,-0.42187 0.21875,-0.85937 0,-0.79688 -0.59375,-1.26563 -0.60937,-0.46875 -1.64062,-0.46875 -0.67188,0 -1.54688,0.23438 -0.89062,0.23437 -1.79687,0.78125 z m 14.48438,-7.57813 q -0.0469,-0.75 -0.39063,-1.14062 -0.32812,-0.40625 -0.8125,-0.40625 -0.20312,0 -0.42187,0.0937 -0.20313,0.0781 -0.375,0.28125 -0.17188,0.1875 -0.28125,0.53125 -0.10938,0.32812 -0.10938,0.8125 0,0.6875 0.21875,1.21875 0.21875,0.53125 0.59375,0.90625 0.375,0.35937 0.85938,0.54687 0.5,0.1875 1.04687,0.1875 0.75,0 1.5,-0.32812 Q 327,145.25 327.65625,144.625 l 1.54687,1.42187 q -0.53125,0.48438 -0.82812,1.125 -0.28125,0.64063 -0.28125,1.26563 0,0.40625 0.125,0.76562 0.14062,0.35938 0.40625,0.64063 0.28125,0.26562 0.6875,0.42187 0.40625,0.17188 0.96875,0.17188 0.89062,0 1.75,-0.42188 0.85937,-0.40625 1.64062,-1.07812 0.79688,-0.6875 1.5,-1.5625 0.71875,-0.89063 1.32813,-1.84375 -0.21875,0.0156 -0.42188,0.0156 -0.1875,0 -0.375,0 -2.07812,0 -3.5625,-0.65625 -1.48437,-0.65625 -2.4375,-1.6875 -0.9375,-1.03125 -1.39062,-2.3125 -0.4375,-1.28125 -0.4375,-2.54687 0,-1.40625 0.51562,-2.5 0.51563,-1.09375 1.4375,-1.84375 0.92188,-0.75 2.1875,-1.125 1.28125,-0.39063 2.79688,-0.39063 h 3.20312 V 129 h -20.28125 v -2.29687 H 345.875 V 129 h -5.29688 v 5.76562 h -5.26562 q -2.54688,0 -3.75,1.01563 -1.20313,1.01562 -1.20313,2.90625 0,1.10937 0.40625,1.95312 0.42188,0.84375 1.14063,1.40625 0.73437,0.5625 1.73437,0.85938 1,0.28125 2.17188,0.28125 1.01562,0 1.78125,-0.26563 0,-0.8125 0.1875,-1.54687 0.20312,-0.75 0.5625,-1.3125 0.375,-0.5625 0.90625,-0.89063 0.54687,-0.34375 1.25,-0.34375 0.53125,0 0.92187,0.20313 0.40625,0.1875 0.65625,0.5 0.26563,0.3125 0.39063,0.73437 0.125,0.42188 0.125,0.85938 0,0.60937 -0.23438,1.14062 -0.21875,0.51563 -0.57812,0.95313 -0.35938,0.42187 -0.82813,0.76562 -0.45312,0.32813 -0.9375,0.57813 0.35938,1.10937 0.76563,1.96875 0.42187,0.84375 0.92187,1.53125 0.5,0.6875 1.07813,1.26562 0.57812,0.5625 1.26562,1.10938 l -1.92187,2.01562 q -1.3125,-1.125 -2.25,-2.60937 -0.9375,-1.48438 -1.4375,-2.98438 h -0.0625 q -0.70313,1.15625 -1.60938,2.23438 -0.89062,1.07812 -1.95312,1.90625 -1.04688,0.82812 -2.23438,1.32812 -1.17187,0.5 -2.4375,0.5 -0.89062,0 -1.6875,-0.26562 -0.79687,-0.26563 -1.40625,-0.79688 -0.59375,-0.51562 -0.9375,-1.29687 -0.34375,-0.78125 -0.34375,-1.8125 0,-0.17188 0,-0.34375 0.0156,-0.1875 0.0312,-0.35938 l -0.0781,-0.0781 q -0.34375,0.0781 -0.6875,0.125 -0.32813,0.0312 -0.64063,0.0312 -1.39062,0 -2.32812,-0.51563 -0.9375,-0.53125 -1.5,-1.29687 -0.5625,-0.78125 -0.79688,-1.65625 -0.23437,-0.89063 -0.23437,-1.625 0,-0.85938 0.28125,-1.57813 0.28125,-0.71875 0.76562,-1.23437 0.5,-0.53125 1.17188,-0.82813 Q 322.4375,139 323.23437,139 q 0.89063,0 1.53125,0.35937 0.65625,0.35938 1.0625,0.92188 0.42188,0.5625 0.60938,1.26562 0.20312,0.70313 0.20312,1.375 z M 354.1875,129 h -3.28125 v 21 h -2.5625 v -21 h -3.5625 v -2.29687 h 3.8125 q -0.28125,-1.59375 -0.71875,-2.71875 -0.4375,-1.14063 -0.95313,-1.89063 -0.51562,-0.76562 -1.07812,-1.20312 -0.5625,-0.4375 -1.07813,-0.65625 -0.53125,-0.21875 -0.98437,-0.28125 -0.46875,-0.0625 -0.76563,-0.0625 -0.96875,0 -1.54687,0.3125 -0.59375,0.29687 -0.90625,0.71875 -0.3125,0.42187 -0.40625,0.89062 -0.10938,0.45313 -0.10938,0.78125 0,0.125 0.0469,0.51563 0.0312,0.375 0.25,0.95312 0.20312,0.57813 0.64062,1.29688 0.4375,0.71875 1.23438,1.51562 h -2.65625 q -0.98438,-1.125 -1.46875,-2.32812 -0.5,-1.21875 -0.5,-2.35938 0,-0.95312 0.34375,-1.8125 0.34375,-0.85937 1.03125,-1.48437 0.6875,-0.64063 1.71875,-1.01563 1.03125,-0.375 2.39062,-0.375 1.875,0 3.23438,0.73438 1.35937,0.71875 2.28125,1.96875 0.9375,1.25 1.46875,2.9375 0.54687,1.67187 0.76562,3.5625 h 3.35938 z m 19.57812,0 h -3.28125 v 21 h -2.54687 v -13.71875 h -5.07813 q -1.04687,0 -1.89062,0.14062 -0.84375,0.125 -1.4375,0.53125 -0.59375,0.39063 -0.92188,1.10938 -0.3125,0.70312 -0.3125,1.85937 0,1.5 0.48438,2.76563 0.5,1.26562 1.26562,2.32812 0.76563,1.04688 1.6875,1.9375 0.9375,0.89063 1.79688,1.64063 l -1.5625,1.78125 q -0.14063,-0.0781 -0.67188,-0.45313 -0.51562,-0.39062 -1.21875,-1.04687 -0.6875,-0.65625 -1.46875,-1.59375 -0.76562,-0.9375 -1.42187,-2.10938 -0.64063,-1.1875 -1.07813,-2.60937 -0.42187,-1.42188 -0.42187,-3.0625 0,-1.625 0.45312,-2.6875 0.46875,-1.07813 1.3125,-1.70313 0.84375,-0.64062 2.04688,-0.89062 1.20312,-0.25 2.6875,-0.25 h 5.75 V 129 h -14.84375 v -2.29687 h 20.67187 z m 2.9375,21.34375 q -0.71875,0 -1.23437,-0.51563 -0.5,-0.51562 -0.5,-1.23437 0,-0.71875 0.5,-1.23438 0.51562,-0.53125 1.23437,-0.53125 0.73438,0 1.25,0.53125 0.51563,0.51563 0.51563,1.23438 0,0.71875 -0.51563,1.23437 -0.51562,0.51563 -1.25,0.51563 z"
         id="path5" />
      <path
         d="m 69.8125,179 h -3.28125 v 21 h -2.578125 v -7.46875 l -0.0625,-0.0156 q -1.046875,0.9375 -2.34375,1.34375 -1.296875,0.39063 -2.5625,0.39063 -1.34375,0 -2.453125,-0.39063 -1.109375,-0.39062 -1.90625,-1.1875 -0.796875,-0.8125 -1.25,-2.03125 -0.4375,-1.23437 -0.4375,-2.92187 V 179 h -3.484375 v -2.29688 H 69.8125 Z m -5.859375,0 H 55.46875 v 8.57812 q 0,0.98438 0.15625,1.76563 0.171875,0.78125 0.5625,1.32812 0.40625,0.54688 1.0625,0.84375 0.65625,0.28125 1.640625,0.28125 1.609375,0 2.90625,-0.75 1.296875,-0.76562 2.15625,-2 z M 78.125,179 h -3.28125 v 21 h -2.5625 v -21 h -3.5625 v -2.29688 H 78.125 Z m 18.8125,0 h -3.28125 v 21 h -2.5625 v -5.57813 l -0.0625,-0.0156 q -0.3125,0.29687 -0.734375,0.625 -0.421875,0.3125 -0.96875,0.57812 -0.546875,0.25 -1.234375,0.42188 -0.671875,0.17187 -1.515625,0.17187 -1.546875,0 -2.828125,-0.59375 -1.265625,-0.59375 -2.1875,-1.57812 -0.921875,-1 -1.4375,-2.28125 -0.5,-1.29688 -0.5,-2.70313 0,-1.40625 0.5,-2.60937 0.515625,-1.21875 1.40625,-2.10938 0.890625,-0.89062 2.078125,-1.39062 1.1875,-0.51563 2.546875,-0.51563 0.375,0 0.9375,0.0625 0.578125,0.0625 1.234375,0.28125 0.65625,0.21875 1.359375,0.64063 0.703125,0.40625 1.34375,1.10937 L 91.09375,184.5 V 179 h -14.0625 v -2.29688 H 96.9375 Z m -5.78125,8.42187 q -0.984375,-1.1875 -2.140625,-1.90625 -1.15625,-0.73437 -2.625,-0.73437 -1.15625,0 -1.96875,0.4375 -0.796875,0.4375 -1.3125,1.10937 -0.515625,0.65625 -0.75,1.46875 -0.234375,0.8125 -0.234375,1.5625 0,0.8125 0.265625,1.60938 0.265625,0.79687 0.78125,1.4375 0.53125,0.625 1.3125,1.03125 0.78125,0.39062 1.828125,0.39062 1.078125,0 1.96875,-0.40625 0.890625,-0.42187 1.53125,-1.0625 0.640625,-0.64062 0.984375,-1.4375 0.359375,-0.79687 0.359375,-1.54687 z m 28.82813,-10.71875 V 179 h -3.28125 v 21 h -2.59375 v -10.5 h -9.04688 q -0.82812,0.54687 -1.98437,0.65625 l -0.0312,0.0781 q 1.51562,2.375 3.32812,4.42188 1.8125,2.04687 4.125,3.79687 l -1.67187,1.92188 q -1.32813,-0.98438 -2.53125,-2.125 -1.1875,-1.14063 -2.25,-2.35938 -1.04688,-1.23437 -1.96875,-2.48437 -0.92188,-1.26563 -1.6875,-2.48438 -0.76563,-1.21875 -1.375005,-2.34375 -0.609375,-1.14062 -1.0625,-2.10937 l 2.140625,-1.15625 q 0.29688,0.6875 0.57813,1.15625 0.29687,0.45312 0.59375,0.73437 0.29687,0.26563 0.625,0.39063 0.32812,0.10937 0.70312,0.10937 1.07813,0 1.57813,-0.84375 0.51562,-0.84375 0.51562,-2.21875 0,-0.8125 -0.15625,-1.59375 -0.15625,-0.79687 -0.40625,-1.51562 -0.23437,-0.73438 -0.51562,-1.375 -0.28125,-0.64063 -0.53125,-1.15625 h -7.23438 v -2.29688 z M 114.10938,179 h -8.32813 q 0.65625,1.42187 1.03125,2.85937 0.375,1.4375 0.375,2.85938 0,0.65625 -0.10937,1.29687 -0.0937,0.625 -0.32813,1.1875 l 0.0312,0.0312 h 7.32813 z m 14.18749,0 h -3.28124 v 21 h -2.5625 v -21 h -3.5625 v -2.29688 h 9.40624 z m 21.64063,0 h -3.28125 v 21 h -2.59375 v -6.57813 L 144,193.375 q -0.85938,0.78125 -1.6875,1.23437 -0.8125,0.4375 -1.53125,0.67188 -0.70313,0.21875 -1.28125,0.28125 -0.57813,0.0625 -0.95313,0.0625 -1.4375,0 -2.54687,-0.45313 -1.10938,-0.45312 -1.85938,-1.1875 -0.75,-0.75 -1.14062,-1.70312 -0.39063,-0.96875 -0.39063,-2 0,-1.07813 0.4375,-2.14063 0.45313,-1.0625 1.40625,-1.90625 l -0.0156,-0.0625 h -4.95313 V 183.875 h 12.5625 v 2.29687 h -1.60937 q -1.60938,0 -2.64063,0.42188 -1.03125,0.42187 -1.625,1.03125 -0.59375,0.60937 -0.82812,1.3125 -0.21875,0.6875 -0.21875,1.25 0,0.46875 0.15625,1.01562 0.15625,0.53125 0.51562,0.98438 0.375,0.45312 0.98438,0.75 0.625,0.29687 1.5625,0.29687 0.98437,0 1.82812,-0.3125 0.85938,-0.32812 1.57813,-0.84375 0.71875,-0.51562 1.29687,-1.15625 0.59375,-0.65625 1.01563,-1.29687 V 179 h -16.85937 v -2.29688 h 22.73437 z m -3.5,-1.85938 h -2.26563 L 142.75,174.46875 q -0.90625,-1.70313 -1.64063,-2.70313 -0.75,-1 -1.40625,-1.51562 -0.67187,-0.53125 -1.3125,-0.67188 -0.64062,-0.15625 -1.34375,-0.15625 h -3.03125 v -2.53125 h 2.85938 q 0.90625,0 1.64062,0.15625 0.73438,0.14063 1.40625,0.53125 0.65625,0.375 1.29688,1.0625 0.625,0.67188 1.34375,1.75 0.71875,1.0625 1.57812,2.5625 0.84375,1.48438 1.9375,3.51563 z M 178.65625,179 H 175.375 v 21 h -2.5625 v -21 h -7.04688 v 12.125 q 0,0.25 -0.0312,0.57812 -0.0312,0.32813 -0.15625,0.64063 -0.10937,0.29687 -0.32812,0.51562 -0.21875,0.20313 -0.60938,0.20313 -0.42187,0 -0.9375,-0.26563 -0.5,-0.28125 -1.03125,-0.71875 -0.53125,-0.45312 -1.03125,-1.01562 -0.48437,-0.5625 -0.875,-1.15625 -0.39062,-0.59375 -0.625,-1.15625 -0.23437,-0.5625 -0.23437,-1 0,-0.39063 0.1875,-0.625 0.20312,-0.23438 0.54687,-0.35938 0.35938,-0.125 0.85938,-0.15625 0.51562,-0.0312 1.125,-0.0312 h 0.54687 V 179 h -5.5625 v -2.29688 h 21.04688 z m 8.3125,0 h -3.28125 v 21 h -2.5625 v -21 h -3.5625 v -2.29688 h 9.40625 z m 23.71875,0 h -3.28125 v 21 h -2.5625 v -21 h -3.875 v 9.67187 q 0,1.625 -0.45313,2.79688 -0.4375,1.17187 -1.21875,1.9375 -0.76562,0.76562 -1.79687,1.14062 -1.03125,0.35938 -2.21875,0.35938 -1.32813,0 -2.40625,-0.42188 -1.0625,-0.42187 -1.8125,-1.25 -0.75,-0.82812 -1.15625,-2.04687 Q 189.5,189.95312 189.5,188.35937 V 179 h -3.625 v -2.29688 h 24.8125 z m -18.59375,0 v 9.84375 q 0,0.71875 0.15625,1.39062 0.17187,0.65625 0.53125,1.17188 0.375,0.51562 0.96875,0.82812 0.60937,0.3125 1.48437,0.3125 0.89063,0 1.48438,-0.3125 0.60937,-0.3125 0.98437,-0.82812 0.375,-0.51563 0.53125,-1.17188 0.17188,-0.67187 0.17188,-1.39062 V 179 Z m 15.09375,-1.85938 h -2.26563 L 203.5,174.46875 q -0.90625,-1.70313 -1.64063,-2.70313 -0.75,-1 -1.40625,-1.51562 -0.67187,-0.53125 -1.3125,-0.67188 -0.64062,-0.15625 -1.34375,-0.15625 h -3.03125 v -2.53125 h 2.85938 q 0.90625,0 1.64062,0.15625 0.73438,0.14063 1.40625,0.53125 0.65625,0.375 1.29688,1.0625 0.625,0.67188 1.34375,1.75 0.71875,1.0625 1.57812,2.5625 0.84375,1.48438 1.9375,3.51563 z M 231.85937,179 h -7.42187 v 11.1875 q 0,1.14062 0.28125,1.90625 0.29687,0.75 0.9375,1.34375 0.64062,0.57812 1.64062,1.125 1.01563,0.53125 2.45313,1.25 1.32812,0.65625 2.46875,1.26562 1.15625,0.60938 2,1.28125 0.84375,0.67188 1.32812,1.45313 0.48438,0.78125 0.48438,1.78125 0,0.76562 -0.3125,1.53125 -0.3125,0.78125 -0.90625,1.48437 l -2.10938,-1.28125 q 0.23438,-0.375 0.4375,-0.79687 0.21875,-0.42188 0.21875,-0.875 0,-0.60938 -0.42187,-1.14063 -0.40625,-0.51562 -1.09375,-0.98437 -0.6875,-0.48438 -1.57813,-0.9375 -0.89062,-0.45313 -1.85937,-0.92188 -1.64063,-0.79687 -2.85938,-1.4375 -1.21875,-0.64062 -2.04687,-1.39062 -0.8125,-0.76563 -1.21875,-1.78125 -0.40625,-1.01563 -0.40625,-2.54688 V 179 h -3.51563 v -2.29688 h 19.34375 V 179 h -3.28125 v 9.90625 q 0,1.20312 -0.34375,2 -0.32812,0.78125 -0.85937,1.23437 -0.51563,0.45313 -1.15625,0.64063 -0.625,0.17187 -1.21875,0.17187 -0.59375,0 -1.17188,-0.125 -0.57812,-0.14062 -1.09375,-0.35937 v -2.54688 q 0.34375,0.20313 0.84375,0.35938 0.5,0.14062 1,0.14062 0.46875,0 0.75,-0.15625 0.28125,-0.15625 0.4375,-0.46875 0.15625,-0.3125 0.20313,-0.76562 0.0469,-0.45313 0.0469,-1.04688 z m 2.34375,-1.85938 h -2.26562 l -1.42188,-2.67187 q -0.90625,-1.70313 -1.65625,-2.70313 -0.73437,-1 -1.40625,-1.51562 -0.65625,-0.53125 -1.29687,-0.67188 -0.64063,-0.15625 -1.34375,-0.15625 h -3.03125 v -2.53125 h 2.85937 q 0.90625,0 1.64063,0.15625 0.73437,0.14063 1.39062,0.53125 0.67188,0.375 1.29688,1.0625 0.64062,0.67188 1.35937,1.75 0.71875,1.0625 1.5625,2.5625 0.85938,1.48438 1.95313,3.51563 z M 265.32812,179 H 252.125 v 6.15625 l 0.0781,0.0312 q 0.79688,-1.09375 1.98438,-1.75 1.1875,-0.67188 2.60937,-0.67188 1.125,0 2.07813,0.46875 0.96875,0.45313 1.67187,1.26563 0.70313,0.79687 1.09375,1.89062 0.40625,1.09375 0.40625,2.35938 0,1.4375 -0.5,2.65625 -0.5,1.20312 -1.28125,2.1875 -0.78125,0.98437 -1.76562,1.75 -0.98438,0.75 -1.9375,1.28125 l -1.39063,-2.40625 q 0.3125,-0.17188 0.76563,-0.45313 0.45312,-0.28125 0.9375,-0.65625 0.5,-0.375 0.96875,-0.84375 0.48437,-0.48437 0.85937,-1.04687 0.39063,-0.5625 0.625,-1.21875 0.23438,-0.65625 0.23438,-1.39063 0,-0.67187 -0.21875,-1.28125 -0.20313,-0.60937 -0.57813,-1.0625 -0.375,-0.45312 -0.90625,-0.71875 -0.51562,-0.26562 -1.14062,-0.26562 -0.8125,0 -1.57813,0.42187 -0.76562,0.42188 -1.39062,1.0625 -0.625,0.625 -1.0625,1.34375 -0.42188,0.71875 -0.5625,1.32813 V 200 h -2.5625 v -5.98438 l -0.0625,-0.0312 q -0.23438,0.20313 -0.59375,0.5 -0.35938,0.28125 -0.875,0.54688 -0.5,0.26562 -1.17188,0.45312 -0.65625,0.1875 -1.48437,0.1875 -1.375,0 -2.54688,-0.53125 -1.15625,-0.53125 -2.01562,-1.4375 -0.84375,-0.92187 -1.32813,-2.15625 Q 239,190.3125 239,188.90625 q 0,-1.34375 0.4375,-2.48438 0.45312,-1.14062 1.21875,-1.95312 0.78125,-0.82813 1.8125,-1.28125 1.04687,-0.46875 2.25,-0.46875 0.84375,0 1.5625,0.21875 0.73437,0.20312 1.32812,0.51562 0.60938,0.29688 1.07813,0.65625 0.48437,0.34375 0.8125,0.625 l 0.0625,-0.0156 V 179 h -12.95313 v -2.29688 h 28.71875 z m -20.23437,6.15625 q -0.89063,0 -1.57813,0.375 -0.67187,0.35937 -1.125,0.9375 -0.45312,0.5625 -0.6875,1.28125 -0.21875,0.70312 -0.21875,1.39062 0,0.75 0.26563,1.5 0.26562,0.73438 0.75,1.32813 0.5,0.59375 1.1875,0.96875 0.6875,0.35937 1.51562,0.35937 0.70313,0 1.46875,-0.28125 0.78125,-0.29687 1.42188,-0.90625 0.65625,-0.60937 1.07812,-1.54687 0.42188,-0.95313 0.42188,-2.26563 v -0.76562 q -0.375,-0.46875 -0.89063,-0.89063 -0.5,-0.4375 -1.09375,-0.76562 -0.57812,-0.32813 -1.21875,-0.51563 -0.64062,-0.20312 -1.29687,-0.20312 z M 284.90625,179 H 281.625 v 21 h -2.54688 V 186.28125 H 274 q -1.04688,0 -1.89063,0.14062 -0.84375,0.125 -1.4375,0.53125 -0.59375,0.39063 -0.92187,1.10938 -0.3125,0.70312 -0.3125,1.85937 0,1.5 0.48437,2.76563 0.5,1.26562 1.26563,2.32812 0.76562,1.04688 1.6875,1.9375 0.9375,0.89063 1.79687,1.64063 l -1.5625,1.78125 q -0.14062,-0.0781 -0.67187,-0.45313 -0.51563,-0.39062 -1.21875,-1.04687 -0.6875,-0.65625 -1.46875,-1.59375 -0.76563,-0.9375 -1.42188,-2.10938 -0.64062,-1.1875 -1.07812,-2.60937 -0.42188,-1.42188 -0.42188,-3.0625 0,-1.625 0.45313,-2.6875 0.46875,-1.07813 1.3125,-1.70313 0.84375,-0.64062 2.04687,-0.89062 1.20313,-0.25 2.6875,-0.25 h 5.75 V 179 h -14.84375 v -2.29688 h 20.67188 z m 4.39062,17.4375 -2.5,7.6875 h -1.82812 l 1.82812,-7.6875 z"
         id="path6" />
      <path
         d="m 53.640625,236.1875 q 0.234375,0.73437 0.546875,1.60937 0.3125,0.85938 0.734375,1.75 0.4375,0.875 0.96875,1.70313 0.546875,0.82812 1.234375,1.46875 0.703125,0.64062 1.546875,1.03125 0.84375,0.375 1.875,0.375 1.015625,0 1.71875,-0.29688 0.703125,-0.29687 1.140625,-0.79687 0.4375,-0.5 0.625,-1.17188 0.203125,-0.67187 0.203125,-1.40625 0,-1.60937 -1.171875,-2.51562 -1.15625,-0.90625 -3.359375,-0.90625 -0.265625,0 -0.53125,0.0156 -0.265625,0.0156 -0.53125,0.0469 v -2.375 q 0.125,0.0156 0.21875,0.0156 0.109375,0 0.125,0 1.09375,0 1.9375,-0.26562 0.859375,-0.28125 1.4375,-0.75 0.578125,-0.46875 0.875,-1.09375 0.296875,-0.625 0.296875,-1.3125 0,-0.625 -0.21875,-1.10938 -0.21875,-0.48437 -0.59375,-0.8125 -0.375,-0.32812 -0.890625,-0.48437 -0.515625,-0.17188 -1.125,-0.17188 -0.421875,0 -0.8125,0.0625 -0.390625,0.0469 -0.828125,0.17188 -0.4375,0.10937 -0.9375,0.29687 -0.484375,0.1875 -1.109375,0.46875 L 56.125,227.59375 q 1.21875,-0.59375 2.34375,-0.89063 1.125,-0.3125 2.296875,-0.3125 1.125,0 2.078125,0.35938 0.96875,0.35937 1.65625,1 0.703125,0.625 1.09375,1.5 0.390625,0.875 0.390625,1.89062 0,2.79688 -2.671875,4.5 v 0.0625 q 1.046875,0.4375 1.75,1.07813 0.453125,0.0781 0.953125,0.125 0.515625,0.0469 0.9375,0.0469 0.4375,0 0.921875,-0.0625 0.484375,-0.0625 0.984375,-0.23437 0.515625,-0.17188 1.03125,-0.48438 0.53125,-0.3125 1.0625,-0.8125 v -8.65625 h 5.84375 V 229 h -3.28125 v 21 h -2.5625 v -11.875 l -0.0625,-0.0156 Q 70,238.70312 69.21875,238.89062 q -0.78125,0.1875 -1.609375,0.1875 -0.265625,0 -0.546875,-0.0156 -0.28125,-0.0312 -0.578125,-0.0625 l -0.01563,0.0625 q 0.25,0.64062 0.25,1.57812 0,1.26563 -0.421875,2.34375 -0.421875,1.07813 -1.21875,1.875 -0.78125,0.78125 -1.90625,1.21875 -1.109375,0.4375 -2.5,0.4375 -1.484375,0 -2.6875,-0.51562 -1.1875,-0.53125 -2.15625,-1.35938 Q 54.875,243.8125 54.15625,242.78125 53.4375,241.73437 52.921875,240.6875 52.40625,239.64062 52.078125,238.70312 51.75,237.75 51.59375,237.125 Z M 85.109375,229 h -3.28125 v 21 h -2.5625 v -21 h -3.5625 v -2.29688 h 9.40625 z m 19.437505,0 h -3.28125 v 21 H 98.6875 V 237.95312 H 91.375 q 0,1.03125 -0.03125,1.76563 -0.01563,0.73437 -0.125,1.21875 -0.109375,0.46875 -0.328125,0.6875 -0.21875,0.21875 -0.609375,0.21875 -0.8125,0 -1.546875,-0.53125 -0.71875,-0.53125 -1.28125,-1.28125 -0.546875,-0.75 -0.875,-1.5625 -0.328125,-0.8125 -0.328125,-1.375 0,-0.5 0.21875,-0.78125 0.21875,-0.28125 0.578125,-0.42188 0.359375,-0.14062 0.8125,-0.17187 0.46875,-0.0312 0.9375,-0.0312 H 98.6875 V 229 H 84.015625 v -2.29688 h 20.531255 z m -6.48438,-7.0625 q 0,-0.89063 0.53125,-1.4375 0.515625,-0.5625 1.359375,-0.5625 0.390625,0 0.750005,0.15625 0.34375,0.15625 0.60937,0.4375 0.26563,0.26562 0.42188,0.64062 0.14062,0.35938 0.14062,0.79688 0,0.89062 -0.51562,1.4375 -0.53125,0.54687 -1.375005,0.54687 -0.40625,0 -0.75,-0.14062 Q 98.875,223.65625 98.625,223.39062 98.359375,223.10937 98.21875,222.75 98.0625,222.375 98.0625,221.9375 Z M 124.46875,229 h -5.29687 v 6.85937 h -5.26563 q -2.45312,0 -3.70312,1.21875 -1.25,1.20313 -1.25,3.46875 0,1.28125 0.40625,2.26563 0.42187,0.98437 1.14062,1.65625 0.73438,0.65625 1.73438,1 1,0.34375 2.17187,0.34375 1.23438,0 1.98438,-0.375 -0.0625,-0.39063 -0.0937,-0.6875 -0.0312,-0.29688 -0.0312,-0.59375 0,-0.65625 0.15625,-1.34375 0.17187,-0.70313 0.5,-1.26563 0.34375,-0.57812 0.85937,-0.9375 0.53125,-0.35937 1.26563,-0.35937 0.45312,0 0.85937,0.15625 0.40625,0.15625 0.70313,0.48437 0.3125,0.3125 0.48437,0.79688 0.1875,0.48437 0.1875,1.125 0,0.64062 -0.17187,1.1875 -0.17188,0.53125 -0.45313,1 -0.26562,0.45312 -0.60937,0.85937 -0.34375,0.39063 -0.67188,0.71875 0.34375,0.75 0.71875,1.34375 0.39063,0.59375 0.79688,1.0625 0.42187,0.46875 0.84375,0.84375 0.42187,0.375 0.84375,0.70313 l -1.92188,2.01562 q -0.82812,-0.73437 -1.42187,-1.46875 -0.57813,-0.71875 -0.98438,-1.35937 -0.39062,-0.64063 -0.64062,-1.15625 -0.25,-0.51563 -0.40625,-0.82813 -1.07813,0.42188 -2.65625,0.42188 -2.03125,0 -3.54688,-0.65625 -1.51562,-0.67188 -2.53125,-1.78125 -1,-1.125 -1.5,-2.5625 -0.5,-1.4375 -0.5,-2.98438 0,-1.60937 0.51563,-2.82812 0.51562,-1.23438 1.4375,-2.0625 0.92187,-0.84375 2.1875,-1.26563 1.28125,-0.4375 2.79687,-0.4375 h 3.20313 V 229 h -13.15625 v -2.29688 h 21.01562 z m 8.3125,0 H 129.5 v 21 h -2.5625 v -21 h -3.5625 v -2.29688 h 9.40625 z m 19.4375,0 h -3.28125 v 21 h -2.57813 v -12.04688 h -7.3125 q 0,1.03125 -0.0312,1.76563 -0.0156,0.73437 -0.125,1.21875 -0.10937,0.46875 -0.32812,0.6875 -0.21875,0.21875 -0.60938,0.21875 -0.8125,0 -1.54687,-0.53125 -0.71875,-0.53125 -1.28125,-1.28125 -0.54688,-0.75 -0.875,-1.5625 -0.32813,-0.8125 -0.32813,-1.375 0,-0.5 0.21875,-0.78125 0.21875,-0.28125 0.57813,-0.42188 0.35937,-0.14062 0.8125,-0.17187 0.46875,-0.0312 0.9375,-0.0312 h 9.89062 V 229 H 131.6875 v -2.29688 h 20.53125 z m -3.5,-1.85938 h -2.26563 l -1.42187,-2.67187 q -0.90625,-1.70313 -1.64063,-2.70313 -0.75,-1 -1.40625,-1.51562 -0.67187,-0.53125 -1.3125,-0.67188 -0.64062,-0.15625 -1.34375,-0.15625 h -3.03125 v -2.53125 h 2.85938 q 0.90625,0 1.64062,0.15625 0.73438,0.14063 1.40625,0.53125 0.65625,0.375 1.29688,1.0625 0.625,0.67188 1.34375,1.75 0.71875,1.0625 1.57812,2.5625 0.84375,1.48438 1.9375,3.51563 z M 182.53125,229 H 179.25 v 21 h -2.5625 v -8.76563 h -8.59375 v 1.85938 q 0,0.48437 -0.0469,0.85937 -0.0312,0.375 -0.17187,0.625 -0.125,0.25 -0.375,0.39063 -0.23438,0.125 -0.64063,0.125 -0.40625,0 -0.90625,-0.23438 -0.5,-0.25 -1.01562,-0.65625 -0.51563,-0.42187 -1,-0.9375 -0.48438,-0.53125 -0.875,-1.09375 -0.375,-0.57812 -0.60938,-1.14062 -0.23437,-0.5625 -0.23437,-1.03125 0,-0.32813 0.10937,-0.53125 0.125,-0.21875 0.32813,-0.32813 0.21875,-0.10937 0.51562,-0.14062 0.29688,-0.0469 0.67188,-0.0469 h 1.6875 V 229 h -5.64063 v -2.29688 h 22.64063 z m -14.4375,0 v 9.95312 h 8.59375 V 229 Z m 33.875,0 h -3.28125 v 21 h -2.57813 v -12.04688 h -7.3125 q 0,1.03125 -0.0312,1.76563 -0.0156,0.73437 -0.125,1.21875 -0.10937,0.46875 -0.32812,0.6875 -0.21875,0.21875 -0.60938,0.21875 -0.8125,0 -1.54687,-0.53125 -0.71875,-0.53125 -1.28125,-1.28125 -0.54688,-0.75 -0.875,-1.5625 -0.32813,-0.8125 -0.32813,-1.375 0,-0.5 0.21875,-0.78125 0.21875,-0.28125 0.57813,-0.42188 0.35937,-0.14062 0.8125,-0.17187 0.46875,-0.0312 0.9375,-0.0312 h 9.89062 V 229 H 181.4375 v -2.29688 h 20.53125 z m 31.70312,0 h -3.28125 v 21 h -2.5625 v -8.76563 H 219.625 v 2.23438 q 0,0.23437 -0.0469,0.5 -0.0312,0.26562 -0.15625,0.5 -0.10937,0.21875 -0.3125,0.375 -0.1875,0.14062 -0.48437,0.14062 -0.35938,0 -0.85938,-0.21875 -0.48437,-0.23437 -1.01562,-0.60937 -0.51563,-0.39063 -1.03125,-0.875 -0.5,-0.5 -0.90625,-1.03125 -0.39063,-0.53125 -0.64063,-1.0625 -0.25,-0.53125 -0.25,-0.98438 0,-0.65625 0.46875,-0.95312 0.46875,-0.29688 1.23438,-0.29688 h 1.51562 V 230.375 q 0,-0.8125 -0.39062,-1.23438 -0.39063,-0.4375 -0.98438,-0.4375 -0.65625,0 -1.10937,0.48438 -0.4375,0.48437 -0.4375,1.23437 0,0.14063 0.0312,0.34375 0.0312,0.20313 0.15625,0.46875 0.125,0.25 0.375,0.57813 0.25,0.3125 0.67187,0.67187 l -1.39062,1.70313 q -0.71875,-0.39063 -1.17188,-0.85938 -0.45312,-0.48437 -0.70312,-0.98437 -0.25,-0.5 -0.34375,-0.96875 -0.0937,-0.48438 -0.0937,-0.89063 0,-0.75 0.25,-1.46875 0.26562,-0.73437 0.78125,-1.3125 0.51562,-0.59375 1.28125,-0.95312 0.78125,-0.35938 1.8125,-0.35938 0.90625,0 1.60937,0.29688 0.70313,0.29687 1.17188,0.85937 0.48437,0.54688 0.71875,1.32813 0.25,0.76562 0.25,1.71875 v 8.35937 h 8.20312 v -12.25 h 5.84375 z m 15.64063,0 h -5.89063 q 0.79688,1.375 1.28125,2.8125 0.5,1.42187 0.5,2.89062 0,1.10938 -0.34375,2.14063 -0.32812,1.01562 -0.98437,1.82812 -0.64063,0.79688 -1.60938,1.3125 -0.95312,0.5 -2.20312,0.5625 l -0.0312,0.0781 q 1.40625,2.1875 3.15625,4.14062 1.75,1.9375 4.04687,3.6875 l -1.67187,1.92188 q -1.32813,-0.98438 -2.53125,-2.125 -1.1875,-1.15625 -2.25,-2.375 -1.0625,-1.23438 -1.98438,-2.48438 -0.90625,-1.26562 -1.67187,-2.45312 -0.75,-1.20313 -1.34375,-2.29688 -0.59375,-1.10937 -1.01563,-2.01562 l 2.14063,-1.15625 q 0.5625,1.21875 1.26562,1.92187 0.71875,0.6875 1.65625,0.6875 0.67188,0 1.20313,-0.34375 0.53125,-0.34375 0.89062,-0.875 0.35938,-0.54687 0.54688,-1.1875 0.1875,-0.65625 0.1875,-1.28125 0,-0.73437 -0.1875,-1.4375 -0.1875,-0.71875 -0.48438,-1.39062 -0.29687,-0.6875 -0.67187,-1.32813 -0.35938,-0.64062 -0.70313,-1.23437 h -8.03125 v -2.29688 h 16.73438 z m 22.85937,0 h -3.28125 v 21.01562 h -2.5625 V 235.375 q -0.82812,-0.29688 -1.5625,-0.29688 -0.73437,0 -1.28125,0.28125 -0.54687,0.26563 -0.92187,0.71875 -0.35938,0.45313 -0.54688,1.0625 -0.1875,0.60938 -0.1875,1.28125 0,0.26563 0.0156,0.54688 0.0312,0.26562 0.0625,0.53125 h -2.39063 q -0.125,-0.90625 -0.29687,-1.73438 -0.15625,-0.82812 -0.46875,-1.45312 -0.29688,-0.625 -0.78125,-0.98438 -0.48438,-0.375 -1.25,-0.375 -0.73438,0 -1.26563,0.29688 -0.51562,0.29687 -0.85937,0.82812 -0.34375,0.53125 -0.51563,1.25 -0.15625,0.70313 -0.15625,1.53125 0,1.78125 0.60938,3.20313 0.60937,1.40625 1.64062,2.53125 1.04688,1.125 2.40625,2.01562 1.375,0.875 2.89063,1.60938 l -1.26563,2.15625 q -0.5625,-0.25 -1.45312,-0.75 -0.875,-0.5 -1.875,-1.23438 -0.98438,-0.73437 -1.98438,-1.71875 -1,-0.98437 -1.8125,-2.20312 -0.79687,-1.21875 -1.29687,-2.6875 -0.5,-1.46875 -0.5,-3.17188 0,-1.3125 0.375,-2.4375 0.375,-1.14062 1.0625,-1.96875 0.70312,-0.84375 1.6875,-1.3125 0.98437,-0.48437 2.1875,-0.48437 0.90625,0 1.5625,0.26562 0.65625,0.25 1.125,0.64063 0.48437,0.375 0.79687,0.82812 0.3125,0.4375 0.54688,0.82813 l 0.0781,-0.0156 q 0.29688,-0.65625 0.70313,-1.10937 0.42187,-0.45313 0.90625,-0.73438 0.5,-0.28125 1.04687,-0.40625 0.54688,-0.14062 1.09375,-0.14062 0.48438,0 0.95313,0.0937 0.48437,0.0781 0.92187,0.23437 V 229 h -18.10937 v -2.29688 h 23.95312 z m -3.5,-1.85938 h -2.26562 l -1.42188,-2.67187 q -0.90625,-1.70313 -1.64062,-2.70313 -0.75,-1 -1.40625,-1.51562 -0.67188,-0.53125 -1.3125,-0.67188 -0.64063,-0.15625 -1.34375,-0.15625 H 256.25 v -2.53125 h 2.85937 q 0.90625,0 1.64063,0.15625 0.73437,0.14063 1.40625,0.53125 0.65625,0.375 1.29687,1.0625 0.625,0.67188 1.34375,1.75 0.71875,1.0625 1.57813,2.5625 0.84375,1.48438 1.9375,3.51563 z M 309.59375,229 h -3.28125 v 21 H 303.75 v -7.3125 l -0.0625,-0.0156 q -0.42188,0.34375 -1.01563,0.6875 -0.57812,0.32813 -1.29687,0.59375 -0.71875,0.25 -1.54688,0.42188 -0.82812,0.15625 -1.73437,0.15625 -1.46875,0 -2.51563,-0.40625 -1.03125,-0.40625 -1.78125,-1.04688 -0.73437,-0.65625 -1.26562,-1.46875 -0.51563,-0.82812 -0.95313,-1.65625 -0.35937,-0.67187 -0.73437,-1.26562 -0.35938,-0.60938 -0.8125,-1.0625 -0.45313,-0.46875 -1.01563,-0.73438 -0.5625,-0.28125 -1.3125,-0.28125 -1.375,0 -2.01562,0.92188 -0.64063,0.90625 -0.64063,2.45312 0,1.48438 0.5,2.75 0.51563,1.25 1.28125,2.3125 0.78125,1.0625 1.70313,1.95313 0.92187,0.875 1.75,1.59375 l -1.5625,1.78125 q -0.14063,-0.0781 -0.67188,-0.46875 -0.51562,-0.40625 -1.21875,-1.07813 -0.6875,-0.6875 -1.46875,-1.625 -0.76562,-0.95312 -1.42187,-2.10937 -0.64063,-1.17188 -1.07813,-2.54688 -0.42187,-1.375 -0.42187,-2.90625 0,-1.5 0.45312,-2.54687 0.45313,-1.0625 1.17188,-1.71875 0.73437,-0.67188 1.625,-0.98438 0.89062,-0.3125 1.78125,-0.3125 1.17187,0 2.3125,0.5 1.15625,0.5 2.28125,1.78125 0.67187,-0.23437 1.14062,-0.57812 0.48438,-0.35938 0.78125,-0.76563 0.3125,-0.42187 0.45313,-0.89062 0.14062,-0.46875 0.14062,-0.9375 0,-0.375 -0.0781,-0.84375 -0.0625,-0.46875 -0.23438,-1 -0.17187,-0.54688 -0.45312,-1.14063 -0.28125,-0.59375 -0.70313,-1.20312 h -13.26562 v -2.29688 h 29.75 z m -13.71875,0 q 0.5625,0.95312 0.875,2.09375 0.32812,1.125 0.32812,2.21875 0,0.79687 -0.21875,1.54687 -0.20312,0.75 -0.64062,1.40625 -0.4375,0.64063 -1.09375,1.15625 -0.64063,0.5 -1.5,0.79688 0.25,1.04687 0.6875,1.79687 0.4375,0.73438 1.03125,1.21875 0.59375,0.46875 1.32812,0.6875 0.73438,0.21875 1.57813,0.21875 0.8125,0 1.59375,-0.1875 0.79687,-0.1875 1.5,-0.53125 0.71875,-0.35937 1.32812,-0.85937 0.60938,-0.5 1.07813,-1.125 V 229 Z m 22.03125,0 H 314.625 v 21 h -2.5625 V 229 H 308.5 v -2.29688 h 9.40625 z m 21.64062,0 h -3.28125 v 21 h -2.59375 v -6.57813 l -0.0625,-0.0469 q -0.85937,0.78125 -1.6875,1.23437 -0.8125,0.4375 -1.53125,0.67188 -0.70312,0.21875 -1.28125,0.28125 -0.57812,0.0625 -0.95312,0.0625 -1.4375,0 -2.54688,-0.45313 -1.10937,-0.45312 -1.85937,-1.1875 -0.75,-0.75 -1.14063,-1.70312 -0.39062,-0.96875 -0.39062,-2 0,-1.07813 0.4375,-2.14063 0.45312,-1.0625 1.40625,-1.90625 l -0.0156,-0.0625 h -4.95312 V 233.875 h 12.5625 v 2.29687 h -1.60938 q -1.60937,0 -2.64062,0.42188 -1.03125,0.42187 -1.625,1.03125 -0.59375,0.60937 -0.82813,1.3125 -0.21875,0.6875 -0.21875,1.25 0,0.46875 0.15625,1.01562 0.15625,0.53125 0.51563,0.98438 0.375,0.45312 0.98437,0.75 0.625,0.29687 1.5625,0.29687 0.98438,0 1.82813,-0.3125 0.85937,-0.32812 1.57812,-0.84375 0.71875,-0.51562 1.29688,-1.15625 0.59375,-0.65625 1.01562,-1.29687 V 229 H 316.8125 v -2.29688 h 22.73437 z m -3.5,-1.85938 h -2.26562 l -1.42188,-2.67187 q -0.90625,-1.70313 -1.64062,-2.70313 -0.75,-1 -1.40625,-1.51562 -0.67188,-0.53125 -1.3125,-0.67188 -0.64063,-0.15625 -1.34375,-0.15625 H 323.625 v -2.53125 h 2.85937 q 0.90625,0 1.64063,0.15625 0.73437,0.14063 1.40625,0.53125 0.65625,0.375 1.29687,1.0625 0.625,0.67188 1.34375,1.75 0.71875,1.0625 1.57813,2.5625 0.84375,1.48438 1.9375,3.51563 z m 7.89063,19.29688 -2.5,7.6875 h -1.82813 l 1.82813,-7.6875 z M 376.79687,229 h -3.28125 v 21 h -2.5625 v -8.76563 h -8.59375 v 1.85938 q 0,0.48437 -0.0469,0.85937 -0.0312,0.375 -0.17188,0.625 -0.125,0.25 -0.375,0.39063 -0.23437,0.125 -0.64062,0.125 -0.40625,0 -0.90625,-0.23438 -0.5,-0.25 -1.01563,-0.65625 -0.51562,-0.42187 -1,-0.9375 -0.48437,-0.53125 -0.875,-1.09375 -0.375,-0.57812 -0.60937,-1.14062 -0.23438,-0.5625 -0.23438,-1.03125 0,-0.32813 0.10938,-0.53125 0.125,-0.21875 0.32812,-0.32813 0.21875,-0.10937 0.51563,-0.14062 0.29687,-0.0469 0.67187,-0.0469 h 1.6875 V 229 h -5.64062 v -2.29688 h 22.64062 z m -14.4375,0 v 9.95312 h 8.59375 V 229 Z m 22.75,0 h -3.28125 v 21 h -2.5625 v -21 h -3.5625 v -2.29688 h 3.8125 q -0.28125,-1.59375 -0.71875,-2.71875 -0.4375,-1.14062 -0.95312,-1.89062 -0.51563,-0.76563 -1.07813,-1.20313 -0.5625,-0.4375 -1.07812,-0.65625 -0.53125,-0.21875 -0.98438,-0.28125 -0.46875,-0.0625 -0.76562,-0.0625 -0.96875,0 -1.54688,0.3125 -0.59375,0.29688 -0.90625,0.71875 -0.3125,0.42188 -0.40625,0.89063 -0.10937,0.45312 -0.10937,0.78125 0,0.125 0.0469,0.51562 0.0312,0.375 0.25,0.95313 0.20313,0.57812 0.64063,1.29687 0.4375,0.71875 1.23437,1.51563 h -2.65625 q -0.98437,-1.125 -1.46875,-2.32813 -0.5,-1.21875 -0.5,-2.35937 0,-0.95313 0.34375,-1.8125 0.34375,-0.85938 1.03125,-1.48438 0.6875,-0.64062 1.71875,-1.01562 1.03125,-0.375 2.39063,-0.375 1.875,0 3.23437,0.73437 1.35938,0.71875 2.28125,1.96875 0.9375,1.25 1.46875,2.9375 0.54688,1.67188 0.76563,3.5625 h 3.35937 z m 9.9375,19 q 1.29688,0 2.40625,-0.46875 1.10938,-0.46875 1.90625,-1.29688 0.8125,-0.82812 1.26563,-1.95312 0.45312,-1.14063 0.45312,-2.48438 0,-1.125 -0.3125,-1.96875 -0.29687,-0.85937 -0.78125,-1.48437 -0.46875,-0.625 -1.04687,-1.04688 -0.5625,-0.42187 -1.09375,-0.6875 -0.53125,-0.26562 -0.95313,-0.39062 -0.40625,-0.125 -0.57812,-0.15625 -0.40625,0.1875 -1.01563,0.375 -0.59375,0.17187 -1.26562,0.39062 -0.78125,0.26563 -1.57813,0.67188 -0.79687,0.40625 -1.4375,1.0625 -0.64062,0.65625 -1.04687,1.625 -0.39063,0.96875 -0.39063,2.34375 0,1.20312 0.40625,2.21875 0.40625,1 1.125,1.73437 0.73438,0.71875 1.73438,1.125 1,0.39063 2.20312,0.39063 z m 11.79688,-19 h -7.60938 v 2.53125 q 0,0.76562 -0.25,1.59375 -0.25,0.82812 -0.73437,1.40625 1.23437,0.4375 2.20312,1.20312 0.98438,0.75 1.65625,1.75 0.6875,0.98438 1.04688,2.17188 0.375,1.1875 0.375,2.48437 0,1.71875 -0.625,3.21875 -0.625,1.5 -1.75,2.625 -1.10938,1.10938 -2.65625,1.75 -1.54688,0.64063 -3.39063,0.64063 -1.95312,0 -3.45312,-0.6875 -1.5,-0.70313 -2.51563,-1.85938 -1.01562,-1.15625 -1.54687,-2.64062 -0.53125,-1.48438 -0.53125,-3.07813 0,-1.67187 0.48437,-2.92187 0.5,-1.25 1.35938,-2.15625 0.85937,-0.92188 2.03125,-1.53125 1.1875,-0.60938 2.57812,-1 0.64063,-0.1875 1.21875,-0.375 0.57813,-0.1875 1,-0.53125 0.4375,-0.34375 0.6875,-0.89063 0.25,-0.5625 0.25,-1.45312 V 229 h -12.65625 v -2.29688 h 22.82813 z m 2.9375,21.34375 q -0.71875,0 -1.23438,-0.51563 -0.5,-0.51562 -0.5,-1.23437 0,-0.71875 0.5,-1.23438 0.51563,-0.53125 1.23438,-0.53125 0.73437,0 1.25,0.53125 0.51562,0.51563 0.51562,1.23438 0,0.71875 -0.51562,1.23437 -0.51563,0.51563 -1.25,0.51563 z"
         id="path7" />
    </g>
  </g>
</svg>
