<?xml version="1.0" encoding="UTF-8" standalone="no"?>
<svg
   width="800"
   height="600"
   viewBox="0 0 800 600"
   version="1.1"
   id="svg4"
   sodipodi:docname="tejas_music.svg"
   xmlns:inkscape="http://www.inkscape.org/namespaces/inkscape"
   xmlns:sodipodi="http://sodipodi.sourceforge.net/DTD/sodipodi-0.dtd"
   xmlns="http://www.w3.org/2000/svg"
   xmlns:svg="http://www.w3.org/2000/svg">
  <defs
     id="defs4" />
  <sodipodi:namedview
     id="namedview4"
     pagecolor="#ffffff"
     bordercolor="#666666"
     borderopacity="1.0"
     inkscape:showpageshadow="2"
     inkscape:pageopacity="0.0"
     inkscape:pagecheckerboard="0"
     inkscape:deskcolor="#d1d1d1" />
  <g
     id="g4">
    <path
       d="m 326.28906,226.875 h -2.05078 V 240 h -1.5918 v -8.57422 h -3.17382 q -0.6543,0 -1.18164,0.0879 -0.52735,0.0781 -0.89844,0.33203 -0.3711,0.24414 -0.57617,0.69336 -0.19532,0.43946 -0.19532,1.16211 0,0.9375 0.30274,1.72852 0.3125,0.79101 0.79101,1.45508 0.47852,0.65429 1.05469,1.21093 0.58594,0.55664 1.12305,1.02539 l -0.97656,1.11328 q -0.0879,-0.0488 -0.41993,-0.2832 -0.32226,-0.24414 -0.76172,-0.6543 -0.42968,-0.41015 -0.91796,-0.99609 -0.47852,-0.58594 -0.88868,-1.31836 -0.40039,-0.74219 -0.67382,-1.63086 -0.26368,-0.88867 -0.26368,-1.91406 0,-1.01563 0.28321,-1.67969 0.29297,-0.67383 0.82031,-1.06445 0.52734,-0.40039 1.2793,-0.55664 0.75195,-0.15625 1.67968,-0.15625 h 3.59375 V 226.875 h -9.27734 v -1.43555 h 12.91992 z m -2.1875,-1.16211 h -1.41601 l -0.88868,-1.66992 q -0.5664,-1.06445 -1.02539,-1.68945 -0.46875,-0.625 -0.8789,-0.94727 -0.41992,-0.33203 -0.82031,-0.41992 -0.4004,-0.0977 -0.83985,-0.0977 h -1.89453 v -1.58203 h 1.78711 q 0.56641,0 1.02539,0.0977 0.45898,0.0879 0.87891,0.33203 0.41015,0.23437 0.81054,0.66406 0.39063,0.41992 0.83985,1.09375 0.44922,0.66406 0.98633,1.60156 0.52734,0.92774 1.21093,2.19727 z m 17.15821,1.16211 h -2.05079 V 240 h -1.60156 v -8.47656 h -3.14453 l -0.01,0.0391 q 0.11719,0.13672 0.35157,0.41992 0.23437,0.27344 0.46875,0.6836 0.23437,0.40039 0.41015,0.91796 0.17578,0.50782 0.17578,1.10352 0,0.5957 -0.20507,1.18164 -0.19532,0.57617 -0.59571,1.04492 -0.39062,0.45899 -0.99609,0.74219 -0.60547,0.2832 -1.40625,0.2832 -0.79102,0 -1.45508,-0.27343 -0.6543,-0.28321 -1.20117,-0.75196 -0.53711,-0.46875 -0.9668,-1.08398 -0.42968,-0.61524 -0.77148,-1.29883 -0.33203,-0.69336 -0.58594,-1.39648 -0.24414,-0.7129 -0.41992,-1.35743 -0.17578,-0.65429 -0.2832,-1.20117 -0.10743,-0.54687 -0.16602,-0.9082 l 1.44531,-0.2832 q 0.32227,1.75781 0.78125,3.08593 0.46875,1.31836 1.03516,2.20703 0.56641,0.88868 1.2207,1.33789 0.6543,0.43946 1.36719,0.43946 0.50781,0 0.82031,-0.19531 0.3125,-0.20508 0.48828,-0.48829 0.17578,-0.29296 0.23438,-0.5957 0.0684,-0.3125 0.0684,-0.53711 0,-0.40039 -0.16602,-0.84961 -0.15625,-0.45898 -0.46875,-0.9082 -0.30273,-0.45899 -0.76172,-0.87891 -0.45898,-0.41992 -1.05468,-0.76172 v -1.14257 h 5.79101 V 226.875 h -12.00195 v -1.43555 h 15.6543 z m 14.40429,-1.43555 v 1.43555 h -2.05078 V 240 h -1.62109 v -6.5625 h -5.6543 q -0.51758,0.3418 -1.24023,0.41016 l -0.0195,0.0488 q 0.94727,1.48438 2.08008,2.76368 1.13282,1.27929 2.57813,2.37304 l -1.04492,1.20117 q -0.83008,-0.61523 -1.58204,-1.32812 -0.74218,-0.71289 -1.40625,-1.47461 -0.65429,-0.77148 -1.23046,-1.55273 -0.57618,-0.79102 -1.05469,-1.55274 -0.47852,-0.76172 -0.85938,-1.46484 -0.38086,-0.71289 -0.66406,-1.31836 l 1.33789,-0.72266 q 0.18555,0.42969 0.36133,0.72266 0.18555,0.2832 0.37109,0.45898 0.18555,0.16602 0.39063,0.24414 0.20508,0.0684 0.43945,0.0684 0.67383,0 0.98633,-0.52734 0.32227,-0.52734 0.32227,-1.38672 0,-0.50781 -0.0977,-0.99609 -0.0977,-0.49805 -0.25391,-0.94727 -0.14648,-0.45898 -0.32226,-0.85937 -0.17578,-0.40039 -0.33203,-0.72266 h -4.52149 v -1.43555 z m -3.67187,1.43555 h -5.20508 q 0.41016,0.88867 0.64453,1.78711 0.23438,0.89844 0.23438,1.78711 0,0.41015 -0.0684,0.81055 -0.0586,0.39062 -0.20508,0.74218 l 0.0195,0.0195 h 4.58008 z m 13.57422,1.86523 q 0.10742,-0.15625 0.19531,-0.39062 0.0976,-0.24414 0.0976,-0.54688 0,-0.27343 -0.0976,-0.47851 -0.0977,-0.20508 -0.25391,-0.33203 -0.14648,-0.12696 -0.34179,-0.18555 -0.19532,-0.0684 -0.39063,-0.0684 -0.23437,0 -0.46875,0.0977 -0.22461,0.0879 -0.41016,0.29297 -0.17578,0.20507 -0.29296,0.52734 -0.11719,0.3125 -0.11719,0.75195 0,0.47852 0.13672,0.90821 0.14648,0.41992 0.43945,0.74218 0.30273,0.3125 0.75195,0.49805 0.45899,0.18555 1.09375,0.18555 0.43946,0 0.81055,-0.0684 0.37109,-0.0781 0.64453,-0.14649 l 0.26367,1.50391 q -0.15625,0.0195 -0.41992,0.0781 -0.26367,0.0488 -0.57617,0.16602 -0.30274,0.10742 -0.625,0.2832 -0.3125,0.17578 -0.56641,0.43946 -0.2539,0.2539 -0.41992,0.60547 -0.15625,0.35156 -0.15625,0.82031 0,0.43945 0.14649,0.78125 0.14648,0.34179 0.41015,0.58594 0.26367,0.24414 0.63477,0.37109 0.37109,0.12695 0.81054,0.12695 0.625,0 1.15235,-0.23437 0.52734,-0.23438 0.94726,-0.57617 0.41993,-0.35157 0.72266,-0.75196 0.30273,-0.40039 0.47852,-0.73242 v -8.55469 h 3.65234 v 1.43555 h -2.05078 V 240 h -1.60156 v -3.65234 l -0.0391,-0.01 q -0.36133,0.40039 -0.76172,0.67383 -0.40039,0.27344 -0.82031,0.44922 -0.41015,0.16601 -0.83008,0.24414 -0.41992,0.0781 -0.81054,0.0781 -0.77149,0 -1.43555,-0.2539 -0.6543,-0.25391 -1.13281,-0.71289 -0.47852,-0.45899 -0.75196,-1.08399 -0.27343,-0.63476 -0.27343,-1.39648 0,-0.70313 0.26367,-1.28907 0.27344,-0.58593 0.94726,-1.11328 l -0.01,-0.0391 q -0.66406,-0.17578 -1.15235,-0.53711 -0.47851,-0.36133 -0.80078,-0.83008 -0.3125,-0.46875 -0.46875,-1.01562 -0.15625,-0.55664 -0.15625,-1.11328 0,-0.6836 0.21485,-1.25977 0.22461,-0.57617 0.61523,-0.99609 0.40039,-0.41992 0.9375,-0.6543 0.53711,-0.24414 1.18164,-0.24414 0.67383,0 1.15235,0.23438 0.48828,0.23437 0.79101,0.5957 0.3125,0.36133 0.45899,0.80078 0.14648,0.42969 0.14648,0.82031 0,0.27344 -0.0586,0.53711 -0.0586,0.26367 -0.14649,0.49805 -0.0879,0.23437 -0.19531,0.42969 -0.0977,0.19531 -0.18555,0.33203 z m 13.44726,-1.86523 h -2.05078 V 240 h -1.60156 v -13.125 h -2.22656 v -1.43555 h 5.8789 z m 11.75781,0 H 388.7207 V 240 h -1.60156 v -3.48633 l -0.0391,-0.01 q -0.19531,0.18554 -0.45899,0.39062 -0.26367,0.19531 -0.60547,0.36133 -0.34179,0.15625 -0.77148,0.26367 -0.41992,0.10742 -0.94727,0.10742 -0.96679,0 -1.76757,-0.37109 -0.79102,-0.37109 -1.36719,-0.98633 -0.57617,-0.625 -0.89844,-1.42578 -0.3125,-0.81055 -0.3125,-1.68945 0,-0.87891 0.3125,-1.63086 0.32227,-0.76172 0.87891,-1.31836 0.55664,-0.55664 1.29883,-0.86914 0.74218,-0.32227 1.59179,-0.32227 0.23438,0 0.58594,0.0391 0.36133,0.0391 0.77148,0.17579 0.41016,0.13671 0.84961,0.40039 0.43946,0.2539 0.83985,0.69336 l 0.0391,-0.01 v -3.4375 h -8.78906 v -1.43555 h 12.4414 z m -3.61328,5.26367 q -0.61523,-0.74219 -1.33789,-1.1914 -0.72265,-0.45899 -1.64062,-0.45899 -0.72266,0 -1.23047,0.27344 -0.49805,0.27344 -0.82031,0.69336 -0.32227,0.41015 -0.46875,0.91797 -0.14649,0.50781 -0.14649,0.97656 0,0.50781 0.16602,1.00586 0.16601,0.49805 0.48828,0.89844 0.33203,0.39062 0.82031,0.64453 0.48828,0.24414 1.14258,0.24414 0.67383,0 1.23047,-0.25391 0.55664,-0.26367 0.95703,-0.66406 0.40039,-0.40039 0.61523,-0.89844 0.22461,-0.49805 0.22461,-0.9668 z m 1.42578,-6.42578 h -1.41601 l -0.88867,-1.66992 q -0.56641,-1.06445 -1.02539,-1.68945 -0.46875,-0.625 -0.87891,-0.94727 -0.41992,-0.33203 -0.82031,-0.41992 -0.40039,-0.0977 -0.83985,-0.0977 h -1.89453 v -1.58203 h 1.78711 q 0.56641,0 1.02539,0.0977 0.45899,0.0879 0.87891,0.33203 0.41015,0.23437 0.81055,0.66406 0.39062,0.41992 0.83984,1.09375 0.44922,0.66406 0.98633,1.60156 0.52734,0.92774 1.21093,2.19727 z m 4.93164,12.06055 -1.5625,4.80468 h -1.14257 l 1.14257,-4.80468 z m 21.47461,-12.33399 v 1.43555 h -2.05078 V 240 h -1.62109 v -6.5625 h -5.6543 q -0.51758,0.3418 -1.24023,0.41016 l -0.0195,0.0488 q 0.94726,1.48438 2.08007,2.76368 1.13282,1.27929 2.57813,2.37304 l -1.04492,1.20117 q -0.83008,-0.61523 -1.58203,-1.32812 -0.74219,-0.71289 -1.40625,-1.47461 -0.6543,-0.77148 -1.23047,-1.55273 -0.57617,-0.79102 -1.05469,-1.55274 -0.47852,-0.76172 -0.85937,-1.46484 -0.38086,-0.71289 -0.66407,-1.31836 l 1.33789,-0.72266 q 0.18555,0.42969 0.36133,0.72266 0.18555,0.2832 0.3711,0.45898 0.18554,0.16602 0.39062,0.24414 0.20508,0.0684 0.43945,0.0684 0.67383,0 0.98633,-0.52734 0.32227,-0.52734 0.32227,-1.38672 0,-0.50781 -0.0977,-0.99609 -0.0977,-0.49805 -0.25391,-0.94727 -0.14648,-0.45898 -0.32226,-0.85937 -0.17578,-0.40039 -0.33203,-0.72266 h -4.52149 v -1.43555 z m -3.67187,1.43555 h -5.20508 q 0.41016,0.88867 0.64453,1.78711 0.23438,0.89844 0.23438,1.78711 0,0.41015 -0.0684,0.81055 -0.0586,0.39062 -0.20508,0.74218 l 0.0195,0.0195 h 4.58008 z m -0.38086,-4.41406 q 0,-0.55664 0.33203,-0.89844 0.32227,-0.35156 0.84961,-0.35156 0.24414,0 0.46875,0.0977 0.21484,0.0977 0.38086,0.27344 0.16602,0.16602 0.26367,0.40039 0.0879,0.22461 0.0879,0.49805 0,0.55664 -0.32226,0.89844 -0.33203,0.34179 -0.85938,0.34179 -0.2539,0 -0.46875,-0.0879 -0.22461,-0.0977 -0.38086,-0.26367 -0.16601,-0.17578 -0.2539,-0.40039 -0.0977,-0.23438 -0.0977,-0.50781 z m 16.52344,4.41406 h -2.05078 V 240 h -1.60157 v -13.125 h -4.40429 v 7.57812 q 0,0.15625 -0.0195,0.36133 -0.0195,0.20508 -0.0977,0.40039 -0.0684,0.18555 -0.20508,0.32227 -0.13672,0.12695 -0.38086,0.12695 -0.26367,0 -0.58594,-0.16601 -0.3125,-0.17578 -0.64453,-0.44922 -0.33203,-0.28321 -0.64453,-0.63477 -0.30273,-0.35156 -0.54687,-0.72265 -0.24414,-0.3711 -0.39063,-0.72266 -0.14648,-0.35156 -0.14648,-0.625 0,-0.24414 0.11718,-0.39063 0.12696,-0.14648 0.3418,-0.2246 0.22461,-0.0781 0.53711,-0.0977 0.32227,-0.0195 0.70313,-0.0195 h 0.34179 V 226.875 h -3.47656 v -1.43555 h 13.1543 z m 5.19531,0 h -2.05078 V 240 h -1.60156 v -13.125 h -2.22657 v -1.43555 h 2.38282 q -0.17579,-0.99609 -0.44922,-1.69922 -0.27344,-0.71289 -0.59571,-1.18164 -0.32226,-0.47851 -0.67382,-0.75195 -0.35157,-0.27344 -0.67383,-0.41016 -0.33203,-0.13671 -0.61524,-0.17578 -0.29297,-0.0391 -0.47851,-0.0391 -0.60547,0 -0.9668,0.19531 -0.37109,0.18555 -0.56641,0.44922 -0.19531,0.26367 -0.2539,0.55664 -0.0684,0.28321 -0.0684,0.48828 0,0.0781 0.0293,0.32227 0.0195,0.23437 0.15625,0.5957 0.12695,0.36133 0.40039,0.81055 0.27343,0.44922 0.77148,0.94726 h -1.66016 q -0.61523,-0.70312 -0.91796,-1.45507 -0.3125,-0.76172 -0.3125,-1.47461 0,-0.59571 0.21484,-1.13282 0.21484,-0.5371 0.64453,-0.92773 0.42969,-0.40039 1.07422,-0.63477 0.64453,-0.23437 1.49414,-0.23437 1.17188,0 2.02148,0.45898 0.84961,0.44922 1.42579,1.23047 0.58593,0.78125 0.91796,1.83594 0.3418,1.04492 0.47852,2.22656 h 2.09961 z m 12.23633,0 H 442.8418 V 240 H 441.25 v -8.57422 h -3.17383 q -0.6543,0 -1.18164,0.0879 -0.52734,0.0781 -0.89844,0.33203 -0.37109,0.24414 -0.57617,0.69336 -0.19531,0.43946 -0.19531,1.16211 0,0.9375 0.30273,1.72852 0.3125,0.79101 0.79102,1.45508 0.47851,0.65429 1.05469,1.21093 0.58593,0.55664 1.12304,1.02539 l -0.97656,1.11328 q -0.0879,-0.0488 -0.41992,-0.2832 -0.32227,-0.24414 -0.76172,-0.6543 -0.42969,-0.41015 -0.91797,-0.99609 -0.47851,-0.58594 -0.88867,-1.31836 -0.40039,-0.74219 -0.67383,-1.63086 -0.26367,-0.88867 -0.26367,-1.91406 0,-1.01563 0.2832,-1.67969 0.29297,-0.67383 0.82032,-1.06445 0.52734,-0.40039 1.27929,-0.55664 0.75196,-0.15625 1.67969,-0.15625 H 441.25 V 226.875 h -9.27734 v -1.43555 h 12.91992 z m 17.23633,0 h -2.05079 V 240 h -1.60156 v -3.48633 l -0.0391,-0.01 q -0.19531,0.18554 -0.45898,0.39062 -0.26368,0.19531 -0.60547,0.36133 -0.3418,0.15625 -0.77149,0.26367 -0.41992,0.10742 -0.94726,0.10742 -0.9668,0 -1.76758,-0.37109 -0.79102,-0.37109 -1.36719,-0.98633 -0.57617,-0.625 -0.89844,-1.42578 -0.3125,-0.81055 -0.3125,-1.68945 0,-0.87891 0.3125,-1.63086 0.32227,-0.76172 0.87891,-1.31836 0.55664,-0.55664 1.29883,-0.86914 0.74219,-0.32227 1.59179,-0.32227 0.23438,0 0.58594,0.0391 0.36133,0.0391 0.77149,0.17579 0.41015,0.13671 0.84961,0.40039 0.43945,0.2539 0.83984,0.69336 l 0.0391,-0.01 v -3.4375 h -8.78906 v -1.43555 h 12.44141 z m -3.61329,5.26367 q -0.61523,-0.74219 -1.33789,-1.1914 -0.72265,-0.45899 -1.64062,-0.45899 -0.72266,0 -1.23047,0.27344 -0.49805,0.27344 -0.82031,0.69336 -0.32227,0.41015 -0.46875,0.91797 -0.14649,0.50781 -0.14649,0.97656 0,0.50781 0.16602,1.00586 0.16601,0.49805 0.48828,0.89844 0.33203,0.39062 0.82031,0.64453 0.48828,0.24414 1.14258,0.24414 0.67383,0 1.23047,-0.25391 0.55664,-0.26367 0.95703,-0.66406 0.40039,-0.40039 0.61524,-0.89844 0.2246,-0.49805 0.2246,-0.9668 z m 8.8086,-5.26367 h -2.05078 V 240 h -1.60157 v -13.125 h -2.22656 v -1.43555 h 5.87891 z m 14.9707,0 h -2.05078 V 240 h -1.60156 v -8.47656 h -3.14453 l -0.01,0.0391 q 0.11719,0.13672 0.35156,0.41992 0.23438,0.27344 0.46875,0.6836 0.23438,0.40039 0.41016,0.91796 0.17578,0.50782 0.17578,1.10352 0,0.5957 -0.20508,1.18164 -0.19531,0.57617 -0.5957,1.04492 -0.39063,0.45899 -0.99609,0.74219 -0.60547,0.2832 -1.40625,0.2832 -0.79102,0 -1.45508,-0.27343 -0.6543,-0.28321 -1.20117,-0.75196 -0.53711,-0.46875 -0.9668,-1.08398 -0.42969,-0.61524 -0.77149,-1.29883 -0.33203,-0.69336 -0.58593,-1.39648 -0.24414,-0.7129 -0.41992,-1.35743 -0.17579,-0.65429 -0.28321,-1.20117 -0.10742,-0.54687 -0.16601,-0.9082 l 1.44531,-0.2832 q 0.32226,1.75781 0.78125,3.08593 0.46875,1.31836 1.03516,2.20703 0.5664,0.88868 1.2207,1.33789 0.6543,0.43946 1.36719,0.43946 0.50781,0 0.82031,-0.19531 0.3125,-0.20508 0.48828,-0.48829 0.17578,-0.29296 0.23437,-0.5957 0.0684,-0.3125 0.0684,-0.53711 0,-0.40039 -0.16601,-0.84961 -0.15625,-0.45898 -0.46875,-0.9082 -0.30274,-0.45899 -0.76172,-0.87891 -0.45898,-0.41992 -1.05469,-0.76172 v -1.14257 h 5.79102 V 226.875 h -12.00196 v -1.43555 h 15.6543 z m -2.1875,-1.16211 h -1.41601 l -0.88868,-1.66992 q -0.5664,-1.06445 -1.02539,-1.68945 -0.46875,-0.625 -0.8789,-0.94727 -0.41992,-0.33203 -0.82032,-0.41992 -0.40039,-0.0977 -0.83984,-0.0977 h -1.89453 v -1.58203 h 1.78711 q 0.56641,0 1.02539,0.0977 0.45898,0.0879 0.87891,0.33203 0.41015,0.23437 0.81054,0.66406 0.39063,0.41992 0.83985,1.09375 0.44922,0.66406 0.98632,1.60156 0.52735,0.92774 1.21094,2.19727 z m 4.93164,12.06055 -1.5625,4.80468 h -1.14258 l 1.14258,-4.80468 z"
       id="text1"
       style="font-size:20px;font-family:'Hershey Sans 1';text-anchor:middle"
       aria-label="तेजस धावे, संगीत वाजे," />
    <path
       d="m 309.33105,266.875 h -2.05078 V 280 h -1.60156 v -5.47852 h -5.37109 v 1.16211 q 0,0.30274 -0.0293,0.53711 -0.0195,0.23438 -0.10742,0.39063 -0.0781,0.15625 -0.23438,0.24414 -0.14648,0.0781 -0.40039,0.0781 -0.2539,0 -0.5664,-0.14648 -0.3125,-0.15625 -0.63477,-0.41016 -0.32226,-0.26367 -0.625,-0.58593 -0.30273,-0.33204 -0.54687,-0.6836 -0.23438,-0.36133 -0.38086,-0.71289 -0.14649,-0.35156 -0.14649,-0.64453 0,-0.20508 0.0684,-0.33203 0.0781,-0.13672 0.20508,-0.20508 0.13672,-0.0684 0.32227,-0.0879 0.18554,-0.0293 0.41992,-0.0293 h 1.05468 v -6.2207 h -3.52539 v -1.43555 h 14.15039 z m -9.02343,0 v 6.2207 h 5.37109 v -6.2207 z m 21.17187,0 h -2.05078 V 280 h -1.61133 v -7.5293 h -4.57031 q 0,0.64453 -0.0195,1.10352 -0.01,0.45898 -0.0781,0.76172 -0.0684,0.29297 -0.20507,0.42968 -0.13672,0.13672 -0.38086,0.13672 -0.50782,0 -0.9668,-0.33203 -0.44922,-0.33203 -0.80078,-0.80078 -0.3418,-0.46875 -0.54688,-0.97656 -0.20507,-0.50781 -0.20507,-0.85938 0,-0.3125 0.13671,-0.48828 0.13672,-0.17578 0.36133,-0.26367 0.22461,-0.0879 0.50781,-0.10742 0.29297,-0.0195 0.58594,-0.0195 h 6.18164 V 266.875 h -9.16992 v -1.43555 h 12.83203 z m 18.94531,0 h -2.05078 V 280 h -1.60156 v -5.47852 h -5.37109 v 1.16211 q 0,0.30274 -0.0293,0.53711 -0.0195,0.23438 -0.10742,0.39063 -0.0781,0.15625 -0.23438,0.24414 -0.14648,0.0781 -0.40039,0.0781 -0.2539,0 -0.5664,-0.14648 -0.3125,-0.15625 -0.63477,-0.41016 -0.32226,-0.26367 -0.625,-0.58593 -0.30273,-0.33204 -0.54687,-0.6836 -0.23438,-0.36133 -0.38086,-0.71289 -0.14649,-0.35156 -0.14649,-0.64453 0,-0.20508 0.0684,-0.33203 0.0781,-0.13672 0.20508,-0.20508 0.13672,-0.0684 0.32227,-0.0879 0.18554,-0.0293 0.41992,-0.0293 h 1.05468 v -6.2207 h -3.52539 v -1.43555 h 14.15039 z m -9.02343,0 v 6.2207 h 5.37109 v -6.2207 z m 14.21875,0 h -2.05078 V 280 h -1.60157 v -13.125 h -2.22656 v -1.43555 h 5.87891 z m -2.1875,-1.16211 h -1.41602 l -0.88867,-1.66992 q -0.56641,-1.06445 -1.03516,-1.68945 -0.45898,-0.625 -0.86914,-0.94727 -0.41992,-0.33203 -0.82031,-0.41992 -0.40039,-0.0977 -0.83984,-0.0977 h -1.89453 v -1.58203 h 1.7871 q 0.56641,0 1.0254,0.0977 0.45898,0.0879 0.8789,0.33203 0.41016,0.23437 0.80078,0.66406 0.40039,0.41992 0.84961,1.09375 0.44922,0.66406 0.97656,1.60156 0.53711,0.92774 1.22071,2.19727 z M 355.31738,285 q -0.47851,-0.78125 -0.98633,-1.48438 -0.49804,-0.69335 -1.06445,-1.2207 -0.5664,-0.51758 -1.2207,-0.82031 -0.6543,-0.30274 -1.44531,-0.30274 -0.46875,0 -0.83985,0.10743 -0.37109,0.10742 -0.625,0.2832 -0.24414,0.18555 -0.38086,0.41992 -0.12695,0.24414 -0.12695,0.50781 0,0.47852 0.40039,0.76172 0.40039,0.28321 1.10352,0.28321 0.60546,0 1.33789,-0.26368 l 0.34179,1.41602 q -0.41015,0.16602 -0.82031,0.23437 Q 350.59082,285 350.2002,285 q -0.625,0 -1.18165,-0.17578 -0.54687,-0.16602 -0.96679,-0.49805 -0.41016,-0.32226 -0.6543,-0.80078 -0.23437,-0.47852 -0.23437,-1.10352 0,-0.50781 0.16601,-0.92773 0.16602,-0.41016 0.44922,-0.72266 0.29297,-0.30273 0.68359,-0.51757 0.39063,-0.21485 0.83985,-0.33204 l 0.01,-0.0391 q -0.48828,-0.3125 -0.89843,-0.69336 -0.40039,-0.39062 -0.69336,-0.85937 -0.28321,-0.46875 -0.44922,-1.00586 -0.15625,-0.54688 -0.15625,-1.17188 0,-0.76172 0.22461,-1.38672 0.23437,-0.63476 0.60547,-1.07421 -0.53711,-0.61524 -0.79102,-1.24024 -0.25391,-0.625 -0.25391,-1.35742 0,-0.41992 0.0977,-0.79102 0.10742,-0.37109 0.37109,-0.64453 0.27344,-0.2832 0.75196,-0.44922 0.47851,-0.16601 1.24023,-0.16601 h 4.42383 V 266.875 h -8.84766 v -1.43555 h 12.72461 v 1.43555 h -2.27539 v 3.59375 h -5.61523 q -0.38086,0 -0.64453,0.0684 -0.25391,0.0586 -0.41016,0.19531 -0.15625,0.12695 -0.22461,0.32227 -0.0586,0.18554 -0.0586,0.44922 0,0.33203 0.11718,0.65429 0.11719,0.32227 0.43946,0.71289 0.5664,-0.29297 1.24023,-0.42968 0.6836,-0.14649 1.42578,-0.14649 0.85938,0 1.60157,0.19531 0.75195,0.19532 1.29882,0.59571 0.55664,0.39062 0.86914,1.00586 0.32227,0.60547 0.32227,1.43554 0,0.67383 -0.20508,1.17188 -0.19531,0.48828 -0.51758,0.84961 -0.32226,0.36133 -0.72265,0.60547 -0.39063,0.24414 -0.78125,0.41015 l -0.60547,-1.48437 q 0.26367,-0.10742 0.49805,-0.25391 0.23437,-0.14648 0.41015,-0.3418 0.17578,-0.19531 0.27344,-0.43945 0.10742,-0.2539 0.10742,-0.57617 0,-0.83008 -0.67383,-1.25977 -0.66406,-0.43945 -1.8457,-0.43945 -0.60547,0 -1.15234,0.12695 -0.53711,0.12696 -0.95703,0.41016 -0.41993,0.27344 -0.66407,0.72266 -0.24414,0.44922 -0.24414,1.09375 0,0.58593 0.19531,1.08398 0.20508,0.48828 0.52735,0.89844 0.33203,0.40039 0.73242,0.72265 0.41016,0.32227 0.81055,0.56641 0.41015,0.24414 0.78125,0.41992 0.38086,0.16602 0.63476,0.27344 0.32227,0.13672 0.76172,0.37109 0.44922,0.24414 0.97656,0.71289 0.53711,0.47852 1.15235,1.24024 0.625,0.77148 1.29883,1.95312 z m 14.49219,-18.125 h -2.05078 V 280 h -1.61133 v -7.5293 h -4.57031 q 0,0.64453 -0.0195,1.10352 -0.01,0.45898 -0.0781,0.76172 -0.0684,0.29297 -0.20508,0.42968 -0.13671,0.13672 -0.38086,0.13672 -0.50781,0 -0.96679,-0.33203 -0.44922,-0.33203 -0.80078,-0.80078 -0.3418,-0.46875 -0.54688,-0.97656 -0.20508,-0.50781 -0.20508,-0.85938 0,-0.3125 0.13672,-0.48828 0.13672,-0.17578 0.36133,-0.26367 0.22461,-0.0879 0.50781,-0.10742 0.29297,-0.0195 0.58594,-0.0195 h 6.18164 V 266.875 h -9.16992 v -1.43555 h 12.83203 z m 20.44922,0 h -2.05078 V 280 h -1.60156 v -8.47656 h -3.14454 l -0.01,0.0391 q 0.11719,0.13672 0.35156,0.41992 0.23438,0.27344 0.46875,0.6836 0.23438,0.40039 0.41016,0.91796 0.17578,0.50782 0.17578,1.10352 0,0.5957 -0.20508,1.18164 -0.19531,0.57617 -0.5957,1.04492 -0.39063,0.45899 -0.9961,0.74219 -0.60547,0.2832 -1.40625,0.2832 -0.79101,0 -1.45507,-0.27343 -0.6543,-0.28321 -1.20118,-0.75196 -0.53711,-0.46875 -0.96679,-1.08398 -0.42969,-0.61524 -0.77149,-1.29883 -0.33203,-0.69336 -0.58594,-1.39648 -0.24414,-0.7129 -0.41992,-1.35743 -0.17578,-0.65429 -0.2832,-1.20117 -0.10742,-0.54687 -0.16602,-0.9082 l 1.44532,-0.2832 q 0.32226,1.75781 0.78125,3.08593 0.46875,1.31836 1.03515,2.20703 0.56641,0.88868 1.22071,1.33789 0.65429,0.43946 1.36718,0.43946 0.50782,0 0.82032,-0.19531 0.3125,-0.20508 0.48828,-0.48829 0.17578,-0.29296 0.23437,-0.5957 0.0684,-0.3125 0.0684,-0.53711 0,-0.40039 -0.16601,-0.84961 -0.15625,-0.45898 -0.46875,-0.9082 -0.30274,-0.45899 -0.76172,-0.87891 -0.45899,-0.41992 -1.05469,-0.76172 v -1.14257 h 5.79102 V 266.875 h -12.00196 v -1.43555 h 15.6543 z m 5.19531,0 h -2.05078 V 280 h -1.60156 v -13.125 h -2.22656 v -1.43555 h 5.8789 z m 6.20117,12.34375 v 0.0488 q 0.44922,0.48828 0.94727,0.88867 0.49805,0.41016 0.95703,0.72266 0.46875,0.3125 0.85938,0.52734 0.40039,0.21484 0.65429,0.32227 l -0.69336,1.2207 q -0.61523,-0.32227 -1.23047,-0.75195 -0.60546,-0.42969 -1.18164,-0.89844 -0.5664,-0.46875 -1.07422,-0.95703 -0.49804,-0.48828 -0.89843,-0.92774 -0.83985,-0.0781 -1.42578,-0.30273 -0.57618,-0.22461 -0.94727,-0.53711 -0.36133,-0.3125 -0.52734,-0.67383 -0.16602,-0.36133 -0.16602,-0.70312 0,-0.24415 0.0781,-0.46875 0.0879,-0.22461 0.24414,-0.39063 0.16601,-0.16602 0.40039,-0.26367 0.24414,-0.0977 0.55664,-0.0977 0.33203,0 0.70312,0.11719 0.38086,0.11719 0.74219,0.35156 0.36133,0.23438 0.69336,0.59571 0.33203,0.35156 0.58594,0.83007 1.2207,-0.20507 1.8457,-0.82031 0.625,-0.625 0.625,-1.63086 0,-0.39062 -0.10742,-0.63476 -0.0977,-0.24414 -0.30274,-0.38086 -0.20507,-0.13672 -0.51757,-0.17578 -0.30274,-0.0488 -0.71289,-0.0488 h -2.68555 q -0.72266,0 -1.25,-0.30274 -0.52735,-0.3125 -0.87891,-0.78125 -0.34179,-0.47851 -0.50781,-1.04492 -0.16602,-0.57617 -0.16602,-1.10351 0,-0.57618 0.18555,-0.95704 0.18555,-0.39062 0.50781,-0.61523 0.32227,-0.23438 0.76172,-0.33203 0.44922,-0.0977 0.9668,-0.0977 h 3.4082 V 266.875 h -7.34375 v -1.43555 h 12.02149 v 1.43555 h -3.07618 v 3.50586 h -4.5996 q -0.73243,0 -1.00586,0.20508 -0.27344,0.20508 -0.27344,0.66406 0,0.21484 0.0586,0.46875 0.0586,0.24414 0.21485,0.45898 0.15625,0.20508 0.41992,0.35157 0.27344,0.13672 0.69336,0.13672 h 2.72461 q 0.83984,0 1.41601,0.20507 0.57617,0.20508 0.92774,0.57618 0.35156,0.36132 0.50781,0.86914 0.15625,0.50781 0.15625,1.10351 0,0.69336 -0.19531,1.29883 -0.19532,0.60547 -0.59571,1.10352 -0.40039,0.48828 -1.02539,0.8496 -0.61523,0.35157 -1.47461,0.54688 z m 3.83789,-18.04688 q -0.42968,-0.48828 -0.80078,-0.71289 -0.37109,-0.22461 -0.86914,-0.22461 -0.76172,0 -1.2207,0.52735 -0.45899,0.51758 -0.45899,1.46484 0,0.39063 0.0879,0.82031 0.0879,0.41993 0.2539,0.84961 0.16602,0.42969 0.41016,0.84961 0.24414,0.41993 0.55664,0.80078 h -1.6211 q -0.58593,-0.83007 -0.8789,-1.69921 -0.29297,-0.87891 -0.29297,-1.70899 0,-0.80078 0.25391,-1.43555 0.26367,-0.63476 0.69336,-1.06445 0.42968,-0.42969 0.99609,-0.6543 0.57617,-0.23437 1.21094,-0.23437 0.84961,0 1.51367,0.3418 0.67383,0.33203 1.25976,1.07422 z m 4.03321,16.60157 -1.5625,4.80468 h -1.14258 l 1.14258,-4.80468 z m 9.0039,-6.40625 q 0.14649,0.45898 0.3418,1.00586 0.19531,0.53711 0.45898,1.09375 0.27344,0.54687 0.60547,1.06445 0.3418,0.51758 0.77149,0.91797 0.43945,0.40039 0.96679,0.64453 0.52735,0.23437 1.17188,0.23437 0.63477,0 1.07422,-0.18554 0.43945,-0.18555 0.71289,-0.49805 0.27344,-0.3125 0.39062,-0.73242 0.12696,-0.41992 0.12696,-0.87891 0,-1.00586 -0.73242,-1.57226 -0.72266,-0.56641 -2.09961,-0.56641 -0.16602,0 -0.33204,0.01 -0.16601,0.01 -0.33203,0.0293 v -1.48437 q 0.0781,0.01 0.13672,0.01 0.0684,0 0.0781,0 0.68359,0 1.21093,-0.16601 0.53711,-0.17578 0.89844,-0.46875 0.36133,-0.29297 0.54688,-0.6836 0.18554,-0.39062 0.18554,-0.82031 0,-0.39062 -0.13671,-0.69336 -0.13672,-0.30273 -0.3711,-0.50781 -0.23437,-0.20508 -0.55664,-0.30273 -0.32226,-0.10743 -0.70312,-0.10743 -0.26368,0 -0.50782,0.0391 -0.24414,0.0293 -0.51757,0.10742 -0.27344,0.0684 -0.58594,0.18555 -0.30274,0.11718 -0.69336,0.29296 l -0.55664,-1.33789 q 0.76172,-0.37109 1.46484,-0.55664 0.70313,-0.19531 1.43555,-0.19531 0.70312,0 1.29883,0.22461 0.60547,0.22461 1.03515,0.625 0.43946,0.39062 0.6836,0.9375 0.24414,0.54687 0.24414,1.18164 0,1.74805 -1.66992,2.8125 v 0.0391 q 0.65429,0.27344 1.09375,0.67383 0.2832,0.0488 0.5957,0.0781 0.32226,0.0293 0.58594,0.0293 0.27343,0 0.57617,-0.0391 0.30273,-0.0391 0.61523,-0.14648 0.32227,-0.10743 0.64453,-0.30274 0.33203,-0.19531 0.66407,-0.50781 v -5.41016 h 3.65234 v 1.43555 h -2.05078 V 280 h -1.60156 v -7.42188 l -0.0391,-0.01 q -0.55664,0.37109 -1.04492,0.48828 -0.48828,0.11719 -1.00586,0.11719 -0.16601,0 -0.34179,-0.01 -0.17579,-0.0195 -0.36133,-0.0391 l -0.01,0.0391 q 0.15625,0.40039 0.15625,0.98633 0,0.79102 -0.26367,1.46484 -0.26367,0.67383 -0.76172,1.17188 -0.48828,0.48828 -1.19141,0.76172 -0.69335,0.27344 -1.5625,0.27344 -0.92773,0 -1.67968,-0.32227 -0.74219,-0.33203 -1.34766,-0.84961 -0.5957,-0.51758 -1.04492,-1.16211 -0.44922,-0.6543 -0.77149,-1.30859 -0.32226,-0.6543 -0.52734,-1.24024 -0.20508,-0.5957 -0.30273,-0.98633 z m 19.66797,-4.49219 h -2.05078 V 280 h -1.60156 v -13.125 h -2.22656 v -1.43555 h 5.8789 z m 12.14844,0 H 448.2959 V 280 h -1.61133 v -7.5293 h -4.57031 q 0,0.64453 -0.0195,1.10352 -0.01,0.45898 -0.0781,0.76172 -0.0684,0.29297 -0.20508,0.42968 -0.13672,0.13672 -0.38086,0.13672 -0.50781,0 -0.96679,-0.33203 -0.44922,-0.33203 -0.80078,-0.80078 -0.3418,-0.46875 -0.54688,-0.97656 -0.20508,-0.50781 -0.20508,-0.85938 0,-0.3125 0.13672,-0.48828 0.13672,-0.17578 0.36133,-0.26367 0.22461,-0.0879 0.50781,-0.10742 0.29297,-0.0195 0.58594,-0.0195 h 6.18164 V 266.875 h -9.16992 v -1.43555 h 12.83203 z m -4.05273,-4.41406 q 0,-0.55664 0.33203,-0.89844 0.32226,-0.35156 0.84961,-0.35156 0.24414,0 0.46875,0.0976 0.21484,0.0977 0.38086,0.27344 0.16601,0.16602 0.26367,0.40039 0.0879,0.22461 0.0879,0.49805 0,0.55664 -0.32227,0.89844 -0.33203,0.34179 -0.85937,0.34179 -0.25391,0 -0.46875,-0.0879 -0.22461,-0.0976 -0.38086,-0.26367 -0.16602,-0.17578 -0.25391,-0.40039 -0.0976,-0.23438 -0.0976,-0.50781 z m 16.5039,4.41406 h -3.31055 v 4.28711 h -3.29101 q -1.5332,0 -2.31445,0.76172 -0.78125,0.75195 -0.78125,2.16797 0,0.80078 0.2539,1.41601 0.26367,0.61524 0.71289,1.03516 0.45899,0.41015 1.08399,0.625 0.625,0.21484 1.35742,0.21484 0.77148,0 1.24023,-0.23437 -0.0391,-0.24414 -0.0586,-0.42969 -0.0195,-0.18555 -0.0195,-0.37109 0,-0.41016 0.0976,-0.83985 0.10743,-0.43945 0.3125,-0.79101 0.21485,-0.36133 0.53711,-0.58594 0.33204,-0.22461 0.79102,-0.22461 0.2832,0 0.53711,0.0977 0.25391,0.0976 0.43945,0.30273 0.19531,0.19531 0.30274,0.49805 0.11718,0.30273 0.11718,0.70312 0,0.40039 -0.10742,0.74219 -0.10742,0.33203 -0.2832,0.625 -0.16602,0.2832 -0.38086,0.53711 -0.21484,0.24414 -0.41992,0.44922 0.21484,0.46875 0.44922,0.83984 0.24414,0.3711 0.49804,0.66406 0.26368,0.29297 0.52735,0.52735 0.26367,0.23437 0.52734,0.43945 l -1.20117,1.25977 q -0.51758,-0.45899 -0.88867,-0.91797 -0.36133,-0.44922 -0.61524,-0.84961 -0.24414,-0.40039 -0.40039,-0.72266 -0.15625,-0.32226 -0.2539,-0.51758 -0.67383,0.26368 -1.66016,0.26368 -1.26953,0 -2.2168,-0.41016 -0.94726,-0.41992 -1.58203,-1.11328 -0.625,-0.70313 -0.9375,-1.60156 -0.3125,-0.89844 -0.3125,-1.86524 0,-1.00586 0.32227,-1.76758 0.32226,-0.77148 0.89843,-1.28906 0.57618,-0.52734 1.36719,-0.79101 0.80078,-0.27344 1.74805,-0.27344 h 2.00195 V 266.875 h -8.22265 v -1.43555 h 13.13476 z m 17.51953,0 H 478.2666 V 280 h -1.61133 v -4.66797 l -0.0391,-0.01 q -0.6543,0.58593 -1.46484,0.83984 -0.81055,0.24414 -1.60157,0.24414 -0.83984,0 -1.5332,-0.24414 -0.69336,-0.24414 -1.1914,-0.74219 -0.49805,-0.50781 -0.78125,-1.26953 -0.27344,-0.77148 -0.27344,-1.82617 V 266.875 h -2.17774 v -1.43555 h 12.72461 z m -3.66211,0 h -5.30273 v 5.36133 q 0,0.61523 0.0977,1.10351 0.10742,0.48828 0.35156,0.83008 0.2539,0.3418 0.66406,0.52735 0.41016,0.17578 1.02539,0.17578 1.00586,0 1.81641,-0.46875 0.81054,-0.47852 1.34765,-1.25 z m 8.85743,0 h -2.05079 V 280 h -1.60156 v -13.125 h -2.22656 v -1.43555 h 5.87891 z m 14.9707,0 h -2.05078 V 280 h -1.60157 v -8.47656 h -3.14453 l -0.01,0.0391 q 0.11719,0.13672 0.35156,0.41992 0.23438,0.27344 0.46875,0.6836 0.23438,0.40039 0.41016,0.91796 0.17578,0.50782 0.17578,1.10352 0,0.5957 -0.20508,1.18164 -0.19531,0.57617 -0.5957,1.04492 -0.39063,0.45899 -0.9961,0.74219 -0.60547,0.2832 -1.40625,0.2832 -0.79101,0 -1.45508,-0.27343 -0.65429,-0.28321 -1.20117,-0.75196 -0.53711,-0.46875 -0.96679,-1.08398 -0.42969,-0.61524 -0.77149,-1.29883 -0.33203,-0.69336 -0.58594,-1.39648 -0.24414,-0.7129 -0.41992,-1.35743 -0.17578,-0.65429 -0.2832,-1.20117 -0.10742,-0.54687 -0.16602,-0.9082 l 1.44532,-0.2832 q 0.32226,1.75781 0.78125,3.08593 0.46875,1.31836 1.03515,2.20703 0.56641,0.88868 1.22071,1.33789 0.65429,0.43946 1.36718,0.43946 0.50782,0 0.82032,-0.19531 0.3125,-0.20508 0.48828,-0.48829 0.17578,-0.29296 0.23437,-0.5957 0.0684,-0.3125 0.0684,-0.53711 0,-0.40039 -0.16601,-0.84961 -0.15625,-0.45898 -0.46875,-0.9082 -0.30274,-0.45899 -0.76172,-0.87891 -0.45899,-0.41992 -1.05469,-0.76172 v -1.14257 h 5.79101 V 266.875 H 484.8291 v -1.43555 h 15.6543 z m -2.1875,-1.16211 h -1.41602 l -0.88867,-1.66992 q -0.56641,-1.06445 -1.02539,-1.68945 -0.46875,-0.625 -0.87891,-0.94727 -0.41992,-0.33203 -0.82031,-0.41992 -0.40039,-0.0977 -0.83984,-0.0977 h -1.89453 v -1.58203 h 1.78711 q 0.5664,0 1.02539,0.0977 0.45898,0.0879 0.8789,0.33203 0.41016,0.23437 0.81055,0.66406 0.39062,0.41992 0.83984,1.09375 0.44922,0.66406 0.98633,1.60156 0.52735,0.92774 1.21094,2.19727 z m 4.02344,14.50195 q -0.44922,0 -0.77149,-0.32226 -0.3125,-0.32227 -0.3125,-0.77149 0,-0.44922 0.3125,-0.77148 0.32227,-0.33203 0.77149,-0.33203 0.45898,0 0.78125,0.33203 0.32226,0.32226 0.32226,0.77148 0,0.44922 -0.32226,0.77149 -0.32227,0.32226 -0.78125,0.32226 z"
       id="text2"
       style="font-size:20px;font-family:'Hershey Sans 1';text-anchor:middle"
       aria-label="मन मोहून जाई, आनंद पाजे." />
    <path
       d="m 305.90332,306.875 h -2.05078 v 13.13477 h -1.60156 v -9.1504 q -0.51758,-0.18554 -0.97657,-0.18554 -0.45898,0 -0.80078,0.17578 -0.34179,0.16601 -0.57617,0.44922 -0.22461,0.2832 -0.3418,0.66406 -0.11718,0.38086 -0.11718,0.80078 0,0.16602 0.01,0.3418 0.0195,0.16601 0.0391,0.33203 h -1.49414 q -0.0781,-0.56641 -0.18554,-1.08398 -0.0977,-0.51758 -0.29297,-0.90821 -0.18555,-0.39062 -0.48828,-0.61523 -0.30274,-0.23438 -0.78125,-0.23438 -0.45899,0 -0.79102,0.18555 -0.32226,0.18555 -0.53711,0.51758 -0.21484,0.33203 -0.32226,0.78125 -0.0977,0.43945 -0.0977,0.95703 0,1.11328 0.38086,2.00195 0.38086,0.87891 1.02539,1.58203 0.6543,0.70313 1.50391,1.25977 0.85937,0.54687 1.80664,1.00586 l -0.79102,1.34765 q -0.35156,-0.15625 -0.9082,-0.46875 -0.54688,-0.3125 -1.17188,-0.77148 -0.61523,-0.45898 -1.24023,-1.07422 -0.625,-0.61523 -1.13281,-1.37695 -0.49805,-0.76172 -0.81055,-1.67969 -0.3125,-0.91797 -0.3125,-1.98242 0,-0.82031 0.23437,-1.52344 0.23438,-0.71289 0.66407,-1.23047 0.43945,-0.52734 1.05468,-0.82031 0.61524,-0.30273 1.36719,-0.30273 0.56641,0 0.97656,0.16601 0.41016,0.15625 0.70313,0.40039 0.30273,0.23438 0.49805,0.51758 0.19531,0.27344 0.34179,0.51758 l 0.0488,-0.01 q 0.18555,-0.41015 0.43945,-0.69336 0.26368,-0.2832 0.56641,-0.45898 0.3125,-0.17578 0.6543,-0.25391 0.34179,-0.0879 0.68359,-0.0879 0.30274,0 0.5957,0.0586 0.30274,0.0488 0.57618,0.14648 V 306.875 h -11.31836 v -1.43555 h 14.9707 z m 12.44141,0 h -2.05078 V 320 h -1.60157 v -4.57031 l -0.0391,-0.01 q -0.26367,0.21485 -0.63477,0.42969 -0.36132,0.20508 -0.81054,0.37109 -0.44922,0.15625 -0.9668,0.26367 -0.51758,0.0977 -1.08398,0.0977 -1.13282,0 -1.94336,-0.41016 -0.80078,-0.41015 -1.34766,-1.09375 -0.53711,-0.69335 -0.84961,-1.57226 -0.3125,-0.88867 -0.44922,-1.8457 0.64453,-0.0879 1.10352,-0.30274 0.45898,-0.21484 0.74219,-0.50781 0.2832,-0.30274 0.41015,-0.6543 0.13672,-0.35156 0.13672,-0.70312 0,-0.23438 -0.0488,-0.52735 -0.0391,-0.29297 -0.14648,-0.625 -0.10742,-0.34179 -0.2832,-0.71289 -0.17579,-0.37109 -0.43946,-0.75195 h -2.82226 v -1.43555 h 13.125 z m -8.57422,0 q 0.35156,0.5957 0.54687,1.30859 0.20508,0.70313 0.20508,1.38672 0,0.49805 -0.13672,0.9668 -0.12695,0.46875 -0.40039,0.87891 -0.27344,0.40039 -0.68359,0.72265 -0.40039,0.3125 -0.9375,0.49805 0.15625,0.6543 0.42969,1.12305 0.27343,0.45898 0.64453,0.76171 0.37109,0.29297 0.83007,0.42969 0.45899,0.13672 0.98633,0.13672 0.50782,0 0.9961,-0.11719 0.49804,-0.11718 0.9375,-0.33203 0.44922,-0.22461 0.83007,-0.53711 0.38086,-0.3125 0.67383,-0.70312 V 306.875 Z m 21.03515,0 h -2.05078 V 320 h -1.60156 v -3.45703 l -0.0391,-0.01 q -0.21485,0.18555 -0.50781,0.38086 -0.28321,0.19531 -0.66407,0.36133 -0.37109,0.16602 -0.83984,0.27344 -0.46875,0.10742 -1.03516,0.10742 -1.06445,0 -1.94336,-0.37109 -0.8789,-0.38086 -1.51367,-1.00586 -0.625,-0.63477 -0.97656,-1.44532 -0.35156,-0.82031 -0.35156,-1.70898 0,-0.89844 0.35156,-1.66992 0.35156,-0.77149 0.95703,-1.32813 0.61523,-0.5664 1.42578,-0.88867 0.81055,-0.32226 1.72852,-0.32226 0.2832,0 0.67383,0.0488 0.39062,0.0391 0.83007,0.18555 0.44922,0.14648 0.92774,0.41992 0.47851,0.26367 0.9375,0.71289 l 0.0391,-0.01 V 306.875 h -9.49219 v -1.43555 h 13.14453 z m -9.96093,6.40625 q 0,0.53711 0.18554,1.05469 0.18555,0.51758 0.55664,0.92773 0.3711,0.41016 0.91797,0.66406 0.54688,0.24414 1.2793,0.24414 0.6543,0 1.25,-0.21484 l -3.22266,-4.84375 q -0.44922,0.37109 -0.71289,0.9375 -0.2539,0.56641 -0.2539,1.23047 z m 6.34765,-1.18164 q -0.35156,-0.38086 -0.72265,-0.69336 -0.36133,-0.3125 -0.77149,-0.53711 -0.41015,-0.22461 -0.86914,-0.35156 -0.44922,-0.12696 -0.9668,-0.12696 -0.2246,0 -0.42968,0.0293 -0.20508,0.0293 -0.41992,0.0781 l 3.17382,4.76562 q 0.47852,-0.42969 0.74219,-0.94726 0.26367,-0.52735 0.26367,-1.02539 z m 7.09961,3.45703 q -0.0293,-0.46875 -0.24414,-0.71289 -0.20508,-0.25391 -0.50781,-0.25391 -0.12695,0 -0.26367,0.0586 -0.12696,0.0488 -0.23438,0.17578 -0.10742,0.11719 -0.17578,0.33203 -0.0684,0.20508 -0.0684,0.50781 0,0.42969 0.13672,0.76172 0.13672,0.33203 0.37109,0.56641 0.23438,0.22461 0.53711,0.34179 0.3125,0.11719 0.6543,0.11719 0.46875,0 0.9375,-0.20508 0.47852,-0.21484 0.88867,-0.60547 l 0.9668,0.88868 q -0.33203,0.30273 -0.51758,0.70312 -0.17578,0.40039 -0.17578,0.79102 0,0.2539 0.0781,0.47851 0.0879,0.22461 0.25391,0.40039 0.17578,0.16602 0.42969,0.26368 0.2539,0.10742 0.60547,0.10742 0.55664,0 1.09375,-0.26367 0.53711,-0.25391 1.02539,-0.67383 0.49804,-0.42969 0.9375,-0.97657 0.44922,-0.55664 0.83008,-1.15234 -0.13672,0.01 -0.26368,0.01 -0.11718,0 -0.23437,0 -1.29883,0 -2.22656,-0.41016 -0.92774,-0.41016 -1.52344,-1.05469 -0.58594,-0.64453 -0.86914,-1.44531 -0.27344,-0.80078 -0.27344,-1.5918 0,-0.8789 0.32227,-1.5625 0.32226,-0.68359 0.89843,-1.15234 0.57618,-0.46875 1.36719,-0.70313 0.80078,-0.24414 1.74805,-0.24414 h 2.00195 V 306.875 h -12.67578 v -1.43555 h 17.58789 v 1.43555 h -3.31055 v 3.60352 h -3.29101 q -1.5918,0 -2.34375,0.63476 -0.75195,0.63477 -0.75195,1.81641 0,0.69336 0.2539,1.2207 0.26367,0.52734 0.71289,0.87891 0.45899,0.35156 1.08399,0.53711 0.625,0.17578 1.35742,0.17578 0.63476,0 1.11328,-0.16602 0,-0.50781 0.11719,-0.9668 0.12695,-0.46875 0.35156,-0.82031 0.23437,-0.35156 0.56641,-0.55664 0.34179,-0.21484 0.78125,-0.21484 0.33203,0 0.57617,0.12695 0.2539,0.11719 0.41015,0.3125 0.16602,0.19531 0.24414,0.45899 0.0781,0.26367 0.0781,0.5371 0,0.38086 -0.14648,0.7129 -0.13672,0.32226 -0.36133,0.5957 -0.22461,0.26367 -0.51758,0.47851 -0.2832,0.20508 -0.58594,0.36133 0.22461,0.69336 0.47852,1.23047 0.26367,0.52734 0.57617,0.95703 0.3125,0.42969 0.67383,0.79102 0.36133,0.35156 0.79101,0.69336 l -1.20117,1.25976 q -0.82031,-0.70312 -1.40625,-1.63086 -0.58594,-0.92773 -0.89844,-1.86523 h -0.0391 q -0.43945,0.72266 -1.00586,1.39648 -0.55664,0.67383 -1.2207,1.19141 -0.6543,0.51758 -1.39649,0.83008 -0.73242,0.3125 -1.52343,0.3125 -0.55664,0 -1.05469,-0.16602 -0.49805,-0.16601 -0.87891,-0.49804 -0.37109,-0.32227 -0.58593,-0.81055 -0.21485,-0.48828 -0.21485,-1.13281 0,-0.10743 0,-0.21485 0.01,-0.11719 0.0195,-0.22461 l -0.0488,-0.0488 q -0.21484,0.0488 -0.42968,0.0781 -0.20508,0.0195 -0.40039,0.0195 -0.86914,0 -1.45508,-0.32226 -0.58594,-0.33204 -0.9375,-0.81055 -0.35156,-0.48828 -0.49805,-1.03516 -0.14648,-0.55664 -0.14648,-1.01562 0,-0.53711 0.17578,-0.98633 0.17578,-0.44922 0.47851,-0.77149 0.3125,-0.33203 0.73243,-0.51757 0.42968,-0.18555 0.92773,-0.18555 0.55664,0 0.95703,0.22461 0.41016,0.22461 0.66406,0.57617 0.26368,0.35156 0.38086,0.79102 0.12696,0.43945 0.12696,0.85937 z m 24.89258,-3.36914 q -0.17578,0.0195 -0.33203,0.0391 -0.15625,0.01 -0.32227,0.01 -0.79101,0 -1.43554,-0.28321 -0.63477,-0.2832 -1.09375,-0.76171 -0.44922,-0.47852 -0.69336,-1.10352 -0.24414,-0.63477 -0.24414,-1.32812 0,-0.49805 0.13672,-0.9668 0.13671,-0.46875 0.42968,-0.87891 l -0.01,-0.0391 h -3.11524 v -1.43555 h 16.32813 v 1.43555 h -2.05078 V 320 h -1.60157 v -13.125 h -3.68164 l -0.01,0.0391 q 0.2539,0.25391 0.46875,0.61524 0.21484,0.35156 0.36133,0.77148 0.15625,0.41992 0.24414,0.87891 0.0879,0.45898 0.0879,0.92773 0,0.76172 -0.24414,1.47461 -0.23438,0.71289 -0.67383,1.34766 -0.42969,0.63476 -1.04492,1.18164 -0.60547,0.53711 -1.34766,0.95703 v 0.0391 q 0.48828,0.38086 1.04492,0.91797 0.55664,0.52734 1.10352,1.10352 0.54687,0.57617 1.03515,1.15234 0.48829,0.56641 0.83985,1.03516 l -1.10352,0.92773 q -0.30273,-0.38086 -0.76172,-0.92773 -0.45898,-0.55664 -1.02539,-1.15235 -0.5664,-0.60547 -1.23047,-1.20117 -0.65429,-0.60547 -1.36718,-1.09375 -0.35157,0.16602 -0.74219,0.24414 -0.38086,0.0781 -0.76172,0.0781 -0.43945,0 -0.84961,-0.10743 -0.40039,-0.10742 -0.72266,-0.3125 -0.3125,-0.20507 -0.49804,-0.49804 -0.18555,-0.30274 -0.18555,-0.69336 0,-0.61524 0.44922,-0.94727 0.45898,-0.34179 1.19141,-0.34179 0.53711,0 1.08398,0.19531 0.55664,0.18554 1.08398,0.5664 0.27344,-0.0586 0.61524,-0.20507 0.3418,-0.15625 0.69336,-0.39063 0.36133,-0.24414 0.69336,-0.56641 0.34179,-0.33203 0.60547,-0.75195 0.26367,-0.41992 0.41992,-0.91797 0.16601,-0.50781 0.16601,-1.09375 0,-0.58593 -0.17578,-1.15234 -0.16601,-0.56641 -0.49804,-1.00586 -0.33204,-0.44922 -0.83008,-0.72266 -0.49805,-0.27343 -1.15235,-0.27343 -0.51757,0 -0.85937,0.16601 -0.3418,0.15625 -0.55664,0.41016 -0.21485,0.2539 -0.30274,0.5664 -0.0879,0.30274 -0.0879,0.59571 0,0.38086 0.13672,0.75195 0.13672,0.36133 0.40039,0.6543 0.27344,0.2832 0.67383,0.45898 0.40039,0.17578 0.91797,0.17578 0.16602,0 0.40039,-0.0293 z m 18.32031,-5.3125 h -9.35547 v -1.43555 h 9.35547 z m -7.73437,7.16797 q 0,-0.87891 0.34179,-1.64063 0.3418,-0.76172 0.94727,-1.32812 0.60547,-0.57617 1.42578,-0.89844 0.83008,-0.33203 1.79688,-0.33203 0.73242,0 1.35742,0.18555 0.625,0.18554 1.14258,0.48828 0.51757,0.30273 0.91797,0.69336 0.40039,0.38086 0.69335,0.77148 0.29297,0.39063 0.46875,0.77149 0.17579,0.37109 0.23438,0.64453 -0.0195,1.17187 -0.35156,2.1289 -0.33203,0.95703 -0.92774,1.64063 -0.58593,0.67383 -1.42578,1.04492 -0.83008,0.37109 -1.85547,0.37109 -1.07422,0 -1.95312,-0.38086 -0.87891,-0.39062 -1.50391,-1.02539 -0.625,-0.63476 -0.9668,-1.44531 -0.34179,-0.82031 -0.34179,-1.68945 z m 1.5625,0.16601 q 0,0.52735 0.18554,1.04493 0.18555,0.51757 0.54688,0.92773 0.37109,0.41016 0.91797,0.66406 0.55664,0.25391 1.28906,0.25391 0.67383,0 1.24024,-0.22461 l -3.2129,-4.84375 q -0.46875,0.41016 -0.72265,0.98633 -0.24414,0.57617 -0.24414,1.1914 z m 6.34765,-0.98632 q -0.34179,-0.43946 -0.70312,-0.79102 -0.36133,-0.35156 -0.77149,-0.5957 -0.40039,-0.25391 -0.85937,-0.38086 -0.45898,-0.13672 -0.99609,-0.13672 -0.24414,0 -0.44922,0.0293 -0.19532,0.0195 -0.41016,0.0684 l 3.13477,4.70703 q 0.46875,-0.50782 0.74218,-1.24024 0.27344,-0.73242 0.3125,-1.66015 z M 389.1748,306.875 h -3.31054 v 4.28711 h -3.29102 q -1.5332,0 -2.31445,0.76172 -0.78125,0.75195 -0.78125,2.16797 0,0.80078 0.25391,1.41601 0.26367,0.61524 0.71289,1.03516 0.45898,0.41015 1.08398,0.625 0.625,0.21484 1.35742,0.21484 0.77149,0 1.24024,-0.23437 -0.0391,-0.24414 -0.0586,-0.42969 -0.0195,-0.18555 -0.0195,-0.37109 0,-0.41016 0.0977,-0.83985 0.10742,-0.43945 0.3125,-0.79101 0.21484,-0.36133 0.53711,-0.58594 0.33203,-0.22461 0.79101,-0.22461 0.28321,0 0.53711,0.0977 0.25391,0.0976 0.43946,0.30273 0.19531,0.19531 0.30273,0.49805 0.11719,0.30273 0.11719,0.70312 0,0.40039 -0.10742,0.74219 -0.10743,0.33203 -0.28321,0.625 -0.16601,0.2832 -0.38086,0.53711 -0.21484,0.24414 -0.41992,0.44922 0.21484,0.46875 0.44922,0.83984 0.24414,0.3711 0.49805,0.66406 0.26367,0.29297 0.52734,0.52735 0.26367,0.23437 0.52734,0.43945 l -1.20117,1.25977 q -0.51758,-0.45899 -0.88867,-0.91797 -0.36133,-0.44922 -0.61523,-0.84961 -0.24414,-0.40039 -0.40039,-0.72266 -0.15625,-0.32226 -0.25391,-0.51758 -0.67383,0.26368 -1.66016,0.26368 -1.26953,0 -2.21679,-0.41016 -0.94727,-0.41992 -1.58204,-1.11328 -0.625,-0.70313 -0.9375,-1.60156 -0.3125,-0.89844 -0.3125,-1.86524 0,-1.00586 0.32227,-1.76758 0.32227,-0.77148 0.89844,-1.28906 0.57617,-0.52734 1.36719,-0.79101 0.80078,-0.27344 1.74804,-0.27344 h 2.00196 V 306.875 h -8.22266 v -1.43555 h 13.13476 z m 2.74415,10.89844 -1.5625,4.80468 h -1.14258 l 1.14258,-4.80468 z m 21.4746,-12.33399 v 1.43555 h -2.05078 V 320 h -1.62109 v -6.5625 h -5.6543 q -0.51758,0.3418 -1.24023,0.41016 l -0.0195,0.0488 q 0.94726,1.48438 2.08008,2.76368 1.13281,1.27929 2.57812,2.37304 l -1.04492,1.20117 q -0.83008,-0.61523 -1.58203,-1.32812 -0.74219,-0.71289 -1.40625,-1.47461 -0.6543,-0.77148 -1.23047,-1.55273 -0.57617,-0.79102 -1.05469,-1.55274 -0.47851,-0.76172 -0.85937,-1.46484 -0.38086,-0.71289 -0.66407,-1.31836 l 1.33789,-0.72266 q 0.18555,0.42969 0.36133,0.72266 0.18555,0.2832 0.3711,0.45898 0.18554,0.16602 0.39062,0.24414 0.20508,0.0684 0.43945,0.0684 0.67383,0 0.98633,-0.52734 0.32227,-0.52734 0.32227,-1.38672 0,-0.50781 -0.0977,-0.99609 -0.0976,-0.49805 -0.2539,-0.94727 -0.14649,-0.45898 -0.32227,-0.85937 -0.17578,-0.40039 -0.33203,-0.72266 h -4.52149 v -1.43555 z m -3.67187,1.43555 h -5.20508 q 0.41016,0.88867 0.64453,1.78711 0.23438,0.89844 0.23438,1.78711 0,0.41015 -0.0684,0.81055 -0.0586,0.39062 -0.20508,0.74218 l 0.0195,0.0195 h 4.58008 z m -1.89453,13.41797 q 0.625,-0.39063 1.38672,-0.60547 0.75195,-0.21484 1.43554,-0.21484 0.59571,0 1.11329,0.17578 0.50781,0.16601 0.88867,0.48828 0.38086,0.33203 0.5957,0.80078 0.21484,0.46875 0.21484,1.05469 0,0.625 -0.2539,1.17187 -0.24414,0.54688 -0.74219,0.95703 -0.49805,0.41016 -1.23047,0.64453 -0.73242,0.24415 -1.69922,0.24415 -1.10351,0 -1.97265,-0.30274 -0.87891,-0.29297 -1.57227,-0.75195 -0.69336,-0.44922 -1.2207,-0.9961 -0.52735,-0.54687 -0.92774,-1.03515 l 0.90821,-1.06446 q 0.55664,0.60547 1.06445,1.09375 0.50781,0.48829 1.05469,0.83008 0.54687,0.35157 1.18164,0.53711 0.625,0.18555 1.41601,0.18555 0.67383,0 1.15235,-0.13672 0.46875,-0.12695 0.77148,-0.3418 0.30274,-0.20507 0.43945,-0.47851 0.13672,-0.26367 0.13672,-0.53711 0,-0.49805 -0.37109,-0.79102 -0.38086,-0.29297 -1.02539,-0.29297 -0.41992,0 -0.9668,0.14649 -0.55664,0.14648 -1.12304,0.48828 z m 15.3418,-13.41797 h -3.68165 q 0.49805,0.85937 0.80079,1.75781 0.3125,0.88867 0.3125,1.80664 0,0.69336 -0.21485,1.33789 -0.20508,0.63477 -0.61523,1.14258 -0.40039,0.49805 -1.00586,0.82031 -0.5957,0.3125 -1.37695,0.35157 l -0.0195,0.0488 q 0.87891,1.36719 1.97266,2.5879 1.09375,1.21093 2.5293,2.30468 l -1.04492,1.20117 q -0.83008,-0.61523 -1.58204,-1.32812 -0.74218,-0.72266 -1.40625,-1.48438 -0.66406,-0.77148 -1.24023,-1.55273 -0.56641,-0.79102 -1.04492,-1.5332 -0.46875,-0.75196 -0.83985,-1.43555 -0.37109,-0.69336 -0.63476,-1.25977 l 1.33789,-0.72265 q 0.35156,0.76172 0.79101,1.20117 0.44922,0.42969 1.03516,0.42969 0.41992,0 0.75195,-0.21485 0.33204,-0.21484 0.55664,-0.54687 0.22461,-0.3418 0.3418,-0.74219 0.11719,-0.41015 0.11719,-0.80078 0,-0.45898 -0.11719,-0.89844 -0.11719,-0.44922 -0.30273,-0.86914 -0.18555,-0.42969 -0.41992,-0.83008 -0.22461,-0.40039 -0.43946,-0.77148 h -5.01953 v -1.43555 h 10.45899 z m 9.90234,1.86523 q 0.10742,-0.15625 0.19531,-0.39062 0.0977,-0.24414 0.0977,-0.54688 0,-0.27343 -0.0977,-0.47851 -0.0976,-0.20508 -0.2539,-0.33203 -0.14649,-0.12696 -0.3418,-0.18555 -0.19531,-0.0684 -0.39063,-0.0684 -0.23437,0 -0.46875,0.0977 -0.22461,0.0879 -0.41015,0.29297 -0.17578,0.20507 -0.29297,0.52734 -0.11719,0.3125 -0.11719,0.75195 0,0.47852 0.13672,0.90821 0.14648,0.41992 0.43945,0.74218 0.30274,0.3125 0.75196,0.49805 0.45898,0.18555 1.09375,0.18555 0.43945,0 0.81054,-0.0684 0.3711,-0.0781 0.64453,-0.14649 l 0.26368,1.50391 q -0.15625,0.0195 -0.41993,0.0781 -0.26367,0.0488 -0.57617,0.16602 -0.30273,0.10742 -0.625,0.2832 -0.3125,0.17578 -0.5664,0.43946 -0.25391,0.2539 -0.41993,0.60547 -0.15625,0.35156 -0.15625,0.82031 0,0.8789 0.54688,1.37695 0.55664,0.48828 1.49414,0.48828 0.53711,0 1.03516,-0.16601 0.50781,-0.17578 0.94726,-0.48828 0.44922,-0.32227 0.83008,-0.75196 0.39062,-0.43945 0.69336,-0.96679 l 0.37109,1.8457 q -0.46875,0.55664 -0.94726,0.94726 -0.47852,0.38086 -0.9668,0.625 -0.48828,0.23438 -0.97656,0.3418 -0.48828,0.10742 -0.9668,0.10742 -0.78125,0 -1.44531,-0.2539 -0.66406,-0.25391 -1.15235,-0.71289 -0.47851,-0.45899 -0.75195,-1.08399 -0.26367,-0.63476 -0.26367,-1.39648 0,-0.70313 0.26367,-1.28907 0.27344,-0.58593 0.94727,-1.11328 l -0.01,-0.0391 q -0.66406,-0.17578 -1.15234,-0.53711 -0.47852,-0.36133 -0.80078,-0.83008 -0.3125,-0.46875 -0.46875,-1.01562 -0.15625,-0.55664 -0.15625,-1.11328 0,-0.6836 0.21484,-1.25977 0.22461,-0.57617 0.61523,-0.99609 0.4004,-0.41992 0.9375,-0.6543 0.53711,-0.24414 1.18165,-0.24414 0.67382,0 1.15234,0.23438 0.48828,0.23437 0.79101,0.5957 0.3125,0.36133 0.45899,0.80078 0.14648,0.42969 0.14648,0.82031 0,0.27344 -0.0586,0.53711 -0.0586,0.26367 -0.14648,0.49805 -0.0879,0.23437 -0.19532,0.42969 -0.0976,0.19531 -0.18554,0.33203 z m 14.26758,-1.86523 h -2.05078 V 320 h -1.60157 v -3.48633 l -0.0391,-0.01 q -0.19531,0.18554 -0.45898,0.39062 -0.26368,0.19531 -0.60547,0.36133 -0.3418,0.15625 -0.77149,0.26367 -0.41992,0.10742 -0.94726,0.10742 -0.9668,0 -1.76758,-0.37109 -0.79102,-0.37109 -1.36719,-0.98633 -0.57617,-0.625 -0.89844,-1.42578 -0.3125,-0.81055 -0.3125,-1.68945 0,-0.87891 0.3125,-1.63086 0.32227,-0.76172 0.87891,-1.31836 0.55664,-0.55664 1.29883,-0.86914 0.74219,-0.32227 1.5918,-0.32227 0.23437,0 0.58593,0.0391 0.36133,0.0391 0.77149,0.17579 0.41015,0.13671 0.84961,0.40039 0.43945,0.2539 0.83984,0.69336 l 0.0391,-0.01 v -3.4375 h -7.42187 v -1.43555 h 11.07422 z m -3.61328,5.26367 q -0.61524,-0.74219 -1.33789,-1.1914 -0.72266,-0.45899 -1.64063,-0.45899 -0.72266,0 -1.23047,0.27344 -0.49805,0.27344 -0.82031,0.69336 -0.32227,0.41015 -0.46875,0.91797 -0.14649,0.50781 -0.14649,0.97656 0,0.50781 0.16602,1.00586 0.16602,0.49805 0.48828,0.89844 0.33203,0.39062 0.82031,0.64453 0.48829,0.24414 1.14258,0.24414 0.67383,0 1.23047,-0.25391 0.55664,-0.26367 0.95703,-0.66406 0.40039,-0.40039 0.61524,-0.89844 0.22461,-0.49805 0.22461,-0.9668 z M 459.4873,306.875 h -2.05078 V 320 h -1.61132 v -7.5293 h -4.57032 q 0,0.64453 -0.0195,1.10352 -0.01,0.45898 -0.0781,0.76172 -0.0684,0.29297 -0.20508,0.42968 -0.13672,0.13672 -0.38086,0.13672 -0.50781,0 -0.9668,-0.33203 -0.44922,-0.33203 -0.80078,-0.80078 -0.3418,-0.46875 -0.54687,-0.97656 -0.20508,-0.50781 -0.20508,-0.85938 0,-0.3125 0.13672,-0.48828 0.13672,-0.17578 0.36132,-0.26367 0.22461,-0.0879 0.50782,-0.10742 0.29297,-0.0195 0.58593,-0.0195 h 6.18165 V 306.875 h -9.16993 v -1.43555 h 12.83203 z m 5.19532,0 h -2.05078 V 320 h -1.60157 v -13.125 h -2.22656 v -1.43555 h 2.38281 q -0.17578,-0.99609 -0.44922,-1.69922 -0.27343,-0.71289 -0.5957,-1.18164 -0.32226,-0.47851 -0.67383,-0.75195 -0.35156,-0.27344 -0.67382,-0.41016 -0.33204,-0.13671 -0.61524,-0.17578 -0.29297,-0.0391 -0.47851,-0.0391 -0.60547,0 -0.9668,0.19531 -0.3711,0.18555 -0.56641,0.44922 -0.19531,0.26367 -0.2539,0.55664 -0.0684,0.28321 -0.0684,0.48828 0,0.0781 0.0293,0.32227 0.0195,0.23437 0.15625,0.5957 0.12696,0.36133 0.40039,0.81055 0.27344,0.44922 0.77149,0.94726 h -1.66016 q -0.61523,-0.70312 -0.91797,-1.45507 -0.3125,-0.76172 -0.3125,-1.47461 0,-0.59571 0.21485,-1.13282 0.21484,-0.5371 0.64453,-0.92773 0.42969,-0.40039 1.07422,-0.63477 0.64453,-0.23437 1.49414,-0.23437 1.17187,0 2.02148,0.45898 0.84961,0.44922 1.42578,1.23047 0.58594,0.78125 0.91797,1.83594 0.3418,1.04492 0.47852,2.22656 h 2.09961 z m 19.88281,-1.43555 v 1.43555 h -2.05078 V 320 h -1.6211 v -6.5625 h -5.65429 q -0.51758,0.3418 -1.24024,0.41016 l -0.0195,0.0488 q 0.94727,1.48438 2.08008,2.76368 1.13281,1.27929 2.57813,2.37304 l -1.04493,1.20117 q -0.83007,-0.61523 -1.58203,-1.32812 -0.74219,-0.71289 -1.40625,-1.47461 -0.65429,-0.77148 -1.23047,-1.55273 -0.57617,-0.79102 -1.05468,-1.55274 -0.47852,-0.76172 -0.85938,-1.46484 -0.38086,-0.71289 -0.66406,-1.31836 l 1.33789,-0.72266 q 0.18555,0.42969 0.36133,0.72266 0.18554,0.2832 0.37109,0.45898 0.18555,0.16602 0.39063,0.24414 0.20507,0.0684 0.43945,0.0684 0.67383,0 0.98633,-0.52734 0.32226,-0.52734 0.32226,-1.38672 0,-0.50781 -0.0976,-0.99609 -0.0977,-0.49805 -0.25391,-0.94727 -0.14648,-0.45898 -0.32227,-0.85937 -0.17578,-0.40039 -0.33203,-0.72266 h -4.52148 v -1.43555 z m -3.67188,1.43555 h -5.20507 q 0.41015,0.88867 0.64453,1.78711 0.23437,0.89844 0.23437,1.78711 0,0.41015 -0.0684,0.81055 -0.0586,0.39062 -0.20507,0.74218 l 0.0195,0.0195 h 4.58007 z m 8.86719,0 h -2.05078 V 320 h -1.60156 v -13.125 h -2.22656 v -1.43555 h 5.8789 z m 14.97071,0 h -2.05079 V 320 h -1.60156 v -8.47656 h -3.14453 l -0.01,0.0391 q 0.11719,0.13672 0.35157,0.41992 0.23437,0.27344 0.46875,0.6836 0.23437,0.40039 0.41015,0.91796 0.17578,0.50782 0.17578,1.10352 0,0.5957 -0.20507,1.18164 -0.19532,0.57617 -0.59571,1.04492 -0.39062,0.45899 -0.99609,0.74219 -0.60547,0.2832 -1.40625,0.2832 -0.79102,0 -1.45508,-0.27343 -0.6543,-0.28321 -1.20117,-0.75196 -0.53711,-0.46875 -0.9668,-1.08398 -0.42968,-0.61524 -0.77148,-1.29883 -0.33203,-0.69336 -0.58594,-1.39648 -0.24414,-0.7129 -0.41992,-1.35743 -0.17578,-0.65429 -0.2832,-1.20117 -0.10743,-0.54687 -0.16602,-0.9082 l 1.44531,-0.2832 q 0.32227,1.75781 0.78125,3.08593 0.46875,1.31836 1.03516,2.20703 0.56641,0.88868 1.2207,1.33789 0.6543,0.43946 1.36719,0.43946 0.50781,0 0.82031,-0.19531 0.3125,-0.20508 0.48828,-0.48829 0.17578,-0.29296 0.23438,-0.5957 0.0684,-0.3125 0.0684,-0.53711 0,-0.40039 -0.16602,-0.84961 -0.15625,-0.45898 -0.46875,-0.9082 -0.30273,-0.45899 -0.76172,-0.87891 -0.45898,-0.41992 -1.05468,-0.76172 v -1.14257 h 5.79101 V 306.875 h -12.00195 v -1.43555 h 15.6543 z m -2.1875,-1.16211 h -1.41602 l -0.88867,-1.66992 q -0.56641,-1.06445 -1.02539,-1.68945 -0.46875,-0.625 -0.87891,-0.94727 -0.41992,-0.33203 -0.82031,-0.41992 -0.40039,-0.0977 -0.83985,-0.0977 h -1.89453 v -1.58203 h 1.78711 q 0.56641,0 1.02539,0.0977 0.45899,0.0879 0.87891,0.33203 0.41016,0.23437 0.81055,0.66406 0.39062,0.41992 0.83984,1.09375 0.44922,0.66406 0.98633,1.60156 0.52734,0.92774 1.21094,2.19727 z m 4.93164,12.06055 -1.5625,4.80468 h -1.14258 l 1.14258,-4.80468 z"
       id="text3"
       style="font-size:20px;font-family:'Hershey Sans 1';text-anchor:middle"
       aria-label="लयबद्ध शब्द, सुर ध्वनी साजे," />
    <path
       d="m 295.08301,351.36719 q 0.14648,0.45898 0.34179,1.00586 0.19532,0.53711 0.45899,1.09375 0.27344,0.54687 0.60547,1.06445 0.34179,0.51758 0.77148,0.91797 0.43946,0.40039 0.9668,0.64453 0.52734,0.23437 1.17187,0.23437 0.63477,0 1.07422,-0.18554 0.43946,-0.18555 0.71289,-0.49805 0.27344,-0.3125 0.39063,-0.73242 0.12695,-0.41992 0.12695,-0.87891 0,-1.00586 -0.73242,-1.57226 -0.72266,-0.56641 -2.09961,-0.56641 -0.16602,0 -0.33203,0.01 -0.16602,0.01 -0.33203,0.0293 v -1.48437 q 0.0781,0.01 0.13672,0.01 0.0684,0 0.0781,0 0.6836,0 1.21094,-0.16601 0.53711,-0.17578 0.89844,-0.46875 0.36132,-0.29297 0.54687,-0.6836 0.18555,-0.39062 0.18555,-0.82031 0,-0.39062 -0.13672,-0.69336 -0.13672,-0.30273 -0.37109,-0.50781 -0.23438,-0.20508 -0.55664,-0.30273 -0.32227,-0.10743 -0.70313,-0.10743 -0.26367,0 -0.50781,0.0391 -0.24414,0.0293 -0.51758,0.10742 -0.27344,0.0684 -0.58594,0.18555 -0.30273,0.11718 -0.69336,0.29296 l -0.55664,-1.33789 q 0.76172,-0.37109 1.46485,-0.55664 0.70312,-0.19531 1.43554,-0.19531 0.70313,0 1.29883,0.22461 0.60547,0.22461 1.03516,0.625 0.43945,0.39062 0.68359,0.9375 0.24414,0.54687 0.24414,1.18164 0,1.74805 -1.66992,2.8125 v 0.0391 q 0.6543,0.27344 1.09375,0.67383 0.2832,0.0488 0.5957,0.0781 0.32227,0.0293 0.58594,0.0293 0.27344,0 0.57617,-0.0391 0.30274,-0.0391 0.61524,-0.14648 0.32226,-0.10743 0.64453,-0.30274 0.33203,-0.19531 0.66406,-0.50781 v -5.41016 h 3.65234 v 1.43555 h -2.05078 V 360 h -1.60156 v -7.42188 l -0.0391,-0.01 q -0.55664,0.37109 -1.04492,0.48828 -0.48829,0.11719 -1.00586,0.11719 -0.16602,0 -0.3418,-0.01 -0.17578,-0.0195 -0.36133,-0.0391 l -0.01,0.0391 q 0.15625,0.40039 0.15625,0.98633 0,0.79102 -0.26368,1.46484 -0.26367,0.67383 -0.76171,1.17188 -0.48829,0.48828 -1.19141,0.76172 -0.69336,0.27344 -1.5625,0.27344 -0.92774,0 -1.67969,-0.32227 -0.74219,-0.33203 -1.34765,-0.84961 -0.59571,-0.51758 -1.04493,-1.16211 -0.44922,-0.6543 -0.77148,-1.30859 -0.32227,-0.6543 -0.52734,-1.24024 -0.20508,-0.5957 -0.30274,-0.98633 z M 314.75098,346.875 H 312.7002 V 360 h -1.60157 v -13.125 h -2.22656 v -1.43555 h 5.87891 z m 12.14843,0 h -2.05078 V 360 h -1.61133 v -7.5293 h -4.57031 q 0,0.64453 -0.0195,1.10352 -0.01,0.45898 -0.0781,0.76172 -0.0684,0.29297 -0.20508,0.42968 -0.13672,0.13672 -0.38086,0.13672 -0.50781,0 -0.9668,-0.33203 -0.44922,-0.33203 -0.80078,-0.80078 -0.3418,-0.46875 -0.54687,-0.97656 -0.20508,-0.50781 -0.20508,-0.85938 0,-0.3125 0.13672,-0.48828 0.13671,-0.17578 0.36132,-0.26367 0.22461,-0.0879 0.50782,-0.10742 0.29297,-0.0195 0.58593,-0.0195 h 6.18164 V 346.875 h -9.16992 v -1.43555 h 12.83203 z m -4.05273,-4.41406 q 0,-0.55664 0.33203,-0.89844 0.32227,-0.35156 0.84961,-0.35156 0.24414,0 0.46875,0.0976 0.21484,0.0977 0.38086,0.27344 0.16602,0.16602 0.26367,0.40039 0.0879,0.22461 0.0879,0.49805 0,0.55664 -0.32226,0.89844 -0.33203,0.34179 -0.85938,0.34179 -0.2539,0 -0.46875,-0.0879 -0.22461,-0.0976 -0.38086,-0.26367 -0.16601,-0.17578 -0.2539,-0.40039 -0.0977,-0.23438 -0.0977,-0.50781 z m 16.50391,4.41406 h -3.31055 v 4.28711 h -3.29102 q -1.5332,0 -2.31445,0.76172 -0.78125,0.75195 -0.78125,2.16797 0,0.80078 0.25391,1.41601 0.26367,0.61524 0.71289,1.03516 0.45898,0.41015 1.08398,0.625 0.625,0.21484 1.35742,0.21484 0.77149,0 1.24024,-0.23437 -0.0391,-0.24414 -0.0586,-0.42969 -0.0195,-0.18555 -0.0195,-0.37109 0,-0.41016 0.0977,-0.83985 0.10742,-0.43945 0.3125,-0.79101 0.21484,-0.36133 0.53711,-0.58594 0.33203,-0.22461 0.79101,-0.22461 0.28321,0 0.53711,0.0977 0.25391,0.0976 0.43946,0.30273 0.19531,0.19531 0.30273,0.49805 0.11719,0.30273 0.11719,0.70312 0,0.40039 -0.10742,0.74219 -0.10743,0.33203 -0.28321,0.625 -0.16601,0.2832 -0.38086,0.53711 -0.21484,0.24414 -0.41992,0.44922 0.21485,0.46875 0.44922,0.83984 0.24414,0.3711 0.49805,0.66406 0.26367,0.29297 0.52734,0.52735 0.26367,0.23437 0.52735,0.43945 l -1.20118,1.25977 q -0.51757,-0.45899 -0.88867,-0.91797 -0.36133,-0.44922 -0.61523,-0.84961 -0.24414,-0.40039 -0.40039,-0.72266 -0.15625,-0.32226 -0.25391,-0.51758 -0.67383,0.26368 -1.66016,0.26368 -1.26953,0 -2.21679,-0.41016 -0.94727,-0.41992 -1.58203,-1.11328 -0.625,-0.70313 -0.9375,-1.60156 -0.3125,-0.89844 -0.3125,-1.86524 0,-1.00586 0.32226,-1.76758 0.32227,-0.77148 0.89844,-1.28906 0.57617,-0.52734 1.36719,-0.79101 0.80078,-0.27344 1.74804,-0.27344 h 2.00196 V 346.875 h -8.22266 v -1.43555 h 13.13477 z m 5.19531,0 h -2.05078 V 360 h -1.60157 v -13.125 h -2.22656 v -1.43555 h 5.87891 z m 13.52539,0 h -2.05078 V 360 h -1.6211 v -4.11133 l -0.0391,-0.0293 q -0.53711,0.48829 -1.05469,0.77149 -0.50781,0.27344 -0.95703,0.41992 -0.43945,0.13672 -0.80078,0.17578 -0.36133,0.0391 -0.5957,0.0391 -0.89844,0 -1.5918,-0.2832 -0.69336,-0.2832 -1.16211,-0.74219 -0.46875,-0.46875 -0.71289,-1.06445 -0.24414,-0.60547 -0.24414,-1.25 0,-0.67383 0.27344,-1.33789 0.2832,-0.66406 0.8789,-1.19141 l -0.01,-0.0391 h -3.0957 v -1.43555 h 7.85156 v 1.43555 h -1.00586 q -1.00586,0 -1.65039,0.26367 -0.64453,0.26368 -1.01563,0.64453 -0.37109,0.38086 -0.51757,0.82032 -0.13672,0.42968 -0.13672,0.78125 0,0.29297 0.0976,0.63476 0.0977,0.33203 0.32227,0.61524 0.23437,0.2832 0.61523,0.46875 0.39063,0.18554 0.97657,0.18554 0.61523,0 1.14257,-0.19531 0.53711,-0.20508 0.98633,-0.52734 0.44922,-0.32227 0.81055,-0.72266 0.37109,-0.41015 0.63476,-0.81055 V 346.875 H 343.8623 v -1.43555 h 14.20899 z m 5.19531,0 h -2.05078 V 360 h -1.60156 v -13.125 h -2.22656 v -1.43555 h 5.8789 z m 19.88281,-1.43555 v 1.43555 h -2.05078 V 360 h -1.62109 v -6.5625 h -5.6543 q -0.51758,0.3418 -1.24023,0.41016 l -0.0195,0.0488 q 0.94726,1.48438 2.08007,2.76368 1.13282,1.27929 2.57813,2.37304 l -1.04492,1.20117 q -0.83008,-0.61523 -1.58203,-1.32812 -0.74219,-0.71289 -1.40625,-1.47461 -0.6543,-0.77148 -1.23047,-1.55273 -0.57617,-0.79102 -1.05469,-1.55274 -0.47852,-0.76172 -0.85937,-1.46484 -0.38086,-0.71289 -0.66407,-1.31836 l 1.33789,-0.72266 q 0.18555,0.42969 0.36133,0.72266 0.18555,0.2832 0.3711,0.45898 0.18554,0.16602 0.39062,0.24414 0.20508,0.0684 0.43945,0.0684 0.67383,0 0.98633,-0.52734 0.32227,-0.52734 0.32227,-1.38672 0,-0.50781 -0.0977,-0.99609 -0.0977,-0.49805 -0.25391,-0.94727 -0.14648,-0.45898 -0.32226,-0.85937 -0.17578,-0.40039 -0.33203,-0.72266 h -4.52149 v -1.43555 z m -3.67187,1.43555 h -5.20508 q 0.41016,0.88867 0.64453,1.78711 0.23438,0.89844 0.23438,1.78711 0,0.41015 -0.0684,0.81055 -0.0586,0.39062 -0.20508,0.74218 l 0.0195,0.0195 h 4.58008 z m 8.86719,0 h -2.05078 V 360 h -1.60157 v -13.125 h -2.22656 v -1.43555 h 5.87891 z m 12.4707,0 h -2.05078 V 360 h -1.60156 v -13.125 h -4.4043 v 7.57812 q 0,0.15625 -0.0195,0.36133 -0.0195,0.20508 -0.0977,0.40039 -0.0684,0.18555 -0.20508,0.32227 -0.13672,0.12695 -0.38086,0.12695 -0.26367,0 -0.58593,-0.16601 -0.3125,-0.17578 -0.64453,-0.44922 -0.33204,-0.28321 -0.64454,-0.63477 -0.30273,-0.35156 -0.54687,-0.72265 -0.24414,-0.3711 -0.39063,-0.72266 -0.14648,-0.35156 -0.14648,-0.625 0,-0.24414 0.11719,-0.39063 0.12695,-0.14648 0.34179,-0.2246 0.22461,-0.0781 0.53711,-0.0977 0.32227,-0.0195 0.70313,-0.0195 h 0.3418 V 346.875 h -3.47657 v -1.43555 h 13.1543 z m 9.77539,0 h -3.68164 q 0.49805,0.85937 0.80078,1.75781 0.3125,0.88867 0.3125,1.80664 0,0.69336 -0.21484,1.33789 -0.20508,0.63477 -0.61524,1.14258 -0.40039,0.49805 -1.00586,0.82031 -0.5957,0.3125 -1.37695,0.35157 l -0.0195,0.0488 q 0.87891,1.36719 1.97266,2.5879 1.09375,1.21093 2.52929,2.30468 l -1.04492,1.20117 q -0.83008,-0.61523 -1.58203,-1.32812 -0.74219,-0.72266 -1.40625,-1.48438 -0.66406,-0.77148 -1.24024,-1.55273 -0.5664,-0.79102 -1.04492,-1.5332 -0.46875,-0.75196 -0.83984,-1.43555 -0.37109,-0.69336 -0.63477,-1.25977 l 1.33789,-0.72265 q 0.35157,0.76172 0.79102,1.20117 0.44922,0.42969 1.03516,0.42969 0.41992,0 0.75195,-0.21485 0.33203,-0.21484 0.55664,-0.54687 0.22461,-0.3418 0.3418,-0.74219 0.11718,-0.41015 0.11718,-0.80078 0,-0.45898 -0.11718,-0.89844 -0.11719,-0.44922 -0.30274,-0.86914 -0.18554,-0.42969 -0.41992,-0.83008 -0.22461,-0.40039 -0.43945,-0.77148 h -5.01953 v -1.43555 h 10.45898 z m 2.74414,10.89844 -1.5625,4.80468 h -1.14258 l 1.14258,-4.80468 z m 17.86133,-3.26172 q 0,0.41992 -0.18555,0.70312 -0.17578,0.28321 -0.46875,0.48828 -0.29297,0.19532 -0.66406,0.33204 -0.36133,0.12695 -0.72266,0.24414 -0.40039,0.12695 -0.73242,0.24414 -0.33203,0.11718 -0.5664,0.2832 -0.23438,0.15625 -0.3711,0.38086 -0.12695,0.22461 -0.12695,0.55664 0,0.58594 0.50781,0.91797 0.50781,0.32226 1.42578,0.32226 0.43946,0 0.86914,-0.0781 0.42969,-0.0781 0.90821,-0.23438 l 0.34179,1.40625 q -0.49804,0.17579 -0.98633,0.27344 -0.48828,0.0977 -1.02539,0.0977 -0.75195,0 -1.39648,-0.20508 -0.64453,-0.19531 -1.11328,-0.55664 -0.46875,-0.36133 -0.73242,-0.85938 -0.26368,-0.49804 -0.26368,-1.09375 0,-0.63476 0.20508,-1.06445 0.21485,-0.42969 0.55664,-0.71289 0.3418,-0.29297 0.77149,-0.47851 0.43945,-0.18555 0.89844,-0.33204 0.30273,-0.0976 0.54687,-0.16601 0.24414,-0.0781 0.41992,-0.14649 0.17578,-0.0684 0.26367,-0.14648 0.0977,-0.0781 0.0977,-0.19531 0,-0.13672 -0.18555,-0.29297 -0.17578,-0.15625 -0.51757,-0.2832 -0.33204,-0.12696 -0.83008,-0.20508 -0.49805,-0.0879 -1.12305,-0.0879 -0.5957,0 -1.23047,0.10742 -0.625,0.10742 -1.14258,0.41015 -0.50781,0.30274 -0.83984,0.85938 -0.33203,0.55664 -0.33203,1.44531 0,0.87891 0.32226,1.64063 0.32227,0.76172 0.83985,1.39648 0.51758,0.63477 1.15234,1.15235 0.64453,0.51757 1.2793,0.9082 0.63476,0.39062 1.1914,0.66406 0.56641,0.27344 0.91797,0.41992 l -0.64453,1.34766 q -0.76172,-0.3418 -1.55273,-0.75195 -0.78125,-0.41016 -1.51367,-0.91797 -0.73243,-0.49805 -1.37696,-1.10352 -0.64453,-0.60547 -1.13281,-1.31836 -0.47852,-0.72265 -0.76172,-1.5625 -0.27344,-0.84961 -0.27344,-1.83594 0,-0.9375 0.22461,-1.60156 0.23438,-0.67383 0.64453,-1.15234 -0.58593,-0.64453 -0.83984,-1.26953 -0.24414,-0.63477 -0.24414,-1.36719 0,-0.41992 0.0977,-0.79102 0.10742,-0.37109 0.37109,-0.64453 0.27344,-0.2832 0.75195,-0.44922 0.47852,-0.16601 1.24024,-0.16601 h 5.05859 V 346.875 h -9.48242 v -1.43555 h 13.4082 v 1.43555 h -2.32422 v 3.59375 h -6.25 q -0.39062,0 -0.65429,0.0684 -0.25391,0.0586 -0.41016,0.19531 -0.14648,0.12695 -0.21484,0.32227 -0.0586,0.18554 -0.0586,0.44922 0,0.33203 0.11719,0.65429 0.11719,0.3125 0.43945,0.72266 0.40039,-0.23438 0.83008,-0.37109 0.43946,-0.14649 0.85938,-0.22461 0.42968,-0.0879 0.82031,-0.10743 0.39062,-0.0293 0.71289,-0.0293 0.88867,0 1.65039,0.16601 0.77149,0.15625 1.33789,0.45899 0.56641,0.30273 0.88867,0.74218 0.32227,0.43946 0.32227,0.9961 z m 14.38476,-7.63672 h -3.31054 v 4.28711 h -3.29102 q -1.5332,0 -2.31445,0.76172 -0.78125,0.75195 -0.78125,2.16797 0,0.80078 0.25391,1.41601 0.26367,0.61524 0.71289,1.03516 0.45898,0.41015 1.08398,0.625 0.625,0.21484 1.35742,0.21484 0.77149,0 1.24024,-0.23437 -0.0391,-0.24414 -0.0586,-0.42969 -0.0195,-0.18555 -0.0195,-0.37109 0,-0.41016 0.0977,-0.83985 0.10742,-0.43945 0.3125,-0.79101 0.21484,-0.36133 0.53711,-0.58594 0.33203,-0.22461 0.79101,-0.22461 0.28321,0 0.53711,0.0977 0.25391,0.0976 0.43946,0.30273 0.19531,0.19531 0.30273,0.49805 0.11719,0.30273 0.11719,0.70312 0,0.40039 -0.10742,0.74219 -0.10743,0.33203 -0.28321,0.625 -0.16601,0.2832 -0.38086,0.53711 -0.21484,0.24414 -0.41992,0.44922 0.21484,0.46875 0.44922,0.83984 0.24414,0.3711 0.49805,0.66406 0.26367,0.29297 0.52734,0.52735 0.26367,0.23437 0.52734,0.43945 l -1.20117,1.25977 q -0.51758,-0.45899 -0.88867,-0.91797 -0.36133,-0.44922 -0.61523,-0.84961 -0.24414,-0.40039 -0.40039,-0.72266 -0.15625,-0.32226 -0.25391,-0.51758 -0.67383,0.26368 -1.66016,0.26368 -1.26953,0 -2.21679,-0.41016 -0.94727,-0.41992 -1.58204,-1.11328 -0.625,-0.70313 -0.9375,-1.60156 -0.3125,-0.89844 -0.3125,-1.86524 0,-1.00586 0.32227,-1.76758 0.32227,-0.77148 0.89844,-1.28906 0.57617,-0.52734 1.36719,-0.79101 0.80078,-0.27344 1.74804,-0.27344 h 2.00196 V 346.875 h -8.22266 v -1.43555 h 13.13476 z m 12.44141,0 h -2.05078 V 360 h -1.60156 v -4.57031 l -0.0391,-0.01 q -0.26367,0.21485 -0.63476,0.42969 -0.36133,0.20508 -0.81055,0.37109 -0.44922,0.15625 -0.96679,0.26367 -0.51758,0.0977 -1.08399,0.0977 -1.13281,0 -1.94336,-0.41016 -0.80078,-0.41015 -1.34765,-1.09375 -0.53711,-0.69335 -0.84961,-1.57226 -0.3125,-0.88867 -0.44922,-1.8457 0.64453,-0.0879 1.10351,-0.30274 0.45899,-0.21484 0.74219,-0.50781 0.2832,-0.30274 0.41016,-0.6543 0.13672,-0.35156 0.13672,-0.70312 0,-0.23438 -0.0488,-0.52735 -0.0391,-0.29297 -0.14649,-0.625 -0.10742,-0.34179 -0.2832,-0.71289 -0.17578,-0.37109 -0.43945,-0.75195 h -2.82227 v -1.43555 h 13.125 z m -8.57422,0 q 0.35156,0.5957 0.54688,1.30859 0.20508,0.70313 0.20508,1.38672 0,0.49805 -0.13672,0.9668 -0.12696,0.46875 -0.40039,0.87891 -0.27344,0.40039 -0.6836,0.72265 -0.40039,0.3125 -0.9375,0.49805 0.15625,0.6543 0.42969,1.12305 0.27344,0.45898 0.64453,0.76171 0.37109,0.29297 0.83008,0.42969 0.45898,0.13672 0.98633,0.13672 0.50781,0 0.99609,-0.11719 0.49805,-0.11718 0.9375,-0.33203 0.44922,-0.22461 0.83008,-0.53711 0.38086,-0.3125 0.67383,-0.70312 V 346.875 Z m 13.76953,0 h -2.05078 V 360 h -1.60156 v -13.125 h -2.22656 v -1.43555 h 2.38281 q -0.17578,-0.99609 -0.44922,-1.69922 -0.27344,-0.71289 -0.5957,-1.18164 -0.32227,-0.47851 -0.67383,-0.75195 -0.35156,-0.27344 -0.67383,-0.41016 -0.33203,-0.13671 -0.61523,-0.17578 -0.29297,-0.0391 -0.47852,-0.0391 -0.60547,0 -0.9668,0.19531 -0.37109,0.18555 -0.5664,0.44922 -0.19531,0.26367 -0.25391,0.55664 -0.0684,0.28321 -0.0684,0.48828 0,0.0781 0.0293,0.32227 0.0195,0.23437 0.15625,0.5957 0.12695,0.36133 0.40039,0.81055 0.27344,0.44922 0.77148,0.94726 h -1.66015 q -0.61524,-0.70312 -0.91797,-1.45507 -0.3125,-0.76172 -0.3125,-1.47461 0,-0.59571 0.21484,-1.13282 0.21485,-0.5371 0.64453,-0.92773 0.42969,-0.40039 1.07422,-0.63477 0.64453,-0.23437 1.49414,-0.23437 1.17188,0 2.02149,0.45898 0.84961,0.44922 1.42578,1.23047 0.58594,0.78125 0.91797,1.83594 0.3418,1.04492 0.47851,2.22656 h 2.09961 z m 19.81446,0 h -2.05078 V 360 h -1.60157 v -5.47852 h -5.12695 v 1.39649 q 0,0.14648 -0.0293,0.3125 -0.0195,0.16601 -0.0976,0.3125 -0.0684,0.13672 -0.19532,0.23437 -0.11718,0.0879 -0.30273,0.0879 -0.22461,0 -0.53711,-0.13671 -0.30273,-0.14649 -0.63477,-0.38086 -0.32226,-0.24414 -0.64453,-0.54688 -0.3125,-0.3125 -0.5664,-0.64453 -0.24414,-0.33203 -0.40039,-0.66406 -0.15625,-0.33203 -0.15625,-0.61524 0,-0.41015 0.29297,-0.5957 0.29296,-0.18555 0.77148,-0.18555 h 0.94727 v -5.36133 q 0,-0.50781 -0.24415,-0.77148 -0.24414,-0.27344 -0.61523,-0.27344 -0.41016,0 -0.69336,0.30274 -0.27344,0.30273 -0.27344,0.77148 0,0.0879 0.0195,0.21485 0.0195,0.12695 0.0977,0.29296 0.0781,0.15625 0.23438,0.36133 0.15625,0.19531 0.41992,0.41992 l -0.86914,1.06446 q -0.44922,-0.24414 -0.73242,-0.53711 -0.28321,-0.30274 -0.43946,-0.61524 -0.15625,-0.3125 -0.21484,-0.60547 -0.0586,-0.30273 -0.0586,-0.55664 0,-0.46875 0.15625,-0.91796 0.16602,-0.45899 0.48829,-0.82032 0.32226,-0.37109 0.80078,-0.5957 0.48828,-0.22461 1.13281,-0.22461 0.56641,0 1.00586,0.18555 0.43945,0.18554 0.73242,0.53711 0.30274,0.34179 0.44922,0.83007 0.15625,0.47852 0.15625,1.07422 v 5.22461 h 5.12695 v -7.65625 h 3.65235 z m 5.19531,0 h -2.05078 V 360 h -1.60156 v -13.125 h -2.22657 v -1.43555 h 5.87891 z m 14.9707,0 h -2.05078 V 360 h -1.60156 v -8.47656 h -3.14453 l -0.01,0.0391 q 0.11719,0.13672 0.35156,0.41992 0.23438,0.27344 0.46875,0.6836 0.23438,0.40039 0.41016,0.91796 0.17578,0.50782 0.17578,1.10352 0,0.5957 -0.20508,1.18164 -0.19531,0.57617 -0.5957,1.04492 -0.39062,0.45899 -0.99609,0.74219 -0.60547,0.2832 -1.40625,0.2832 -0.79102,0 -1.45508,-0.27343 -0.6543,-0.28321 -1.20117,-0.75196 -0.53711,-0.46875 -0.9668,-1.08398 -0.42969,-0.61524 -0.77148,-1.29883 -0.33204,-0.69336 -0.58594,-1.39648 -0.24414,-0.7129 -0.41992,-1.35743 -0.17579,-0.65429 -0.28321,-1.20117 -0.10742,-0.54687 -0.16601,-0.9082 l 1.44531,-0.2832 q 0.32227,1.75781 0.78125,3.08593 0.46875,1.31836 1.03516,2.20703 0.5664,0.88868 1.2207,1.33789 0.6543,0.43946 1.36719,0.43946 0.50781,0 0.82031,-0.19531 0.3125,-0.20508 0.48828,-0.48829 0.17578,-0.29296 0.23438,-0.5957 0.0684,-0.3125 0.0684,-0.53711 0,-0.40039 -0.16601,-0.84961 -0.15625,-0.45898 -0.46875,-0.9082 -0.30274,-0.45899 -0.76172,-0.87891 -0.45898,-0.41992 -1.05469,-0.76172 v -1.14257 h 5.79102 V 346.875 h -12.00195 v -1.43555 h 15.65429 z m -2.1875,-1.16211 h -1.41601 l -0.88868,-1.66992 q -0.5664,-1.06445 -1.02539,-1.68945 -0.46875,-0.625 -0.8789,-0.94727 -0.41992,-0.33203 -0.82031,-0.41992 -0.4004,-0.0977 -0.83985,-0.0977 h -1.89453 v -1.58203 h 1.78711 q 0.56641,0 1.02539,0.0977 0.45898,0.0879 0.87891,0.33203 0.41015,0.23437 0.81054,0.66406 0.39063,0.41992 0.83985,1.09375 0.44922,0.66406 0.98633,1.60156 0.52734,0.92774 1.21093,2.19727 z m 4.02344,14.50195 q -0.44922,0 -0.77148,-0.32226 -0.3125,-0.32227 -0.3125,-0.77149 0,-0.44922 0.3125,-0.77148 0.32226,-0.33203 0.77148,-0.33203 0.45898,0 0.78125,0.33203 0.32227,0.32226 0.32227,0.77148 0,0.44922 -0.32227,0.77149 -0.32227,0.32226 -0.78125,0.32226 z"
       id="text4"
       style="font-size:20px;font-family:'Hershey Sans 1';text-anchor:middle"
       aria-label="आनंदाचा सागर, हृदयी भाजे." />
  </g>
</svg>
