<?xml version="1.0" encoding="UTF-8" standalone="no"?>
<svg
   width="800"
   height="600"
   version="1.1"
   id="svg4"
   sodipodi:docname="adi_science.svg"
   xmlns:inkscape="http://www.inkscape.org/namespaces/inkscape"
   xmlns:sodipodi="http://sodipodi.sourceforge.net/DTD/sodipodi-0.dtd"
   xmlns="http://www.w3.org/2000/svg"
   xmlns:svg="http://www.w3.org/2000/svg">
  <sodipodi:namedview
     id="namedview4"
     pagecolor="#ffffff"
     bordercolor="#666666"
     borderopacity="1.0"
     inkscape:showpageshadow="2"
     inkscape:pageopacity="0.0"
     inkscape:pagecheckerboard="0"
     inkscape:deskcolor="#d1d1d1" />
  <defs
     id="defs1">
    <style
       type="text/css"
       id="style1">
      @font-face {{
        font-family: 'Kalam';
        src: url('AxiDraw_API(1)/Kalam-Regular.ttf');
      }}
    </style>
  </defs>
  <g
     id="g4">
    <g
       id="text4"
       style="font-size:32px;font-family:Kalam"
       aria-label="With Adi's mind, so sharp and keen,Scientific truths are clearly seen.Experiments unfold, a bright design,A future built, uniquely thine.">
      <path
         d="M 80.203125,76.734375 74.15625,100 H 70.671875 L 65.78125,80.6875 61,100 H 57.59375 L 51.4375,76.734375 h 3.171875 L 59.5,96.078125 64.3125,76.734375 h 3.140625 l 4.859375,19.53125 4.859375,-19.53125 z M 87.6875,79.625 H 84.375 v -3.046875 h 3.3125 z M 87.5,100 H 84.5625 V 82.546875 H 87.5 Z m 14.875,-0.15625 q -0.82812,0.21875 -1.8125,0.35938 -0.96875,0.14062 -1.734375,0.14062 -2.671875,0 -4.0625,-1.4375 Q 93.375,97.46875 93.375,94.296875 v -9.28125 h -1.984375 v -2.46875 H 93.375 V 77.53125 h 2.9375 v 5.015625 h 6.0625 v 2.46875 h -6.0625 v 7.953125 q 0,1.375 0.0625,2.15625 0.0625,0.765625 0.4375,1.4375 0.34375,0.625 0.9375,0.921875 0.609375,0.28125 1.84375,0.28125 0.71875,0 1.5,-0.203125 0.78125,-0.21875 1.125,-0.359375 H 102.375 Z M 120.51563,100 h -2.9375 v -9.9375 q 0,-1.203125 -0.14063,-2.25 -0.14062,-1.0625 -0.51562,-1.65625 -0.39063,-0.65625 -1.125,-0.96875 -0.73438,-0.328125 -1.90625,-0.328125 -1.20313,0 -2.51563,0.59375 -1.3125,0.59375 -2.51562,1.515625 V 100 h -2.9375 V 75.6875 h 2.9375 v 8.796875 q 1.375,-1.140625 2.84375,-1.78125 1.46875,-0.640625 3.01562,-0.640625 2.82813,0 4.3125,1.703125 1.48438,1.703125 1.48438,4.90625 z M 156,100 h -3.29688 l -2.28125,-6.484375 h -10.0625 L 138.07812,100 h -3.14062 l 8.46875,-23.265625 h 4.125 z M 149.46875,90.859375 145.39062,79.4375 141.29687,90.859375 Z M 173.45312,100 h -2.9375 V 98.171875 Q 169.25,99.265625 167.875,99.875 q -1.375,0.60938 -2.98438,0.60938 -3.125,0 -4.96875,-2.406255 -1.82812,-2.40625 -1.82812,-6.671875 0,-2.21875 0.625,-3.953125 0.64062,-1.734375 1.71875,-2.953125 1.0625,-1.1875 2.46875,-1.8125 1.42187,-0.625 2.9375,-0.625 1.375,0 2.4375,0.296875 1.0625,0.28125 2.23437,0.890625 v -7.5625 h 2.9375 z m -2.9375,-4.296875 V 85.6875 q -1.1875,-0.53125 -2.125,-0.734375 Q 167.45312,84.75 166.34375,84.75 q -2.46875,0 -3.84375,1.71875 -1.375,1.71875 -1.375,4.875 0,3.109375 1.0625,4.734375 1.0625,1.609375 3.40625,1.609375 1.25,0 2.53125,-0.546875 1.28125,-0.5625 2.39062,-1.4375 z M 182.39062,79.625 h -3.3125 v -3.046875 h 3.3125 z M 182.20312,100 h -2.9375 V 82.546875 h 2.9375 z m 8.95313,-24.3125 -0.67188,9.046875 h -2.125 L 187.6875,75.6875 Z m 17.92187,19.28125 q 0,2.390625 -1.98437,3.921875 -1.96875,1.531255 -5.39063,1.531255 -1.9375,0 -3.5625,-0.45313 Q 196.53125,99.5 195.4375,98.953125 V 95.65625 h 0.15625 q 1.39062,1.046875 3.09375,1.671875 1.70312,0.609375 3.26562,0.609375 1.9375,0 3.03125,-0.625 1.09375,-0.625 1.09375,-1.96875 0,-1.03125 -0.59375,-1.5625 -0.59375,-0.53125 -2.28125,-0.90625 -0.625,-0.140625 -1.64062,-0.328125 -1,-0.1875 -1.82813,-0.40625 -2.29687,-0.609375 -3.26562,-1.78125 -0.95313,-1.1875 -0.95313,-2.90625 0,-1.078125 0.4375,-2.03125 0.45313,-0.953125 1.35938,-1.703125 0.875,-0.734375 2.21875,-1.15625 1.35937,-0.4375 3.03125,-0.4375 1.5625,0 3.15625,0.390625 1.60937,0.375 2.67187,0.921875 v 3.140625 h -0.15625 Q 207.10937,85.75 205.5,85.1875 q -1.60938,-0.578125 -3.15625,-0.578125 -1.60938,0 -2.71875,0.625 -1.10938,0.609375 -1.10938,1.828125 0,1.078125 0.67188,1.625 0.65625,0.546875 2.125,0.890625 0.8125,0.1875 1.8125,0.375 1.01562,0.1875 1.6875,0.34375 2.04687,0.46875 3.15625,1.609375 1.10937,1.15625 1.10937,3.0625 z M 250,100 h -2.9375 v -9.9375 q 0,-1.125 -0.10938,-2.171875 -0.0937,-1.046875 -0.42187,-1.671875 -0.35938,-0.671875 -1.03125,-1.015625 -0.67188,-0.34375 -1.9375,-0.34375 -1.23438,0 -2.46875,0.625 -1.23438,0.609375 -2.46875,1.5625 0.0469,0.359375 0.0781,0.84375 0.0312,0.46875 0.0312,0.9375 V 100 h -2.9375 v -9.9375 q 0,-1.15625 -0.10937,-2.1875 -0.0937,-1.046875 -0.42188,-1.671875 -0.35937,-0.671875 -1.03125,-1 -0.67187,-0.34375 -1.9375,-0.34375 -1.20312,0 -2.42187,0.59375 -1.20313,0.59375 -2.40625,1.515625 V 100 h -2.9375 V 82.546875 h 2.9375 v 1.9375 q 1.375,-1.140625 2.73437,-1.78125 1.375,-0.640625 2.92188,-0.640625 1.78125,0 3.01562,0.75 1.25,0.75 1.85938,2.078125 1.78125,-1.5 3.25,-2.15625 1.46875,-0.671875 3.14062,-0.671875 2.875,0 4.23438,1.75 1.375,1.734375 1.375,4.859375 z m 8.8125,-20.375 H 255.5 v -3.046875 h 3.3125 z M 258.625,100 h -2.9375 V 82.546875 h 2.9375 z m 20.40625,0 h -2.9375 v -9.9375 q 0,-1.203125 -0.14063,-2.25 -0.14062,-1.0625 -0.51562,-1.65625 -0.39063,-0.65625 -1.125,-0.96875 -0.73438,-0.328125 -1.90625,-0.328125 -1.20313,0 -2.51563,0.59375 -1.3125,0.59375 -2.51562,1.515625 V 100 h -2.9375 V 82.546875 h 2.9375 v 1.9375 q 1.375,-1.140625 2.84375,-1.78125 1.46875,-0.640625 3.01562,-0.640625 2.82813,0 4.3125,1.703125 1.48438,1.703125 1.48438,4.90625 z m 19.8125,0 h -2.9375 v -1.828125 q -1.26563,1.09375 -2.64063,1.703125 -1.375,0.60938 -2.98437,0.60938 -3.125,0 -4.96875,-2.406255 -1.82813,-2.40625 -1.82813,-6.671875 0,-2.21875 0.625,-3.953125 Q 284.75,85.71875 285.82812,84.5 q 1.0625,-1.1875 2.46875,-1.8125 1.42188,-0.625 2.9375,-0.625 1.375,0 2.4375,0.296875 1.0625,0.28125 2.23438,0.890625 v -7.5625 h 2.9375 z m -2.9375,-4.296875 V 85.6875 q -1.1875,-0.53125 -2.125,-0.734375 Q 292.84375,84.75 291.73437,84.75 q -2.46875,0 -3.84375,1.71875 -1.375,1.71875 -1.375,4.875 0,3.109375 1.0625,4.734375 1.0625,1.609375 3.40625,1.609375 1.25,0 2.53125,-0.546875 1.28125,-0.5625 2.39063,-1.4375 z m 14.8125,-0.15625 -4.40625,10.234375 h -2.28125 L 306.75,95.546875 Z m 29.26562,-0.578125 q 0,2.390625 -1.98437,3.921875 -1.96875,1.531255 -5.39063,1.531255 -1.9375,0 -3.5625,-0.45313 Q 327.4375,99.5 326.34375,98.953125 V 95.65625 H 326.5 q 1.39062,1.046875 3.09375,1.671875 1.70312,0.609375 3.26562,0.609375 1.9375,0 3.03125,-0.625 1.09375,-0.625 1.09375,-1.96875 0,-1.03125 -0.59375,-1.5625 -0.59375,-0.53125 -2.28125,-0.90625 -0.625,-0.140625 -1.64062,-0.328125 -1,-0.1875 -1.82813,-0.40625 -2.29687,-0.609375 -3.26562,-1.78125 -0.95313,-1.1875 -0.95313,-2.90625 0,-1.078125 0.4375,-2.03125 0.45313,-0.953125 1.35938,-1.703125 0.875,-0.734375 2.21875,-1.15625 1.35937,-0.4375 3.03125,-0.4375 1.5625,0 3.15625,0.390625 1.60937,0.375 2.67187,0.921875 v 3.140625 h -0.15625 Q 338.01562,85.75 336.40625,85.1875 334.79687,84.609375 333.25,84.609375 q -1.60938,0 -2.71875,0.625 -1.10938,0.609375 -1.10938,1.828125 0,1.078125 0.67188,1.625 0.65625,0.546875 2.125,0.890625 0.8125,0.1875 1.8125,0.375 1.01562,0.1875 1.6875,0.34375 2.04687,0.46875 3.15625,1.609375 1.10937,1.15625 1.10937,3.0625 z m 19.07813,-3.6875 q 0,4.265625 -2.1875,6.734375 -2.1875,2.468755 -5.85938,2.468755 -3.70312,0 -5.89062,-2.468755 -2.17188,-2.46875 -2.17188,-6.734375 0,-4.265625 2.17188,-6.734375 2.1875,-2.484375 5.89062,-2.484375 3.67188,0 5.85938,2.484375 2.1875,2.46875 2.1875,6.734375 z m -3.03125,0 q 0,-3.390625 -1.32813,-5.03125 -1.32812,-1.65625 -3.6875,-1.65625 -2.39062,0 -3.71875,1.65625 -1.3125,1.640625 -1.3125,5.03125 0,3.28125 1.32813,4.984375 1.32812,1.6875 3.70312,1.6875 2.34375,0 3.67188,-1.671875 1.34375,-1.6875 1.34375,-5 z m 31.29687,3.6875 q 0,2.390625 -1.98437,3.921875 -1.96875,1.531255 -5.39063,1.531255 -1.9375,0 -3.5625,-0.45313 Q 374.78125,99.5 373.6875,98.953125 V 95.65625 h 0.15625 q 1.39062,1.046875 3.09375,1.671875 1.70312,0.609375 3.26562,0.609375 1.9375,0 3.03125,-0.625 1.09375,-0.625 1.09375,-1.96875 0,-1.03125 -0.59375,-1.5625 -0.59375,-0.53125 -2.28125,-0.90625 -0.625,-0.140625 -1.64062,-0.328125 -1,-0.1875 -1.82813,-0.40625 -2.29687,-0.609375 -3.26562,-1.78125 -0.95313,-1.1875 -0.95313,-2.90625 0,-1.078125 0.4375,-2.03125 0.45313,-0.953125 1.35938,-1.703125 0.875,-0.734375 2.21875,-1.15625 1.35937,-0.4375 3.03125,-0.4375 1.5625,0 3.15625,0.390625 1.60937,0.375 2.67187,0.921875 v 3.140625 h -0.15625 Q 385.35937,85.75 383.75,85.1875 q -1.60938,-0.578125 -3.15625,-0.578125 -1.60938,0 -2.71875,0.625 -1.10938,0.609375 -1.10938,1.828125 0,1.078125 0.67188,1.625 0.65625,0.546875 2.125,0.890625 0.8125,0.1875 1.8125,0.375 1.01562,0.1875 1.6875,0.34375 2.04687,0.46875 3.15625,1.609375 1.10937,1.15625 1.10937,3.0625 z M 406.125,100 h -2.9375 v -9.9375 q 0,-1.203125 -0.14063,-2.25 -0.14062,-1.0625 -0.51562,-1.65625 -0.39063,-0.65625 -1.125,-0.96875 -0.73438,-0.328125 -1.90625,-0.328125 -1.20313,0 -2.51563,0.59375 -1.3125,0.59375 -2.51562,1.515625 V 100 h -2.9375 V 75.6875 h 2.9375 v 8.796875 q 1.375,-1.140625 2.84375,-1.78125 1.46875,-0.640625 3.01562,-0.640625 2.82813,0 4.3125,1.703125 1.48438,1.703125 1.48438,4.90625 z m 19.21875,0 h -2.92188 v -1.859375 q -0.39062,0.265625 -1.0625,0.75 -0.65625,0.46875 -1.28125,0.75 -0.73437,0.359375 -1.6875,0.593755 -0.95312,0.25 -2.23437,0.25 -2.35938,0 -4,-1.562505 -1.64063,-1.5625 -1.64063,-3.984375 0,-1.984375 0.84375,-3.203125 0.85938,-1.234375 2.4375,-1.9375 1.59375,-0.703125 3.82813,-0.953125 2.23437,-0.25 4.79687,-0.375 v -0.453125 q 0,-1 -0.35937,-1.65625 -0.34375,-0.65625 -1,-1.03125 -0.625,-0.359375 -1.5,-0.484375 -0.875,-0.125 -1.82813,-0.125 -1.15625,0 -2.57812,0.3125 -1.42188,0.296875 -2.9375,0.875 h -0.15625 v -2.984375 q 0.85937,-0.234375 2.48437,-0.515625 1.625,-0.28125 3.20313,-0.28125 1.84375,0 3.20312,0.3125 1.375,0.296875 2.375,1.03125 0.98438,0.71875 1.5,1.859375 0.51563,1.140625 0.51563,2.828125 z m -2.92188,-4.296875 V 90.84375 q -1.34375,0.07813 -3.17187,0.234375 -1.8125,0.15625 -2.875,0.453125 -1.26563,0.359375 -2.04688,1.125 -0.78125,0.75 -0.78125,2.078125 0,1.5 0.90625,2.265625 0.90625,0.75 2.76563,0.75 1.54687,0 2.82812,-0.59375 1.28125,-0.609375 2.375,-1.453125 z M 441.89062,85.75 h -0.15625 q -0.65625,-0.15625 -1.28125,-0.21875 -0.60937,-0.07813 -1.45312,-0.07813 -1.35938,0 -2.625,0.609375 -1.26563,0.59375 -2.4375,1.546875 V 100 H 431 V 82.546875 h 2.9375 V 85.125 q 1.75,-1.40625 3.07812,-1.984375 1.34375,-0.59375 2.73438,-0.59375 0.76562,0 1.10937,0.04687 0.34375,0.03125 1.03125,0.140625 z m 18.125,5.3125 q 0,2.125 -0.60937,3.890625 -0.60938,1.75 -1.71875,2.96875 -1.03125,1.15625 -2.4375,1.796875 -1.39063,0.625 -2.95313,0.625 -1.35937,0 -2.46875,-0.29687 Q 448.73437,99.75 447.59375,99.125 v 7.3125 h -2.9375 V 82.546875 h 2.9375 V 84.375 q 1.17187,-0.984375 2.625,-1.640625 1.46875,-0.671875 3.125,-0.671875 3.15625,0 4.90625,2.390625 1.76562,2.375 1.76562,6.609375 z m -3.03125,0.07813 q 0,-3.15625 -1.07812,-4.71875 -1.07813,-1.5625 -3.3125,-1.5625 -1.26563,0 -2.54688,0.546875 -1.28125,0.546875 -2.45312,1.4375 v 9.890625 q 1.25,0.5625 2.14062,0.765625 0.90625,0.203125 2.04688,0.203125 2.45312,0 3.82812,-1.65625 1.375,-1.65625 1.375,-4.90625 z M 489.40625,100 h -2.92188 v -1.859375 q -0.39062,0.265625 -1.0625,0.75 -0.65625,0.46875 -1.28125,0.75 -0.73437,0.359375 -1.6875,0.593755 -0.95312,0.25 -2.23437,0.25 -2.35938,0 -4,-1.562505 -1.64063,-1.5625 -1.64063,-3.984375 0,-1.984375 0.84375,-3.203125 0.85938,-1.234375 2.4375,-1.9375 1.59375,-0.703125 3.82813,-0.953125 2.23437,-0.25 4.79687,-0.375 v -0.453125 q 0,-1 -0.35937,-1.65625 -0.34375,-0.65625 -1,-1.03125 -0.625,-0.359375 -1.5,-0.484375 -0.875,-0.125 -1.82813,-0.125 -1.15625,0 -2.57812,0.3125 -1.42188,0.296875 -2.9375,0.875 H 476.125 v -2.984375 q 0.85937,-0.234375 2.48437,-0.515625 1.625,-0.28125 3.20313,-0.28125 1.84375,0 3.20312,0.3125 1.375,0.296875 2.375,1.03125 0.98438,0.71875 1.5,1.859375 0.51563,1.140625 0.51563,2.828125 z m -2.92188,-4.296875 V 90.84375 q -1.34375,0.07813 -3.17187,0.234375 -1.8125,0.15625 -2.875,0.453125 -1.26563,0.359375 -2.04688,1.125 -0.78125,0.75 -0.78125,2.078125 0,1.5 0.90625,2.265625 0.90625,0.75 2.76563,0.75 1.54687,0 2.82812,-0.59375 1.28125,-0.609375 2.375,-1.453125 z M 509.65625,100 h -2.9375 v -9.9375 q 0,-1.203125 -0.14063,-2.25 -0.14062,-1.0625 -0.51562,-1.65625 -0.39063,-0.65625 -1.125,-0.96875 -0.73438,-0.328125 -1.90625,-0.328125 -1.20313,0 -2.51563,0.59375 -1.3125,0.59375 -2.51562,1.515625 V 100 h -2.9375 V 82.546875 H 498 v 1.9375 q 1.375,-1.140625 2.84375,-1.78125 1.46875,-0.640625 3.01562,-0.640625 2.82813,0 4.3125,1.703125 1.48438,1.703125 1.48438,4.90625 z m 19.8125,0 h -2.9375 v -1.828125 q -1.26563,1.09375 -2.64063,1.703125 -1.375,0.60938 -2.98437,0.60938 -3.125,0 -4.96875,-2.406255 -1.82813,-2.40625 -1.82813,-6.671875 0,-2.21875 0.625,-3.953125 0.64063,-1.734375 1.71875,-2.953125 1.0625,-1.1875 2.46875,-1.8125 1.42188,-0.625 2.9375,-0.625 1.375,0 2.4375,0.296875 1.0625,0.28125 2.23438,0.890625 v -7.5625 h 2.9375 z m -2.9375,-4.296875 V 85.6875 q -1.1875,-0.53125 -2.125,-0.734375 Q 523.46875,84.75 522.35937,84.75 q -2.46875,0 -3.84375,1.71875 -1.375,1.71875 -1.375,4.875 0,3.109375 1.0625,4.734375 1.0625,1.609375 3.40625,1.609375 1.25,0 2.53125,-0.546875 1.28125,-0.5625 2.39063,-1.4375 z M 562.34375,100 h -3.875 l -7,-7.640625 -1.90625,1.8125 V 100 H 546.625 V 75.6875 h 2.9375 v 15.59375 l 8.48437,-8.734375 H 561.75 l -8.10938,8.0625 z m 17.39062,-8.421875 H 566.875 q 0,1.609375 0.48437,2.8125 0.48438,1.1875 1.32813,1.953125 0.8125,0.75 1.92187,1.125 1.125,0.375 2.46875,0.375 1.78125,0 3.57813,-0.703125 1.8125,-0.71875 2.57812,-1.40625 h 0.15625 V 98.9375 q -1.48437,0.625 -3.03125,1.046875 -1.54687,0.421875 -3.25,0.421875 -4.34375,0 -6.78125,-2.34375 -2.4375,-2.359375 -2.4375,-6.6875 0,-4.28125 2.32813,-6.796875 2.34375,-2.515625 6.15625,-2.515625 3.53125,0 5.4375,2.0625 1.92187,2.0625 1.92187,5.859375 z m -2.85937,-2.25 q -0.0156,-2.3125 -1.17188,-3.578125 -1.14062,-1.265625 -3.48437,-1.265625 -2.35938,0 -3.76563,1.390625 -1.39062,1.390625 -1.57812,3.453125 z m 21.92187,2.25 H 585.9375 q 0,1.609375 0.48437,2.8125 0.48438,1.1875 1.32813,1.953125 0.8125,0.75 1.92187,1.125 1.125,0.375 2.46875,0.375 1.78125,0 3.57813,-0.703125 1.8125,-0.71875 2.57812,-1.40625 h 0.15625 V 98.9375 q -1.48437,0.625 -3.03125,1.046875 -1.54687,0.421875 -3.25,0.421875 -4.34375,0 -6.78125,-2.34375 -2.4375,-2.359375 -2.4375,-6.6875 0,-4.28125 2.32813,-6.796875 2.34375,-2.515625 6.15625,-2.515625 3.53125,0 5.4375,2.0625 1.92187,2.0625 1.92187,5.859375 z m -2.85937,-2.25 q -0.0156,-2.3125 -1.17188,-3.578125 -1.14062,-1.265625 -3.48437,-1.265625 -2.35938,0 -3.76563,1.390625 -1.39062,1.390625 -1.57812,3.453125 z M 617.84375,100 h -2.9375 v -9.9375 q 0,-1.203125 -0.14063,-2.25 Q 614.625,86.75 614.25,86.15625 613.85937,85.5 613.125,85.1875 q -0.73438,-0.328125 -1.90625,-0.328125 -1.20313,0 -2.51563,0.59375 -1.3125,0.59375 -2.51562,1.515625 V 100 H 603.25 V 82.546875 h 2.9375 v 1.9375 q 1.375,-1.140625 2.84375,-1.78125 1.46875,-0.640625 3.01562,-0.640625 2.82813,0 4.3125,1.703125 1.48438,1.703125 1.48438,4.90625 z m 11.75,-4.453125 -4.40625,10.234375 h -2.28125 L 625.625,95.546875 Z"
         id="path4" />
      <path
         d="m 70.03125,143.35937 q 0,1.35938 -0.640625,2.6875 -0.625,1.32813 -1.765625,2.25 -1.25,1 -2.921875,1.5625 -1.65625,0.5625 -4,0.5625 -2.515625,0 -4.53125,-0.46875 -2,-0.46875 -4.078125,-1.39062 v -3.875 h 0.21875 q 1.765625,1.46875 4.078125,2.26562 2.3125,0.79688 4.34375,0.79688 2.875,0 4.46875,-1.07813 1.609375,-1.07812 1.609375,-2.875 0,-1.54687 -0.765625,-2.28125 -0.75,-0.73437 -2.296875,-1.14062 -1.171875,-0.3125 -2.546875,-0.51563 -1.359375,-0.20312 -2.890625,-0.51562 -3.09375,-0.65625 -4.59375,-2.23438 -1.484375,-1.59375 -1.484375,-4.14062 0,-2.92188 2.46875,-4.78125 2.46875,-1.875 6.265625,-1.875 2.453125,0 4.5,0.46875 2.046875,0.46875 3.625,1.15625 v 3.65625 H 68.875 q -1.328125,-1.125 -3.5,-1.85938 -2.15625,-0.75 -4.421875,-0.75 -2.484375,0 -4,1.03125 -1.5,1.03125 -1.5,2.65625 0,1.45313 0.75,2.28125 0.75,0.82813 2.640625,1.26563 1,0.21875 2.84375,0.53125 1.84375,0.3125 3.125,0.64062 2.59375,0.6875 3.90625,2.07813 1.3125,1.39062 1.3125,3.89062 z m 17.640625,5.54688 Q 86.203125,149.60937 84.875,150 q -1.3125,0.39062 -2.796875,0.39062 -1.890625,0 -3.46875,-0.54687 -1.578125,-0.5625 -2.703125,-1.6875 -1.140625,-1.125 -1.765625,-2.84375 -0.625,-1.71875 -0.625,-4.01563 0,-4.28125 2.34375,-6.71875 2.359375,-2.4375 6.21875,-2.4375 1.5,0 2.9375,0.42188 1.453125,0.42187 2.65625,1.03125 v 3.26562 h -0.15625 q -1.34375,-1.04687 -2.78125,-1.60937 -1.421875,-0.5625 -2.78125,-0.5625 -2.5,0 -3.953125,1.6875 -1.4375,1.67187 -1.4375,4.92187 0,3.15625 1.40625,4.85938 1.421875,1.6875 3.984375,1.6875 0.890625,0 1.8125,-0.23438 Q 84.6875,147.375 85.421875,147 86.0625,146.67187 86.625,146.3125 q 0.5625,-0.375 0.890625,-0.64063 h 0.15625 z M 94.59375,129.625 h -3.3125 v -3.04687 h 3.3125 z M 94.40625,150 h -2.9375 v -17.45313 h 2.9375 z m 20.42188,-8.42188 h -12.85938 q 0,1.60938 0.48438,2.8125 0.48437,1.1875 1.32812,1.95313 0.8125,0.75 1.92188,1.125 1.125,0.375 2.46875,0.375 1.78125,0 3.57812,-0.70313 1.8125,-0.71875 2.57813,-1.40625 h 0.15625 v 3.20313 q -1.48438,0.625 -3.03125,1.04687 -1.54688,0.42188 -3.25,0.42188 -4.34375,0 -6.78125,-2.34375 -2.437505,-2.35938 -2.437505,-6.6875 0,-4.28125 2.328125,-6.79688 2.34375,-2.51562 6.15625,-2.51562 3.53125,0 5.4375,2.0625 1.92188,2.0625 1.92188,5.85937 z m -2.85938,-2.25 q -0.0156,-2.3125 -1.17187,-3.57812 -1.14063,-1.26563 -3.48438,-1.26563 -2.35937,0 -3.76562,1.39063 -1.39063,1.39062 -1.57813,3.45312 z M 133.875,150 h -2.9375 v -9.9375 q 0,-1.20313 -0.14063,-2.25 -0.14062,-1.0625 -0.51562,-1.65625 -0.39063,-0.65625 -1.125,-0.96875 -0.73438,-0.32813 -1.90625,-0.32813 -1.20312,0 -2.51562,0.59375 -1.3125,0.59375 -2.51563,1.51563 V 150 h -2.9375 v -17.45313 h 2.9375 v 1.9375 q 1.375,-1.14062 2.84375,-1.78125 1.46875,-0.64062 3.01562,-0.64062 2.82813,0 4.3125,1.70312 1.48438,1.70313 1.48438,4.90625 z m 14.71875,-0.15625 q -0.82813,0.21875 -1.8125,0.35937 -0.96875,0.14063 -1.73438,0.14063 -2.67187,0 -4.0625,-1.4375 -1.39062,-1.4375 -1.39062,-4.60938 v -9.28125 h -1.98438 v -2.46875 h 1.98438 v -5.01562 h 2.9375 v 5.01562 h 6.0625 v 2.46875 h -6.0625 v 7.95313 q 0,1.375 0.0625,2.15625 0.0625,0.76562 0.4375,1.4375 0.34375,0.625 0.9375,0.92187 0.60937,0.28125 1.84375,0.28125 0.71875,0 1.5,-0.20312 0.78125,-0.21875 1.125,-0.35938 h 0.15625 z m 6.70312,-20.21875 h -3.3125 v -3.04687 h 3.3125 z M 155.10937,150 h -2.9375 v -17.45313 h 2.9375 z m 15.20313,-21.46875 h -0.15625 q -0.48438,-0.14063 -1.26563,-0.28125 -0.78125,-0.15625 -1.375,-0.15625 -1.89062,0 -2.75,0.84375 -0.84375,0.82812 -0.84375,3.01562 v 0.59375 h 5.29688 v 2.46875 h -5.20313 V 150 h -2.9375 v -14.98438 h -1.98437 v -2.46875 h 1.98437 v -0.57812 q 0,-3.10938 1.54688,-4.76562 1.54687,-1.67188 4.46875,-1.67188 0.98437,0 1.76562,0.0937 0.79688,0.0937 1.45313,0.21875 z m 5.01562,1.09375 h -3.3125 v -3.04687 h 3.3125 z M 175.14062,150 h -2.9375 v -17.45313 h 2.9375 z m 18.71875,-1.09375 q -1.46875,0.70312 -2.79687,1.09375 -1.3125,0.39062 -2.79688,0.39062 -1.89062,0 -3.46875,-0.54687 -1.57812,-0.5625 -2.70312,-1.6875 -1.14063,-1.125 -1.76563,-2.84375 -0.625,-1.71875 -0.625,-4.01563 0,-4.28125 2.34375,-6.71875 2.35938,-2.4375 6.21875,-2.4375 1.5,0 2.9375,0.42188 1.45313,0.42187 2.65625,1.03125 v 3.26562 h -0.15625 q -1.34375,-1.04687 -2.78125,-1.60937 -1.42187,-0.5625 -2.78125,-0.5625 -2.5,0 -3.95312,1.6875 -1.4375,1.67187 -1.4375,4.92187 0,3.15625 1.40625,4.85938 1.42187,1.6875 3.98437,1.6875 0.89063,0 1.8125,-0.23438 0.92188,-0.23437 1.65625,-0.60937 0.64063,-0.32813 1.20313,-0.6875 0.5625,-0.375 0.89062,-0.64063 h 0.15625 z m 24.07813,0.9375 q -0.82813,0.21875 -1.8125,0.35937 -0.96875,0.14063 -1.73438,0.14063 -2.67187,0 -4.0625,-1.4375 -1.39062,-1.4375 -1.39062,-4.60938 v -9.28125 h -1.98438 v -2.46875 h 1.98438 v -5.01562 h 2.9375 v 5.01562 h 6.0625 v 2.46875 h -6.0625 v 7.95313 q 0,1.375 0.0625,2.15625 0.0625,0.76562 0.4375,1.4375 0.34375,0.625 0.9375,0.92187 0.60937,0.28125 1.84375,0.28125 0.71875,0 1.5,-0.20312 0.78125,-0.21875 1.125,-0.35938 h 0.15625 z M 232.375,135.75 h -0.15625 q -0.65625,-0.15625 -1.28125,-0.21875 -0.60938,-0.0781 -1.45313,-0.0781 -1.35937,0 -2.625,0.60938 -1.26562,0.59375 -2.4375,1.54687 V 150 h -2.9375 v -17.45313 h 2.9375 v 2.57813 q 1.75,-1.40625 3.07813,-1.98438 1.34375,-0.59375 2.73437,-0.59375 0.76563,0 1.10938,0.0469 0.34375,0.0312 1.03125,0.14062 z M 249.60937,150 h -2.9375 v -1.9375 q -1.48437,1.17187 -2.84375,1.79687 -1.35937,0.625 -3,0.625 -2.75,0 -4.28125,-1.67187 -1.53125,-1.6875 -1.53125,-4.9375 v -11.32813 h 2.9375 v 9.9375 q 0,1.32813 0.125,2.28125 0.125,0.9375 0.53125,1.60938 0.42188,0.6875 1.09375,1 0.67188,0.3125 1.95313,0.3125 1.14062,0 2.48437,-0.59375 1.35938,-0.59375 2.53125,-1.51563 v -13.03125 h 2.9375 z m 14.84375,-0.15625 q -0.82812,0.21875 -1.8125,0.35937 -0.96875,0.14063 -1.73437,0.14063 -2.67188,0 -4.0625,-1.4375 -1.39063,-1.4375 -1.39063,-4.60938 v -9.28125 h -1.98437 v -2.46875 h 1.98437 v -5.01562 h 2.9375 v 5.01562 h 6.0625 v 2.46875 h -6.0625 v 7.95313 q 0,1.375 0.0625,2.15625 0.0625,0.76562 0.4375,1.4375 0.34375,0.625 0.9375,0.92187 0.60938,0.28125 1.84375,0.28125 0.71875,0 1.5,-0.20312 0.78125,-0.21875 1.125,-0.35938 h 0.15625 z M 282.59375,150 h -2.9375 v -9.9375 q 0,-1.20313 -0.14063,-2.25 Q 279.375,136.75 279,136.15625 278.60937,135.5 277.875,135.1875 q -0.73438,-0.32813 -1.90625,-0.32813 -1.20313,0 -2.51563,0.59375 -1.3125,0.59375 -2.51562,1.51563 V 150 H 268 v -24.3125 h 2.9375 v 8.79687 q 1.375,-1.14062 2.84375,-1.78125 1.46875,-0.64062 3.01562,-0.64062 2.82813,0 4.3125,1.70312 1.48438,1.70313 1.48438,4.90625 z m 18.125,-5.03125 q 0,2.39062 -1.98438,3.92187 -1.96875,1.53125 -5.39062,1.53125 -1.9375,0 -3.5625,-0.45312 -1.60938,-0.46875 -2.70313,-1.01563 v -3.29687 h 0.15625 q 1.39063,1.04687 3.09375,1.67187 1.70313,0.60938 3.26563,0.60938 1.9375,0 3.03125,-0.625 1.09375,-0.625 1.09375,-1.96875 0,-1.03125 -0.59375,-1.5625 -0.59375,-0.53125 -2.28125,-0.90625 -0.625,-0.14063 -1.64063,-0.32813 -1,-0.1875 -1.82812,-0.40625 -2.29688,-0.60937 -3.26563,-1.78125 -0.95312,-1.1875 -0.95312,-2.90625 0,-1.07812 0.4375,-2.03125 0.45312,-0.95312 1.35937,-1.70312 0.875,-0.73438 2.21875,-1.15625 1.35938,-0.4375 3.03125,-0.4375 1.5625,0 3.15625,0.39062 1.60938,0.375 2.67188,0.92188 v 3.14062 H 299.875 q -1.125,-0.82812 -2.73438,-1.39062 -1.60937,-0.57813 -3.15625,-0.57813 -1.60937,0 -2.71875,0.625 -1.10937,0.60938 -1.10937,1.82813 0,1.07812 0.67187,1.625 0.65625,0.54687 2.125,0.89062 0.8125,0.1875 1.8125,0.375 1.01563,0.1875 1.6875,0.34375 2.04688,0.46875 3.15625,1.60938 1.10938,1.15625 1.10938,3.0625 z M 329.73437,150 h -2.92187 v -1.85938 q -0.39063,0.26563 -1.0625,0.75 -0.65625,0.46875 -1.28125,0.75 -0.73438,0.35938 -1.6875,0.59375 -0.95313,0.25 -2.23438,0.25 -2.35937,0 -4,-1.5625 -1.64062,-1.5625 -1.64062,-3.98437 0,-1.98438 0.84375,-3.20313 0.85937,-1.23437 2.4375,-1.9375 1.59375,-0.70312 3.82812,-0.95312 2.23438,-0.25 4.79688,-0.375 v -0.45313 q 0,-1 -0.35938,-1.65625 -0.34375,-0.65625 -1,-1.03125 -0.625,-0.35937 -1.5,-0.48437 -0.875,-0.125 -1.82812,-0.125 -1.15625,0 -2.57813,0.3125 -1.42187,0.29687 -2.9375,0.875 h -0.15625 v -2.98438 q 0.85938,-0.23437 2.48438,-0.51562 1.625,-0.28125 3.20312,-0.28125 1.84375,0 3.20313,0.3125 1.375,0.29687 2.375,1.03125 0.98437,0.71875 1.5,1.85937 0.51562,1.14063 0.51562,2.82813 z m -2.92187,-4.29688 v -4.85937 q -1.34375,0.0781 -3.17188,0.23437 -1.8125,0.15625 -2.875,0.45313 -1.26562,0.35937 -2.04687,1.125 -0.78125,0.75 -0.78125,2.07812 0,1.5 0.90625,2.26563 0.90625,0.75 2.76562,0.75 1.54688,0 2.82813,-0.59375 1.28125,-0.60938 2.375,-1.45313 z M 346.28125,135.75 H 346.125 q -0.65625,-0.15625 -1.28125,-0.21875 -0.60938,-0.0781 -1.45313,-0.0781 -1.35937,0 -2.625,0.60938 -1.26562,0.59375 -2.4375,1.54687 V 150 h -2.9375 v -17.45313 h 2.9375 v 2.57813 q 1.75,-1.40625 3.07813,-1.98438 1.34375,-0.59375 2.73437,-0.59375 0.76563,0 1.10938,0.0469 0.34375,0.0312 1.03125,0.14062 z m 17.375,5.82812 h -12.85938 q 0,1.60938 0.48438,2.8125 0.48437,1.1875 1.32812,1.95313 0.8125,0.75 1.92188,1.125 1.125,0.375 2.46875,0.375 1.78125,0 3.57812,-0.70313 1.8125,-0.71875 2.57813,-1.40625 h 0.15625 v 3.20313 q -1.48438,0.625 -3.03125,1.04687 -1.54688,0.42188 -3.25,0.42188 -4.34375,0 -6.78125,-2.34375 -2.4375,-2.35938 -2.4375,-6.6875 0,-4.28125 2.32812,-6.79688 2.34375,-2.51562 6.15625,-2.51562 3.53125,0 5.4375,2.0625 1.92188,2.0625 1.92188,5.85937 z m -2.85938,-2.25 q -0.0156,-2.3125 -1.17187,-3.57812 -1.14063,-1.26563 -3.48438,-1.26563 -2.35937,0 -3.76562,1.39063 -1.39063,1.39062 -1.57813,3.45312 z m 31.46875,9.57813 q -1.46875,0.70312 -2.79687,1.09375 -1.3125,0.39062 -2.79688,0.39062 -1.89062,0 -3.46875,-0.54687 -1.57812,-0.5625 -2.70312,-1.6875 -1.14063,-1.125 -1.76563,-2.84375 -0.625,-1.71875 -0.625,-4.01563 0,-4.28125 2.34375,-6.71875 2.35938,-2.4375 6.21875,-2.4375 1.5,0 2.9375,0.42188 1.45313,0.42187 2.65625,1.03125 v 3.26562 h -0.15625 q -1.34375,-1.04687 -2.78125,-1.60937 -1.42187,-0.5625 -2.78125,-0.5625 -2.5,0 -3.95312,1.6875 -1.4375,1.67187 -1.4375,4.92187 0,3.15625 1.40625,4.85938 1.42187,1.6875 3.98437,1.6875 0.89063,0 1.8125,-0.23438 0.92188,-0.23437 1.65625,-0.60937 0.64063,-0.32813 1.20313,-0.6875 0.5625,-0.375 0.89062,-0.64063 h 0.15625 z M 399,150 h -2.9375 V 125.6875 H 399 Z m 20.42187,-8.42188 H 406.5625 q 0,1.60938 0.48437,2.8125 0.48438,1.1875 1.32813,1.95313 0.8125,0.75 1.92187,1.125 1.125,0.375 2.46875,0.375 1.78125,0 3.57813,-0.70313 1.8125,-0.71875 2.57812,-1.40625 h 0.15625 v 3.20313 q -1.48437,0.625 -3.03125,1.04687 -1.54687,0.42188 -3.25,0.42188 -4.34375,0 -6.78125,-2.34375 -2.4375,-2.35938 -2.4375,-6.6875 0,-4.28125 2.32813,-6.79688 2.34375,-2.51562 6.15625,-2.51562 3.53125,0 5.4375,2.0625 1.92187,2.0625 1.92187,5.85937 z m -2.85937,-2.25 q -0.0156,-2.3125 -1.17188,-3.57812 -1.14062,-1.26563 -3.48437,-1.26563 -2.35938,0 -3.76563,1.39063 -1.39062,1.39062 -1.57812,3.45312 z M 437.4375,150 h -2.92188 v -1.85938 q -0.39062,0.26563 -1.0625,0.75 -0.65625,0.46875 -1.28125,0.75 -0.73437,0.35938 -1.6875,0.59375 -0.95312,0.25 -2.23437,0.25 -2.35938,0 -4,-1.5625 -1.64063,-1.5625 -1.64063,-3.98437 0,-1.98438 0.84375,-3.20313 0.85938,-1.23437 2.4375,-1.9375 1.59375,-0.70312 3.82813,-0.95312 2.23437,-0.25 4.79687,-0.375 v -0.45313 q 0,-1 -0.35937,-1.65625 -0.34375,-0.65625 -1,-1.03125 -0.625,-0.35937 -1.5,-0.48437 -0.875,-0.125 -1.82813,-0.125 -1.15625,0 -2.57812,0.3125 -1.42188,0.29687 -2.9375,0.875 h -0.15625 v -2.98438 q 0.85937,-0.23437 2.48437,-0.51562 1.625,-0.28125 3.20313,-0.28125 1.84375,0 3.20312,0.3125 1.375,0.29687 2.375,1.03125 0.98438,0.71875 1.5,1.85937 0.51563,1.14063 0.51563,2.82813 z m -2.92188,-4.29688 v -4.85937 q -1.34375,0.0781 -3.17187,0.23437 -1.8125,0.15625 -2.875,0.45313 -1.26563,0.35937 -2.04688,1.125 -0.78125,0.75 -0.78125,2.07812 0,1.5 0.90625,2.26563 0.90625,0.75 2.76563,0.75 1.54687,0 2.82812,-0.59375 1.28125,-0.60938 2.375,-1.45313 z M 453.98437,135.75 h -0.15625 q -0.65625,-0.15625 -1.28125,-0.21875 -0.60937,-0.0781 -1.45312,-0.0781 -1.35938,0 -2.625,0.60938 -1.26563,0.59375 -2.4375,1.54687 V 150 h -2.9375 v -17.45313 h 2.9375 v 2.57813 q 1.75,-1.40625 3.07812,-1.98438 1.34375,-0.59375 2.73438,-0.59375 0.76562,0 1.10937,0.0469 0.34375,0.0312 1.03125,0.14062 z m 5.73438,14.25 h -2.9375 v -24.3125 h 2.9375 z M 480.625,132.54687 470.4375,156.4375 h -3.14063 l 3.25,-7.28125 -6.95312,-16.60938 h 3.1875 l 5.35937,12.9375 5.40625,-12.9375 z m 27.5625,12.42188 q 0,2.39062 -1.98438,3.92187 -1.96875,1.53125 -5.39062,1.53125 -1.9375,0 -3.5625,-0.45312 -1.60938,-0.46875 -2.70313,-1.01563 v -3.29687 h 0.15625 q 1.39063,1.04687 3.09375,1.67187 1.70313,0.60938 3.26563,0.60938 1.9375,0 3.03125,-0.625 1.09375,-0.625 1.09375,-1.96875 0,-1.03125 -0.59375,-1.5625 Q 504,143.25 502.3125,142.875 q -0.625,-0.14063 -1.64063,-0.32813 -1,-0.1875 -1.82812,-0.40625 -2.29688,-0.60937 -3.26563,-1.78125 -0.95312,-1.1875 -0.95312,-2.90625 0,-1.07812 0.4375,-2.03125 0.45312,-0.95312 1.35937,-1.70312 0.875,-0.73438 2.21875,-1.15625 1.35938,-0.4375 3.03125,-0.4375 1.5625,0 3.15625,0.39062 1.60938,0.375 2.67188,0.92188 v 3.14062 h -0.15625 q -1.125,-0.82812 -2.73438,-1.39062 -1.60937,-0.57813 -3.15625,-0.57813 -1.60937,0 -2.71875,0.625 -1.10937,0.60938 -1.10937,1.82813 0,1.07812 0.67187,1.625 0.65625,0.54687 2.125,0.89062 0.8125,0.1875 1.8125,0.375 1.01563,0.1875 1.6875,0.34375 2.04688,0.46875 3.15625,1.60938 1.10938,1.15625 1.10938,3.0625 z M 527,141.57812 h -12.85938 q 0,1.60938 0.48438,2.8125 0.48437,1.1875 1.32812,1.95313 0.8125,0.75 1.92188,1.125 1.125,0.375 2.46875,0.375 1.78125,0 3.57812,-0.70313 1.8125,-0.71875 2.57813,-1.40625 h 0.15625 v 3.20313 q -1.48438,0.625 -3.03125,1.04687 -1.54688,0.42188 -3.25,0.42188 -4.34375,0 -6.78125,-2.34375 -2.4375,-2.35938 -2.4375,-6.6875 0,-4.28125 2.32812,-6.79688 2.34375,-2.51562 6.15625,-2.51562 3.53125,0 5.4375,2.0625 Q 527,136.1875 527,139.98437 Z m -2.85938,-2.25 q -0.0156,-2.3125 -1.17187,-3.57812 -1.14063,-1.26563 -3.48438,-1.26563 -2.35937,0 -3.76562,1.39063 -1.39063,1.39062 -1.57813,3.45312 z m 21.92188,2.25 h -12.85938 q 0,1.60938 0.48438,2.8125 0.48437,1.1875 1.32812,1.95313 0.8125,0.75 1.92188,1.125 1.125,0.375 2.46875,0.375 1.78125,0 3.57812,-0.70313 1.8125,-0.71875 2.57813,-1.40625 h 0.15625 v 3.20313 q -1.48438,0.625 -3.03125,1.04687 -1.54688,0.42188 -3.25,0.42188 -4.34375,0 -6.78125,-2.34375 -2.4375,-2.35938 -2.4375,-6.6875 0,-4.28125 2.32812,-6.79688 2.34375,-2.51562 6.15625,-2.51562 3.53125,0 5.4375,2.0625 1.92188,2.0625 1.92188,5.85937 z m -2.85938,-2.25 q -0.0156,-2.3125 -1.17187,-3.57812 -1.14063,-1.26563 -3.48438,-1.26563 -2.35937,0 -3.76562,1.39063 -1.39063,1.39062 -1.57813,3.45312 z M 565.10937,150 h -2.9375 v -9.9375 q 0,-1.20313 -0.14062,-2.25 -0.14063,-1.0625 -0.51563,-1.65625 -0.39062,-0.65625 -1.125,-0.96875 -0.73437,-0.32813 -1.90625,-0.32813 -1.20312,0 -2.51562,0.59375 -1.3125,0.59375 -2.51563,1.51563 V 150 h -2.9375 v -17.45313 h 2.9375 v 1.9375 q 1.375,-1.14062 2.84375,-1.78125 1.46875,-0.64062 3.01563,-0.64062 2.82812,0 4.3125,1.70312 1.48437,1.70313 1.48437,4.90625 z m 10.45313,0 h -3.73438 v -4.45313 h 3.73438 z"
         id="path5" />
      <path
         d="M 68.453125,200 H 53.125 v -23.26563 h 15.328125 v 2.75 H 56.21875 v 6.375 h 12.234375 v 2.75 H 56.21875 V 197.25 h 12.234375 z m 19.78125,0 H 84.53125 L 79.578125,193.29687 74.59375,200 h -3.421875 l 6.8125,-8.70313 -6.75,-8.75 H 74.9375 l 4.921875,6.59375 4.9375,-6.59375 h 3.4375 L 81.375,191.14062 Z m 19.187505,-8.9375 q 0,2.125 -0.60938,3.89062 -0.60937,1.75 -1.71875,2.96875 -1.03125,1.15625 -2.4375,1.79688 -1.39062,0.625 -2.953125,0.625 -1.359375,0 -2.46875,-0.29688 Q 96.140625,199.75 95,199.125 v 7.3125 H 92.0625 V 182.54687 H 95 v 1.82813 q 1.171875,-0.98438 2.625,-1.64063 1.46875,-0.67187 3.125,-0.67187 3.15625,0 4.90625,2.39062 1.76563,2.375 1.76563,6.60938 z m -3.03125,0.0781 q 0,-3.15625 -1.07813,-4.71875 -1.07812,-1.5625 -3.3125,-1.5625 -1.265625,0 -2.546875,0.54688 -1.28125,0.54687 -2.453125,1.4375 v 9.89062 q 1.25,0.5625 2.140625,0.76563 0.90625,0.20312 2.046875,0.20312 2.45313,0 3.82813,-1.65625 1.375,-1.65625 1.375,-4.90625 z m 22.21875,0.4375 H 113.75 q 0,1.60938 0.48438,2.8125 0.48437,1.1875 1.32812,1.95313 0.8125,0.75 1.92188,1.125 1.125,0.375 2.46875,0.375 1.78125,0 3.57812,-0.70313 1.8125,-0.71875 2.57813,-1.40625 h 0.15625 v 3.20313 q -1.48438,0.625 -3.03125,1.04687 -1.54688,0.42188 -3.25,0.42188 -4.34375,0 -6.78125,-2.34375 -2.4375,-2.35938 -2.4375,-6.6875 0,-4.28125 2.32812,-6.79688 2.34375,-2.51562 6.15625,-2.51562 3.53125,0 5.4375,2.0625 1.92188,2.0625 1.92188,5.85937 z m -2.85938,-2.25 q -0.0156,-2.3125 -1.17187,-3.57812 -1.14063,-1.26563 -3.48438,-1.26563 -2.35937,0 -3.76562,1.39063 -1.39063,1.39062 -1.57813,3.45312 z M 141.95312,185.75 h -0.15625 q -0.65625,-0.15625 -1.28125,-0.21875 -0.60937,-0.0781 -1.45312,-0.0781 -1.35938,0 -2.625,0.60938 -1.26563,0.59375 -2.4375,1.54687 V 200 h -2.9375 V 182.54687 H 134 v 2.57813 q 1.75,-1.40625 3.07812,-1.98438 1.34375,-0.59375 2.73438,-0.59375 0.76562,0 1.10937,0.0469 0.34375,0.0312 1.03125,0.14062 z m 5.92188,-6.125 h -3.3125 v -3.04688 h 3.3125 z M 147.6875,200 H 144.75 v -17.45313 h 2.9375 z m 31.28125,0 h -2.9375 v -9.9375 q 0,-1.125 -0.10938,-2.17188 -0.0937,-1.04687 -0.42187,-1.67187 -0.35938,-0.67188 -1.03125,-1.01563 -0.67188,-0.34375 -1.9375,-0.34375 -1.23438,0 -2.46875,0.625 -1.23438,0.60938 -2.46875,1.5625 0.0469,0.35938 0.0781,0.84375 0.0312,0.46875 0.0312,0.9375 V 200 h -2.9375 v -9.9375 q 0,-1.15625 -0.10937,-2.1875 -0.0937,-1.04688 -0.42188,-1.67188 -0.35937,-0.67187 -1.03125,-1 -0.67187,-0.34375 -1.9375,-0.34375 -1.20312,0 -2.42187,0.59375 -1.20313,0.59375 -2.40625,1.51563 V 200 H 153.5 v -17.45313 h 2.9375 v 1.9375 q 1.375,-1.14062 2.73437,-1.78125 1.375,-0.64062 2.92188,-0.64062 1.78125,0 3.01562,0.75 1.25,0.75 1.85938,2.07812 1.78125,-1.5 3.25,-2.15625 1.46875,-0.67187 3.14062,-0.67187 2.875,0 4.23438,1.75 1.375,1.73437 1.375,4.85937 z m 20.26562,-8.42188 H 186.375 q 0,1.60938 0.48437,2.8125 0.48438,1.1875 1.32813,1.95313 0.8125,0.75 1.92187,1.125 1.125,0.375 2.46875,0.375 1.78125,0 3.57813,-0.70313 1.8125,-0.71875 2.57812,-1.40625 h 0.15625 v 3.20313 q -1.48437,0.625 -3.03125,1.04687 -1.54687,0.42188 -3.25,0.42188 -4.34375,0 -6.78125,-2.34375 -2.4375,-2.35938 -2.4375,-6.6875 0,-4.28125 2.32813,-6.79688 2.34375,-2.51562 6.15625,-2.51562 3.53125,0 5.4375,2.0625 1.92187,2.0625 1.92187,5.85937 z m -2.85937,-2.25 q -0.0156,-2.3125 -1.17188,-3.57812 -1.14062,-1.26563 -3.48437,-1.26563 -2.35938,0 -3.76563,1.39063 -1.39062,1.39062 -1.57812,3.45312 z M 218.28125,200 h -2.9375 v -9.9375 q 0,-1.20313 -0.14063,-2.25 -0.14062,-1.0625 -0.51562,-1.65625 -0.39063,-0.65625 -1.125,-0.96875 -0.73438,-0.32813 -1.90625,-0.32813 -1.20313,0 -2.51563,0.59375 -1.3125,0.59375 -2.51562,1.51563 V 200 h -2.9375 v -17.45313 h 2.9375 v 1.9375 q 1.375,-1.14062 2.84375,-1.78125 1.46875,-0.64062 3.01562,-0.64062 2.82813,0 4.3125,1.70312 1.48438,1.70313 1.48438,4.90625 z M 233,199.84375 q -0.82813,0.21875 -1.8125,0.35937 -0.96875,0.14063 -1.73438,0.14063 -2.67187,0 -4.0625,-1.4375 Q 224,197.46875 224,194.29687 v -9.28125 h -1.98438 v -2.46875 H 224 v -5.01562 h 2.9375 v 5.01562 H 233 v 2.46875 h -6.0625 v 7.95313 q 0,1.375 0.0625,2.15625 0.0625,0.76562 0.4375,1.4375 0.34375,0.625 0.9375,0.92187 0.60937,0.28125 1.84375,0.28125 0.71875,0 1.5,-0.20312 0.78125,-0.21875 1.125,-0.35938 H 233 Z m 16.01562,-4.875 q 0,2.39062 -1.98437,3.92187 -1.96875,1.53125 -5.39063,1.53125 -1.9375,0 -3.5625,-0.45312 -1.60937,-0.46875 -2.70312,-1.01563 v -3.29687 h 0.15625 q 1.39062,1.04687 3.09375,1.67187 1.70312,0.60938 3.26562,0.60938 1.9375,0 3.03125,-0.625 1.09375,-0.625 1.09375,-1.96875 0,-1.03125 -0.59375,-1.5625 -0.59375,-0.53125 -2.28125,-0.90625 -0.625,-0.14063 -1.64062,-0.32813 -1,-0.1875 -1.82813,-0.40625 -2.29687,-0.60937 -3.26562,-1.78125 -0.95313,-1.1875 -0.95313,-2.90625 0,-1.07812 0.4375,-2.03125 0.45313,-0.95312 1.35938,-1.70312 0.875,-0.73438 2.21875,-1.15625 1.35937,-0.4375 3.03125,-0.4375 1.5625,0 3.15625,0.39062 1.60937,0.375 2.67187,0.92188 v 3.14062 h -0.15625 q -1.125,-0.82812 -2.73437,-1.39062 -1.60938,-0.57813 -3.15625,-0.57813 -1.60938,0 -2.71875,0.625 -1.10938,0.60938 -1.10938,1.82813 0,1.07812 0.67188,1.625 0.65625,0.54687 2.125,0.89062 0.8125,0.1875 1.8125,0.375 1.01562,0.1875 1.6875,0.34375 2.04687,0.46875 3.15625,1.60938 1.10937,1.15625 1.10937,3.0625 z M 278.9375,200 H 276 v -1.9375 q -1.48438,1.17187 -2.84375,1.79687 -1.35938,0.625 -3,0.625 -2.75,0 -4.28125,-1.67187 -1.53125,-1.6875 -1.53125,-4.9375 v -11.32813 h 2.9375 v 9.9375 q 0,1.32813 0.125,2.28125 0.125,0.9375 0.53125,1.60938 0.42187,0.6875 1.09375,1 0.67187,0.3125 1.95312,0.3125 1.14063,0 2.48438,-0.59375 Q 274.82812,196.5 276,195.57812 v -13.03125 h 2.9375 z m 20.375,0 h -2.9375 v -9.9375 q 0,-1.20313 -0.14063,-2.25 -0.14062,-1.0625 -0.51562,-1.65625 -0.39063,-0.65625 -1.125,-0.96875 -0.73438,-0.32813 -1.90625,-0.32813 -1.20313,0 -2.51563,0.59375 -1.3125,0.59375 -2.51562,1.51563 V 200 h -2.9375 v -17.45313 h 2.9375 v 1.9375 q 1.375,-1.14062 2.84375,-1.78125 1.46875,-0.64062 3.01562,-0.64062 2.82813,0 4.3125,1.70312 1.48438,1.70313 1.48438,4.90625 z m 15.04687,-21.46875 h -0.15625 q -0.48437,-0.14063 -1.26562,-0.28125 -0.78125,-0.15625 -1.375,-0.15625 -1.89063,0 -2.75,0.84375 -0.84375,0.82812 -0.84375,3.01562 v 0.59375 h 5.29687 v 2.46875 H 308.0625 V 200 h -2.9375 v -14.98438 h -1.98438 v -2.46875 h 1.98438 v -0.57812 q 0,-3.10938 1.54687,-4.76563 1.54688,-1.67187 4.46875,-1.67187 0.98438,0 1.76563,0.0937 0.79687,0.0937 1.45312,0.21875 z m 16.73438,12.75 q 0,4.26562 -2.1875,6.73437 -2.1875,2.46875 -5.85938,2.46875 -3.70312,0 -5.89062,-2.46875 -2.17188,-2.46875 -2.17188,-6.73437 0,-4.26563 2.17188,-6.73438 2.1875,-2.48437 5.89062,-2.48437 3.67188,0 5.85938,2.48437 2.1875,2.46875 2.1875,6.73438 z m -3.03125,0 q 0,-3.39063 -1.32813,-5.03125 -1.32812,-1.65625 -3.6875,-1.65625 -2.39062,0 -3.71875,1.65625 -1.3125,1.64062 -1.3125,5.03125 0,3.28125 1.32813,4.98437 1.32812,1.6875 3.70312,1.6875 2.34375,0 3.67188,-1.67187 1.34375,-1.6875 1.34375,-5 z M 338.60937,200 h -2.9375 v -24.3125 h 2.9375 z m 19.96875,0 h -2.9375 v -1.82813 Q 354.375,199.26562 353,199.875 q -1.375,0.60937 -2.98438,0.60937 -3.125,0 -4.96875,-2.40625 -1.82812,-2.40625 -1.82812,-6.67187 0,-2.21875 0.625,-3.95313 0.64062,-1.73437 1.71875,-2.95312 1.0625,-1.1875 2.46875,-1.8125 1.42187,-0.625 2.9375,-0.625 1.375,0 2.4375,0.29687 1.0625,0.28125 2.23437,0.89063 v -7.5625 h 2.9375 z m -2.9375,-4.29688 V 185.6875 q -1.1875,-0.53125 -2.125,-0.73438 -0.9375,-0.20312 -2.04687,-0.20312 -2.46875,0 -3.84375,1.71875 -1.375,1.71875 -1.375,4.875 0,3.10937 1.0625,4.73437 1.0625,1.60938 3.40625,1.60938 1.25,0 2.53125,-0.54688 1.28125,-0.5625 2.39062,-1.4375 z m 14.8125,-0.15625 -4.40625,10.23438 h -2.28125 l 2.71875,-10.23438 z M 400.8125,200 h -2.92188 v -1.85938 q -0.39062,0.26563 -1.0625,0.75 -0.65625,0.46875 -1.28125,0.75 -0.73437,0.35938 -1.6875,0.59375 -0.95312,0.25 -2.23437,0.25 -2.35938,0 -4,-1.5625 -1.64063,-1.5625 -1.64063,-3.98437 0,-1.98438 0.84375,-3.20313 0.85938,-1.23437 2.4375,-1.9375 1.59375,-0.70312 3.82813,-0.95312 2.23437,-0.25 4.79687,-0.375 v -0.45313 q 0,-1 -0.35937,-1.65625 -0.34375,-0.65625 -1,-1.03125 -0.625,-0.35937 -1.5,-0.48437 -0.875,-0.125 -1.82813,-0.125 -1.15625,0 -2.57812,0.3125 -1.42188,0.29687 -2.9375,0.875 h -0.15625 v -2.98438 q 0.85937,-0.23437 2.48437,-0.51562 1.625,-0.28125 3.20313,-0.28125 1.84375,0 3.20312,0.3125 1.375,0.29687 2.375,1.03125 0.98438,0.71875 1.5,1.85937 0.51563,1.14063 0.51563,2.82813 z m -2.92188,-4.29688 v -4.85937 q -1.34375,0.0781 -3.17187,0.23437 -1.8125,0.15625 -2.875,0.45313 -1.26563,0.35937 -2.04688,1.125 -0.78125,0.75 -0.78125,2.07812 0,1.5 0.90625,2.26563 0.90625,0.75 2.76563,0.75 1.54687,0 2.82812,-0.59375 1.28125,-0.60938 2.375,-1.45313 z m 35.1875,-4.5625 q 0,2.1875 -0.625,3.9375 -0.60937,1.75 -1.65625,2.9375 -1.10937,1.23438 -2.4375,1.85938 -1.32812,0.60937 -2.92187,0.60937 -1.48438,0 -2.59375,-0.35937 -1.10938,-0.34375 -2.1875,-0.9375 L 420.46875,200 h -2.75 v -24.3125 h 2.9375 v 8.6875 q 1.23437,-1.01563 2.625,-1.65625 1.39062,-0.65625 3.125,-0.65625 3.09375,0 4.875,2.375 1.79687,2.375 1.79687,6.70312 z m -3.03125,0.0781 q 0,-3.125 -1.03125,-4.73438 -1.03125,-1.625 -3.32812,-1.625 -1.28125,0 -2.59375,0.5625 -1.3125,0.54688 -2.4375,1.42188 v 10 q 1.25,0.5625 2.14062,0.78125 0.90625,0.21875 2.04688,0.21875 2.4375,0 3.8125,-1.59375 1.39062,-1.60938 1.39062,-5.03125 z m 18.5,-5.46875 h -0.15625 q -0.65625,-0.15625 -1.28125,-0.21875 -0.60937,-0.0781 -1.45312,-0.0781 -1.35938,0 -2.625,0.60938 -1.26563,0.59375 -2.4375,1.54687 V 200 h -2.9375 v -17.45313 h 2.9375 v 2.57813 q 1.75,-1.40625 3.07812,-1.98438 1.34375,-0.59375 2.73438,-0.59375 0.76562,0 1.10937,0.0469 0.34375,0.0312 1.03125,0.14062 z m 5.92188,-6.125 h -3.3125 v -3.04688 h 3.3125 z M 454.28125,200 h -2.9375 v -17.45313 h 2.9375 z M 474.25,198.01562 q 0,4.4375 -2.01563,6.51563 -2.01562,2.07812 -6.20312,2.07812 -1.39063,0 -2.71875,-0.20312 -1.3125,-0.1875 -2.59375,-0.54688 v -3 h 0.15625 q 0.71875,0.28125 2.28125,0.6875 1.5625,0.42188 3.125,0.42188 1.5,0 2.48437,-0.35938 0.98438,-0.35937 1.53125,-1 0.54688,-0.60937 0.78125,-1.46875 0.23438,-0.85937 0.23438,-1.92187 V 197.625 q -1.32813,1.0625 -2.54688,1.59375 -1.20312,0.51562 -3.07812,0.51562 -3.125,0 -4.96875,-2.25 -1.82813,-2.26562 -1.82813,-6.375 0,-2.25 0.625,-3.875 0.64063,-1.64062 1.73438,-2.82812 1.01562,-1.10938 2.46875,-1.71875 1.45312,-0.625 2.89062,-0.625 1.51563,0 2.53125,0.3125 1.03125,0.29687 2.17188,0.92187 l 0.1875,-0.75 h 2.75 z m -2.9375,-2.8125 v -9.51562 q -1.17188,-0.53125 -2.1875,-0.75 -1,-0.23438 -2,-0.23438 -2.42188,0 -3.8125,1.625 -1.39063,1.625 -1.39063,4.71875 0,2.9375 1.03125,4.45313 1.03125,1.51562 3.42188,1.51562 1.28125,0 2.5625,-0.48437 1.29687,-0.5 2.375,-1.32813 z M 494.625,200 h -2.9375 v -9.9375 q 0,-1.20313 -0.14063,-2.25 -0.14062,-1.0625 -0.51562,-1.65625 -0.39063,-0.65625 -1.125,-0.96875 -0.73438,-0.32813 -1.90625,-0.32813 -1.20313,0 -2.51563,0.59375 -1.3125,0.59375 -2.51562,1.51563 V 200 h -2.9375 v -24.3125 h 2.9375 v 8.79687 q 1.375,-1.14062 2.84375,-1.78125 1.46875,-0.64062 3.01562,-0.64062 2.82813,0 4.3125,1.70312 1.48438,1.70313 1.48438,4.90625 z m 14.71875,-0.15625 q -0.82813,0.21875 -1.8125,0.35937 -0.96875,0.14063 -1.73438,0.14063 -2.67187,0 -4.0625,-1.4375 -1.39062,-1.4375 -1.39062,-4.60938 v -9.28125 h -1.98438 v -2.46875 h 1.98438 v -5.01562 h 2.9375 v 5.01562 h 6.0625 v 2.46875 h -6.0625 v 7.95313 q 0,1.375 0.0625,2.15625 0.0625,0.76562 0.4375,1.4375 0.34375,0.625 0.9375,0.92187 0.60937,0.28125 1.84375,0.28125 0.71875,0 1.5,-0.20312 0.78125,-0.21875 1.125,-0.35938 h 0.15625 z M 538.29687,200 h -2.9375 v -1.82813 q -1.26562,1.09375 -2.64062,1.70313 -1.375,0.60937 -2.98438,0.60937 -3.125,0 -4.96875,-2.40625 -1.82812,-2.40625 -1.82812,-6.67187 0,-2.21875 0.625,-3.95313 0.64062,-1.73437 1.71875,-2.95312 1.0625,-1.1875 2.46875,-1.8125 1.42187,-0.625 2.9375,-0.625 1.375,0 2.4375,0.29687 1.0625,0.28125 2.23437,0.89063 v -7.5625 h 2.9375 z m -2.9375,-4.29688 V 185.6875 q -1.1875,-0.53125 -2.125,-0.73438 -0.9375,-0.20312 -2.04687,-0.20312 -2.46875,0 -3.84375,1.71875 -1.375,1.71875 -1.375,4.875 0,3.10937 1.0625,4.73437 1.0625,1.60938 3.40625,1.60938 1.25,0 2.53125,-0.54688 1.28125,-0.5625 2.39062,-1.4375 z m 23.32813,-4.125 h -12.85938 q 0,1.60938 0.48438,2.8125 0.48437,1.1875 1.32812,1.95313 0.8125,0.75 1.92188,1.125 1.125,0.375 2.46875,0.375 1.78125,0 3.57812,-0.70313 1.8125,-0.71875 2.57813,-1.40625 h 0.15625 v 3.20313 q -1.48438,0.625 -3.03125,1.04687 -1.54688,0.42188 -3.25,0.42188 -4.34375,0 -6.78125,-2.34375 -2.4375,-2.35938 -2.4375,-6.6875 0,-4.28125 2.32812,-6.79688 2.34375,-2.51562 6.15625,-2.51562 3.53125,0 5.4375,2.0625 1.92188,2.0625 1.92188,5.85937 z m -2.85938,-2.25 q -0.0156,-2.3125 -1.17187,-3.57812 -1.14063,-1.26563 -3.48438,-1.26563 -2.35937,0 -3.76562,1.39063 -1.39063,1.39062 -1.57813,3.45312 z m 19.78125,5.64063 q 0,2.39062 -1.98437,3.92187 -1.96875,1.53125 -5.39063,1.53125 -1.9375,0 -3.5625,-0.45312 -1.60937,-0.46875 -2.70312,-1.01563 v -3.29687 h 0.15625 q 1.39062,1.04687 3.09375,1.67187 1.70312,0.60938 3.26562,0.60938 1.9375,0 3.03125,-0.625 1.09375,-0.625 1.09375,-1.96875 0,-1.03125 -0.59375,-1.5625 -0.59375,-0.53125 -2.28125,-0.90625 -0.625,-0.14063 -1.64062,-0.32813 -1,-0.1875 -1.82813,-0.40625 -2.29687,-0.60937 -3.26562,-1.78125 -0.95313,-1.1875 -0.95313,-2.90625 0,-1.07812 0.4375,-2.03125 0.45313,-0.95312 1.35938,-1.70312 0.875,-0.73438 2.21875,-1.15625 1.35937,-0.4375 3.03125,-0.4375 1.5625,0 3.15625,0.39062 1.60937,0.375 2.67187,0.92188 v 3.14062 h -0.15625 q -1.125,-0.82812 -2.73437,-1.39062 -1.60938,-0.57813 -3.15625,-0.57813 -1.60938,0 -2.71875,0.625 -1.10938,0.60938 -1.10938,1.82813 0,1.07812 0.67188,1.625 0.65625,0.54687 2.125,0.89062 0.8125,0.1875 1.8125,0.375 1.01562,0.1875 1.6875,0.34375 2.04687,0.46875 3.15625,1.60938 1.10937,1.15625 1.10937,3.0625 z m 7.35938,-15.34375 h -3.3125 v -3.04688 h 3.3125 z M 582.78125,200 h -2.9375 v -17.45313 h 2.9375 z M 602.75,198.01562 q 0,4.4375 -2.01563,6.51563 -2.01562,2.07812 -6.20312,2.07812 -1.39063,0 -2.71875,-0.20312 -1.3125,-0.1875 -2.59375,-0.54688 v -3 h 0.15625 q 0.71875,0.28125 2.28125,0.6875 1.5625,0.42188 3.125,0.42188 1.5,0 2.48437,-0.35938 0.98438,-0.35937 1.53125,-1 0.54688,-0.60937 0.78125,-1.46875 0.23438,-0.85937 0.23438,-1.92187 V 197.625 q -1.32813,1.0625 -2.54688,1.59375 -1.20312,0.51562 -3.07812,0.51562 -3.125,0 -4.96875,-2.25 -1.82813,-2.26562 -1.82813,-6.375 0,-2.25 0.625,-3.875 0.64063,-1.64062 1.73438,-2.82812 1.01562,-1.10938 2.46875,-1.71875 1.45312,-0.625 2.89062,-0.625 1.51563,0 2.53125,0.3125 1.03125,0.29687 2.17188,0.92187 l 0.1875,-0.75 h 2.75 z m -2.9375,-2.8125 v -9.51562 q -1.17188,-0.53125 -2.1875,-0.75 -1,-0.23438 -2,-0.23438 -2.42188,0 -3.8125,1.625 -1.39063,1.625 -1.39063,4.71875 0,2.9375 1.03125,4.45313 1.03125,1.51562 3.42188,1.51562 1.28125,0 2.5625,-0.48437 1.29687,-0.5 2.375,-1.32813 z M 623.125,200 h -2.9375 v -9.9375 q 0,-1.20313 -0.14063,-2.25 -0.14062,-1.0625 -0.51562,-1.65625 -0.39063,-0.65625 -1.125,-0.96875 -0.73438,-0.32813 -1.90625,-0.32813 -1.20313,0 -2.51563,0.59375 -1.3125,0.59375 -2.51562,1.51563 V 200 h -2.9375 v -17.45313 h 2.9375 v 1.9375 q 1.375,-1.14062 2.84375,-1.78125 1.46875,-0.64062 3.01562,-0.64062 2.82813,0 4.3125,1.70312 1.48438,1.70313 1.48438,4.90625 z m 11.75,-4.45313 -4.40625,10.23438 h -2.28125 l 2.71875,-10.23438 z"
         id="path6" />
      <path
         d="m 71.46875,250 h -3.296875 l -2.28125,-6.48438 h -10.0625 L 53.546875,250 H 50.40625 L 58.875,226.73437 H 63 Z m -6.53125,-9.14063 -4.078125,-11.42187 -4.09375,11.42187 z M 95.40625,228.53125 H 95.25 q -0.484375,-0.14063 -1.265625,-0.28125 -0.78125,-0.15625 -1.375,-0.15625 -1.890625,0 -2.75,0.84375 -0.84375,0.82812 -0.84375,3.01562 v 0.59375 H 94.3125 v 2.46875 H 89.109375 V 250 h -2.9375 V 235.01562 H 84.1875 v -2.46875 h 1.984375 v -0.57812 q 0,-3.10938 1.546875,-4.76563 1.546875,-1.67187 4.46875,-1.67187 0.984375,0 1.765625,0.0937 0.796875,0.0937 1.453125,0.21875 z M 111.73438,250 h -2.9375 v -1.9375 q -1.48438,1.17187 -2.84375,1.79687 -1.35938,0.625 -3,0.625 -2.75,0 -4.281255,-1.67187 -1.53125,-1.6875 -1.53125,-4.9375 v -11.32813 h 2.937505 v 9.9375 q 0,1.32813 0.125,2.28125 0.125,0.9375 0.53125,1.60938 0.42187,0.6875 1.09375,1 0.67187,0.3125 1.95312,0.3125 1.14063,0 2.48438,-0.59375 1.35937,-0.59375 2.53125,-1.51563 v -13.03125 h 2.9375 z m 14.84375,-0.15625 q -0.82813,0.21875 -1.8125,0.35937 -0.96875,0.14063 -1.73438,0.14063 -2.67187,0 -4.0625,-1.4375 -1.39062,-1.4375 -1.39062,-4.60938 v -9.28125 h -1.98438 v -2.46875 h 1.98438 v -5.01562 h 2.9375 v 5.01562 h 6.0625 v 2.46875 h -6.0625 v 7.95313 q 0,1.375 0.0625,2.15625 0.0625,0.76562 0.4375,1.4375 0.34375,0.625 0.9375,0.92187 0.60937,0.28125 1.84375,0.28125 0.71875,0 1.5,-0.20312 0.78125,-0.21875 1.125,-0.35938 h 0.15625 z M 144.59375,250 h -2.9375 v -1.9375 q -1.48438,1.17187 -2.84375,1.79687 -1.35938,0.625 -3,0.625 -2.75,0 -4.28125,-1.67187 Q 130,247.125 130,243.875 v -11.32813 h 2.9375 v 9.9375 q 0,1.32813 0.125,2.28125 0.125,0.9375 0.53125,1.60938 0.42187,0.6875 1.09375,1 0.67187,0.3125 1.95312,0.3125 1.14063,0 2.48438,-0.59375 1.35937,-0.59375 2.53125,-1.51563 v -13.03125 h 2.9375 z m 16.67187,-14.25 h -0.15625 q -0.65625,-0.15625 -1.28125,-0.21875 -0.60937,-0.0781 -1.45312,-0.0781 -1.35938,0 -2.625,0.60938 -1.26563,0.59375 -2.4375,1.54687 V 250 h -2.9375 v -17.45313 h 2.9375 v 2.57813 q 1.75,-1.40625 3.07812,-1.98438 1.34375,-0.59375 2.73438,-0.59375 0.76562,0 1.10937,0.0469 0.34375,0.0312 1.03125,0.14062 z m 17.375,5.82812 h -12.85937 q 0,1.60938 0.48437,2.8125 0.48438,1.1875 1.32813,1.95313 0.8125,0.75 1.92187,1.125 1.125,0.375 2.46875,0.375 1.78125,0 3.57813,-0.70313 1.8125,-0.71875 2.57812,-1.40625 h 0.15625 v 3.20313 q -1.48437,0.625 -3.03125,1.04687 -1.54687,0.42188 -3.25,0.42188 -4.34375,0 -6.78125,-2.34375 -2.4375,-2.35938 -2.4375,-6.6875 0,-4.28125 2.32813,-6.79688 2.34375,-2.51562 6.15625,-2.51562 3.53125,0 5.4375,2.0625 1.92187,2.0625 1.92187,5.85937 z m -2.85937,-2.25 q -0.0156,-2.3125 -1.17188,-3.57812 -1.14062,-1.26563 -3.48437,-1.26563 -2.35938,0 -3.76563,1.39063 -1.39062,1.39062 -1.57812,3.45312 z m 33.92187,1.8125 q 0,2.1875 -0.625,3.9375 -0.60937,1.75 -1.65625,2.9375 -1.10937,1.23438 -2.4375,1.85938 -1.32812,0.60937 -2.92187,0.60937 -1.48438,0 -2.59375,-0.35937 -1.10938,-0.34375 -2.1875,-0.9375 L 197.09375,250 h -2.75 v -24.3125 h 2.9375 v 8.6875 q 1.23437,-1.01563 2.625,-1.65625 1.39062,-0.65625 3.125,-0.65625 3.09375,0 4.875,2.375 1.79687,2.375 1.79687,6.70312 z m -3.03125,0.0781 q 0,-3.125 -1.03125,-4.73438 -1.03125,-1.625 -3.32812,-1.625 -1.28125,0 -2.59375,0.5625 -1.3125,0.54688 -2.4375,1.42188 v 10 q 1.25,0.5625 2.14062,0.78125 0.90625,0.21875 2.04688,0.21875 2.4375,0 3.8125,-1.59375 1.39062,-1.60938 1.39062,-5.03125 z M 228.75,250 h -2.9375 v -1.9375 q -1.48438,1.17187 -2.84375,1.79687 -1.35938,0.625 -3,0.625 -2.75,0 -4.28125,-1.67187 -1.53125,-1.6875 -1.53125,-4.9375 v -11.32813 h 2.9375 v 9.9375 q 0,1.32813 0.125,2.28125 0.125,0.9375 0.53125,1.60938 0.42187,0.6875 1.09375,1 0.67187,0.3125 1.95312,0.3125 1.14063,0 2.48438,-0.59375 1.35937,-0.59375 2.53125,-1.51563 v -13.03125 h 2.9375 z m 8.9375,-20.375 h -3.3125 v -3.04688 h 3.3125 z M 237.5,250 h -2.9375 V 232.54687 H 237.5 Z m 8.78125,0 h -2.9375 v -24.3125 h 2.9375 z m 14.875,-0.15625 q -0.82813,0.21875 -1.8125,0.35937 -0.96875,0.14063 -1.73438,0.14063 -2.67187,0 -4.0625,-1.4375 -1.39062,-1.4375 -1.39062,-4.60938 v -9.28125 h -1.98438 v -2.46875 h 1.98438 v -5.01562 h 2.9375 v 5.01562 h 6.0625 v 2.46875 h -6.0625 v 7.95313 q 0,1.375 0.0625,2.15625 0.0625,0.76562 0.4375,1.4375 0.34375,0.625 0.9375,0.92187 0.60937,0.28125 1.84375,0.28125 0.71875,0 1.5,-0.20312 0.78125,-0.21875 1.125,-0.35938 h 0.15625 z m 9.64062,-4.29688 -4.40625,10.23438 h -2.28125 l 2.71875,-10.23438 z M 302.0625,250 h -2.9375 v -1.9375 q -1.48438,1.17187 -2.84375,1.79687 -1.35938,0.625 -3,0.625 -2.75,0 -4.28125,-1.67187 -1.53125,-1.6875 -1.53125,-4.9375 v -11.32813 h 2.9375 v 9.9375 q 0,1.32813 0.125,2.28125 0.125,0.9375 0.53125,1.60938 0.42187,0.6875 1.09375,1 0.67187,0.3125 1.95312,0.3125 1.14063,0 2.48438,-0.59375 1.35937,-0.59375 2.53125,-1.51563 v -13.03125 h 2.9375 z m 20.375,0 H 319.5 v -9.9375 q 0,-1.20313 -0.14063,-2.25 -0.14062,-1.0625 -0.51562,-1.65625 -0.39063,-0.65625 -1.125,-0.96875 -0.73438,-0.32813 -1.90625,-0.32813 -1.20313,0 -2.51563,0.59375 -1.3125,0.59375 -2.51562,1.51563 V 250 h -2.9375 v -17.45313 h 2.9375 v 1.9375 q 1.375,-1.14062 2.84375,-1.78125 1.46875,-0.64062 3.01562,-0.64062 2.82813,0 4.3125,1.70312 1.48438,1.70313 1.48438,4.90625 z m 8.8125,-20.375 h -3.3125 v -3.04688 H 331.25 Z M 331.0625,250 h -2.9375 v -17.45313 h 2.9375 z m 19.96875,6.4375 h -2.9375 v -8.40625 q -1.35938,1.17187 -2.70313,1.75 -1.34375,0.5625 -2.90625,0.5625 -3.10937,0 -4.96875,-2.39063 -1.84375,-2.40625 -1.84375,-6.625 0,-2.25 0.64063,-3.96875 0.65625,-1.73437 1.71875,-2.90625 1.03125,-1.14062 2.42187,-1.76562 1.39063,-0.625 2.9375,-0.625 1.40625,0 2.48438,0.3125 1.09375,0.3125 2.21875,0.92187 l 0.1875,-0.75 h 2.75 z m -2.9375,-10.875 v -9.875 q -1.21875,-0.54688 -2.15625,-0.76563 -0.9375,-0.21875 -2.03125,-0.21875 -2.54688,0 -3.875,1.73438 -1.32813,1.71875 -1.32813,4.75 0,3.0625 1.0625,4.71875 1.07813,1.64062 3.375,1.64062 1.28125,0 2.5625,-0.54687 1.28125,-0.5625 2.39063,-1.4375 z M 371.28125,250 h -2.9375 v -1.9375 q -1.48438,1.17187 -2.84375,1.79687 -1.35938,0.625 -3,0.625 -2.75,0 -4.28125,-1.67187 -1.53125,-1.6875 -1.53125,-4.9375 v -11.32813 h 2.9375 v 9.9375 q 0,1.32813 0.125,2.28125 0.125,0.9375 0.53125,1.60938 0.42187,0.6875 1.09375,1 0.67187,0.3125 1.95312,0.3125 1.14063,0 2.48438,-0.59375 1.35937,-0.59375 2.53125,-1.51563 v -13.03125 h 2.9375 z m 20.39062,-8.42188 H 378.8125 q 0,1.60938 0.48437,2.8125 0.48438,1.1875 1.32813,1.95313 0.8125,0.75 1.92187,1.125 1.125,0.375 2.46875,0.375 1.78125,0 3.57813,-0.70313 1.8125,-0.71875 2.57812,-1.40625 h 0.15625 v 3.20313 q -1.48437,0.625 -3.03125,1.04687 -1.54687,0.42188 -3.25,0.42188 -4.34375,0 -6.78125,-2.34375 -2.4375,-2.35938 -2.4375,-6.6875 0,-4.28125 2.32813,-6.79688 2.34375,-2.51562 6.15625,-2.51562 3.53125,0 5.4375,2.0625 1.92187,2.0625 1.92187,5.85937 z m -2.85937,-2.25 q -0.0156,-2.3125 -1.17188,-3.57812 -1.14062,-1.26563 -3.48437,-1.26563 -2.35938,0 -3.76563,1.39063 -1.39062,1.39062 -1.57812,3.45312 z M 399.09375,250 h -2.9375 v -24.3125 h 2.9375 z M 420,232.54687 409.8125,256.4375 h -3.14063 l 3.25,-7.28125 -6.95312,-16.60938 h 3.1875 l 5.35937,12.9375 5.40625,-12.9375 z m 24.15625,17.29688 q -0.82813,0.21875 -1.8125,0.35937 -0.96875,0.14063 -1.73438,0.14063 -2.67187,0 -4.0625,-1.4375 -1.39062,-1.4375 -1.39062,-4.60938 v -9.28125 h -1.98438 v -2.46875 h 1.98438 v -5.01562 h 2.9375 v 5.01562 h 6.0625 v 2.46875 h -6.0625 v 7.95313 q 0,1.375 0.0625,2.15625 0.0625,0.76562 0.4375,1.4375 0.34375,0.625 0.9375,0.92187 0.60937,0.28125 1.84375,0.28125 0.71875,0 1.5,-0.20312 0.78125,-0.21875 1.125,-0.35938 h 0.15625 z M 462.29687,250 h -2.9375 v -9.9375 q 0,-1.20313 -0.14062,-2.25 -0.14063,-1.0625 -0.51563,-1.65625 -0.39062,-0.65625 -1.125,-0.96875 -0.73437,-0.32813 -1.90625,-0.32813 -1.20312,0 -2.51562,0.59375 -1.3125,0.59375 -2.51563,1.51563 V 250 h -2.9375 v -24.3125 h 2.9375 v 8.79687 q 1.375,-1.14062 2.84375,-1.78125 1.46875,-0.64062 3.01563,-0.64062 2.82812,0 4.3125,1.70312 1.48437,1.70313 1.48437,4.90625 z m 8.8125,-20.375 h -3.3125 v -3.04688 h 3.3125 z M 470.92187,250 h -2.9375 v -17.45313 h 2.9375 z m 20.40625,0 h -2.9375 v -9.9375 q 0,-1.20313 -0.14062,-2.25 -0.14063,-1.0625 -0.51563,-1.65625 -0.39062,-0.65625 -1.125,-0.96875 -0.73437,-0.32813 -1.90625,-0.32813 -1.20312,0 -2.51562,0.59375 -1.3125,0.59375 -2.51563,1.51563 V 250 h -2.9375 v -17.45313 h 2.9375 v 1.9375 q 1.375,-1.14062 2.84375,-1.78125 1.46875,-0.64062 3.01563,-0.64062 2.82812,0 4.3125,1.70312 1.48437,1.70313 1.48437,4.90625 z m 20.26563,-8.42188 h -12.85938 q 0,1.60938 0.48438,2.8125 0.48437,1.1875 1.32812,1.95313 0.8125,0.75 1.92188,1.125 1.125,0.375 2.46875,0.375 1.78125,0 3.57812,-0.70313 1.8125,-0.71875 2.57813,-1.40625 H 511.25 v 3.20313 q -1.48438,0.625 -3.03125,1.04687 -1.54688,0.42188 -3.25,0.42188 -4.34375,0 -6.78125,-2.34375 -2.4375,-2.35938 -2.4375,-6.6875 0,-4.28125 2.32812,-6.79688 2.34375,-2.51562 6.15625,-2.51562 3.53125,0 5.4375,2.0625 1.92188,2.0625 1.92188,5.85937 z m -2.85938,-2.25 q -0.0156,-2.3125 -1.17187,-3.57812 -1.14063,-1.26563 -3.48438,-1.26563 -2.35937,0 -3.76562,1.39063 -1.39063,1.39062 -1.57813,3.45312 z M 520.84375,250 h -3.73438 v -4.45313 h 3.73438 z"
         id="path7" />
    </g>
  </g>
</svg>
