<?xml version="1.0" encoding="UTF-8" standalone="no"?>
<svg
   width="800"
   height="600"
   version="1.1"
   id="svg4"
   sodipodi:docname="archana_nature.svg"
   xmlns:inkscape="http://www.inkscape.org/namespaces/inkscape"
   xmlns:sodipodi="http://sodipodi.sourceforge.net/DTD/sodipodi-0.dtd"
   xmlns="http://www.w3.org/2000/svg"
   xmlns:svg="http://www.w3.org/2000/svg">
  <sodipodi:namedview
     id="namedview4"
     pagecolor="#ffffff"
     bordercolor="#666666"
     borderopacity="1.0"
     inkscape:showpageshadow="2"
     inkscape:pageopacity="0.0"
     inkscape:pagecheckerboard="0"
     inkscape:deskcolor="#d1d1d1" />
  <defs
     id="defs1">
    <style
       type="text/css"
       id="style1">
      @font-face {{
        font-family: 'Kalam';
        src: url('AxiDraw_API(1)/Kalam-Regular.ttf');
      }}
    </style>
  </defs>
  <g
     id="g4">
    <g
       id="text4"
       style="font-size:32px;font-family:Kalam"
       aria-label="अर्चना निसर्गाची, मन मोहक रंगी,फुलांची माळ, पक्ष्यांचे गीतांनी संगी.हिरवीगार जमीन, आकाश निळे,सौंदर्य अनोखे, भेटते मनाला शांती येते.">
      <path
         d="m 53.640625,86.1875 q 0.234375,0.734375 0.546875,1.609375 0.3125,0.859375 0.734375,1.75 0.4375,0.875 0.96875,1.703125 0.546875,0.828125 1.234375,1.46875 0.703125,0.640625 1.546875,1.03125 0.84375,0.375 1.875,0.375 1.015625,0 1.71875,-0.296875 0.703125,-0.296875 1.140625,-0.796875 0.4375,-0.5 0.625,-1.171875 0.203125,-0.671875 0.203125,-1.40625 0,-1.609375 -1.171875,-2.515625 -1.15625,-0.90625 -3.359375,-0.90625 -0.265625,0 -0.53125,0.01563 -0.265625,0.01563 -0.53125,0.04687 v -2.375 q 0.125,0.01563 0.21875,0.01563 0.109375,0 0.125,0 1.09375,0 1.9375,-0.265625 0.859375,-0.28125 1.4375,-0.75 Q 62.9375,83.25 63.234375,82.625 63.53125,82 63.53125,81.3125 q 0,-0.625 -0.21875,-1.109375 -0.21875,-0.484375 -0.59375,-0.8125 -0.375,-0.328125 -0.890625,-0.484375 -0.515625,-0.171875 -1.125,-0.171875 -0.421875,0 -0.8125,0.0625 Q 59.5,78.84375 59.0625,78.96875 q -0.4375,0.109375 -0.9375,0.296875 -0.484375,0.1875 -1.109375,0.46875 L 56.125,77.59375 Q 57.34375,77 58.46875,76.703125 q 1.125,-0.3125 2.296875,-0.3125 1.125,0 2.078125,0.359375 0.96875,0.359375 1.65625,1 0.703125,0.625 1.09375,1.5 0.390625,0.875 0.390625,1.890625 0,2.796875 -2.671875,4.5 v 0.0625 q 1.046875,0.4375 1.75,1.078125 0.453125,0.07813 0.953125,0.125 0.515625,0.04687 0.9375,0.04687 0.4375,0 0.921875,-0.0625 0.484375,-0.0625 0.984375,-0.234375 0.515625,-0.171875 1.03125,-0.484375 0.53125,-0.3125 1.0625,-0.8125 v -8.65625 h 5.84375 V 79 h -3.28125 v 21 h -2.5625 V 88.125 l -0.0625,-0.01563 Q 70,88.703125 69.21875,88.890625 q -0.78125,0.1875 -1.609375,0.1875 -0.265625,0 -0.546875,-0.01563 Q 66.78125,89.03125 66.484375,89 l -0.01563,0.0625 q 0.25,0.640625 0.25,1.578125 0,1.265625 -0.421875,2.34375 -0.421875,1.078125 -1.21875,1.875 -0.78125,0.78125 -1.90625,1.21875 -1.109375,0.4375 -2.5,0.4375 -1.484375,0 -2.6875,-0.515625 -1.1875,-0.53125 -2.15625,-1.359375 Q 54.875,93.8125 54.15625,92.78125 53.4375,91.734375 52.921875,90.6875 52.40625,89.640625 52.078125,88.703125 51.75,87.75 51.59375,87.125 Z M 98.4375,79 h -3.28125 v 21 H 92.5625 V 93.421875 L 92.5,93.375 Q 91.640625,94.15625 90.8125,94.609375 90,95.046875 89.28125,95.28125 88.578125,95.5 88,95.5625 q -0.578125,0.0625 -0.953125,0.0625 -1.4375,0 -2.546875,-0.453125 -1.109375,-0.453125 -1.859375,-1.1875 -0.75,-0.75 -1.140625,-1.703125 -0.390625,-0.96875 -0.390625,-2 0,-1.078125 0.4375,-2.140625 0.453125,-1.0625 1.40625,-1.90625 l -0.01563,-0.0625 H 77.984375 V 83.875 h 12.5625 v 2.296875 H 88.9375 q -1.609375,0 -2.640625,0.421875 -1.03125,0.421875 -1.625,1.03125 -0.59375,0.609375 -0.828125,1.3125 -0.21875,0.6875 -0.21875,1.25 0,0.46875 0.15625,1.015625 0.15625,0.53125 0.515625,0.984375 0.375,0.453125 0.984375,0.75 0.625,0.296875 1.5625,0.296875 0.984375,0 1.828125,-0.3125 Q 89.53125,92.59375 90.25,92.078125 90.96875,91.5625 91.546875,90.921875 92.140625,90.265625 92.5625,89.625 V 79 H 75.703125 V 76.703125 H 98.4375 Z m -0.421875,-9.125 q -0.6875,-0.78125 -1.28125,-1.140625 Q 96.140625,68.375 95.34375,68.375 q -1.21875,0 -1.953125,0.84375 -0.734375,0.828125 -0.734375,2.34375 0,0.625 0.140625,1.3125 0.140625,0.671875 0.40625,1.359375 0.265625,0.6875 0.65625,1.359375 Q 94.25,76.265625 94.75,76.875 H 92.15625 Q 91.21875,75.546875 90.75,74.15625 90.28125,72.75 90.28125,71.421875 q 0,-1.28125 0.421875,-2.296875 0.40625,-1.015625 1.09375,-1.703125 0.6875,-0.6875 1.609375,-1.046875 Q 94.3125,66 95.328125,66 96.6875,66 97.75,66.546875 q 1.078125,0.53125 2.015625,1.71875 z M 117.875,79 h -3.28125 v 21 h -2.57812 V 87.953125 h -7.3125 q 0,1.03125 -0.0312,1.765625 -0.0156,0.734375 -0.125,1.21875 -0.10938,0.46875 -0.32813,0.6875 -0.21875,0.21875 -0.60937,0.21875 -0.8125,0 -1.54688,-0.53125 -0.71875,-0.53125 -1.28125,-1.28125 -0.54687,-0.75 -0.875,-1.5625 -0.328125,-0.8125 -0.328125,-1.375 0,-0.5 0.21875,-0.78125 0.218755,-0.28125 0.578125,-0.421875 0.35938,-0.140625 0.8125,-0.171875 0.46875,-0.03125 0.9375,-0.03125 h 9.89063 V 79 H 97.34375 V 76.703125 H 117.875 Z m 8.3125,0 h -3.28125 v 21 h -2.5625 V 79 h -3.5625 v -2.296875 h 9.40625 z m 17.07812,0 h -3.28125 v 21 h -2.5625 V 79 h -3.5625 v -2.296875 h 3.5625 q -0.85937,-2.0625 -0.85937,-3.84375 0,-1.140625 0.375,-2.125 0.375,-0.984375 1.14062,-1.703125 0.78125,-0.71875 1.98438,-1.125 1.20312,-0.40625 2.85937,-0.40625 2.17188,0 4.17188,0.703125 2.01562,0.703125 3.9375,1.953125 1.92187,1.25 3.79687,2.96875 1.89063,1.71875 3.8125,3.75 h -2.71875 q -0.4375,-0.421875 -1.17187,-1.09375 -0.71875,-0.6875 -1.67188,-1.453125 -0.95312,-0.78125 -2.10937,-1.5625 -1.15625,-0.796875 -2.4375,-1.4375 -1.28125,-0.640625 -2.67188,-1.03125 -1.375,-0.40625 -2.78125,-0.40625 -1.14062,0 -1.92187,0.265625 -0.76563,0.265625 -1.25,0.734375 -0.46875,0.46875 -0.67188,1.109375 -0.20312,0.625 -0.20312,1.34375 0,1.40625 0.76562,3.359375 h 3.46875 z m 19.4375,0 h -3.28125 v 21 h -2.57812 V 87.953125 h -7.3125 q 0,1.03125 -0.0312,1.765625 -0.0156,0.734375 -0.125,1.21875 -0.10938,0.46875 -0.32813,0.6875 -0.21875,0.21875 -0.60937,0.21875 -0.8125,0 -1.54688,-0.53125 -0.71875,-0.53125 -1.28125,-1.28125 -0.54687,-0.75 -0.875,-1.5625 -0.32812,-0.8125 -0.32812,-1.375 0,-0.5 0.21875,-0.78125 0.21875,-0.28125 0.57812,-0.421875 0.35938,-0.140625 0.8125,-0.171875 0.46875,-0.03125 0.9375,-0.03125 h 9.89063 V 79 h -14.67188 v -2.296875 h 20.53125 z M 185.75,76.703125 V 79 h -3.28125 v 21 H 179.875 V 89.5 h -9.04688 Q 170,90.046875 168.84375,90.15625 l -0.0312,0.07813 q 1.51562,2.375 3.32812,4.421875 1.8125,2.046875 4.125,3.796875 l -1.67187,1.921875 q -1.32813,-0.984375 -2.53125,-2.125 -1.1875,-1.140625 -2.25,-2.359375 -1.04688,-1.234375 -1.96875,-2.484375 -0.92188,-1.265625 -1.6875,-2.484375 -0.76563,-1.21875 -1.375,-2.34375 -0.60938,-1.140625 -1.0625,-2.109375 l 2.14062,-1.15625 q 0.29688,0.6875 0.57813,1.15625 0.29687,0.453125 0.59375,0.734375 0.29687,0.265625 0.625,0.390625 0.32812,0.109375 0.70312,0.109375 1.07813,0 1.57813,-0.84375 0.51562,-0.84375 0.51562,-2.21875 0,-0.8125 -0.15625,-1.59375 Q 170.14062,82.25 169.89062,81.53125 169.65625,80.796875 169.375,80.15625 169.09375,79.515625 168.84375,79 h -7.23438 V 76.703125 Z M 179.875,79 h -8.32813 q 0.65625,1.421875 1.03125,2.859375 0.375,1.4375 0.375,2.859375 0,0.65625 -0.10937,1.296875 -0.0937,0.625 -0.32813,1.1875 l 0.0312,0.03125 h 7.32813 z m 25.82812,0 h -3.28125 v 21 h -2.5625 V 79 h -7.04687 v 12.125 q 0,0.25 -0.0312,0.578125 -0.0312,0.328125 -0.15625,0.640625 -0.10938,0.296875 -0.32813,0.515625 -0.21875,0.203125 -0.60937,0.203125 -0.42188,0 -0.9375,-0.265625 -0.5,-0.28125 -1.03125,-0.71875 Q 189.1875,91.625 188.6875,91.0625 188.20312,90.5 187.8125,89.90625 187.42187,89.3125 187.1875,88.75 q -0.23438,-0.5625 -0.23438,-1 0,-0.390625 0.1875,-0.625 0.20313,-0.234375 0.54688,-0.359375 0.35937,-0.125 0.85937,-0.15625 0.51563,-0.03125 1.125,-0.03125 h 0.54688 V 79 h -5.5625 v -2.296875 h 21.04687 z m 8.3125,0 h -3.28125 v 21 h -2.5625 V 79 h -3.5625 v -2.296875 h 9.40625 z m -0.73437,-9.125 Q 212.59375,69.09375 212,68.734375 211.40625,68.375 210.60937,68.375 q -1.21875,0 -1.95312,0.84375 -0.73438,0.828125 -0.73438,2.34375 0,0.625 0.14063,1.3125 0.14062,0.671875 0.40625,1.359375 0.26562,0.6875 0.65625,1.359375 0.39062,0.671875 0.89062,1.28125 h -2.59375 q -0.9375,-1.328125 -1.40625,-2.71875 -0.46875,-1.40625 -0.46875,-2.734375 0,-1.28125 0.42188,-2.296875 0.40625,-1.015625 1.09375,-1.703125 0.6875,-0.6875 1.60937,-1.046875 0.90625,-0.375 1.92188,-0.375 1.35937,0 2.42187,0.546875 1.07813,0.53125 2.01563,1.71875 z M 235.65625,79 H 232.375 v 21 h -2.59375 v -6.578125 l -0.0625,-0.04687 q -0.85938,0.78125 -1.6875,1.234375 -0.8125,0.4375 -1.53125,0.671875 -0.70313,0.21875 -1.28125,0.28125 -0.57813,0.0625 -0.95313,0.0625 -1.4375,0 -2.54687,-0.453125 -1.10938,-0.453125 -1.85938,-1.1875 -0.75,-0.75 -1.14062,-1.703125 -0.39063,-0.96875 -0.39063,-2 0,-1.078125 0.4375,-2.140625 0.45313,-1.0625 1.40625,-1.90625 l -0.0156,-0.0625 h -4.95313 V 83.875 h 12.5625 v 2.296875 h -1.60937 q -1.60938,0 -2.64063,0.421875 -1.03125,0.421875 -1.625,1.03125 -0.59375,0.609375 -0.82812,1.3125 -0.21875,0.6875 -0.21875,1.25 0,0.46875 0.15625,1.015625 0.15625,0.53125 0.51562,0.984375 0.375,0.453125 0.98438,0.75 0.625,0.296875 1.5625,0.296875 0.98437,0 1.82812,-0.3125 0.85938,-0.328125 1.57813,-0.84375 0.71875,-0.515625 1.29687,-1.15625 0.59375,-0.65625 1.01563,-1.296875 V 79 h -16.85938 v -2.296875 h 22.73438 z m 8.3125,0 h -3.28125 v 21 H 238.125 V 79 h -3.5625 v -2.296875 h 3.8125 q -0.28125,-1.59375 -0.71875,-2.71875 -0.4375,-1.140625 -0.95313,-1.890625 -0.51562,-0.765625 -1.07812,-1.203125 -0.5625,-0.4375 -1.07813,-0.65625 -0.53125,-0.21875 -0.98437,-0.28125 -0.46875,-0.0625 -0.76563,-0.0625 -0.96875,0 -1.54687,0.3125 -0.59375,0.296875 -0.90625,0.71875 -0.3125,0.421875 -0.40625,0.890625 -0.10938,0.453125 -0.10938,0.78125 0,0.125 0.0469,0.515625 0.0312,0.375 0.25,0.953125 0.20312,0.578125 0.64062,1.296875 0.4375,0.71875 1.23438,1.515625 h -2.65625 q -0.98438,-1.125 -1.46875,-2.328125 -0.5,-1.21875 -0.5,-2.359375 0,-0.953125 0.34375,-1.8125 Q 228.0625,69.515625 228.75,68.890625 229.4375,68.25 230.46875,67.875 231.5,67.5 232.85937,67.5 q 1.875,0 3.23438,0.734375 1.35937,0.71875 2.28125,1.96875 0.9375,1.25 1.46875,2.9375 0.54687,1.671875 0.76562,3.5625 h 3.35938 z m 4.39062,17.4375 -2.5,7.6875 h -1.82812 l 1.82812,-7.6875 z M 281.21875,79 h -3.28125 v 21 h -2.5625 v -8.765625 h -8.59375 v 1.859375 q 0,0.484375 -0.0469,0.859375 -0.0312,0.375 -0.17187,0.625 -0.125,0.25 -0.375,0.390625 -0.23438,0.125 -0.64063,0.125 -0.40625,0 -0.90625,-0.234375 -0.5,-0.25 -1.01562,-0.65625 -0.51563,-0.421875 -1,-0.9375 -0.48438,-0.53125 -0.875,-1.09375 -0.375,-0.578125 -0.60938,-1.140625 -0.23437,-0.5625 -0.23437,-1.03125 0,-0.328125 0.10937,-0.53125 0.125,-0.21875 0.32813,-0.328125 Q 261.5625,89.03125 261.85937,89 q 0.29688,-0.04687 0.67188,-0.04687 h 1.6875 V 79 h -5.64063 v -2.296875 h 22.64063 z m -14.4375,0 v 9.953125 H 275.375 V 79 Z m 33.875,0 H 297.375 v 21 h -2.57813 V 87.953125 h -7.3125 q 0,1.03125 -0.0312,1.765625 -0.0156,0.734375 -0.125,1.21875 -0.10937,0.46875 -0.32812,0.6875 -0.21875,0.21875 -0.60938,0.21875 -0.8125,0 -1.54687,-0.53125 -0.71875,-0.53125 -1.28125,-1.28125 -0.54688,-0.75 -0.875,-1.5625 -0.32813,-0.8125 -0.32813,-1.375 0,-0.5 0.21875,-0.78125 0.21875,-0.28125 0.57813,-0.421875 0.35937,-0.140625 0.8125,-0.171875 0.46875,-0.03125 0.9375,-0.03125 h 9.89062 V 79 H 280.125 v -2.296875 h 20.53125 z m 30.3125,0 h -3.28125 v 21 h -2.5625 v -8.765625 h -8.59375 v 1.859375 q 0,0.484375 -0.0469,0.859375 -0.0312,0.375 -0.17187,0.625 -0.125,0.25 -0.375,0.390625 -0.23438,0.125 -0.64063,0.125 -0.40625,0 -0.90625,-0.234375 -0.5,-0.25 -1.01562,-0.65625 -0.51563,-0.421875 -1,-0.9375 -0.48438,-0.53125 -0.875,-1.09375 -0.375,-0.578125 -0.60938,-1.140625 -0.23437,-0.5625 -0.23437,-1.03125 0,-0.328125 0.10937,-0.53125 0.125,-0.21875 0.32813,-0.328125 Q 311.3125,89.03125 311.60937,89 q 0.29688,-0.04687 0.67188,-0.04687 h 1.6875 V 79 h -5.64063 v -2.296875 h 22.64063 z m -14.4375,0 v 9.953125 H 325.125 V 79 Z m 22.75,0 H 336 v 21 h -2.5625 V 79 h -3.5625 v -2.296875 h 9.40625 z m -3.5,-1.859375 h -2.26563 l -1.42187,-2.671875 q -0.90625,-1.703125 -1.65625,-2.703125 -0.73438,-1 -1.39063,-1.515625 -0.67187,-0.53125 -1.3125,-0.671875 -0.64062,-0.15625 -1.34375,-0.15625 h -3.03125 v -2.53125 h 2.85938 q 0.90625,0 1.64062,0.15625 0.73438,0.140625 1.40625,0.53125 0.65625,0.375 1.28125,1.0625 0.64063,0.671875 1.35938,1.75 0.71875,1.0625 1.5625,2.5625 0.85937,1.484375 1.95312,3.515625 z M 350.1875,95.59375 q 0.51562,-0.15625 1.01562,-0.390625 0.51563,-0.234375 0.90625,-0.5625 0.40625,-0.34375 0.65625,-0.796875 0.25,-0.453125 0.25,-1.0625 0,-1.296875 -1.07812,-2.015625 -1.07813,-0.734375 -3.0625,-0.734375 -0.79688,0 -1.64063,0.171875 -0.82812,0.15625 -1.51562,0.59375 -0.6875,0.421875 -1.125,1.171875 -0.4375,0.734375 -0.4375,1.875 0,1.15625 0.45312,2.15625 0.45313,0.984375 1.17188,1.8125 0.73437,0.828125 1.64062,1.5 0.90625,0.671875 1.79688,1.1875 0.90625,0.51563 1.70312,0.85938 0.79688,0.35937 1.32813,0.5625 l -1.03125,2.15625 q -1.09375,-0.46875 -2.23438,-1.03125 -1.125,-0.54688 -2.1875,-1.21875 -1.0625,-0.65625 -2,-1.45313 -0.9375,-0.796875 -1.64062,-1.765625 -0.6875,-0.96875 -1.09375,-2.125 -0.39063,-1.15625 -0.39063,-2.515625 0,-1.328125 0.34375,-2.3125 0.35938,-1 0.98438,-1.75 -0.85938,-0.984375 -1.26563,-1.984375 -0.40625,-1 -0.40625,-2.171875 0,-0.671875 0.15625,-1.265625 0.17188,-0.59375 0.59375,-1.03125 0.4375,-0.453125 1.20313,-0.71875 0.76562,-0.265625 1.98437,-0.265625 h 7.07813 V 79 H 338.1875 v -2.296875 h 20.35937 V 79 h -3.64062 v 5.75 h -8.98438 q -0.60937,0 -1.03125,0.109375 -0.40625,0.09375 -0.65625,0.296875 -0.25,0.203125 -0.35937,0.515625 -0.0937,0.296875 -0.0937,0.703125 0,0.546875 0.1875,1.0625 0.1875,0.515625 0.70312,1.15625 0.90625,-0.46875 1.98438,-0.6875 1.09375,-0.234375 2.28125,-0.234375 1.375,0 2.5625,0.3125 1.20312,0.3125 2.07812,0.953125 0.89063,0.625 1.39063,1.609375 0.51562,0.96875 0.51562,2.28125 0,1.265625 -0.4375,2.140625 -0.42187,0.875 -1.07812,1.46875 -0.64063,0.59375 -1.40625,0.96875 Q 351.79687,97.765625 351.14062,98 Z M 386.17187,79 h -13.20312 v 6.15625 l 0.0781,0.03125 q 0.79688,-1.09375 1.98438,-1.75 1.1875,-0.671875 2.60937,-0.671875 1.125,0 2.07813,0.46875 0.96875,0.453125 1.67187,1.265625 0.70313,0.796875 1.09375,1.890625 0.40625,1.09375 0.40625,2.359375 0,1.4375 -0.5,2.65625 -0.5,1.203125 -1.28125,2.1875 -0.78125,0.984375 -1.76562,1.75 -0.98438,0.75 -1.9375,1.28125 l -1.39063,-2.40625 q 0.3125,-0.171875 0.76563,-0.453125 0.45312,-0.28125 0.9375,-0.65625 0.5,-0.375 0.96875,-0.84375 0.48437,-0.484375 0.85937,-1.046875 0.39063,-0.5625 0.625,-1.21875 0.23438,-0.65625 0.23438,-1.390625 0,-0.671875 -0.21875,-1.28125 -0.20313,-0.609375 -0.57813,-1.0625 -0.375,-0.453125 -0.90625,-0.71875 -0.51562,-0.265625 -1.14062,-0.265625 -0.8125,0 -1.57813,0.421875 -0.76562,0.421875 -1.39062,1.0625 -0.625,0.625 -1.0625,1.34375 -0.42188,0.71875 -0.5625,1.328125 V 100 h -2.5625 v -5.984375 l -0.0625,-0.03125 q -0.23438,0.203125 -0.59375,0.5 -0.35938,0.28125 -0.875,0.546875 -0.5,0.265625 -1.17188,0.453125 -0.65625,0.1875 -1.48437,0.1875 -1.375,0 -2.54688,-0.53125 -1.15625,-0.53125 -2.01562,-1.4375 -0.84375,-0.921875 -1.32813,-2.15625 -0.48437,-1.234375 -0.48437,-2.640625 0,-1.34375 0.4375,-2.484375 0.45312,-1.140625 1.21875,-1.953125 0.78125,-0.828125 1.8125,-1.28125 1.04687,-0.46875 2.25,-0.46875 0.84375,0 1.5625,0.21875 0.73437,0.203125 1.32812,0.515625 0.60938,0.296875 1.07813,0.65625 0.48437,0.34375 0.8125,0.625 l 0.0625,-0.01563 V 79 h -12.95313 v -2.296875 h 28.71875 z m -20.23437,6.15625 q -0.89063,0 -1.57813,0.375 -0.67187,0.359375 -1.125,0.9375 -0.45312,0.5625 -0.6875,1.28125 -0.21875,0.703125 -0.21875,1.390625 0,0.75 0.26563,1.5 0.26562,0.734375 0.75,1.328125 0.5,0.59375 1.1875,0.96875 0.6875,0.359375 1.51562,0.359375 0.70313,0 1.46875,-0.28125 0.78125,-0.296875 1.42188,-0.90625 0.65625,-0.609375 1.07812,-1.546875 0.42188,-0.953125 0.42188,-2.265625 V 87.53125 q -0.375,-0.46875 -0.89063,-0.890625 -0.5,-0.4375 -1.09375,-0.765625 -0.57812,-0.328125 -1.21875,-0.515625 -0.64062,-0.203125 -1.29687,-0.203125 z M 410.57812,79 h -5.89062 q 0.79687,1.375 1.28125,2.8125 0.5,1.421875 0.5,2.890625 0,1.109375 -0.34375,2.140625 -0.32813,1.015625 -0.98438,1.828125 -0.64062,0.796875 -1.60937,1.3125 -0.95313,0.5 -2.20313,0.5625 l -0.0312,0.07813 q 1.40625,2.1875 3.15625,4.140625 1.75,1.9375 4.04688,3.6875 L 406.82812,100.375 Q 405.5,99.390625 404.29687,98.25 q -1.1875,-1.15625 -2.25,-2.375 -1.0625,-1.234375 -1.98437,-2.484375 -0.90625,-1.265625 -1.67188,-2.453125 -0.75,-1.203125 -1.34375,-2.296875 -0.59375,-1.109375 -1.01562,-2.015625 l 2.14062,-1.15625 q 0.5625,1.21875 1.26563,1.921875 0.71875,0.6875 1.65625,0.6875 0.67187,0 1.20312,-0.34375 0.53125,-0.34375 0.89063,-0.875 0.35937,-0.546875 0.54687,-1.1875 0.1875,-0.65625 0.1875,-1.28125 0,-0.734375 -0.1875,-1.4375 Q 403.54687,82.234375 403.25,81.5625 402.95312,80.875 402.57812,80.234375 402.21875,79.59375 401.875,79 h -8.03125 v -2.296875 h 16.73437 z m -9.40625,-7.0625 q 0,-0.890625 0.53125,-1.4375 0.51563,-0.5625 1.35938,-0.5625 0.39062,0 0.75,0.15625 0.34375,0.15625 0.60937,0.4375 0.26563,0.265625 0.42188,0.640625 0.14062,0.359375 0.14062,0.796875 0,0.890625 -0.51562,1.4375 -0.53125,0.546875 -1.375,0.546875 -0.40625,0 -0.75,-0.140625 -0.35938,-0.15625 -0.60938,-0.421875 -0.26562,-0.28125 -0.40625,-0.640625 -0.15625,-0.375 -0.15625,-0.8125 z M 430.53125,79 H 427.25 v 21 h -2.5625 V 79 h -7.04688 v 12.125 q 0,0.25 -0.0312,0.578125 -0.0312,0.328125 -0.15625,0.640625 -0.10937,0.296875 -0.32812,0.515625 -0.21875,0.203125 -0.60938,0.203125 -0.42187,0 -0.9375,-0.265625 -0.5,-0.28125 -1.03125,-0.71875 Q 414.01562,91.625 413.51562,91.0625 413.03125,90.5 412.64062,89.90625 412.25,89.3125 412.01562,88.75 q -0.23437,-0.5625 -0.23437,-1 0,-0.390625 0.1875,-0.625 0.20312,-0.234375 0.54687,-0.359375 0.35938,-0.125 0.85938,-0.15625 0.51562,-0.03125 1.125,-0.03125 h 0.54687 V 79 h -5.5625 v -2.296875 h 21.04688 z m 8.3125,0 h -3.28125 v 21 H 433 V 79 h -3.5625 v -2.296875 h 3.8125 q -0.28125,-1.59375 -0.71875,-2.71875 -0.4375,-1.140625 -0.95313,-1.890625 -0.51562,-0.765625 -1.07812,-1.203125 -0.5625,-0.4375 -1.07813,-0.65625 -0.53125,-0.21875 -0.98437,-0.28125 -0.46875,-0.0625 -0.76563,-0.0625 -0.96875,0 -1.54687,0.3125 -0.59375,0.296875 -0.90625,0.71875 -0.3125,0.421875 -0.40625,0.890625 -0.10938,0.453125 -0.10938,0.78125 0,0.125 0.0469,0.515625 0.0312,0.375 0.25,0.953125 0.20312,0.578125 0.64062,1.296875 0.4375,0.71875 1.23438,1.515625 h -2.65625 q -0.98438,-1.125 -1.46875,-2.328125 -0.5,-1.21875 -0.5,-2.359375 0,-0.953125 0.34375,-1.8125 0.34375,-0.859375 1.03125,-1.484375 Q 424.3125,68.25 425.34375,67.875 426.375,67.5 427.73437,67.5 q 1.875,0 3.23438,0.734375 1.35937,0.71875 2.28125,1.96875 0.9375,1.25 1.46875,2.9375 0.54687,1.671875 0.76562,3.5625 h 3.35938 z m 4.39062,17.4375 -2.5,7.6875 h -1.82812 l 1.82812,-7.6875 z"
         id="path4" />
      <path
         d="M 79.171875,129 H 65.6875 v 6 l 0.07813,0.0312 q 0.40625,-0.54688 0.921875,-0.98438 0.53125,-0.45312 1.140625,-0.76562 0.625,-0.32813 1.296875,-0.5 0.6875,-0.17188 1.390625,-0.17188 1.15625,0 2.140625,0.46875 0.984375,0.45313 1.703125,1.26563 0.71875,0.79687 1.125,1.89062 0.40625,1.09375 0.40625,2.375 0,1.4375 -0.5,2.64063 -0.484375,1.20312 -1.265625,2.1875 -0.765625,0.98437 -1.71875,1.75 -0.953125,0.75 -1.890625,1.28125 L 69.125,144.0625 q 0.296875,-0.17188 0.734375,-0.45313 0.4375,-0.28125 0.90625,-0.65625 0.484375,-0.375 0.953125,-0.84375 0.46875,-0.48437 0.84375,-1.04687 0.375,-0.5625 0.609375,-1.20313 0.234375,-0.64062 0.234375,-1.375 0,-0.70312 -0.21875,-1.3125 -0.21875,-0.60937 -0.609375,-1.0625 -0.375,-0.45312 -0.921875,-0.71875 -0.53125,-0.26562 -1.171875,-0.26562 -0.828125,0 -1.625,0.42187 -0.796875,0.42188 -1.453125,1.0625 -0.65625,0.625 -1.125,1.34375 -0.453125,0.71875 -0.59375,1.32813 V 150 H 63.125 v -7.42188 l -0.04687,-0.0156 q -0.96875,0.89062 -2.09375,1.29687 -1.125,0.39063 -2.34375,0.39063 -1.265625,0 -2.3125,-0.39063 -1.046875,-0.39062 -1.796875,-1.1875 -0.75,-0.8125 -1.171875,-2.03125 Q 52.9375,139.40625 52.9375,137.71875 V 129 h -3.484375 v -2.29687 h 29.71875 z M 63.125,129 h -7.65625 v 8.57812 q 0,0.98438 0.140625,1.76563 0.15625,0.78125 0.515625,1.32812 0.375,0.54688 0.96875,0.84375 0.59375,0.28125 1.484375,0.28125 0.75,0 1.390625,-0.20312 0.65625,-0.21875 1.21875,-0.57813 0.5625,-0.375 1.046875,-0.89062 Q 62.71875,139.60937 63.125,139 Z m -3.0625,21.46875 q 1,-0.625 2.21875,-0.96875 1.203125,-0.34375 2.296875,-0.34375 0.953125,0 1.78125,0.28125 0.8125,0.26562 1.421875,0.78125 0.609375,0.53125 0.953125,1.28125 0.34375,0.75 0.34375,1.6875 0,1 -0.40625,1.875 -0.390625,0.875 -1.1875,1.53125 -0.796875,0.65625 -1.96875,1.03125 -1.171875,0.39062 -2.71875,0.39062 -1.765625,0 -3.15625,-0.48437 -1.40625,-0.46875 -2.515625,-1.20313 -1.109375,-0.71875 -1.953125,-1.59375 -0.84375,-0.875 -1.484375,-1.65625 l 1.453125,-1.70312 q 0.890625,0.96875 1.703125,1.75 0.8125,0.78125 1.6875,1.32812 0.875,0.5625 1.890625,0.85938 1,0.29687 2.265625,0.29687 1.078125,0 1.84375,-0.21875 0.75,-0.20312 1.234375,-0.54687 0.484375,-0.32813 0.703125,-0.76563 0.21875,-0.42187 0.21875,-0.85937 0,-0.79688 -0.59375,-1.26563 -0.609375,-0.46875 -1.640625,-0.46875 -0.671875,0 -1.546875,0.23438 -0.890625,0.23437 -1.796875,0.78125 z M 102.03125,129 H 98.75 v 21.01562 H 96.1875 V 135.375 q -0.828125,-0.29688 -1.5625,-0.29688 -0.734375,0 -1.28125,0.28125 -0.546875,0.26563 -0.921875,0.71875 -0.359375,0.45313 -0.546875,1.0625 -0.1875,0.60938 -0.1875,1.28125 0,0.26563 0.01563,0.54688 0.03125,0.26562 0.0625,0.53125 H 89.375 q -0.125,-0.90625 -0.296875,-1.73438 -0.15625,-0.82812 -0.46875,-1.45312 -0.296875,-0.625 -0.78125,-0.98438 -0.484375,-0.375 -1.25,-0.375 -0.734375,0 -1.265625,0.29688 -0.515625,0.29687 -0.859375,0.82812 -0.34375,0.53125 -0.515625,1.25 -0.15625,0.70313 -0.15625,1.53125 0,1.78125 0.609375,3.20313 0.609375,1.40625 1.640625,2.53125 1.046875,1.125 2.40625,2.01562 1.375,0.875 2.890625,1.60938 L 90.0625,150.375 q -0.5625,-0.25 -1.453125,-0.75 -0.875,-0.5 -1.875,-1.23438 Q 85.75,147.65625 84.75,146.67187 q -1,-0.98437 -1.8125,-2.20312 -0.796875,-1.21875 -1.296875,-2.6875 -0.5,-1.46875 -0.5,-3.17188 0,-1.3125 0.375,-2.4375 0.375,-1.14062 1.0625,-1.96875 0.703125,-0.84375 1.6875,-1.3125 0.984375,-0.48437 2.1875,-0.48437 0.90625,0 1.5625,0.26562 0.65625,0.25 1.125,0.64063 0.484375,0.375 0.796875,0.82812 0.3125,0.4375 0.546875,0.82813 l 0.07813,-0.0156 q 0.296875,-0.65625 0.703125,-1.10937 0.421875,-0.45313 0.90625,-0.73438 0.5,-0.28125 1.046875,-0.40625 0.546875,-0.14062 1.09375,-0.14062 0.484375,0 0.953125,0.0937 0.484375,0.0781 0.921875,0.23437 V 129 H 78.078125 v -2.29687 h 23.953125 z m 8.3125,0 h -3.28125 v 21 H 104.5 v -21 h -3.5625 v -2.29687 h 9.40625 z m -6.79687,-7.0625 q 0,-0.89062 0.53125,-1.4375 0.51562,-0.5625 1.35937,-0.5625 0.39063,0 0.75,0.15625 0.34375,0.15625 0.60938,0.4375 0.26562,0.26563 0.42187,0.64063 0.14063,0.35937 0.14063,0.79687 0,0.89063 -0.51563,1.4375 -0.53125,0.54688 -1.375,0.54688 -0.40625,0 -0.75,-0.14063 -0.35937,-0.15625 -0.60937,-0.42187 -0.26563,-0.28125 -0.40625,-0.64063 -0.15625,-0.375 -0.15625,-0.8125 z M 131.98437,129 h -3.28125 v 21 h -2.59374 v -6.57813 l -0.0625,-0.0469 q -0.85938,0.78125 -1.6875,1.23437 -0.8125,0.4375 -1.53125,0.67188 -0.70313,0.21875 -1.28125,0.28125 -0.57813,0.0625 -0.95313,0.0625 -1.4375,0 -2.54687,-0.45313 -1.10938,-0.45312 -1.85938,-1.1875 -0.75,-0.75 -1.14062,-1.70312 -0.39063,-0.96875 -0.39063,-2 0,-1.07813 0.4375,-2.14063 0.45313,-1.0625 1.40625,-1.90625 l -0.0156,-0.0625 h -4.95313 V 133.875 h 12.5625 v 2.29687 h -1.60937 q -1.60938,0 -2.64063,0.42188 -1.03125,0.42187 -1.625,1.03125 -0.59375,0.60937 -0.82812,1.3125 -0.21875,0.6875 -0.21875,1.25 0,0.46875 0.15625,1.01562 0.15625,0.53125 0.51562,0.98438 0.375,0.45312 0.98438,0.75 0.625,0.29687 1.5625,0.29687 0.98437,0 1.82812,-0.3125 0.85938,-0.32812 1.57813,-0.84375 0.71875,-0.51562 1.29687,-1.15625 0.59375,-0.65625 1.01563,-1.29687 V 129 H 109.25 v -2.29687 h 22.73437 z m 8.3125,0 h -3.28125 v 21 h -2.5625 v -21 h -3.5625 v -2.29687 h 3.8125 q -0.28125,-1.59375 -0.71875,-2.71875 -0.4375,-1.14063 -0.95312,-1.89063 -0.51563,-0.76562 -1.07813,-1.20312 -0.5625,-0.4375 -1.07812,-0.65625 -0.53125,-0.21875 -0.98438,-0.28125 -0.46875,-0.0625 -0.76562,-0.0625 -0.96875,0 -1.54687,0.3125 -0.59375,0.29687 -0.90625,0.71875 -0.3125,0.42187 -0.40625,0.89062 -0.10938,0.45313 -0.10938,0.78125 0,0.125 0.0469,0.51563 0.0312,0.375 0.25,0.95312 0.20312,0.57813 0.64062,1.29688 0.4375,0.71875 1.23437,1.51562 h -2.65624 q -0.98438,-1.125 -1.46875,-2.32812 -0.5,-1.21875 -0.5,-2.35938 0,-0.95312 0.34375,-1.8125 0.34375,-0.85937 1.03125,-1.48437 0.6875,-0.64063 1.71875,-1.01563 1.03125,-0.375 2.39062,-0.375 1.875,0 3.23437,0.73438 1.35938,0.71875 2.28125,1.96875 0.9375,1.25 1.46875,2.9375 0.54688,1.67187 0.76563,3.5625 h 3.35937 z m 30.3125,0 h -3.28125 v 21 h -2.5625 v -8.76563 h -8.59375 v 1.85938 q 0,0.48437 -0.0469,0.85937 -0.0312,0.375 -0.17188,0.625 -0.125,0.25 -0.375,0.39063 -0.23437,0.125 -0.64062,0.125 -0.40625,0 -0.90625,-0.23438 -0.5,-0.25 -1.01563,-0.65625 -0.51562,-0.42187 -1,-0.9375 -0.48437,-0.53125 -0.875,-1.09375 -0.375,-0.57812 -0.60937,-1.14062 -0.23438,-0.5625 -0.23438,-1.03125 0,-0.32813 0.10938,-0.53125 0.125,-0.21875 0.32812,-0.32813 0.21875,-0.10937 0.51563,-0.14062 0.29687,-0.0469 0.67187,-0.0469 h 1.6875 V 129 h -5.64062 v -2.29687 h 22.64062 z m -14.4375,0 v 9.95312 h 8.59375 V 129 Z m 22.75,0 h -3.28125 v 21 h -2.5625 v -21 h -3.5625 v -2.29687 h 9.40625 z m 7.51563,17.46875 q -1.39063,0 -2.53125,-0.51563 -1.14063,-0.51562 -1.96875,-1.42187 -0.8125,-0.92188 -1.26563,-2.15625 -0.45312,-1.25 -0.45312,-2.6875 0,-1.5625 0.48437,-2.8125 0.48438,-1.26563 1.32813,-2.15625 0.85937,-0.89063 2,-1.35938 1.15625,-0.48437 2.48437,-0.48437 1.70313,0 3.21875,0.8125 1.51563,0.79687 3.03125,2.35937 0.70313,-1.09375 1.64063,-1.89062 0.9375,-0.8125 2.3125,-1.0625 V 129 h -18.89063 v -2.29687 h 29.26563 V 129 h -7.82813 v 4.17187 q 1.04688,0.25 1.89063,0.82813 0.84375,0.57812 1.42187,1.39062 0.59375,0.8125 0.90625,1.82813 0.32813,1 0.32813,2.10937 0,1.625 -0.5625,2.95313 -0.54688,1.32812 -1.48438,2.29687 -0.92187,0.95313 -2.10937,1.48438 -1.1875,0.51562 -2.45313,0.51562 -1.64062,0 -3.0625,-0.76562 -1.42187,-0.76563 -2.8125,-2.10938 -0.40625,0.59375 -0.90625,1.10938 -0.48437,0.5 -1.07812,0.875 -0.59375,0.35937 -1.3125,0.57812 -0.71875,0.20313 -1.59375,0.20313 z m 0.32812,-11.3125 q -0.9375,0 -1.6875,0.375 -0.73437,0.35937 -1.26562,0.98437 -0.53125,0.60938 -0.8125,1.45313 -0.28125,0.82812 -0.28125,1.76562 0,0.8125 0.23437,1.59375 0.23438,0.78125 0.6875,1.39063 0.46875,0.60937 1.15625,0.98437 0.6875,0.375 1.57813,0.375 1.09375,0 1.85937,-0.54687 0.78125,-0.5625 1.375,-1.45313 0.60938,-0.89062 1.10938,-2 0.5,-1.125 1.04687,-2.25 -1.1875,-1.375 -2.46875,-2.01562 -1.26562,-0.65625 -2.53125,-0.65625 z m 10.0625,9.03125 q 0.90625,0 1.71875,-0.28125 0.8125,-0.29688 1.42188,-0.875 0.625,-0.59375 0.98437,-1.46875 0.375,-0.89063 0.375,-2.09375 0,-0.76563 -0.20312,-1.51563 -0.1875,-0.75 -0.59375,-1.34375 -0.40625,-0.59375 -1.04688,-0.95312 -0.625,-0.375 -1.48437,-0.375 -0.76563,0 -1.375,0.29687 -0.60938,0.28125 -1.10938,0.78125 -0.5,0.48438 -0.92187,1.15625 -0.40625,0.65625 -0.78125,1.42188 -0.375,0.75 -0.75,1.5625 -0.35938,0.79687 -0.76563,1.57812 0.39063,0.39063 0.875,0.76563 0.5,0.375 1.0625,0.67187 0.57813,0.29688 1.23438,0.48438 0.65625,0.1875 1.35937,0.1875 z m 14.65625,2.25 -2.5,7.6875 h -1.82812 l 1.82812,-7.6875 z M 242.0625,129 h -3.28125 v 21 h -2.57813 v -7.46875 l -0.0625,-0.0156 q -1.04687,0.9375 -2.34375,1.34375 -1.29687,0.39063 -2.5625,0.39063 -1.34375,0 -2.45312,-0.39063 -1.10938,-0.39062 -1.90625,-1.1875 -0.79688,-0.8125 -1.25,-2.03125 -0.4375,-1.23437 -0.4375,-2.92187 V 129 h -3.48438 v -2.29687 h 20.35938 z m -5.85938,0 h -8.48437 v 8.57812 q 0,0.98438 0.15625,1.76563 0.17187,0.78125 0.5625,1.32812 0.40625,0.54688 1.0625,0.84375 0.65625,0.28125 1.64062,0.28125 1.60938,0 2.90625,-0.75 1.29688,-0.76562 2.15625,-2 z m 40.45313,0 H 273.375 v 21 h -2.5625 v -7.3125 l -0.0625,-0.0156 q -0.42188,0.34375 -1.01563,0.6875 -0.57812,0.32813 -1.29687,0.59375 -0.71875,0.25 -1.54688,0.42188 -0.82812,0.15625 -1.73437,0.15625 -1.46875,0 -2.59375,-0.4375 -1.125,-0.45313 -1.95313,-1.20313 -0.82812,-0.76562 -1.40625,-1.79687 -0.5625,-1.03125 -0.90625,-2.20313 h -0.53125 q -2.65625,0 -4.79687,-0.54687 -2.125,-0.54688 -3.82813,-1.53125 -0.6875,0.46875 -1.3125,0.98437 -0.625,0.51563 -1.10937,1.15625 -0.46875,0.625 -0.75,1.40625 -0.28125,0.76563 -0.28125,1.75 0,0.5625 0.14062,1.26563 0.15625,0.70312 0.60938,1.34375 0.45312,0.625 1.29687,1.0625 0.85938,0.42187 2.26563,0.42187 0.5,0 0.98437,-0.0625 0.5,-0.0625 0.85938,-0.20312 -0.0625,-0.29688 -0.0937,-0.59375 -0.0312,-0.3125 -0.0312,-0.64063 0,-0.70312 0.15625,-1.40625 0.17187,-0.70312 0.5,-1.25 0.34375,-0.5625 0.85937,-0.90625 0.51563,-0.34375 1.20313,-0.34375 0.53125,0 0.92187,0.20313 0.39063,0.20312 0.65625,0.54687 0.26563,0.34375 0.39063,0.8125 0.14062,0.45313 0.14062,0.96875 0,0.57813 -0.15625,1.10938 -0.15625,0.53125 -0.42187,1 -0.25,0.45312 -0.59375,0.85937 -0.32813,0.39063 -0.70313,0.71875 0.29688,0.67188 0.625,1.20313 0.32813,0.51562 0.67188,0.9375 0.35937,0.40625 0.71875,0.75 0.375,0.32812 0.73437,0.625 L 255.5,152.54687 q -0.71875,-0.67187 -1.23438,-1.34375 -0.5,-0.65625 -0.84375,-1.23437 -0.34375,-0.57813 -0.5625,-1.04688 -0.21875,-0.46875 -0.35937,-0.75 -0.51563,0.21875 -1.17188,0.3125 -0.64062,0.0781 -1.20312,0.0781 -1.53125,0 -2.8125,-0.48438 -1.26563,-0.5 -2.17188,-1.39062 -0.90625,-0.89063 -1.40625,-2.125 -0.5,-1.25 -0.5,-2.73438 0,-1.28125 0.34375,-2.25 0.35938,-0.98437 0.92188,-1.73437 0.5625,-0.76563 1.28125,-1.34375 0.71875,-0.59375 1.45312,-1.07813 v -0.0469 q -1.04687,-0.98438 -1.59375,-2.0625 -0.54687,-1.09375 -0.54687,-2.28125 0,-1.04688 0.35937,-1.89063 0.375,-0.85937 1,-1.46874 0.625,-0.60938 1.4375,-0.9375 0.8125,-0.34375 1.6875,-0.34375 0.85938,0 1.65625,0.3125 0.79688,0.3125 1.42188,0.90625 0.625,0.57812 1,1.43749 0.375,0.84375 0.375,1.90625 0,0.79688 -0.23438,1.46875 -0.23437,0.65625 -0.65625,1.20313 -0.40625,0.54687 -0.95312,1.01562 -0.54688,0.45313 -1.17188,0.84375 v 0.0469 q 0.60938,0.28125 1.3125,0.5 0.70313,0.21875 1.42188,0.375 0.73437,0.14062 1.45312,0.21875 0.73438,0.0781 1.39063,0.0781 1.04687,0 1.96875,-0.20312 0.92187,-0.20313 1.60937,-0.625 0.6875,-0.4375 1.07813,-1.09375 0.39062,-0.67188 0.39062,-1.59375 0,-0.375 -0.0781,-0.84375 -0.0625,-0.46875 -0.23438,-1 -0.17187,-0.54688 -0.45312,-1.14063 -0.28125,-0.59375 -0.70313,-1.20312 h -4.51562 v -2.29687 h 21 z m -13.71875,0 q 0.5625,0.95312 0.875,2.09375 0.32812,1.125 0.32812,2.21875 0,0.79687 -0.21875,1.54687 -0.20312,0.75 -0.64062,1.40625 -0.4375,0.64063 -1.09375,1.15625 -0.64063,0.5 -1.5,0.79688 0.25,1.04687 0.6875,1.79687 0.4375,0.73438 1.03125,1.21875 0.59375,0.46875 1.32812,0.6875 0.73438,0.21875 1.57813,0.21875 0.8125,0 1.59375,-0.1875 0.79687,-0.1875 1.5,-0.53125 0.71875,-0.35937 1.32812,-0.85937 0.60938,-0.5 1.07813,-1.125 V 129 Z m -13.51563,4.95312 q 0.4375,-0.29687 0.82813,-0.60937 0.39062,-0.3125 0.67187,-0.67188 0.29688,-0.375 0.45313,-0.79687 0.17187,-0.42188 0.17187,-0.9375 0,-0.48438 -0.15625,-0.875 -0.14062,-0.40625 -0.42187,-0.6875 -0.26563,-0.29688 -0.625,-0.45313 -0.35938,-0.15625 -0.78125,-0.15625 -0.3125,0 -0.65625,0.10938 -0.34375,0.0937 -0.65625,0.35937 -0.29688,0.25 -0.5,0.6875 -0.1875,0.42188 -0.1875,1.07813 0,0.98437 0.39062,1.78125 0.39063,0.79687 1.0625,1.42187 z M 284.96875,129 h -3.28125 v 21 h -2.5625 v -21 h -3.5625 v -2.29687 h 9.40625 z m -6.79688,-7.0625 q 0,-0.89062 0.53125,-1.4375 0.51563,-0.5625 1.35938,-0.5625 0.39062,0 0.75,0.15625 0.34375,0.15625 0.60937,0.4375 0.26563,0.26563 0.42188,0.64063 0.14062,0.35937 0.14062,0.79687 0,0.89063 -0.51562,1.4375 -0.53125,0.54688 -1.375,0.54688 -0.40625,0 -0.75,-0.14063 -0.35938,-0.15625 -0.60938,-0.42187 -0.26562,-0.28125 -0.40625,-0.64063 -0.15625,-0.375 -0.15625,-0.8125 z M 306.60937,129 h -3.28125 v 21 h -2.59375 v -6.57813 l -0.0625,-0.0469 q -0.85937,0.78125 -1.6875,1.23437 -0.8125,0.4375 -1.53125,0.67188 -0.70312,0.21875 -1.28125,0.28125 -0.57812,0.0625 -0.95312,0.0625 -1.4375,0 -2.54688,-0.45313 -1.10937,-0.45312 -1.85937,-1.1875 -0.75,-0.75 -1.14063,-1.70312 -0.39062,-0.96875 -0.39062,-2 0,-1.07813 0.4375,-2.14063 0.45312,-1.0625 1.40625,-1.90625 l -0.0156,-0.0625 h -4.95312 V 133.875 h 12.5625 v 2.29687 h -1.60938 q -1.60937,0 -2.64062,0.42188 -1.03125,0.42187 -1.625,1.03125 -0.59375,0.60937 -0.82813,1.3125 -0.21875,0.6875 -0.21875,1.25 0,0.46875 0.15625,1.01562 0.15625,0.53125 0.51563,0.98438 0.375,0.45312 0.98437,0.75 0.625,0.29687 1.5625,0.29687 0.98438,0 1.82813,-0.3125 0.85937,-0.32812 1.57812,-0.84375 0.71875,-0.51562 1.29688,-1.15625 0.59375,-0.65625 1.01562,-1.29687 V 129 H 283.875 v -2.29687 h 22.73437 z m -3.5,-1.85937 h -2.26562 l -1.42188,-2.67188 q -0.90625,-1.70312 -1.64062,-2.70312 -0.75,-1 -1.40625,-1.51563 -0.67188,-0.53125 -1.3125,-0.67187 -0.64063,-0.15625 -1.34375,-0.15625 h -3.03125 v -2.53125 h 2.85937 q 0.90625,0 1.64063,0.15625 0.73437,0.14062 1.40625,0.53125 0.65625,0.375 1.29687,1.0625 0.625,0.67187 1.34375,1.75 0.71875,1.0625 1.57813,2.5625 0.84375,1.48437 1.9375,3.51562 z M 335.32812,129 h -3.28125 v 21 h -2.5625 v -21 h -7.04687 v 12.125 q 0,0.25 -0.0312,0.57812 -0.0312,0.32813 -0.15625,0.64063 -0.10938,0.29687 -0.32813,0.51562 -0.21875,0.20313 -0.60937,0.20313 -0.42188,0 -0.9375,-0.26563 -0.5,-0.28125 -1.03125,-0.71875 -0.53125,-0.45312 -1.03125,-1.01562 -0.48438,-0.5625 -0.875,-1.15625 -0.39063,-0.59375 -0.625,-1.15625 -0.23438,-0.5625 -0.23438,-1 0,-0.39063 0.1875,-0.625 0.20313,-0.23438 0.54688,-0.35938 0.35937,-0.125 0.85937,-0.15625 0.51563,-0.0312 1.125,-0.0312 h 0.54688 V 129 h -5.5625 v -2.29687 h 21.04687 z m 8.3125,0 h -3.28125 v 21 h -2.5625 v -21 h -3.5625 v -2.29687 h 3.8125 q -0.28125,-1.59375 -0.71875,-2.71875 -0.4375,-1.14063 -0.95312,-1.89063 -0.51563,-0.76562 -1.07813,-1.20312 -0.5625,-0.4375 -1.07812,-0.65625 -0.53125,-0.21875 -0.98438,-0.28125 -0.46875,-0.0625 -0.76562,-0.0625 -0.96875,0 -1.54688,0.3125 -0.59375,0.29687 -0.90625,0.71875 -0.3125,0.42187 -0.40625,0.89062 -0.10937,0.45313 -0.10937,0.78125 0,0.125 0.0469,0.51563 0.0312,0.375 0.25,0.95312 0.20313,0.57813 0.64063,1.29688 0.4375,0.71875 1.23437,1.51562 h -2.65625 q -0.98437,-1.125 -1.46875,-2.32812 -0.5,-1.21875 -0.5,-2.35938 0,-0.95312 0.34375,-1.8125 0.34375,-0.85937 1.03125,-1.48437 0.6875,-0.64063 1.71875,-1.01563 1.03125,-0.375 2.39063,-0.375 1.875,0 3.23437,0.73438 1.35938,0.71875 2.28125,1.96875 0.9375,1.25 1.46875,2.9375 0.54688,1.67187 0.76563,3.5625 h 3.35937 z m 19.57813,0 h -3.28125 v 21 h -2.54688 v -13.71875 h -5.07812 q -1.04688,0 -1.89063,0.14062 -0.84375,0.125 -1.4375,0.53125 -0.59375,0.39063 -0.92187,1.10938 -0.3125,0.70312 -0.3125,1.85937 0,1.5 0.48437,2.76563 0.5,1.26562 1.26563,2.32812 0.76562,1.04688 1.6875,1.9375 0.9375,0.89063 1.79687,1.64063 l -1.5625,1.78125 q -0.14062,-0.0781 -0.67187,-0.45313 -0.51563,-0.39062 -1.21875,-1.04687 -0.6875,-0.65625 -1.46875,-1.59375 -0.76563,-0.9375 -1.42188,-2.10938 -0.64062,-1.1875 -1.07812,-2.60937 -0.42188,-1.42188 -0.42188,-3.0625 0,-1.625 0.45313,-2.6875 0.46875,-1.07813 1.3125,-1.70313 0.84375,-0.64062 2.04687,-0.89062 1.20313,-0.25 2.6875,-0.25 h 5.75 V 129 h -14.84375 v -2.29687 h 20.67188 z m 8.3125,0 H 368.25 v 21 h -2.5625 v -21 h -3.5625 v -2.29687 h 9.40625 z m -6.79688,-7.0625 q 0,-0.89062 0.53125,-1.4375 0.51563,-0.5625 1.35938,-0.5625 0.39062,0 0.75,0.15625 0.34375,0.15625 0.60937,0.4375 0.26563,0.26563 0.42188,0.64063 0.14062,0.35937 0.14062,0.79687 0,0.89063 -0.51562,1.4375 -0.53125,0.54688 -1.375,0.54688 -0.40625,0 -0.75,-0.14063 -0.35938,-0.15625 -0.60938,-0.42187 -0.26562,-0.28125 -0.40625,-0.64063 -0.15625,-0.375 -0.15625,-0.8125 z M 390.96875,129 h -3.28125 v 21 h -2.57813 v -12.04688 h -7.3125 q 0,1.03125 -0.0312,1.76563 -0.0156,0.73437 -0.125,1.21875 -0.10937,0.46875 -0.32812,0.6875 -0.21875,0.21875 -0.60938,0.21875 -0.8125,0 -1.54687,-0.53125 -0.71875,-0.53125 -1.28125,-1.28125 -0.54688,-0.75 -0.875,-1.5625 -0.32813,-0.8125 -0.32813,-1.375 0,-0.5 0.21875,-0.78125 0.21875,-0.28125 0.57813,-0.42188 0.35937,-0.14062 0.8125,-0.17187 0.46875,-0.0312 0.9375,-0.0312 h 9.89062 V 129 H 370.4375 v -2.29687 h 20.53125 z m 8.3125,0 H 396 v 21 h -2.5625 v -21 h -3.5625 v -2.29687 h 3.8125 q -0.28125,-1.59375 -0.71875,-2.71875 -0.4375,-1.14063 -0.95313,-1.89063 -0.51562,-0.76562 -1.07812,-1.20312 -0.5625,-0.4375 -1.07813,-0.65625 -0.53125,-0.21875 -0.98437,-0.28125 -0.46875,-0.0625 -0.76563,-0.0625 -0.96875,0 -1.54687,0.3125 -0.59375,0.29687 -0.90625,0.71875 -0.3125,0.42187 -0.40625,0.89062 -0.10938,0.45313 -0.10938,0.78125 0,0.125 0.0469,0.51563 0.0312,0.375 0.25,0.95312 0.20312,0.57813 0.64062,1.29688 0.4375,0.71875 1.23438,1.51562 h -2.65625 q -0.98438,-1.125 -1.46875,-2.32812 -0.5,-1.21875 -0.5,-2.35938 0,-0.95312 0.34375,-1.8125 0.34375,-0.85937 1.03125,-1.48437 0.6875,-0.64063 1.71875,-1.01563 1.03125,-0.375 2.39062,-0.375 1.875,0 3.23438,0.73438 1.35937,0.71875 2.28125,1.96875 0.9375,1.25 1.46875,2.9375 0.54687,1.67187 0.76562,3.5625 h 3.35938 z m 31.8125,-2.29687 V 129 h -3.28125 v 21 h -2.59375 v -10.5 h -9.04688 q -0.82812,0.54687 -1.98437,0.65625 l -0.0312,0.0781 q 1.51562,2.375 3.32812,4.42188 1.8125,2.04687 4.125,3.79687 l -1.67187,1.92188 q -1.32813,-0.98438 -2.53125,-2.125 -1.1875,-1.14063 -2.25,-2.35938 -1.04688,-1.23437 -1.96875,-2.48437 -0.92188,-1.26563 -1.6875,-2.48438 -0.76563,-1.21875 -1.375,-2.34375 -0.60938,-1.14062 -1.0625,-2.10937 l 2.14062,-1.15625 q 0.29688,0.6875 0.57813,1.15625 0.29687,0.45312 0.59375,0.73437 0.29687,0.26563 0.625,0.39063 0.32812,0.10937 0.70312,0.10937 1.07813,0 1.57813,-0.84375 0.51562,-0.84375 0.51562,-2.21875 0,-0.8125 -0.15625,-1.59375 -0.15625,-0.79687 -0.40625,-1.51562 Q 415,130.79687 414.71875,130.15625 414.4375,129.51562 414.1875,129 h -7.23438 v -2.29687 z M 425.21875,129 h -8.32813 q 0.65625,1.42187 1.03125,2.85937 0.375,1.4375 0.375,2.85938 0,0.65625 -0.10937,1.29687 -0.0937,0.625 -0.32813,1.1875 l 0.0312,0.0312 h 7.32813 z m -0.60938,-7.0625 q 0,-0.89062 0.53125,-1.4375 0.51563,-0.5625 1.35938,-0.5625 0.39062,0 0.75,0.15625 0.34375,0.15625 0.60937,0.4375 0.26563,0.26563 0.42188,0.64063 0.14062,0.35937 0.14062,0.79687 0,0.89063 -0.51562,1.4375 -0.53125,0.54688 -1.375,0.54688 -0.40625,0 -0.75,-0.14063 -0.35938,-0.15625 -0.60938,-0.42187 -0.26562,-0.28125 -0.40625,-0.64063 -0.15625,-0.375 -0.15625,-0.8125 z M 451.04687,129 h -3.28125 v 21 h -2.5625 v -21 h -7.04687 v 12.125 q 0,0.25 -0.0312,0.57812 -0.0312,0.32813 -0.15625,0.64063 -0.10938,0.29687 -0.32813,0.51562 -0.21875,0.20313 -0.60937,0.20313 -0.42188,0 -0.9375,-0.26563 -0.5,-0.28125 -1.03125,-0.71875 -0.53125,-0.45312 -1.03125,-1.01562 -0.48438,-0.5625 -0.875,-1.15625 -0.39063,-0.59375 -0.625,-1.15625 -0.23438,-0.5625 -0.23438,-1 0,-0.39063 0.1875,-0.625 0.20313,-0.23438 0.54688,-0.35938 0.35937,-0.125 0.85937,-0.15625 0.51563,-0.0312 1.125,-0.0312 h 0.54688 V 129 H 430 v -2.29687 h 21.04687 z m 8.3125,0 h -3.28125 v 21 h -2.5625 v -21 h -3.5625 v -2.29687 h 3.8125 q -0.28125,-1.59375 -0.71875,-2.71875 -0.4375,-1.14063 -0.95312,-1.89063 -0.51563,-0.76562 -1.07813,-1.20312 -0.5625,-0.4375 -1.07812,-0.65625 -0.53125,-0.21875 -0.98438,-0.28125 -0.46875,-0.0625 -0.76562,-0.0625 -0.96875,0 -1.54688,0.3125 -0.59375,0.29687 -0.90625,0.71875 -0.3125,0.42187 -0.40625,0.89062 -0.10937,0.45313 -0.10937,0.78125 0,0.125 0.0469,0.51563 0.0312,0.375 0.25,0.95312 0.20313,0.57813 0.64063,1.29688 0.4375,0.71875 1.23437,1.51562 h -2.65625 q -0.98437,-1.125 -1.46875,-2.32812 -0.5,-1.21875 -0.5,-2.35938 0,-0.95312 0.34375,-1.8125 0.34375,-0.85937 1.03125,-1.48437 0.6875,-0.64063 1.71875,-1.01563 1.03125,-0.375 2.39063,-0.375 1.875,0 3.23437,0.73438 1.35938,0.71875 2.28125,1.96875 0.9375,1.25 1.46875,2.9375 0.54688,1.67187 0.76563,3.5625 h 3.35937 z m 2.9375,21.34375 q -0.71875,0 -1.23437,-0.51563 -0.5,-0.51562 -0.5,-1.23437 0,-0.71875 0.5,-1.23438 0.51562,-0.53125 1.23437,-0.53125 0.73438,0 1.25,0.53125 0.51563,0.51563 0.51563,1.23438 0,0.71875 -0.51563,1.23437 -0.51562,0.51563 -1.25,0.51563 z"
         id="path5" />
      <path
         d="m 58.859375,179 h -3.28125 v 21 h -2.5625 v -21 h -3.5625 v -2.29688 h 3.5625 q -0.859375,-2.0625 -0.859375,-3.84375 0,-1.14062 0.375,-2.125 0.375,-0.98437 1.140625,-1.70312 0.78125,-0.71875 1.984375,-1.125 1.203125,-0.40625 2.859375,-0.40625 2.171875,0 4.171875,0.70312 2.015625,0.70313 3.9375,1.95313 1.921875,1.25 3.796875,2.96875 1.890625,1.71875 3.8125,3.75 h -2.71875 q -0.4375,-0.42188 -1.171875,-1.09375 -0.71875,-0.6875 -1.671875,-1.45313 -0.953125,-0.78125 -2.109375,-1.5625 -1.15625,-0.79687 -2.4375,-1.4375 -1.28125,-0.64062 -2.671875,-1.03125 -1.375,-0.40625 -2.78125,-0.40625 -1.140625,0 -1.921875,0.26563 -0.765625,0.26562 -1.25,0.73437 -0.46875,0.46875 -0.671875,1.10938 -0.203125,0.625 -0.203125,1.34375 0,1.40625 0.765625,3.35937 h 3.46875 z m 10.90625,16.59375 q 0.515625,-0.15625 1.015625,-0.39063 0.515625,-0.23437 0.90625,-0.5625 0.40625,-0.34375 0.65625,-0.79687 0.25,-0.45313 0.25,-1.0625 0,-1.29688 -1.078125,-2.01563 -1.078125,-0.73437 -3.0625,-0.73437 -0.796875,0 -1.640625,0.17187 -0.828125,0.15625 -1.515625,0.59375 -0.6875,0.42188 -1.125,1.17188 -0.4375,0.73437 -0.4375,1.875 0,1.15625 0.453125,2.15625 0.453125,0.98437 1.171875,1.8125 0.734375,0.82812 1.640625,1.5 0.90625,0.67187 1.796875,1.1875 0.90625,0.51562 1.703125,0.85937 0.796875,0.35938 1.328125,0.5625 l -1.03125,2.15625 q -1.09375,-0.46875 -2.234375,-1.03125 -1.125,-0.54687 -2.1875,-1.21875 -1.0625,-0.65625 -2,-1.45312 -0.9375,-0.79688 -1.640625,-1.76563 -0.6875,-0.96875 -1.09375,-2.125 Q 61.25,195.32812 61.25,193.96875 q 0,-1.32813 0.34375,-2.3125 0.359375,-1 0.984375,-1.75 -0.859375,-0.98438 -1.265625,-1.98438 -0.40625,-1 -0.40625,-2.17187 0,-0.67188 0.15625,-1.26563 0.171875,-0.59375 0.59375,-1.03125 0.4375,-0.45312 1.203125,-0.71875 0.765625,-0.26562 1.984375,-0.26562 h 7.078125 V 179 h -14.15625 v -2.29688 H 78.125 V 179 h -3.640625 v 5.75 H 65.5 q -0.609375,0 -1.03125,0.10937 -0.40625,0.0937 -0.65625,0.29688 -0.25,0.20312 -0.359375,0.51562 -0.09375,0.29688 -0.09375,0.70313 0,0.54687 0.1875,1.0625 0.1875,0.51562 0.703125,1.15625 0.90625,-0.46875 1.984375,-0.6875 1.09375,-0.23438 2.28125,-0.23438 1.375,0 2.5625,0.3125 1.203125,0.3125 2.078125,0.95313 0.890625,0.625 1.390625,1.60937 0.515625,0.96875 0.515625,2.28125 0,1.26563 -0.4375,2.14063 -0.421875,0.875 -1.078125,1.46875 -0.640625,0.59375 -1.40625,0.96875 Q 71.375,197.76562 70.71875,198 Z m 24,-16.59375 H 87.875 q 0.796875,1.375 1.28125,2.8125 0.5,1.42187 0.5,2.89062 0,1.10938 -0.34375,2.14063 -0.328125,1.01562 -0.984375,1.82812 -0.640625,0.79688 -1.609375,1.3125 -0.953125,0.5 -2.203125,0.5625 l -0.03125,0.0781 q 1.40625,2.1875 3.15625,4.14062 1.75,1.9375 4.046875,3.6875 l -1.671875,1.92188 q -1.328125,-0.98438 -2.53125,-2.125 -1.1875,-1.15625 -2.25,-2.375 -1.0625,-1.23438 -1.984375,-2.48438 -0.90625,-1.26562 -1.671875,-2.45312 -0.75,-1.20313 -1.34375,-2.29688 -0.59375,-1.10937 -1.015625,-2.01562 l 2.140625,-1.15625 q 0.5625,1.21875 1.265625,1.92187 0.71875,0.6875 1.65625,0.6875 0.671875,0 1.203125,-0.34375 0.53125,-0.34375 0.890625,-0.875 0.359375,-0.54687 0.546875,-1.1875 0.1875,-0.65625 0.1875,-1.28125 0,-0.73437 -0.1875,-1.4375 -0.1875,-0.71875 -0.484375,-1.39062 -0.296875,-0.6875 -0.671875,-1.32813 Q 85.40625,179.59375 85.0625,179 h -8.03125 v -2.29688 h 16.734375 z m 18.812505,0 h -3.28125 v 21 h -2.5625 v -5.57813 l -0.0625,-0.0156 q -0.3125,0.29687 -0.73438,0.625 -0.42187,0.3125 -0.96875,0.57812 -0.54687,0.25 -1.23437,0.42188 -0.67188,0.17187 -1.51563,0.17187 -1.54687,0 -2.828125,-0.59375 -1.265625,-0.59375 -2.1875,-1.57812 -0.921875,-1 -1.4375,-2.28125 -0.5,-1.29688 -0.5,-2.70313 0,-1.40625 0.5,-2.60937 0.515625,-1.21875 1.40625,-2.10938 0.890625,-0.89062 2.078125,-1.39062 1.1875,-0.51563 2.54688,-0.51563 0.375,0 0.9375,0.0625 0.57812,0.0625 1.23437,0.28125 0.65625,0.21875 1.35938,0.64063 0.70312,0.40625 1.34375,1.10937 l 0.0625,-0.0156 V 179 H 92.671875 v -2.29688 h 19.906255 z m -5.78125,8.42187 q -0.98438,-1.1875 -2.14063,-1.90625 -1.15625,-0.73437 -2.625,-0.73437 -1.15625,0 -1.96875,0.4375 -0.796875,0.4375 -1.3125,1.10937 -0.515625,0.65625 -0.75,1.46875 -0.234375,0.8125 -0.234375,1.5625 0,0.8125 0.265625,1.60938 0.265625,0.79687 0.78125,1.4375 0.53125,0.625 1.3125,1.03125 0.78125,0.39062 1.82813,0.39062 1.07812,0 1.96875,-0.40625 0.89062,-0.42187 1.53125,-1.0625 0.64062,-0.64062 0.98437,-1.4375 0.35938,-0.79687 0.35938,-1.54687 z M 120.89063,179 h -3.28125 v 21 h -2.5625 v -21 h -3.5625 v -2.29688 h 3.8125 q -0.28125,-1.59375 -0.71875,-2.71875 -0.4375,-1.14062 -0.95313,-1.89062 -0.51562,-0.76563 -1.07812,-1.20313 -0.5625,-0.4375 -1.07813,-0.65625 -0.53125,-0.21875 -0.98437,-0.28125 -0.46875,-0.0625 -0.76563,-0.0625 -0.96875,0 -1.54687,0.3125 -0.59375,0.29688 -0.90625,0.71875 -0.3125,0.42188 -0.40625,0.89063 -0.10938,0.45312 -0.10938,0.78125 0,0.125 0.0469,0.51562 0.0312,0.375 0.25,0.95313 0.20312,0.57812 0.64062,1.29687 0.4375,0.71875 1.23438,1.51563 h -2.65625 q -0.98438,-1.125 -1.46875,-2.32813 -0.5,-1.21875 -0.5,-2.35937 0,-0.95313 0.34375,-1.8125 0.34375,-0.85938 1.03125,-1.48438 0.6875,-0.64062 1.71875,-1.01562 1.03125,-0.375 2.39062,-0.375 1.875,0 3.23438,0.73437 1.35937,0.71875 2.28125,1.96875 0.9375,1.25 1.46875,2.9375 0.54687,1.67188 0.76562,3.5625 h 3.35938 z m 19.95312,0 h -3.28125 v 21 H 135 v -21 h -7.04687 v 12.125 q 0,0.25 -0.0312,0.57812 -0.0312,0.32813 -0.15625,0.64063 -0.10938,0.29687 -0.32813,0.51562 -0.21875,0.20313 -0.60937,0.20313 -0.42188,0 -0.9375,-0.26563 -0.5,-0.28125 -1.03125,-0.71875 -0.53125,-0.45312 -1.03125,-1.01562 -0.48438,-0.5625 -0.875,-1.15625 -0.39063,-0.59375 -0.625,-1.15625 -0.23438,-0.5625 -0.23438,-1 0,-0.39063 0.1875,-0.625 0.20313,-0.23438 0.54688,-0.35938 0.35937,-0.125 0.85937,-0.15625 0.51563,-0.0312 1.125,-0.0312 h 0.54688 V 179 h -5.5625 v -2.29688 h 21.04687 z m 8.3125,0 H 145.875 v 21 h -2.5625 V 179 H 139.75 v -2.29688 h 9.40625 z m 15.64062,0 h -5.89062 q 0.79687,1.375 1.28125,2.8125 0.5,1.42187 0.5,2.89062 0,1.10938 -0.34375,2.14063 -0.32813,1.01562 -0.98438,1.82812 -0.64062,0.79688 -1.60937,1.3125 -0.95313,0.5 -2.20313,0.5625 l -0.0312,0.0781 q 1.40625,2.1875 3.15625,4.14062 1.75,1.9375 4.04688,3.6875 l -1.67188,1.92188 q -1.32812,-0.98438 -2.53125,-2.125 -1.1875,-1.15625 -2.25,-2.375 -1.0625,-1.23438 -1.98437,-2.48438 -0.90625,-1.26562 -1.67188,-2.45312 -0.75,-1.20313 -1.34375,-2.29688 -0.59375,-1.10937 -1.01562,-2.01562 l 2.14062,-1.15625 q 0.5625,1.21875 1.26563,1.92187 0.71875,0.6875 1.65625,0.6875 0.67187,0 1.20312,-0.34375 0.53125,-0.34375 0.89063,-0.875 0.35937,-0.54687 0.54687,-1.1875 0.1875,-0.65625 0.1875,-1.28125 0,-0.73437 -0.1875,-1.4375 -0.1875,-0.71875 -0.48437,-1.39062 -0.29688,-0.6875 -0.67188,-1.32813 Q 156.4375,179.59375 156.09375,179 h -8.03125 v -2.29688 h 16.73437 z m 32.71875,0 h -3.28125 v 21 h -2.5625 v -13.5625 h -5.03125 L 186.625,186.5 q 0.1875,0.21875 0.5625,0.67187 0.375,0.4375 0.75,1.09375 0.375,0.64063 0.65625,1.46875 0.28125,0.8125 0.28125,1.76563 0,0.95312 -0.32813,1.89062 -0.3125,0.92188 -0.95312,1.67188 -0.625,0.73437 -1.59375,1.1875 -0.96875,0.45312 -2.25,0.45312 -1.26563,0 -2.32813,-0.4375 -1.04687,-0.45312 -1.92187,-1.20312 -0.85938,-0.75 -1.54688,-1.73438 -0.6875,-0.98437 -1.23437,-2.07812 -0.53125,-1.10938 -0.9375,-2.23438 -0.39063,-1.14062 -0.67188,-2.17187 -0.28125,-1.04688 -0.45312,-1.92188 -0.17188,-0.875 -0.26563,-1.45312 l 2.3125,-0.45313 q 0.51563,2.8125 1.25,4.9375 0.75,2.10938 1.65625,3.53125 0.90625,1.42188 1.95313,2.14063 1.04687,0.70312 2.1875,0.70312 0.8125,0 1.3125,-0.3125 0.5,-0.32812 0.78125,-0.78125 0.28125,-0.46875 0.375,-0.95312 0.10937,-0.5 0.10937,-0.85938 0,-0.64062 -0.26562,-1.35937 -0.25,-0.73438 -0.75,-1.45313 -0.48438,-0.73437 -1.21875,-1.40625 -0.73438,-0.67187 -1.6875,-1.21875 v -1.82812 h 9.26562 V 179 h -19.20312 v -2.29688 h 25.04687 z m 21.54688,0 h -3.28125 v 21 h -2.5625 v -8.76563 H 204.625 v 1.85938 q 0,0.48437 -0.0469,0.85937 -0.0312,0.375 -0.17187,0.625 -0.125,0.25 -0.375,0.39063 -0.23438,0.125 -0.64063,0.125 -0.40625,0 -0.90625,-0.23438 -0.5,-0.25 -1.01562,-0.65625 -0.51563,-0.42187 -1,-0.9375 -0.48438,-0.53125 -0.875,-1.09375 -0.375,-0.57812 -0.60938,-1.14062 Q 198.75,190.46875 198.75,190 q 0,-0.32813 0.10937,-0.53125 0.125,-0.21875 0.32813,-0.32813 0.21875,-0.10937 0.51562,-0.14062 0.29688,-0.0469 0.67188,-0.0469 h 1.6875 V 179 h -5.64063 v -2.29688 h 22.64063 z m -14.4375,0 v 9.95312 h 8.59375 V 179 Z m 22.75,0 h -3.28125 v 21 h -2.5625 v -21 h -3.5625 v -2.29688 h 3.8125 q -0.28125,-1.59375 -0.71875,-2.71875 -0.4375,-1.14062 -0.95313,-1.89062 -0.51562,-0.76563 -1.07812,-1.20313 -0.5625,-0.4375 -1.07813,-0.65625 -0.53125,-0.21875 -0.98437,-0.28125 -0.46875,-0.0625 -0.76563,-0.0625 -0.96875,0 -1.54687,0.3125 -0.59375,0.29688 -0.90625,0.71875 -0.3125,0.42188 -0.40625,0.89063 -0.10938,0.45312 -0.10938,0.78125 0,0.125 0.0469,0.51562 0.0312,0.375 0.25,0.95313 0.20312,0.57812 0.64062,1.29687 0.4375,0.71875 1.23438,1.51563 H 212.75 q -0.98438,-1.125 -1.46875,-2.32813 -0.5,-1.21875 -0.5,-2.35937 0,-0.95313 0.34375,-1.8125 0.34375,-0.85938 1.03125,-1.48438 0.6875,-0.64062 1.71875,-1.01562 1.03125,-0.375 2.39062,-0.375 1.875,0 3.23438,0.73437 1.35937,0.71875 2.28125,1.96875 0.9375,1.25 1.46875,2.9375 0.54687,1.67188 0.76562,3.5625 h 3.35938 z m 19.4375,0 h -3.28125 v 21 h -2.57813 v -12.04688 h -7.3125 q 0,1.03125 -0.0312,1.76563 -0.0156,0.73437 -0.125,1.21875 -0.10937,0.46875 -0.32812,0.6875 -0.21875,0.21875 -0.60938,0.21875 -0.8125,0 -1.54687,-0.53125 -0.71875,-0.53125 -1.28125,-1.28125 -0.54688,-0.75 -0.875,-1.5625 -0.32813,-0.8125 -0.32813,-1.375 0,-0.5 0.21875,-0.78125 0.21875,-0.28125 0.57813,-0.42188 0.35937,-0.14062 0.8125,-0.17187 0.46875,-0.0312 0.9375,-0.0312 h 9.89062 V 179 h -14.67187 v -2.29688 h 20.53125 z m 4.39062,17.4375 -2.5,7.6875 H 246.875 l 1.82812,-7.6875 z m 14.40625,-10.25 q 0.23438,0.73437 0.54688,1.60937 0.3125,0.85938 0.73437,1.75 0.4375,0.875 0.96875,1.70313 0.54688,0.82812 1.23438,1.46875 0.70312,0.64062 1.54687,1.03125 0.84375,0.375 1.875,0.375 1.01563,0 1.71875,-0.29688 0.70313,-0.29687 1.14063,-0.79687 0.4375,-0.5 0.625,-1.17188 0.20312,-0.67187 0.20312,-1.40625 0,-1.60937 -1.17187,-2.51562 -1.15625,-0.90625 -3.35938,-0.90625 -0.26562,0 -0.53125,0.0156 -0.26562,0.0156 -0.53125,0.0469 v -2.375 q 0.125,0.0156 0.21875,0.0156 0.10938,0 0.125,0 1.09375,0 1.9375,-0.26562 0.85938,-0.28125 1.4375,-0.75 0.57813,-0.46875 0.875,-1.09375 Q 275.5,182 275.5,181.3125 q 0,-0.625 -0.21875,-1.10938 -0.21875,-0.48437 -0.59375,-0.8125 -0.375,-0.32812 -0.89063,-0.48437 -0.51562,-0.17188 -1.125,-0.17188 -0.42187,0 -0.8125,0.0625 -0.39062,0.0469 -0.82812,0.17188 -0.4375,0.10937 -0.9375,0.29687 -0.48438,0.1875 -1.10938,0.46875 l -0.89062,-2.14062 q 1.21875,-0.59375 2.34375,-0.89063 1.125,-0.3125 2.29687,-0.3125 1.125,0 2.07813,0.35938 0.96875,0.35937 1.65625,1 0.70312,0.625 1.09375,1.5 0.39062,0.875 0.39062,1.89062 0,2.79688 -2.67187,4.5 v 0.0625 q 1.04687,0.4375 1.75,1.07813 0.45312,0.0781 0.95312,0.125 0.51563,0.0469 0.9375,0.0469 0.4375,0 0.92188,-0.0625 0.48437,-0.0625 0.98437,-0.23437 0.51563,-0.17188 1.03125,-0.48438 0.53125,-0.3125 1.0625,-0.8125 v -8.65625 h 5.84375 V 179 h -3.28125 v 21 h -2.5625 v -11.875 l -0.0625,-0.0156 q -0.89062,0.59375 -1.67187,0.78125 -0.78125,0.1875 -1.60938,0.1875 -0.26562,0 -0.54687,-0.0156 Q 278.75,189.03125 278.45312,189 l -0.0156,0.0625 q 0.25,0.64062 0.25,1.57812 0,1.26563 -0.42188,2.34375 -0.42187,1.07813 -1.21875,1.875 -0.78125,0.78125 -1.90625,1.21875 -1.10937,0.4375 -2.5,0.4375 -1.48437,0 -2.6875,-0.51562 -1.1875,-0.53125 -2.15625,-1.35938 -0.95312,-0.82812 -1.67187,-1.85937 -0.71875,-1.04688 -1.23438,-2.09375 -0.51562,-1.04688 -0.84375,-1.98438 Q 263.71875,187.75 263.5625,187.125 Z M 297.07812,179 h -3.28125 v 21 h -2.5625 v -21 h -3.5625 v -2.29688 h 9.40625 z m 27.625,0 H 311.5 v 6.15625 l 0.0781,0.0312 q 0.79688,-1.09375 1.98438,-1.75 1.1875,-0.67188 2.60937,-0.67188 1.125,0 2.07813,0.46875 0.96875,0.45313 1.67187,1.26563 0.70313,0.79687 1.09375,1.89062 0.40625,1.09375 0.40625,2.35938 0,1.4375 -0.5,2.65625 -0.5,1.20312 -1.28125,2.1875 -0.78125,0.98437 -1.76562,1.75 -0.98438,0.75 -1.9375,1.28125 l -1.39063,-2.40625 q 0.3125,-0.17188 0.76563,-0.45313 0.45312,-0.28125 0.9375,-0.65625 0.5,-0.375 0.96875,-0.84375 0.48437,-0.48437 0.85937,-1.04687 0.39063,-0.5625 0.625,-1.21875 0.23438,-0.65625 0.23438,-1.39063 0,-0.67187 -0.21875,-1.28125 -0.20313,-0.60937 -0.57813,-1.0625 -0.375,-0.45312 -0.90625,-0.71875 -0.51562,-0.26562 -1.14062,-0.26562 -0.8125,0 -1.57813,0.42187 -0.76562,0.42188 -1.39062,1.0625 -0.625,0.625 -1.0625,1.34375 -0.42188,0.71875 -0.5625,1.32813 V 200 h -2.5625 v -5.98438 l -0.0625,-0.0312 q -0.23438,0.20313 -0.59375,0.5 -0.35938,0.28125 -0.875,0.54688 -0.5,0.26562 -1.17188,0.45312 -0.65625,0.1875 -1.48437,0.1875 -1.375,0 -2.54688,-0.53125 -1.15625,-0.53125 -2.01562,-1.4375 -0.84375,-0.92187 -1.32813,-2.15625 -0.48437,-1.23437 -0.48437,-2.64062 0,-1.34375 0.4375,-2.48438 0.45312,-1.14062 1.21875,-1.95312 0.78125,-0.82813 1.8125,-1.28125 1.04687,-0.46875 2.25,-0.46875 0.84375,0 1.5625,0.21875 0.73437,0.20312 1.32812,0.51562 0.60938,0.29688 1.07813,0.65625 0.48437,0.34375 0.8125,0.625 l 0.0625,-0.0156 V 179 h -12.95313 v -2.29688 h 28.71875 z m -20.23437,6.15625 q -0.89063,0 -1.57813,0.375 -0.67187,0.35937 -1.125,0.9375 -0.45312,0.5625 -0.6875,1.28125 -0.21875,0.70312 -0.21875,1.39062 0,0.75 0.26563,1.5 0.26562,0.73438 0.75,1.32813 0.5,0.59375 1.1875,0.96875 0.6875,0.35937 1.51562,0.35937 0.70313,0 1.46875,-0.28125 0.78125,-0.29687 1.42188,-0.90625 0.65625,-0.60937 1.07812,-1.54687 0.42188,-0.95313 0.42188,-2.26563 v -0.76562 q -0.375,-0.46875 -0.89063,-0.89063 -0.5,-0.4375 -1.09375,-0.76562 -0.57812,-0.32813 -1.21875,-0.51563 -0.64062,-0.20312 -1.29687,-0.20312 z M 333.01562,179 h -3.28125 v 21 h -2.5625 v -21 h -3.5625 v -2.29688 h 9.40625 z m 9.59375,8.5 q -0.28125,0.0312 -0.53125,0.0625 -0.25,0.0156 -0.51562,0.0156 -1.26563,0 -2.29688,-0.45312 -1.01562,-0.45313 -1.75,-1.21875 -0.71875,-0.76563 -1.10937,-1.76563 -0.39063,-1.01562 -0.39063,-2.125 0,-0.79687 0.21875,-1.54687 0.21875,-0.75 0.6875,-1.40625 L 336.90625,179 h -4.98438 v -2.29688 h 26.125 V 179 h -3.28125 v 21 h -2.5625 v -21 h -5.89062 l -0.0156,0.0625 q 0.40625,0.40625 0.75,0.98437 0.34375,0.5625 0.57813,1.23438 0.25,0.67187 0.39062,1.40625 0.14063,0.73437 0.14063,1.48437 0,1.21875 -0.39063,2.35938 -0.375,1.14062 -1.07812,2.15625 -0.6875,1.01562 -1.67188,1.89062 -0.96875,0.85938 -2.15625,1.53125 v 0.0625 q 0.78125,0.60938 1.67188,1.46875 0.89062,0.84375 1.76562,1.76563 0.875,0.92187 1.65625,1.84375 0.78125,0.90625 1.34375,1.65625 l -1.76562,1.48437 q -0.48438,-0.60937 -1.21875,-1.48437 -0.73438,-0.89063 -1.64063,-1.84375 -0.90625,-0.96875 -1.96875,-1.92188 -1.04687,-0.96875 -2.1875,-1.75 -0.5625,0.26563 -1.1875,0.39063 -0.60937,0.125 -1.21875,0.125 -0.70312,0 -1.35937,-0.17188 -0.64063,-0.17187 -1.15625,-0.5 -0.5,-0.32812 -0.79688,-0.79687 -0.29687,-0.48438 -0.29687,-1.10938 0,-0.98437 0.71875,-1.51562 0.73437,-0.54688 1.90625,-0.54688 0.85937,0 1.73437,0.3125 0.89063,0.29688 1.73438,0.90625 0.4375,-0.0937 0.98437,-0.32812 0.54688,-0.25 1.10938,-0.625 0.57812,-0.39063 1.10937,-0.90625 0.54688,-0.53125 0.96875,-1.20313 0.42188,-0.67187 0.67188,-1.46875 0.26562,-0.8125 0.26562,-1.75 0,-0.9375 -0.28125,-1.84375 -0.26562,-0.90625 -0.79687,-1.60937 -0.53125,-0.71875 -1.32813,-1.15625 -0.79687,-0.4375 -1.84375,-0.4375 -0.82812,0 -1.375,0.26562 -0.54687,0.25 -0.89062,0.65625 -0.34375,0.40625 -0.48438,0.90625 -0.14062,0.48438 -0.14062,0.95313 0,0.60937 0.21875,1.20312 0.21875,0.57813 0.64062,1.04688 0.4375,0.45312 1.07813,0.73437 0.64062,0.28125 1.46875,0.28125 0.26562,0 0.64062,-0.0469 z M 375.125,179 h -3.28125 v 21 h -2.5625 v -21 h -3.5625 v -2.29688 h 3.5625 q -0.85938,-2.0625 -0.85938,-3.84375 0,-1.14062 0.375,-2.125 0.375,-0.98437 1.14063,-1.70312 0.78125,-0.71875 1.98437,-1.125 1.20313,-0.40625 2.85938,-0.40625 2.17187,0 4.17187,0.70312 2.01563,0.70313 3.9375,1.95313 1.92188,1.25 3.79688,2.96875 1.89062,1.71875 3.8125,3.75 h -2.71875 q -0.4375,-0.42188 -1.17188,-1.09375 -0.71875,-0.6875 -1.67187,-1.45313 -0.95313,-0.78125 -2.10938,-1.5625 -1.15625,-0.79687 -2.4375,-1.4375 -1.28125,-0.64062 -2.67187,-1.03125 -1.375,-0.40625 -2.78125,-0.40625 -1.14063,0 -1.92188,0.26563 -0.76562,0.26562 -1.25,0.73437 -0.46875,0.46875 -0.67187,1.10938 -0.20313,0.625 -0.20313,1.34375 0,1.40625 0.76563,3.35937 h 3.46875 z m 19.4375,0 h -3.28125 v 21 h -2.57813 v -12.04688 h -7.3125 q 0,1.03125 -0.0312,1.76563 -0.0156,0.73437 -0.125,1.21875 -0.10937,0.46875 -0.32812,0.6875 -0.21875,0.21875 -0.60938,0.21875 -0.8125,0 -1.54687,-0.53125 -0.71875,-0.53125 -1.28125,-1.28125 -0.54688,-0.75 -0.875,-1.5625 -0.32813,-0.8125 -0.32813,-1.375 0,-0.5 0.21875,-0.78125 0.21875,-0.28125 0.57813,-0.42188 0.35937,-0.14062 0.8125,-0.17187 0.46875,-0.0312 0.9375,-0.0312 h 9.89062 V 179 h -14.67187 v -2.29688 h 20.53125 z m 7.51562,17.46875 q -1.39062,0 -2.53125,-0.51563 -1.14062,-0.51562 -1.96875,-1.42187 -0.8125,-0.92188 -1.26562,-2.15625 -0.45313,-1.25 -0.45313,-2.6875 0,-1.5625 0.48438,-2.8125 0.48437,-1.26563 1.32812,-2.15625 0.85938,-0.89063 2,-1.35938 1.15625,-0.48437 2.48438,-0.48437 1.70312,0 3.21875,0.8125 1.51562,0.79687 3.03125,2.35937 0.70312,-1.09375 1.64062,-1.89062 0.9375,-0.8125 2.3125,-1.0625 V 179 h -18.89062 v -2.29688 h 29.26562 V 179 h -7.82812 v 4.17187 q 1.04687,0.25 1.89062,0.82813 0.84375,0.57812 1.42188,1.39062 0.59375,0.8125 0.90625,1.82813 0.32812,1 0.32812,2.10937 0,1.625 -0.5625,2.95313 -0.54687,1.32812 -1.48437,2.29687 -0.92188,0.95313 -2.10938,1.48438 -1.1875,0.51562 -2.45312,0.51562 -1.64063,0 -3.0625,-0.76562 -1.42188,-0.76563 -2.8125,-2.10938 -0.40625,0.59375 -0.90625,1.10938 -0.48438,0.5 -1.07813,0.875 -0.59375,0.35937 -1.3125,0.57812 -0.71875,0.20313 -1.59375,0.20313 z m 0.32813,-11.3125 q -0.9375,0 -1.6875,0.375 -0.73438,0.35937 -1.26563,0.98437 -0.53125,0.60938 -0.8125,1.45313 -0.28125,0.82812 -0.28125,1.76562 0,0.8125 0.23438,1.59375 0.23437,0.78125 0.6875,1.39063 0.46875,0.60937 1.15625,0.98437 0.6875,0.375 1.57812,0.375 1.09375,0 1.85938,-0.54687 0.78125,-0.5625 1.375,-1.45313 0.60937,-0.89062 1.10937,-2 0.5,-1.125 1.04688,-2.25 -1.1875,-1.375 -2.46875,-2.01562 -1.26563,-0.65625 -2.53125,-0.65625 z m 10.0625,9.03125 q 0.90625,0 1.71875,-0.28125 0.8125,-0.29688 1.42187,-0.875 0.625,-0.59375 0.98438,-1.46875 0.375,-0.89063 0.375,-2.09375 0,-0.76563 -0.20313,-1.51563 -0.1875,-0.75 -0.59375,-1.34375 -0.40625,-0.59375 -1.04687,-0.95312 -0.625,-0.375 -1.48438,-0.375 -0.76562,0 -1.375,0.29687 -0.60937,0.28125 -1.10937,0.78125 -0.5,0.48438 -0.92188,1.15625 -0.40625,0.65625 -0.78125,1.42188 -0.375,0.75 -0.75,1.5625 -0.35937,0.79687 -0.76562,1.57812 0.39062,0.39063 0.875,0.76563 0.5,0.375 1.0625,0.67187 0.57812,0.29688 1.23437,0.48438 0.65625,0.1875 1.35938,0.1875 z m 2.21875,-17.04688 h -2.26563 L 411,174.46875 q -0.90625,-1.70313 -1.64063,-2.70313 -0.75,-1 -1.40625,-1.51562 -0.67187,-0.53125 -1.3125,-0.67188 -0.64062,-0.15625 -1.34375,-0.15625 h -3.03125 v -2.53125 h 2.85938 q 0.90625,0 1.64062,0.15625 0.73438,0.14063 1.40625,0.53125 0.65625,0.375 1.29688,1.0625 0.625,0.67188 1.34375,1.75 0.71875,1.0625 1.57812,2.5625 0.84375,1.48438 1.9375,3.51563 z m 12.4375,19.29688 -2.5,7.6875 h -1.82813 l 1.82813,-7.6875 z"
         id="path6" />
      <path
         d="M 73.59375,226.70312 V 229 H 70.3125 v 21 h -2.59375 v -10.5 h -9.046875 q -0.828125,0.54687 -1.984375,0.65625 l -0.03125,0.0781 q 1.515625,2.375 3.328125,4.42188 1.8125,2.04687 4.125,3.79687 L 62.4375,250.375 q -1.328125,-0.98438 -2.53125,-2.125 -1.1875,-1.14063 -2.25,-2.35938 -1.046875,-1.23437 -1.96875,-2.48437 -0.921875,-1.26563 -1.6875,-2.48438 -0.765625,-1.21875 -1.375,-2.34375 -0.609375,-1.14062 -1.0625,-2.10937 l 2.140625,-1.15625 Q 54,236 54.28125,236.46875 q 0.296875,0.45312 0.59375,0.73437 0.296875,0.26563 0.625,0.39063 0.328125,0.10937 0.703125,0.10937 1.078125,0 1.578125,-0.84375 0.515625,-0.84375 0.515625,-2.21875 0,-0.8125 -0.15625,-1.59375 -0.15625,-0.79687 -0.40625,-1.51562 Q 57.5,230.79687 57.21875,230.15625 56.9375,229.51562 56.6875,229 h -7.234375 v -2.29688 z M 67.71875,229 h -8.328125 q 0.65625,1.42187 1.03125,2.85937 0.375,1.4375 0.375,2.85938 0,0.65625 -0.109375,1.29687 -0.09375,0.625 -0.328125,1.1875 l 0.03125,0.0312 h 7.328125 z m 14.1875,0 H 78.625 v 21 H 76.0625 V 229 H 72.5 v -2.29688 h 9.40625 z m -3.390625,-1.85938 H 76.4375 l -0.5625,-0.5 q -1.21875,-1.07812 -2.15625,-1.8125 -0.921875,-0.75 -1.640625,-1.23437 -0.71875,-0.48438 -1.28125,-0.75 -0.5625,-0.26563 -1.046875,-0.39063 -0.484375,-0.125 -0.9375,-0.14062 -0.453125,-0.0312 -0.953125,-0.0312 h -3 v -2.21875 h 2.78125 q 0.6875,0 1.265625,0.0937 0.578125,0.0781 1.125,0.29687 0.53125,0.20313 1.078125,0.54688 0.546875,0.32812 1.203125,0.84375 0.640625,0.51562 1.421875,1.21875 0.796875,0.70312 1.8125,1.625 l 0.09375,-0.0625 q -0.90625,-1.48438 -1.609375,-2.5625 -0.703125,-1.09375 -1.28125,-1.84375 -0.578125,-0.76563 -1.0625,-1.25 -0.484375,-0.48438 -0.9375,-0.75 -0.453125,-0.26563 -0.921875,-0.35938 -0.46875,-0.0937 -1.015625,-0.0937 h -3.03125 v -2.29687 h 2.859375 q 0.90625,0 1.625,0.17187 0.703125,0.17188 1.359375,0.625 0.640625,0.45313 1.28125,1.23438 0.640625,0.78125 1.390625,2.01562 0.765625,1.21875 1.6875,2.9375 0.9375,1.70313 2.171875,4.01563 z m -0.75,-5.20312 q 0,-0.89063 0.53125,-1.4375 0.515625,-0.5625 1.359375,-0.5625 0.390625,0 0.75,0.15625 0.34375,0.15625 0.609375,0.4375 0.265625,0.26562 0.421875,0.64062 0.140625,0.35938 0.140625,0.79688 0,0.89062 -0.515625,1.4375 -0.53125,0.54687 -1.375,0.54687 -0.40625,0 -0.75,-0.14062 -0.359375,-0.15625 -0.609375,-0.42188 -0.265625,-0.28125 -0.40625,-0.64062 -0.15625,-0.375 -0.15625,-0.8125 z M 101.82813,229 h -5.29688 v 6.85937 h -5.265625 q -2.453125,0 -3.703125,1.21875 -1.25,1.20313 -1.25,3.46875 0,1.28125 0.40625,2.26563 0.421875,0.98437 1.140625,1.65625 0.734375,0.65625 1.734375,1 1,0.34375 2.171875,0.34375 1.234375,0 1.984375,-0.375 -0.0625,-0.39063 -0.09375,-0.6875 -0.03125,-0.29688 -0.03125,-0.59375 0,-0.65625 0.15625,-1.34375 0.171875,-0.70313 0.5,-1.26563 0.34375,-0.57812 0.859375,-0.9375 0.53125,-0.35937 1.265625,-0.35937 0.453125,0 0.859375,0.15625 0.40625,0.15625 0.703125,0.48437 0.3125,0.3125 0.484375,0.79688 0.1875,0.48437 0.1875,1.125 0,0.64062 -0.171875,1.1875 -0.171875,0.53125 -0.453125,1 -0.265625,0.45312 -0.609375,0.85937 -0.34375,0.39063 -0.671875,0.71875 0.34375,0.75 0.71875,1.34375 0.390625,0.59375 0.796875,1.0625 0.421875,0.46875 0.84375,0.84375 0.421875,0.375 0.84375,0.70313 l -1.921875,2.01562 q -0.828125,-0.73437 -1.421875,-1.46875 -0.578125,-0.71875 -0.984375,-1.35937 -0.390625,-0.64063 -0.640625,-1.15625 -0.25,-0.51563 -0.40625,-0.82813 -1.078125,0.42188 -2.65625,0.42188 -2.03125,0 -3.546875,-0.65625 -1.515625,-0.67188 -2.53125,-1.78125 -1,-1.125 -1.5,-2.5625 -0.5,-1.4375 -0.5,-2.98438 0,-1.60937 0.515625,-2.82812 0.515625,-1.23438 1.4375,-2.0625 0.921875,-0.84375 2.1875,-1.26563 1.28125,-0.4375 2.796875,-0.4375 H 93.96875 V 229 H 80.8125 v -2.29688 h 21.01563 z m 19.90625,0 h -3.28125 v 21 h -2.5625 v -7.3125 l -0.0625,-0.0156 q -0.42188,0.34375 -1.01563,0.6875 -0.57812,0.32813 -1.29687,0.59375 -0.71875,0.25 -1.54688,0.42188 -0.82812,0.15625 -1.73437,0.15625 -1.8125,0 -3.10938,-0.65625 -1.28125,-0.65625 -2.15625,-1.75 -0.85937,-1.10938 -1.35937,-2.51563 -0.5,-1.42187 -0.71875,-2.95312 1.03125,-0.14063 1.76562,-0.48438 0.73438,-0.34375 1.1875,-0.8125 0.45313,-0.48437 0.65625,-1.04687 0.21875,-0.5625 0.21875,-1.125 0,-0.375 -0.0781,-0.84375 -0.0625,-0.46875 -0.23438,-1 -0.17187,-0.54688 -0.45312,-1.14063 Q 105.67188,229.60937 105.25,229 h -4.51562 v -2.29688 h 21 z m -13.71875,0 q 0.5625,0.95312 0.875,2.09375 0.32812,1.125 0.32812,2.21875 0,0.79687 -0.21875,1.54687 -0.20312,0.75 -0.64062,1.40625 -0.4375,0.64063 -1.09375,1.15625 -0.64063,0.5 -1.5,0.79688 0.25,1.04687 0.6875,1.79687 0.4375,0.73438 1.03125,1.21875 0.59375,0.46875 1.32812,0.6875 0.73438,0.21875 1.57813,0.21875 0.8125,0 1.59375,-0.1875 0.79687,-0.1875 1.5,-0.53125 0.71875,-0.35937 1.32812,-0.85937 0.60938,-0.5 1.07813,-1.125 V 229 Z m 13.29687,-9.125 q -0.6875,-0.78125 -1.28125,-1.14063 -0.59375,-0.35937 -1.39062,-0.35937 -1.21875,0 -1.95313,0.84375 -0.73437,0.82812 -0.73437,2.34375 0,0.625 0.14062,1.3125 0.14063,0.67187 0.40625,1.35937 0.26563,0.6875 0.65625,1.35938 0.39063,0.67187 0.89063,1.28125 h -2.59375 q -0.9375,-1.32813 -1.40625,-2.71875 -0.46875,-1.40625 -0.46875,-2.73438 0,-1.28125 0.42187,-2.29687 0.40625,-1.01563 1.09375,-1.70313 0.6875,-0.6875 1.60938,-1.04687 0.90625,-0.375 1.92187,-0.375 1.35938,0 2.42188,0.54687 1.07812,0.53125 2.01562,1.71875 z m 12.28125,16.3125 q 0.23437,0.73437 0.54687,1.60937 0.3125,0.85938 0.73438,1.75 0.4375,0.875 0.96875,1.70313 0.54687,0.82812 1.23437,1.46875 0.70313,0.64062 1.54688,1.03125 0.84375,0.375 1.875,0.375 1.01562,0 1.71875,-0.29688 0.70312,-0.29687 1.14062,-0.79687 0.4375,-0.5 0.625,-1.17188 0.20313,-0.67187 0.20313,-1.40625 0,-1.60937 -1.17188,-2.51562 -1.15625,-0.90625 -3.35937,-0.90625 -0.26563,0 -0.53125,0.0156 -0.26563,0.0156 -0.53125,0.0469 v -2.375 q 0.125,0.0156 0.21875,0.0156 0.10937,0 0.125,0 1.09375,0 1.9375,-0.26562 0.85937,-0.28125 1.4375,-0.75 0.57812,-0.46875 0.875,-1.09375 0.29687,-0.625 0.29687,-1.3125 0,-0.625 -0.21875,-1.10938 -0.21875,-0.48437 -0.59375,-0.8125 -0.375,-0.32812 -0.89062,-0.48437 -0.51563,-0.17188 -1.125,-0.17188 -0.42188,0 -0.8125,0.0625 -0.39063,0.0469 -0.82813,0.17188 -0.4375,0.10937 -0.9375,0.29687 -0.48437,0.1875 -1.10937,0.46875 l -0.89063,-2.14062 q 1.21875,-0.59375 2.34375,-0.89063 1.125,-0.3125 2.29688,-0.3125 1.125,0 2.07812,0.35938 0.96875,0.35937 1.65625,1 0.70313,0.625 1.09375,1.5 0.39063,0.875 0.39063,1.89062 0,2.79688 -2.67188,4.5 v 0.0625 q 1.04688,0.4375 1.75,1.07813 0.45313,0.0781 0.95313,0.125 0.51562,0.0469 0.9375,0.0469 0.4375,0 0.92187,-0.0625 0.48438,-0.0625 0.98438,-0.23437 0.51562,-0.17188 1.03125,-0.48438 0.53125,-0.3125 1.0625,-0.8125 v -8.65625 H 156.75 V 229 h -3.28125 v 21 h -2.5625 v -11.875 l -0.0625,-0.0156 q -0.89063,0.59375 -1.67188,0.78125 -0.78125,0.1875 -1.60937,0.1875 -0.26563,0 -0.54688,-0.0156 -0.28125,-0.0312 -0.57812,-0.0625 l -0.0156,0.0625 q 0.25,0.64062 0.25,1.57812 0,1.26563 -0.42187,2.34375 -0.42188,1.07813 -1.21875,1.875 -0.78125,0.78125 -1.90625,1.21875 -1.10938,0.4375 -2.5,0.4375 -1.48438,0 -2.6875,-0.51562 -1.1875,-0.53125 -2.15625,-1.35938 -0.95313,-0.82812 -1.67188,-1.85937 -0.71875,-1.04688 -1.23437,-2.09375 -0.51563,-1.04688 -0.84375,-1.98438 -0.32813,-0.95312 -0.48438,-1.57812 z M 176.1875,229 h -3.28125 v 21 h -2.57813 v -12.04688 h -7.3125 q 0,1.03125 -0.0312,1.76563 -0.0156,0.73437 -0.125,1.21875 -0.10937,0.46875 -0.32812,0.6875 -0.21875,0.21875 -0.60938,0.21875 -0.8125,0 -1.54687,-0.53125 -0.71875,-0.53125 -1.28125,-1.28125 -0.54688,-0.75 -0.875,-1.5625 -0.32813,-0.8125 -0.32813,-1.375 0,-0.5 0.21875,-0.78125 0.21875,-0.28125 0.57813,-0.42188 0.35937,-0.14062 0.8125,-0.17187 0.46875,-0.0312 0.9375,-0.0312 h 9.89062 V 229 h -14.67187 v -2.29688 h 20.53125 z m 8.3125,0 h -3.28125 v 21 h -2.5625 v -21 h -3.5625 v -2.29688 H 184.5 Z m -3.5,-1.85938 h -2.26563 l -1.42187,-2.67187 q -0.90625,-1.70313 -1.65625,-2.70313 -0.73438,-1 -1.39063,-1.51562 -0.67187,-0.53125 -1.3125,-0.67188 -0.64062,-0.15625 -1.34375,-0.15625 h -3.03125 v -2.53125 h 2.85938 q 0.90625,0 1.64062,0.15625 0.73438,0.14063 1.40625,0.53125 0.65625,0.375 1.28125,1.0625 0.64063,0.67188 1.35938,1.75 0.71875,1.0625 1.5625,2.5625 0.85937,1.48438 1.95312,3.51563 z m 22.78125,22.51563 q -0.71875,0.26562 -1.76563,0.45312 -1.04687,0.1875 -2.375,0.1875 -2.48437,0 -4.4375,-0.85937 -1.95312,-0.85938 -3.625,-2.51563 -1.65625,-1.65625 -3.17187,-4.09375 -1.5,-2.4375 -3.09375,-5.57812 l 2.07812,-1.1875 q 0.59375,1.125 1.10938,1.60937 0.53125,0.46875 1.17187,0.46875 0.53125,0 0.92188,-0.29687 0.40625,-0.29688 0.65625,-0.76563 0.26562,-0.48437 0.39062,-1.09375 0.14063,-0.60937 0.14063,-1.21875 0,-0.70312 -0.15625,-1.46875 -0.15625,-0.76562 -0.42188,-1.51562 -0.26562,-0.75 -0.625,-1.45313 -0.34375,-0.71875 -0.73437,-1.3125 V 229 h -6.4375 v -2.29688 H 211.5625 V 229 h -3.28125 v 21 h -2.5625 v -7.59375 l -0.0625,-0.0156 q -0.85938,0.84375 -1.90625,1.25 -1.04688,0.40625 -2.07813,0.40625 -1.28125,0 -2.35937,-0.53125 -1.07813,-0.53125 -1.85938,-1.40625 -0.78125,-0.875 -1.21875,-2 -0.4375,-1.125 -0.4375,-2.32812 0,-1.14063 0.39063,-2.20313 0.40625,-1.0625 1.10937,-1.875 0.71875,-0.82812 1.6875,-1.3125 0.98438,-0.48437 2.15625,-0.48437 0.67188,0 1.28125,0.15625 0.60938,0.15625 1.17188,0.4375 0.5625,0.28125 1.07812,0.67187 0.51563,0.375 0.98438,0.8125 l 0.0625,-0.0156 V 229 h -13.14063 q 0.79688,1.51562 1.25,2.96875 0.45313,1.4375 0.45313,2.90625 0,1 -0.25,1.98437 -0.25,0.98438 -0.78125,1.78125 -0.51563,0.79688 -1.32813,1.32813 -0.8125,0.53125 -1.9375,0.625 v 0.0781 q 1.07813,2.10938 2.25,3.48438 1.1875,1.35937 2.40625,2.15625 1.21875,0.79687 2.4375,1.10937 1.23438,0.3125 2.40625,0.3125 1.32813,0 2.39063,-0.26562 1.0625,-0.28125 1.90625,-0.625 z m 1.95312,-12.76563 q -0.28125,-0.35937 -0.70312,-0.8125 -0.40625,-0.46875 -0.9375,-0.875 -0.51563,-0.40625 -1.15625,-0.67187 -0.625,-0.28125 -1.35938,-0.28125 -0.75,0 -1.35937,0.3125 -0.59375,0.29687 -1.03125,0.79687 -0.4375,0.5 -0.67188,1.17188 -0.23437,0.65625 -0.23437,1.375 0,0.75 0.25,1.4375 0.25,0.67187 0.6875,1.1875 0.45312,0.51562 1.07812,0.82812 0.625,0.29688 1.375,0.29688 0.57813,0 1.28125,-0.21875 0.71875,-0.21875 1.32813,-0.71875 0.625,-0.5 1.03125,-1.32813 0.42187,-0.82812 0.42187,-2.04687 z m 2.32813,-9.75 h -2.26563 l -1.42187,-2.67187 q -0.90625,-1.70313 -1.64063,-2.70313 -0.75,-1 -1.40625,-1.51562 -0.67187,-0.53125 -1.3125,-0.67188 -0.64062,-0.15625 -1.34375,-0.15625 h -3.03125 v -2.53125 H 198.5 q 0.90625,0 1.64062,0.15625 0.73438,0.14063 1.40625,0.53125 0.65625,0.375 1.29688,1.0625 0.625,0.67188 1.34375,1.75 0.71875,1.0625 1.57812,2.5625 0.84375,1.48438 1.9375,3.51563 z m 7.89062,19.29688 -2.5,7.6875 H 211.625 l 1.82812,-7.6875 z M 250.20312,229 h -3.28125 v 21 h -2.5625 v -8.76563 h -8.20312 v 2.23438 q 0,0.23437 -0.0469,0.5 -0.0312,0.26562 -0.15625,0.5 -0.10937,0.21875 -0.3125,0.375 -0.1875,0.14062 -0.48437,0.14062 -0.35938,0 -0.85938,-0.21875 -0.48437,-0.23437 -1.01562,-0.60937 -0.51563,-0.39063 -1.03125,-0.875 -0.5,-0.5 -0.90625,-1.03125 -0.39063,-0.53125 -0.64063,-1.0625 -0.25,-0.53125 -0.25,-0.98438 0,-0.65625 0.46875,-0.95312 0.46875,-0.29688 1.23438,-0.29688 h 1.51562 V 230.375 q 0,-0.8125 -0.39062,-1.23438 -0.39063,-0.4375 -0.98438,-0.4375 -0.65625,0 -1.10937,0.48438 -0.4375,0.48437 -0.4375,1.23437 0,0.14063 0.0312,0.34375 0.0312,0.20313 0.15625,0.46875 0.125,0.25 0.375,0.57813 0.25,0.3125 0.67187,0.67187 l -1.39062,1.70313 q -0.71875,-0.39063 -1.17188,-0.85938 -0.45312,-0.48437 -0.70312,-0.98437 -0.25,-0.5 -0.34375,-0.96875 -0.0937,-0.48438 -0.0937,-0.89063 0,-0.75 0.25,-1.46875 0.26562,-0.73437 0.78125,-1.3125 0.51562,-0.59375 1.28125,-0.95312 0.78125,-0.35938 1.8125,-0.35938 0.90625,0 1.60937,0.29688 0.70313,0.29687 1.17188,0.85937 0.48437,0.54688 0.71875,1.32813 0.25,0.76562 0.25,1.71875 v 8.35937 h 8.20312 v -12.25 h 5.84375 z m -3.5,-1.85938 h -2.26562 l -1.42188,-2.67187 q -0.90625,-1.70313 -1.64062,-2.70313 -0.75,-1 -1.40625,-1.51562 -0.67188,-0.53125 -1.3125,-0.67188 -0.64063,-0.15625 -1.34375,-0.15625 h -3.03125 v -2.53125 h 2.85937 q 0.90625,0 1.64063,0.15625 0.73437,0.14063 1.40625,0.53125 0.65625,0.375 1.29687,1.0625 0.625,0.67188 1.34375,1.75 0.71875,1.0625 1.57813,2.5625 0.84375,1.48438 1.9375,3.51563 z m 19.46875,20.28125 q -1.26562,0.75 -2.6875,1.125 -1.42187,0.375 -2.84375,0.375 -1.9375,0 -3.51562,-0.64062 -1.5625,-0.65625 -2.6875,-1.79688 -1.10938,-1.15625 -1.71875,-2.70312 -0.59375,-1.54688 -0.59375,-3.35938 0,-1.71875 0.53125,-3 0.54687,-1.28125 1.48437,-2.125 0.9375,-0.85937 2.20313,-1.28125 1.28125,-0.42187 2.75,-0.42187 h 3.04687 V 229 h -13.03125 v -2.29688 h 20 V 229 h -4.40625 v 6.875 h -5.04687 q -1.125,0 -2.0625,0.3125 -0.92188,0.3125 -1.59375,0.92187 -0.65625,0.60938 -1.03125,1.51563 -0.35938,0.89062 -0.35938,2.07812 0,1.29688 0.42188,2.35938 0.4375,1.0625 1.20312,1.82812 0.78125,0.76563 1.84375,1.1875 1.07813,0.42188 2.35938,0.42188 0.76562,0 1.54687,-0.15625 0.78125,-0.15625 1.51563,-0.42188 0.73437,-0.26562 1.40625,-0.60937 0.6875,-0.34375 1.26562,-0.73438 z M 288.6875,229 h -3.28125 v 21 h -2.54688 v -13.71875 h -5.07812 q -1.04688,0 -1.89063,0.14062 -0.84375,0.125 -1.4375,0.53125 -0.59375,0.39063 -0.92187,1.10938 -0.3125,0.70312 -0.3125,1.85937 0,1.5 0.48437,2.76563 0.5,1.26562 1.26563,2.32812 0.76562,1.04688 1.6875,1.9375 0.9375,0.89063 1.79687,1.64063 l -1.5625,1.78125 q -0.14062,-0.0781 -0.67187,-0.45313 -0.51563,-0.39062 -1.21875,-1.04687 -0.6875,-0.65625 -1.46875,-1.59375 -0.76563,-0.9375 -1.42188,-2.10938 -0.64062,-1.1875 -1.07812,-2.60937 -0.42188,-1.42188 -0.42188,-3.0625 0,-1.625 0.45313,-2.6875 0.46875,-1.07813 1.3125,-1.70313 0.84375,-0.64062 2.04687,-0.89062 1.20313,-0.25 2.6875,-0.25 h 5.75 V 229 h -14.84375 v -2.29688 h 20.67188 z m -3.5,-1.85938 h -2.26563 L 281.5,224.46875 q -0.90625,-1.70313 -1.64063,-2.70313 -0.75,-1 -1.40625,-1.51562 -0.67187,-0.53125 -1.3125,-0.67188 -0.64062,-0.15625 -1.34375,-0.15625 h -3.03125 v -2.53125 h 2.85938 q 0.90625,0 1.64062,0.15625 0.73438,0.14063 1.40625,0.53125 0.65625,0.375 1.29688,1.0625 0.625,0.67188 1.34375,1.75 0.71875,1.0625 1.57812,2.5625 0.84375,1.48438 1.9375,3.51563 z M 319,229 h -3.28125 v 21 h -2.5625 v -8.76563 h -8.59375 v 1.85938 q 0,0.48437 -0.0469,0.85937 -0.0312,0.375 -0.17187,0.625 -0.125,0.25 -0.375,0.39063 -0.23438,0.125 -0.64063,0.125 -0.40625,0 -0.90625,-0.23438 -0.5,-0.25 -1.01562,-0.65625 -0.51563,-0.42187 -1,-0.9375 -0.48438,-0.53125 -0.875,-1.09375 -0.375,-0.57812 -0.60938,-1.14062 -0.23437,-0.5625 -0.23437,-1.03125 0,-0.32813 0.10937,-0.53125 0.125,-0.21875 0.32813,-0.32813 0.21875,-0.10937 0.51562,-0.14062 0.29688,-0.0469 0.67188,-0.0469 H 302 V 229 h -5.64063 v -2.29688 H 319 Z m -14.4375,0 v 9.95312 h 8.59375 V 229 Z m 33.875,0 h -3.28125 v 21 h -2.57813 v -12.04688 h -7.3125 q 0,1.03125 -0.0312,1.76563 -0.0156,0.73437 -0.125,1.21875 -0.10937,0.46875 -0.32812,0.6875 -0.21875,0.21875 -0.60938,0.21875 -0.8125,0 -1.54687,-0.53125 -0.71875,-0.53125 -1.28125,-1.28125 -0.54688,-0.75 -0.875,-1.5625 -0.32813,-0.8125 -0.32813,-1.375 0,-0.5 0.21875,-0.78125 0.21875,-0.28125 0.57813,-0.42188 0.35937,-0.14062 0.8125,-0.17187 0.46875,-0.0312 0.9375,-0.0312 h 9.89062 V 229 h -14.67187 v -2.29688 h 20.53125 z m 8.3125,0 h -3.28125 v 21 h -2.5625 v -21 h -3.5625 v -2.29688 H 346.75 Z m 22.85937,0 h -3.28125 v 21.01562 h -2.5625 V 235.375 q -0.82812,-0.29688 -1.5625,-0.29688 -0.73437,0 -1.28125,0.28125 -0.54687,0.26563 -0.92187,0.71875 -0.35938,0.45313 -0.54688,1.0625 -0.1875,0.60938 -0.1875,1.28125 0,0.26563 0.0156,0.54688 0.0312,0.26562 0.0625,0.53125 h -2.39063 q -0.125,-0.90625 -0.29687,-1.73438 -0.15625,-0.82812 -0.46875,-1.45312 -0.29688,-0.625 -0.78125,-0.98438 -0.48438,-0.375 -1.25,-0.375 -0.73438,0 -1.26563,0.29688 -0.51562,0.29687 -0.85937,0.82812 -0.34375,0.53125 -0.51563,1.25 -0.15625,0.70313 -0.15625,1.53125 0,1.78125 0.60938,3.20313 0.60937,1.40625 1.64062,2.53125 1.04688,1.125 2.40625,2.01562 1.375,0.875 2.89063,1.60938 l -1.26563,2.15625 q -0.5625,-0.25 -1.45312,-0.75 -0.875,-0.5 -1.875,-1.23438 -0.98438,-0.73437 -1.98438,-1.71875 -1,-0.98437 -1.8125,-2.20312 -0.79687,-1.21875 -1.29687,-2.6875 -0.5,-1.46875 -0.5,-3.17188 0,-1.3125 0.375,-2.4375 0.375,-1.14062 1.0625,-1.96875 0.70312,-0.84375 1.6875,-1.3125 0.98437,-0.48437 2.1875,-0.48437 0.90625,0 1.5625,0.26562 0.65625,0.25 1.125,0.64063 0.48437,0.375 0.79687,0.82812 0.3125,0.4375 0.54688,0.82813 l 0.0781,-0.0156 q 0.29688,-0.65625 0.70313,-1.10937 0.42187,-0.45313 0.90625,-0.73438 0.5,-0.28125 1.04687,-0.40625 0.54688,-0.14062 1.09375,-0.14062 0.48438,0 0.95313,0.0937 0.48437,0.0781 0.92187,0.23437 V 229 h -18.10937 v -2.29688 h 23.95312 z m 8.3125,0 h -3.28125 v 21 h -2.5625 v -21 h -3.5625 v -2.29688 h 9.40625 z m 18.35938,8.5 q -0.28125,0.0312 -0.53125,0.0625 -0.25,0.0156 -0.51563,0.0156 -1.26562,0 -2.29687,-0.45312 -1.01563,-0.45313 -1.75,-1.21875 -0.71875,-0.76563 -1.10938,-1.76563 -0.39062,-1.01562 -0.39062,-2.125 0,-0.79687 0.21875,-1.54687 0.21875,-0.75 0.6875,-1.40625 L 390.57812,229 h -4.98437 v -2.29688 h 26.125 V 229 h -3.28125 v 21 h -2.5625 v -21 h -5.89063 l -0.0156,0.0625 q 0.40625,0.40625 0.75,0.98437 0.34375,0.5625 0.57812,1.23438 0.25,0.67187 0.39063,1.40625 0.14062,0.73437 0.14062,1.48437 0,1.21875 -0.39062,2.35938 -0.375,1.14062 -1.07813,2.15625 -0.6875,1.01562 -1.67187,1.89062 -0.96875,0.85938 -2.15625,1.53125 v 0.0625 q 0.78125,0.60938 1.67187,1.46875 0.89063,0.84375 1.76563,1.76563 0.875,0.92187 1.65625,1.84375 0.78125,0.90625 1.34375,1.65625 l -1.76563,1.48437 q -0.48437,-0.60937 -1.21875,-1.48437 -0.73437,-0.89063 -1.64062,-1.84375 -0.90625,-0.96875 -1.96875,-1.92188 -1.04688,-0.96875 -2.1875,-1.75 -0.5625,0.26563 -1.1875,0.39063 -0.60938,0.125 -1.21875,0.125 -0.70313,0 -1.35938,-0.17188 -0.64062,-0.17187 -1.15625,-0.5 -0.5,-0.32812 -0.79687,-0.79687 -0.29688,-0.48438 -0.29688,-1.10938 0,-0.98437 0.71875,-1.51562 0.73438,-0.54688 1.90625,-0.54688 0.85938,0 1.73438,0.3125 0.89062,0.29688 1.73437,0.90625 0.4375,-0.0937 0.98438,-0.32812 0.54687,-0.25 1.10937,-0.625 0.57813,-0.39063 1.10938,-0.90625 0.54687,-0.53125 0.96875,-1.20313 0.42187,-0.67187 0.67187,-1.46875 0.26563,-0.8125 0.26563,-1.75 0,-0.9375 -0.28125,-1.84375 -0.26563,-0.90625 -0.79688,-1.60937 -0.53125,-0.71875 -1.32812,-1.15625 -0.79688,-0.4375 -1.84375,-0.4375 -0.82813,0 -1.375,0.26562 -0.54688,0.25 -0.89063,0.65625 -0.34375,0.40625 -0.48437,0.90625 -0.14063,0.48438 -0.14063,0.95313 0,0.60937 0.21875,1.20312 0.21875,0.57813 0.64063,1.04688 0.4375,0.45312 1.07812,0.73437 0.64063,0.28125 1.46875,0.28125 0.26563,0 0.64063,-0.0469 z m 23.75,-8.5 H 416.75 v 21 h -2.5625 v -21 h -3.5625 v -2.29688 h 9.40625 z m -6.79688,-7.0625 q 0,-0.89063 0.53125,-1.4375 0.51563,-0.5625 1.35938,-0.5625 0.39062,0 0.75,0.15625 0.34375,0.15625 0.60937,0.4375 0.26563,0.26562 0.42188,0.64062 0.14062,0.35938 0.14062,0.79688 0,0.89062 -0.51562,1.4375 -0.53125,0.54687 -1.375,0.54687 -0.40625,0 -0.75,-0.14062 -0.35938,-0.15625 -0.60938,-0.42188 -0.26562,-0.28125 -0.40625,-0.64062 -0.15625,-0.375 -0.15625,-0.8125 z m 26.375,7.0625 h -3.28125 v 21 h -2.54687 v -13.71875 h -5.07813 q -1.04687,0 -1.89062,0.14062 -0.84375,0.125 -1.4375,0.53125 -0.59375,0.39063 -0.92188,1.10938 -0.3125,0.70312 -0.3125,1.85937 0,1.5 0.48438,2.76563 0.5,1.26562 1.26562,2.32812 0.76563,1.04688 1.6875,1.9375 0.9375,0.89063 1.79688,1.64063 l -1.5625,1.78125 q -0.14063,-0.0781 -0.67188,-0.45313 -0.51562,-0.39062 -1.21875,-1.04687 -0.6875,-0.65625 -1.46875,-1.59375 -0.76562,-0.9375 -1.42187,-2.10938 -0.64063,-1.1875 -1.07813,-2.60937 -0.42187,-1.42188 -0.42187,-3.0625 0,-1.625 0.45312,-2.6875 0.46875,-1.07813 1.3125,-1.70313 0.84375,-0.64062 2.04688,-0.89062 1.20312,-0.25 2.6875,-0.25 h 5.75 V 229 H 418.9375 v -2.29688 h 20.67187 z m 8.3125,0 h -3.28125 v 21 h -2.5625 v -21 h -3.5625 v -2.29688 h 3.8125 q -0.28125,-1.59375 -0.71875,-2.71875 -0.4375,-1.14062 -0.95312,-1.89062 -0.51563,-0.76563 -1.07813,-1.20313 -0.5625,-0.4375 -1.07812,-0.65625 -0.53125,-0.21875 -0.98438,-0.28125 -0.46875,-0.0625 -0.76562,-0.0625 -0.96875,0 -1.54688,0.3125 -0.59375,0.29688 -0.90625,0.71875 -0.3125,0.42188 -0.40625,0.89063 -0.10937,0.45312 -0.10937,0.78125 0,0.125 0.0469,0.51562 0.0312,0.375 0.25,0.95313 0.20313,0.57812 0.64063,1.29687 0.4375,0.71875 1.23437,1.51563 h -2.65625 q -0.98437,-1.125 -1.46875,-2.32813 -0.5,-1.21875 -0.5,-2.35937 0,-0.95313 0.34375,-1.8125 0.34375,-0.85938 1.03125,-1.48438 0.6875,-0.64062 1.71875,-1.01562 1.03125,-0.375 2.39063,-0.375 1.875,0 3.23437,0.73437 1.35938,0.71875 2.28125,1.96875 0.9375,1.25 1.46875,2.9375 0.54688,1.67188 0.76563,3.5625 h 3.35937 z m 28.67188,0 h -3.28125 v 21 H 470.75 v -7.3125 l -0.0625,-0.0156 q -0.42188,0.34375 -1.01563,0.6875 -0.57812,0.32813 -1.29687,0.59375 -0.71875,0.25 -1.54688,0.42188 -0.82812,0.15625 -1.73437,0.15625 -1.8125,0 -3.10938,-0.65625 -1.28125,-0.65625 -2.15625,-1.75 -0.85937,-1.10938 -1.35937,-2.51563 -0.5,-1.42187 -0.71875,-2.95312 1.03125,-0.14063 1.76562,-0.48438 0.73438,-0.34375 1.1875,-0.8125 0.45313,-0.48437 0.65625,-1.04687 0.21875,-0.5625 0.21875,-1.125 0,-0.375 -0.0781,-0.84375 -0.0625,-0.46875 -0.23438,-1 -0.17187,-0.54688 -0.45312,-1.14063 -0.28125,-0.59375 -0.70313,-1.20312 h -4.51562 v -2.29688 h 21 z m -13.71875,0 q 0.5625,0.95312 0.875,2.09375 0.32812,1.125 0.32812,2.21875 0,0.79687 -0.21875,1.54687 -0.20312,0.75 -0.64062,1.40625 -0.4375,0.64063 -1.09375,1.15625 -0.64063,0.5 -1.5,0.79688 0.25,1.04687 0.6875,1.79687 0.4375,0.73438 1.03125,1.21875 0.59375,0.46875 1.32812,0.6875 0.73438,0.21875 1.57813,0.21875 0.8125,0 1.59375,-0.1875 0.79687,-0.1875 1.5,-0.53125 0.71875,-0.35937 1.32812,-0.85937 0.60938,-0.5 1.07813,-1.125 V 229 Z m 10.21875,-1.85938 h -2.26563 l -1.42187,-2.67187 q -0.90625,-1.70313 -1.64063,-2.70313 -0.75,-1 -1.40625,-1.51562 -0.67187,-0.53125 -1.3125,-0.67188 -0.64062,-0.15625 -1.34375,-0.15625 h -3.03125 v -2.53125 h 2.85938 q 0.90625,0 1.64062,0.15625 0.73438,0.14063 1.40625,0.53125 0.65625,0.375 1.29688,1.0625 0.625,0.67188 1.34375,1.75 0.71875,1.0625 1.57812,2.5625 0.84375,1.48438 1.9375,3.51563 z M 496.17187,229 h -3.28125 v 21 h -2.54687 v -13.71875 h -5.07813 q -1.04687,0 -1.89062,0.14062 -0.84375,0.125 -1.4375,0.53125 -0.59375,0.39063 -0.92188,1.10938 -0.3125,0.70312 -0.3125,1.85937 0,1.5 0.48438,2.76563 0.5,1.26562 1.26562,2.32812 0.76563,1.04688 1.6875,1.9375 0.9375,0.89063 1.79688,1.64063 l -1.5625,1.78125 q -0.14063,-0.0781 -0.67188,-0.45313 -0.51562,-0.39062 -1.21875,-1.04687 -0.6875,-0.65625 -1.46875,-1.59375 -0.76562,-0.9375 -1.42187,-2.10938 -0.64063,-1.1875 -1.07813,-2.60937 -0.42187,-1.42188 -0.42187,-3.0625 0,-1.625 0.45312,-2.6875 0.46875,-1.07813 1.3125,-1.70313 0.84375,-0.64062 2.04688,-0.89062 1.20312,-0.25 2.6875,-0.25 h 5.75 V 229 H 475.5 v -2.29688 h 20.67187 z m -3.5,-1.85938 h -2.26562 l -1.42188,-2.67187 q -0.90625,-1.70313 -1.64062,-2.70313 -0.75,-1 -1.40625,-1.51562 -0.67188,-0.53125 -1.3125,-0.67188 -0.64063,-0.15625 -1.34375,-0.15625 H 480.25 v -2.53125 h 2.85937 q 0.90625,0 1.64063,0.15625 0.73437,0.14063 1.40625,0.53125 0.65625,0.375 1.29687,1.0625 0.625,0.67188 1.34375,1.75 0.71875,1.0625 1.57813,2.5625 0.84375,1.48438 1.9375,3.51563 z m 6.4375,23.20313 q -0.71875,0 -1.23437,-0.51563 -0.5,-0.51562 -0.5,-1.23437 0,-0.71875 0.5,-1.23438 0.51562,-0.53125 1.23437,-0.53125 0.73438,0 1.25,0.53125 0.51563,0.51563 0.51563,1.23438 0,0.71875 -0.51563,1.23437 -0.51562,0.51563 -1.25,0.51563 z"
         id="path7" />
    </g>
  </g>
</svg>
