<?xml version="1.0" encoding="UTF-8" standalone="no"?>
<svg
   width="800"
   height="600"
   version="1.1"
   id="svg4"
   sodipodi:docname="avdhut_chemistry.svg"
   xmlns:inkscape="http://www.inkscape.org/namespaces/inkscape"
   xmlns:sodipodi="http://sodipodi.sourceforge.net/DTD/sodipodi-0.dtd"
   xmlns="http://www.w3.org/2000/svg"
   xmlns:svg="http://www.w3.org/2000/svg">
  <sodipodi:namedview
     id="namedview4"
     pagecolor="#ffffff"
     bordercolor="#666666"
     borderopacity="1.0"
     inkscape:showpageshadow="2"
     inkscape:pageopacity="0.0"
     inkscape:pagecheckerboard="0"
     inkscape:deskcolor="#d1d1d1" />
  <defs
     id="defs1">
    <style
       type="text/css"
       id="style1">
      @font-face {{
        font-family: 'Kalam';
        src: url('AxiDraw_API(1)/Kalam-Regular.ttf');
      }}
    </style>
  </defs>
  <g
     id="g4">
    <g
       id="text4"
       style="font-size:32px;font-family:Kalam"
       aria-label="अवधूत रसायन शास्त्रात, बुडाला,प्रयोग करून तो ज्ञान पावला.सूत्रे, अभिक्रिया, त्याला माहीत,विज्ञानाच्या क्षेत्रात, तो झाला प्रसिद्धीत.">
      <path
         d="m 53.640625,86.1875 q 0.234375,0.734375 0.546875,1.609375 0.3125,0.859375 0.734375,1.75 0.4375,0.875 0.96875,1.703125 0.546875,0.828125 1.234375,1.46875 0.703125,0.640625 1.546875,1.03125 0.84375,0.375 1.875,0.375 1.015625,0 1.71875,-0.296875 0.703125,-0.296875 1.140625,-0.796875 0.4375,-0.5 0.625,-1.171875 0.203125,-0.671875 0.203125,-1.40625 0,-1.609375 -1.171875,-2.515625 -1.15625,-0.90625 -3.359375,-0.90625 -0.265625,0 -0.53125,0.01563 -0.265625,0.01563 -0.53125,0.04687 v -2.375 q 0.125,0.01563 0.21875,0.01563 0.109375,0 0.125,0 1.09375,0 1.9375,-0.265625 0.859375,-0.28125 1.4375,-0.75 Q 62.9375,83.25 63.234375,82.625 63.53125,82 63.53125,81.3125 q 0,-0.625 -0.21875,-1.109375 -0.21875,-0.484375 -0.59375,-0.8125 -0.375,-0.328125 -0.890625,-0.484375 -0.515625,-0.171875 -1.125,-0.171875 -0.421875,0 -0.8125,0.0625 Q 59.5,78.84375 59.0625,78.96875 q -0.4375,0.109375 -0.9375,0.296875 -0.484375,0.1875 -1.109375,0.46875 L 56.125,77.59375 Q 57.34375,77 58.46875,76.703125 q 1.125,-0.3125 2.296875,-0.3125 1.125,0 2.078125,0.359375 0.96875,0.359375 1.65625,1 0.703125,0.625 1.09375,1.5 0.390625,0.875 0.390625,1.890625 0,2.796875 -2.671875,4.5 v 0.0625 q 1.046875,0.4375 1.75,1.078125 0.453125,0.07813 0.953125,0.125 0.515625,0.04687 0.9375,0.04687 0.4375,0 0.921875,-0.0625 0.484375,-0.0625 0.984375,-0.234375 0.515625,-0.171875 1.03125,-0.484375 0.53125,-0.3125 1.0625,-0.8125 v -8.65625 h 5.84375 V 79 h -3.28125 v 21 h -2.5625 V 88.125 l -0.0625,-0.01563 Q 70,88.703125 69.21875,88.890625 q -0.78125,0.1875 -1.609375,0.1875 -0.265625,0 -0.546875,-0.01563 Q 66.78125,89.03125 66.484375,89 l -0.01563,0.0625 q 0.25,0.640625 0.25,1.578125 0,1.265625 -0.421875,2.34375 -0.421875,1.078125 -1.21875,1.875 -0.78125,0.78125 -1.90625,1.21875 -1.109375,0.4375 -2.5,0.4375 -1.484375,0 -2.6875,-0.515625 -1.1875,-0.53125 -2.15625,-1.359375 Q 54.875,93.8125 54.15625,92.78125 53.4375,91.734375 52.921875,90.6875 52.40625,89.640625 52.078125,88.703125 51.75,87.75 51.59375,87.125 Z M 95.609375,79 h -3.28125 v 21 h -2.5625 v -5.578125 l -0.0625,-0.01563 q -0.3125,0.296875 -0.734375,0.625 -0.421875,0.3125 -0.96875,0.578125 -0.546875,0.25 -1.234375,0.421875 -0.671875,0.171875 -1.515625,0.171875 -1.546875,0 -2.828125,-0.59375 -1.265625,-0.59375 -2.1875,-1.578125 -0.921875,-1 -1.4375,-2.28125 -0.5,-1.296875 -0.5,-2.703125 0,-1.40625 0.5,-2.609375 0.515625,-1.21875 1.40625,-2.109375 0.890625,-0.890625 2.078125,-1.390625 1.1875,-0.515625 2.546875,-0.515625 0.375,0 0.9375,0.0625 0.578125,0.0625 1.234375,0.28125 0.65625,0.21875 1.359375,0.640625 0.703125,0.40625 1.34375,1.109375 L 89.765625,84.5 V 79 h -14.0625 v -2.296875 h 19.90625 z m -5.78125,8.421875 q -0.984375,-1.1875 -2.140625,-1.90625 -1.15625,-0.734375 -2.625,-0.734375 -1.15625,0 -1.96875,0.4375 -0.796875,0.4375 -1.3125,1.109375 -0.515625,0.65625 -0.75,1.46875 -0.234375,0.8125 -0.234375,1.5625 0,0.8125 0.265625,1.609375 0.265625,0.796875 0.78125,1.4375 0.53125,0.625 1.3125,1.03125 0.78125,0.390625 1.828125,0.390625 1.078125,0 1.96875,-0.40625 Q 87.84375,93 88.484375,92.359375 89.125,91.71875 89.46875,90.921875 89.828125,90.125 89.828125,89.375 Z m 12.859375,-5.4375 q 0.17188,-0.25 0.3125,-0.625 0.15625,-0.390625 0.15625,-0.875 0,-0.4375 -0.15625,-0.765625 -0.15625,-0.328125 -0.40625,-0.53125 -0.23437,-0.203125 -0.54687,-0.296875 -0.3125,-0.109375 -0.625,-0.109375 -0.375,0 -0.75,0.15625 -0.35938,0.140625 -0.65625,0.46875 -0.281255,0.328125 -0.468755,0.84375 -0.1875,0.5 -0.1875,1.203125 0,0.765625 0.21875,1.453125 0.234375,0.671875 0.703125,1.1875 0.48438,0.5 1.20313,0.796875 0.73437,0.296875 1.75,0.296875 0.70312,0 1.29687,-0.109375 0.59375,-0.125 1.03125,-0.234375 l 0.42188,2.40625 q -0.25,0.03125 -0.67188,0.125 -0.42187,0.07813 -0.92187,0.265625 -0.48438,0.171875 -1,0.453125 -0.5,0.28125 -0.90625,0.703125 -0.40625,0.40625 -0.67188,0.96875 -0.25,0.5625 -0.25,1.3125 0,0.703125 0.23438,1.25 0.23437,0.546875 0.65625,0.9375 0.42187,0.390625 1.01562,0.59375 0.59375,0.203125 1.29688,0.203125 1,0 1.84375,-0.375 0.84375,-0.375 1.51562,-0.921875 0.67188,-0.5625 1.15625,-1.203125 0.48438,-0.640625 0.76563,-1.171875 v -13.6875 h 5.84375 V 79 h -3.28125 v 21 h -2.5625 v -5.84375 l -0.0625,-0.01563 q -0.57813,0.640625 -1.21875,1.078125 -0.64063,0.4375 -1.3125,0.71875 -0.65625,0.265625 -1.32813,0.390625 -0.67187,0.125 -1.29687,0.125 -1.23438,0 -2.29688,-0.40625 -1.04687,-0.40625 -1.8125,-1.140625 -0.765625,-0.734375 -1.203125,-1.734375 -0.4375,-1.015625 -0.4375,-2.234375 0,-1.125 0.421875,-2.0625 0.4375,-0.9375 1.51563,-1.78125 L 101,87.03125 Q 99.9375,86.75 99.15625,86.171875 98.390625,85.59375 97.875,84.84375 q -0.5,-0.75 -0.75,-1.625 -0.25,-0.890625 -0.25,-1.78125 0,-1.09375 0.34375,-2.015625 0.359375,-0.921875 0.984375,-1.59375 0.640625,-0.671875 1.5,-1.046875 0.859375,-0.390625 1.890625,-0.390625 1.07813,0 1.84375,0.375 0.78125,0.375 1.26563,0.953125 0.5,0.578125 0.73437,1.28125 0.23438,0.6875 0.23438,1.3125 0,0.4375 -0.0937,0.859375 -0.0937,0.421875 -0.23438,0.796875 -0.14062,0.375 -0.3125,0.6875 -0.15625,0.3125 -0.29687,0.53125 z M 119.01563,108 q -0.79688,-1.3125 -1.64063,-2.5 -0.84375,-1.17187 -1.79687,-2.04687 -0.95313,-0.875 -2.04688,-1.39063 -1.10937,-0.51562 -2.42187,-0.51562 -0.79688,0 -1.40625,0.1875 -0.625,0.1875 -1.04688,0.5 -0.42187,0.3125 -0.64062,0.71875 -0.21875,0.42187 -0.21875,0.85937 0,0.84375 0.6875,1.34375 0.67187,0.5 1.84375,0.5 1.09375,0 2.26562,-0.4375 l 0.54688,2.25 q -0.67188,0.26563 -1.35938,0.39063 -0.70312,0.14062 -1.375,0.14062 -1,0 -1.89062,-0.28125 -0.90625,-0.28125 -1.57813,-0.82812 -0.6875,-0.53125 -1.07812,-1.34375 -0.40625,-0.79688 -0.40625,-1.82813 0,-1.14062 0.48437,-2 0.46875,-0.84375 1.25,-1.40625 0.78125,-0.546875 1.78125,-0.8125 1,-0.28125 2.03125,-0.28125 1.32813,0 2.5,0.40625 1.15625,0.40625 2.15625,1.0625 1,0.67188 1.82813,1.5 0.82812,0.84375 1.48437,1.70313 0.67188,0.85937 1.17188,1.67187 0.51562,0.8125 0.85937,1.42188 z m 16.45312,-29 h -3.28125 v 21 h -2.54688 V 86.28125 h -5.07812 q -1.04687,0 -1.89062,0.140625 -0.84375,0.125 -1.4375,0.53125 Q 120.64063,87.34375 120.3125,88.0625 120,88.765625 120,89.921875 q 0,1.5 0.48438,2.765625 0.5,1.265625 1.26562,2.328125 0.76563,1.046875 1.6875,1.9375 0.9375,0.890625 1.79688,1.640625 l -1.5625,1.78125 Q 123.53125,100.29688 123,99.921875 122.48438,99.53125 121.78125,98.875 q -0.6875,-0.65625 -1.46875,-1.59375 -0.76562,-0.9375 -1.42187,-2.109375 -0.64063,-1.1875 -1.07813,-2.609375 -0.42187,-1.421875 -0.42187,-3.0625 0,-1.625 0.45312,-2.6875 0.46875,-1.078125 1.3125,-1.703125 0.84375,-0.640625 2.04688,-0.890625 1.20312,-0.25 2.6875,-0.25 h 5.74999 V 79 h -14.84374 v -2.296875 h 20.67187 z m 24.40625,0 h -5.89063 q 0.79688,1.375 1.28125,2.8125 0.5,1.421875 0.5,2.890625 0,1.109375 -0.34375,2.140625 -0.32812,1.015625 -0.98437,1.828125 -0.64063,0.796875 -1.60938,1.3125 -0.95312,0.5 -2.20312,0.5625 l -0.0312,0.07813 Q 152,92.8125 153.75,94.765625 q 1.75,1.9375 4.04687,3.6875 L 156.125,100.375 q -1.32813,-0.984375 -2.53125,-2.125 -1.1875,-1.15625 -2.25,-2.375 -1.0625,-1.234375 -1.98438,-2.484375 Q 148.45312,92.125 147.6875,90.9375 146.9375,89.734375 146.34375,88.640625 145.75,87.53125 145.32812,86.625 l 2.14063,-1.15625 q 0.5625,1.21875 1.26562,1.921875 0.71875,0.6875 1.65625,0.6875 0.67188,0 1.20313,-0.34375 0.53125,-0.34375 0.89062,-0.875 0.35938,-0.546875 0.54688,-1.1875 0.1875,-0.65625 0.1875,-1.28125 0,-0.734375 -0.1875,-1.4375 -0.1875,-0.71875 -0.48438,-1.390625 Q 152.25,80.875 151.875,80.234375 151.51562,79.59375 151.17187,79 h -8.03125 V 76.703125 H 159.875 Z m 23.04687,-2.296875 V 79 h -3.28125 v 21 h -2.59375 V 89.5 H 168 q -0.82813,0.546875 -1.98438,0.65625 l -0.0312,0.07813 q 1.51563,2.375 3.32813,4.421875 1.8125,2.046875 4.125,3.796875 l -1.67188,1.921875 q -1.32812,-0.984375 -2.53125,-2.125 -1.1875,-1.140625 -2.25,-2.359375 -1.04687,-1.234375 -1.96875,-2.484375 -0.92187,-1.265625 -1.6875,-2.484375 -0.76562,-1.21875 -1.375,-2.34375 -0.60937,-1.140625 -1.0625,-2.109375 l 2.14063,-1.15625 q 0.29687,0.6875 0.57812,1.15625 0.29688,0.453125 0.59375,0.734375 0.29688,0.265625 0.625,0.390625 0.32813,0.109375 0.70313,0.109375 1.07812,0 1.57812,-0.84375 0.51563,-0.84375 0.51563,-2.21875 0,-0.8125 -0.15625,-1.59375 Q 167.3125,82.25 167.0625,81.53125 166.82812,80.796875 166.54687,80.15625 166.26562,79.515625 166.01562,79 h -7.23437 V 76.703125 Z M 177.04687,79 h -8.32812 q 0.65625,1.421875 1.03125,2.859375 0.375,1.4375 0.375,2.859375 0,0.65625 -0.10938,1.296875 -0.0937,0.625 -0.32812,1.1875 l 0.0312,0.03125 h 7.32812 z m 14.1875,0 h -3.28125 v 21 h -2.5625 V 79 h -3.5625 v -2.296875 h 9.40625 z m 19.90625,0 h -3.28125 v 21 h -2.5625 v -7.3125 l -0.0625,-0.01563 q -0.42187,0.34375 -1.01562,0.6875 -0.57813,0.328125 -1.29688,0.59375 -0.71875,0.25 -1.54687,0.421875 -0.82813,0.15625 -1.73438,0.15625 -1.8125,0 -3.10937,-0.65625 -1.28125,-0.65625 -2.15625,-1.75 -0.85938,-1.109375 -1.35938,-2.515625 -0.5,-1.421875 -0.71875,-2.953125 1.03125,-0.140625 1.76563,-0.484375 0.73437,-0.34375 1.1875,-0.8125 0.45312,-0.484375 0.65625,-1.046875 0.21875,-0.5625 0.21875,-1.125 0,-0.375 -0.0781,-0.84375 -0.0625,-0.46875 -0.23437,-1 -0.17188,-0.546875 -0.45313,-1.140625 Q 195.07812,79.609375 194.65625,79 h -4.51563 v -2.296875 h 21 z m -13.71875,0 q 0.5625,0.953125 0.875,2.09375 0.32813,1.125 0.32813,2.21875 0,0.796875 -0.21875,1.546875 -0.20313,0.75 -0.64063,1.40625 -0.4375,0.640625 -1.09375,1.15625 -0.64062,0.5 -1.5,0.796875 0.25,1.046875 0.6875,1.796875 0.4375,0.734375 1.03125,1.21875 0.59375,0.46875 1.32813,0.6875 0.73437,0.21875 1.57812,0.21875 0.8125,0 1.59375,-0.1875 0.79688,-0.1875 1.5,-0.53125 0.71875,-0.359375 1.32813,-0.859375 0.60937,-0.5 1.07812,-1.125 V 79 Z m 33.15625,0 h -3.28125 v 21 h -2.57812 V 87.953125 h -7.3125 q 0,1.03125 -0.0312,1.765625 -0.0156,0.734375 -0.125,1.21875 -0.10938,0.46875 -0.32813,0.6875 -0.21875,0.21875 -0.60937,0.21875 -0.8125,0 -1.54688,-0.53125 -0.71875,-0.53125 -1.28125,-1.28125 -0.54687,-0.75 -0.875,-1.5625 -0.32812,-0.8125 -0.32812,-1.375 0,-0.5 0.21875,-0.78125 0.21875,-0.28125 0.57812,-0.421875 0.35938,-0.140625 0.8125,-0.171875 0.46875,-0.03125 0.9375,-0.03125 h 9.89063 V 79 h -14.67188 v -2.296875 h 20.53125 z m 18.35938,8.5 q -0.28125,0.03125 -0.53125,0.0625 -0.25,0.01563 -0.51563,0.01563 -1.26562,0 -2.29687,-0.453125 -1.01563,-0.453125 -1.75,-1.21875 -0.71875,-0.765625 -1.10938,-1.765625 -0.39062,-1.015625 -0.39062,-2.125 0,-0.796875 0.21875,-1.546875 0.21875,-0.75 0.6875,-1.40625 L 243.23437,79 H 238.25 v -2.296875 h 26.125 V 79 h -3.28125 v 21 h -2.5625 V 79 h -5.89063 l -0.0156,0.0625 q 0.40625,0.40625 0.75,0.984375 0.34375,0.5625 0.57812,1.234375 0.25,0.671875 0.39063,1.40625 0.14062,0.734375 0.14062,1.484375 0,1.21875 -0.39062,2.359375 -0.375,1.140625 -1.07813,2.15625 -0.6875,1.015625 -1.67187,1.890625 -0.96875,0.859375 -2.15625,1.53125 v 0.0625 q 0.78125,0.609375 1.67187,1.46875 0.89063,0.84375 1.76563,1.765625 0.875,0.921875 1.65625,1.84375 0.78125,0.90625 1.34375,1.65625 l -1.76563,1.48438 Q 253.375,99.78125 252.64062,98.90625 251.90625,98.015625 251,97.0625 q -0.90625,-0.96875 -1.96875,-1.921875 -1.04688,-0.96875 -2.1875,-1.75 -0.5625,0.265625 -1.1875,0.390625 -0.60938,0.125 -1.21875,0.125 -0.70313,0 -1.35938,-0.171875 -0.64062,-0.171875 -1.15625,-0.5 -0.5,-0.328125 -0.79687,-0.796875 -0.29688,-0.484375 -0.29688,-1.109375 0,-0.984375 0.71875,-1.515625 0.73438,-0.546875 1.90625,-0.546875 0.85938,0 1.73438,0.3125 0.89062,0.296875 1.73437,0.90625 0.4375,-0.09375 0.98438,-0.328125 0.54687,-0.25 1.10937,-0.625 0.57813,-0.390625 1.10938,-0.90625 0.54687,-0.53125 0.96875,-1.203125 0.42187,-0.671875 0.67187,-1.46875 0.26563,-0.8125 0.26563,-1.75 0,-0.9375 -0.28125,-1.84375 -0.26563,-0.90625 -0.79688,-1.609375 -0.53125,-0.71875 -1.32812,-1.15625 -0.79688,-0.4375 -1.84375,-0.4375 -0.82813,0 -1.375,0.265625 -0.54688,0.25 -0.89063,0.65625 -0.34375,0.40625 -0.48437,0.90625 -0.14063,0.484375 -0.14063,0.953125 0,0.609375 0.21875,1.203125 0.21875,0.578125 0.64063,1.046875 0.4375,0.453125 1.07812,0.734375 0.64063,0.28125 1.46875,0.28125 0.26563,0 0.64063,-0.04687 z m 23.75,-8.5 h -3.28125 v 21 h -2.5625 V 79 h -3.5625 v -2.296875 h 9.40625 z m 17.09375,10.5 h -8.96875 q -0.82813,0.546875 -1.98438,0.65625 l -0.0312,0.07813 q 1.51563,2.375 3.32813,4.421875 1.8125,2.046875 4.125,3.796875 l -1.67188,1.921875 q -1.32812,-0.984375 -2.53125,-2.125 -1.1875,-1.140625 -2.25,-2.359375 -1.04687,-1.234375 -1.96875,-2.484375 -0.92187,-1.265625 -1.6875,-2.484375 -0.76562,-1.21875 -1.375,-2.34375 -0.60937,-1.140625 -1.0625,-2.109375 l 2.14063,-1.15625 q 0.29687,0.6875 0.57812,1.15625 0.29688,0.453125 0.59375,0.734375 0.29688,0.265625 0.625,0.390625 0.32813,0.109375 0.70313,0.109375 1.07812,0 1.57812,-0.84375 0.51563,-0.84375 0.51563,-2.21875 0,-0.8125 -0.15625,-1.59375 Q 280.125,82.25 279.875,81.53125 279.64062,80.796875 279.35937,80.15625 279.07812,79.515625 278.82812,79 h -7.23437 v -2.296875 h 17.8125 V 79 h -7.875 q 0.65625,1.421875 1.03125,2.859375 0.375,1.4375 0.375,2.859375 0,0.65625 -0.10938,1.296875 -0.0937,0.625 -0.32812,1.1875 l 0.0312,0.03125 h 7.01562 z M 306.67187,79 h -3.28125 v 21 h -2.54687 V 89.65625 l -0.0469,-0.01563 -5.92187,4.484375 -1.45313,-2.015625 7.42188,-5.4375 V 86.28125 h -6.01563 q -1.04687,0 -1.89062,0.140625 -0.84375,0.125 -1.4375,0.53125 -0.59375,0.390625 -0.92188,1.109375 -0.3125,0.703125 -0.3125,1.859375 0,1.5 0.46875,2.765625 0.48438,1.25 1.21875,2.328125 0.75,1.0625 1.64063,1.953125 0.90625,0.875 1.75,1.625 l -1.5625,1.78125 q -0.14063,-0.0781 -0.65625,-0.453125 -0.5,-0.390625 -1.1875,-1.046875 -0.67188,-0.65625 -1.4375,-1.59375 -0.75,-0.9375 -1.39063,-2.109375 -0.625,-1.1875 -1.04687,-2.609375 -0.40625,-1.421875 -0.40625,-3.0625 0,-1.625 0.45312,-2.6875 0.46875,-1.078125 1.3125,-1.703125 0.84375,-0.640625 2.04688,-0.890625 1.20312,-0.25 2.6875,-0.25 h 6.6875 V 79 H 285.0625 v -2.296875 h 21.60937 z m 8.3125,0 h -3.28125 v 21 h -2.5625 V 79 h -3.5625 v -2.296875 h 9.40625 z m 19.57813,0 h -3.28125 v 21 h -2.54688 V 86.28125 h -5.07812 q -1.04688,0 -1.89063,0.140625 -0.84375,0.125 -1.4375,0.53125 -0.59375,0.390625 -0.92187,1.109375 -0.3125,0.703125 -0.3125,1.859375 0,1.5 0.48437,2.765625 0.5,1.265625 1.26563,2.328125 0.76562,1.046875 1.6875,1.9375 0.9375,0.890625 1.79687,1.640625 l -1.5625,1.78125 q -0.14062,-0.0781 -0.67187,-0.453125 -0.51563,-0.390625 -1.21875,-1.046875 -0.6875,-0.65625 -1.46875,-1.59375 -0.76563,-0.9375 -1.42188,-2.109375 -0.64062,-1.1875 -1.07812,-2.609375 -0.42188,-1.421875 -0.42188,-3.0625 0,-1.625 0.45313,-2.6875 0.46875,-1.078125 1.3125,-1.703125 0.84375,-0.640625 2.04687,-0.890625 1.20313,-0.25 2.6875,-0.25 h 5.75 V 79 h -14.84375 v -2.296875 h 20.67188 z m 4.39062,17.4375 -2.5,7.6875 H 334.625 l 1.82812,-7.6875 z M 370.20312,79 h -3.28125 v 21 h -2.5625 v -5.53125 l -0.0625,-0.01563 q -0.34375,0.296875 -0.8125,0.609375 -0.45312,0.3125 -1.0625,0.578125 -0.59375,0.265625 -1.34375,0.4375 -0.75,0.171875 -1.65625,0.171875 -1.70312,0 -3.10937,-0.59375 -1.40625,-0.609375 -2.42188,-1.609375 -1,-1.015625 -1.5625,-2.3125 -0.5625,-1.3125 -0.5625,-2.734375 0,-1.4375 0.5625,-2.671875 0.5625,-1.234375 1.53125,-2.125 0.98438,-0.90625 2.28125,-1.421875 1.29688,-0.515625 2.76563,-0.515625 0.45312,0 1.07812,0.07813 0.625,0.0625 1.32813,0.296875 0.71875,0.234375 1.48437,0.671875 0.76563,0.421875 1.5,1.140625 l 0.0625,-0.01563 V 79 h -15.1875 v -2.296875 h 21.03125 z m -15.9375,10.25 q 0,0.859375 0.29688,1.6875 0.29687,0.828125 0.89062,1.484375 0.59375,0.65625 1.46875,1.0625 0.875,0.390625 2.04688,0.390625 1.04687,0 2,-0.34375 l -5.15625,-7.75 q -0.71875,0.59375 -1.14063,1.5 -0.40625,0.90625 -0.40625,1.96875 z m 10.15625,-1.890625 Q 363.85937,86.75 363.26562,86.25 362.6875,85.75 362.03125,85.390625 361.375,85.03125 360.64062,84.828125 359.92187,84.625 359.09375,84.625 q -0.35938,0 -0.6875,0.04687 -0.32813,0.04687 -0.67188,0.125 l 5.07813,7.625 q 0.76562,-0.6875 1.1875,-1.515625 0.42187,-0.84375 0.42187,-1.640625 z m -3.125,13.109375 q 1,-0.625 2.21875,-0.96875 1.20313,-0.34375 2.29688,-0.34375 0.95312,0 1.78125,0.28125 0.8125,0.265625 1.42187,0.78125 0.60938,0.53125 0.95313,1.28125 0.34375,0.75 0.34375,1.6875 0,1 -0.40625,1.875 -0.39063,0.875 -1.1875,1.53125 -0.79688,0.65625 -1.96875,1.03125 -1.17188,0.39063 -2.71875,0.39063 -1.76563,0 -3.15625,-0.48438 -1.40625,-0.46875 -2.51563,-1.20312 -1.10937,-0.71875 -1.95312,-1.59375 -0.84375,-0.875 -1.48438,-1.65625 L 356.375,101.375 q 0.89062,0.96875 1.70312,1.75 0.8125,0.78125 1.6875,1.32813 0.875,0.5625 1.89063,0.85937 1,0.29688 2.26562,0.29688 1.07813,0 1.84375,-0.21875 0.75,-0.20313 1.23438,-0.54688 0.48437,-0.32812 0.70312,-0.76562 0.21875,-0.42188 0.21875,-0.85938 0,-0.79687 -0.59375,-1.26562 -0.60937,-0.46875 -1.64062,-0.46875 -0.67188,0 -1.54688,0.23437 -0.89062,0.23438 -1.79687,0.78125 z M 393.09375,79 h -4.65625 v 5.765625 h -7.82813 q -1.15625,0 -1.60937,0.328125 -0.4375,0.328125 -0.4375,1.0625 0,0.375 0.0937,0.78125 0.0937,0.40625 0.34375,0.765625 0.25,0.34375 0.67187,0.578125 0.4375,0.21875 1.10938,0.21875 h 4.42187 q 1.375,0 2.3125,0.375 0.95313,0.375 1.51563,1.03125 0.57812,0.65625 0.82812,1.546875 0.25,0.890625 0.25,1.90625 0,1.390625 -0.46875,2.65625 -0.45312,1.265625 -1.35937,2.234375 -0.90625,0.96875 -2.26563,1.546875 -1.34375,0.578125 -3.14062,0.578125 -1.95313,0 -3.75,-0.71875 -1.78125,-0.734375 -3.28125,-2.03125 -1.48438,-1.296875 -2.625,-3.078125 -1.125,-1.78125 -1.76563,-3.90625 L 373.625,89.78125 q 0.54687,1.609375 1.45312,3.09375 0.90625,1.484375 2.09375,2.625 1.20313,1.140625 2.64063,1.828125 Q 381.25,98 382.84375,98 q 1.125,0 2,-0.328125 0.89062,-0.328125 1.51562,-0.9375 0.625,-0.609375 0.95313,-1.453125 0.32812,-0.859375 0.32812,-1.921875 0,-0.75 -0.17187,-1.21875 -0.17188,-0.484375 -0.54688,-0.75 Q 386.5625,91.125 386,91.03125 q -0.5625,-0.109375 -1.34375,-0.109375 h -4.09375 q -1.15625,0 -2,-0.5 -0.84375,-0.5 -1.40625,-1.265625 -0.54688,-0.765625 -0.8125,-1.6875 -0.26563,-0.9375 -0.26563,-1.796875 0,-0.921875 0.29688,-1.53125 0.29687,-0.625 0.8125,-0.984375 0.51562,-0.375 1.21875,-0.53125 0.71875,-0.15625 1.54687,-0.15625 H 385.875 V 79 h -16.76563 v -2.296875 h 23.98438 z m 8.3125,0 H 398.125 v 21 h -2.5625 V 79 H 392 v -2.296875 h 9.40625 z m 22.85937,0 h -3.28125 v 21.01563 h -2.5625 V 85.375 q -0.82812,-0.296875 -1.5625,-0.296875 -0.73437,0 -1.28125,0.28125 -0.54687,0.265625 -0.92187,0.71875 -0.35938,0.453125 -0.54688,1.0625 -0.1875,0.609375 -0.1875,1.28125 0,0.265625 0.0156,0.546875 0.0312,0.265625 0.0625,0.53125 h -2.39063 q -0.125,-0.90625 -0.29687,-1.734375 -0.15625,-0.828125 -0.46875,-1.453125 -0.29688,-0.625 -0.78125,-0.984375 -0.48438,-0.375 -1.25,-0.375 -0.73438,0 -1.26563,0.296875 -0.51562,0.296875 -0.85937,0.828125 -0.34375,0.53125 -0.51563,1.25 -0.15625,0.703125 -0.15625,1.53125 0,1.78125 0.60938,3.203125 0.60937,1.40625 1.64062,2.53125 1.04688,1.125 2.40625,2.015625 1.375,0.875 2.89063,1.609375 l -1.26563,2.15625 q -0.5625,-0.25 -1.45312,-0.75 -0.875,-0.5 -1.875,-1.234375 -0.98438,-0.734375 -1.98438,-1.71875 -1,-0.984375 -1.8125,-2.203125 -0.79687,-1.21875 -1.29687,-2.6875 -0.5,-1.46875 -0.5,-3.171875 0,-1.3125 0.375,-2.4375 0.375,-1.140625 1.0625,-1.96875 0.70312,-0.84375 1.6875,-1.3125 0.98437,-0.484375 2.1875,-0.484375 0.90625,0 1.5625,0.265625 0.65625,0.25 1.125,0.640625 0.48437,0.375 0.79687,0.828125 0.3125,0.4375 0.54688,0.828125 l 0.0781,-0.01563 q 0.29688,-0.65625 0.70313,-1.109375 0.42187,-0.453125 0.90625,-0.734375 0.5,-0.28125 1.04687,-0.40625 Q 416,82.5625 416.54687,82.5625 q 0.48438,0 0.95313,0.09375 0.48437,0.07813 0.92187,0.234375 V 79 H 400.3125 v -2.296875 h 23.95312 z m 8.3125,0 h -3.28125 v 21 h -2.5625 V 79 h -3.5625 v -2.296875 h 9.40625 z m 4.39063,17.4375 -2.5,7.6875 h -1.82813 l 1.82813,-7.6875 z"
         id="path4" />
      <path
         d="m 69.8125,129 h -3.28125 v 21 h -2.578125 v -6.96875 l -0.0625,-0.0156 -9.53125,7.17188 L 52.75,148.23437 58.296875,144.25 58.28125,144.1875 q -1.203125,-0.0937 -2.1875,-0.53125 -0.984375,-0.4375 -1.6875,-1.23438 -0.703125,-0.79687 -1.09375,-1.96875 -0.375,-1.17187 -0.375,-2.73437 V 129 h -3.484375 v -2.29687 H 69.8125 Z m -5.859375,0 H 55.46875 v 8.57812 q 0,0.98438 0.15625,1.76563 0.171875,0.78125 0.5625,1.32812 0.40625,0.54688 1.0625,0.84375 0.65625,0.28125 1.640625,0.28125 1.609375,0 2.90625,-0.70312 1.296875,-0.71875 2.15625,-1.89063 z m 25.765625,0 H 86.4375 v 21 H 83.875 v -7.3125 l -0.0625,-0.0156 q -0.421875,0.34375 -1.015625,0.6875 -0.578125,0.32813 -1.296875,0.59375 -0.71875,0.25 -1.546875,0.42188 -0.828125,0.15625 -1.734375,0.15625 -1.8125,0 -3.109375,-0.65625 -1.28125,-0.65625 -2.15625,-1.75 -0.859375,-1.10938 -1.359375,-2.51563 -0.5,-1.42187 -0.71875,-2.95312 1.03125,-0.14063 1.765625,-0.48438 0.734375,-0.34375 1.1875,-0.8125 0.453125,-0.48437 0.65625,-1.04687 0.21875,-0.5625 0.21875,-1.125 0,-0.375 -0.07813,-0.84375 -0.0625,-0.46875 -0.234375,-1 Q 74.21875,130.79687 73.9375,130.20312 73.65625,129.60937 73.234375,129 H 68.71875 v -2.29687 h 21 z M 76,129 q 0.5625,0.95312 0.875,2.09375 0.328125,1.125 0.328125,2.21875 0,0.79687 -0.21875,1.54687 -0.203125,0.75 -0.640625,1.40625 -0.4375,0.64063 -1.09375,1.15625 -0.640625,0.5 -1.5,0.79688 0.25,1.04687 0.6875,1.79687 0.4375,0.73438 1.03125,1.21875 0.59375,0.46875 1.328125,0.6875 0.734375,0.21875 1.578125,0.21875 0.8125,0 1.59375,-0.1875 0.796875,-0.1875 1.5,-0.53125 0.71875,-0.35937 1.328125,-0.85937 0.609375,-0.5 1.078125,-1.125 V 129 Z m 22.03125,0 H 94.75 v 21 H 92.1875 V 129 H 88.625 v -2.29687 h 9.40625 z m -3.5,-1.85937 h -2.265625 l -1.421875,-2.67188 q -0.90625,-1.70312 -1.65625,-2.70312 -0.734375,-1 -1.390625,-1.51563 -0.671875,-0.53125 -1.3125,-0.67187 -0.640625,-0.15625 -1.34375,-0.15625 h -3.03125 v -2.53125 h 2.859375 q 0.90625,0 1.640625,0.15625 0.734375,0.14062 1.40625,0.53125 0.65625,0.375 1.28125,1.0625 0.640625,0.67187 1.359375,1.75 0.71875,1.0625 1.5625,2.5625 0.859375,1.48437 1.953125,3.51562 z M 117.98438,129 h -3.28125 v 21 h -2.5625 v -21 h -7.04688 v 12.125 q 0,0.25 -0.0312,0.57812 -0.0312,0.32813 -0.15625,0.64063 -0.10937,0.29687 -0.32812,0.51562 -0.21875,0.20313 -0.60938,0.20313 -0.42187,0 -0.9375,-0.26563 -0.5,-0.28125 -1.03125,-0.71875 -0.53125,-0.45312 -1.03125,-1.01562 -0.48437,-0.5625 -0.875,-1.15625 -0.390625,-0.59375 -0.625,-1.15625 -0.234375,-0.5625 -0.234375,-1 0,-0.39063 0.1875,-0.625 0.203125,-0.23438 0.546875,-0.35938 0.35938,-0.125 0.85938,-0.15625 0.51562,-0.0312 1.125,-0.0312 H 102.5 V 129 h -5.5625 v -2.29687 h 21.04688 z m 36.39062,0 h -13.20313 v 6.15625 l 0.0781,0.0312 q 0.79687,-1.09375 1.98437,-1.75 1.1875,-0.67188 2.60938,-0.67188 1.125,0 2.07812,0.46875 0.96875,0.45313 1.67188,1.26563 0.70312,0.79687 1.09375,1.89062 0.40625,1.09375 0.40625,2.35938 0,1.4375 -0.5,2.65625 -0.5,1.20312 -1.28125,2.1875 -0.78125,0.98437 -1.76563,1.75 -0.98437,0.75 -1.9375,1.28125 l -1.39062,-2.40625 q 0.3125,-0.17188 0.76562,-0.45313 0.45313,-0.28125 0.9375,-0.65625 0.5,-0.375 0.96875,-0.84375 0.48438,-0.48437 0.85938,-1.04687 0.39062,-0.5625 0.625,-1.21875 0.23437,-0.65625 0.23437,-1.39063 0,-0.67187 -0.21875,-1.28125 -0.20312,-0.60937 -0.57812,-1.0625 -0.375,-0.45312 -0.90625,-0.71875 -0.51563,-0.26562 -1.14063,-0.26562 -0.8125,0 -1.57812,0.42187 -0.76563,0.42188 -1.39063,1.0625 -0.625,0.625 -1.0625,1.34375 -0.42187,0.71875 -0.5625,1.32813 V 150 h -2.5625 v -5.98438 l -0.0625,-0.0312 q -0.23437,0.20313 -0.59375,0.5 -0.35937,0.28125 -0.875,0.54688 -0.5,0.26562 -1.17187,0.45312 -0.65625,0.1875 -1.48438,0.1875 -1.375,0 -2.54687,-0.53125 -1.15625,-0.53125 -2.01563,-1.4375 -0.84375,-0.92187 -1.32812,-2.15625 -0.48438,-1.23437 -0.48438,-2.64062 0,-1.34375 0.4375,-2.48438 0.45313,-1.14062 1.21875,-1.95312 0.78125,-0.82813 1.8125,-1.28125 1.04688,-0.46875 2.25,-0.46875 0.84375,0 1.5625,0.21875 0.73438,0.20312 1.32813,0.51562 0.60937,0.29688 1.07812,0.65625 0.48438,0.34375 0.8125,0.625 l 0.0625,-0.0156 V 129 h -12.95312 v -2.29687 H 154.375 Z m -20.23438,6.15625 q -0.89062,0 -1.57812,0.375 -0.67188,0.35937 -1.125,0.9375 -0.45313,0.5625 -0.6875,1.28125 -0.21875,0.70312 -0.21875,1.39062 0,0.75 0.26562,1.5 0.26563,0.73438 0.75,1.32813 0.5,0.59375 1.1875,0.96875 0.6875,0.35937 1.51563,0.35937 0.70312,0 1.46875,-0.28125 0.78125,-0.29687 1.42187,-0.90625 0.65625,-0.60937 1.07813,-1.54687 0.42187,-0.95313 0.42187,-2.26563 v -0.76562 q -0.375,-0.46875 -0.89062,-0.89063 -0.5,-0.4375 -1.09375,-0.76562 -0.57813,-0.32813 -1.21875,-0.51563 -0.64063,-0.20312 -1.29688,-0.20312 z M 185.64062,129 H 164.125 q 0.75,1.32812 1.23437,2.67187 0.48438,1.32813 0.53125,2.75 0.70313,0.0469 1.32813,0.21875 0.64062,0.17188 1.23437,0.4375 0.79688,-0.98437 2.03125,-1.46875 1.25,-0.48437 2.625,-0.48437 1.32813,0 2.48438,0.4375 1.17187,0.42187 2.17187,1.125 1,0.70312 1.82813,1.59375 0.82812,0.875 1.48437,1.79687 0.67188,0.92188 1.17188,1.78125 0.51562,0.85938 0.85937,1.5 L 181.125,142.375 q -0.79688,-1.40625 -1.64063,-2.65625 -0.84375,-1.26563 -1.79687,-2.20313 -0.95313,-0.95312 -2.0625,-1.5 -1.09375,-0.5625 -2.40625,-0.5625 -0.79688,0 -1.42188,0.20313 -0.60937,0.20312 -1.03125,0.54687 -0.42187,0.32813 -0.64062,0.78125 -0.21875,0.4375 -0.21875,0.90625 0,0.9375 0.67187,1.46875 0.6875,0.51563 1.85938,0.51563 1.25,0 2.26562,-0.4375 l 0.54688,2.25 q -0.67188,0.26562 -1.375,0.40625 -0.6875,0.125 -1.35938,0.125 -1,0 -1.90625,-0.28125 -0.89062,-0.29688 -1.57812,-0.85938 -0.67188,-0.5625 -1.07813,-1.39062 -0.39062,-0.82813 -0.39062,-1.90625 0,-0.125 0,-0.23438 0,-0.10937 0.0156,-0.21875 -0.46875,-0.23437 -0.96875,-0.39062 -0.48437,-0.15625 -1.01562,-0.1875 -0.25,0.76562 -0.6875,1.4375 -0.42188,0.67187 -1.03125,1.1875 -0.59375,0.5 -1.375,0.8125 -0.78125,0.3125 -1.73438,0.35937 l -0.0312,0.0781 q 1.40625,2.1875 3.15625,4.14062 1.75,1.9375 4.04688,3.6875 l -1.67188,1.92188 q -1.32812,-0.98438 -2.53125,-2.125 -1.1875,-1.15625 -2.25,-2.375 -1.0625,-1.23438 -1.98437,-2.48438 -0.90625,-1.26562 -1.67188,-2.46875 -0.75,-1.20312 -1.34375,-2.29687 -0.59375,-1.09375 -1.01562,-2 l 2.14062,-1.15625 q 0.5625,1.21875 1.26563,1.92187 0.71875,0.6875 1.65625,0.6875 0.67187,0 1.20312,-0.34375 0.53125,-0.34375 0.89063,-0.875 0.35937,-0.54687 0.54687,-1.1875 0.1875,-0.65625 0.1875,-1.28125 0,-0.73437 -0.1875,-1.45312 -0.1875,-0.71875 -0.48437,-1.39063 -0.29688,-0.6875 -0.67188,-1.3125 Q 161.65625,129.59375 161.3125,129 h -8.03125 v -2.29687 h 32.35937 z m 19.4375,0 h -3.28125 v 21 h -2.57812 v -12.04688 h -7.3125 q 0,1.03125 -0.0312,1.76563 -0.0156,0.73437 -0.125,1.21875 -0.10938,0.46875 -0.32813,0.6875 -0.21875,0.21875 -0.60937,0.21875 -0.8125,0 -1.54688,-0.53125 -0.71875,-0.53125 -1.28125,-1.28125 -0.54687,-0.75 -0.875,-1.5625 -0.32812,-0.8125 -0.32812,-1.375 0,-0.5 0.21875,-0.78125 0.21875,-0.28125 0.57812,-0.42188 0.35938,-0.14062 0.8125,-0.17187 0.46875,-0.0312 0.9375,-0.0312 h 9.89063 V 129 h -14.67188 v -2.29687 h 20.53125 z m 28.34375,0 h -3.28125 v 21 h -2.54687 v -13.71875 h -5.07813 q -1.04687,0 -1.89062,0.14062 -0.84375,0.125 -1.4375,0.53125 -0.59375,0.39063 -0.92188,1.10938 -0.3125,0.70312 -0.3125,1.85937 0,1.5 0.48438,2.76563 0.5,1.26562 1.26562,2.32812 0.76563,1.04688 1.6875,1.9375 0.9375,0.89063 1.79688,1.64063 l -1.5625,1.78125 q -0.14063,-0.0781 -0.67188,-0.45313 -0.51562,-0.39062 -1.21875,-1.04687 -0.6875,-0.65625 -1.46875,-1.59375 -0.76562,-0.9375 -1.42187,-2.10938 -0.64063,-1.1875 -1.07813,-2.60937 -0.42187,-1.42188 -0.42187,-3.0625 0,-1.625 0.45312,-2.6875 0.46875,-1.07813 1.3125,-1.70313 0.84375,-0.64062 2.04688,-0.89062 1.20312,-0.25 2.6875,-0.25 h 5.75 V 129 H 212.75 v -2.29687 h 20.67187 z m 8.3125,0 h -3.28125 v 21 h -2.5625 v -21 h -3.5625 v -2.29687 h 9.40625 z m -3.5,-1.85937 h -2.26562 l -1.42188,-2.67188 q -0.90625,-1.70312 -1.65625,-2.70312 -0.73437,-1 -1.39062,-1.51563 -0.67188,-0.53125 -1.3125,-0.67187 -0.64063,-0.15625 -1.34375,-0.15625 h -3.03125 v -2.53125 h 2.85937 q 0.90625,0 1.64063,0.15625 0.73437,0.14062 1.40625,0.53125 0.65625,0.375 1.28125,1.0625 0.64062,0.67187 1.35937,1.75 0.71875,1.0625 1.5625,2.5625 0.85938,1.48437 1.95313,3.51562 z m 32.75,-0.4375 V 129 h -3.28125 v 21 h -2.5625 v -15.23438 h -7.35937 v 0.17188 q 0.70312,0.375 1.45312,0.96875 0.75,0.59375 1.35938,1.375 0.625,0.78125 1.01562,1.75 0.40625,0.95312 0.40625,2.07812 0,0.8125 -0.25,1.5625 -0.25,0.73438 -0.75,1.35938 -0.48437,0.625 -1.21875,1.07812 -0.73437,0.45313 -1.6875,0.67188 l -0.0312,0.0469 q 0.45313,0.53125 0.92188,1.14063 0.48437,0.59375 1,1.35937 0.53125,0.75 1.125,1.70313 0.60937,0.95312 1.3125,2.1875 l -2.20313,1.21875 q -0.1875,-0.39063 -0.51562,-0.98438 -0.32813,-0.59375 -0.75,-1.28125 -0.40625,-0.67187 -0.89063,-1.40625 -0.46875,-0.73437 -0.95312,-1.40625 -0.46875,-0.6875 -0.9375,-1.26562 -0.45313,-0.57813 -0.82813,-0.95313 -1.0625,0 -1.84375,-0.29687 -0.78125,-0.29688 -1.3125,-0.75 -0.51562,-0.45313 -0.78125,-1.01563 -0.25,-0.5625 -0.25,-1.09375 0,-0.375 0.125,-0.70312 0.125,-0.34375 0.375,-0.59375 0.26563,-0.26563 0.65625,-0.42188 0.39063,-0.15625 0.92188,-0.15625 1.07812,0 1.95312,0.64063 0.89063,0.625 1.59375,1.76562 1.375,-0.0937 2.04688,-0.75 0.6875,-0.67187 0.6875,-1.75 0,-1.07812 -0.60938,-2.04687 -0.59375,-0.98438 -1.5625,-1.8125 -0.96875,-0.82813 -2.1875,-1.48438 -1.21875,-0.65625 -2.45312,-1.09375 v -2.10937 h 12.42187 V 129 h -15.73437 v -2.29687 z M 279.29687,129 h -3.28125 v 21 h -2.5625 v -21 h -3.5625 v -2.29687 h 9.40625 z m 19.4375,0 h -3.28125 v 21 H 292.875 v -12.04688 h -7.3125 q 0,1.03125 -0.0312,1.76563 -0.0156,0.73437 -0.125,1.21875 -0.10938,0.46875 -0.32813,0.6875 -0.21875,0.21875 -0.60937,0.21875 -0.8125,0 -1.54688,-0.53125 -0.71875,-0.53125 -1.28125,-1.28125 -0.54687,-0.75 -0.875,-1.5625 -0.32812,-0.8125 -0.32812,-1.375 0,-0.5 0.21875,-0.78125 0.21875,-0.28125 0.57812,-0.42188 0.35938,-0.14062 0.8125,-0.17187 0.46875,-0.0312 0.9375,-0.0312 H 292.875 V 129 h -14.67188 v -2.29687 h 20.53125 z m 28.03125,0 h -3.28125 v 21 h -2.57812 v -7.46875 l -0.0625,-0.0156 q -1.04688,0.9375 -2.34375,1.34375 -1.29688,0.39063 -2.5625,0.39063 -1.34375,0 -2.45313,-0.39063 -1.10937,-0.39062 -1.90625,-1.1875 -0.79687,-0.8125 -1.25,-2.03125 -0.4375,-1.23437 -0.4375,-2.92187 V 129 h -3.48437 v -2.29687 h 20.35937 z m -5.85937,0 h -8.48438 v 8.57812 q 0,0.98438 0.15625,1.76563 0.17188,0.78125 0.5625,1.32812 0.40625,0.54688 1.0625,0.84375 0.65625,0.28125 1.64063,0.28125 1.60937,0 2.90625,-0.75 1.29687,-0.76562 2.15625,-2 z m 14.17187,0 h -3.28125 v 21 h -2.5625 v -21 h -3.5625 v -2.29687 h 9.40625 z m 18.8125,0 h -3.28125 v 21 h -2.5625 v -5.57813 l -0.0625,-0.0156 q -0.3125,0.29687 -0.73437,0.625 -0.42188,0.3125 -0.96875,0.57812 -0.54688,0.25 -1.23438,0.42188 -0.67187,0.17187 -1.51562,0.17187 -1.54688,0 -2.82813,-0.59375 -1.26562,-0.59375 -2.1875,-1.57812 -0.92187,-1 -1.4375,-2.28125 -0.5,-1.29688 -0.5,-2.70313 0,-1.40625 0.5,-2.60937 0.51563,-1.21875 1.40625,-2.10938 0.89063,-0.89062 2.07813,-1.39062 1.1875,-0.51563 2.54687,-0.51563 0.375,0 0.9375,0.0625 0.57813,0.0625 1.23438,0.28125 0.65625,0.21875 1.35937,0.64063 0.70313,0.40625 1.34375,1.10937 l 0.0625,-0.0156 V 129 h -14.0625 v -2.29687 h 19.90625 z m -5.78125,8.42187 q -0.98437,-1.1875 -2.14062,-1.90625 -1.15625,-0.73437 -2.625,-0.73437 -1.15625,0 -1.96875,0.4375 -0.79688,0.4375 -1.3125,1.10937 -0.51563,0.65625 -0.75,1.46875 -0.23438,0.8125 -0.23438,1.5625 0,0.8125 0.26563,1.60938 0.26562,0.79687 0.78125,1.4375 0.53125,0.625 1.3125,1.03125 0.78125,0.39062 1.82812,0.39062 1.07813,0 1.96875,-0.40625 0.89063,-0.42187 1.53125,-1.0625 0.64063,-0.64062 0.98438,-1.4375 0.35937,-0.79687 0.35937,-1.54687 z M 376.75,129 h -3.28125 v 21.01562 h -2.5625 V 135.375 q -0.82813,-0.29688 -1.5625,-0.29688 -0.73438,0 -1.28125,0.28125 -0.54688,0.26563 -0.92188,0.71875 -0.35937,0.45313 -0.54687,1.0625 -0.1875,0.60938 -0.1875,1.28125 0,0.26563 0.0156,0.54688 0.0312,0.26562 0.0625,0.53125 h -2.39062 q -0.125,-0.90625 -0.29688,-1.73438 -0.15625,-0.82812 -0.46875,-1.45312 -0.29687,-0.625 -0.78125,-0.98438 -0.48437,-0.375 -1.25,-0.375 -0.73437,0 -1.26562,0.29688 -0.51563,0.29687 -0.85938,0.82812 -0.34375,0.53125 -0.51562,1.25 -0.15625,0.70313 -0.15625,1.53125 0,1.78125 0.60937,3.20313 0.60938,1.40625 1.64063,2.53125 1.04687,1.125 2.40625,2.01562 1.375,0.875 2.89062,1.60938 l -1.26562,2.15625 q -0.5625,-0.25 -1.45313,-0.75 -0.875,-0.5 -1.875,-1.23438 -0.98437,-0.73437 -1.98437,-1.71875 -1,-0.98437 -1.8125,-2.20312 -0.79688,-1.21875 -1.29688,-2.6875 -0.5,-1.46875 -0.5,-3.17188 0,-1.3125 0.375,-2.4375 0.375,-1.14062 1.0625,-1.96875 0.70313,-0.84375 1.6875,-1.3125 0.98438,-0.48437 2.1875,-0.48437 0.90625,0 1.5625,0.26562 0.65625,0.25 1.125,0.64063 0.48438,0.375 0.79688,0.82812 0.3125,0.4375 0.54687,0.82813 l 0.0781,-0.0156 q 0.29687,-0.65625 0.70312,-1.10937 0.42188,-0.45313 0.90625,-0.73438 0.5,-0.28125 1.04688,-0.40625 0.54687,-0.14062 1.09375,-0.14062 0.48437,0 0.95312,0.0937 0.48438,0.0781 0.92188,0.23437 V 129 h -18.10938 v -2.29687 H 376.75 Z m 8.3125,0 h -3.28125 v 21 h -2.5625 v -21 h -3.5625 v -2.29687 h 9.40625 z M 388,150.34375 q -0.71875,0 -1.23438,-0.51563 -0.5,-0.51562 -0.5,-1.23437 0,-0.71875 0.5,-1.23438 0.51563,-0.53125 1.23438,-0.53125 0.73437,0 1.25,0.53125 0.51562,0.51563 0.51562,1.23438 0,0.71875 -0.51562,1.23437 -0.51563,0.51563 -1.25,0.51563 z"
         id="path5" />
      <path
         d="M 73.59375,176.70312 V 179 H 70.3125 v 21 h -2.59375 v -10.5 h -9.046875 q -0.828125,0.54687 -1.984375,0.65625 l -0.03125,0.0781 q 1.515625,2.375 3.328125,4.42188 1.8125,2.04687 4.125,3.79687 L 62.4375,200.375 q -1.328125,-0.98438 -2.53125,-2.125 -1.1875,-1.14063 -2.25,-2.35938 -1.046875,-1.23437 -1.96875,-2.48437 -0.921875,-1.26563 -1.6875,-2.48438 -0.765625,-1.21875 -1.375,-2.34375 -0.609375,-1.14062 -1.0625,-2.10937 l 2.140625,-1.15625 Q 54,186 54.28125,186.46875 q 0.296875,0.45312 0.59375,0.73437 0.296875,0.26563 0.625,0.39063 0.328125,0.10937 0.703125,0.10937 1.078125,0 1.578125,-0.84375 0.515625,-0.84375 0.515625,-2.21875 0,-0.8125 -0.15625,-1.59375 -0.15625,-0.79687 -0.40625,-1.51562 Q 57.5,180.79687 57.21875,180.15625 56.9375,179.51562 56.6875,179 h -7.234375 v -2.29688 z M 67.71875,179 h -8.328125 q 0.65625,1.42187 1.03125,2.85937 0.375,1.4375 0.375,2.85938 0,0.65625 -0.109375,1.29687 -0.09375,0.625 -0.328125,1.1875 l 0.03125,0.0312 h 7.328125 z m 9,29 q -0.796875,-1.3125 -1.640625,-2.5 -0.84375,-1.17188 -1.796875,-2.04688 -0.953125,-0.875 -2.046875,-1.39062 -1.109375,-0.51563 -2.421875,-0.51563 -0.796875,0 -1.40625,0.1875 -0.625,0.1875 -1.046875,0.5 -0.421875,0.3125 -0.640625,0.71875 Q 65.5,203.375 65.5,203.8125 q 0,0.84375 0.6875,1.34375 0.671875,0.5 1.84375,0.5 1.09375,0 2.265625,-0.4375 l 0.546875,2.25 q -0.671875,0.26562 -1.359375,0.39062 Q 68.78125,208 68.109375,208 q -1,0 -1.890625,-0.28125 -0.90625,-0.28125 -1.578125,-0.82813 -0.6875,-0.53125 -1.078125,-1.34375 -0.40625,-0.79687 -0.40625,-1.82812 0,-1.14063 0.484375,-2 0.46875,-0.84375 1.25,-1.40625 0.78125,-0.54688 1.78125,-0.8125 1,-0.28125 2.03125,-0.28125 1.328125,0 2.5,0.40625 1.15625,0.40625 2.15625,1.0625 1,0.67187 1.828125,1.5 0.828125,0.84375 1.484375,1.70312 0.671875,0.85938 1.171875,1.67188 0.515625,0.8125 0.859375,1.42187 z m 15.25,-31.29688 V 179 H 88.6875 v 21 H 86.125 v -8.4375 l -0.04687,-0.0156 -9.3125,6.29688 -1.359375,-2.07813 10.71875,-7.09375 q -1.03125,-0.85937 -1.78125,-1.45312 -0.734375,-0.59375 -1.3125,-0.95313 -0.578125,-0.375 -1.078125,-0.53125 -0.5,-0.17187 -1.03125,-0.17187 -0.453125,0 -1,0.125 -0.53125,0.125 -1.234375,0.375 -0.703125,0.23437 -1.578125,0.60937 -0.875,0.35938 -1.984375,0.84375 l -1.03125,-2.46875 q 1.125,-0.48437 2.046875,-0.85937 0.921875,-0.39063 1.6875,-0.64063 0.765625,-0.26562 1.390625,-0.39062 0.640625,-0.14063 1.1875,-0.14063 0.578125,0 1.140625,0.20313 0.578125,0.1875 1.234375,0.60937 0.671875,0.40625 1.46875,1.04688 0.8125,0.64062 1.875,1.53125 V 179 H 72.5 v -2.29688 z m -3.5,0.4375 h -2.265625 l -1.421875,-2.67187 q -0.90625,-1.70313 -1.640625,-2.70313 -0.75,-1 -1.40625,-1.51562 -0.671875,-0.53125 -1.3125,-0.67188 -0.640625,-0.15625 -1.34375,-0.15625 h -3.03125 v -2.53125 h 2.859375 q 0.90625,0 1.640625,0.15625 0.734375,0.14063 1.40625,0.53125 0.65625,0.375 1.296875,1.0625 0.625,0.67188 1.34375,1.75 0.71875,1.0625 1.578125,2.5625 0.84375,1.48438 1.9375,3.51563 z m 7.890625,19.29688 -2.5,7.6875 H 92.03125 l 1.828125,-7.6875 z m 14.406255,-10.25 q 0.23437,0.73437 0.54687,1.60937 0.3125,0.85938 0.73438,1.75 0.4375,0.875 0.96875,1.70313 0.54687,0.82812 1.23437,1.46875 0.70313,0.64062 1.54688,1.03125 0.84375,0.375 1.875,0.375 1.01562,0 1.71875,-0.29688 0.70312,-0.29687 1.14062,-0.79687 0.4375,-0.5 0.625,-1.17188 0.20313,-0.67187 0.20313,-1.40625 0,-1.60937 -1.17188,-2.51562 -1.15625,-0.90625 -3.35937,-0.90625 -0.26563,0 -0.53125,0.0156 -0.26563,0.0156 -0.53125,0.0469 v -2.375 q 0.125,0.0156 0.21875,0.0156 0.10937,0 0.125,0 1.09375,0 1.9375,-0.26562 0.85937,-0.28125 1.4375,-0.75 0.57812,-0.46875 0.875,-1.09375 0.29687,-0.625 0.29687,-1.3125 0,-0.625 -0.21875,-1.10938 -0.21875,-0.48437 -0.59375,-0.8125 -0.375,-0.32812 -0.89062,-0.48437 -0.51563,-0.17188 -1.125,-0.17188 -0.42188,0 -0.8125,0.0625 -0.39063,0.0469 -0.82813,0.17188 -0.4375,0.10937 -0.9375,0.29687 -0.48437,0.1875 -1.10937,0.46875 L 113.25,177.59375 q 1.21875,-0.59375 2.34375,-0.89063 1.125,-0.3125 2.29688,-0.3125 1.125,0 2.07812,0.35938 0.96875,0.35937 1.65625,1 0.70313,0.625 1.09375,1.5 0.39063,0.875 0.39063,1.89062 0,2.79688 -2.67188,4.5 v 0.0625 q 1.04688,0.4375 1.75,1.07813 0.45313,0.0781 0.95313,0.125 0.51562,0.0469 0.9375,0.0469 0.4375,0 0.92187,-0.0625 0.48438,-0.0625 0.98438,-0.23437 0.51562,-0.17188 1.03125,-0.48438 0.53125,-0.3125 1.06249,-0.8125 v -8.65625 h 5.84375 V 179 h -3.28125 v 21 h -2.5625 v -11.875 l -0.0625,-0.0156 q -0.89062,0.59375 -1.67187,0.78125 -0.78125,0.1875 -1.60937,0.1875 -0.26563,0 -0.54688,-0.0156 -0.28125,-0.0312 -0.57812,-0.0625 l -0.0156,0.0625 q 0.25,0.64062 0.25,1.57812 0,1.26563 -0.42187,2.34375 -0.42188,1.07813 -1.21875,1.875 -0.78125,0.78125 -1.90625,1.21875 -1.10938,0.4375 -2.5,0.4375 -1.48438,0 -2.6875,-0.51562 -1.1875,-0.53125 -2.15625,-1.35938 -0.95313,-0.82812 -1.67188,-1.85937 -0.71875,-1.04688 -1.23437,-2.09375 -0.51563,-1.04688 -0.84375,-1.98438 Q 108.875,187.75 108.71875,187.125 Z M 142.23437,179 h -3.28125 v 21 h -2.5625 v -21 h -3.5625 v -2.29688 h 3.5625 q -0.85937,-2.0625 -0.85937,-3.84375 0,-1.14062 0.375,-2.125 0.375,-0.98437 1.14062,-1.70312 0.78125,-0.71875 1.98438,-1.125 1.20312,-0.40625 2.85937,-0.40625 2.17188,0 4.17188,0.70312 2.01562,0.70313 3.9375,1.95313 1.92187,1.25 3.79687,2.96875 1.89063,1.71875 3.8125,3.75 h -2.71875 q -0.4375,-0.42188 -1.17187,-1.09375 -0.71875,-0.6875 -1.67188,-1.45313 -0.95312,-0.78125 -2.10937,-1.5625 -1.15625,-0.79687 -2.4375,-1.4375 -1.28125,-0.64062 -2.67188,-1.03125 -1.375,-0.40625 -2.78125,-0.40625 -1.14062,0 -1.92187,0.26563 -0.76563,0.26562 -1.25,0.73437 Q 138.40625,171.35937 138.20312,172 138,172.625 138,173.34375 q 0,1.40625 0.76562,3.35937 h 3.46875 z m 22.9375,0 h -3.28125 v 21 h -2.5625 v -8.76563 H 151.125 v 2.23438 q 0,0.23437 -0.0469,0.5 -0.0312,0.26562 -0.15625,0.5 -0.10937,0.21875 -0.3125,0.375 -0.1875,0.14062 -0.48437,0.14062 -0.35938,0 -0.85938,-0.21875 -0.48437,-0.23437 -1.01562,-0.60937 -0.51563,-0.39063 -1.03125,-0.875 -0.5,-0.5 -0.90625,-1.03125 -0.39063,-0.53125 -0.64063,-1.0625 -0.25,-0.53125 -0.25,-0.98438 0,-0.65625 0.46875,-0.95312 0.46875,-0.29688 1.23438,-0.29688 h 1.51562 V 180.375 q 0,-0.8125 -0.39062,-1.23438 -0.39063,-0.4375 -0.98438,-0.4375 -0.65625,0 -1.10937,0.48438 -0.4375,0.48437 -0.4375,1.23437 0,0.14063 0.0312,0.34375 0.0312,0.20313 0.15625,0.46875 0.125,0.25 0.375,0.57813 0.25,0.3125 0.67187,0.67187 l -1.39062,1.70313 q -0.71875,-0.39063 -1.17188,-0.85938 -0.45312,-0.48437 -0.70312,-0.98437 -0.25,-0.5 -0.34375,-0.96875 -0.0937,-0.48438 -0.0937,-0.89063 0,-0.75 0.25,-1.46875 0.26562,-0.73437 0.78125,-1.3125 0.51562,-0.59375 1.28125,-0.95312 0.78125,-0.35938 1.8125,-0.35938 0.90625,0 1.60937,0.29688 0.70313,0.29687 1.17188,0.85937 0.48437,0.54688 0.71875,1.32813 0.25,0.76562 0.25,1.71875 v 8.35937 h 8.20312 v -12.25 h 5.84375 z m 8.3125,0 h -3.28125 v 21 h -2.5625 v -21 h -3.5625 v -2.29688 h 3.5625 q -0.85937,-2.0625 -0.85937,-3.84375 0,-1.14062 0.375,-2.125 0.375,-0.98437 1.14062,-1.70312 0.78125,-0.71875 1.98438,-1.125 1.20312,-0.40625 2.85937,-0.40625 2.17188,0 4.17188,0.70312 2.01562,0.70313 3.9375,1.95313 1.92187,1.25 3.79687,2.96875 1.89063,1.71875 3.8125,3.75 h -2.71875 q -0.4375,-0.42188 -1.17187,-1.09375 -0.71875,-0.6875 -1.67188,-1.45313 -0.95312,-0.78125 -2.10937,-1.5625 -1.15625,-0.79687 -2.4375,-1.4375 -1.28125,-0.64062 -2.67188,-1.03125 -1.375,-0.40625 -2.78125,-0.40625 -1.14062,0 -1.92187,0.26563 -0.76563,0.26562 -1.25,0.73437 -0.46875,0.46875 -0.67188,1.10938 -0.20312,0.625 -0.20312,1.34375 0,1.40625 0.76562,3.35937 h 3.46875 z m 27.625,0 h -13.20312 v 6.15625 l 0.0781,0.0312 q 0.79688,-1.09375 1.98438,-1.75 1.1875,-0.67188 2.60937,-0.67188 1.125,0 2.07813,0.46875 0.96875,0.45313 1.67187,1.26563 0.70313,0.79687 1.09375,1.89062 0.40625,1.09375 0.40625,2.35938 0,1.4375 -0.5,2.65625 -0.5,1.20312 -1.28125,2.1875 -0.78125,0.98437 -1.76562,1.75 -0.98438,0.75 -1.9375,1.28125 l -1.39063,-2.40625 q 0.3125,-0.17188 0.76563,-0.45313 0.45312,-0.28125 0.9375,-0.65625 0.5,-0.375 0.96875,-0.84375 0.48437,-0.48437 0.85937,-1.04687 0.39063,-0.5625 0.625,-1.21875 0.23438,-0.65625 0.23438,-1.39063 0,-0.67187 -0.21875,-1.28125 -0.20313,-0.60937 -0.57813,-1.0625 -0.375,-0.45312 -0.90625,-0.71875 -0.51562,-0.26562 -1.14062,-0.26562 -0.8125,0 -1.57813,0.42187 -0.76562,0.42188 -1.39062,1.0625 -0.625,0.625 -1.0625,1.34375 -0.42188,0.71875 -0.5625,1.32813 V 200 h -2.5625 v -5.84375 l -0.0469,-0.0156 -8.28125,6.23438 -1.51562,-1.85938 4.3125,-3.09375 -0.0156,-0.0469 q -1.125,-0.20313 -2.0625,-0.78125 -0.92187,-0.57813 -1.57812,-1.42188 -0.65625,-0.84375 -1.01563,-1.92187 -0.35937,-1.09375 -0.35937,-2.34375 0,-1.34375 0.4375,-2.48438 0.45312,-1.14062 1.21875,-1.95312 0.78125,-0.82813 1.8125,-1.28125 1.04687,-0.46875 2.25,-0.46875 0.84375,0 1.5625,0.21875 0.73437,0.20312 1.32812,0.51562 0.60938,0.29688 1.07813,0.65625 0.48437,0.34375 0.8125,0.625 l 0.0625,-0.0156 V 179 h -12.95313 v -2.29688 h 28.71875 z m -20.23437,6.15625 q -0.89063,0 -1.57813,0.375 -0.67187,0.35937 -1.125,0.9375 -0.45312,0.5625 -0.6875,1.28125 -0.21875,0.70312 -0.21875,1.39062 0,0.75 0.26563,1.5 0.26562,0.73438 0.75,1.32813 0.5,0.59375 1.1875,0.96875 0.6875,0.35937 1.51562,0.35937 0.70313,0 1.46875,-0.28125 0.78125,-0.29687 1.42188,-0.90625 0.65625,-0.60937 1.07812,-1.54687 0.42188,-0.95313 0.42188,-2.26563 v -0.76562 q -0.375,-0.46875 -0.89063,-0.89063 -0.5,-0.4375 -1.09375,-0.76562 -0.57812,-0.32813 -1.21875,-0.51563 -0.64062,-0.20312 -1.29687,-0.20312 z M 221.01562,179 h -3.28125 v 21 h -2.5625 v -7.3125 l -0.0625,-0.0156 q -0.42187,0.34375 -1.01562,0.6875 -0.57813,0.32813 -1.29688,0.59375 -0.71875,0.25 -1.54687,0.42188 -0.82813,0.15625 -1.73438,0.15625 -1.8125,0 -3.10937,-0.65625 -1.28125,-0.65625 -2.15625,-1.75 -0.85938,-1.10938 -1.35938,-2.51563 -0.5,-1.42187 -0.71875,-2.95312 1.03125,-0.14063 1.76563,-0.48438 0.73437,-0.34375 1.1875,-0.8125 0.45312,-0.48437 0.65625,-1.04687 Q 206,183.75 206,183.1875 q 0,-0.375 -0.0781,-0.84375 -0.0625,-0.46875 -0.23437,-1 -0.17188,-0.54688 -0.45313,-1.14063 -0.28125,-0.59375 -0.70312,-1.20312 h -4.51563 v -2.29688 h 21 z m -13.71875,0 q 0.5625,0.95312 0.875,2.09375 0.32813,1.125 0.32813,2.21875 0,0.79687 -0.21875,1.54687 -0.20313,0.75 -0.64063,1.40625 -0.4375,0.64063 -1.09375,1.15625 -0.64062,0.5 -1.5,0.79688 0.25,1.04687 0.6875,1.79687 0.4375,0.73438 1.03125,1.21875 0.59375,0.46875 1.32813,0.6875 0.73437,0.21875 1.57812,0.21875 0.8125,0 1.59375,-0.1875 0.79688,-0.1875 1.5,-0.53125 0.71875,-0.35937 1.32813,-0.85937 0.60937,-0.5 1.07812,-1.125 V 179 Z m 22.03125,0 h -3.28125 v 21 h -2.5625 v -21 h -3.5625 v -2.29688 h 9.40625 z m 4.39063,17.4375 -2.5,7.6875 h -1.82813 l 1.82813,-7.6875 z M 273.6875,179 h -3.28125 v 21 h -2.5625 v -7.3125 l -0.0625,-0.0156 q -0.42188,0.34375 -1.01563,0.6875 -0.57812,0.32813 -1.29687,0.59375 -0.71875,0.25 -1.54688,0.42188 -0.82812,0.15625 -1.73437,0.15625 -1.46875,0 -2.51563,-0.40625 -1.03125,-0.40625 -1.78125,-1.04688 -0.73437,-0.65625 -1.26562,-1.46875 -0.51563,-0.82812 -0.95313,-1.65625 -0.35937,-0.67187 -0.73437,-1.26562 -0.35938,-0.60938 -0.8125,-1.0625 -0.45313,-0.46875 -1.01563,-0.73438 -0.5625,-0.28125 -1.3125,-0.28125 -1.375,0 -2.01562,0.92188 -0.64063,0.90625 -0.64063,2.45312 0,1.48438 0.5,2.75 0.51563,1.25 1.28125,2.3125 0.78125,1.0625 1.70313,1.95313 0.92187,0.875 1.75,1.59375 l -1.5625,1.78125 q -0.14063,-0.0781 -0.67188,-0.46875 -0.51562,-0.40625 -1.21875,-1.07813 -0.6875,-0.6875 -1.46875,-1.625 -0.76562,-0.95312 -1.42187,-2.10937 -0.64063,-1.17188 -1.07813,-2.54688 -0.42187,-1.375 -0.42187,-2.90625 0,-1.5 0.45312,-2.54687 0.45313,-1.0625 1.17188,-1.71875 0.73437,-0.67188 1.625,-0.98438 0.89062,-0.3125 1.78125,-0.3125 1.17187,0 2.3125,0.5 1.15625,0.5 2.28125,1.78125 0.67187,-0.23437 1.14062,-0.57812 0.48438,-0.35938 0.78125,-0.76563 0.3125,-0.42187 0.45313,-0.89062 0.14062,-0.46875 0.14062,-0.9375 0,-0.375 -0.0781,-0.84375 -0.0625,-0.46875 -0.23438,-1 -0.17187,-0.54688 -0.45312,-1.14063 Q 257.625,179.60937 257.20312,179 H 243.9375 v -2.29688 h 29.75 z m -13.71875,0 q 0.5625,0.95312 0.875,2.09375 0.32812,1.125 0.32812,2.21875 0,0.79687 -0.21875,1.54687 -0.20312,0.75 -0.64062,1.40625 -0.4375,0.64063 -1.09375,1.15625 -0.64063,0.5 -1.5,0.79688 0.25,1.04687 0.6875,1.79687 0.4375,0.73438 1.03125,1.21875 0.59375,0.46875 1.32812,0.6875 0.73438,0.21875 1.57813,0.21875 0.8125,0 1.59375,-0.1875 0.79687,-0.1875 1.5,-0.53125 0.71875,-0.35937 1.32812,-0.85937 0.60938,-0.5 1.07813,-1.125 V 179 Z M 282,179 h -3.28125 v 21 h -2.5625 v -21 h -3.5625 v -2.29688 H 282 Z m 22.85937,0 h -3.28125 v 21.01562 h -2.5625 V 185.375 q -0.82812,-0.29688 -1.5625,-0.29688 -0.73437,0 -1.28125,0.28125 -0.54687,0.26563 -0.92187,0.71875 -0.35938,0.45313 -0.54688,1.0625 -0.1875,0.60938 -0.1875,1.28125 0,0.26563 0.0156,0.54688 0.0312,0.26562 0.0625,0.53125 h -2.39063 q -0.125,-0.90625 -0.29687,-1.73438 -0.15625,-0.82812 -0.46875,-1.45312 -0.29688,-0.625 -0.78125,-0.98438 -0.48438,-0.375 -1.25,-0.375 -0.73438,0 -1.26563,0.29688 -0.51562,0.29687 -0.85937,0.82812 -0.34375,0.53125 -0.51563,1.25 -0.15625,0.70313 -0.15625,1.53125 0,1.78125 0.60938,3.20313 0.60937,1.40625 1.64062,2.53125 1.04688,1.125 2.40625,2.01562 1.375,0.875 2.89063,1.60938 l -1.26563,2.15625 q -0.5625,-0.25 -1.45312,-0.75 -0.875,-0.5 -1.875,-1.23438 -0.98438,-0.73437 -1.98438,-1.71875 -1,-0.98437 -1.8125,-2.20312 -0.79687,-1.21875 -1.29687,-2.6875 -0.5,-1.46875 -0.5,-3.17188 0,-1.3125 0.375,-2.4375 0.375,-1.14062 1.0625,-1.96875 0.70312,-0.84375 1.6875,-1.3125 0.98437,-0.48437 2.1875,-0.48437 0.90625,0 1.5625,0.26562 0.65625,0.25 1.125,0.64063 0.48437,0.375 0.79687,0.82812 0.3125,0.4375 0.54688,0.82813 l 0.0781,-0.0156 q 0.29688,-0.65625 0.70313,-1.10937 0.42187,-0.45313 0.90625,-0.73438 0.5,-0.28125 1.04687,-0.40625 0.54688,-0.14062 1.09375,-0.14062 0.48438,0 0.95313,0.0937 0.48437,0.0781 0.92187,0.23437 V 179 h -18.10937 v -2.29688 h 23.95312 z m 8.3125,0 h -3.28125 v 21 h -2.5625 v -21 h -3.5625 v -2.29688 h 9.40625 z m 30.3125,0 h -3.28125 v 21 h -2.5625 v -8.76563 h -8.59375 v 1.85938 q 0,0.48437 -0.0469,0.85937 -0.0312,0.375 -0.17188,0.625 -0.125,0.25 -0.375,0.39063 -0.23437,0.125 -0.64062,0.125 -0.40625,0 -0.90625,-0.23438 -0.5,-0.25 -1.01563,-0.65625 -0.51562,-0.42187 -1,-0.9375 -0.48437,-0.53125 -0.875,-1.09375 -0.375,-0.57812 -0.60937,-1.14062 -0.23438,-0.5625 -0.23438,-1.03125 0,-0.32813 0.10938,-0.53125 0.125,-0.21875 0.32812,-0.32813 0.21875,-0.10937 0.51563,-0.14062 0.29687,-0.0469 0.67187,-0.0469 h 1.6875 V 179 h -5.64062 v -2.29688 h 22.64062 z m -14.4375,0 v 9.95312 h 8.59375 V 179 Z m 22.75,0 h -3.28125 v 21 h -2.5625 v -21 h -3.5625 v -2.29688 h 9.40625 z m 10.90625,16.59375 q 0.51563,-0.15625 1.01563,-0.39063 0.51562,-0.23437 0.90625,-0.5625 0.40625,-0.34375 0.65625,-0.79687 0.25,-0.45313 0.25,-1.0625 0,-1.29688 -1.07813,-2.01563 -1.07812,-0.73437 -3.0625,-0.73437 -0.79687,0 -1.64062,0.17187 -0.82813,0.15625 -1.51563,0.59375 -0.6875,0.42188 -1.125,1.17188 -0.4375,0.73437 -0.4375,1.875 0,1.15625 0.45313,2.15625 0.45312,0.98437 1.17187,1.8125 0.73438,0.82812 1.64063,1.5 0.90625,0.67187 1.79687,1.1875 0.90625,0.51562 1.70313,0.85937 0.79687,0.35938 1.32812,0.5625 l -1.03125,2.15625 q -1.09375,-0.46875 -2.23437,-1.03125 -1.125,-0.54687 -2.1875,-1.21875 -1.0625,-0.65625 -2,-1.45312 -0.9375,-0.79688 -1.64063,-1.76563 -0.6875,-0.96875 -1.09375,-2.125 -0.39062,-1.15625 -0.39062,-2.51562 0,-1.32813 0.34375,-2.3125 0.35937,-1 0.98437,-1.75 -0.85937,-0.98438 -1.26562,-1.98438 -0.40625,-1 -0.40625,-2.17187 0,-0.67188 0.15625,-1.26563 0.17187,-0.59375 0.59375,-1.03125 0.4375,-0.45312 1.20312,-0.71875 0.76563,-0.26562 1.98438,-0.26562 h 7.07812 V 179 h -14.15625 v -2.29688 H 371.0625 V 179 h -3.64063 v 5.75 h -8.98437 q -0.60938,0 -1.03125,0.10937 -0.40625,0.0937 -0.65625,0.29688 -0.25,0.20312 -0.35938,0.51562 -0.0937,0.29688 -0.0937,0.70313 0,0.54687 0.1875,1.0625 0.1875,0.51562 0.70313,1.15625 0.90625,-0.46875 1.98437,-0.6875 1.09375,-0.23438 2.28125,-0.23438 1.375,0 2.5625,0.3125 1.20313,0.3125 2.07813,0.95313 0.89062,0.625 1.39062,1.60937 0.51563,0.96875 0.51563,2.28125 0,1.26563 -0.4375,2.14063 -0.42188,0.875 -1.07813,1.46875 -0.64062,0.59375 -1.40625,0.96875 -0.76562,0.35937 -1.42187,0.59375 z M 379.375,179 h -3.28125 v 21 h -2.5625 v -21 h -3.5625 v -2.29688 h 3.8125 q -0.28125,-1.59375 -0.71875,-2.71875 -0.4375,-1.14062 -0.95313,-1.89062 -0.51562,-0.76563 -1.07812,-1.20313 -0.5625,-0.4375 -1.07813,-0.65625 -0.53125,-0.21875 -0.98437,-0.28125 -0.46875,-0.0625 -0.76563,-0.0625 -0.96875,0 -1.54687,0.3125 -0.59375,0.29688 -0.90625,0.71875 -0.3125,0.42188 -0.40625,0.89063 -0.10938,0.45312 -0.10938,0.78125 0,0.125 0.0469,0.51562 0.0312,0.375 0.25,0.95313 0.20312,0.57812 0.64062,1.29687 0.4375,0.71875 1.23438,1.51563 H 364.75 q -0.98438,-1.125 -1.46875,-2.32813 -0.5,-1.21875 -0.5,-2.35937 0,-0.95313 0.34375,-1.8125 0.34375,-0.85938 1.03125,-1.48438 0.6875,-0.64062 1.71875,-1.01562 1.03125,-0.375 2.39062,-0.375 1.875,0 3.23438,0.73437 1.35937,0.71875 2.28125,1.96875 0.9375,1.25 1.46875,2.9375 0.54687,1.67188 0.76562,3.5625 h 3.35938 z m 19.57812,0 h -3.28125 v 21 H 393.125 v -13.71875 h -5.07813 q -1.04687,0 -1.89062,0.14062 -0.84375,0.125 -1.4375,0.53125 -0.59375,0.39063 -0.92188,1.10938 -0.3125,0.70312 -0.3125,1.85937 0,1.5 0.48438,2.76563 0.5,1.26562 1.26562,2.32812 0.76563,1.04688 1.6875,1.9375 0.9375,0.89063 1.79688,1.64063 l -1.5625,1.78125 q -0.14063,-0.0781 -0.67188,-0.45313 -0.51562,-0.39062 -1.21875,-1.04687 -0.6875,-0.65625 -1.46875,-1.59375 -0.76562,-0.9375 -1.42187,-2.10938 -0.64063,-1.1875 -1.07813,-2.60937 -0.42187,-1.42188 -0.42187,-3.0625 0,-1.625 0.45312,-2.6875 0.46875,-1.07813 1.3125,-1.70313 0.84375,-0.64062 2.04688,-0.89062 1.20312,-0.25 2.6875,-0.25 h 5.75 V 179 h -14.84375 v -2.29688 h 20.67187 z m 4.39063,17.4375 -2.5,7.6875 h -1.82813 l 1.82813,-7.6875 z"
         id="path6" />
      <path
         d="m 58.859375,229 h -3.28125 v 21 h -2.5625 v -21 h -3.5625 v -2.29688 h 3.5625 q -0.859375,-2.0625 -0.859375,-3.84375 0,-1.14062 0.375,-2.125 0.375,-0.98437 1.140625,-1.70312 0.78125,-0.71875 1.984375,-1.125 1.203125,-0.40625 2.859375,-0.40625 2.171875,0 4.171875,0.70312 2.015625,0.70313 3.9375,1.95313 1.921875,1.25 3.796875,2.96875 1.890625,1.71875 3.8125,3.75 h -2.71875 q -0.4375,-0.42188 -1.171875,-1.09375 -0.71875,-0.6875 -1.671875,-1.45313 -0.953125,-0.78125 -2.109375,-1.5625 -1.15625,-0.79687 -2.4375,-1.4375 -1.28125,-0.64062 -2.671875,-1.03125 -1.375,-0.40625 -2.78125,-0.40625 -1.140625,0 -1.921875,0.26563 -0.765625,0.26562 -1.25,0.73437 -0.46875,0.46875 -0.671875,1.10938 -0.203125,0.625 -0.203125,1.34375 0,1.40625 0.765625,3.35937 h 3.46875 z m 18.8125,0 h -3.28125 v 21 h -2.5625 v -5.57813 l -0.0625,-0.0156 q -0.3125,0.29687 -0.734375,0.625 -0.421875,0.3125 -0.96875,0.57812 -0.546875,0.25 -1.234375,0.42188 -0.671875,0.17187 -1.515625,0.17187 -1.546875,0 -2.828125,-0.59375 -1.265625,-0.59375 -2.1875,-1.57812 -0.921875,-1 -1.4375,-2.28125 -0.5,-1.29688 -0.5,-2.70313 0,-1.40625 0.5,-2.60937 0.515625,-1.21875 1.40625,-2.10938 0.890625,-0.89062 2.078125,-1.39062 1.1875,-0.51563 2.546875,-0.51563 0.375,0 0.9375,0.0625 0.578125,0.0625 1.234375,0.28125 0.65625,0.21875 1.359375,0.64063 0.703125,0.40625 1.34375,1.10937 l 0.0625,-0.0156 V 229 h -14.0625 v -2.29688 h 19.90625 z m -5.78125,8.42187 q -0.984375,-1.1875 -2.140625,-1.90625 -1.15625,-0.73437 -2.625,-0.73437 -1.15625,0 -1.96875,0.4375 -0.796875,0.4375 -1.3125,1.10937 -0.515625,0.65625 -0.75,1.46875 -0.234375,0.8125 -0.234375,1.5625 0,0.8125 0.265625,1.60938 0.265625,0.79687 0.78125,1.4375 0.53125,0.625 1.3125,1.03125 0.78125,0.39062 1.828125,0.39062 1.078125,0 1.96875,-0.40625 0.890625,-0.42187 1.53125,-1.0625 0.640625,-0.64062 0.984375,-1.4375 0.359375,-0.79687 0.359375,-1.54687 z M 98.15625,226.70312 V 229 H 94.875 v 21 h -2.5625 v -15.23438 h -7.359375 v 0.17188 q 0.703125,0.375 1.453125,0.96875 0.75,0.59375 1.359375,1.375 0.625,0.78125 1.015625,1.75 0.40625,0.95312 0.40625,2.07812 0,0.8125 -0.25,1.5625 -0.25,0.73438 -0.75,1.35938 -0.484375,0.625 -1.21875,1.07812 -0.734375,0.45313 -1.6875,0.67188 l -0.03125,0.0469 q 0.453125,0.53125 0.921875,1.14063 0.484375,0.59375 1,1.35937 0.53125,0.75 1.125,1.70313 0.609375,0.95312 1.3125,2.1875 l -2.203125,1.21875 q -0.1875,-0.39063 -0.515625,-0.98438 -0.328125,-0.59375 -0.75,-1.28125 Q 85.734375,250.5 85.25,249.76562 q -0.46875,-0.73437 -0.953125,-1.40625 -0.46875,-0.6875 -0.9375,-1.26562 -0.453125,-0.57813 -0.828125,-0.95313 -1.0625,0 -1.84375,-0.29687 -0.78125,-0.29688 -1.3125,-0.75 -0.515625,-0.45313 -0.78125,-1.01563 -0.25,-0.5625 -0.25,-1.09375 0,-0.375 0.125,-0.70312 0.125,-0.34375 0.375,-0.59375 0.265625,-0.26563 0.65625,-0.42188 0.390625,-0.15625 0.921875,-0.15625 1.078125,0 1.953125,0.64063 0.890625,0.625 1.59375,1.76562 1.375,-0.0937 2.046875,-0.75 0.6875,-0.67187 0.6875,-1.75 0,-1.07812 -0.609375,-2.04687 -0.59375,-0.98438 -1.5625,-1.8125 -0.96875,-0.82813 -2.1875,-1.48438 -1.21875,-0.65625 -2.453125,-1.09375 v -2.10937 H 92.3125 V 229 H 76.578125 v -2.29688 z M 106.46875,229 h -3.28125 v 21 h -2.5625 v -21 h -3.5625 v -2.29688 h 9.40625 z m 19.4375,0 H 122.625 v 21 h -2.57812 v -12.04688 h -7.3125 q 0,1.03125 -0.0312,1.76563 -0.0156,0.73437 -0.125,1.21875 -0.10938,0.46875 -0.32813,0.6875 -0.21875,0.21875 -0.60937,0.21875 -0.8125,0 -1.54688,-0.53125 -0.71875,-0.53125 -1.28125,-1.28125 -0.54687,-0.75 -0.875,-1.5625 -0.32812,-0.8125 -0.32812,-1.375 0,-0.5 0.21875,-0.78125 0.21875,-0.28125 0.57812,-0.42188 0.35938,-0.14062 0.8125,-0.17187 0.46875,-0.0312 0.9375,-0.0312 h 9.89063 V 229 H 105.375 v -2.29688 h 20.53125 z m 8.3125,0 h -3.28125 v 21 h -2.5625 v -21 h -3.5625 v -2.29688 h 9.40625 z m 12.98437,0 H 133.125 v -2.29688 h 14.07812 z m 3.75,13.45312 q -1.09375,1.125 -2.10937,1.76563 -1,0.64062 -1.85938,0.95312 -0.84375,0.3125 -1.5,0.39063 -0.64062,0.0625 -1.01562,0.0625 -1.4375,0 -2.54688,-0.45313 -1.10937,-0.45312 -1.85937,-1.1875 -0.75,-0.75 -1.14063,-1.70312 -0.39062,-0.96875 -0.39062,-2 0,-1.07813 0.4375,-2.14063 0.45312,-1.0625 1.40625,-1.90625 l -0.0156,-0.0625 h -4.95312 V 233.875 h 12.25 v 2.29687 h -1.29688 q -1.60937,0 -2.64062,0.42188 -1.03125,0.42187 -1.625,1.03125 -0.59375,0.60937 -0.82813,1.3125 -0.21875,0.6875 -0.21875,1.25 0,0.46875 0.15625,1.01562 0.15625,0.53125 0.51563,0.98438 0.375,0.45312 0.98437,0.75 0.625,0.29687 1.5625,0.29687 0.98438,0 1.82813,-0.3125 0.85937,-0.32812 1.57812,-0.82812 0.71875,-0.5 1.29688,-1.10938 0.59375,-0.60937 1.01562,-1.20312 z M 167.42187,229 h -3.28125 v 21 h -2.5625 v -7.3125 l -0.0625,-0.0156 q -0.42187,0.34375 -1.01562,0.6875 -0.57813,0.32813 -1.29688,0.59375 -0.71875,0.25 -1.54687,0.42188 -0.82813,0.15625 -1.73438,0.15625 -1.8125,0 -3.10937,-0.65625 -1.28125,-0.65625 -2.15625,-1.75 -0.85938,-1.10938 -1.35938,-2.51563 -0.5,-1.42187 -0.71875,-2.95312 1.03125,-0.14063 1.76563,-0.48438 0.73437,-0.34375 1.1875,-0.8125 0.45312,-0.48437 0.65625,-1.04687 0.21875,-0.5625 0.21875,-1.125 0,-0.375 -0.0781,-0.84375 -0.0625,-0.46875 -0.23437,-1 -0.17188,-0.54688 -0.45313,-1.14063 Q 151.35937,229.60937 150.9375,229 h -4.51563 v -2.29688 h 21 z m -13.71875,0 q 0.5625,0.95312 0.875,2.09375 0.32813,1.125 0.32813,2.21875 0,0.79687 -0.21875,1.54687 -0.20313,0.75 -0.64063,1.40625 -0.4375,0.64063 -1.09375,1.15625 -0.64062,0.5 -1.5,0.79688 0.25,1.04687 0.6875,1.79687 0.4375,0.73438 1.03125,1.21875 0.59375,0.46875 1.32813,0.6875 0.73437,0.21875 1.57812,0.21875 0.8125,0 1.59375,-0.1875 0.79688,-0.1875 1.5,-0.53125 0.71875,-0.35937 1.32813,-0.85937 0.60937,-0.5 1.07812,-1.125 V 229 Z m 22.03125,0 h -3.28125 v 21 h -2.5625 v -21 h -3.5625 v -2.29688 h 9.40625 z m 25.875,-2.29688 h 5.84375 V 229 h -3.28125 v 21 h -2.5625 v -13.57813 q -1.57812,0.64063 -2.95312,0.89063 -1.35938,0.25 -2.625,0.25 -1.32813,0 -2.39063,-0.21875 -1.04687,-0.21875 -1.98437,-0.625 -0.67188,0.45312 -1.3125,0.98437 -0.625,0.53125 -1.125,1.1875 -0.48438,0.64063 -0.79688,1.4375 -0.29687,0.79688 -0.29687,1.78125 0,0.5625 0.14062,1.26563 0.15625,0.70312 0.60938,1.34375 0.45312,0.625 1.29687,1.0625 0.85938,0.42187 2.26563,0.42187 0.5,0 0.98437,-0.0625 0.5,-0.0625 0.85938,-0.20312 -0.0625,-0.29688 -0.0937,-0.59375 -0.0312,-0.3125 -0.0312,-0.64063 0,-0.70312 0.15625,-1.40625 0.17187,-0.70312 0.5,-1.25 0.34375,-0.5625 0.85937,-0.90625 0.51563,-0.34375 1.20313,-0.34375 0.53125,0 0.92187,0.20313 0.39063,0.20312 0.65625,0.54687 0.26563,0.34375 0.39063,0.8125 0.14062,0.45313 0.14062,0.96875 0,0.57813 -0.15625,1.10938 -0.15625,0.53125 -0.42187,1 -0.25,0.45312 -0.59375,0.85937 -0.32813,0.39063 -0.70313,0.71875 0.29688,0.67188 0.625,1.20313 0.32813,0.51562 0.67188,0.9375 0.35937,0.40625 0.71875,0.75 0.375,0.32812 0.73437,0.625 l -1.92187,2.01562 q -0.71875,-0.67187 -1.23438,-1.34375 -0.5,-0.65625 -0.84375,-1.23437 -0.34375,-0.57813 -0.5625,-1.04688 -0.21875,-0.46875 -0.35937,-0.75 -0.51563,0.21875 -1.17188,0.3125 -0.64062,0.0781 -1.20312,0.0781 -1.53125,0 -2.8125,-0.48438 -1.26563,-0.5 -2.17188,-1.39062 -0.90625,-0.89063 -1.40625,-2.125 -0.5,-1.25 -0.5,-2.73438 0,-1.28125 0.34375,-2.26562 0.35938,-1 0.9375,-1.76563 0.57813,-0.76562 1.29688,-1.34375 0.73437,-0.59375 1.46875,-1.07812 l 0.0156,-0.0625 q -1.17187,-0.9375 -1.6875,-2.01563 -0.51562,-1.09375 -0.51562,-2.26562 0,-1.04688 0.35937,-1.89063 0.375,-0.85937 1,-1.46875 0.625,-0.60937 1.4375,-0.9375 0.8125,-0.34375 1.6875,-0.34375 0.85938,0 1.65625,0.3125 0.79688,0.3125 1.42188,0.90625 0.625,0.57813 1,1.4375 0.375,0.84375 0.375,1.90625 0,0.71875 -0.17188,1.29688 -0.17187,0.57812 -0.48437,1.0625 -0.29688,0.48437 -0.73438,0.90625 Q 194.64062,234.625 194.125,235 l 0.0156,0.0625 q 0.45313,0.0937 0.92188,0.14062 0.46875,0.0312 0.90625,0.0312 1.28125,0 2.70312,-0.34375 1.42188,-0.34375 2.9375,-1.23437 z m -7.625,4.23438 q 0,-0.48438 -0.15625,-0.875 -0.14062,-0.40625 -0.42187,-0.6875 -0.26563,-0.29688 -0.625,-0.45313 -0.35938,-0.15625 -0.78125,-0.15625 -0.3125,0 -0.65625,0.10938 -0.34375,0.0937 -0.65625,0.35937 -0.29688,0.25 -0.5,0.6875 Q 190,230.34375 190,231 q 0,0.98437 0.45312,1.70312 0.46875,0.70313 1.40625,1.25 0.4375,-0.29687 0.82813,-0.60937 0.39062,-0.3125 0.67187,-0.67188 0.29688,-0.375 0.45313,-0.79687 0.17187,-0.42188 0.17187,-0.9375 z m 9.96875,-3.79688 h -2.26562 l -1.42188,-2.67187 q -0.90625,-1.70313 -1.64062,-2.70313 -0.75,-1 -1.40625,-1.51562 -0.67188,-0.53125 -1.3125,-0.67188 -0.64063,-0.15625 -1.34375,-0.15625 h -3.03125 v -2.53125 h 2.85937 q 0.90625,0 1.64063,0.15625 0.73437,0.14063 1.40625,0.53125 0.65625,0.375 1.29687,1.0625 0.625,0.67188 1.34375,1.75 0.71875,1.0625 1.57813,2.5625 0.84375,1.48438 1.9375,3.51563 z m 21.875,-0.4375 V 229 h -3.28125 v 21 h -2.5625 v -8.4375 l -0.0469,-0.0156 -9.3125,6.29688 -1.35938,-2.07813 10.71875,-7.09375 q -1.03125,-0.85937 -1.78125,-1.45312 -0.73437,-0.59375 -1.3125,-0.95313 -0.57812,-0.375 -1.07812,-0.53125 -0.5,-0.17187 -1.03125,-0.17187 -0.45313,0 -1,0.125 -0.53125,0.125 -1.23438,0.375 -0.70312,0.23437 -1.57812,0.60937 -0.875,0.35938 -1.98438,0.84375 l -1.03125,-2.46875 q 1.125,-0.48437 2.04688,-0.85937 0.92187,-0.39063 1.6875,-0.64063 0.76562,-0.26562 1.39062,-0.39062 0.64063,-0.14063 1.1875,-0.14063 0.57813,0 1.14063,0.20313 0.57812,0.1875 1.23437,0.60937 0.67188,0.40625 1.46875,1.04688 0.8125,0.64062 1.875,1.53125 V 229 h -13.625 v -2.29688 z M 234.14062,229 h -3.28125 v 21 h -2.5625 v -21 h -3.5625 v -2.29688 h 9.40625 z m 19.57813,0 h -3.28125 v 21 h -2.54688 v -13.71875 h -5.07812 q -1.04688,0 -1.89063,0.14062 -0.84375,0.125 -1.4375,0.53125 -0.59375,0.39063 -0.92187,1.10938 -0.3125,0.70312 -0.3125,1.85937 0,1.5 0.48437,2.76563 0.5,1.26562 1.26563,2.32812 0.76562,1.04688 1.6875,1.9375 0.9375,0.89063 1.79687,1.64063 l -1.5625,1.78125 q -0.14062,-0.0781 -0.67187,-0.45313 -0.51563,-0.39062 -1.21875,-1.04687 -0.6875,-0.65625 -1.46875,-1.59375 -0.76563,-0.9375 -1.42188,-2.10938 -0.64062,-1.1875 -1.07812,-2.60937 -0.42188,-1.42188 -0.42188,-3.0625 0,-1.625 0.45313,-2.6875 0.46875,-1.07813 1.3125,-1.70313 0.84375,-0.64062 2.04687,-0.89062 1.20313,-0.25 2.6875,-0.25 h 5.75 V 229 h -14.84375 v -2.29688 h 20.67188 z m 4.39062,17.4375 -2.5,7.6875 h -1.82812 l 1.82812,-7.6875 z M 289,229 h -3.28125 v 21 h -2.54688 v -13.71875 h -5.07812 q -1.04688,0 -1.89063,0.14062 -0.84375,0.125 -1.4375,0.53125 -0.59375,0.39063 -0.92187,1.10938 -0.3125,0.70312 -0.3125,1.85937 0,1.5 0.48437,2.76563 0.5,1.26562 1.26563,2.32812 0.76562,1.04688 1.6875,1.9375 0.9375,0.89063 1.79687,1.64063 l -1.5625,1.78125 q -0.14062,-0.0781 -0.67187,-0.45313 -0.51563,-0.39062 -1.21875,-1.04687 -0.6875,-0.65625 -1.46875,-1.59375 -0.76563,-0.9375 -1.42188,-2.10938 -0.64062,-1.1875 -1.07812,-2.60937 -0.42188,-1.42188 -0.42188,-3.0625 0,-1.625 0.45313,-2.6875 0.46875,-1.07813 1.3125,-1.70313 0.84375,-0.64062 2.04687,-0.89062 1.20313,-0.25 2.6875,-0.25 h 5.75 V 229 h -14.84375 v -2.29688 H 289 Z m 8.3125,0 h -3.28125 v 21 h -2.5625 v -21 h -3.5625 v -2.29688 h 9.40625 z m -3.5,-1.85938 h -2.26563 l -1.42187,-2.67187 q -0.90625,-1.70313 -1.65625,-2.70313 -0.73438,-1 -1.39063,-1.51562 -0.67187,-0.53125 -1.3125,-0.67188 -0.64062,-0.15625 -1.34375,-0.15625 h -3.03125 v -2.53125 H 284.25 q 0.90625,0 1.64062,0.15625 0.73438,0.14063 1.40625,0.53125 0.65625,0.375 1.28125,1.0625 0.64063,0.67188 1.35938,1.75 0.71875,1.0625 1.5625,2.5625 0.85937,1.48438 1.95312,3.51563 z M 316.01562,248.75 v 0.0781 q 0.71875,0.78125 1.51563,1.42188 0.79687,0.65625 1.53125,1.15625 0.75,0.5 1.375,0.84375 0.64062,0.34375 1.04687,0.51562 l -1.10937,1.95313 q -0.98438,-0.51563 -1.96875,-1.20313 -0.96875,-0.6875 -1.89063,-1.4375 -0.90625,-0.75 -1.71875,-1.53125 -0.79687,-0.78125 -1.4375,-1.48437 -1.34375,-0.125 -2.28125,-0.48438 -0.92187,-0.35937 -1.51562,-0.85937 -0.57813,-0.5 -0.84375,-1.07813 -0.26563,-0.57812 -0.26563,-1.125 0,-0.39062 0.125,-0.75 0.14063,-0.35937 0.39063,-0.625 0.26562,-0.26562 0.64062,-0.42187 Q 310,243.5625 310.5,243.5625 q 0.53125,0 1.125,0.1875 0.60937,0.1875 1.1875,0.5625 0.57812,0.375 1.10937,0.95312 0.53125,0.5625 0.9375,1.32813 1.95313,-0.32813 2.95313,-1.3125 1,-1 1,-2.60938 0,-0.625 -0.17188,-1.01562 -0.15625,-0.39063 -0.48437,-0.60938 -0.32813,-0.21875 -0.82813,-0.28125 -0.48437,-0.0781 -1.14062,-0.0781 h -4.29688 q -1.15625,0 -2,-0.48438 -0.84375,-0.5 -1.40625,-1.25 -0.54687,-0.76562 -0.8125,-1.67187 -0.26562,-0.92188 -0.26562,-1.76563 0,-0.92187 0.29687,-1.53125 0.29688,-0.625 0.8125,-0.98437 0.51563,-0.375 1.21875,-0.53125 0.71875,-0.15625 1.54688,-0.15625 h 5.45312 V 229 h -11.75 v -2.29688 h 25.59375 V 229 h -3.28125 v 21 h -2.5625 v -9.375 l -0.0625,-0.0156 q -0.45312,0.29688 -0.875,0.48438 -0.40625,0.1875 -0.82812,0.29687 -0.40625,0.10938 -0.84375,0.15625 -0.4375,0.0312 -0.9375,0.0312 0.0937,0.51563 0.0937,1.09375 0,1.10938 -0.3125,2.07813 -0.3125,0.96875 -0.95313,1.76562 -0.64062,0.78125 -1.64062,1.35938 -0.98438,0.5625 -2.35938,0.875 z m 3.28125,-14.14063 h -7.35937 q -1.17188,0 -1.60938,0.32813 -0.4375,0.32812 -0.4375,1.0625 0,0.34375 0.0937,0.75 0.0937,0.39062 0.34375,0.73437 0.25,0.32813 0.67188,0.5625 0.4375,0.21875 1.10937,0.21875 h 4.35938 q 1.32812,0 2.23437,0.3125 0.92188,0.3125 1.48438,0.89063 0.57812,0 1.125,-0.0312 0.54687,-0.0469 1.09375,-0.20313 0.54687,-0.17187 1.125,-0.48437 0.57812,-0.32813 1.20312,-0.89063 V 229 h -5.4375 z M 338.89062,229 h -3.28125 v 21 h -2.5625 v -21 h -3.5625 v -2.29688 h 9.40625 z m 22.85938,0 h -3.28125 v 21.01562 h -2.5625 V 235.375 q -0.82813,-0.29688 -1.5625,-0.29688 -0.73438,0 -1.28125,0.28125 -0.54688,0.26563 -0.92188,0.71875 -0.35937,0.45313 -0.54687,1.0625 -0.1875,0.60938 -0.1875,1.28125 0,0.26563 0.0156,0.54688 0.0312,0.26562 0.0625,0.53125 h -2.39062 q -0.125,-0.90625 -0.29688,-1.73438 -0.15625,-0.82812 -0.46875,-1.45312 -0.29687,-0.625 -0.78125,-0.98438 -0.48437,-0.375 -1.25,-0.375 -0.73437,0 -1.26562,0.29688 -0.51563,0.29687 -0.85938,0.82812 -0.34375,0.53125 -0.51562,1.25 -0.15625,0.70313 -0.15625,1.53125 0,1.78125 0.60937,3.20313 0.60938,1.40625 1.64063,2.53125 1.04687,1.125 2.40625,2.01562 1.375,0.875 2.89062,1.60938 l -1.26562,2.15625 q -0.5625,-0.25 -1.45313,-0.75 -0.875,-0.5 -1.875,-1.23438 -0.98437,-0.73437 -1.98437,-1.71875 -1,-0.98437 -1.8125,-2.20312 -0.79688,-1.21875 -1.29688,-2.6875 -0.5,-1.46875 -0.5,-3.17188 0,-1.3125 0.375,-2.4375 0.375,-1.14062 1.0625,-1.96875 0.70313,-0.84375 1.6875,-1.3125 0.98438,-0.48437 2.1875,-0.48437 0.90625,0 1.5625,0.26562 0.65625,0.25 1.125,0.64063 0.48438,0.375 0.79688,0.82812 0.3125,0.4375 0.54687,0.82813 l 0.0781,-0.0156 q 0.29687,-0.65625 0.70312,-1.10937 0.42188,-0.45313 0.90625,-0.73438 0.5,-0.28125 1.04688,-0.40625 0.54687,-0.14062 1.09375,-0.14062 0.48437,0 0.95312,0.0937 0.48438,0.0781 0.92188,0.23437 V 229 h -18.10938 v -2.29688 H 361.75 Z m 8.3125,0 h -3.28125 v 21 h -2.5625 v -21 h -3.5625 v -2.29688 h 9.40625 z m 28.03125,0 h -3.28125 v 21 h -2.57813 v -6.96875 l -0.0625,-0.0156 -9.53125,7.17188 -1.60937,-1.95313 5.54687,-3.98437 -0.0156,-0.0625 q -1.20313,-0.0937 -2.1875,-0.53125 -0.98438,-0.4375 -1.6875,-1.23438 -0.70313,-0.79687 -1.09375,-1.96875 -0.375,-1.17187 -0.375,-2.73437 V 229 h -3.48438 v -2.29688 h 20.35938 z m -5.85938,0 H 383.75 v 8.57812 q 0,0.98438 0.15625,1.76563 0.17187,0.78125 0.5625,1.32812 0.40625,0.54688 1.0625,0.84375 0.65625,0.28125 1.64062,0.28125 1.60938,0 2.90625,-0.70312 1.29688,-0.71875 2.15625,-1.89063 z m 14.17188,0 H 403.125 v 21 h -2.5625 V 229 H 397 v -2.29688 h 3.5625 q -0.85938,-2.0625 -0.85938,-3.84375 0,-1.14062 0.375,-2.125 0.375,-0.98437 1.14063,-1.70312 0.78125,-0.71875 1.98437,-1.125 1.20313,-0.40625 2.85938,-0.40625 2.17187,0 4.17187,0.70312 2.01563,0.70313 3.9375,1.95313 1.92188,1.25 3.79688,2.96875 1.89062,1.71875 3.8125,3.75 h -2.71875 q -0.4375,-0.42188 -1.17188,-1.09375 -0.71875,-0.6875 -1.67187,-1.45313 -0.95313,-0.78125 -2.10938,-1.5625 -1.15625,-0.79687 -2.4375,-1.4375 -1.28125,-0.64062 -2.67187,-1.03125 -1.375,-0.40625 -2.78125,-0.40625 -1.14063,0 -1.92188,0.26563 -0.76562,0.26562 -1.25,0.73437 -0.46875,0.46875 -0.67187,1.10938 -0.20313,0.625 -0.20313,1.34375 0,1.40625 0.76563,3.35937 h 3.46875 z m 23.04687,-2.29688 V 229 h -3.28125 v 21 h -2.59375 v -10.5 h -9.04687 q -0.82813,0.54687 -1.98438,0.65625 l -0.0312,0.0781 q 1.51563,2.375 3.32813,4.42188 1.8125,2.04687 4.125,3.79687 l -1.67188,1.92188 q -1.32812,-0.98438 -2.53125,-2.125 -1.1875,-1.14063 -2.25,-2.35938 -1.04687,-1.23437 -1.96875,-2.48437 -0.92187,-1.26563 -1.6875,-2.48438 -0.76562,-1.21875 -1.375,-2.34375 -0.60937,-1.14062 -1.0625,-2.10937 l 2.14063,-1.15625 q 0.29687,0.6875 0.57812,1.15625 0.29688,0.45312 0.59375,0.73437 0.29688,0.26563 0.625,0.39063 0.32813,0.10937 0.70313,0.10937 1.07812,0 1.57812,-0.84375 0.51563,-0.84375 0.51563,-2.21875 0,-0.8125 -0.15625,-1.59375 -0.15625,-0.79687 -0.40625,-1.51562 -0.23438,-0.73438 -0.51563,-1.375 -0.28125,-0.64063 -0.53125,-1.15625 h -7.23437 v -2.29688 z M 423.57812,229 H 415.25 q 0.65625,1.42187 1.03125,2.85937 0.375,1.4375 0.375,2.85938 0,0.65625 -0.10938,1.29687 -0.0937,0.625 -0.32812,1.1875 l 0.0312,0.0312 h 7.32812 z m 11.45313,13.89062 q -0.0469,-0.75 -0.39063,-1.14062 -0.32812,-0.40625 -0.8125,-0.40625 -0.20312,0 -0.42187,0.0937 -0.20313,0.0781 -0.375,0.28125 -0.17188,0.1875 -0.28125,0.53125 -0.10938,0.32812 -0.10938,0.8125 0,0.6875 0.21875,1.21875 0.21875,0.53125 0.59375,0.90625 0.375,0.35937 0.85938,0.54687 0.5,0.1875 1.04687,0.1875 0.75,0 1.5,-0.32812 0.76563,-0.34375 1.42188,-0.96875 l 1.54687,1.42187 q -0.53125,0.48438 -0.82812,1.125 -0.28125,0.64063 -0.28125,1.26563 0,0.40625 0.125,0.76562 0.14062,0.35938 0.40625,0.64063 0.28125,0.26562 0.6875,0.42187 0.40625,0.17188 0.96875,0.17188 0.89062,0 1.75,-0.42188 0.85937,-0.40625 1.64062,-1.07812 0.79688,-0.6875 1.5,-1.5625 0.71875,-0.89063 1.32813,-1.84375 -0.21875,0.0156 -0.42188,0.0156 -0.1875,0 -0.375,0 -2.07812,0 -3.5625,-0.65625 -1.48437,-0.65625 -2.4375,-1.6875 -0.9375,-1.03125 -1.39062,-2.3125 -0.4375,-1.28125 -0.4375,-2.54687 0,-1.40625 0.51562,-2.5 0.51563,-1.09375 1.4375,-1.84375 0.92188,-0.75 2.1875,-1.125 1.28125,-0.39063 2.79688,-0.39063 h 3.20312 V 229 h -20.28125 v -2.29688 H 456.5 V 229 h -5.29688 v 5.76562 h -5.26562 q -2.54688,0 -3.75,1.01563 -1.20313,1.01562 -1.20313,2.90625 0,1.10937 0.40625,1.95312 0.42188,0.84375 1.14063,1.40625 0.73437,0.5625 1.73437,0.85938 1,0.28125 2.17188,0.28125 1.01562,0 1.78125,-0.26563 0,-0.8125 0.1875,-1.54687 0.20312,-0.75 0.5625,-1.3125 0.375,-0.5625 0.90625,-0.89063 0.54687,-0.34375 1.25,-0.34375 0.53125,0 0.92187,0.20313 0.40625,0.1875 0.65625,0.5 0.26563,0.3125 0.39063,0.73437 0.125,0.42188 0.125,0.85938 0,0.60937 -0.23438,1.14062 -0.21875,0.51563 -0.57812,0.95313 -0.35938,0.42187 -0.82813,0.76562 -0.45312,0.32813 -0.9375,0.57813 0.35938,1.10937 0.76563,1.96875 0.42187,0.84375 0.92187,1.53125 0.5,0.6875 1.07813,1.26562 0.57812,0.5625 1.26562,1.10938 l -1.92187,2.01562 q -1.3125,-1.125 -2.25,-2.60937 -0.9375,-1.48438 -1.4375,-2.98438 H 449 q -0.70313,1.15625 -1.60938,2.23438 Q 446.5,250.17187 445.4375,251 q -1.04688,0.82812 -2.23438,1.32812 -1.17187,0.5 -2.4375,0.5 -0.89062,0 -1.6875,-0.26562 -0.79687,-0.26563 -1.40625,-0.79688 -0.59375,-0.51562 -0.9375,-1.29687 -0.34375,-0.78125 -0.34375,-1.8125 0,-0.17188 0,-0.34375 0.0156,-0.1875 0.0312,-0.35938 l -0.0781,-0.0781 q -0.34375,0.0781 -0.6875,0.125 -0.32813,0.0312 -0.64063,0.0312 -1.39062,0 -2.32812,-0.51563 -0.9375,-0.53125 -1.5,-1.29687 -0.5625,-0.78125 -0.79688,-1.65625 -0.23437,-0.89063 -0.23437,-1.625 0,-0.85938 0.28125,-1.57813 0.28125,-0.71875 0.76562,-1.23437 0.5,-0.53125 1.17188,-0.82813 Q 433.0625,239 433.85937,239 q 0.89063,0 1.53125,0.35937 0.65625,0.35938 1.0625,0.92188 0.42188,0.5625 0.60938,1.26562 0.20312,0.70313 0.20312,1.375 z M 464.8125,229 h -3.28125 v 21 h -2.5625 v -21 h -3.5625 v -2.29688 h 3.8125 q -0.28125,-1.59375 -0.71875,-2.71875 -0.4375,-1.14062 -0.95313,-1.89062 -0.51562,-0.76563 -1.07812,-1.20313 -0.5625,-0.4375 -1.07813,-0.65625 -0.53125,-0.21875 -0.98437,-0.28125 -0.46875,-0.0625 -0.76563,-0.0625 -0.96875,0 -1.54687,0.3125 -0.59375,0.29688 -0.90625,0.71875 -0.3125,0.42188 -0.40625,0.89063 -0.10938,0.45312 -0.10938,0.78125 0,0.125 0.0469,0.51562 0.0312,0.375 0.25,0.95313 0.20312,0.57812 0.64062,1.29687 0.4375,0.71875 1.23438,1.51563 h -2.65625 q -0.98438,-1.125 -1.46875,-2.32813 -0.5,-1.21875 -0.5,-2.35937 0,-0.95313 0.34375,-1.8125 0.34375,-0.85938 1.03125,-1.48438 0.6875,-0.64062 1.71875,-1.01562 1.03125,-0.375 2.39062,-0.375 1.875,0 3.23438,0.73437 1.35937,0.71875 2.28125,1.96875 0.9375,1.25 1.46875,2.9375 0.54687,1.67188 0.76562,3.5625 h 3.35938 z m 19.57812,0 h -3.28125 v 21 h -2.54687 v -13.71875 h -5.07813 q -1.04687,0 -1.89062,0.14062 -0.84375,0.125 -1.4375,0.53125 -0.59375,0.39063 -0.92188,1.10938 -0.3125,0.70312 -0.3125,1.85937 0,1.5 0.48438,2.76563 0.5,1.26562 1.26562,2.32812 0.76563,1.04688 1.6875,1.9375 0.9375,0.89063 1.79688,1.64063 l -1.5625,1.78125 q -0.14063,-0.0781 -0.67188,-0.45313 -0.51562,-0.39062 -1.21875,-1.04687 -0.6875,-0.65625 -1.46875,-1.59375 -0.76562,-0.9375 -1.42187,-2.10938 -0.64063,-1.1875 -1.07813,-2.60937 -0.42187,-1.42188 -0.42187,-3.0625 0,-1.625 0.45312,-2.6875 0.46875,-1.07813 1.3125,-1.70313 0.84375,-0.64062 2.04688,-0.89062 1.20312,-0.25 2.6875,-0.25 h 5.75 V 229 h -14.84375 v -2.29688 h 20.67187 z m 2.9375,21.34375 q -0.71875,0 -1.23437,-0.51563 -0.5,-0.51562 -0.5,-1.23437 0,-0.71875 0.5,-1.23438 0.51562,-0.53125 1.23437,-0.53125 0.73438,0 1.25,0.53125 0.51563,0.51563 0.51563,1.23438 0,0.71875 -0.51563,1.23437 -0.51562,0.51563 -1.25,0.51563 z"
         id="path7" />
    </g>
  </g>
</svg>
