<?xml version="1.0" encoding="UTF-8" standalone="no"?>
<svg
   width="800"
   height="600"
   version="1.1"
   id="svg4"
   sodipodi:docname="mansi_dance.svg"
   xmlns:inkscape="http://www.inkscape.org/namespaces/inkscape"
   xmlns:sodipodi="http://sodipodi.sourceforge.net/DTD/sodipodi-0.dtd"
   xmlns="http://www.w3.org/2000/svg"
   xmlns:svg="http://www.w3.org/2000/svg">
  <sodipodi:namedview
     id="namedview4"
     pagecolor="#ffffff"
     bordercolor="#666666"
     borderopacity="1.0"
     inkscape:showpageshadow="2"
     inkscape:pageopacity="0.0"
     inkscape:pagecheckerboard="0"
     inkscape:deskcolor="#d1d1d1" />
  <defs
     id="defs1">
    <style
       type="text/css"
       id="style1">
      @font-face {{
        font-family: 'Kalam';
        src: url('AxiDraw_API(1)/Kalam-Regular.ttf');
      }}
    </style>
  </defs>
  <g
     id="g4">
    <g
       id="text4"
       style="font-size:32px;font-family:Kalam"
       aria-label="मन्सीच्या लयीत साजे,नृत्य सुरू झाले साजे.पावले हलके, मन प्रफुल्लित,आनंदाचा सागर भरून आणित.">
      <path
         d="M 72.09375,79 H 68.8125 v 21 H 66.25 v -8.765625 h -8.59375 v 1.859375 q 0,0.484375 -0.04687,0.859375 -0.03125,0.375 -0.171875,0.625 -0.125,0.25 -0.375,0.390625 -0.234375,0.125 -0.640625,0.125 -0.40625,0 -0.90625,-0.234375 -0.5,-0.25 -1.015625,-0.65625 -0.515625,-0.421875 -1,-0.9375 -0.484375,-0.53125 -0.875,-1.09375 Q 52.25,91.59375 52.015625,91.03125 51.78125,90.46875 51.78125,90 q 0,-0.328125 0.109375,-0.53125 0.125,-0.21875 0.328125,-0.328125 Q 52.4375,89.03125 52.734375,89 q 0.296875,-0.04687 0.671875,-0.04687 h 1.6875 V 79 H 49.453125 V 76.703125 H 72.09375 Z m -14.4375,0 v 9.953125 H 66.25 V 79 Z m 26.5625,0 H 71 v -2.296875 h 13.21875 z m 0.953125,9.828125 h -6.8125 q 0,1.03125 -0.03125,1.765625 -0.01563,0.734375 -0.125,1.21875 Q 78.09375,92.28125 77.875,92.5 q -0.21875,0.21875 -0.609375,0.21875 -0.8125,0 -1.546875,-0.53125 Q 75,91.65625 74.4375,90.90625 q -0.546875,-0.75 -0.875,-1.5625 -0.328125,-0.8125 -0.328125,-1.375 0,-0.5 0.21875,-0.78125 0.21875,-0.28125 0.578125,-0.421875 0.359375,-0.140625 0.8125,-0.171875 0.46875,-0.03125 0.9375,-0.03125 h 9.390625 z m 19.812505,-12.125 V 79 h -3.28125 v 21 H 99.109375 V 89.5 H 90.0625 q -0.828125,0.546875 -1.984375,0.65625 l -0.03125,0.07813 q 1.515625,2.375 3.328125,4.421875 1.8125,2.046875 4.125,3.796875 L 93.828125,100.375 Q 92.5,99.390625 91.296875,98.25 q -1.1875,-1.140625 -2.25,-2.359375 Q 88,94.65625 87.078125,93.40625 86.15625,92.140625 85.390625,90.921875 84.625,89.703125 84.015625,88.578125 83.40625,87.4375 82.953125,86.46875 L 85.09375,85.3125 q 0.296875,0.6875 0.578125,1.15625 0.296875,0.453125 0.59375,0.734375 0.296875,0.265625 0.625,0.390625 0.328125,0.109375 0.703125,0.109375 1.078125,0 1.578125,-0.84375 0.515625,-0.84375 0.515625,-2.21875 0,-0.8125 -0.15625,-1.59375 Q 89.375,82.25 89.125,81.53125 88.890625,80.796875 88.609375,80.15625 88.328125,79.515625 88.078125,79 H 80.84375 V 76.703125 Z M 99.109375,79 H 90.78125 q 0.65625,1.421875 1.03125,2.859375 0.375,1.4375 0.375,2.859375 0,0.65625 -0.109375,1.296875 -0.09375,0.625 -0.328125,1.1875 l 0.03125,0.03125 h 7.328125 z m 14.187505,0 h -3.28125 v 21 h -2.5625 V 79 h -3.5625 v -2.296875 h 3.8125 q -0.28125,-1.59375 -0.71875,-2.71875 -0.4375,-1.140625 -0.95313,-1.890625 -0.51562,-0.765625 -1.07812,-1.203125 -0.5625,-0.4375 -1.07813,-0.65625 -0.53125,-0.21875 -0.98437,-0.28125 -0.46875,-0.0625 -0.76563,-0.0625 -0.96875,0 -1.54687,0.3125 -0.593755,0.296875 -0.906255,0.71875 -0.3125,0.421875 -0.40625,0.890625 -0.109375,0.453125 -0.109375,0.78125 0,0.125 0.04687,0.515625 0.03125,0.375 0.25,0.953125 0.203125,0.578125 0.640625,1.296875 0.4375,0.71875 1.23438,1.515625 h -2.656255 q -0.984375,-1.125 -1.46875,-2.328125 -0.5,-1.21875 -0.5,-2.359375 0,-0.953125 0.34375,-1.8125 0.34375,-0.859375 1.03125,-1.484375 Q 98.765625,68.25 99.796875,67.875 100.82813,67.5 102.1875,67.5 q 1.875,0 3.23438,0.734375 1.35937,0.71875 2.28125,1.96875 0.9375,1.25 1.46875,2.9375 0.54687,1.671875 0.76562,3.5625 h 3.35938 z m 12.98437,0 h -14.07812 v -2.296875 h 14.07812 z m 3.75,13.453125 q -1.09375,1.125 -2.10937,1.765625 -1,0.640625 -1.85938,0.953125 -0.84375,0.3125 -1.5,0.390625 -0.64062,0.0625 -1.01562,0.0625 -1.4375,0 -2.54688,-0.453125 -1.10937,-0.453125 -1.85937,-1.1875 -0.75,-0.75 -1.14063,-1.703125 -0.39062,-0.96875 -0.39062,-2 0,-1.078125 0.4375,-2.140625 0.45312,-1.0625 1.40625,-1.90625 l -0.0156,-0.0625 h -4.95312 V 83.875 h 12.25 v 2.296875 h -1.29688 q -1.60937,0 -2.64062,0.421875 -1.03125,0.421875 -1.625,1.03125 -0.59375,0.609375 -0.82813,1.3125 -0.21875,0.6875 -0.21875,1.25 0,0.46875 0.15625,1.015625 0.15625,0.53125 0.51563,0.984375 0.375,0.453125 0.98437,0.75 0.625,0.296875 1.5625,0.296875 0.98438,0 1.82813,-0.3125 0.85937,-0.328125 1.57812,-0.828125 0.71875,-0.5 1.29687,-1.109375 0.59375,-0.609375 1.01563,-1.203125 z M 146.5,79 h -3.28125 v 21 h -2.5625 v -7.3125 l -0.0625,-0.01563 q -0.42188,0.34375 -1.01563,0.6875 -0.57812,0.328125 -1.29687,0.59375 -0.71875,0.25 -1.54688,0.421875 -0.82812,0.15625 -1.73437,0.15625 -1.8125,0 -3.10938,-0.65625 -1.28125,-0.65625 -2.15625,-1.75 -0.85937,-1.109375 -1.35937,-2.515625 -0.5,-1.421875 -0.71875,-2.953125 1.03125,-0.140625 1.76562,-0.484375 0.73438,-0.34375 1.1875,-0.8125 0.45313,-0.484375 0.65625,-1.046875 0.21875,-0.5625 0.21875,-1.125 0,-0.375 -0.0781,-0.84375 -0.0625,-0.46875 -0.23438,-1 Q 131,80.796875 130.71875,80.203125 130.4375,79.609375 130.01562,79 H 125.5 v -2.296875 h 21 z m -13.71875,0 q 0.5625,0.953125 0.875,2.09375 0.32812,1.125 0.32812,2.21875 0,0.796875 -0.21875,1.546875 -0.20312,0.75 -0.64062,1.40625 -0.4375,0.640625 -1.09375,1.15625 -0.64063,0.5 -1.5,0.796875 0.25,1.046875 0.6875,1.796875 0.4375,0.734375 1.03125,1.21875 0.59375,0.46875 1.32812,0.6875 0.73438,0.21875 1.57813,0.21875 0.8125,0 1.59375,-0.1875 0.79687,-0.1875 1.5,-0.53125 0.71875,-0.359375 1.32812,-0.859375 0.60938,-0.5 1.07813,-1.125 V 79 Z m 22.03125,0 h -3.28125 v 21 h -2.5625 V 79 h -3.5625 v -2.296875 h 9.40625 z m 31.625,0 h -3.28125 v 21.01563 h -2.5625 V 85.375 q -0.82813,-0.296875 -1.5625,-0.296875 -0.73438,0 -1.28125,0.28125 -0.54688,0.265625 -0.92188,0.71875 -0.35937,0.453125 -0.54687,1.0625 -0.1875,0.609375 -0.1875,1.28125 0,0.265625 0.0156,0.546875 0.0312,0.265625 0.0625,0.53125 h -2.39062 q -0.125,-0.90625 -0.29688,-1.734375 -0.15625,-0.828125 -0.46875,-1.453125 -0.29687,-0.625 -0.78125,-0.984375 -0.48437,-0.375 -1.25,-0.375 -0.73437,0 -1.26562,0.296875 -0.51563,0.296875 -0.85938,0.828125 -0.34375,0.53125 -0.51562,1.25 -0.15625,0.703125 -0.15625,1.53125 0,1.78125 0.60937,3.203125 0.60938,1.40625 1.64063,2.53125 1.04687,1.125 2.40625,2.015625 1.375,0.875 2.89062,1.609375 l -1.26562,2.15625 q -0.5625,-0.25 -1.45313,-0.75 -0.875,-0.5 -1.875,-1.234375 -0.98437,-0.734375 -1.98437,-1.71875 -1,-0.984375 -1.8125,-2.203125 -0.79688,-1.21875 -1.29688,-2.6875 -0.5,-1.46875 -0.5,-3.171875 0,-1.3125 0.375,-2.4375 0.375,-1.140625 1.0625,-1.96875 0.70313,-0.84375 1.6875,-1.3125 0.98438,-0.484375 2.1875,-0.484375 0.90625,0 1.5625,0.265625 0.65625,0.25 1.125,0.640625 0.48438,0.375 0.79688,0.828125 0.3125,0.4375 0.54687,0.828125 l 0.0781,-0.01563 q 0.29687,-0.65625 0.70312,-1.109375 0.42188,-0.453125 0.90625,-0.734375 0.5,-0.28125 1.04688,-0.40625 0.54687,-0.140625 1.09375,-0.140625 0.48437,0 0.95312,0.09375 0.48438,0.07813 0.92188,0.234375 V 79 h -18.10938 v -2.296875 h 23.95313 z m 19.90625,0 h -3.28125 v 21 H 200.5 v -7.3125 l -0.0625,-0.01563 q -0.42188,0.34375 -1.01563,0.6875 -0.57812,0.328125 -1.29687,0.59375 -0.71875,0.25 -1.54688,0.421875 -0.82812,0.15625 -1.73437,0.15625 -1.8125,0 -3.10938,-0.65625 -1.28125,-0.65625 -2.15625,-1.75 -0.85937,-1.109375 -1.35937,-2.515625 -0.5,-1.421875 -0.71875,-2.953125 1.03125,-0.140625 1.76562,-0.484375 0.73438,-0.34375 1.1875,-0.8125 0.45313,-0.484375 0.65625,-1.046875 0.21875,-0.5625 0.21875,-1.125 0,-0.375 -0.0781,-0.84375 -0.0625,-0.46875 -0.23438,-1 -0.17187,-0.546875 -0.45312,-1.140625 Q 190.28125,79.609375 189.85937,79 h -4.51562 v -2.296875 h 21 z M 192.625,79 q 0.5625,0.953125 0.875,2.09375 0.32812,1.125 0.32812,2.21875 0,0.796875 -0.21875,1.546875 -0.20312,0.75 -0.64062,1.40625 -0.4375,0.640625 -1.09375,1.15625 -0.64063,0.5 -1.5,0.796875 0.25,1.046875 0.6875,1.796875 0.4375,0.734375 1.03125,1.21875 0.59375,0.46875 1.32812,0.6875 0.73438,0.21875 1.57813,0.21875 0.8125,0 1.59375,-0.1875 0.79687,-0.1875 1.5,-0.53125 0.71875,-0.359375 1.32812,-0.859375 0.60938,-0.5 1.07813,-1.125 V 79 Z m 22.03125,0 H 211.375 v 21 h -2.5625 V 79 H 205.25 v -2.296875 h 3.8125 q -0.28125,-1.59375 -0.71875,-2.71875 -0.4375,-1.140625 -0.95313,-1.890625 -0.51562,-0.765625 -1.07812,-1.203125 -0.5625,-0.4375 -1.07813,-0.65625 -0.53125,-0.21875 -0.98437,-0.28125 -0.46875,-0.0625 -0.76563,-0.0625 -0.96875,0 -1.54687,0.3125 -0.59375,0.296875 -0.90625,0.71875 -0.3125,0.421875 -0.40625,0.890625 -0.10938,0.453125 -0.10938,0.78125 0,0.125 0.0469,0.515625 0.0312,0.375 0.25,0.953125 0.20312,0.578125 0.64062,1.296875 0.4375,0.71875 1.23438,1.515625 h -2.65625 q -0.98438,-1.125 -1.46875,-2.328125 -0.5,-1.21875 -0.5,-2.359375 0,-0.953125 0.34375,-1.8125 Q 198.75,69.515625 199.4375,68.890625 200.125,68.25 201.15625,67.875 202.1875,67.5 203.54687,67.5 q 1.875,0 3.23438,0.734375 1.35937,0.71875 2.28125,1.96875 0.9375,1.25 1.46875,2.9375 0.54687,1.671875 0.76562,3.5625 h 3.35938 z m 19.57812,0 h -3.28125 v 21 h -2.54687 V 86.28125 h -5.07813 q -1.04687,0 -1.89062,0.140625 -0.84375,0.125 -1.4375,0.53125 -0.59375,0.390625 -0.92188,1.109375 -0.3125,0.703125 -0.3125,1.859375 0,1.5 0.48438,2.765625 0.5,1.265625 1.26562,2.328125 0.76563,1.046875 1.6875,1.9375 0.9375,0.890625 1.79688,1.640625 l -1.5625,1.78125 q -0.14063,-0.0781 -0.67188,-0.453125 Q 221.25,99.53125 220.54687,98.875 q -0.6875,-0.65625 -1.46875,-1.59375 -0.76562,-0.9375 -1.42187,-2.109375 -0.64063,-1.1875 -1.07813,-2.609375 -0.42187,-1.421875 -0.42187,-3.0625 0,-1.625 0.45312,-2.6875 0.46875,-1.078125 1.3125,-1.703125 0.84375,-0.640625 2.04688,-0.890625 1.20312,-0.25 2.6875,-0.25 h 5.75 V 79 H 213.5625 v -2.296875 h 20.67187 z m 31.8125,-2.296875 V 79 h -3.28125 v 21 h -2.59375 V 89.5 H 251.125 q -0.82813,0.546875 -1.98438,0.65625 l -0.0312,0.07813 q 1.51563,2.375 3.32813,4.421875 1.8125,2.046875 4.125,3.796875 l -1.67188,1.921875 q -1.32812,-0.984375 -2.53125,-2.125 -1.1875,-1.140625 -2.25,-2.359375 -1.04687,-1.234375 -1.96875,-2.484375 -0.92187,-1.265625 -1.6875,-2.484375 -0.76562,-1.21875 -1.375,-2.34375 -0.60937,-1.140625 -1.0625,-2.109375 l 2.14063,-1.15625 q 0.29687,0.6875 0.57812,1.15625 0.29688,0.453125 0.59375,0.734375 0.29688,0.265625 0.625,0.390625 0.32813,0.109375 0.70313,0.109375 1.07812,0 1.57812,-0.84375 0.51563,-0.84375 0.51563,-2.21875 0,-0.8125 -0.15625,-1.59375 Q 250.4375,82.25 250.1875,81.53125 249.95312,80.796875 249.67187,80.15625 249.39062,79.515625 249.14062,79 h -7.23437 V 76.703125 Z M 260.17187,79 h -8.32812 q 0.65625,1.421875 1.03125,2.859375 0.375,1.4375 0.375,2.859375 0,0.65625 -0.10938,1.296875 -0.0937,0.625 -0.32812,1.1875 l 0.0312,0.03125 h 7.32812 z m 14.1875,0 h -3.28125 v 21 h -2.5625 V 79 h -3.5625 v -2.296875 h 9.40625 z m 23.95313,0 h -3.28125 v 21 h -2.5625 V 86.4375 h -5.03125 l -0.0156,0.0625 q 0.1875,0.21875 0.5625,0.671875 0.375,0.4375 0.75,1.09375 0.375,0.640625 0.65625,1.46875 0.28125,0.8125 0.28125,1.765625 0,0.953125 -0.32812,1.890625 -0.3125,0.921875 -0.95313,1.671875 -0.625,0.734375 -1.59375,1.1875 -0.96875,0.453125 -2.25,0.453125 -1.26562,0 -2.32812,-0.4375 Q 281.17187,95.8125 280.29687,95.0625 279.4375,94.3125 278.75,93.328125 278.0625,92.34375 277.51562,91.25 q -0.53125,-1.109375 -0.9375,-2.234375 -0.39062,-1.140625 -0.67187,-2.171875 -0.28125,-1.046875 -0.45313,-1.921875 -0.17187,-0.875 -0.26562,-1.453125 L 277.5,83.015625 q 0.51562,2.8125 1.25,4.9375 0.75,2.109375 1.65625,3.53125 0.90625,1.421875 1.95312,2.140625 1.04688,0.703125 2.1875,0.703125 0.8125,0 1.3125,-0.3125 0.5,-0.328125 0.78125,-0.78125 0.28125,-0.46875 0.375,-0.953125 0.10938,-0.5 0.10938,-0.859375 0,-0.640625 -0.26563,-1.359375 -0.25,-0.734375 -0.75,-1.453125 -0.48437,-0.734375 -1.21875,-1.40625 -0.73437,-0.671875 -1.6875,-1.21875 V 84.15625 h 9.26563 V 79 h -19.20313 v -2.296875 h 25.04688 z m -3.5,-1.859375 h -2.26563 L 291.125,74.46875 q -0.90625,-1.703125 -1.64063,-2.703125 -0.75,-1 -1.40625,-1.515625 -0.67187,-0.53125 -1.3125,-0.671875 -0.64062,-0.15625 -1.34375,-0.15625 h -3.03125 v -2.53125 H 285.25 q 0.90625,0 1.64062,0.15625 0.73438,0.140625 1.40625,0.53125 0.65625,0.375 1.29688,1.0625 0.625,0.671875 1.34375,1.75 0.71875,1.0625 1.57812,2.5625 0.84375,1.484375 1.9375,3.515625 z m 7.89062,19.296875 -2.5,7.6875 H 298.375 l 1.82812,-7.6875 z"
         id="path4" />
      <path
         d="m 69.984375,129 h -3.28125 v 21 H 64.125 v -12.04688 h -7.3125 q 0,1.03125 -0.03125,1.76563 -0.01563,0.73437 -0.125,1.21875 -0.109375,0.46875 -0.328125,0.6875 -0.21875,0.21875 -0.609375,0.21875 -0.8125,0 -1.546875,-0.53125 -0.71875,-0.53125 -1.28125,-1.28125 -0.546875,-0.75 -0.875,-1.5625 -0.328125,-0.8125 -0.328125,-1.375 0,-0.5 0.21875,-0.78125 0.21875,-0.28125 0.578125,-0.42188 0.359375,-0.14062 0.8125,-0.17187 0.46875,-0.0312 0.9375,-0.0312 H 64.125 V 129 H 49.453125 v -2.29687 h 20.53125 z m -3.28125,22.54687 H 65 q -1.484375,0 -2.203125,0.60938 -0.734375,0.625 -0.734375,1.51562 0,0.95313 0.78125,1.46875 0.765625,0.51563 2.234375,0.51563 0.703125,0 1.390625,-0.125 0.6875,-0.125 1.453125,-0.375 l 0.546875,2.25 q -0.796875,0.28125 -1.578125,0.4375 Q 66.109375,158 65.21875,158 64.015625,158 63.015625,157.6875 62,157.375 61.28125,156.79687 q -0.734375,-0.57812 -1.140625,-1.42187 -0.421875,-0.82813 -0.421875,-1.89063 0,-1.10937 0.4375,-1.92187 0.4375,-0.79688 1.15625,-1.32813 0.71875,-0.51562 1.65625,-0.76562 0.921875,-0.25 1.921875,-0.25 h 1.8125 z M 98.640625,129 h -3.28125 v 21 h -2.5625 v -7.3125 l -0.0625,-0.0156 q -0.421875,0.34375 -1.015625,0.6875 -0.578125,0.32813 -1.296875,0.59375 -0.71875,0.25 -1.546875,0.42188 -0.828125,0.15625 -1.734375,0.15625 -1.46875,0 -2.515625,-0.40625 -1.03125,-0.40625 -1.78125,-1.04688 -0.734375,-0.65625 -1.265625,-1.46875 Q 81.0625,140.78125 80.625,139.95312 80.265625,139.28125 79.890625,138.6875 79.53125,138.07812 79.078125,137.625 78.625,137.15625 78.0625,136.89062 77.5,136.60937 76.75,136.60937 q -1.375,0 -2.015625,0.92188 -0.640625,0.90625 -0.640625,2.45312 0,1.48438 0.5,2.75 0.515625,1.25 1.28125,2.3125 0.78125,1.0625 1.703125,1.95313 0.921875,0.875 1.75,1.59375 l -1.5625,1.78125 Q 77.625,150.29687 77.09375,149.90625 76.578125,149.5 75.875,148.82812 q -0.6875,-0.6875 -1.46875,-1.625 -0.765625,-0.95312 -1.421875,-2.10937 -0.640625,-1.17188 -1.078125,-2.54688 -0.421875,-1.375 -0.421875,-2.90625 0,-1.5 0.453125,-2.54687 0.453125,-1.0625 1.171875,-1.71875 0.734375,-0.67188 1.625,-0.98438 0.890625,-0.3125 1.78125,-0.3125 1.171875,0 2.3125,0.5 1.15625,0.5 2.28125,1.78125 0.671875,-0.23437 1.140625,-0.57812 0.484375,-0.35938 0.78125,-0.76563 0.3125,-0.42187 0.453125,-0.89062 0.140625,-0.46875 0.140625,-0.9375 0,-0.375 -0.07813,-0.84375 -0.0625,-0.46875 -0.234375,-1 -0.171875,-0.54688 -0.453125,-1.14063 Q 82.578125,129.60937 82.15625,129 H 68.890625 v -2.29687 h 29.75 z m -13.71875,0 q 0.5625,0.95312 0.875,2.09375 0.328125,1.125 0.328125,2.21875 0,0.79687 -0.21875,1.54687 -0.203125,0.75 -0.640625,1.40625 -0.4375,0.64063 -1.09375,1.15625 -0.640625,0.5 -1.5,0.79688 0.25,1.04687 0.6875,1.79687 0.4375,0.73438 1.03125,1.21875 0.59375,0.46875 1.328125,0.6875 0.734375,0.21875 1.578125,0.21875 0.8125,0 1.59375,-0.1875 0.796875,-0.1875 1.5,-0.53125 0.71875,-0.35937 1.328125,-0.85937 0.609375,-0.5 1.078125,-1.125 V 129 Z m 45.531245,-2.29687 V 129 h -3.28124 v 21 h -2.59375 v -10.5 h -9.04688 q -0.82812,0.54687 -1.98437,0.65625 l -0.0312,0.0781 q 1.51562,2.375 3.32812,4.42188 1.8125,2.04687 4.125,3.79687 l -1.67187,1.92188 q -1.32813,-0.98438 -2.53125,-2.125 -1.1875,-1.14063 -2.25,-2.35938 -1.04688,-1.23437 -1.96875,-2.48437 -0.92188,-1.26563 -1.6875,-2.48438 -0.76563,-1.21875 -1.375,-2.34375 -0.60938,-1.14062 -1.0625,-2.10937 l 2.14062,-1.15625 q 0.29688,0.6875 0.57813,1.15625 0.29687,0.45312 0.59375,0.73437 0.29687,0.26563 0.625,0.39063 0.32812,0.10937 0.70312,0.10937 1.07813,0 1.57813,-0.84375 0.51562,-0.84375 0.51562,-2.21875 0,-0.8125 -0.15625,-1.59375 -0.15625,-0.79687 -0.40625,-1.51562 -0.23437,-0.73438 -0.51562,-1.375 -0.28125,-0.64063 -0.53125,-1.15625 h -7.23438 v -2.29687 z M 124.57813,129 H 116.25 q 0.65625,1.42187 1.03125,2.85937 0.375,1.4375 0.375,2.85938 0,0.65625 -0.10937,1.29687 -0.0937,0.625 -0.32813,1.1875 l 0.0312,0.0312 h 7.32813 z m -3.03125,21.46875 q 1,-0.625 2.21875,-0.96875 1.20312,-0.34375 2.29687,-0.34375 0.95313,0 1.78125,0.28125 0.8125,0.26562 1.42187,0.78125 0.60938,0.53125 0.95313,1.28125 0.34375,0.75 0.34375,1.6875 0,1 -0.40625,1.875 -0.39063,0.875 -1.1875,1.53125 Q 128.17187,157.25 127,157.625 q -1.17187,0.39062 -2.71875,0.39062 -1.76562,0 -3.15625,-0.48437 -1.40625,-0.46875 -2.51562,-1.20313 -1.10938,-0.71875 -1.95313,-1.59375 -0.84375,-0.875 -1.48437,-1.65625 L 116.625,151.375 q 0.89063,0.96875 1.70313,1.75 0.8125,0.78125 1.6875,1.32812 0.875,0.5625 1.89062,0.85938 1,0.29687 2.26563,0.29687 1.07812,0 1.84375,-0.21875 0.75,-0.20312 1.23437,-0.54687 0.48438,-0.32813 0.70313,-0.76563 0.21874,-0.42187 0.21874,-0.85937 0,-0.79688 -0.59374,-1.26563 -0.60938,-0.46875 -1.64063,-0.46875 -0.67187,0 -1.54687,0.23438 Q 123.5,151.95312 122.59375,152.5 Z M 161.71875,129 h -21.51563 q 0.75,1.32812 1.23438,2.67187 0.48437,1.32813 0.53125,2.75 0.70312,0.0469 1.32812,0.21875 0.64063,0.17188 1.23438,0.4375 0.79687,-0.98437 2.03125,-1.46875 1.25,-0.48437 2.625,-0.48437 1.32812,0 2.48437,0.4375 1.17188,0.42187 2.17188,1.125 1,0.70312 1.82812,1.59375 0.82813,0.875 1.48438,1.79687 0.67187,0.92188 1.17187,1.78125 0.51563,0.85938 0.85938,1.5 l -1.98438,1.01563 q -0.79687,-1.40625 -1.64062,-2.65625 -0.84375,-1.26563 -1.79688,-2.20313 -0.95312,-0.95312 -2.0625,-1.5 -1.09375,-0.5625 -2.40625,-0.5625 -0.79687,0 -1.42187,0.20313 -0.60938,0.20312 -1.03125,0.54687 -0.42188,0.32813 -0.64063,0.78125 -0.21875,0.4375 -0.21875,0.90625 0,0.9375 0.67188,1.46875 0.6875,0.51563 1.85937,0.51563 1.25,0 2.26563,-0.4375 l 0.54687,2.25 q -0.67187,0.26562 -1.375,0.40625 -0.6875,0.125 -1.35937,0.125 -1,0 -1.90625,-0.28125 -0.89063,-0.29688 -1.57813,-0.85938 -0.67187,-0.5625 -1.07812,-1.39062 -0.39063,-0.82813 -0.39063,-1.90625 0,-0.125 0,-0.23438 0,-0.10937 0.0156,-0.21875 -0.46875,-0.23437 -0.96875,-0.39062 -0.48438,-0.15625 -1.01563,-0.1875 -0.25,0.76562 -0.6875,1.4375 -0.42187,0.67187 -1.03125,1.1875 -0.59375,0.5 -1.375,0.8125 -0.78125,0.3125 -1.73437,0.35937 l -0.0312,0.0781 q 1.40625,2.1875 3.15625,4.14062 1.75,1.9375 4.04687,3.6875 l -1.67187,1.92188 q -1.32813,-0.98438 -2.53125,-2.125 -1.1875,-1.15625 -2.25,-2.375 -1.0625,-1.23438 -1.98438,-2.48438 -0.90625,-1.26562 -1.67187,-2.46875 -0.75,-1.20312 -1.34375,-2.29687 -0.59375,-1.09375 -1.01563,-2 l 2.14063,-1.15625 q 0.5625,1.21875 1.26562,1.92187 0.71875,0.6875 1.65625,0.6875 0.67188,0 1.20313,-0.34375 0.53125,-0.34375 0.89062,-0.875 0.35938,-0.54687 0.54688,-1.1875 0.1875,-0.65625 0.1875,-1.28125 0,-0.73437 -0.1875,-1.45312 -0.1875,-0.71875 -0.48438,-1.39063 -0.29687,-0.6875 -0.67187,-1.3125 -0.35938,-0.64062 -0.70313,-1.23437 h -8.03125 v -2.29687 h 32.35938 z m 18.70312,19.75 v 0.0781 q 0.71875,0.78125 1.51563,1.42188 0.79687,0.65625 1.53125,1.15625 0.75,0.5 1.375,0.84375 0.64062,0.34375 1.04687,0.51562 l -1.10937,1.95313 q -0.98438,-0.51563 -1.96875,-1.20313 -0.96875,-0.6875 -1.89063,-1.4375 -0.90625,-0.75 -1.71875,-1.53125 -0.79687,-0.78125 -1.4375,-1.48437 -1.34375,-0.125 -2.28125,-0.48438 -0.92187,-0.35937 -1.51562,-0.85937 -0.57813,-0.5 -0.84375,-1.07813 -0.26563,-0.57812 -0.26563,-1.125 0,-0.39062 0.125,-0.75 0.14063,-0.35937 0.39063,-0.625 0.26562,-0.26562 0.64062,-0.42187 0.39063,-0.15625 0.89063,-0.15625 0.53125,0 1.125,0.1875 0.60937,0.1875 1.1875,0.5625 0.57812,0.375 1.10937,0.95312 0.53125,0.5625 0.9375,1.32813 1.95313,-0.32813 2.95313,-1.3125 1,-1 1,-2.60938 0,-0.625 -0.17188,-1.01562 -0.15625,-0.39063 -0.48437,-0.60938 -0.32813,-0.21875 -0.82813,-0.28125 -0.48437,-0.0781 -1.14062,-0.0781 h -4.29688 q -1.15625,0 -2,-0.48438 -0.84375,-0.5 -1.40625,-1.25 -0.54687,-0.76562 -0.8125,-1.67187 -0.26562,-0.92188 -0.26562,-1.76563 0,-0.92187 0.29687,-1.53125 0.29688,-0.625 0.8125,-0.98437 0.51563,-0.375 1.21875,-0.53125 0.71875,-0.15625 1.54688,-0.15625 h 5.45312 V 129 h -11.75 v -2.29687 h 25.59375 V 129 h -3.28125 v 21 h -2.5625 v -9.375 l -0.0625,-0.0156 q -0.45312,0.29688 -0.875,0.48438 -0.40625,0.1875 -0.82812,0.29687 -0.40625,0.10938 -0.84375,0.15625 -0.4375,0.0312 -0.9375,0.0312 0.0937,0.51563 0.0937,1.09375 0,1.10938 -0.3125,2.07813 -0.3125,0.96875 -0.95313,1.76562 -0.64062,0.78125 -1.64062,1.35938 -0.98438,0.5625 -2.35938,0.875 z m 3.28125,-14.14063 h -7.35937 q -1.17188,0 -1.60938,0.32813 -0.4375,0.32812 -0.4375,1.0625 0,0.34375 0.0937,0.75 0.0937,0.39062 0.34375,0.73437 0.25,0.32813 0.67188,0.5625 0.4375,0.21875 1.10937,0.21875 h 4.35938 q 1.32812,0 2.23437,0.3125 0.92188,0.3125 1.48438,0.89063 0.57812,0 1.125,-0.0312 0.54687,-0.0469 1.09375,-0.20313 0.54687,-0.17187 1.125,-0.48437 0.57812,-0.32813 1.20312,-0.89063 V 129 h -5.4375 z M 203.29687,129 h -3.28125 v 21 h -2.5625 v -21 h -3.5625 v -2.29687 h 9.40625 z m 22.85938,0 H 222.875 v 21.01562 h -2.5625 V 135.375 q -0.82813,-0.29688 -1.5625,-0.29688 -0.73438,0 -1.28125,0.28125 -0.54688,0.26563 -0.92188,0.71875 -0.35937,0.45313 -0.54687,1.0625 -0.1875,0.60938 -0.1875,1.28125 0,0.26563 0.0156,0.54688 0.0312,0.26562 0.0625,0.53125 H 213.5 q -0.125,-0.90625 -0.29688,-1.73438 -0.15625,-0.82812 -0.46875,-1.45312 -0.29687,-0.625 -0.78125,-0.98438 -0.48437,-0.375 -1.25,-0.375 -0.73437,0 -1.26562,0.29688 -0.51563,0.29687 -0.85938,0.82812 -0.34375,0.53125 -0.51562,1.25 -0.15625,0.70313 -0.15625,1.53125 0,1.78125 0.60937,3.20313 0.60938,1.40625 1.64063,2.53125 1.04687,1.125 2.40625,2.01562 1.375,0.875 2.89062,1.60938 l -1.26562,2.15625 q -0.5625,-0.25 -1.45313,-0.75 -0.875,-0.5 -1.875,-1.23438 -0.98437,-0.73437 -1.98437,-1.71875 -1,-0.98437 -1.8125,-2.20312 -0.79688,-1.21875 -1.29688,-2.6875 -0.5,-1.46875 -0.5,-3.17188 0,-1.3125 0.375,-2.4375 0.375,-1.14062 1.0625,-1.96875 0.70313,-0.84375 1.6875,-1.3125 0.98438,-0.48437 2.1875,-0.48437 0.90625,0 1.5625,0.26562 0.65625,0.25 1.125,0.64063 0.48438,0.375 0.79688,0.82812 0.3125,0.4375 0.54687,0.82813 l 0.0781,-0.0156 q 0.29687,-0.65625 0.70312,-1.10937 0.42188,-0.45313 0.90625,-0.73438 0.5,-0.28125 1.04688,-0.40625 0.54687,-0.14062 1.09375,-0.14062 0.48437,0 0.95312,0.0937 0.48438,0.0781 0.92188,0.23437 V 129 h -18.10938 v -2.29687 h 23.95313 z m -3.5,-1.85937 h -2.26563 l -1.42187,-2.67188 q -0.90625,-1.70312 -1.64063,-2.70312 -0.75,-1 -1.40625,-1.51563 -0.67187,-0.53125 -1.3125,-0.67187 -0.64062,-0.15625 -1.34375,-0.15625 h -3.03125 v -2.53125 h 2.85938 q 0.90625,0 1.64062,0.15625 0.73438,0.14062 1.40625,0.53125 0.65625,0.375 1.29688,1.0625 0.625,0.67187 1.34375,1.75 0.71875,1.0625 1.57812,2.5625 0.84375,1.48437 1.9375,3.51562 z m 35.3125,-0.4375 V 129 h -3.28125 v 21 h -2.59375 v -10.5 h -9.04688 q -0.82812,0.54687 -1.98437,0.65625 l -0.0312,0.0781 q 1.51562,2.375 3.32812,4.42188 1.8125,2.04687 4.125,3.79687 l -1.67187,1.92188 q -1.32813,-0.98438 -2.53125,-2.125 -1.1875,-1.14063 -2.25,-2.35938 -1.04688,-1.23437 -1.96875,-2.48437 -0.92188,-1.26563 -1.6875,-2.48438 -0.76563,-1.21875 -1.375,-2.34375 -0.60938,-1.14062 -1.0625,-2.10937 l 2.14062,-1.15625 q 0.29688,0.6875 0.57813,1.15625 0.29687,0.45312 0.59375,0.73437 0.29687,0.26563 0.625,0.39063 0.32812,0.10937 0.70312,0.10937 1.07813,0 1.57813,-0.84375 0.51562,-0.84375 0.51562,-2.21875 0,-0.8125 -0.15625,-1.59375 -0.15625,-0.79687 -0.40625,-1.51562 -0.23437,-0.73438 -0.51562,-1.375 Q 241.3125,129.51562 241.0625,129 h -7.23438 v -2.29687 z M 252.09375,129 h -8.32813 q 0.65625,1.42187 1.03125,2.85937 0.375,1.4375 0.375,2.85938 0,0.65625 -0.10937,1.29687 -0.0937,0.625 -0.32813,1.1875 l 0.0312,0.0312 h 7.32813 z m 14.1875,0 H 263 v 21 h -2.5625 v -21 h -3.5625 v -2.29687 h 9.40625 z m 23.95312,0 h -3.28125 v 21 h -2.5625 v -13.5625 h -5.03125 l -0.0156,0.0625 q 0.1875,0.21875 0.5625,0.67187 0.375,0.4375 0.75,1.09375 0.375,0.64063 0.65625,1.46875 0.28125,0.8125 0.28125,1.76563 0,0.95312 -0.32813,1.89062 -0.3125,0.92188 -0.95312,1.67188 -0.625,0.73437 -1.59375,1.1875 -0.96875,0.45312 -2.25,0.45312 -1.26563,0 -2.32813,-0.4375 -1.04687,-0.45312 -1.92187,-1.20312 -0.85938,-0.75 -1.54688,-1.73438 -0.6875,-0.98437 -1.23437,-2.07812 -0.53125,-1.10938 -0.9375,-2.23438 -0.39063,-1.14062 -0.67188,-2.17187 -0.28125,-1.04688 -0.45312,-1.92188 -0.17188,-0.875 -0.26563,-1.45312 l 2.3125,-0.45313 q 0.51563,2.8125 1.25,4.9375 0.75,2.10938 1.65625,3.53125 0.90625,1.42188 1.95313,2.14063 1.04687,0.70312 2.1875,0.70312 0.8125,0 1.3125,-0.3125 0.5,-0.32812 0.78125,-0.78125 0.28125,-0.46875 0.375,-0.95312 0.10937,-0.5 0.10937,-0.85938 0,-0.64062 -0.26562,-1.35937 -0.25,-0.73438 -0.75,-1.45313 -0.48438,-0.73437 -1.21875,-1.40625 -0.73438,-0.67187 -1.6875,-1.21875 v -1.82812 h 9.26562 V 129 H 265.1875 v -2.29687 h 25.04687 z m -3.5,-1.85937 h -2.26562 l -1.42188,-2.67188 q -0.90625,-1.70312 -1.64062,-2.70312 -0.75,-1 -1.40625,-1.51563 -0.67188,-0.53125 -1.3125,-0.67187 -0.64063,-0.15625 -1.34375,-0.15625 h -3.03125 v -2.53125 h 2.85937 q 0.90625,0 1.64063,0.15625 0.73437,0.14062 1.40625,0.53125 0.65625,0.375 1.29687,1.0625 0.625,0.67187 1.34375,1.75 0.71875,1.0625 1.57813,2.5625 0.84375,1.48437 1.9375,3.51562 z m 6.4375,23.20312 q -0.71875,0 -1.23437,-0.51563 -0.5,-0.51562 -0.5,-1.23437 0,-0.71875 0.5,-1.23438 0.51562,-0.53125 1.23437,-0.53125 0.73438,0 1.25,0.53125 0.51563,0.51563 0.51563,1.23438 0,0.71875 -0.51563,1.23437 -0.51562,0.51563 -1.25,0.51563 z"
         id="path5" />
      <path
         d="m 69.8125,179 h -3.28125 v 21 h -2.578125 v -7.46875 l -0.0625,-0.0156 q -1.046875,0.9375 -2.34375,1.34375 -1.296875,0.39063 -2.5625,0.39063 -1.34375,0 -2.453125,-0.39063 -1.109375,-0.39062 -1.90625,-1.1875 -0.796875,-0.8125 -1.25,-2.03125 -0.4375,-1.23437 -0.4375,-2.92187 V 179 h -3.484375 v -2.29688 H 69.8125 Z m -5.859375,0 H 55.46875 v 8.57812 q 0,0.98438 0.15625,1.76563 0.171875,0.78125 0.5625,1.32812 0.40625,0.54688 1.0625,0.84375 0.65625,0.28125 1.640625,0.28125 1.609375,0 2.90625,-0.75 1.296875,-0.76562 2.15625,-2 z M 78.125,179 h -3.28125 v 21 h -2.5625 v -21 h -3.5625 v -2.29688 H 78.125 Z m 18.8125,0 h -3.28125 v 21 h -2.5625 v -5.57813 l -0.0625,-0.0156 q -0.3125,0.29687 -0.734375,0.625 -0.421875,0.3125 -0.96875,0.57812 -0.546875,0.25 -1.234375,0.42188 -0.671875,0.17187 -1.515625,0.17187 -1.546875,0 -2.828125,-0.59375 -1.265625,-0.59375 -2.1875,-1.57812 -0.921875,-1 -1.4375,-2.28125 -0.5,-1.29688 -0.5,-2.70313 0,-1.40625 0.5,-2.60937 0.515625,-1.21875 1.40625,-2.10938 0.890625,-0.89062 2.078125,-1.39062 1.1875,-0.51563 2.546875,-0.51563 0.375,0 0.9375,0.0625 0.578125,0.0625 1.234375,0.28125 0.65625,0.21875 1.359375,0.64063 0.703125,0.40625 1.34375,1.10937 L 91.09375,184.5 V 179 h -14.0625 v -2.29688 H 96.9375 Z m -5.78125,8.42187 q -0.984375,-1.1875 -2.140625,-1.90625 -1.15625,-0.73437 -2.625,-0.73437 -1.15625,0 -1.96875,0.4375 -0.796875,0.4375 -1.3125,1.10937 -0.515625,0.65625 -0.75,1.46875 -0.234375,0.8125 -0.234375,1.5625 0,0.8125 0.265625,1.60938 0.265625,0.79687 0.78125,1.4375 0.53125,0.625 1.3125,1.03125 0.78125,0.39062 1.828125,0.39062 1.078125,0 1.96875,-0.40625 0.890625,-0.42187 1.53125,-1.0625 0.640625,-0.64062 0.984375,-1.4375 Q 91.15625,190.125 91.15625,189.375 Z M 119.79688,179 h -3.28125 v 21.01562 h -2.5625 V 185.375 q -0.82813,-0.29688 -1.5625,-0.29688 -0.73438,0 -1.28125,0.28125 -0.54688,0.26563 -0.92188,0.71875 -0.35937,0.45313 -0.54687,1.0625 -0.1875,0.60938 -0.1875,1.28125 0,0.26563 0.0156,0.54688 0.0312,0.26562 0.0625,0.53125 h -2.39062 q -0.125,-0.90625 -0.29688,-1.73438 -0.15625,-0.82812 -0.46875,-1.45312 -0.29687,-0.625 -0.78125,-0.98438 -0.48437,-0.375 -1.25,-0.375 -0.73437,0 -1.26562,0.29688 -0.51563,0.29687 -0.85938,0.82812 -0.34375,0.53125 -0.51562,1.25 -0.15625,0.70313 -0.15625,1.53125 0,1.78125 0.60937,3.20313 0.60938,1.40625 1.64063,2.53125 1.04687,1.125 2.40625,2.01562 1.375,0.875 2.89062,1.60938 l -1.26562,2.15625 q -0.5625,-0.25 -1.45313,-0.75 -0.875,-0.5 -1.875,-1.23438 -0.98437,-0.73437 -1.98437,-1.71875 -1,-0.98437 -1.8125,-2.20312 -0.79688,-1.21875 -1.29688,-2.6875 -0.5,-1.46875 -0.5,-3.17188 0,-1.3125 0.375,-2.4375 0.375,-1.14062 1.0625,-1.96875 0.70313,-0.84375 1.6875,-1.3125 0.98438,-0.48437 2.1875,-0.48437 0.90625,0 1.5625,0.26562 0.65625,0.25 1.125,0.64063 0.48438,0.375 0.79688,0.82812 0.3125,0.4375 0.54687,0.82813 l 0.0781,-0.0156 q 0.29687,-0.65625 0.70312,-1.10937 0.42188,-0.45313 0.90625,-0.73438 0.5,-0.28125 1.04688,-0.40625 0.54687,-0.14062 1.09375,-0.14062 0.48437,0 0.95312,0.0937 0.48438,0.0781 0.92188,0.23437 V 179 H 95.84375 v -2.29688 h 23.95313 z m -3.5,-1.85938 h -2.26563 l -1.42187,-2.67187 q -0.90625,-1.70313 -1.64063,-2.70313 -0.75,-1 -1.40625,-1.51562 -0.67187,-0.53125 -1.3125,-0.67188 -0.64062,-0.15625 -1.34375,-0.15625 H 103.875 v -2.53125 h 2.85938 q 0.90625,0 1.64062,0.15625 0.73438,0.14063 1.40625,0.53125 0.65625,0.375 1.29688,1.0625 0.625,0.67188 1.34375,1.75 0.71875,1.0625 1.57812,2.5625 0.84375,1.48438 1.9375,3.51563 z m 23.17187,18.45313 q 0.51562,-0.15625 1.01562,-0.39063 0.51563,-0.23437 0.90625,-0.5625 0.40625,-0.34375 0.65625,-0.79687 0.25,-0.45313 0.25,-1.0625 0,-1.29688 -1.07812,-2.01563 -1.07813,-0.73437 -3.0625,-0.73437 -0.79688,0 -1.64063,0.17187 -0.82812,0.15625 -1.51562,0.59375 -0.6875,0.42188 -1.125,1.17188 -0.4375,0.73437 -0.4375,1.875 0,1.15625 0.45312,2.15625 0.45313,0.98437 1.17188,1.8125 0.73437,0.82812 1.64062,1.5 0.90625,0.67187 1.79688,1.1875 0.90625,0.51562 1.70312,0.85937 0.79688,0.35938 1.32813,0.5625 L 140.5,204.07812 q -1.09375,-0.46875 -2.23438,-1.03125 -1.125,-0.54687 -2.1875,-1.21875 -1.0625,-0.65625 -2,-1.45312 -0.9375,-0.79688 -1.64062,-1.76563 -0.6875,-0.96875 -1.09375,-2.125 -0.39063,-1.15625 -0.39063,-2.51562 0,-1.32813 0.34375,-2.3125 0.35938,-1 0.98438,-1.75 -0.85938,-0.98438 -1.26563,-1.98438 -0.40625,-1 -0.40625,-2.17187 0,-0.67188 0.15625,-1.26563 0.17188,-0.59375 0.59375,-1.03125 0.4375,-0.45312 1.20313,-0.71875 0.76562,-0.26562 1.98437,-0.26562 H 141.625 V 179 h -14.15625 v -2.29688 h 20.35937 V 179 h -3.64062 v 5.75 h -8.98438 q -0.60937,0 -1.03125,0.10937 -0.40625,0.0937 -0.65625,0.29688 -0.25,0.20312 -0.35937,0.51562 -0.0937,0.29688 -0.0937,0.70313 0,0.54687 0.1875,1.0625 0.1875,0.51562 0.70312,1.15625 0.90625,-0.46875 1.98438,-0.6875 1.09375,-0.23438 2.28125,-0.23438 1.375,0 2.5625,0.3125 1.20312,0.3125 2.07812,0.95313 0.89063,0.625 1.39063,1.60937 0.51562,0.96875 0.51562,2.28125 0,1.26563 -0.4375,2.14063 -0.42187,0.875 -1.07812,1.46875 -0.64063,0.59375 -1.40625,0.96875 -0.76563,0.35937 -1.42188,0.59375 z M 170.6875,179 h -3.28125 v 21.01562 h -2.5625 V 185.375 q -0.82813,-0.29688 -1.5625,-0.29688 -0.73438,0 -1.28125,0.28125 -0.54688,0.26563 -0.92188,0.71875 -0.35937,0.45313 -0.54687,1.0625 -0.1875,0.60938 -0.1875,1.28125 0,0.26563 0.0156,0.54688 0.0312,0.26562 0.0625,0.53125 h -2.39062 q -0.125,-0.90625 -0.29688,-1.73438 -0.15625,-0.82812 -0.46875,-1.45312 -0.29687,-0.625 -0.78125,-0.98438 -0.48437,-0.375 -1.25,-0.375 -0.73437,0 -1.26562,0.29688 -0.51563,0.29687 -0.85938,0.82812 -0.34375,0.53125 -0.51562,1.25 -0.15625,0.70313 -0.15625,1.53125 0,1.78125 0.60937,3.20313 0.60938,1.40625 1.64063,2.53125 1.04687,1.125 2.40625,2.01562 1.375,0.875 2.89062,1.60938 l -1.26562,2.15625 q -0.5625,-0.25 -1.45313,-0.75 -0.875,-0.5 -1.875,-1.23438 -0.98437,-0.73437 -1.98437,-1.71875 -1,-0.98437 -1.8125,-2.20312 -0.79688,-1.21875 -1.29688,-2.6875 -0.5,-1.46875 -0.5,-3.17188 0,-1.3125 0.375,-2.4375 0.375,-1.14062 1.0625,-1.96875 0.70313,-0.84375 1.6875,-1.3125 0.98438,-0.48437 2.1875,-0.48437 0.90625,0 1.5625,0.26562 0.65625,0.25 1.125,0.64063 0.48438,0.375 0.79688,0.82812 0.3125,0.4375 0.54687,0.82813 l 0.0781,-0.0156 q 0.29687,-0.65625 0.70312,-1.10937 0.42188,-0.45313 0.90625,-0.73438 0.5,-0.28125 1.04688,-0.40625 0.54687,-0.14062 1.09375,-0.14062 0.48437,0 0.95312,0.0937 0.48438,0.0781 0.92188,0.23437 V 179 h -18.10938 v -2.29688 h 23.95313 z m 27.625,0 h -13.20313 v 6.15625 l 0.0781,0.0312 q 0.79687,-1.09375 1.98437,-1.75 1.1875,-0.67188 2.60938,-0.67188 1.125,0 2.07812,0.46875 0.96875,0.45313 1.67188,1.26563 0.70312,0.79687 1.09375,1.89062 0.40625,1.09375 0.40625,2.35938 0,1.4375 -0.5,2.65625 -0.5,1.20312 -1.28125,2.1875 -0.78125,0.98437 -1.76563,1.75 -0.98437,0.75 -1.9375,1.28125 l -1.39062,-2.40625 q 0.3125,-0.17188 0.76562,-0.45313 0.45313,-0.28125 0.9375,-0.65625 0.5,-0.375 0.96875,-0.84375 0.48438,-0.48437 0.85938,-1.04687 0.39062,-0.5625 0.625,-1.21875 0.23437,-0.65625 0.23437,-1.39063 0,-0.67187 -0.21875,-1.28125 -0.20312,-0.60937 -0.57812,-1.0625 -0.375,-0.45312 -0.90625,-0.71875 -0.51563,-0.26562 -1.14063,-0.26562 -0.8125,0 -1.57812,0.42187 -0.76563,0.42188 -1.39063,1.0625 -0.625,0.625 -1.0625,1.34375 -0.42187,0.71875 -0.5625,1.32813 V 200 h -2.5625 v -5.98438 l -0.0625,-0.0312 q -0.23437,0.20313 -0.59375,0.5 -0.35937,0.28125 -0.875,0.54688 -0.5,0.26562 -1.17187,0.45312 -0.65625,0.1875 -1.48438,0.1875 -1.375,0 -2.54687,-0.53125 -1.15625,-0.53125 -2.01563,-1.4375 -0.84375,-0.92187 -1.32812,-2.15625 -0.48438,-1.23437 -0.48438,-2.64062 0,-1.34375 0.4375,-2.48438 0.45313,-1.14062 1.21875,-1.95312 0.78125,-0.82813 1.8125,-1.28125 1.04688,-0.46875 2.25,-0.46875 0.84375,0 1.5625,0.21875 0.73438,0.20312 1.32813,0.51562 0.60937,0.29688 1.07812,0.65625 0.48438,0.34375 0.8125,0.625 l 0.0625,-0.0156 V 179 h -12.95312 v -2.29688 h 28.71875 z m -20.23438,6.15625 q -0.89062,0 -1.57812,0.375 -0.67188,0.35937 -1.125,0.9375 -0.45313,0.5625 -0.6875,1.28125 -0.21875,0.70312 -0.21875,1.39062 0,0.75 0.26562,1.5 0.26563,0.73438 0.75,1.32813 0.5,0.59375 1.1875,0.96875 0.6875,0.35937 1.51563,0.35937 0.70312,0 1.46875,-0.28125 0.78125,-0.29687 1.42187,-0.90625 0.65625,-0.60937 1.07813,-1.54687 0.42187,-0.95313 0.42187,-2.26563 v -0.76562 q -0.375,-0.46875 -0.89062,-0.89063 -0.5,-0.4375 -1.09375,-0.76562 -0.57813,-0.32813 -1.21875,-0.51563 -0.64063,-0.20312 -1.29688,-0.20312 z m 6.8125,-8.01563 H 182.625 l -1.42188,-2.67187 q -0.90625,-1.70313 -1.64062,-2.70313 -0.75,-1 -1.40625,-1.51562 -0.67188,-0.53125 -1.3125,-0.67188 -0.64063,-0.15625 -1.34375,-0.15625 h -3.03125 v -2.53125 h 2.85937 q 0.90625,0 1.64063,0.15625 0.73437,0.14063 1.40625,0.53125 0.65625,0.375 1.29687,1.0625 0.625,0.67188 1.34375,1.75 0.71875,1.0625 1.57813,2.5625 0.84375,1.48438 1.9375,3.51563 z m 17.8125,19.29688 -2.5,7.6875 H 198.375 l 1.82812,-7.6875 z M 235.5625,179 h -3.28125 v 21 h -2.5625 v -8.76563 H 221.125 v 1.85938 q 0,0.48437 -0.0469,0.85937 -0.0312,0.375 -0.17187,0.625 -0.125,0.25 -0.375,0.39063 -0.23438,0.125 -0.64063,0.125 -0.40625,0 -0.90625,-0.23438 -0.5,-0.25 -1.01562,-0.65625 -0.51563,-0.42187 -1,-0.9375 -0.48438,-0.53125 -0.875,-1.09375 -0.375,-0.57812 -0.60938,-1.14062 Q 215.25,190.46875 215.25,190 q 0,-0.32813 0.10937,-0.53125 0.125,-0.21875 0.32813,-0.32813 0.21875,-0.10937 0.51562,-0.14062 0.29688,-0.0469 0.67188,-0.0469 h 1.6875 V 179 h -5.64063 v -2.29688 h 22.64063 z m -14.4375,0 v 9.95312 h 8.59375 V 179 Z M 255,179 h -3.28125 v 21 h -2.57813 v -12.04688 h -7.3125 q 0,1.03125 -0.0312,1.76563 -0.0156,0.73437 -0.125,1.21875 -0.10937,0.46875 -0.32812,0.6875 -0.21875,0.21875 -0.60938,0.21875 -0.8125,0 -1.54687,-0.53125 -0.71875,-0.53125 -1.28125,-1.28125 -0.54688,-0.75 -0.875,-1.5625 -0.32813,-0.8125 -0.32813,-1.375 0,-0.5 0.21875,-0.78125 0.21875,-0.28125 0.57813,-0.42188 0.35937,-0.14062 0.8125,-0.17187 0.46875,-0.0312 0.9375,-0.0312 h 9.89062 V 179 h -14.67187 v -2.29688 H 255 Z m 28.03125,0 H 279.75 v 21 h -2.57813 v -6.96875 l -0.0625,-0.0156 -9.53125,7.17188 -1.60937,-1.95313 5.54687,-3.98437 -0.0156,-0.0625 q -1.20313,-0.0937 -2.1875,-0.53125 -0.98438,-0.4375 -1.6875,-1.23438 -0.70313,-0.79687 -1.09375,-1.96875 -0.375,-1.17187 -0.375,-2.73437 V 179 h -3.48438 v -2.29688 h 20.35938 z m -5.85938,0 h -8.48437 v 8.57812 q 0,0.98438 0.15625,1.76563 0.17187,0.78125 0.5625,1.32812 0.40625,0.54688 1.0625,0.84375 0.65625,0.28125 1.64062,0.28125 1.60938,0 2.90625,-0.70312 1.29688,-0.71875 2.15625,-1.89063 z m 34.48438,0 h -13.48438 v 6 l 0.0781,0.0312 q 0.40625,-0.54688 0.92187,-0.98438 0.53125,-0.45312 1.14063,-0.76562 0.625,-0.32813 1.29687,-0.5 0.6875,-0.17188 1.39063,-0.17188 1.15625,0 2.14062,0.46875 0.98438,0.45313 1.70313,1.26563 0.71875,0.79687 1.125,1.89062 0.40625,1.09375 0.40625,2.375 0,1.4375 -0.5,2.64063 -0.48438,1.20312 -1.26563,2.1875 -0.76562,0.98437 -1.71875,1.75 -0.95312,0.75 -1.89062,1.28125 l -1.39063,-2.40625 q 0.29688,-0.17188 0.73438,-0.45313 0.4375,-0.28125 0.90625,-0.65625 0.48437,-0.375 0.95312,-0.84375 0.46875,-0.48437 0.84375,-1.04687 0.375,-0.5625 0.60938,-1.20313 0.23437,-0.64062 0.23437,-1.375 0,-0.70312 -0.21875,-1.3125 -0.21875,-0.60937 -0.60937,-1.0625 -0.375,-0.45312 -0.92188,-0.71875 -0.53125,-0.26562 -1.17187,-0.26562 -0.82813,0 -1.625,0.42187 -0.79688,0.42188 -1.45313,1.0625 -0.65625,0.625 -1.125,1.34375 -0.45312,0.71875 -0.59375,1.32813 V 200 h -2.5625 v -7.42188 l -0.0469,-0.0156 q -0.96875,0.89062 -2.09375,1.29687 -1.125,0.39063 -2.34375,0.39063 -1.26563,0 -2.3125,-0.39063 -1.04688,-0.39062 -1.79688,-1.1875 -0.75,-0.8125 -1.17187,-2.03125 -0.42188,-1.23437 -0.42188,-2.92187 V 179 h -3.48437 v -2.29688 h 29.71875 z m -16.04688,0 h -7.65625 v 8.57812 q 0,0.98438 0.14063,1.76563 0.15625,0.78125 0.51562,1.32812 0.375,0.54688 0.96875,0.84375 0.59375,0.28125 1.48438,0.28125 0.75,0 1.39062,-0.20312 0.65625,-0.21875 1.21875,-0.57813 0.5625,-0.375 1.04688,-0.89062 0.48437,-0.51563 0.89062,-1.125 z m -3.0625,21.46875 q 1,-0.625 2.21875,-0.96875 1.20313,-0.34375 2.29688,-0.34375 0.95312,0 1.78125,0.28125 0.8125,0.26562 1.42187,0.78125 0.60938,0.53125 0.95313,1.28125 0.34375,0.75 0.34375,1.6875 0,1 -0.40625,1.875 -0.39063,0.875 -1.1875,1.53125 Q 299.17187,207.25 298,207.625 q -1.17188,0.39062 -2.71875,0.39062 -1.76563,0 -3.15625,-0.48437 -1.40625,-0.46875 -2.51563,-1.20313 -1.10937,-0.71875 -1.95312,-1.59375 -0.84375,-0.875 -1.48438,-1.65625 L 287.625,201.375 q 0.89062,0.96875 1.70312,1.75 0.8125,0.78125 1.6875,1.32812 0.875,0.5625 1.89063,0.85938 1,0.29687 2.26562,0.29687 1.07813,0 1.84375,-0.21875 0.75,-0.20312 1.23438,-0.54687 0.48437,-0.32813 0.70312,-0.76563 0.21875,-0.42187 0.21875,-0.85937 0,-0.79688 -0.59375,-1.26563 -0.60937,-0.46875 -1.64062,-0.46875 -0.67188,0 -1.54688,0.23438 Q 294.5,201.95312 293.59375,202.5 Z M 319.96875,179 h -3.28125 v 21 h -2.5625 v -21 h -3.5625 v -2.29688 h 3.5625 q -0.85938,-2 -0.85938,-3.84375 0,-1.23437 0.42188,-2.26562 0.4375,-1.03125 1.42187,-1.78125 0.98438,-0.75 2.59375,-1.15625 1.60938,-0.42188 3.96875,-0.42188 2.92188,0 5.84375,0.70313 2.9375,0.70312 5.76563,1.96875 2.84375,1.26562 5.54687,3.04687 2.71875,1.76563 5.23438,3.92188 H 341 q -0.98438,-0.79688 -2.20313,-1.64063 -1.21875,-0.85937 -2.64062,-1.65625 -1.42188,-0.8125 -3.0625,-1.53125 -1.625,-0.73437 -3.42188,-1.26562 -1.79687,-0.54688 -3.76562,-0.85938 -1.96875,-0.32812 -4.07813,-0.32812 -1.73437,0 -2.90625,0.29687 -1.17187,0.29688 -1.875,0.8125 -0.70312,0.5 -1.01562,1.1875 -0.29688,0.6875 -0.29688,1.45313 0,1.48437 0.76563,3.35937 h 3.46875 z m 37.15625,0 h -3.28125 v 21.01562 h -2.5625 V 185.375 q -0.79688,-0.29688 -1.5625,-0.29688 -0.73438,0 -1.28125,0.28125 -0.54688,0.26563 -0.92188,0.71875 -0.35937,0.45313 -0.54687,1.0625 -0.1875,0.60938 -0.1875,1.28125 0,0.26563 0.0156,0.54688 0.0312,0.26562 0.0625,0.53125 h -2.39062 q -0.125,-0.90625 -0.29688,-1.73438 -0.15625,-0.82812 -0.46875,-1.45312 -0.29687,-0.625 -0.78125,-0.98438 -0.48437,-0.375 -1.25,-0.375 -0.73437,0 -1.26562,0.29688 -0.51563,0.29687 -0.85938,0.82812 -0.34375,0.53125 -0.51562,1.25 -0.15625,0.70313 -0.15625,1.53125 0,1.78125 0.60937,3.20313 0.60938,1.40625 1.64063,2.53125 1.04687,1.125 2.40625,2.01562 1.375,0.875 2.89062,1.60938 l -1.26562,2.15625 q -0.5625,-0.25 -1.45313,-0.75 -0.875,-0.5 -1.875,-1.23438 -0.98437,-0.73437 -1.98437,-1.71875 -1,-0.98437 -1.8125,-2.20312 -0.79688,-1.21875 -1.29688,-2.6875 -0.5,-1.46875 -0.5,-3.17188 0,-0.90625 0.17188,-1.71875 0.1875,-0.82812 0.53125,-1.53125 -0.79688,-0.28125 -1.51563,-0.28125 -0.73437,0 -1.28125,0.28125 -0.54687,0.26563 -0.92187,0.71875 -0.35938,0.45313 -0.54688,1.0625 -0.1875,0.60938 -0.1875,1.28125 0,0.26563 0.0156,0.54688 0.0312,0.26562 0.0625,0.53125 h -2.39063 q -0.125,-0.90625 -0.29687,-1.73438 -0.15625,-0.82812 -0.46875,-1.45312 -0.29688,-0.625 -0.78125,-0.98438 -0.48438,-0.375 -1.25,-0.375 -0.73438,0 -1.26563,0.29688 -0.51562,0.29687 -0.85937,0.82812 -0.34375,0.53125 -0.51563,1.25 -0.15625,0.70313 -0.15625,1.53125 0,1.78125 0.60938,3.20313 0.60937,1.40625 1.64062,2.53125 1.04688,1.125 2.40625,2.01562 1.375,0.875 2.89063,1.60938 l -1.26563,2.15625 q -0.5625,-0.25 -1.45312,-0.75 -0.875,-0.5 -1.875,-1.23438 -0.98438,-0.73437 -1.98438,-1.71875 -1,-0.98437 -1.8125,-2.20312 -0.79687,-1.21875 -1.29687,-2.6875 -0.5,-1.46875 -0.5,-3.17188 0,-1.3125 0.375,-2.4375 0.375,-1.14062 1.0625,-1.96875 0.70312,-0.84375 1.6875,-1.3125 0.98437,-0.48437 2.1875,-0.48437 0.90625,0 1.5625,0.26562 0.65625,0.25 1.125,0.64063 0.48437,0.375 0.79687,0.82812 0.3125,0.4375 0.54688,0.82813 l 0.0781,-0.0156 q 0.29688,-0.65625 0.70313,-1.10937 0.42187,-0.45313 0.90625,-0.73438 0.5,-0.28125 1.04687,-0.40625 0.54688,-0.14062 1.09375,-0.14062 0.23438,0 0.54688,0.0312 0.3125,0.0156 0.71875,0.10937 0.40625,0.0937 0.90625,0.28125 0.5,0.1875 1.10937,0.51563 0.65625,-0.51563 1.4375,-0.79688 0.78125,-0.29687 1.71875,-0.29687 0.90625,0 1.5625,0.26562 0.65625,0.25 1.125,0.64063 0.48438,0.375 0.79688,0.82812 0.3125,0.4375 0.54687,0.82813 l 0.0781,-0.0156 q 0.29687,-0.65625 0.70312,-1.10937 0.42188,-0.45313 0.90625,-0.73438 0.5,-0.28125 1.04688,-0.40625 0.54687,-0.14062 1.09375,-0.14062 0.48437,0 0.95312,0.0937 0.48438,0.0781 0.92188,0.23437 V 179 H 318.875 v -2.29688 h 38.25 z m 19.57812,0 h -3.28125 v 21 H 370.875 v -13.71875 h -5.07813 q -1.04687,0 -1.89062,0.14062 -0.84375,0.125 -1.4375,0.53125 -0.59375,0.39063 -0.92188,1.10938 -0.3125,0.70312 -0.3125,1.85937 0,1.5 0.48438,2.76563 0.5,1.26562 1.26562,2.32812 0.76563,1.04688 1.6875,1.9375 0.9375,0.89063 1.79688,1.64063 l -1.5625,1.78125 q -0.14063,-0.0781 -0.67188,-0.45313 -0.51562,-0.39062 -1.21875,-1.04687 -0.6875,-0.65625 -1.46875,-1.59375 -0.76562,-0.9375 -1.42187,-2.10938 -0.64063,-1.1875 -1.07813,-2.60937 -0.42187,-1.42188 -0.42187,-3.0625 0,-1.625 0.45312,-2.6875 0.46875,-1.07813 1.3125,-1.70313 0.84375,-0.64062 2.04688,-0.89062 1.20312,-0.25 2.6875,-0.25 h 5.75 V 179 h -14.84375 v -2.29688 h 20.67187 z m 4.39063,17.4375 -2.5,7.6875 h -1.82813 l 1.82813,-7.6875 z"
         id="path6" />
      <path
         d="m 53.640625,236.1875 q 0.234375,0.73437 0.546875,1.60937 0.3125,0.85938 0.734375,1.75 0.4375,0.875 0.96875,1.70313 0.546875,0.82812 1.234375,1.46875 0.703125,0.64062 1.546875,1.03125 0.84375,0.375 1.875,0.375 1.015625,0 1.71875,-0.29688 0.703125,-0.29687 1.140625,-0.79687 0.4375,-0.5 0.625,-1.17188 0.203125,-0.67187 0.203125,-1.40625 0,-1.60937 -1.171875,-2.51562 -1.15625,-0.90625 -3.359375,-0.90625 -0.265625,0 -0.53125,0.0156 -0.265625,0.0156 -0.53125,0.0469 v -2.375 q 0.125,0.0156 0.21875,0.0156 0.109375,0 0.125,0 1.09375,0 1.9375,-0.26562 0.859375,-0.28125 1.4375,-0.75 0.578125,-0.46875 0.875,-1.09375 0.296875,-0.625 0.296875,-1.3125 0,-0.625 -0.21875,-1.10938 -0.21875,-0.48437 -0.59375,-0.8125 -0.375,-0.32812 -0.890625,-0.48437 -0.515625,-0.17188 -1.125,-0.17188 -0.421875,0 -0.8125,0.0625 -0.390625,0.0469 -0.828125,0.17188 -0.4375,0.10937 -0.9375,0.29687 -0.484375,0.1875 -1.109375,0.46875 L 56.125,227.59375 q 1.21875,-0.59375 2.34375,-0.89063 1.125,-0.3125 2.296875,-0.3125 1.125,0 2.078125,0.35938 0.96875,0.35937 1.65625,1 0.703125,0.625 1.09375,1.5 0.390625,0.875 0.390625,1.89062 0,2.79688 -2.671875,4.5 v 0.0625 q 1.046875,0.4375 1.75,1.07813 0.453125,0.0781 0.953125,0.125 0.515625,0.0469 0.9375,0.0469 0.4375,0 0.921875,-0.0625 0.484375,-0.0625 0.984375,-0.23437 0.515625,-0.17188 1.03125,-0.48438 0.53125,-0.3125 1.0625,-0.8125 v -8.65625 h 5.84375 V 229 h -3.28125 v 21 h -2.5625 v -11.875 l -0.0625,-0.0156 Q 70,238.70312 69.21875,238.89062 q -0.78125,0.1875 -1.609375,0.1875 -0.265625,0 -0.546875,-0.0156 -0.28125,-0.0312 -0.578125,-0.0625 l -0.01563,0.0625 q 0.25,0.64062 0.25,1.57812 0,1.26563 -0.421875,2.34375 -0.421875,1.07813 -1.21875,1.875 -0.78125,0.78125 -1.90625,1.21875 -1.109375,0.4375 -2.5,0.4375 -1.484375,0 -2.6875,-0.51562 -1.1875,-0.53125 -2.15625,-1.35938 Q 54.875,243.8125 54.15625,242.78125 53.4375,241.73437 52.921875,240.6875 52.40625,239.64062 52.078125,238.70312 51.75,237.75 51.59375,237.125 Z M 85.109375,229 h -3.28125 v 21 h -2.5625 v -21 h -3.5625 v -2.29688 h 9.40625 z m 19.437505,0 h -3.28125 v 21 H 98.6875 V 237.95312 H 91.375 q 0,1.03125 -0.03125,1.76563 -0.01563,0.73437 -0.125,1.21875 -0.109375,0.46875 -0.328125,0.6875 -0.21875,0.21875 -0.609375,0.21875 -0.8125,0 -1.546875,-0.53125 -0.71875,-0.53125 -1.28125,-1.28125 -0.546875,-0.75 -0.875,-1.5625 -0.328125,-0.8125 -0.328125,-1.375 0,-0.5 0.21875,-0.78125 0.21875,-0.28125 0.578125,-0.42188 0.359375,-0.14062 0.8125,-0.17187 0.46875,-0.0312 0.9375,-0.0312 H 98.6875 V 229 H 84.015625 v -2.29688 h 20.531255 z m -6.48438,-7.0625 q 0,-0.89063 0.53125,-1.4375 0.515625,-0.5625 1.359375,-0.5625 0.390625,0 0.750005,0.15625 0.34375,0.15625 0.60937,0.4375 0.26563,0.26562 0.42188,0.64062 0.14062,0.35938 0.14062,0.79688 0,0.89062 -0.51562,1.4375 -0.53125,0.54687 -1.375005,0.54687 -0.40625,0 -0.75,-0.14062 Q 98.875,223.65625 98.625,223.39062 98.359375,223.10937 98.21875,222.75 98.0625,222.375 98.0625,221.9375 Z M 124.46875,229 h -5.29687 v 6.85937 h -5.26563 q -2.45312,0 -3.70312,1.21875 -1.25,1.20313 -1.25,3.46875 0,1.28125 0.40625,2.26563 0.42187,0.98437 1.14062,1.65625 0.73438,0.65625 1.73438,1 1,0.34375 2.17187,0.34375 1.23438,0 1.98438,-0.375 -0.0625,-0.39063 -0.0937,-0.6875 -0.0312,-0.29688 -0.0312,-0.59375 0,-0.65625 0.15625,-1.34375 0.17187,-0.70313 0.5,-1.26563 0.34375,-0.57812 0.85937,-0.9375 0.53125,-0.35937 1.26563,-0.35937 0.45312,0 0.85937,0.15625 0.40625,0.15625 0.70313,0.48437 0.3125,0.3125 0.48437,0.79688 0.1875,0.48437 0.1875,1.125 0,0.64062 -0.17187,1.1875 -0.17188,0.53125 -0.45313,1 -0.26562,0.45312 -0.60937,0.85937 -0.34375,0.39063 -0.67188,0.71875 0.34375,0.75 0.71875,1.34375 0.39063,0.59375 0.79688,1.0625 0.42187,0.46875 0.84375,0.84375 0.42187,0.375 0.84375,0.70313 l -1.92188,2.01562 q -0.82812,-0.73437 -1.42187,-1.46875 -0.57813,-0.71875 -0.98438,-1.35937 -0.39062,-0.64063 -0.64062,-1.15625 -0.25,-0.51563 -0.40625,-0.82813 -1.07813,0.42188 -2.65625,0.42188 -2.03125,0 -3.54688,-0.65625 -1.51562,-0.67188 -2.53125,-1.78125 -1,-1.125 -1.5,-2.5625 -0.5,-1.4375 -0.5,-2.98438 0,-1.60937 0.51563,-2.82812 0.51562,-1.23438 1.4375,-2.0625 0.92187,-0.84375 2.1875,-1.26563 1.28125,-0.4375 2.79687,-0.4375 h 3.20313 V 229 h -13.15625 v -2.29688 h 21.01562 z m 8.3125,0 H 129.5 v 21 h -2.5625 v -21 h -3.5625 v -2.29688 h 9.40625 z m 21.64062,0 h -3.28125 v 21 h -2.59375 v -6.57813 l -0.0625,-0.0469 q -0.85937,0.78125 -1.6875,1.23437 -0.8125,0.4375 -1.53125,0.67188 -0.70312,0.21875 -1.28125,0.28125 -0.57812,0.0625 -0.95312,0.0625 -1.4375,0 -2.54688,-0.45313 -1.10937,-0.45312 -1.85937,-1.1875 -0.75,-0.75 -1.14063,-1.70312 -0.39062,-0.96875 -0.39062,-2 0,-1.07813 0.4375,-2.14063 0.45312,-1.0625 1.40625,-1.90625 l -0.0156,-0.0625 h -4.95312 V 233.875 h 12.5625 v 2.29687 h -1.60938 q -1.60937,0 -2.64062,0.42188 -1.03125,0.42187 -1.625,1.03125 -0.59375,0.60937 -0.82813,1.3125 -0.21875,0.6875 -0.21875,1.25 0,0.46875 0.15625,1.01562 0.15625,0.53125 0.51563,0.98438 0.375,0.45312 0.98437,0.75 0.625,0.29687 1.5625,0.29687 0.98438,0 1.82813,-0.3125 0.85937,-0.32812 1.57812,-0.84375 0.71875,-0.51562 1.29688,-1.15625 0.59375,-0.65625 1.01562,-1.29687 V 229 H 131.6875 v -2.29688 h 22.73437 z m 8.3125,0 h -3.28125 v 21 h -2.5625 v -21 h -3.5625 v -2.29688 h 9.40625 z m 31.8125,-2.29688 V 229 h -3.28125 v 21 h -2.59375 V 239.5 H 179.625 q -0.82813,0.54687 -1.98438,0.65625 l -0.0312,0.0781 q 1.51563,2.375 3.32813,4.42188 1.8125,2.04687 4.125,3.79687 l -1.67188,1.92188 q -1.32812,-0.98438 -2.53125,-2.125 -1.1875,-1.14063 -2.25,-2.35938 -1.04687,-1.23437 -1.96875,-2.48437 -0.92187,-1.26563 -1.6875,-2.48438 -0.76562,-1.21875 -1.375,-2.34375 -0.60937,-1.14062 -1.0625,-2.10937 l 2.14063,-1.15625 q 0.29687,0.6875 0.57812,1.15625 0.29688,0.45312 0.59375,0.73437 0.29688,0.26563 0.625,0.39063 0.32813,0.10937 0.70313,0.10937 1.07812,0 1.57812,-0.84375 0.51563,-0.84375 0.51563,-2.21875 0,-0.8125 -0.15625,-1.59375 -0.15625,-0.79687 -0.40625,-1.51562 -0.23438,-0.73438 -0.51563,-1.375 -0.28125,-0.64063 -0.53125,-1.15625 h -7.23437 v -2.29688 z M 188.67187,229 h -8.32812 q 0.65625,1.42187 1.03125,2.85937 0.375,1.4375 0.375,2.85938 0,0.65625 -0.10938,1.29687 -0.0937,0.625 -0.32812,1.1875 l 0.0312,0.0312 h 7.32812 z m 14.1875,0 h -3.28125 v 21 h -2.5625 v -21 h -3.5625 v -2.29688 h 9.40625 z m 19.95313,0 h -3.28125 v 21 h -2.5625 v -21 h -7.04688 v 12.125 q 0,0.25 -0.0312,0.57812 -0.0312,0.32813 -0.15625,0.64063 -0.10937,0.29687 -0.32812,0.51562 -0.21875,0.20313 -0.60938,0.20313 -0.42187,0 -0.9375,-0.26563 -0.5,-0.28125 -1.03125,-0.71875 -0.53125,-0.45312 -1.03125,-1.01562 -0.48437,-0.5625 -0.875,-1.15625 -0.39062,-0.59375 -0.625,-1.15625 -0.23437,-0.5625 -0.23437,-1 0,-0.39063 0.1875,-0.625 0.20312,-0.23438 0.54687,-0.35938 0.35938,-0.125 0.85938,-0.15625 0.51562,-0.0312 1.125,-0.0312 h 0.54687 V 229 h -5.5625 v -2.29688 h 21.04688 z m 15.64062,0 h -5.89062 q 0.79687,1.375 1.28125,2.8125 0.5,1.42187 0.5,2.89062 0,1.10938 -0.34375,2.14063 -0.32813,1.01562 -0.98438,1.82812 -0.64062,0.79688 -1.60937,1.3125 -0.95313,0.5 -2.20313,0.5625 l -0.0312,0.0781 q 1.40625,2.1875 3.15625,4.14062 1.75,1.9375 4.04688,3.6875 l -1.67188,1.92188 q -1.32812,-0.98438 -2.53125,-2.125 -1.1875,-1.15625 -2.25,-2.375 -1.0625,-1.23438 -1.98437,-2.48438 -0.90625,-1.26562 -1.67188,-2.45312 -0.75,-1.20313 -1.34375,-2.29688 -0.59375,-1.10937 -1.01562,-2.01562 l 2.14062,-1.15625 q 0.5625,1.21875 1.26563,1.92187 0.71875,0.6875 1.65625,0.6875 0.67187,0 1.20312,-0.34375 0.53125,-0.34375 0.89063,-0.875 0.35937,-0.54687 0.54687,-1.1875 0.1875,-0.65625 0.1875,-1.28125 0,-0.73437 -0.1875,-1.4375 -0.1875,-0.71875 -0.48437,-1.39062 -0.29688,-0.6875 -0.67188,-1.32813 Q 230.09375,229.59375 229.75,229 h -8.03125 v -2.29688 h 16.73437 z m 31.70313,0 H 266.875 v 21 h -2.5625 v -8.76563 h -8.20313 v 2.23438 q 0,0.23437 -0.0469,0.5 -0.0312,0.26562 -0.15625,0.5 -0.10938,0.21875 -0.3125,0.375 -0.1875,0.14062 -0.48438,0.14062 -0.35937,0 -0.85937,-0.21875 -0.48438,-0.23437 -1.01563,-0.60937 -0.51562,-0.39063 -1.03125,-0.875 -0.5,-0.5 -0.90625,-1.03125 -0.39062,-0.53125 -0.64062,-1.0625 -0.25,-0.53125 -0.25,-0.98438 0,-0.65625 0.46875,-0.95312 0.46875,-0.29688 1.23437,-0.29688 H 253.625 V 230.375 q 0,-0.8125 -0.39063,-1.23438 -0.39062,-0.4375 -0.98437,-0.4375 -0.65625,0 -1.10938,0.48438 -0.4375,0.48437 -0.4375,1.23437 0,0.14063 0.0312,0.34375 0.0312,0.20313 0.15625,0.46875 0.125,0.25 0.375,0.57813 0.25,0.3125 0.67188,0.67187 l -1.39063,1.70313 q -0.71875,-0.39063 -1.17187,-0.85938 -0.45313,-0.48437 -0.70313,-0.98437 -0.25,-0.5 -0.34375,-0.96875 -0.0937,-0.48438 -0.0937,-0.89063 0,-0.75 0.25,-1.46875 0.26563,-0.73437 0.78125,-1.3125 0.51563,-0.59375 1.28125,-0.95312 0.78125,-0.35938 1.8125,-0.35938 0.90625,0 1.60938,0.29688 0.70312,0.29687 1.17187,0.85937 0.48438,0.54688 0.71875,1.32813 0.25,0.76562 0.25,1.71875 v 8.35937 h 8.20313 v -12.25 h 5.84375 z m 31.26562,0 h -21.51562 q 0.75,1.32812 1.23437,2.67187 0.48438,1.32813 0.53125,2.75 0.70313,0.0469 1.32813,0.21875 0.64062,0.17188 1.23437,0.4375 0.79688,-0.98437 2.03125,-1.46875 1.25,-0.48437 2.625,-0.48437 1.32813,0 2.48438,0.4375 1.17187,0.42187 2.17187,1.125 1,0.70312 1.82813,1.59375 0.82812,0.875 1.48437,1.79687 0.67188,0.92188 1.17188,1.78125 0.51562,0.85938 0.85937,1.5 l -1.98437,1.01563 q -0.79688,-1.40625 -1.64063,-2.65625 -0.84375,-1.26563 -1.79687,-2.20313 -0.95313,-0.95312 -2.0625,-1.5 -1.09375,-0.5625 -2.40625,-0.5625 -0.79688,0 -1.42188,0.20313 -0.60937,0.20312 -1.03125,0.54687 -0.42187,0.32813 -0.64062,0.78125 -0.21875,0.4375 -0.21875,0.90625 0,0.9375 0.67187,1.46875 0.6875,0.51563 1.85938,0.51563 1.25,0 2.26562,-0.4375 l 0.54688,2.25 q -0.67188,0.26562 -1.375,0.40625 -0.6875,0.125 -1.35938,0.125 -1,0 -1.90625,-0.28125 -0.89062,-0.29688 -1.57812,-0.85938 -0.67188,-0.5625 -1.07813,-1.39062 -0.39062,-0.82813 -0.39062,-1.90625 0,-0.125 0,-0.23438 0,-0.10937 0.0156,-0.21875 -0.46875,-0.23437 -0.96875,-0.39062 -0.48437,-0.15625 -1.01562,-0.1875 -0.25,0.76562 -0.6875,1.4375 -0.42188,0.67187 -1.03125,1.1875 -0.59375,0.5 -1.375,0.8125 -0.78125,0.3125 -1.73438,0.35937 l -0.0312,0.0781 q 1.40625,2.1875 3.15625,4.14062 1.75,1.9375 4.04688,3.6875 l -1.67188,1.92188 q -1.32812,-0.98438 -2.53125,-2.125 -1.1875,-1.15625 -2.25,-2.375 -1.0625,-1.23438 -1.98437,-2.48438 -0.90625,-1.26562 -1.67188,-2.46875 -0.75,-1.20312 -1.34375,-2.29687 -0.59375,-1.09375 -1.01562,-2 l 2.14062,-1.15625 q 0.5625,1.21875 1.26563,1.92187 0.71875,0.6875 1.65625,0.6875 0.67187,0 1.20312,-0.34375 0.53125,-0.34375 0.89063,-0.875 0.35937,-0.54687 0.54687,-1.1875 0.1875,-0.65625 0.1875,-1.28125 0,-0.73437 -0.1875,-1.45312 -0.1875,-0.71875 -0.48437,-1.39063 -0.29688,-0.6875 -0.67188,-1.3125 Q 277.4375,229.59375 277.09375,229 h -8.03125 v -2.29688 h 32.35937 z m 19.4375,0 h -3.28125 v 21 H 315 v -12.04688 h -7.3125 q 0,1.03125 -0.0312,1.76563 -0.0156,0.73437 -0.125,1.21875 -0.10938,0.46875 -0.32813,0.6875 -0.21875,0.21875 -0.60937,0.21875 -0.8125,0 -1.54688,-0.53125 -0.71875,-0.53125 -1.28125,-1.28125 -0.54687,-0.75 -0.875,-1.5625 -0.32812,-0.8125 -0.32812,-1.375 0,-0.5 0.21875,-0.78125 0.21875,-0.28125 0.57812,-0.42188 0.35938,-0.14062 0.8125,-0.17187 0.46875,-0.0312 0.9375,-0.0312 H 315 V 229 h -14.67188 v -2.29688 h 20.53125 z m 11.85938,7.1875 q 0.23437,0.73437 0.54687,1.60937 0.3125,0.85938 0.73438,1.75 0.4375,0.875 0.96875,1.70313 0.54687,0.82812 1.23437,1.46875 0.70313,0.64062 1.54688,1.03125 0.84375,0.375 1.875,0.375 1.01562,0 1.71875,-0.29688 0.70312,-0.29687 1.14062,-0.79687 0.4375,-0.5 0.625,-1.17188 0.20313,-0.67187 0.20313,-1.40625 0,-1.60937 -1.17188,-2.51562 -1.15625,-0.90625 -3.35937,-0.90625 -0.26563,0 -0.53125,0.0156 -0.26563,0.0156 -0.53125,0.0469 v -2.375 q 0.125,0.0156 0.21875,0.0156 0.10937,0 0.125,0 1.09375,0 1.9375,-0.26562 0.85937,-0.28125 1.4375,-0.75 0.57812,-0.46875 0.875,-1.09375 0.29687,-0.625 0.29687,-1.3125 0,-0.625 -0.21875,-1.10938 -0.21875,-0.48437 -0.59375,-0.8125 -0.375,-0.32812 -0.89062,-0.48437 -0.51563,-0.17188 -1.125,-0.17188 -0.42188,0 -0.8125,0.0625 -0.39063,0.0469 -0.82813,0.17188 -0.4375,0.10937 -0.9375,0.29687 -0.48437,0.1875 -1.10937,0.46875 l -0.89063,-2.14062 q 1.21875,-0.59375 2.34375,-0.89063 1.125,-0.3125 2.29688,-0.3125 1.125,0 2.07812,0.35938 0.96875,0.35937 1.65625,1 0.70313,0.625 1.09375,1.5 0.39063,0.875 0.39063,1.89062 0,2.79688 -2.67188,4.5 v 0.0625 q 1.04688,0.4375 1.75,1.07813 0.45313,0.0781 0.95313,0.125 0.51562,0.0469 0.9375,0.0469 0.4375,0 0.92187,-0.0625 0.48438,-0.0625 0.98438,-0.23437 0.51562,-0.17188 1.03125,-0.48438 0.53125,-0.3125 1.0625,-0.8125 v -8.65625 H 355.875 V 229 h -3.28125 v 21 h -2.5625 v -11.875 l -0.0625,-0.0156 q -0.89063,0.59375 -1.67188,0.78125 -0.78125,0.1875 -1.60937,0.1875 -0.26563,0 -0.54688,-0.0156 -0.28125,-0.0312 -0.57812,-0.0625 l -0.0156,0.0625 q 0.25,0.64062 0.25,1.57812 0,1.26563 -0.42187,2.34375 -0.42188,1.07813 -1.21875,1.875 -0.78125,0.78125 -1.90625,1.21875 -1.10938,0.4375 -2.5,0.4375 -1.48438,0 -2.6875,-0.51562 -1.1875,-0.53125 -2.15625,-1.35938 -0.95313,-0.82812 -1.67188,-1.85937 -0.71875,-1.04688 -1.23437,-2.09375 -0.51563,-1.04688 -0.84375,-1.98438 -0.32813,-0.95312 -0.48438,-1.57812 z M 364.1875,229 h -3.28125 v 21 h -2.5625 v -21 h -3.5625 v -2.29688 h 9.40625 z m 8.3125,0 h -3.28125 v 21 h -2.5625 v -21 h -3.5625 v -2.29688 h 3.5625 q -0.85938,-2.0625 -0.85938,-3.84375 0,-1.14062 0.375,-2.125 0.375,-0.98437 1.14063,-1.70312 0.78125,-0.71875 1.98437,-1.125 Q 370.5,217.5 372.15625,217.5 q 2.17187,0 4.17187,0.70312 2.01563,0.70313 3.9375,1.95313 1.92188,1.25 3.79688,2.96875 1.89062,1.71875 3.8125,3.75 h -2.71875 q -0.4375,-0.42188 -1.17188,-1.09375 -0.71875,-0.6875 -1.67187,-1.45313 -0.95313,-0.78125 -2.10938,-1.5625 -1.15625,-0.79687 -2.4375,-1.4375 -1.28125,-0.64062 -2.67187,-1.03125 -1.375,-0.40625 -2.78125,-0.40625 -1.14063,0 -1.92188,0.26563 -0.76562,0.26562 -1.25,0.73437 -0.46875,0.46875 -0.67187,1.10938 -0.20313,0.625 -0.20313,1.34375 0,1.40625 0.76563,3.35937 H 372.5 Z m 23.71875,0 h -3.28125 v 21 H 390.375 V 229 H 386.5 v 9.67187 q 0,1.625 -0.45313,2.79688 -0.4375,1.17187 -1.21875,1.9375 -0.76562,0.76562 -1.79687,1.14062 -1.03125,0.35938 -2.21875,0.35938 -1.32813,0 -2.40625,-0.42188 -1.0625,-0.42187 -1.8125,-1.25 -0.75,-0.82812 -1.15625,-2.04687 -0.40625,-1.23438 -0.40625,-2.82813 V 229 h -3.625 v -2.29688 h 24.8125 z m -18.59375,0 v 9.84375 q 0,0.71875 0.15625,1.39062 0.17187,0.65625 0.53125,1.17188 0.375,0.51562 0.96875,0.82812 0.60937,0.3125 1.48437,0.3125 0.89063,0 1.48438,-0.3125 0.60937,-0.3125 0.98437,-0.82812 0.375,-0.51563 0.53125,-1.17188 0.17188,-0.67187 0.17188,-1.39062 V 229 Z m 38.17187,0 h -3.28125 v 21 h -2.54687 v -13.71875 h -5.07813 q -1.04687,0 -1.89062,0.14062 -0.84375,0.125 -1.4375,0.53125 -0.59375,0.39063 -0.92188,1.10938 -0.3125,0.70312 -0.3125,1.85937 0,1.5 0.48438,2.76563 0.5,1.26562 1.26562,2.32812 0.76563,1.04688 1.6875,1.9375 0.9375,0.89063 1.79688,1.64063 L 404,250.375 q -0.14063,-0.0781 -0.67188,-0.45313 -0.51562,-0.39062 -1.21875,-1.04687 -0.6875,-0.65625 -1.46875,-1.59375 -0.76562,-0.9375 -1.42187,-2.10938 -0.64063,-1.1875 -1.07813,-2.60937 -0.42187,-1.42188 -0.42187,-3.0625 0,-1.625 0.45312,-2.6875 0.46875,-1.07813 1.3125,-1.70313 0.84375,-0.64062 2.04688,-0.89062 1.20312,-0.25 2.6875,-0.25 h 5.75 V 229 H 395.125 v -2.29688 h 20.67187 z m 2.9375,21.34375 q -0.71875,0 -1.23437,-0.51563 -0.5,-0.51562 -0.5,-1.23437 0,-0.71875 0.5,-1.23438 0.51562,-0.53125 1.23437,-0.53125 0.73438,0 1.25,0.53125 0.51563,0.51563 0.51563,1.23438 0,0.71875 -0.51563,1.23437 -0.51562,0.51563 -1.25,0.51563 z"
         id="path7" />
    </g>
  </g>
</svg>
