<?xml version="1.0" encoding="UTF-8" standalone="no"?>
<svg
   width="800"
   height="600"
   version="1.1"
   id="svg4"
   sodipodi:docname="omkar_nature.svg"
   xmlns:inkscape="http://www.inkscape.org/namespaces/inkscape"
   xmlns:sodipodi="http://sodipodi.sourceforge.net/DTD/sodipodi-0.dtd"
   xmlns="http://www.w3.org/2000/svg"
   xmlns:svg="http://www.w3.org/2000/svg">
  <sodipodi:namedview
     id="namedview4"
     pagecolor="#ffffff"
     bordercolor="#666666"
     borderopacity="1.0"
     inkscape:showpageshadow="2"
     inkscape:pageopacity="0.0"
     inkscape:pagecheckerboard="0"
     inkscape:deskcolor="#d1d1d1" />
  <defs
     id="defs1">
    <style
       type="text/css"
       id="style1">
      @font-face {{
        font-family: 'Kalam';
        src: url('AxiDraw_API(1)/Kalam-Regular.ttf');
      }}
    </style>
  </defs>
  <g
     id="g4">
    <g
       id="text4"
       style="font-size:32px;font-family:Kalam"
       aria-label="ओमकाराचा जप करूनी,निसर्गाचे सौंदर्य अनुभवूनी।मन शांत, आत्मा प्रसन्न,जीवनाचा आनंद अपरम्पार पावूनी।">
      <path
         d="m 53.640625,86.1875 q 0.234375,0.734375 0.546875,1.609375 0.3125,0.859375 0.734375,1.75 0.4375,0.875 0.96875,1.703125 0.546875,0.828125 1.234375,1.46875 0.703125,0.640625 1.546875,1.03125 0.84375,0.375 1.875,0.375 1.015625,0 1.71875,-0.296875 0.703125,-0.296875 1.140625,-0.796875 0.4375,-0.5 0.625,-1.171875 0.203125,-0.671875 0.203125,-1.40625 0,-1.609375 -1.171875,-2.515625 -1.15625,-0.90625 -3.359375,-0.90625 -0.265625,0 -0.53125,0.01563 -0.265625,0.01563 -0.53125,0.04687 v -2.375 q 0.125,0.01563 0.21875,0.01563 0.109375,0 0.125,0 1.09375,0 1.9375,-0.265625 0.859375,-0.28125 1.4375,-0.75 Q 62.9375,83.25 63.234375,82.625 63.53125,82 63.53125,81.3125 q 0,-0.625 -0.21875,-1.109375 -0.21875,-0.484375 -0.59375,-0.8125 -0.375,-0.328125 -0.890625,-0.484375 -0.515625,-0.171875 -1.125,-0.171875 -0.421875,0 -0.8125,0.0625 Q 59.5,78.84375 59.0625,78.96875 q -0.4375,0.109375 -0.9375,0.296875 -0.484375,0.1875 -1.109375,0.46875 L 56.125,77.59375 Q 57.34375,77 58.46875,76.703125 q 1.125,-0.3125 2.296875,-0.3125 1.125,0 2.078125,0.359375 0.96875,0.359375 1.65625,1 0.703125,0.625 1.09375,1.5 0.390625,0.875 0.390625,1.890625 0,2.796875 -2.671875,4.5 v 0.0625 q 1.046875,0.4375 1.75,1.078125 0.453125,0.07813 0.953125,0.125 0.515625,0.04687 0.9375,0.04687 0.4375,0 0.921875,-0.0625 0.484375,-0.0625 0.984375,-0.234375 0.515625,-0.171875 1.03125,-0.484375 0.53125,-0.3125 1.0625,-0.8125 v -8.65625 h 5.84375 V 79 h -3.28125 v 21 h -2.5625 V 88.125 l -0.0625,-0.01563 Q 70,88.703125 69.21875,88.890625 q -0.78125,0.1875 -1.609375,0.1875 -0.265625,0 -0.546875,-0.01563 Q 66.78125,89.03125 66.484375,89 l -0.01563,0.0625 q 0.25,0.640625 0.25,1.578125 0,1.265625 -0.421875,2.34375 -0.421875,1.078125 -1.21875,1.875 -0.78125,0.78125 -1.90625,1.21875 -1.109375,0.4375 -2.5,0.4375 -1.484375,0 -2.6875,-0.515625 -1.1875,-0.53125 -2.15625,-1.359375 Q 54.875,93.8125 54.15625,92.78125 53.4375,91.734375 52.921875,90.6875 52.40625,89.640625 52.078125,88.703125 51.75,87.75 51.59375,87.125 Z M 85.109375,79 h -3.28125 v 21 h -2.5625 V 79 h -3.5625 v -2.296875 h 9.40625 z M 81.59375,77.140625 H 79.328125 L 77.90625,74.46875 Q 77,72.765625 76.25,71.765625 q -0.734375,-1 -1.40625,-1.515625 -0.65625,-0.53125 -1.296875,-0.671875 -0.640625,-0.15625 -1.34375,-0.15625 h -3.03125 v -2.53125 h 2.859375 q 0.90625,0 1.640625,0.15625 0.734375,0.140625 1.390625,0.53125 0.671875,0.375 1.296875,1.0625 0.640625,0.671875 1.359375,1.75 0.71875,1.0625 1.5625,2.5625 0.859375,1.484375 1.953125,3.515625 z M 106.65625,79 H 103.375 v 21 h -2.5625 v -8.765625 h -8.59375 v 1.859375 q 0,0.484375 -0.04687,0.859375 -0.03125,0.375 -0.171875,0.625 -0.125,0.25 -0.375,0.390625 -0.234375,0.125 -0.640625,0.125 -0.40625,0 -0.90625,-0.234375 -0.5,-0.25 -1.015625,-0.65625 -0.515625,-0.421875 -1,-0.9375 -0.484375,-0.53125 -0.875,-1.09375 Q 86.8125,91.59375 86.578125,91.03125 86.34375,90.46875 86.34375,90 q 0,-0.328125 0.109375,-0.53125 0.125,-0.21875 0.328125,-0.328125 Q 87,89.03125 87.296875,89 q 0.296875,-0.04687 0.671875,-0.04687 h 1.6875 V 79 h -5.640625 v -2.296875 h 22.640625 z m -14.4375,0 v 9.953125 h 8.59375 V 79 Z m 42.0625,0 h -13.20312 v 6.15625 l 0.0781,0.03125 q 0.79688,-1.09375 1.98438,-1.75 1.1875,-0.671875 2.60937,-0.671875 1.125,0 2.07813,0.46875 Q 128.79687,83.6875 129.5,84.5 q 0.70312,0.796875 1.09375,1.890625 Q 131,87.484375 131,88.75 q 0,1.4375 -0.5,2.65625 -0.5,1.203125 -1.28125,2.1875 -0.78125,0.984375 -1.76562,1.75 -0.98438,0.75 -1.9375,1.28125 L 124.125,94.21875 q 0.3125,-0.171875 0.76563,-0.453125 0.45312,-0.28125 0.9375,-0.65625 0.5,-0.375 0.96875,-0.84375 0.48437,-0.484375 0.85937,-1.046875 0.39062,-0.5625 0.625,-1.21875 0.23437,-0.65625 0.23437,-1.390625 0,-0.671875 -0.21875,-1.28125 -0.20312,-0.609375 -0.57812,-1.0625 -0.375,-0.453125 -0.90625,-0.71875 -0.51562,-0.265625 -1.14062,-0.265625 -0.8125,0 -1.57813,0.421875 -0.76562,0.421875 -1.39062,1.0625 -0.625,0.625 -1.0625,1.34375 -0.42188,0.71875 -0.5625,1.328125 V 100 h -2.5625 v -5.984375 l -0.0625,-0.03125 q -0.23438,0.203125 -0.59375,0.5 -0.35938,0.28125 -0.875,0.546875 -0.5,0.265625 -1.17188,0.453125 -0.65625,0.1875 -1.48437,0.1875 -1.375,0 -2.54688,-0.53125 -1.15625,-0.53125 -2.01562,-1.4375 -0.84375,-0.921875 -1.32813,-2.15625 -0.48437,-1.234375 -0.48437,-2.640625 0,-1.34375 0.4375,-2.484375 0.45312,-1.140625 1.21875,-1.953125 0.78125,-0.828125 1.8125,-1.28125 1.04687,-0.46875 2.25,-0.46875 0.84375,0 1.5625,0.21875 0.73437,0.203125 1.32812,0.515625 0.60938,0.296875 1.07813,0.65625 0.48437,0.34375 0.8125,0.625 l 0.0625,-0.01563 V 79 H 105.5625 v -2.296875 h 28.71875 z m -20.23437,6.15625 q -0.89063,0 -1.57813,0.375 -0.67187,0.359375 -1.125,0.9375 -0.45312,0.5625 -0.6875,1.28125 -0.21875,0.703125 -0.21875,1.390625 0,0.75 0.26563,1.5 0.26562,0.734375 0.75,1.328125 0.5,0.59375 1.1875,0.96875 0.6875,0.359375 1.51562,0.359375 0.70313,0 1.46875,-0.28125 0.78125,-0.296875 1.42188,-0.90625 Q 117.70313,91.5 118.125,90.5625 q 0.42188,-0.953125 0.42188,-2.265625 V 87.53125 q -0.375,-0.46875 -0.89063,-0.890625 -0.5,-0.4375 -1.09375,-0.765625 -0.57812,-0.328125 -1.21875,-0.515625 -0.64062,-0.203125 -1.29687,-0.203125 z M 142.59375,79 h -3.28125 v 21 H 136.75 V 79 h -3.5625 v -2.296875 h 9.40625 z m 15.64062,0 h -5.89062 q 0.79687,1.375 1.28125,2.8125 0.5,1.421875 0.5,2.890625 0,1.109375 -0.34375,2.140625 -0.32813,1.015625 -0.98438,1.828125 -0.64062,0.796875 -1.60937,1.3125 -0.95313,0.5 -2.20313,0.5625 l -0.0312,0.07813 q 1.40625,2.1875 3.15625,4.140625 1.75,1.9375 4.04688,3.6875 l -1.67188,1.921875 q -1.32812,-0.984375 -2.53125,-2.125 -1.1875,-1.15625 -2.25,-2.375 -1.0625,-1.234375 -1.98437,-2.484375 -0.90625,-1.265625 -1.67188,-2.453125 -0.75,-1.203125 -1.34375,-2.296875 Q 144.10937,87.53125 143.6875,86.625 l 2.14062,-1.15625 q 0.5625,1.21875 1.26563,1.921875 0.71875,0.6875 1.65625,0.6875 0.67187,0 1.20312,-0.34375 0.53125,-0.34375 0.89063,-0.875 0.35937,-0.546875 0.54687,-1.1875 0.1875,-0.65625 0.1875,-1.28125 0,-0.734375 -0.1875,-1.4375 -0.1875,-0.71875 -0.48437,-1.390625 -0.29688,-0.6875 -0.67188,-1.328125 Q 149.875,79.59375 149.53125,79 H 141.5 v -2.296875 h 16.73437 z m 8.3125,0 h -3.28125 v 21 h -2.5625 V 79 h -3.5625 v -2.296875 h 9.40625 z m 21.64063,0 h -3.28125 v 21 H 182.3125 V 93.421875 L 182.25,93.375 q -0.85938,0.78125 -1.6875,1.234375 -0.8125,0.4375 -1.53125,0.671875 -0.70313,0.21875 -1.28125,0.28125 -0.57813,0.0625 -0.95313,0.0625 -1.4375,0 -2.54687,-0.453125 -1.10938,-0.453125 -1.85938,-1.1875 -0.75,-0.75 -1.14062,-1.703125 -0.39063,-0.96875 -0.39063,-2 0,-1.078125 0.4375,-2.140625 0.45313,-1.0625 1.40625,-1.90625 l -0.0156,-0.0625 h -4.95313 V 83.875 h 12.5625 v 2.296875 h -1.60937 q -1.60938,0 -2.64063,0.421875 -1.03125,0.421875 -1.625,1.03125 -0.59375,0.609375 -0.82812,1.3125 -0.21875,0.6875 -0.21875,1.25 0,0.46875 0.15625,1.015625 0.15625,0.53125 0.51562,0.984375 0.375,0.453125 0.98438,0.75 0.625,0.296875 1.5625,0.296875 0.98437,0 1.82812,-0.3125 0.85938,-0.328125 1.57813,-0.84375 0.71875,-0.515625 1.29687,-1.15625 0.59375,-0.65625 1.01563,-1.296875 V 79 h -16.85938 v -2.296875 h 22.73438 z m 8.3125,0 h -3.28125 v 21 h -2.5625 V 79 h -3.5625 V 76.703125 H 196.5 Z m 32.71875,0 h -3.28125 v 21 H 223.375 V 86.4375 h -5.03125 l -0.0156,0.0625 q 0.1875,0.21875 0.5625,0.671875 0.375,0.4375 0.75,1.09375 0.375,0.640625 0.65625,1.46875 0.28125,0.8125 0.28125,1.765625 0,0.953125 -0.32812,1.890625 -0.3125,0.921875 -0.95313,1.671875 -0.625,0.734375 -1.59375,1.1875 -0.96875,0.453125 -2.25,0.453125 -1.26562,0 -2.32812,-0.4375 -1.04688,-0.453125 -1.92188,-1.203125 -0.85937,-0.75 -1.54687,-1.734375 -0.6875,-0.984375 -1.23438,-2.078125 -0.53125,-1.109375 -0.9375,-2.234375 -0.39062,-1.140625 -0.67187,-2.171875 -0.28125,-1.046875 -0.45313,-1.921875 -0.17187,-0.875 -0.26562,-1.453125 l 2.3125,-0.453125 q 0.51562,2.8125 1.25,4.9375 0.75,2.109375 1.65625,3.53125 0.90625,1.421875 1.95312,2.140625 1.04688,0.703125 2.1875,0.703125 0.8125,0 1.3125,-0.3125 0.5,-0.328125 0.78125,-0.78125 0.28125,-0.46875 0.375,-0.953125 0.10938,-0.5 0.10938,-0.859375 0,-0.640625 -0.26563,-1.359375 -0.25,-0.734375 -0.75,-1.453125 -0.48437,-0.734375 -1.21875,-1.40625 -0.73437,-0.671875 -1.6875,-1.21875 V 84.15625 H 223.375 V 79 h -19.20313 v -2.296875 h 25.04688 z m 19.26562,0 h -3.28125 v 21 H 242.625 v -7.46875 l -0.0625,-0.01563 q -1.04688,0.9375 -2.34375,1.34375 -1.29688,0.390625 -2.5625,0.390625 -1.34375,0 -2.45313,-0.390625 -1.10937,-0.390625 -1.90625,-1.1875 -0.79687,-0.8125 -1.25,-2.03125 -0.4375,-1.234375 -0.4375,-2.921875 V 79 H 228.125 v -2.296875 h 20.35937 z m -5.85937,0 h -8.48438 v 8.578125 q 0,0.984375 0.15625,1.765625 0.17188,0.78125 0.5625,1.328125 0.40625,0.546875 1.0625,0.84375 0.65625,0.28125 1.64063,0.28125 1.60937,0 2.90625,-0.75 1.29687,-0.765625 2.15625,-2 z m 42.25,0 h -13.20313 v 6.15625 l 0.0781,0.03125 q 0.79687,-1.09375 1.98437,-1.75 1.1875,-0.671875 2.60938,-0.671875 1.125,0 2.07812,0.46875 0.96875,0.453125 1.67188,1.265625 0.70312,0.796875 1.09375,1.890625 0.40625,1.09375 0.40625,2.359375 0,1.4375 -0.5,2.65625 -0.5,1.203125 -1.28125,2.1875 -0.78125,0.984375 -1.76563,1.75 -0.98437,0.75 -1.9375,1.28125 l -1.39062,-2.40625 q 0.3125,-0.171875 0.76562,-0.453125 0.45313,-0.28125 0.9375,-0.65625 0.5,-0.375 0.96875,-0.84375 0.48438,-0.484375 0.85938,-1.046875 0.39062,-0.5625 0.625,-1.21875 0.23437,-0.65625 0.23437,-1.390625 0,-0.671875 -0.21875,-1.28125 -0.20312,-0.609375 -0.57812,-1.0625 -0.375,-0.453125 -0.90625,-0.71875 -0.51563,-0.265625 -1.14063,-0.265625 -0.8125,0 -1.57812,0.421875 -0.76563,0.421875 -1.39063,1.0625 -0.625,0.625 -1.0625,1.34375 -0.42187,0.71875 -0.5625,1.328125 V 100 h -2.5625 v -5.984375 l -0.0625,-0.03125 q -0.23437,0.203125 -0.59375,0.5 -0.35937,0.28125 -0.875,0.546875 -0.5,0.265625 -1.17187,0.453125 -0.65625,0.1875 -1.48438,0.1875 -1.375,0 -2.54687,-0.53125 -1.15625,-0.53125 -2.01563,-1.4375 -0.84375,-0.921875 -1.32812,-2.15625 -0.48438,-1.234375 -0.48438,-2.640625 0,-1.34375 0.4375,-2.484375 0.45313,-1.140625 1.21875,-1.953125 0.78125,-0.828125 1.8125,-1.28125 1.04688,-0.46875 2.25,-0.46875 0.84375,0 1.5625,0.21875 0.73438,0.203125 1.32813,0.515625 0.60937,0.296875 1.07812,0.65625 0.48438,0.34375 0.8125,0.625 l 0.0625,-0.01563 V 79 H 256.15625 V 76.703125 H 284.875 Z m -20.23438,6.15625 q -0.89062,0 -1.57812,0.375 -0.67188,0.359375 -1.125,0.9375 -0.45313,0.5625 -0.6875,1.28125 -0.21875,0.703125 -0.21875,1.390625 0,0.75 0.26562,1.5 0.26563,0.734375 0.75,1.328125 0.5,0.59375 1.1875,0.96875 0.6875,0.359375 1.51563,0.359375 0.70312,0 1.46875,-0.28125 Q 267,92.71875 267.64062,92.109375 268.29687,91.5 268.71875,90.5625 q 0.42187,-0.953125 0.42187,-2.265625 V 87.53125 q -0.375,-0.46875 -0.89062,-0.890625 -0.5,-0.4375 -1.09375,-0.765625 -0.57813,-0.328125 -1.21875,-0.515625 -0.64063,-0.203125 -1.29688,-0.203125 z M 316.14062,79 H 294.625 q 0.75,1.328125 1.23437,2.671875 0.48438,1.328125 0.53125,2.75 0.70313,0.04687 1.32813,0.21875 0.64062,0.171875 1.23437,0.4375 0.79688,-0.984375 2.03125,-1.46875 1.25,-0.484375 2.625,-0.484375 1.32813,0 2.48438,0.4375 1.17187,0.421875 2.17187,1.125 1,0.703125 1.82813,1.59375 0.82812,0.875 1.48437,1.796875 Q 312.25,89 312.75,89.859375 q 0.51562,0.859375 0.85937,1.5 L 311.625,92.375 q -0.79688,-1.40625 -1.64063,-2.65625 -0.84375,-1.265625 -1.79687,-2.203125 -0.95313,-0.953125 -2.0625,-1.5 -1.09375,-0.5625 -2.40625,-0.5625 -0.79688,0 -1.42188,0.203125 -0.60937,0.203125 -1.03125,0.546875 -0.42187,0.328125 -0.64062,0.78125 -0.21875,0.4375 -0.21875,0.90625 0,0.9375 0.67187,1.46875 0.6875,0.515625 1.85938,0.515625 1.25,0 2.26562,-0.4375 l 0.54688,2.25 q -0.67188,0.265625 -1.375,0.40625 -0.6875,0.125 -1.35938,0.125 -1,0 -1.90625,-0.28125 -0.89062,-0.296875 -1.57812,-0.859375 -0.67188,-0.5625 -1.07813,-1.390625 -0.39062,-0.828125 -0.39062,-1.90625 0,-0.125 0,-0.234375 0,-0.109375 0.0156,-0.21875 -0.46875,-0.234375 -0.96875,-0.390625 -0.48437,-0.15625 -1.01562,-0.1875 -0.25,0.765625 -0.6875,1.4375 -0.42188,0.671875 -1.03125,1.1875 -0.59375,0.5 -1.375,0.8125 -0.78125,0.3125 -1.73438,0.359375 l -0.0312,0.07813 q 1.40625,2.1875 3.15625,4.140625 1.75,1.9375 4.04688,3.6875 l -1.67188,1.921875 q -1.32812,-0.984375 -2.53125,-2.125 -1.1875,-1.15625 -2.25,-2.375 -1.0625,-1.234375 -1.98437,-2.484375 -0.90625,-1.265625 -1.67188,-2.46875 -0.75,-1.203125 -1.34375,-2.296875 -0.59375,-1.09375 -1.01562,-2 l 2.14062,-1.15625 q 0.5625,1.21875 1.26563,1.921875 0.71875,0.6875 1.65625,0.6875 0.67187,0 1.20312,-0.34375 0.53125,-0.34375 0.89063,-0.875 0.35937,-0.546875 0.54687,-1.1875 0.1875,-0.65625 0.1875,-1.28125 0,-0.734375 -0.1875,-1.453125 -0.1875,-0.71875 -0.48437,-1.390625 -0.29688,-0.6875 -0.67188,-1.3125 Q 292.15625,79.59375 291.8125,79 h -8.03125 v -2.296875 h 32.35937 z m 19.4375,0 h -3.28125 v 21 h -2.57812 V 87.953125 h -7.3125 q 0,1.03125 -0.0312,1.765625 -0.0156,0.734375 -0.125,1.21875 -0.10938,0.46875 -0.32813,0.6875 -0.21875,0.21875 -0.60937,0.21875 -0.8125,0 -1.54688,-0.53125 -0.71875,-0.53125 -1.28125,-1.28125 -0.54687,-0.75 -0.875,-1.5625 -0.32812,-0.8125 -0.32812,-1.375 0,-0.5 0.21875,-0.78125 0.21875,-0.28125 0.57812,-0.421875 0.35938,-0.140625 0.8125,-0.171875 0.46875,-0.03125 0.9375,-0.03125 h 9.89063 V 79 h -14.67188 v -2.296875 h 20.53125 z m 8.3125,0 h -3.28125 v 21 h -2.5625 V 79 h -3.5625 v -2.296875 h 3.8125 q -0.28125,-1.59375 -0.71875,-2.71875 -0.4375,-1.140625 -0.95312,-1.890625 -0.51563,-0.765625 -1.07813,-1.203125 -0.5625,-0.4375 -1.07812,-0.65625 -0.53125,-0.21875 -0.98438,-0.28125 -0.46875,-0.0625 -0.76562,-0.0625 -0.96875,0 -1.54688,0.3125 -0.59375,0.296875 -0.90625,0.71875 -0.3125,0.421875 -0.40625,0.890625 -0.10937,0.453125 -0.10937,0.78125 0,0.125 0.0469,0.515625 0.0312,0.375 0.25,0.953125 0.20313,0.578125 0.64063,1.296875 0.4375,0.71875 1.23437,1.515625 h -2.65625 q -0.98437,-1.125 -1.46875,-2.328125 -0.5,-1.21875 -0.5,-2.359375 0,-0.953125 0.34375,-1.8125 0.34375,-0.859375 1.03125,-1.484375 0.6875,-0.640625 1.71875,-1.015625 1.03125,-0.375 2.39063,-0.375 1.875,0 3.23437,0.734375 1.35938,0.71875 2.28125,1.96875 0.9375,1.25 1.46875,2.9375 0.54688,1.671875 0.76563,3.5625 h 3.35937 z m 4.39063,17.4375 -2.5,7.6875 h -1.82813 l 1.82813,-7.6875 z"
         id="path4" />
      <path
         d="m 58.859375,129 h -3.28125 v 21 h -2.5625 v -21 h -3.5625 v -2.29687 h 3.5625 q -0.859375,-2.0625 -0.859375,-3.84375 0,-1.14063 0.375,-2.125 0.375,-0.98438 1.140625,-1.70313 0.78125,-0.71875 1.984375,-1.125 1.203125,-0.40625 2.859375,-0.40625 2.171875,0 4.171875,0.70313 2.015625,0.70312 3.9375,1.95312 1.921875,1.25 3.796875,2.96875 1.890625,1.71875 3.8125,3.75 h -2.71875 q -0.4375,-0.42187 -1.171875,-1.09375 -0.71875,-0.6875 -1.671875,-1.45312 -0.953125,-0.78125 -2.109375,-1.5625 -1.15625,-0.79688 -2.4375,-1.4375 -1.28125,-0.64063 -2.671875,-1.03125 -1.375,-0.40625 -2.78125,-0.40625 -1.140625,0 -1.921875,0.26562 -0.765625,0.26563 -1.25,0.73438 -0.46875,0.46875 -0.671875,1.10937 -0.203125,0.625 -0.203125,1.34375 0,1.40625 0.765625,3.35938 h 3.46875 z m 19.4375,0 h -3.28125 v 21 H 72.4375 V 137.95312 H 65.125 q 0,1.03125 -0.03125,1.76563 -0.01563,0.73437 -0.125,1.21875 -0.109375,0.46875 -0.328125,0.6875 -0.21875,0.21875 -0.609375,0.21875 -0.8125,0 -1.546875,-0.53125 -0.71875,-0.53125 -1.28125,-1.28125 -0.546875,-0.75 -0.875,-1.5625 Q 60,137.65625 60,137.09375 q 0,-0.5 0.21875,-0.78125 0.21875,-0.28125 0.578125,-0.42188 0.359375,-0.14062 0.8125,-0.17187 0.46875,-0.0312 0.9375,-0.0312 H 72.4375 V 129 H 57.765625 v -2.29687 h 20.53125 z m 23.046875,-2.29687 V 129 H 98.0625 v 21 h -2.59375 v -10.5 h -9.046875 q -0.828125,0.54687 -1.984375,0.65625 l -0.03125,0.0781 q 1.515625,2.375 3.328125,4.42188 1.8125,2.04687 4.125,3.79687 L 90.1875,150.375 q -1.328125,-0.98438 -2.53125,-2.125 -1.1875,-1.14063 -2.25,-2.35938 -1.046875,-1.23437 -1.96875,-2.48437 -0.921875,-1.26563 -1.6875,-2.48438 -0.765625,-1.21875 -1.375,-2.34375 -0.609375,-1.14062 -1.0625,-2.10937 l 2.140625,-1.15625 Q 81.75,136 82.03125,136.46875 q 0.296875,0.45312 0.59375,0.73437 0.296875,0.26563 0.625,0.39063 0.328125,0.10937 0.703125,0.10937 1.078125,0 1.578125,-0.84375 0.515625,-0.84375 0.515625,-2.21875 0,-0.8125 -0.15625,-1.59375 -0.15625,-0.79687 -0.40625,-1.51562 Q 85.25,130.79687 84.96875,130.15625 84.6875,129.51562 84.4375,129 h -7.234375 v -2.29687 z M 95.46875,129 h -8.328125 q 0.65625,1.42187 1.03125,2.85937 0.375,1.4375 0.375,2.85938 0,0.65625 -0.109375,1.29687 -0.09375,0.625 -0.328125,1.1875 l 0.03125,0.0312 h 7.328125 z m 25.82813,0 h -3.28125 v 21 h -2.5625 v -21 h -7.04688 v 12.125 q 0,0.25 -0.0312,0.57812 -0.0312,0.32813 -0.15625,0.64063 -0.10937,0.29687 -0.32812,0.51562 -0.21875,0.20313 -0.60938,0.20313 -0.42187,0 -0.9375,-0.26563 -0.5,-0.28125 -1.03125,-0.71875 -0.53125,-0.45312 -1.03125,-1.01562 -0.48437,-0.5625 -0.875,-1.15625 -0.39062,-0.59375 -0.625,-1.15625 -0.23437,-0.5625 -0.23437,-1 0,-0.39063 0.1875,-0.625 0.20312,-0.23438 0.54687,-0.35938 0.35938,-0.125 0.85938,-0.15625 0.51562,-0.0312 1.125,-0.0312 h 0.54687 V 129 H 100.25 v -2.29687 h 21.04688 z m 8.31249,0 h -3.28124 v 21 h -2.5625 v -21 h -3.5625 v -2.29687 h 9.40624 z m -0.73437,-9.125 q -0.6875,-0.78125 -1.28125,-1.14062 Q 127,118.375 126.20313,118.375 q -1.21875,0 -1.95313,0.84375 -0.73437,0.82813 -0.73437,2.34375 0,0.625 0.14062,1.3125 0.14063,0.67188 0.40625,1.35938 0.26563,0.6875 0.65625,1.35937 0.39063,0.67188 0.89063,1.28125 h -2.59375 q -0.9375,-1.32812 -1.40625,-2.71875 -0.46875,-1.40625 -0.46875,-2.73437 0,-1.28125 0.42187,-2.29688 0.40625,-1.01562 1.09375,-1.70312 0.6875,-0.6875 1.60938,-1.04688 0.90625,-0.375 1.92187,-0.375 1.35938,0 2.42187,0.54688 1.07813,0.53125 2.01563,1.71875 z M 151.25,129 h -3.28125 v 21 H 145.375 v -6.57813 l -0.0625,-0.0469 q -0.85938,0.78125 -1.6875,1.23437 -0.8125,0.4375 -1.53125,0.67188 -0.70313,0.21875 -1.28125,0.28125 -0.57813,0.0625 -0.95313,0.0625 -1.4375,0 -2.54687,-0.45313 -1.10938,-0.45312 -1.85938,-1.1875 -0.75,-0.75 -1.14062,-1.70312 -0.39063,-0.96875 -0.39063,-2 0,-1.07813 0.4375,-2.14063 0.45313,-1.0625 1.40625,-1.90625 l -0.0156,-0.0625 h -4.95313 V 133.875 h 12.5625 v 2.29687 H 141.75 q -1.60938,0 -2.64063,0.42188 -1.03125,0.42187 -1.625,1.03125 -0.59375,0.60937 -0.82812,1.3125 -0.21875,0.6875 -0.21875,1.25 0,0.46875 0.15625,1.01562 0.15625,0.53125 0.51562,0.98438 0.375,0.45312 0.98438,0.75 0.625,0.29687 1.5625,0.29687 0.98437,0 1.82812,-0.3125 0.85938,-0.32812 1.57813,-0.84375 0.71875,-0.51562 1.29687,-1.15625 0.59375,-0.65625 1.01563,-1.29687 V 129 h -16.85938 v -2.29687 H 151.25 Z m -3.5,-1.85937 h -2.26563 l -1.42187,-2.67188 q -0.90625,-1.70312 -1.64063,-2.70312 -0.75,-1 -1.40625,-1.51563 -0.67187,-0.53125 -1.3125,-0.67187 -0.64062,-0.15625 -1.34375,-0.15625 h -3.03125 v -2.53125 h 2.85938 q 0.90625,0 1.64062,0.15625 0.73438,0.14062 1.40625,0.53125 0.65625,0.375 1.29688,1.0625 0.625,0.67187 1.34375,1.75 0.71875,1.0625 1.57812,2.5625 0.84375,1.48437 1.9375,3.51562 z m 35.3125,-0.4375 V 129 h -3.28125 v 21 h -2.59375 v -10.5 h -9.04688 q -0.82812,0.54687 -1.98437,0.65625 l -0.0312,0.0781 q 1.51562,2.375 3.32812,4.42188 1.8125,2.04687 4.125,3.79687 l -1.67187,1.92188 q -1.32813,-0.98438 -2.53125,-2.125 -1.1875,-1.14063 -2.25,-2.35938 -1.04688,-1.23437 -1.96875,-2.48437 -0.92188,-1.26563 -1.6875,-2.48438 -0.76563,-1.21875 -1.375,-2.34375 -0.60938,-1.14062 -1.0625,-2.10937 l 2.14062,-1.15625 q 0.29688,0.6875 0.57813,1.15625 0.29687,0.45312 0.59375,0.73437 0.29687,0.26563 0.625,0.39063 0.32812,0.10937 0.70312,0.10937 1.07813,0 1.57813,-0.84375 0.51562,-0.84375 0.51562,-2.21875 0,-0.8125 -0.15625,-1.59375 -0.15625,-0.79687 -0.40625,-1.51562 -0.23437,-0.73438 -0.51562,-1.375 -0.28125,-0.64063 -0.53125,-1.15625 h -7.23438 v -2.29687 z M 177.1875,129 h -8.32813 q 0.65625,1.42187 1.03125,2.85937 0.375,1.4375 0.375,2.85938 0,0.65625 -0.10937,1.29687 -0.0937,0.625 -0.32813,1.1875 l 0.0312,0.0312 h 7.32813 z m 14.1875,0 h -3.28125 v 21 h -2.5625 v -21 h -3.5625 v -2.29687 h 9.40625 z m -3.39063,-1.85937 h -2.07812 l -0.5625,-0.5 q -1.21875,-1.07813 -2.15625,-1.8125 -0.92188,-0.75 -1.64063,-1.23438 -0.71875,-0.48437 -1.28125,-0.75 -0.5625,-0.26562 -1.04687,-0.39062 -0.48438,-0.125 -0.9375,-0.14063 -0.45313,-0.0312 -0.95313,-0.0312 h -3 v -2.21875 h 2.78125 q 0.6875,0 1.26563,0.0937 0.57812,0.0781 1.125,0.29688 0.53125,0.20312 1.07812,0.54687 0.54688,0.32813 1.20313,0.84375 0.64062,0.51563 1.42187,1.21875 0.79688,0.70313 1.8125,1.625 l 0.0937,-0.0625 q -0.90625,-1.48437 -1.60937,-2.5625 -0.70313,-1.09375 -1.28125,-1.84375 -0.57813,-0.76562 -1.0625,-1.25 -0.48438,-0.48437 -0.9375,-0.75 -0.45313,-0.26562 -0.92188,-0.35937 -0.46875,-0.0937 -1.01562,-0.0937 H 175.25 v -2.29688 h 2.85937 q 0.90625,0 1.625,0.17188 0.70313,0.17187 1.35938,0.625 0.64062,0.45312 1.28125,1.23437 0.64062,0.78125 1.39062,2.01563 0.76563,1.21875 1.6875,2.9375 0.9375,1.70312 2.17188,4.01562 z m -0.75,-5.20313 q 0,-0.89062 0.53125,-1.4375 0.51563,-0.5625 1.35938,-0.5625 0.39062,0 0.75,0.15625 0.34375,0.15625 0.60937,0.4375 0.26563,0.26563 0.42188,0.64063 0.14062,0.35937 0.14062,0.79687 0,0.89063 -0.51562,1.4375 -0.53125,0.54688 -1.375,0.54688 -0.40625,0 -0.75,-0.14063 -0.35938,-0.15625 -0.60938,-0.42187 -0.26562,-0.28125 -0.40625,-0.64063 -0.15625,-0.375 -0.15625,-0.8125 z M 211.29687,129 H 206 v 6.85937 h -5.26563 q -2.45312,0 -3.70312,1.21875 -1.25,1.20313 -1.25,3.46875 0,1.28125 0.40625,2.26563 0.42187,0.98437 1.14062,1.65625 0.73438,0.65625 1.73438,1 1,0.34375 2.17187,0.34375 1.23438,0 1.98438,-0.375 -0.0625,-0.39063 -0.0937,-0.6875 -0.0312,-0.29688 -0.0312,-0.59375 0,-0.65625 0.15625,-1.34375 0.17187,-0.70313 0.5,-1.26563 0.34375,-0.57812 0.85937,-0.9375 0.53125,-0.35937 1.26563,-0.35937 0.45312,0 0.85937,0.15625 0.40625,0.15625 0.70313,0.48437 0.3125,0.3125 0.48437,0.79688 0.1875,0.48437 0.1875,1.125 0,0.64062 -0.17187,1.1875 -0.17188,0.53125 -0.45313,1 -0.26562,0.45312 -0.60937,0.85937 -0.34375,0.39063 -0.67188,0.71875 0.34375,0.75 0.71875,1.34375 0.39063,0.59375 0.79688,1.0625 0.42187,0.46875 0.84375,0.84375 0.42187,0.375 0.84375,0.70313 l -1.92188,2.01562 q -0.82812,-0.73437 -1.42187,-1.46875 -0.57813,-0.71875 -0.98438,-1.35937 -0.39062,-0.64063 -0.64062,-1.15625 -0.25,-0.51563 -0.40625,-0.82813 -1.07813,0.42188 -2.65625,0.42188 -2.03125,0 -3.54688,-0.65625 -1.51562,-0.67188 -2.53125,-1.78125 -1,-1.125 -1.5,-2.5625 -0.5,-1.4375 -0.5,-2.98438 0,-1.60937 0.51563,-2.82812 0.51562,-1.23438 1.4375,-2.0625 0.92187,-0.84375 2.1875,-1.26563 1.28125,-0.4375 2.79687,-0.4375 h 3.20313 V 129 h -13.15625 v -2.29687 h 21.01562 z m 19.90625,0 h -3.28125 v 21 h -2.5625 v -7.3125 l -0.0625,-0.0156 q -0.42187,0.34375 -1.01562,0.6875 -0.57813,0.32813 -1.29688,0.59375 -0.71875,0.25 -1.54687,0.42188 -0.82813,0.15625 -1.73438,0.15625 -1.8125,0 -3.10937,-0.65625 -1.28125,-0.65625 -2.15625,-1.75 -0.85938,-1.10938 -1.35938,-2.51563 -0.5,-1.42187 -0.71875,-2.95312 1.03125,-0.14063 1.76563,-0.48438 0.73437,-0.34375 1.1875,-0.8125 0.45312,-0.48437 0.65625,-1.04687 0.21875,-0.5625 0.21875,-1.125 0,-0.375 -0.0781,-0.84375 -0.0625,-0.46875 -0.23437,-1 -0.17188,-0.54688 -0.45313,-1.14063 -0.28125,-0.59375 -0.70312,-1.20312 h -4.51563 v -2.29687 h 21 z m -13.71875,0 q 0.5625,0.95312 0.875,2.09375 0.32813,1.125 0.32813,2.21875 0,0.79687 -0.21875,1.54687 -0.20313,0.75 -0.64063,1.40625 -0.4375,0.64063 -1.09375,1.15625 -0.64062,0.5 -1.5,0.79688 0.25,1.04687 0.6875,1.79687 0.4375,0.73438 1.03125,1.21875 0.59375,0.46875 1.32813,0.6875 0.73437,0.21875 1.57812,0.21875 0.8125,0 1.59375,-0.1875 0.79688,-0.1875 1.5,-0.53125 0.71875,-0.35937 1.32813,-0.85937 0.60937,-0.5 1.07812,-1.125 V 129 Z m 13.29688,-9.125 q -0.6875,-0.78125 -1.28125,-1.14062 -0.59375,-0.35938 -1.39063,-0.35938 -1.21875,0 -1.95312,0.84375 -0.73438,0.82813 -0.73438,2.34375 0,0.625 0.14063,1.3125 0.14062,0.67188 0.40625,1.35938 0.26562,0.6875 0.65625,1.35937 0.39062,0.67188 0.89062,1.28125 h -2.59375 q -0.9375,-1.32812 -1.40625,-2.71875 -0.46875,-1.40625 -0.46875,-2.73437 0,-1.28125 0.42188,-2.29688 0.40625,-1.01562 1.09375,-1.70312 0.6875,-0.6875 1.60937,-1.04688 0.90625,-0.375 1.92188,-0.375 1.35937,0 2.42187,0.54688 1.07813,0.53125 2.01563,1.71875 z m 12.28125,16.3125 q 0.23437,0.73437 0.54687,1.60937 0.3125,0.85938 0.73438,1.75 0.4375,0.875 0.96875,1.70313 0.54687,0.82812 1.23437,1.46875 0.70313,0.64062 1.54688,1.03125 0.84375,0.375 1.875,0.375 1.01562,0 1.71875,-0.29688 0.70312,-0.29687 1.14062,-0.79687 0.4375,-0.5 0.625,-1.17188 0.20313,-0.67187 0.20313,-1.40625 0,-1.60937 -1.17188,-2.51562 -1.15625,-0.90625 -3.35937,-0.90625 -0.26563,0 -0.53125,0.0156 -0.26563,0.0156 -0.53125,0.0469 v -2.375 q 0.125,0.0156 0.21875,0.0156 0.10937,0 0.125,0 1.09375,0 1.9375,-0.26562 0.85937,-0.28125 1.4375,-0.75 0.57812,-0.46875 0.875,-1.09375 0.29687,-0.625 0.29687,-1.3125 0,-0.625 -0.21875,-1.10938 -0.21875,-0.48437 -0.59375,-0.8125 -0.375,-0.32812 -0.89062,-0.48437 -0.51563,-0.17188 -1.125,-0.17188 -0.42188,0 -0.8125,0.0625 -0.39063,0.0469 -0.82813,0.17188 -0.4375,0.10937 -0.9375,0.29687 -0.48437,0.1875 -1.10937,0.46875 l -0.89063,-2.14062 q 1.21875,-0.59375 2.34375,-0.89062 1.125,-0.3125 2.29688,-0.3125 1.125,0 2.07812,0.35937 0.96875,0.35938 1.65625,1 0.70313,0.625 1.09375,1.5 0.39063,0.875 0.39063,1.89062 0,2.79688 -2.67188,4.5 v 0.0625 q 1.04688,0.4375 1.75,1.07813 0.45313,0.0781 0.95313,0.125 0.51562,0.0469 0.9375,0.0469 0.4375,0 0.92187,-0.0625 0.48438,-0.0625 0.98438,-0.23437 0.51562,-0.17188 1.03125,-0.48438 0.53125,-0.3125 1.0625,-0.8125 v -8.65624 h 5.84375 V 129 h -3.28125 v 21 h -2.5625 v -11.875 l -0.0625,-0.0156 q -0.89063,0.59375 -1.67188,0.78125 -0.78125,0.1875 -1.60937,0.1875 -0.26563,0 -0.54688,-0.0156 -0.28125,-0.0312 -0.57812,-0.0625 l -0.0156,0.0625 q 0.25,0.64062 0.25,1.57812 0,1.26563 -0.42187,2.34375 -0.42188,1.07813 -1.21875,1.875 -0.78125,0.78125 -1.90625,1.21875 -1.10938,0.4375 -2.5,0.4375 -1.48438,0 -2.6875,-0.51562 -1.1875,-0.53125 -2.15625,-1.35938 -0.95313,-0.82812 -1.67188,-1.85937 -0.71875,-1.04688 -1.23437,-2.09375 -0.51563,-1.04688 -0.84375,-1.98438 -0.32813,-0.95312 -0.48438,-1.57812 z M 285.65625,129 H 282.375 v 21 h -2.57813 v -12.04688 h -7.3125 q 0,1.03125 -0.0312,1.76563 -0.0156,0.73437 -0.125,1.21875 -0.10937,0.46875 -0.32812,0.6875 -0.21875,0.21875 -0.60938,0.21875 -0.8125,0 -1.54687,-0.53125 -0.71875,-0.53125 -1.28125,-1.28125 -0.54688,-0.75 -0.875,-1.5625 -0.32813,-0.8125 -0.32813,-1.375 0,-0.5 0.21875,-0.78125 0.21875,-0.28125 0.57813,-0.42188 0.35937,-0.14062 0.8125,-0.17187 0.46875,-0.0312 0.9375,-0.0312 h 9.89062 V 129 H 265.125 v -2.29687 h 20.53125 z M 276.75,150.46875 q 1,-0.625 2.21875,-0.96875 1.20312,-0.34375 2.29687,-0.34375 0.95313,0 1.78125,0.28125 0.8125,0.26562 1.42188,0.78125 0.60937,0.53125 0.95312,1.28125 0.34375,0.75 0.34375,1.6875 0,1 -0.40625,1.875 -0.39062,0.875 -1.1875,1.53125 -0.79687,0.65625 -1.96875,1.03125 -1.17187,0.39062 -2.71875,0.39062 -1.76562,0 -3.15625,-0.48437 -1.40625,-0.46875 -2.51562,-1.20313 -1.10938,-0.71875 -1.95313,-1.59375 -0.84375,-0.875 -1.48437,-1.65625 l 1.45312,-1.70312 q 0.89063,0.96875 1.70313,1.75 0.8125,0.78125 1.6875,1.32812 0.875,0.5625 1.89062,0.85938 1,0.29687 2.26563,0.29687 1.07812,0 1.84375,-0.21875 0.75,-0.20312 1.23437,-0.54687 0.48438,-0.32813 0.70313,-0.76563 0.21875,-0.42187 0.21875,-0.85937 0,-0.79688 -0.59375,-1.26563 -0.60938,-0.46875 -1.64063,-0.46875 -0.67187,0 -1.54687,0.23438 -0.89063,0.23437 -1.79688,0.78125 z M 308.59375,129 h -3.28125 v 21 H 302.75 v -8.76563 h -8.20313 v 2.23438 q 0,0.23437 -0.0469,0.5 -0.0312,0.26562 -0.15625,0.5 -0.10938,0.21875 -0.3125,0.375 -0.1875,0.14062 -0.48438,0.14062 -0.35937,0 -0.85937,-0.21875 -0.48438,-0.23437 -1.01563,-0.60937 -0.51562,-0.39063 -1.03125,-0.875 -0.5,-0.5 -0.90625,-1.03125 -0.39062,-0.53125 -0.64062,-1.0625 -0.25,-0.53125 -0.25,-0.98438 0,-0.65625 0.46875,-0.95312 0.46875,-0.29688 1.23437,-0.29688 h 1.51563 V 130.375 q 0,-0.8125 -0.39063,-1.23438 -0.39062,-0.4375 -0.98437,-0.4375 -0.65625,0 -1.10938,0.48438 -0.4375,0.48437 -0.4375,1.23437 0,0.14063 0.0312,0.34375 0.0312,0.20313 0.15625,0.46875 0.125,0.25 0.375,0.57813 0.25,0.3125 0.67188,0.67187 l -1.39063,1.70313 q -0.71875,-0.39063 -1.17187,-0.85938 -0.45313,-0.48437 -0.70313,-0.98437 -0.25,-0.5 -0.34375,-0.96875 -0.0937,-0.48438 -0.0937,-0.89063 0,-0.75 0.25,-1.46875 0.26563,-0.73437 0.78125,-1.31249 0.51563,-0.59375 1.28125,-0.95313 0.78125,-0.35937 1.8125,-0.35937 0.90625,0 1.60938,0.29687 0.70312,0.29688 1.17187,0.85938 0.48438,0.54687 0.71875,1.32812 0.25,0.76562 0.25,1.71875 v 8.35937 H 302.75 v -12.24999 h 5.84375 z m 18.8125,0 H 324.125 v 21 h -2.5625 v -5.57813 l -0.0625,-0.0156 q -0.3125,0.29687 -0.73438,0.625 -0.42187,0.3125 -0.96875,0.57812 -0.54687,0.25 -1.23437,0.42188 -0.67188,0.17187 -1.51563,0.17187 -1.54687,0 -2.82812,-0.59375 -1.26563,-0.59375 -2.1875,-1.57812 -0.92188,-1 -1.4375,-2.28125 -0.5,-1.29688 -0.5,-2.70313 0,-1.40625 0.5,-2.60937 0.51562,-1.21875 1.40625,-2.10938 0.89062,-0.89062 2.07812,-1.39062 1.1875,-0.51563 2.54688,-0.51563 0.375,0 0.9375,0.0625 0.57812,0.0625 1.23437,0.28125 0.65625,0.21875 1.35938,0.64063 0.70312,0.40625 1.34375,1.10937 L 321.5625,134.5 V 129 H 307.5 v -2.29687 h 19.90625 z m -5.78125,8.42187 q -0.98438,-1.1875 -2.14063,-1.90625 -1.15625,-0.73437 -2.625,-0.73437 -1.15625,0 -1.96875,0.4375 -0.79687,0.4375 -1.3125,1.10937 -0.51562,0.65625 -0.75,1.46875 -0.23437,0.8125 -0.23437,1.5625 0,0.8125 0.26562,1.60938 0.26563,0.79687 0.78125,1.4375 0.53125,0.625 1.3125,1.03125 0.78125,0.39062 1.82813,0.39062 1.07812,0 1.96875,-0.40625 0.89062,-0.42187 1.53125,-1.0625 0.64062,-0.64062 0.98437,-1.4375 Q 321.625,140.125 321.625,139.375 Z M 330.53125,158 q -0.79688,-1.3125 -1.64063,-2.5 -0.84375,-1.17188 -1.79687,-2.04688 -0.95313,-0.875 -2.04688,-1.39062 -1.10937,-0.51563 -2.42187,-0.51563 -0.79688,0 -1.40625,0.1875 -0.625,0.1875 -1.04688,0.5 -0.42187,0.3125 -0.64062,0.71875 -0.21875,0.42188 -0.21875,0.85938 0,0.84375 0.6875,1.34375 0.67187,0.5 1.84375,0.5 1.09375,0 2.26562,-0.4375 l 0.54688,2.25 q -0.67188,0.26562 -1.35938,0.39062 -0.70312,0.14063 -1.375,0.14063 -1,0 -1.89062,-0.28125 -0.90625,-0.28125 -1.57813,-0.82813 -0.6875,-0.53125 -1.07812,-1.34375 -0.40625,-0.79687 -0.40625,-1.82812 0,-1.14063 0.48437,-2 0.46875,-0.84375 1.25,-1.40625 0.78125,-0.54688 1.78125,-0.8125 1,-0.28125 2.03125,-0.28125 1.32813,0 2.5,0.40625 1.15625,0.40625 2.15625,1.0625 1,0.67187 1.82813,1.5 0.82812,0.84375 1.48437,1.70312 0.67188,0.85938 1.17188,1.67188 0.51562,0.8125 0.85937,1.42187 z m 16.3125,-29 h -3.28125 v 21 h -2.57813 v -12.04688 h -7.3125 q 0,1.03125 -0.0312,1.76563 -0.0156,0.73437 -0.125,1.21875 -0.10937,0.46875 -0.32812,0.6875 -0.21875,0.21875 -0.60938,0.21875 -0.8125,0 -1.54687,-0.53125 -0.71875,-0.53125 -1.28125,-1.28125 -0.54688,-0.75 -0.875,-1.5625 -0.32813,-0.8125 -0.32813,-1.375 0,-0.5 0.21875,-0.78125 0.21875,-0.28125 0.57813,-0.42188 0.35937,-0.14062 0.8125,-0.17187 0.46875,-0.0312 0.9375,-0.0312 h 9.89062 V 129 H 326.3125 v -2.29687 h 20.53125 z m 8.3125,0 H 351.875 v 21 h -2.5625 V 129 H 345.75 v -2.29687 h 3.8125 q -0.28125,-1.59375 -0.71875,-2.71875 -0.4375,-1.14063 -0.95313,-1.89063 -0.51562,-0.76562 -1.07812,-1.20312 -0.5625,-0.4375 -1.07813,-0.65625 -0.53125,-0.21875 -0.98437,-0.28125 -0.46875,-0.0625 -0.76563,-0.0625 -0.96875,0 -1.54687,0.3125 -0.59375,0.29687 -0.90625,0.71875 -0.3125,0.42187 -0.40625,0.89062 -0.10938,0.45313 -0.10938,0.78125 0,0.125 0.0469,0.51563 0.0312,0.375 0.25,0.95312 0.20312,0.57813 0.64062,1.29688 0.4375,0.71875 1.23438,1.51562 h -2.65625 q -0.98438,-1.125 -1.46875,-2.32812 -0.5,-1.21875 -0.5,-2.35938 0,-0.95312 0.34375,-1.8125 0.34375,-0.85937 1.03125,-1.48437 0.6875,-0.64063 1.71875,-1.01563 1.03125,-0.375 2.39062,-0.375 1.875,0 3.23438,0.73438 1.35937,0.71875 2.28125,1.96875 0.9375,1.25 1.46875,2.9375 0.54687,1.67187 0.76562,3.5625 h 3.35938 z m 9.39062,21 h -2.5625 v -23.29687 h 2.5625 z"
         id="path5" />
      <path
         d="M 72.09375,179 H 68.8125 v 21 H 66.25 v -8.76563 h -8.59375 v 1.85938 q 0,0.48437 -0.04687,0.85937 -0.03125,0.375 -0.171875,0.625 -0.125,0.25 -0.375,0.39063 -0.234375,0.125 -0.640625,0.125 -0.40625,0 -0.90625,-0.23438 -0.5,-0.25 -1.015625,-0.65625 -0.515625,-0.42187 -1,-0.9375 -0.484375,-0.53125 -0.875,-1.09375 -0.375,-0.57812 -0.609375,-1.14062 Q 51.78125,190.46875 51.78125,190 q 0,-0.32813 0.109375,-0.53125 0.125,-0.21875 0.328125,-0.32813 0.21875,-0.10937 0.515625,-0.14062 0.296875,-0.0469 0.671875,-0.0469 h 1.6875 V 179 h -5.640625 v -2.29688 H 72.09375 Z m -14.4375,0 v 9.95312 H 66.25 V 179 Z m 33.875,0 H 88.25 v 21 h -2.578125 v -12.04688 h -7.3125 q 0,1.03125 -0.03125,1.76563 -0.01563,0.73437 -0.125,1.21875 -0.109375,0.46875 -0.328125,0.6875 -0.21875,0.21875 -0.609375,0.21875 -0.8125,0 -1.546875,-0.53125 Q 75,190.78125 74.4375,190.03125 q -0.546875,-0.75 -0.875,-1.5625 -0.328125,-0.8125 -0.328125,-1.375 0,-0.5 0.21875,-0.78125 0.21875,-0.28125 0.578125,-0.42188 0.359375,-0.14062 0.8125,-0.17187 0.46875,-0.0312 0.9375,-0.0312 h 9.890625 V 179 H 71 v -2.29688 h 20.53125 z m 18.35938,8.5 q -0.28125,0.0312 -0.53125,0.0625 -0.25,0.0156 -0.51563,0.0156 -1.26562,0 -2.29687,-0.45312 -1.01563,-0.45313 -1.75,-1.21875 -0.71875,-0.76563 -1.10938,-1.76563 -0.39062,-1.01562 -0.39062,-2.125 0,-0.79687 0.21875,-1.54687 0.21875,-0.75 0.6875,-1.40625 L 104.1875,179 h -4.984375 v -2.29688 H 125.32813 V 179 h -3.28125 v 21 h -2.5625 v -21 h -5.89063 l -0.0156,0.0625 q 0.40625,0.40625 0.75,0.98437 0.34375,0.5625 0.57812,1.23438 0.25,0.67187 0.39063,1.40625 0.14062,0.73437 0.14062,1.48437 0,1.21875 -0.39062,2.35938 -0.375,1.14062 -1.07813,2.15625 -0.6875,1.01562 -1.67187,1.89062 -0.96875,0.85938 -2.15625,1.53125 v 0.0625 q 0.78125,0.60938 1.67187,1.46875 0.89063,0.84375 1.76563,1.76563 0.875,0.92187 1.65625,1.84375 0.78125,0.90625 1.34375,1.65625 l -1.76563,1.48437 q -0.48437,-0.60937 -1.21875,-1.48437 -0.73437,-0.89063 -1.64062,-1.84375 -0.90625,-0.96875 -1.96875,-1.92188 -1.04688,-0.96875 -2.1875,-1.75 -0.5625,0.26563 -1.1875,0.39063 -0.60938,0.125 -1.21875,0.125 -0.70313,0 -1.35938,-0.17188 -0.64062,-0.17187 -1.15625,-0.5 -0.5,-0.32812 -0.79687,-0.79687 -0.29688,-0.48438 -0.29688,-1.10938 0,-0.98437 0.71875,-1.51562 0.73438,-0.54688 1.90625,-0.54688 0.85938,0 1.73438,0.3125 0.89062,0.29688 1.73437,0.90625 0.4375,-0.0937 0.98438,-0.32812 0.54687,-0.25 1.10937,-0.625 0.57813,-0.39063 1.10938,-0.90625 0.54687,-0.53125 0.96875,-1.20313 0.42187,-0.67187 0.67187,-1.46875 0.26563,-0.8125 0.26563,-1.75 0,-0.9375 -0.28125,-1.84375 -0.26563,-0.90625 -0.79688,-1.60937 -0.53125,-0.71875 -1.32812,-1.15625 -0.79688,-0.4375 -1.84375,-0.4375 -0.82813,0 -1.375,0.26562 -0.54688,0.25 -0.89063,0.65625 -0.34375,0.40625 -0.48437,0.90625 -0.14063,0.48438 -0.14063,0.95313 0,0.60937 0.21875,1.20312 0.21875,0.57813 0.64063,1.04688 0.4375,0.45312 1.07812,0.73437 0.64063,0.28125 1.46875,0.28125 0.26563,0 0.64063,-0.0469 z m 23.74999,-8.5 h -3.28125 v 21 h -2.56249 v -21 h -3.5625 v -2.29688 h 9.40624 z m -6.79687,-7.0625 q 0,-0.89063 0.53125,-1.4375 0.51563,-0.5625 1.35937,-0.5625 0.39063,0 0.75,0.15625 0.34375,0.15625 0.60938,0.4375 0.26562,0.26562 0.42187,0.64062 0.14063,0.35938 0.14063,0.79688 0,0.89062 -0.51563,1.4375 -0.53125,0.54687 -1.375,0.54687 -0.40625,0 -0.75,-0.14062 -0.35937,-0.15625 -0.60937,-0.42188 Q 127.14063,173.10937 127,172.75 q -0.15625,-0.375 -0.15625,-0.8125 z m 26.375,7.0625 h -3.28125 v 21 h -2.54688 v -13.71875 h -5.07812 q -1.04688,0 -1.89063,0.14062 -0.84375,0.125 -1.4375,0.53125 -0.59375,0.39063 -0.92187,1.10938 -0.3125,0.70312 -0.3125,1.85937 0,1.5 0.48437,2.76563 0.5,1.26562 1.26563,2.32812 0.76562,1.04688 1.6875,1.9375 0.9375,0.89063 1.79687,1.64063 l -1.5625,1.78125 q -0.14062,-0.0781 -0.67187,-0.45313 -0.51563,-0.39062 -1.21875,-1.04687 -0.6875,-0.65625 -1.46875,-1.59375 -0.76563,-0.9375 -1.42188,-2.10938 -0.64062,-1.1875 -1.07812,-2.60937 -0.42188,-1.42188 -0.42188,-3.0625 0,-1.625 0.45313,-2.6875 0.46875,-1.07813 1.3125,-1.70313 0.84375,-0.64062 2.04687,-0.89062 1.20313,-0.25 2.6875,-0.25 h 5.75 V 179 h -14.84375 v -2.29688 h 20.67188 z m 4.39062,17.4375 -2.5,7.6875 h -1.82812 l 1.82812,-7.6875 z m 14.40625,-10.25 q 0.23438,0.73437 0.54688,1.60937 0.3125,0.85938 0.73437,1.75 0.4375,0.875 0.96875,1.70313 0.54688,0.82812 1.23438,1.46875 0.70312,0.64062 1.54687,1.03125 0.84375,0.375 1.875,0.375 1.01563,0 1.71875,-0.29688 0.70313,-0.29687 1.14063,-0.79687 0.4375,-0.5 0.625,-1.17188 0.20312,-0.67187 0.20312,-1.40625 0,-1.60937 -1.17187,-2.51562 -1.15625,-0.90625 -3.35938,-0.90625 -0.26562,0 -0.53125,0.0156 -0.26562,0.0156 -0.53125,0.0469 v -2.375 q 0.125,0.0156 0.21875,0.0156 0.10938,0 0.125,0 1.09375,0 1.9375,-0.26562 0.85938,-0.28125 1.4375,-0.75 0.57813,-0.46875 0.875,-1.09375 0.29688,-0.625 0.29688,-1.3125 0,-0.625 -0.21875,-1.10938 -0.21875,-0.48437 -0.59375,-0.8125 -0.375,-0.32812 -0.89063,-0.48437 -0.51562,-0.17188 -1.125,-0.17188 -0.42187,0 -0.8125,0.0625 -0.39062,0.0469 -0.82812,0.17188 -0.4375,0.10937 -0.9375,0.29687 -0.48438,0.1875 -1.10938,0.46875 L 174.5,177.59375 q 1.21875,-0.59375 2.34375,-0.89063 1.125,-0.3125 2.29687,-0.3125 1.125,0 2.07813,0.35938 0.96875,0.35937 1.65625,1 0.70312,0.625 1.09375,1.5 0.39062,0.875 0.39062,1.89062 0,2.79688 -2.67187,4.5 v 0.0625 q 1.04687,0.4375 1.75,1.07813 0.45312,0.0781 0.95312,0.125 0.51563,0.0469 0.9375,0.0469 0.4375,0 0.92188,-0.0625 0.48437,-0.0625 0.98437,-0.23437 0.51563,-0.17188 1.03125,-0.48438 0.53125,-0.3125 1.0625,-0.8125 v -8.65625 h 5.84375 V 179 h -3.28125 v 21 h -2.5625 v -11.875 l -0.0625,-0.0156 q -0.89062,0.59375 -1.67187,0.78125 -0.78125,0.1875 -1.60938,0.1875 -0.26562,0 -0.54687,-0.0156 -0.28125,-0.0312 -0.57813,-0.0625 l -0.0156,0.0625 q 0.25,0.64062 0.25,1.57812 0,1.26563 -0.42188,2.34375 -0.42187,1.07813 -1.21875,1.875 -0.78125,0.78125 -1.90625,1.21875 -1.10937,0.4375 -2.5,0.4375 -1.48437,0 -2.6875,-0.51562 -1.1875,-0.53125 -2.15625,-1.35938 -0.95312,-0.82812 -1.67187,-1.85937 -0.71875,-1.04688 -1.23438,-2.09375 -0.51562,-1.04688 -0.84375,-1.98438 Q 170.125,187.75 169.96875,187.125 Z M 203.48437,179 h -3.28125 v 21 h -2.5625 v -21 h -3.5625 v -2.29688 h 9.40625 z m 12.4375,7.28125 h -3.76562 q -1.04688,0 -1.89063,0.14062 -0.84375,0.125 -1.4375,0.53125 -0.59375,0.39063 -0.92187,1.10938 -0.3125,0.70312 -0.3125,1.85937 0,1.5 0.48437,2.76563 0.5,1.26562 1.26563,2.32812 0.76562,1.04688 1.6875,1.9375 0.9375,0.89063 1.79687,1.64063 l -1.5625,1.78125 q -0.14062,-0.0781 -0.67187,-0.45313 -0.51563,-0.39062 -1.21875,-1.04687 -0.6875,-0.65625 -1.46875,-1.59375 -0.76563,-0.9375 -1.42188,-2.10938 -0.64062,-1.1875 -1.07812,-2.60937 -0.42188,-1.42188 -0.42188,-3.0625 0,-1.625 0.45313,-2.6875 0.46875,-1.07813 1.3125,-1.70313 0.84375,-0.64062 2.04687,-0.89062 1.20313,-0.25 2.6875,-0.25 h 4.4375 z M 216.23437,179 h -13.84375 v -2.29688 h 13.84375 z m 16.60938,0 h -3.28125 v 21 H 227 v -8.76563 h -8.59375 v 1.85938 q 0,0.48437 -0.0469,0.85937 -0.0312,0.375 -0.17187,0.625 -0.125,0.25 -0.375,0.39063 -0.23438,0.125 -0.64063,0.125 -0.40625,0 -0.90625,-0.23438 -0.5,-0.25 -1.01562,-0.65625 -0.51563,-0.42187 -1,-0.9375 -0.48438,-0.53125 -0.875,-1.09375 -0.375,-0.57812 -0.60938,-1.14062 -0.23437,-0.5625 -0.23437,-1.03125 0,-0.32813 0.10937,-0.53125 0.125,-0.21875 0.32813,-0.32813 0.21875,-0.10937 0.51562,-0.14062 0.29688,-0.0469 0.67188,-0.0469 h 1.6875 V 179 h -5.64063 v -2.29688 h 22.64063 z m -14.4375,0 v 9.95312 H 227 V 179 Z m 22.75,0 H 237.875 v 21 h -2.5625 V 179 H 231.75 v -2.29688 h 9.40625 z m 28.03125,0 h -3.28125 v 21 h -2.57813 v -6.96875 l -0.0625,-0.0156 -9.53125,7.17188 -1.60937,-1.95313 5.54687,-3.98437 -0.0156,-0.0625 q -1.20313,-0.0937 -2.1875,-0.53125 -0.98438,-0.4375 -1.6875,-1.23438 -0.70313,-0.79687 -1.09375,-1.96875 -0.375,-1.17187 -0.375,-2.73437 V 179 h -3.48438 v -2.29688 h 20.35938 z m -5.85938,0 h -8.48437 v 8.57812 q 0,0.98438 0.15625,1.76563 0.17187,0.78125 0.5625,1.32812 0.40625,0.54688 1.0625,0.84375 0.65625,0.28125 1.64062,0.28125 1.60938,0 2.90625,-0.70312 1.29688,-0.71875 2.15625,-1.89063 z m 28.90625,-2.29688 V 179 h -3.28125 v 21 h -2.59375 v -10.5 h -9.04687 q -0.82813,0.54687 -1.98438,0.65625 l -0.0312,0.0781 q 1.51563,2.375 3.32813,4.42188 1.8125,2.04687 4.125,3.79687 l -1.67188,1.92188 q -1.32812,-0.98438 -2.53125,-2.125 -1.1875,-1.14063 -2.25,-2.35938 -1.04687,-1.23437 -1.96875,-2.48437 -0.92187,-1.26563 -1.6875,-2.48438 -0.76562,-1.21875 -1.375,-2.34375 -0.60937,-1.14062 -1.0625,-2.10937 l 2.14063,-1.15625 q 0.29687,0.6875 0.57812,1.15625 0.29688,0.45312 0.59375,0.73437 0.29688,0.26563 0.625,0.39063 0.32813,0.10937 0.70313,0.10937 1.07812,0 1.57812,-0.84375 0.51563,-0.84375 0.51563,-2.21875 0,-0.8125 -0.15625,-1.59375 -0.15625,-0.79687 -0.40625,-1.51562 -0.23438,-0.73438 -0.51563,-1.375 -0.28125,-0.64063 -0.53125,-1.15625 h -7.23437 v -2.29688 z M 286.35937,179 h -8.32812 q 0.65625,1.42187 1.03125,2.85937 0.375,1.4375 0.375,2.85938 0,0.65625 -0.10938,1.29687 -0.0937,0.625 -0.32812,1.1875 l 0.0312,0.0312 h 7.32812 z m 25.84375,0 h -3.28125 v 21 h -2.5625 v -9.04688 l -0.0469,-0.0156 -6.90625,4.82812 q 0.17187,0.35938 0.35937,0.78125 0.1875,0.42188 0.32813,0.84375 0.15625,0.42188 0.25,0.82813 0.10937,0.39062 0.10937,0.71875 0,0.48437 -0.28125,0.79687 -0.28125,0.3125 -1.04687,0.3125 -0.78125,0 -1.53125,-0.32812 -0.73438,-0.32813 -1.3125,-0.8125 -0.5625,-0.48438 -0.90625,-1.03125 -0.34375,-0.54688 -0.34375,-0.98438 0,-0.25 0.125,-0.5 0.125,-0.25 0.32812,-0.48437 0.20313,-0.23438 0.45313,-0.4375 0.25,-0.20313 0.5,-0.39063 l 8.59375,-6.10937 q -1.65625,-1.57813 -3.4375,-2.54688 -1.76563,-0.96875 -3.60938,-1.4375 -0.0156,0.98438 -0.0625,1.67188 -0.0312,0.6875 -0.15625,1.125 -0.10937,0.4375 -0.34375,0.64062 -0.23437,0.20313 -0.625,0.20313 -0.45312,0 -0.875,-0.23438 -0.42187,-0.25 -0.79687,-0.625 -0.375,-0.39062 -0.6875,-0.875 -0.3125,-0.5 -0.53125,-1 -0.21875,-0.51562 -0.34375,-0.98437 -0.125,-0.46875 -0.125,-0.82813 0,-0.34375 0.125,-0.625 0.14062,-0.29687 0.46875,-0.5 0.32812,-0.20312 0.85937,-0.3125 0.53125,-0.125 1.32813,-0.125 1.5625,0 2.98437,0.42188 1.4375,0.42187 2.70313,1.10937 1.28125,0.6875 2.375,1.57813 1.10937,0.875 2.03125,1.79687 l 0.0469,-0.0156 V 179 h -15.21875 v -2.29688 h 21.0625 z m 4.39063,17.4375 -2.5,7.6875 h -1.82813 l 1.82813,-7.6875 z"
         id="path6" />
      <path
         d="m 74.5,229 h -3.28125 v 21 h -2.5625 V 236.4375 H 63.625 l -0.01563,0.0625 q 0.1875,0.21875 0.5625,0.67187 0.375,0.4375 0.75,1.09375 0.375,0.64063 0.65625,1.46875 0.28125,0.8125 0.28125,1.76563 0,0.95312 -0.328125,1.89062 -0.3125,0.92188 -0.953125,1.67188 -0.625,0.73437 -1.59375,1.1875 -0.96875,0.45312 -2.25,0.45312 -1.265625,0 -2.328125,-0.4375 -1.046875,-0.45312 -1.921875,-1.20312 -0.859375,-0.75 -1.546875,-1.73438 -0.6875,-0.98437 -1.234375,-2.07812 -0.53125,-1.10938 -0.9375,-2.23438 Q 52.375,237.875 52.09375,236.84375 51.8125,235.79687 51.640625,234.92187 51.46875,234.04687 51.375,233.46875 l 2.3125,-0.45313 q 0.515625,2.8125 1.25,4.9375 0.75,2.10938 1.65625,3.53125 0.90625,1.42188 1.953125,2.14063 1.046875,0.70312 2.1875,0.70312 0.8125,0 1.3125,-0.3125 0.5,-0.32812 0.78125,-0.78125 0.28125,-0.46875 0.375,-0.95312 0.109375,-0.5 0.109375,-0.85938 0,-0.64062 -0.265625,-1.35937 -0.25,-0.73438 -0.75,-1.45313 -0.484375,-0.73437 -1.21875,-1.40625 -0.734375,-0.67187 -1.6875,-1.21875 v -1.82812 H 68.65625 V 229 H 49.453125 v -2.29688 H 74.5 Z m 8.3125,0 h -3.28125 v 21 h -2.5625 v -21 h -3.5625 v -2.29688 h 3.8125 Q 76.9375,225.10937 76.5,223.98437 q -0.4375,-1.14062 -0.953125,-1.89062 -0.515625,-0.76563 -1.078125,-1.20313 -0.5625,-0.4375 -1.078125,-0.65625 -0.53125,-0.21875 -0.984375,-0.28125 -0.46875,-0.0625 -0.765625,-0.0625 -0.96875,0 -1.546875,0.3125 Q 69.5,220.5 69.1875,220.92187 q -0.3125,0.42188 -0.40625,0.89063 -0.109375,0.45312 -0.109375,0.78125 0,0.125 0.04687,0.51562 0.03125,0.375 0.25,0.95313 0.203125,0.57812 0.640625,1.29687 0.4375,0.71875 1.234375,1.51563 H 68.1875 q -0.984375,-1.125 -1.46875,-2.32813 -0.5,-1.21875 -0.5,-2.35937 0,-0.95313 0.34375,-1.8125 0.34375,-0.85938 1.03125,-1.48438 0.6875,-0.64062 1.71875,-1.01562 1.03125,-0.375 2.390625,-0.375 1.875,0 3.234375,0.73437 1.359375,0.71875 2.28125,1.96875 0.9375,1.25 1.46875,2.9375 0.546875,1.67188 0.765625,3.5625 H 82.8125 Z m 18.8125,0 h -3.28125 v 21 h -2.5625 v -5.57813 l -0.0625,-0.0156 q -0.3125,0.29687 -0.734375,0.625 -0.421875,0.3125 -0.96875,0.57812 -0.546875,0.25 -1.234375,0.42188 -0.671875,0.17187 -1.515625,0.17187 -1.546875,0 -2.828125,-0.59375 -1.265625,-0.59375 -2.1875,-1.57812 -0.921875,-1 -1.4375,-2.28125 -0.5,-1.29688 -0.5,-2.70313 0,-1.40625 0.5,-2.60937 0.515625,-1.21875 1.40625,-2.10938 0.890625,-0.89062 2.078125,-1.39062 1.1875,-0.51563 2.546875,-0.51563 0.375,0 0.9375,0.0625 0.578125,0.0625 1.234375,0.28125 0.65625,0.21875 1.359375,0.64063 0.703125,0.40625 1.34375,1.10937 L 95.78125,234.5 V 229 h -14.0625 v -2.29688 H 101.625 Z m -5.78125,8.42187 q -0.984375,-1.1875 -2.140625,-1.90625 -1.15625,-0.73437 -2.625,-0.73437 -1.15625,0 -1.96875,0.4375 -0.796875,0.4375 -1.3125,1.10937 -0.515625,0.65625 -0.75,1.46875 -0.234375,0.8125 -0.234375,1.5625 0,0.8125 0.265625,1.60938 0.265625,0.79687 0.78125,1.4375 0.53125,0.625 1.3125,1.03125 0.78125,0.39062 1.828125,0.39062 1.078125,0 1.96875,-0.40625 Q 93.859375,243 94.5,242.35937 q 0.640625,-0.64062 0.984375,-1.4375 Q 95.84375,240.125 95.84375,239.375 Z M 121.0625,229 h -3.28125 v 21 h -2.57812 v -12.04688 h -7.3125 q 0,1.03125 -0.0312,1.76563 -0.0156,0.73437 -0.125,1.21875 -0.10938,0.46875 -0.32813,0.6875 -0.21875,0.21875 -0.60937,0.21875 -0.8125,0 -1.54688,-0.53125 -0.71875,-0.53125 -1.28125,-1.28125 -0.54687,-0.75 -0.875,-1.5625 -0.32812,-0.8125 -0.32812,-1.375 0,-0.5 0.21875,-0.78125 0.21875,-0.28125 0.57812,-0.42188 0.35938,-0.14062 0.8125,-0.17187 0.46875,-0.0312 0.9375,-0.0312 h 9.89063 V 229 h -14.67188 v -2.29688 h 20.53125 z m 8.3125,0 h -3.28125 v 21 h -2.5625 v -21 h -3.5625 v -2.29688 h 9.40625 z m 21.64062,0 h -3.28125 v 21 h -2.59375 v -6.57813 l -0.0625,-0.0469 q -0.85937,0.78125 -1.6875,1.23437 -0.8125,0.4375 -1.53125,0.67188 -0.70312,0.21875 -1.28125,0.28125 -0.57812,0.0625 -0.95312,0.0625 -1.4375,0 -2.54688,-0.45313 -1.10937,-0.45312 -1.85937,-1.1875 -0.75,-0.75 -1.14063,-1.70312 -0.39062,-0.96875 -0.39062,-2 0,-1.07813 0.4375,-2.14063 0.45312,-1.0625 1.40625,-1.90625 l -0.0156,-0.0625 H 130.5625 V 233.875 h 12.5625 v 2.29687 h -1.60938 q -1.60937,0 -2.64062,0.42188 -1.03125,0.42187 -1.625,1.03125 -0.59375,0.60937 -0.82813,1.3125 -0.21875,0.6875 -0.21875,1.25 0,0.46875 0.15625,1.01562 0.15625,0.53125 0.51563,0.98438 0.375,0.45312 0.98437,0.75 0.625,0.29687 1.5625,0.29687 0.98438,0 1.82813,-0.3125 0.85937,-0.32812 1.57812,-0.84375 0.71875,-0.51562 1.29688,-1.15625 0.59375,-0.65625 1.01562,-1.29687 V 229 h -16.85937 v -2.29688 h 22.73437 z m 8.3125,0 h -3.28125 v 21 h -2.5625 v -21 h -3.5625 v -2.29688 h 9.40625 z m 11.85938,7.1875 q 0.23437,0.73437 0.54687,1.60937 0.3125,0.85938 0.73438,1.75 0.4375,0.875 0.96875,1.70313 0.54687,0.82812 1.23437,1.46875 0.70313,0.64062 1.54688,1.03125 0.84375,0.375 1.875,0.375 1.01562,0 1.71875,-0.29688 0.70312,-0.29687 1.14062,-0.79687 0.4375,-0.5 0.625,-1.17188 0.20313,-0.67187 0.20313,-1.40625 0,-1.60937 -1.17188,-2.51562 -1.15625,-0.90625 -3.35937,-0.90625 -0.26563,0 -0.53125,0.0156 -0.26563,0.0156 -0.53125,0.0469 v -2.375 q 0.125,0.0156 0.21875,0.0156 0.10937,0 0.125,0 1.09375,0 1.9375,-0.26562 0.85937,-0.28125 1.4375,-0.75 0.57812,-0.46875 0.875,-1.09375 0.29687,-0.625 0.29687,-1.3125 0,-0.625 -0.21875,-1.10938 -0.21875,-0.48437 -0.59375,-0.8125 -0.375,-0.32812 -0.89062,-0.48437 -0.51563,-0.17188 -1.125,-0.17188 -0.42188,0 -0.8125,0.0625 -0.39063,0.0469 -0.82813,0.17188 -0.4375,0.10937 -0.9375,0.29687 -0.48437,0.1875 -1.10937,0.46875 l -0.89063,-2.14062 q 1.21875,-0.59375 2.34375,-0.89063 1.125,-0.3125 2.29688,-0.3125 1.125,0 2.07812,0.35938 0.96875,0.35937 1.65625,1 0.70313,0.625 1.09375,1.5 0.39063,0.875 0.39063,1.89062 0,2.79688 -2.67188,4.5 v 0.0625 q 1.04688,0.4375 1.75,1.07813 0.45313,0.0781 0.95313,0.125 0.51562,0.0469 0.9375,0.0469 0.4375,0 0.92187,-0.0625 0.48438,-0.0625 0.98438,-0.23437 0.51562,-0.17188 1.03125,-0.48438 0.53125,-0.3125 1.0625,-0.8125 v -8.65625 h 5.84375 V 229 h -3.28125 v 21 H 188.5 v -11.875 l -0.0625,-0.0156 q -0.89063,0.59375 -1.67188,0.78125 -0.78125,0.1875 -1.60937,0.1875 -0.26563,0 -0.54688,-0.0156 -0.28125,-0.0312 -0.57812,-0.0625 l -0.0156,0.0625 q 0.25,0.64062 0.25,1.57812 0,1.26563 -0.42187,2.34375 -0.42188,1.07813 -1.21875,1.875 -0.78125,0.78125 -1.90625,1.21875 -1.10938,0.4375 -2.5,0.4375 -1.48438,0 -2.6875,-0.51562 -1.1875,-0.53125 -2.15625,-1.35938 -0.95313,-0.82812 -1.67188,-1.85937 -0.71875,-1.04688 -1.23437,-2.09375 -0.51563,-1.04688 -0.84375,-1.98438 -0.32813,-0.95312 -0.48438,-1.57812 z M 202.65625,229 H 199.375 v 21 h -2.5625 V 229 H 193.25 v -2.29688 h 9.40625 z m 19.4375,0 h -3.28125 v 21 h -2.57813 v -12.04688 h -7.3125 q 0,1.03125 -0.0312,1.76563 -0.0156,0.73437 -0.125,1.21875 -0.10937,0.46875 -0.32812,0.6875 -0.21875,0.21875 -0.60938,0.21875 -0.8125,0 -1.54687,-0.53125 -0.71875,-0.53125 -1.28125,-1.28125 -0.54688,-0.75 -0.875,-1.5625 -0.32813,-0.8125 -0.32813,-1.375 0,-0.5 0.21875,-0.78125 0.21875,-0.28125 0.57813,-0.42188 0.35937,-0.14062 0.8125,-0.17187 0.46875,-0.0312 0.9375,-0.0312 h 9.89062 V 229 H 201.5625 v -2.29688 h 20.53125 z m -6.48438,-7.0625 q 0,-0.89063 0.53125,-1.4375 0.51563,-0.5625 1.35938,-0.5625 0.39062,0 0.75,0.15625 0.34375,0.15625 0.60937,0.4375 0.26563,0.26562 0.42188,0.64062 0.14062,0.35938 0.14062,0.79688 0,0.89062 -0.51562,1.4375 -0.53125,0.54687 -1.375,0.54687 -0.40625,0 -0.75,-0.14062 -0.35938,-0.15625 -0.60938,-0.42188 -0.26562,-0.28125 -0.40625,-0.64062 -0.15625,-0.375 -0.15625,-0.8125 z M 242.01562,229 h -5.29687 v 6.85937 h -5.26563 q -2.45312,0 -3.70312,1.21875 -1.25,1.20313 -1.25,3.46875 0,1.28125 0.40625,2.26563 0.42187,0.98437 1.14062,1.65625 0.73438,0.65625 1.73438,1 1,0.34375 2.17187,0.34375 1.23438,0 1.98438,-0.375 -0.0625,-0.39063 -0.0937,-0.6875 -0.0312,-0.29688 -0.0312,-0.59375 0,-0.65625 0.15625,-1.34375 0.17187,-0.70313 0.5,-1.26563 0.34375,-0.57812 0.85937,-0.9375 0.53125,-0.35937 1.26563,-0.35937 0.45312,0 0.85937,0.15625 0.40625,0.15625 0.70313,0.48437 0.3125,0.3125 0.48437,0.79688 0.1875,0.48437 0.1875,1.125 0,0.64062 -0.17187,1.1875 -0.17188,0.53125 -0.45313,1 -0.26562,0.45312 -0.60937,0.85937 -0.34375,0.39063 -0.67188,0.71875 0.34375,0.75 0.71875,1.34375 0.39063,0.59375 0.79688,1.0625 0.42187,0.46875 0.84375,0.84375 0.42187,0.375 0.84375,0.70313 l -1.92188,2.01562 q -0.82812,-0.73437 -1.42187,-1.46875 -0.57813,-0.71875 -0.98438,-1.35937 -0.39062,-0.64063 -0.64062,-1.15625 -0.25,-0.51563 -0.40625,-0.82813 -1.07813,0.42188 -2.65625,0.42188 -2.03125,0 -3.54688,-0.65625 -1.51562,-0.67188 -2.53125,-1.78125 -1,-1.125 -1.5,-2.5625 -0.5,-1.4375 -0.5,-2.98438 0,-1.60937 0.51563,-2.82812 0.51562,-1.23438 1.4375,-2.0625 0.92187,-0.84375 2.1875,-1.26563 1.28125,-0.4375 2.79687,-0.4375 h 3.20313 V 229 H 221 v -2.29688 h 21.01562 z m 11.85938,7.1875 q 0.23437,0.73437 0.54687,1.60937 0.3125,0.85938 0.73438,1.75 0.4375,0.875 0.96875,1.70313 0.54687,0.82812 1.23437,1.46875 0.70313,0.64062 1.54688,1.03125 0.84375,0.375 1.875,0.375 1.01562,0 1.71875,-0.29688 0.70312,-0.29687 1.14062,-0.79687 0.4375,-0.5 0.625,-1.17188 0.20313,-0.67187 0.20313,-1.40625 0,-1.60937 -1.17188,-2.51562 -1.15625,-0.90625 -3.35937,-0.90625 -0.26563,0 -0.53125,0.0156 -0.26563,0.0156 -0.53125,0.0469 v -2.375 q 0.125,0.0156 0.21875,0.0156 0.10937,0 0.125,0 1.09375,0 1.9375,-0.26562 0.85937,-0.28125 1.4375,-0.75 0.57812,-0.46875 0.875,-1.09375 0.29687,-0.625 0.29687,-1.3125 0,-0.625 -0.21875,-1.10938 -0.21875,-0.48437 -0.59375,-0.8125 -0.375,-0.32812 -0.89062,-0.48437 -0.51563,-0.17188 -1.125,-0.17188 -0.42188,0 -0.8125,0.0625 -0.39063,0.0469 -0.82813,0.17188 -0.4375,0.10937 -0.9375,0.29687 -0.48437,0.1875 -1.10937,0.46875 l -0.89063,-2.14062 q 1.21875,-0.59375 2.34375,-0.89063 1.125,-0.3125 2.29688,-0.3125 1.125,0 2.07812,0.35938 0.96875,0.35937 1.65625,1 0.70313,0.625 1.09375,1.5 0.39063,0.875 0.39063,1.89062 0,2.79688 -2.67188,4.5 v 0.0625 q 1.04688,0.4375 1.75,1.07813 0.45313,0.0781 0.95313,0.125 0.51562,0.0469 0.9375,0.0469 0.4375,0 0.92187,-0.0625 0.48438,-0.0625 0.98438,-0.23437 0.51562,-0.17188 1.03125,-0.48438 0.53125,-0.3125 1.0625,-0.8125 v -8.65625 h 5.84375 V 229 H 273.75 v 21 h -2.5625 v -11.875 l -0.0625,-0.0156 q -0.89063,0.59375 -1.67188,0.78125 -0.78125,0.1875 -1.60937,0.1875 -0.26563,0 -0.54688,-0.0156 -0.28125,-0.0312 -0.57812,-0.0625 l -0.0156,0.0625 q 0.25,0.64062 0.25,1.57812 0,1.26563 -0.42187,2.34375 -0.42188,1.07813 -1.21875,1.875 -0.78125,0.78125 -1.90625,1.21875 -1.10938,0.4375 -2.5,0.4375 -1.48438,0 -2.6875,-0.51562 -1.1875,-0.53125 -2.15625,-1.35938 -0.95313,-0.82812 -1.67188,-1.85937 -0.71875,-1.04688 -1.23437,-2.09375 -0.51563,-1.04688 -0.84375,-1.98438 -0.32813,-0.95312 -0.48438,-1.57812 z M 296.29687,229 h -3.28125 v 21 h -2.57812 v -7.46875 l -0.0625,-0.0156 q -1.04688,0.9375 -2.34375,1.34375 -1.29688,0.39063 -2.5625,0.39063 -1.34375,0 -2.45313,-0.39063 -1.10937,-0.39062 -1.90625,-1.1875 -0.79687,-0.8125 -1.25,-2.03125 -0.4375,-1.23437 -0.4375,-2.92187 V 229 h -3.48437 v -2.29688 h 20.35937 z m -5.85937,0 h -8.48438 v 8.57812 q 0,0.98438 0.15625,1.76563 0.17188,0.78125 0.5625,1.32812 0.40625,0.54688 1.0625,0.84375 0.65625,0.28125 1.64063,0.28125 1.60937,0 2.90625,-0.75 1.29687,-0.76562 2.15625,-2 z m 21.5,0 h -5.89063 q 0.79688,1.375 1.28125,2.8125 0.5,1.42187 0.5,2.89062 0,1.10938 -0.34375,2.14063 -0.32812,1.01562 -0.98437,1.82812 -0.64063,0.79688 -1.60938,1.3125 -0.95312,0.5 -2.20312,0.5625 l -0.0312,0.0781 q 1.40625,2.1875 3.15625,4.14062 1.75,1.9375 4.04687,3.6875 l -1.67187,1.92188 q -1.32813,-0.98438 -2.53125,-2.125 -1.1875,-1.15625 -2.25,-2.375 -1.0625,-1.23438 -1.98438,-2.48438 -0.90625,-1.26562 -1.67187,-2.45312 -0.75,-1.20313 -1.34375,-2.29688 -0.59375,-1.10937 -1.01563,-2.01562 l 2.14063,-1.15625 q 0.5625,1.21875 1.26562,1.92187 0.71875,0.6875 1.65625,0.6875 0.67188,0 1.20313,-0.34375 0.53125,-0.34375 0.89062,-0.875 0.35938,-0.54687 0.54688,-1.1875 0.1875,-0.65625 0.1875,-1.28125 0,-0.73437 -0.1875,-1.4375 -0.1875,-0.71875 -0.48438,-1.39062 -0.29687,-0.6875 -0.67187,-1.32813 -0.35938,-0.64062 -0.70313,-1.23437 h -8.03125 v -2.29688 h 16.73438 z m 15.09375,12.23437 h -7.98438 v 1.85938 q 0,0.48437 -0.0469,0.85937 -0.0312,0.375 -0.17188,0.625 -0.125,0.25 -0.375,0.39063 -0.23437,0.125 -0.64062,0.125 -0.40625,0 -0.90625,-0.23438 -0.5,-0.25 -1.01563,-0.65625 -0.51562,-0.42187 -1,-0.9375 -0.48437,-0.53125 -0.875,-1.09375 -0.375,-0.57812 -0.60937,-1.14062 -0.23438,-0.5625 -0.23438,-1.03125 0,-0.32813 0.10938,-0.53125 0.125,-0.21875 0.32812,-0.32813 0.21875,-0.10937 0.51563,-0.14062 0.29687,-0.0469 0.67187,-0.0469 h 1.6875 V 229 h -5.64062 v -2.29688 h 14.875 V 229 h -6.67188 v 9.95312 h 7.98438 z M 343.14062,229 h -3.28125 v 21 h -2.57812 v -7.46875 l -0.0625,-0.0156 q -1.04688,0.9375 -2.34375,1.34375 -1.29688,0.39063 -2.5625,0.39063 -1.34375,0 -2.45313,-0.39063 -1.10937,-0.39062 -1.90625,-1.1875 -0.79687,-0.8125 -1.25,-2.03125 -0.4375,-1.23437 -0.4375,-2.92187 V 229 h -3.48437 v -2.29688 h 20.35937 z m -5.85937,0 h -8.48438 v 8.57812 q 0,0.98438 0.15625,1.76563 0.17188,0.78125 0.5625,1.32812 0.40625,0.54688 1.0625,0.84375 0.65625,0.28125 1.64063,0.28125 1.60937,0 2.90625,-0.75 1.29687,-0.76562 2.15625,-2 z m 14.17187,0 h -3.28125 v 21 h -2.5625 v -21 h -3.5625 v -2.29688 h 9.40625 z m 15.64063,0 h -5.89063 q 0.79688,1.375 1.28125,2.8125 0.5,1.42187 0.5,2.89062 0,1.10938 -0.34375,2.14063 -0.32812,1.01562 -0.98437,1.82812 -0.64063,0.79688 -1.60938,1.3125 -0.95312,0.5 -2.20312,0.5625 l -0.0312,0.0781 q 1.40625,2.1875 3.15625,4.14062 1.75,1.9375 4.04687,3.6875 l -1.67187,1.92188 q -1.32813,-0.98438 -2.53125,-2.125 -1.1875,-1.15625 -2.25,-2.375 -1.0625,-1.23438 -1.98438,-2.48438 -0.90625,-1.26562 -1.67187,-2.45312 -0.75,-1.20313 -1.34375,-2.29688 -0.59375,-1.10937 -1.01563,-2.01562 l 2.14063,-1.15625 q 0.5625,1.21875 1.26562,1.92187 0.71875,0.6875 1.65625,0.6875 0.67188,0 1.20313,-0.34375 0.53125,-0.34375 0.89062,-0.875 0.35938,-0.54687 0.54688,-1.1875 0.1875,-0.65625 0.1875,-1.28125 0,-0.73437 -0.1875,-1.4375 -0.1875,-0.71875 -0.48438,-1.39062 -0.29687,-0.6875 -0.67187,-1.32813 -0.35938,-0.64062 -0.70313,-1.23437 h -8.03125 v -2.29688 h 16.73438 z m 28.03125,0 h -3.28125 v 21 h -2.57813 v -7.46875 l -0.0625,-0.0156 q -1.04687,0.9375 -2.34375,1.34375 -1.29687,0.39063 -2.5625,0.39063 -1.34375,0 -2.45312,-0.39063 -1.10938,-0.39062 -1.90625,-1.1875 -0.79688,-0.8125 -1.25,-2.03125 -0.4375,-1.23437 -0.4375,-2.92187 V 229 h -3.48438 v -2.29688 H 395.125 Z m -5.85938,0 h -8.48437 v 8.57812 q 0,0.98438 0.15625,1.76563 0.17187,0.78125 0.5625,1.32812 0.40625,0.54688 1.0625,0.84375 0.65625,0.28125 1.64062,0.28125 1.60938,0 2.90625,-0.75 1.29688,-0.76562 2.15625,-2 z m 14.17188,0 h -3.28125 v 21 h -2.5625 v -21 h -3.5625 v -2.29688 h 9.40625 z m 18.8125,0 h -3.28125 v 21 h -2.5625 v -5.57813 l -0.0625,-0.0156 q -0.3125,0.29687 -0.73438,0.625 -0.42187,0.3125 -0.96875,0.57812 -0.54687,0.25 -1.23437,0.42188 -0.67188,0.17187 -1.51563,0.17187 -1.54687,0 -2.82812,-0.59375 -1.26563,-0.59375 -2.1875,-1.57812 -0.92188,-1 -1.4375,-2.28125 -0.5,-1.29688 -0.5,-2.70313 0,-1.40625 0.5,-2.60937 0.51562,-1.21875 1.40625,-2.10938 0.89062,-0.89062 2.07812,-1.39062 1.1875,-0.51563 2.54688,-0.51563 0.375,0 0.9375,0.0625 0.57812,0.0625 1.23437,0.28125 0.65625,0.21875 1.35938,0.64063 0.70312,0.40625 1.34375,1.10937 l 0.0625,-0.0156 V 229 h -14.0625 v -2.29688 H 422.25 Z m -5.78125,8.42187 q -0.98438,-1.1875 -2.14063,-1.90625 -1.15625,-0.73437 -2.625,-0.73437 -1.15625,0 -1.96875,0.4375 -0.79687,0.4375 -1.3125,1.10937 -0.51562,0.65625 -0.75,1.46875 -0.23437,0.8125 -0.23437,1.5625 0,0.8125 0.26562,1.60938 0.26563,0.79687 0.78125,1.4375 0.53125,0.625 1.3125,1.03125 0.78125,0.39062 1.82813,0.39062 1.07812,0 1.96875,-0.40625 0.89062,-0.42187 1.53125,-1.0625 0.64062,-0.64062 0.98437,-1.4375 0.35938,-0.79687 0.35938,-1.54687 z M 425.375,258 q -0.79688,-1.3125 -1.64063,-2.5 -0.84375,-1.17188 -1.79687,-2.04688 -0.95313,-0.875 -2.04688,-1.39062 -1.10937,-0.51563 -2.42187,-0.51563 -0.79688,0 -1.40625,0.1875 -0.625,0.1875 -1.04688,0.5 -0.42187,0.3125 -0.64062,0.71875 -0.21875,0.42188 -0.21875,0.85938 0,0.84375 0.6875,1.34375 0.67187,0.5 1.84375,0.5 1.09375,0 2.26562,-0.4375 l 0.54688,2.25 q -0.67188,0.26562 -1.35938,0.39062 Q 417.4375,258 416.76562,258 q -1,0 -1.89062,-0.28125 -0.90625,-0.28125 -1.57813,-0.82813 -0.6875,-0.53125 -1.07812,-1.34375 -0.40625,-0.79687 -0.40625,-1.82812 0,-1.14063 0.48437,-2 0.46875,-0.84375 1.25,-1.40625 0.78125,-0.54688 1.78125,-0.8125 1,-0.28125 2.03125,-0.28125 1.32813,0 2.5,0.40625 1.15625,0.40625 2.15625,1.0625 1,0.67187 1.82813,1.5 0.82812,0.84375 1.48437,1.70312 Q 426,254.75 426.5,255.5625 q 0.51562,0.8125 0.85937,1.42187 z m 16.3125,-29 h -3.28125 v 21 h -2.57813 v -12.04688 h -7.3125 q 0,1.03125 -0.0312,1.76563 -0.0156,0.73437 -0.125,1.21875 -0.10937,0.46875 -0.32812,0.6875 -0.21875,0.21875 -0.60938,0.21875 -0.8125,0 -1.54687,-0.53125 -0.71875,-0.53125 -1.28125,-1.28125 -0.54688,-0.75 -0.875,-1.5625 -0.32813,-0.8125 -0.32813,-1.375 0,-0.5 0.21875,-0.78125 0.21875,-0.28125 0.57813,-0.42188 0.35937,-0.14062 0.8125,-0.17187 0.46875,-0.0312 0.9375,-0.0312 h 9.89062 V 229 h -14.67187 v -2.29688 H 441.6875 Z M 450,229 h -3.28125 v 21 h -2.5625 v -21 h -3.5625 v -2.29688 h 3.8125 q -0.28125,-1.59375 -0.71875,-2.71875 -0.4375,-1.14062 -0.95313,-1.89062 -0.51562,-0.76563 -1.07812,-1.20313 -0.5625,-0.4375 -1.07813,-0.65625 -0.53125,-0.21875 -0.98437,-0.28125 -0.46875,-0.0625 -0.76563,-0.0625 -0.96875,0 -1.54687,0.3125 -0.59375,0.29688 -0.90625,0.71875 -0.3125,0.42188 -0.40625,0.89063 -0.10938,0.45312 -0.10938,0.78125 0,0.125 0.0469,0.51562 0.0312,0.375 0.25,0.95313 0.20312,0.57812 0.64062,1.29687 0.4375,0.71875 1.23438,1.51563 H 435.375 q -0.98438,-1.125 -1.46875,-2.32813 -0.5,-1.21875 -0.5,-2.35937 0,-0.95313 0.34375,-1.8125 0.34375,-0.85938 1.03125,-1.48438 0.6875,-0.64062 1.71875,-1.01562 1.03125,-0.375 2.39062,-0.375 1.875,0 3.23438,0.73437 1.35937,0.71875 2.28125,1.96875 0.9375,1.25 1.46875,2.9375 0.54687,1.67188 0.76562,3.5625 H 450 Z m 9.39062,21 h -2.5625 v -23.29688 h 2.5625 z"
         id="path7" />
    </g>
  </g>
</svg>
