<?xml version="1.0" encoding="UTF-8" standalone="no"?>
<!-- Created with Inkscape (http://www.inkscape.org/) -->

<svg
   width="210mm"
   height="297mm"
   viewBox="0 0 210 297"
   version="1.1"
   id="svg1"
   xml:space="preserve"
   inkscape:version="1.4.2 (f4327f4, 2025-05-13)"
   sodipodi:docname="poem2.svg"
   xmlns:inkscape="http://www.inkscape.org/namespaces/inkscape"
   xmlns:sodipodi="http://sodipodi.sourceforge.net/DTD/sodipodi-0.dtd"
   xmlns="http://www.w3.org/2000/svg"
   xmlns:svg="http://www.w3.org/2000/svg"><sodipodi:namedview
     id="namedview1"
     pagecolor="#ffffff"
     bordercolor="#666666"
     borderopacity="1.0"
     inkscape:showpageshadow="2"
     inkscape:pageopacity="0.0"
     inkscape:pagecheckerboard="0"
     inkscape:deskcolor="#d1d1d1"
     inkscape:document-units="mm"
     inkscape:zoom="0.65477694"
     inkscape:cx="397.08179"
     inkscape:cy="561.25984"
     inkscape:window-width="1920"
     inkscape:window-height="974"
     inkscape:window-x="-11"
     inkscape:window-y="-11"
     inkscape:window-maximized="1"
     inkscape:current-layer="layer1" /><defs
     id="defs1" /><g
     inkscape:label="Layer 1"
     inkscape:groupmode="layer"
     id="layer1"><g
       id="text1"
       style="font-size:5.65042px;line-height:1.25;letter-spacing:0px;word-spacing:0px;stroke-width:0.282521"
       transform="scale(0.936509, 1.0678)"
       aria-label="शिविनाची निसर्गप्रेमी, मन सुंदरफुलांच्या रंगात, पक्ष्यांच्या गीतातआनंदाचा सागर ती भरभरून अनुभवते  "><path
         d="m 70.912296,106.06192 h -0.579389 v 3.70809 h -0.452475 v -3.70809 h -0.629051 v -0.40557 h 0.629051 q -0.151745,-0.36419 -0.151745,-0.67871 0,-0.20141 0.06622,-0.37522 0.06622,-0.17382 0.201407,-0.30073 0.13795,-0.12692 0.350392,-0.19865 0.212443,-0.0717 0.504896,-0.0717 0.3835,0 0.736651,0.12416 0.355911,0.12415 0.695267,0.34487 0.339356,0.22072 0.670436,0.52421 0.333838,0.30349 0.673194,0.66216 h -0.480065 q -0.07725,-0.0745 -0.206924,-0.19313 -0.126914,-0.12139 -0.295213,-0.25659 -0.168298,-0.13795 -0.372464,-0.2759 -0.204166,-0.1407 -0.430403,-0.25382 -0.226238,-0.11312 -0.471788,-0.1821 -0.242792,-0.0717 -0.491101,-0.0717 -0.201407,0 -0.339356,0.0469 -0.135191,0.0469 -0.22072,0.12968 -0.08277,0.0828 -0.118637,0.19588 -0.03587,0.11036 -0.03587,0.23728 0,0.24831 0.135191,0.59318 h 0.612497 z m 1.694022,1.5009 q -0.04966,0.006 -0.09381,0.011 -0.04414,0.003 -0.09105,0.003 -0.223479,0 -0.405572,-0.08 -0.179335,-0.08 -0.309008,-0.2152 -0.126914,-0.13519 -0.195888,-0.31177 -0.06897,-0.17933 -0.06897,-0.37522 0,-0.14071 0.03863,-0.27314 0.03863,-0.13243 0.121395,-0.24831 l -0.0028,-0.011 h -0.880119 v -0.40557 h 4.613039 v 0.40557 h -0.579389 v 3.70809 h -0.452475 v -3.70809 H 73.2602 l -0.0028,0.011 q 0.07173,0.0717 0.132432,0.17382 0.0607,0.0993 0.102082,0.21796 0.04414,0.11863 0.06897,0.24831 0.02483,0.12967 0.02483,0.2621 0,0.2152 -0.06898,0.41661 -0.06621,0.20141 -0.19037,0.38074 -0.121396,0.17933 -0.295213,0.33384 -0.171057,0.15174 -0.380741,0.27038 v 0.011 q 0.13795,0.1076 0.295213,0.25934 0.157262,0.14899 0.311766,0.31177 0.154504,0.16278 0.292453,0.32556 0.13795,0.16002 0.237274,0.29245 l -0.311767,0.26211 q -0.08553,-0.1076 -0.215201,-0.26211 -0.129673,-0.15726 -0.289694,-0.32556 -0.160022,-0.17106 -0.347634,-0.33936 -0.184852,-0.17105 -0.386259,-0.309 -0.09932,0.0469 -0.209683,0.069 -0.107601,0.0221 -0.215202,0.0221 -0.124155,0 -0.240033,-0.0303 -0.113118,-0.0303 -0.204165,-0.0883 -0.08829,-0.0579 -0.140709,-0.14071 -0.05242,-0.0855 -0.05242,-0.19589 0,-0.17382 0.126914,-0.26762 0.129673,-0.0966 0.336597,-0.0966 0.151745,0 0.306249,0.0552 0.157262,0.0524 0.306248,0.16002 0.07725,-0.0166 0.173817,-0.0579 0.09656,-0.0442 0.195888,-0.11036 0.102083,-0.069 0.195889,-0.16003 0.09656,-0.0938 0.171058,-0.21244 0.07449,-0.11864 0.118636,-0.25934 0.0469,-0.14347 0.0469,-0.30901 0,-0.16554 -0.04966,-0.32556 -0.0469,-0.16002 -0.140708,-0.28418 -0.09381,-0.12691 -0.234515,-0.20416 -0.140709,-0.0773 -0.325561,-0.0773 -0.146227,0 -0.242792,0.0469 -0.09656,0.0441 -0.157262,0.11587 -0.0607,0.0717 -0.08553,0.16003 -0.02483,0.0855 -0.02483,0.16829 0,0.10761 0.03863,0.21245 0.03863,0.10208 0.113118,0.18485 0.07725,0.08 0.190371,0.12967 0.113119,0.0497 0.259346,0.0497 0.0469,0 0.113118,-0.008 z m 4.193671,-1.5009 h -0.579388 v 3.70809 h -0.452476 v -3.70809 h -0.62905 v -0.40557 h 0.62905 q -0.151744,-0.36419 -0.151744,-0.67871 0,-0.20141 0.06622,-0.37522 0.06621,-0.17382 0.201406,-0.30073 0.13795,-0.12692 0.350392,-0.19865 0.212443,-0.0717 0.504896,-0.0717 0.383501,0 0.736652,0.12416 0.35591,0.12415 0.695266,0.34487 0.339357,0.22072 0.670436,0.52421 0.333838,0.30349 0.673195,0.66216 h -0.480065 q -0.07725,-0.0745 -0.206925,-0.19313 -0.126914,-0.12139 -0.295212,-0.25659 -0.168299,-0.13795 -0.372465,-0.2759 -0.204165,-0.1407 -0.430403,-0.25382 -0.226237,-0.11312 -0.471788,-0.1821 -0.242791,-0.0717 -0.491101,-0.0717 -0.201406,0 -0.339356,0.0469 -0.135191,0.0469 -0.220719,0.12968 -0.08277,0.0828 -0.118637,0.19588 -0.03587,0.11036 -0.03587,0.23728 0,0.24831 0.135191,0.59318 h 0.612496 z m 3.321829,0 H 79.54243 v 3.70809 h -0.452476 v -0.98496 l -0.01104,-0.003 q -0.05518,0.0524 -0.129672,0.11036 -0.07449,0.0552 -0.171058,0.10208 -0.09656,0.0442 -0.21796,0.0745 -0.118637,0.0303 -0.267623,0.0303 -0.27314,0 -0.499378,-0.10485 -0.223478,-0.10484 -0.386259,-0.27865 -0.162781,-0.17658 -0.253827,-0.40282 -0.08829,-0.22899 -0.08829,-0.4773 0,-0.24831 0.08829,-0.46076 0.09105,-0.2152 0.248309,-0.37246 0.157263,-0.15726 0.366946,-0.24555 0.209684,-0.091 0.449716,-0.091 0.06622,0 0.16554,0.011 0.102083,0.011 0.21796,0.0497 0.115878,0.0386 0.240033,0.11312 0.124155,0.0717 0.237273,0.19589 l 0.01104,-0.003 v -0.97117 H 76.60686 v -0.40557 h 3.514958 z m -1.020828,1.4871 q -0.173816,-0.20968 -0.377982,-0.3366 -0.204165,-0.12967 -0.463511,-0.12967 -0.204165,0 -0.347633,0.0772 -0.140709,0.0773 -0.231756,0.19589 -0.09105,0.11588 -0.132431,0.25935 -0.04138,0.14347 -0.04138,0.2759 0,0.14346 0.0469,0.28417 0.0469,0.14071 0.137949,0.25383 0.09381,0.11036 0.231756,0.18209 0.13795,0.069 0.322802,0.069 0.190371,0 0.347634,-0.0717 0.157262,-0.0745 0.270381,-0.18762 0.113119,-0.11312 0.173817,-0.25382 0.06346,-0.14071 0.06346,-0.27314 z m 4.453017,-1.4871 h -0.579389 v 3.70809 h -0.455234 v -2.12718 h -1.291209 q 0,0.18209 -0.0055,0.31176 -0.0028,0.12968 -0.02207,0.21521 -0.01931,0.0828 -0.05794,0.12139 -0.03863,0.0386 -0.107601,0.0386 -0.143468,0 -0.27314,-0.0938 -0.126914,-0.0938 -0.226238,-0.22624 -0.09656,-0.13243 -0.154503,-0.2759 -0.05794,-0.14346 -0.05794,-0.24279 0,-0.0883 0.03863,-0.13795 0.03863,-0.0497 0.102082,-0.0745 0.06346,-0.0248 0.143468,-0.0303 0.08277,-0.006 0.16554,-0.006 h 1.746443 v -1.18085 h -2.590696 v -0.40557 h 3.625319 z m 1.467785,0 h -0.579389 v 3.70809 h -0.452475 v -3.70809 h -0.629051 v -0.40557 h 1.660915 z m 3.821207,0 H 88.26361 v 3.70809 h -0.457993 v -1.16153 l -0.01104,-0.008 q -0.151745,0.13795 -0.297971,0.21796 -0.143468,0.0772 -0.270382,0.11864 -0.124154,0.0386 -0.226237,0.0497 -0.102083,0.011 -0.168299,0.011 -0.253827,0 -0.449716,-0.08 -0.195888,-0.08 -0.32832,-0.20968 -0.132432,-0.13243 -0.201407,-0.30073 -0.06897,-0.17106 -0.06897,-0.35315 0,-0.19037 0.07725,-0.37798 0.08001,-0.18762 0.24831,-0.3366 l -0.0028,-0.011 h -0.874601 v -0.40557 h 2.218231 v 0.40557 H 87.16553 q -0.284176,0 -0.46627,0.0745 -0.182093,0.0745 -0.286935,0.1821 -0.104842,0.1076 -0.146227,0.23175 -0.03863,0.1214 -0.03863,0.22072 0,0.0828 0.02759,0.17934 0.02759,0.0938 0.09105,0.17381 0.06622,0.08 0.173817,0.13244 0.11036,0.0524 0.275899,0.0524 0.173817,0 0.322803,-0.0552 0.151744,-0.0579 0.278658,-0.14899 0.126914,-0.091 0.228997,-0.20416 0.104841,-0.11588 0.179334,-0.229 v -1.87612 h -2.976955 v -0.40557 h 4.014337 z m 1.467784,0 h -0.579389 v 3.70809 h -0.452475 v -3.70809 h -0.629051 v -0.40557 h 0.673195 q -0.04966,-0.28142 -0.126914,-0.48006 -0.07725,-0.20141 -0.168298,-0.33384 -0.09105,-0.13519 -0.190371,-0.21244 -0.09932,-0.0773 -0.190371,-0.11588 -0.09381,-0.0386 -0.173816,-0.0497 -0.08277,-0.011 -0.135191,-0.011 -0.171058,0 -0.27314,0.0552 -0.104842,0.0524 -0.160022,0.12691 -0.05518,0.0745 -0.07173,0.15727 -0.01931,0.08 -0.01931,0.13795 0,0.0221 0.0083,0.091 0.0055,0.0662 0.04414,0.1683 0.03587,0.10208 0.113119,0.229 0.07725,0.12691 0.21796,0.26762 h -0.469029 q -0.173816,-0.19865 -0.259345,-0.41109 -0.08829,-0.2152 -0.08829,-0.41661 0,-0.1683 0.0607,-0.32004 0.0607,-0.15175 0.182094,-0.26211 0.121395,-0.11311 0.303489,-0.17933 0.182094,-0.0662 0.422126,-0.0662 0.331079,0 0.571112,0.12968 0.240032,0.12691 0.402813,0.34763 0.16554,0.22072 0.259346,0.51869 0.09656,0.29521 0.13519,0.62905 h 0.593184 z m 3.015581,0 h -0.579389 v 3.70809 H 92.2945 v -3.70809 h -0.62905 v -0.40557 h 0.62905 q -0.151744,-0.36419 -0.151744,-0.67871 0,-0.20141 0.06621,-0.37522 0.06622,-0.17382 0.201407,-0.30073 0.13795,-0.12692 0.350392,-0.19865 0.212443,-0.0717 0.504896,-0.0717 0.3835,0 0.736652,0.12416 0.35591,0.12415 0.695266,0.34487 0.339357,0.22072 0.670436,0.52421 0.333838,0.30349 0.673194,0.66216 h -0.480065 q -0.07725,-0.0745 -0.206924,-0.19313 -0.126914,-0.12139 -0.295213,-0.25659 -0.168298,-0.13795 -0.372464,-0.2759 -0.204165,-0.1407 -0.430403,-0.25382 -0.226237,-0.11312 -0.471788,-0.1821 -0.242791,-0.0717 -0.491101,-0.0717 -0.201406,0 -0.339356,0.0469 -0.135191,0.0469 -0.22072,0.12968 -0.08277,0.0828 -0.118636,0.19588 -0.03587,0.11036 -0.03587,0.23728 0,0.24831 0.13519,0.59318 h 0.612497 z m 3.432189,0 h -0.579389 v 3.70809 H 95.72393 v -2.12718 h -1.291209 q 0,0.18209 -0.0055,0.31176 -0.0028,0.12968 -0.02207,0.21521 -0.01931,0.0828 -0.05794,0.12139 -0.03863,0.0386 -0.107601,0.0386 -0.143468,0 -0.27314,-0.0938 -0.126914,-0.0938 -0.226238,-0.22624 -0.09656,-0.13243 -0.154503,-0.2759 -0.05794,-0.14346 -0.05794,-0.24279 0,-0.0883 0.03863,-0.13795 0.03863,-0.0497 0.102082,-0.0745 0.06346,-0.0248 0.143468,-0.0303 0.08277,-0.006 0.16554,-0.006 h 1.746443 v -1.18085 h -2.590696 v -0.40557 h 3.625319 z m 4.069517,-0.40557 v 0.40557 h -0.57939 v 3.70809 h -0.457991 v -1.85404 h -1.597458 q -0.146227,0.0966 -0.350392,0.11588 l -0.0055,0.0138 q 0.267622,0.41937 0.587666,0.7808 0.320043,0.36142 0.728374,0.67043 l -0.295212,0.33936 q -0.234515,-0.17382 -0.446957,-0.37523 -0.209684,-0.2014 -0.397296,-0.4166 -0.184852,-0.21796 -0.347633,-0.43868 -0.162781,-0.22348 -0.297971,-0.43868 -0.135191,-0.21521 -0.242792,-0.41385 -0.107601,-0.20141 -0.187611,-0.37247 l 0.377982,-0.20416 q 0.05242,0.12139 0.102083,0.20416 0.05242,0.08 0.104841,0.12968 0.05242,0.0469 0.11036,0.069 0.05794,0.0193 0.124155,0.0193 0.190371,0 0.278658,-0.14898 0.09105,-0.14899 0.09105,-0.39178 0,-0.14347 -0.02759,-0.28142 -0.02759,-0.14071 -0.07173,-0.26762 -0.04139,-0.12967 -0.09105,-0.24279 -0.04966,-0.11312 -0.09381,-0.20417 h -1.277415 v -0.40557 z m -1.037381,0.40557 h -1.470544 q 0.115878,0.25107 0.182093,0.5049 0.06622,0.25383 0.06622,0.5049 0,0.11587 -0.01931,0.22899 -0.01655,0.11036 -0.05794,0.20969 l 0.0055,0.006 h 1.293969 z m 4.560611,0 h -0.57938 v 3.70809 h -0.45248 v -3.70809 h -1.24431 v 2.14098 q 0,0.0442 -0.006,0.10209 -0.006,0.0579 -0.0276,0.11311 -0.0193,0.0524 -0.0579,0.0911 -0.0386,0.0359 -0.1076,0.0359 -0.0745,0 -0.16554,-0.0469 -0.0883,-0.0497 -0.1821,-0.12692 -0.0938,-0.08 -0.18209,-0.17933 -0.0855,-0.0993 -0.1545,-0.20417 -0.069,-0.10484 -0.11036,-0.20416 -0.0414,-0.0993 -0.0414,-0.17658 0,-0.069 0.0331,-0.11036 0.0359,-0.0414 0.0966,-0.0635 0.0635,-0.0221 0.15175,-0.0276 0.0911,-0.006 0.19865,-0.006 h 0.0966 v -1.33812 h -0.9822 v -0.40557 h 3.71636 z m -0.0745,-1.61125 q -0.1214,-0.13795 -0.22624,-0.20141 -0.10484,-0.0635 -0.24555,-0.0635 -0.2152,0 -0.34488,0.14898 -0.12967,0.14623 -0.12967,0.41385 0,0.11036 0.0248,0.23176 0.0248,0.11863 0.0717,0.24003 0.0469,0.1214 0.11587,0.24003 0.069,0.11864 0.15727,0.22624 h -0.458 q -0.16554,-0.23451 -0.24831,-0.48006 -0.0828,-0.24831 -0.0828,-0.48283 0,-0.22624 0.0745,-0.40557 0.0717,-0.17934 0.19313,-0.30073 0.12139,-0.1214 0.28417,-0.18485 0.16002,-0.0662 0.33936,-0.0662 0.24003,0 0.42764,0.0966 0.19037,0.0938 0.35591,0.30348 z m 3.47633,1.61125 h -0.57939 v 3.70809 h -0.45524 v -1.23051 l -0.011,-0.003 -1.68299,1.26638 -0.28418,-0.34487 0.97945,-0.70355 -0.003,-0.011 q -0.21244,-0.0166 -0.38626,-0.0938 -0.17382,-0.0773 -0.29797,-0.21796 -0.12416,-0.14071 -0.19313,-0.34763 -0.0662,-0.20693 -0.0662,-0.48283 v -1.53952 h -0.61525 v -0.40557 h 3.59497 z m -1.03463,0 h -1.49813 v 1.51469 q 0,0.17382 0.0276,0.31177 0.0303,0.13795 0.0993,0.23451 0.0717,0.0966 0.18761,0.14899 0.11588,0.0497 0.2897,0.0497 0.28418,0 0.51317,-0.12415 0.229,-0.12692 0.38074,-0.33384 z m 0.41661,-0.32832 h -0.40005 l -0.25107,-0.47178 q -0.16002,-0.30074 -0.28969,-0.47731 -0.13244,-0.17658 -0.24831,-0.26762 -0.11864,-0.0938 -0.23176,-0.11864 -0.11312,-0.0276 -0.23727,-0.0276 h -0.53525 v -0.44696 h 0.5049 q 0.16002,0 0.28969,0.0276 0.12968,0.0248 0.24831,0.0938 0.11588,0.0662 0.229,0.18761 0.11036,0.11864 0.23727,0.30901 0.12692,0.18761 0.27866,0.45247 0.14899,0.26211 0.34212,0.62078 z m 4.42267,0.32832 h -0.57939 v 3.70809 h -0.45247 v -1.54779 h -1.51745 v 0.32832 q 0,0.0855 -0.008,0.15174 -0.006,0.0662 -0.0303,0.11036 -0.0221,0.0441 -0.0662,0.069 -0.0414,0.0221 -0.11312,0.0221 -0.0717,0 -0.16002,-0.0414 -0.0883,-0.0441 -0.17934,-0.11587 -0.091,-0.0745 -0.17657,-0.16554 -0.0855,-0.0938 -0.15451,-0.19313 -0.0662,-0.10209 -0.1076,-0.20141 -0.0414,-0.0993 -0.0414,-0.18209 0,-0.0579 0.0193,-0.0938 0.0221,-0.0386 0.0579,-0.0579 0.0386,-0.0193 0.091,-0.0248 0.0524,-0.008 0.11863,-0.008 h 0.29797 v -1.75748 h -0.99599 v -0.40557 h 3.99778 z m -2.54931,0 v 1.75748 h 1.51745 v -1.75748 z m 4.01709,0 h -0.57938 v 3.70809 h -0.45248 v -3.70809 h -0.62905 v -0.40557 h 0.67319 q -0.0497,-0.28142 -0.12691,-0.48006 -0.0773,-0.20141 -0.1683,-0.33384 -0.091,-0.13519 -0.19037,-0.21244 -0.0993,-0.0773 -0.19037,-0.11588 -0.0938,-0.0386 -0.17382,-0.0497 -0.0828,-0.011 -0.13519,-0.011 -0.17105,0 -0.27314,0.0552 -0.10484,0.0524 -0.16002,0.12691 -0.0552,0.0745 -0.0717,0.15727 -0.0193,0.08 -0.0193,0.13795 0,0.0221 0.008,0.091 0.006,0.0662 0.0442,0.1683 0.0359,0.10208 0.11311,0.229 0.0773,0.12691 0.21797,0.26762 h -0.46903 q -0.17382,-0.19865 -0.25935,-0.41109 -0.0883,-0.2152 -0.0883,-0.41661 0,-0.1683 0.0607,-0.32004 0.0607,-0.15175 0.18209,-0.26211 0.1214,-0.11311 0.30349,-0.17933 0.1821,-0.0662 0.42213,-0.0662 0.33108,0 0.57111,0.12968 0.24003,0.12691 0.40281,0.34763 0.16554,0.22072 0.25935,0.51869 0.0966,0.29521 0.13519,0.62905 h 0.59318 z m 0.77528,3.07904 -0.44144,1.35743 h -0.3228 l 0.3228,-1.35743 z m 5.80217,-3.07904 h -0.57939 v 3.70809 h -0.45248 v -1.54779 h -1.51744 v 0.32832 q 0,0.0855 -0.008,0.15174 -0.006,0.0662 -0.0303,0.11036 -0.0221,0.0441 -0.0662,0.069 -0.0414,0.0221 -0.11311,0.0221 -0.0717,0 -0.16003,-0.0414 -0.0883,-0.0441 -0.17933,-0.11587 -0.091,-0.0745 -0.17658,-0.16554 -0.0855,-0.0938 -0.1545,-0.19313 -0.0662,-0.10209 -0.1076,-0.20141 -0.0414,-0.0993 -0.0414,-0.18209 0,-0.0579 0.0193,-0.0938 0.0221,-0.0386 0.0579,-0.0579 0.0386,-0.0193 0.091,-0.0248 0.0524,-0.008 0.11864,-0.008 h 0.29797 v -1.75748 h -0.996 v -0.40557 h 3.99779 z m -2.54931,0 v 1.75748 h 1.51744 v -1.75748 z m 5.9815,0 h -0.57939 v 3.70809 h -0.45524 v -2.12718 h -1.29121 q 0,0.18209 -0.006,0.31176 -0.003,0.12968 -0.0221,0.21521 -0.0193,0.0828 -0.0579,0.12139 -0.0386,0.0386 -0.1076,0.0386 -0.14346,0 -0.27314,-0.0938 -0.12691,-0.0938 -0.22623,-0.22624 -0.0966,-0.13243 -0.15451,-0.2759 -0.0579,-0.14346 -0.0579,-0.24279 0,-0.0883 0.0386,-0.13795 0.0386,-0.0497 0.10208,-0.0745 0.0635,-0.0248 0.14347,-0.0303 0.0828,-0.006 0.16554,-0.006 h 1.74644 v -1.18085 h -2.59069 v -0.40557 h 3.62532 z m 5.61731,-0.40557 v 0.40557 h -0.57939 v 3.70809 h -0.45799 v -1.85404 h -1.59746 q -0.14623,0.0966 -0.35039,0.11588 l -0.006,0.0138 q 0.26762,0.41937 0.58766,0.7808 0.32005,0.36142 0.72838,0.67043 l -0.29521,0.33936 q -0.23452,-0.17382 -0.44696,-0.37523 -0.20968,-0.2014 -0.3973,-0.4166 -0.18485,-0.21796 -0.34763,-0.43868 -0.16278,-0.22348 -0.29797,-0.43868 -0.13519,-0.21521 -0.24279,-0.41385 -0.1076,-0.20141 -0.18761,-0.37247 l 0.37798,-0.20416 q 0.0524,0.12139 0.10208,0.20416 0.0524,0.08 0.10484,0.12968 0.0524,0.0469 0.11036,0.069 0.0579,0.0193 0.12416,0.0193 0.19037,0 0.27866,-0.14898 0.091,-0.14899 0.091,-0.39178 0,-0.14347 -0.0276,-0.28142 -0.0276,-0.14071 -0.0717,-0.26762 -0.0414,-0.12967 -0.091,-0.24279 -0.0497,-0.11312 -0.0938,-0.20417 h -1.27742 v -0.40557 z m -1.03738,0.40557 h -1.47055 q 0.11588,0.25107 0.1821,0.5049 0.0662,0.25383 0.0662,0.5049 0,0.11587 -0.0193,0.22899 -0.0166,0.11036 -0.0579,0.20969 l 0.006,0.006 h 1.29397 z m -0.53525,3.79086 q 0.17658,-0.11036 0.39178,-0.17106 0.21244,-0.0607 0.40557,-0.0607 0.1683,0 0.31453,0.0497 0.14346,0.0469 0.25106,0.13795 0.10761,0.0938 0.1683,0.22624 0.0607,0.13243 0.0607,0.29797 0,0.17657 -0.0717,0.33108 -0.069,0.1545 -0.20969,0.27038 -0.1407,0.11588 -0.34763,0.18209 -0.20692,0.069 -0.48006,0.069 -0.31177,0 -0.55732,-0.0855 -0.24831,-0.0828 -0.4442,-0.21245 -0.19589,-0.12691 -0.34487,-0.28141 -0.14899,-0.15451 -0.26211,-0.29246 l 0.25659,-0.30073 q 0.15726,0.17106 0.30073,0.30901 0.14347,0.13795 0.29797,0.23452 0.1545,0.0993 0.33384,0.15174 0.17657,0.0524 0.40005,0.0524 0.19037,0 0.32556,-0.0386 0.13244,-0.0359 0.21796,-0.0966 0.0855,-0.0579 0.12416,-0.13519 0.0386,-0.0745 0.0386,-0.15175 0,-0.1407 -0.10485,-0.22347 -0.1076,-0.0828 -0.28969,-0.0828 -0.11864,0 -0.27314,0.0414 -0.15726,0.0414 -0.31729,0.13795 z m 0.42765,-5.03792 q 0,-0.15726 0.0938,-0.25383 0.0911,-0.0993 0.24003,-0.0993 0.069,0 0.13244,0.0276 0.0607,0.0276 0.1076,0.0773 0.0469,0.0469 0.0745,0.11312 0.0248,0.0635 0.0248,0.14071 0,0.15726 -0.091,0.25382 -0.0938,0.0966 -0.24279,0.0966 -0.0717,0 -0.13243,-0.0248 -0.0635,-0.0276 -0.1076,-0.0745 -0.0469,-0.0497 -0.0717,-0.11311 -0.0276,-0.0662 -0.0276,-0.14347 z m 4.66269,1.24706 h -0.93529 v 1.2112 h -0.92979 q -0.43316,0 -0.65388,0.2152 -0.22072,0.21245 -0.22072,0.6125 0,0.22624 0.0717,0.40005 0.0745,0.17382 0.2014,0.29246 0.12968,0.11588 0.30625,0.17657 0.17658,0.0607 0.3835,0.0607 0.21796,0 0.35039,-0.0662 -0.011,-0.069 -0.0165,-0.1214 -0.006,-0.0524 -0.006,-0.10484 0,-0.11588 0.0276,-0.23728 0.0303,-0.12415 0.0883,-0.22347 0.0607,-0.10209 0.15174,-0.16554 0.0938,-0.0635 0.22348,-0.0635 0.08,0 0.15175,0.0276 0.0717,0.0276 0.12415,0.0855 0.0552,0.0552 0.0855,0.14071 0.0331,0.0855 0.0331,0.19864 0,0.11312 -0.0303,0.20969 -0.0303,0.0938 -0.08,0.17657 -0.0469,0.08 -0.1076,0.15175 -0.0607,0.069 -0.11864,0.12691 0.0607,0.13243 0.12692,0.23728 0.069,0.10484 0.1407,0.18761 0.0745,0.0828 0.14899,0.14898 0.0745,0.0662 0.14899,0.12416 l -0.33936,0.35591 q -0.14623,-0.12967 -0.25107,-0.25935 -0.10208,-0.12691 -0.17382,-0.24003 -0.069,-0.11312 -0.11311,-0.20417 -0.0442,-0.091 -0.0717,-0.14622 -0.19037,0.0745 -0.46903,0.0745 -0.35867,0 -0.62629,-0.11588 -0.26762,-0.11863 -0.44696,-0.31452 -0.17657,-0.19865 -0.26486,-0.45248 -0.0883,-0.25383 -0.0883,-0.52697 0,-0.28417 0.091,-0.49937 0.091,-0.21796 0.25383,-0.36419 0.16278,-0.14899 0.38626,-0.22348 0.22623,-0.0772 0.49386,-0.0772 h 0.56559 v -0.80839 h -2.32307 v -0.40557 h 3.71084 z m 2.76176,0 h -1.04014 q 0.14071,0.2428 0.22624,0.49662 0.0883,0.25107 0.0883,0.51042 0,0.19589 -0.0607,0.37798 -0.0579,0.17933 -0.17382,0.3228 -0.11312,0.14071 -0.28418,0.23176 -0.1683,0.0883 -0.38902,0.0993 l -0.006,0.0138 q 0.24831,0.38625 0.55731,0.73113 0.30901,0.34211 0.71458,0.65112 l -0.29521,0.33936 q -0.23451,-0.17382 -0.44696,-0.37523 -0.20968,-0.20416 -0.39729,-0.41936 -0.18761,-0.21796 -0.35039,-0.43868 -0.16003,-0.22348 -0.29522,-0.43316 -0.13243,-0.21245 -0.23727,-0.40558 -0.10484,-0.19589 -0.17933,-0.35591 l 0.37798,-0.20416 q 0.0993,0.2152 0.22348,0.33935 0.12691,0.1214 0.29245,0.1214 0.11864,0 0.21244,-0.0607 0.0938,-0.0607 0.15726,-0.1545 0.0635,-0.0966 0.0966,-0.20969 0.0331,-0.11587 0.0331,-0.22623 0,-0.12968 -0.0331,-0.25383 -0.0331,-0.12691 -0.0855,-0.24555 -0.0524,-0.1214 -0.11864,-0.23452 -0.0634,-0.11311 -0.12415,-0.21796 h -1.41812 v -0.40557 h 2.95488 z"
         id="path4" /><path
         d="m 74.498988,113.12497 h -2.381012 v 1.05945 l 0.0138,0.006 q 0.07173,-0.0966 0.162781,-0.17382 0.09381,-0.08 0.201407,-0.13519 0.110359,-0.0579 0.228996,-0.0883 0.121396,-0.0304 0.245551,-0.0304 0.204165,0 0.377982,0.0828 0.173816,0.08 0.30073,0.22348 0.126914,0.14071 0.198648,0.33384 0.07173,0.19313 0.07173,0.41937 0,0.25382 -0.08829,0.46627 -0.08553,0.21244 -0.223479,0.38626 -0.13519,0.17381 -0.303489,0.309 -0.168299,0.13244 -0.333838,0.22624 l -0.245551,-0.42488 q 0.05242,-0.0303 0.129673,-0.08 0.07725,-0.0497 0.160022,-0.11587 0.08553,-0.0662 0.168298,-0.14899 0.08277,-0.0855 0.148986,-0.18485 0.06622,-0.0993 0.107601,-0.21244 0.04138,-0.11312 0.04138,-0.2428 0,-0.12415 -0.03863,-0.23175 -0.03863,-0.1076 -0.107601,-0.18761 -0.06622,-0.08 -0.162781,-0.12692 -0.09381,-0.0469 -0.206924,-0.0469 -0.146227,0 -0.286936,0.0745 -0.140708,0.0745 -0.256586,0.18762 -0.115878,0.11036 -0.198648,0.23727 -0.08001,0.12691 -0.104842,0.23451 v 1.89267 h -0.452475 v -1.31052 l -0.0083,-0.003 q -0.171057,0.15727 -0.369705,0.229 -0.198647,0.069 -0.413849,0.069 -0.223479,0 -0.408331,-0.069 -0.184853,-0.069 -0.317285,-0.20968 -0.132431,-0.14347 -0.206924,-0.35867 -0.07449,-0.21796 -0.07449,-0.51594 v -1.53951 h -0.615256 v -0.40558 h 5.247607 z m -2.833487,0 h -1.351907 v 1.51468 q 0,0.17382 0.02483,0.31177 0.02759,0.13795 0.09105,0.23451 0.06622,0.0966 0.171058,0.14899 0.104841,0.0497 0.262104,0.0497 0.132432,0 0.24555,-0.0359 0.115878,-0.0386 0.215202,-0.10208 0.09932,-0.0662 0.184853,-0.15726 0.08553,-0.091 0.157262,-0.19865 z m -0.540763,3.79085 q 0.176576,-0.11036 0.391777,-0.17105 0.212443,-0.0607 0.405573,-0.0607 0.168298,0 0.314525,0.0497 0.143468,0.0469 0.251068,0.13795 0.107601,0.0938 0.168299,0.22624 0.0607,0.13243 0.0607,0.29797 0,0.17657 -0.07173,0.33108 -0.06897,0.1545 -0.209684,0.27038 -0.140708,0.11588 -0.347633,0.18209 -0.206924,0.069 -0.480065,0.069 -0.311766,0 -0.557317,-0.0855 -0.248309,-0.0828 -0.444198,-0.21244 -0.195888,-0.12692 -0.344874,-0.28142 -0.148986,-0.1545 -0.262104,-0.29245 l 0.256586,-0.30073 q 0.157263,0.17105 0.30073,0.309 0.143468,0.13795 0.297972,0.23452 0.154503,0.0993 0.333838,0.15174 0.176576,0.0524 0.400054,0.0524 0.190371,0 0.325562,-0.0386 0.132431,-0.0359 0.21796,-0.0966 0.08553,-0.0579 0.124155,-0.13519 0.03863,-0.0745 0.03863,-0.15174 0,-0.14071 -0.104842,-0.22348 -0.107601,-0.0828 -0.289694,-0.0828 -0.118637,0 -0.273141,0.0414 -0.157262,0.0414 -0.317284,0.13795 z m 7.410659,-3.79085 h -0.579389 v 3.71084 h -0.452475 v -2.58518 q -0.146227,-0.0524 -0.2759,-0.0524 -0.129672,0 -0.226237,0.0497 -0.09656,0.0469 -0.162781,0.12691 -0.06346,0.08 -0.09656,0.18761 -0.03311,0.1076 -0.03311,0.22624 0,0.0469 0.0028,0.0966 0.0055,0.0469 0.01104,0.0938 h -0.422127 q -0.02207,-0.16002 -0.05242,-0.30625 -0.02759,-0.14623 -0.08277,-0.25659 -0.05242,-0.11036 -0.13795,-0.17381 -0.08553,-0.0662 -0.22072,-0.0662 -0.129672,0 -0.223478,0.0524 -0.09105,0.0524 -0.151745,0.14623 -0.0607,0.0938 -0.09105,0.22072 -0.02759,0.12415 -0.02759,0.27038 0,0.31453 0.107601,0.56559 0.107601,0.24831 0.289695,0.44696 0.184852,0.19865 0.424885,0.35591 0.242791,0.15451 0.510414,0.28418 l -0.223479,0.38074 q -0.09932,-0.0441 -0.256586,-0.13243 -0.154504,-0.0883 -0.33108,-0.21796 -0.173816,-0.12968 -0.350392,-0.30349 -0.176576,-0.17382 -0.320043,-0.38902 -0.140709,-0.2152 -0.228997,-0.47455 -0.08829,-0.25934 -0.08829,-0.56007 0,-0.23176 0.06622,-0.43041 0.06622,-0.2014 0.187612,-0.34763 0.124155,-0.14899 0.297971,-0.23176 0.173817,-0.0855 0.386259,-0.0855 0.160022,0 0.2759,0.0469 0.115878,0.0441 0.198648,0.11312 0.08553,0.0662 0.140708,0.14622 0.05518,0.0773 0.09656,0.14623 l 0.0138,-0.003 q 0.05242,-0.11588 0.124155,-0.19589 0.07449,-0.08 0.160021,-0.12967 0.08829,-0.0497 0.184853,-0.0717 0.09656,-0.0248 0.19313,-0.0248 0.08553,0 0.168298,0.0166 0.08553,0.0138 0.162781,0.0414 v -0.68698 h -3.197674 v -0.40558 h 4.229538 z m 1.467784,0 h -0.579389 v 3.70808 h -0.452475 v -3.70808 h -0.62905 v -0.40558 h 1.660914 z m -1.200162,-1.24707 q 0,-0.15726 0.0938,-0.25383 0.09105,-0.0993 0.240033,-0.0993 0.06897,0 0.132432,0.0276 0.0607,0.0276 0.1076,0.0772 0.0469,0.0469 0.07449,0.11312 0.02483,0.0635 0.02483,0.14071 0,0.15726 -0.09105,0.25383 -0.09381,0.0966 -0.242791,0.0966 -0.07173,0 -0.132432,-0.0248 -0.06346,-0.0276 -0.107601,-0.0745 -0.0469,-0.0497 -0.07173,-0.11312 -0.02759,-0.0662 -0.02759,-0.14347 z m 3.492886,1.24707 h -2.485854 v -0.40558 h 2.485854 z m 0.662159,2.37549 q -0.19313,0.19865 -0.372464,0.31177 -0.176576,0.11311 -0.328321,0.16829 -0.148985,0.0552 -0.264863,0.069 -0.113119,0.011 -0.179335,0.011 -0.253827,0 -0.449716,-0.08 -0.195888,-0.08 -0.32832,-0.20968 -0.132432,-0.13243 -0.201407,-0.30073 -0.06897,-0.17106 -0.06897,-0.35315 0,-0.19037 0.07725,-0.37798 0.08001,-0.18761 0.24831,-0.3366 l -0.0028,-0.011 h -0.874601 v -0.40557 h 2.163051 v 0.40557 H 82.14692 q -0.284177,0 -0.46627,0.0745 -0.182094,0.0745 -0.286936,0.18209 -0.104842,0.1076 -0.146227,0.23176 -0.03863,0.12139 -0.03863,0.22072 0,0.0828 0.02759,0.17933 0.02759,0.0938 0.09105,0.17382 0.06622,0.08 0.173817,0.13243 0.11036,0.0524 0.275899,0.0524 0.173817,0 0.322803,-0.0552 0.151744,-0.0579 0.278658,-0.14623 0.126914,-0.0883 0.228997,-0.19589 0.104841,-0.1076 0.179334,-0.21244 z m 2.90798,-2.37549 h -0.579389 v 3.70808 H 84.83418 v -1.29121 l -0.01104,-0.003 q -0.07449,0.0607 -0.179335,0.12139 -0.102082,0.0579 -0.228996,0.10484 -0.126914,0.0442 -0.273141,0.0745 -0.146226,0.0276 -0.306248,0.0276 -0.320043,0 -0.54904,-0.11588 -0.226237,-0.11588 -0.380741,-0.30901 -0.151745,-0.19589 -0.240033,-0.4442 -0.08829,-0.25107 -0.126913,-0.52145 0.182093,-0.0248 0.311766,-0.0855 0.129673,-0.0607 0.209684,-0.14346 0.08001,-0.0855 0.115877,-0.18486 0.03863,-0.0993 0.03863,-0.19864 0,-0.0662 -0.0138,-0.14899 -0.01104,-0.0828 -0.04139,-0.17658 -0.03035,-0.0966 -0.08001,-0.2014 -0.04966,-0.10484 -0.124155,-0.21244 h -0.797349 v -0.40558 h 3.708088 z m -2.422397,0 q 0.09932,0.16829 0.154503,0.3697 0.05794,0.19865 0.05794,0.39178 0,0.14071 -0.03863,0.27314 -0.03587,0.13243 -0.113118,0.24831 -0.07725,0.11312 -0.19313,0.20416 -0.113119,0.0883 -0.264863,0.14071 0.04414,0.18485 0.121395,0.31729 0.07725,0.12967 0.182094,0.2152 0.104842,0.0828 0.234515,0.12139 0.129672,0.0386 0.278658,0.0386 0.143468,0 0.281417,-0.0331 0.140709,-0.0331 0.264864,-0.0938 0.126914,-0.0635 0.234514,-0.15175 0.107601,-0.0883 0.190371,-0.19865 v -1.843 z m 3.890182,0 h -0.579388 v 3.70808 h -0.452475 v -3.70808 h -0.629051 v -0.40558 h 1.660914 z m 4.30955,0 h -1.040141 q 0.140709,0.24279 0.226238,0.49661 0.08829,0.25107 0.08829,0.51042 0,0.19589 -0.0607,0.37798 -0.05794,0.17934 -0.173817,0.3228 -0.113119,0.14071 -0.284176,0.23176 -0.168299,0.0883 -0.389019,0.0993 l -0.0055,0.0138 q 0.24831,0.38626 0.557317,0.73113 0.309008,0.34212 0.71458,0.65112 l -0.295213,0.33936 q -0.234514,-0.17382 -0.446957,-0.37522 -0.209683,-0.20417 -0.397295,-0.41937 -0.187612,-0.21796 -0.350392,-0.43868 -0.160022,-0.22348 -0.295213,-0.43316 -0.132431,-0.21245 -0.237273,-0.40558 -0.104842,-0.19588 -0.179335,-0.35591 l 0.377982,-0.20416 q 0.09932,0.2152 0.223479,0.33936 0.126914,0.12139 0.292453,0.12139 0.118637,0 0.212443,-0.0607 0.09381,-0.0607 0.157263,-0.1545 0.06346,-0.0966 0.09656,-0.20968 0.03311,-0.11588 0.03311,-0.22624 0,-0.12967 -0.03311,-0.25383 -0.03311,-0.12691 -0.08553,-0.24555 -0.05242,-0.1214 -0.118637,-0.23451 -0.06346,-0.11312 -0.124155,-0.21796 h -1.418123 v -0.40558 h 2.954883 z m -1.660915,-1.24707 q 0,-0.15726 0.09381,-0.25383 0.09105,-0.0993 0.240032,-0.0993 0.06898,0 0.132432,0.0276 0.0607,0.0276 0.107601,0.0772 0.0469,0.0469 0.07449,0.11312 0.02483,0.0635 0.02483,0.14071 0,0.15726 -0.09105,0.25383 -0.09381,0.0966 -0.242792,0.0966 -0.07173,0 -0.132431,-0.0248 -0.06346,-0.0276 -0.107601,-0.0745 -0.0469,-0.0497 -0.07173,-0.11312 -0.02759,-0.0662 -0.02759,-0.14347 z m 5.18415,1.24707 h -0.579388 v 3.70808 h -0.452475 v -3.70808 h -1.244307 v 2.14097 q 0,0.0442 -0.0055,0.10209 -0.0055,0.0579 -0.02759,0.11312 -0.01931,0.0524 -0.05794,0.091 -0.03863,0.0359 -0.1076,0.0359 -0.07449,0 -0.16554,-0.0469 -0.08829,-0.0497 -0.182094,-0.12692 -0.09381,-0.08 -0.182093,-0.17933 -0.08553,-0.0993 -0.154504,-0.20417 -0.06897,-0.10484 -0.11036,-0.20416 -0.04138,-0.0993 -0.04138,-0.17658 0,-0.069 0.03311,-0.11036 0.03587,-0.0414 0.09656,-0.0635 0.06346,-0.0221 0.151745,-0.0276 0.09105,-0.006 0.198647,-0.006 h 0.09656 v -1.33811 h -0.982202 v -0.40558 h 3.716365 z m 1.467785,0 H 96.05501 v 3.70808 h -0.452475 v -3.70808 h -0.629051 v -0.40558 h 1.660915 z m 3.457021,0 h -0.57939 v 3.70808 h -0.449716 v -2.42239 h -0.896673 q -0.184853,0 -0.333839,0.0248 -0.148985,0.0221 -0.253827,0.0938 -0.104842,0.069 -0.162781,0.19589 -0.05518,0.12416 -0.05518,0.32832 0,0.26487 0.08553,0.48834 0.08829,0.22348 0.223479,0.41109 0.135191,0.18486 0.297971,0.34212 0.16554,0.15726 0.317285,0.28969 l -0.2759,0.31453 q -0.02483,-0.0138 -0.118637,-0.08 -0.09105,-0.069 -0.215201,-0.18485 -0.121396,-0.11588 -0.259346,-0.28142 -0.13519,-0.16554 -0.251068,-0.37247 -0.113119,-0.20968 -0.190371,-0.46075 -0.07449,-0.25107 -0.07449,-0.54076 0,-0.28694 0.08001,-0.47455 0.08277,-0.19037 0.231756,-0.30073 0.148985,-0.11312 0.361428,-0.15726 0.212443,-0.0441 0.474547,-0.0441 h 1.01531 v -0.87736 h -2.621045 v -0.40558 h 3.650151 z m 0.77528,3.07903 -0.44144,1.35743 h -0.32281 l 0.32281,-1.35743 z m 5.39935,-3.07903 h -0.57939 v 3.70808 h -0.45524 v -1.3188 l -0.011,-0.003 q -0.18485,0.16554 -0.41385,0.23727 -0.229,0.069 -0.45248,0.069 -0.23727,0 -0.43316,-0.069 -0.19589,-0.069 -0.33659,-0.20968 -0.14071,-0.14347 -0.22072,-0.35867 -0.0773,-0.21796 -0.0773,-0.51594 v -1.53951 h -0.61525 v -0.40558 h 3.59497 z m -1.03463,0 h -1.49813 v 1.51468 q 0,0.17382 0.0276,0.31177 0.0303,0.13795 0.0993,0.23451 0.0717,0.0966 0.18762,0.14899 0.11587,0.0497 0.28969,0.0497 0.28418,0 0.51317,-0.13243 0.229,-0.13519 0.38074,-0.35315 z m 7.14304,0 h -0.57939 v 3.70808 h -0.45247 v -1.29121 l -0.011,-0.003 q -0.0745,0.0607 -0.17933,0.12139 -0.10209,0.0579 -0.229,0.10484 -0.12691,0.0442 -0.27314,0.0745 -0.14623,0.0276 -0.30625,0.0276 -0.25934,0 -0.45799,-0.0773 -0.19865,-0.08 -0.34488,-0.21244 -0.14622,-0.13519 -0.24831,-0.31728 -0.0993,-0.1821 -0.16002,-0.38902 h -0.0938 q -0.46903,0 -0.84701,-0.0966 -0.37523,-0.0966 -0.67596,-0.27038 -0.12139,0.0828 -0.23175,0.17382 -0.11036,0.091 -0.19589,0.20416 -0.0828,0.11036 -0.13243,0.24831 -0.0497,0.13519 -0.0497,0.30901 0,0.0993 0.0248,0.22348 0.0276,0.12415 0.1076,0.23727 0.08,0.11036 0.22899,0.18762 0.15175,0.0745 0.40006,0.0745 0.0883,0 0.17381,-0.011 0.0883,-0.011 0.15175,-0.0359 -0.011,-0.0524 -0.0166,-0.10485 -0.006,-0.0552 -0.006,-0.11312 0,-0.12415 0.0276,-0.2483 0.0303,-0.12416 0.0883,-0.22072 0.0607,-0.0993 0.15175,-0.16003 0.091,-0.0607 0.21244,-0.0607 0.0938,0 0.16278,0.0359 0.069,0.0359 0.11588,0.0966 0.0469,0.0607 0.069,0.14347 0.0248,0.08 0.0248,0.17105 0,0.10209 -0.0276,0.19589 -0.0276,0.0938 -0.0745,0.17658 -0.0441,0.08 -0.10484,0.15174 -0.0579,0.069 -0.12415,0.12692 0.0524,0.11863 0.11036,0.21244 0.0579,0.091 0.11863,0.16554 0.0635,0.0717 0.12692,0.13243 0.0662,0.0579 0.12967,0.11036 l -0.33936,0.35591 q -0.12691,-0.11864 -0.21796,-0.23727 -0.0883,-0.11588 -0.14898,-0.21796 -0.0607,-0.10209 -0.0993,-0.18486 -0.0386,-0.0828 -0.0635,-0.13243 -0.091,0.0386 -0.20693,0.0552 -0.11312,0.0138 -0.21244,0.0138 -0.27038,0 -0.49662,-0.0855 -0.22348,-0.0883 -0.3835,-0.24555 -0.16002,-0.15727 -0.24831,-0.37523 -0.0883,-0.22072 -0.0883,-0.48282 0,-0.22624 0.0607,-0.3973 0.0635,-0.17381 0.16278,-0.30624 0.0993,-0.13519 0.22624,-0.23728 0.12691,-0.10484 0.25659,-0.19037 v -0.008 q -0.18486,-0.17381 -0.28142,-0.36418 -0.0966,-0.19313 -0.0966,-0.40282 0,-0.18485 0.0635,-0.33383 0.0662,-0.15175 0.17658,-0.25935 0.11036,-0.1076 0.25382,-0.16554 0.14347,-0.0607 0.29797,-0.0607 0.15175,0 0.29246,0.0552 0.14071,0.0552 0.25107,0.16002 0.11036,0.10209 0.17657,0.25383 0.0662,0.14899 0.0662,0.3366 0,0.14071 -0.0414,0.25935 -0.0414,0.11587 -0.11588,0.21244 -0.0717,0.0966 -0.16829,0.17933 -0.0966,0.08 -0.20693,0.14899 v 0.008 q 0.1076,0.0497 0.23176,0.0883 0.12415,0.0386 0.25107,0.0662 0.12967,0.0248 0.25658,0.0386 0.12967,0.0138 0.24555,0.0138 0.18486,0 0.34764,-0.0359 0.16278,-0.0359 0.28417,-0.11036 0.1214,-0.0773 0.19037,-0.19313 0.069,-0.11863 0.069,-0.28141 0,-0.0662 -0.0138,-0.14899 -0.011,-0.0828 -0.0414,-0.17658 -0.0303,-0.0966 -0.08,-0.2014 -0.0497,-0.10484 -0.12416,-0.21244 h -0.79735 v -0.40558 h 3.70809 z m -2.4224,0 q 0.0993,0.16829 0.15451,0.3697 0.0579,0.19865 0.0579,0.39178 0,0.14071 -0.0386,0.27314 -0.0359,0.13243 -0.11312,0.24831 -0.0773,0.11312 -0.19313,0.20416 -0.11312,0.0883 -0.26486,0.14071 0.0441,0.18485 0.12139,0.31729 0.0773,0.12967 0.1821,0.2152 0.10484,0.0828 0.23451,0.12139 0.12968,0.0386 0.27866,0.0386 0.14347,0 0.28142,-0.0331 0.14071,-0.0331 0.26486,-0.0938 0.12692,-0.0635 0.23452,-0.15175 0.1076,-0.0883 0.19037,-0.19865 v -1.843 z m -2.38653,0.8746 q 0.0773,-0.0524 0.14623,-0.1076 0.069,-0.0552 0.11864,-0.11864 0.0524,-0.0662 0.08,-0.14071 0.0303,-0.0745 0.0303,-0.16554 0,-0.0855 -0.0276,-0.1545 -0.0248,-0.0717 -0.0745,-0.1214 -0.0469,-0.0524 -0.11036,-0.08 -0.0634,-0.0276 -0.13794,-0.0276 -0.0552,0 -0.11588,0.0193 -0.0607,0.0166 -0.11588,0.0635 -0.0524,0.0441 -0.0883,0.1214 -0.0331,0.0745 -0.0331,0.19037 0,0.17381 0.069,0.31452 0.069,0.14071 0.18761,0.25107 z m 6.27672,-0.8746 h -0.57939 v 3.70808 h -0.45248 v -3.70808 h -0.62905 v -0.40558 h 1.66092 z m -1.20017,-1.24707 q 0,-0.15726 0.0938,-0.25383 0.091,-0.0993 0.24003,-0.0993 0.069,0 0.13243,0.0276 0.0607,0.0276 0.1076,0.0772 0.0469,0.0469 0.0745,0.11312 0.0248,0.0635 0.0248,0.14071 0,0.15726 -0.091,0.25383 -0.0938,0.0966 -0.24279,0.0966 -0.0717,0 -0.13243,-0.0248 -0.0635,-0.0276 -0.1076,-0.0745 -0.0469,-0.0497 -0.0717,-0.11312 -0.0276,-0.0662 -0.0276,-0.14347 z m 3.49289,1.24707 h -2.48585 v -0.40558 h 2.48585 z m 0.66216,2.37549 q -0.19313,0.19865 -0.37246,0.31177 -0.17658,0.11311 -0.32833,0.16829 -0.14898,0.0552 -0.26486,0.069 -0.11312,0.011 -0.17933,0.011 -0.25383,0 -0.44972,-0.08 -0.19589,-0.08 -0.32832,-0.20968 -0.13243,-0.13243 -0.20141,-0.30073 -0.069,-0.17106 -0.069,-0.35315 0,-0.19037 0.0773,-0.37798 0.08,-0.18761 0.24831,-0.3366 l -0.003,-0.011 h -0.8746 v -0.40557 h 2.16305 v 0.40557 h -0.22899 q -0.28418,0 -0.46627,0.0745 -0.1821,0.0745 -0.28694,0.18209 -0.10484,0.1076 -0.14623,0.23176 -0.0386,0.12139 -0.0386,0.22072 0,0.0828 0.0276,0.17933 0.0276,0.0938 0.091,0.17382 0.0662,0.08 0.17382,0.13243 0.11036,0.0524 0.2759,0.0524 0.17382,0 0.3228,-0.0552 0.15175,-0.0579 0.27866,-0.14623 0.12691,-0.0883 0.229,-0.19589 0.10484,-0.1076 0.17933,-0.21244 z m 2.90798,-2.37549 h -0.57939 v 3.70808 h -0.45247 v -1.29121 l -0.011,-0.003 q -0.0745,0.0607 -0.17934,0.12139 -0.10208,0.0579 -0.22899,0.10484 -0.12692,0.0442 -0.27314,0.0745 -0.14623,0.0276 -0.30625,0.0276 -0.32004,0 -0.54904,-0.11588 -0.22624,-0.11588 -0.38074,-0.30901 -0.15175,-0.19589 -0.24003,-0.4442 -0.0883,-0.25107 -0.12692,-0.52145 0.1821,-0.0248 0.31177,-0.0855 0.12967,-0.0607 0.20968,-0.14346 0.08,-0.0855 0.11588,-0.18486 0.0386,-0.0993 0.0386,-0.19864 0,-0.0662 -0.0138,-0.14899 -0.011,-0.0828 -0.0414,-0.17658 -0.0303,-0.0966 -0.08,-0.2014 -0.0497,-0.10484 -0.12416,-0.21244 h -0.79735 v -0.40558 h 3.70809 z m -2.4224,0 q 0.0993,0.16829 0.15451,0.3697 0.0579,0.19865 0.0579,0.39178 0,0.14071 -0.0386,0.27314 -0.0359,0.13243 -0.11312,0.24831 -0.0773,0.11312 -0.19313,0.20416 -0.11312,0.0883 -0.26486,0.14071 0.0441,0.18485 0.12139,0.31729 0.0772,0.12967 0.1821,0.2152 0.10484,0.0828 0.23451,0.12139 0.12967,0.0386 0.27866,0.0386 0.14347,0 0.28142,-0.0331 0.14071,-0.0331 0.26486,-0.0938 0.12691,-0.0635 0.23451,-0.15175 0.10761,-0.0883 0.19038,-0.19865 v -1.843 z m 3.89018,0 h -0.57939 v 3.70808 h -0.45247 v -3.70808 h -0.62905 v -0.40558 h 1.66091 z m 5.07103,0 h -0.57939 v 3.70808 h -0.45247 v -3.70808 h -1.24431 v 2.14097 q 0,0.0442 -0.006,0.10209 -0.006,0.0579 -0.0276,0.11312 -0.0193,0.0524 -0.0579,0.091 -0.0386,0.0359 -0.1076,0.0359 -0.0745,0 -0.16554,-0.0469 -0.0883,-0.0497 -0.1821,-0.12692 -0.0938,-0.08 -0.18209,-0.17933 -0.0855,-0.0993 -0.15451,-0.20417 -0.069,-0.10484 -0.11036,-0.20416 -0.0414,-0.0993 -0.0414,-0.17658 0,-0.069 0.0331,-0.11036 0.0359,-0.0414 0.0966,-0.0635 0.0635,-0.0221 0.15175,-0.0276 0.091,-0.006 0.19864,-0.006 h 0.0966 v -1.33811 h -0.9822 v -0.40558 h 3.71636 z m 1.46779,0 h -0.57939 v 3.70808 h -0.45248 v -3.70808 h -0.62905 v -0.40558 h 0.6732 q -0.0497,-0.28141 -0.12692,-0.48006 -0.0773,-0.20141 -0.16829,-0.33384 -0.0911,-0.13519 -0.19038,-0.21244 -0.0993,-0.0773 -0.19037,-0.11588 -0.0938,-0.0386 -0.17381,-0.0497 -0.0828,-0.011 -0.13519,-0.011 -0.17106,0 -0.27314,0.0552 -0.10485,0.0524 -0.16003,0.12692 -0.0552,0.0745 -0.0717,0.15726 -0.0193,0.08 -0.0193,0.13795 0,0.0221 0.008,0.091 0.006,0.0662 0.0442,0.1683 0.0359,0.10209 0.11312,0.229 0.0773,0.12691 0.21796,0.26762 h -0.46903 q -0.17382,-0.19865 -0.25935,-0.41109 -0.0883,-0.2152 -0.0883,-0.41661 0,-0.16829 0.0607,-0.32004 0.0607,-0.15174 0.1821,-0.2621 0.12139,-0.11312 0.30349,-0.17934 0.18209,-0.0662 0.42212,-0.0662 0.33108,0 0.57111,0.12967 0.24004,0.12691 0.40282,0.34763 0.16554,0.22072 0.25934,0.51869 0.0966,0.29521 0.13519,0.62905 h 0.59319 z m 3.45702,0 h -0.57939 v 3.70808 h -0.44972 v -2.42239 h -0.89667 q -0.18485,0 -0.33384,0.0248 -0.14898,0.0221 -0.25383,0.0938 -0.10484,0.069 -0.16278,0.19589 -0.0552,0.12416 -0.0552,0.32832 0,0.26487 0.0855,0.48834 0.0883,0.22348 0.22348,0.41109 0.13519,0.18486 0.29797,0.34212 0.16554,0.15726 0.31729,0.28969 l -0.2759,0.31453 q -0.0248,-0.0138 -0.11864,-0.08 -0.091,-0.069 -0.2152,-0.18485 -0.1214,-0.11588 -0.25935,-0.28142 -0.13519,-0.16554 -0.25107,-0.37247 -0.11311,-0.20968 -0.19037,-0.46075 -0.0745,-0.25107 -0.0745,-0.54076 0,-0.28694 0.08,-0.47455 0.0828,-0.19037 0.23176,-0.30073 0.14898,-0.11312 0.36143,-0.15726 0.21244,-0.0441 0.47454,-0.0441 h 1.01531 v -0.87736 h -2.62104 v -0.40558 h 3.65015 z m 1.46778,0 h -0.57939 v 3.70808 h -0.45247 v -3.70808 h -0.62905 v -0.40558 h 1.66091 z m 3.45702,0 h -0.57939 v 3.70808 h -0.44971 v -2.42239 h -0.89668 q -0.18485,0 -0.33383,0.0248 -0.14899,0.0221 -0.25383,0.0938 -0.10484,0.069 -0.16278,0.19589 -0.0552,0.12416 -0.0552,0.32832 0,0.26487 0.0855,0.48834 0.0883,0.22348 0.22348,0.41109 0.13519,0.18486 0.29797,0.34212 0.16554,0.15726 0.31728,0.28969 l -0.2759,0.31453 q -0.0248,-0.0138 -0.11864,-0.08 -0.091,-0.069 -0.2152,-0.18485 -0.12139,-0.11588 -0.25934,-0.28142 -0.13519,-0.16554 -0.25107,-0.37247 -0.11312,-0.20968 -0.19037,-0.46075 -0.0745,-0.25107 -0.0745,-0.54076 0,-0.28694 0.08,-0.47455 0.0828,-0.19037 0.23175,-0.30073 0.14899,-0.11312 0.36143,-0.15726 0.21244,-0.0441 0.47455,-0.0441 h 1.01531 v -0.87736 h -2.62105 v -0.40558 h 3.65015 z"
         id="path5" /><path
         d="m 69.990792,121.45711 q 0.04139,0.12967 0.09656,0.28417 0.05518,0.15175 0.129672,0.30901 0.07725,0.1545 0.171058,0.30073 0.09656,0.14623 0.217961,0.25935 0.124154,0.11311 0.27314,0.18209 0.148986,0.0662 0.331079,0.0662 0.179335,0 0.30349,-0.0524 0.124154,-0.0524 0.201406,-0.1407 0.07725,-0.0883 0.11036,-0.20693 0.03587,-0.11864 0.03587,-0.24831 0,-0.28417 -0.206925,-0.4442 -0.204165,-0.16002 -0.593183,-0.16002 -0.0469,0 -0.09381,0.003 -0.0469,0.003 -0.09381,0.008 v -0.41937 q 0.02207,0.003 0.03863,0.003 0.01931,0 0.02207,0 0.193129,0 0.342115,-0.0469 0.151745,-0.0497 0.253828,-0.13243 0.102082,-0.0828 0.154503,-0.19313 0.05242,-0.11036 0.05242,-0.23176 0,-0.11036 -0.03863,-0.19589 -0.03863,-0.0855 -0.104842,-0.14347 -0.06621,-0.0579 -0.157262,-0.0855 -0.09105,-0.0303 -0.198648,-0.0303 -0.07449,0 -0.143467,0.011 -0.06898,0.008 -0.146227,0.0303 -0.07725,0.0193 -0.16554,0.0524 -0.08553,0.0331 -0.195888,0.0828 l -0.157263,-0.37798 q 0.215201,-0.10484 0.413849,-0.15726 0.198648,-0.0552 0.405572,-0.0552 0.198648,0 0.366946,0.0635 0.171058,0.0635 0.292454,0.17658 0.124155,0.11036 0.193129,0.26486 0.06897,0.15451 0.06897,0.33384 0,0.49386 -0.471788,0.79459 v 0.011 q 0.184853,0.0773 0.309008,0.19037 0.08001,0.0138 0.168298,0.0221 0.09105,0.008 0.16554,0.008 0.07725,0 0.162781,-0.011 0.08553,-0.011 0.173816,-0.0414 0.09105,-0.0303 0.182094,-0.0855 0.09381,-0.0552 0.187611,-0.14347 v -1.52848 h 1.031864 v 0.40557 h -0.579389 v 3.70809 h -0.452475 v -2.09684 l -0.01104,-0.003 q -0.157262,0.10484 -0.295212,0.13795 -0.13795,0.0331 -0.284176,0.0331 -0.0469,0 -0.09657,-0.003 -0.04966,-0.006 -0.102083,-0.011 l -0.0028,0.011 q 0.04414,0.11312 0.04414,0.27866 0,0.22348 -0.07449,0.41385 -0.07449,0.19037 -0.215201,0.33108 -0.13795,0.13795 -0.336598,0.2152 -0.195888,0.0772 -0.441439,0.0772 -0.262104,0 -0.474547,-0.091 -0.209683,-0.0938 -0.380741,-0.24003 -0.168299,-0.14622 -0.295212,-0.32832 -0.126914,-0.18485 -0.217961,-0.3697 -0.09105,-0.18486 -0.148986,-0.3504 -0.05794,-0.16829 -0.08553,-0.27865 z m 5.556614,-1.26914 h -0.579389 v 3.70809 h -0.452475 v -3.70809 h -0.62905 v -0.40557 h 1.660914 z m 3.432189,0 h -0.579389 v 3.70809 h -0.455234 v -2.12719 h -1.291209 q 0,0.1821 -0.0055,0.31177 -0.0028,0.12967 -0.02207,0.2152 -0.01931,0.0828 -0.05794,0.1214 -0.03863,0.0386 -0.107601,0.0386 -0.143467,0 -0.27314,-0.0938 -0.126914,-0.0938 -0.226238,-0.22624 -0.09656,-0.13243 -0.154503,-0.2759 -0.05794,-0.14347 -0.05794,-0.24279 0,-0.0883 0.03863,-0.13795 0.03863,-0.0497 0.102083,-0.0745 0.06346,-0.0248 0.143467,-0.0303 0.08277,-0.006 0.16554,-0.006 h 1.746443 v -1.18085 h -2.590695 v -0.40557 h 3.625318 z m -1.144983,-1.24707 q 0,-0.15726 0.09381,-0.25382 0.09105,-0.0993 0.240032,-0.0993 0.06897,0 0.132432,0.0276 0.0607,0.0276 0.107601,0.0772 0.0469,0.0469 0.07449,0.11312 0.02483,0.0635 0.02483,0.14071 0,0.15726 -0.09105,0.25383 -0.09381,0.0966 -0.242792,0.0966 -0.07173,0 -0.132431,-0.0248 -0.06346,-0.0276 -0.107601,-0.0745 -0.0469,-0.0497 -0.07173,-0.11312 -0.02759,-0.0662 -0.02759,-0.14347 z m 4.6627,1.24707 h -0.935299 v 1.2112 h -0.929781 q -0.433162,0 -0.653881,0.2152 -0.22072,0.21244 -0.22072,0.6125 0,0.22623 0.07173,0.40005 0.07449,0.17382 0.201407,0.29245 0.129672,0.11588 0.306248,0.17658 0.176576,0.0607 0.3835,0.0607 0.217961,0 0.350392,-0.0662 -0.01104,-0.069 -0.01655,-0.12139 -0.0055,-0.0524 -0.0055,-0.10485 0,-0.11587 0.02759,-0.23727 0.03035,-0.12415 0.08829,-0.22348 0.0607,-0.10208 0.151745,-0.16554 0.09381,-0.0635 0.223478,-0.0635 0.08001,0 0.151745,0.0276 0.07173,0.0276 0.124155,0.0855 0.05518,0.0552 0.08553,0.14071 0.03311,0.0855 0.03311,0.19865 0,0.11312 -0.03035,0.20968 -0.03035,0.0938 -0.08001,0.17658 -0.0469,0.08 -0.107601,0.15174 -0.0607,0.069 -0.118637,0.12692 0.0607,0.13243 0.126914,0.23727 0.06897,0.10484 0.140709,0.18761 0.07449,0.0828 0.148985,0.14899 0.07449,0.0662 0.148986,0.12415 l -0.339356,0.35591 q -0.146227,-0.12967 -0.251069,-0.25934 -0.102082,-0.12692 -0.173816,-0.24003 -0.06897,-0.11312 -0.113119,-0.20417 -0.04414,-0.091 -0.07173,-0.14623 -0.190371,0.0745 -0.469029,0.0745 -0.358669,0 -0.626292,-0.11588 -0.267622,-0.11864 -0.446957,-0.31453 -0.176575,-0.19864 -0.264863,-0.45247 -0.08829,-0.25383 -0.08829,-0.52697 0,-0.28418 0.09105,-0.49938 0.09105,-0.21796 0.253827,-0.36419 0.162781,-0.14898 0.386259,-0.22347 0.226238,-0.0773 0.49386,-0.0773 h 0.565594 v -0.80838 h -2.323073 v -0.40557 h 3.710847 z m 1.467785,0 h -0.579389 v 3.70809 h -0.452475 v -3.70809 h -0.62905 v -0.40557 h 1.660914 z m 3.821207,0 h -0.579389 v 3.70809 h -0.457993 v -1.16154 l -0.01104,-0.008 q -0.151744,0.13795 -0.297971,0.21796 -0.143468,0.0773 -0.270382,0.11864 -0.124154,0.0386 -0.226237,0.0497 -0.102083,0.011 -0.168299,0.011 -0.253827,0 -0.449716,-0.08 -0.195888,-0.08 -0.32832,-0.20969 -0.132432,-0.13243 -0.201407,-0.30073 -0.06897,-0.17105 -0.06897,-0.35315 0,-0.19037 0.07725,-0.37798 0.08001,-0.18761 0.24831,-0.3366 l -0.0028,-0.011 h -0.874601 v -0.40557 h 2.218231 v 0.40557 h -0.284177 q -0.284176,0 -0.46627,0.0745 -0.182093,0.0745 -0.286935,0.18209 -0.104842,0.1076 -0.146227,0.23176 -0.03863,0.12139 -0.03863,0.22072 0,0.0828 0.02759,0.17933 0.02759,0.0938 0.09105,0.17382 0.06622,0.08 0.173817,0.13243 0.11036,0.0524 0.275899,0.0524 0.173817,0 0.322803,-0.0552 0.151744,-0.0579 0.278658,-0.14898 0.126914,-0.091 0.228997,-0.20417 0.104841,-0.11588 0.179334,-0.229 v -1.87611 h -2.976955 v -0.40557 h 4.014337 z m 1.467785,0 H 88.6747 v 3.70809 h -0.452475 v -3.70809 h -0.629051 v -0.40557 h 1.660915 z m 5.617313,-0.40557 v 0.40557 h -0.579389 v 3.70809 H 93.83402 v -1.85405 h -1.597458 q -0.146227,0.0966 -0.350392,0.11588 l -0.0055,0.0138 q 0.267622,0.41936 0.587666,0.78079 0.320043,0.36143 0.728374,0.67044 l -0.295212,0.33935 q -0.234515,-0.17381 -0.446957,-0.37522 -0.209684,-0.20141 -0.397295,-0.41661 -0.184853,-0.21796 -0.347634,-0.43868 -0.16278,-0.22348 -0.297971,-0.43868 -0.135191,-0.2152 -0.242792,-0.41385 -0.1076,-0.2014 -0.187611,-0.37246 l 0.377982,-0.20417 q 0.05242,0.1214 0.102083,0.20417 0.05242,0.08 0.104842,0.12967 0.05242,0.0469 0.110359,0.069 0.05794,0.0193 0.124155,0.0193 0.190371,0 0.278658,-0.14899 0.09105,-0.14898 0.09105,-0.39177 0,-0.14347 -0.02759,-0.28142 -0.02759,-0.14071 -0.07173,-0.26762 -0.04138,-0.12968 -0.09105,-0.2428 -0.04966,-0.11311 -0.09381,-0.20416 h -1.277414 v -0.40557 z m -1.037382,0.40557 h -1.470544 q 0.115878,0.25107 0.182094,0.50489 0.06621,0.25383 0.06621,0.5049 0,0.11588 -0.01931,0.229 -0.01655,0.11036 -0.05794,0.20968 l 0.0055,0.006 h 1.293968 z m 2.505167,0 h -0.579389 v 3.70809 h -0.452475 v -3.70809 h -0.62905 v -0.40557 h 1.660914 z m 3.523236,0 h -0.579389 v 3.70809 h -0.452475 v -3.70809 h -1.244306 v 2.14098 q 0,0.0441 -0.0055,0.10208 -0.0055,0.0579 -0.02759,0.11312 -0.01931,0.0524 -0.05794,0.091 -0.03863,0.0359 -0.107601,0.0359 -0.07449,0 -0.16554,-0.0469 -0.08829,-0.0497 -0.182093,-0.12691 -0.09381,-0.08 -0.182094,-0.17934 -0.08553,-0.0993 -0.154504,-0.20416 -0.06897,-0.10484 -0.110359,-0.20417 -0.04138,-0.0993 -0.04138,-0.17657 0,-0.069 0.03311,-0.11036 0.03587,-0.0414 0.09656,-0.0635 0.06346,-0.0221 0.151745,-0.0276 0.09105,-0.006 0.198648,-0.006 h 0.09656 v -1.33811 h -0.982202 v -0.40557 h 3.716365 z m 2.761757,0 h -1.04015 q 0.14071,0.24279 0.22624,0.49662 0.0883,0.25107 0.0883,0.51041 0,0.19589 -0.0607,0.37798 -0.0579,0.17934 -0.17381,0.32281 -0.11312,0.14071 -0.28418,0.23175 -0.1683,0.0883 -0.38902,0.0993 l -0.006,0.0138 q 0.24831,0.38626 0.55732,0.73113 0.30901,0.34212 0.71458,0.65113 l -0.29521,0.33935 q -0.23452,-0.17381 -0.44696,-0.37522 -0.20968,-0.20417 -0.3973,-0.41937 -0.18761,-0.21796 -0.35039,-0.43868 -0.16002,-0.22348 -0.29521,-0.43316 -0.13243,-0.21244 -0.23727,-0.40557 -0.10485,-0.19589 -0.17934,-0.35591 l 0.37798,-0.20417 q 0.0993,0.2152 0.22348,0.33936 0.12692,0.12139 0.29246,0.12139 0.11863,0 0.21244,-0.0607 0.0938,-0.0607 0.15726,-0.15451 0.0635,-0.0966 0.0966,-0.20968 0.0331,-0.11588 0.0331,-0.22624 0,-0.12967 -0.0331,-0.25383 -0.0331,-0.12691 -0.0855,-0.24555 -0.0524,-0.12139 -0.11864,-0.23451 -0.0635,-0.11312 -0.12415,-0.21796 h -1.418127 v -0.40557 h 2.954887 z m 5.00481,0 h -0.57939 v 3.70809 h -0.44972 v -2.4224 h -0.89667 q -0.18485,0 -0.33384,0.0248 -0.14898,0.0221 -0.25382,0.0938 -0.10485,0.069 -0.16278,0.19589 -0.0552,0.12415 -0.0552,0.32832 0,0.26486 0.0855,0.48834 0.0883,0.22348 0.22348,0.41109 0.13519,0.18485 0.29797,0.34211 0.16554,0.15727 0.31729,0.2897 l -0.2759,0.31452 q -0.0248,-0.0138 -0.11864,-0.08 -0.091,-0.069 -0.2152,-0.18485 -0.1214,-0.11588 -0.25934,-0.28142 -0.1352,-0.16554 -0.25107,-0.37246 -0.11312,-0.20969 -0.19037,-0.46075 -0.0745,-0.25107 -0.0745,-0.54077 0,-0.28693 0.08,-0.47454 0.0828,-0.19037 0.23176,-0.30073 0.14899,-0.11312 0.36143,-0.15727 0.21244,-0.0441 0.47454,-0.0441 h 1.01531 v -0.87736 h -2.62104 v -0.40557 h 3.65015 z m 1.46778,0 h -0.57938 v 3.70809 h -0.45248 v -3.70809 h -0.62905 v -0.40557 h 0.67319 q -0.0497,-0.28142 -0.12691,-0.48007 -0.0773,-0.2014 -0.1683,-0.33384 -0.091,-0.13519 -0.19037,-0.21244 -0.0993,-0.0773 -0.19037,-0.11588 -0.0938,-0.0386 -0.17382,-0.0497 -0.0828,-0.011 -0.13519,-0.011 -0.17105,0 -0.27314,0.0552 -0.10484,0.0524 -0.16002,0.12691 -0.0552,0.0745 -0.0717,0.15726 -0.0193,0.08 -0.0193,0.13795 0,0.0221 0.008,0.091 0.006,0.0662 0.0442,0.1683 0.0359,0.10208 0.11311,0.22899 0.0773,0.12692 0.21797,0.26763 h -0.46903 q -0.17382,-0.19865 -0.25935,-0.41109 -0.0883,-0.21521 -0.0883,-0.41661 0,-0.1683 0.0607,-0.32005 0.0607,-0.15174 0.18209,-0.2621 0.1214,-0.11312 0.30349,-0.17934 0.1821,-0.0662 0.42213,-0.0662 0.33108,0 0.57111,0.12967 0.24003,0.12692 0.40281,0.34764 0.16554,0.22071 0.25935,0.51869 0.0966,0.29521 0.13519,0.62905 h 0.59318 z m 5.59801,0 h -0.57939 v 3.70809 h -0.45248 v -1.5478 h -1.44847 v 0.39454 q 0,0.0414 -0.008,0.0883 -0.006,0.0469 -0.0276,0.0883 -0.0193,0.0386 -0.0552,0.0662 -0.0331,0.0248 -0.0855,0.0248 -0.0634,0 -0.15174,-0.0386 -0.0855,-0.0414 -0.17933,-0.1076 -0.091,-0.069 -0.1821,-0.1545 -0.0883,-0.0883 -0.16002,-0.18209 -0.069,-0.0938 -0.11312,-0.18762 -0.0441,-0.0938 -0.0441,-0.17381 0,-0.11588 0.0828,-0.1683 0.0828,-0.0524 0.21796,-0.0524 h 0.26762 v -1.51469 q 0,-0.14347 -0.069,-0.21796 -0.069,-0.0773 -0.17382,-0.0773 -0.11588,0 -0.19589,0.0855 -0.0773,0.0855 -0.0773,0.21796 0,0.0248 0.006,0.0607 0.006,0.0359 0.0276,0.0828 0.0221,0.0441 0.0662,0.10208 0.0442,0.0552 0.11864,0.11863 l -0.24555,0.30073 q -0.12692,-0.069 -0.20693,-0.15174 -0.08,-0.0855 -0.12415,-0.17382 -0.0441,-0.0883 -0.0607,-0.17105 -0.0165,-0.0855 -0.0165,-0.15727 0,-0.13243 0.0441,-0.25934 0.0469,-0.12967 0.13795,-0.23176 0.091,-0.10484 0.22624,-0.1683 0.13795,-0.0635 0.32004,-0.0635 0.16002,0 0.28418,0.0524 0.12415,0.0524 0.20692,0.15174 0.0855,0.0966 0.12692,0.23452 0.0441,0.13519 0.0441,0.30349 v 1.47606 h 1.44847 v -2.16305 h 1.03187 z m 2.76175,0 h -1.04014 q 0.14071,0.24279 0.22623,0.49662 0.0883,0.25107 0.0883,0.51041 0,0.19589 -0.0607,0.37798 -0.0579,0.17934 -0.17381,0.32281 -0.11312,0.14071 -0.28418,0.23175 -0.1683,0.0883 -0.38902,0.0993 l -0.006,0.0138 q 0.24831,0.38626 0.55732,0.73113 0.30901,0.34212 0.71458,0.65113 l -0.29521,0.33935 q -0.23452,-0.17381 -0.44696,-0.37522 -0.20968,-0.20417 -0.39729,-0.41937 -0.18762,-0.21796 -0.3504,-0.43868 -0.16002,-0.22348 -0.29521,-0.43316 -0.13243,-0.21244 -0.23727,-0.40557 -0.10484,-0.19589 -0.17934,-0.35591 l 0.37799,-0.20417 q 0.0993,0.2152 0.22347,0.33936 0.12692,0.12139 0.29246,0.12139 0.11863,0 0.21244,-0.0607 0.0938,-0.0607 0.15726,-0.15451 0.0635,-0.0966 0.0966,-0.20968 0.0331,-0.11588 0.0331,-0.22624 0,-0.12967 -0.0331,-0.25383 -0.0331,-0.12691 -0.0855,-0.24555 -0.0524,-0.12139 -0.11864,-0.23451 -0.0635,-0.11312 -0.12415,-0.21796 h -1.41813 v -0.40557 h 2.95489 z m 4.0502,0 h -0.57939 v 3.70809 h -0.45247 v -1.5478 h -1.44848 v 0.39454 q 0,0.0414 -0.008,0.0883 -0.006,0.0469 -0.0276,0.0883 -0.0193,0.0386 -0.0552,0.0662 -0.0331,0.0248 -0.0855,0.0248 -0.0635,0 -0.15175,-0.0386 -0.0855,-0.0414 -0.17933,-0.1076 -0.091,-0.069 -0.18209,-0.1545 -0.0883,-0.0883 -0.16003,-0.18209 -0.069,-0.0938 -0.11311,-0.18762 -0.0441,-0.0938 -0.0441,-0.17381 0,-0.11588 0.0828,-0.1683 0.0828,-0.0524 0.21796,-0.0524 h 0.26762 v -1.51469 q 0,-0.14347 -0.069,-0.21796 -0.069,-0.0773 -0.17382,-0.0773 -0.11587,0 -0.19589,0.0855 -0.0772,0.0855 -0.0772,0.21796 0,0.0248 0.006,0.0607 0.006,0.0359 0.0276,0.0828 0.0221,0.0441 0.0662,0.10208 0.0441,0.0552 0.11863,0.11863 l -0.24555,0.30073 q -0.12691,-0.069 -0.20692,-0.15174 -0.08,-0.0855 -0.12416,-0.17382 -0.0441,-0.0883 -0.0607,-0.17105 -0.0166,-0.0855 -0.0166,-0.15727 0,-0.13243 0.0442,-0.25934 0.0469,-0.12967 0.13795,-0.23176 0.091,-0.10484 0.22623,-0.1683 0.13795,-0.0635 0.32005,-0.0635 0.16002,0 0.28417,0.0524 0.12416,0.0524 0.20693,0.15174 0.0855,0.0966 0.12691,0.23452 0.0441,0.13519 0.0441,0.30349 v 1.47606 h 1.44848 v -2.16305 h 1.03186 z m 5.52075,0 h -3.79914 q 0.13244,0.23451 0.21797,0.47179 0.0855,0.23451 0.0938,0.48558 0.12416,0.008 0.23452,0.0386 0.11311,0.0303 0.21796,0.0772 0.14071,-0.17382 0.35867,-0.25935 0.22072,-0.0855 0.46351,-0.0855 0.23451,0 0.43868,0.0773 0.20692,0.0745 0.3835,0.19864 0.17657,0.12416 0.3228,0.28142 0.14623,0.1545 0.2621,0.31728 0.11864,0.16279 0.20693,0.31453 0.091,0.15174 0.15174,0.26486 l -0.35039,0.17934 q -0.14071,-0.24831 -0.28969,-0.46903 -0.14899,-0.22348 -0.31729,-0.38902 -0.1683,-0.1683 -0.36419,-0.26486 -0.19312,-0.0993 -0.42488,-0.0993 -0.14071,0 -0.25107,0.0359 -0.1076,0.0359 -0.18209,0.0966 -0.0745,0.0579 -0.11312,0.13794 -0.0386,0.0773 -0.0386,0.16003 0,0.16554 0.11864,0.25934 0.1214,0.0911 0.32832,0.0911 0.22072,0 0.40005,-0.0773 l 0.0966,0.39729 q -0.11864,0.0469 -0.24279,0.0717 -0.1214,0.0221 -0.24004,0.0221 -0.17657,0 -0.33659,-0.0497 -0.15727,-0.0524 -0.27866,-0.15175 -0.11864,-0.0993 -0.19037,-0.24555 -0.069,-0.14623 -0.069,-0.3366 0,-0.0221 0,-0.0414 0,-0.0193 0.003,-0.0386 -0.0828,-0.0414 -0.17106,-0.069 -0.0855,-0.0276 -0.17933,-0.0331 -0.0441,0.13519 -0.1214,0.25383 -0.0745,0.11863 -0.18209,0.20968 -0.10484,0.0883 -0.24279,0.14347 -0.13795,0.0552 -0.30625,0.0635 l -0.006,0.0138 q 0.24831,0.38626 0.55732,0.73113 0.30901,0.34212 0.71458,0.65113 l -0.29521,0.33935 q -0.23452,-0.17381 -0.44696,-0.37522 -0.20968,-0.20417 -0.3973,-0.41937 -0.18761,-0.21796 -0.35039,-0.43868 -0.16002,-0.22348 -0.29521,-0.43592 -0.13243,-0.21244 -0.23727,-0.40557 -0.10485,-0.19313 -0.17934,-0.35315 l 0.37798,-0.20417 q 0.0993,0.2152 0.22348,0.33936 0.12692,0.12139 0.29246,0.12139 0.11863,0 0.21244,-0.0607 0.0938,-0.0607 0.15726,-0.15451 0.0635,-0.0966 0.0966,-0.20968 0.0331,-0.11588 0.0331,-0.22624 0,-0.12967 -0.0331,-0.25658 -0.0331,-0.12692 -0.0855,-0.24556 -0.0524,-0.12139 -0.11864,-0.23175 -0.0635,-0.11312 -0.12415,-0.21796 h -1.41813 v -0.40557 h 5.71388 z m 3.43219,0 h -0.57939 v 3.70809 h -0.45523 v -2.12719 h -1.29121 q 0,0.1821 -0.006,0.31177 -0.003,0.12967 -0.0221,0.2152 -0.0193,0.0828 -0.0579,0.1214 -0.0386,0.0386 -0.1076,0.0386 -0.14347,0 -0.27314,-0.0938 -0.12692,-0.0938 -0.22624,-0.22624 -0.0966,-0.13243 -0.1545,-0.2759 -0.0579,-0.14347 -0.0579,-0.24279 0,-0.0883 0.0386,-0.13795 0.0386,-0.0497 0.10209,-0.0745 0.0634,-0.0248 0.14346,-0.0303 0.0828,-0.006 0.16554,-0.006 h 1.74645 v -1.18085 h -2.5907 v -0.40557 h 3.62532 z m 2.09408,1.26914 q 0.0414,0.12967 0.0966,0.28417 0.0552,0.15175 0.12967,0.30901 0.0773,0.1545 0.17106,0.30073 0.0966,0.14623 0.21796,0.25935 0.12416,0.11311 0.27314,0.18209 0.14899,0.0662 0.33108,0.0662 0.17934,0 0.30349,-0.0524 0.12416,-0.0524 0.20141,-0.1407 0.0772,-0.0883 0.11036,-0.20693 0.0359,-0.11864 0.0359,-0.24831 0,-0.28417 -0.20692,-0.4442 -0.20417,-0.16002 -0.59318,-0.16002 -0.0469,0 -0.0938,0.003 -0.0469,0.003 -0.0938,0.008 v -0.41937 q 0.0221,0.003 0.0386,0.003 0.0193,0 0.0221,0 0.19313,0 0.34212,-0.0469 0.15174,-0.0497 0.25382,-0.13243 0.10209,-0.0828 0.15451,-0.19313 0.0524,-0.11036 0.0524,-0.23176 0,-0.11036 -0.0386,-0.19589 -0.0386,-0.0855 -0.10484,-0.14347 -0.0662,-0.0579 -0.15726,-0.0855 -0.091,-0.0303 -0.19865,-0.0303 -0.0745,0 -0.14347,0.011 -0.069,0.008 -0.14622,0.0303 -0.0773,0.0193 -0.16554,0.0524 -0.0855,0.0331 -0.19589,0.0828 l -0.15726,-0.37798 q 0.2152,-0.10484 0.41384,-0.15726 0.19865,-0.0552 0.40558,-0.0552 0.19864,0 0.36694,0.0635 0.17106,0.0635 0.29246,0.17658 0.12415,0.11036 0.19313,0.26486 0.069,0.15451 0.069,0.33384 0,0.49386 -0.47179,0.79459 v 0.011 q 0.18486,0.0773 0.30901,0.19037 0.08,0.0138 0.1683,0.0221 0.091,0.008 0.16554,0.008 0.0772,0 0.16278,-0.011 0.0855,-0.011 0.17382,-0.0414 0.091,-0.0303 0.18209,-0.0855 0.0938,-0.0552 0.18761,-0.14347 v -1.52848 h 1.03187 v 0.40557 h -0.57939 v 3.70809 h -0.45248 v -2.09684 l -0.011,-0.003 q -0.15727,0.10484 -0.29522,0.13795 -0.13795,0.0331 -0.28417,0.0331 -0.0469,0 -0.0966,-0.003 -0.0497,-0.006 -0.10208,-0.011 l -0.003,0.011 q 0.0441,0.11312 0.0441,0.27866 0,0.22348 -0.0745,0.41385 -0.0745,0.19037 -0.2152,0.33108 -0.13795,0.13795 -0.3366,0.2152 -0.19589,0.0772 -0.44144,0.0772 -0.2621,0 -0.47454,-0.091 -0.20969,-0.0938 -0.38075,-0.24003 -0.16829,-0.14622 -0.29521,-0.32832 -0.12691,-0.18485 -0.21796,-0.3697 -0.091,-0.18486 -0.14898,-0.3504 -0.0579,-0.16829 -0.0855,-0.27865 z m 7.52102,-1.26914 h -0.57939 v 3.70809 h -0.45524 v -2.12719 h -1.29121 q 0,0.1821 -0.006,0.31177 -0.003,0.12967 -0.0221,0.2152 -0.0193,0.0828 -0.0579,0.1214 -0.0386,0.0386 -0.10761,0.0386 -0.14346,0 -0.27314,-0.0938 -0.12691,-0.0938 -0.22623,-0.22624 -0.0966,-0.13243 -0.15451,-0.2759 -0.0579,-0.14347 -0.0579,-0.24279 0,-0.0883 0.0386,-0.13795 0.0386,-0.0497 0.10208,-0.0745 0.0635,-0.0248 0.14347,-0.0303 0.0828,-0.006 0.16554,-0.006 h 1.74644 v -1.18085 h -2.59069 v -0.40557 h 3.62532 z m -1.57264,3.79086 q 0.17658,-0.11036 0.39178,-0.17106 0.21244,-0.0607 0.40557,-0.0607 0.1683,0 0.31453,0.0497 0.14346,0.0469 0.25106,0.13795 0.10761,0.0938 0.1683,0.22624 0.0607,0.13243 0.0607,0.29797 0,0.17658 -0.0717,0.33108 -0.069,0.1545 -0.20969,0.27038 -0.14071,0.11588 -0.34763,0.1821 -0.20692,0.069 -0.48006,0.069 -0.31177,0 -0.55732,-0.0855 -0.24831,-0.0828 -0.4442,-0.21244 -0.19589,-0.12691 -0.34487,-0.28142 -0.14899,-0.1545 -0.26211,-0.29245 l 0.25659,-0.30073 q 0.15726,0.17106 0.30073,0.30901 0.14347,0.13795 0.29797,0.23451 0.1545,0.0993 0.33384,0.15175 0.17657,0.0524 0.40005,0.0524 0.19037,0 0.32556,-0.0386 0.13244,-0.0359 0.21796,-0.0966 0.0855,-0.0579 0.12416,-0.1352 0.0386,-0.0745 0.0386,-0.15174 0,-0.14071 -0.10484,-0.22348 -0.1076,-0.0828 -0.28969,-0.0828 -0.11864,0 -0.27314,0.0414 -0.15726,0.0414 -0.31729,0.13795 z m 5.62283,-3.79086 h -0.57939 v 3.70809 h -0.45247 v -1.5478 h -1.44847 v 0.39454 q 0,0.0414 -0.008,0.0883 -0.006,0.0469 -0.0276,0.0883 -0.0193,0.0386 -0.0552,0.0662 -0.0331,0.0248 -0.0855,0.0248 -0.0635,0 -0.15174,-0.0386 -0.0855,-0.0414 -0.17934,-0.1076 -0.091,-0.069 -0.18209,-0.1545 -0.0883,-0.0883 -0.16002,-0.18209 -0.069,-0.0938 -0.11312,-0.18762 -0.0442,-0.0938 -0.0442,-0.17381 0,-0.11588 0.0828,-0.1683 0.0828,-0.0524 0.21797,-0.0524 h 0.26762 v -1.51469 q 0,-0.14347 -0.069,-0.21796 -0.069,-0.0773 -0.17381,-0.0773 -0.11588,0 -0.19589,0.0855 -0.0772,0.0855 -0.0772,0.21796 0,0.0248 0.006,0.0607 0.006,0.0359 0.0276,0.0828 0.0221,0.0441 0.0662,0.10208 0.0441,0.0552 0.11864,0.11863 l -0.24555,0.30073 q -0.12692,-0.069 -0.20693,-0.15174 -0.08,-0.0855 -0.12415,-0.17382 -0.0441,-0.0883 -0.0607,-0.17105 -0.0166,-0.0855 -0.0166,-0.15727 0,-0.13243 0.0442,-0.25934 0.0469,-0.12967 0.13795,-0.23176 0.091,-0.10484 0.22624,-0.1683 0.13795,-0.0635 0.32004,-0.0635 0.16002,0 0.28418,0.0524 0.12415,0.0524 0.20692,0.15174 0.0855,0.0966 0.12691,0.23452 0.0442,0.13519 0.0442,0.30349 v 1.47606 h 1.44847 v -2.16305 h 1.03186 z m 3.32184,0 h -0.57939 v 3.70809 h -0.45248 v -0.98496 l -0.011,-0.003 q -0.0552,0.0524 -0.12967,0.11036 -0.0745,0.0552 -0.17106,0.10208 -0.0966,0.0441 -0.21796,0.0745 -0.11864,0.0304 -0.26763,0.0304 -0.27314,0 -0.49937,-0.10484 -0.22348,-0.10484 -0.38626,-0.27866 -0.16278,-0.17657 -0.25383,-0.40281 -0.0883,-0.229 -0.0883,-0.47731 0,-0.24831 0.0883,-0.46075 0.0911,-0.2152 0.24831,-0.37246 0.15726,-0.15727 0.36695,-0.24555 0.20968,-0.091 0.44971,-0.091 0.0662,0 0.16554,0.011 0.10208,0.011 0.21796,0.0497 0.11588,0.0386 0.24003,0.11312 0.12416,0.0717 0.23728,0.19588 l 0.011,-0.003 v -0.97116 h -2.48309 v -0.40557 h 3.51496 z m -1.02083,1.4871 q -0.17382,-0.20969 -0.37798,-0.3366 -0.20417,-0.12967 -0.46351,-0.12967 -0.20417,0 -0.34764,0.0773 -0.1407,0.0772 -0.23175,0.19589 -0.091,0.11587 -0.13243,0.25934 -0.0414,0.14347 -0.0414,0.2759 0,0.14347 0.0469,0.28418 0.0469,0.14071 0.13795,0.25383 0.0938,0.11036 0.23176,0.18209 0.13795,0.069 0.3228,0.069 0.19037,0 0.34764,-0.0717 0.15726,-0.0745 0.27038,-0.18761 0.11312,-0.11312 0.17381,-0.25383 0.0635,-0.14071 0.0635,-0.27314 z m 4.47784,-1.4871 h -0.57939 v 3.70809 h -0.44971 v -2.4224 h -0.89668 q -0.18485,0 -0.33383,0.0248 -0.14899,0.0221 -0.25383,0.0938 -0.10484,0.069 -0.16278,0.19589 -0.0552,0.12415 -0.0552,0.32832 0,0.26486 0.0855,0.48834 0.0883,0.22348 0.22347,0.41109 0.1352,0.18485 0.29798,0.34211 0.16554,0.15727 0.31728,0.2897 l -0.2759,0.31452 q -0.0248,-0.0138 -0.11864,-0.08 -0.091,-0.069 -0.2152,-0.18485 -0.12139,-0.11588 -0.25934,-0.28142 -0.13519,-0.16554 -0.25107,-0.37246 -0.11312,-0.20969 -0.19037,-0.46075 -0.0745,-0.25107 -0.0745,-0.54077 0,-0.28693 0.08,-0.47454 0.0828,-0.19037 0.23175,-0.30073 0.14899,-0.11312 0.36143,-0.15727 0.21244,-0.0441 0.47455,-0.0441 h 1.01531 v -0.87736 h -2.62105 v -0.40557 h 3.65015 z m -0.61801,-0.32832 h -0.40006 l -0.25106,-0.47179 q -0.16003,-0.30073 -0.2897,-0.47731 -0.13243,-0.17657 -0.24831,-0.26762 -0.11863,-0.0938 -0.23175,-0.11863 -0.11312,-0.0276 -0.23728,-0.0276 h -0.53524 v -0.44696 h 0.50489 q 0.16003,0 0.2897,0.0276 0.12967,0.0248 0.24831,0.0938 0.11588,0.0662 0.22899,0.18762 0.11036,0.11863 0.23728,0.309 0.12691,0.18761 0.27866,0.45248 0.14898,0.2621 0.34211,0.62077 z"
         id="path6" /></g><g
       inkscape:label="Hershey Text"
       style="fill:none;stroke:#000000;stroke-linecap:round;stroke-linejoin:round"
       transform="scale(0.936509, 1.0678)"
       id="g4"><g
         transform="translate(69.3479, 109.77)"
         id="g1"><path
           d="M 252 126 L 220 94.5 L 189 126 L 220 158 L 252 126 L 252 63 L 189 0"
           style="stroke-width:0.4829in"
           transform="matrix(0.00565042 0 0 -0.00565042 44.853 0)"
           id="path1" /></g><g
         transform="translate(69.3479, 116.833)"
         id="g2"><path
           d="M 252 126 L 220 94.5 L 189 126 L 220 158 L 252 126 L 252 63 L 189 0"
           style="stroke-width:0.4829in"
           transform="matrix(0.00565042 0 0 -0.00565042 32.0379 0)"
           id="path2" /></g><g
         transform="translate(69.3479, 123.896)"
         id="g3" /></g></g></svg>
