<?xml version="1.0" encoding="UTF-8" standalone="no"?>
<svg
   width="800"
   height="600"
   version="1.1"
   id="svg4"
   sodipodi:docname="raj_hindi.svg"
   xmlns:inkscape="http://www.inkscape.org/namespaces/inkscape"
   xmlns:sodipodi="http://sodipodi.sourceforge.net/DTD/sodipodi-0.dtd"
   xmlns="http://www.w3.org/2000/svg"
   xmlns:svg="http://www.w3.org/2000/svg">
  <sodipodi:namedview
     id="namedview4"
     pagecolor="#ffffff"
     bordercolor="#666666"
     borderopacity="1.0"
     inkscape:showpageshadow="2"
     inkscape:pageopacity="0.0"
     inkscape:pagecheckerboard="0"
     inkscape:deskcolor="#d1d1d1" />
  <defs
     id="defs1">
    <style
       type="text/css"
       id="style1">
      @font-face {{
        font-family: 'Kalam';
        src: url('AxiDraw_API(1)/Kalam-Regular.ttf');
      }}
    </style>
  </defs>
  <g
     id="g4">
    <g
       id="text4"
       style="font-size:32px;font-family:Kalam"
       aria-label="राज हा माझा, हिंदी ती भाषा,दोन्ही मनात, एकत्र राहता.भाषा एक, विचार वेगळे,शब्दांचा संगम, एकमेकांना जोडणारे.">
      <path
         d="m 66.1875,79 h -5.890625 q 0.796875,1.375 1.28125,2.8125 0.5,1.421875 0.5,2.890625 0,1.109375 -0.34375,2.140625 -0.328125,1.015625 -0.984375,1.828125 -0.640625,0.796875 -1.609375,1.3125 -0.953125,0.5 -2.203125,0.5625 L 56.90625,90.625 q 1.40625,2.1875 3.15625,4.140625 1.75,1.9375 4.046875,3.6875 L 62.4375,100.375 q -1.328125,-0.984375 -2.53125,-2.125 -1.1875,-1.15625 -2.25,-2.375 -1.0625,-1.234375 -1.984375,-2.484375 Q 54.765625,92.125 54,90.9375 53.25,89.734375 52.65625,88.640625 52.0625,87.53125 51.640625,86.625 l 2.140625,-1.15625 q 0.5625,1.21875 1.265625,1.921875 0.71875,0.6875 1.65625,0.6875 0.671875,0 1.203125,-0.34375 0.53125,-0.34375 0.890625,-0.875 0.359375,-0.546875 0.546875,-1.1875 0.1875,-0.65625 0.1875,-1.28125 0,-0.734375 -0.1875,-1.4375 Q 59.15625,82.234375 58.859375,81.5625 58.5625,80.875 58.1875,80.234375 57.828125,79.59375 57.484375,79 h -8.03125 V 76.703125 H 66.1875 Z M 74.5,79 h -3.28125 v 21 h -2.5625 V 79 h -3.5625 V 76.703125 H 74.5 Z m 23.953125,0 h -3.28125 v 21 h -2.5625 V 86.4375 h -5.03125 L 87.5625,86.5 q 0.1875,0.21875 0.5625,0.671875 0.375,0.4375 0.75,1.09375 0.375,0.640625 0.65625,1.46875 0.28125,0.8125 0.28125,1.765625 0,0.953125 -0.328125,1.890625 -0.3125,0.921875 -0.953125,1.671875 -0.625,0.734375 -1.59375,1.1875 -0.96875,0.453125 -2.25,0.453125 -1.265625,0 -2.328125,-0.4375 Q 81.3125,95.8125 80.4375,95.0625 79.578125,94.3125 78.890625,93.328125 78.203125,92.34375 77.65625,91.25 77.125,90.140625 76.71875,89.015625 76.328125,87.875 76.046875,86.84375 q -0.28125,-1.046875 -0.453125,-1.921875 -0.171875,-0.875 -0.265625,-1.453125 l 2.3125,-0.453125 q 0.515625,2.8125 1.25,4.9375 0.75,2.109375 1.65625,3.53125 0.90625,1.421875 1.953125,2.140625 1.046875,0.703125 2.1875,0.703125 0.8125,0 1.3125,-0.3125 0.5,-0.328125 0.78125,-0.78125 0.28125,-0.46875 0.375,-0.953125 0.109375,-0.5 0.109375,-0.859375 Q 87.265625,90.78125 87,90.0625 86.75,89.328125 86.25,88.609375 85.765625,87.875 85.03125,87.203125 84.296875,86.53125 83.34375,85.984375 V 84.15625 h 9.265625 V 79 H 73.40625 V 76.703125 H 98.453125 Z M 118.125,95.59375 q 0.51563,-0.15625 1.01563,-0.390625 0.51562,-0.234375 0.90625,-0.5625 0.40625,-0.34375 0.65625,-0.796875 0.25,-0.453125 0.25,-1.0625 0,-1.296875 -1.07813,-2.015625 -1.07812,-0.734375 -3.0625,-0.734375 -0.79687,0 -1.64062,0.171875 -0.82813,0.15625 -1.51563,0.59375 -0.6875,0.421875 -1.125,1.171875 -0.4375,0.734375 -0.4375,1.875 0,1.15625 0.45313,2.15625 0.45312,0.984375 1.17187,1.8125 0.73438,0.828125 1.64063,1.5 0.90625,0.671875 1.79687,1.1875 0.90625,0.51563 1.70313,0.85938 0.79687,0.35937 1.32812,0.5625 l -1.03125,2.15625 q -1.09375,-0.46875 -2.23437,-1.03125 -1.125,-0.54688 -2.1875,-1.21875 -1.0625,-0.65625 -2,-1.45313 -0.9375,-0.796875 -1.64063,-1.765625 -0.6875,-0.96875 -1.09375,-2.125 -0.39062,-1.15625 -0.39062,-2.515625 0,-1.328125 0.34375,-2.3125 0.35937,-1 0.98437,-1.75 -0.85937,-0.984375 -1.26562,-1.984375 -0.40625,-1 -0.40625,-2.171875 0,-0.671875 0.15625,-1.265625 0.17187,-0.59375 0.59375,-1.03125 0.4375,-0.453125 1.20312,-0.71875 0.76563,-0.265625 1.98438,-0.265625 h 7.07812 V 79 H 106.125 v -2.296875 h 20.35938 V 79 h -3.64063 v 5.75 h -8.98437 q -0.60938,0 -1.03125,0.109375 -0.40625,0.09375 -0.65625,0.296875 -0.25,0.203125 -0.35938,0.515625 -0.0937,0.296875 -0.0937,0.703125 0,0.546875 0.1875,1.0625 0.1875,0.515625 0.70313,1.15625 0.90625,-0.46875 1.98437,-0.6875 1.09375,-0.234375 2.28125,-0.234375 1.375,0 2.5625,0.3125 1.20313,0.3125 2.07813,0.953125 0.89062,0.625 1.39062,1.609375 0.51563,0.96875 0.51563,2.28125 0,1.265625 -0.4375,2.140625 -0.42188,0.875 -1.07813,1.46875 Q 121.26563,97.03125 120.5,97.40625 119.73438,97.765625 119.07813,98 Z M 134.79687,79 h -3.28125 v 21 h -2.5625 V 79 h -3.56249 v -2.296875 h 9.40624 z m 30.3125,0 h -3.28125 v 21 h -2.5625 v -8.765625 h -8.59375 v 1.859375 q 0,0.484375 -0.0469,0.859375 -0.0312,0.375 -0.17188,0.625 -0.125,0.25 -0.375,0.390625 -0.23437,0.125 -0.64062,0.125 -0.40625,0 -0.90625,-0.234375 -0.5,-0.25 -1.01563,-0.65625 -0.51562,-0.421875 -1,-0.9375 -0.48437,-0.53125 -0.875,-1.09375 -0.375,-0.578125 -0.60937,-1.140625 -0.23438,-0.5625 -0.23438,-1.03125 0,-0.328125 0.10938,-0.53125 0.125,-0.21875 0.32812,-0.328125 Q 145.45312,89.03125 145.75,89 q 0.29687,-0.04687 0.67187,-0.04687 h 1.6875 V 79 h -5.64062 v -2.296875 h 22.64062 z m -14.4375,0 v 9.953125 h 8.59375 V 79 Z m 22.75,0 h -3.28125 v 21 h -2.5625 V 79 h -3.5625 v -2.296875 h 9.40625 z m 9.9375,19.75 v 0.07813 q 0.71875,0.78125 1.51563,1.421875 0.79687,0.65625 1.53125,1.15625 0.75,0.5 1.375,0.84375 0.64062,0.34375 1.04687,0.51563 l -1.10937,1.95312 q -0.98438,-0.51562 -1.96875,-1.20312 -0.96875,-0.6875 -1.89063,-1.4375 -0.90625,-0.75 -1.71875,-1.53125 -0.79687,-0.781255 -1.4375,-1.48438 -1.34375,-0.125 -2.28125,-0.484375 -0.92187,-0.359375 -1.51562,-0.859375 -0.57813,-0.5 -0.84375,-1.078125 -0.26563,-0.578125 -0.26563,-1.125 0,-0.390625 0.125,-0.75 0.14063,-0.359375 0.39063,-0.625 0.26562,-0.265625 0.64062,-0.421875 0.39063,-0.15625 0.89063,-0.15625 0.53125,0 1.125,0.1875 0.60937,0.1875 1.1875,0.5625 0.57812,0.375 1.10937,0.953125 0.53125,0.5625 0.9375,1.328125 1.95313,-0.328125 2.95313,-1.3125 1,-1 1,-2.609375 0,-0.625 -0.17188,-1.015625 -0.15625,-0.390625 -0.48437,-0.609375 -0.32813,-0.21875 -0.82813,-0.28125 -0.48437,-0.07813 -1.14062,-0.07813 h -4.29688 q -1.15625,0 -2,-0.484375 -0.84375,-0.5 -1.40625,-1.25 -0.54687,-0.765625 -0.8125,-1.671875 -0.26562,-0.921875 -0.26562,-1.765625 0,-0.921875 0.29687,-1.53125 0.29688,-0.625 0.8125,-0.984375 0.51563,-0.375 1.21875,-0.53125 0.71875,-0.15625 1.54688,-0.15625 h 5.45312 V 79 h -11.75 v -2.296875 h 25.59375 V 79 h -3.28125 v 21 h -2.5625 v -9.375 l -0.0625,-0.01563 q -0.45312,0.296875 -0.875,0.484375 -0.40625,0.1875 -0.82812,0.296875 -0.40625,0.109375 -0.84375,0.15625 -0.4375,0.03125 -0.9375,0.03125 0.0937,0.515625 0.0937,1.09375 0,1.109375 -0.3125,2.078125 -0.3125,0.96875 -0.95313,1.765625 -0.64062,0.78125 -1.64062,1.359375 -0.98438,0.5625 -2.35938,0.875 z m 3.28125,-14.140625 h -7.35937 q -1.17188,0 -1.60938,0.328125 -0.4375,0.328125 -0.4375,1.0625 0,0.34375 0.0937,0.75 0.0937,0.390625 0.34375,0.734375 0.25,0.328125 0.67188,0.5625 0.4375,0.21875 1.10937,0.21875 h 4.35938 q 1.32812,0 2.23437,0.3125 0.92188,0.3125 1.48438,0.890625 0.57812,0 1.125,-0.03125 0.54687,-0.04687 1.09375,-0.203125 0.54687,-0.171875 1.125,-0.484375 0.57812,-0.328125 1.20312,-0.890625 V 79 h -5.4375 z M 206.23437,79 h -3.28125 v 21 h -2.5625 V 79 h -3.5625 v -2.296875 h 9.40625 z m 4.39063,17.4375 -2.5,7.6875 h -1.82813 L 208.125,96.4375 Z M 230.25,79 h -3.28125 v 21 h -2.5625 V 79 h -3.5625 v -2.296875 h 3.5625 q -0.85938,-2.0625 -0.85938,-3.84375 0,-1.140625 0.375,-2.125 0.375,-0.984375 1.14063,-1.703125 0.78125,-0.71875 1.98437,-1.125 Q 228.25,67.5 229.90625,67.5 q 2.17187,0 4.17187,0.703125 2.01563,0.703125 3.9375,1.953125 1.92188,1.25 3.79688,2.96875 1.89062,1.71875 3.8125,3.75 h -2.71875 q -0.4375,-0.421875 -1.17188,-1.09375 -0.71875,-0.6875 -1.67187,-1.453125 -0.95313,-0.78125 -2.10938,-1.5625 -1.15625,-0.796875 -2.4375,-1.4375 -1.28125,-0.640625 -2.67187,-1.03125 -1.375,-0.40625 -2.78125,-0.40625 -1.14063,0 -1.92188,0.265625 -0.76562,0.265625 -1.25,0.734375 -0.46875,0.46875 -0.67187,1.109375 -0.20313,0.625 -0.20313,1.34375 0,1.40625 0.76563,3.359375 H 230.25 Z m 10.90625,16.59375 q 0.51562,-0.15625 1.01562,-0.390625 0.51563,-0.234375 0.90625,-0.5625 0.40625,-0.34375 0.65625,-0.796875 0.25,-0.453125 0.25,-1.0625 0,-1.296875 -1.07812,-2.015625 -1.07813,-0.734375 -3.0625,-0.734375 -0.79688,0 -1.64063,0.171875 -0.82812,0.15625 -1.51562,0.59375 -0.6875,0.421875 -1.125,1.171875 -0.4375,0.734375 -0.4375,1.875 0,1.15625 0.45312,2.15625 0.45313,0.984375 1.17188,1.8125 0.73437,0.828125 1.64062,1.5 0.90625,0.671875 1.79688,1.1875 0.90625,0.51563 1.70312,0.85938 0.79688,0.35937 1.32813,0.5625 l -1.03125,2.15625 q -1.09375,-0.46875 -2.23438,-1.03125 -1.125,-0.54688 -2.1875,-1.21875 -1.0625,-0.65625 -2,-1.45313 -0.9375,-0.796875 -1.64062,-1.765625 -0.6875,-0.96875 -1.09375,-2.125 -0.39063,-1.15625 -0.39063,-2.515625 0,-1.328125 0.34375,-2.3125 0.35938,-1 0.98438,-1.75 -0.85938,-0.984375 -1.26563,-1.984375 -0.40625,-1 -0.40625,-2.171875 0,-0.671875 0.15625,-1.265625 0.17188,-0.59375 0.59375,-1.03125 0.4375,-0.453125 1.20313,-0.71875 0.76562,-0.265625 1.98437,-0.265625 h 7.07813 V 79 h -14.15625 v -2.296875 h 20.35937 V 79 H 245.875 v 5.75 h -8.98438 q -0.60937,0 -1.03125,0.109375 -0.40625,0.09375 -0.65625,0.296875 -0.25,0.203125 -0.35937,0.515625 -0.0937,0.296875 -0.0937,0.703125 0,0.546875 0.1875,1.0625 0.1875,0.515625 0.70312,1.15625 0.90625,-0.46875 1.98438,-0.6875 1.09375,-0.234375 2.28125,-0.234375 1.375,0 2.5625,0.3125 1.20312,0.3125 2.07812,0.953125 0.89063,0.625 1.39063,1.609375 0.51562,0.96875 0.51562,2.28125 0,1.265625 -0.4375,2.140625 -0.42187,0.875 -1.07812,1.46875 -0.64063,0.59375 -1.40625,0.96875 -0.76563,0.359375 -1.42188,0.59375 z m 1.51562,-23.65625 q 0,-0.890625 0.53125,-1.4375 0.51563,-0.5625 1.35938,-0.5625 0.39062,0 0.75,0.15625 0.34375,0.15625 0.60937,0.4375 0.26563,0.265625 0.42188,0.640625 0.14062,0.359375 0.14062,0.796875 0,0.890625 -0.51562,1.4375 -0.53125,0.546875 -1.375,0.546875 -0.40625,0 -0.75,-0.140625 -0.35938,-0.15625 -0.60938,-0.421875 -0.26562,-0.28125 -0.40625,-0.640625 -0.15625,-0.375 -0.15625,-0.8125 z M 269.4375,79 h -5.29688 v 6.859375 H 258.875 q -2.45313,0 -3.70313,1.21875 -1.25,1.203125 -1.25,3.46875 0,1.28125 0.40625,2.265625 0.42188,0.984375 1.14063,1.65625 0.73437,0.65625 1.73437,1 1,0.34375 2.17188,0.34375 1.23437,0 1.98437,-0.375 -0.0625,-0.390625 -0.0937,-0.6875 -0.0312,-0.296875 -0.0312,-0.59375 0,-0.65625 0.15625,-1.34375 0.17188,-0.703125 0.5,-1.265625 0.34375,-0.578125 0.85938,-0.9375 0.53125,-0.359375 1.26562,-0.359375 0.45313,0 0.85938,0.15625 0.40625,0.15625 0.70312,0.484375 0.3125,0.3125 0.48438,0.796875 0.1875,0.484375 0.1875,1.125 0,0.640625 -0.17188,1.1875 -0.17187,0.53125 -0.45312,1 -0.26563,0.453125 -0.60938,0.859375 -0.34375,0.390625 -0.67187,0.71875 0.34375,0.75 0.71875,1.34375 0.39062,0.59375 0.79687,1.0625 0.42188,0.46875 0.84375,0.84375 0.42188,0.375005 0.84375,0.703125 l -1.92187,2.01563 q -0.82813,-0.73438 -1.42188,-1.46875 -0.57812,-0.71875 -0.98437,-1.35938 -0.39063,-0.640625 -0.64063,-1.15625 -0.25,-0.515625 -0.40625,-0.828125 -1.07812,0.421875 -2.65625,0.421875 -2.03125,0 -3.54687,-0.65625 -1.51563,-0.671875 -2.53125,-1.78125 -1,-1.125 -1.5,-2.5625 -0.5,-1.4375 -0.5,-2.984375 0,-1.609375 0.51562,-2.828125 0.51563,-1.234375 1.4375,-2.0625 0.92188,-0.84375 2.1875,-1.265625 1.28125,-0.4375 2.79688,-0.4375 h 3.20312 V 79 h -13.15625 v -2.296875 h 21.01563 z m 8.3125,0 h -3.28125 v 21 h -2.5625 V 79 h -3.5625 v -2.296875 h 3.8125 Q 271.875,75.109375 271.4375,73.984375 271,72.84375 270.48437,72.09375 q -0.51562,-0.765625 -1.07812,-1.203125 -0.5625,-0.4375 -1.07813,-0.65625 -0.53125,-0.21875 -0.98437,-0.28125 -0.46875,-0.0625 -0.76563,-0.0625 -0.96875,0 -1.54687,0.3125 -0.59375,0.296875 -0.90625,0.71875 -0.3125,0.421875 -0.40625,0.890625 -0.10938,0.453125 -0.10938,0.78125 0,0.125 0.0469,0.515625 0.0312,0.375 0.25,0.953125 0.20312,0.578125 0.64062,1.296875 0.4375,0.71875 1.23438,1.515625 H 263.125 q -0.98438,-1.125 -1.46875,-2.328125 -0.5,-1.21875 -0.5,-2.359375 0,-0.953125 0.34375,-1.8125 0.34375,-0.859375 1.03125,-1.484375 Q 263.21875,68.25 264.25,67.875 q 1.03125,-0.375 2.39062,-0.375 1.875,0 3.23438,0.734375 1.35937,0.71875 2.28125,1.96875 0.9375,1.25 1.46875,2.9375 0.54687,1.671875 0.76562,3.5625 H 277.75 Z m 28.34375,0 h -3.28125 v 21 h -2.54688 V 86.28125 h -5.07812 q -1.04688,0 -1.89063,0.140625 -0.84375,0.125 -1.4375,0.53125 -0.59375,0.390625 -0.92187,1.109375 -0.3125,0.703125 -0.3125,1.859375 0,1.5 0.48437,2.765625 0.5,1.265625 1.26563,2.328125 0.76562,1.046875 1.6875,1.9375 0.9375,0.890625 1.79687,1.640625 l -1.5625,1.78125 q -0.14062,-0.0781 -0.67187,-0.453125 -0.51563,-0.390625 -1.21875,-1.046875 -0.6875,-0.65625 -1.46875,-1.59375 -0.76563,-0.9375 -1.42188,-2.109375 -0.64062,-1.1875 -1.07812,-2.609375 -0.42188,-1.421875 -0.42188,-3.0625 0,-1.625 0.45313,-2.6875 0.46875,-1.078125 1.3125,-1.703125 0.84375,-0.640625 2.04687,-0.890625 1.20313,-0.25 2.6875,-0.25 h 5.75 V 79 h -14.84375 v -2.296875 h 20.67188 z m 8.3125,0 H 311.125 v 21 h -2.5625 V 79 H 305 v -2.296875 h 3.8125 q -0.28125,-1.59375 -0.71875,-2.71875 -0.4375,-1.140625 -0.95313,-1.890625 -0.51562,-0.765625 -1.07812,-1.203125 -0.5625,-0.4375 -1.07813,-0.65625 -0.53125,-0.21875 -0.98437,-0.28125 -0.46875,-0.0625 -0.76563,-0.0625 -0.96875,0 -1.54687,0.3125 -0.59375,0.296875 -0.90625,0.71875 -0.3125,0.421875 -0.40625,0.890625 -0.10938,0.453125 -0.10938,0.78125 0,0.125 0.0469,0.515625 0.0312,0.375 0.25,0.953125 0.20312,0.578125 0.64062,1.296875 0.4375,0.71875 1.23438,1.515625 h -2.65625 q -0.98438,-1.125 -1.46875,-2.328125 -0.5,-1.21875 -0.5,-2.359375 0,-0.953125 0.34375,-1.8125 Q 298.5,69.515625 299.1875,68.890625 299.875,68.25 300.90625,67.875 301.9375,67.5 303.29687,67.5 q 1.875,0 3.23438,0.734375 1.35937,0.71875 2.28125,1.96875 0.9375,1.25 1.46875,2.9375 0.54687,1.671875 0.76562,3.5625 h 3.35938 z m 31.70312,0 h -3.28125 v 21 h -2.5625 v -8.765625 h -8.20312 v 2.234375 q 0,0.234375 -0.0469,0.5 -0.0312,0.265625 -0.15625,0.5 -0.10937,0.21875 -0.3125,0.375 -0.1875,0.140625 -0.48437,0.140625 -0.35938,0 -0.85938,-0.21875 -0.48437,-0.234375 -1.01562,-0.609375 -0.51563,-0.390625 -1.03125,-0.875 -0.5,-0.5 -0.90625,-1.03125 -0.39063,-0.53125 -0.64063,-1.0625 -0.25,-0.53125 -0.25,-0.984375 0,-0.65625 0.46875,-0.953125 0.46875,-0.296875 1.23438,-0.296875 h 1.51562 V 80.375 q 0,-0.8125 -0.39062,-1.234375 -0.39063,-0.4375 -0.98438,-0.4375 -0.65625,0 -1.10937,0.484375 -0.4375,0.484375 -0.4375,1.234375 0,0.140625 0.0312,0.34375 0.0312,0.203125 0.15625,0.46875 0.125,0.25 0.375,0.578125 0.25,0.3125 0.67187,0.671875 L 326.5,84.1875 q -0.71875,-0.390625 -1.17188,-0.859375 -0.45312,-0.484375 -0.70312,-0.984375 -0.25,-0.5 -0.34375,-0.96875 -0.0937,-0.484375 -0.0937,-0.890625 0,-0.75 0.25,-1.46875 0.26562,-0.734375 0.78125,-1.3125 0.51562,-0.59375 1.28125,-0.953125 0.78125,-0.359375 1.8125,-0.359375 0.90625,0 1.60937,0.296875 0.70313,0.296875 1.17188,0.859375 0.48437,0.546875 0.71875,1.328125 0.25,0.765625 0.25,1.71875 v 8.359375 h 8.20312 v -12.25 h 5.84375 z m 8.3125,0 h -3.28125 v 21 h -2.5625 V 79 h -3.5625 v -2.296875 h 9.40625 z m 19.40625,0 h -3.28125 v 21 h -2.5625 v -7.53125 l -0.0625,-0.01563 q -1.09375,0.9375 -2.42187,1.375 -1.3125,0.421875 -2.64063,0.421875 -1.34375,0 -2.45312,-0.390625 -1.10938,-0.390625 -1.90625,-1.1875 -0.79688,-0.8125 -1.25,-2.03125 -0.4375,-1.234375 -0.4375,-2.921875 V 79 h -3.48438 v -2.296875 h 20.5 z m -7.4375,11.53125 -6.98437,-9.8125 -0.0625,0.01563 v 6.84375 q 0,0.984375 0.15625,1.765625 0.17187,0.78125 0.5625,1.328125 0.40625,0.546875 1.0625,0.84375 0.65625,0.28125 1.64062,0.28125 1.07813,0 1.96875,-0.3125 0.90625,-0.3125 1.67188,-0.875 z M 367.98437,79 h -7.04687 v 0.04687 l 6.96875,10.09375 0.0781,-0.109375 z m 14.15625,0 h -3.28125 v 21 h -2.5625 V 79 h -3.5625 v -2.296875 h 9.40625 z m 4.39063,17.4375 -2.5,7.6875 h -1.82813 l 1.82813,-7.6875 z"
         id="path4" />
      <path
         d="m 70.46875,129 h -5.296875 v 6.85937 H 59.90625 q -2.453125,0 -3.703125,1.21875 -1.25,1.20313 -1.25,3.46875 0,1.28125 0.40625,2.26563 0.421875,0.98437 1.140625,1.65625 0.734375,0.65625 1.734375,1 1,0.34375 2.171875,0.34375 1.234375,0 1.984375,-0.375 -0.0625,-0.39063 -0.09375,-0.6875 -0.03125,-0.29688 -0.03125,-0.59375 0,-0.65625 0.15625,-1.34375 0.171875,-0.70313 0.5,-1.26563 0.34375,-0.57812 0.859375,-0.9375 0.53125,-0.35937 1.265625,-0.35937 0.453125,0 0.859375,0.15625 0.40625,0.15625 0.703125,0.48437 0.3125,0.3125 0.484375,0.79688 0.1875,0.48437 0.1875,1.125 0,0.64062 -0.171875,1.1875 -0.171875,0.53125 -0.453125,1 -0.265625,0.45312 -0.609375,0.85937 -0.34375,0.39063 -0.671875,0.71875 0.34375,0.75 0.71875,1.34375 0.390625,0.59375 0.796875,1.0625 0.421875,0.46875 0.84375,0.84375 0.421875,0.375 0.84375,0.70313 l -1.921875,2.01562 q -0.828125,-0.73437 -1.421875,-1.46875 -0.578125,-0.71875 -0.984375,-1.35937 -0.390625,-0.64063 -0.640625,-1.15625 -0.25,-0.51563 -0.40625,-0.82813 -1.078125,0.42188 -2.65625,0.42188 -2.03125,0 -3.546875,-0.65625 -1.515625,-0.67188 -2.53125,-1.78125 -1,-1.125 -1.5,-2.5625 -0.5,-1.4375 -0.5,-2.98438 0,-1.60937 0.515625,-2.82812 0.515625,-1.23438 1.4375,-2.0625 0.921875,-0.84375 2.1875,-1.26563 1.28125,-0.4375 2.796875,-0.4375 h 3.203125 V 129 h -13.15625 v -2.29687 H 70.46875 Z m 8.3125,0 H 75.5 v 21 H 72.9375 V 129 H 69.375 v -2.29687 h 9.40625 z m -3.5,-1.85937 h -2.265625 l -1.421875,-2.67188 q -0.90625,-1.70312 -1.65625,-2.70312 -0.734375,-1 -1.390625,-1.51563 -0.671875,-0.53125 -1.3125,-0.67187 -0.640625,-0.15625 -1.34375,-0.15625 h -3.03125 v -2.53125 h 2.859375 q 0.90625,0 1.640625,0.15625 0.734375,0.14062 1.40625,0.53125 0.65625,0.375 1.28125,1.0625 0.640625,0.67187 1.359375,1.75 0.71875,1.0625 1.5625,2.5625 0.859375,1.48437 1.953125,3.51562 z M 90.90625,129 H 77.6875 v -2.29687 h 13.21875 z m 0.953125,8.95312 h -6.8125 q 0,1.03125 -0.03125,1.76563 -0.01563,0.73437 -0.125,1.21875 -0.109375,0.46875 -0.328125,0.6875 -0.21875,0.21875 -0.609375,0.21875 -0.8125,0 -1.546875,-0.53125 -0.71875,-0.53125 -1.28125,-1.28125 -0.546875,-0.75 -0.875,-1.5625 -0.328125,-0.8125 -0.328125,-1.375 0,-0.5 0.21875,-0.78125 0.21875,-0.28125 0.578125,-0.42188 0.359375,-0.14062 0.8125,-0.17187 0.46875,-0.0312 0.9375,-0.0312 h 9.390625 z m 6.4375,7.64063 q 0.515625,-0.15625 1.015625,-0.39063 0.515625,-0.23437 0.90625,-0.5625 0.40625,-0.34375 0.65625,-0.79687 0.25,-0.45313 0.25,-1.0625 0,-1.29688 -1.07812,-2.01563 -1.07813,-0.73437 -3.062505,-0.73437 -0.796875,0 -1.640625,0.17187 -0.828125,0.15625 -1.515625,0.59375 -0.6875,0.42188 -1.125,1.17188 -0.4375,0.73437 -0.4375,1.875 0,1.15625 0.453125,2.15625 0.453125,0.98437 1.171875,1.8125 0.734375,0.82812 1.640625,1.5 0.90625,0.67187 1.796875,1.1875 0.90625,0.51562 1.703125,0.85937 0.796875,0.35938 1.32813,0.5625 l -1.031255,2.15625 q -1.09375,-0.46875 -2.234375,-1.03125 -1.125,-0.54687 -2.1875,-1.21875 -1.0625,-0.65625 -2,-1.45312 -0.9375,-0.79688 -1.640625,-1.76563 -0.6875,-0.96875 -1.09375,-2.125 -0.390625,-1.15625 -0.390625,-2.51562 0,-1.32813 0.34375,-2.3125 0.359375,-1 0.984375,-1.75 -0.859375,-0.98438 -1.265625,-1.98438 -0.40625,-1 -0.40625,-2.17187 0,-0.67188 0.15625,-1.26563 0.171875,-0.59375 0.59375,-1.03125 Q 90.625,133 91.390625,132.73437 92.15625,132.46875 93.375,132.46875 h 7.07813 V 129 H 86.296875 v -2.29687 H 106.65625 V 129 h -3.64062 v 5.75 h -8.98438 q -0.609375,0 -1.03125,0.10937 -0.40625,0.0937 -0.65625,0.29688 -0.25,0.20312 -0.359375,0.51562 -0.09375,0.29688 -0.09375,0.70313 0,0.54687 0.1875,1.0625 0.1875,0.51562 0.703125,1.15625 0.90625,-0.46875 1.984375,-0.6875 1.09375,-0.23438 2.28125,-0.23438 1.375,0 2.5625,0.3125 1.203125,0.3125 2.078125,0.95313 0.89063,0.625 1.39063,1.60937 0.51562,0.96875 0.51562,2.28125 0,1.26563 -0.4375,2.14063 -0.42187,0.875 -1.07812,1.46875 -0.64063,0.59375 -1.40625,0.96875 Q 99.90625,147.76562 99.25,148 Z M 114.96875,129 h -3.28125 v 21 h -2.5625 v -21 h -3.5625 v -2.29687 h 3.8125 q -0.28125,-1.59375 -0.71875,-2.71875 -0.4375,-1.14063 -0.95312,-1.89063 -0.51563,-0.76562 -1.07813,-1.20312 -0.5625,-0.4375 -1.07812,-0.65625 -0.53125,-0.21875 -0.98438,-0.28125 -0.46875,-0.0625 -0.76562,-0.0625 -0.96875,0 -1.54688,0.3125 -0.59375,0.29687 -0.90625,0.71875 -0.3125,0.42187 -0.40625,0.89062 -0.10937,0.45313 -0.10937,0.78125 0,0.125 0.0469,0.51563 0.0312,0.375 0.25,0.95312 0.20313,0.57813 0.64063,1.29688 0.4375,0.71875 1.23437,1.51562 h -2.65625 q -0.984375,-1.125 -1.46875,-2.32812 -0.5,-1.21875 -0.5,-2.35938 0,-0.95312 0.34375,-1.8125 0.34375,-0.85937 1.03125,-1.48437 0.6875,-0.64063 1.71875,-1.01563 1.03125,-0.375 2.39063,-0.375 1.875,0 3.23437,0.73438 1.35938,0.71875 2.28125,1.96875 0.9375,1.25 1.46875,2.9375 0.54688,1.67187 0.76563,3.5625 h 3.35937 z m 30.3125,0 H 142 v 21 h -2.5625 v -8.76563 h -8.59375 v 1.85938 q 0,0.48437 -0.0469,0.85937 -0.0312,0.375 -0.17187,0.625 -0.125,0.25 -0.375,0.39063 -0.23438,0.125 -0.64063,0.125 -0.40625,0 -0.90625,-0.23438 -0.5,-0.25 -1.01562,-0.65625 -0.51562,-0.42187 -1,-0.9375 -0.48437,-0.53125 -0.875,-1.09375 -0.375,-0.57812 -0.60937,-1.14062 -0.23438,-0.5625 -0.23438,-1.03125 0,-0.32813 0.10938,-0.53125 0.125,-0.21875 0.32812,-0.32813 0.21875,-0.10937 0.51563,-0.14062 0.29687,-0.0469 0.67187,-0.0469 h 1.6875 V 129 h -5.64062 v -2.29687 h 22.64062 z m -14.4375,0 v 9.95312 h 8.59375 V 129 Z m 33.875,0 h -3.28125 v 21 h -2.57813 v -12.04688 h -7.3125 q 0,1.03125 -0.0312,1.76563 -0.0156,0.73437 -0.125,1.21875 -0.10937,0.46875 -0.32812,0.6875 -0.21875,0.21875 -0.60938,0.21875 -0.8125,0 -1.54687,-0.53125 -0.71875,-0.53125 -1.28125,-1.28125 -0.54688,-0.75 -0.875,-1.5625 -0.32813,-0.8125 -0.32813,-1.375 0,-0.5 0.21875,-0.78125 0.21875,-0.28125 0.57813,-0.42188 0.35937,-0.14062 0.8125,-0.17187 0.46875,-0.0312 0.9375,-0.0312 h 9.89062 V 129 H 144.1875 v -2.29687 h 20.53125 z m 8.3125,0 H 169.75 v 21 h -2.5625 v -21 h -3.5625 v -2.29687 h 9.40625 z m 19.57812,0 h -3.28125 v 21 h -2.54687 v -13.71875 h -5.07813 q -1.04687,0 -1.89062,0.14062 -0.84375,0.125 -1.4375,0.53125 -0.59375,0.39063 -0.92188,1.10938 -0.3125,0.70312 -0.3125,1.85937 0,1.5 0.48438,2.76563 0.5,1.26562 1.26562,2.32812 0.76563,1.04688 1.6875,1.9375 0.9375,0.89063 1.79688,1.64063 l -1.5625,1.78125 q -0.14063,-0.0781 -0.67188,-0.45313 -0.51562,-0.39062 -1.21875,-1.04687 -0.6875,-0.65625 -1.46875,-1.59375 -0.76562,-0.9375 -1.42187,-2.10938 -0.64063,-1.1875 -1.07813,-2.60937 -0.42187,-1.42188 -0.42187,-3.0625 0,-1.625 0.45312,-2.6875 0.46875,-1.07813 1.3125,-1.70313 0.84375,-0.64062 2.04688,-0.89062 1.20312,-0.25 2.6875,-0.25 h 5.75 V 129 H 171.9375 v -2.29687 h 20.67187 z M 197,146.4375 l -2.5,7.6875 h -1.82813 L 194.5,146.4375 Z M 220.71875,129 h -7.42188 v 11.1875 q 0,1.14062 0.28125,1.90625 0.29688,0.75 0.9375,1.34375 0.64063,0.57812 1.64063,1.125 1.01562,0.53125 2.45312,1.25 1.32813,0.65625 2.46875,1.26562 1.15625,0.60938 2,1.28125 0.84375,0.67188 1.32813,1.45313 0.48437,0.78125 0.48437,1.78125 0,0.76562 -0.3125,1.53125 -0.3125,0.78125 -0.90625,1.48437 l -2.10937,-1.28125 q 0.23437,-0.375 0.4375,-0.79687 0.21875,-0.42188 0.21875,-0.875 0,-0.60938 -0.42188,-1.14063 -0.40625,-0.51562 -1.09375,-0.98437 -0.6875,-0.48438 -1.57812,-0.9375 -0.89063,-0.45313 -1.85938,-0.92188 -1.64062,-0.79687 -2.85937,-1.4375 -1.21875,-0.64062 -2.04688,-1.39062 -0.8125,-0.76563 -1.21875,-1.78125 -0.40625,-1.01563 -0.40625,-2.54688 V 129 h -3.51562 v -2.29687 H 226.5625 V 129 h -3.28125 v 9.90625 q 0,1.20312 -0.34375,2 -0.32813,0.78125 -0.85938,1.23437 -0.51562,0.45313 -1.15625,0.64063 -0.625,0.17187 -1.21875,0.17187 -0.59375,0 -1.17187,-0.125 -0.57813,-0.14062 -1.09375,-0.35937 v -2.54688 q 0.34375,0.20313 0.84375,0.35938 0.5,0.14062 1,0.14062 0.46875,0 0.75,-0.15625 0.28125,-0.15625 0.4375,-0.46875 0.15625,-0.3125 0.20312,-0.76562 0.0469,-0.45313 0.0469,-1.04688 z m 33.46875,0 h -13.20313 v 6.15625 l 0.0781,0.0312 q 0.79687,-1.09375 1.98437,-1.75 1.1875,-0.67188 2.60938,-0.67188 1.125,0 2.07812,0.46875 0.96875,0.45313 1.67188,1.26563 0.70312,0.79687 1.09375,1.89062 0.40625,1.09375 0.40625,2.35938 0,1.4375 -0.5,2.65625 -0.5,1.20312 -1.28125,2.1875 -0.78125,0.98437 -1.76563,1.75 -0.98437,0.75 -1.9375,1.28125 l -1.39062,-2.40625 q 0.3125,-0.17188 0.76562,-0.45313 0.45313,-0.28125 0.9375,-0.65625 0.5,-0.375 0.96875,-0.84375 0.48438,-0.48437 0.85938,-1.04687 0.39062,-0.5625 0.625,-1.21875 0.23437,-0.65625 0.23437,-1.39063 0,-0.67187 -0.21875,-1.28125 -0.20312,-0.60937 -0.57812,-1.0625 -0.375,-0.45312 -0.90625,-0.71875 -0.51563,-0.26562 -1.14063,-0.26562 -0.8125,0 -1.57812,0.42187 -0.76563,0.42188 -1.39063,1.0625 -0.625,0.625 -1.0625,1.34375 -0.42187,0.71875 -0.5625,1.32813 V 150 h -2.5625 v -5.98438 l -0.0625,-0.0312 q -0.23437,0.20313 -0.59375,0.5 -0.35937,0.28125 -0.875,0.54688 -0.5,0.26562 -1.17187,0.45312 -0.65625,0.1875 -1.48438,0.1875 -1.375,0 -2.54687,-0.53125 -1.15625,-0.53125 -2.01563,-1.4375 -0.84375,-0.92187 -1.32812,-2.15625 -0.48438,-1.23437 -0.48438,-2.64062 0,-1.34375 0.4375,-2.48438 0.45313,-1.14062 1.21875,-1.95312 0.78125,-0.82813 1.8125,-1.28125 1.04688,-0.46875 2.25,-0.46875 0.84375,0 1.5625,0.21875 0.73438,0.20312 1.32813,0.51562 0.60937,0.29688 1.07812,0.65625 0.48438,0.34375 0.8125,0.625 l 0.0625,-0.0156 V 129 h -12.95312 v -2.29687 h 28.71875 z m -20.23438,6.15625 q -0.89062,0 -1.57812,0.375 -0.67188,0.35937 -1.125,0.9375 -0.45313,0.5625 -0.6875,1.28125 -0.21875,0.70312 -0.21875,1.39062 0,0.75 0.26562,1.5 0.26563,0.73438 0.75,1.32813 0.5,0.59375 1.1875,0.96875 0.6875,0.35937 1.51563,0.35937 0.70312,0 1.46875,-0.28125 0.78125,-0.29687 1.42187,-0.90625 0.65625,-0.60937 1.07813,-1.54687 0.42187,-0.95313 0.42187,-2.26563 v -0.76562 q -0.375,-0.46875 -0.89062,-0.89063 -0.5,-0.4375 -1.09375,-0.76562 -0.57813,-0.32813 -1.21875,-0.51563 -0.64063,-0.20312 -1.29688,-0.20312 z m 38.60938,-8.45312 V 129 h -3.28125 v 21 h -2.5625 v -8.4375 l -0.0469,-0.0156 -9.3125,6.29688 -1.35937,-2.07813 10.71875,-7.09375 q -1.03125,-0.85937 -1.78125,-1.45312 -0.73438,-0.59375 -1.3125,-0.95313 -0.57813,-0.375 -1.07813,-0.53125 -0.5,-0.17187 -1.03125,-0.17187 -0.45312,0 -1,0.125 -0.53125,0.125 -1.23437,0.375 -0.70313,0.23437 -1.57813,0.60937 -0.875,0.35938 -1.98437,0.84375 l -1.03125,-2.46875 q 1.125,-0.48437 2.04687,-0.85937 0.92188,-0.39063 1.6875,-0.64063 0.76563,-0.26562 1.39063,-0.39062 0.64062,-0.14063 1.1875,-0.14063 0.57812,0 1.14062,0.20313 0.57813,0.1875 1.23438,0.60937 0.67187,0.40625 1.46875,1.04688 0.8125,0.64062 1.875,1.53125 V 129 h -13.625 v -2.29687 z M 296.96875,129 h -5.89063 q 0.79688,1.375 1.28125,2.8125 0.5,1.42187 0.5,2.89062 0,1.10938 -0.34375,2.14063 -0.32812,1.01562 -0.98437,1.82812 -0.64063,0.79688 -1.60938,1.3125 -0.95312,0.5 -2.20312,0.5625 l -0.0312,0.0781 q 1.40625,2.1875 3.15625,4.14062 1.75,1.9375 4.04687,3.6875 l -1.67187,1.92188 q -1.32813,-0.98438 -2.53125,-2.125 -1.1875,-1.15625 -2.25,-2.375 -1.0625,-1.23438 -1.98438,-2.48438 -0.90625,-1.26562 -1.67187,-2.45312 -0.75,-1.20313 -1.34375,-2.29688 -0.59375,-1.10937 -1.01563,-2.01562 l 2.14063,-1.15625 q 0.5625,1.21875 1.26562,1.92187 0.71875,0.6875 1.65625,0.6875 0.67188,0 1.20313,-0.34375 0.53125,-0.34375 0.89062,-0.875 0.35938,-0.54687 0.54688,-1.1875 0.1875,-0.65625 0.1875,-1.28125 0,-0.73437 -0.1875,-1.4375 -0.1875,-0.71875 -0.48438,-1.39062 -0.29687,-0.6875 -0.67187,-1.32813 -0.35938,-0.64062 -0.70313,-1.23437 h -8.03125 v -2.29687 h 16.73438 z m 8.3125,0 H 302 v 21 h -2.5625 v -21 h -3.5625 v -2.29687 h 9.40625 z m 10.90625,16.59375 q 0.51562,-0.15625 1.01562,-0.39063 0.51563,-0.23437 0.90625,-0.5625 0.40625,-0.34375 0.65625,-0.79687 0.25,-0.45313 0.25,-1.0625 0,-1.29688 -1.07812,-2.01563 -1.07813,-0.73437 -3.0625,-0.73437 -0.79688,0 -1.64063,0.17187 -0.82812,0.15625 -1.51562,0.59375 -0.6875,0.42188 -1.125,1.17188 -0.4375,0.73437 -0.4375,1.875 0,1.15625 0.45312,2.15625 0.45313,0.98437 1.17188,1.8125 0.73437,0.82812 1.64062,1.5 0.90625,0.67187 1.79688,1.1875 0.90625,0.51562 1.70312,0.85937 0.79688,0.35938 1.32813,0.5625 l -1.03125,2.15625 q -1.09375,-0.46875 -2.23438,-1.03125 -1.125,-0.54687 -2.1875,-1.21875 -1.0625,-0.65625 -2,-1.45312 -0.9375,-0.79688 -1.64062,-1.76563 -0.6875,-0.96875 -1.09375,-2.125 -0.39063,-1.15625 -0.39063,-2.51562 0,-1.32813 0.34375,-2.3125 0.35938,-1 0.98438,-1.75 -0.85938,-0.98438 -1.26563,-1.98438 -0.40625,-1 -0.40625,-2.17187 0,-0.67188 0.15625,-1.26563 0.17188,-0.59375 0.59375,-1.03125 0.4375,-0.45312 1.20313,-0.71875 0.76562,-0.26562 1.98437,-0.26562 h 7.07813 V 129 H 304.1875 v -2.29687 h 20.35937 V 129 h -3.64062 v 5.75 h -8.98438 q -0.60937,0 -1.03125,0.10937 -0.40625,0.0937 -0.65625,0.29688 -0.25,0.20312 -0.35937,0.51562 -0.0937,0.29688 -0.0937,0.70313 0,0.54687 0.1875,1.0625 0.1875,0.51562 0.70312,1.15625 0.90625,-0.46875 1.98438,-0.6875 1.09375,-0.23438 2.28125,-0.23438 1.375,0 2.5625,0.3125 1.20312,0.3125 2.07812,0.95313 0.89063,0.625 1.39063,1.60937 0.51562,0.96875 0.51562,2.28125 0,1.26563 -0.4375,2.14063 -0.42187,0.875 -1.07812,1.46875 -0.64063,0.59375 -1.40625,0.96875 -0.76563,0.35937 -1.42188,0.59375 z M 344.125,129 h -3.28125 v 21 h -2.54688 v -13.71875 h -5.07812 q -1.04688,0 -1.89063,0.14062 -0.84375,0.125 -1.4375,0.53125 -0.59375,0.39063 -0.92187,1.10938 -0.3125,0.70312 -0.3125,1.85937 0,1.5 0.48437,2.76563 0.5,1.26562 1.26563,2.32812 0.76562,1.04688 1.6875,1.9375 0.9375,0.89063 1.79687,1.64063 l -1.5625,1.78125 q -0.14062,-0.0781 -0.67187,-0.45313 -0.51563,-0.39062 -1.21875,-1.04687 -0.6875,-0.65625 -1.46875,-1.59375 -0.76563,-0.9375 -1.42188,-2.10938 -0.64062,-1.1875 -1.07812,-2.60937 -0.42188,-1.42188 -0.42188,-3.0625 0,-1.625 0.45313,-2.6875 0.46875,-1.07813 1.3125,-1.70313 0.84375,-0.64062 2.04687,-0.89062 1.20313,-0.25 2.6875,-0.25 h 5.75 V 129 h -14.84375 v -2.29687 H 344.125 Z m 8.3125,0 h -3.28125 v 21 h -2.5625 v -21 h -3.5625 v -2.29687 h 9.40625 z m 2.9375,21.34375 q -0.71875,0 -1.23438,-0.51563 -0.5,-0.51562 -0.5,-1.23437 0,-0.71875 0.5,-1.23438 0.51563,-0.53125 1.23438,-0.53125 0.73437,0 1.25,0.53125 0.51562,0.51563 0.51562,1.23438 0,0.71875 -0.51562,1.23437 -0.51563,0.51563 -1.25,0.51563 z"
         id="path5" />
      <path
         d="m 73.484375,179 h -3.28125 v 21 h -2.5625 v -8.76563 H 59.4375 v 2.23438 q 0,0.23437 -0.04687,0.5 -0.03125,0.26562 -0.15625,0.5 -0.109375,0.21875 -0.3125,0.375 -0.1875,0.14062 -0.484375,0.14062 -0.359375,0 -0.859375,-0.21875 -0.484375,-0.23437 -1.015625,-0.60937 -0.515625,-0.39063 -1.03125,-0.875 -0.5,-0.5 -0.90625,-1.03125 -0.390625,-0.53125 -0.640625,-1.0625 -0.25,-0.53125 -0.25,-0.98438 0,-0.65625 0.46875,-0.95312 0.46875,-0.29688 1.234375,-0.29688 h 1.515625 V 180.375 q 0,-0.8125 -0.390625,-1.23438 -0.390625,-0.4375 -0.984375,-0.4375 -0.65625,0 -1.109375,0.48438 -0.4375,0.48437 -0.4375,1.23437 0,0.14063 0.03125,0.34375 0.03125,0.20313 0.15625,0.46875 0.125,0.25 0.375,0.57813 0.25,0.3125 0.671875,0.67187 L 53.875,184.1875 Q 53.15625,183.79687 52.703125,183.32812 52.25,182.84375 52,182.34375 q -0.25,-0.5 -0.34375,-0.96875 -0.09375,-0.48438 -0.09375,-0.89063 0,-0.75 0.25,-1.46875 0.265625,-0.73437 0.78125,-1.3125 0.515625,-0.59375 1.28125,-0.95312 0.78125,-0.35938 1.8125,-0.35938 0.90625,0 1.609375,0.29688 0.703125,0.29687 1.171875,0.85937 0.484375,0.54688 0.71875,1.32813 0.25,0.76562 0.25,1.71875 v 8.35937 h 8.203125 v -12.25 h 5.84375 z m 8.3125,0 h -3.28125 v 21 h -2.5625 v -21 h -3.5625 v -2.29688 h 9.40625 z m 19.406255,0 h -3.281255 v 21 h -2.5625 v -7.53125 l -0.0625,-0.0156 q -1.09375,0.9375 -2.421875,1.375 -1.3125,0.42188 -2.640625,0.42188 -1.34375,0 -2.453125,-0.39063 -1.109375,-0.39062 -1.90625,-1.1875 -0.796875,-0.8125 -1.25,-2.03125 -0.4375,-1.23437 -0.4375,-2.92187 V 179 h -3.484375 v -2.29688 h 20.500005 z m -7.437505,11.53125 -6.984375,-9.8125 -0.0625,0.0156 v 6.84375 q 0,0.98438 0.15625,1.76563 0.171875,0.78125 0.5625,1.32812 0.40625,0.54688 1.0625,0.84375 0.65625,0.28125 1.640625,0.28125 1.078125,0 1.96875,-0.3125 0.90625,-0.3125 1.671875,-0.875 z M 95.359375,179 H 88.3125 v 0.0469 l 6.96875,10.09375 0.07813,-0.10937 z m 14.156255,0 h -3.28125 v 21 h -2.5625 v -21 h -3.5625 v -2.29688 h 9.40625 z m 21.17187,0 h -7.42187 v 11.1875 q 0,1.14062 0.28125,1.90625 0.29687,0.75 0.9375,1.34375 0.64062,0.57812 1.64062,1.125 1.01563,0.53125 2.45312,1.25 1.32813,0.65625 2.46875,1.26562 1.15625,0.60938 2,1.28125 0.84375,0.67188 1.32813,1.45313 0.48437,0.78125 0.48437,1.78125 0,0.76562 -0.3125,1.53125 -0.3125,0.78125 -0.90625,1.48437 l -2.10937,-1.28125 q 0.23437,-0.375 0.4375,-0.79687 0.21875,-0.42188 0.21875,-0.875 0,-0.60938 -0.42188,-1.14063 -0.40625,-0.51562 -1.09375,-0.98437 -0.6875,-0.48438 -1.57812,-0.9375 -0.89063,-0.45313 -1.85937,-0.92188 -1.64063,-0.79687 -2.85938,-1.4375 -1.21875,-0.64062 -2.04687,-1.39062 -0.8125,-0.76563 -1.21875,-1.78125 -0.40625,-1.01563 -0.40625,-2.54688 V 179 h -3.51563 v -2.29688 h 19.34375 V 179 H 133.25 v 9.90625 q 0,1.20312 -0.34375,2 -0.32813,0.78125 -0.85938,1.23437 -0.51562,0.45313 -1.15625,0.64063 -0.625,0.17187 -1.21875,0.17187 -0.59375,0 -1.17187,-0.125 -0.57812,-0.14062 -1.09375,-0.35937 v -2.54688 q 0.34375,0.20313 0.84375,0.35938 0.5,0.14062 1,0.14062 0.46875,0 0.75,-0.15625 0.28125,-0.15625 0.4375,-0.46875 0.15625,-0.3125 0.20312,-0.76562 0.0469,-0.45313 0.0469,-1.04688 z m 33.46875,0 h -13.20313 v 6.15625 l 0.0781,0.0312 q 0.79687,-1.09375 1.98437,-1.75 1.1875,-0.67188 2.60938,-0.67188 1.125,0 2.07812,0.46875 0.96875,0.45313 1.67188,1.26563 0.70312,0.79687 1.09375,1.89062 0.40625,1.09375 0.40625,2.35938 0,1.4375 -0.5,2.65625 -0.5,1.20312 -1.28125,2.1875 -0.78125,0.98437 -1.76563,1.75 -0.98437,0.75 -1.9375,1.28125 L 154,194.21875 q 0.3125,-0.17188 0.76562,-0.45313 0.45313,-0.28125 0.9375,-0.65625 0.5,-0.375 0.96875,-0.84375 0.48438,-0.48437 0.85938,-1.04687 0.39062,-0.5625 0.625,-1.21875 0.23437,-0.65625 0.23437,-1.39063 0,-0.67187 -0.21875,-1.28125 -0.20312,-0.60937 -0.57812,-1.0625 -0.375,-0.45312 -0.90625,-0.71875 -0.51563,-0.26562 -1.14063,-0.26562 -0.8125,0 -1.57812,0.42187 -0.76563,0.42188 -1.39063,1.0625 -0.625,0.625 -1.0625,1.34375 -0.42187,0.71875 -0.5625,1.32813 V 200 h -2.5625 v -5.98438 l -0.0625,-0.0312 q -0.23437,0.20313 -0.59375,0.5 -0.35937,0.28125 -0.875,0.54688 -0.5,0.26562 -1.17187,0.45312 -0.65625,0.1875 -1.48438,0.1875 -1.375,0 -2.54687,-0.53125 -1.15625,-0.53125 -2.01563,-1.4375 -0.84375,-0.92187 -1.32812,-2.15625 -0.48438,-1.23437 -0.48438,-2.64062 0,-1.34375 0.4375,-2.48438 0.45313,-1.14062 1.21875,-1.95312 0.78125,-0.82813 1.8125,-1.28125 1.04688,-0.46875 2.25,-0.46875 0.84375,0 1.5625,0.21875 0.73438,0.20312 1.32813,0.51562 0.60937,0.29688 1.07812,0.65625 0.48438,0.34375 0.8125,0.625 l 0.0625,-0.0156 V 179 H 135.4375 v -2.29688 h 28.71875 z m -20.23438,6.15625 q -0.89062,0 -1.57812,0.375 -0.67188,0.35937 -1.125,0.9375 -0.45313,0.5625 -0.6875,1.28125 -0.21875,0.70312 -0.21875,1.39062 0,0.75 0.26562,1.5 0.26563,0.73438 0.75,1.32813 0.5,0.59375 1.1875,0.96875 0.6875,0.35937 1.51563,0.35937 0.70312,0 1.46875,-0.28125 0.78125,-0.29687 1.42187,-0.90625 Q 147.57812,191.5 148,190.5625 q 0.42187,-0.95313 0.42187,-2.26563 v -0.76562 q -0.375,-0.46875 -0.89062,-0.89063 -0.5,-0.4375 -1.09375,-0.76562 -0.57813,-0.32813 -1.21875,-0.51563 -0.64063,-0.20312 -1.29688,-0.20312 z m 24.625,11.28125 -2.5,7.6875 h -1.82812 l 1.82812,-7.6875 z M 188.17187,179 h -3.28125 v 21 h -2.5625 v -21 h -3.5625 v -2.29688 h 3.5625 q -0.85937,-2.0625 -0.85937,-3.84375 0,-1.14062 0.375,-2.125 0.375,-0.98437 1.14062,-1.70312 0.78125,-0.71875 1.98438,-1.125 1.20312,-0.40625 2.85937,-0.40625 2.17188,0 4.17188,0.70312 2.01562,0.70313 3.9375,1.95313 1.92187,1.25 3.79687,2.96875 1.89063,1.71875 3.8125,3.75 h -2.71875 q -0.4375,-0.42188 -1.17187,-1.09375 -0.71875,-0.6875 -1.67188,-1.45313 -0.95312,-0.78125 -2.10937,-1.5625 -1.15625,-0.79687 -2.4375,-1.4375 -1.28125,-0.64062 -2.67188,-1.03125 -1.375,-0.40625 -2.78125,-0.40625 -1.14062,0 -1.92187,0.26563 -0.76563,0.26562 -1.25,0.73437 -0.46875,0.46875 -0.67188,1.10938 -0.20312,0.625 -0.20312,1.34375 0,1.40625 0.76562,3.35937 h 3.46875 z m 18.8125,0 h -3.28125 v 21 h -2.5625 v -5.57813 l -0.0625,-0.0156 q -0.3125,0.29687 -0.73437,0.625 -0.42188,0.3125 -0.96875,0.57812 -0.54688,0.25 -1.23438,0.42188 -0.67187,0.17187 -1.51562,0.17187 -1.54688,0 -2.82813,-0.59375 -1.26562,-0.59375 -2.1875,-1.57812 -0.92187,-1 -1.4375,-2.28125 -0.5,-1.29688 -0.5,-2.70313 0,-1.40625 0.5,-2.60937 0.51563,-1.21875 1.40625,-2.10938 0.89063,-0.89062 2.07813,-1.39062 1.1875,-0.51563 2.54687,-0.51563 0.375,0 0.9375,0.0625 0.57813,0.0625 1.23438,0.28125 0.65625,0.21875 1.35937,0.64063 0.70313,0.40625 1.34375,1.10937 l 0.0625,-0.0156 V 179 h -14.0625 v -2.29688 h 19.90625 z m -5.78125,8.42187 q -0.98437,-1.1875 -2.14062,-1.90625 -1.15625,-0.73437 -2.625,-0.73437 -1.15625,0 -1.96875,0.4375 -0.79688,0.4375 -1.3125,1.10937 -0.51563,0.65625 -0.75,1.46875 -0.23438,0.8125 -0.23438,1.5625 0,0.8125 0.26563,1.60938 0.26562,0.79687 0.78125,1.4375 0.53125,0.625 1.3125,1.03125 0.78125,0.39062 1.82812,0.39062 1.07813,0 1.96875,-0.40625 0.89063,-0.42187 1.53125,-1.0625 0.64063,-0.64062 0.98438,-1.4375 0.35937,-0.79687 0.35937,-1.54687 z M 228.625,179 h -3.28125 v 21 H 222.75 v -6.57813 l -0.0625,-0.0469 q -0.85938,0.78125 -1.6875,1.23437 -0.8125,0.4375 -1.53125,0.67188 -0.70313,0.21875 -1.28125,0.28125 -0.57813,0.0625 -0.95313,0.0625 -1.4375,0 -2.54687,-0.45313 -1.10938,-0.45312 -1.85938,-1.1875 -0.75,-0.75 -1.14062,-1.70312 -0.39063,-0.96875 -0.39063,-2 0,-1.07813 0.4375,-2.14063 0.45313,-1.0625 1.40625,-1.90625 l -0.0156,-0.0625 h -4.95313 V 183.875 h 12.5625 v 2.29687 H 219.125 q -1.60938,0 -2.64063,0.42188 -1.03125,0.42187 -1.625,1.03125 -0.59375,0.60937 -0.82812,1.3125 -0.21875,0.6875 -0.21875,1.25 0,0.46875 0.15625,1.01562 0.15625,0.53125 0.51562,0.98438 0.375,0.45312 0.98438,0.75 0.625,0.29687 1.5625,0.29687 0.98437,0 1.82812,-0.3125 0.85938,-0.32812 1.57813,-0.84375 0.71875,-0.51562 1.29687,-1.15625 0.59375,-0.65625 1.01563,-1.29687 V 179 h -16.85938 v -2.29688 H 228.625 Z m 8.3125,0 h -3.28125 v 21 h -2.5625 v -21 h -3.5625 v -2.29688 h 9.40625 z m 15.64062,0 h -5.89062 q 0.79687,1.375 1.28125,2.8125 0.5,1.42187 0.5,2.89062 0,1.10938 -0.34375,2.14063 -0.32813,1.01562 -0.98438,1.82812 -0.64062,0.79688 -1.60937,1.3125 -0.95313,0.5 -2.20313,0.5625 l -0.0312,0.0781 q 1.40625,2.1875 3.15625,4.14062 1.75,1.9375 4.04688,3.6875 l -1.67188,1.92188 q -1.32812,-0.98438 -2.53125,-2.125 -1.1875,-1.15625 -2.25,-2.375 -1.0625,-1.23438 -1.98437,-2.48438 -0.90625,-1.26562 -1.67188,-2.45312 -0.75,-1.20313 -1.34375,-2.29688 -0.59375,-1.10937 -1.01562,-2.01562 l 2.14062,-1.15625 q 0.5625,1.21875 1.26563,1.92187 0.71875,0.6875 1.65625,0.6875 0.67187,0 1.20312,-0.34375 0.53125,-0.34375 0.89063,-0.875 0.35937,-0.54687 0.54687,-1.1875 0.1875,-0.65625 0.1875,-1.28125 0,-0.73437 -0.1875,-1.4375 -0.1875,-0.71875 -0.48437,-1.39062 -0.29688,-0.6875 -0.67188,-1.32813 Q 244.21875,179.59375 243.875,179 h -8.03125 v -2.29688 h 16.73437 z m 27.57813,0 H 276.875 v 21 h -2.5625 v -5.57813 l -0.0625,-0.0156 q -0.3125,0.29687 -0.73438,0.625 -0.42187,0.3125 -0.96875,0.57812 -0.54687,0.25 -1.23437,0.42188 -0.67188,0.17187 -1.51563,0.17187 -1.54687,0 -2.82812,-0.59375 -1.26563,-0.59375 -2.1875,-1.57812 -0.92188,-1 -1.4375,-2.28125 -0.5,-1.29688 -0.5,-2.70313 0,-1.40625 0.5,-2.60937 0.51562,-1.21875 1.40625,-2.10938 0.89062,-0.89062 2.07812,-1.39062 1.1875,-0.51563 2.54688,-0.51563 0.375,0 0.9375,0.0625 0.57812,0.0625 1.23437,0.28125 0.65625,0.21875 1.35938,0.64063 0.70312,0.40625 1.34375,1.10937 L 274.3125,184.5 V 179 H 260.25 v -2.29688 h 19.90625 z m -5.78125,8.42187 q -0.98438,-1.1875 -2.14063,-1.90625 -1.15625,-0.73437 -2.625,-0.73437 -1.15625,0 -1.96875,0.4375 -0.79687,0.4375 -1.3125,1.10937 -0.51562,0.65625 -0.75,1.46875 -0.23437,0.8125 -0.23437,1.5625 0,0.8125 0.26562,1.60938 0.26563,0.79687 0.78125,1.4375 0.53125,0.625 1.3125,1.03125 0.78125,0.39062 1.82813,0.39062 1.07812,0 1.96875,-0.40625 0.89062,-0.42187 1.53125,-1.0625 0.64062,-0.64062 0.98437,-1.4375 0.35938,-0.79687 0.35938,-1.54687 z m 2.28125,-10.28125 h -2.26563 l -1.42187,-2.67187 q -0.90625,-1.70313 -1.64063,-2.70313 -0.75,-1 -1.40625,-1.51562 -0.67187,-0.53125 -1.3125,-0.67188 -0.64062,-0.15625 -1.34375,-0.15625 h -3.03125 v -2.53125 h 2.85938 q 0.90625,0 1.64062,0.15625 0.73438,0.14063 1.40625,0.53125 0.65625,0.375 1.29688,1.0625 0.625,0.67188 1.34375,1.75 0.71875,1.0625 1.57812,2.5625 0.84375,1.48438 1.9375,3.51563 z M 300.10937,179 h -3.28125 v 21 h -2.5625 v -21 h -7.04687 v 12.125 q 0,0.25 -0.0312,0.57812 -0.0312,0.32813 -0.15625,0.64063 -0.10938,0.29687 -0.32813,0.51562 -0.21875,0.20313 -0.60937,0.20313 -0.42188,0 -0.9375,-0.26563 -0.5,-0.28125 -1.03125,-0.71875 -0.53125,-0.45312 -1.03125,-1.01562 -0.48438,-0.5625 -0.875,-1.15625 -0.39063,-0.59375 -0.625,-1.15625 -0.23438,-0.5625 -0.23438,-1 0,-0.39063 0.1875,-0.625 0.20313,-0.23438 0.54688,-0.35938 0.35937,-0.125 0.85937,-0.15625 0.51563,-0.0312 1.125,-0.0312 H 284.625 V 179 h -5.5625 v -2.29688 h 21.04687 z m 7.51563,17.46875 q -1.39063,0 -2.53125,-0.51563 -1.14063,-0.51562 -1.96875,-1.42187 -0.8125,-0.92188 -1.26563,-2.15625 -0.45312,-1.25 -0.45312,-2.6875 0,-1.5625 0.48437,-2.8125 0.48438,-1.26563 1.32813,-2.15625 0.85937,-0.89063 2,-1.35938 1.15625,-0.48437 2.48437,-0.48437 1.70313,0 3.21875,0.8125 1.51563,0.79687 3.03125,2.35937 0.70313,-1.09375 1.64063,-1.89062 0.9375,-0.8125 2.3125,-1.0625 V 179 h -18.89063 v -2.29688 h 29.26563 V 179 h -7.82813 v 4.17187 q 1.04688,0.25 1.89063,0.82813 0.84375,0.57812 1.42187,1.39062 0.59375,0.8125 0.90625,1.82813 0.32813,1 0.32813,2.10937 0,1.625 -0.5625,2.95313 -0.54688,1.32812 -1.48438,2.29687 -0.92187,0.95313 -2.10937,1.48438 -1.1875,0.51562 -2.45313,0.51562 -1.64062,0 -3.0625,-0.76562 -1.42187,-0.76563 -2.8125,-2.10938 -0.40625,0.59375 -0.90625,1.10938 -0.48437,0.5 -1.07812,0.875 -0.59375,0.35937 -1.3125,0.57812 -0.71875,0.20313 -1.59375,0.20313 z m 0.32812,-11.3125 q -0.9375,0 -1.6875,0.375 -0.73437,0.35937 -1.26562,0.98437 -0.53125,0.60938 -0.8125,1.45313 -0.28125,0.82812 -0.28125,1.76562 0,0.8125 0.23437,1.59375 0.23438,0.78125 0.6875,1.39063 0.46875,0.60937 1.15625,0.98437 0.6875,0.375 1.57813,0.375 1.09375,0 1.85937,-0.54687 0.78125,-0.5625 1.375,-1.45313 0.60938,-0.89062 1.10938,-2 0.5,-1.125 1.04687,-2.25 -1.1875,-1.375 -2.46875,-2.01562 -1.26562,-0.65625 -2.53125,-0.65625 z m 10.0625,9.03125 q 0.90625,0 1.71875,-0.28125 0.8125,-0.29688 1.42188,-0.875 0.625,-0.59375 0.98437,-1.46875 0.375,-0.89063 0.375,-2.09375 0,-0.76563 -0.20312,-1.51563 -0.1875,-0.75 -0.59375,-1.34375 -0.40625,-0.59375 -1.04688,-0.95312 -0.625,-0.375 -1.48437,-0.375 -0.76563,0 -1.375,0.29687 -0.60938,0.28125 -1.10938,0.78125 -0.5,0.48438 -0.92187,1.15625 -0.40625,0.65625 -0.78125,1.42188 -0.375,0.75 -0.75,1.5625 -0.35938,0.79687 -0.76563,1.57812 0.39063,0.39063 0.875,0.76563 0.5,0.375 1.0625,0.67187 Q 316,193.8125 316.65625,194 q 0.65625,0.1875 1.35937,0.1875 z m 2.21875,-17.04688 h -2.26562 l -1.42188,-2.67187 q -0.90625,-1.70313 -1.64062,-2.70313 -0.75,-1 -1.40625,-1.51562 -0.67188,-0.53125 -1.3125,-0.67188 -0.64063,-0.15625 -1.34375,-0.15625 h -3.03125 v -2.53125 h 2.85937 q 0.90625,0 1.64063,0.15625 0.73437,0.14063 1.40625,0.53125 0.65625,0.375 1.29687,1.0625 0.625,0.67188 1.34375,1.75 0.71875,1.0625 1.57813,2.5625 0.84375,1.48438 1.9375,3.51563 z m 12.4375,19.29688 -2.5,7.6875 h -1.82812 l 1.82812,-7.6875 z"
         id="path6" />
      <path
         d="m 60.140625,237.5 q -0.28125,0.0312 -0.53125,0.0625 -0.25,0.0156 -0.515625,0.0156 -1.265625,0 -2.296875,-0.45312 -1.015625,-0.45313 -1.75,-1.21875 -0.71875,-0.76563 -1.109375,-1.76563 -0.390625,-1.01562 -0.390625,-2.125 0,-0.79687 0.21875,-1.54687 0.21875,-0.75 0.6875,-1.40625 L 54.4375,229 h -4.984375 v -2.29688 h 26.125 V 229 h -3.28125 v 21 h -2.5625 V 229 H 63.84375 l -0.01563,0.0625 q 0.40625,0.40625 0.75,0.98437 0.34375,0.5625 0.578125,1.23438 0.25,0.67187 0.390625,1.40625 0.140625,0.73437 0.140625,1.48437 0,1.21875 -0.390625,2.35938 -0.375,1.14062 -1.078125,2.15625 -0.6875,1.01562 -1.671875,1.89062 -0.96875,0.85938 -2.15625,1.53125 v 0.0625 q 0.78125,0.60938 1.671875,1.46875 0.890625,0.84375 1.765625,1.76563 0.875,0.92187 1.65625,1.84375 0.78125,0.90625 1.34375,1.65625 l -1.765625,1.48437 q -0.484375,-0.60937 -1.21875,-1.48437 -0.734375,-0.89063 -1.640625,-1.84375 -0.90625,-0.96875 -1.96875,-1.92188 -1.046875,-0.96875 -2.1875,-1.75 -0.5625,0.26563 -1.1875,0.39063 -0.609375,0.125 -1.21875,0.125 -0.703125,0 -1.359375,-0.17188 -0.640625,-0.17187 -1.15625,-0.5 -0.5,-0.32812 -0.796875,-0.79687 -0.296875,-0.48438 -0.296875,-1.10938 0,-0.98437 0.71875,-1.51562 0.734375,-0.54688 1.90625,-0.54688 0.859375,0 1.734375,0.3125 0.890625,0.29688 1.734375,0.90625 0.4375,-0.0937 0.984375,-0.32812 0.546875,-0.25 1.109375,-0.625 0.578125,-0.39063 1.109375,-0.90625 0.546875,-0.53125 0.96875,-1.20313 0.421875,-0.67187 0.671875,-1.46875 0.265625,-0.8125 0.265625,-1.75 0,-0.9375 -0.28125,-1.84375 -0.265625,-0.90625 -0.796875,-1.60937 -0.53125,-0.71875 -1.328125,-1.15625 -0.796875,-0.4375 -1.84375,-0.4375 -0.828125,0 -1.375,0.26562 -0.546875,0.25 -0.890625,0.65625 -0.34375,0.40625 -0.484375,0.90625 -0.140625,0.48438 -0.140625,0.95313 0,0.60937 0.21875,1.20312 0.21875,0.57813 0.640625,1.04688 0.4375,0.45312 1.078125,0.73437 0.640625,0.28125 1.46875,0.28125 0.265625,0 0.640625,-0.0469 z m 29.3125,-8.5 h -14.96875 v -2.29688 h 14.96875 z m -12.375,11.46875 q 0,-1.40625 0.546875,-2.625 0.546875,-1.21875 1.515625,-2.125 0.96875,-0.92188 2.28125,-1.4375 1.328125,-0.53125 2.875,-0.53125 1.171875,0 2.171875,0.29687 1,0.29688 1.828125,0.78125 0.828125,0.48438 1.46875,1.10938 0.640625,0.60937 1.109375,1.23437 0.46875,0.625 0.75,1.23438 Q 91.90625,239 92,239.4375 q -0.03125,1.875 -0.5625,3.40625 -0.53125,1.53125 -1.484375,2.625 -0.9375,1.07812 -2.28125,1.67187 -1.328125,0.59375 -2.96875,0.59375 -1.71875,0 -3.125,-0.60937 -1.40625,-0.625 -2.40625,-1.64063 -1,-1.01562 -1.546875,-2.3125 -0.546875,-1.3125 -0.546875,-2.70312 z m 2.5,0.26562 q 0,0.84375 0.296875,1.67188 0.296875,0.82812 0.875,1.48437 0.59375,0.65625 1.46875,1.0625 0.890625,0.40625 2.0625,0.40625 1.078125,0 1.984375,-0.35937 L 81.125,237.25 q -0.75,0.65625 -1.15625,1.57812 -0.390625,0.92188 -0.390625,1.90625 z m 10.15625,-1.57812 q -0.546875,-0.70313 -1.125,-1.26563 -0.578125,-0.5625 -1.234375,-0.95312 -0.640625,-0.40625 -1.375,-0.60938 -0.734375,-0.21875 -1.59375,-0.21875 -0.390625,0 -0.71875,0.0469 -0.3125,0.0312 -0.65625,0.10937 l 5.015625,7.53125 q 0.75,-0.8125 1.1875,-1.98437 0.4375,-1.17188 0.5,-2.65625 z M 108.125,229 h -5.29687 v 6.85937 H 97.5625 q -2.453125,0 -3.703125,1.21875 -1.25,1.20313 -1.25,3.46875 0,1.28125 0.40625,2.26563 0.421875,0.98437 1.140625,1.65625 0.734375,0.65625 1.734375,1 1,0.34375 2.171875,0.34375 1.234375,0 1.98438,-0.375 -0.06251,-0.39063 -0.09376,-0.6875 -0.03125,-0.29688 -0.03125,-0.59375 0,-0.65625 0.156255,-1.34375 0.17187,-0.70313 0.5,-1.26563 0.34375,-0.57812 0.85937,-0.9375 0.53125,-0.35937 1.26563,-0.35937 0.45312,0 0.85937,0.15625 0.40625,0.15625 0.70313,0.48437 0.3125,0.3125 0.48437,0.79688 0.1875,0.48437 0.1875,1.125 0,0.64062 -0.17187,1.1875 -0.17188,0.53125 -0.45313,1 -0.26562,0.45312 -0.60937,0.85937 -0.34375,0.39063 -0.67188,0.71875 0.34375,0.75 0.71875,1.34375 0.39063,0.59375 0.79688,1.0625 0.42187,0.46875 0.84375,0.84375 0.42187,0.375 0.84375,0.70313 l -1.92188,2.01562 q -0.82812,-0.73437 -1.42187,-1.46875 -0.57813,-0.71875 -0.98438,-1.35937 -0.39062,-0.64063 -0.64062,-1.15625 -0.25,-0.51563 -0.40625,-0.82813 -1.07813,0.42188 -2.656255,0.42188 -2.03125,0 -3.546875,-0.65625 -1.515625,-0.67188 -2.53125,-1.78125 -1,-1.125 -1.5,-2.5625 -0.5,-1.4375 -0.5,-2.98438 0,-1.60937 0.515625,-2.82812 0.515625,-1.23438 1.4375,-2.0625 0.921875,-0.84375 2.1875,-1.26563 1.28125,-0.4375 2.796875,-0.4375 h 3.20313 V 229 H 87.109375 v -2.29688 H 108.125 Z m 8.3125,0 h -3.28125 v 21 h -2.5625 v -21 h -3.5625 v -2.29688 h 9.40625 z m -6.79687,-7.0625 q 0,-0.89063 0.53125,-1.4375 0.51562,-0.5625 1.35937,-0.5625 0.39063,0 0.75,0.15625 0.34375,0.15625 0.60938,0.4375 0.26562,0.26562 0.42187,0.64062 0.14063,0.35938 0.14063,0.79688 0,0.89062 -0.51563,1.4375 -0.53125,0.54687 -1.375,0.54687 -0.40625,0 -0.75,-0.14062 -0.35937,-0.15625 -0.60937,-0.42188 -0.26563,-0.28125 -0.40625,-0.64062 -0.15625,-0.375 -0.15625,-0.8125 z M 138.07812,229 h -3.28125 v 21 h -2.59375 v -6.57813 l -0.0625,-0.0469 q -0.85937,0.78125 -1.6875,1.23437 -0.8125,0.4375 -1.53125,0.67188 -0.70312,0.21875 -1.28124,0.28125 -0.57813,0.0625 -0.95313,0.0625 -1.4375,0 -2.54687,-0.45313 -1.10938,-0.45312 -1.85938,-1.1875 -0.75,-0.75 -1.14062,-1.70312 -0.39063,-0.96875 -0.39063,-2 0,-1.07813 0.4375,-2.14063 0.45313,-1.0625 1.40625,-1.90625 l -0.0156,-0.0625 H 117.625 V 233.875 h 12.5625 v 2.29687 h -1.60938 q -1.60937,0 -2.64062,0.42188 -1.03125,0.42187 -1.625,1.03125 -0.59375,0.60937 -0.82812,1.3125 -0.21875,0.6875 -0.21875,1.25 0,0.46875 0.15625,1.01562 0.15625,0.53125 0.51562,0.98438 0.375,0.45312 0.98438,0.75 0.625,0.29687 1.5625,0.29687 0.98437,0 1.82812,-0.3125 0.85937,-0.32812 1.57812,-0.84375 0.71875,-0.51562 1.29688,-1.15625 0.59375,-0.65625 1.01562,-1.29687 V 229 h -16.85937 v -2.29688 h 22.73437 z m 8.3125,0 h -3.28125 v 21 h -2.5625 v -21 h -3.5625 v -2.29688 h 9.40625 z m 31.8125,-2.29688 V 229 h -3.28125 v 21 h -2.59375 v -10.5 h -9.04687 q -0.82813,0.54687 -1.98438,0.65625 l -0.0312,0.0781 q 1.51563,2.375 3.32813,4.42188 1.8125,2.04687 4.125,3.79687 l -1.67188,1.92188 q -1.32812,-0.98438 -2.53125,-2.125 -1.1875,-1.14063 -2.25,-2.35938 -1.04687,-1.23437 -1.96875,-2.48437 -0.92187,-1.26563 -1.6875,-2.48438 -0.76562,-1.21875 -1.375,-2.34375 -0.60937,-1.14062 -1.0625,-2.10937 l 2.14063,-1.15625 q 0.29687,0.6875 0.57812,1.15625 0.29688,0.45312 0.59375,0.73437 0.29688,0.26563 0.625,0.39063 0.32813,0.10937 0.70313,0.10937 1.07812,0 1.57812,-0.84375 0.51563,-0.84375 0.51563,-2.21875 0,-0.8125 -0.15625,-1.59375 -0.15625,-0.79687 -0.40625,-1.51562 -0.23438,-0.73438 -0.51563,-1.375 -0.28125,-0.64063 -0.53125,-1.15625 h -7.23437 v -2.29688 z M 172.32812,229 H 164 q 0.65625,1.42187 1.03125,2.85937 0.375,1.4375 0.375,2.85938 0,0.65625 -0.10938,1.29687 -0.0937,0.625 -0.32812,1.1875 l 0.0312,0.0312 h 7.32812 z m -0.60937,-7.0625 q 0,-0.89063 0.53125,-1.4375 0.51562,-0.5625 1.35937,-0.5625 0.39063,0 0.75,0.15625 0.34375,0.15625 0.60938,0.4375 0.26562,0.26562 0.42187,0.64062 0.14063,0.35938 0.14063,0.79688 0,0.89062 -0.51563,1.4375 -0.53125,0.54687 -1.375,0.54687 -0.40625,0 -0.75,-0.14062 -0.35937,-0.15625 -0.60937,-0.42188 -0.26563,-0.28125 -0.40625,-0.64062 -0.15625,-0.375 -0.15625,-0.8125 z M 198.15625,229 H 194.875 v 21 h -2.5625 v -21 h -7.04688 v 12.125 q 0,0.25 -0.0312,0.57812 -0.0312,0.32813 -0.15625,0.64063 -0.10937,0.29687 -0.32812,0.51562 -0.21875,0.20313 -0.60938,0.20313 -0.42187,0 -0.9375,-0.26563 -0.5,-0.28125 -1.03125,-0.71875 -0.53125,-0.45312 -1.03125,-1.01562 -0.48437,-0.5625 -0.875,-1.15625 -0.39062,-0.59375 -0.625,-1.15625 -0.23437,-0.5625 -0.23437,-1 0,-0.39063 0.1875,-0.625 0.20312,-0.23438 0.54687,-0.35938 0.35938,-0.125 0.85938,-0.15625 0.51562,-0.0312 1.125,-0.0312 h 0.54687 V 229 h -5.5625 v -2.29688 h 21.04688 z m 21.54687,0 h -3.28125 v 21 h -2.5625 v -8.76563 h -8.59375 v 1.85938 q 0,0.48437 -0.0469,0.85937 -0.0312,0.375 -0.17188,0.625 -0.125,0.25 -0.375,0.39063 -0.23437,0.125 -0.64062,0.125 -0.40625,0 -0.90625,-0.23438 -0.5,-0.25 -1.01563,-0.65625 -0.51562,-0.42187 -1,-0.9375 -0.48437,-0.53125 -0.875,-1.09375 -0.375,-0.57812 -0.60937,-1.14062 -0.23438,-0.5625 -0.23438,-1.03125 0,-0.32813 0.10938,-0.53125 0.125,-0.21875 0.32812,-0.32813 0.21875,-0.10937 0.51563,-0.14062 0.29687,-0.0469 0.67187,-0.0469 h 1.6875 V 229 h -5.64062 v -2.29688 h 22.64062 z m -14.4375,0 v 9.95312 h 8.59375 V 229 Z m 18.82813,17.4375 -2.5,7.6875 h -1.82813 l 1.82813,-7.6875 z M 247.8125,229 h -7.42188 v 11.1875 q 0,1.14062 0.28125,1.90625 0.29688,0.75 0.9375,1.34375 0.64063,0.57812 1.64063,1.125 1.01562,0.53125 2.45312,1.25 1.32813,0.65625 2.46875,1.26562 1.15625,0.60938 2,1.28125 0.84375,0.67188 1.32813,1.45313 0.48437,0.78125 0.48437,1.78125 0,0.76562 -0.3125,1.53125 -0.3125,0.78125 -0.90625,1.48437 l -2.10937,-1.28125 q 0.23437,-0.375 0.4375,-0.79687 0.21875,-0.42188 0.21875,-0.875 0,-0.60938 -0.42188,-1.14063 -0.40625,-0.51562 -1.09375,-0.98437 -0.6875,-0.48438 -1.57812,-0.9375 -0.89063,-0.45313 -1.85938,-0.92188 -1.64062,-0.79687 -2.85937,-1.4375 -1.21875,-0.64062 -2.04688,-1.39062 -0.8125,-0.76563 -1.21875,-1.78125 -0.40625,-1.01563 -0.40625,-2.54688 V 229 h -3.51562 v -2.29688 h 19.34375 V 229 H 250.375 v 9.90625 q 0,1.20312 -0.34375,2 -0.32813,0.78125 -0.85938,1.23437 -0.51562,0.45313 -1.15625,0.64063 -0.625,0.17187 -1.21875,0.17187 -0.59375,0 -1.17187,-0.125 -0.57813,-0.14062 -1.09375,-0.35937 v -2.54688 q 0.34375,0.20313 0.84375,0.35938 0.5,0.14062 1,0.14062 0.46875,0 0.75,-0.15625 0.28125,-0.15625 0.4375,-0.46875 0.15625,-0.3125 0.20312,-0.76562 0.0469,-0.45313 0.0469,-1.04688 z m 33.46875,0 h -13.20313 v 6.15625 l 0.0781,0.0312 q 0.79687,-1.09375 1.98437,-1.75 1.1875,-0.67188 2.60938,-0.67188 1.125,0 2.07812,0.46875 0.96875,0.45313 1.67188,1.26563 0.70312,0.79687 1.09375,1.89062 Q 278,237.48437 278,238.75 q 0,1.4375 -0.5,2.65625 -0.5,1.20312 -1.28125,2.1875 -0.78125,0.98437 -1.76563,1.75 -0.98437,0.75 -1.9375,1.28125 l -1.39062,-2.40625 q 0.3125,-0.17188 0.76562,-0.45313 0.45313,-0.28125 0.9375,-0.65625 0.5,-0.375 0.96875,-0.84375 0.48438,-0.48437 0.85938,-1.04687 0.39062,-0.5625 0.625,-1.21875 0.23437,-0.65625 0.23437,-1.39063 0,-0.67187 -0.21875,-1.28125 -0.20312,-0.60937 -0.57812,-1.0625 -0.375,-0.45312 -0.90625,-0.71875 -0.51563,-0.26562 -1.14063,-0.26562 -0.8125,0 -1.57812,0.42187 -0.76563,0.42188 -1.39063,1.0625 -0.625,0.625 -1.0625,1.34375 -0.42187,0.71875 -0.5625,1.32813 V 250 h -2.5625 v -5.98438 l -0.0625,-0.0312 q -0.23437,0.20313 -0.59375,0.5 -0.35937,0.28125 -0.875,0.54688 -0.5,0.26562 -1.17187,0.45312 -0.65625,0.1875 -1.48438,0.1875 -1.375,0 -2.54687,-0.53125 -1.15625,-0.53125 -2.01563,-1.4375 -0.84375,-0.92187 -1.32812,-2.15625 -0.48438,-1.23437 -0.48438,-2.64062 0,-1.34375 0.4375,-2.48438 0.45313,-1.14062 1.21875,-1.95312 0.78125,-0.82813 1.8125,-1.28125 1.04688,-0.46875 2.25,-0.46875 0.84375,0 1.5625,0.21875 0.73438,0.20312 1.32813,0.51562 0.60937,0.29688 1.07812,0.65625 0.48438,0.34375 0.8125,0.625 l 0.0625,-0.0156 V 229 H 252.5625 v -2.29688 h 28.71875 z m -20.23438,6.15625 q -0.89062,0 -1.57812,0.375 -0.67188,0.35937 -1.125,0.9375 -0.45313,0.5625 -0.6875,1.28125 -0.21875,0.70312 -0.21875,1.39062 0,0.75 0.26562,1.5 0.26563,0.73438 0.75,1.32813 0.5,0.59375 1.1875,0.96875 0.6875,0.35937 1.51563,0.35937 0.70312,0 1.46875,-0.28125 0.78125,-0.29687 1.42187,-0.90625 0.65625,-0.60937 1.07813,-1.54687 0.42187,-0.95313 0.42187,-2.26563 v -0.76562 q -0.375,-0.46875 -0.89062,-0.89063 -0.5,-0.4375 -1.09375,-0.76562 -0.57813,-0.32813 -1.21875,-0.51563 -0.64063,-0.20312 -1.29688,-0.20312 z M 302.82812,229 h -3.28125 v 21 h -2.5625 v -8.76563 h -8.59375 v 1.85938 q 0,0.48437 -0.0469,0.85937 -0.0312,0.375 -0.17188,0.625 -0.125,0.25 -0.375,0.39063 -0.23437,0.125 -0.64062,0.125 -0.40625,0 -0.90625,-0.23438 -0.5,-0.25 -1.01563,-0.65625 -0.51562,-0.42187 -1,-0.9375 -0.48437,-0.53125 -0.875,-1.09375 -0.375,-0.57812 -0.60937,-1.14062 -0.23438,-0.5625 -0.23438,-1.03125 0,-0.32813 0.10938,-0.53125 0.125,-0.21875 0.32812,-0.32813 0.21875,-0.10937 0.51563,-0.14062 0.29687,-0.0469 0.67187,-0.0469 h 1.6875 V 229 h -5.64062 v -2.29688 h 22.64062 z m -14.4375,0 v 9.95312 h 8.59375 V 229 Z m 10.9375,-1.85938 h -2.26562 l -1.42188,-2.67187 q -0.90625,-1.70313 -1.64062,-2.70313 -0.75,-1 -1.40625,-1.51562 -0.67188,-0.53125 -1.3125,-0.67188 -0.64063,-0.15625 -1.34375,-0.15625 h -3.03125 v -2.53125 h 2.85937 q 0.90625,0 1.64063,0.15625 0.73437,0.14063 1.40625,0.53125 0.65625,0.375 1.29687,1.0625 0.625,0.67188 1.34375,1.75 0.71875,1.0625 1.57813,2.5625 0.84375,1.48438 1.9375,3.51563 z M 330.45312,229 H 317.25 v 6.15625 l 0.0781,0.0312 q 0.79688,-1.09375 1.98438,-1.75 1.1875,-0.67188 2.60937,-0.67188 1.125,0 2.07813,0.46875 0.96875,0.45313 1.67187,1.26563 0.70313,0.79687 1.09375,1.89062 0.40625,1.09375 0.40625,2.35938 0,1.4375 -0.5,2.65625 -0.5,1.20312 -1.28125,2.1875 -0.78125,0.98437 -1.76562,1.75 -0.98438,0.75 -1.9375,1.28125 l -1.39063,-2.40625 q 0.3125,-0.17188 0.76563,-0.45313 0.45312,-0.28125 0.9375,-0.65625 0.5,-0.375 0.96875,-0.84375 0.48437,-0.48437 0.85937,-1.04687 0.39063,-0.5625 0.625,-1.21875 0.23438,-0.65625 0.23438,-1.39063 0,-0.67187 -0.21875,-1.28125 -0.20313,-0.60937 -0.57813,-1.0625 -0.375,-0.45312 -0.90625,-0.71875 -0.51562,-0.26562 -1.14062,-0.26562 -0.8125,0 -1.57813,0.42187 -0.76562,0.42188 -1.39062,1.0625 -0.625,0.625 -1.0625,1.34375 -0.42188,0.71875 -0.5625,1.32813 V 250 h -2.5625 v -5.98438 l -0.0625,-0.0312 q -0.23438,0.20313 -0.59375,0.5 -0.35938,0.28125 -0.875,0.54688 -0.5,0.26562 -1.17188,0.45312 -0.65625,0.1875 -1.48437,0.1875 -1.375,0 -2.54688,-0.53125 -1.15625,-0.53125 -2.01562,-1.4375 -0.84375,-0.92187 -1.32813,-2.15625 -0.48437,-1.23437 -0.48437,-2.64062 0,-1.34375 0.4375,-2.48438 0.45312,-1.14062 1.21875,-1.95312 0.78125,-0.82813 1.8125,-1.28125 1.04687,-0.46875 2.25,-0.46875 0.84375,0 1.5625,0.21875 0.73437,0.20312 1.32812,0.51562 0.60938,0.29688 1.07813,0.65625 0.48437,0.34375 0.8125,0.625 l 0.0625,-0.0156 V 229 h -12.95313 v -2.29688 h 28.71875 z m -20.23437,6.15625 q -0.89063,0 -1.57813,0.375 -0.67187,0.35937 -1.125,0.9375 -0.45312,0.5625 -0.6875,1.28125 -0.21875,0.70312 -0.21875,1.39062 0,0.75 0.26563,1.5 0.26562,0.73438 0.75,1.32813 0.5,0.59375 1.1875,0.96875 0.6875,0.35937 1.51562,0.35937 0.70313,0 1.46875,-0.28125 0.78125,-0.29687 1.42188,-0.90625 0.65625,-0.60937 1.07812,-1.54687 0.42188,-0.95313 0.42188,-2.26563 v -0.76562 q -0.375,-0.46875 -0.89063,-0.89063 -0.5,-0.4375 -1.09375,-0.76562 -0.57812,-0.32813 -1.21875,-0.51563 -0.64062,-0.20312 -1.29687,-0.20312 z M 338.76562,229 h -3.28125 v 21 h -2.5625 v -21 h -3.5625 v -2.29688 h 9.40625 z m -6.79687,-7.0625 q 0,-0.89063 0.53125,-1.4375 0.51562,-0.5625 1.35937,-0.5625 0.39063,0 0.75,0.15625 0.34375,0.15625 0.60938,0.4375 0.26562,0.26562 0.42187,0.64062 0.14063,0.35938 0.14063,0.79688 0,0.89062 -0.51563,1.4375 -0.53125,0.54687 -1.375,0.54687 -0.40625,0 -0.75,-0.14062 -0.35937,-0.15625 -0.60937,-0.42188 -0.26563,-0.28125 -0.40625,-0.64062 -0.15625,-0.375 -0.15625,-0.8125 z M 358.20312,229 h -3.28125 v 21 h -2.57812 v -12.04688 h -7.3125 q 0,1.03125 -0.0312,1.76563 -0.0156,0.73437 -0.125,1.21875 -0.10938,0.46875 -0.32813,0.6875 -0.21875,0.21875 -0.60937,0.21875 -0.8125,0 -1.54688,-0.53125 -0.71875,-0.53125 -1.28125,-1.28125 -0.54687,-0.75 -0.875,-1.5625 -0.32812,-0.8125 -0.32812,-1.375 0,-0.5 0.21875,-0.78125 0.21875,-0.28125 0.57812,-0.42188 0.35938,-0.14062 0.8125,-0.17187 0.46875,-0.0312 0.9375,-0.0312 h 9.89063 V 229 h -14.67188 v -2.29688 h 20.53125 z m 8.3125,0 h -3.28125 v 21 h -2.5625 v -21 h -3.5625 v -2.29688 h 9.40625 z m 32.71875,0 h -3.28125 v 21 h -2.5625 v -13.5625 h -5.03125 l -0.0156,0.0625 q 0.1875,0.21875 0.5625,0.67187 0.375,0.4375 0.75,1.09375 0.375,0.64063 0.65625,1.46875 0.28125,0.8125 0.28125,1.76563 0,0.95312 -0.32813,1.89062 -0.3125,0.92188 -0.95312,1.67188 -0.625,0.73437 -1.59375,1.1875 -0.96875,0.45312 -2.25,0.45312 -1.26563,0 -2.32813,-0.4375 -1.04687,-0.45312 -1.92187,-1.20312 -0.85938,-0.75 -1.54688,-1.73438 -0.6875,-0.98437 -1.23437,-2.07812 -0.53125,-1.10938 -0.9375,-2.23438 -0.39063,-1.14062 -0.67188,-2.17187 -0.28125,-1.04688 -0.45312,-1.92188 -0.17188,-0.875 -0.26563,-1.45312 l 2.3125,-0.45313 q 0.51563,2.8125 1.25,4.9375 0.75,2.10938 1.65625,3.53125 0.90625,1.42188 1.95313,2.14063 1.04687,0.70312 2.1875,0.70312 0.8125,0 1.3125,-0.3125 0.5,-0.32812 0.78125,-0.78125 0.28125,-0.46875 0.375,-0.95312 0.10937,-0.5 0.10937,-0.85938 0,-0.64062 -0.26562,-1.35937 -0.25,-0.73438 -0.75,-1.45313 -0.48438,-0.73437 -1.21875,-1.40625 -0.73438,-0.67187 -1.6875,-1.21875 v -1.82812 h 9.26562 V 229 H 374.1875 v -2.29688 h 25.04687 z m 8.3125,0 h -3.28125 v 21 h -2.5625 v -21 h -3.5625 v -2.29688 h 9.40625 z m -3.5,-1.85938 h -2.26562 l -1.42188,-2.67187 q -0.90625,-1.70313 -1.65625,-2.70313 -0.73437,-1 -1.39062,-1.51562 -0.67188,-0.53125 -1.3125,-0.67188 -0.64063,-0.15625 -1.34375,-0.15625 H 391.625 v -2.53125 h 2.85937 q 0.90625,0 1.64063,0.15625 0.73437,0.14063 1.40625,0.53125 0.65625,0.375 1.28125,1.0625 0.64062,0.67188 1.35937,1.75 0.71875,1.0625 1.5625,2.5625 0.85938,1.48438 1.95313,3.51563 z M 430.4375,229 h -4.65625 v 5.76562 h -7.82813 q -1.15625,0 -1.60937,0.32813 -0.4375,0.32812 -0.4375,1.0625 0,0.375 0.0937,0.78125 0.0937,0.40625 0.34375,0.76562 0.25,0.34375 0.67187,0.57813 0.4375,0.21875 1.10938,0.21875 h 4.42187 q 1.375,0 2.3125,0.375 0.95313,0.375 1.51563,1.03125 0.57812,0.65625 0.82812,1.54687 0.25,0.89063 0.25,1.90625 0,1.39063 -0.46875,2.65625 -0.45312,1.26563 -1.35937,2.23438 -0.90625,0.96875 -2.26563,1.54687 -1.34375,0.57813 -3.14062,0.57813 -1.95313,0 -3.75,-0.71875 -1.78125,-0.73438 -3.28125,-2.03125 -1.48438,-1.29688 -2.625,-3.07813 -1.125,-1.78125 -1.76563,-3.90625 l 2.17188,-0.85937 q 0.54687,1.60937 1.45312,3.09375 0.90625,1.48437 2.09375,2.625 1.20313,1.14062 2.64063,1.82812 1.4375,0.67188 3.03125,0.67188 1.125,0 2,-0.32813 0.89062,-0.32812 1.51562,-0.9375 0.625,-0.60937 0.95313,-1.45312 0.32812,-0.85938 0.32812,-1.92188 0,-0.75 -0.17187,-1.21875 -0.17188,-0.48437 -0.54688,-0.75 -0.35937,-0.26562 -0.92187,-0.35937 -0.5625,-0.10938 -1.34375,-0.10938 h -4.09375 q -1.15625,0 -2,-0.5 -0.84375,-0.5 -1.40625,-1.26562 -0.54688,-0.76563 -0.8125,-1.6875 -0.26563,-0.9375 -0.26563,-1.79688 0,-0.92187 0.29688,-1.53125 0.29687,-0.625 0.8125,-0.98437 0.51562,-0.375 1.21875,-0.53125 0.71875,-0.15625 1.54687,-0.15625 h 5.92188 V 229 h -16.76563 v -2.29688 h 23.98438 z m 23.71875,0 H 450.875 v 21 h -2.5625 v -21 h -3.875 v 9.67187 q 0,1.625 -0.45313,2.79688 -0.4375,1.17187 -1.21875,1.9375 -0.76562,0.76562 -1.79687,1.14062 -1.03125,0.35938 -2.21875,0.35938 -1.32813,0 -2.40625,-0.42188 -1.0625,-0.42187 -1.8125,-1.25 -0.75,-0.82812 -1.15625,-2.04687 -0.40625,-1.23438 -0.40625,-2.82813 V 229 h -3.625 v -2.29688 h 24.8125 z m -18.59375,0 v 9.84375 q 0,0.71875 0.15625,1.39062 0.17187,0.65625 0.53125,1.17188 0.375,0.51562 0.96875,0.82812 0.60937,0.3125 1.48437,0.3125 0.89063,0 1.48438,-0.3125 0.60937,-0.3125 0.98437,-0.82812 0.375,-0.51563 0.53125,-1.17188 0.17188,-0.67187 0.17188,-1.39062 V 229 Z m 26.90625,0 h -3.28125 v 21 h -2.5625 v -21 h -3.5625 v -2.29688 h 9.40625 z m 15.64062,0 h -5.89062 q 0.79687,1.375 1.28125,2.8125 0.5,1.42187 0.5,2.89062 0,1.10938 -0.34375,2.14063 -0.32813,1.01562 -0.98438,1.82812 -0.64062,0.79688 -1.60937,1.3125 -0.95313,0.5 -2.20313,0.5625 l -0.0312,0.0781 q 1.40625,2.1875 3.15625,4.14062 1.75,1.9375 4.04688,3.6875 l -1.67188,1.92188 q -1.32812,-0.98438 -2.53125,-2.125 -1.1875,-1.15625 -2.25,-2.375 -1.0625,-1.23438 -1.98437,-2.48438 -0.90625,-1.26562 -1.67188,-2.45312 -0.75,-1.20313 -1.34375,-2.29688 -0.59375,-1.10937 -1.01562,-2.01562 l 2.14062,-1.15625 q 0.5625,1.21875 1.26563,1.92187 0.71875,0.6875 1.65625,0.6875 0.67187,0 1.20312,-0.34375 0.53125,-0.34375 0.89063,-0.875 0.35937,-0.54687 0.54687,-1.1875 0.1875,-0.65625 0.1875,-1.28125 0,-0.73437 -0.1875,-1.4375 -0.1875,-0.71875 -0.48437,-1.39062 -0.29688,-0.6875 -0.67188,-1.32813 Q 469.75,229.59375 469.40625,229 H 461.375 v -2.29688 h 16.73437 z m -6.26562,-1.85938 h -2.26563 l -1.42187,-2.67187 q -0.90625,-1.70313 -1.64063,-2.70313 -0.75,-1 -1.40625,-1.51562 -0.67187,-0.53125 -1.3125,-0.67188 -0.64062,-0.15625 -1.34375,-0.15625 h -3.03125 v -2.53125 h 2.85938 q 0.90625,0 1.64062,0.15625 0.73438,0.14063 1.40625,0.53125 0.65625,0.375 1.29688,1.0625 0.625,0.67188 1.34375,1.75 0.71875,1.0625 1.57812,2.5625 0.84375,1.48438 1.9375,3.51563 z m 9.20312,23.20313 q -0.71875,0 -1.23437,-0.51563 -0.5,-0.51562 -0.5,-1.23437 0,-0.71875 0.5,-1.23438 0.51562,-0.53125 1.23437,-0.53125 0.73438,0 1.25,0.53125 0.51563,0.51563 0.51563,1.23438 0,0.71875 -0.51563,1.23437 -0.51562,0.51563 -1.25,0.51563 z"
         id="path7" />
    </g>
  </g>
</svg>
