<?xml version="1.0" encoding="UTF-8" standalone="no"?>
<svg
   width="800"
   height="600"
   version="1.1"
   id="svg4"
   sodipodi:docname="saloni_robotic.svg"
   xmlns:inkscape="http://www.inkscape.org/namespaces/inkscape"
   xmlns:sodipodi="http://sodipodi.sourceforge.net/DTD/sodipodi-0.dtd"
   xmlns="http://www.w3.org/2000/svg"
   xmlns:svg="http://www.w3.org/2000/svg">
  <sodipodi:namedview
     id="namedview4"
     pagecolor="#ffffff"
     bordercolor="#666666"
     borderopacity="1.0"
     inkscape:showpageshadow="2"
     inkscape:pageopacity="0.0"
     inkscape:pagecheckerboard="0"
     inkscape:deskcolor="#d1d1d1" />
  <defs
     id="defs1">
    <style
       type="text/css"
       id="style1">
      @font-face {{
        font-family: 'Kalam';
        src: url('AxiDraw_API(1)/Kalam-Regular.ttf');
      }}
    </style>
  </defs>
  <g
     id="g4">
    <g
       id="text4"
       style="font-size:32px;font-family:Kalam"
       aria-label="सालोनीने बनवला रोबोट एक,काम करतो तो अद्भुत, देख!तंत्रज्ञानाचा हा नवा शिखर,प्रगतीचा मार्ग दाखवतो तिकडेच।">
      <path
         d="M 73.59375,76.703125 V 79 H 70.3125 v 21 H 67.71875 V 89.5 H 58.671875 Q 57.84375,90.046875 56.6875,90.15625 l -0.03125,0.07813 q 1.515625,2.375 3.328125,4.421875 1.8125,2.046875 4.125,3.796875 L 62.4375,100.375 q -1.328125,-0.984375 -2.53125,-2.125 -1.1875,-1.140625 -2.25,-2.359375 Q 56.609375,94.65625 55.6875,93.40625 54.765625,92.140625 54,90.921875 53.234375,89.703125 52.625,88.578125 52.015625,87.4375 51.5625,86.46875 L 53.703125,85.3125 Q 54,86 54.28125,86.46875 q 0.296875,0.453125 0.59375,0.734375 0.296875,0.265625 0.625,0.390625 0.328125,0.109375 0.703125,0.109375 1.078125,0 1.578125,-0.84375 0.515625,-0.84375 0.515625,-2.21875 0,-0.8125 -0.15625,-1.59375 Q 57.984375,82.25 57.734375,81.53125 57.5,80.796875 57.21875,80.15625 56.9375,79.515625 56.6875,79 H 49.453125 V 76.703125 Z M 67.71875,79 h -8.328125 q 0.65625,1.421875 1.03125,2.859375 0.375,1.4375 0.375,2.859375 0,0.65625 -0.109375,1.296875 -0.09375,0.625 -0.328125,1.1875 l 0.03125,0.03125 h 7.328125 z m 14.1875,0 H 78.625 v 21 H 76.0625 V 79 H 72.5 v -2.296875 h 9.40625 z m 22.85938,0 h -3.28125 v 21.01563 H 98.921875 V 85.375 q -0.828125,-0.296875 -1.5625,-0.296875 -0.734375,0 -1.28125,0.28125 -0.546875,0.265625 -0.921875,0.71875 -0.359375,0.453125 -0.546875,1.0625 -0.1875,0.609375 -0.1875,1.28125 0,0.265625 0.01563,0.546875 Q 94.46875,89.234375 94.5,89.5 H 92.109375 Q 91.984375,88.59375 91.8125,87.765625 91.65625,86.9375 91.34375,86.3125 q -0.296875,-0.625 -0.78125,-0.984375 -0.484375,-0.375 -1.25,-0.375 -0.734375,0 -1.265625,0.296875 -0.515625,0.296875 -0.859375,0.828125 -0.34375,0.53125 -0.515625,1.25 -0.15625,0.703125 -0.15625,1.53125 0,1.78125 0.609375,3.203125 0.609375,1.40625 1.640625,2.53125 1.046875,1.125 2.40625,2.015625 1.375,0.875 2.890625,1.609375 l -1.265625,2.15625 q -0.5625,-0.25 -1.453125,-0.75 -0.875,-0.5 -1.875,-1.234375 -0.984375,-0.734375 -1.984375,-1.71875 -1,-0.984375 -1.8125,-2.203125 Q 84.875,93.25 84.375,91.78125 q -0.5,-1.46875 -0.5,-3.171875 0,-1.3125 0.375,-2.4375 0.375,-1.140625 1.0625,-1.96875 0.703125,-0.84375 1.6875,-1.3125 0.984375,-0.484375 2.1875,-0.484375 0.90625,0 1.5625,0.265625 0.65625,0.25 1.125,0.640625 0.484375,0.375 0.796875,0.828125 0.3125,0.4375 0.546875,0.828125 l 0.07813,-0.01563 Q 93.59375,84.296875 94,83.84375 q 0.421875,-0.453125 0.90625,-0.734375 0.5,-0.28125 1.046875,-0.40625 Q 96.5,82.5625 97.046875,82.5625 q 0.484375,0 0.953125,0.09375 0.484375,0.07813 0.921875,0.234375 V 79 H 80.8125 v -2.296875 h 23.95313 z m 8.3125,0 h -3.28125 v 21 h -2.5625 V 79 h -3.5625 v -2.296875 h 9.40625 z m -3.5,-1.859375 h -2.26563 l -1.42187,-2.671875 q -0.90625,-1.703125 -1.65625,-2.703125 -0.73438,-1 -1.39063,-1.515625 -0.67187,-0.53125 -1.3125,-0.671875 -0.64062,-0.15625 -1.34375,-0.15625 h -3.03125 v -2.53125 h 2.85938 q 0.90625,0 1.64062,0.15625 0.73438,0.140625 1.40625,0.53125 0.65625,0.375 1.28125,1.0625 0.64063,0.671875 1.35938,1.75 0.71875,1.0625 1.5625,2.5625 0.85937,1.484375 1.95312,3.515625 z M 132.51562,79 h -3.28125 v 21 h -2.57812 V 87.953125 h -7.3125 q 0,1.03125 -0.0312,1.765625 -0.0156,0.734375 -0.125,1.21875 -0.10937,0.46875 -0.32812,0.6875 -0.21875,0.21875 -0.60938,0.21875 -0.8125,0 -1.54687,-0.53125 -0.71875,-0.53125 -1.28125,-1.28125 -0.54688,-0.75 -0.875,-1.5625 -0.32813,-0.8125 -0.32813,-1.375 0,-0.5 0.21875,-0.78125 0.21875,-0.28125 0.57813,-0.421875 0.35937,-0.140625 0.8125,-0.171875 0.46875,-0.03125 0.9375,-0.03125 h 9.89062 V 79 h -14.67187 v -2.296875 h 20.53124 z m 8.3125,0 h -3.28125 v 21 h -2.5625 V 79 h -3.5625 v -2.296875 h 3.8125 q -0.28125,-1.59375 -0.71875,-2.71875 -0.4375,-1.140625 -0.95312,-1.890625 -0.51563,-0.765625 -1.07813,-1.203125 -0.5625,-0.4375 -1.07812,-0.65625 -0.53125,-0.21875 -0.98438,-0.28125 -0.46875,-0.0625 -0.76562,-0.0625 -0.96875,0 -1.54688,0.3125 -0.59374,0.296875 -0.90624,0.71875 -0.3125,0.421875 -0.40625,0.890625 -0.10938,0.453125 -0.10938,0.78125 0,0.125 0.0469,0.515625 0.0312,0.375 0.25,0.953125 0.20312,0.578125 0.64062,1.296875 0.4375,0.71875 1.23437,1.515625 h -2.65624 q -0.98438,-1.125 -1.46875,-2.328125 -0.5,-1.21875 -0.5,-2.359375 0,-0.953125 0.34375,-1.8125 0.34375,-0.859375 1.03125,-1.484375 0.6875,-0.640625 1.71875,-1.015625 1.03124,-0.375 2.39062,-0.375 1.875,0 3.23437,0.734375 1.35938,0.71875 2.28125,1.96875 0.9375,1.25 1.46875,2.9375 0.54688,1.671875 0.76563,3.5625 h 3.35937 z m 19.4375,0 h -3.28125 v 21 h -2.57812 V 87.953125 h -7.3125 q 0,1.03125 -0.0312,1.765625 -0.0156,0.734375 -0.125,1.21875 -0.10938,0.46875 -0.32813,0.6875 -0.21875,0.21875 -0.60937,0.21875 -0.8125,0 -1.54688,-0.53125 -0.71875,-0.53125 -1.28125,-1.28125 -0.54687,-0.75 -0.875,-1.5625 -0.32812,-0.8125 -0.32812,-1.375 0,-0.5 0.21875,-0.78125 0.21875,-0.28125 0.57812,-0.421875 0.35938,-0.140625 0.8125,-0.171875 0.46875,-0.03125 0.9375,-0.03125 h 9.89063 V 79 h -14.67188 v -2.296875 h 20.53125 z m -3.5,-1.859375 H 154.5 l -1.42188,-2.671875 q -0.90625,-1.703125 -1.64062,-2.703125 -0.75,-1 -1.40625,-1.515625 -0.67188,-0.53125 -1.3125,-0.671875 -0.64063,-0.15625 -1.34375,-0.15625 h -3.03125 v -2.53125 h 2.85937 q 0.90625,0 1.64063,0.15625 0.73437,0.140625 1.40625,0.53125 0.65625,0.375 1.29687,1.0625 0.625,0.671875 1.34375,1.75 0.71875,1.0625 1.57813,2.5625 0.84375,1.484375 1.9375,3.515625 z M 188.96875,79 h -3.28125 v 21 h -2.5625 v -5.53125 l -0.0625,-0.01563 Q 182.71875,94.75 182.25,95.0625 q -0.45313,0.3125 -1.0625,0.578125 -0.59375,0.265625 -1.34375,0.4375 -0.75,0.171875 -1.65625,0.171875 -1.70313,0 -3.10938,-0.59375 -1.40625,-0.609375 -2.42187,-1.609375 -1,-1.015625 -1.5625,-2.3125 -0.5625,-1.3125 -0.5625,-2.734375 0,-1.4375 0.5625,-2.671875 0.5625,-1.234375 1.53125,-2.125 0.98437,-0.90625 2.28125,-1.421875 1.29687,-0.515625 2.76562,-0.515625 0.45313,0 1.07813,0.07813 0.625,0.0625 1.32812,0.296875 0.71875,0.234375 1.48438,0.671875 0.76562,0.421875 1.5,1.140625 L 183.125,84.4375 V 79 h -15.1875 v -2.296875 h 21.03125 z m -15.9375,10.25 q 0,0.859375 0.29687,1.6875 0.29688,0.828125 0.89063,1.484375 0.59375,0.65625 1.46875,1.0625 0.875,0.390625 2.04687,0.390625 1.04688,0 2,-0.34375 l -5.15625,-7.75 q -0.71875,0.59375 -1.14062,1.5 -0.40625,0.90625 -0.40625,1.96875 z M 183.1875,87.359375 Q 182.625,86.75 182.03125,86.25 q -0.57813,-0.5 -1.23438,-0.859375 -0.65625,-0.359375 -1.39062,-0.5625 Q 178.6875,84.625 177.85937,84.625 q -0.35937,0 -0.6875,0.04687 -0.32812,0.04687 -0.67187,0.125 l 5.07812,7.625 q 0.76563,-0.6875 1.1875,-1.515625 0.42188,-0.84375 0.42188,-1.640625 z M 208.40625,79 H 205.125 v 21 h -2.57813 V 87.953125 h -7.3125 q 0,1.03125 -0.0312,1.765625 -0.0156,0.734375 -0.125,1.21875 -0.10937,0.46875 -0.32812,0.6875 -0.21875,0.21875 -0.60938,0.21875 -0.8125,0 -1.54687,-0.53125 -0.71875,-0.53125 -1.28125,-1.28125 -0.54688,-0.75 -0.875,-1.5625 -0.32813,-0.8125 -0.32813,-1.375 0,-0.5 0.21875,-0.78125 0.21875,-0.28125 0.57813,-0.421875 0.35937,-0.140625 0.8125,-0.171875 0.46875,-0.03125 0.9375,-0.03125 h 9.89062 V 79 H 187.875 v -2.296875 h 20.53125 z m 18.8125,0 h -3.28125 v 21 h -2.5625 v -5.578125 l -0.0625,-0.01563 q -0.3125,0.296875 -0.73438,0.625 -0.42187,0.3125 -0.96875,0.578125 -0.54687,0.25 -1.23437,0.421875 -0.67188,0.171875 -1.51563,0.171875 -1.54687,0 -2.82812,-0.59375 -1.26563,-0.59375 -2.1875,-1.578125 -0.92188,-1 -1.4375,-2.28125 -0.5,-1.296875 -0.5,-2.703125 0,-1.40625 0.5,-2.609375 0.51562,-1.21875 1.40625,-2.109375 0.89062,-0.890625 2.07812,-1.390625 1.1875,-0.515625 2.54688,-0.515625 0.375,0 0.9375,0.0625 0.57812,0.0625 1.23437,0.28125 0.65625,0.21875 1.35938,0.640625 0.70312,0.40625 1.34375,1.109375 L 221.375,84.5 V 79 h -14.0625 v -2.296875 h 19.90625 z m -5.78125,8.421875 q -0.98438,-1.1875 -2.14063,-1.90625 -1.15625,-0.734375 -2.625,-0.734375 -1.15625,0 -1.96875,0.4375 -0.79687,0.4375 -1.3125,1.109375 -0.51562,0.65625 -0.75,1.46875 -0.23437,0.8125 -0.23437,1.5625 0,0.8125 0.26562,1.609375 0.26563,0.796875 0.78125,1.4375 0.53125,0.625 1.3125,1.03125 0.78125,0.390625 1.82813,0.390625 1.07812,0 1.96875,-0.40625 0.89062,-0.421875 1.53125,-1.0625 0.64062,-0.640625 0.98437,-1.4375 Q 221.4375,90.125 221.4375,89.375 Z M 250.07812,79 h -3.28125 v 21.01563 h -2.5625 V 85.375 q -0.82812,-0.296875 -1.5625,-0.296875 -0.73437,0 -1.28125,0.28125 -0.54687,0.265625 -0.92187,0.71875 -0.35938,0.453125 -0.54688,1.0625 -0.1875,0.609375 -0.1875,1.28125 0,0.265625 0.0156,0.546875 0.0312,0.265625 0.0625,0.53125 h -2.39063 q -0.125,-0.90625 -0.29687,-1.734375 -0.15625,-0.828125 -0.46875,-1.453125 -0.29688,-0.625 -0.78125,-0.984375 -0.48438,-0.375 -1.25,-0.375 -0.73438,0 -1.26563,0.296875 -0.51562,0.296875 -0.85937,0.828125 -0.34375,0.53125 -0.51563,1.25 -0.15625,0.703125 -0.15625,1.53125 0,1.78125 0.60938,3.203125 0.60937,1.40625 1.64062,2.53125 1.04688,1.125 2.40625,2.015625 1.375,0.875 2.89063,1.609375 l -1.26563,2.15625 q -0.5625,-0.25 -1.45312,-0.75 -0.875,-0.5 -1.875,-1.234375 -0.98438,-0.734375 -1.98438,-1.71875 -1,-0.984375 -1.8125,-2.203125 -0.79687,-1.21875 -1.29687,-2.6875 -0.5,-1.46875 -0.5,-3.171875 0,-1.3125 0.375,-2.4375 0.375,-1.140625 1.0625,-1.96875 0.70312,-0.84375 1.6875,-1.3125 0.98437,-0.484375 2.1875,-0.484375 0.90625,0 1.5625,0.265625 0.65625,0.25 1.125,0.640625 0.48437,0.375 0.79687,0.828125 0.3125,0.4375 0.54688,0.828125 l 0.0781,-0.01563 q 0.29688,-0.65625 0.70313,-1.109375 0.42187,-0.453125 0.90625,-0.734375 0.5,-0.28125 1.04687,-0.40625 0.54688,-0.140625 1.09375,-0.140625 0.48438,0 0.95313,0.09375 0.48437,0.07813 0.92187,0.234375 V 79 H 226.125 v -2.296875 h 23.95312 z m 8.3125,0 h -3.28125 v 21 h -2.5625 V 79 h -3.5625 v -2.296875 h 9.40625 z m 24.40625,0 h -5.89062 q 0.79687,1.375 1.28125,2.8125 0.5,1.421875 0.5,2.890625 0,1.109375 -0.34375,2.140625 -0.32813,1.015625 -0.98438,1.828125 -0.64062,0.796875 -1.60937,1.3125 -0.95313,0.5 -2.20313,0.5625 l -0.0312,0.07813 q 1.40625,2.1875 3.15625,4.140625 1.75,1.9375 4.04688,3.6875 l -1.67188,1.921875 q -1.32812,-0.984375 -2.53125,-2.125 -1.1875,-1.15625 -2.25,-2.375 -1.0625,-1.234375 -1.98437,-2.484375 Q 271.375,92.125 270.60937,90.9375 q -0.75,-1.203125 -1.34375,-2.296875 Q 268.67187,87.53125 268.25,86.625 l 2.14062,-1.15625 q 0.5625,1.21875 1.26563,1.921875 0.71875,0.6875 1.65625,0.6875 0.67187,0 1.20312,-0.34375 0.53125,-0.34375 0.89063,-0.875 0.35937,-0.546875 0.54687,-1.1875 0.1875,-0.65625 0.1875,-1.28125 0,-0.734375 -0.1875,-1.4375 -0.1875,-0.71875 -0.48437,-1.390625 -0.29688,-0.6875 -0.67188,-1.328125 Q 274.4375,79.59375 274.09375,79 h -8.03125 v -2.296875 h 16.73437 z m 8.3125,0 h -3.28125 v 21 h -2.5625 V 79 h -3.5625 v -2.296875 h 9.40625 z m -3.5,-1.859375 h -2.26562 l -1.42188,-2.671875 q -0.90625,-1.703125 -1.65625,-2.703125 -0.73437,-1 -1.39062,-1.515625 -0.67188,-0.53125 -1.3125,-0.671875 -0.64063,-0.15625 -1.34375,-0.15625 h -3.03125 v -2.53125 h 2.85937 q 0.90625,0 1.64063,0.15625 0.73437,0.140625 1.40625,0.53125 0.65625,0.375 1.28125,1.0625 0.64062,0.671875 1.35937,1.75 0.71875,1.0625 1.5625,2.5625 0.85938,1.484375 1.95313,3.515625 z M 311.04687,79 h -3.28125 v 21 h -2.5625 v -5.53125 l -0.0625,-0.01563 q -0.34375,0.296875 -0.8125,0.609375 -0.45312,0.3125 -1.0625,0.578125 -0.59375,0.265625 -1.34375,0.4375 -0.75,0.171875 -1.65625,0.171875 -1.70312,0 -3.10937,-0.59375 -1.40625,-0.609375 -2.42188,-1.609375 -1,-1.015625 -1.5625,-2.3125 -0.5625,-1.3125 -0.5625,-2.734375 0,-1.4375 0.5625,-2.671875 0.5625,-1.234375 1.53125,-2.125 0.98438,-0.90625 2.28125,-1.421875 1.29688,-0.515625 2.76563,-0.515625 0.45312,0 1.07812,0.07813 0.625,0.0625 1.32813,0.296875 0.71875,0.234375 1.48437,0.671875 0.76563,0.421875 1.5,1.140625 l 0.0625,-0.01563 V 79 h -15.1875 v -2.296875 h 21.03125 z m -15.9375,10.25 q 0,0.859375 0.29688,1.6875 0.29687,0.828125 0.89062,1.484375 0.59375,0.65625 1.46875,1.0625 0.875,0.390625 2.04688,0.390625 1.04687,0 2,-0.34375 l -5.15625,-7.75 q -0.71875,0.59375 -1.14063,1.5 -0.40625,0.90625 -0.40625,1.96875 z m 10.15625,-1.890625 Q 304.70312,86.75 304.10937,86.25 303.53125,85.75 302.875,85.390625 302.21875,85.03125 301.48437,84.828125 300.76562,84.625 299.9375,84.625 q -0.35938,0 -0.6875,0.04687 -0.32813,0.04687 -0.67188,0.125 l 5.07813,7.625 q 0.76562,-0.6875 1.1875,-1.515625 0.42187,-0.84375 0.42187,-1.640625 z M 319.35937,79 h -3.28125 v 21 h -2.5625 V 79 h -3.5625 v -2.296875 h 9.40625 z m -3.5,-1.859375 h -2.26562 l -1.42188,-2.671875 q -0.90625,-1.703125 -1.65625,-2.703125 -0.73437,-1 -1.39062,-1.515625 -0.67188,-0.53125 -1.3125,-0.671875 -0.64063,-0.15625 -1.34375,-0.15625 h -3.03125 v -2.53125 h 2.85937 q 0.90625,0 1.64063,0.15625 0.73437,0.140625 1.40625,0.53125 0.65625,0.375 1.28125,1.0625 0.64062,0.671875 1.35937,1.75 0.71875,1.0625 1.5625,2.5625 0.85938,1.484375 1.95313,3.515625 z m 19.46875,20.28125 q -1.26562,0.75 -2.6875,1.125 -1.42187,0.375 -2.84375,0.375 -1.9375,0 -3.51562,-0.640625 -1.5625,-0.65625 -2.6875,-1.796875 -1.10938,-1.15625 -1.71875,-2.703125 -0.59375,-1.546875 -0.59375,-3.359375 0,-1.71875 0.53125,-3 0.54687,-1.28125 1.48437,-2.125 0.9375,-0.859375 2.20313,-1.28125 1.28125,-0.421875 2.75,-0.421875 h 3.04687 V 79 h -13.03125 v -2.296875 h 20 V 79 h -4.40625 v 6.875 h -5.04687 q -1.125,0 -2.0625,0.3125 -0.92188,0.3125 -1.59375,0.921875 Q 324.5,87.71875 324.125,88.625 q -0.35938,0.890625 -0.35938,2.078125 0,1.296875 0.42188,2.359375 0.4375,1.0625 1.20312,1.828125 0.78125,0.765625 1.84375,1.1875 Q 328.3125,96.5 329.59375,96.5 q 0.76562,0 1.54687,-0.15625 0.78125,-0.15625 1.51563,-0.421875 0.73437,-0.265625 1.40625,-0.609375 0.6875,-0.34375 1.26562,-0.734375 z M 359.4375,79 h -7.42188 v 11.1875 q 0,1.140625 0.28125,1.90625 0.29688,0.75 0.9375,1.34375 0.64063,0.578125 1.64063,1.125 1.01562,0.53125 2.45312,1.25 1.32813,0.65625 2.46875,1.265625 1.15625,0.609375 2,1.28125 0.84375,0.671875 1.32813,1.453125 0.48437,0.78125 0.48437,1.78125 0,0.76563 -0.3125,1.53125 -0.3125,0.78125 -0.90625,1.48438 l -2.10937,-1.28125 q 0.23437,-0.375 0.4375,-0.79688 0.21875,-0.42187 0.21875,-0.875 0,-0.60937 -0.42188,-1.14062 -0.40625,-0.51563 -1.09375,-0.98438 -0.6875,-0.484375 -1.57812,-0.9375 -0.89063,-0.453125 -1.85938,-0.921875 -1.64062,-0.796875 -2.85937,-1.4375 -1.21875,-0.640625 -2.04688,-1.390625 -0.8125,-0.765625 -1.21875,-1.78125 -0.40625,-1.015625 -0.40625,-2.546875 V 79 h -3.51562 v -2.296875 h 19.34375 V 79 H 362 v 9.90625 q 0,1.203125 -0.34375,2 -0.32813,0.78125 -0.85938,1.234375 -0.51562,0.453125 -1.15625,0.640625 -0.625,0.171875 -1.21875,0.171875 -0.59375,0 -1.17187,-0.125 -0.57813,-0.140625 -1.09375,-0.359375 V 89.921875 Q 356.5,90.125 357,90.28125 q 0.5,0.140625 1,0.140625 0.46875,0 0.75,-0.15625 0.28125,-0.15625 0.4375,-0.46875 0.15625,-0.3125 0.20312,-0.765625 0.0469,-0.453125 0.0469,-1.046875 z m 33.46875,0 h -13.20313 v 6.15625 l 0.0781,0.03125 q 0.79687,-1.09375 1.98437,-1.75 1.1875,-0.671875 2.60938,-0.671875 1.125,0 2.07812,0.46875 0.96875,0.453125 1.67188,1.265625 0.70312,0.796875 1.09375,1.890625 0.40625,1.09375 0.40625,2.359375 0,1.4375 -0.5,2.65625 -0.5,1.203125 -1.28125,2.1875 -0.78125,0.984375 -1.76563,1.75 -0.98437,0.75 -1.9375,1.28125 L 382.75,94.21875 q 0.3125,-0.171875 0.76562,-0.453125 0.45313,-0.28125 0.9375,-0.65625 0.5,-0.375 0.96875,-0.84375 0.48438,-0.484375 0.85938,-1.046875 0.39062,-0.5625 0.625,-1.21875 0.23437,-0.65625 0.23437,-1.390625 0,-0.671875 -0.21875,-1.28125 -0.20312,-0.609375 -0.57812,-1.0625 -0.375,-0.453125 -0.90625,-0.71875 -0.51563,-0.265625 -1.14063,-0.265625 -0.8125,0 -1.57812,0.421875 -0.76563,0.421875 -1.39063,1.0625 -0.625,0.625 -1.0625,1.34375 -0.42187,0.71875 -0.5625,1.328125 V 100 h -2.5625 v -5.984375 l -0.0625,-0.03125 q -0.23437,0.203125 -0.59375,0.5 -0.35937,0.28125 -0.875,0.546875 -0.5,0.265625 -1.17187,0.453125 -0.65625,0.1875 -1.48438,0.1875 -1.375,0 -2.54687,-0.53125 -1.15625,-0.53125 -2.01563,-1.4375 -0.84375,-0.921875 -1.32812,-2.15625 -0.48438,-1.234375 -0.48438,-2.640625 0,-1.34375 0.4375,-2.484375 0.45313,-1.140625 1.21875,-1.953125 0.78125,-0.828125 1.8125,-1.28125 1.04688,-0.46875 2.25,-0.46875 0.84375,0 1.5625,0.21875 0.73438,0.203125 1.32813,0.515625 0.60937,0.296875 1.07812,0.65625 0.48438,0.34375 0.8125,0.625 l 0.0625,-0.01563 V 79 H 364.1875 v -2.296875 h 28.71875 z m -20.23438,6.15625 q -0.89062,0 -1.57812,0.375 -0.67188,0.359375 -1.125,0.9375 -0.45313,0.5625 -0.6875,1.28125 -0.21875,0.703125 -0.21875,1.390625 0,0.75 0.26562,1.5 0.26563,0.734375 0.75,1.328125 0.5,0.59375 1.1875,0.96875 0.6875,0.359375 1.51563,0.359375 0.70312,0 1.46875,-0.28125 0.78125,-0.296875 1.42187,-0.90625 Q 376.32812,91.5 376.75,90.5625 q 0.42187,-0.953125 0.42187,-2.265625 V 87.53125 q -0.375,-0.46875 -0.89062,-0.890625 -0.5,-0.4375 -1.09375,-0.765625 -0.57813,-0.328125 -1.21875,-0.515625 -0.64063,-0.203125 -1.29688,-0.203125 z m 24.625,11.28125 -2.5,7.6875 h -1.82812 l 1.82812,-7.6875 z"
         id="path4" />
      <path
         d="M 78.171875,129 H 64.96875 v 6.15625 l 0.07813,0.0312 q 0.796875,-1.09375 1.984375,-1.75 1.1875,-0.67188 2.609375,-0.67188 1.125,0 2.078125,0.46875 0.96875,0.45313 1.671875,1.26563 0.703125,0.79687 1.09375,1.89062 0.40625,1.09375 0.40625,2.35938 0,1.4375 -0.5,2.65625 -0.5,1.20312 -1.28125,2.1875 -0.78125,0.98437 -1.765625,1.75 -0.984375,0.75 -1.9375,1.28125 l -1.390625,-2.40625 q 0.3125,-0.17188 0.765625,-0.45313 0.453125,-0.28125 0.9375,-0.65625 0.5,-0.375 0.96875,-0.84375 0.484375,-0.48437 0.859375,-1.04687 0.390625,-0.5625 0.625,-1.21875 0.234375,-0.65625 0.234375,-1.39063 0,-0.67187 -0.21875,-1.28125 -0.203125,-0.60937 -0.578125,-1.0625 -0.375,-0.45312 -0.90625,-0.71875 -0.515625,-0.26562 -1.140625,-0.26562 -0.8125,0 -1.578125,0.42187 -0.765625,0.42188 -1.390625,1.0625 -0.625,0.625 -1.0625,1.34375 -0.421875,0.71875 -0.5625,1.32813 V 150 h -2.5625 v -5.98438 l -0.0625,-0.0312 q -0.234375,0.20313 -0.59375,0.5 -0.359375,0.28125 -0.875,0.54688 -0.5,0.26562 -1.171875,0.45312 -0.65625,0.1875 -1.484375,0.1875 -1.375,0 -2.546875,-0.53125 -1.15625,-0.53125 -2.015625,-1.4375 -0.84375,-0.92187 -1.328125,-2.15625 -0.484375,-1.23437 -0.484375,-2.64062 0,-1.34375 0.4375,-2.48438 0.453125,-1.14062 1.21875,-1.95312 0.78125,-0.82813 1.8125,-1.28125 1.046875,-0.46875 2.25,-0.46875 0.84375,0 1.5625,0.21875 0.734375,0.20312 1.328125,0.51562 0.609375,0.29688 1.078125,0.65625 0.484375,0.34375 0.8125,0.625 l 0.0625,-0.0156 V 129 H 49.453125 v -2.29687 h 28.71875 z M 57.9375,135.15625 q -0.890625,0 -1.578125,0.375 -0.671875,0.35937 -1.125,0.9375 -0.453125,0.5625 -0.6875,1.28125 -0.21875,0.70312 -0.21875,1.39062 0,0.75 0.265625,1.5 0.265625,0.73438 0.75,1.32813 0.5,0.59375 1.1875,0.96875 0.6875,0.35937 1.515625,0.35937 0.703125,0 1.46875,-0.28125 0.78125,-0.29687 1.421875,-0.90625 0.65625,-0.60937 1.078125,-1.54687 0.421875,-0.95313 0.421875,-2.26563 v -0.76562 q -0.375,-0.46875 -0.890625,-0.89063 -0.5,-0.4375 -1.09375,-0.76562 -0.578125,-0.32813 -1.21875,-0.51563 -0.640625,-0.20312 -1.296875,-0.20312 z M 86.484375,129 h -3.28125 v 21 h -2.5625 v -21 h -3.5625 v -2.29687 h 9.40625 z m 21.546875,0 H 104.75 v 21 h -2.5625 v -8.76563 h -8.59375 v 1.85938 q 0,0.48437 -0.04687,0.85937 -0.03125,0.375 -0.171875,0.625 -0.125,0.25 -0.375,0.39063 -0.234375,0.125 -0.640625,0.125 -0.40625,0 -0.90625,-0.23438 -0.5,-0.25 -1.015625,-0.65625 -0.515625,-0.42187 -1,-0.9375 -0.484375,-0.53125 -0.875,-1.09375 -0.375,-0.57812 -0.609375,-1.14062 Q 87.71875,140.46875 87.71875,140 q 0,-0.32813 0.109375,-0.53125 0.125,-0.21875 0.328125,-0.32813 0.21875,-0.10937 0.515625,-0.14062 0.296875,-0.0469 0.671875,-0.0469 h 1.6875 V 129 h -5.640625 v -2.29687 h 22.640625 z m -14.4375,0 v 9.95312 h 8.59375 V 129 Z m 50.82812,0 h -13.20312 v 6.15625 l 0.0781,0.0312 q 0.79688,-1.09375 1.98438,-1.75 1.1875,-0.67188 2.60937,-0.67188 1.125,0 2.07813,0.46875 0.96875,0.45313 1.67187,1.26563 0.70313,0.79687 1.09375,1.89062 0.40625,1.09375 0.40625,2.35938 0,1.4375 -0.5,2.65625 -0.5,1.20312 -1.28125,2.1875 -0.78125,0.98437 -1.76562,1.75 -0.98438,0.75 -1.9375,1.28125 l -1.39063,-2.40625 q 0.3125,-0.17188 0.76563,-0.45313 0.45312,-0.28125 0.9375,-0.65625 0.5,-0.375 0.96875,-0.84375 0.48437,-0.48437 0.85937,-1.04687 0.39063,-0.5625 0.625,-1.21875 0.23438,-0.65625 0.23438,-1.39063 0,-0.67187 -0.21875,-1.28125 -0.20313,-0.60937 -0.57813,-1.0625 -0.375,-0.45312 -0.90625,-0.71875 -0.51562,-0.26562 -1.14062,-0.26562 -0.8125,0 -1.57813,0.42187 -0.76562,0.42188 -1.39062,1.0625 -0.625,0.625 -1.0625,1.34375 -0.42188,0.71875 -0.5625,1.32813 V 150 h -2.5625 v -5.98438 l -0.0625,-0.0312 q -0.23438,0.20313 -0.59375,0.5 -0.35937,0.28125 -0.875,0.54688 -0.5,0.26562 -1.17187,0.45312 -0.65625,0.1875 -1.48438,0.1875 -1.375,0 -2.54687,-0.53125 -1.15625,-0.53125 -2.01563,-1.4375 -0.84375,-0.92187 -1.32812,-2.15625 -0.48438,-1.23437 -0.48438,-2.64062 0,-1.34375 0.4375,-2.48438 0.45313,-1.14062 1.21875,-1.95312 0.78125,-0.82813 1.8125,-1.28125 1.04688,-0.46875 2.25,-0.46875 0.84375,0 1.5625,0.21875 0.73438,0.20312 1.32813,0.51562 0.60937,0.29688 1.07812,0.65625 0.48437,0.34375 0.8125,0.625 l 0.0625,-0.0156 V 129 h -12.95312 v -2.29687 h 28.71874 z m -20.23437,6.15625 q -0.89062,0 -1.57812,0.375 -0.67188,0.35937 -1.125,0.9375 -0.45313,0.5625 -0.6875,1.28125 -0.21875,0.70312 -0.21875,1.39062 0,0.75 0.26562,1.5 0.26563,0.73438 0.75,1.32813 0.5,0.59375 1.1875,0.96875 0.6875,0.35937 1.51563,0.35937 0.70312,0 1.46875,-0.28125 0.78125,-0.29687 1.42187,-0.90625 0.65625,-0.60937 1.07812,-1.54687 0.42188,-0.95313 0.42188,-2.26563 v -0.76562 q -0.375,-0.46875 -0.89062,-0.89063 -0.5,-0.4375 -1.09375,-0.76562 -0.57813,-0.32813 -1.21875,-0.51563 -0.64063,-0.20312 -1.29688,-0.20312 z M 160.0625,129 h -5.89063 q 0.79688,1.375 1.28125,2.8125 0.5,1.42187 0.5,2.89062 0,1.10938 -0.34375,2.14063 -0.32812,1.01562 -0.98437,1.82812 -0.64063,0.79688 -1.60938,1.3125 -0.95312,0.5 -2.20312,0.5625 l -0.0312,0.0781 q 1.40625,2.1875 3.15625,4.14062 1.75,1.9375 4.04687,3.6875 l -1.67187,1.92188 q -1.32813,-0.98438 -2.53125,-2.125 -1.1875,-1.15625 -2.25,-2.375 -1.0625,-1.23438 -1.98438,-2.48438 -0.90625,-1.26562 -1.67187,-2.45312 -0.75,-1.20313 -1.34375,-2.29688 -0.59375,-1.10937 -1.01563,-2.01562 l 2.14063,-1.15625 q 0.5625,1.21875 1.26562,1.92187 0.71875,0.6875 1.65625,0.6875 0.67188,0 1.20313,-0.34375 0.53125,-0.34375 0.89062,-0.875 0.35938,-0.54687 0.54688,-1.1875 0.1875,-0.65625 0.1875,-1.28125 0,-0.73437 -0.1875,-1.4375 -0.1875,-0.71875 -0.48438,-1.39062 -0.29687,-0.6875 -0.67187,-1.32813 -0.35938,-0.64062 -0.70313,-1.23437 h -8.03125 v -2.29687 h 16.73438 z m 19.57812,0 h -3.28125 v 21 h -2.54687 v -13.71875 h -5.07813 q -1.04687,0 -1.89062,0.14062 -0.84375,0.125 -1.4375,0.53125 -0.59375,0.39063 -0.92188,1.10938 -0.3125,0.70312 -0.3125,1.85937 0,1.5 0.48438,2.76563 0.5,1.26562 1.26562,2.32812 0.76563,1.04688 1.6875,1.9375 0.9375,0.89063 1.79688,1.64063 l -1.5625,1.78125 q -0.14063,-0.0781 -0.67188,-0.45313 -0.51562,-0.39062 -1.21875,-1.04687 -0.6875,-0.65625 -1.46875,-1.59375 -0.76562,-0.9375 -1.42187,-2.10938 -0.64063,-1.1875 -1.07813,-2.60937 -0.42187,-1.42188 -0.42187,-3.0625 0,-1.625 0.45312,-2.6875 0.46875,-1.07813 1.3125,-1.70313 0.84375,-0.64062 2.04688,-0.89062 1.20312,-0.25 2.6875,-0.25 h 5.75 V 129 h -14.84375 v -2.29687 h 20.67187 z m 8.3125,0 h -3.28125 v 21 h -2.5625 v -21 h -3.5625 v -2.29687 h 9.40625 z m -3.5,-1.85937 h -2.26562 l -1.42188,-2.67188 q -0.90625,-1.70312 -1.65625,-2.70312 -0.73437,-1 -1.39062,-1.51563 -0.67188,-0.53125 -1.3125,-0.67187 -0.64063,-0.15625 -1.34375,-0.15625 h -3.03125 v -2.53125 h 2.85937 q 0.90625,0 1.64063,0.15625 0.73437,0.14062 1.40625,0.53125 0.65625,0.375 1.28125,1.0625 0.64062,0.67187 1.35937,1.75 0.71875,1.0625 1.5625,2.5625 0.85938,1.48437 1.95313,3.51562 z M 216.29687,129 h -3.28125 v 21 h -2.54687 v -13.71875 h -5.07813 q -1.04687,0 -1.89062,0.14062 -0.84375,0.125 -1.4375,0.53125 -0.59375,0.39063 -0.92188,1.10938 -0.3125,0.70312 -0.3125,1.85937 0,1.5 0.48438,2.76563 0.5,1.26562 1.26562,2.32812 0.76563,1.04688 1.6875,1.9375 0.9375,0.89063 1.79688,1.64063 L 204.5,150.375 q -0.14063,-0.0781 -0.67188,-0.45313 -0.51562,-0.39062 -1.21875,-1.04687 -0.6875,-0.65625 -1.46875,-1.59375 -0.76562,-0.9375 -1.42187,-2.10938 -0.64063,-1.1875 -1.07813,-2.60937 -0.42187,-1.42188 -0.42187,-3.0625 0,-1.625 0.45312,-2.6875 0.46875,-1.07813 1.3125,-1.70313 0.84375,-0.64062 2.04688,-0.89062 1.20312,-0.25 2.6875,-0.25 h 5.75 V 129 H 195.625 v -2.29687 h 20.67187 z m 8.3125,0 h -3.28125 v 21 h -2.5625 v -21 h -3.5625 v -2.29687 h 9.40625 z m -3.5,-1.85937 h -2.26562 l -1.42188,-2.67188 q -0.90625,-1.70312 -1.65625,-2.70312 -0.73437,-1 -1.39062,-1.51563 -0.67188,-0.53125 -1.3125,-0.67187 -0.64063,-0.15625 -1.34375,-0.15625 h -3.03125 v -2.53125 h 2.85937 q 0.90625,0 1.64063,0.15625 0.73437,0.14062 1.40625,0.53125 0.65625,0.375 1.28125,1.0625 0.64062,0.67187 1.35937,1.75 0.71875,1.0625 1.5625,2.5625 0.85938,1.48437 1.95313,3.51562 z m 15.35938,9.04687 q 0.23437,0.73437 0.54687,1.60937 0.3125,0.85938 0.73438,1.75 0.4375,0.875 0.96875,1.70313 0.54687,0.82812 1.23437,1.46875 0.70313,0.64062 1.54688,1.03125 0.84375,0.375 1.875,0.375 1.01562,0 1.71875,-0.29688 0.70312,-0.29687 1.14062,-0.79687 0.4375,-0.5 0.625,-1.17188 0.20313,-0.67187 0.20313,-1.40625 0,-1.60937 -1.17188,-2.51562 -1.15625,-0.90625 -3.35937,-0.90625 -0.26563,0 -0.53125,0.0156 -0.26563,0.0156 -0.53125,0.0469 v -2.375 q 0.125,0.0156 0.21875,0.0156 0.10937,0 0.125,0 1.09375,0 1.9375,-0.26562 0.85937,-0.28125 1.4375,-0.75 0.57812,-0.46875 0.875,-1.09375 0.29687,-0.625 0.29687,-1.3125 0,-0.625 -0.21875,-1.10938 -0.21875,-0.48437 -0.59375,-0.8125 -0.375,-0.32812 -0.89062,-0.48437 -0.51563,-0.17188 -1.125,-0.17188 -0.42188,0 -0.8125,0.0625 -0.39063,0.0469 -0.82813,0.17188 -0.4375,0.10937 -0.9375,0.29687 -0.48437,0.1875 -1.10937,0.46875 l -0.89063,-2.14062 q 1.21875,-0.59375 2.34375,-0.89062 1.125,-0.3125 2.29688,-0.3125 1.125,0 2.07812,0.35937 0.96875,0.35938 1.65625,1 0.70313,0.625 1.09375,1.5 0.39063,0.875 0.39063,1.89062 0,2.79688 -2.67188,4.5 v 0.0625 q 1.04688,0.4375 1.75,1.07813 0.45313,0.0781 0.95313,0.125 0.51562,0.0469 0.9375,0.0469 0.4375,0 0.92187,-0.0625 0.48438,-0.0625 0.98438,-0.23437 0.51562,-0.17188 1.03125,-0.48438 0.53125,-0.3125 1.0625,-0.8125 v -8.65624 H 259.625 V 129 h -3.28125 v 21 h -2.5625 v -11.875 l -0.0625,-0.0156 q -0.89063,0.59375 -1.67188,0.78125 -0.78125,0.1875 -1.60937,0.1875 -0.26563,0 -0.54688,-0.0156 -0.28125,-0.0312 -0.57812,-0.0625 l -0.0156,0.0625 q 0.25,0.64062 0.25,1.57812 0,1.26563 -0.42187,2.34375 -0.42188,1.07813 -1.21875,1.875 -0.78125,0.78125 -1.90625,1.21875 -1.10938,0.4375 -2.5,0.4375 -1.48438,0 -2.6875,-0.51562 -1.1875,-0.53125 -2.15625,-1.35938 -0.95313,-0.82812 -1.67188,-1.85937 -0.71875,-1.04688 -1.23437,-2.09375 -0.51563,-1.04688 -0.84375,-1.98438 -0.32813,-0.95312 -0.48438,-1.57812 z M 279.54687,129 H 274.25 v 6.85937 h -5.26563 q -2.45312,0 -3.70312,1.21875 -1.25,1.20313 -1.25,3.46875 0,1.28125 0.40625,2.26563 0.42187,0.98437 1.14062,1.65625 0.73438,0.65625 1.73438,1 1,0.34375 2.17187,0.34375 1.23438,0 1.98438,-0.375 -0.0625,-0.39063 -0.0937,-0.6875 -0.0312,-0.29688 -0.0312,-0.59375 0,-0.65625 0.15625,-1.34375 0.17187,-0.70313 0.5,-1.26563 0.34375,-0.57812 0.85937,-0.9375 0.53125,-0.35937 1.26563,-0.35937 0.45312,0 0.85937,0.15625 0.40625,0.15625 0.70313,0.48437 0.3125,0.3125 0.48437,0.79688 0.1875,0.48437 0.1875,1.125 0,0.64062 -0.17187,1.1875 -0.17188,0.53125 -0.45313,1 -0.26562,0.45312 -0.60937,0.85937 -0.34375,0.39063 -0.67188,0.71875 0.34375,0.75 0.71875,1.34375 0.39063,0.59375 0.79688,1.0625 0.42187,0.46875 0.84375,0.84375 0.42187,0.375 0.84375,0.70313 l -1.92188,2.01562 q -0.82812,-0.73437 -1.42187,-1.46875 -0.57813,-0.71875 -0.98438,-1.35937 -0.39062,-0.64063 -0.64062,-1.15625 -0.25,-0.51563 -0.40625,-0.82813 -1.07813,0.42188 -2.65625,0.42188 -2.03125,0 -3.54688,-0.65625 -1.51562,-0.67188 -2.53125,-1.78125 -1,-1.125 -1.5,-2.5625 -0.5,-1.4375 -0.5,-2.98438 0,-1.60937 0.51563,-2.82812 0.51562,-1.23438 1.4375,-2.0625 0.92187,-0.84375 2.1875,-1.26563 1.28125,-0.4375 2.79687,-0.4375 h 3.20313 V 129 h -13.15625 v -2.29687 h 21.01562 z M 274.21875,158.01562 268,152.21875 269.53125,150.5 l 6.26562,5.75 z M 302.48437,129 h -3.28125 v 21 h -2.5625 v -8.76563 h -8.20312 v 2.23438 q 0,0.23437 -0.0469,0.5 -0.0312,0.26562 -0.15625,0.5 -0.10937,0.21875 -0.3125,0.375 -0.1875,0.14062 -0.48437,0.14062 -0.35938,0 -0.85938,-0.21875 -0.48437,-0.23437 -1.01562,-0.60937 -0.51563,-0.39063 -1.03125,-0.875 -0.5,-0.5 -0.90625,-1.03125 -0.39063,-0.53125 -0.64063,-1.0625 -0.25,-0.53125 -0.25,-0.98438 0,-0.65625 0.46875,-0.95312 0.46875,-0.29688 1.23438,-0.29688 h 1.51562 V 130.375 q 0,-0.8125 -0.39062,-1.23438 -0.39063,-0.4375 -0.98438,-0.4375 -0.65625,0 -1.10937,0.48438 -0.4375,0.48437 -0.4375,1.23437 0,0.14063 0.0312,0.34375 0.0312,0.20313 0.15625,0.46875 0.125,0.25 0.375,0.57813 0.25,0.3125 0.67187,0.67187 l -1.39062,1.70313 q -0.71875,-0.39063 -1.17188,-0.85938 Q 281.25,132.84375 281,132.34375 q -0.25,-0.5 -0.34375,-0.96875 -0.0937,-0.48438 -0.0937,-0.89063 0,-0.75 0.25,-1.46875 0.26562,-0.73437 0.78125,-1.31249 0.51562,-0.59375 1.28125,-0.95313 0.78125,-0.35937 1.8125,-0.35937 0.90625,0 1.60937,0.29687 0.70313,0.29688 1.17188,0.85938 0.48437,0.54687 0.71875,1.32812 0.25,0.76562 0.25,1.71875 v 8.35937 h 8.20312 v -12.24999 h 5.84375 z m -8.90625,21.46875 q 1,-0.625 2.21875,-0.96875 1.20313,-0.34375 2.29688,-0.34375 0.95312,0 1.78125,0.28125 0.8125,0.26562 1.42187,0.78125 0.60938,0.53125 0.95313,1.28125 0.34375,0.75 0.34375,1.6875 0,1 -0.40625,1.875 -0.39063,0.875 -1.1875,1.53125 -0.79688,0.65625 -1.96875,1.03125 -1.17188,0.39062 -2.71875,0.39062 -1.76563,0 -3.15625,-0.48437 -1.40625,-0.46875 -2.51563,-1.20313 -1.10937,-0.71875 -1.95312,-1.59375 -0.84375,-0.875 -1.48438,-1.65625 l 1.45313,-1.70312 q 0.89062,0.96875 1.70312,1.75 0.8125,0.78125 1.6875,1.32812 0.875,0.5625 1.89063,0.85938 1,0.29687 2.26562,0.29687 1.07813,0 1.84375,-0.21875 0.75,-0.20312 1.23438,-0.54687 0.48437,-0.32813 0.70312,-0.76563 0.21875,-0.42187 0.21875,-0.85937 0,-0.79688 -0.59375,-1.26563 -0.60937,-0.46875 -1.64062,-0.46875 -0.67188,0 -1.54688,0.23438 -0.89062,0.23437 -1.79687,0.78125 z M 322.0625,129 h -3.28125 v 21 h -2.54688 v -13.71875 h -5.07812 q -1.04688,0 -1.89063,0.14062 -0.84375,0.125 -1.4375,0.53125 -0.59375,0.39063 -0.92187,1.10938 -0.3125,0.70312 -0.3125,1.85937 0,1.5 0.48437,2.76563 0.5,1.26562 1.26563,2.32812 0.76562,1.04688 1.6875,1.9375 0.9375,0.89063 1.79687,1.64063 l -1.5625,1.78125 q -0.14062,-0.0781 -0.67187,-0.45313 -0.51563,-0.39062 -1.21875,-1.04687 -0.6875,-0.65625 -1.46875,-1.59375 -0.76563,-0.9375 -1.42188,-2.10938 -0.64062,-1.1875 -1.07812,-2.60937 -0.42188,-1.42188 -0.42188,-3.0625 0,-1.625 0.45313,-2.6875 0.46875,-1.07813 1.3125,-1.70313 0.84375,-0.64062 2.04687,-0.89062 1.20313,-0.25 2.6875,-0.25 h 5.75 V 129 h -14.84375 v -2.29687 h 20.67188 z m 4.39062,17.4375 -2.5,7.6875 H 322.125 l 1.82812,-7.6875 z M 357.6875,129 h -5.29688 v 6.85937 H 347.125 q -2.45313,0 -3.70313,1.21875 -1.25,1.20313 -1.25,3.46875 0,1.28125 0.40625,2.26563 0.42188,0.98437 1.14063,1.65625 0.73437,0.65625 1.73437,1 1,0.34375 2.17188,0.34375 1.23437,0 1.98437,-0.375 -0.0625,-0.39063 -0.0937,-0.6875 -0.0312,-0.29688 -0.0312,-0.59375 0,-0.65625 0.15625,-1.34375 0.17188,-0.70313 0.5,-1.26563 0.34375,-0.57812 0.85938,-0.9375 0.53125,-0.35937 1.26562,-0.35937 0.45313,0 0.85938,0.15625 0.40625,0.15625 0.70312,0.48437 0.3125,0.3125 0.48438,0.79688 0.1875,0.48437 0.1875,1.125 0,0.64062 -0.17188,1.1875 -0.17187,0.53125 -0.45312,1 -0.26563,0.45312 -0.60938,0.85937 -0.34375,0.39063 -0.67187,0.71875 0.34375,0.75 0.71875,1.34375 0.39062,0.59375 0.79687,1.0625 0.42188,0.46875 0.84375,0.84375 0.42188,0.375 0.84375,0.70313 l -1.92187,2.01562 q -0.82813,-0.73437 -1.42188,-1.46875 -0.57812,-0.71875 -0.98437,-1.35937 -0.39063,-0.64063 -0.64063,-1.15625 -0.25,-0.51563 -0.40625,-0.82813 -1.07812,0.42188 -2.65625,0.42188 -2.03125,0 -3.54687,-0.65625 -1.51563,-0.67188 -2.53125,-1.78125 -1,-1.125 -1.5,-2.5625 -0.5,-1.4375 -0.5,-2.98438 0,-1.60937 0.51562,-2.82812 0.51563,-1.23438 1.4375,-2.0625 0.92188,-0.84375 2.1875,-1.26563 1.28125,-0.4375 2.79688,-0.4375 h 3.20312 V 129 h -13.15625 v -2.29687 h 21.01563 z m -5.51563,-1.85937 h -2.26562 l -1.42188,-2.67188 q -0.90625,-1.70312 -1.64062,-2.70312 -0.75,-1 -1.40625,-1.51563 -0.67188,-0.53125 -1.3125,-0.67187 -0.64063,-0.15625 -1.34375,-0.15625 H 339.75 v -2.53125 h 2.85937 q 0.90625,0 1.64063,0.15625 0.73437,0.14062 1.40625,0.53125 0.65625,0.375 1.29687,1.0625 0.625,0.67187 1.34375,1.75 0.71875,1.0625 1.57813,2.5625 0.84375,1.48437 1.9375,3.51562 z m 24.79688,22.51562 q -0.71875,0.26562 -1.76563,0.45312 -1.04687,0.1875 -2.375,0.1875 -2.48437,0 -4.4375,-0.85937 -1.95312,-0.85938 -3.625,-2.51563 -1.65625,-1.65625 -3.17187,-4.09375 -1.5,-2.4375 -3.09375,-5.57812 l 2.07812,-1.1875 q 0.59375,1.125 1.10938,1.60937 0.53125,0.46875 1.17187,0.46875 0.53125,0 0.92188,-0.29687 0.40625,-0.29688 0.65625,-0.76563 0.26562,-0.48437 0.39062,-1.09375 0.14063,-0.60937 0.14063,-1.21875 0,-0.70312 -0.15625,-1.46875 -0.15625,-0.76562 -0.42188,-1.51562 -0.26562,-0.75 -0.625,-1.45313 -0.34375,-0.71875 -0.73437,-1.3125 V 129 h -6.4375 v -2.29687 H 384.75 V 129 h -3.28125 v 21 h -2.5625 v -7.59375 l -0.0625,-0.0156 q -0.85938,0.84375 -1.90625,1.25 -1.04688,0.40625 -2.07813,0.40625 -1.28125,0 -2.35937,-0.53125 -1.07813,-0.53125 -1.85938,-1.40625 -0.78125,-0.875 -1.21875,-2 -0.4375,-1.125 -0.4375,-2.32812 0,-1.14063 0.39063,-2.20313 0.40625,-1.0625 1.10937,-1.875 0.71875,-0.82812 1.6875,-1.3125 0.98438,-0.48437 2.15625,-0.48437 0.67188,0 1.28125,0.15625 0.60938,0.15625 1.17188,0.4375 0.5625,0.28125 1.07812,0.67187 0.51563,0.375 0.98438,0.8125 l 0.0625,-0.0156 V 129 h -13.14063 q 0.79688,1.51562 1.25,2.96875 0.45313,1.4375 0.45313,2.90625 0,1 -0.25,1.98437 -0.25,0.98438 -0.78125,1.78125 -0.51563,0.79688 -1.32813,1.32813 -0.8125,0.53125 -1.9375,0.625 v 0.0781 q 1.07813,2.10938 2.25,3.48438 1.1875,1.35937 2.40625,2.15625 1.21875,0.79687 2.4375,1.10937 1.23438,0.3125 2.40625,0.3125 1.32813,0 2.39063,-0.26562 1.0625,-0.28125 1.90625,-0.625 z m 1.95312,-12.76563 q -0.28125,-0.35937 -0.70312,-0.8125 -0.40625,-0.46875 -0.9375,-0.875 -0.51563,-0.40625 -1.15625,-0.67187 -0.625,-0.28125 -1.35938,-0.28125 -0.75,0 -1.35937,0.3125 -0.59375,0.29687 -1.03125,0.79687 -0.4375,0.5 -0.67188,1.17188 -0.23437,0.65625 -0.23437,1.375 0,0.75 0.25,1.4375 0.25,0.67187 0.6875,1.1875 0.45312,0.51562 1.07812,0.82812 0.625,0.29688 1.375,0.29688 0.57813,0 1.28125,-0.21875 0.71875,-0.21875 1.32813,-0.71875 0.625,-0.5 1.03125,-1.32813 0.42187,-0.82812 0.42187,-2.04687 z m 11.14063,-9.29687 -0.29688,16.09375 h -2.10937 L 387.375,127.59375 Z m -1.3125,22.6875 q -0.71875,0 -1.23438,-0.5 -0.5,-0.5 -0.5,-1.21875 0,-0.71875 0.5,-1.21875 0.51563,-0.51563 1.23438,-0.51563 0.70312,0 1.21875,0.51563 0.51562,0.5 0.51562,1.21875 0,0.71875 -0.51562,1.21875 -0.51563,0.5 -1.21875,0.5 z"
         id="path5" />
      <path
         d="m 70.125,179 h -3.28125 v 21 H 64.296875 V 186.28125 H 59.21875 q -1.046875,0 -1.890625,0.14062 -0.84375,0.125 -1.4375,0.53125 -0.59375,0.39063 -0.921875,1.10938 -0.3125,0.70312 -0.3125,1.85937 0,1.5 0.484375,2.76563 0.5,1.26562 1.265625,2.32812 0.765625,1.04688 1.6875,1.9375 0.9375,0.89063 1.796875,1.64063 l -1.5625,1.78125 q -0.140625,-0.0781 -0.671875,-0.45313 -0.515625,-0.39062 -1.21875,-1.04687 -0.6875,-0.65625 -1.46875,-1.59375 -0.765625,-0.9375 -1.421875,-2.10938 -0.640625,-1.1875 -1.078125,-2.60937 -0.421875,-1.42188 -0.421875,-3.0625 0,-1.625 0.453125,-2.6875 0.46875,-1.07813 1.3125,-1.70313 0.84375,-0.64062 2.046875,-0.89062 1.203125,-0.25 2.6875,-0.25 h 5.75 V 179 h -14.84375 v -2.29688 H 70.125 Z m -6.484375,-7.0625 q 0,-0.89063 0.53125,-1.4375 0.515625,-0.5625 1.359375,-0.5625 0.390625,0 0.75,0.15625 0.34375,0.15625 0.609375,0.4375 0.265625,0.26562 0.421875,0.64062 0.140625,0.35938 0.140625,0.79688 0,0.89062 -0.515625,1.4375 -0.53125,0.54687 -1.375,0.54687 -0.40625,0 -0.75,-0.14062 -0.359375,-0.15625 -0.609375,-0.42188 -0.265625,-0.28125 -0.40625,-0.64062 -0.15625,-0.375 -0.15625,-0.8125 z M 88.5,176.70312 V 179 h -3.28125 v 21 h -2.5625 v -8.4375 l -0.04687,-0.0156 -9.3125,6.29688 -1.359375,-2.07813 10.71875,-7.09375 Q 81.625,187.8125 80.875,187.21875 q -0.734375,-0.59375 -1.3125,-0.95313 -0.578125,-0.375 -1.078125,-0.53125 -0.5,-0.17187 -1.03125,-0.17187 -0.453125,0 -1,0.125 -0.53125,0.125 -1.234375,0.375 -0.703125,0.23437 -1.578125,0.60937 -0.875,0.35938 -1.984375,0.84375 L 70.625,185.04687 q 1.125,-0.48437 2.046875,-0.85937 0.921875,-0.39063 1.6875,-0.64063 0.765625,-0.26562 1.390625,-0.39062 0.640625,-0.14063 1.1875,-0.14063 0.578125,0 1.140625,0.20313 0.578125,0.1875 1.234375,0.60937 0.671875,0.40625 1.46875,1.04688 0.8125,0.64062 1.875,1.53125 V 179 h -13.625 v -2.29688 z m 20.48438,0 V 179 h -3.28125 v 21 h -2.5625 v -15.23438 h -7.35938 v 0.17188 q 0.703125,0.375 1.453125,0.96875 0.75,0.59375 1.359375,1.375 0.625,0.78125 1.015625,1.75 0.406255,0.95312 0.406255,2.07812 0,0.8125 -0.250005,1.5625 -0.25,0.73438 -0.75,1.35938 -0.484375,0.625 -1.21875,1.07812 -0.734375,0.45313 -1.6875,0.67188 l -0.03125,0.0469 q 0.453125,0.53125 0.921875,1.14063 0.484375,0.59375 1,1.35937 0.53125,0.75 1.125,1.70313 0.609375,0.95312 1.3125,2.1875 l -2.203125,1.21875 q -0.1875,-0.39063 -0.515625,-0.98438 -0.328125,-0.59375 -0.75,-1.28125 -0.40625,-0.67187 -0.890625,-1.40625 -0.46875,-0.73437 -0.953125,-1.40625 -0.46875,-0.6875 -0.9375,-1.26562 -0.453125,-0.57813 -0.828125,-0.95313 -1.0625,0 -1.84375,-0.29687 -0.78125,-0.29688 -1.3125,-0.75 -0.515625,-0.45313 -0.78125,-1.01563 -0.25,-0.5625 -0.25,-1.09375 0,-0.375 0.125,-0.70312 0.125,-0.34375 0.375,-0.59375 0.265625,-0.26563 0.65625,-0.42188 0.390625,-0.15625 0.921875,-0.15625 1.078125,0 1.953125,0.64063 0.890625,0.625 1.59375,1.76562 1.375,-0.0937 2.046875,-0.75 0.6875,-0.67187 0.6875,-1.75 0,-1.07812 -0.609375,-2.04687 -0.59375,-0.98438 -1.5625,-1.8125 -0.96875,-0.82813 -2.1875,-1.48438 -1.21875,-0.65625 -2.453125,-1.09375 v -2.10937 h 12.42188 V 179 H 87.40625 v -2.29688 z M 117.29688,179 h -3.28125 v 21 h -2.5625 v -21 h -3.5625 v -2.29688 h 9.40625 z m 19.43749,0 h -3.28125 v 21 H 130.875 v -12.04688 h -7.3125 q 0,1.03125 -0.0312,1.76563 -0.0156,0.73437 -0.125,1.21875 -0.10937,0.46875 -0.32812,0.6875 -0.21875,0.21875 -0.60938,0.21875 -0.8125,0 -1.54687,-0.53125 -0.71875,-0.53125 -1.28125,-1.28125 -0.54688,-0.75 -0.875,-1.5625 -0.32813,-0.8125 -0.32813,-1.375 0,-0.5 0.21875,-0.78125 0.21875,-0.28125 0.57813,-0.42188 0.35937,-0.14062 0.8125,-0.17187 0.46875,-0.0312 0.9375,-0.0312 H 130.875 V 179 h -14.67187 v -2.29688 h 20.53124 z m 8.3125,0 h -3.28125 v 21 h -2.5625 v -21 h -3.5625 v -2.29688 h 9.40625 z m 21.64063,0 h -3.28125 v 21 h -2.59375 v -6.57813 L 160.75,193.375 q -0.85938,0.78125 -1.6875,1.23437 -0.8125,0.4375 -1.53125,0.67188 -0.70313,0.21875 -1.28125,0.28125 -0.57813,0.0625 -0.95313,0.0625 -1.4375,0 -2.54687,-0.45313 -1.10938,-0.45312 -1.85938,-1.1875 -0.75,-0.75 -1.14062,-1.70312 -0.39063,-0.96875 -0.39063,-2 0,-1.07813 0.4375,-2.14063 0.45313,-1.0625 1.40625,-1.90625 l -0.0156,-0.0625 h -4.95313 V 183.875 h 12.5625 v 2.29687 h -1.60937 q -1.60938,0 -2.64063,0.42188 -1.03125,0.42187 -1.625,1.03125 -0.59375,0.60937 -0.82812,1.3125 -0.21875,0.6875 -0.21875,1.25 0,0.46875 0.15625,1.01562 0.15625,0.53125 0.51562,0.98438 0.375,0.45312 0.98438,0.75 0.625,0.29687 1.5625,0.29687 0.98437,0 1.82812,-0.3125 0.85938,-0.32812 1.57813,-0.84375 0.71875,-0.51562 1.29687,-1.15625 0.59375,-0.65625 1.01563,-1.29687 V 179 h -16.85938 v -2.29688 H 166.6875 Z M 175,179 h -3.28125 v 21 h -2.5625 v -21 h -3.5625 v -2.29688 H 175 Z m 19.67187,16.59375 q 0.51563,-0.15625 1.01563,-0.39063 0.51562,-0.23437 0.90625,-0.5625 0.40625,-0.34375 0.65625,-0.79687 0.25,-0.45313 0.25,-1.0625 0,-1.29688 -1.07813,-2.01563 -1.07812,-0.73437 -3.0625,-0.73437 -0.79687,0 -1.64062,0.17187 -0.82813,0.15625 -1.51563,0.59375 -0.6875,0.42188 -1.125,1.17188 -0.4375,0.73437 -0.4375,1.875 0,1.15625 0.45313,2.15625 0.45312,0.98437 1.17187,1.8125 0.73438,0.82812 1.64063,1.5 0.90625,0.67187 1.79687,1.1875 0.90625,0.51562 1.70313,0.85937 0.79687,0.35938 1.32812,0.5625 l -1.03125,2.15625 q -1.09375,-0.46875 -2.23437,-1.03125 -1.125,-0.54687 -2.1875,-1.21875 -1.0625,-0.65625 -2,-1.45312 -0.9375,-0.79688 -1.64063,-1.76563 -0.6875,-0.96875 -1.09375,-2.125 -0.39062,-1.15625 -0.39062,-2.51562 0,-1.32813 0.34375,-2.3125 0.35937,-1 0.98437,-1.75 -0.85937,-0.98438 -1.26562,-1.98438 -0.40625,-1 -0.40625,-2.17187 0,-0.67188 0.15625,-1.26563 0.17187,-0.59375 0.59375,-1.03125 Q 187,183 187.76562,182.73437 q 0.76563,-0.26562 1.98438,-0.26562 h 7.07812 V 179 h -14.15625 v -2.29688 h 20.35938 V 179 h -3.64063 v 5.75 h -8.98437 q -0.60938,0 -1.03125,0.10937 -0.40625,0.0937 -0.65625,0.29688 -0.25,0.20312 -0.35938,0.51562 -0.0937,0.29688 -0.0937,0.70313 0,0.54687 0.1875,1.0625 0.1875,0.51562 0.70313,1.15625 0.90625,-0.46875 1.98437,-0.6875 1.09375,-0.23438 2.28125,-0.23438 1.375,0 2.5625,0.3125 1.20313,0.3125 2.07813,0.95313 0.89062,0.625 1.39062,1.60937 0.51563,0.96875 0.51563,2.28125 0,1.26563 -0.4375,2.14063 -0.42188,0.875 -1.07813,1.46875 -0.64062,0.59375 -1.40625,0.96875 Q 196.28125,197.76562 195.625,198 Z M 211.34375,179 h -3.28125 v 21 H 205.5 v -21 h -3.5625 v -2.29688 h 9.40625 z m 28.20312,0 h -3.28125 v 21 h -2.57812 v -12.04688 h -7.3125 q 0,1.03125 -0.0312,1.76563 -0.0156,0.73437 -0.125,1.21875 -0.10938,0.46875 -0.32813,0.6875 -0.21875,0.21875 -0.60937,0.21875 -0.8125,0 -1.54688,-0.53125 -0.71875,-0.53125 -1.28125,-1.28125 -0.54687,-0.75 -0.875,-1.5625 -0.32812,-0.8125 -0.32812,-1.375 0,-0.5 0.21875,-0.78125 0.21875,-0.28125 0.57812,-0.42188 0.35938,-0.14062 0.8125,-0.17187 0.46875,-0.0312 0.9375,-0.0312 h 9.89063 V 179 h -14.67188 v -2.29688 h 20.53125 z m 18.8125,0 h -3.28125 v 21 h -2.5625 v -5.57813 l -0.0625,-0.0156 q -0.3125,0.29687 -0.73437,0.625 -0.42188,0.3125 -0.96875,0.57812 -0.54688,0.25 -1.23438,0.42188 -0.67187,0.17187 -1.51562,0.17187 -1.54688,0 -2.82813,-0.59375 -1.26562,-0.59375 -2.1875,-1.57812 -0.92187,-1 -1.4375,-2.28125 -0.5,-1.29688 -0.5,-2.70313 0,-1.40625 0.5,-2.60937 0.51563,-1.21875 1.40625,-2.10938 0.89063,-0.89062 2.07813,-1.39062 1.1875,-0.51563 2.54687,-0.51563 0.375,0 0.9375,0.0625 0.57813,0.0625 1.23438,0.28125 0.65625,0.21875 1.35937,0.64063 0.70313,0.40625 1.34375,1.10937 l 0.0625,-0.0156 V 179 h -14.0625 v -2.29688 h 19.90625 z m -5.78125,8.42187 q -0.98437,-1.1875 -2.14062,-1.90625 -1.15625,-0.73437 -2.625,-0.73437 -1.15625,0 -1.96875,0.4375 -0.79688,0.4375 -1.3125,1.10937 -0.51563,0.65625 -0.75,1.46875 -0.23438,0.8125 -0.23438,1.5625 0,0.8125 0.26563,1.60938 0.26562,0.79687 0.78125,1.4375 0.53125,0.625 1.3125,1.03125 0.78125,0.39062 1.82812,0.39062 1.07813,0 1.96875,-0.40625 0.89063,-0.42187 1.53125,-1.0625 0.64063,-0.64062 0.98438,-1.4375 0.35937,-0.79687 0.35937,-1.54687 z M 266.67187,179 h -3.28125 v 21 h -2.5625 v -21 h -3.5625 v -2.29688 h 9.40625 z m 17.07813,0 h -3.28125 v 21 h -2.5625 v -21 h -3.5625 v -2.29688 h 3.5625 q -0.85938,-2.0625 -0.85938,-3.84375 0,-1.14062 0.375,-2.125 0.375,-0.98437 1.14063,-1.70312 0.78125,-0.71875 1.98437,-1.125 Q 281.75,167.5 283.40625,167.5 q 2.17187,0 4.17187,0.70312 2.01563,0.70313 3.9375,1.95313 1.92188,1.25 3.79688,2.96875 1.89062,1.71875 3.8125,3.75 h -2.71875 q -0.4375,-0.42188 -1.17188,-1.09375 -0.71875,-0.6875 -1.67187,-1.45313 -0.95313,-0.78125 -2.10938,-1.5625 -1.15625,-0.79687 -2.4375,-1.4375 -1.28125,-0.64062 -2.67187,-1.03125 -1.375,-0.40625 -2.78125,-0.40625 -1.14063,0 -1.92188,0.26563 -0.76562,0.26562 -1.25,0.73437 -0.46875,0.46875 -0.67187,1.10938 -0.20313,0.625 -0.20313,1.34375 0,1.40625 0.76563,3.35937 H 283.75 Z m 9.59375,8.5 q -0.28125,0.0312 -0.53125,0.0625 -0.25,0.0156 -0.51563,0.0156 -1.26562,0 -2.29687,-0.45312 -1.01563,-0.45313 -1.75,-1.21875 -0.71875,-0.76563 -1.10938,-1.76563 -0.39062,-1.01562 -0.39062,-2.125 0,-0.79687 0.21875,-1.54687 0.21875,-0.75 0.6875,-1.40625 L 287.64062,179 h -4.98437 v -2.29688 h 26.125 V 179 H 305.5 v 21 h -2.5625 v -21 h -5.89063 l -0.0156,0.0625 q 0.40625,0.40625 0.75,0.98437 0.34375,0.5625 0.57812,1.23438 0.25,0.67187 0.39063,1.40625 0.14062,0.73437 0.14062,1.48437 0,1.21875 -0.39062,2.35938 -0.375,1.14062 -1.07813,2.15625 -0.6875,1.01562 -1.67187,1.89062 -0.96875,0.85938 -2.15625,1.53125 v 0.0625 q 0.78125,0.60938 1.67187,1.46875 0.89063,0.84375 1.76563,1.76563 0.875,0.92187 1.65625,1.84375 0.78125,0.90625 1.34375,1.65625 l -1.76563,1.48437 q -0.48437,-0.60937 -1.21875,-1.48437 -0.73437,-0.89063 -1.64062,-1.84375 -0.90625,-0.96875 -1.96875,-1.92188 -1.04688,-0.96875 -2.1875,-1.75 -0.5625,0.26563 -1.1875,0.39063 -0.60938,0.125 -1.21875,0.125 -0.70313,0 -1.35938,-0.17188 -0.64062,-0.17187 -1.15625,-0.5 -0.5,-0.32812 -0.79687,-0.79687 -0.29688,-0.48438 -0.29688,-1.10938 0,-0.98437 0.71875,-1.51562 0.73438,-0.54688 1.90625,-0.54688 0.85938,0 1.73438,0.3125 0.89062,0.29688 1.73437,0.90625 0.4375,-0.0937 0.98438,-0.32812 0.54687,-0.25 1.10937,-0.625 0.57813,-0.39063 1.10938,-0.90625 0.54687,-0.53125 0.96875,-1.20313 0.42187,-0.67187 0.67187,-1.46875 0.26563,-0.8125 0.26563,-1.75 0,-0.9375 -0.28125,-1.84375 -0.26563,-0.90625 -0.79688,-1.60937 -0.53125,-0.71875 -1.32812,-1.15625 -0.79688,-0.4375 -1.84375,-0.4375 -0.82813,0 -1.375,0.26562 -0.54688,0.25 -0.89063,0.65625 -0.34375,0.40625 -0.48437,0.90625 -0.14063,0.48438 -0.14063,0.95313 0,0.60937 0.21875,1.20312 0.21875,0.57813 0.64063,1.04688 0.4375,0.45312 1.07812,0.73437 0.64063,0.28125 1.46875,0.28125 0.26563,0 0.64063,-0.0469 z m 34.71875,12.15625 q -0.71875,0.26562 -1.76563,0.45312 -1.04687,0.1875 -2.375,0.1875 -2.48437,0 -4.4375,-0.85937 -1.95312,-0.85938 -3.625,-2.51563 -1.65625,-1.65625 -3.17187,-4.09375 -1.5,-2.4375 -3.09375,-5.57812 l 2.07812,-1.1875 q 0.59375,1.125 1.10938,1.60937 0.53125,0.46875 1.17187,0.46875 0.53125,0 0.92188,-0.29687 0.40625,-0.29688 0.65625,-0.76563 0.26562,-0.48437 0.39062,-1.09375 0.14063,-0.60937 0.14063,-1.21875 0,-0.70312 -0.15625,-1.46875 -0.15625,-0.76562 -0.42188,-1.51562 -0.26562,-0.75 -0.625,-1.45313 -0.34375,-0.71875 -0.73437,-1.3125 V 179 h -6.4375 v -2.29688 h 28.15625 V 179 h -3.28125 v 21 H 330 v -7.59375 l -0.0625,-0.0156 q -0.85938,0.84375 -1.90625,1.25 -1.04688,0.40625 -2.07813,0.40625 -1.28125,0 -2.35937,-0.53125 -1.07813,-0.53125 -1.85938,-1.40625 -0.78125,-0.875 -1.21875,-2 -0.4375,-1.125 -0.4375,-2.32812 0,-1.14063 0.39063,-2.20313 0.40625,-1.0625 1.10937,-1.875 0.71875,-0.82812 1.6875,-1.3125 0.98438,-0.48437 2.15625,-0.48437 0.67188,0 1.28125,0.15625 0.60938,0.15625 1.17188,0.4375 0.5625,0.28125 1.07812,0.67187 0.51563,0.375 0.98438,0.8125 L 330,183.96875 V 179 h -13.14063 q 0.79688,1.51562 1.25,2.96875 0.45313,1.4375 0.45313,2.90625 0,1 -0.25,1.98437 -0.25,0.98438 -0.78125,1.78125 -0.51563,0.79688 -1.32813,1.32813 -0.8125,0.53125 -1.9375,0.625 v 0.0781 q 1.07813,2.10938 2.25,3.48438 1.1875,1.35937 2.40625,2.15625 1.21875,0.79687 2.4375,1.10937 1.23438,0.3125 2.40625,0.3125 1.32813,0 2.39063,-0.26562 1.0625,-0.28125 1.90625,-0.625 z m 1.95312,-12.76563 q -0.28125,-0.35937 -0.70312,-0.8125 -0.40625,-0.46875 -0.9375,-0.875 -0.51563,-0.40625 -1.15625,-0.67187 -0.625,-0.28125 -1.35938,-0.28125 -0.75,0 -1.35937,0.3125 -0.59375,0.29687 -1.03125,0.79687 -0.4375,0.5 -0.67188,1.17188 -0.23437,0.65625 -0.23437,1.375 0,0.75 0.25,1.4375 0.25,0.67187 0.6875,1.1875 0.45312,0.51562 1.07812,0.82812 0.625,0.29688 1.375,0.29688 0.57813,0 1.28125,-0.21875 0.71875,-0.21875 1.32813,-0.71875 0.625,-0.5 1.03125,-1.32813 0.42187,-0.82812 0.42187,-2.04687 z M 351.48437,179 h -5.89062 q 0.79687,1.375 1.28125,2.8125 0.5,1.42187 0.5,2.89062 0,1.10938 -0.34375,2.14063 -0.32813,1.01562 -0.98438,1.82812 -0.64062,0.79688 -1.60937,1.3125 -0.95313,0.5 -2.20313,0.5625 l -0.0312,0.0781 q 1.40625,2.1875 3.15625,4.14062 1.75,1.9375 4.04688,3.6875 l -1.67188,1.92188 q -1.32812,-0.98438 -2.53125,-2.125 -1.1875,-1.15625 -2.25,-2.375 -1.0625,-1.23438 -1.98437,-2.48438 -0.90625,-1.26562 -1.67188,-2.45312 -0.75,-1.20313 -1.34375,-2.29688 -0.59375,-1.10937 -1.01562,-2.01562 l 2.14062,-1.15625 q 0.5625,1.21875 1.26563,1.92187 0.71875,0.6875 1.65625,0.6875 0.67187,0 1.20312,-0.34375 0.53125,-0.34375 0.89063,-0.875 0.35937,-0.54687 0.54687,-1.1875 0.1875,-0.65625 0.1875,-1.28125 0,-0.73437 -0.1875,-1.4375 -0.1875,-0.71875 -0.48437,-1.39062 -0.29688,-0.6875 -0.67188,-1.32813 Q 343.125,179.59375 342.78125,179 H 334.75 v -2.29688 h 16.73437 z m 4.39063,17.4375 -2.5,7.6875 h -1.82813 l 1.82813,-7.6875 z"
         id="path6" />
      <path
         d="m 69.8125,229 h -3.28125 v 21 h -2.578125 v -6.96875 l -0.0625,-0.0156 -9.53125,7.17188 L 52.75,248.23437 58.296875,244.25 58.28125,244.1875 q -1.203125,-0.0937 -2.1875,-0.53125 -0.984375,-0.4375 -1.6875,-1.23438 -0.703125,-0.79687 -1.09375,-1.96875 -0.375,-1.17187 -0.375,-2.73437 V 229 h -3.484375 v -2.29688 H 69.8125 Z m -5.859375,0 H 55.46875 v 8.57812 q 0,0.98438 0.15625,1.76563 0.171875,0.78125 0.5625,1.32812 0.40625,0.54688 1.0625,0.84375 0.65625,0.28125 1.640625,0.28125 1.609375,0 2.90625,-0.70312 1.296875,-0.71875 2.15625,-1.89063 z m 25.8125,0 h -3.28125 v 21 h -2.5625 V 229 H 76.875 v 12.125 q 0,0.25 -0.03125,0.57812 -0.03125,0.32813 -0.15625,0.64063 -0.109375,0.29687 -0.328125,0.51562 -0.21875,0.20313 -0.609375,0.20313 -0.421875,0 -0.9375,-0.26563 -0.5,-0.28125 -1.03125,-0.71875 Q 73.25,241.625 72.75,241.0625 72.265625,240.5 71.875,239.90625 71.484375,239.3125 71.25,238.75 q -0.234375,-0.5625 -0.234375,-1 0,-0.39063 0.1875,-0.625 0.203125,-0.23438 0.546875,-0.35938 0.359375,-0.125 0.859375,-0.15625 0.515625,-0.0312 1.125,-0.0312 H 74.28125 V 229 h -5.5625 v -2.29688 h 21.046875 z m 19.578125,0 h -3.28125 v 21 h -2.54687 V 236.28125 H 98.4375 q -1.046875,0 -1.890625,0.14062 -0.84375,0.125 -1.4375,0.53125 -0.59375,0.39063 -0.921875,1.10938 -0.3125,0.70312 -0.3125,1.85937 0,1.5 0.484375,2.76563 0.5,1.26562 1.265625,2.32812 0.765625,1.04688 1.6875,1.9375 0.9375,0.89063 1.796875,1.64063 l -1.5625,1.78125 q -0.140625,-0.0781 -0.671875,-0.45313 -0.515625,-0.39062 -1.21875,-1.04687 -0.6875,-0.65625 -1.46875,-1.59375 -0.765625,-0.9375 -1.421875,-2.10938 -0.640625,-1.1875 -1.078125,-2.60937 -0.421875,-1.42188 -0.421875,-3.0625 0,-1.625 0.453125,-2.6875 0.46875,-1.07813 1.3125,-1.70313 0.84375,-0.64062 2.046875,-0.89062 1.203125,-0.25 2.6875,-0.25 h 5.750005 V 229 H 88.671875 v -2.29688 h 20.671875 z m 8.3125,0 H 114.375 v 21 h -2.5625 V 229 H 108.25 v -2.29688 h 3.8125 q -0.28125,-1.59375 -0.71875,-2.71875 -0.4375,-1.14062 -0.95312,-1.89062 -0.51563,-0.76563 -1.07813,-1.20313 -0.5625,-0.4375 -1.07812,-0.65625 -0.53125,-0.21875 -0.98438,-0.28125 -0.46875,-0.0625 -0.76562,-0.0625 -0.96875,0 -1.54688,0.3125 -0.59375,0.29688 -0.90625,0.71875 -0.3125,0.42188 -0.40625,0.89063 -0.10937,0.45312 -0.10937,0.78125 0,0.125 0.0469,0.51562 0.0312,0.375 0.25,0.95313 0.20313,0.57812 0.64063,1.29687 0.4375,0.71875 1.23437,1.51563 h -2.65625 q -0.98437,-1.125 -1.46875,-2.32813 -0.5,-1.21875 -0.5,-2.35937 0,-0.95313 0.34375,-1.8125 0.34375,-0.85938 1.03125,-1.48438 0.6875,-0.64062 1.71875,-1.01562 1.03125,-0.375 2.39063,-0.375 1.875,0 3.23437,0.73437 1.35938,0.71875 2.28125,1.96875 0.9375,1.25 1.46875,2.9375 0.54688,1.67188 0.76563,3.5625 h 3.35937 z m 21.64062,0 h -3.28125 v 21 h -2.59375 v -6.57813 l -0.0625,-0.0469 q -0.85937,0.78125 -1.6875,1.23437 -0.8125,0.4375 -1.53125,0.67188 -0.70312,0.21875 -1.28125,0.28125 -0.57812,0.0625 -0.95312,0.0625 -1.4375,0 -2.54687,-0.45313 -1.10938,-0.45312 -1.85938,-1.1875 -0.75,-0.75 -1.14062,-1.70312 -0.39063,-0.96875 -0.39063,-2 0,-1.07813 0.4375,-2.14063 0.45313,-1.0625 1.40625,-1.90625 l -0.0156,-0.0625 h -4.95313 V 233.875 h 12.5625 v 2.29687 h -1.60938 q -1.60937,0 -2.64062,0.42188 -1.03125,0.42187 -1.625,1.03125 -0.59375,0.60937 -0.82812,1.3125 -0.21875,0.6875 -0.21875,1.25 0,0.46875 0.15625,1.01562 0.15625,0.53125 0.51562,0.98438 0.375,0.45312 0.98438,0.75 0.625,0.29687 1.5625,0.29687 0.98437,0 1.82812,-0.3125 0.85937,-0.32812 1.57812,-0.84375 0.71875,-0.51562 1.29688,-1.15625 Q 133,240.26562 133.42187,239.625 V 229 H 116.5625 v -2.29688 h 22.73437 z m 8.3125,0 h -3.28125 v 21 h -2.5625 v -21 h -3.5625 v -2.29688 h 9.40625 z m 30.3125,0 h -3.28125 v 21 h -2.5625 v -8.76563 h -8.59375 v 1.85938 q 0,0.48437 -0.0469,0.85937 -0.0312,0.375 -0.17188,0.625 -0.125,0.25 -0.375,0.39063 -0.23437,0.125 -0.64062,0.125 -0.40625,0 -0.90625,-0.23438 -0.5,-0.25 -1.01563,-0.65625 -0.51562,-0.42187 -1,-0.9375 -0.48437,-0.53125 -0.875,-1.09375 -0.375,-0.57812 -0.60937,-1.14062 -0.23438,-0.5625 -0.23438,-1.03125 0,-0.32813 0.10938,-0.53125 0.125,-0.21875 0.32812,-0.32813 0.21875,-0.10937 0.51563,-0.14062 0.29687,-0.0469 0.67187,-0.0469 h 1.6875 V 229 h -5.64062 v -2.29688 h 22.64062 z m -14.4375,0 v 9.95312 h 8.59375 V 229 Z m 22.75,0 h -3.28125 v 21 h -2.5625 v -21 h -3.5625 v -2.29688 h 9.40625 z m 19.95313,0 h -3.28125 v 21 h -2.5625 v -21 h -7.04688 v 12.125 q 0,0.25 -0.0312,0.57812 -0.0312,0.32813 -0.15625,0.64063 -0.10937,0.29687 -0.32812,0.51562 -0.21875,0.20313 -0.60938,0.20313 -0.42187,0 -0.9375,-0.26563 -0.5,-0.28125 -1.03125,-0.71875 -0.53125,-0.45312 -1.03125,-1.01562 -0.48437,-0.5625 -0.875,-1.15625 -0.39062,-0.59375 -0.625,-1.15625 -0.23437,-0.5625 -0.23437,-1 0,-0.39063 0.1875,-0.625 0.20312,-0.23438 0.54687,-0.35938 0.35938,-0.125 0.85938,-0.15625 0.51562,-0.0312 1.125,-0.0312 h 0.54687 V 229 h -5.5625 v -2.29688 h 21.04688 z m -0.42188,-9.125 q -0.6875,-0.78125 -1.28125,-1.14063 -0.59375,-0.35937 -1.39062,-0.35937 -1.21875,0 -1.95313,0.84375 -0.73437,0.82812 -0.73437,2.34375 0,0.625 0.14062,1.3125 0.14063,0.67187 0.40625,1.35937 0.26563,0.6875 0.65625,1.35938 Q 202,226.26562 202.5,226.875 h -2.59375 q -0.9375,-1.32813 -1.40625,-2.71875 -0.46875,-1.40625 -0.46875,-2.73438 0,-1.28125 0.42187,-2.29687 0.40625,-1.01563 1.09375,-1.70313 0.6875,-0.6875 1.60938,-1.04687 0.90625,-0.375 1.92187,-0.375 1.35938,0 2.42188,0.54687 1.07812,0.53125 2.01562,1.71875 z M 234.875,229 h -5.29688 v 6.85937 h -5.26562 q -2.45313,0 -3.70313,1.21875 -1.25,1.20313 -1.25,3.46875 0,1.28125 0.40625,2.26563 0.42188,0.98437 1.14063,1.65625 0.73437,0.65625 1.73437,1 1,0.34375 2.17188,0.34375 1.23437,0 1.98437,-0.375 -0.0625,-0.39063 -0.0937,-0.6875 -0.0312,-0.29688 -0.0312,-0.59375 0,-0.65625 0.15625,-1.34375 0.17188,-0.70313 0.5,-1.26563 0.34375,-0.57812 0.85938,-0.9375 0.53125,-0.35937 1.26562,-0.35937 0.45313,0 0.85938,0.15625 0.40625,0.15625 0.70312,0.48437 0.3125,0.3125 0.48438,0.79688 0.1875,0.48437 0.1875,1.125 0,0.64062 -0.17188,1.1875 -0.17187,0.53125 -0.45312,1 -0.26563,0.45312 -0.60938,0.85937 -0.34375,0.39063 -0.67187,0.71875 0.34375,0.75 0.71875,1.34375 0.39062,0.59375 0.79687,1.0625 0.42188,0.46875 0.84375,0.84375 0.42188,0.375 0.84375,0.70313 l -1.92187,2.01562 q -0.82813,-0.73437 -1.42188,-1.46875 -0.57812,-0.71875 -0.98437,-1.35937 -0.39063,-0.64063 -0.64063,-1.15625 -0.25,-0.51563 -0.40625,-0.82813 -1.07812,0.42188 -2.65625,0.42188 -2.03125,0 -3.54687,-0.65625 -1.51563,-0.67188 -2.53125,-1.78125 -1,-1.125 -1.5,-2.5625 -0.5,-1.4375 -0.5,-2.98438 0,-1.60937 0.51562,-2.82812 0.51563,-1.23438 1.4375,-2.0625 0.92188,-0.84375 2.1875,-1.26563 1.28125,-0.4375 2.79688,-0.4375 h 3.20312 V 229 h -13.15625 v -2.29688 H 234.875 Z m 8.3125,0 h -3.28125 v 21 h -2.5625 v -21 h -3.5625 v -2.29688 h 9.40625 z m 19.28125,20.65625 q -0.71875,0.26562 -1.76563,0.45312 -1.04687,0.1875 -2.375,0.1875 -2.48437,0 -4.4375,-0.85937 -1.95312,-0.85938 -3.625,-2.51563 -1.65625,-1.65625 -3.17187,-4.09375 -1.5,-2.4375 -3.09375,-5.57812 l 2.07812,-1.1875 q 0.59375,1.125 1.10938,1.60937 0.53125,0.46875 1.17187,0.46875 0.53125,0 0.92188,-0.29687 0.40625,-0.29688 0.65625,-0.76563 0.26562,-0.48437 0.39062,-1.09375 0.14063,-0.60937 0.14063,-1.21875 0,-0.70312 -0.15625,-1.46875 -0.15625,-0.76562 -0.42188,-1.51562 -0.26562,-0.75 -0.625,-1.45313 -0.34375,-0.71875 -0.73437,-1.3125 V 229 h -6.4375 v -2.29688 H 270.25 V 229 h -3.28125 v 21 h -2.5625 v -7.59375 l -0.0625,-0.0156 q -0.85938,0.84375 -1.90625,1.25 -1.04688,0.40625 -2.07813,0.40625 -1.28125,0 -2.35937,-0.53125 -1.07813,-0.53125 -1.85938,-1.40625 -0.78125,-0.875 -1.21875,-2 -0.4375,-1.125 -0.4375,-2.32812 0,-1.14063 0.39063,-2.20313 0.40625,-1.0625 1.10937,-1.875 0.71875,-0.82812 1.6875,-1.3125 0.98438,-0.48437 2.15625,-0.48437 0.67188,0 1.28125,0.15625 0.60938,0.15625 1.17188,0.4375 0.5625,0.28125 1.07812,0.67187 0.51563,0.375 0.98438,0.8125 l 0.0625,-0.0156 V 229 h -13.14063 q 0.79688,1.51562 1.25,2.96875 0.45313,1.4375 0.45313,2.90625 0,1 -0.25,1.98437 -0.25,0.98438 -0.78125,1.78125 -0.51563,0.79688 -1.32813,1.32813 -0.8125,0.53125 -1.9375,0.625 v 0.0781 q 1.07813,2.10938 2.25,3.48438 1.1875,1.35937 2.40625,2.15625 1.21875,0.79687 2.4375,1.10937 1.23438,0.3125 2.40625,0.3125 1.32813,0 2.39063,-0.26562 1.0625,-0.28125 1.90625,-0.625 z m 1.95312,-12.76563 q -0.28125,-0.35937 -0.70312,-0.8125 -0.40625,-0.46875 -0.9375,-0.875 -0.51563,-0.40625 -1.15625,-0.67187 Q 261,234.25 260.26562,234.25 q -0.75,0 -1.35937,0.3125 -0.59375,0.29687 -1.03125,0.79687 -0.4375,0.5 -0.67188,1.17188 -0.23437,0.65625 -0.23437,1.375 0,0.75 0.25,1.4375 0.25,0.67187 0.6875,1.1875 0.45312,0.51562 1.07812,0.82812 0.625,0.29688 1.375,0.29688 0.57813,0 1.28125,-0.21875 0.71875,-0.21875 1.32813,-0.71875 0.625,-0.5 1.03125,-1.32813 0.42187,-0.82812 0.42187,-2.04687 z M 289.0625,229 h -3.28125 v 21 h -2.5625 v -5.57813 l -0.0625,-0.0156 q -0.3125,0.29687 -0.73438,0.625 -0.42187,0.3125 -0.96875,0.57812 -0.54687,0.25 -1.23437,0.42188 -0.67188,0.17187 -1.51563,0.17187 -1.54687,0 -2.82812,-0.59375 -1.26563,-0.59375 -2.1875,-1.57812 -0.92188,-1 -1.4375,-2.28125 -0.5,-1.29688 -0.5,-2.70313 0,-1.40625 0.5,-2.60937 0.51562,-1.21875 1.40625,-2.10938 0.89062,-0.89062 2.07812,-1.39062 1.1875,-0.51563 2.54688,-0.51563 0.375,0 0.9375,0.0625 0.57812,0.0625 1.23437,0.28125 0.65625,0.21875 1.35938,0.64063 0.70312,0.40625 1.34375,1.10937 l 0.0625,-0.0156 V 229 h -14.0625 v -2.29688 h 19.90625 z m -5.78125,8.42187 q -0.98438,-1.1875 -2.14063,-1.90625 -1.15625,-0.73437 -2.625,-0.73437 -1.15625,0 -1.96875,0.4375 -0.79687,0.4375 -1.3125,1.10937 -0.51562,0.65625 -0.75,1.46875 -0.23437,0.8125 -0.23437,1.5625 0,0.8125 0.26562,1.60938 0.26563,0.79687 0.78125,1.4375 0.53125,0.625 1.3125,1.03125 0.78125,0.39062 1.82813,0.39062 1.07812,0 1.96875,-0.40625 0.89062,-0.42187 1.53125,-1.0625 0.64062,-0.64062 0.98437,-1.4375 0.35938,-0.79687 0.35938,-1.54687 z M 308.64062,229 h -3.28125 v 21 h -2.54687 v -13.71875 h -5.07813 q -1.04687,0 -1.89062,0.14062 -0.84375,0.125 -1.4375,0.53125 -0.59375,0.39063 -0.92188,1.10938 -0.3125,0.70312 -0.3125,1.85937 0,1.5 0.48438,2.76563 0.5,1.26562 1.26562,2.32812 0.76563,1.04688 1.6875,1.9375 0.9375,0.89063 1.79688,1.64063 l -1.5625,1.78125 q -0.14063,-0.0781 -0.67188,-0.45313 -0.51562,-0.39062 -1.21875,-1.04687 -0.6875,-0.65625 -1.46875,-1.59375 -0.76562,-0.9375 -1.42187,-2.10938 -0.64063,-1.1875 -1.07813,-2.60937 -0.42187,-1.42188 -0.42187,-3.0625 0,-1.625 0.45312,-2.6875 0.46875,-1.07813 1.3125,-1.70313 0.84375,-0.64062 2.04688,-0.89062 1.20312,-0.25 2.6875,-0.25 h 5.75 V 229 h -14.84375 v -2.29688 h 20.67187 z m 8.3125,0 h -3.28125 v 21 h -2.5625 v -21 h -3.5625 v -2.29688 h 9.40625 z m -3.5,-1.85938 h -2.26562 l -1.42188,-2.67187 q -0.90625,-1.70313 -1.65625,-2.70313 -0.73437,-1 -1.39062,-1.51562 -0.67188,-0.53125 -1.3125,-0.67188 -0.64063,-0.15625 -1.34375,-0.15625 h -3.03125 v -2.53125 h 2.85937 q 0.90625,0 1.64063,0.15625 0.73437,0.14063 1.40625,0.53125 0.65625,0.375 1.28125,1.0625 0.64062,0.67188 1.35937,1.75 0.71875,1.0625 1.5625,2.5625 0.85938,1.48438 1.95313,3.51563 z M 334.03125,229 H 330.75 v 21 h -2.5625 v -21 h -3.5625 v -2.29688 h 3.5625 q -0.85938,-2.0625 -0.85938,-3.84375 0,-1.14062 0.375,-2.125 0.375,-0.98437 1.14063,-1.70312 0.78125,-0.71875 1.98437,-1.125 1.20313,-0.40625 2.85938,-0.40625 2.17187,0 4.17187,0.70312 2.01563,0.70313 3.9375,1.95313 1.92188,1.25 3.79688,2.96875 1.89062,1.71875 3.8125,3.75 h -2.71875 q -0.4375,-0.42188 -1.17188,-1.09375 -0.71875,-0.6875 -1.67187,-1.45313 -0.95313,-0.78125 -2.10938,-1.5625 -1.15625,-0.79687 -2.4375,-1.4375 -1.28125,-0.64062 -2.67187,-1.03125 -1.375,-0.40625 -2.78125,-0.40625 -1.14063,0 -1.92188,0.26563 -0.76562,0.26562 -1.25,0.73437 Q 330.20312,221.35937 330,222 q -0.20313,0.625 -0.20313,1.34375 0,1.40625 0.76563,3.35937 h 3.46875 z m 19.57812,0 h -3.28125 v 21 h -2.54687 v -13.71875 h -5.07813 q -1.04687,0 -1.89062,0.14062 -0.84375,0.125 -1.4375,0.53125 -0.59375,0.39063 -0.92188,1.10938 -0.3125,0.70312 -0.3125,1.85937 0,1.5 0.48438,2.76563 0.5,1.26562 1.26562,2.32812 0.76563,1.04688 1.6875,1.9375 0.9375,0.89063 1.79688,1.64063 l -1.5625,1.78125 q -0.14063,-0.0781 -0.67188,-0.45313 -0.51562,-0.39062 -1.21875,-1.04687 -0.6875,-0.65625 -1.46875,-1.59375 -0.76562,-0.9375 -1.42187,-2.10938 -0.64063,-1.1875 -1.07813,-2.60937 -0.42187,-1.42188 -0.42187,-3.0625 0,-1.625 0.45312,-2.6875 0.46875,-1.07813 1.3125,-1.70313 0.84375,-0.64062 2.04688,-0.89062 1.20312,-0.25 2.6875,-0.25 h 5.75 V 229 H 332.9375 v -2.29688 h 20.67187 z m 27.625,0 h -13.20312 v 6.15625 l 0.0781,0.0312 q 0.79688,-1.09375 1.98438,-1.75 1.1875,-0.67188 2.60937,-0.67188 1.125,0 2.07813,0.46875 0.96875,0.45313 1.67187,1.26563 0.70313,0.79687 1.09375,1.89062 0.40625,1.09375 0.40625,2.35938 0,1.4375 -0.5,2.65625 -0.5,1.20312 -1.28125,2.1875 -0.78125,0.98437 -1.76562,1.75 -0.98438,0.75 -1.9375,1.28125 l -1.39063,-2.40625 q 0.3125,-0.17188 0.76563,-0.45313 0.45312,-0.28125 0.9375,-0.65625 0.5,-0.375 0.96875,-0.84375 0.48437,-0.48437 0.85937,-1.04687 0.39063,-0.5625 0.625,-1.21875 0.23438,-0.65625 0.23438,-1.39063 0,-0.67187 -0.21875,-1.28125 -0.20313,-0.60937 -0.57813,-1.0625 -0.375,-0.45312 -0.90625,-0.71875 -0.51562,-0.26562 -1.14062,-0.26562 -0.8125,0 -1.57813,0.42187 -0.76562,0.42188 -1.39062,1.0625 -0.625,0.625 -1.0625,1.34375 -0.42188,0.71875 -0.5625,1.32813 V 250 h -2.5625 v -5.98438 l -0.0625,-0.0312 q -0.23438,0.20313 -0.59375,0.5 -0.35938,0.28125 -0.875,0.54688 -0.5,0.26562 -1.17188,0.45312 -0.65625,0.1875 -1.48437,0.1875 -1.375,0 -2.54688,-0.53125 -1.15625,-0.53125 -2.01562,-1.4375 -0.84375,-0.92187 -1.32813,-2.15625 -0.48437,-1.23437 -0.48437,-2.64062 0,-1.34375 0.4375,-2.48438 0.45312,-1.14062 1.21875,-1.95312 0.78125,-0.82813 1.8125,-1.28125 1.04687,-0.46875 2.25,-0.46875 0.84375,0 1.5625,0.21875 0.73437,0.20312 1.32812,0.51562 0.60938,0.29688 1.07813,0.65625 0.48437,0.34375 0.8125,0.625 l 0.0625,-0.0156 V 229 h -12.95313 v -2.29688 h 28.71875 z M 361,235.15625 q -0.89063,0 -1.57813,0.375 -0.67187,0.35937 -1.125,0.9375 -0.45312,0.5625 -0.6875,1.28125 -0.21875,0.70312 -0.21875,1.39062 0,0.75 0.26563,1.5 0.26562,0.73438 0.75,1.32813 0.5,0.59375 1.1875,0.96875 0.6875,0.35937 1.51562,0.35937 0.70313,0 1.46875,-0.28125 0.78125,-0.29687 1.42188,-0.90625 0.65625,-0.60937 1.07812,-1.54687 0.42188,-0.95313 0.42188,-2.26563 v -0.76562 q -0.375,-0.46875 -0.89063,-0.89063 -0.5,-0.4375 -1.09375,-0.76562 -0.57812,-0.32813 -1.21875,-0.51563 Q 361.65625,235.15625 361,235.15625 Z M 404.125,229 h -4.65625 v 5.76562 h -7.82813 q -1.15625,0 -1.60937,0.32813 -0.4375,0.32812 -0.4375,1.0625 0,0.375 0.0937,0.78125 0.0937,0.40625 0.34375,0.76562 0.25,0.34375 0.67187,0.57813 0.4375,0.21875 1.10938,0.21875 h 4.42187 q 1.375,0 2.3125,0.375 0.95313,0.375 1.51563,1.03125 0.57812,0.65625 0.82812,1.54687 0.25,0.89063 0.25,1.90625 0,1.39063 -0.46875,2.65625 -0.45312,1.26563 -1.35937,2.23438 -0.90625,0.96875 -2.26563,1.54687 -1.34375,0.57813 -3.14062,0.57813 -1.95313,0 -3.75,-0.71875 -1.78125,-0.73438 -3.28125,-2.03125 -1.48438,-1.29688 -2.625,-3.07813 -1.125,-1.78125 -1.76563,-3.90625 l 2.17188,-0.85937 q 0.54687,1.60937 1.45312,3.09375 0.90625,1.48437 2.09375,2.625 1.20313,1.14062 2.64063,1.82812 Q 392.28125,248 393.875,248 q 1.125,0 2,-0.32813 0.89062,-0.32812 1.51562,-0.9375 0.625,-0.60937 0.95313,-1.45312 0.32812,-0.85938 0.32812,-1.92188 0,-0.75 -0.17187,-1.21875 -0.17188,-0.48437 -0.54688,-0.75 -0.35937,-0.26562 -0.92187,-0.35937 -0.5625,-0.10938 -1.34375,-0.10938 h -4.09375 q -1.15625,0 -2,-0.5 -0.84375,-0.5 -1.40625,-1.26562 -0.54688,-0.76563 -0.8125,-1.6875 -0.26563,-0.9375 -0.26563,-1.79688 0,-0.92187 0.29688,-1.53125 0.29687,-0.625 0.8125,-0.98437 0.51562,-0.375 1.21875,-0.53125 0.71875,-0.15625 1.54687,-0.15625 h 5.92188 V 229 h -16.76563 v -2.29688 H 404.125 Z m -4.875,-1.85938 h -2.26563 l -1.42187,-2.67187 q -0.90625,-1.70313 -1.64063,-2.70313 -0.75,-1 -1.40625,-1.51562 -0.67187,-0.53125 -1.3125,-0.67188 -0.64062,-0.15625 -1.34375,-0.15625 h -3.03125 v -2.53125 h 2.85938 q 0.90625,0 1.64062,0.15625 0.73438,0.14063 1.40625,0.53125 0.65625,0.375 1.29688,1.0625 0.625,0.67188 1.34375,1.75 0.71875,1.0625 1.57812,2.5625 0.84375,1.48438 1.9375,3.51563 z M 425.76562,229 h -3.28125 v 21 h -2.59375 v -6.57813 l -0.0625,-0.0469 q -0.85937,0.78125 -1.6875,1.23437 -0.8125,0.4375 -1.53125,0.67188 -0.70312,0.21875 -1.28125,0.28125 -0.57812,0.0625 -0.95312,0.0625 -1.4375,0 -2.54688,-0.45313 -1.10937,-0.45312 -1.85937,-1.1875 -0.75,-0.75 -1.14063,-1.70312 -0.39062,-0.96875 -0.39062,-2 0,-1.07813 0.4375,-2.14063 0.45312,-1.0625 1.40625,-1.90625 l -0.0156,-0.0625 H 405.3125 V 233.875 h 12.5625 v 2.29687 h -1.60938 q -1.60937,0 -2.64062,0.42188 -1.03125,0.42187 -1.625,1.03125 -0.59375,0.60937 -0.82813,1.3125 -0.21875,0.6875 -0.21875,1.25 0,0.46875 0.15625,1.01562 0.15625,0.53125 0.51563,0.98438 0.375,0.45312 0.98437,0.75 0.625,0.29687 1.5625,0.29687 0.98438,0 1.82813,-0.3125 0.85937,-0.32812 1.57812,-0.84375 0.71875,-0.51562 1.29688,-1.15625 0.59375,-0.65625 1.01562,-1.29687 V 229 h -16.85937 v -2.29688 h 22.73437 z m 9.39063,21 h -2.5625 v -23.29688 h 2.5625 z"
         id="path7" />
    </g>
  </g>
</svg>
