<?xml version="1.0" encoding="UTF-8" standalone="no"?>
<svg
   width="800"
   height="600"
   version="1.1"
   id="svg4"
   sodipodi:docname="shivay_water.svg"
   xmlns:inkscape="http://www.inkscape.org/namespaces/inkscape"
   xmlns:sodipodi="http://sodipodi.sourceforge.net/DTD/sodipodi-0.dtd"
   xmlns="http://www.w3.org/2000/svg"
   xmlns:svg="http://www.w3.org/2000/svg">
  <sodipodi:namedview
     id="namedview4"
     pagecolor="#ffffff"
     bordercolor="#666666"
     borderopacity="1.0"
     inkscape:showpageshadow="2"
     inkscape:pageopacity="0.0"
     inkscape:pagecheckerboard="0"
     inkscape:deskcolor="#d1d1d1" />
  <defs
     id="defs1">
    <style
       type="text/css"
       id="style1">
      @font-face {{
        font-family: 'Kalam';
        src: url('AxiDraw_API(1)/Kalam-Regular.ttf');
      }}
    </style>
  </defs>
  <g
     id="g4">
    <g
       id="text4"
       style="font-size:32px;font-family:Kalam"
       aria-label="शिव शंकर तुज ध्यावया,पाण्याचा प्रवाह वाहवया.शुद्धता दे ती पावन,आनंदाचा सागर दावन.">
      <path
         d="m 58.859375,79 h -3.28125 v 21 h -2.5625 V 79 h -3.5625 v -2.296875 h 3.5625 q -0.859375,-2.0625 -0.859375,-3.84375 0,-1.140625 0.375,-2.125 0.375,-0.984375 1.140625,-1.703125 0.78125,-0.71875 1.984375,-1.125 Q 56.859375,67.5 58.515625,67.5 q 2.171875,0 4.171875,0.703125 2.015625,0.703125 3.9375,1.953125 1.921875,1.25 3.796875,2.96875 1.890625,1.71875 3.8125,3.75 h -2.71875 q -0.4375,-0.421875 -1.171875,-1.09375 -0.71875,-0.6875 -1.671875,-1.453125 -0.953125,-0.78125 -2.109375,-1.5625 -1.15625,-0.796875 -2.4375,-1.4375 -1.28125,-0.640625 -2.671875,-1.03125 -1.375,-0.40625 -2.78125,-0.40625 -1.140625,0 -1.921875,0.265625 -0.765625,0.265625 -1.25,0.734375 Q 55.03125,71.359375 54.828125,72 54.625,72.625 54.625,73.34375 q 0,1.40625 0.765625,3.359375 h 3.46875 z m 9.59375,8.5 q -0.28125,0.03125 -0.53125,0.0625 -0.25,0.01563 -0.515625,0.01563 -1.265625,0 -2.296875,-0.453125 -1.015625,-0.453125 -1.75,-1.21875 -0.71875,-0.765625 -1.109375,-1.765625 -0.390625,-1.015625 -0.390625,-2.125 0,-0.796875 0.21875,-1.546875 0.21875,-0.75 0.6875,-1.40625 L 62.75,79 h -4.984375 v -2.296875 h 26.125 V 79 h -3.28125 v 21 h -2.5625 V 79 H 72.15625 l -0.01563,0.0625 q 0.40625,0.40625 0.75,0.984375 0.34375,0.5625 0.578125,1.234375 0.25,0.671875 0.390625,1.40625 Q 74,83.421875 74,84.171875 q 0,1.21875 -0.390625,2.359375 -0.375,1.140625 -1.078125,2.15625 -0.6875,1.015625 -1.671875,1.890625 -0.96875,0.859375 -2.15625,1.53125 v 0.0625 q 0.78125,0.609375 1.671875,1.46875 0.890625,0.84375 1.765625,1.765625 0.875,0.921875 1.65625,1.84375 0.78125,0.90625 1.34375,1.65625 L 73.375,100.39063 q -0.484375,-0.60938 -1.21875,-1.48438 -0.734375,-0.890625 -1.640625,-1.84375 -0.90625,-0.96875 -1.96875,-1.921875 -1.046875,-0.96875 -2.1875,-1.75 -0.5625,0.265625 -1.1875,0.390625 -0.609375,0.125 -1.21875,0.125 -0.703125,0 -1.359375,-0.171875 -0.640625,-0.171875 -1.15625,-0.5 -0.5,-0.328125 -0.796875,-0.796875 -0.296875,-0.484375 -0.296875,-1.109375 0,-0.984375 0.71875,-1.515625 0.734375,-0.546875 1.90625,-0.546875 0.859375,0 1.734375,0.3125 0.890625,0.296875 1.734375,0.90625 0.4375,-0.09375 0.984375,-0.328125 0.546875,-0.25 1.109375,-0.625 0.578125,-0.390625 1.109375,-0.90625 0.546875,-0.53125 0.96875,-1.203125 0.421875,-0.671875 0.671875,-1.46875 0.265625,-0.8125 0.265625,-1.75 0,-0.9375 -0.28125,-1.84375 Q 71,81.453125 70.46875,80.75 69.9375,80.03125 69.140625,79.59375 q -0.796875,-0.4375 -1.84375,-0.4375 -0.828125,0 -1.375,0.265625 -0.546875,0.25 -0.890625,0.65625 -0.34375,0.40625 -0.484375,0.90625 -0.140625,0.484375 -0.140625,0.953125 0,0.609375 0.21875,1.203125 0.21875,0.578125 0.640625,1.046875 0.4375,0.453125 1.078125,0.734375 0.640625,0.28125 1.46875,0.28125 0.265625,0 0.640625,-0.04687 z M 102.70313,79 h -3.281255 v 21 h -2.5625 v -5.578125 l -0.0625,-0.01563 q -0.3125,0.296875 -0.734375,0.625 -0.421875,0.3125 -0.96875,0.578125 -0.546875,0.25 -1.234375,0.421875 -0.671875,0.171875 -1.515625,0.171875 -1.546875,0 -2.828125,-0.59375 -1.265625,-0.59375 -2.1875,-1.578125 -0.921875,-1 -1.4375,-2.28125 -0.5,-1.296875 -0.5,-2.703125 0,-1.40625 0.5,-2.609375 0.515625,-1.21875 1.40625,-2.109375 Q 88.1875,83.4375 89.375,82.9375 q 1.1875,-0.515625 2.546875,-0.515625 0.375,0 0.9375,0.0625 0.578125,0.0625 1.234375,0.28125 0.65625,0.21875 1.359375,0.640625 0.703125,0.40625 1.34375,1.109375 L 96.859375,84.5 V 79 h -14.0625 v -2.296875 h 19.906255 z m -5.781255,8.421875 q -0.984375,-1.1875 -2.140625,-1.90625 -1.15625,-0.734375 -2.625,-0.734375 -1.15625,0 -1.96875,0.4375 -0.796875,0.4375 -1.3125,1.109375 -0.515625,0.65625 -0.75,1.46875 -0.234375,0.8125 -0.234375,1.5625 0,0.8125 0.265625,1.609375 0.265625,0.796875 0.78125,1.4375 0.53125,0.625 1.3125,1.03125 0.78125,0.390625 1.828125,0.390625 1.078125,0 1.96875,-0.40625 Q 94.9375,93 95.578125,92.359375 96.21875,91.71875 96.5625,90.921875 96.921875,90.125 96.921875,89.375 Z M 121.0625,87.5 q -0.28125,0.03125 -0.53125,0.0625 -0.25,0.01563 -0.51562,0.01563 -1.26563,0 -2.29688,-0.453125 -1.01562,-0.453125 -1.75,-1.21875 -0.71875,-0.765625 -1.10937,-1.765625 -0.39063,-1.015625 -0.39063,-2.125 0,-0.796875 0.21875,-1.546875 0.21875,-0.75 0.6875,-1.40625 L 115.35938,79 H 110.375 V 76.703125 H 136.5 V 79 h -3.28125 v 21 h -2.5625 V 79 h -5.89062 l -0.0156,0.0625 q 0.40625,0.40625 0.75,0.984375 0.34375,0.5625 0.57813,1.234375 0.25,0.671875 0.39062,1.40625 0.14063,0.734375 0.14063,1.484375 0,1.21875 -0.39063,2.359375 -0.375,1.140625 -1.07812,2.15625 -0.6875,1.015625 -1.67188,1.890625 -0.96875,0.859375 -2.15625,1.53125 v 0.0625 q 0.78125,0.609375 1.67188,1.46875 0.89062,0.84375 1.76562,1.765625 0.875,0.921875 1.65625,1.84375 0.78125,0.90625 1.34375,1.65625 l -1.76562,1.48438 Q 125.5,99.78125 124.76563,98.90625 124.03125,98.015625 123.125,97.0625 q -0.90625,-0.96875 -1.96875,-1.921875 -1.04687,-0.96875 -2.1875,-1.75 -0.5625,0.265625 -1.1875,0.390625 -0.60937,0.125 -1.21875,0.125 -0.70312,0 -1.35937,-0.171875 -0.64063,-0.171875 -1.15625,-0.5 -0.5,-0.328125 -0.79688,-0.796875 -0.29687,-0.484375 -0.29687,-1.109375 0,-0.984375 0.71875,-1.515625 0.73437,-0.546875 1.90625,-0.546875 0.85937,0 1.73437,0.3125 0.89063,0.296875 1.73438,0.90625 0.4375,-0.09375 0.98437,-0.328125 0.54688,-0.25 1.10938,-0.625 0.57812,-0.390625 1.10937,-0.90625 0.54688,-0.53125 0.96875,-1.203125 0.42188,-0.671875 0.67188,-1.46875 0.26562,-0.8125 0.26562,-1.75 0,-0.9375 -0.28125,-1.84375 -0.26562,-0.90625 -0.79687,-1.609375 -0.53125,-0.71875 -1.32813,-1.15625 -0.79687,-0.4375 -1.84375,-0.4375 -0.82812,0 -1.375,0.265625 -0.54687,0.25 -0.89062,0.65625 -0.34375,0.40625 -0.48438,0.90625 -0.14062,0.484375 -0.14062,0.953125 0,0.609375 0.21875,1.203125 0.21875,0.578125 0.64062,1.046875 0.4375,0.453125 1.07813,0.734375 0.64062,0.28125 1.46875,0.28125 0.26562,0 0.64062,-0.04687 z m 8.95312,-15.5625 q 0,-0.890625 0.53125,-1.4375 0.51563,-0.5625 1.35938,-0.5625 0.39062,0 0.75,0.15625 0.34375,0.15625 0.60937,0.4375 0.26563,0.265625 0.42188,0.640625 0.14062,0.359375 0.14062,0.796875 0,0.890625 -0.51562,1.4375 -0.53125,0.546875 -1.375,0.546875 -0.40625,0 -0.75,-0.140625 -0.35938,-0.15625 -0.60938,-0.421875 -0.26562,-0.28125 -0.40625,-0.640625 -0.15625,-0.375 -0.15625,-0.8125 z M 164.125,79 h -13.20313 v 6.15625 L 151,85.1875 q 0.79687,-1.09375 1.98437,-1.75 1.1875,-0.671875 2.60938,-0.671875 1.125,0 2.07812,0.46875 0.96875,0.453125 1.67188,1.265625 0.70312,0.796875 1.09375,1.890625 0.40625,1.09375 0.40625,2.359375 0,1.4375 -0.5,2.65625 -0.5,1.203125 -1.28125,2.1875 -0.78125,0.984375 -1.76563,1.75 -0.98437,0.75 -1.9375,1.28125 l -1.39062,-2.40625 q 0.3125,-0.171875 0.76562,-0.453125 0.45313,-0.28125 0.9375,-0.65625 0.5,-0.375 0.96875,-0.84375 Q 157.125,91.78125 157.5,91.21875 157.89062,90.65625 158.125,90 q 0.23437,-0.65625 0.23437,-1.390625 0,-0.671875 -0.21875,-1.28125 -0.20312,-0.609375 -0.57812,-1.0625 -0.375,-0.453125 -0.90625,-0.71875 -0.51563,-0.265625 -1.14063,-0.265625 -0.8125,0 -1.57812,0.421875 -0.76563,0.421875 -1.39063,1.0625 -0.625,0.625 -1.0625,1.34375 -0.42187,0.71875 -0.5625,1.328125 V 100 h -2.5625 v -5.984375 l -0.0625,-0.03125 q -0.23437,0.203125 -0.59375,0.5 -0.35937,0.28125 -0.875,0.546875 -0.5,0.265625 -1.17187,0.453125 -0.65625,0.1875 -1.48438,0.1875 -1.375,0 -2.54687,-0.53125 -1.15625,-0.53125 -2.01563,-1.4375 -0.84375,-0.921875 -1.32812,-2.15625 -0.48438,-1.234375 -0.48438,-2.640625 0,-1.34375 0.4375,-2.484375 0.45313,-1.140625 1.21875,-1.953125 0.78125,-0.828125 1.8125,-1.28125 1.04688,-0.46875 2.25,-0.46875 0.84375,0 1.5625,0.21875 0.73438,0.203125 1.32813,0.515625 0.60937,0.296875 1.07812,0.65625 0.48438,0.34375 0.8125,0.625 l 0.0625,-0.01563 V 79 H 135.40625 V 76.703125 H 164.125 Z m -20.23438,6.15625 q -0.89062,0 -1.57812,0.375 -0.67188,0.359375 -1.125,0.9375 -0.45313,0.5625 -0.6875,1.28125 -0.21875,0.703125 -0.21875,1.390625 0,0.75 0.26562,1.5 0.26563,0.734375 0.75,1.328125 0.5,0.59375 1.1875,0.96875 0.6875,0.359375 1.51563,0.359375 0.70312,0 1.46875,-0.28125 0.78125,-0.296875 1.42187,-0.90625 0.65625,-0.609375 1.07813,-1.546875 0.42187,-0.953125 0.42187,-2.265625 V 87.53125 Q 148.01562,87.0625 147.5,86.640625 147,86.203125 146.40625,85.875 145.82812,85.546875 145.1875,85.359375 144.54687,85.15625 143.89062,85.15625 Z M 179.76562,79 H 173.875 q 0.79687,1.375 1.28125,2.8125 0.5,1.421875 0.5,2.890625 0,1.109375 -0.34375,2.140625 -0.32813,1.015625 -0.98438,1.828125 -0.64062,0.796875 -1.60937,1.3125 -0.95313,0.5 -2.20313,0.5625 l -0.0312,0.07813 q 1.40625,2.1875 3.15625,4.140625 1.75,1.9375 4.04688,3.6875 l -1.67188,1.921875 q -1.32812,-0.984375 -2.53125,-2.125 -1.1875,-1.15625 -2.25,-2.375 -1.0625,-1.234375 -1.98437,-2.484375 -0.90625,-1.265625 -1.67188,-2.453125 -0.75,-1.203125 -1.34375,-2.296875 -0.59375,-1.109375 -1.01562,-2.015625 l 2.14062,-1.15625 q 0.5625,1.21875 1.26563,1.921875 0.71875,0.6875 1.65625,0.6875 0.67187,0 1.20312,-0.34375 0.53125,-0.34375 0.89063,-0.875 0.35937,-0.546875 0.54687,-1.1875 0.1875,-0.65625 0.1875,-1.28125 0,-0.734375 -0.1875,-1.4375 -0.1875,-0.71875 -0.48437,-1.390625 -0.29688,-0.6875 -0.67188,-1.328125 Q 171.40625,79.59375 171.0625,79 h -8.03125 v -2.296875 h 16.73437 z m 28.34375,0 h -3.28125 v 21 h -2.54687 V 86.28125 h -5.07813 q -1.04687,0 -1.89062,0.140625 -0.84375,0.125 -1.4375,0.53125 -0.59375,0.390625 -0.92188,1.109375 -0.3125,0.703125 -0.3125,1.859375 0,1.5 0.48438,2.765625 0.5,1.265625 1.26562,2.328125 0.76563,1.046875 1.6875,1.9375 0.9375,0.890625 1.79688,1.640625 l -1.5625,1.78125 q -0.14063,-0.0781 -0.67188,-0.453125 -0.51562,-0.390625 -1.21875,-1.046875 -0.6875,-0.65625 -1.46875,-1.59375 -0.76562,-0.9375 -1.42187,-2.109375 -0.64063,-1.1875 -1.07813,-2.609375 -0.42187,-1.421875 -0.42187,-3.0625 0,-1.625 0.45312,-2.6875 0.46875,-1.078125 1.3125,-1.703125 0.84375,-0.640625 2.04688,-0.890625 1.20312,-0.25 2.6875,-0.25 h 5.75 V 79 H 187.4375 v -2.296875 h 20.67187 z m -8.90625,21.46875 q 1,-0.625 2.21875,-0.96875 1.20313,-0.34375 2.29688,-0.34375 0.95312,0 1.78125,0.28125 0.8125,0.265625 1.42187,0.78125 0.60938,0.53125 0.95313,1.28125 0.34375,0.75 0.34375,1.6875 0,1 -0.40625,1.875 -0.39063,0.875 -1.1875,1.53125 -0.79688,0.65625 -1.96875,1.03125 -1.17188,0.39063 -2.71875,0.39063 -1.76563,0 -3.15625,-0.48438 -1.40625,-0.46875 -2.51563,-1.20312 -1.10937,-0.71875 -1.95312,-1.59375 -0.84375,-0.875 -1.48438,-1.65625 l 1.45313,-1.70313 q 0.89062,0.96875 1.70312,1.75 0.8125,0.78125 1.6875,1.32813 0.875,0.5625 1.89063,0.85937 1,0.29688 2.26562,0.29688 1.07813,0 1.84375,-0.21875 0.75,-0.20313 1.23438,-0.54688 0.48437,-0.32812 0.70312,-0.76562 0.21875,-0.42188 0.21875,-0.85938 0,-0.79687 -0.59375,-1.26562 -0.60937,-0.46875 -1.64062,-0.46875 -0.67188,0 -1.54688,0.23437 -0.89062,0.23438 -1.79687,0.78125 z M 232.0625,79 h -3.28125 v 21 h -2.5625 V 86.4375 h -5.03125 l -0.0156,0.0625 q 0.1875,0.21875 0.5625,0.671875 0.375,0.4375 0.75,1.09375 0.375,0.640625 0.65625,1.46875 0.28125,0.8125 0.28125,1.765625 0,0.953125 -0.32812,1.890625 -0.3125,0.921875 -0.95313,1.671875 -0.625,0.734375 -1.59375,1.1875 -0.96875,0.453125 -2.25,0.453125 -1.26562,0 -2.32812,-0.4375 Q 214.92187,95.8125 214.04687,95.0625 213.1875,94.3125 212.5,93.328125 211.8125,92.34375 211.26562,91.25 q -0.53125,-1.109375 -0.9375,-2.234375 -0.39062,-1.140625 -0.67187,-2.171875 -0.28125,-1.046875 -0.45313,-1.921875 -0.17187,-0.875 -0.26562,-1.453125 l 2.3125,-0.453125 q 0.51562,2.8125 1.25,4.9375 0.75,2.109375 1.65625,3.53125 0.90625,1.421875 1.95312,2.140625 1.04688,0.703125 2.1875,0.703125 0.8125,0 1.3125,-0.3125 0.5,-0.328125 0.78125,-0.78125 0.28125,-0.46875 0.375,-0.953125 0.10938,-0.5 0.10938,-0.859375 0,-0.640625 -0.26563,-1.359375 -0.25,-0.734375 -0.75,-1.453125 -0.48437,-0.734375 -1.21875,-1.40625 -0.73437,-0.671875 -1.6875,-1.21875 V 84.15625 h 9.26563 V 79 h -19.20313 v -2.296875 h 25.04688 z m 15.84375,2.984375 q 0.17187,-0.25 0.3125,-0.625 0.15625,-0.390625 0.15625,-0.875 0,-0.4375 -0.15625,-0.765625 -0.15625,-0.328125 -0.40625,-0.53125 -0.23438,-0.203125 -0.54688,-0.296875 -0.3125,-0.109375 -0.625,-0.109375 -0.375,0 -0.75,0.15625 -0.35937,0.140625 -0.65625,0.46875 -0.28125,0.328125 -0.46875,0.84375 -0.1875,0.5 -0.1875,1.203125 0,0.765625 0.21875,1.453125 0.23438,0.671875 0.70313,1.1875 0.48437,0.5 1.20312,0.796875 0.73438,0.296875 1.75,0.296875 0.70313,0 1.29688,-0.109375 0.59375,-0.125 1.03125,-0.234375 l 0.42187,2.40625 q -0.25,0.03125 -0.67187,0.125 -0.42188,0.07813 -0.92188,0.265625 -0.48437,0.171875 -1,0.453125 -0.5,0.28125 -0.90625,0.703125 -0.40625,0.40625 -0.67187,0.96875 -0.25,0.5625 -0.25,1.3125 0,1.40625 0.875,2.203125 0.89062,0.78125 2.39062,0.78125 0.85938,0 1.65625,-0.265625 0.8125,-0.28125 1.51563,-0.78125 0.71875,-0.515625 1.32812,-1.203125 0.625,-0.703125 1.10938,-1.546875 L 256.25,93.21875 q -0.75,0.890625 -1.51563,1.515625 -0.76562,0.609375 -1.54687,1 -0.78125,0.375 -1.5625,0.546875 -0.78125,0.171875 -1.54688,0.171875 -1.25,0 -2.3125,-0.40625 -1.0625,-0.40625 -1.84375,-1.140625 -0.76562,-0.734375 -1.20312,-1.734375 -0.42188,-1.015625 -0.42188,-2.234375 0,-1.125 0.42188,-2.0625 0.4375,-0.9375 1.51562,-1.78125 l -0.0156,-0.0625 q -1.0625,-0.28125 -1.84375,-0.859375 -0.76563,-0.578125 -1.28125,-1.328125 -0.5,-0.75 -0.75,-1.625 -0.25,-0.890625 -0.25,-1.78125 0,-1.09375 0.34375,-2.015625 0.35937,-0.921875 0.98437,-1.59375 0.64063,-0.671875 1.5,-1.046875 0.85938,-0.390625 1.89063,-0.390625 1.07812,0 1.84375,0.375 0.78125,0.375 1.26562,0.953125 0.5,0.578125 0.73438,1.28125 0.23437,0.6875 0.23437,1.3125 0,0.4375 -0.0937,0.859375 -0.0937,0.421875 -0.23437,0.796875 -0.14063,0.375 -0.3125,0.6875 -0.15625,0.3125 -0.29688,0.53125 z M 271.84375,79 h -3.28125 v 21 H 266 v -7.3125 l -0.0625,-0.01563 q -0.42188,0.34375 -1.01563,0.6875 -0.57812,0.328125 -1.29687,0.59375 -0.71875,0.25 -1.54688,0.421875 -0.82812,0.15625 -1.73437,0.15625 -1.8125,0 -3.10938,-0.65625 -1.28125,-0.65625 -2.15625,-1.75 -0.85937,-1.109375 -1.35937,-2.515625 -0.5,-1.421875 -0.71875,-2.953125 1.03125,-0.140625 1.76562,-0.484375 0.73438,-0.34375 1.1875,-0.8125 0.45313,-0.484375 0.65625,-1.046875 0.21875,-0.5625 0.21875,-1.125 0,-0.375 -0.0781,-0.84375 -0.0625,-0.46875 -0.23438,-1 -0.17187,-0.546875 -0.45312,-1.140625 Q 255.78125,79.609375 255.35937,79 h -2.79687 v -2.296875 h 19.28125 z M 258.125,79 q 0.5625,0.953125 0.875,2.09375 0.32812,1.125 0.32812,2.21875 0,0.796875 -0.21875,1.546875 -0.20312,0.75 -0.64062,1.40625 -0.4375,0.640625 -1.09375,1.15625 -0.64063,0.5 -1.5,0.796875 0.25,1.046875 0.6875,1.796875 0.4375,0.734375 1.03125,1.21875 0.59375,0.46875 1.32812,0.6875 0.73438,0.21875 1.57813,0.21875 0.8125,0 1.59375,-0.1875 0.79687,-0.1875 1.5,-0.53125 0.71875,-0.359375 1.32812,-0.859375 0.60938,-0.5 1.07813,-1.125 V 79 Z m 22.03125,0 H 276.875 v 21 h -2.5625 V 79 H 270.75 v -2.296875 h 9.40625 z m 18.8125,0 h -3.28125 v 21 h -2.5625 v -5.578125 l -0.0625,-0.01563 q -0.3125,0.296875 -0.73438,0.625 -0.42187,0.3125 -0.96875,0.578125 -0.54687,0.25 -1.23437,0.421875 -0.67188,0.171875 -1.51563,0.171875 -1.54687,0 -2.82812,-0.59375 -1.26563,-0.59375 -2.1875,-1.578125 -0.92188,-1 -1.4375,-2.28125 -0.5,-1.296875 -0.5,-2.703125 0,-1.40625 0.5,-2.609375 0.51562,-1.21875 1.40625,-2.109375 0.89062,-0.890625 2.07812,-1.390625 1.1875,-0.515625 2.54688,-0.515625 0.375,0 0.9375,0.0625 0.57812,0.0625 1.23437,0.28125 0.65625,0.21875 1.35938,0.640625 0.70312,0.40625 1.34375,1.109375 L 293.125,84.5 V 79 h -14.0625 v -2.296875 h 19.90625 z m -5.78125,8.421875 q -0.98438,-1.1875 -2.14063,-1.90625 -1.15625,-0.734375 -2.625,-0.734375 -1.15625,0 -1.96875,0.4375 -0.79687,0.4375 -1.3125,1.109375 -0.51562,0.65625 -0.75,1.46875 -0.23437,0.8125 -0.23437,1.5625 0,0.8125 0.26562,1.609375 0.26563,0.796875 0.78125,1.4375 0.53125,0.625 1.3125,1.03125 0.78125,0.390625 1.82813,0.390625 1.07812,0 1.96875,-0.40625 0.89062,-0.421875 1.53125,-1.0625 0.64062,-0.640625 0.98437,-1.4375 Q 293.1875,90.125 293.1875,89.375 Z M 318.875,79 h -3.28125 v 21 h -2.5625 v -7.3125 l -0.0625,-0.01563 q -0.42188,0.34375 -1.01563,0.6875 -0.57812,0.328125 -1.29687,0.59375 -0.71875,0.25 -1.54688,0.421875 -0.82812,0.15625 -1.73437,0.15625 -1.8125,0 -3.10938,-0.65625 -1.28125,-0.65625 -2.15625,-1.75 -0.85937,-1.109375 -1.35937,-2.515625 -0.5,-1.421875 -0.71875,-2.953125 1.03125,-0.140625 1.76562,-0.484375 0.73438,-0.34375 1.1875,-0.8125 0.45313,-0.484375 0.65625,-1.046875 0.21875,-0.5625 0.21875,-1.125 0,-0.375 -0.0781,-0.84375 -0.0625,-0.46875 -0.23438,-1 Q 303.375,80.796875 303.09375,80.203125 302.8125,79.609375 302.39062,79 H 297.875 v -2.296875 h 21 z m -13.71875,0 q 0.5625,0.953125 0.875,2.09375 0.32812,1.125 0.32812,2.21875 0,0.796875 -0.21875,1.546875 -0.20312,0.75 -0.64062,1.40625 -0.4375,0.640625 -1.09375,1.15625 -0.64063,0.5 -1.5,0.796875 0.25,1.046875 0.6875,1.796875 0.4375,0.734375 1.03125,1.21875 0.59375,0.46875 1.32812,0.6875 0.73438,0.21875 1.57813,0.21875 0.8125,0 1.59375,-0.1875 0.79687,-0.1875 1.5,-0.53125 0.71875,-0.359375 1.32812,-0.859375 0.60938,-0.5 1.07813,-1.125 V 79 Z m 22.03125,0 h -3.28125 v 21 h -2.5625 V 79 h -3.5625 v -2.296875 h 9.40625 z m 4.39062,17.4375 -2.5,7.6875 H 327.25 l 1.82812,-7.6875 z"
         id="path4" />
      <path
         d="m 69.8125,129 h -3.28125 v 21 h -2.578125 v -7.46875 l -0.0625,-0.0156 q -1.046875,0.9375 -2.34375,1.34375 -1.296875,0.39063 -2.5625,0.39063 -1.34375,0 -2.453125,-0.39063 -1.109375,-0.39062 -1.90625,-1.1875 -0.796875,-0.8125 -1.25,-2.03125 -0.4375,-1.23437 -0.4375,-2.92187 V 129 h -3.484375 v -2.29687 H 69.8125 Z m -5.859375,0 H 55.46875 v 8.57812 q 0,0.98438 0.15625,1.76563 0.171875,0.78125 0.5625,1.32812 0.40625,0.54688 1.0625,0.84375 0.65625,0.28125 1.640625,0.28125 1.609375,0 2.90625,-0.75 1.296875,-0.76562 2.15625,-2 z M 78.125,129 h -3.28125 v 21 h -2.5625 v -21 h -3.5625 v -2.29687 H 78.125 Z m 17.5625,0 H 92.125 v 9.67187 q 0,1.625 -0.453125,2.79688 -0.4375,1.17187 -1.21875,1.9375 -0.765625,0.76562 -1.796875,1.14062 -1.03125,0.35938 -2.21875,0.35938 -1.328125,0 -2.40625,-0.42188 -1.0625,-0.42187 -1.8125,-1.25 -0.75,-0.82812 -1.15625,-2.04687 -0.40625,-1.23438 -0.40625,-2.82813 V 129 h -3.625 v -2.29687 H 95.6875 Z M 83.25,129 v 9.84375 q 0,0.71875 0.15625,1.39062 0.171875,0.65625 0.53125,1.17188 0.375,0.51562 0.96875,0.82812 0.609375,0.3125 1.484375,0.3125 0.890625,0 1.484375,-0.3125 0.609375,-0.3125 0.984375,-0.82812 0.375,-0.51563 0.53125,-1.17188 0.171875,-0.67187 0.171875,-1.39062 V 129 Z m 30.40625,0 H 110.375 v 21 h -2.5625 v -7.3125 l -0.0625,-0.0156 q -0.42187,0.34375 -1.01562,0.6875 -0.57813,0.32813 -1.29688,0.59375 -0.71875,0.25 -1.54687,0.42188 -0.82813,0.15625 -1.73438,0.15625 -1.8125,0 -3.109375,-0.65625 -1.28125,-0.65625 -2.15625,-1.75 -0.859375,-1.10938 -1.359375,-2.51563 -0.5,-1.42187 -0.71875,-2.95312 1.03125,-0.14063 1.765625,-0.48438 0.734375,-0.34375 1.1875,-0.8125 0.453125,-0.48437 0.65625,-1.04687 0.21875,-0.5625 0.21875,-1.125 0,-0.375 -0.07813,-0.84375 -0.0625,-0.46875 -0.234375,-1 Q 98.15625,130.79687 97.875,130.20312 97.59375,129.60937 97.171875,129 H 92.65625 v -2.29687 h 21 z m -13.71875,0 q 0.5625,0.95312 0.875,2.09375 0.32813,1.125 0.32813,2.21875 0,0.79687 -0.21875,1.54687 -0.20313,0.75 -0.64063,1.40625 -0.4375,0.64063 -1.09375,1.15625 -0.640625,0.5 -1.5,0.79688 0.25,1.04687 0.6875,1.79687 0.4375,0.73438 1.03125,1.21875 0.59375,0.46875 1.32813,0.6875 0.73437,0.21875 1.57812,0.21875 0.8125,0 1.59375,-0.1875 0.79688,-0.1875 1.5,-0.53125 0.71875,-0.35937 1.32813,-0.85937 0.60937,-0.5 1.07812,-1.125 V 129 Z m 22.03125,0 h -3.28125 v 21 h -2.5625 v -21 h -3.5625 v -2.29687 h 9.40625 z m 21.64062,0 h -3.28125 v 21 h -2.59375 v -6.57813 l -0.0625,-0.0469 q -0.85937,0.78125 -1.6875,1.23437 -0.8125,0.4375 -1.53125,0.67188 -0.70312,0.21875 -1.28125,0.28125 -0.57812,0.0625 -0.95312,0.0625 -1.4375,0 -2.54688,-0.45313 -1.10937,-0.45312 -1.85937,-1.1875 -0.75,-0.75 -1.14062,-1.70312 -0.39063,-0.96875 -0.39063,-2 0,-1.07813 0.4375,-2.14063 0.45313,-1.0625 1.40625,-1.90625 l -0.0156,-0.0625 h -4.95312 V 133.875 h 12.5625 v 2.29687 h -1.60938 q -1.60937,0 -2.64062,0.42188 -1.03125,0.42187 -1.625,1.03125 -0.59375,0.60937 -0.82813,1.3125 -0.21875,0.6875 -0.21875,1.25 0,0.46875 0.15625,1.01562 0.15625,0.53125 0.51563,0.98438 0.375,0.45312 0.98437,0.75 0.625,0.29687 1.5625,0.29687 0.98438,0 1.82813,-0.3125 0.85937,-0.32812 1.57812,-0.84375 0.71875,-0.51562 1.29688,-1.15625 0.59375,-0.65625 1.01562,-1.29687 V 129 H 120.875 v -2.29687 h 22.73437 z m 8.3125,0 h -3.28125 v 21 h -2.5625 v -21 h -3.5625 v -2.29687 h 9.40625 z m 28.03125,0 h -3.28125 v 21 h -2.57812 v -6.96875 l -0.0625,-0.0156 -9.53125,7.17188 -1.60938,-1.95313 5.54688,-3.98437 -0.0156,-0.0625 q -1.20312,-0.0937 -2.1875,-0.53125 -0.98437,-0.4375 -1.6875,-1.23438 -0.70312,-0.79687 -1.09375,-1.96875 -0.375,-1.17187 -0.375,-2.73437 V 129 h -3.48437 v -2.29687 h 20.35937 z m -5.85937,0 h -8.48438 v 8.57812 q 0,0.98438 0.15625,1.76563 0.17188,0.78125 0.5625,1.32812 0.40625,0.54688 1.0625,0.84375 0.65625,0.28125 1.64063,0.28125 1.60937,0 2.90625,-0.70312 1.29687,-0.71875 2.15625,-1.89063 z m 24.67187,0 h -3.28125 v 21 h -2.5625 v -5.57813 l -0.0625,-0.0156 q -0.3125,0.29687 -0.73437,0.625 -0.42188,0.3125 -0.96875,0.57812 -0.54688,0.25 -1.23438,0.42188 -0.67187,0.17187 -1.51562,0.17187 -1.54688,0 -2.82813,-0.59375 -1.26562,-0.59375 -2.1875,-1.57812 -0.92187,-1 -1.4375,-2.28125 -0.5,-1.29688 -0.5,-2.70313 0,-1.40625 0.5,-2.60937 0.51563,-1.21875 1.40625,-2.10938 0.89063,-0.89062 2.07813,-1.39062 1.1875,-0.51563 2.54687,-0.51563 0.375,0 0.9375,0.0625 0.57813,0.0625 1.23438,0.28125 0.65625,0.21875 1.35937,0.64063 0.70313,0.40625 1.34375,1.10937 l 0.0625,-0.0156 V 129 h -14.0625 v -2.29687 h 19.90625 z m -5.78125,8.42187 q -0.98437,-1.1875 -2.14062,-1.90625 -1.15625,-0.73437 -2.625,-0.73437 -1.15625,0 -1.96875,0.4375 -0.79688,0.4375 -1.3125,1.10937 -0.51563,0.65625 -0.75,1.46875 -0.23438,0.8125 -0.23438,1.5625 0,0.8125 0.26563,1.60938 0.26562,0.79687 0.78125,1.4375 0.53125,0.625 1.3125,1.03125 0.78125,0.39062 1.82812,0.39062 1.07813,0 1.96875,-0.40625 Q 191,143 191.64062,142.35937 q 0.64063,-0.64062 0.98438,-1.4375 0.35937,-0.79687 0.35937,-1.54687 z M 207.07812,129 h -3.28125 v 21 h -2.5625 v -21 h -3.5625 v -2.29687 h 9.40625 z m 10.90625,16.59375 Q 218.5,145.4375 219,145.20312 q 0.51562,-0.23437 0.90625,-0.5625 0.40625,-0.34375 0.65625,-0.79687 0.25,-0.45313 0.25,-1.0625 0,-1.29688 -1.07813,-2.01563 -1.07812,-0.73437 -3.0625,-0.73437 -0.79687,0 -1.64062,0.17187 -0.82813,0.15625 -1.51563,0.59375 -0.6875,0.42188 -1.125,1.17188 -0.4375,0.73437 -0.4375,1.875 0,1.15625 0.45313,2.15625 0.45312,0.98437 1.17187,1.8125 0.73438,0.82812 1.64063,1.5 0.90625,0.67187 1.79687,1.1875 0.90625,0.51562 1.70313,0.85937 0.79687,0.35938 1.32812,0.5625 l -1.03125,2.15625 q -1.09375,-0.46875 -2.23437,-1.03125 -1.125,-0.54687 -2.1875,-1.21875 -1.0625,-0.65625 -2,-1.45312 -0.9375,-0.79688 -1.64063,-1.76563 -0.6875,-0.96875 -1.09375,-2.125 -0.39062,-1.15625 -0.39062,-2.51562 0,-1.32813 0.34375,-2.3125 0.35937,-1 0.98437,-1.75 -0.85937,-0.98438 -1.26562,-1.98438 -0.40625,-1 -0.40625,-2.17187 0,-0.67188 0.15625,-1.26563 0.17187,-0.59375 0.59375,-1.03125 0.4375,-0.45312 1.20312,-0.71875 0.76563,-0.26562 1.98438,-0.26562 h 7.07812 V 129 h -14.15625 v -2.29687 h 20.35938 V 129 h -3.64063 v 5.75 h -8.98437 q -0.60938,0 -1.03125,0.10937 -0.40625,0.0937 -0.65625,0.29688 -0.25,0.20312 -0.35938,0.51562 -0.0937,0.29688 -0.0937,0.70313 0,0.54687 0.1875,1.0625 0.1875,0.51562 0.70313,1.15625 0.90625,-0.46875 1.98437,-0.6875 1.09375,-0.23438 2.28125,-0.23438 1.375,0 2.5625,0.3125 1.20313,0.3125 2.07813,0.95313 0.89062,0.625 1.39062,1.60937 0.51563,0.96875 0.51563,2.28125 0,1.26563 -0.4375,2.14063 -0.42188,0.875 -1.07813,1.46875 -0.64062,0.59375 -1.40625,0.96875 -0.76562,0.35937 -1.42187,0.59375 z M 253.92187,129 h -3.28125 v 21 h -2.5625 v -5.57813 l -0.0625,-0.0156 q -0.3125,0.29687 -0.73437,0.625 -0.42188,0.3125 -0.96875,0.57812 -0.54688,0.25 -1.23438,0.42188 -0.67187,0.17187 -1.51562,0.17187 -1.54688,0 -2.82813,-0.59375 -1.26562,-0.59375 -2.1875,-1.57812 -0.92187,-1 -1.4375,-2.28125 -0.5,-1.29688 -0.5,-2.70313 0,-1.40625 0.5,-2.60937 0.51563,-1.21875 1.40625,-2.10938 0.89063,-0.89062 2.07813,-1.39062 1.1875,-0.51563 2.54687,-0.51563 0.375,0 0.9375,0.0625 0.57813,0.0625 1.23438,0.28125 0.65625,0.21875 1.35937,0.64063 0.70313,0.40625 1.34375,1.10937 l 0.0625,-0.0156 V 129 h -14.0625 v -2.29687 h 19.90625 z m -5.78125,8.42187 q -0.98437,-1.1875 -2.14062,-1.90625 -1.15625,-0.73437 -2.625,-0.73437 -1.15625,0 -1.96875,0.4375 -0.79688,0.4375 -1.3125,1.10937 -0.51563,0.65625 -0.75,1.46875 -0.23438,0.8125 -0.23438,1.5625 0,0.8125 0.26563,1.60938 0.26562,0.79687 0.78125,1.4375 0.53125,0.625 1.3125,1.03125 0.78125,0.39062 1.82812,0.39062 1.07813,0 1.96875,-0.40625 0.89063,-0.42187 1.53125,-1.0625 0.64063,-0.64062 0.98438,-1.4375 0.35937,-0.79687 0.35937,-1.54687 z M 262.23437,129 h -3.28125 v 21 h -2.5625 v -21 h -3.5625 v -2.29687 h 9.40625 z m 10.90625,16.59375 q 0.51563,-0.15625 1.01563,-0.39063 0.51562,-0.23437 0.90625,-0.5625 0.40625,-0.34375 0.65625,-0.79687 0.25,-0.45313 0.25,-1.0625 0,-1.29688 -1.07813,-2.01563 -1.07812,-0.73437 -3.0625,-0.73437 -0.79687,0 -1.64062,0.17187 -0.82813,0.15625 -1.51563,0.59375 -0.6875,0.42188 -1.125,1.17188 -0.4375,0.73437 -0.4375,1.875 0,1.15625 0.45313,2.15625 0.45312,0.98437 1.17187,1.8125 0.73438,0.82812 1.64063,1.5 0.90625,0.67187 1.79687,1.1875 0.90625,0.51562 1.70313,0.85937 0.79687,0.35938 1.32812,0.5625 l -1.03125,2.15625 q -1.09375,-0.46875 -2.23437,-1.03125 -1.125,-0.54687 -2.1875,-1.21875 -1.0625,-0.65625 -2,-1.45312 -0.9375,-0.79688 -1.64063,-1.76563 -0.6875,-0.96875 -1.09375,-2.125 -0.39062,-1.15625 -0.39062,-2.51562 0,-1.32813 0.34375,-2.3125 0.35937,-1 0.98437,-1.75 -0.85937,-0.98438 -1.26562,-1.98438 -0.40625,-1 -0.40625,-2.17187 0,-0.67188 0.15625,-1.26563 0.17187,-0.59375 0.59375,-1.03125 0.4375,-0.45312 1.20312,-0.71875 0.76563,-0.26562 1.98438,-0.26562 h 7.07812 V 129 h -14.15625 v -2.29687 H 281.5 V 129 h -3.64063 v 5.75 H 268.875 q -0.60938,0 -1.03125,0.10937 -0.40625,0.0937 -0.65625,0.29688 -0.25,0.20312 -0.35938,0.51562 -0.0937,0.29688 -0.0937,0.70313 0,0.54687 0.1875,1.0625 0.1875,0.51562 0.70313,1.15625 0.90625,-0.46875 1.98437,-0.6875 1.09375,-0.23438 2.28125,-0.23438 1.375,0 2.5625,0.3125 1.20313,0.3125 2.07813,0.95313 0.89062,0.625 1.39062,1.60937 0.51563,0.96875 0.51563,2.28125 0,1.26563 -0.4375,2.14063 -0.42188,0.875 -1.07813,1.46875 -0.64062,0.59375 -1.40625,0.96875 Q 274.75,147.76562 274.09375,148 Z M 300.3125,129 h -3.28125 v 21 h -2.5625 v -5.57813 l -0.0625,-0.0156 q -0.3125,0.29687 -0.73438,0.625 -0.42187,0.3125 -0.96875,0.57812 -0.54687,0.25 -1.23437,0.42188 -0.67188,0.17187 -1.51563,0.17187 -1.54687,0 -2.82812,-0.59375 -1.26563,-0.59375 -2.1875,-1.57812 -0.92188,-1 -1.4375,-2.28125 -0.5,-1.29688 -0.5,-2.70313 0,-1.40625 0.5,-2.60937 0.51562,-1.21875 1.40625,-2.10938 0.89062,-0.89062 2.07812,-1.39062 1.1875,-0.51563 2.54688,-0.51563 0.375,0 0.9375,0.0625 0.57812,0.0625 1.23437,0.28125 0.65625,0.21875 1.35938,0.64063 0.70312,0.40625 1.34375,1.10937 l 0.0625,-0.0156 V 129 h -14.0625 v -2.29687 h 19.90625 z m -5.78125,8.42187 q -0.98438,-1.1875 -2.14063,-1.90625 -1.15625,-0.73437 -2.625,-0.73437 -1.15625,0 -1.96875,0.4375 -0.79687,0.4375 -1.3125,1.10937 -0.51562,0.65625 -0.75,1.46875 -0.23437,0.8125 -0.23437,1.5625 0,0.8125 0.26562,1.60938 0.26563,0.79687 0.78125,1.4375 0.53125,0.625 1.3125,1.03125 0.78125,0.39062 1.82813,0.39062 1.07812,0 1.96875,-0.40625 0.89062,-0.42187 1.53125,-1.0625 0.64062,-0.64062 0.98437,-1.4375 0.35938,-0.79687 0.35938,-1.54687 z M 320.21875,129 h -3.28125 v 21 h -2.5625 v -7.3125 l -0.0625,-0.0156 q -0.42188,0.34375 -1.01563,0.6875 -0.57812,0.32813 -1.29687,0.59375 -0.71875,0.25 -1.54688,0.42188 -0.82812,0.15625 -1.73437,0.15625 -1.8125,0 -3.10938,-0.65625 -1.28125,-0.65625 -2.15625,-1.75 -0.85937,-1.10938 -1.35937,-2.51563 -0.5,-1.42187 -0.71875,-2.95312 1.03125,-0.14063 1.76562,-0.48438 0.73438,-0.34375 1.1875,-0.8125 0.45313,-0.48437 0.65625,-1.04687 0.21875,-0.5625 0.21875,-1.125 0,-0.375 -0.0781,-0.84375 -0.0625,-0.46875 -0.23438,-1 -0.17187,-0.54688 -0.45312,-1.14063 -0.28125,-0.59375 -0.70313,-1.20312 h -4.51562 v -2.29687 h 21 z M 306.5,129 q 0.5625,0.95312 0.875,2.09375 0.32812,1.125 0.32812,2.21875 0,0.79687 -0.21875,1.54687 -0.20312,0.75 -0.64062,1.40625 -0.4375,0.64063 -1.09375,1.15625 -0.64063,0.5 -1.5,0.79688 0.25,1.04687 0.6875,1.79687 0.4375,0.73438 1.03125,1.21875 0.59375,0.46875 1.32812,0.6875 0.73438,0.21875 1.57813,0.21875 0.8125,0 1.59375,-0.1875 0.79687,-0.1875 1.5,-0.53125 0.71875,-0.35937 1.32812,-0.85937 0.60938,-0.5 1.07813,-1.125 V 129 Z m 22.03125,0 H 325.25 v 21 h -2.5625 v -21 h -3.5625 v -2.29687 h 9.40625 z m 2.9375,21.34375 q -0.71875,0 -1.23438,-0.51563 -0.5,-0.51562 -0.5,-1.23437 0,-0.71875 0.5,-1.23438 0.51563,-0.53125 1.23438,-0.53125 0.73437,0 1.25,0.53125 0.51562,0.51563 0.51562,1.23438 0,0.71875 -0.51562,1.23437 -0.51563,0.51563 -1.25,0.51563 z"
         id="path5" />
      <path
         d="m 60.140625,187.5 q -0.28125,0.0312 -0.53125,0.0625 -0.25,0.0156 -0.515625,0.0156 -1.265625,0 -2.296875,-0.45312 -1.015625,-0.45313 -1.75,-1.21875 -0.71875,-0.76563 -1.109375,-1.76563 -0.390625,-1.01562 -0.390625,-2.125 0,-0.79687 0.21875,-1.54687 0.21875,-0.75 0.6875,-1.40625 L 54.4375,179 h -4.984375 v -2.29688 h 26.125 V 179 h -3.28125 v 21 h -2.5625 V 179 H 63.84375 l -0.01563,0.0625 q 0.40625,0.40625 0.75,0.98437 0.34375,0.5625 0.578125,1.23438 0.25,0.67187 0.390625,1.40625 0.140625,0.73437 0.140625,1.48437 0,1.21875 -0.390625,2.35938 -0.375,1.14062 -1.078125,2.15625 -0.6875,1.01562 -1.671875,1.89062 -0.96875,0.85938 -2.15625,1.53125 v 0.0625 q 0.78125,0.60938 1.671875,1.46875 0.890625,0.84375 1.765625,1.76563 0.875,0.92187 1.65625,1.84375 0.78125,0.90625 1.34375,1.65625 l -1.765625,1.48437 q -0.484375,-0.60937 -1.21875,-1.48437 -0.734375,-0.89063 -1.640625,-1.84375 -0.90625,-0.96875 -1.96875,-1.92188 -1.046875,-0.96875 -2.1875,-1.75 -0.5625,0.26563 -1.1875,0.39063 -0.609375,0.125 -1.21875,0.125 -0.703125,0 -1.359375,-0.17188 -0.640625,-0.17187 -1.15625,-0.5 -0.5,-0.32812 -0.796875,-0.79687 -0.296875,-0.48438 -0.296875,-1.10938 0,-0.98437 0.71875,-1.51562 0.734375,-0.54688 1.90625,-0.54688 0.859375,0 1.734375,0.3125 0.890625,0.29688 1.734375,0.90625 0.4375,-0.0937 0.984375,-0.32812 0.546875,-0.25 1.109375,-0.625 0.578125,-0.39063 1.109375,-0.90625 0.546875,-0.53125 0.96875,-1.20313 0.421875,-0.67187 0.671875,-1.46875 0.265625,-0.8125 0.265625,-1.75 0,-0.9375 -0.28125,-1.84375 -0.265625,-0.90625 -0.796875,-1.60937 -0.53125,-0.71875 -1.328125,-1.15625 -0.796875,-0.4375 -1.84375,-0.4375 -0.828125,0 -1.375,0.26562 -0.546875,0.25 -0.890625,0.65625 -0.34375,0.40625 -0.484375,0.90625 -0.140625,0.48438 -0.140625,0.95313 0,0.60937 0.21875,1.20312 0.21875,0.57813 0.640625,1.04688 0.4375,0.45312 1.078125,0.73437 0.640625,0.28125 1.46875,0.28125 0.265625,0 0.640625,-0.0469 z m 6.53125,12.96875 q 1,-0.625 2.21875,-0.96875 1.203125,-0.34375 2.296875,-0.34375 0.953125,0 1.78125,0.28125 0.8125,0.26562 1.421875,0.78125 Q 75,200.75 75.34375,201.5 q 0.34375,0.75 0.34375,1.6875 0,1 -0.40625,1.875 -0.390625,0.875 -1.1875,1.53125 -0.796875,0.65625 -1.96875,1.03125 -1.171875,0.39062 -2.71875,0.39062 -1.765625,0 -3.15625,-0.48437 -1.40625,-0.46875 -2.515625,-1.20313 -1.109375,-0.71875 -1.953125,-1.59375 -0.84375,-0.875 -1.484375,-1.65625 L 61.75,201.375 q 0.890625,0.96875 1.703125,1.75 0.8125,0.78125 1.6875,1.32812 0.875,0.5625 1.890625,0.85938 1,0.29687 2.265625,0.29687 1.078125,0 1.84375,-0.21875 0.75,-0.20312 1.234375,-0.54687 0.484375,-0.32813 0.703125,-0.76563 0.21875,-0.42187 0.21875,-0.85937 0,-0.79688 -0.59375,-1.26563 -0.609375,-0.46875 -1.640625,-0.46875 -0.671875,0 -1.546875,0.23438 Q 68.625,201.95312 67.71875,202.5 Z m 14.484375,-7.57813 q -0.04687,-0.75 -0.390625,-1.14062 -0.328125,-0.40625 -0.8125,-0.40625 -0.203125,0 -0.421875,0.0937 -0.203125,0.0781 -0.375,0.28125 -0.171875,0.1875 -0.28125,0.53125 -0.109375,0.32812 -0.109375,0.8125 0,0.6875 0.21875,1.21875 0.21875,0.53125 0.59375,0.90625 0.375,0.35937 0.859375,0.54687 0.5,0.1875 1.046875,0.1875 0.75,0 1.5,-0.32812 Q 83.75,195.25 84.40625,194.625 l 1.546875,1.42187 q -0.53125,0.48438 -0.828125,1.125 -0.28125,0.64063 -0.28125,1.26563 0,0.40625 0.125,0.76562 0.140625,0.35938 0.40625,0.64063 0.28125,0.26562 0.6875,0.42187 0.40625,0.17188 0.96875,0.17188 0.890625,0 1.75,-0.42188 0.859375,-0.40625 1.640625,-1.07812 0.796875,-0.6875 1.5,-1.5625 0.71875,-0.89063 1.328125,-1.84375 -0.21875,0.0156 -0.421875,0.0156 -0.1875,0 -0.375,0 -2.078125,0 -3.5625,-0.65625 -1.484375,-0.65625 -2.4375,-1.6875 -0.9375,-1.03125 -1.390625,-2.3125 -0.4375,-1.28125 -0.4375,-2.54687 0,-1.40625 0.515625,-2.5 0.515625,-1.09375 1.4375,-1.84375 0.921875,-0.75 2.1875,-1.125 1.28125,-0.39063 2.796875,-0.39063 h 3.203125 V 179 h -20.28125 v -2.29688 H 102.625 V 179 h -5.296875 v 5.76562 H 92.0625 q -2.546875,0 -3.75,1.01563 -1.203125,1.01562 -1.203125,2.90625 0,1.10937 0.40625,1.95312 0.421875,0.84375 1.140625,1.40625 0.734375,0.5625 1.734375,0.85938 1,0.28125 2.171875,0.28125 1.015625,0 1.78125,-0.26563 0,-0.8125 0.1875,-1.54687 0.203125,-0.75 0.5625,-1.3125 0.375,-0.5625 0.90625,-0.89063 0.546875,-0.34375 1.25,-0.34375 0.53125,0 0.921875,0.20313 0.40625,0.1875 0.65625,0.5 0.265625,0.3125 0.390625,0.73437 0.125,0.42188 0.125,0.85938 0,0.60937 -0.234375,1.14062 -0.21875,0.51563 -0.578125,0.95313 -0.359375,0.42187 -0.828125,0.76562 -0.453125,0.32813 -0.9375,0.57813 0.359375,1.10937 0.765625,1.96875 0.421875,0.84375 0.921875,1.53125 0.5,0.6875 1.078125,1.26562 0.57813,0.5625 1.26563,1.10938 l -1.92188,2.01562 q -1.3125,-1.125 -2.25,-2.60937 -0.9375,-1.48438 -1.4375,-2.98438 H 95.125 q -0.703125,1.15625 -1.609375,2.23438 Q 92.625,200.17187 91.5625,201 q -1.046875,0.82812 -2.234375,1.32812 -1.171875,0.5 -2.4375,0.5 -0.890625,0 -1.6875,-0.26562 -0.796875,-0.26563 -1.40625,-0.79688 -0.59375,-0.51562 -0.9375,-1.29687 -0.34375,-0.78125 -0.34375,-1.8125 0,-0.17188 0,-0.34375 0.01563,-0.1875 0.03125,-0.35938 l -0.07813,-0.0781 q -0.34375,0.0781 -0.6875,0.125 -0.328125,0.0312 -0.640625,0.0312 -1.390625,0 -2.328125,-0.51563 -0.9375,-0.53125 -1.5,-1.29687 -0.5625,-0.78125 -0.796875,-1.65625 -0.234375,-0.89063 -0.234375,-1.625 0,-0.85938 0.28125,-1.57813 0.28125,-0.71875 0.765625,-1.23437 0.5,-0.53125 1.171875,-0.82813 Q 79.1875,189 79.984375,189 q 0.890625,0 1.53125,0.35937 0.65625,0.35938 1.0625,0.92188 0.421875,0.5625 0.609375,1.26562 0.203125,0.70313 0.203125,1.375 z M 122.20313,179 h -3.28125 v 21 H 116.375 v -13.71875 h -5.07812 q -1.04688,0 -1.89063,0.14062 -0.84375,0.125 -1.4375,0.53125 -0.59375,0.39063 -0.92187,1.10938 -0.3125,0.70312 -0.3125,1.85937 0,1.5 0.48437,2.76563 0.5,1.26562 1.26563,2.32812 0.76562,1.04688 1.6875,1.9375 0.9375,0.89063 1.79687,1.64063 l -1.5625,1.78125 q -0.14062,-0.0781 -0.67187,-0.45313 -0.51563,-0.39062 -1.21875,-1.04687 -0.6875,-0.65625 -1.46875,-1.59375 -0.76563,-0.9375 -1.42188,-2.10938 -0.64062,-1.1875 -1.07812,-2.60937 -0.42188,-1.42188 -0.42188,-3.0625 0,-1.625 0.45313,-2.6875 0.46875,-1.07813 1.3125,-1.70313 0.84375,-0.64062 2.04687,-0.89062 1.20313,-0.25 2.6875,-0.25 h 5.75 V 179 h -14.84375 v -2.29688 h 20.67188 z m 8.31249,0 h -3.28124 v 21 h -2.5625 v -21 h -3.5625 v -2.29688 h 9.40624 z m 28.6875,0 h -5.29687 v 6.85937 h -5.26563 q -2.45312,0 -3.70312,1.21875 -1.25,1.20313 -1.25,3.46875 0,1.28125 0.40625,2.26563 0.42187,0.98437 1.14062,1.65625 0.73438,0.65625 1.73438,1 1,0.34375 2.17187,0.34375 1.23438,0 1.98438,-0.375 -0.0625,-0.39063 -0.0937,-0.6875 Q 151,194.45312 151,194.15625 q 0,-0.65625 0.15625,-1.34375 0.17187,-0.70313 0.5,-1.26563 0.34375,-0.57812 0.85937,-0.9375 0.53125,-0.35937 1.26563,-0.35937 0.45312,0 0.85937,0.15625 0.40625,0.15625 0.70313,0.48437 0.3125,0.3125 0.48437,0.79688 0.1875,0.48437 0.1875,1.125 0,0.64062 -0.17187,1.1875 -0.17188,0.53125 -0.45313,1 -0.26562,0.45312 -0.60937,0.85937 -0.34375,0.39063 -0.67188,0.71875 0.34375,0.75 0.71875,1.34375 0.39063,0.59375 0.79688,1.0625 0.42187,0.46875 0.84375,0.84375 0.42187,0.375 0.84375,0.70313 l -1.92188,2.01562 q -0.82812,-0.73437 -1.42187,-1.46875 -0.57813,-0.71875 -0.98438,-1.35937 -0.39062,-0.64063 -0.64062,-1.15625 -0.25,-0.51563 -0.40625,-0.82813 -1.07813,0.42188 -2.65625,0.42188 -2.03125,0 -3.54688,-0.65625 -1.51562,-0.67188 -2.53125,-1.78125 -1,-1.125 -1.5,-2.5625 -0.5,-1.4375 -0.5,-2.98438 0,-1.60937 0.51563,-2.82812 0.51562,-1.23438 1.4375,-2.0625 0.92187,-0.84375 2.1875,-1.26563 1.28125,-0.4375 2.79687,-0.4375 h 3.20313 V 179 H 138.1875 v -2.29688 h 21.01562 z m -5.51562,-1.85938 h -2.26563 L 150,174.46875 q -0.90625,-1.70313 -1.64063,-2.70313 -0.75,-1 -1.40625,-1.51562 -0.67187,-0.53125 -1.3125,-0.67188 -0.64062,-0.15625 -1.34375,-0.15625 h -3.03125 v -2.53125 h 2.85938 q 0.90625,0 1.64062,0.15625 0.73438,0.14063 1.40625,0.53125 0.65625,0.375 1.29688,1.0625 0.625,0.67188 1.34375,1.75 0.71875,1.0625 1.57812,2.5625 0.84375,1.48438 1.9375,3.51563 z M 187.54687,179 h -3.28125 v 21 h -2.54687 v -13.71875 h -5.07813 q -1.04687,0 -1.89062,0.14062 -0.84375,0.125 -1.4375,0.53125 -0.59375,0.39063 -0.92188,1.10938 -0.3125,0.70312 -0.3125,1.85937 0,1.5 0.48438,2.76563 0.5,1.26562 1.26562,2.32812 0.76563,1.04688 1.6875,1.9375 0.9375,0.89063 1.79688,1.64063 L 175.75,200.375 q -0.14063,-0.0781 -0.67188,-0.45313 -0.51562,-0.39062 -1.21875,-1.04687 -0.6875,-0.65625 -1.46875,-1.59375 -0.76562,-0.9375 -1.42187,-2.10938 -0.64063,-1.1875 -1.07813,-2.60937 -0.42187,-1.42188 -0.42187,-3.0625 0,-1.625 0.45312,-2.6875 0.46875,-1.07813 1.3125,-1.70313 0.84375,-0.64062 2.04688,-0.89062 1.20312,-0.25 2.6875,-0.25 h 5.75 V 179 H 166.875 v -2.29688 h 20.67187 z m 8.3125,0 h -3.28125 v 21 h -2.5625 v -21 h -3.5625 v -2.29688 h 3.8125 q -0.28125,-1.59375 -0.71875,-2.71875 -0.4375,-1.14062 -0.95312,-1.89062 -0.51563,-0.76563 -1.07813,-1.20313 -0.5625,-0.4375 -1.07812,-0.65625 -0.53125,-0.21875 -0.98438,-0.28125 -0.46875,-0.0625 -0.76562,-0.0625 -0.96875,0 -1.54688,0.3125 -0.59375,0.29688 -0.90625,0.71875 -0.3125,0.42188 -0.40625,0.89063 -0.10937,0.45312 -0.10937,0.78125 0,0.125 0.0469,0.51562 0.0312,0.375 0.25,0.95313 0.20313,0.57812 0.64063,1.29687 0.4375,0.71875 1.23437,1.51563 h -2.65625 q -0.98437,-1.125 -1.46875,-2.32813 -0.5,-1.21875 -0.5,-2.35937 0,-0.95313 0.34375,-1.8125 0.34375,-0.85938 1.03125,-1.48438 0.6875,-0.64062 1.71875,-1.01562 1.03125,-0.375 2.39063,-0.375 1.875,0 3.23437,0.73437 1.35938,0.71875 2.28125,1.96875 0.9375,1.25 1.46875,2.9375 0.54688,1.67188 0.76563,3.5625 h 3.35937 z m 28.03125,0 h -3.28125 v 21 h -2.57812 v -7.46875 l -0.0625,-0.0156 q -1.04688,0.9375 -2.34375,1.34375 -1.29688,0.39063 -2.5625,0.39063 -1.34375,0 -2.45313,-0.39063 -1.10937,-0.39062 -1.90625,-1.1875 -0.79687,-0.8125 -1.25,-2.03125 -0.4375,-1.23437 -0.4375,-2.92187 V 179 h -3.48437 v -2.29688 h 20.35937 z m -5.85937,0 h -8.48438 v 8.57812 q 0,0.98438 0.15625,1.76563 0.17188,0.78125 0.5625,1.32812 0.40625,0.54688 1.0625,0.84375 0.65625,0.28125 1.64063,0.28125 1.60937,0 2.90625,-0.75 1.29687,-0.76562 2.15625,-2 z m 14.17187,0 h -3.28125 v 21 h -2.5625 v -21 h -3.5625 v -2.29688 h 9.40625 z m 18.8125,0 h -3.28125 v 21 h -2.5625 v -5.57813 l -0.0625,-0.0156 q -0.3125,0.29687 -0.73437,0.625 -0.42188,0.3125 -0.96875,0.57812 -0.54688,0.25 -1.23438,0.42188 -0.67187,0.17187 -1.51562,0.17187 -1.54688,0 -2.82813,-0.59375 -1.26562,-0.59375 -2.1875,-1.57812 -0.92187,-1 -1.4375,-2.28125 -0.5,-1.29688 -0.5,-2.70313 0,-1.40625 0.5,-2.60937 0.51563,-1.21875 1.40625,-2.10938 0.89063,-0.89062 2.07813,-1.39062 1.1875,-0.51563 2.54687,-0.51563 0.375,0 0.9375,0.0625 0.57813,0.0625 1.23438,0.28125 0.65625,0.21875 1.35937,0.64063 0.70313,0.40625 1.34375,1.10937 l 0.0625,-0.0156 V 179 h -14.0625 v -2.29688 h 19.90625 z m -5.78125,8.42187 q -0.98437,-1.1875 -2.14062,-1.90625 -1.15625,-0.73437 -2.625,-0.73437 -1.15625,0 -1.96875,0.4375 -0.79688,0.4375 -1.3125,1.10937 -0.51563,0.65625 -0.75,1.46875 -0.23438,0.8125 -0.23438,1.5625 0,0.8125 0.26563,1.60938 0.26562,0.79687 0.78125,1.4375 0.53125,0.625 1.3125,1.03125 0.78125,0.39062 1.82812,0.39062 1.07813,0 1.96875,-0.40625 0.89063,-0.42187 1.53125,-1.0625 0.64063,-0.64062 0.98438,-1.4375 0.35937,-0.79687 0.35937,-1.54687 z M 270.45312,179 h -3.28125 v 21 h -2.57812 v -12.04688 h -7.3125 q 0,1.03125 -0.0312,1.76563 -0.0156,0.73437 -0.125,1.21875 -0.10938,0.46875 -0.32813,0.6875 -0.21875,0.21875 -0.60937,0.21875 -0.8125,0 -1.54688,-0.53125 -0.71875,-0.53125 -1.28125,-1.28125 -0.54687,-0.75 -0.875,-1.5625 -0.32812,-0.8125 -0.32812,-1.375 0,-0.5 0.21875,-0.78125 0.21875,-0.28125 0.57812,-0.42188 0.35938,-0.14062 0.8125,-0.17187 0.46875,-0.0312 0.9375,-0.0312 h 9.89063 V 179 h -14.67188 v -2.29688 h 20.53125 z m 4.39063,17.4375 -2.5,7.6875 h -1.82813 l 1.82813,-7.6875 z"
         id="path6" />
      <path
         d="m 53.640625,236.1875 q 0.234375,0.73437 0.546875,1.60937 0.3125,0.85938 0.734375,1.75 0.4375,0.875 0.96875,1.70313 0.546875,0.82812 1.234375,1.46875 0.703125,0.64062 1.546875,1.03125 0.84375,0.375 1.875,0.375 1.015625,0 1.71875,-0.29688 0.703125,-0.29687 1.140625,-0.79687 0.4375,-0.5 0.625,-1.17188 0.203125,-0.67187 0.203125,-1.40625 0,-1.60937 -1.171875,-2.51562 -1.15625,-0.90625 -3.359375,-0.90625 -0.265625,0 -0.53125,0.0156 -0.265625,0.0156 -0.53125,0.0469 v -2.375 q 0.125,0.0156 0.21875,0.0156 0.109375,0 0.125,0 1.09375,0 1.9375,-0.26562 0.859375,-0.28125 1.4375,-0.75 0.578125,-0.46875 0.875,-1.09375 0.296875,-0.625 0.296875,-1.3125 0,-0.625 -0.21875,-1.10938 -0.21875,-0.48437 -0.59375,-0.8125 -0.375,-0.32812 -0.890625,-0.48437 -0.515625,-0.17188 -1.125,-0.17188 -0.421875,0 -0.8125,0.0625 -0.390625,0.0469 -0.828125,0.17188 -0.4375,0.10937 -0.9375,0.29687 -0.484375,0.1875 -1.109375,0.46875 L 56.125,227.59375 q 1.21875,-0.59375 2.34375,-0.89063 1.125,-0.3125 2.296875,-0.3125 1.125,0 2.078125,0.35938 0.96875,0.35937 1.65625,1 0.703125,0.625 1.09375,1.5 0.390625,0.875 0.390625,1.89062 0,2.79688 -2.671875,4.5 v 0.0625 q 1.046875,0.4375 1.75,1.07813 0.453125,0.0781 0.953125,0.125 0.515625,0.0469 0.9375,0.0469 0.4375,0 0.921875,-0.0625 0.484375,-0.0625 0.984375,-0.23437 0.515625,-0.17188 1.03125,-0.48438 0.53125,-0.3125 1.0625,-0.8125 v -8.65625 h 5.84375 V 229 h -3.28125 v 21 h -2.5625 v -11.875 l -0.0625,-0.0156 Q 70,238.70312 69.21875,238.89062 q -0.78125,0.1875 -1.609375,0.1875 -0.265625,0 -0.546875,-0.0156 -0.28125,-0.0312 -0.578125,-0.0625 l -0.01563,0.0625 q 0.25,0.64062 0.25,1.57812 0,1.26563 -0.421875,2.34375 -0.421875,1.07813 -1.21875,1.875 -0.78125,0.78125 -1.90625,1.21875 -1.109375,0.4375 -2.5,0.4375 -1.484375,0 -2.6875,-0.51562 -1.1875,-0.53125 -2.15625,-1.35938 Q 54.875,243.8125 54.15625,242.78125 53.4375,241.73437 52.921875,240.6875 52.40625,239.64062 52.078125,238.70312 51.75,237.75 51.59375,237.125 Z M 85.109375,229 h -3.28125 v 21 h -2.5625 v -21 h -3.5625 v -2.29688 h 9.40625 z m 19.437505,0 h -3.28125 v 21 H 98.6875 V 237.95312 H 91.375 q 0,1.03125 -0.03125,1.76563 -0.01563,0.73437 -0.125,1.21875 -0.109375,0.46875 -0.328125,0.6875 -0.21875,0.21875 -0.609375,0.21875 -0.8125,0 -1.546875,-0.53125 -0.71875,-0.53125 -1.28125,-1.28125 -0.546875,-0.75 -0.875,-1.5625 -0.328125,-0.8125 -0.328125,-1.375 0,-0.5 0.21875,-0.78125 0.21875,-0.28125 0.578125,-0.42188 0.359375,-0.14062 0.8125,-0.17187 0.46875,-0.0312 0.9375,-0.0312 H 98.6875 V 229 H 84.015625 v -2.29688 h 20.531255 z m -6.48438,-7.0625 q 0,-0.89063 0.53125,-1.4375 0.515625,-0.5625 1.359375,-0.5625 0.390625,0 0.750005,0.15625 0.34375,0.15625 0.60937,0.4375 0.26563,0.26562 0.42188,0.64062 0.14062,0.35938 0.14062,0.79688 0,0.89062 -0.51562,1.4375 -0.53125,0.54687 -1.375005,0.54687 -0.40625,0 -0.75,-0.14062 Q 98.875,223.65625 98.625,223.39062 98.359375,223.10937 98.21875,222.75 98.0625,222.375 98.0625,221.9375 Z M 124.46875,229 h -5.29687 v 6.85937 h -5.26563 q -2.45312,0 -3.70312,1.21875 -1.25,1.20313 -1.25,3.46875 0,1.28125 0.40625,2.26563 0.42187,0.98437 1.14062,1.65625 0.73438,0.65625 1.73438,1 1,0.34375 2.17187,0.34375 1.23438,0 1.98438,-0.375 -0.0625,-0.39063 -0.0937,-0.6875 -0.0312,-0.29688 -0.0312,-0.59375 0,-0.65625 0.15625,-1.34375 0.17187,-0.70313 0.5,-1.26563 0.34375,-0.57812 0.85937,-0.9375 0.53125,-0.35937 1.26563,-0.35937 0.45312,0 0.85937,0.15625 0.40625,0.15625 0.70313,0.48437 0.3125,0.3125 0.48437,0.79688 0.1875,0.48437 0.1875,1.125 0,0.64062 -0.17187,1.1875 -0.17188,0.53125 -0.45313,1 -0.26562,0.45312 -0.60937,0.85937 -0.34375,0.39063 -0.67188,0.71875 0.34375,0.75 0.71875,1.34375 0.39063,0.59375 0.79688,1.0625 0.42187,0.46875 0.84375,0.84375 0.42187,0.375 0.84375,0.70313 l -1.92188,2.01562 q -0.82812,-0.73437 -1.42187,-1.46875 -0.57813,-0.71875 -0.98438,-1.35937 -0.39062,-0.64063 -0.64062,-1.15625 -0.25,-0.51563 -0.40625,-0.82813 -1.07813,0.42188 -2.65625,0.42188 -2.03125,0 -3.54688,-0.65625 -1.51562,-0.67188 -2.53125,-1.78125 -1,-1.125 -1.5,-2.5625 -0.5,-1.4375 -0.5,-2.98438 0,-1.60937 0.51563,-2.82812 0.51562,-1.23438 1.4375,-2.0625 0.92187,-0.84375 2.1875,-1.26563 1.28125,-0.4375 2.79687,-0.4375 h 3.20313 V 229 h -13.15625 v -2.29688 h 21.01562 z m 8.3125,0 H 129.5 v 21 h -2.5625 v -21 h -3.5625 v -2.29688 h 9.40625 z m 21.64062,0 h -3.28125 v 21 h -2.59375 v -6.57813 l -0.0625,-0.0469 q -0.85937,0.78125 -1.6875,1.23437 -0.8125,0.4375 -1.53125,0.67188 -0.70312,0.21875 -1.28125,0.28125 -0.57812,0.0625 -0.95312,0.0625 -1.4375,0 -2.54688,-0.45313 -1.10937,-0.45312 -1.85937,-1.1875 -0.75,-0.75 -1.14063,-1.70312 -0.39062,-0.96875 -0.39062,-2 0,-1.07813 0.4375,-2.14063 0.45312,-1.0625 1.40625,-1.90625 l -0.0156,-0.0625 h -4.95312 V 233.875 h 12.5625 v 2.29687 h -1.60938 q -1.60937,0 -2.64062,0.42188 -1.03125,0.42187 -1.625,1.03125 -0.59375,0.60937 -0.82813,1.3125 -0.21875,0.6875 -0.21875,1.25 0,0.46875 0.15625,1.01562 0.15625,0.53125 0.51563,0.98438 0.375,0.45312 0.98437,0.75 0.625,0.29687 1.5625,0.29687 0.98438,0 1.82813,-0.3125 0.85937,-0.32812 1.57812,-0.84375 0.71875,-0.51562 1.29688,-1.15625 0.59375,-0.65625 1.01562,-1.29687 V 229 H 131.6875 v -2.29688 h 22.73437 z m 8.3125,0 h -3.28125 v 21 h -2.5625 v -21 h -3.5625 v -2.29688 h 9.40625 z m 31.8125,-2.29688 V 229 h -3.28125 v 21 h -2.59375 V 239.5 H 179.625 q -0.82813,0.54687 -1.98438,0.65625 l -0.0312,0.0781 q 1.51563,2.375 3.32813,4.42188 1.8125,2.04687 4.125,3.79687 l -1.67188,1.92188 q -1.32812,-0.98438 -2.53125,-2.125 -1.1875,-1.14063 -2.25,-2.35938 -1.04687,-1.23437 -1.96875,-2.48437 -0.92187,-1.26563 -1.6875,-2.48438 -0.76562,-1.21875 -1.375,-2.34375 -0.60937,-1.14062 -1.0625,-2.10937 l 2.14063,-1.15625 q 0.29687,0.6875 0.57812,1.15625 0.29688,0.45312 0.59375,0.73437 0.29688,0.26563 0.625,0.39063 0.32813,0.10937 0.70313,0.10937 1.07812,0 1.57812,-0.84375 0.51563,-0.84375 0.51563,-2.21875 0,-0.8125 -0.15625,-1.59375 -0.15625,-0.79687 -0.40625,-1.51562 -0.23438,-0.73438 -0.51563,-1.375 -0.28125,-0.64063 -0.53125,-1.15625 h -7.23437 v -2.29688 z M 188.67187,229 h -8.32812 q 0.65625,1.42187 1.03125,2.85937 0.375,1.4375 0.375,2.85938 0,0.65625 -0.10938,1.29687 -0.0937,0.625 -0.32812,1.1875 l 0.0312,0.0312 h 7.32812 z m 14.1875,0 h -3.28125 v 21 h -2.5625 v -21 h -3.5625 v -2.29688 h 9.40625 z m 19.95313,0 h -3.28125 v 21 h -2.5625 v -21 h -7.04688 v 12.125 q 0,0.25 -0.0312,0.57812 -0.0312,0.32813 -0.15625,0.64063 -0.10937,0.29687 -0.32812,0.51562 -0.21875,0.20313 -0.60938,0.20313 -0.42187,0 -0.9375,-0.26563 -0.5,-0.28125 -1.03125,-0.71875 -0.53125,-0.45312 -1.03125,-1.01562 -0.48437,-0.5625 -0.875,-1.15625 -0.39062,-0.59375 -0.625,-1.15625 -0.23437,-0.5625 -0.23437,-1 0,-0.39063 0.1875,-0.625 0.20312,-0.23438 0.54687,-0.35938 0.35938,-0.125 0.85938,-0.15625 0.51562,-0.0312 1.125,-0.0312 h 0.54687 V 229 h -5.5625 v -2.29688 h 21.04688 z m 15.64062,0 h -5.89062 q 0.79687,1.375 1.28125,2.8125 0.5,1.42187 0.5,2.89062 0,1.10938 -0.34375,2.14063 -0.32813,1.01562 -0.98438,1.82812 -0.64062,0.79688 -1.60937,1.3125 -0.95313,0.5 -2.20313,0.5625 l -0.0312,0.0781 q 1.40625,2.1875 3.15625,4.14062 1.75,1.9375 4.04688,3.6875 l -1.67188,1.92188 q -1.32812,-0.98438 -2.53125,-2.125 -1.1875,-1.15625 -2.25,-2.375 -1.0625,-1.23438 -1.98437,-2.48438 -0.90625,-1.26562 -1.67188,-2.45312 -0.75,-1.20313 -1.34375,-2.29688 -0.59375,-1.10937 -1.01562,-2.01562 l 2.14062,-1.15625 q 0.5625,1.21875 1.26563,1.92187 0.71875,0.6875 1.65625,0.6875 0.67187,0 1.20312,-0.34375 0.53125,-0.34375 0.89063,-0.875 0.35937,-0.54687 0.54687,-1.1875 0.1875,-0.65625 0.1875,-1.28125 0,-0.73437 -0.1875,-1.4375 -0.1875,-0.71875 -0.48437,-1.39062 -0.29688,-0.6875 -0.67188,-1.32813 Q 230.09375,229.59375 229.75,229 h -8.03125 v -2.29688 h 16.73437 z m 28.6875,0 h -5.29687 v 6.85937 h -5.26563 q -2.45312,0 -3.70312,1.21875 -1.25,1.20313 -1.25,3.46875 0,1.28125 0.40625,2.26563 0.42187,0.98437 1.14062,1.65625 0.73438,0.65625 1.73438,1 1,0.34375 2.17187,0.34375 1.23438,0 1.98438,-0.375 -0.0625,-0.39063 -0.0937,-0.6875 -0.0312,-0.29688 -0.0312,-0.59375 0,-0.65625 0.15625,-1.34375 0.17187,-0.70313 0.5,-1.26563 0.34375,-0.57812 0.85937,-0.9375 0.53125,-0.35937 1.26563,-0.35937 0.45312,0 0.85937,0.15625 0.40625,0.15625 0.70313,0.48437 0.3125,0.3125 0.48437,0.79688 0.1875,0.48437 0.1875,1.125 0,0.64062 -0.17187,1.1875 -0.17188,0.53125 -0.45313,1 -0.26562,0.45312 -0.60937,0.85937 -0.34375,0.39063 -0.67188,0.71875 0.34375,0.75 0.71875,1.34375 0.39063,0.59375 0.79688,1.0625 0.42187,0.46875 0.84375,0.84375 0.42187,0.375 0.84375,0.70313 l -1.92188,2.01562 q -0.82812,-0.73437 -1.42187,-1.46875 -0.57813,-0.71875 -0.98438,-1.35937 -0.39062,-0.64063 -0.64062,-1.15625 -0.25,-0.51563 -0.40625,-0.82813 -1.07813,0.42188 -2.65625,0.42188 -2.03125,0 -3.54688,-0.65625 -1.51562,-0.67188 -2.53125,-1.78125 -1,-1.125 -1.5,-2.5625 -0.5,-1.4375 -0.5,-2.98438 0,-1.60937 0.51563,-2.82812 0.51562,-1.23438 1.4375,-2.0625 0.92187,-0.84375 2.1875,-1.26563 1.28125,-0.4375 2.79687,-0.4375 h 3.20313 V 229 H 246.125 v -2.29688 h 21.01562 z m 8.3125,0 h -3.28125 v 21 h -2.5625 v -21 h -3.5625 v -2.29688 h 9.40625 z m 18.8125,0 h -3.28125 v 21 h -2.5625 v -5.57813 l -0.0625,-0.0156 q -0.3125,0.29687 -0.73437,0.625 -0.42188,0.3125 -0.96875,0.57812 -0.54688,0.25 -1.23438,0.42188 -0.67187,0.17187 -1.51562,0.17187 -1.54688,0 -2.82813,-0.59375 -1.26562,-0.59375 -2.1875,-1.57812 -0.92187,-1 -1.4375,-2.28125 -0.5,-1.29688 -0.5,-2.70313 0,-1.40625 0.5,-2.60937 0.51563,-1.21875 1.40625,-2.10938 0.89063,-0.89062 2.07813,-1.39062 1.1875,-0.51563 2.54687,-0.51563 0.375,0 0.9375,0.0625 0.57813,0.0625 1.23438,0.28125 0.65625,0.21875 1.35937,0.64063 0.70313,0.40625 1.34375,1.10937 l 0.0625,-0.0156 V 229 h -14.0625 v -2.29688 h 19.90625 z m -5.78125,8.42187 q -0.98437,-1.1875 -2.14062,-1.90625 -1.15625,-0.73437 -2.625,-0.73437 -1.15625,0 -1.96875,0.4375 -0.79688,0.4375 -1.3125,1.10937 -0.51563,0.65625 -0.75,1.46875 -0.23438,0.8125 -0.23438,1.5625 0,0.8125 0.26563,1.60938 0.26562,0.79687 0.78125,1.4375 0.53125,0.625 1.3125,1.03125 0.78125,0.39062 1.82812,0.39062 1.07813,0 1.96875,-0.40625 0.89063,-0.42187 1.53125,-1.0625 0.64063,-0.64062 0.98438,-1.4375 0.35937,-0.79687 0.35937,-1.54687 z M 313.70312,229 h -3.28125 v 21 h -2.57812 v -12.04688 h -7.3125 q 0,1.03125 -0.0312,1.76563 -0.0156,0.73437 -0.125,1.21875 -0.10938,0.46875 -0.32813,0.6875 -0.21875,0.21875 -0.60937,0.21875 -0.8125,0 -1.54688,-0.53125 -0.71875,-0.53125 -1.28125,-1.28125 -0.54687,-0.75 -0.875,-1.5625 -0.32812,-0.8125 -0.32812,-1.375 0,-0.5 0.21875,-0.78125 0.21875,-0.28125 0.57812,-0.42188 0.35938,-0.14062 0.8125,-0.17187 0.46875,-0.0312 0.9375,-0.0312 h 9.89063 V 229 h -14.67188 v -2.29688 h 20.53125 z m 2.9375,21.34375 q -0.71875,0 -1.23437,-0.51563 -0.5,-0.51562 -0.5,-1.23437 0,-0.71875 0.5,-1.23438 0.51562,-0.53125 1.23437,-0.53125 0.73438,0 1.25,0.53125 0.51563,0.51563 0.51563,1.23438 0,0.71875 -0.51563,1.23437 -0.51562,0.51563 -1.25,0.51563 z"
         id="path7" />
    </g>
  </g>
</svg>
