<?xml version="1.0" encoding="UTF-8" standalone="no"?>
<svg
   width="800"
   height="600"
   version="1.1"
   id="svg4"
   sodipodi:docname="shivani_dance.svg"
   xmlns:inkscape="http://www.inkscape.org/namespaces/inkscape"
   xmlns:sodipodi="http://sodipodi.sourceforge.net/DTD/sodipodi-0.dtd"
   xmlns="http://www.w3.org/2000/svg"
   xmlns:svg="http://www.w3.org/2000/svg">
  <sodipodi:namedview
     id="namedview4"
     pagecolor="#ffffff"
     bordercolor="#666666"
     borderopacity="1.0"
     inkscape:showpageshadow="2"
     inkscape:pageopacity="0.0"
     inkscape:pagecheckerboard="0"
     inkscape:deskcolor="#d1d1d1" />
  <defs
     id="defs1">
    <style
       type="text/css"
       id="style1">
      @font-face {{
        font-family: 'Kalam';
        src: url('AxiDraw_API(1)/Kalam-Regular.ttf');
      }}
    </style>
  </defs>
  <g
     id="g4">
    <g
       id="text4"
       style="font-size:32px;font-family:Kalam"
       aria-label="शिवानी नाचते, मधुर गीत सांगते,पावले तिचे, हृदयी आनंद निर्माण करते.नृत्याच्या लयीत, ती विलीन होते,सौंदर्य तिचे, जगभर पसरते.">
      <path
         d="m 58.859375,79 h -3.28125 v 21 h -2.5625 V 79 h -3.5625 v -2.296875 h 3.5625 q -0.859375,-2.0625 -0.859375,-3.84375 0,-1.140625 0.375,-2.125 0.375,-0.984375 1.140625,-1.703125 0.78125,-0.71875 1.984375,-1.125 Q 56.859375,67.5 58.515625,67.5 q 2.171875,0 4.171875,0.703125 2.015625,0.703125 3.9375,1.953125 1.921875,1.25 3.796875,2.96875 1.890625,1.71875 3.8125,3.75 h -2.71875 q -0.4375,-0.421875 -1.171875,-1.09375 -0.71875,-0.6875 -1.671875,-1.453125 -0.953125,-0.78125 -2.109375,-1.5625 -1.15625,-0.796875 -2.4375,-1.4375 -1.28125,-0.640625 -2.671875,-1.03125 -1.375,-0.40625 -2.78125,-0.40625 -1.140625,0 -1.921875,0.265625 -0.765625,0.265625 -1.25,0.734375 Q 55.03125,71.359375 54.828125,72 54.625,72.625 54.625,73.34375 q 0,1.40625 0.765625,3.359375 h 3.46875 z m 9.59375,8.5 q -0.28125,0.03125 -0.53125,0.0625 -0.25,0.01563 -0.515625,0.01563 -1.265625,0 -2.296875,-0.453125 -1.015625,-0.453125 -1.75,-1.21875 -0.71875,-0.765625 -1.109375,-1.765625 -0.390625,-1.015625 -0.390625,-2.125 0,-0.796875 0.21875,-1.546875 0.21875,-0.75 0.6875,-1.40625 L 62.75,79 h -4.984375 v -2.296875 h 26.125 V 79 h -3.28125 v 21 h -2.5625 V 79 H 72.15625 l -0.01563,0.0625 q 0.40625,0.40625 0.75,0.984375 0.34375,0.5625 0.578125,1.234375 0.25,0.671875 0.390625,1.40625 Q 74,83.421875 74,84.171875 q 0,1.21875 -0.390625,2.359375 -0.375,1.140625 -1.078125,2.15625 -0.6875,1.015625 -1.671875,1.890625 -0.96875,0.859375 -2.15625,1.53125 v 0.0625 q 0.78125,0.609375 1.671875,1.46875 0.890625,0.84375 1.765625,1.765625 0.875,0.921875 1.65625,1.84375 0.78125,0.90625 1.34375,1.65625 L 73.375,100.39063 q -0.484375,-0.60938 -1.21875,-1.48438 -0.734375,-0.890625 -1.640625,-1.84375 -0.90625,-0.96875 -1.96875,-1.921875 -1.046875,-0.96875 -2.1875,-1.75 -0.5625,0.265625 -1.1875,0.390625 -0.609375,0.125 -1.21875,0.125 -0.703125,0 -1.359375,-0.171875 -0.640625,-0.171875 -1.15625,-0.5 -0.5,-0.328125 -0.796875,-0.796875 -0.296875,-0.484375 -0.296875,-1.109375 0,-0.984375 0.71875,-1.515625 0.734375,-0.546875 1.90625,-0.546875 0.859375,0 1.734375,0.3125 0.890625,0.296875 1.734375,0.90625 0.4375,-0.09375 0.984375,-0.328125 0.546875,-0.25 1.109375,-0.625 0.578125,-0.390625 1.109375,-0.90625 0.546875,-0.53125 0.96875,-1.203125 0.421875,-0.671875 0.671875,-1.46875 0.265625,-0.8125 0.265625,-1.75 0,-0.9375 -0.28125,-1.84375 Q 71,81.453125 70.46875,80.75 69.9375,80.03125 69.140625,79.59375 q -0.796875,-0.4375 -1.84375,-0.4375 -0.828125,0 -1.375,0.265625 -0.546875,0.25 -0.890625,0.65625 -0.34375,0.40625 -0.484375,0.90625 -0.140625,0.484375 -0.140625,0.953125 0,0.609375 0.21875,1.203125 0.21875,0.578125 0.640625,1.046875 0.4375,0.453125 1.078125,0.734375 0.640625,0.28125 1.46875,0.28125 0.265625,0 0.640625,-0.04687 z M 102.70313,79 h -3.281255 v 21 h -2.5625 v -5.578125 l -0.0625,-0.01563 q -0.3125,0.296875 -0.734375,0.625 -0.421875,0.3125 -0.96875,0.578125 -0.546875,0.25 -1.234375,0.421875 -0.671875,0.171875 -1.515625,0.171875 -1.546875,0 -2.828125,-0.59375 -1.265625,-0.59375 -2.1875,-1.578125 -0.921875,-1 -1.4375,-2.28125 -0.5,-1.296875 -0.5,-2.703125 0,-1.40625 0.5,-2.609375 0.515625,-1.21875 1.40625,-2.109375 Q 88.1875,83.4375 89.375,82.9375 q 1.1875,-0.515625 2.546875,-0.515625 0.375,0 0.9375,0.0625 0.578125,0.0625 1.234375,0.28125 0.65625,0.21875 1.359375,0.640625 0.703125,0.40625 1.34375,1.109375 L 96.859375,84.5 V 79 h -14.0625 v -2.296875 h 19.906255 z m -5.781255,8.421875 q -0.984375,-1.1875 -2.140625,-1.90625 -1.15625,-0.734375 -2.625,-0.734375 -1.15625,0 -1.96875,0.4375 -0.796875,0.4375 -1.3125,1.109375 -0.515625,0.65625 -0.75,1.46875 -0.234375,0.8125 -0.234375,1.5625 0,0.8125 0.265625,1.609375 0.265625,0.796875 0.78125,1.4375 0.53125,0.625 1.3125,1.03125 0.78125,0.390625 1.828125,0.390625 1.078125,0 1.96875,-0.40625 Q 94.9375,93 95.578125,92.359375 96.21875,91.71875 96.5625,90.921875 96.921875,90.125 96.921875,89.375 Z M 111.01563,79 h -3.28125 v 21 h -2.5625 V 79 h -3.5625 v -2.296875 h 9.40625 z m 19.43749,0 h -3.28124 v 21 h -2.57813 V 87.953125 h -7.3125 q 0,1.03125 -0.0312,1.765625 -0.0156,0.734375 -0.125,1.21875 -0.10937,0.46875 -0.32812,0.6875 -0.21875,0.21875 -0.60938,0.21875 -0.8125,0 -1.54687,-0.53125 -0.71875,-0.53125 -1.28125,-1.28125 -0.54688,-0.75 -0.875,-1.5625 -0.32813,-0.8125 -0.32813,-1.375 0,-0.5 0.21875,-0.78125 0.21875,-0.28125 0.57813,-0.421875 0.35937,-0.140625 0.8125,-0.171875 0.46875,-0.03125 0.9375,-0.03125 h 9.89062 V 79 h -14.67187 v -2.296875 h 20.53124 z m 8.3125,0 h -3.28125 v 21 h -2.5625 V 79 h -3.5625 v -2.296875 h 3.8125 q -0.28125,-1.59375 -0.71875,-2.71875 -0.4375,-1.140625 -0.95312,-1.890625 -0.51563,-0.765625 -1.07813,-1.203125 -0.5625,-0.4375 -1.07812,-0.65625 -0.53125,-0.21875 -0.98438,-0.28125 -0.46874,-0.0625 -0.76562,-0.0625 -0.96875,0 -1.54687,0.3125 -0.59375,0.296875 -0.90625,0.71875 -0.3125,0.421875 -0.40625,0.890625 -0.10938,0.453125 -0.10938,0.78125 0,0.125 0.0469,0.515625 0.0312,0.375 0.25,0.953125 0.20312,0.578125 0.64062,1.296875 0.4375,0.71875 1.23438,1.515625 h -2.65625 q -0.98438,-1.125 -1.46875,-2.328125 -0.5,-1.21875 -0.5,-2.359375 0,-0.953125 0.34375,-1.8125 0.34375,-0.859375 1.03125,-1.484375 0.6875,-0.640625 1.71875,-1.015625 1.03125,-0.375 2.39062,-0.375 1.875,0 3.23437,0.734375 1.35938,0.71875 2.28125,1.96875 0.9375,1.25 1.46875,2.9375 0.54688,1.671875 0.76563,3.5625 h 3.35937 z m 28.20313,0 h -3.28125 v 21 h -2.57813 V 87.953125 h -7.3125 q 0,1.03125 -0.0312,1.765625 -0.0156,0.734375 -0.125,1.21875 -0.10937,0.46875 -0.32812,0.6875 -0.21875,0.21875 -0.60938,0.21875 -0.8125,0 -1.54687,-0.53125 -0.71875,-0.53125 -1.28125,-1.28125 -0.54688,-0.75 -0.875,-1.5625 -0.32813,-0.8125 -0.32813,-1.375 0,-0.5 0.21875,-0.78125 0.21875,-0.28125 0.57813,-0.421875 0.35937,-0.140625 0.8125,-0.171875 0.46875,-0.03125 0.9375,-0.03125 h 9.89062 V 79 H 146.4375 v -2.296875 h 20.53125 z m 8.3125,0 H 172 v 21 h -2.5625 V 79 h -3.5625 v -2.296875 h 9.40625 z m 21.64062,0 h -3.28125 v 21 h -2.59375 v -6.578125 l -0.0625,-0.04687 q -0.85937,0.78125 -1.6875,1.234375 -0.8125,0.4375 -1.53125,0.671875 -0.70312,0.21875 -1.28125,0.28125 -0.57812,0.0625 -0.95312,0.0625 -1.4375,0 -2.54688,-0.453125 -1.10937,-0.453125 -1.85937,-1.1875 -0.75,-0.75 -1.14063,-1.703125 -0.39062,-0.96875 -0.39062,-2 0,-1.078125 0.4375,-2.140625 0.45312,-1.0625 1.40625,-1.90625 l -0.0156,-0.0625 h -4.95312 V 83.875 h 12.5625 v 2.296875 h -1.60938 q -1.60937,0 -2.64062,0.421875 -1.03125,0.421875 -1.625,1.03125 -0.59375,0.609375 -0.82813,1.3125 -0.21875,0.6875 -0.21875,1.25 0,0.46875 0.15625,1.015625 0.15625,0.53125 0.51563,0.984375 0.375,0.453125 0.98437,0.75 0.625,0.296875 1.5625,0.296875 0.98438,0 1.82813,-0.3125 0.85937,-0.328125 1.57812,-0.84375 0.71875,-0.515625 1.29688,-1.15625 0.59375,-0.65625 1.01562,-1.296875 V 79 H 174.1875 v -2.296875 h 22.73437 z M 216.5,79 h -3.28125 v 21 h -2.54688 V 86.28125 h -5.07812 q -1.04688,0 -1.89063,0.140625 -0.84375,0.125 -1.4375,0.53125 -0.59375,0.390625 -0.92187,1.109375 -0.3125,0.703125 -0.3125,1.859375 0,1.5 0.48437,2.765625 0.5,1.265625 1.26563,2.328125 0.76562,1.046875 1.6875,1.9375 0.9375,0.890625 1.79687,1.640625 l -1.5625,1.78125 q -0.14062,-0.0781 -0.67187,-0.453125 -0.51563,-0.390625 -1.21875,-1.046875 -0.6875,-0.65625 -1.46875,-1.59375 -0.76563,-0.9375 -1.42188,-2.109375 -0.64062,-1.1875 -1.07812,-2.609375 -0.42188,-1.421875 -0.42188,-3.0625 0,-1.625 0.45313,-2.6875 0.46875,-1.078125 1.3125,-1.703125 0.84375,-0.640625 2.04687,-0.890625 1.20313,-0.25 2.6875,-0.25 h 5.75 V 79 H 195.82812 V 76.703125 H 216.5 Z M 213,77.140625 h -2.26563 L 209.3125,74.46875 q -0.90625,-1.703125 -1.64063,-2.703125 -0.75,-1 -1.40625,-1.515625 -0.67187,-0.53125 -1.3125,-0.671875 -0.64062,-0.15625 -1.34375,-0.15625 h -3.03125 v -2.53125 h 2.85938 q 0.90625,0 1.64062,0.15625 0.73438,0.140625 1.40625,0.53125 0.65625,0.375 1.29688,1.0625 0.625,0.671875 1.34375,1.75 0.71875,1.0625 1.57812,2.5625 0.84375,1.484375 1.9375,3.515625 z m 7.89062,19.296875 -2.5,7.6875 h -1.82812 l 1.82812,-7.6875 z M 253.75,79 h -3.28125 v 21 h -2.5625 v -8.765625 h -8.59375 v 1.859375 q 0,0.484375 -0.0469,0.859375 -0.0312,0.375 -0.17187,0.625 -0.125,0.25 -0.375,0.390625 -0.23438,0.125 -0.64063,0.125 -0.40625,0 -0.90625,-0.234375 -0.5,-0.25 -1.01562,-0.65625 -0.51563,-0.421875 -1,-0.9375 -0.48438,-0.53125 -0.875,-1.09375 -0.375,-0.578125 -0.60938,-1.140625 Q 233.4375,90.46875 233.4375,90 q 0,-0.328125 0.10937,-0.53125 0.125,-0.21875 0.32813,-0.328125 0.21875,-0.109375 0.51562,-0.140625 0.29688,-0.04687 0.67188,-0.04687 H 236.75 V 79 h -5.64063 V 76.703125 H 253.75 Z m -14.4375,0 v 9.953125 h 8.59375 V 79 Z m 21.51562,2.984375 q 0.17188,-0.25 0.3125,-0.625 0.15625,-0.390625 0.15625,-0.875 0,-0.4375 -0.15625,-0.765625 -0.15625,-0.328125 -0.40625,-0.53125 -0.23437,-0.203125 -0.54687,-0.296875 -0.3125,-0.109375 -0.625,-0.109375 -0.375,0 -0.75,0.15625 -0.35938,0.140625 -0.65625,0.46875 -0.28125,0.328125 -0.46875,0.84375 -0.1875,0.5 -0.1875,1.203125 0,0.765625 0.21875,1.453125 0.23437,0.671875 0.70312,1.1875 0.48438,0.5 1.20313,0.796875 0.73437,0.296875 1.75,0.296875 0.70312,0 1.29687,-0.109375 0.59375,-0.125 1.03125,-0.234375 L 264.125,87.25 q -0.25,0.03125 -0.67188,0.125 -0.42187,0.07813 -0.92187,0.265625 -0.48438,0.171875 -1,0.453125 -0.5,0.28125 -0.90625,0.703125 -0.40625,0.40625 -0.67188,0.96875 -0.25,0.5625 -0.25,1.3125 0,0.703125 0.23438,1.25 0.23437,0.546875 0.65625,0.9375 0.42187,0.390625 1.01562,0.59375 0.59375,0.203125 1.29688,0.203125 1,0 1.84375,-0.375 0.84375,-0.375 1.51562,-0.921875 0.67188,-0.5625 1.15625,-1.203125 0.48438,-0.640625 0.76563,-1.171875 v -13.6875 h 5.84375 V 79 H 270.75 v 21 h -2.5625 v -5.84375 l -0.0625,-0.01563 q -0.57813,0.640625 -1.21875,1.078125 -0.64063,0.4375 -1.3125,0.71875 -0.65625,0.265625 -1.32813,0.390625 -0.67187,0.125 -1.29687,0.125 -1.23438,0 -2.29688,-0.40625 -1.04687,-0.40625 -1.8125,-1.140625 -0.76562,-0.734375 -1.20312,-1.734375 -0.4375,-1.015625 -0.4375,-2.234375 0,-1.125 0.42187,-2.0625 0.4375,-0.9375 1.51563,-1.78125 l -0.0156,-0.0625 q -1.0625,-0.28125 -1.84375,-0.859375 -0.76562,-0.578125 -1.28125,-1.328125 -0.5,-0.75 -0.75,-1.625 -0.25,-0.890625 -0.25,-1.78125 0,-1.09375 0.34375,-2.015625 0.35938,-0.921875 0.98438,-1.59375 0.64062,-0.671875 1.5,-1.046875 0.85937,-0.390625 1.89062,-0.390625 1.07813,0 1.84375,0.375 0.78125,0.375 1.26563,0.953125 0.5,0.578125 0.73437,1.28125 0.23438,0.6875 0.23438,1.3125 0,0.4375 -0.0937,0.859375 -0.0937,0.421875 -0.23438,0.796875 -0.14062,0.375 -0.3125,0.6875 -0.15625,0.3125 -0.29687,0.53125 z m 4.29688,18.484375 q 1,-0.625 2.21875,-0.96875 1.20312,-0.34375 2.29687,-0.34375 0.95313,0 1.78125,0.28125 0.8125,0.265625 1.42188,0.78125 0.60937,0.53125 0.95312,1.28125 0.34375,0.75 0.34375,1.6875 0,1 -0.40625,1.875 -0.39062,0.875 -1.1875,1.53125 -0.79687,0.65625 -1.96875,1.03125 -1.17187,0.39063 -2.71875,0.39063 -1.76562,0 -3.15625,-0.48438 -1.40625,-0.46875 -2.51562,-1.20312 -1.10938,-0.71875 -1.95313,-1.59375 -0.84375,-0.875 -1.48437,-1.65625 l 1.45312,-1.70313 q 0.89063,0.96875 1.70313,1.75 0.8125,0.78125 1.6875,1.32813 0.875,0.5625 1.89062,0.85937 1,0.29688 2.26563,0.29688 1.07812,0 1.84375,-0.21875 0.75,-0.20313 1.23437,-0.54688 0.48438,-0.32812 0.70313,-0.76562 0.21875,-0.42188 0.21875,-0.85938 0,-0.79687 -0.59375,-1.26562 -0.60938,-0.46875 -1.64063,-0.46875 -0.67187,0 -1.54687,0.23437 -0.89063,0.23438 -1.79688,0.78125 z M 289.67187,79 h -5.89062 q 0.79687,1.375 1.28125,2.8125 0.5,1.421875 0.5,2.890625 0,1.109375 -0.34375,2.140625 -0.32813,1.015625 -0.98438,1.828125 -0.64062,0.796875 -1.60937,1.3125 -0.95313,0.5 -2.20313,0.5625 l -0.0312,0.07813 q 1.40625,2.1875 3.15625,4.140625 1.75,1.9375 4.04688,3.6875 l -1.67188,1.921875 q -1.32812,-0.984375 -2.53125,-2.125 -1.1875,-1.15625 -2.25,-2.375 -1.0625,-1.234375 -1.98437,-2.484375 Q 278.25,92.125 277.48437,90.9375 q -0.75,-1.203125 -1.34375,-2.296875 Q 275.54687,87.53125 275.125,86.625 l 2.14062,-1.15625 q 0.5625,1.21875 1.26563,1.921875 0.71875,0.6875 1.65625,0.6875 0.67187,0 1.20312,-0.34375 0.53125,-0.34375 0.89063,-0.875 0.35937,-0.546875 0.54687,-1.1875 0.1875,-0.65625 0.1875,-1.28125 0,-0.734375 -0.1875,-1.4375 -0.1875,-0.71875 -0.48437,-1.390625 -0.29688,-0.6875 -0.67188,-1.328125 Q 281.3125,79.59375 280.96875,79 h -8.03125 v -2.296875 h 16.73437 z m 28.71875,0 h -3.28125 v 21 h -2.5625 V 79 H 305.5 v 12.125 q 0,0.25 -0.0312,0.578125 -0.0312,0.328125 -0.15625,0.640625 -0.10938,0.296875 -0.32813,0.515625 -0.21875,0.203125 -0.60937,0.203125 -0.42188,0 -0.9375,-0.265625 -0.5,-0.28125 -1.03125,-0.71875 Q 301.875,91.625 301.375,91.0625 300.89062,90.5 300.5,89.90625 300.10937,89.3125 299.875,88.75 q -0.23438,-0.5625 -0.23438,-1 0,-0.390625 0.1875,-0.625 0.20313,-0.234375 0.54688,-0.359375 0.35937,-0.125 0.85937,-0.15625 0.51563,-0.03125 1.125,-0.03125 h 0.54688 V 79 h -5.5625 v -2.296875 h 21.04687 z m 8.3125,0 h -3.28125 v 21 h -2.5625 V 79 h -3.5625 v -2.296875 h 3.8125 q -0.28125,-1.59375 -0.71875,-2.71875 -0.4375,-1.140625 -0.95312,-1.890625 -0.51563,-0.765625 -1.07813,-1.203125 -0.5625,-0.4375 -1.07812,-0.65625 -0.53125,-0.21875 -0.98438,-0.28125 -0.46875,-0.0625 -0.76562,-0.0625 -0.96875,0 -1.54688,0.3125 -0.59375,0.296875 -0.90625,0.71875 -0.3125,0.421875 -0.40625,0.890625 -0.10937,0.453125 -0.10937,0.78125 0,0.125 0.0469,0.515625 0.0312,0.375 0.25,0.953125 0.20313,0.578125 0.64063,1.296875 0.4375,0.71875 1.23437,1.515625 h -2.65625 q -0.98437,-1.125 -1.46875,-2.328125 -0.5,-1.21875 -0.5,-2.359375 0,-0.953125 0.34375,-1.8125 0.34375,-0.859375 1.03125,-1.484375 0.6875,-0.640625 1.71875,-1.015625 1.03125,-0.375 2.39063,-0.375 1.875,0 3.23437,0.734375 1.35938,0.71875 2.28125,1.96875 0.9375,1.25 1.46875,2.9375 0.54688,1.671875 0.76563,3.5625 h 3.35937 z m 19.57813,0 H 343 v 21 h -2.54688 V 86.28125 H 335.375 q -1.04688,0 -1.89063,0.140625 -0.84375,0.125 -1.4375,0.53125 -0.59375,0.390625 -0.92187,1.109375 -0.3125,0.703125 -0.3125,1.859375 0,1.5 0.48437,2.765625 0.5,1.265625 1.26563,2.328125 0.76562,1.046875 1.6875,1.9375 0.9375,0.890625 1.79687,1.640625 l -1.5625,1.78125 q -0.14062,-0.0781 -0.67187,-0.453125 -0.51563,-0.390625 -1.21875,-1.046875 -0.6875,-0.65625 -1.46875,-1.59375 -0.76563,-0.9375 -1.42188,-2.109375 -0.64062,-1.1875 -1.07812,-2.609375 -0.42188,-1.421875 -0.42188,-3.0625 0,-1.625 0.45313,-2.6875 0.46875,-1.078125 1.3125,-1.703125 0.84375,-0.640625 2.04687,-0.890625 1.20313,-0.25 2.6875,-0.25 h 5.75 V 79 h -14.84375 v -2.296875 h 20.67188 z m 31.8125,-2.296875 V 79 h -3.28125 v 21 h -2.59375 V 89.5 h -9.04688 q -0.82812,0.546875 -1.98437,0.65625 l -0.0312,0.07813 q 1.51562,2.375 3.32812,4.421875 1.8125,2.046875 4.125,3.796875 L 366.9375,100.375 q -1.32813,-0.984375 -2.53125,-2.125 -1.1875,-1.140625 -2.25,-2.359375 -1.04688,-1.234375 -1.96875,-2.484375 -0.92188,-1.265625 -1.6875,-2.484375 -0.76563,-1.21875 -1.375,-2.34375 -0.60938,-1.140625 -1.0625,-2.109375 l 2.14062,-1.15625 Q 358.5,86 358.78125,86.46875 q 0.29687,0.453125 0.59375,0.734375 0.29687,0.265625 0.625,0.390625 0.32812,0.109375 0.70312,0.109375 1.07813,0 1.57813,-0.84375 0.51562,-0.84375 0.51562,-2.21875 0,-0.8125 -0.15625,-1.59375 Q 362.48437,82.25 362.23437,81.53125 362,80.796875 361.71875,80.15625 361.4375,79.515625 361.1875,79 h -7.23438 V 76.703125 Z M 372.21875,79 h -8.32813 q 0.65625,1.421875 1.03125,2.859375 0.375,1.4375 0.375,2.859375 0,0.65625 -0.10937,1.296875 -0.0937,0.625 -0.32813,1.1875 l 0.0312,0.03125 h 7.32813 z m 14.1875,0 H 383.125 v 21 h -2.5625 V 79 H 377 v -2.296875 h 9.40625 z m -6.79688,-7.0625 q 0,-0.890625 0.53125,-1.4375 0.51563,-0.5625 1.35938,-0.5625 0.39062,0 0.75,0.15625 0.34375,0.15625 0.60937,0.4375 0.26563,0.265625 0.42188,0.640625 0.14062,0.359375 0.14062,0.796875 0,0.890625 -0.51562,1.4375 -0.53125,0.546875 -1.375,0.546875 -0.40625,0 -0.75,-0.140625 -0.35938,-0.15625 -0.60938,-0.421875 -0.26562,-0.28125 -0.40625,-0.640625 -0.15625,-0.375 -0.15625,-0.8125 z m 26.75,7.0625 h -3.28125 v 21 h -2.5625 V 79 h -7.04687 v 12.125 q 0,0.25 -0.0312,0.578125 -0.0312,0.328125 -0.15625,0.640625 -0.10938,0.296875 -0.32813,0.515625 -0.21875,0.203125 -0.60937,0.203125 -0.42188,0 -0.9375,-0.265625 -0.5,-0.28125 -1.03125,-0.71875 -0.53125,-0.453125 -1.03125,-1.015625 -0.48438,-0.5625 -0.875,-1.15625 -0.39063,-0.59375 -0.625,-1.15625 -0.23438,-0.5625 -0.23438,-1 0,-0.390625 0.1875,-0.625 0.20313,-0.234375 0.54688,-0.359375 0.35937,-0.125 0.85937,-0.15625 0.51563,-0.03125 1.125,-0.03125 H 390.875 V 79 h -5.5625 v -2.296875 h 21.04687 z m 19.57813,0 h -3.28125 v 21 h -2.54688 V 86.28125 h -5.07812 q -1.04688,0 -1.89063,0.140625 -0.84375,0.125 -1.4375,0.53125 -0.59375,0.390625 -0.92187,1.109375 -0.3125,0.703125 -0.3125,1.859375 0,1.5 0.48437,2.765625 0.5,1.265625 1.26563,2.328125 0.76562,1.046875 1.6875,1.9375 0.9375,0.890625 1.79687,1.640625 l -1.5625,1.78125 Q 414,100.29688 413.46875,99.921875 412.95312,99.53125 412.25,98.875 q -0.6875,-0.65625 -1.46875,-1.59375 -0.76563,-0.9375 -1.42188,-2.109375 -0.64062,-1.1875 -1.07812,-2.609375 -0.42188,-1.421875 -0.42188,-3.0625 0,-1.625 0.45313,-2.6875 0.46875,-1.078125 1.3125,-1.703125 0.84375,-0.640625 2.04687,-0.890625 1.20313,-0.25 2.6875,-0.25 h 5.75 V 79 h -14.84375 v -2.296875 h 20.67188 z m -3.5,-1.859375 h -2.26563 L 418.75,74.46875 q -0.90625,-1.703125 -1.64063,-2.703125 -0.75,-1 -1.40625,-1.515625 -0.67187,-0.53125 -1.3125,-0.671875 -0.64062,-0.15625 -1.34375,-0.15625 h -3.03125 v -2.53125 h 2.85938 q 0.90625,0 1.64062,0.15625 0.73438,0.140625 1.40625,0.53125 0.65625,0.375 1.29688,1.0625 0.625,0.671875 1.34375,1.75 0.71875,1.0625 1.57812,2.5625 0.84375,1.484375 1.9375,3.515625 z m 7.89062,19.296875 -2.5,7.6875 H 426 l 1.82812,-7.6875 z"
         id="path4" />
      <path
         d="m 69.8125,129 h -3.28125 v 21 h -2.578125 v -7.46875 l -0.0625,-0.0156 q -1.046875,0.9375 -2.34375,1.34375 -1.296875,0.39063 -2.5625,0.39063 -1.34375,0 -2.453125,-0.39063 -1.109375,-0.39062 -1.90625,-1.1875 -0.796875,-0.8125 -1.25,-2.03125 -0.4375,-1.23437 -0.4375,-2.92187 V 129 h -3.484375 v -2.29687 H 69.8125 Z m -5.859375,0 H 55.46875 v 8.57812 q 0,0.98438 0.15625,1.76563 0.171875,0.78125 0.5625,1.32812 0.40625,0.54688 1.0625,0.84375 0.65625,0.28125 1.640625,0.28125 1.609375,0 2.90625,-0.75 1.296875,-0.76562 2.15625,-2 z M 78.125,129 h -3.28125 v 21 h -2.5625 v -21 h -3.5625 v -2.29687 H 78.125 Z m 18.8125,0 h -3.28125 v 21 h -2.5625 v -5.57813 l -0.0625,-0.0156 q -0.3125,0.29687 -0.734375,0.625 -0.421875,0.3125 -0.96875,0.57812 -0.546875,0.25 -1.234375,0.42188 -0.671875,0.17187 -1.515625,0.17187 -1.546875,0 -2.828125,-0.59375 -1.265625,-0.59375 -2.1875,-1.57812 -0.921875,-1 -1.4375,-2.28125 -0.5,-1.29688 -0.5,-2.70313 0,-1.40625 0.5,-2.60937 0.515625,-1.21875 1.40625,-2.10938 0.890625,-0.89062 2.078125,-1.39062 1.1875,-0.51563 2.546875,-0.51563 0.375,0 0.9375,0.0625 0.578125,0.0625 1.234375,0.28125 0.65625,0.21875 1.359375,0.64063 0.703125,0.40625 1.34375,1.10937 L 91.09375,134.5 V 129 h -14.0625 v -2.29687 H 96.9375 Z m -5.78125,8.42187 q -0.984375,-1.1875 -2.140625,-1.90625 -1.15625,-0.73437 -2.625,-0.73437 -1.15625,0 -1.96875,0.4375 -0.796875,0.4375 -1.3125,1.10937 -0.515625,0.65625 -0.75,1.46875 -0.234375,0.8125 -0.234375,1.5625 0,0.8125 0.265625,1.60938 0.265625,0.79687 0.78125,1.4375 0.53125,0.625 1.3125,1.03125 0.78125,0.39062 1.828125,0.39062 1.078125,0 1.96875,-0.40625 0.890625,-0.42187 1.53125,-1.0625 0.640625,-0.64062 0.984375,-1.4375 Q 91.15625,140.125 91.15625,139.375 Z M 119.79688,129 h -3.28125 v 21.01562 h -2.5625 V 135.375 q -0.82813,-0.29688 -1.5625,-0.29688 -0.73438,0 -1.28125,0.28125 -0.54688,0.26563 -0.92188,0.71875 -0.35937,0.45313 -0.54687,1.0625 -0.1875,0.60938 -0.1875,1.28125 0,0.26563 0.0156,0.54688 0.0312,0.26562 0.0625,0.53125 h -2.39062 q -0.125,-0.90625 -0.29688,-1.73438 -0.15625,-0.82812 -0.46875,-1.45312 -0.29687,-0.625 -0.78125,-0.98438 -0.48437,-0.375 -1.25,-0.375 -0.73437,0 -1.26562,0.29688 -0.51563,0.29687 -0.85938,0.82812 -0.34375,0.53125 -0.51562,1.25 -0.15625,0.70313 -0.15625,1.53125 0,1.78125 0.60937,3.20313 0.60938,1.40625 1.64063,2.53125 1.04687,1.125 2.40625,2.01562 1.375,0.875 2.89062,1.60938 l -1.26562,2.15625 q -0.5625,-0.25 -1.45313,-0.75 -0.875,-0.5 -1.875,-1.23438 -0.98437,-0.73437 -1.98437,-1.71875 -1,-0.98437 -1.8125,-2.20312 -0.79688,-1.21875 -1.29688,-2.6875 -0.5,-1.46875 -0.5,-3.17188 0,-1.3125 0.375,-2.4375 0.375,-1.14062 1.0625,-1.96875 0.70313,-0.84375 1.6875,-1.3125 0.98438,-0.48437 2.1875,-0.48437 0.90625,0 1.5625,0.26562 0.65625,0.25 1.125,0.64063 0.48438,0.375 0.79688,0.82812 0.3125,0.4375 0.54687,0.82813 l 0.0781,-0.0156 q 0.29687,-0.65625 0.70312,-1.10937 0.42188,-0.45313 0.90625,-0.73438 0.5,-0.28125 1.04688,-0.40625 0.54687,-0.14062 1.09375,-0.14062 0.48437,0 0.95312,0.0937 0.48438,0.0781 0.92188,0.23437 V 129 H 95.84375 v -2.29687 h 23.95313 z m -3.5,-1.85937 h -2.26563 l -1.42187,-2.67188 q -0.90625,-1.70312 -1.64063,-2.70312 -0.75,-1 -1.40625,-1.51563 -0.67187,-0.53125 -1.3125,-0.67187 -0.64062,-0.15625 -1.34375,-0.15625 H 103.875 v -2.53125 h 2.85938 q 0.90625,0 1.64062,0.15625 0.73438,0.14062 1.40625,0.53125 0.65625,0.375 1.29688,1.0625 0.625,0.67187 1.34375,1.75 0.71875,1.0625 1.57812,2.5625 0.84375,1.48437 1.9375,3.51562 z M 136.875,129 h -3.28125 v 21 h -2.5625 v -21 h -3.5625 v -2.29687 h 3.5625 q -0.85938,-2.0625 -0.85938,-3.84375 0,-1.14063 0.375,-2.125 0.375,-0.98438 1.14063,-1.70313 0.78125,-0.71875 1.98437,-1.125 1.20313,-0.40625 2.85938,-0.40625 2.17187,0 4.17187,0.70313 2.01563,0.70312 3.9375,1.95312 1.92188,1.25 3.79688,2.96875 1.89062,1.71875 3.8125,3.75 h -2.71875 q -0.4375,-0.42187 -1.17188,-1.09375 -0.71875,-0.6875 -1.67187,-1.45312 -0.95313,-0.78125 -2.10938,-1.5625 -1.15625,-0.79688 -2.4375,-1.4375 -1.28125,-0.64063 -2.67187,-1.03125 -1.375,-0.40625 -2.78125,-0.40625 -1.14063,0 -1.92188,0.26562 -0.76562,0.26563 -1.25,0.73438 -0.46875,0.46875 -0.67187,1.10937 -0.20313,0.625 -0.20313,1.34375 0,1.40625 0.76563,3.35938 h 3.46875 z m 19.57812,0 h -3.28125 v 21 H 150.625 v -13.71875 h -5.07813 q -1.04687,0 -1.89062,0.14062 -0.84375,0.125 -1.4375,0.53125 -0.59375,0.39063 -0.92188,1.10938 -0.3125,0.70312 -0.3125,1.85937 0,1.5 0.48438,2.76563 0.5,1.26562 1.26562,2.32812 0.76563,1.04688 1.6875,1.9375 0.9375,0.89063 1.79688,1.64063 l -1.5625,1.78125 q -0.14063,-0.0781 -0.67188,-0.45313 -0.51562,-0.39062 -1.21875,-1.04687 -0.6875,-0.65625 -1.46875,-1.59375 -0.76562,-0.9375 -1.42187,-2.10938 -0.64063,-1.1875 -1.07813,-2.60937 -0.42187,-1.42188 -0.42187,-3.0625 0,-1.625 0.45312,-2.6875 0.46875,-1.07813 1.3125,-1.70313 0.84375,-0.64062 2.04688,-0.89062 1.20312,-0.25 2.6875,-0.25 h 5.75 V 129 h -14.84375 v -2.29687 h 20.67187 z m 21.64063,0 h -3.28125 v 21 h -2.59375 v -6.57813 l -0.0625,-0.0469 q -0.85938,0.78125 -1.6875,1.23437 -0.8125,0.4375 -1.53125,0.67188 -0.70313,0.21875 -1.28125,0.28125 -0.57813,0.0625 -0.95313,0.0625 -1.4375,0 -2.54687,-0.45313 -1.10938,-0.45312 -1.85938,-1.1875 -0.75,-0.75 -1.14062,-1.70312 -0.39063,-0.96875 -0.39063,-2 0,-1.07813 0.4375,-2.14063 0.45313,-1.0625 1.40625,-1.90625 l -0.0156,-0.0625 h -4.95313 V 133.875 h 12.5625 v 2.29687 h -1.60937 q -1.60938,0 -2.64063,0.42188 -1.03125,0.42187 -1.625,1.03125 -0.59375,0.60937 -0.82812,1.3125 -0.21875,0.6875 -0.21875,1.25 0,0.46875 0.15625,1.01562 0.15625,0.53125 0.51562,0.98438 0.375,0.45312 0.98438,0.75 0.625,0.29687 1.5625,0.29687 0.98437,0 1.82812,-0.3125 0.85938,-0.32812 1.57813,-0.84375 0.71875,-0.51562 1.29687,-1.15625 0.59375,-0.65625 1.01563,-1.29687 V 129 h -16.85938 v -2.29687 h 22.73438 z m -3.5,-1.85937 h -2.26563 l -1.42187,-2.67188 q -0.90625,-1.70312 -1.64063,-2.70312 -0.75,-1 -1.40625,-1.51563 -0.67187,-0.53125 -1.3125,-0.67187 -0.64062,-0.15625 -1.34375,-0.15625 h -3.03125 v -2.53125 h 2.85938 q 0.90625,0 1.64062,0.15625 0.73438,0.14062 1.40625,0.53125 0.65625,0.375 1.29688,1.0625 0.625,0.67187 1.34375,1.75 0.71875,1.0625 1.57812,2.5625 0.84375,1.48437 1.9375,3.51562 z m 7.89062,19.29687 -2.5,7.6875 h -1.82812 l 1.82812,-7.6875 z m 28.57813,-5.21875 q 0,0.67187 -0.29688,1.125 -0.28125,0.45312 -0.75,0.78125 -0.46875,0.3125 -1.0625,0.53125 -0.57812,0.20312 -1.15625,0.39062 -0.64062,0.20313 -1.17187,0.39063 -0.53125,0.1875 -0.90625,0.45312 -0.375,0.25 -0.59375,0.60938 -0.20313,0.35937 -0.20313,0.89062 0,0.9375 0.8125,1.46875 0.8125,0.51563 2.28125,0.51563 0.70313,0 1.39063,-0.125 0.6875,-0.125 1.45312,-0.375 l 0.54688,2.25 q -0.79688,0.28125 -1.57813,0.4375 -0.78125,0.15625 -1.64062,0.15625 -1.20313,0 -2.23438,-0.32813 -1.03125,-0.3125 -1.78125,-0.89062 -0.75,-0.57813 -1.17187,-1.375 -0.42188,-0.79688 -0.42188,-1.75 0,-1.01563 0.32813,-1.70313 0.34375,-0.6875 0.89062,-1.14062 0.54688,-0.46875 1.23438,-0.76563 0.70312,-0.29687 1.4375,-0.53125 0.48437,-0.15625 0.875,-0.26562 0.39062,-0.125 0.67187,-0.23438 0.28125,-0.10937 0.42188,-0.23437 0.15625,-0.125 0.15625,-0.3125 0,-0.21875 -0.29688,-0.46875 -0.28125,-0.25 -0.82812,-0.45313 -0.53125,-0.20312 -1.32813,-0.32812 -0.79687,-0.14063 -1.79687,-0.14063 -0.95313,0 -1.96875,0.17188 -1,0.17187 -1.82813,0.65625 -0.8125,0.48437 -1.34375,1.375 -0.53125,0.89062 -0.53125,2.3125 0,1.40625 0.51563,2.625 0.51562,1.21875 1.34375,2.23437 0.82812,1.01563 1.84375,1.84375 1.03125,0.82813 2.04687,1.45313 1.01563,0.625 1.90625,1.0625 0.90625,0.4375 1.46875,0.67187 l -1.03125,2.15625 q -1.21875,-0.54687 -2.48437,-1.20312 -1.25,-0.65625 -2.42188,-1.46875 -1.17187,-0.79688 -2.20312,-1.76563 -1.03125,-0.96875 -1.8125,-2.10937 -0.76563,-1.15625 -1.21875,-2.5 -0.4375,-1.35938 -0.4375,-2.9375 0,-1.5 0.35937,-2.5625 0.375,-1.07813 1.03125,-1.84375 -0.9375,-1.03125 -1.34375,-2.03125 -0.39062,-1.01563 -0.39062,-2.1875 0,-0.67188 0.15625,-1.26563 0.17187,-0.59375 0.59375,-1.03125 0.4375,-0.45312 1.20312,-0.71875 0.76563,-0.26562 1.98438,-0.26562 H 207.875 V 129 h -15.17188 v -2.29687 h 21.45313 V 129 h -3.71875 v 5.75 h -10 q -0.625,0 -1.04688,0.10937 -0.40625,0.0937 -0.65625,0.3125 -0.23437,0.20313 -0.34375,0.51563 -0.0937,0.29687 -0.0937,0.71875 0,0.53125 0.1875,1.04687 0.1875,0.5 0.70313,1.15625 0.64062,-0.375 1.32812,-0.59375 0.70313,-0.23437 1.375,-0.35937 0.6875,-0.14063 1.3125,-0.17188 0.625,-0.0469 1.14063,-0.0469 1.42187,0 2.64062,0.26562 1.23438,0.25 2.14063,0.73438 0.90625,0.48437 1.42187,1.1875 0.51563,0.70312 0.51563,1.59375 z M 234.07812,129 h -5.29687 v 6.85937 h -5.26563 q -2.45312,0 -3.70312,1.21875 -1.25,1.20313 -1.25,3.46875 0,1.28125 0.40625,2.26563 0.42187,0.98437 1.14062,1.65625 0.73438,0.65625 1.73438,1 1,0.34375 2.17187,0.34375 1.23438,0 1.98438,-0.375 -0.0625,-0.39063 -0.0937,-0.6875 -0.0312,-0.29688 -0.0312,-0.59375 0,-0.65625 0.15625,-1.34375 0.17187,-0.70313 0.5,-1.26563 0.34375,-0.57812 0.85937,-0.9375 0.53125,-0.35937 1.26563,-0.35937 0.45312,0 0.85937,0.15625 0.40625,0.15625 0.70313,0.48437 0.3125,0.3125 0.48437,0.79688 0.1875,0.48437 0.1875,1.125 0,0.64062 -0.17187,1.1875 -0.17188,0.53125 -0.45313,1 -0.26562,0.45312 -0.60937,0.85937 -0.34375,0.39063 -0.67188,0.71875 0.34375,0.75 0.71875,1.34375 0.39063,0.59375 0.79688,1.0625 0.42187,0.46875 0.84375,0.84375 0.42187,0.375 0.84375,0.70313 l -1.92188,2.01562 q -0.82812,-0.73437 -1.42187,-1.46875 -0.57813,-0.71875 -0.98438,-1.35937 -0.39062,-0.64063 -0.64062,-1.15625 -0.25,-0.51563 -0.40625,-0.82813 -1.07813,0.42188 -2.65625,0.42188 -2.03125,0 -3.54688,-0.65625 -1.51562,-0.67188 -2.53125,-1.78125 -1,-1.125 -1.5,-2.5625 -0.5,-1.4375 -0.5,-2.98438 0,-1.60937 0.51563,-2.82812 0.51562,-1.23438 1.4375,-2.0625 0.92187,-0.84375 2.1875,-1.26563 1.28125,-0.4375 2.79687,-0.4375 h 3.20313 V 129 H 213.0625 v -2.29687 h 21.01562 z m 19.90625,0 h -3.28125 v 21 h -2.5625 v -7.3125 l -0.0625,-0.0156 q -0.42187,0.34375 -1.01562,0.6875 -0.57813,0.32813 -1.29688,0.59375 -0.71875,0.25 -1.54687,0.42188 -0.82813,0.15625 -1.73438,0.15625 -1.8125,0 -3.10937,-0.65625 -1.28125,-0.65625 -2.15625,-1.75 -0.85938,-1.10938 -1.35938,-2.51563 -0.5,-1.42187 -0.71875,-2.95312 1.03125,-0.14063 1.76563,-0.48438 0.73437,-0.34375 1.1875,-0.8125 0.45312,-0.48437 0.65625,-1.04687 0.21875,-0.5625 0.21875,-1.125 0,-0.375 -0.0781,-0.84375 -0.0625,-0.46875 -0.23437,-1 -0.17188,-0.54688 -0.45313,-1.14063 Q 237.92187,129.60937 237.5,129 h -4.51563 v -2.29687 h 21 z m -13.71875,0 q 0.5625,0.95312 0.875,2.09375 0.32813,1.125 0.32813,2.21875 0,0.79687 -0.21875,1.54687 -0.20313,0.75 -0.64063,1.40625 -0.4375,0.64063 -1.09375,1.15625 -0.64062,0.5 -1.5,0.79688 0.25,1.04687 0.6875,1.79687 0.4375,0.73438 1.03125,1.21875 0.59375,0.46875 1.32813,0.6875 0.73437,0.21875 1.57812,0.21875 0.8125,0 1.59375,-0.1875 0.79688,-0.1875 1.5,-0.53125 0.71875,-0.35937 1.32813,-0.85937 0.60937,-0.5 1.07812,-1.125 V 129 Z m 22.03125,0 h -3.28125 v 21 h -2.5625 v -21 h -3.5625 v -2.29687 h 3.8125 q -0.28125,-1.59375 -0.71875,-2.71875 -0.4375,-1.14063 -0.95312,-1.89063 -0.51563,-0.76562 -1.07813,-1.20312 -0.5625,-0.4375 -1.07812,-0.65625 -0.53125,-0.21875 -0.98438,-0.28125 -0.46875,-0.0625 -0.76562,-0.0625 -0.96875,0 -1.54688,0.3125 -0.59375,0.29687 -0.90625,0.71875 -0.3125,0.42187 -0.40625,0.89062 -0.10937,0.45313 -0.10937,0.78125 0,0.125 0.0469,0.51563 0.0312,0.375 0.25,0.95312 0.20313,0.57813 0.64063,1.29688 0.4375,0.71875 1.23437,1.51562 h -2.65625 q -0.98437,-1.125 -1.46875,-2.32812 -0.5,-1.21875 -0.5,-2.35938 0,-0.95312 0.34375,-1.8125 0.34375,-0.85937 1.03125,-1.48437 0.6875,-0.64063 1.71875,-1.01563 1.03125,-0.375 2.39063,-0.375 1.875,0 3.23437,0.73438 1.35938,0.71875 2.28125,1.96875 0.9375,1.25 1.46875,2.9375 0.54688,1.67187 0.76563,3.5625 h 3.35937 z m 11.85938,7.1875 q 0.23437,0.73437 0.54687,1.60937 0.3125,0.85938 0.73438,1.75 0.4375,0.875 0.96875,1.70313 0.54687,0.82812 1.23437,1.46875 0.70313,0.64062 1.54688,1.03125 0.84375,0.375 1.875,0.375 1.01562,0 1.71875,-0.29688 0.70312,-0.29687 1.14062,-0.79687 0.4375,-0.5 0.625,-1.17188 0.20313,-0.67187 0.20313,-1.40625 0,-1.60937 -1.17188,-2.51562 -1.15625,-0.90625 -3.35937,-0.90625 -0.26563,0 -0.53125,0.0156 -0.26563,0.0156 -0.53125,0.0469 v -2.375 q 0.125,0.0156 0.21875,0.0156 0.10937,0 0.125,0 1.09375,0 1.9375,-0.26562 0.85937,-0.28125 1.4375,-0.75 0.57812,-0.46875 0.875,-1.09375 0.29687,-0.625 0.29687,-1.3125 0,-0.625 -0.21875,-1.10938 -0.21875,-0.48437 -0.59375,-0.8125 -0.375,-0.32812 -0.89062,-0.48437 -0.51563,-0.17188 -1.125,-0.17188 -0.42188,0 -0.8125,0.0625 -0.39063,0.0469 -0.82813,0.17188 -0.4375,0.10937 -0.9375,0.29687 -0.48437,0.1875 -1.10937,0.46875 l -0.89063,-2.14062 q 1.21875,-0.59375 2.34375,-0.89062 1.125,-0.3125 2.29688,-0.3125 1.125,0 2.07812,0.35937 0.96875,0.35938 1.65625,1 0.70313,0.625 1.09375,1.5 0.39063,0.875 0.39063,1.89062 0,2.79688 -2.67188,4.5 v 0.0625 q 1.04688,0.4375 1.75,1.07813 0.45313,0.0781 0.95313,0.125 0.51562,0.0469 0.9375,0.0469 0.4375,0 0.92187,-0.0625 0.48438,-0.0625 0.98438,-0.23437 0.51562,-0.17188 1.03125,-0.48438 0.53125,-0.3125 1.0625,-0.8125 v -8.65624 h 5.84375 V 129 h -3.28125 v 21 h -2.5625 v -11.875 l -0.0625,-0.0156 q -0.89063,0.59375 -1.67188,0.78125 -0.78125,0.1875 -1.60937,0.1875 -0.26563,0 -0.54688,-0.0156 Q 287.29687,139.03125 287,139 l -0.0156,0.0625 q 0.25,0.64062 0.25,1.57812 0,1.26563 -0.42187,2.34375 -0.42188,1.07813 -1.21875,1.875 -0.78125,0.78125 -1.90625,1.21875 -1.10938,0.4375 -2.5,0.4375 -1.48438,0 -2.6875,-0.51562 -1.1875,-0.53125 -2.15625,-1.35938 -0.95313,-0.82812 -1.67188,-1.85937 -0.71875,-1.04688 -1.23437,-2.09375 -0.51563,-1.04688 -0.84375,-1.98438 -0.32813,-0.95312 -0.48438,-1.57812 z M 305.625,129 h -3.28125 v 21 h -2.5625 v -21 h -3.5625 v -2.29687 h 9.40625 z m 19.4375,0 h -3.28125 v 21 h -2.57813 v -12.04688 h -7.3125 q 0,1.03125 -0.0312,1.76563 -0.0156,0.73437 -0.125,1.21875 -0.10937,0.46875 -0.32812,0.6875 -0.21875,0.21875 -0.60938,0.21875 -0.8125,0 -1.54687,-0.53125 -0.71875,-0.53125 -1.28125,-1.28125 -0.54688,-0.75 -0.875,-1.5625 -0.32813,-0.8125 -0.32813,-1.375 0,-0.5 0.21875,-0.78125 0.21875,-0.28125 0.57813,-0.42188 0.35937,-0.14062 0.8125,-0.17187 0.46875,-0.0312 0.9375,-0.0312 h 9.89062 V 129 h -14.67187 v -2.29687 h 20.53125 z m -6.48438,-7.0625 q 0,-0.89062 0.53125,-1.4375 0.51563,-0.5625 1.35938,-0.5625 0.39062,0 0.75,0.15625 0.34375,0.15625 0.60937,0.4375 0.26563,0.26563 0.42188,0.64063 0.14062,0.35937 0.14062,0.79687 0,0.89063 -0.51562,1.4375 -0.53125,0.54688 -1.375,0.54688 -0.40625,0 -0.75,-0.14063 -0.35938,-0.15625 -0.60938,-0.42187 -0.26562,-0.28125 -0.40625,-0.64063 -0.15625,-0.375 -0.15625,-0.8125 z M 344.98437,129 h -5.29687 v 6.85937 h -5.26563 q -2.45312,0 -3.70312,1.21875 -1.25,1.20313 -1.25,3.46875 0,1.28125 0.40625,2.26563 0.42187,0.98437 1.14062,1.65625 0.73438,0.65625 1.73438,1 1,0.34375 2.17187,0.34375 1.23438,0 1.98438,-0.375 -0.0625,-0.39063 -0.0937,-0.6875 -0.0312,-0.29688 -0.0312,-0.59375 0,-0.65625 0.15625,-1.34375 0.17187,-0.70313 0.5,-1.26563 0.34375,-0.57812 0.85937,-0.9375 0.53125,-0.35937 1.26563,-0.35937 0.45312,0 0.85937,0.15625 0.40625,0.15625 0.70313,0.48437 0.3125,0.3125 0.48437,0.79688 0.1875,0.48437 0.1875,1.125 0,0.64062 -0.17187,1.1875 -0.17188,0.53125 -0.45313,1 -0.26562,0.45312 -0.60937,0.85937 -0.34375,0.39063 -0.67188,0.71875 0.34375,0.75 0.71875,1.34375 0.39063,0.59375 0.79688,1.0625 0.42187,0.46875 0.84375,0.84375 0.42187,0.375 0.84375,0.70313 l -1.92188,2.01562 q -0.82812,-0.73437 -1.42187,-1.46875 -0.57813,-0.71875 -0.98438,-1.35937 -0.39062,-0.64063 -0.64062,-1.15625 -0.25,-0.51563 -0.40625,-0.82813 -1.07813,0.42188 -2.65625,0.42188 -2.03125,0 -3.54688,-0.65625 -1.51562,-0.67188 -2.53125,-1.78125 -1,-1.125 -1.5,-2.5625 -0.5,-1.4375 -0.5,-2.98438 0,-1.60937 0.51563,-2.82812 0.51562,-1.23438 1.4375,-2.0625 0.92187,-0.84375 2.1875,-1.26563 1.28125,-0.4375 2.79687,-0.4375 H 337.125 V 129 h -13.15625 v -2.29687 h 21.01562 z m 17.07813,0 h -3.28125 v 21 h -2.5625 v -21 h -3.5625 v -2.29687 h 3.5625 q -0.85938,-2.0625 -0.85938,-3.84375 0,-1.14063 0.375,-2.125 0.375,-0.98438 1.14063,-1.70313 0.78125,-0.71875 1.98437,-1.125 1.20313,-0.40625 2.85938,-0.40625 2.17187,0 4.17187,0.70313 2.01563,0.70312 3.9375,1.95312 1.92188,1.25 3.79688,2.96875 1.89062,1.71875 3.8125,3.75 h -2.71875 q -0.4375,-0.42187 -1.17188,-1.09375 -0.71875,-0.6875 -1.67187,-1.45312 -0.95313,-0.78125 -2.10938,-1.5625 -1.15625,-0.79688 -2.4375,-1.4375 -1.28125,-0.64063 -2.67187,-1.03125 -1.375,-0.40625 -2.78125,-0.40625 -1.14063,0 -1.92188,0.26562 -0.76562,0.26563 -1.25,0.73438 -0.46875,0.46875 -0.67187,1.10937 -0.20313,0.625 -0.20313,1.34375 0,1.40625 0.76563,3.35938 h 3.46875 z m 19.4375,0 h -3.28125 v 21 h -2.57813 v -12.04688 h -7.3125 q 0,1.03125 -0.0312,1.76563 -0.0156,0.73437 -0.125,1.21875 -0.10937,0.46875 -0.32812,0.6875 -0.21875,0.21875 -0.60938,0.21875 -0.8125,0 -1.54687,-0.53125 -0.71875,-0.53125 -1.28125,-1.28125 -0.54688,-0.75 -0.875,-1.5625 -0.32813,-0.8125 -0.32813,-1.375 0,-0.5 0.21875,-0.78125 0.21875,-0.28125 0.57813,-0.42188 0.35937,-0.14062 0.8125,-0.17187 0.46875,-0.0312 0.9375,-0.0312 h 9.89062 V 129 h -14.67187 v -2.29687 H 381.5 Z m 21.54687,0 h -3.28125 v 21 h -2.5625 v -8.76563 h -8.59375 v 1.85938 q 0,0.48437 -0.0469,0.85937 -0.0312,0.375 -0.17188,0.625 -0.125,0.25 -0.375,0.39063 -0.23437,0.125 -0.64062,0.125 -0.40625,0 -0.90625,-0.23438 -0.5,-0.25 -1.01563,-0.65625 -0.51562,-0.42187 -1,-0.9375 -0.48437,-0.53125 -0.875,-1.09375 -0.375,-0.57812 -0.60937,-1.14062 -0.23438,-0.5625 -0.23438,-1.03125 0,-0.32813 0.10938,-0.53125 0.125,-0.21875 0.32812,-0.32813 0.21875,-0.10937 0.51563,-0.14062 0.29687,-0.0469 0.67187,-0.0469 h 1.6875 V 129 h -5.64062 v -2.29687 h 22.64062 z m -14.4375,0 v 9.95312 h 8.59375 V 129 Z m 22.75,0 h -3.28125 v 21 h -2.5625 v -21 h -3.5625 v -2.29687 h 9.40625 z m -0.73437,-9.125 q -0.6875,-0.78125 -1.28125,-1.14062 -0.59375,-0.35938 -1.39063,-0.35938 -1.21875,0 -1.95312,0.84375 -0.73438,0.82813 -0.73438,2.34375 0,0.625 0.14063,1.3125 0.14062,0.67188 0.40625,1.35938 0.26562,0.6875 0.65625,1.35937 0.39062,0.67188 0.89062,1.28125 h -2.59375 q -0.9375,-1.32812 -1.40625,-2.71875 -0.46875,-1.40625 -0.46875,-2.73437 0,-1.28125 0.42188,-2.29688 0.40625,-1.01562 1.09375,-1.70312 0.6875,-0.6875 1.60937,-1.04688 0.90625,-0.375 1.92188,-0.375 1.35937,0 2.42187,0.54688 1.07813,0.53125 2.01563,1.71875 z M 435.07812,129 h -3.28125 v 21 h -2.5625 v -21 h -3.875 v 9.67187 q 0,1.625 -0.45312,2.79688 -0.4375,1.17187 -1.21875,1.9375 -0.76563,0.76562 -1.79688,1.14062 -1.03125,0.35938 -2.21875,0.35938 -1.32812,0 -2.40625,-0.42188 -1.0625,-0.42187 -1.8125,-1.25 -0.75,-0.82812 -1.15625,-2.04687 -0.40625,-1.23438 -0.40625,-2.82813 V 129 h -3.625 v -2.29687 h 24.8125 z m -18.59375,0 v 9.84375 q 0,0.71875 0.15625,1.39062 0.17188,0.65625 0.53125,1.17188 0.375,0.51562 0.96875,0.82812 0.60938,0.3125 1.48438,0.3125 0.89062,0 1.48437,-0.3125 0.60938,-0.3125 0.98438,-0.82812 0.375,-0.51563 0.53125,-1.17188 0.17187,-0.67187 0.17187,-1.39062 V 129 Z m 54.98438,0 h -13.20313 v 6.15625 l 0.0781,0.0312 q 0.79687,-1.09375 1.98437,-1.75 1.1875,-0.67188 2.60938,-0.67188 1.125,0 2.07812,0.46875 0.96875,0.45313 1.67188,1.26563 0.70312,0.79687 1.09375,1.89062 0.40625,1.09375 0.40625,2.35938 0,1.4375 -0.5,2.65625 -0.5,1.20312 -1.28125,2.1875 -0.78125,0.98437 -1.76563,1.75 -0.98437,0.75 -1.9375,1.28125 l -1.39062,-2.40625 q 0.3125,-0.17188 0.76562,-0.45313 0.45313,-0.28125 0.9375,-0.65625 0.5,-0.375 0.96875,-0.84375 0.48438,-0.48437 0.85938,-1.04687 0.39062,-0.5625 0.625,-1.21875 0.23437,-0.65625 0.23437,-1.39063 0,-0.67187 -0.21875,-1.28125 -0.20312,-0.60937 -0.57812,-1.0625 -0.375,-0.45312 -0.90625,-0.71875 -0.51563,-0.26562 -1.14063,-0.26562 -0.8125,0 -1.57812,0.42187 -0.76563,0.42188 -1.39063,1.0625 -0.625,0.625 -1.0625,1.34375 -0.42187,0.71875 -0.5625,1.32813 V 150 h -2.5625 v -5.98438 l -0.0625,-0.0312 q -0.23437,0.20313 -0.59375,0.5 -0.35937,0.28125 -0.875,0.54688 -0.5,0.26562 -1.17187,0.45312 -0.65625,0.1875 -1.48438,0.1875 -1.375,0 -2.54687,-0.53125 -1.15625,-0.53125 -2.01563,-1.4375 -0.84375,-0.92187 -1.32812,-2.15625 -0.48438,-1.23437 -0.48438,-2.64062 0,-1.34375 0.4375,-2.48438 0.45313,-1.14062 1.21875,-1.95312 0.78125,-0.82813 1.8125,-1.28125 1.04688,-0.46875 2.25,-0.46875 0.84375,0 1.5625,0.21875 0.73438,0.20312 1.32813,0.51562 0.60937,0.29688 1.07812,0.65625 0.48438,0.34375 0.8125,0.625 l 0.0625,-0.0156 V 129 H 442.75 v -2.29687 h 28.71875 z m -20.23438,6.15625 q -0.89062,0 -1.57812,0.375 -0.67188,0.35937 -1.125,0.9375 -0.45313,0.5625 -0.6875,1.28125 -0.21875,0.70312 -0.21875,1.39062 0,0.75 0.26562,1.5 0.26563,0.73438 0.75,1.32813 0.5,0.59375 1.1875,0.96875 0.6875,0.35937 1.51563,0.35937 0.70312,0 1.46875,-0.28125 0.78125,-0.29687 1.42187,-0.90625 0.65625,-0.60937 1.07813,-1.54687 0.42187,-0.95313 0.42187,-2.26563 v -0.76562 q -0.375,-0.46875 -0.89062,-0.89063 -0.5,-0.4375 -1.09375,-0.76562 -0.57813,-0.32813 -1.21875,-0.51563 -0.64063,-0.20312 -1.29688,-0.20312 z M 487.10937,129 h -5.89062 q 0.79687,1.375 1.28125,2.8125 0.5,1.42187 0.5,2.89062 0,1.10938 -0.34375,2.14063 -0.32813,1.01562 -0.98438,1.82812 -0.64062,0.79688 -1.60937,1.3125 -0.95313,0.5 -2.20313,0.5625 l -0.0312,0.0781 q 1.40625,2.1875 3.15625,4.14062 1.75,1.9375 4.04688,3.6875 l -1.67188,1.92188 q -1.32812,-0.98438 -2.53125,-2.125 -1.1875,-1.15625 -2.25,-2.375 -1.0625,-1.23438 -1.98437,-2.48438 -0.90625,-1.26562 -1.67188,-2.45312 -0.75,-1.20313 -1.34375,-2.29688 -0.59375,-1.10937 -1.01562,-2.01562 l 2.14062,-1.15625 q 0.5625,1.21875 1.26563,1.92187 0.71875,0.6875 1.65625,0.6875 0.67187,0 1.20312,-0.34375 0.53125,-0.34375 0.89063,-0.875 0.35937,-0.54687 0.54687,-1.1875 0.1875,-0.65625 0.1875,-1.28125 0,-0.73437 -0.1875,-1.4375 -0.1875,-0.71875 -0.48437,-1.39062 -0.29688,-0.6875 -0.67188,-1.32813 Q 478.75,129.59375 478.40625,129 H 470.375 v -2.29687 h 16.73437 z m 19.57813,0 h -3.28125 v 21 h -2.54688 v -13.71875 h -5.07812 q -1.04688,0 -1.89063,0.14062 -0.84375,0.125 -1.4375,0.53125 -0.59375,0.39063 -0.92187,1.10938 -0.3125,0.70312 -0.3125,1.85937 0,1.5 0.48437,2.76563 0.5,1.26562 1.26563,2.32812 0.76562,1.04688 1.6875,1.9375 0.9375,0.89063 1.79687,1.64063 l -1.5625,1.78125 q -0.14062,-0.0781 -0.67187,-0.45313 -0.51563,-0.39062 -1.21875,-1.04687 -0.6875,-0.65625 -1.46875,-1.59375 -0.76563,-0.9375 -1.42188,-2.10938 -0.64062,-1.1875 -1.07812,-2.60937 -0.42188,-1.42188 -0.42188,-3.0625 0,-1.625 0.45313,-2.6875 0.46875,-1.07813 1.3125,-1.70313 0.84375,-0.64062 2.04687,-0.89062 1.20313,-0.25 2.6875,-0.25 h 5.75 V 129 h -14.84375 v -2.29687 h 20.67188 z m -3.5,-1.85937 h -2.26563 L 499.5,124.46875 q -0.90625,-1.70312 -1.64063,-2.70312 -0.75,-1 -1.40625,-1.51563 -0.67187,-0.53125 -1.3125,-0.67187 -0.64062,-0.15625 -1.34375,-0.15625 h -3.03125 v -2.53125 h 2.85938 q 0.90625,0 1.64062,0.15625 0.73438,0.14062 1.40625,0.53125 0.65625,0.375 1.29688,1.0625 0.625,0.67187 1.34375,1.75 0.71875,1.0625 1.57812,2.5625 0.84375,1.48437 1.9375,3.51562 z m 6.4375,23.20312 q -0.71875,0 -1.23438,-0.51563 -0.5,-0.51562 -0.5,-1.23437 0,-0.71875 0.5,-1.23438 0.51563,-0.53125 1.23438,-0.53125 0.73437,0 1.25,0.53125 0.51562,0.51563 0.51562,1.23438 0,0.71875 -0.51562,1.23437 -0.51563,0.51563 -1.25,0.51563 z"
         id="path5" />
      <path
         d="m 69.984375,179 h -3.28125 v 21 H 64.125 v -12.04688 h -7.3125 q 0,1.03125 -0.03125,1.76563 -0.01563,0.73437 -0.125,1.21875 -0.109375,0.46875 -0.328125,0.6875 -0.21875,0.21875 -0.609375,0.21875 -0.8125,0 -1.546875,-0.53125 -0.71875,-0.53125 -1.28125,-1.28125 -0.546875,-0.75 -0.875,-1.5625 -0.328125,-0.8125 -0.328125,-1.375 0,-0.5 0.21875,-0.78125 0.21875,-0.28125 0.578125,-0.42188 0.359375,-0.14062 0.8125,-0.17187 0.46875,-0.0312 0.9375,-0.0312 H 64.125 V 179 H 49.453125 v -2.29688 h 20.53125 z m -3.28125,22.54687 H 65 q -1.484375,0 -2.203125,0.60938 -0.734375,0.625 -0.734375,1.51562 0,0.95313 0.78125,1.46875 0.765625,0.51563 2.234375,0.51563 0.703125,0 1.390625,-0.125 0.6875,-0.125 1.453125,-0.375 l 0.546875,2.25 q -0.796875,0.28125 -1.578125,0.4375 Q 66.109375,208 65.21875,208 64.015625,208 63.015625,207.6875 62,207.375 61.28125,206.79687 q -0.734375,-0.57812 -1.140625,-1.42187 -0.421875,-0.82813 -0.421875,-1.89063 0,-1.10937 0.4375,-1.92187 0.4375,-0.79688 1.15625,-1.32813 0.71875,-0.51562 1.65625,-0.76562 0.921875,-0.25 1.921875,-0.25 h 1.8125 z M 98.640625,179 h -3.28125 v 21 h -2.5625 v -7.3125 l -0.0625,-0.0156 q -0.421875,0.34375 -1.015625,0.6875 -0.578125,0.32813 -1.296875,0.59375 -0.71875,0.25 -1.546875,0.42188 -0.828125,0.15625 -1.734375,0.15625 -1.46875,0 -2.515625,-0.40625 -1.03125,-0.40625 -1.78125,-1.04688 -0.734375,-0.65625 -1.265625,-1.46875 Q 81.0625,190.78125 80.625,189.95312 80.265625,189.28125 79.890625,188.6875 79.53125,188.07812 79.078125,187.625 78.625,187.15625 78.0625,186.89062 77.5,186.60937 76.75,186.60937 q -1.375,0 -2.015625,0.92188 -0.640625,0.90625 -0.640625,2.45312 0,1.48438 0.5,2.75 0.515625,1.25 1.28125,2.3125 0.78125,1.0625 1.703125,1.95313 0.921875,0.875 1.75,1.59375 l -1.5625,1.78125 Q 77.625,200.29687 77.09375,199.90625 76.578125,199.5 75.875,198.82812 q -0.6875,-0.6875 -1.46875,-1.625 -0.765625,-0.95312 -1.421875,-2.10937 -0.640625,-1.17188 -1.078125,-2.54688 -0.421875,-1.375 -0.421875,-2.90625 0,-1.5 0.453125,-2.54687 0.453125,-1.0625 1.171875,-1.71875 0.734375,-0.67188 1.625,-0.98438 0.890625,-0.3125 1.78125,-0.3125 1.171875,0 2.3125,0.5 1.15625,0.5 2.28125,1.78125 0.671875,-0.23437 1.140625,-0.57812 0.484375,-0.35938 0.78125,-0.76563 0.3125,-0.42187 0.453125,-0.89062 0.140625,-0.46875 0.140625,-0.9375 0,-0.375 -0.07813,-0.84375 -0.0625,-0.46875 -0.234375,-1 -0.171875,-0.54688 -0.453125,-1.14063 Q 82.578125,179.60937 82.15625,179 H 68.890625 v -2.29688 h 29.75 z m -13.71875,0 q 0.5625,0.95312 0.875,2.09375 0.328125,1.125 0.328125,2.21875 0,0.79687 -0.21875,1.54687 -0.203125,0.75 -0.640625,1.40625 -0.4375,0.64063 -1.09375,1.15625 -0.640625,0.5 -1.5,0.79688 0.25,1.04687 0.6875,1.79687 0.4375,0.73438 1.03125,1.21875 0.59375,0.46875 1.328125,0.6875 0.734375,0.21875 1.578125,0.21875 0.8125,0 1.59375,-0.1875 0.796875,-0.1875 1.5,-0.53125 0.71875,-0.35937 1.328125,-0.85937 0.609375,-0.5 1.078125,-1.125 V 179 Z m 22.031255,0 h -3.28125 v 21 h -2.5625 v -21 h -3.562505 v -2.29688 h 9.406255 z m 12.98437,0 h -14.07812 v -2.29688 h 14.07812 z m 3.75,13.45312 q -1.09375,1.125 -2.10937,1.76563 -1,0.64062 -1.85938,0.95312 -0.84375,0.3125 -1.5,0.39063 -0.64062,0.0625 -1.01562,0.0625 -1.4375,0 -2.54688,-0.45313 -1.10937,-0.45312 -1.85937,-1.1875 -0.75,-0.75 -1.14063,-1.70312 -0.39062,-0.96875 -0.39062,-2 0,-1.07813 0.4375,-2.14063 0.45312,-1.0625 1.40625,-1.90625 l -0.0156,-0.0625 h -4.95312 V 183.875 h 12.25 v 2.29687 h -1.29688 q -1.60937,0 -2.64062,0.42188 -1.03125,0.42187 -1.625,1.03125 -0.59375,0.60937 -0.82813,1.3125 -0.21875,0.6875 -0.21875,1.25 0,0.46875 0.15625,1.01562 0.15625,0.53125 0.51563,0.98438 0.375,0.45312 0.98437,0.75 0.625,0.29687 1.5625,0.29687 0.98438,0 1.82813,-0.3125 0.85937,-0.32812 1.57812,-0.82812 0.71875,-0.5 1.29688,-1.10938 0.59375,-0.60937 1.01562,-1.20312 z M 140.15625,179 H 136.875 v 21 h -2.5625 v -7.3125 l -0.0625,-0.0156 q -0.42188,0.34375 -1.01563,0.6875 -0.57812,0.32813 -1.29687,0.59375 -0.71875,0.25 -1.54688,0.42188 -0.82812,0.15625 -1.73437,0.15625 -1.8125,0 -3.10937,-0.65625 -1.28125,-0.65625 -2.15625,-1.75 -0.85938,-1.10938 -1.35938,-2.51563 -0.5,-1.42187 -0.71875,-2.95312 1.03125,-0.14063 1.76563,-0.48438 0.73437,-0.34375 1.1875,-0.8125 0.45312,-0.48437 0.65625,-1.04687 0.21875,-0.5625 0.21875,-1.125 0,-0.375 -0.0781,-0.84375 -0.0625,-0.46875 -0.23437,-1 -0.17188,-0.54688 -0.45313,-1.14063 -0.28125,-0.59375 -0.70312,-1.20312 h -4.51563 v -2.29688 h 21 z m -13.71875,0 q 0.5625,0.95312 0.875,2.09375 0.32813,1.125 0.32813,2.21875 0,0.79687 -0.21875,1.54687 -0.20313,0.75 -0.64063,1.40625 -0.4375,0.64063 -1.09375,1.15625 -0.64062,0.5 -1.5,0.79688 0.25,1.04687 0.6875,1.79687 0.4375,0.73438 1.03125,1.21875 0.59375,0.46875 1.32813,0.6875 0.73437,0.21875 1.57812,0.21875 0.8125,0 1.59375,-0.1875 0.79687,-0.1875 1.5,-0.53125 0.71875,-0.35937 1.32812,-0.85937 0.60938,-0.5 1.07813,-1.125 V 179 Z m 22.03125,0 h -3.28125 v 21 h -2.5625 v -21 h -3.5625 v -2.29688 h 9.40625 z m 31.625,0 h -3.28125 v 21.01562 H 174.25 V 185.375 q -0.82813,-0.29688 -1.5625,-0.29688 -0.73438,0 -1.28125,0.28125 -0.54688,0.26563 -0.92188,0.71875 -0.35937,0.45313 -0.54687,1.0625 -0.1875,0.60938 -0.1875,1.28125 0,0.26563 0.0156,0.54688 0.0312,0.26562 0.0625,0.53125 h -2.39062 q -0.125,-0.90625 -0.29688,-1.73438 -0.15625,-0.82812 -0.46875,-1.45312 -0.29687,-0.625 -0.78125,-0.98438 -0.48437,-0.375 -1.25,-0.375 -0.73437,0 -1.26562,0.29688 -0.51563,0.29687 -0.85938,0.82812 -0.34375,0.53125 -0.51562,1.25 -0.15625,0.70313 -0.15625,1.53125 0,1.78125 0.60937,3.20313 0.60938,1.40625 1.64063,2.53125 1.04687,1.125 2.40625,2.01562 1.375,0.875 2.89062,1.60938 L 168.125,200.375 q -0.5625,-0.25 -1.45313,-0.75 -0.875,-0.5 -1.875,-1.23438 -0.98437,-0.73437 -1.98437,-1.71875 -1,-0.98437 -1.8125,-2.20312 -0.79688,-1.21875 -1.29688,-2.6875 -0.5,-1.46875 -0.5,-3.17188 0,-1.3125 0.375,-2.4375 0.375,-1.14062 1.0625,-1.96875 0.70313,-0.84375 1.6875,-1.3125 0.98438,-0.48437 2.1875,-0.48437 0.90625,0 1.5625,0.26562 0.65625,0.25 1.125,0.64063 0.48438,0.375 0.79688,0.82812 0.3125,0.4375 0.54687,0.82813 l 0.0781,-0.0156 q 0.29687,-0.65625 0.70312,-1.10937 0.42188,-0.45313 0.90625,-0.73438 0.5,-0.28125 1.04688,-0.40625 0.54687,-0.14062 1.09375,-0.14062 0.48437,0 0.95312,0.0937 0.48438,0.0781 0.92188,0.23437 V 179 h -18.10938 v -2.29688 h 23.95313 z M 200,179 h -3.28125 v 21 h -2.5625 v -7.3125 l -0.0625,-0.0156 q -0.42188,0.34375 -1.01563,0.6875 -0.57812,0.32813 -1.29687,0.59375 -0.71875,0.25 -1.54688,0.42188 -0.82812,0.15625 -1.73437,0.15625 -1.8125,0 -3.10938,-0.65625 -1.28125,-0.65625 -2.15625,-1.75 -0.85937,-1.10938 -1.35937,-2.51563 -0.5,-1.42187 -0.71875,-2.95312 1.03125,-0.14063 1.76562,-0.48438 0.73438,-0.34375 1.1875,-0.8125 0.45313,-0.48437 0.65625,-1.04687 0.21875,-0.5625 0.21875,-1.125 0,-0.375 -0.0781,-0.84375 -0.0625,-0.46875 -0.23438,-1 Q 184.5,180.79687 184.21875,180.20312 183.9375,179.60937 183.51562,179 H 179 v -2.29688 h 21 z m -13.71875,0 q 0.5625,0.95312 0.875,2.09375 0.32812,1.125 0.32812,2.21875 0,0.79687 -0.21875,1.54687 -0.20312,0.75 -0.64062,1.40625 -0.4375,0.64063 -1.09375,1.15625 -0.64063,0.5 -1.5,0.79688 0.25,1.04687 0.6875,1.79687 0.4375,0.73438 1.03125,1.21875 0.59375,0.46875 1.32812,0.6875 0.73438,0.21875 1.57813,0.21875 0.8125,0 1.59375,-0.1875 0.79687,-0.1875 1.5,-0.53125 0.71875,-0.35937 1.32812,-0.85937 0.60938,-0.5 1.07813,-1.125 V 179 Z m 22.03125,0 h -3.28125 v 21 h -2.5625 v -21 h -3.5625 v -2.29688 h 3.8125 Q 202.4375,175.10937 202,173.98437 q -0.4375,-1.14062 -0.95313,-1.89062 -0.51562,-0.76563 -1.07812,-1.20313 -0.5625,-0.4375 -1.07813,-0.65625 -0.53125,-0.21875 -0.98437,-0.28125 -0.46875,-0.0625 -0.76563,-0.0625 -0.96875,0 -1.54687,0.3125 Q 195,170.5 194.6875,170.92187 q -0.3125,0.42188 -0.40625,0.89063 -0.10938,0.45312 -0.10938,0.78125 0,0.125 0.0469,0.51562 0.0312,0.375 0.25,0.95313 0.20312,0.57812 0.64062,1.29687 0.4375,0.71875 1.23438,1.51563 h -2.65625 q -0.98438,-1.125 -1.46875,-2.32813 -0.5,-1.21875 -0.5,-2.35937 0,-0.95313 0.34375,-1.8125 0.34375,-0.85938 1.03125,-1.48438 0.6875,-0.64062 1.71875,-1.01562 1.03125,-0.375 2.39062,-0.375 1.875,0 3.23438,0.73437 1.35937,0.71875 2.28125,1.96875 0.9375,1.25 1.46875,2.9375 0.54687,1.67188 0.76562,3.5625 h 3.35938 z m 19.57812,0 h -3.28125 v 21 h -2.54687 v -13.71875 h -5.07813 q -1.04687,0 -1.89062,0.14062 -0.84375,0.125 -1.4375,0.53125 -0.59375,0.39063 -0.92188,1.10938 -0.3125,0.70312 -0.3125,1.85937 0,1.5 0.48438,2.76563 0.5,1.26562 1.26562,2.32812 0.76563,1.04688 1.6875,1.9375 0.9375,0.89063 1.79688,1.64063 l -1.5625,1.78125 q -0.14063,-0.0781 -0.67188,-0.45313 -0.51562,-0.39062 -1.21875,-1.04687 -0.6875,-0.65625 -1.46875,-1.59375 -0.76562,-0.9375 -1.42187,-2.10938 -0.64063,-1.1875 -1.07813,-2.60937 -0.42187,-1.42188 -0.42187,-3.0625 0,-1.625 0.45312,-2.6875 0.46875,-1.07813 1.3125,-1.70313 0.84375,-0.64062 2.04688,-0.89062 1.20312,-0.25 2.6875,-0.25 h 5.75 V 179 h -14.84375 v -2.29688 h 20.67187 z m 4.39063,17.4375 -2.5,7.6875 h -1.82813 l 1.82813,-7.6875 z M 263.17187,179 h -3.28125 v 21 h -2.54687 v -13.71875 h -5.07813 q -1.04687,0 -1.89062,0.14062 -0.84375,0.125 -1.4375,0.53125 -0.59375,0.39063 -0.92188,1.10938 -0.3125,0.70312 -0.3125,1.85937 0,1.5 0.48438,2.76563 0.5,1.26562 1.26562,2.32812 0.76563,1.04688 1.6875,1.9375 0.9375,0.89063 1.79688,1.64063 l -1.5625,1.78125 q -0.14063,-0.0781 -0.67188,-0.45313 -0.51562,-0.39062 -1.21875,-1.04687 -0.6875,-0.65625 -1.46875,-1.59375 -0.76562,-0.9375 -1.42187,-2.10938 -0.64063,-1.1875 -1.07813,-2.60937 -0.42187,-1.42188 -0.42187,-3.0625 0,-1.625 0.45312,-2.6875 0.46875,-1.07813 1.3125,-1.70313 0.84375,-0.64062 2.04688,-0.89062 1.20312,-0.25 2.6875,-0.25 h 5.75 V 179 H 242.5 v -2.29688 h 20.67187 z m 8.3125,0 h -3.28125 v 21 h -2.5625 v -21 h -3.5625 v -2.29688 h 3.8125 q -0.28125,-1.59375 -0.71875,-2.71875 -0.4375,-1.14062 -0.95312,-1.89062 -0.51563,-0.76563 -1.07813,-1.20313 -0.5625,-0.4375 -1.07812,-0.65625 -0.53125,-0.21875 -0.98438,-0.28125 -0.46875,-0.0625 -0.76562,-0.0625 -0.96875,0 -1.54688,0.3125 -0.59375,0.29688 -0.90625,0.71875 -0.3125,0.42188 -0.40625,0.89063 -0.10937,0.45312 -0.10937,0.78125 0,0.125 0.0469,0.51562 0.0312,0.375 0.25,0.95313 0.20313,0.57812 0.64063,1.29687 0.4375,0.71875 1.23437,1.51563 h -2.65625 q -0.98437,-1.125 -1.46875,-2.32813 -0.5,-1.21875 -0.5,-2.35937 0,-0.95313 0.34375,-1.8125 0.34375,-0.85938 1.03125,-1.48438 0.6875,-0.64062 1.71875,-1.01562 1.03125,-0.375 2.39063,-0.375 1.875,0 3.23437,0.73437 1.35938,0.71875 2.28125,1.96875 0.9375,1.25 1.46875,2.9375 0.54688,1.67188 0.76563,3.5625 h 3.35937 z m 17.07813,0 h -3.28125 v 21 h -2.5625 v -21 h -3.5625 v -2.29688 h 3.5625 q -0.85938,-2.0625 -0.85938,-3.84375 0,-1.14062 0.375,-2.125 0.375,-0.98437 1.14063,-1.70312 0.78125,-0.71875 1.98437,-1.125 1.20313,-0.40625 2.85938,-0.40625 2.17187,0 4.17187,0.70312 2.01563,0.70313 3.9375,1.95313 1.92188,1.25 3.79688,2.96875 1.89062,1.71875 3.8125,3.75 h -2.71875 q -0.4375,-0.42188 -1.17188,-1.09375 -0.71875,-0.6875 -1.67187,-1.45313 -0.95313,-0.78125 -2.10938,-1.5625 -1.15625,-0.79687 -2.4375,-1.4375 -1.28125,-0.64062 -2.67187,-1.03125 -1.375,-0.40625 -2.78125,-0.40625 -1.14063,0 -1.92188,0.26563 -0.76562,0.26562 -1.25,0.73437 -0.46875,0.46875 -0.67187,1.10938 -0.20313,0.625 -0.20313,1.34375 0,1.40625 0.76563,3.35937 h 3.46875 z m 18.8125,0 h -3.28125 v 21 h -2.5625 v -5.57813 l -0.0625,-0.0156 q -0.3125,0.29687 -0.73438,0.625 -0.42187,0.3125 -0.96875,0.57812 -0.54687,0.25 -1.23437,0.42188 -0.67188,0.17187 -1.51563,0.17187 -1.54687,0 -2.82812,-0.59375 -1.26563,-0.59375 -2.1875,-1.57812 -0.92188,-1 -1.4375,-2.28125 -0.5,-1.29688 -0.5,-2.70313 0,-1.40625 0.5,-2.60937 0.51562,-1.21875 1.40625,-2.10938 0.89062,-0.89062 2.07812,-1.39062 1.1875,-0.51563 2.54688,-0.51563 0.375,0 0.9375,0.0625 0.57812,0.0625 1.23437,0.28125 0.65625,0.21875 1.35938,0.64063 0.70312,0.40625 1.34375,1.10937 l 0.0625,-0.0156 V 179 h -14.0625 v -2.29688 H 307.375 Z m -5.78125,8.42187 q -0.98438,-1.1875 -2.14063,-1.90625 -1.15625,-0.73437 -2.625,-0.73437 -1.15625,0 -1.96875,0.4375 -0.79687,0.4375 -1.3125,1.10937 -0.51562,0.65625 -0.75,1.46875 -0.23437,0.8125 -0.23437,1.5625 0,0.8125 0.26562,1.60938 0.26563,0.79687 0.78125,1.4375 0.53125,0.625 1.3125,1.03125 0.78125,0.39062 1.82813,0.39062 1.07812,0 1.96875,-0.40625 0.89062,-0.42187 1.53125,-1.0625 0.64062,-0.64062 0.98437,-1.4375 0.35938,-0.79687 0.35938,-1.54687 z M 330.23437,179 h -3.28125 v 21.01562 h -2.5625 V 185.375 q -0.82812,-0.29688 -1.5625,-0.29688 -0.73437,0 -1.28125,0.28125 -0.54687,0.26563 -0.92187,0.71875 -0.35938,0.45313 -0.54688,1.0625 -0.1875,0.60938 -0.1875,1.28125 0,0.26563 0.0156,0.54688 0.0312,0.26562 0.0625,0.53125 h -2.39063 q -0.125,-0.90625 -0.29687,-1.73438 -0.15625,-0.82812 -0.46875,-1.45312 -0.29688,-0.625 -0.78125,-0.98438 -0.48438,-0.375 -1.25,-0.375 -0.73438,0 -1.26563,0.29688 -0.51562,0.29687 -0.85937,0.82812 -0.34375,0.53125 -0.51563,1.25 -0.15625,0.70313 -0.15625,1.53125 0,1.78125 0.60938,3.20313 0.60937,1.40625 1.64062,2.53125 1.04688,1.125 2.40625,2.01562 1.375,0.875 2.89063,1.60938 l -1.26563,2.15625 q -0.5625,-0.25 -1.45312,-0.75 -0.875,-0.5 -1.875,-1.23438 -0.98438,-0.73437 -1.98438,-1.71875 -1,-0.98437 -1.8125,-2.20312 -0.79687,-1.21875 -1.29687,-2.6875 -0.5,-1.46875 -0.5,-3.17188 0,-1.3125 0.375,-2.4375 0.375,-1.14062 1.0625,-1.96875 0.70312,-0.84375 1.6875,-1.3125 0.98437,-0.48437 2.1875,-0.48437 0.90625,0 1.5625,0.26562 0.65625,0.25 1.125,0.64063 0.48437,0.375 0.79687,0.82812 0.3125,0.4375 0.54688,0.82813 l 0.0781,-0.0156 q 0.29688,-0.65625 0.70313,-1.10937 0.42187,-0.45313 0.90625,-0.73438 0.5,-0.28125 1.04687,-0.40625 0.54688,-0.14062 1.09375,-0.14062 0.48438,0 0.95313,0.0937 0.48437,0.0781 0.92187,0.23437 V 179 h -18.10937 v -2.29688 h 23.95312 z m 8.3125,0 h -3.28125 v 21 h -2.5625 v -21 h -3.5625 v -2.29688 h 3.8125 q -0.28125,-1.59375 -0.71875,-2.71875 -0.4375,-1.14062 -0.95312,-1.89062 -0.51563,-0.76563 -1.07813,-1.20313 -0.5625,-0.4375 -1.07812,-0.65625 -0.53125,-0.21875 -0.98438,-0.28125 -0.46875,-0.0625 -0.76562,-0.0625 -0.96875,0 -1.54688,0.3125 -0.59375,0.29688 -0.90625,0.71875 -0.3125,0.42188 -0.40625,0.89063 -0.10937,0.45312 -0.10937,0.78125 0,0.125 0.0469,0.51562 0.0312,0.375 0.25,0.95313 0.20313,0.57812 0.64063,1.29687 0.4375,0.71875 1.23437,1.51563 h -2.65625 q -0.98437,-1.125 -1.46875,-2.32813 -0.5,-1.21875 -0.5,-2.35937 0,-0.95313 0.34375,-1.8125 0.34375,-0.85938 1.03125,-1.48438 0.6875,-0.64062 1.71875,-1.01562 1.03125,-0.375 2.39063,-0.375 1.875,0 3.23437,0.73437 1.35938,0.71875 2.28125,1.96875 0.9375,1.25 1.46875,2.9375 0.54688,1.67188 0.76563,3.5625 h 3.35937 z m 19.4375,0 h -3.28125 v 21 H 352.125 v -12.04688 h -7.3125 q 0,1.03125 -0.0312,1.76563 -0.0156,0.73437 -0.125,1.21875 -0.10938,0.46875 -0.32813,0.6875 -0.21875,0.21875 -0.60937,0.21875 -0.8125,0 -1.54688,-0.53125 -0.71875,-0.53125 -1.28125,-1.28125 -0.54687,-0.75 -0.875,-1.5625 -0.32812,-0.8125 -0.32812,-1.375 0,-0.5 0.21875,-0.78125 0.21875,-0.28125 0.57812,-0.42188 0.35938,-0.14062 0.8125,-0.17187 0.46875,-0.0312 0.9375,-0.0312 H 352.125 V 179 h -14.67188 v -2.29688 h 20.53125 z m 19.67188,16.59375 q 0.51562,-0.15625 1.01562,-0.39063 0.51563,-0.23437 0.90625,-0.5625 0.40625,-0.34375 0.65625,-0.79687 0.25,-0.45313 0.25,-1.0625 0,-1.29688 -1.07812,-2.01563 -1.07813,-0.73437 -3.0625,-0.73437 -0.79688,0 -1.64063,0.17187 -0.82812,0.15625 -1.51562,0.59375 -0.6875,0.42188 -1.125,1.17188 -0.4375,0.73437 -0.4375,1.875 0,1.15625 0.45312,2.15625 0.45313,0.98437 1.17188,1.8125 0.73437,0.82812 1.64062,1.5 0.90625,0.67187 1.79688,1.1875 0.90625,0.51562 1.70312,0.85937 0.79688,0.35938 1.32813,0.5625 l -1.03125,2.15625 q -1.09375,-0.46875 -2.23438,-1.03125 -1.125,-0.54687 -2.1875,-1.21875 -1.0625,-0.65625 -2,-1.45312 -0.9375,-0.79688 -1.64062,-1.76563 -0.6875,-0.96875 -1.09375,-2.125 -0.39063,-1.15625 -0.39063,-2.51562 0,-1.32813 0.34375,-2.3125 0.35938,-1 0.98438,-1.75 -0.85938,-0.98438 -1.26563,-1.98438 -0.40625,-1 -0.40625,-2.17187 0,-0.67188 0.15625,-1.26563 0.17188,-0.59375 0.59375,-1.03125 0.4375,-0.45312 1.20313,-0.71875 0.76562,-0.26562 1.98437,-0.26562 h 7.07813 V 179 h -14.15625 v -2.29688 h 20.35937 V 179 H 382.375 v 5.75 h -8.98438 q -0.60937,0 -1.03125,0.10937 -0.40625,0.0937 -0.65625,0.29688 -0.25,0.20312 -0.35937,0.51562 -0.0937,0.29688 -0.0937,0.70313 0,0.54687 0.1875,1.0625 0.1875,0.51562 0.70312,1.15625 0.90625,-0.46875 1.98438,-0.6875 1.09375,-0.23438 2.28125,-0.23438 1.375,0 2.5625,0.3125 1.20312,0.3125 2.07812,0.95313 0.89063,0.625 1.39063,1.60937 0.51562,0.96875 0.51562,2.28125 0,1.26563 -0.4375,2.14063 -0.42187,0.875 -1.07812,1.46875 -0.64063,0.59375 -1.40625,0.96875 -0.76563,0.35937 -1.42188,0.59375 z M 394.32812,179 h -3.28125 v 21 h -2.5625 v -21 h -3.5625 v -2.29688 h 9.40625 z m -3.5,-1.85938 h -2.26562 l -1.42188,-2.67187 q -0.90625,-1.70313 -1.65625,-2.70313 -0.73437,-1 -1.39062,-1.51562 -0.67188,-0.53125 -1.3125,-0.67188 -0.64063,-0.15625 -1.34375,-0.15625 h -3.03125 v -2.53125 h 2.85937 q 0.90625,0 1.64063,0.15625 0.73437,0.14063 1.40625,0.53125 0.65625,0.375 1.28125,1.0625 0.64062,0.67188 1.35937,1.75 0.71875,1.0625 1.5625,2.5625 0.85938,1.48438 1.95313,3.51563 z M 413.90625,179 H 410.625 v 21 h -2.54688 V 186.28125 H 403 q -1.04688,0 -1.89063,0.14062 -0.84375,0.125 -1.4375,0.53125 -0.59375,0.39063 -0.92187,1.10938 -0.3125,0.70312 -0.3125,1.85937 0,1.5 0.48437,2.76563 0.5,1.26562 1.26563,2.32812 0.76562,1.04688 1.6875,1.9375 0.9375,0.89063 1.79687,1.64063 l -1.5625,1.78125 q -0.14062,-0.0781 -0.67187,-0.45313 -0.51563,-0.39062 -1.21875,-1.04687 -0.6875,-0.65625 -1.46875,-1.59375 -0.76563,-0.9375 -1.42188,-2.10938 -0.64062,-1.1875 -1.07812,-2.60937 -0.42188,-1.42188 -0.42188,-3.0625 0,-1.625 0.45313,-2.6875 0.46875,-1.07813 1.3125,-1.70313 0.84375,-0.64062 2.04687,-0.89062 1.20313,-0.25 2.6875,-0.25 h 5.75 V 179 h -14.84375 v -2.29688 h 20.67188 z m -3.5,-1.85938 h -2.26563 l -1.42187,-2.67187 q -0.90625,-1.70313 -1.64063,-2.70313 -0.75,-1 -1.40625,-1.51562 -0.67187,-0.53125 -1.3125,-0.67188 -0.64062,-0.15625 -1.34375,-0.15625 h -3.03125 v -2.53125 h 2.85938 q 0.90625,0 1.64062,0.15625 0.73438,0.14063 1.40625,0.53125 0.65625,0.375 1.29688,1.0625 0.625,0.67188 1.34375,1.75 0.71875,1.0625 1.57812,2.5625 0.84375,1.48438 1.9375,3.51563 z m 7.89062,19.29688 -2.5,7.6875 h -1.82812 l 1.82812,-7.6875 z"
         id="path6" />
      <path
         d="M 73.59375,226.70312 V 229 H 70.3125 v 21 h -2.59375 v -10.5 h -9.046875 q -0.828125,0.54687 -1.984375,0.65625 l -0.03125,0.0781 q 1.515625,2.375 3.328125,4.42188 1.8125,2.04687 4.125,3.79687 L 62.4375,250.375 q -1.328125,-0.98438 -2.53125,-2.125 -1.1875,-1.14063 -2.25,-2.35938 -1.046875,-1.23437 -1.96875,-2.48437 -0.921875,-1.26563 -1.6875,-2.48438 -0.765625,-1.21875 -1.375,-2.34375 -0.609375,-1.14062 -1.0625,-2.10937 l 2.140625,-1.15625 Q 54,236 54.28125,236.46875 q 0.296875,0.45312 0.59375,0.73437 0.296875,0.26563 0.625,0.39063 0.328125,0.10937 0.703125,0.10937 1.078125,0 1.578125,-0.84375 0.515625,-0.84375 0.515625,-2.21875 0,-0.8125 -0.15625,-1.59375 -0.15625,-0.79687 -0.40625,-1.51562 Q 57.5,230.79687 57.21875,230.15625 56.9375,229.51562 56.6875,229 h -7.234375 v -2.29688 z M 67.71875,229 h -8.328125 q 0.65625,1.42187 1.03125,2.85937 0.375,1.4375 0.375,2.85938 0,0.65625 -0.109375,1.29687 -0.09375,0.625 -0.328125,1.1875 l 0.03125,0.0312 h 7.328125 z m 14.1875,0 H 78.625 v 21 H 76.0625 V 229 H 72.5 v -2.29688 h 9.40625 z m -3.390625,-1.85938 H 76.4375 l -0.5625,-0.5 q -1.21875,-1.07812 -2.15625,-1.8125 -0.921875,-0.75 -1.640625,-1.23437 -0.71875,-0.48438 -1.28125,-0.75 -0.5625,-0.26563 -1.046875,-0.39063 -0.484375,-0.125 -0.9375,-0.14062 -0.453125,-0.0312 -0.953125,-0.0312 h -3 v -2.21875 h 2.78125 q 0.6875,0 1.265625,0.0937 0.578125,0.0781 1.125,0.29687 0.53125,0.20313 1.078125,0.54688 0.546875,0.32812 1.203125,0.84375 0.640625,0.51562 1.421875,1.21875 0.796875,0.70312 1.8125,1.625 l 0.09375,-0.0625 q -0.90625,-1.48438 -1.609375,-2.5625 -0.703125,-1.09375 -1.28125,-1.84375 -0.578125,-0.76563 -1.0625,-1.25 -0.484375,-0.48438 -0.9375,-0.75 -0.453125,-0.26563 -0.921875,-0.35938 -0.46875,-0.0937 -1.015625,-0.0937 h -3.03125 v -2.29687 h 2.859375 q 0.90625,0 1.625,0.17187 0.703125,0.17188 1.359375,0.625 0.640625,0.45313 1.28125,1.23438 0.640625,0.78125 1.390625,2.01562 0.765625,1.21875 1.6875,2.9375 0.9375,1.70313 2.171875,4.01563 z m -0.75,-5.20312 q 0,-0.89063 0.53125,-1.4375 0.515625,-0.5625 1.359375,-0.5625 0.390625,0 0.75,0.15625 0.34375,0.15625 0.609375,0.4375 0.265625,0.26562 0.421875,0.64062 0.140625,0.35938 0.140625,0.79688 0,0.89062 -0.515625,1.4375 -0.53125,0.54687 -1.375,0.54687 -0.40625,0 -0.75,-0.14062 -0.359375,-0.15625 -0.609375,-0.42188 -0.265625,-0.28125 -0.40625,-0.64062 -0.15625,-0.375 -0.15625,-0.8125 z M 101.82813,229 h -5.29688 v 6.85937 h -5.265625 q -2.453125,0 -3.703125,1.21875 -1.25,1.20313 -1.25,3.46875 0,1.28125 0.40625,2.26563 0.421875,0.98437 1.140625,1.65625 0.734375,0.65625 1.734375,1 1,0.34375 2.171875,0.34375 1.234375,0 1.984375,-0.375 -0.0625,-0.39063 -0.09375,-0.6875 -0.03125,-0.29688 -0.03125,-0.59375 0,-0.65625 0.15625,-1.34375 0.171875,-0.70313 0.5,-1.26563 0.34375,-0.57812 0.859375,-0.9375 0.53125,-0.35937 1.265625,-0.35937 0.453125,0 0.859375,0.15625 0.40625,0.15625 0.703125,0.48437 0.3125,0.3125 0.484375,0.79688 0.1875,0.48437 0.1875,1.125 0,0.64062 -0.171875,1.1875 -0.171875,0.53125 -0.453125,1 -0.265625,0.45312 -0.609375,0.85937 -0.34375,0.39063 -0.671875,0.71875 0.34375,0.75 0.71875,1.34375 0.390625,0.59375 0.796875,1.0625 0.421875,0.46875 0.84375,0.84375 0.421875,0.375 0.84375,0.70313 l -1.921875,2.01562 q -0.828125,-0.73437 -1.421875,-1.46875 -0.578125,-0.71875 -0.984375,-1.35937 -0.390625,-0.64063 -0.640625,-1.15625 -0.25,-0.51563 -0.40625,-0.82813 -1.078125,0.42188 -2.65625,0.42188 -2.03125,0 -3.546875,-0.65625 -1.515625,-0.67188 -2.53125,-1.78125 -1,-1.125 -1.5,-2.5625 -0.5,-1.4375 -0.5,-2.98438 0,-1.60937 0.515625,-2.82812 0.515625,-1.23438 1.4375,-2.0625 0.921875,-0.84375 2.1875,-1.26563 1.28125,-0.4375 2.796875,-0.4375 H 93.96875 V 229 H 80.8125 v -2.29688 h 21.01563 z m 19.90625,0 h -3.28125 v 21 h -2.5625 v -7.3125 l -0.0625,-0.0156 q -0.42188,0.34375 -1.01563,0.6875 -0.57812,0.32813 -1.29687,0.59375 -0.71875,0.25 -1.54688,0.42188 -0.82812,0.15625 -1.73437,0.15625 -1.8125,0 -3.10938,-0.65625 -1.28125,-0.65625 -2.15625,-1.75 -0.85937,-1.10938 -1.35937,-2.51563 -0.5,-1.42187 -0.71875,-2.95312 1.03125,-0.14063 1.76562,-0.48438 0.73438,-0.34375 1.1875,-0.8125 0.45313,-0.48437 0.65625,-1.04687 0.21875,-0.5625 0.21875,-1.125 0,-0.375 -0.0781,-0.84375 -0.0625,-0.46875 -0.23438,-1 -0.17187,-0.54688 -0.45312,-1.14063 Q 105.67188,229.60937 105.25,229 h -4.51562 v -2.29688 h 21 z m -13.71875,0 q 0.5625,0.95312 0.875,2.09375 0.32812,1.125 0.32812,2.21875 0,0.79687 -0.21875,1.54687 -0.20312,0.75 -0.64062,1.40625 -0.4375,0.64063 -1.09375,1.15625 -0.64063,0.5 -1.5,0.79688 0.25,1.04687 0.6875,1.79687 0.4375,0.73438 1.03125,1.21875 0.59375,0.46875 1.32812,0.6875 0.73438,0.21875 1.57813,0.21875 0.8125,0 1.59375,-0.1875 0.79687,-0.1875 1.5,-0.53125 0.71875,-0.35937 1.32812,-0.85937 0.60938,-0.5 1.07813,-1.125 V 229 Z m 13.29687,-9.125 q -0.6875,-0.78125 -1.28125,-1.14063 -0.59375,-0.35937 -1.39062,-0.35937 -1.21875,0 -1.95313,0.84375 -0.73437,0.82812 -0.73437,2.34375 0,0.625 0.14062,1.3125 0.14063,0.67187 0.40625,1.35937 0.26563,0.6875 0.65625,1.35938 0.39063,0.67187 0.89063,1.28125 h -2.59375 q -0.9375,-1.32813 -1.40625,-2.71875 -0.46875,-1.40625 -0.46875,-2.73438 0,-1.28125 0.42187,-2.29687 0.40625,-1.01563 1.09375,-1.70313 0.6875,-0.6875 1.60938,-1.04687 0.90625,-0.375 1.92187,-0.375 1.35938,0 2.42188,0.54687 1.07812,0.53125 2.01562,1.71875 z m 17.5,9.125 h -3.28125 v 21 h -2.5625 v -21 h -3.5625 v -2.29688 h 3.5625 q -0.85938,-2.0625 -0.85938,-3.84375 0,-1.14062 0.375,-2.125 0.375,-0.98437 1.14063,-1.70312 0.78125,-0.71875 1.98437,-1.125 1.20313,-0.40625 2.85938,-0.40625 2.17187,0 4.17187,0.70312 2.01563,0.70313 3.9375,1.95313 1.92188,1.25 3.79688,2.96875 1.89062,1.71875 3.8125,3.75 h -2.71875 q -0.4375,-0.42188 -1.17188,-1.09375 -0.71875,-0.6875 -1.67187,-1.45313 -0.95313,-0.78125 -2.10938,-1.5625 -1.15625,-0.79687 -2.4375,-1.4375 -1.28125,-0.64062 -2.67187,-1.03125 -1.375,-0.40625 -2.78125,-0.40625 -1.14063,0 -1.92188,0.26563 -0.76562,0.26562 -1.25,0.73437 -0.46875,0.46875 -0.67187,1.10938 -0.20313,0.625 -0.20313,1.34375 0,1.40625 0.76563,3.35937 h 3.46875 z m 19.57812,0 h -3.28125 v 21 h -2.54687 v -13.71875 h -5.07813 q -1.04687,0 -1.89062,0.14062 -0.84375,0.125 -1.4375,0.53125 -0.59375,0.39063 -0.92188,1.10938 -0.3125,0.70312 -0.3125,1.85937 0,1.5 0.48438,2.76563 0.5,1.26562 1.26562,2.32812 0.76563,1.04688 1.6875,1.9375 0.9375,0.89063 1.79688,1.64063 l -1.5625,1.78125 q -0.14063,-0.0781 -0.67188,-0.45313 -0.51562,-0.39062 -1.21875,-1.04687 -0.6875,-0.65625 -1.46875,-1.59375 -0.76562,-0.9375 -1.42187,-2.10938 -0.64063,-1.1875 -1.07813,-2.60937 -0.42187,-1.42188 -0.42187,-3.0625 0,-1.625 0.45312,-2.6875 0.46875,-1.07813 1.3125,-1.70313 0.84375,-0.64062 2.04688,-0.89062 1.20312,-0.25 2.6875,-0.25 h 5.75 V 229 h -14.84375 v -2.29688 h 20.67187 z m 21.64063,0 H 176.75 v 21 h -2.59375 v -6.57813 l -0.0625,-0.0469 q -0.85938,0.78125 -1.6875,1.23437 -0.8125,0.4375 -1.53125,0.67188 -0.70313,0.21875 -1.28125,0.28125 -0.57813,0.0625 -0.95313,0.0625 -1.4375,0 -2.54687,-0.45313 -1.10938,-0.45312 -1.85938,-1.1875 -0.75,-0.75 -1.14062,-1.70312 -0.39063,-0.96875 -0.39063,-2 0,-1.07813 0.4375,-2.14063 0.45313,-1.0625 1.40625,-1.90625 l -0.0156,-0.0625 h -4.95313 V 233.875 h 12.5625 v 2.29687 h -1.60937 q -1.60938,0 -2.64063,0.42188 -1.03125,0.42187 -1.625,1.03125 -0.59375,0.60937 -0.82812,1.3125 -0.21875,0.6875 -0.21875,1.25 0,0.46875 0.15625,1.01562 0.15625,0.53125 0.51562,0.98438 0.375,0.45312 0.98438,0.75 0.625,0.29687 1.5625,0.29687 0.98437,0 1.82812,-0.3125 0.85938,-0.32812 1.57813,-0.84375 0.71875,-0.51562 1.29687,-1.15625 0.59375,-0.65625 1.01563,-1.29687 V 229 h -16.85938 v -2.29688 h 22.73438 z m -3.5,-1.85938 h -2.26563 l -1.42187,-2.67187 q -0.90625,-1.70313 -1.64063,-2.70313 -0.75,-1 -1.40625,-1.51562 -0.67187,-0.53125 -1.3125,-0.67188 -0.64062,-0.15625 -1.34375,-0.15625 h -3.03125 v -2.53125 h 2.85938 q 0.90625,0 1.64062,0.15625 0.73438,0.14063 1.40625,0.53125 0.65625,0.375 1.29688,1.0625 0.625,0.67188 1.34375,1.75 0.71875,1.0625 1.57812,2.5625 0.84375,1.48438 1.9375,3.51563 z m 7.89062,19.29688 -2.5,7.6875 h -1.82812 l 1.82812,-7.6875 z M 219.6875,229 h -3.28125 v 21 h -2.5625 v -13.5625 h -5.03125 l -0.0156,0.0625 q 0.1875,0.21875 0.5625,0.67187 0.375,0.4375 0.75,1.09375 0.375,0.64063 0.65625,1.46875 0.28125,0.8125 0.28125,1.76563 0,0.95312 -0.32812,1.89062 -0.3125,0.92188 -0.95313,1.67188 -0.625,0.73437 -1.59375,1.1875 -0.96875,0.45312 -2.25,0.45312 -1.26562,0 -2.32812,-0.4375 -1.04688,-0.45312 -1.92188,-1.20312 -0.85937,-0.75 -1.54687,-1.73438 -0.6875,-0.98437 -1.23438,-2.07812 -0.53125,-1.10938 -0.9375,-2.23438 -0.39062,-1.14062 -0.67187,-2.17187 -0.28125,-1.04688 -0.45313,-1.92188 -0.17187,-0.875 -0.26562,-1.45312 l 2.3125,-0.45313 q 0.51562,2.8125 1.25,4.9375 0.75,2.10938 1.65625,3.53125 0.90625,1.42188 1.95312,2.14063 1.04688,0.70312 2.1875,0.70312 0.8125,0 1.3125,-0.3125 0.5,-0.32812 0.78125,-0.78125 0.28125,-0.46875 0.375,-0.95312 0.10938,-0.5 0.10938,-0.85938 0,-0.64062 -0.26563,-1.35937 -0.25,-0.73438 -0.75,-1.45313 -0.48437,-0.73437 -1.21875,-1.40625 -0.73437,-0.67187 -1.6875,-1.21875 v -1.82812 h 9.26563 V 229 h -19.20313 v -2.29688 h 25.04688 z m 19.95312,0 h -3.28125 v 21 h -2.5625 V 229 H 226.75 v 12.125 q 0,0.25 -0.0312,0.57812 -0.0312,0.32813 -0.15625,0.64063 -0.10938,0.29687 -0.32813,0.51562 -0.21875,0.20313 -0.60937,0.20313 -0.42188,0 -0.9375,-0.26563 -0.5,-0.28125 -1.03125,-0.71875 -0.53125,-0.45312 -1.03125,-1.01562 -0.48438,-0.5625 -0.875,-1.15625 -0.39063,-0.59375 -0.625,-1.15625 -0.23438,-0.5625 -0.23438,-1 0,-0.39063 0.1875,-0.625 0.20313,-0.23438 0.54688,-0.35938 0.35937,-0.125 0.85937,-0.15625 0.51563,-0.0312 1.125,-0.0312 h 0.54688 V 229 h -5.5625 v -2.29688 h 21.04687 z m 22.9375,0 h -3.28125 v 21 h -2.5625 v -8.76563 h -8.20312 v 2.23438 q 0,0.23437 -0.0469,0.5 -0.0312,0.26562 -0.15625,0.5 -0.10937,0.21875 -0.3125,0.375 -0.1875,0.14062 -0.48437,0.14062 -0.35938,0 -0.85938,-0.21875 -0.48437,-0.23437 -1.01562,-0.60937 -0.51563,-0.39063 -1.03125,-0.875 -0.5,-0.5 -0.90625,-1.03125 -0.39063,-0.53125 -0.64063,-1.0625 -0.25,-0.53125 -0.25,-0.98438 0,-0.65625 0.46875,-0.95312 0.46875,-0.29688 1.23438,-0.29688 h 1.51562 V 230.375 q 0,-0.8125 -0.39062,-1.23438 -0.39063,-0.4375 -0.98438,-0.4375 -0.65625,0 -1.10937,0.48438 -0.4375,0.48437 -0.4375,1.23437 0,0.14063 0.0312,0.34375 0.0312,0.20313 0.15625,0.46875 0.125,0.25 0.375,0.57813 0.25,0.3125 0.67187,0.67187 l -1.39062,1.70313 q -0.71875,-0.39063 -1.17188,-0.85938 -0.45312,-0.48437 -0.70312,-0.98437 -0.25,-0.5 -0.34375,-0.96875 -0.0937,-0.48438 -0.0937,-0.89063 0,-0.75 0.25,-1.46875 0.26562,-0.73437 0.78125,-1.3125 0.51562,-0.59375 1.28125,-0.95312 0.78125,-0.35938 1.8125,-0.35938 0.90625,0 1.60937,0.29688 0.70313,0.29687 1.17188,0.85937 0.48437,0.54688 0.71875,1.32813 0.25,0.76562 0.25,1.71875 v 8.35937 h 8.20312 v -12.25 h 5.84375 z m 15.64063,0 h -5.89063 q 0.79688,1.375 1.28125,2.8125 0.5,1.42187 0.5,2.89062 0,1.10938 -0.34375,2.14063 -0.32812,1.01562 -0.98437,1.82812 -0.64063,0.79688 -1.60938,1.3125 -0.95312,0.5 -2.20312,0.5625 l -0.0312,0.0781 q 1.40625,2.1875 3.15625,4.14062 1.75,1.9375 4.04687,3.6875 l -1.67187,1.92188 q -1.32813,-0.98438 -2.53125,-2.125 -1.1875,-1.15625 -2.25,-2.375 -1.0625,-1.23438 -1.98438,-2.48438 -0.90625,-1.26562 -1.67187,-2.45312 -0.75,-1.20313 -1.34375,-2.29688 -0.59375,-1.10937 -1.01563,-2.01562 l 2.14063,-1.15625 q 0.5625,1.21875 1.26562,1.92187 0.71875,0.6875 1.65625,0.6875 0.67188,0 1.20313,-0.34375 0.53125,-0.34375 0.89062,-0.875 0.35938,-0.54687 0.54688,-1.1875 0.1875,-0.65625 0.1875,-1.28125 0,-0.73437 -0.1875,-1.4375 -0.1875,-0.71875 -0.48438,-1.39062 -0.29687,-0.6875 -0.67187,-1.32813 -0.35938,-0.64062 -0.70313,-1.23437 h -8.03125 v -2.29688 h 16.73438 z m 28.03125,0 h -3.28125 v 21 h -2.57813 v -7.46875 l -0.0625,-0.0156 q -1.04687,0.9375 -2.34375,1.34375 -1.29687,0.39063 -2.5625,0.39063 -1.34375,0 -2.45312,-0.39063 -1.10938,-0.39062 -1.90625,-1.1875 -0.79688,-0.8125 -1.25,-2.03125 -0.4375,-1.23437 -0.4375,-2.92187 V 229 h -3.48438 v -2.29688 H 306.25 Z m -5.85938,0 h -8.48437 v 8.57812 q 0,0.98438 0.15625,1.76563 0.17187,0.78125 0.5625,1.32812 0.40625,0.54688 1.0625,0.84375 0.65625,0.28125 1.64062,0.28125 1.60938,0 2.90625,-0.75 1.29688,-0.76562 2.15625,-2 z m 28.90625,-2.29688 V 229 h -3.28125 v 21 h -2.59375 V 239.5 H 314.375 q -0.82813,0.54687 -1.98438,0.65625 l -0.0312,0.0781 q 1.51563,2.375 3.32813,4.42188 1.8125,2.04687 4.125,3.79687 l -1.67188,1.92188 q -1.32812,-0.98438 -2.53125,-2.125 -1.1875,-1.14063 -2.25,-2.35938 -1.04687,-1.23437 -1.96875,-2.48437 -0.92187,-1.26563 -1.6875,-2.48438 -0.76562,-1.21875 -1.375,-2.34375 -0.60937,-1.14062 -1.0625,-2.10937 l 2.14063,-1.15625 q 0.29687,0.6875 0.57812,1.15625 0.29688,0.45312 0.59375,0.73437 0.29688,0.26563 0.625,0.39063 0.32813,0.10937 0.70313,0.10937 1.07812,0 1.57812,-0.84375 Q 314,236.01562 314,234.64062 q 0,-0.8125 -0.15625,-1.59375 -0.15625,-0.79687 -0.40625,-1.51562 -0.23438,-0.73438 -0.51563,-1.375 -0.28125,-0.64063 -0.53125,-1.15625 h -7.23437 v -2.29688 z M 323.42187,229 h -8.32812 q 0.65625,1.42187 1.03125,2.85937 0.375,1.4375 0.375,2.85938 0,0.65625 -0.10938,1.29687 -0.0937,0.625 -0.32812,1.1875 l 0.0312,0.0312 h 7.32812 z m 21.51563,0 h -5.89063 q 0.79688,1.375 1.28125,2.8125 0.5,1.42187 0.5,2.89062 0,1.10938 -0.34375,2.14063 -0.32812,1.01562 -0.98437,1.82812 -0.64063,0.79688 -1.60938,1.3125 -0.95312,0.5 -2.20312,0.5625 l -0.0312,0.0781 q 1.40625,2.1875 3.15625,4.14062 1.75,1.9375 4.04687,3.6875 l -1.67187,1.92188 q -1.32813,-0.98438 -2.53125,-2.125 -1.1875,-1.15625 -2.25,-2.375 -1.0625,-1.23438 -1.98438,-2.48438 -0.90625,-1.26562 -1.67187,-2.45312 -0.75,-1.20313 -1.34375,-2.29688 -0.59375,-1.10937 -1.01563,-2.01562 l 2.14063,-1.15625 q 0.5625,1.21875 1.26562,1.92187 0.71875,0.6875 1.65625,0.6875 0.67188,0 1.20313,-0.34375 0.53125,-0.34375 0.89062,-0.875 0.35938,-0.54687 0.54688,-1.1875 0.1875,-0.65625 0.1875,-1.28125 0,-0.73437 -0.1875,-1.4375 -0.1875,-0.71875 -0.48438,-1.39062 -0.29687,-0.6875 -0.67187,-1.32813 -0.35938,-0.64062 -0.70313,-1.23437 h -8.03125 v -2.29688 h 16.73438 z m 19.57812,0 h -3.28125 v 21 h -2.54687 v -13.71875 h -5.07813 q -1.04687,0 -1.89062,0.14062 -0.84375,0.125 -1.4375,0.53125 -0.59375,0.39063 -0.92188,1.10938 -0.3125,0.70312 -0.3125,1.85937 0,1.5 0.48438,2.76563 0.5,1.26562 1.26562,2.32812 0.76563,1.04688 1.6875,1.9375 0.9375,0.89063 1.79688,1.64063 l -1.5625,1.78125 q -0.14063,-0.0781 -0.67188,-0.45313 -0.51562,-0.39062 -1.21875,-1.04687 -0.6875,-0.65625 -1.46875,-1.59375 -0.76562,-0.9375 -1.42187,-2.10938 -0.64063,-1.1875 -1.07813,-2.60937 -0.42187,-1.42188 -0.42187,-3.0625 0,-1.625 0.45312,-2.6875 0.46875,-1.07813 1.3125,-1.70313 0.84375,-0.64062 2.04688,-0.89062 1.20312,-0.25 2.6875,-0.25 h 5.75 V 229 h -14.84375 v -2.29688 h 20.67187 z m -3.5,-1.85938 H 358.75 l -1.42188,-2.67187 q -0.90625,-1.70313 -1.64062,-2.70313 -0.75,-1 -1.40625,-1.51562 -0.67188,-0.53125 -1.3125,-0.67188 -0.64063,-0.15625 -1.34375,-0.15625 h -3.03125 v -2.53125 h 2.85937 q 0.90625,0 1.64063,0.15625 0.73437,0.14063 1.40625,0.53125 0.65625,0.375 1.29687,1.0625 0.625,0.67188 1.34375,1.75 0.71875,1.0625 1.57813,2.5625 0.84375,1.48438 1.9375,3.51563 z m 6.4375,23.20313 q -0.71875,0 -1.23437,-0.51563 -0.5,-0.51562 -0.5,-1.23437 0,-0.71875 0.5,-1.23438 0.51562,-0.53125 1.23437,-0.53125 0.73438,0 1.25,0.53125 0.51563,0.51563 0.51563,1.23438 0,0.71875 -0.51563,1.23437 -0.51562,0.51563 -1.25,0.51563 z"
         id="path7" />
    </g>
  </g>
</svg>
