<?xml version="1.0" encoding="UTF-8" standalone="no"?>
<svg
   width="800"
   height="600"
   version="1.1"
   id="svg4"
   sodipodi:docname="shiva_dance.svg"
   xmlns:inkscape="http://www.inkscape.org/namespaces/inkscape"
   xmlns:sodipodi="http://sodipodi.sourceforge.net/DTD/sodipodi-0.dtd"
   xmlns="http://www.w3.org/2000/svg"
   xmlns:svg="http://www.w3.org/2000/svg">
  <sodipodi:namedview
     id="namedview4"
     pagecolor="#ffffff"
     bordercolor="#666666"
     borderopacity="1.0"
     inkscape:showpageshadow="2"
     inkscape:pageopacity="0.0"
     inkscape:pagecheckerboard="0"
     inkscape:deskcolor="#d1d1d1" />
  <defs
     id="defs1">
    <style
       type="text/css"
       id="style1">
      @font-face {{
        font-family: 'Kalam';
        src: url('AxiDraw_API(1)/Kalam-Regular.ttf');
      }}
    </style>
  </defs>
  <g
     id="g4">
    <g
       id="text4"
       style="font-size:32px;font-family:Kalam"
       aria-label="शिव तांडव करीत नाचतात,अंबर धरून आकाश गातात.त्रिपुरारीच्या नृत्यात लीना,भक्तीची साक्ष देती रचना.">
      <path
         d="m 58.859375,79 h -3.28125 v 21 h -2.5625 V 79 h -3.5625 v -2.296875 h 3.5625 q -0.859375,-2.0625 -0.859375,-3.84375 0,-1.140625 0.375,-2.125 0.375,-0.984375 1.140625,-1.703125 0.78125,-0.71875 1.984375,-1.125 Q 56.859375,67.5 58.515625,67.5 q 2.171875,0 4.171875,0.703125 2.015625,0.703125 3.9375,1.953125 1.921875,1.25 3.796875,2.96875 1.890625,1.71875 3.8125,3.75 h -2.71875 q -0.4375,-0.421875 -1.171875,-1.09375 -0.71875,-0.6875 -1.671875,-1.453125 -0.953125,-0.78125 -2.109375,-1.5625 -1.15625,-0.796875 -2.4375,-1.4375 -1.28125,-0.640625 -2.671875,-1.03125 -1.375,-0.40625 -2.78125,-0.40625 -1.140625,0 -1.921875,0.265625 -0.765625,0.265625 -1.25,0.734375 Q 55.03125,71.359375 54.828125,72 54.625,72.625 54.625,73.34375 q 0,1.40625 0.765625,3.359375 h 3.46875 z m 9.59375,8.5 q -0.28125,0.03125 -0.53125,0.0625 -0.25,0.01563 -0.515625,0.01563 -1.265625,0 -2.296875,-0.453125 -1.015625,-0.453125 -1.75,-1.21875 -0.71875,-0.765625 -1.109375,-1.765625 -0.390625,-1.015625 -0.390625,-2.125 0,-0.796875 0.21875,-1.546875 0.21875,-0.75 0.6875,-1.40625 L 62.75,79 h -4.984375 v -2.296875 h 26.125 V 79 h -3.28125 v 21 h -2.5625 V 79 H 72.15625 l -0.01563,0.0625 q 0.40625,0.40625 0.75,0.984375 0.34375,0.5625 0.578125,1.234375 0.25,0.671875 0.390625,1.40625 Q 74,83.421875 74,84.171875 q 0,1.21875 -0.390625,2.359375 -0.375,1.140625 -1.078125,2.15625 -0.6875,1.015625 -1.671875,1.890625 -0.96875,0.859375 -2.15625,1.53125 v 0.0625 q 0.78125,0.609375 1.671875,1.46875 0.890625,0.84375 1.765625,1.765625 0.875,0.921875 1.65625,1.84375 0.78125,0.90625 1.34375,1.65625 L 73.375,100.39063 q -0.484375,-0.60938 -1.21875,-1.48438 -0.734375,-0.890625 -1.640625,-1.84375 -0.90625,-0.96875 -1.96875,-1.921875 -1.046875,-0.96875 -2.1875,-1.75 -0.5625,0.265625 -1.1875,0.390625 -0.609375,0.125 -1.21875,0.125 -0.703125,0 -1.359375,-0.171875 -0.640625,-0.171875 -1.15625,-0.5 -0.5,-0.328125 -0.796875,-0.796875 -0.296875,-0.484375 -0.296875,-1.109375 0,-0.984375 0.71875,-1.515625 0.734375,-0.546875 1.90625,-0.546875 0.859375,0 1.734375,0.3125 0.890625,0.296875 1.734375,0.90625 0.4375,-0.09375 0.984375,-0.328125 0.546875,-0.25 1.109375,-0.625 0.578125,-0.390625 1.109375,-0.90625 0.546875,-0.53125 0.96875,-1.203125 0.421875,-0.671875 0.671875,-1.46875 0.265625,-0.8125 0.265625,-1.75 0,-0.9375 -0.28125,-1.84375 Q 71,81.453125 70.46875,80.75 69.9375,80.03125 69.140625,79.59375 q -0.796875,-0.4375 -1.84375,-0.4375 -0.828125,0 -1.375,0.265625 -0.546875,0.25 -0.890625,0.65625 -0.34375,0.40625 -0.484375,0.90625 -0.140625,0.484375 -0.140625,0.953125 0,0.609375 0.21875,1.203125 0.21875,0.578125 0.640625,1.046875 0.4375,0.453125 1.078125,0.734375 0.640625,0.28125 1.46875,0.28125 0.265625,0 0.640625,-0.04687 z M 102.70313,79 h -3.281255 v 21 h -2.5625 v -5.578125 l -0.0625,-0.01563 q -0.3125,0.296875 -0.734375,0.625 -0.421875,0.3125 -0.96875,0.578125 -0.546875,0.25 -1.234375,0.421875 -0.671875,0.171875 -1.515625,0.171875 -1.546875,0 -2.828125,-0.59375 -1.265625,-0.59375 -2.1875,-1.578125 -0.921875,-1 -1.4375,-2.28125 -0.5,-1.296875 -0.5,-2.703125 0,-1.40625 0.5,-2.609375 0.515625,-1.21875 1.40625,-2.109375 Q 88.1875,83.4375 89.375,82.9375 q 1.1875,-0.515625 2.546875,-0.515625 0.375,0 0.9375,0.0625 0.578125,0.0625 1.234375,0.28125 0.65625,0.21875 1.359375,0.640625 0.703125,0.40625 1.34375,1.109375 L 96.859375,84.5 V 79 h -14.0625 v -2.296875 h 19.906255 z m -5.781255,8.421875 q -0.984375,-1.1875 -2.140625,-1.90625 -1.15625,-0.734375 -2.625,-0.734375 -1.15625,0 -1.96875,0.4375 -0.796875,0.4375 -1.3125,1.109375 -0.515625,0.65625 -0.75,1.46875 -0.234375,0.8125 -0.234375,1.5625 0,0.8125 0.265625,1.609375 0.265625,0.796875 0.78125,1.4375 0.53125,0.625 1.3125,1.03125 0.78125,0.390625 1.828125,0.390625 1.078125,0 1.96875,-0.40625 Q 94.9375,93 95.578125,92.359375 96.21875,91.71875 96.5625,90.921875 96.921875,90.125 96.921875,89.375 Z M 131.04687,79 h -3.28124 v 21 h -2.54688 V 86.28125 h -5.07812 q -1.04688,0 -1.89063,0.140625 -0.84375,0.125 -1.4375,0.53125 -0.59375,0.390625 -0.92187,1.109375 -0.3125,0.703125 -0.3125,1.859375 0,1.5 0.48437,2.765625 0.5,1.265625 1.26563,2.328125 0.76562,1.046875 1.6875,1.9375 0.9375,0.890625 1.79687,1.640625 L 119.25,100.375 q -0.14062,-0.0781 -0.67187,-0.453125 -0.51563,-0.390625 -1.21875,-1.046875 -0.6875,-0.65625 -1.46875,-1.59375 -0.76563,-0.9375 -1.42188,-2.109375 -0.64062,-1.1875 -1.07812,-2.609375 -0.42188,-1.421875 -0.42188,-3.0625 0,-1.625 0.45313,-2.6875 0.46875,-1.078125 1.3125,-1.703125 0.84375,-0.640625 2.04687,-0.890625 1.20313,-0.25 2.6875,-0.25 h 5.75 V 79 H 110.375 v -2.296875 h 20.67187 z m 8.3125,0 h -3.28125 v 21 h -2.5625 V 79 h -3.5625 v -2.296875 h 9.40625 z m -6.79687,-7.0625 q 0,-0.890625 0.53125,-1.4375 0.51562,-0.5625 1.35937,-0.5625 0.39063,0 0.75,0.15625 0.34375,0.15625 0.60938,0.4375 0.26562,0.265625 0.42187,0.640625 0.14063,0.359375 0.14063,0.796875 0,0.890625 -0.51563,1.4375 -0.53125,0.546875 -1.375,0.546875 -0.40625,0 -0.75,-0.140625 Q 133.375,73.65625 133.125,73.390625 132.85937,73.109375 132.71875,72.75 132.5625,72.375 132.5625,71.9375 Z M 162.25,79 h -4.65625 v 5.765625 h -7.82813 q -1.15625,0 -1.60937,0.328125 -0.4375,0.328125 -0.4375,1.0625 0,0.375 0.0937,0.78125 0.0937,0.40625 0.34375,0.765625 0.25,0.34375 0.67187,0.578125 0.4375,0.21875 1.10938,0.21875 h 4.42187 q 1.375,0 2.3125,0.375 0.95313,0.375 1.51563,1.03125 0.57812,0.65625 0.82812,1.546875 0.25,0.890625 0.25,1.90625 0,1.390625 -0.46875,2.65625 -0.45312,1.265625 -1.35937,2.234375 -0.90625,0.96875 -2.26563,1.546875 -1.34375,0.578125 -3.14062,0.578125 -1.95313,0 -3.75,-0.71875 Q 146.5,98.921875 145,97.625 q -1.48438,-1.296875 -2.625,-3.078125 -1.125,-1.78125 -1.76563,-3.90625 l 2.17188,-0.859375 q 0.54687,1.609375 1.45312,3.09375 0.90625,1.484375 2.09375,2.625 1.20313,1.140625 2.64063,1.828125 Q 150.40625,98 152,98 q 1.125,0 2,-0.328125 0.89062,-0.328125 1.51562,-0.9375 0.625,-0.609375 0.95313,-1.453125 0.32812,-0.859375 0.32812,-1.921875 0,-0.75 -0.17187,-1.21875 -0.17188,-0.484375 -0.54688,-0.75 -0.35937,-0.265625 -0.92187,-0.359375 -0.5625,-0.109375 -1.34375,-0.109375 h -4.09375 q -1.15625,0 -2,-0.5 -0.84375,-0.5 -1.40625,-1.265625 -0.54688,-0.765625 -0.8125,-1.6875 -0.26563,-0.9375 -0.26563,-1.796875 0,-0.921875 0.29688,-1.53125 0.29687,-0.625 0.8125,-0.984375 0.51562,-0.375 1.21875,-0.53125 0.71875,-0.15625 1.54687,-0.15625 h 5.92188 V 79 H 138.26562 V 76.703125 H 162.25 Z m 18.8125,0 h -3.28125 v 21 h -2.5625 v -5.578125 l -0.0625,-0.01563 q -0.3125,0.296875 -0.73438,0.625 -0.42187,0.3125 -0.96875,0.578125 -0.54687,0.25 -1.23437,0.421875 -0.67188,0.171875 -1.51563,0.171875 -1.54687,0 -2.82812,-0.59375 -1.26563,-0.59375 -2.1875,-1.578125 -0.92188,-1 -1.4375,-2.28125 -0.5,-1.296875 -0.5,-2.703125 0,-1.40625 0.5,-2.609375 0.51562,-1.21875 1.40625,-2.109375 0.89062,-0.890625 2.07812,-1.390625 1.1875,-0.515625 2.54688,-0.515625 0.375,0 0.9375,0.0625 0.57812,0.0625 1.23437,0.28125 0.65625,0.21875 1.35938,0.640625 0.70312,0.40625 1.34375,1.109375 L 175.21875,84.5 V 79 h -14.0625 v -2.296875 h 19.90625 z m -5.78125,8.421875 q -0.98438,-1.1875 -2.14063,-1.90625 -1.15625,-0.734375 -2.625,-0.734375 -1.15625,0 -1.96875,0.4375 -0.79687,0.4375 -1.3125,1.109375 -0.51562,0.65625 -0.75,1.46875 -0.23437,0.8125 -0.23437,1.5625 0,0.8125 0.26562,1.609375 0.26563,0.796875 0.78125,1.4375 0.53125,0.625 1.3125,1.03125 0.78125,0.390625 1.82813,0.390625 1.07812,0 1.96875,-0.40625 0.89062,-0.421875 1.53125,-1.0625 0.64062,-0.640625 0.98437,-1.4375 Q 175.28125,90.125 175.28125,89.375 Z M 217.45312,79 H 204.25 v 6.15625 l 0.0781,0.03125 q 0.79688,-1.09375 1.98438,-1.75 1.1875,-0.671875 2.60937,-0.671875 1.125,0 2.07813,0.46875 0.96875,0.453125 1.67187,1.265625 0.70313,0.796875 1.09375,1.890625 0.40625,1.09375 0.40625,2.359375 0,1.4375 -0.5,2.65625 -0.5,1.203125 -1.28125,2.1875 -0.78125,0.984375 -1.76562,1.75 -0.98438,0.75 -1.9375,1.28125 l -1.39063,-2.40625 q 0.3125,-0.171875 0.76563,-0.453125 0.45312,-0.28125 0.9375,-0.65625 0.5,-0.375 0.96875,-0.84375 0.48437,-0.484375 0.85937,-1.046875 0.39063,-0.5625 0.625,-1.21875 0.23438,-0.65625 0.23438,-1.390625 0,-0.671875 -0.21875,-1.28125 -0.20313,-0.609375 -0.57813,-1.0625 -0.375,-0.453125 -0.90625,-0.71875 -0.51562,-0.265625 -1.14062,-0.265625 -0.8125,0 -1.57813,0.421875 -0.76562,0.421875 -1.39062,1.0625 -0.625,0.625 -1.0625,1.34375 -0.42188,0.71875 -0.5625,1.328125 V 100 h -2.5625 v -5.984375 l -0.0625,-0.03125 q -0.23438,0.203125 -0.59375,0.5 -0.35938,0.28125 -0.875,0.546875 -0.5,0.265625 -1.17188,0.453125 -0.65625,0.1875 -1.48437,0.1875 -1.375,0 -2.54688,-0.53125 -1.15625,-0.53125 -2.01562,-1.4375 -0.84375,-0.921875 -1.32813,-2.15625 Q 191.125,90.3125 191.125,88.90625 q 0,-1.34375 0.4375,-2.484375 0.45312,-1.140625 1.21875,-1.953125 0.78125,-0.828125 1.8125,-1.28125 1.04687,-0.46875 2.25,-0.46875 0.84375,0 1.5625,0.21875 0.73437,0.203125 1.32812,0.515625 0.60938,0.296875 1.07813,0.65625 0.48437,0.34375 0.8125,0.625 l 0.0625,-0.01563 V 79 h -12.95313 v -2.296875 h 28.71875 z m -20.23437,6.15625 q -0.89063,0 -1.57813,0.375 -0.67187,0.359375 -1.125,0.9375 -0.45312,0.5625 -0.6875,1.28125 -0.21875,0.703125 -0.21875,1.390625 0,0.75 0.26563,1.5 0.26562,0.734375 0.75,1.328125 0.5,0.59375 1.1875,0.96875 0.6875,0.359375 1.51562,0.359375 0.70313,0 1.46875,-0.28125 0.78125,-0.296875 1.42188,-0.90625 Q 200.875,91.5 201.29687,90.5625 q 0.42188,-0.953125 0.42188,-2.265625 V 87.53125 q -0.375,-0.46875 -0.89063,-0.890625 -0.5,-0.4375 -1.09375,-0.765625 -0.57812,-0.328125 -1.21875,-0.515625 Q 197.875,85.15625 197.21875,85.15625 Z M 233.09375,79 h -5.89063 q 0.79688,1.375 1.28125,2.8125 0.5,1.421875 0.5,2.890625 0,1.109375 -0.34375,2.140625 -0.32812,1.015625 -0.98437,1.828125 -0.64063,0.796875 -1.60938,1.3125 -0.95312,0.5 -2.20312,0.5625 l -0.0312,0.07813 q 1.40625,2.1875 3.15625,4.140625 1.75,1.9375 4.04687,3.6875 l -1.67187,1.921875 q -1.32813,-0.984375 -2.53125,-2.125 -1.1875,-1.15625 -2.25,-2.375 -1.0625,-1.234375 -1.98438,-2.484375 -0.90625,-1.265625 -1.67187,-2.453125 -0.75,-1.203125 -1.34375,-2.296875 -0.59375,-1.109375 -1.01563,-2.015625 l 2.14063,-1.15625 q 0.5625,1.21875 1.26562,1.921875 0.71875,0.6875 1.65625,0.6875 0.67188,0 1.20313,-0.34375 0.53125,-0.34375 0.89062,-0.875 0.35938,-0.546875 0.54688,-1.1875 0.1875,-0.65625 0.1875,-1.28125 0,-0.734375 -0.1875,-1.4375 -0.1875,-0.71875 -0.48438,-1.390625 -0.29687,-0.6875 -0.67187,-1.328125 Q 224.73437,79.59375 224.39062,79 h -8.03125 v -2.296875 h 16.73438 z m 8.3125,0 H 238.125 v 21 h -2.5625 V 79 H 232 v -2.296875 h 3.8125 q -0.28125,-1.59375 -0.71875,-2.71875 -0.4375,-1.140625 -0.95313,-1.890625 -0.51562,-0.765625 -1.07812,-1.203125 -0.5625,-0.4375 -1.07813,-0.65625 -0.53125,-0.21875 -0.98437,-0.28125 -0.46875,-0.0625 -0.76563,-0.0625 -0.96875,0 -1.54687,0.3125 -0.59375,0.296875 -0.90625,0.71875 -0.3125,0.421875 -0.40625,0.890625 -0.10938,0.453125 -0.10938,0.78125 0,0.125 0.0469,0.515625 0.0312,0.375 0.25,0.953125 0.20312,0.578125 0.64062,1.296875 0.4375,0.71875 1.23438,1.515625 h -2.65625 q -0.98438,-1.125 -1.46875,-2.328125 -0.5,-1.21875 -0.5,-2.359375 0,-0.953125 0.34375,-1.8125 Q 225.5,69.515625 226.1875,68.890625 226.875,68.25 227.90625,67.875 228.9375,67.5 230.29687,67.5 q 1.875,0 3.23438,0.734375 1.35937,0.71875 2.28125,1.96875 0.9375,1.25 1.46875,2.9375 0.54687,1.671875 0.76562,3.5625 h 3.35938 z m 19.57812,0 h -3.28125 v 21 h -2.54687 V 86.28125 h -5.07813 q -1.04687,0 -1.89062,0.140625 -0.84375,0.125 -1.4375,0.53125 -0.59375,0.390625 -0.92188,1.109375 -0.3125,0.703125 -0.3125,1.859375 0,1.5 0.48438,2.765625 0.5,1.265625 1.26562,2.328125 0.76563,1.046875 1.6875,1.9375 0.9375,0.890625 1.79688,1.640625 l -1.5625,1.78125 q -0.14063,-0.0781 -0.67188,-0.453125 Q 248,99.53125 247.29687,98.875 q -0.6875,-0.65625 -1.46875,-1.59375 -0.76562,-0.9375 -1.42187,-2.109375 -0.64063,-1.1875 -1.07813,-2.609375 -0.42187,-1.421875 -0.42187,-3.0625 0,-1.625 0.45312,-2.6875 0.46875,-1.078125 1.3125,-1.703125 0.84375,-0.640625 2.04688,-0.890625 1.20312,-0.25 2.6875,-0.25 h 5.75 V 79 H 240.3125 v -2.296875 h 20.67187 z m 28.20313,0 h -3.28125 v 21 h -2.57813 V 87.953125 h -7.3125 q 0,1.03125 -0.0312,1.765625 -0.0156,0.734375 -0.125,1.21875 -0.10937,0.46875 -0.32812,0.6875 -0.21875,0.21875 -0.60938,0.21875 -0.8125,0 -1.54687,-0.53125 -0.71875,-0.53125 -1.28125,-1.28125 -0.54688,-0.75 -0.875,-1.5625 -0.32813,-0.8125 -0.32813,-1.375 0,-0.5 0.21875,-0.78125 0.21875,-0.28125 0.57813,-0.421875 0.35937,-0.140625 0.8125,-0.171875 0.46875,-0.03125 0.9375,-0.03125 h 9.89062 V 79 h -14.67187 v -2.296875 h 20.53125 z m 8.3125,0 h -3.28125 v 21 h -2.5625 V 79 h -3.5625 V 76.703125 H 297.5 Z m 21.64062,0 h -3.28125 v 21 h -2.59375 v -6.578125 l -0.0625,-0.04687 q -0.85937,0.78125 -1.6875,1.234375 -0.8125,0.4375 -1.53125,0.671875 -0.70312,0.21875 -1.28125,0.28125 -0.57812,0.0625 -0.95312,0.0625 -1.4375,0 -2.54688,-0.453125 -1.10937,-0.453125 -1.85937,-1.1875 -0.75,-0.75 -1.14063,-1.703125 -0.39062,-0.96875 -0.39062,-2 0,-1.078125 0.4375,-2.140625 0.45312,-1.0625 1.40625,-1.90625 l -0.0156,-0.0625 H 298.6875 V 83.875 H 311.25 v 2.296875 h -1.60938 q -1.60937,0 -2.64062,0.421875 -1.03125,0.421875 -1.625,1.03125 -0.59375,0.609375 -0.82813,1.3125 -0.21875,0.6875 -0.21875,1.25 0,0.46875 0.15625,1.015625 0.15625,0.53125 0.51563,0.984375 0.375,0.453125 0.98437,0.75 0.625,0.296875 1.5625,0.296875 0.98438,0 1.82813,-0.3125 0.85937,-0.328125 1.57812,-0.84375 0.71875,-0.515625 1.29688,-1.15625 0.59375,-0.65625 1.01562,-1.296875 V 79 h -16.85937 v -2.296875 h 22.73437 z m 19.57813,0 h -3.28125 v 21 h -2.54688 V 86.28125 h -5.07812 q -1.04688,0 -1.89063,0.140625 -0.84375,0.125 -1.4375,0.53125 -0.59375,0.390625 -0.92187,1.109375 -0.3125,0.703125 -0.3125,1.859375 0,1.5 0.48437,2.765625 0.5,1.265625 1.26563,2.328125 0.76562,1.046875 1.6875,1.9375 0.9375,0.890625 1.79687,1.640625 l -1.5625,1.78125 q -0.14062,-0.0781 -0.67187,-0.453125 -0.51563,-0.390625 -1.21875,-1.046875 -0.6875,-0.65625 -1.46875,-1.59375 -0.76563,-0.9375 -1.42188,-2.109375 -0.64062,-1.1875 -1.07812,-2.609375 -0.42188,-1.421875 -0.42188,-3.0625 0,-1.625 0.45313,-2.6875 0.46875,-1.078125 1.3125,-1.703125 0.84375,-0.640625 2.04687,-0.890625 1.20313,-0.25 2.6875,-0.25 h 5.75 V 79 h -14.84375 v -2.296875 h 20.67188 z m 8.3125,0 H 343.75 v 21 h -2.5625 V 79 h -3.5625 v -2.296875 h 9.40625 z m 19.57812,0 h -3.28125 v 21 h -2.54687 V 86.28125 h -5.07813 q -1.04687,0 -1.89062,0.140625 -0.84375,0.125 -1.4375,0.53125 -0.59375,0.390625 -0.92188,1.109375 -0.3125,0.703125 -0.3125,1.859375 0,1.5 0.48438,2.765625 0.5,1.265625 1.26562,2.328125 0.76563,1.046875 1.6875,1.9375 0.9375,0.890625 1.79688,1.640625 l -1.5625,1.78125 q -0.14063,-0.0781 -0.67188,-0.453125 -0.51562,-0.390625 -1.21875,-1.046875 -0.6875,-0.65625 -1.46875,-1.59375 -0.76562,-0.9375 -1.42187,-2.109375 -0.64063,-1.1875 -1.07813,-2.609375 -0.42187,-1.421875 -0.42187,-3.0625 0,-1.625 0.45312,-2.6875 0.46875,-1.078125 1.3125,-1.703125 0.84375,-0.640625 2.04688,-0.890625 1.20312,-0.25 2.6875,-0.25 h 5.75 V 79 H 345.9375 v -2.296875 h 20.67187 z M 371,96.4375 l -2.5,7.6875 h -1.82813 L 368.5,96.4375 Z"
         id="path4" />
      <path
         d="m 53.640625,136.1875 q 0.234375,0.73437 0.546875,1.60937 0.3125,0.85938 0.734375,1.75 0.4375,0.875 0.96875,1.70313 0.546875,0.82812 1.234375,1.46875 0.703125,0.64062 1.546875,1.03125 0.84375,0.375 1.875,0.375 1.015625,0 1.71875,-0.29688 0.703125,-0.29687 1.140625,-0.79687 0.4375,-0.5 0.625,-1.17188 0.203125,-0.67187 0.203125,-1.40625 0,-1.60937 -1.171875,-2.51562 -1.15625,-0.90625 -3.359375,-0.90625 -0.265625,0 -0.53125,0.0156 -0.265625,0.0156 -0.53125,0.0469 v -2.375 q 0.125,0.0156 0.21875,0.0156 0.109375,0 0.125,0 1.09375,0 1.9375,-0.26562 0.859375,-0.28125 1.4375,-0.75 0.578125,-0.46875 0.875,-1.09375 0.296875,-0.625 0.296875,-1.3125 0,-0.625 -0.21875,-1.10938 -0.21875,-0.48437 -0.59375,-0.8125 -0.375,-0.32812 -0.890625,-0.48437 -0.515625,-0.17188 -1.125,-0.17188 -0.421875,0 -0.8125,0.0625 -0.390625,0.0469 -0.828125,0.17188 -0.4375,0.10937 -0.9375,0.29687 -0.484375,0.1875 -1.109375,0.46875 L 56.125,127.59375 q 1.21875,-0.59375 2.34375,-0.89062 1.125,-0.3125 2.296875,-0.3125 1.125,0 2.078125,0.35937 0.96875,0.35938 1.65625,1 0.703125,0.625 1.09375,1.5 0.390625,0.875 0.390625,1.89062 0,2.79688 -2.671875,4.5 v 0.0625 q 1.046875,0.4375 1.75,1.07813 0.453125,0.0781 0.953125,0.125 0.515625,0.0469 0.9375,0.0469 0.4375,0 0.921875,-0.0625 0.484375,-0.0625 0.984375,-0.23437 0.515625,-0.17188 1.03125,-0.48438 0.53125,-0.3125 1.0625,-0.8125 v -8.65624 h 5.84375 V 129 h -3.28125 v 21 h -2.5625 v -11.875 l -0.0625,-0.0156 Q 70,138.70312 69.21875,138.89062 q -0.78125,0.1875 -1.609375,0.1875 -0.265625,0 -0.546875,-0.0156 -0.28125,-0.0312 -0.578125,-0.0625 l -0.01563,0.0625 q 0.25,0.64062 0.25,1.57812 0,1.26563 -0.421875,2.34375 -0.421875,1.07813 -1.21875,1.875 -0.78125,0.78125 -1.90625,1.21875 -1.109375,0.4375 -2.5,0.4375 -1.484375,0 -2.6875,-0.51562 -1.1875,-0.53125 -2.15625,-1.35938 Q 54.875,143.8125 54.15625,142.78125 53.4375,141.73437 52.921875,140.6875 52.40625,139.64062 52.078125,138.70312 51.75,137.75 51.59375,137.125 Z m 16.671875,-14.25 q 0,-0.89062 0.53125,-1.4375 0.515625,-0.5625 1.359375,-0.5625 0.390625,0 0.75,0.15625 0.34375,0.15625 0.609375,0.4375 0.265625,0.26563 0.421875,0.64063 0.140625,0.35937 0.140625,0.79687 0,0.89063 -0.515625,1.4375 -0.53125,0.54688 -1.375,0.54688 -0.40625,0 -0.75,-0.14063 Q 71.125,123.65625 70.875,123.39063 70.609375,123.10938 70.46875,122.75 70.3125,122.375 70.3125,121.9375 Z M 96.734375,129 h -3.28125 v 21 h -2.5625 v -5.53125 l -0.0625,-0.0156 q -0.34375,0.29688 -0.8125,0.60938 -0.453125,0.3125 -1.0625,0.57812 -0.59375,0.26563 -1.34375,0.4375 -0.75,0.17188 -1.65625,0.17188 -1.703125,0 -3.109375,-0.59375 -1.40625,-0.60938 -2.421875,-1.60938 -1,-1.01562 -1.5625,-2.3125 -0.5625,-1.3125 -0.5625,-2.73437 0,-1.4375 0.5625,-2.67188 0.5625,-1.23437 1.53125,-2.125 0.984375,-0.90625 2.28125,-1.42187 1.296875,-0.51563 2.765625,-0.51563 0.453125,0 1.078125,0.0781 0.625,0.0625 1.328125,0.29687 0.71875,0.23438 1.484375,0.67188 0.765625,0.42187 1.5,1.14062 l 0.0625,-0.0156 V 129 h -15.1875 v -2.29687 h 21.03125 z m -15.9375,10.25 q 0,0.85937 0.296875,1.6875 0.296875,0.82812 0.890625,1.48437 0.59375,0.65625 1.46875,1.0625 0.875,0.39063 2.046875,0.39063 1.046875,0 2,-0.34375 l -5.15625,-7.75 q -0.71875,0.59375 -1.140625,1.5 -0.40625,0.90625 -0.40625,1.96875 z m 10.15625,-1.89063 q -0.5625,-0.60937 -1.15625,-1.10937 -0.578125,-0.5 -1.234375,-0.85938 -0.65625,-0.35937 -1.390625,-0.5625 -0.71875,-0.20312 -1.546875,-0.20312 -0.359375,0 -0.6875,0.0469 -0.328125,0.0469 -0.671875,0.125 l 5.078125,7.625 q 0.765625,-0.6875 1.1875,-1.51562 0.421875,-0.84375 0.421875,-1.64063 z M 112.375,129 h -5.89062 q 0.79687,1.375 1.28125,2.8125 0.5,1.42187 0.5,2.89062 0,1.10938 -0.34375,2.14063 -0.32813,1.01562 -0.98438,1.82812 -0.64062,0.79688 -1.60937,1.3125 -0.95313,0.5 -2.20313,0.5625 l -0.0312,0.0781 q 1.40625,2.1875 3.15625,4.14062 1.75,1.9375 4.04688,3.6875 L 108.625,150.375 q -1.32812,-0.98438 -2.53125,-2.125 -1.1875,-1.15625 -2.25,-2.375 -1.0625,-1.23438 -1.98437,-2.48438 -0.90625,-1.26562 -1.67188,-2.45312 -0.75,-1.20313 -1.34375,-2.29688 Q 98.25,137.53125 97.828125,136.625 l 2.140625,-1.15625 q 0.5625,1.21875 1.26563,1.92187 0.71875,0.6875 1.65625,0.6875 0.67187,0 1.20312,-0.34375 0.53125,-0.34375 0.89063,-0.875 0.35937,-0.54687 0.54687,-1.1875 0.1875,-0.65625 0.1875,-1.28125 0,-0.73437 -0.1875,-1.4375 -0.1875,-0.71875 -0.48437,-1.39062 Q 104.75,130.875 104.375,130.23437 104.01563,129.59375 103.67188,129 h -8.031255 v -2.29687 H 112.375 Z m 15.84375,2.98437 q 0.17187,-0.25 0.3125,-0.625 0.15625,-0.39062 0.15625,-0.875 0,-0.4375 -0.15625,-0.76562 -0.15625,-0.32813 -0.40625,-0.53125 -0.23437,-0.20313 -0.54687,-0.29688 -0.3125,-0.10937 -0.625,-0.10937 -0.375,0 -0.75,0.15625 -0.35938,0.14062 -0.65625,0.46875 -0.28125,0.32812 -0.46875,0.84375 -0.1875,0.5 -0.1875,1.20312 0,0.76563 0.21875,1.45313 0.23437,0.67187 0.70312,1.1875 0.48438,0.5 1.20313,0.79687 0.73437,0.29688 1.74999,0.29688 0.70313,0 1.29688,-0.10938 0.59375,-0.125 1.03125,-0.23437 l 0.42187,2.40625 q -0.25,0.0312 -0.67187,0.125 -0.42188,0.0781 -0.92188,0.26562 -0.48437,0.17188 -1,0.45313 -0.5,0.28125 -0.90625,0.70312 -0.40624,0.40625 -0.67187,0.96875 -0.25,0.5625 -0.25,1.3125 0,0.70313 0.23438,1.25 0.23437,0.54688 0.65625,0.9375 0.42187,0.39063 1.01562,0.59375 0.59375,0.20313 1.29687,0.20313 1,0 1.84375,-0.375 0.84375,-0.375 1.51563,-0.92188 0.67187,-0.5625 1.15625,-1.20312 0.48437,-0.64063 0.76562,-1.17188 v -13.68749 h 5.84375 V 129 h -3.28125 v 21 h -2.5625 v -5.84375 l -0.0625,-0.0156 q -0.57812,0.64063 -1.21875,1.07813 -0.64062,0.4375 -1.3125,0.71875 -0.65625,0.26562 -1.32812,0.39062 -0.67188,0.125 -1.29688,0.125 -1.23437,0 -2.29687,-0.40625 -1.04687,-0.40625 -1.8125,-1.14062 -0.76562,-0.73438 -1.20312,-1.73438 -0.4375,-1.01562 -0.4375,-2.23437 0,-1.125 0.42187,-2.0625 0.4375,-0.9375 1.51563,-1.78125 l -0.0156,-0.0625 q -1.0625,-0.28125 -1.84375,-0.85938 -0.76562,-0.57812 -1.28125,-1.32812 -0.5,-0.75 -0.75,-1.625 -0.25,-0.89063 -0.25,-1.78125 0,-1.09375 0.34375,-2.01563 0.35938,-0.92187 0.98438,-1.59374 0.64062,-0.67188 1.5,-1.04688 0.85937,-0.39062 1.89062,-0.39062 1.07812,0 1.84375,0.375 0.78125,0.375 1.26562,0.95312 0.5,0.57812 0.73438,1.28125 0.23437,0.6875 0.23437,1.3125 0,0.4375 -0.0937,0.85937 -0.0937,0.42188 -0.23437,0.79688 -0.14063,0.375 -0.3125,0.6875 -0.15625,0.3125 -0.29688,0.53125 z M 172.6875,129 h -21.51563 q 0.75,1.32812 1.23438,2.67187 0.48437,1.32813 0.53125,2.75 0.70312,0.0469 1.32812,0.21875 0.64063,0.17188 1.23438,0.4375 0.79687,-0.98437 2.03125,-1.46875 1.25,-0.48437 2.625,-0.48437 1.32812,0 2.48437,0.4375 1.17188,0.42187 2.17188,1.125 1,0.70312 1.82812,1.59375 0.82813,0.875 1.48438,1.79687 0.67187,0.92188 1.17187,1.78125 0.51563,0.85938 0.85938,1.5 l -1.98438,1.01563 q -0.79687,-1.40625 -1.64062,-2.65625 -0.84375,-1.26563 -1.79688,-2.20313 -0.95312,-0.95312 -2.0625,-1.5 -1.09375,-0.5625 -2.40625,-0.5625 -0.79687,0 -1.42187,0.20313 -0.60938,0.20312 -1.03125,0.54687 -0.42188,0.32813 -0.64063,0.78125 -0.21875,0.4375 -0.21875,0.90625 0,0.9375 0.67188,1.46875 0.6875,0.51563 1.85937,0.51563 1.25,0 2.26563,-0.4375 l 0.54687,2.25 q -0.67187,0.26562 -1.375,0.40625 -0.6875,0.125 -1.35937,0.125 -1,0 -1.90625,-0.28125 -0.89063,-0.29688 -1.57813,-0.85938 -0.67187,-0.5625 -1.07812,-1.39062 -0.39063,-0.82813 -0.39063,-1.90625 0,-0.125 0,-0.23438 0,-0.10937 0.0156,-0.21875 -0.46875,-0.23437 -0.96875,-0.39062 -0.48438,-0.15625 -1.01563,-0.1875 -0.25,0.76562 -0.6875,1.4375 -0.42187,0.67187 -1.03125,1.1875 -0.59375,0.5 -1.375,0.8125 -0.78125,0.3125 -1.73437,0.35937 l -0.0312,0.0781 q 1.40625,2.1875 3.15625,4.14062 1.75,1.9375 4.04687,3.6875 l -1.67187,1.92188 q -1.32813,-0.98438 -2.53125,-2.125 -1.1875,-1.15625 -2.25,-2.375 -1.0625,-1.23438 -1.98438,-2.48438 -0.90625,-1.26562 -1.67187,-2.46875 -0.75,-1.20312 -1.34375,-2.29687 -0.59375,-1.09375 -1.01563,-2 l 2.14063,-1.15625 q 0.5625,1.21875 1.26562,1.92187 0.71875,0.6875 1.65625,0.6875 0.67188,0 1.20313,-0.34375 0.53125,-0.34375 0.89062,-0.875 0.35938,-0.54687 0.54688,-1.1875 0.1875,-0.65625 0.1875,-1.28125 0,-0.73437 -0.1875,-1.45312 -0.1875,-0.71875 -0.48438,-1.39063 -0.29687,-0.6875 -0.67187,-1.3125 -0.35938,-0.64062 -0.70313,-1.23437 h -8.03125 v -2.29687 h 32.35938 z m 19.4375,0 h -3.28125 v 21 h -2.57813 v -12.04688 h -7.3125 q 0,1.03125 -0.0312,1.76563 -0.0156,0.73437 -0.125,1.21875 -0.10937,0.46875 -0.32812,0.6875 -0.21875,0.21875 -0.60938,0.21875 -0.8125,0 -1.54687,-0.53125 -0.71875,-0.53125 -1.28125,-1.28125 -0.54688,-0.75 -0.875,-1.5625 -0.32813,-0.8125 -0.32813,-1.375 0,-0.5 0.21875,-0.78125 0.21875,-0.28125 0.57813,-0.42188 0.35937,-0.14062 0.8125,-0.17187 0.46875,-0.0312 0.9375,-0.0312 h 9.89062 V 129 h -14.67187 v -2.29687 H 192.125 Z m 11.85937,7.1875 q 0.23438,0.73437 0.54688,1.60937 0.3125,0.85938 0.73437,1.75 0.4375,0.875 0.96875,1.70313 0.54688,0.82812 1.23438,1.46875 0.70312,0.64062 1.54687,1.03125 0.84375,0.375 1.875,0.375 1.01563,0 1.71875,-0.29688 0.70313,-0.29687 1.14063,-0.79687 0.4375,-0.5 0.625,-1.17188 0.20312,-0.67187 0.20312,-1.40625 0,-1.60937 -1.17187,-2.51562 -1.15625,-0.90625 -3.35938,-0.90625 -0.26562,0 -0.53125,0.0156 -0.26562,0.0156 -0.53125,0.0469 v -2.375 q 0.125,0.0156 0.21875,0.0156 0.10938,0 0.125,0 1.09375,0 1.9375,-0.26562 0.85938,-0.28125 1.4375,-0.75 0.57813,-0.46875 0.875,-1.09375 0.29688,-0.625 0.29688,-1.3125 0,-0.625 -0.21875,-1.10938 -0.21875,-0.48437 -0.59375,-0.8125 -0.375,-0.32812 -0.89063,-0.48437 -0.51562,-0.17188 -1.125,-0.17188 -0.42187,0 -0.8125,0.0625 -0.39062,0.0469 -0.82812,0.17188 -0.4375,0.10937 -0.9375,0.29687 -0.48438,0.1875 -1.10938,0.46875 l -0.89062,-2.14062 q 1.21875,-0.59375 2.34375,-0.89062 1.125,-0.3125 2.29687,-0.3125 1.125,0 2.07813,0.35937 0.96875,0.35938 1.65625,1 0.70312,0.625 1.09375,1.5 0.39062,0.875 0.39062,1.89062 0,2.79688 -2.67187,4.5 v 0.0625 q 1.04687,0.4375 1.75,1.07813 0.45312,0.0781 0.95312,0.125 0.51563,0.0469 0.9375,0.0469 0.4375,0 0.92188,-0.0625 0.48437,-0.0625 0.98437,-0.23437 0.51563,-0.17188 1.03125,-0.48438 0.53125,-0.3125 1.0625,-0.8125 v -8.65624 h 5.84375 V 129 h -3.28125 v 21 h -2.5625 v -11.875 l -0.0625,-0.0156 q -0.89062,0.59375 -1.67187,0.78125 -0.78125,0.1875 -1.60938,0.1875 -0.26562,0 -0.54687,-0.0156 -0.28125,-0.0312 -0.57813,-0.0625 l -0.0156,0.0625 q 0.25,0.64062 0.25,1.57812 0,1.26563 -0.42188,2.34375 -0.42187,1.07813 -1.21875,1.875 -0.78125,0.78125 -1.90625,1.21875 -1.10937,0.4375 -2.5,0.4375 -1.48437,0 -2.6875,-0.51562 -1.1875,-0.53125 -2.15625,-1.35938 -0.95312,-0.82812 -1.67187,-1.85937 -0.71875,-1.04688 -1.23438,-2.09375 -0.51562,-1.04688 -0.84375,-1.98438 Q 202.09375,137.75 201.9375,137.125 Z M 235.45312,129 h -3.28125 v 21 h -2.5625 v -21 h -3.5625 v -2.29687 h 9.40625 z m 27.625,0 H 249.875 v 6.15625 l 0.0781,0.0312 q 0.79688,-1.09375 1.98438,-1.75 1.1875,-0.67188 2.60937,-0.67188 1.125,0 2.07813,0.46875 0.96875,0.45313 1.67187,1.26563 0.70313,0.79687 1.09375,1.89062 0.40625,1.09375 0.40625,2.35938 0,1.4375 -0.5,2.65625 -0.5,1.20312 -1.28125,2.1875 -0.78125,0.98437 -1.76562,1.75 -0.98438,0.75 -1.9375,1.28125 l -1.39063,-2.40625 q 0.3125,-0.17188 0.76563,-0.45313 0.45312,-0.28125 0.9375,-0.65625 0.5,-0.375 0.96875,-0.84375 0.48437,-0.48437 0.85937,-1.04687 0.39063,-0.5625 0.625,-1.21875 0.23438,-0.65625 0.23438,-1.39063 0,-0.67187 -0.21875,-1.28125 -0.20313,-0.60937 -0.57813,-1.0625 -0.375,-0.45312 -0.90625,-0.71875 -0.51562,-0.26562 -1.14062,-0.26562 -0.8125,0 -1.57813,0.42187 -0.76562,0.42188 -1.39062,1.0625 -0.625,0.625 -1.0625,1.34375 -0.42188,0.71875 -0.5625,1.32813 V 150 h -2.5625 v -5.98438 l -0.0625,-0.0312 q -0.23438,0.20313 -0.59375,0.5 -0.35938,0.28125 -0.875,0.54688 -0.5,0.26562 -1.17188,0.45312 -0.65625,0.1875 -1.48437,0.1875 -1.375,0 -2.54688,-0.53125 -1.15625,-0.53125 -2.01562,-1.4375 -0.84375,-0.92187 -1.32813,-2.15625 -0.48437,-1.23437 -0.48437,-2.64062 0,-1.34375 0.4375,-2.48438 0.45312,-1.14062 1.21875,-1.95312 0.78125,-0.82813 1.8125,-1.28125 1.04687,-0.46875 2.25,-0.46875 0.84375,0 1.5625,0.21875 0.73437,0.20312 1.32812,0.51562 0.60938,0.29688 1.07813,0.65625 0.48437,0.34375 0.8125,0.625 l 0.0625,-0.0156 V 129 h -12.95313 v -2.29687 h 28.71875 z m -20.23437,6.15625 q -0.89063,0 -1.57813,0.375 -0.67187,0.35937 -1.125,0.9375 -0.45312,0.5625 -0.6875,1.28125 -0.21875,0.70312 -0.21875,1.39062 0,0.75 0.26563,1.5 0.26562,0.73438 0.75,1.32813 0.5,0.59375 1.1875,0.96875 0.6875,0.35937 1.51562,0.35937 0.70313,0 1.46875,-0.28125 0.78125,-0.29687 1.42188,-0.90625 0.65625,-0.60937 1.07812,-1.54687 0.42188,-0.95313 0.42188,-2.26563 v -0.76562 q -0.375,-0.46875 -0.89063,-0.89063 -0.5,-0.4375 -1.09375,-0.76562 -0.57812,-0.32813 -1.21875,-0.51563 -0.64062,-0.20312 -1.29687,-0.20312 z M 271.39062,129 h -3.28125 v 21 h -2.5625 v -21 h -3.5625 v -2.29687 h 9.40625 z m 9.59375,8.5 q -0.28125,0.0312 -0.53125,0.0625 -0.25,0.0156 -0.51562,0.0156 -1.26563,0 -2.29688,-0.45312 -1.01562,-0.45313 -1.75,-1.21875 -0.71875,-0.76563 -1.10937,-1.76563 -0.39063,-1.01562 -0.39063,-2.125 0,-0.79687 0.21875,-1.54687 0.21875,-0.75 0.6875,-1.40625 L 275.28125,129 h -4.98438 v -2.29687 h 26.125 V 129 h -3.28125 v 21 h -2.5625 v -21 h -5.89062 l -0.0156,0.0625 q 0.40625,0.40625 0.75,0.98437 0.34375,0.5625 0.57813,1.23438 0.25,0.67187 0.39062,1.40625 0.14063,0.73437 0.14063,1.48437 0,1.21875 -0.39063,2.35938 -0.375,1.14062 -1.07812,2.15625 -0.6875,1.01562 -1.67188,1.89062 -0.96875,0.85938 -2.15625,1.53125 v 0.0625 q 0.78125,0.60938 1.67188,1.46875 0.89062,0.84375 1.76562,1.76563 0.875,0.92187 1.65625,1.84375 0.78125,0.90625 1.34375,1.65625 l -1.76562,1.48437 q -0.48438,-0.60937 -1.21875,-1.48437 -0.73438,-0.89063 -1.64063,-1.84375 -0.90625,-0.96875 -1.96875,-1.92188 -1.04687,-0.96875 -2.1875,-1.75 -0.5625,0.26563 -1.1875,0.39063 -0.60937,0.125 -1.21875,0.125 -0.70312,0 -1.35937,-0.17188 -0.64063,-0.17187 -1.15625,-0.5 -0.5,-0.32812 -0.79688,-0.79687 -0.29687,-0.48438 -0.29687,-1.10938 0,-0.98437 0.71875,-1.51562 0.73437,-0.54688 1.90625,-0.54688 0.85937,0 1.73437,0.3125 0.89063,0.29688 1.73438,0.90625 0.4375,-0.0937 0.98437,-0.32812 0.54688,-0.25 1.10938,-0.625 0.57812,-0.39063 1.10937,-0.90625 0.54688,-0.53125 0.96875,-1.20313 0.42188,-0.67187 0.67188,-1.46875 0.26562,-0.8125 0.26562,-1.75 0,-0.9375 -0.28125,-1.84375 Q 283.53125,131.45312 283,130.75 q -0.53125,-0.71875 -1.32813,-1.15625 -0.79687,-0.4375 -1.84375,-0.4375 -0.82812,0 -1.375,0.26562 -0.54687,0.25 -0.89062,0.65625 -0.34375,0.40625 -0.48438,0.90625 -0.14062,0.48438 -0.14062,0.95313 0,0.60937 0.21875,1.20312 0.21875,0.57813 0.64062,1.04688 0.4375,0.45312 1.07813,0.73437 0.64062,0.28125 1.46875,0.28125 0.26562,0 0.64062,-0.0469 z m 44.15625,-8.5 h -3.28125 v 21 h -2.5625 V 129 H 312.25 v 12.125 q 0,0.25 -0.0312,0.57812 -0.0312,0.32813 -0.15625,0.64063 -0.10938,0.29687 -0.32813,0.51562 -0.21875,0.20313 -0.60937,0.20313 -0.42188,0 -0.9375,-0.26563 -0.5,-0.28125 -1.03125,-0.71875 -0.53125,-0.45312 -1.03125,-1.01562 -0.48438,-0.5625 -0.875,-1.15625 -0.39063,-0.59375 -0.625,-1.15625 -0.23438,-0.5625 -0.23438,-1 0,-0.39063 0.1875,-0.625 0.20313,-0.23438 0.54688,-0.35938 0.35937,-0.125 0.85937,-0.15625 0.51563,-0.0312 1.125,-0.0312 h 0.54688 V 129 h -5.5625 v -2.29687 h 21.04687 z m 8.3125,0 h -3.28125 v 21 h -2.5625 v -21 h -3.5625 v -2.29687 h 9.40625 z m 19.57813,0 H 349.75 v 21 h -2.54688 V 136.28125 H 342.125 q -1.04688,0 -1.89063,0.14062 -0.84375,0.125 -1.4375,0.53125 -0.59375,0.39063 -0.92187,1.10938 -0.3125,0.70312 -0.3125,1.85937 0,1.5 0.48437,2.76563 0.5,1.26562 1.26563,2.32812 0.76562,1.04688 1.6875,1.9375 0.9375,0.89063 1.79687,1.64063 l -1.5625,1.78125 q -0.14062,-0.0781 -0.67187,-0.45313 -0.51563,-0.39062 -1.21875,-1.04687 -0.6875,-0.65625 -1.46875,-1.59375 -0.76563,-0.9375 -1.42188,-2.10938 -0.64062,-1.1875 -1.07812,-2.60937 -0.42188,-1.42188 -0.42188,-3.0625 0,-1.625 0.45313,-2.6875 0.46875,-1.07813 1.3125,-1.70313 0.84375,-0.64062 2.04687,-0.89062 1.20313,-0.25 2.6875,-0.25 h 5.75 V 129 h -14.84375 v -2.29687 h 20.67188 z m 8.3125,0 h -3.28125 v 21 H 355.5 v -21 h -3.5625 v -2.29687 h 9.40625 z m 19.57812,0 h -3.28125 v 21 h -2.54687 v -13.71875 h -5.07813 q -1.04687,0 -1.89062,0.14062 -0.84375,0.125 -1.4375,0.53125 -0.59375,0.39063 -0.92188,1.10938 -0.3125,0.70312 -0.3125,1.85937 0,1.5 0.48438,2.76563 0.5,1.26562 1.26562,2.32812 0.76563,1.04688 1.6875,1.9375 0.9375,0.89063 1.79688,1.64063 l -1.5625,1.78125 q -0.14063,-0.0781 -0.67188,-0.45313 -0.51562,-0.39062 -1.21875,-1.04687 -0.6875,-0.65625 -1.46875,-1.59375 -0.76562,-0.9375 -1.42187,-2.10938 -0.64063,-1.1875 -1.07813,-2.60937 -0.42187,-1.42188 -0.42187,-3.0625 0,-1.625 0.45312,-2.6875 0.46875,-1.07813 1.3125,-1.70313 0.84375,-0.64062 2.04688,-0.89062 1.20312,-0.25 2.6875,-0.25 h 5.75 V 129 H 360.25 v -2.29687 h 20.67187 z m 2.9375,21.34375 q -0.71875,0 -1.23437,-0.51563 -0.5,-0.51562 -0.5,-1.23437 0,-0.71875 0.5,-1.23438 0.51562,-0.53125 1.23437,-0.53125 0.73438,0 1.25,0.53125 0.51563,0.51563 0.51563,1.23438 0,0.71875 -0.51563,1.23437 -0.51562,0.51563 -1.25,0.51563 z"
         id="path5" />
      <path
         d="m 58.859375,179 h -3.28125 v 21 h -2.5625 v -21 h -3.5625 v -2.29688 h 3.5625 q -0.859375,-2.0625 -0.859375,-3.84375 0,-1.14062 0.375,-2.125 0.375,-0.98437 1.140625,-1.70312 0.78125,-0.71875 1.984375,-1.125 1.203125,-0.40625 2.859375,-0.40625 2.171875,0 4.171875,0.70312 2.015625,0.70313 3.9375,1.95313 1.921875,1.25 3.796875,2.96875 1.890625,1.71875 3.8125,3.75 h -2.71875 q -0.4375,-0.42188 -1.171875,-1.09375 -0.71875,-0.6875 -1.671875,-1.45313 -0.953125,-0.78125 -2.109375,-1.5625 -1.15625,-0.79687 -2.4375,-1.4375 -1.28125,-0.64062 -2.671875,-1.03125 -1.375,-0.40625 -2.78125,-0.40625 -1.140625,0 -1.921875,0.26563 -0.765625,0.26562 -1.25,0.73437 -0.46875,0.46875 -0.671875,1.10938 -0.203125,0.625 -0.203125,1.34375 0,1.40625 0.765625,3.35937 h 3.46875 z m 18.375,-2.29688 V 179 h -3.28125 v 21 h -2.5625 v -8.4375 l -0.04687,-0.0156 -9.3125,6.29688 -1.359375,-2.07813 10.71875,-7.09375 q -1.03125,-0.85937 -1.78125,-1.45312 -0.734375,-0.59375 -1.3125,-0.95313 -0.578125,-0.375 -1.078125,-0.53125 -0.5,-0.17187 -1.03125,-0.17187 -0.453125,0 -1,0.125 -0.53125,0.125 -1.234375,0.375 -0.703125,0.23437 -1.578125,0.60937 -0.875,0.35938 -1.984375,0.84375 l -1.03125,-2.46875 q 1.125,-0.48437 2.046875,-0.85937 0.921875,-0.39063 1.6875,-0.64063 0.765625,-0.26562 1.390625,-0.39062 0.640625,-0.14063 1.1875,-0.14063 0.578125,0 1.140625,0.20313 0.578125,0.1875 1.234375,0.60937 0.671875,0.40625 1.46875,1.04688 0.8125,0.64062 1.875,1.53125 V 179 h -13.625 v -2.29688 z M 96.5,179 h -3.28125 v 21 h -2.578125 v -7.46875 l -0.0625,-0.0156 q -1.046875,0.9375 -2.34375,1.34375 -1.296875,0.39063 -2.5625,0.39063 -1.34375,0 -2.453125,-0.39063 -1.109375,-0.39062 -1.90625,-1.1875 -0.796875,-0.8125 -1.25,-2.03125 -0.4375,-1.23437 -0.4375,-2.92187 V 179 h -3.484375 v -2.29688 H 96.5 Z m -5.859375,0 H 82.15625 v 8.57812 q 0,0.98438 0.15625,1.76563 0.171875,0.78125 0.5625,1.32812 0.40625,0.54688 1.0625,0.84375 0.65625,0.28125 1.640625,0.28125 1.609375,0 2.90625,-0.75 1.296875,-0.76562 2.15625,-2 z m -3.046875,21.46875 q 1,-0.625 2.21875,-0.96875 1.203125,-0.34375 2.296875,-0.34375 0.953125,0 1.78125,0.28125 0.8125,0.26562 1.421875,0.78125 0.609375,0.53125 0.953125,1.28125 0.34375,0.75 0.34375,1.6875 0,1 -0.40625,1.875 -0.390625,0.875 -1.1875,1.53125 -0.796875,0.65625 -1.96875,1.03125 -1.171875,0.39062 -2.71875,0.39062 -1.765625,0 -3.15625,-0.48437 -1.40625,-0.46875 -2.515625,-1.20313 -1.109375,-0.71875 -1.953125,-1.59375 -0.84375,-0.875 -1.484375,-1.65625 l 1.453125,-1.70312 q 0.890625,0.96875 1.703125,1.75 0.8125,0.78125 1.6875,1.32812 0.875,0.5625 1.890625,0.85938 1,0.29687 2.265625,0.29687 1.078125,0 1.84375,-0.21875 0.75,-0.20312 1.234375,-0.54687 0.484375,-0.32813 0.703125,-0.76563 0.21875,-0.42187 0.21875,-0.85937 0,-0.79688 -0.59375,-1.26563 -0.609375,-0.46875 -1.640625,-0.46875 -0.671875,0 -1.546875,0.23438 -0.890625,0.23437 -1.796875,0.78125 z M 112.14063,179 H 106.25 q 0.79688,1.375 1.28125,2.8125 0.5,1.42187 0.5,2.89062 0,1.10938 -0.34375,2.14063 -0.32812,1.01562 -0.98437,1.82812 -0.64063,0.79688 -1.60938,1.3125 -0.95312,0.5 -2.20312,0.5625 l -0.0312,0.0781 q 1.40625,2.1875 3.15625,4.14062 1.75,1.9375 4.04687,3.6875 l -1.67187,1.92188 q -1.32813,-0.98438 -2.53125,-2.125 -1.1875,-1.15625 -2.25,-2.375 -1.0625,-1.23438 -1.98438,-2.48438 -0.90625,-1.26562 -1.671875,-2.45312 -0.75,-1.20313 -1.34375,-2.29688 -0.59375,-1.10937 -1.015625,-2.01562 l 2.140625,-1.15625 q 0.562505,1.21875 1.265625,1.92187 0.71875,0.6875 1.65625,0.6875 0.67188,0 1.20313,-0.34375 0.53125,-0.34375 0.89062,-0.875 0.35938,-0.54687 0.54688,-1.1875 0.1875,-0.65625 0.1875,-1.28125 0,-0.73437 -0.1875,-1.4375 -0.1875,-0.71875 -0.48438,-1.39062 -0.29687,-0.6875 -0.67187,-1.32813 Q 103.78125,179.59375 103.4375,179 h -8.03125 v -2.29688 h 16.73438 z m 8.3125,0 h -3.28125 v 21 h -2.5625 v -21 h -3.5625 v -2.29688 h 9.40625 z m 15.64062,0 h -5.89063 q 0.79688,1.375 1.28125,2.8125 0.5,1.42187 0.5,2.89062 0,1.10938 -0.34375,2.14063 -0.32812,1.01562 -0.98437,1.82812 -0.64063,0.79688 -1.60938,1.3125 -0.95312,0.5 -2.20312,0.5625 l -0.0312,0.0781 q 1.40625,2.1875 3.15625,4.14062 1.75,1.9375 4.04687,3.6875 l -1.67187,1.92188 q -1.32813,-0.98438 -2.53125,-2.125 -1.1875,-1.15625 -2.25,-2.375 -1.0625,-1.23438 -1.98437,-2.48438 -0.90625,-1.26562 -1.67188,-2.45312 -0.75,-1.20313 -1.34375,-2.29688 -0.59375,-1.10937 -1.01562,-2.01562 l 2.14062,-1.15625 q 0.5625,1.21875 1.26563,1.92187 0.71875,0.6875 1.65625,0.6875 0.67187,0 1.20312,-0.34375 0.53125,-0.34375 0.89062,-0.875 0.35938,-0.54687 0.54688,-1.1875 0.1875,-0.65625 0.1875,-1.28125 0,-0.73437 -0.1875,-1.4375 -0.1875,-0.71875 -0.48438,-1.39062 -0.29687,-0.6875 -0.67187,-1.32813 -0.35937,-0.64062 -0.70312,-1.23437 h -8.03125 v -2.29688 h 16.73437 z m 8.3125,0 H 141.125 v 21 h -2.5625 V 179 H 135 v -2.29688 h 3.8125 q -0.28125,-1.59375 -0.71875,-2.71875 -0.4375,-1.14062 -0.95313,-1.89062 -0.51562,-0.76563 -1.07812,-1.20313 -0.5625,-0.4375 -1.07813,-0.65625 -0.53125,-0.21875 -0.98437,-0.28125 -0.46875,-0.0625 -0.76563,-0.0625 -0.96875,0 -1.54687,0.3125 -0.59375,0.29688 -0.90625,0.71875 -0.3125,0.42188 -0.40625,0.89063 -0.10938,0.45312 -0.10938,0.78125 0,0.125 0.0469,0.51562 0.0312,0.375 0.25,0.95313 0.20312,0.57812 0.64062,1.29687 0.4375,0.71875 1.23438,1.51563 h -2.65625 q -0.98438,-1.125 -1.46875,-2.32813 -0.5,-1.21875 -0.5,-2.35937 0,-0.95313 0.34375,-1.8125 0.34375,-0.85938 1.03125,-1.48438 0.6875,-0.64062 1.71875,-1.01562 1.03125,-0.375 2.39062,-0.375 1.875,0 3.23438,0.73437 1.35937,0.71875 2.28125,1.96875 0.9375,1.25 1.46875,2.9375 0.54687,1.67188 0.76562,3.5625 h 3.35938 z m 12.98437,0 H 143.3125 v -2.29688 h 14.07812 z m 3.75,13.45312 q -1.09375,1.125 -2.10937,1.76563 -1,0.64062 -1.85938,0.95312 -0.84375,0.3125 -1.5,0.39063 -0.64062,0.0625 -1.01562,0.0625 -1.4375,0 -2.54688,-0.45313 -1.10937,-0.45312 -1.85937,-1.1875 -0.75,-0.75 -1.14063,-1.70312 -0.39062,-0.96875 -0.39062,-2 0,-1.07813 0.4375,-2.14063 0.45312,-1.0625 1.40625,-1.90625 l -0.0156,-0.0625 h -4.95312 V 183.875 h 12.25 v 2.29687 h -1.29688 q -1.60937,0 -2.64062,0.42188 -1.03125,0.42187 -1.625,1.03125 -0.59375,0.60937 -0.82813,1.3125 -0.21875,0.6875 -0.21875,1.25 0,0.46875 0.15625,1.01562 0.15625,0.53125 0.51563,0.98438 0.375,0.45312 0.98437,0.75 0.625,0.29687 1.5625,0.29687 0.98438,0 1.82813,-0.3125 0.85937,-0.32812 1.57812,-0.82812 0.71875,-0.5 1.29688,-1.10938 0.59375,-0.60937 1.01562,-1.20312 z M 177.60937,179 h -3.28125 v 21 h -2.5625 v -7.3125 l -0.0625,-0.0156 q -0.42187,0.34375 -1.01562,0.6875 -0.57813,0.32813 -1.29688,0.59375 -0.71875,0.25 -1.54687,0.42188 -0.82813,0.15625 -1.73438,0.15625 -1.8125,0 -3.10937,-0.65625 -1.28125,-0.65625 -2.15625,-1.75 -0.85938,-1.10938 -1.35938,-2.51563 -0.5,-1.42187 -0.71875,-2.95312 1.03125,-0.14063 1.76563,-0.48438 0.73437,-0.34375 1.1875,-0.8125 0.45312,-0.48437 0.65625,-1.04687 0.21875,-0.5625 0.21875,-1.125 0,-0.375 -0.0781,-0.84375 -0.0625,-0.46875 -0.23437,-1 -0.17188,-0.54688 -0.45313,-1.14063 Q 161.54687,179.60937 161.125,179 h -4.51563 v -2.29688 h 21 z m -13.71875,0 q 0.5625,0.95312 0.875,2.09375 0.32813,1.125 0.32813,2.21875 0,0.79687 -0.21875,1.54687 -0.20313,0.75 -0.64063,1.40625 -0.4375,0.64063 -1.09375,1.15625 -0.64062,0.5 -1.5,0.79688 0.25,1.04687 0.6875,1.79687 0.4375,0.73438 1.03125,1.21875 0.59375,0.46875 1.32813,0.6875 0.73437,0.21875 1.57812,0.21875 0.8125,0 1.59375,-0.1875 0.79688,-0.1875 1.5,-0.53125 0.71875,-0.35937 1.32813,-0.85937 0.60937,-0.5 1.07812,-1.125 V 179 Z m 22.03125,0 h -3.28125 v 21 h -2.5625 v -21 h -3.5625 v -2.29688 h 9.40625 z m 28.20313,0 h -3.28125 v 21 h -2.57813 v -12.04688 h -7.3125 q 0,1.03125 -0.0312,1.76563 -0.0156,0.73437 -0.125,1.21875 -0.10937,0.46875 -0.32812,0.6875 -0.21875,0.21875 -0.60938,0.21875 -0.8125,0 -1.54687,-0.53125 -0.71875,-0.53125 -1.28125,-1.28125 -0.54688,-0.75 -0.875,-1.5625 -0.32813,-0.8125 -0.32813,-1.375 0,-0.5 0.21875,-0.78125 0.21875,-0.28125 0.57813,-0.42188 0.35937,-0.14062 0.8125,-0.17187 0.46875,-0.0312 0.9375,-0.0312 h 9.89062 V 179 h -14.67187 v -2.29688 H 214.125 Z m -3.28125,22.54687 h -1.70313 q -1.48437,0 -2.20312,0.60938 -0.73438,0.625 -0.73438,1.51562 0,0.95313 0.78125,1.46875 0.76563,0.51563 2.23438,0.51563 0.70312,0 1.39062,-0.125 0.6875,-0.125 1.45313,-0.375 l 0.54687,2.25 q -0.79687,0.28125 -1.57812,0.4375 Q 210.25,208 209.35937,208 q -1.20312,0 -2.20312,-0.3125 -1.01563,-0.3125 -1.73438,-0.89063 -0.73437,-0.57812 -1.14062,-1.42187 -0.42188,-0.82813 -0.42188,-1.89063 0,-1.10937 0.4375,-1.92187 0.4375,-0.79688 1.15625,-1.32813 0.71875,-0.51562 1.65625,-0.76562 0.92188,-0.25 1.92188,-0.25 h 1.8125 z M 242.78125,179 H 239.5 v 21 h -2.5625 v -7.3125 l -0.0625,-0.0156 q -0.42188,0.34375 -1.01563,0.6875 -0.57812,0.32813 -1.29687,0.59375 -0.71875,0.25 -1.54688,0.42188 -0.82812,0.15625 -1.73437,0.15625 -1.46875,0 -2.51563,-0.40625 -1.03125,-0.40625 -1.78125,-1.04688 -0.73437,-0.65625 -1.26562,-1.46875 -0.51563,-0.82812 -0.95313,-1.65625 -0.35937,-0.67187 -0.73437,-1.26562 -0.35938,-0.60938 -0.8125,-1.0625 -0.45313,-0.46875 -1.01563,-0.73438 -0.5625,-0.28125 -1.3125,-0.28125 -1.375,0 -2.01562,0.92188 -0.64063,0.90625 -0.64063,2.45312 0,1.48438 0.5,2.75 0.51563,1.25 1.28125,2.3125 0.78125,1.0625 1.70313,1.95313 0.92187,0.875 1.75,1.59375 l -1.5625,1.78125 q -0.14063,-0.0781 -0.67188,-0.46875 -0.51562,-0.40625 -1.21875,-1.07813 -0.6875,-0.6875 -1.46875,-1.625 -0.76562,-0.95312 -1.42187,-2.10937 -0.64063,-1.17188 -1.07813,-2.54688 -0.42187,-1.375 -0.42187,-2.90625 0,-1.5 0.45312,-2.54687 0.45313,-1.0625 1.17188,-1.71875 0.73437,-0.67188 1.625,-0.98438 0.89062,-0.3125 1.78125,-0.3125 1.17187,0 2.3125,0.5 1.15625,0.5 2.28125,1.78125 0.67187,-0.23437 1.14062,-0.57812 0.48438,-0.35938 0.78125,-0.76563 0.3125,-0.42187 0.45313,-0.89062 0.14062,-0.46875 0.14062,-0.9375 0,-0.375 -0.0781,-0.84375 -0.0625,-0.46875 -0.23438,-1 Q 227.28125,180.79687 227,180.20312 226.71875,179.60937 226.29687,179 h -13.26562 v -2.29688 h 29.75 z m -13.71875,0 q 0.5625,0.95312 0.875,2.09375 0.32812,1.125 0.32812,2.21875 0,0.79687 -0.21875,1.54687 -0.20312,0.75 -0.64062,1.40625 -0.4375,0.64063 -1.09375,1.15625 -0.64063,0.5 -1.5,0.79688 0.25,1.04687 0.6875,1.79687 0.4375,0.73438 1.03125,1.21875 0.59375,0.46875 1.32812,0.6875 0.73438,0.21875 1.57813,0.21875 0.8125,0 1.59375,-0.1875 0.79687,-0.1875 1.5,-0.53125 0.71875,-0.35937 1.32812,-0.85937 0.60938,-0.5 1.07813,-1.125 V 179 Z m 22.03125,0 h -3.28125 v 21 H 245.25 v -21 h -3.5625 v -2.29688 h 9.40625 z m 19.57812,0 h -3.28125 v 21 h -2.54687 v -13.71875 h -5.07813 q -1.04687,0 -1.89062,0.14062 -0.84375,0.125 -1.4375,0.53125 -0.59375,0.39063 -0.92188,1.10938 -0.3125,0.70312 -0.3125,1.85937 0,1.5 0.48438,2.76563 0.5,1.26562 1.26562,2.32812 0.76563,1.04688 1.6875,1.9375 0.9375,0.89063 1.79688,1.64063 l -1.5625,1.78125 q -0.14063,-0.0781 -0.67188,-0.45313 -0.51562,-0.39062 -1.21875,-1.04687 -0.6875,-0.65625 -1.46875,-1.59375 -0.76562,-0.9375 -1.42187,-2.10938 -0.64063,-1.1875 -1.07813,-2.60937 -0.42187,-1.42188 -0.42187,-3.0625 0,-1.625 0.45312,-2.6875 0.46875,-1.07813 1.3125,-1.70313 0.84375,-0.64062 2.04688,-0.89062 1.20312,-0.25 2.6875,-0.25 h 5.75 V 179 H 250 v -2.29688 h 20.67187 z m 31.625,0 h -3.28125 v 21.01562 h -2.5625 V 185.375 q -0.82812,-0.29688 -1.5625,-0.29688 -0.73437,0 -1.28125,0.28125 -0.54687,0.26563 -0.92187,0.71875 -0.35938,0.45313 -0.54688,1.0625 -0.1875,0.60938 -0.1875,1.28125 0,0.26563 0.0156,0.54688 0.0312,0.26562 0.0625,0.53125 h -2.39063 q -0.125,-0.90625 -0.29687,-1.73438 -0.15625,-0.82812 -0.46875,-1.45312 -0.29688,-0.625 -0.78125,-0.98438 -0.48438,-0.375 -1.25,-0.375 -0.73438,0 -1.26563,0.29688 -0.51562,0.29687 -0.85937,0.82812 -0.34375,0.53125 -0.51563,1.25 -0.15625,0.70313 -0.15625,1.53125 0,1.78125 0.60938,3.20313 0.60937,1.40625 1.64062,2.53125 1.04688,1.125 2.40625,2.01562 1.375,0.875 2.89063,1.60938 l -1.26563,2.15625 q -0.5625,-0.25 -1.45312,-0.75 -0.875,-0.5 -1.875,-1.23438 -0.98438,-0.73437 -1.98438,-1.71875 -1,-0.98437 -1.8125,-2.20312 -0.79687,-1.21875 -1.29687,-2.6875 -0.5,-1.46875 -0.5,-3.17188 0,-1.3125 0.375,-2.4375 0.375,-1.14062 1.0625,-1.96875 0.70312,-0.84375 1.6875,-1.3125 0.98437,-0.48437 2.1875,-0.48437 0.90625,0 1.5625,0.26562 0.65625,0.25 1.125,0.64063 0.48437,0.375 0.79687,0.82812 0.3125,0.4375 0.54688,0.82813 l 0.0781,-0.0156 q 0.29688,-0.65625 0.70313,-1.10937 0.42187,-0.45313 0.90625,-0.73438 0.5,-0.28125 1.04687,-0.40625 0.54688,-0.14062 1.09375,-0.14062 0.48438,0 0.95313,0.0937 0.48437,0.0781 0.92187,0.23437 V 179 h -18.10937 v -2.29688 h 23.95312 z m 8.3125,0 h -3.28125 v 21 h -2.5625 v -21 h -3.5625 v -2.29688 h 3.8125 q -0.28125,-1.59375 -0.71875,-2.71875 -0.4375,-1.14062 -0.95312,-1.89062 -0.51563,-0.76563 -1.07813,-1.20313 -0.5625,-0.4375 -1.07812,-0.65625 -0.53125,-0.21875 -0.98438,-0.28125 -0.46875,-0.0625 -0.76562,-0.0625 -0.96875,0 -1.54688,0.3125 -0.59375,0.29688 -0.90625,0.71875 -0.3125,0.42188 -0.40625,0.89063 -0.10937,0.45312 -0.10937,0.78125 0,0.125 0.0469,0.51562 0.0312,0.375 0.25,0.95313 0.20313,0.57812 0.64063,1.29687 0.4375,0.71875 1.23437,1.51563 h -2.65625 Q 295,175.75 294.51562,174.54687 q -0.5,-1.21875 -0.5,-2.35937 0,-0.95313 0.34375,-1.8125 0.34375,-0.85938 1.03125,-1.48438 0.6875,-0.64062 1.71875,-1.01562 1.03125,-0.375 2.39063,-0.375 1.875,0 3.23437,0.73437 1.35938,0.71875 2.28125,1.96875 0.9375,1.25 1.46875,2.9375 0.54688,1.67188 0.76563,3.5625 h 3.35937 z m 19.4375,0 h -3.28125 v 21 h -2.57812 v -12.04688 h -7.3125 q 0,1.03125 -0.0312,1.76563 -0.0156,0.73437 -0.125,1.21875 -0.10938,0.46875 -0.32813,0.6875 -0.21875,0.21875 -0.60937,0.21875 -0.8125,0 -1.54688,-0.53125 -0.71875,-0.53125 -1.28125,-1.28125 -0.54687,-0.75 -0.875,-1.5625 -0.32812,-0.8125 -0.32812,-1.375 0,-0.5 0.21875,-0.78125 0.21875,-0.28125 0.57812,-0.42188 0.35938,-0.14062 0.8125,-0.17187 0.46875,-0.0312 0.9375,-0.0312 h 9.89063 V 179 h -14.67188 v -2.29688 h 20.53125 z m 8.3125,0 h -3.28125 v 21 h -2.5625 v -21 h -3.5625 v -2.29688 h 9.40625 z m 4.39063,17.4375 -2.5,7.6875 h -1.82813 l 1.82813,-7.6875 z"
         id="path6" />
      <path
         d="m 73.484375,229 h -3.28125 v 21 h -2.5625 v -8.76563 H 59.4375 v 2.23438 q 0,0.23437 -0.04687,0.5 -0.03125,0.26562 -0.15625,0.5 -0.109375,0.21875 -0.3125,0.375 -0.1875,0.14062 -0.484375,0.14062 -0.359375,0 -0.859375,-0.21875 -0.484375,-0.23437 -1.015625,-0.60937 -0.515625,-0.39063 -1.03125,-0.875 -0.5,-0.5 -0.90625,-1.03125 -0.390625,-0.53125 -0.640625,-1.0625 -0.25,-0.53125 -0.25,-0.98438 0,-0.65625 0.46875,-0.95312 0.46875,-0.29688 1.234375,-0.29688 h 1.515625 V 230.375 q 0,-0.8125 -0.390625,-1.23438 -0.390625,-0.4375 -0.984375,-0.4375 -0.65625,0 -1.109375,0.48438 -0.4375,0.48437 -0.4375,1.23437 0,0.14063 0.03125,0.34375 0.03125,0.20313 0.15625,0.46875 0.125,0.25 0.375,0.57813 0.25,0.3125 0.671875,0.67187 L 53.875,234.1875 Q 53.15625,233.79687 52.703125,233.32812 52.25,232.84375 52,232.34375 q -0.25,-0.5 -0.34375,-0.96875 -0.09375,-0.48438 -0.09375,-0.89063 0,-0.75 0.25,-1.46875 0.265625,-0.73437 0.78125,-1.3125 0.515625,-0.59375 1.28125,-0.95312 0.78125,-0.35938 1.8125,-0.35938 0.90625,0 1.609375,0.29688 0.703125,0.29687 1.171875,0.85937 0.484375,0.54688 0.71875,1.32813 0.25,0.76562 0.25,1.71875 v 8.35937 h 8.203125 v -12.25 h 5.84375 z M 93.5,238.53125 q -0.359375,-0.17188 -0.765625,-0.25 -0.390625,-0.0781 -0.78125,-0.0781 -0.75,0 -1.4375,0.26563 -0.6875,0.25 -1.234375,0.65625 -0.53125,0.39062 -0.90625,0.89062 -0.359375,0.5 -0.46875,0.98438 v 9 h -2.5625 v -5.98438 l -0.0625,-0.0312 q -0.234375,0.20313 -0.59375,0.5 -0.359375,0.28125 -0.875,0.54688 -0.5,0.26562 -1.171875,0.45312 -0.65625,0.1875 -1.484375,0.1875 -1.375,0 -2.546875,-0.53125 -1.15625,-0.53125 -2.015625,-1.4375 -0.84375,-0.92187 -1.328125,-2.15625 -0.484375,-1.23437 -0.484375,-2.64062 0,-1.34375 0.4375,-2.48438 0.453125,-1.14062 1.21875,-1.95312 0.78125,-0.82813 1.8125,-1.28125 1.046875,-0.46875 2.25,-0.46875 0.84375,0 1.5625,0.21875 0.734375,0.20312 1.328125,0.51562 Q 84,233.75 84.46875,234.10937 q 0.484375,0.34375 0.8125,0.625 l 0.0625,-0.0156 V 229 H 72.390625 v -2.29688 h 24.4375 V 229 H 87.90625 v 8.09375 l 0.07813,0.0312 q 0.703125,-0.59375 1.71875,-0.98438 1.03125,-0.40625 2.21875,-0.40625 0.484375,0 1.015625,0.0937 0.53125,0.0781 1.03125,0.29688 z m -12.625,-3.375 q -0.890625,0 -1.578125,0.375 -0.671875,0.35937 -1.125,0.9375 -0.453125,0.5625 -0.6875,1.28125 -0.21875,0.70312 -0.21875,1.39062 0,0.75 0.265625,1.5 0.265625,0.73438 0.75,1.32813 0.5,0.59375 1.1875,0.96875 0.6875,0.35937 1.515625,0.35937 0.703125,0 1.46875,-0.28125 0.78125,-0.29687 1.421875,-0.90625 Q 84.53125,241.5 84.953125,240.5625 85.375,239.60937 85.375,238.29687 v -0.76562 Q 85,237.0625 84.484375,236.64062 q -0.5,-0.4375 -1.09375,-0.76562 -0.578125,-0.32813 -1.21875,-0.51563 Q 81.53125,235.15625 80.875,235.15625 Z M 109.9375,229 h -3.28125 v 21 h -2.54687 v -13.71875 h -5.07813 q -1.046875,0 -1.890625,0.14062 -0.84375,0.125 -1.4375,0.53125 -0.59375,0.39063 -0.921875,1.10938 -0.3125,0.70312 -0.3125,1.85937 0,1.5 0.484375,2.76563 0.5,1.26562 1.265625,2.32812 0.765625,1.04688 1.6875,1.9375 0.9375,0.89063 1.796875,1.64063 l -1.5625,1.78125 Q 98,250.29687 97.46875,249.92187 96.953125,249.53125 96.25,248.875 q -0.6875,-0.65625 -1.46875,-1.59375 -0.765625,-0.9375 -1.421875,-2.10938 -0.640625,-1.1875 -1.078125,-2.60937 -0.421875,-1.42188 -0.421875,-3.0625 0,-1.625 0.453125,-2.6875 0.46875,-1.07813 1.3125,-1.70313 0.84375,-0.64062 2.046875,-0.89062 1.203125,-0.25 2.6875,-0.25 h 5.750005 V 229 H 89.265625 v -2.29688 H 109.9375 Z m 8.3125,0 h -3.28125 v 21 h -2.5625 v -21 h -3.5625 v -2.29688 h 3.8125 q -0.28125,-1.59375 -0.71875,-2.71875 -0.4375,-1.14062 -0.95312,-1.89062 -0.51563,-0.76563 -1.07813,-1.20313 -0.5625,-0.4375 -1.07812,-0.65625 -0.53125,-0.21875 -0.98438,-0.28125 -0.46875,-0.0625 -0.76562,-0.0625 -0.96875,0 -1.54688,0.3125 -0.59375,0.29688 -0.90625,0.71875 -0.3125,0.42188 -0.40625,0.89063 -0.10937,0.45312 -0.10937,0.78125 0,0.125 0.0469,0.51562 0.0312,0.375 0.25,0.95313 0.20313,0.57812 0.64063,1.29687 0.4375,0.71875 1.23437,1.51563 H 103.625 q -0.98437,-1.125 -1.46875,-2.32813 -0.5,-1.21875 -0.5,-2.35937 0,-0.95313 0.34375,-1.8125 0.34375,-0.85938 1.03125,-1.48438 0.6875,-0.64062 1.71875,-1.01562 1.03125,-0.375 2.39063,-0.375 1.875,0 3.23437,0.73437 1.35938,0.71875 2.28125,1.96875 0.9375,1.25 1.46875,2.9375 0.54688,1.67188 0.76563,3.5625 H 118.25 Z m 21.64062,0 h -3.28125 v 21 h -2.59375 v -6.57813 l -0.0625,-0.0469 q -0.85937,0.78125 -1.6875,1.23437 -0.8125,0.4375 -1.53125,0.67188 -0.70312,0.21875 -1.28125,0.28125 -0.57812,0.0625 -0.95312,0.0625 -1.4375,0 -2.54687,-0.45313 -1.10938,-0.45312 -1.85938,-1.1875 -0.75,-0.75 -1.14062,-1.70312 -0.39063,-0.96875 -0.39063,-2 0,-1.07813 0.4375,-2.14063 0.45313,-1.0625 1.40625,-1.90625 l -0.0156,-0.0625 H 119.4375 V 233.875 H 132 v 2.29687 h -1.60938 q -1.60937,0 -2.64062,0.42188 -1.03125,0.42187 -1.625,1.03125 -0.59375,0.60937 -0.82812,1.3125 -0.21875,0.6875 -0.21875,1.25 0,0.46875 0.15625,1.01562 0.15625,0.53125 0.51562,0.98438 0.375,0.45312 0.98438,0.75 0.625,0.29687 1.56249,0.29687 0.98438,0 1.82813,-0.3125 0.85937,-0.32812 1.57812,-0.84375 0.71875,-0.51562 1.29688,-1.15625 0.59375,-0.65625 1.01562,-1.29687 V 229 h -16.85937 v -2.29688 h 22.73437 z m 8.3125,0 h -3.28125 v 21 h -2.5625 v -21 h -3.5625 v -2.29688 h 3.8125 q -0.28125,-1.59375 -0.71875,-2.71875 -0.4375,-1.14062 -0.95312,-1.89062 -0.51563,-0.76563 -1.07813,-1.20313 -0.5625,-0.4375 -1.07812,-0.65625 -0.53125,-0.21875 -0.98438,-0.28125 -0.46875,-0.0625 -0.76562,-0.0625 -0.96875,0 -1.54688,0.3125 -0.59375,0.29688 -0.90625,0.71875 -0.3125,0.42188 -0.40625,0.89063 -0.10937,0.45312 -0.10937,0.78125 0,0.125 0.0469,0.51562 0.0312,0.375 0.25,0.95313 0.20313,0.57812 0.64063,1.29687 0.4375,0.71875 1.23437,1.51563 h -2.65625 q -0.98437,-1.125 -1.46875,-2.32813 -0.5,-1.21875 -0.5,-2.35937 0,-0.95313 0.34375,-1.8125 0.34375,-0.85938 1.03125,-1.48438 0.6875,-0.64062 1.71875,-1.01562 1.03125,-0.375 2.39063,-0.375 1.875,0 3.23437,0.73437 1.35938,0.71875 2.28125,1.96875 0.9375,1.25 1.46875,2.9375 0.54688,1.67188 0.76563,3.5625 h 3.35937 z m 31.8125,-2.29688 V 229 h -3.28125 v 21 h -2.59375 v -10.5 h -9.04687 q -0.82813,0.54687 -1.98438,0.65625 l -0.0312,0.0781 q 1.51563,2.375 3.32813,4.42188 1.8125,2.04687 4.125,3.79687 l -1.67188,1.92188 q -1.32812,-0.98438 -2.53125,-2.125 -1.1875,-1.14063 -2.25,-2.35938 -1.04687,-1.23437 -1.96875,-2.48437 -0.92187,-1.26563 -1.6875,-2.48438 -0.76562,-1.21875 -1.375,-2.34375 -0.60937,-1.14062 -1.0625,-2.10937 l 2.14063,-1.15625 q 0.29687,0.6875 0.57812,1.15625 0.29688,0.45312 0.59375,0.73437 0.29688,0.26563 0.625,0.39063 0.32813,0.10937 0.70313,0.10937 1.07812,0 1.57812,-0.84375 0.51563,-0.84375 0.51563,-2.21875 0,-0.8125 -0.15625,-1.59375 -0.15625,-0.79687 -0.40625,-1.51562 -0.23438,-0.73438 -0.51563,-1.375 Q 163.35937,229.51562 163.10937,229 H 155.875 v -2.29688 z M 174.14062,229 h -8.32812 q 0.65625,1.42187 1.03125,2.85937 0.375,1.4375 0.375,2.85938 0,0.65625 -0.10938,1.29687 -0.0937,0.625 -0.32812,1.1875 l 0.0312,0.0312 h 7.32812 z m 14.1875,0 h -3.28125 v 21 h -2.5625 v -21 h -3.5625 v -2.29688 h 9.40625 z m 17.10938,-2.29688 h 5.84375 V 229 H 208 v 21 h -2.5625 v -13.57813 q -1.57813,0.64063 -2.95313,0.89063 -1.35937,0.25 -2.625,0.25 -1.32812,0 -2.39062,-0.21875 -1.04688,-0.21875 -1.98438,-0.625 -0.67187,0.45312 -1.3125,0.98437 -0.625,0.53125 -1.125,1.1875 -0.48437,0.64063 -0.79687,1.4375 -0.29688,0.79688 -0.29688,1.78125 0,0.5625 0.14063,1.26563 0.15625,0.70312 0.60937,1.34375 0.45313,0.625 1.29688,1.0625 0.85937,0.42187 2.26562,0.42187 0.5,0 0.98438,-0.0625 0.5,-0.0625 0.85937,-0.20312 -0.0625,-0.29688 -0.0937,-0.59375 -0.0312,-0.3125 -0.0312,-0.64063 0,-0.70312 0.15625,-1.40625 0.17188,-0.70312 0.5,-1.25 0.34375,-0.5625 0.85938,-0.90625 0.51562,-0.34375 1.20312,-0.34375 0.53125,0 0.92188,0.20313 0.39062,0.20312 0.65625,0.54687 0.26562,0.34375 0.39062,0.8125 0.14063,0.45313 0.14063,0.96875 0,0.57813 -0.15625,1.10938 -0.15625,0.53125 -0.42188,1 -0.25,0.45312 -0.59375,0.85937 -0.32812,0.39063 -0.70312,0.71875 0.29687,0.67188 0.625,1.20313 0.32812,0.51562 0.67187,0.9375 0.35938,0.40625 0.71875,0.75 0.375,0.32812 0.73438,0.625 l -1.92188,2.01562 q -0.71875,-0.67187 -1.23437,-1.34375 -0.5,-0.65625 -0.84375,-1.23437 -0.34375,-0.57813 -0.5625,-1.04688 -0.21875,-0.46875 -0.35938,-0.75 -0.51562,0.21875 -1.17187,0.3125 -0.64063,0.0781 -1.20313,0.0781 -1.53125,0 -2.8125,-0.48438 -1.26562,-0.5 -2.17187,-1.39062 Q 190.5,245.79687 190,244.5625 q -0.5,-1.25 -0.5,-2.73438 0,-1.28125 0.34375,-2.26562 0.35937,-1 0.9375,-1.76563 0.57812,-0.76562 1.29687,-1.34375 0.73438,-0.59375 1.46875,-1.07812 l 0.0156,-0.0625 q -1.17188,-0.9375 -1.6875,-2.01563 -0.51563,-1.09375 -0.51563,-2.26562 0,-1.04688 0.35938,-1.89063 0.375,-0.85937 1,-1.46875 0.625,-0.60937 1.4375,-0.9375 0.8125,-0.34375 1.6875,-0.34375 0.85937,0 1.65625,0.3125 0.79687,0.3125 1.42187,0.90625 0.625,0.57813 1,1.4375 0.375,0.84375 0.375,1.90625 0,0.71875 -0.17187,1.29688 -0.17188,0.57812 -0.48438,1.0625 -0.29687,0.48437 -0.73437,0.90625 -0.4375,0.40625 -0.95313,0.78125 l 0.0156,0.0625 q 0.45312,0.0937 0.92187,0.14062 0.46875,0.0312 0.90625,0.0312 1.28125,0 2.70313,-0.34375 1.42187,-0.34375 2.9375,-1.23437 z m -7.625,4.23438 q 0,-0.48438 -0.15625,-0.875 -0.14063,-0.40625 -0.42188,-0.6875 -0.26562,-0.29688 -0.625,-0.45313 -0.35937,-0.15625 -0.78125,-0.15625 -0.3125,0 -0.65625,0.10938 -0.34375,0.0937 -0.65625,0.35937 -0.29687,0.25 -0.5,0.6875 -0.1875,0.42188 -0.1875,1.07813 0,0.98437 0.45313,1.70312 0.46875,0.70313 1.40625,1.25 0.4375,-0.29687 0.82812,-0.60937 0.39063,-0.3125 0.67188,-0.67188 0.29687,-0.375 0.45312,-0.79687 0.17188,-0.42188 0.17188,-0.9375 z M 239.96875,229 h -5.29688 v 6.85937 h -5.26562 q -2.45313,0 -3.70313,1.21875 -1.25,1.20313 -1.25,3.46875 0,1.28125 0.40625,2.26563 0.42188,0.98437 1.14063,1.65625 0.73437,0.65625 1.73437,1 1,0.34375 2.17188,0.34375 1.23437,0 1.98437,-0.375 -0.0625,-0.39063 -0.0937,-0.6875 -0.0312,-0.29688 -0.0312,-0.59375 0,-0.65625 0.15625,-1.34375 0.17188,-0.70313 0.5,-1.26563 0.34375,-0.57812 0.85938,-0.9375 0.53125,-0.35937 1.26562,-0.35937 0.45313,0 0.85938,0.15625 0.40625,0.15625 0.70312,0.48437 0.3125,0.3125 0.48438,0.79688 0.1875,0.48437 0.1875,1.125 0,0.64062 -0.17188,1.1875 -0.17187,0.53125 -0.45312,1 -0.26563,0.45312 -0.60938,0.85937 -0.34375,0.39063 -0.67187,0.71875 0.34375,0.75 0.71875,1.34375 0.39062,0.59375 0.79687,1.0625 0.42188,0.46875 0.84375,0.84375 0.42188,0.375 0.84375,0.70313 l -1.92187,2.01562 q -0.82813,-0.73437 -1.42188,-1.46875 -0.57812,-0.71875 -0.98437,-1.35937 -0.39063,-0.64063 -0.64063,-1.15625 -0.25,-0.51563 -0.40625,-0.82813 -1.07812,0.42188 -2.65625,0.42188 -2.03125,0 -3.54687,-0.65625 -1.51563,-0.67188 -2.53125,-1.78125 -1,-1.125 -1.5,-2.5625 -0.5,-1.4375 -0.5,-2.98438 0,-1.60937 0.51562,-2.82812 0.51563,-1.23438 1.4375,-2.0625 0.92188,-0.84375 2.1875,-1.26563 1.28125,-0.4375 2.79688,-0.4375 h 3.20312 V 229 h -13.15625 v -2.29688 h 21.01563 z m -5.51563,-1.85938 h -2.26562 l -1.42188,-2.67187 q -0.90625,-1.70313 -1.64062,-2.70313 -0.75,-1 -1.40625,-1.51562 -0.67188,-0.53125 -1.3125,-0.67188 -0.64063,-0.15625 -1.34375,-0.15625 h -3.03125 v -2.53125 h 2.85937 q 0.90625,0 1.64063,0.15625 0.73437,0.14063 1.40625,0.53125 0.65625,0.375 1.29687,1.0625 0.625,0.67188 1.34375,1.75 0.71875,1.0625 1.57813,2.5625 0.84375,1.48438 1.9375,3.51563 z M 259.54687,229 h -3.28125 v 21 h -2.54687 v -13.71875 h -5.07813 q -1.04687,0 -1.89062,0.14062 -0.84375,0.125 -1.4375,0.53125 -0.59375,0.39063 -0.92188,1.10938 -0.3125,0.70312 -0.3125,1.85937 0,1.5 0.48438,2.76563 0.5,1.26562 1.26562,2.32812 0.76563,1.04688 1.6875,1.9375 0.9375,0.89063 1.79688,1.64063 L 247.75,250.375 q -0.14063,-0.0781 -0.67188,-0.45313 -0.51562,-0.39062 -1.21875,-1.04687 -0.6875,-0.65625 -1.46875,-1.59375 -0.76562,-0.9375 -1.42187,-2.10938 -0.64063,-1.1875 -1.07813,-2.60937 -0.42187,-1.42188 -0.42187,-3.0625 0,-1.625 0.45312,-2.6875 0.46875,-1.07813 1.3125,-1.70313 0.84375,-0.64062 2.04688,-0.89062 1.20312,-0.25 2.6875,-0.25 h 5.75 V 229 H 238.875 v -2.29688 h 20.67187 z m 8.3125,0 h -3.28125 v 21 h -2.5625 v -21 h -3.5625 v -2.29688 h 3.8125 q -0.28125,-1.59375 -0.71875,-2.71875 -0.4375,-1.14062 -0.95312,-1.89062 -0.51563,-0.76563 -1.07813,-1.20313 -0.5625,-0.4375 -1.07812,-0.65625 -0.53125,-0.21875 -0.98438,-0.28125 -0.46875,-0.0625 -0.76562,-0.0625 -0.96875,0 -1.54688,0.3125 -0.59375,0.29688 -0.90625,0.71875 -0.3125,0.42188 -0.40625,0.89063 -0.10937,0.45312 -0.10937,0.78125 0,0.125 0.0469,0.51562 0.0312,0.375 0.25,0.95313 0.20313,0.57812 0.64063,1.29687 0.4375,0.71875 1.23437,1.51563 h -2.65625 q -0.98437,-1.125 -1.46875,-2.32813 -0.5,-1.21875 -0.5,-2.35937 0,-0.95313 0.34375,-1.8125 0.34375,-0.85938 1.03125,-1.48438 0.6875,-0.64062 1.71875,-1.01562 1.03125,-0.375 2.39063,-0.375 1.875,0 3.23437,0.73437 1.35938,0.71875 2.28125,1.96875 0.9375,1.25 1.46875,2.9375 0.54688,1.67188 0.76563,3.5625 h 3.35937 z m 24.40625,0 H 286.375 q 0.79687,1.375 1.28125,2.8125 0.5,1.42187 0.5,2.89062 0,1.10938 -0.34375,2.14063 -0.32813,1.01562 -0.98438,1.82812 -0.64062,0.79688 -1.60937,1.3125 -0.95313,0.5 -2.20313,0.5625 l -0.0312,0.0781 q 1.40625,2.1875 3.15625,4.14062 1.75,1.9375 4.04688,3.6875 l -1.67188,1.92188 q -1.32812,-0.98438 -2.53125,-2.125 -1.1875,-1.15625 -2.25,-2.375 -1.0625,-1.23438 -1.98437,-2.48438 -0.90625,-1.26562 -1.67188,-2.45312 -0.75,-1.20313 -1.34375,-2.29688 -0.59375,-1.10937 -1.01562,-2.01562 l 2.14062,-1.15625 q 0.5625,1.21875 1.26563,1.92187 0.71875,0.6875 1.65625,0.6875 0.67187,0 1.20312,-0.34375 0.53125,-0.34375 0.89063,-0.875 0.35937,-0.54687 0.54687,-1.1875 0.1875,-0.65625 0.1875,-1.28125 0,-0.73437 -0.1875,-1.4375 -0.1875,-0.71875 -0.48437,-1.39062 -0.29688,-0.6875 -0.67188,-1.32813 Q 283.90625,229.59375 283.5625,229 h -8.03125 v -2.29688 h 16.73437 z m 21.64063,0 H 310.625 v 21 h -2.59375 v -6.57813 l -0.0625,-0.0469 q -0.85938,0.78125 -1.6875,1.23437 -0.8125,0.4375 -1.53125,0.67188 -0.70313,0.21875 -1.28125,0.28125 -0.57813,0.0625 -0.95313,0.0625 -1.4375,0 -2.54687,-0.45313 -1.10938,-0.45312 -1.85938,-1.1875 -0.75,-0.75 -1.14062,-1.70312 -0.39063,-0.96875 -0.39063,-2 0,-1.07813 0.4375,-2.14063 0.45313,-1.0625 1.40625,-1.90625 l -0.0156,-0.0625 h -4.95313 V 233.875 h 12.5625 v 2.29687 h -1.60937 q -1.60938,0 -2.64063,0.42188 -1.03125,0.42187 -1.625,1.03125 -0.59375,0.60937 -0.82812,1.3125 -0.21875,0.6875 -0.21875,1.25 0,0.46875 0.15625,1.01562 0.15625,0.53125 0.51562,0.98438 0.375,0.45312 0.98438,0.75 0.625,0.29687 1.5625,0.29687 0.98437,0 1.82812,-0.3125 0.85938,-0.32812 1.57813,-0.84375 0.71875,-0.51562 1.29687,-1.15625 0.59375,-0.65625 1.01563,-1.29687 V 229 h -16.85938 v -2.29688 h 22.73438 z m 19.4375,0 h -3.28125 v 21 h -2.57813 v -12.04688 h -7.3125 q 0,1.03125 -0.0312,1.76563 -0.0156,0.73437 -0.125,1.21875 -0.10937,0.46875 -0.32812,0.6875 -0.21875,0.21875 -0.60938,0.21875 -0.8125,0 -1.54687,-0.53125 -0.71875,-0.53125 -1.28125,-1.28125 -0.54688,-0.75 -0.875,-1.5625 -0.32813,-0.8125 -0.32813,-1.375 0,-0.5 0.21875,-0.78125 0.21875,-0.28125 0.57813,-0.42188 0.35937,-0.14062 0.8125,-0.17187 0.46875,-0.0312 0.9375,-0.0312 h 9.89062 V 229 H 312.8125 v -2.29688 h 20.53125 z m 8.3125,0 H 338.375 v 21 h -2.5625 V 229 H 332.25 v -2.29688 h 9.40625 z m 2.9375,21.34375 q -0.71875,0 -1.23438,-0.51563 -0.5,-0.51562 -0.5,-1.23437 0,-0.71875 0.5,-1.23438 0.51563,-0.53125 1.23438,-0.53125 0.73437,0 1.25,0.53125 0.51562,0.51563 0.51562,1.23438 0,0.71875 -0.51562,1.23437 -0.51563,0.51563 -1.25,0.51563 z"
         id="path7" />
    </g>
  </g>
</svg>
