<?xml version="1.0" encoding="UTF-8" standalone="no"?>
<svg
   width="800"
   height="600"
   version="1.1"
   id="svg4"
   sodipodi:docname="shivani_nature.svg"
   xmlns:inkscape="http://www.inkscape.org/namespaces/inkscape"
   xmlns:sodipodi="http://sodipodi.sourceforge.net/DTD/sodipodi-0.dtd"
   xmlns="http://www.w3.org/2000/svg"
   xmlns:svg="http://www.w3.org/2000/svg">
  <sodipodi:namedview
     id="namedview4"
     pagecolor="#ffffff"
     bordercolor="#666666"
     borderopacity="1.0"
     inkscape:showpageshadow="2"
     inkscape:pageopacity="0.0"
     inkscape:pagecheckerboard="0"
     inkscape:deskcolor="#d1d1d1" />
  <defs
     id="defs1">
    <style
       type="text/css"
       id="style1">
      @font-face {{
        font-family: 'Kalam';
        src: url('AxiDraw_API(1)/Kalam-Regular.ttf');
      }}
    </style>
  </defs>
  <g
     id="g4">
    <g
       id="text4"
       style="font-size:32px;font-family:Kalam"
       aria-label="Shivani, where green leaves unfurl,Nature's song, a whispered swirl,Sunlight paints the blooming earth,Giving beauty, joyous birth.">
      <path
         d="m 70.03125,93.359375 q 0,1.359375 -0.640625,2.6875 -0.625,1.328125 -1.765625,2.25 -1.25,1 -2.921875,1.5625 -1.65625,0.562505 -4,0.562505 -2.515625,0 -4.53125,-0.468755 -2,-0.46875 -4.078125,-1.390625 v -3.875 h 0.21875 q 1.765625,1.46875 4.078125,2.265625 2.3125,0.796875 4.34375,0.796875 2.875,0 4.46875,-1.078125 1.609375,-1.078125 1.609375,-2.875 0,-1.546875 -0.765625,-2.28125 Q 65.296875,90.78125 63.75,90.375 62.578125,90.0625 61.203125,89.859375 59.84375,89.65625 58.3125,89.34375 55.21875,88.6875 53.71875,87.109375 q -1.484375,-1.59375 -1.484375,-4.140625 0,-2.921875 2.46875,-4.78125 2.46875,-1.875 6.265625,-1.875 2.453125,0 4.5,0.46875 2.046875,0.46875 3.625,1.15625 v 3.65625 H 68.875 q -1.328125,-1.125 -3.5,-1.859375 -2.15625,-0.75 -4.421875,-0.75 -2.484375,0 -4,1.03125 -1.5,1.03125 -1.5,2.65625 0,1.453125 0.75,2.28125 0.75,0.828125 2.640625,1.265625 1,0.21875 2.84375,0.53125 1.84375,0.3125 3.125,0.640625 2.59375,0.6875 3.90625,2.078125 1.3125,1.390625 1.3125,3.890625 z M 89.359375,100 h -2.9375 v -9.9375 q 0,-1.203125 -0.140625,-2.25 Q 86.140625,86.75 85.765625,86.15625 85.375,85.5 84.640625,85.1875 q -0.734375,-0.328125 -1.90625,-0.328125 -1.203125,0 -2.515625,0.59375 -1.3125,0.59375 -2.515625,1.515625 V 100 h -2.9375 V 75.6875 h 2.9375 v 8.796875 q 1.375,-1.140625 2.84375,-1.78125 1.46875,-0.640625 3.015625,-0.640625 2.828125,0 4.3125,1.703125 1.484375,1.703125 1.484375,4.90625 z m 8.8125,-20.375 h -3.3125 v -3.046875 h 3.3125 z M 97.984375,100 h -2.9375 V 82.546875 h 2.9375 z M 118.89063,82.546875 111.82813,100 H 108.875 l -7.01562,-17.453125 h 3.1875 L 110.45313,96.4375 115.8125,82.546875 Z M 135.67187,100 H 132.75 v -1.859375 q -0.39063,0.265625 -1.0625,0.75 -0.65625,0.46875 -1.28125,0.75 -0.73438,0.359375 -1.6875,0.593755 -0.95312,0.25 -2.23437,0.25 -2.35938,0 -4,-1.562505 -1.64063,-1.5625 -1.64063,-3.984375 0,-1.984375 0.84375,-3.203125 0.85938,-1.234375 2.4375,-1.9375 1.59375,-0.703125 3.82813,-0.953125 2.23437,-0.25 4.79687,-0.375 v -0.453125 q 0,-1 -0.35938,-1.65625 -0.34375,-0.65625 -1,-1.03125 -0.625,-0.359375 -1.5,-0.484375 -0.875,-0.125 -1.82812,-0.125 -1.15625,0 -2.57812,0.3125 -1.42188,0.296875 -2.9375,0.875 h -0.15625 V 82.921875 Q 123.25,82.6875 124.875,82.40625 126.5,82.125 128.07812,82.125 q 1.84375,0 3.20313,0.3125 1.375,0.296875 2.375,1.03125 0.98437,0.71875 1.5,1.859375 0.51562,1.140625 0.51562,2.828125 z M 132.75,95.703125 V 90.84375 q -1.34375,0.07813 -3.17188,0.234375 -1.81249,0.15625 -2.87499,0.453125 -1.26563,0.359375 -2.04688,1.125 -0.78125,0.75 -0.78125,2.078125 0,1.5 0.90625,2.265625 0.90625,0.75 2.76563,0.75 1.54687,0 2.82812,-0.59375 1.28125,-0.609375 2.375,-1.453125 z M 155.92187,100 h -2.9375 v -9.9375 q 0,-1.203125 -0.14062,-2.25 -0.14063,-1.0625 -0.51563,-1.65625 -0.39062,-0.65625 -1.125,-0.96875 -0.73437,-0.328125 -1.90625,-0.328125 -1.20312,0 -2.51562,0.59375 -1.3125,0.59375 -2.51563,1.515625 V 100 h -2.9375 V 82.546875 h 2.9375 v 1.9375 q 1.375,-1.140625 2.84375,-1.78125 1.46875,-0.640625 3.01563,-0.640625 2.82812,0 4.3125,1.703125 1.48437,1.703125 1.48437,4.90625 z m 8.8125,-20.375 h -3.3125 v -3.046875 h 3.3125 z M 164.54687,100 h -2.9375 V 82.546875 h 2.9375 z m 11.90625,-4.453125 -4.40625,10.234375 h -2.28125 l 2.71875,-10.234375 z m 38.75,-13 L 210.65625,100 H 207.9375 L 203.45312,86.546875 199,100 h -2.70313 l -4.59375,-17.453125 h 3.0625 l 3.20313,13.515625 4.35937,-13.515625 H 204.75 L 209.21875,96.0625 212.25,82.546875 Z M 234.03125,100 h -2.9375 v -9.9375 q 0,-1.203125 -0.14063,-2.25 -0.14062,-1.0625 -0.51562,-1.65625 -0.39063,-0.65625 -1.125,-0.96875 -0.73438,-0.328125 -1.90625,-0.328125 -1.20313,0 -2.51563,0.59375 -1.3125,0.59375 -2.51562,1.515625 V 100 h -2.9375 V 75.6875 h 2.9375 v 8.796875 q 1.375,-1.140625 2.84375,-1.78125 1.46875,-0.640625 3.01562,-0.640625 2.82813,0 4.3125,1.703125 1.48438,1.703125 1.48438,4.90625 z m 20.26562,-8.421875 H 241.4375 q 0,1.609375 0.48437,2.8125 0.48438,1.1875 1.32813,1.953125 0.8125,0.75 1.92187,1.125 1.125,0.375 2.46875,0.375 1.78125,0 3.57813,-0.703125 1.8125,-0.71875 2.57812,-1.40625 h 0.15625 V 98.9375 q -1.48437,0.625 -3.03125,1.046875 -1.54687,0.421875 -3.25,0.421875 -4.34375,0 -6.78125,-2.34375 -2.4375,-2.359375 -2.4375,-6.6875 0,-4.28125 2.32813,-6.796875 2.34375,-2.515625 6.15625,-2.515625 3.53125,0 5.4375,2.0625 1.92187,2.0625 1.92187,5.859375 z m -2.85937,-2.25 q -0.0156,-2.3125 -1.17188,-3.578125 -1.14062,-1.265625 -3.48437,-1.265625 -2.35938,0 -3.76563,1.390625 -1.39062,1.390625 -1.57812,3.453125 z M 269.64062,85.75 h -0.15625 q -0.65625,-0.15625 -1.28125,-0.21875 -0.60937,-0.07813 -1.45312,-0.07813 -1.35938,0 -2.625,0.609375 -1.26563,0.59375 -2.4375,1.546875 V 100 H 258.75 V 82.546875 h 2.9375 V 85.125 q 1.75,-1.40625 3.07812,-1.984375 1.34375,-0.59375 2.73438,-0.59375 0.76562,0 1.10937,0.04687 0.34375,0.03125 1.03125,0.140625 z m 17.375,5.828125 h -12.85937 q 0,1.609375 0.48437,2.8125 0.48438,1.1875 1.32813,1.953125 0.8125,0.75 1.92187,1.125 1.125,0.375 2.46875,0.375 1.78125,0 3.57813,-0.703125 1.8125,-0.71875 2.57812,-1.40625 h 0.15625 V 98.9375 q -1.48437,0.625 -3.03125,1.046875 -1.54687,0.421875 -3.25,0.421875 -4.34375,0 -6.78125,-2.34375 -2.4375,-2.359375 -2.4375,-6.6875 0,-4.28125 2.32813,-6.796875 2.34375,-2.515625 6.15625,-2.515625 3.53125,0 5.4375,2.0625 1.92187,2.0625 1.92187,5.859375 z m -2.85937,-2.25 q -0.0156,-2.3125 -1.17188,-3.578125 -1.14062,-1.265625 -3.48437,-1.265625 -2.35938,0 -3.76563,1.390625 -1.39062,1.390625 -1.57812,3.453125 z m 32.71875,8.6875 q 0,4.437505 -2.01563,6.515625 -2.01562,2.07813 -6.20312,2.07813 -1.39063,0 -2.71875,-0.20313 -1.3125,-0.1875 -2.59375,-0.54687 v -3 H 303.5 q 0.71875,0.28125 2.28125,0.6875 1.5625,0.42187 3.125,0.42187 1.5,0 2.48437,-0.35937 0.98438,-0.35938 1.53125,-1 0.54688,-0.60938 0.78125,-1.46875 0.23438,-0.85938 0.23438,-1.92188 V 97.625 q -1.32813,1.0625 -2.54688,1.59375 -1.20312,0.515625 -3.07812,0.515625 -3.125,0 -4.96875,-2.25 -1.82813,-2.265625 -1.82813,-6.375 0,-2.25 0.625,-3.875 0.64063,-1.640625 1.73438,-2.828125 1.01562,-1.109375 2.46875,-1.71875 1.45312,-0.625 2.89062,-0.625 1.51563,0 2.53125,0.3125 1.03125,0.296875 2.17188,0.921875 l 0.1875,-0.75 h 2.75 z m -2.9375,-2.8125 V 85.6875 q -1.17188,-0.53125 -2.1875,-0.75 -1,-0.234375 -2,-0.234375 -2.42188,0 -3.8125,1.625 -1.39063,1.625 -1.39063,4.71875 0,2.9375 1.03125,4.453125 1.03125,1.515625 3.42188,1.515625 1.28125,0 2.5625,-0.484375 1.29687,-0.5 2.375,-1.328125 z M 333.54687,85.75 h -0.15625 q -0.65625,-0.15625 -1.28125,-0.21875 -0.60937,-0.07813 -1.45312,-0.07813 -1.35938,0 -2.625,0.609375 -1.26563,0.59375 -2.4375,1.546875 V 100 h -2.9375 V 82.546875 h 2.9375 V 85.125 q 1.75,-1.40625 3.07812,-1.984375 1.34375,-0.59375 2.73438,-0.59375 0.76562,0 1.10937,0.04687 0.34375,0.03125 1.03125,0.140625 z m 17.375,5.828125 H 338.0625 q 0,1.609375 0.48437,2.8125 0.48438,1.1875 1.32813,1.953125 0.8125,0.75 1.92187,1.125 1.125,0.375 2.46875,0.375 1.78125,0 3.57813,-0.703125 1.8125,-0.71875 2.57812,-1.40625 h 0.15625 V 98.9375 q -1.48437,0.625 -3.03125,1.046875 -1.54687,0.421875 -3.25,0.421875 -4.34375,0 -6.78125,-2.34375 -2.4375,-2.359375 -2.4375,-6.6875 0,-4.28125 2.32813,-6.796875 2.34375,-2.515625 6.15625,-2.515625 3.53125,0 5.4375,2.0625 1.92187,2.0625 1.92187,5.859375 z m -2.85937,-2.25 q -0.0156,-2.3125 -1.17188,-3.578125 -1.14062,-1.265625 -3.48437,-1.265625 -2.35938,0 -3.76563,1.390625 -1.39062,1.390625 -1.57812,3.453125 z m 21.92187,2.25 H 357.125 q 0,1.609375 0.48437,2.8125 0.48438,1.1875 1.32813,1.953125 0.8125,0.75 1.92187,1.125 1.125,0.375 2.46875,0.375 1.78125,0 3.57813,-0.703125 1.8125,-0.71875 2.57812,-1.40625 h 0.15625 V 98.9375 q -1.48437,0.625 -3.03125,1.046875 -1.54687,0.421875 -3.25,0.421875 -4.34375,0 -6.78125,-2.34375 -2.4375,-2.359375 -2.4375,-6.6875 0,-4.28125 2.32813,-6.796875 2.34375,-2.515625 6.15625,-2.515625 3.53125,0 5.4375,2.0625 1.92187,2.0625 1.92187,5.859375 z m -2.85937,-2.25 q -0.0156,-2.3125 -1.17188,-3.578125 -1.14062,-1.265625 -3.48437,-1.265625 -2.35938,0 -3.76563,1.390625 -1.39062,1.390625 -1.57812,3.453125 z M 389.03125,100 h -2.9375 v -9.9375 q 0,-1.203125 -0.14063,-2.25 -0.14062,-1.0625 -0.51562,-1.65625 -0.39063,-0.65625 -1.125,-0.96875 -0.73438,-0.328125 -1.90625,-0.328125 -1.20313,0 -2.51563,0.59375 -1.3125,0.59375 -2.51562,1.515625 V 100 h -2.9375 V 82.546875 h 2.9375 v 1.9375 q 1.375,-1.140625 2.84375,-1.78125 1.46875,-0.640625 3.01562,-0.640625 2.82813,0 4.3125,1.703125 1.48438,1.703125 1.48438,4.90625 z m 19.875,0 h -2.9375 V 75.6875 h 2.9375 z m 20.42187,-8.421875 h -12.85937 q 0,1.609375 0.48437,2.8125 0.48438,1.1875 1.32813,1.953125 0.8125,0.75 1.92187,1.125 1.125,0.375 2.46875,0.375 1.78125,0 3.57813,-0.703125 1.8125,-0.71875 2.57812,-1.40625 h 0.15625 V 98.9375 q -1.48437,0.625 -3.03125,1.046875 -1.54687,0.421875 -3.25,0.421875 -4.34375,0 -6.78125,-2.34375 -2.4375,-2.359375 -2.4375,-6.6875 0,-4.28125 2.32813,-6.796875 2.34375,-2.515625 6.15625,-2.515625 3.53125,0 5.4375,2.0625 1.92187,2.0625 1.92187,5.859375 z m -2.85937,-2.25 q -0.0156,-2.3125 -1.17188,-3.578125 -1.14062,-1.265625 -3.48437,-1.265625 -2.35938,0 -3.76563,1.390625 -1.39062,1.390625 -1.57812,3.453125 z M 447.34375,100 h -2.92188 v -1.859375 q -0.39062,0.265625 -1.0625,0.75 -0.65625,0.46875 -1.28125,0.75 -0.73437,0.359375 -1.6875,0.593755 -0.95312,0.25 -2.23437,0.25 -2.35938,0 -4,-1.562505 -1.64063,-1.5625 -1.64063,-3.984375 0,-1.984375 0.84375,-3.203125 0.85938,-1.234375 2.4375,-1.9375 1.59375,-0.703125 3.82813,-0.953125 2.23437,-0.25 4.79687,-0.375 v -0.453125 q 0,-1 -0.35937,-1.65625 -0.34375,-0.65625 -1,-1.03125 -0.625,-0.359375 -1.5,-0.484375 -0.875,-0.125 -1.82813,-0.125 -1.15625,0 -2.57812,0.3125 -1.42188,0.296875 -2.9375,0.875 h -0.15625 v -2.984375 q 0.85937,-0.234375 2.48437,-0.515625 1.625,-0.28125 3.20313,-0.28125 1.84375,0 3.20312,0.3125 1.375,0.296875 2.375,1.03125 0.98438,0.71875 1.5,1.859375 0.51563,1.140625 0.51563,2.828125 z m -2.92188,-4.296875 V 90.84375 q -1.34375,0.07813 -3.17187,0.234375 -1.8125,0.15625 -2.875,0.453125 -1.26563,0.359375 -2.04688,1.125 -0.78125,0.75 -0.78125,2.078125 0,1.5 0.90625,2.265625 0.90625,0.75 2.76563,0.75 1.54687,0 2.82812,-0.59375 1.28125,-0.609375 2.375,-1.453125 z M 467.84375,82.546875 460.78125,100 h -2.95313 L 450.8125,82.546875 H 454 l 5.40625,13.890625 5.35937,-13.890625 z m 18.17187,9.03125 h -12.85937 q 0,1.609375 0.48437,2.8125 0.48438,1.1875 1.32813,1.953125 0.8125,0.75 1.92187,1.125 1.125,0.375 2.46875,0.375 1.78125,0 3.57813,-0.703125 1.8125,-0.71875 2.57812,-1.40625 h 0.15625 V 98.9375 q -1.48437,0.625 -3.03125,1.046875 -1.54687,0.421875 -3.25,0.421875 -4.34375,0 -6.78125,-2.34375 -2.4375,-2.359375 -2.4375,-6.6875 0,-4.28125 2.32813,-6.796875 2.34375,-2.515625 6.15625,-2.515625 3.53125,0 5.4375,2.0625 1.92187,2.0625 1.92187,5.859375 z m -2.85937,-2.25 q -0.0156,-2.3125 -1.17188,-3.578125 -1.14062,-1.265625 -3.48437,-1.265625 -2.35938,0 -3.76563,1.390625 -1.39062,1.390625 -1.57812,3.453125 z m 19.78125,5.640625 q 0,2.390625 -1.98438,3.921875 -1.96875,1.531255 -5.39062,1.531255 -1.9375,0 -3.5625,-0.45313 Q 490.39062,99.5 489.29687,98.953125 V 95.65625 h 0.15625 q 1.39063,1.046875 3.09375,1.671875 1.70313,0.609375 3.26563,0.609375 1.9375,0 3.03125,-0.625 1.09375,-0.625 1.09375,-1.96875 0,-1.03125 -0.59375,-1.5625 Q 498.75,93.25 497.0625,92.875 q -0.625,-0.140625 -1.64063,-0.328125 -1,-0.1875 -1.82812,-0.40625 -2.29688,-0.609375 -3.26563,-1.78125 -0.95312,-1.1875 -0.95312,-2.90625 0,-1.078125 0.4375,-2.03125 0.45312,-0.953125 1.35937,-1.703125 0.875,-0.734375 2.21875,-1.15625 1.35938,-0.4375 3.03125,-0.4375 1.5625,0 3.15625,0.390625 1.60938,0.375 2.67188,0.921875 v 3.140625 h -0.15625 Q 500.96875,85.75 499.35937,85.1875 497.75,84.609375 496.20312,84.609375 q -1.60937,0 -2.71875,0.625 -1.10937,0.609375 -1.10937,1.828125 0,1.078125 0.67187,1.625 0.65625,0.546875 2.125,0.890625 0.8125,0.1875 1.8125,0.375 1.01563,0.1875 1.6875,0.34375 2.04688,0.46875 3.15625,1.609375 1.10938,1.15625 1.10938,3.0625 z M 532.85937,100 h -2.9375 v -1.9375 q -1.48437,1.171875 -2.84375,1.796875 -1.35937,0.625005 -3,0.625005 -2.75,0 -4.28125,-1.67188 -1.53125,-1.6875 -1.53125,-4.9375 V 82.546875 h 2.9375 v 9.9375 q 0,1.328125 0.125,2.28125 0.125,0.9375 0.53125,1.609375 0.42188,0.6875 1.09375,1 0.67188,0.3125 1.95313,0.3125 1.14062,0 2.48437,-0.59375 Q 528.75,96.5 529.92187,95.578125 v -13.03125 h 2.9375 z m 20.375,0 h -2.9375 v -9.9375 q 0,-1.203125 -0.14062,-2.25 -0.14063,-1.0625 -0.51563,-1.65625 -0.39062,-0.65625 -1.125,-0.96875 -0.73437,-0.328125 -1.90625,-0.328125 -1.20312,0 -2.51562,0.59375 -1.3125,0.59375 -2.51563,1.515625 V 100 h -2.9375 V 82.546875 h 2.9375 v 1.9375 q 1.375,-1.140625 2.84375,-1.78125 1.46875,-0.640625 3.01563,-0.640625 2.82812,0 4.3125,1.703125 1.48437,1.703125 1.48437,4.90625 z M 568.28125,78.53125 H 568.125 q -0.48438,-0.140625 -1.26563,-0.28125 -0.78125,-0.15625 -1.375,-0.15625 -1.89062,0 -2.75,0.84375 -0.84375,0.828125 -0.84375,3.015625 v 0.59375 h 5.29688 v 2.46875 h -5.20313 V 100 h -2.9375 V 85.015625 h -1.98437 v -2.46875 h 1.98437 V 81.96875 q 0,-3.109375 1.54688,-4.765625 1.54687,-1.671875 4.46875,-1.671875 0.98437,0 1.76562,0.09375 0.79688,0.09375 1.45313,0.21875 z M 584.60937,100 h -2.9375 v -1.9375 q -1.48437,1.171875 -2.84375,1.796875 -1.35937,0.625005 -3,0.625005 -2.75,0 -4.28125,-1.67188 -1.53125,-1.6875 -1.53125,-4.9375 V 82.546875 h 2.9375 v 9.9375 q 0,1.328125 0.125,2.28125 0.125,0.9375 0.53125,1.609375 0.42188,0.6875 1.09375,1 0.67188,0.3125 1.95313,0.3125 1.14062,0 2.48437,-0.59375 Q 580.5,96.5 581.67187,95.578125 v -13.03125 h 2.9375 z M 601.28125,85.75 H 601.125 q -0.65625,-0.15625 -1.28125,-0.21875 -0.60938,-0.07813 -1.45313,-0.07813 -1.35937,0 -2.625,0.609375 -1.26562,0.59375 -2.4375,1.546875 V 100 h -2.9375 V 82.546875 h 2.9375 V 85.125 q 1.75,-1.40625 3.07813,-1.984375 1.34375,-0.59375 2.73437,-0.59375 0.76563,0 1.10938,0.04687 0.34375,0.03125 1.03125,0.140625 z m 5.73437,14.25 h -2.9375 V 75.6875 h 2.9375 z m 11.90625,-4.453125 -4.40625,10.234375 h -2.28125 l 2.71875,-10.234375 z"
         id="path4" />
      <path
         d="M 70.875,150 H 67.046875 L 56.015625,129.1875 V 150 H 53.125 v -23.26562 h 4.796875 l 10.0625,18.99999 V 126.73438 H 70.875 Z m 19.515625,0 H 87.46875 v -1.85938 q -0.390625,0.26563 -1.0625,0.75 -0.65625,0.46875 -1.28125,0.75 -0.734375,0.35938 -1.6875,0.59375 -0.953125,0.25 -2.234375,0.25 -2.359375,0 -4,-1.5625 -1.640625,-1.5625 -1.640625,-3.98437 0,-1.98438 0.84375,-3.20313 0.859375,-1.23437 2.4375,-1.9375 1.59375,-0.70312 3.828125,-0.95312 2.234375,-0.25 4.796875,-0.375 v -0.45313 q 0,-1 -0.359375,-1.65625 -0.34375,-0.65625 -1,-1.03125 -0.625,-0.35937 -1.5,-0.48437 -0.875,-0.125 -1.828125,-0.125 -1.15625,0 -2.578125,0.3125 -1.421875,0.29687 -2.9375,0.875 h -0.15625 v -2.98438 q 0.859375,-0.23437 2.484375,-0.51562 1.625,-0.28125 3.203125,-0.28125 1.84375,0 3.203125,0.3125 1.375,0.29687 2.375,1.03125 0.984375,0.71875 1.5,1.85937 0.515625,1.14063 0.515625,2.82813 z m -2.921875,-4.29688 v -4.85937 q -1.34375,0.0781 -3.171875,0.23437 -1.8125,0.15625 -2.875,0.45313 -1.265625,0.35937 -2.046875,1.125 -0.78125,0.75 -0.78125,2.07812 0,1.5 0.90625,2.26563 0.90625,0.75 2.765625,0.75 1.546875,0 2.828125,-0.59375 1.28125,-0.60938 2.375,-1.45313 z m 17.64063,4.14063 q -0.82813,0.21875 -1.8125,0.35937 -0.96875,0.14063 -1.73438,0.14063 -2.671875,0 -4.0625,-1.4375 -1.390625,-1.4375 -1.390625,-4.60938 v -9.28125 H 94.125 v -2.46875 h 1.984375 v -5.01562 h 2.9375 v 5.01562 h 6.062505 v 2.46875 h -6.062505 v 7.95313 q 0,1.375 0.0625,2.15625 0.0625,0.76562 0.4375,1.4375 0.34375,0.625 0.937505,0.92187 0.60937,0.28125 1.84375,0.28125 0.71875,0 1.5,-0.20312 0.78125,-0.21875 1.125,-0.35938 h 0.15625 z M 123.125,150 h -2.9375 v -1.9375 q -1.48437,1.17187 -2.84375,1.79687 -1.35937,0.625 -3,0.625 -2.75,0 -4.28125,-1.67187 -1.53125,-1.6875 -1.53125,-4.9375 v -11.32813 h 2.9375 v 9.9375 q 0,1.32813 0.125,2.28125 0.125,0.9375 0.53125,1.60938 0.42188,0.6875 1.09375,1 0.67188,0.3125 1.95313,0.3125 1.14062,0 2.48437,-0.59375 1.35938,-0.59375 2.53125,-1.51563 v -13.03125 h 2.9375 z m 16.67187,-14.25 h -0.15625 q -0.65625,-0.15625 -1.28125,-0.21875 -0.60937,-0.0781 -1.45312,-0.0781 -1.35938,0 -2.625,0.60938 -1.26563,0.59375 -2.4375,1.54687 V 150 h -2.9375 v -17.45313 h 2.9375 v 2.57813 q 1.75,-1.40625 3.07812,-1.98438 1.34375,-0.59375 2.73438,-0.59375 0.76562,0 1.10937,0.0469 0.34375,0.0312 1.03125,0.14062 z m 17.375,5.82812 H 144.3125 q 0,1.60938 0.48437,2.8125 0.48438,1.1875 1.32813,1.95313 0.8125,0.75 1.92187,1.125 1.125,0.375 2.46875,0.375 1.78125,0 3.57813,-0.70313 1.8125,-0.71875 2.57812,-1.40625 h 0.15625 v 3.20313 q -1.48437,0.625 -3.03125,1.04687 -1.54687,0.42188 -3.25,0.42188 -4.34375,0 -6.78125,-2.34375 -2.4375,-2.35938 -2.4375,-6.6875 0,-4.28125 2.32813,-6.79688 2.34375,-2.51562 6.15625,-2.51562 3.53125,0 5.4375,2.0625 1.92187,2.0625 1.92187,5.85937 z m -2.85937,-2.25 q -0.0156,-2.3125 -1.17188,-3.57812 -1.14062,-1.26563 -3.48437,-1.26563 -2.35938,0 -3.76563,1.39063 -1.39062,1.39062 -1.57812,3.45312 z m 10.45312,-13.64062 -0.67187,9.04687 h -2.125 l -0.67188,-9.04687 z m 17.92188,19.28125 q 0,2.39062 -1.98438,3.92187 -1.96875,1.53125 -5.39062,1.53125 -1.9375,0 -3.5625,-0.45312 -1.60938,-0.46875 -2.70313,-1.01563 v -3.29687 h 0.15625 q 1.39063,1.04687 3.09375,1.67187 1.70313,0.60938 3.26563,0.60938 1.9375,0 3.03125,-0.625 1.09375,-0.625 1.09375,-1.96875 0,-1.03125 -0.59375,-1.5625 Q 178.5,143.25 176.8125,142.875 q -0.625,-0.14063 -1.64063,-0.32813 -1,-0.1875 -1.82812,-0.40625 -2.29688,-0.60937 -3.26563,-1.78125 -0.95312,-1.1875 -0.95312,-2.90625 0,-1.07812 0.4375,-2.03125 0.45312,-0.95312 1.35937,-1.70312 0.875,-0.73438 2.21875,-1.15625 1.35938,-0.4375 3.03125,-0.4375 1.5625,0 3.15625,0.39062 1.60938,0.375 2.67188,0.92188 v 3.14062 h -0.15625 q -1.125,-0.82812 -2.73438,-1.39062 -1.60937,-0.57813 -3.15625,-0.57813 -1.60937,0 -2.71875,0.625 -1.10937,0.60938 -1.10937,1.82813 0,1.07812 0.67187,1.625 0.65625,0.54687 2.125,0.89062 0.8125,0.1875 1.8125,0.375 1.01563,0.1875 1.6875,0.34375 2.04688,0.46875 3.15625,1.60938 1.10938,1.15625 1.10938,3.0625 z m 27.92187,0 q 0,2.39062 -1.98437,3.92187 -1.96875,1.53125 -5.39063,1.53125 -1.9375,0 -3.5625,-0.45312 -1.60937,-0.46875 -2.70312,-1.01563 v -3.29687 h 0.15625 q 1.39062,1.04687 3.09375,1.67187 1.70312,0.60938 3.26562,0.60938 1.9375,0 3.03125,-0.625 1.09375,-0.625 1.09375,-1.96875 0,-1.03125 -0.59375,-1.5625 -0.59375,-0.53125 -2.28125,-0.90625 -0.625,-0.14063 -1.64062,-0.32813 -1,-0.1875 -1.82813,-0.40625 -2.29687,-0.60937 -3.26562,-1.78125 -0.95313,-1.1875 -0.95313,-2.90625 0,-1.07812 0.4375,-2.03125 0.45313,-0.95312 1.35938,-1.70312 0.875,-0.73438 2.21875,-1.15625 1.35937,-0.4375 3.03125,-0.4375 1.5625,0 3.15625,0.39062 1.60937,0.375 2.67187,0.92188 v 3.14062 h -0.15625 q -1.125,-0.82812 -2.73437,-1.39062 -1.60938,-0.57813 -3.15625,-0.57813 -1.60938,0 -2.71875,0.625 -1.10938,0.60938 -1.10938,1.82813 0,1.07812 0.67188,1.625 0.65625,0.54687 2.125,0.89062 0.8125,0.1875 1.8125,0.375 1.01562,0.1875 1.6875,0.34375 2.04687,0.46875 3.15625,1.60938 1.10937,1.15625 1.10937,3.0625 z m 19.07813,-3.6875 q 0,4.26562 -2.1875,6.73437 -2.1875,2.46875 -5.85938,2.46875 -3.70312,0 -5.89062,-2.46875 -2.17188,-2.46875 -2.17188,-6.73437 0,-4.26563 2.17188,-6.73438 2.1875,-2.48437 5.89062,-2.48437 3.67188,0 5.85938,2.48437 2.1875,2.46875 2.1875,6.73438 z m -3.03125,0 q 0,-3.39063 -1.32813,-5.03125 -1.32812,-1.65625 -3.6875,-1.65625 -2.39062,0 -3.71875,1.65625 -1.3125,1.64062 -1.3125,5.03125 0,3.28125 1.32813,4.98437 1.32812,1.6875 3.70312,1.6875 2.34375,0 3.67188,-1.67187 1.34375,-1.6875 1.34375,-5 z M 248.82812,150 h -2.9375 v -9.9375 q 0,-1.20313 -0.14062,-2.25 -0.14063,-1.0625 -0.51563,-1.65625 -0.39062,-0.65625 -1.125,-0.96875 -0.73437,-0.32813 -1.90625,-0.32813 -1.20312,0 -2.51562,0.59375 -1.3125,0.59375 -2.51563,1.51563 V 150 h -2.9375 v -17.45313 h 2.9375 v 1.9375 q 1.375,-1.14062 2.84375,-1.78125 1.46875,-0.64062 3.01563,-0.64062 2.82812,0 4.3125,1.70312 1.48437,1.70313 1.48437,4.90625 z m 19.8125,-1.98438 q 0,4.4375 -2.01562,6.51563 -2.01563,2.07812 -6.20313,2.07812 -1.39062,0 -2.71875,-0.20312 -1.3125,-0.1875 -2.59375,-0.54688 v -3 h 0.15625 q 0.71875,0.28125 2.28125,0.6875 1.5625,0.42188 3.125,0.42188 1.5,0 2.48438,-0.35938 0.98437,-0.35937 1.53125,-1 0.54687,-0.60937 0.78125,-1.46875 0.23437,-0.85937 0.23437,-1.92187 V 147.625 q -1.32812,1.0625 -2.54687,1.59375 -1.20313,0.51562 -3.07813,0.51562 -3.125,0 -4.96875,-2.25 -1.82812,-2.26562 -1.82812,-6.375 0,-2.25 0.625,-3.875 0.64062,-1.64062 1.73437,-2.82812 1.01563,-1.10938 2.46875,-1.71875 1.45313,-0.625 2.89063,-0.625 1.51562,0 2.53125,0.3125 1.03125,0.29687 2.17187,0.92187 l 0.1875,-0.75 h 2.75 z m -2.9375,-2.8125 v -9.51562 q -1.17187,-0.53125 -2.1875,-0.75 -1,-0.23438 -2,-0.23438 -2.42187,0 -3.8125,1.625 -1.39062,1.625 -1.39062,4.71875 0,2.9375 1.03125,4.45313 1.03125,1.51562 3.42187,1.51562 1.28125,0 2.5625,-0.48437 1.29688,-0.5 2.375,-1.32813 z m 14.8125,0.34375 -4.40625,10.23438 h -2.28125 l 2.71875,-10.23438 z M 310.875,150 h -2.92188 v -1.85938 q -0.39062,0.26563 -1.0625,0.75 -0.65625,0.46875 -1.28125,0.75 -0.73437,0.35938 -1.6875,0.59375 -0.95312,0.25 -2.23437,0.25 -2.35938,0 -4,-1.5625 -1.64063,-1.5625 -1.64063,-3.98437 0,-1.98438 0.84375,-3.20313 0.85938,-1.23437 2.4375,-1.9375 1.59375,-0.70312 3.82813,-0.95312 2.23437,-0.25 4.79687,-0.375 v -0.45313 q 0,-1 -0.35937,-1.65625 -0.34375,-0.65625 -1,-1.03125 -0.625,-0.35937 -1.5,-0.48437 -0.875,-0.125 -1.82813,-0.125 -1.15625,0 -2.57812,0.3125 -1.42188,0.29687 -2.9375,0.875 h -0.15625 v -2.98438 q 0.85937,-0.23437 2.48437,-0.51562 1.625,-0.28125 3.20313,-0.28125 1.84375,0 3.20312,0.3125 1.375,0.29687 2.375,1.03125 0.98438,0.71875 1.5,1.85937 0.51563,1.14063 0.51563,2.82813 z m -2.92188,-4.29688 v -4.85937 q -1.34375,0.0781 -3.17187,0.23437 -1.8125,0.15625 -2.875,0.45313 -1.26563,0.35937 -2.04688,1.125 -0.78125,0.75 -0.78125,2.07812 0,1.5 0.90625,2.26563 0.90625,0.75 2.76563,0.75 1.54687,0 2.82812,-0.59375 1.28125,-0.60938 2.375,-1.45313 z M 349.73437,132.54687 345.1875,150 h -2.71875 L 337.98437,136.54687 333.53125,150 h -2.70313 l -4.59375,-17.45313 h 3.0625 l 3.20313,13.51563 4.35937,-13.51563 h 2.42188 l 4.46875,13.51563 3.03125,-13.51563 z M 368.5625,150 h -2.9375 v -9.9375 q 0,-1.20313 -0.14063,-2.25 -0.14062,-1.0625 -0.51562,-1.65625 -0.39063,-0.65625 -1.125,-0.96875 -0.73438,-0.32813 -1.90625,-0.32813 -1.20313,0 -2.51563,0.59375 -1.3125,0.59375 -2.51562,1.51563 V 150 h -2.9375 v -24.3125 h 2.9375 v 8.79687 q 1.375,-1.14062 2.84375,-1.78125 1.46875,-0.64062 3.01562,-0.64062 2.82813,0 4.3125,1.70312 1.48438,1.70313 1.48438,4.90625 z m 8.8125,-20.375 h -3.3125 v -3.04687 h 3.3125 z M 377.1875,150 H 374.25 v -17.45313 h 2.9375 z m 18.28125,-5.03125 q 0,2.39062 -1.98438,3.92187 -1.96875,1.53125 -5.39062,1.53125 -1.9375,0 -3.5625,-0.45312 -1.60938,-0.46875 -2.70313,-1.01563 v -3.29687 h 0.15625 q 1.39063,1.04687 3.09375,1.67187 1.70313,0.60938 3.26563,0.60938 1.9375,0 3.03125,-0.625 1.09375,-0.625 1.09375,-1.96875 0,-1.03125 -0.59375,-1.5625 -0.59375,-0.53125 -2.28125,-0.90625 -0.625,-0.14063 -1.64063,-0.32813 -1,-0.1875 -1.82812,-0.40625 -2.29688,-0.60937 -3.26563,-1.78125 -0.95312,-1.1875 -0.95312,-2.90625 0,-1.07812 0.4375,-2.03125 0.45312,-0.95312 1.35937,-1.70312 0.875,-0.73438 2.21875,-1.15625 1.35938,-0.4375 3.03125,-0.4375 1.5625,0 3.15625,0.39062 1.60938,0.375 2.67188,0.92188 v 3.14062 H 394.625 q -1.125,-0.82812 -2.73438,-1.39062 -1.60937,-0.57813 -3.15625,-0.57813 -1.60937,0 -2.71875,0.625 -1.10937,0.60938 -1.10937,1.82813 0,1.07812 0.67187,1.625 0.65625,0.54687 2.125,0.89062 0.8125,0.1875 1.8125,0.375 1.01563,0.1875 1.6875,0.34375 2.04688,0.46875 3.15625,1.60938 1.10938,1.15625 1.10938,3.0625 z m 19.5625,-3.90625 q 0,2.125 -0.60938,3.89062 -0.60937,1.75 -1.71875,2.96875 -1.03125,1.15625 -2.4375,1.79688 -1.39062,0.625 -2.95312,0.625 -1.35938,0 -2.46875,-0.29688 Q 403.75,149.75 402.60937,149.125 v 7.3125 h -2.9375 v -23.89063 h 2.9375 v 1.82813 q 1.17188,-0.98438 2.625,-1.64063 1.46875,-0.67187 3.125,-0.67187 3.15625,0 4.90625,2.39062 1.76563,2.375 1.76563,6.60938 z M 412,141.14062 q 0,-3.15625 -1.07813,-4.71875 -1.07812,-1.5625 -3.3125,-1.5625 -1.26562,0 -2.54687,0.54688 -1.28125,0.54687 -2.45313,1.4375 v 9.89062 q 1.25,0.5625 2.14063,0.76563 0.90625,0.20312 2.04687,0.20312 2.45313,0 3.82813,-1.65625 1.375,-1.65625 1.375,-4.90625 z m 22.21875,0.4375 h -12.85938 q 0,1.60938 0.48438,2.8125 0.48437,1.1875 1.32812,1.95313 0.8125,0.75 1.92188,1.125 1.125,0.375 2.46875,0.375 1.78125,0 3.57812,-0.70313 1.8125,-0.71875 2.57813,-1.40625 h 0.15625 v 3.20313 q -1.48438,0.625 -3.03125,1.04687 -1.54688,0.42188 -3.25,0.42188 -4.34375,0 -6.78125,-2.34375 -2.4375,-2.35938 -2.4375,-6.6875 0,-4.28125 2.32812,-6.79688 2.34375,-2.51562 6.15625,-2.51562 3.53125,0 5.4375,2.0625 1.92188,2.0625 1.92188,5.85937 z m -2.85938,-2.25 q -0.0156,-2.3125 -1.17187,-3.57812 -1.14063,-1.26563 -3.48438,-1.26563 -2.35937,0 -3.76562,1.39063 -1.39063,1.39062 -1.57813,3.45312 z M 449.5625,135.75 h -0.15625 q -0.65625,-0.15625 -1.28125,-0.21875 -0.60938,-0.0781 -1.45313,-0.0781 -1.35937,0 -2.625,0.60938 -1.26562,0.59375 -2.4375,1.54687 V 150 h -2.9375 v -17.45313 h 2.9375 v 2.57813 q 1.75,-1.40625 3.07813,-1.98438 1.34375,-0.59375 2.73437,-0.59375 0.76563,0 1.10938,0.0469 0.34375,0.0312 1.03125,0.14062 z m 17.375,5.82812 h -12.85938 q 0,1.60938 0.48438,2.8125 0.48437,1.1875 1.32812,1.95313 0.8125,0.75 1.92188,1.125 1.125,0.375 2.46875,0.375 1.78125,0 3.57812,-0.70313 1.8125,-0.71875 2.57813,-1.40625 h 0.15625 v 3.20313 q -1.48438,0.625 -3.03125,1.04687 -1.54688,0.42188 -3.25,0.42188 -4.34375,0 -6.78125,-2.34375 -2.4375,-2.35938 -2.4375,-6.6875 0,-4.28125 2.32812,-6.79688 2.34375,-2.51562 6.15625,-2.51562 3.53125,0 5.4375,2.0625 1.92188,2.0625 1.92188,5.85937 z m -2.85938,-2.25 q -0.0156,-2.3125 -1.17187,-3.57812 -1.14063,-1.26563 -3.48438,-1.26563 -2.35937,0 -3.76562,1.39063 -1.39063,1.39062 -1.57813,3.45312 z M 485.54687,150 h -2.9375 v -1.82813 q -1.26562,1.09375 -2.64062,1.70313 -1.375,0.60937 -2.98438,0.60937 -3.125,0 -4.96875,-2.40625 -1.82812,-2.40625 -1.82812,-6.67187 0,-2.21875 0.625,-3.95313 0.64062,-1.73437 1.71875,-2.95312 1.0625,-1.1875 2.46875,-1.8125 1.42187,-0.625 2.9375,-0.625 1.375,0 2.4375,0.29687 1.0625,0.28125 2.23437,0.89063 v -7.5625 h 2.9375 z m -2.9375,-4.29688 V 135.6875 q -1.1875,-0.53125 -2.125,-0.73438 -0.9375,-0.20312 -2.04687,-0.20312 -2.46875,0 -3.84375,1.71875 -1.375,1.71875 -1.375,4.875 0,3.10937 1.0625,4.73437 1.0625,1.60938 3.40625,1.60938 1.25,0 2.53125,-0.54688 1.28125,-0.5625 2.39062,-1.4375 z m 32.4375,-0.73437 q 0,2.39062 -1.98437,3.92187 -1.96875,1.53125 -5.39063,1.53125 -1.9375,0 -3.5625,-0.45312 Q 502.5,149.5 501.40625,148.95312 v -3.29687 h 0.15625 q 1.39062,1.04687 3.09375,1.67187 1.70312,0.60938 3.26562,0.60938 1.9375,0 3.03125,-0.625 1.09375,-0.625 1.09375,-1.96875 0,-1.03125 -0.59375,-1.5625 -0.59375,-0.53125 -2.28125,-0.90625 -0.625,-0.14063 -1.64062,-0.32813 -1,-0.1875 -1.82813,-0.40625 -2.29687,-0.60937 -3.26562,-1.78125 -0.95313,-1.1875 -0.95313,-2.90625 0,-1.07812 0.4375,-2.03125 0.45313,-0.95312 1.35938,-1.70312 0.875,-0.73438 2.21875,-1.15625 1.35937,-0.4375 3.03125,-0.4375 1.5625,0 3.15625,0.39062 1.60937,0.375 2.67187,0.92188 v 3.14062 h -0.15625 q -1.125,-0.82812 -2.73437,-1.39062 -1.60938,-0.57813 -3.15625,-0.57813 -1.60938,0 -2.71875,0.625 -1.10938,0.60938 -1.10938,1.82813 0,1.07812 0.67188,1.625 0.65625,0.54687 2.125,0.89062 0.8125,0.1875 1.8125,0.375 1.01562,0.1875 1.6875,0.34375 2.04687,0.46875 3.15625,1.60938 1.10937,1.15625 1.10937,3.0625 z M 541.20312,132.54687 536.65625,150 H 533.9375 L 529.45312,136.54687 525,150 h -2.70313 l -4.59375,-17.45313 h 3.0625 l 3.20313,13.51563 4.35937,-13.51563 H 530.75 l 4.46875,13.51563 3.03125,-13.51563 z m 7.39063,-2.92187 h -3.3125 v -3.04687 h 3.3125 z M 548.40625,150 h -2.9375 v -17.45313 h 2.9375 z m 16.70312,-14.25 h -0.15625 q -0.65625,-0.15625 -1.28125,-0.21875 -0.60937,-0.0781 -1.45312,-0.0781 -1.35938,0 -2.625,0.60938 -1.26563,0.59375 -2.4375,1.54687 V 150 h -2.9375 v -17.45313 h 2.9375 v 2.57813 q 1.75,-1.40625 3.07812,-1.98438 1.34375,-0.59375 2.73438,-0.59375 0.76562,0 1.10937,0.0469 0.34375,0.0312 1.03125,0.14062 z m 5.73438,14.25 h -2.9375 v -24.3125 h 2.9375 z m 11.90625,-4.45313 -4.40625,10.23438 h -2.28125 l 2.71875,-10.23438 z"
         id="path5" />
      <path
         d="m 70.03125,193.35937 q 0,1.35938 -0.640625,2.6875 -0.625,1.32813 -1.765625,2.25 -1.25,1 -2.921875,1.5625 -1.65625,0.5625 -4,0.5625 -2.515625,0 -4.53125,-0.46875 -2,-0.46875 -4.078125,-1.39062 v -3.875 h 0.21875 q 1.765625,1.46875 4.078125,2.26562 2.3125,0.79688 4.34375,0.79688 2.875,0 4.46875,-1.07813 1.609375,-1.07812 1.609375,-2.875 0,-1.54687 -0.765625,-2.28125 -0.75,-0.73437 -2.296875,-1.14062 -1.171875,-0.3125 -2.546875,-0.51563 -1.359375,-0.20312 -2.890625,-0.51562 -3.09375,-0.65625 -4.59375,-2.23438 -1.484375,-1.59375 -1.484375,-4.14062 0,-2.92188 2.46875,-4.78125 2.46875,-1.875 6.265625,-1.875 2.453125,0 4.5,0.46875 2.046875,0.46875 3.625,1.15625 v 3.65625 H 68.875 q -1.328125,-1.125 -3.5,-1.85938 -2.15625,-0.75 -4.421875,-0.75 -2.484375,0 -4,1.03125 -1.5,1.03125 -1.5,2.65625 0,1.45313 0.75,2.28125 0.75,0.82813 2.640625,1.26563 1,0.21875 2.84375,0.53125 1.84375,0.3125 3.125,0.64062 2.59375,0.6875 3.90625,2.07813 1.3125,1.39062 1.3125,3.89062 z M 89.234375,200 h -2.9375 v -1.9375 q -1.484375,1.17187 -2.84375,1.79687 -1.359375,0.625 -3,0.625 -2.75,0 -4.28125,-1.67187 -1.53125,-1.6875 -1.53125,-4.9375 v -11.32813 h 2.9375 v 9.9375 q 0,1.32813 0.125,2.28125 0.125,0.9375 0.53125,1.60938 0.421875,0.6875 1.09375,1 0.671875,0.3125 1.953125,0.3125 1.140625,0 2.484375,-0.59375 1.359375,-0.59375 2.53125,-1.51563 v -13.03125 h 2.9375 z m 20.375005,0 h -2.9375 v -9.9375 q 0,-1.20313 -0.14063,-2.25 -0.14062,-1.0625 -0.51562,-1.65625 -0.39063,-0.65625 -1.125,-0.96875 -0.73438,-0.32813 -1.90625,-0.32813 -1.20313,0 -2.51563,0.59375 -1.3125,0.59375 -2.515625,1.51563 V 200 h -2.9375 v -17.45313 h 2.9375 v 1.9375 q 1.375,-1.14062 2.843755,-1.78125 1.46875,-0.64062 3.01562,-0.64062 2.82813,0 4.3125,1.70312 1.48438,1.70313 1.48438,4.90625 z m 8.625,0 h -2.9375 v -24.3125 h 2.9375 z m 8.96875,-20.375 h -3.3125 v -3.04688 h 3.3125 z M 127.01563,200 h -2.9375 v -17.45313 h 2.9375 z m 19.96874,-1.98438 q 0,4.4375 -2.01562,6.51563 -2.01563,2.07812 -6.20313,2.07812 -1.39062,0 -2.71875,-0.20312 -1.3125,-0.1875 -2.59375,-0.54688 v -3 h 0.15625 q 0.71875,0.28125 2.28125,0.6875 1.5625,0.42188 3.125,0.42188 1.5,0 2.48438,-0.35938 0.98437,-0.35937 1.53125,-1 0.54687,-0.60937 0.78125,-1.46875 0.23437,-0.85937 0.23437,-1.92187 V 197.625 q -1.32812,1.0625 -2.54687,1.59375 -1.20313,0.51562 -3.07813,0.51562 -3.125,0 -4.96875,-2.25 -1.82812,-2.26562 -1.82812,-6.375 0,-2.25 0.625,-3.875 0.64062,-1.64062 1.73437,-2.82812 1.01563,-1.10938 2.46875,-1.71875 1.45313,-0.625 2.89063,-0.625 1.51562,0 2.53125,0.3125 1.03125,0.29687 2.17187,0.92187 l 0.1875,-0.75 h 2.75 z m -2.9375,-2.8125 v -9.51562 q -1.17187,-0.53125 -2.1875,-0.75 -1,-0.23438 -2,-0.23438 -2.42187,0 -3.8125,1.625 -1.39062,1.625 -1.39062,4.71875 0,2.9375 1.03125,4.45313 1.03125,1.51562 3.42187,1.51562 1.28125,0 2.5625,-0.48437 1.29688,-0.5 2.375,-1.32813 z M 167.35937,200 h -2.9375 v -9.9375 q 0,-1.20313 -0.14062,-2.25 -0.14063,-1.0625 -0.51563,-1.65625 -0.39062,-0.65625 -1.125,-0.96875 -0.73437,-0.32813 -1.90625,-0.32813 -1.20312,0 -2.51562,0.59375 -1.3125,0.59375 -2.51563,1.51563 V 200 h -2.9375 v -24.3125 h 2.9375 v 8.79687 q 1.375,-1.14062 2.84375,-1.78125 1.46875,-0.64062 3.01563,-0.64062 2.82812,0 4.3125,1.70312 1.48437,1.70313 1.48437,4.90625 z m 14.71875,-0.15625 q -0.82812,0.21875 -1.8125,0.35937 -0.96875,0.14063 -1.73437,0.14063 -2.67188,0 -4.0625,-1.4375 -1.39063,-1.4375 -1.39063,-4.60938 v -9.28125 h -1.98437 v -2.46875 h 1.98437 v -5.01562 h 2.9375 v 5.01562 h 6.0625 v 2.46875 h -6.0625 v 7.95313 q 0,1.375 0.0625,2.15625 0.0625,0.76562 0.4375,1.4375 0.34375,0.625 0.9375,0.92187 0.60938,0.28125 1.84375,0.28125 0.71875,0 1.5,-0.20312 0.78125,-0.21875 1.125,-0.35938 h 0.15625 z m 30.15625,-8.78125 q 0,2.125 -0.60937,3.89062 -0.60938,1.75 -1.71875,2.96875 -1.03125,1.15625 -2.4375,1.79688 -1.39063,0.625 -2.95313,0.625 -1.35937,0 -2.46875,-0.29688 -1.09375,-0.29687 -2.23437,-0.92187 v 7.3125 h -2.9375 v -23.89063 h 2.9375 v 1.82813 q 1.17187,-0.98438 2.625,-1.64063 1.46875,-0.67187 3.125,-0.67187 3.15625,0 4.90625,2.39062 1.76562,2.375 1.76562,6.60938 z m -3.03125,0.0781 q 0,-3.15625 -1.07812,-4.71875 -1.07813,-1.5625 -3.3125,-1.5625 -1.26563,0 -2.54688,0.54688 -1.28125,0.54687 -2.45312,1.4375 v 9.89062 q 1.25,0.5625 2.14062,0.76563 0.90625,0.20312 2.04688,0.20312 2.45312,0 3.82812,-1.65625 1.375,-1.65625 1.375,-4.90625 z M 230.375,200 h -2.92188 v -1.85938 q -0.39062,0.26563 -1.0625,0.75 -0.65625,0.46875 -1.28125,0.75 -0.73437,0.35938 -1.6875,0.59375 -0.95312,0.25 -2.23437,0.25 -2.35938,0 -4,-1.5625 -1.64063,-1.5625 -1.64063,-3.98437 0,-1.98438 0.84375,-3.20313 0.85938,-1.23437 2.4375,-1.9375 1.59375,-0.70312 3.82813,-0.95312 2.23437,-0.25 4.79687,-0.375 v -0.45313 q 0,-1 -0.35937,-1.65625 -0.34375,-0.65625 -1,-1.03125 -0.625,-0.35937 -1.5,-0.48437 -0.875,-0.125 -1.82813,-0.125 -1.15625,0 -2.57812,0.3125 -1.42188,0.29687 -2.9375,0.875 h -0.15625 v -2.98438 q 0.85937,-0.23437 2.48437,-0.51562 1.625,-0.28125 3.20313,-0.28125 1.84375,0 3.20312,0.3125 1.375,0.29687 2.375,1.03125 0.98438,0.71875 1.5,1.85937 0.51563,1.14063 0.51563,2.82813 z m -2.92188,-4.29688 v -4.85937 q -1.34375,0.0781 -3.17187,0.23437 -1.8125,0.15625 -2.875,0.45313 -1.26563,0.35937 -2.04688,1.125 -0.78125,0.75 -0.78125,2.07812 0,1.5 0.90625,2.26563 0.90625,0.75 2.76563,0.75 1.54687,0 2.82812,-0.59375 1.28125,-0.60938 2.375,-1.45313 z M 239.1875,179.625 h -3.3125 v -3.04688 h 3.3125 z M 239,200 h -2.9375 V 182.54687 H 239 Z m 20.40625,0 h -2.9375 v -9.9375 q 0,-1.20313 -0.14063,-2.25 -0.14062,-1.0625 -0.51562,-1.65625 -0.39063,-0.65625 -1.125,-0.96875 -0.73438,-0.32813 -1.90625,-0.32813 -1.20313,0 -2.51563,0.59375 -1.3125,0.59375 -2.51562,1.51563 V 200 h -2.9375 v -17.45313 h 2.9375 v 1.9375 q 1.375,-1.14062 2.84375,-1.78125 1.46875,-0.64062 3.01562,-0.64062 2.82813,0 4.3125,1.70312 1.48438,1.70313 1.48438,4.90625 z m 14.71875,-0.15625 q -0.82813,0.21875 -1.8125,0.35937 -0.96875,0.14063 -1.73438,0.14063 -2.67187,0 -4.0625,-1.4375 -1.39062,-1.4375 -1.39062,-4.60938 v -9.28125 h -1.98438 v -2.46875 h 1.98438 v -5.01562 h 2.9375 v 5.01562 h 6.0625 v 2.46875 h -6.0625 v 7.95313 q 0,1.375 0.0625,2.15625 0.0625,0.76562 0.4375,1.4375 0.34375,0.625 0.9375,0.92187 0.60937,0.28125 1.84375,0.28125 0.71875,0 1.5,-0.20312 0.78125,-0.21875 1.125,-0.35938 h 0.15625 z m 16.01562,-4.875 q 0,2.39062 -1.98437,3.92187 -1.96875,1.53125 -5.39063,1.53125 -1.9375,0 -3.5625,-0.45312 Q 277.59375,199.5 276.5,198.95312 v -3.29687 h 0.15625 q 1.39062,1.04687 3.09375,1.67187 1.70312,0.60938 3.26562,0.60938 1.9375,0 3.03125,-0.625 1.09375,-0.625 1.09375,-1.96875 0,-1.03125 -0.59375,-1.5625 -0.59375,-0.53125 -2.28125,-0.90625 -0.625,-0.14063 -1.64062,-0.32813 -1,-0.1875 -1.82813,-0.40625 -2.29687,-0.60937 -3.26562,-1.78125 -0.95313,-1.1875 -0.95313,-2.90625 0,-1.07812 0.4375,-2.03125 0.45313,-0.95312 1.35938,-1.70312 0.875,-0.73438 2.21875,-1.15625 1.35937,-0.4375 3.03125,-0.4375 1.5625,0 3.15625,0.39062 1.60937,0.375 2.67187,0.92188 v 3.14062 h -0.15625 q -1.125,-0.82812 -2.73437,-1.39062 -1.60938,-0.57813 -3.15625,-0.57813 -1.60938,0 -2.71875,0.625 -1.10938,0.60938 -1.10938,1.82813 0,1.07812 0.67188,1.625 0.65625,0.54687 2.125,0.89062 0.8125,0.1875 1.8125,0.375 1.01562,0.1875 1.6875,0.34375 2.04687,0.46875 3.15625,1.60938 1.10937,1.15625 1.10937,3.0625 z m 24.51563,4.875 q -0.82813,0.21875 -1.8125,0.35937 -0.96875,0.14063 -1.73438,0.14063 -2.67187,0 -4.0625,-1.4375 -1.39062,-1.4375 -1.39062,-4.60938 v -9.28125 h -1.98438 v -2.46875 h 1.98438 v -5.01562 h 2.9375 v 5.01562 h 6.0625 v 2.46875 h -6.0625 v 7.95313 q 0,1.375 0.0625,2.15625 0.0625,0.76562 0.4375,1.4375 0.34375,0.625 0.9375,0.92187 0.60937,0.28125 1.84375,0.28125 0.71875,0 1.5,-0.20312 0.78125,-0.21875 1.125,-0.35938 h 0.15625 z M 332.79687,200 h -2.9375 v -9.9375 q 0,-1.20313 -0.14062,-2.25 -0.14063,-1.0625 -0.51563,-1.65625 -0.39062,-0.65625 -1.125,-0.96875 -0.73437,-0.32813 -1.90625,-0.32813 -1.20312,0 -2.51562,0.59375 -1.3125,0.59375 -2.51563,1.51563 V 200 h -2.9375 v -24.3125 h 2.9375 v 8.79687 q 1.375,-1.14062 2.84375,-1.78125 1.46875,-0.64062 3.01563,-0.64062 2.82812,0 4.3125,1.70312 1.48437,1.70313 1.48437,4.90625 z m 20.26563,-8.42188 h -12.85938 q 0,1.60938 0.48438,2.8125 0.48437,1.1875 1.32812,1.95313 0.8125,0.75 1.92188,1.125 1.125,0.375 2.46875,0.375 1.78125,0 3.57812,-0.70313 1.8125,-0.71875 2.57813,-1.40625 h 0.15625 v 3.20313 q -1.48438,0.625 -3.03125,1.04687 -1.54688,0.42188 -3.25,0.42188 -4.34375,0 -6.78125,-2.34375 -2.4375,-2.35938 -2.4375,-6.6875 0,-4.28125 2.32812,-6.79688 2.34375,-2.51562 6.15625,-2.51562 3.53125,0 5.4375,2.0625 1.92188,2.0625 1.92188,5.85937 z m -2.85938,-2.25 q -0.0156,-2.3125 -1.17187,-3.57812 -1.14063,-1.26563 -3.48438,-1.26563 -2.35937,0 -3.76562,1.39063 -1.39063,1.39062 -1.57813,3.45312 z m 33.92188,1.8125 q 0,2.1875 -0.625,3.9375 -0.60938,1.75 -1.65625,2.9375 -1.10938,1.23438 -2.4375,1.85938 -1.32813,0.60937 -2.92188,0.60937 -1.48437,0 -2.59375,-0.35937 -1.10937,-0.34375 -2.1875,-0.9375 L 371.51562,200 h -2.75 v -24.3125 h 2.9375 v 8.6875 q 1.23438,-1.01563 2.625,-1.65625 1.39063,-0.65625 3.125,-0.65625 3.09375,0 4.875,2.375 1.79688,2.375 1.79688,6.70312 z m -3.03125,0.0781 q 0,-3.125 -1.03125,-4.73438 -1.03125,-1.625 -3.32813,-1.625 -1.28125,0 -2.59375,0.5625 -1.3125,0.54688 -2.4375,1.42188 v 10 q 1.25,0.5625 2.14063,0.78125 0.90625,0.21875 2.04687,0.21875 2.4375,0 3.8125,-1.59375 1.39063,-1.60938 1.39063,-5.03125 z M 391.67187,200 h -2.9375 v -24.3125 h 2.9375 z m 20.6875,-8.71875 q 0,4.26562 -2.1875,6.73437 -2.1875,2.46875 -5.85937,2.46875 -3.70313,0 -5.89063,-2.46875 -2.17187,-2.46875 -2.17187,-6.73437 0,-4.26563 2.17187,-6.73438 2.1875,-2.48437 5.89063,-2.48437 3.67187,0 5.85937,2.48437 2.1875,2.46875 2.1875,6.73438 z m -3.03125,0 q 0,-3.39063 -1.32812,-5.03125 -1.32813,-1.65625 -3.6875,-1.65625 -2.39063,0 -3.71875,1.65625 -1.3125,1.64062 -1.3125,5.03125 0,3.28125 1.32812,4.98437 1.32813,1.6875 3.70313,1.6875 2.34375,0 3.67187,-1.67187 1.34375,-1.6875 1.34375,-5 z m 22.45313,0 q 0,4.26562 -2.1875,6.73437 -2.1875,2.46875 -5.85938,2.46875 -3.70312,0 -5.89062,-2.46875 -2.17188,-2.46875 -2.17188,-6.73437 0,-4.26563 2.17188,-6.73438 2.1875,-2.48437 5.89062,-2.48437 3.67188,0 5.85938,2.48437 2.1875,2.46875 2.1875,6.73438 z m -3.03125,0 q 0,-3.39063 -1.32813,-5.03125 -1.32812,-1.65625 -3.6875,-1.65625 -2.39062,0 -3.71875,1.65625 -1.3125,1.64062 -1.3125,5.03125 0,3.28125 1.32813,4.98437 1.32812,1.6875 3.70312,1.6875 2.34375,0 3.67188,-1.67187 1.34375,-1.6875 1.34375,-5 z M 461.79687,200 h -2.9375 v -9.9375 q 0,-1.125 -0.10937,-2.17188 -0.0937,-1.04687 -0.42188,-1.67187 -0.35937,-0.67188 -1.03125,-1.01563 -0.67187,-0.34375 -1.9375,-0.34375 -1.23437,0 -2.46875,0.625 -1.23437,0.60938 -2.46875,1.5625 0.0469,0.35938 0.0781,0.84375 0.0312,0.46875 0.0312,0.9375 V 200 h -2.9375 v -9.9375 q 0,-1.15625 -0.10938,-2.1875 -0.0937,-1.04688 -0.42187,-1.67188 -0.35938,-0.67187 -1.03125,-1 -0.67188,-0.34375 -1.9375,-0.34375 -1.20313,0 -2.42188,0.59375 -1.20312,0.59375 -2.40625,1.51563 V 200 h -2.9375 v -17.45313 h 2.9375 v 1.9375 q 1.375,-1.14062 2.73438,-1.78125 1.375,-0.64062 2.92187,-0.64062 1.78125,0 3.01563,0.75 1.25,0.75 1.85937,2.07812 1.78125,-1.5 3.25,-2.15625 1.46875,-0.67187 3.14063,-0.67187 2.875,0 4.23437,1.75 1.375,1.73437 1.375,4.85937 z m 8.8125,-20.375 h -3.3125 v -3.04688 h 3.3125 z M 470.42187,200 h -2.9375 v -17.45313 h 2.9375 z m 20.40625,0 h -2.9375 v -9.9375 q 0,-1.20313 -0.14062,-2.25 -0.14063,-1.0625 -0.51563,-1.65625 -0.39062,-0.65625 -1.125,-0.96875 -0.73437,-0.32813 -1.90625,-0.32813 -1.20312,0 -2.51562,0.59375 -1.3125,0.59375 -2.51563,1.51563 V 200 h -2.9375 v -17.45313 h 2.9375 v 1.9375 q 1.375,-1.14062 2.84375,-1.78125 1.46875,-0.64062 3.01563,-0.64062 2.82812,0 4.3125,1.70312 1.48437,1.70313 1.48437,4.90625 z m 19.8125,-1.98438 q 0,4.4375 -2.01562,6.51563 -2.01563,2.07812 -6.20313,2.07812 -1.39062,0 -2.71875,-0.20312 -1.3125,-0.1875 -2.59375,-0.54688 v -3 h 0.15625 q 0.71875,0.28125 2.28125,0.6875 1.5625,0.42188 3.125,0.42188 1.5,0 2.48438,-0.35938 0.98437,-0.35937 1.53125,-1 0.54687,-0.60937 0.78125,-1.46875 0.23437,-0.85937 0.23437,-1.92187 V 197.625 q -1.32812,1.0625 -2.54687,1.59375 -1.20313,0.51562 -3.07813,0.51562 -3.125,0 -4.96875,-2.25 -1.82812,-2.26562 -1.82812,-6.375 0,-2.25 0.625,-3.875 0.64062,-1.64062 1.73437,-2.82812 1.01563,-1.10938 2.46875,-1.71875 1.45313,-0.625 2.89063,-0.625 1.51562,0 2.53125,0.3125 1.03125,0.29687 2.17187,0.92187 l 0.1875,-0.75 h 2.75 z m -2.9375,-2.8125 v -9.51562 q -1.17187,-0.53125 -2.1875,-0.75 -1,-0.23438 -2,-0.23438 -2.42187,0 -3.8125,1.625 -1.39062,1.625 -1.39062,4.71875 0,2.9375 1.03125,4.45313 1.03125,1.51562 3.42187,1.51562 1.28125,0 2.5625,-0.48437 1.29688,-0.5 2.375,-1.32813 z m 34.57813,-3.625 h -12.85938 q 0,1.60938 0.48438,2.8125 0.48437,1.1875 1.32812,1.95313 0.8125,0.75 1.92188,1.125 1.125,0.375 2.46875,0.375 1.78125,0 3.57812,-0.70313 1.8125,-0.71875 2.57813,-1.40625 h 0.15625 v 3.20313 q -1.48438,0.625 -3.03125,1.04687 -1.54688,0.42188 -3.25,0.42188 -4.34375,0 -6.78125,-2.34375 -2.4375,-2.35938 -2.4375,-6.6875 0,-4.28125 2.32812,-6.79688 2.34375,-2.51562 6.15625,-2.51562 3.53125,0 5.4375,2.0625 1.92188,2.0625 1.92188,5.85937 z m -2.85938,-2.25 q -0.0156,-2.3125 -1.17187,-3.57812 -1.14063,-1.26563 -3.48438,-1.26563 -2.35937,0 -3.76562,1.39063 -1.39063,1.39062 -1.57813,3.45312 z M 560.29687,200 H 557.375 v -1.85938 q -0.39063,0.26563 -1.0625,0.75 -0.65625,0.46875 -1.28125,0.75 -0.73438,0.35938 -1.6875,0.59375 -0.95313,0.25 -2.23438,0.25 -2.35937,0 -4,-1.5625 -1.64062,-1.5625 -1.64062,-3.98437 0,-1.98438 0.84375,-3.20313 0.85937,-1.23437 2.4375,-1.9375 1.59375,-0.70312 3.82812,-0.95312 2.23438,-0.25 4.79688,-0.375 v -0.45313 q 0,-1 -0.35938,-1.65625 -0.34375,-0.65625 -1,-1.03125 -0.625,-0.35937 -1.5,-0.48437 -0.875,-0.125 -1.82812,-0.125 -1.15625,0 -2.57813,0.3125 -1.42187,0.29687 -2.9375,0.875 h -0.15625 v -2.98438 q 0.85938,-0.23437 2.48438,-0.51562 1.625,-0.28125 3.20312,-0.28125 1.84375,0 3.20313,0.3125 1.375,0.29687 2.375,1.03125 0.98437,0.71875 1.5,1.85937 0.51562,1.14063 0.51562,2.82813 z m -2.92187,-4.29688 v -4.85937 q -1.34375,0.0781 -3.17188,0.23437 -1.8125,0.15625 -2.875,0.45313 -1.26562,0.35937 -2.04687,1.125 -0.78125,0.75 -0.78125,2.07812 0,1.5 0.90625,2.26563 0.90625,0.75 2.76562,0.75 1.54688,0 2.82813,-0.59375 1.28125,-0.60938 2.375,-1.45313 z M 576.84375,185.75 h -0.15625 q -0.65625,-0.15625 -1.28125,-0.21875 -0.60938,-0.0781 -1.45313,-0.0781 -1.35937,0 -2.625,0.60938 -1.26562,0.59375 -2.4375,1.54687 V 200 h -2.9375 v -17.45313 h 2.9375 v 2.57813 q 1.75,-1.40625 3.07813,-1.98438 1.34375,-0.59375 2.73437,-0.59375 0.76563,0 1.10938,0.0469 0.34375,0.0312 1.03125,0.14062 z m 11.82812,14.09375 q -0.82812,0.21875 -1.8125,0.35937 -0.96875,0.14063 -1.73437,0.14063 -2.67188,0 -4.0625,-1.4375 -1.39063,-1.4375 -1.39063,-4.60938 v -9.28125 h -1.98437 v -2.46875 h 1.98437 v -5.01562 h 2.9375 v 5.01562 h 6.0625 v 2.46875 h -6.0625 v 7.95313 q 0,1.375 0.0625,2.15625 0.0625,0.76562 0.4375,1.4375 0.34375,0.625 0.9375,0.92187 0.60938,0.28125 1.84375,0.28125 0.71875,0 1.5,-0.20312 0.78125,-0.21875 1.125,-0.35938 h 0.15625 z M 606.8125,200 h -2.9375 v -9.9375 q 0,-1.20313 -0.14063,-2.25 -0.14062,-1.0625 -0.51562,-1.65625 -0.39063,-0.65625 -1.125,-0.96875 -0.73438,-0.32813 -1.90625,-0.32813 -1.20313,0 -2.51563,0.59375 -1.3125,0.59375 -2.51562,1.51563 V 200 h -2.9375 v -24.3125 h 2.9375 v 8.79687 q 1.375,-1.14062 2.84375,-1.78125 1.46875,-0.64062 3.01562,-0.64062 2.82813,0 4.3125,1.70312 1.48438,1.70313 1.48438,4.90625 z m 11.75,-4.45313 -4.40625,10.23438 H 611.875 l 2.71875,-10.23438 z"
         id="path6" />
      <path
         d="m 72.53125,248.28125 q -1.90625,0.875 -4.171875,1.53125 -2.25,0.64062 -4.359375,0.64062 -2.71875,0 -4.984375,-0.75 -2.265625,-0.75 -3.859375,-2.25 -1.609375,-1.51562 -2.484375,-3.78125 -0.875,-2.28125 -0.875,-5.32812 0,-5.57813 3.25,-8.79688 Q 58.3125,226.3125 64,226.3125 q 1.984375,0 4.046875,0.48437 2.078125,0.46875 4.46875,1.60938 v 3.67187 h -0.28125 q -0.484375,-0.375 -1.40625,-0.98437 -0.921875,-0.60938 -1.8125,-1.01563 -1.078125,-0.48437 -2.453125,-0.79687 -1.359375,-0.32813 -3.09375,-0.32813 -3.90625,0 -6.1875,2.51563 -2.265625,2.5 -2.265625,6.78125 0,4.51562 2.375,7.03125 2.375,2.5 6.46875,2.5 1.5,0 2.984375,-0.29688 1.5,-0.29687 2.625,-0.76562 v -5.70313 h -6.234375 v -2.71875 H 72.53125 Z M 80.859375,229.625 h -3.3125 v -3.04688 h 3.3125 z M 80.671875,250 h -2.9375 v -17.45313 h 2.9375 z M 101.57813,232.54687 94.515625,250 H 91.5625 l -7.015625,-17.45313 h 3.1875 L 93.140625,246.4375 98.5,232.54687 Z m 7,-2.92187 h -3.3125 v -3.04688 h 3.3125 z M 108.39063,250 h -2.9375 v -17.45313 h 2.9375 z m 20.40624,0 h -2.93749 v -9.9375 q 0,-1.20313 -0.14063,-2.25 -0.14062,-1.0625 -0.51562,-1.65625 -0.39063,-0.65625 -1.125,-0.96875 -0.73438,-0.32813 -1.90625,-0.32813 -1.20313,0 -2.51563,0.59375 -1.3125,0.59375 -2.51562,1.51563 V 250 h -2.9375 v -17.45313 h 2.9375 v 1.9375 q 1.375,-1.14062 2.84375,-1.78125 1.46875,-0.64062 3.01562,-0.64062 2.82813,0 4.3125,1.70312 1.48437,1.70313 1.48437,4.90625 z m 19.8125,-1.98438 q 0,4.4375 -2.01562,6.51563 -2.01563,2.07812 -6.20313,2.07812 -1.39062,0 -2.71875,-0.20312 -1.3125,-0.1875 -2.59375,-0.54688 v -3 h 0.15625 q 0.71875,0.28125 2.28125,0.6875 1.5625,0.42188 3.125,0.42188 1.5,0 2.48438,-0.35938 0.98437,-0.35937 1.53125,-1 0.54687,-0.60937 0.78125,-1.46875 0.23437,-0.85937 0.23437,-1.92187 V 247.625 q -1.32812,1.0625 -2.54687,1.59375 -1.20313,0.51562 -3.07813,0.51562 -3.125,0 -4.96875,-2.25 -1.82812,-2.26562 -1.82812,-6.375 0,-2.25 0.625,-3.875 0.64062,-1.64062 1.73437,-2.82812 1.01563,-1.10938 2.46875,-1.71875 1.45313,-0.625 2.89063,-0.625 1.51562,0 2.53125,0.3125 1.03125,0.29687 2.17187,0.92187 l 0.1875,-0.75 h 2.75 z m -2.9375,-2.8125 v -9.51562 q -1.17187,-0.53125 -2.1875,-0.75 -1,-0.23438 -2,-0.23438 -2.42187,0 -3.8125,1.625 -1.39062,1.625 -1.39062,4.71875 0,2.9375 1.03125,4.45313 1.03125,1.51562 3.42187,1.51562 1.28125,0 2.5625,-0.48437 1.29688,-0.5 2.375,-1.32813 z M 181,241.14062 q 0,2.1875 -0.625,3.9375 -0.60938,1.75 -1.65625,2.9375 -1.10938,1.23438 -2.4375,1.85938 -1.32813,0.60937 -2.92188,0.60937 -1.48437,0 -2.59375,-0.35937 -1.10937,-0.34375 -2.1875,-0.9375 L 168.39062,250 h -2.75 v -24.3125 h 2.9375 v 8.6875 q 1.23438,-1.01563 2.625,-1.65625 1.39063,-0.65625 3.125,-0.65625 3.09375,0 4.875,2.375 Q 181,236.8125 181,241.14062 Z m -3.03125,0.0781 q 0,-3.125 -1.03125,-4.73438 -1.03125,-1.625 -3.32813,-1.625 -1.28125,0 -2.59375,0.5625 -1.3125,0.54688 -2.4375,1.42188 v 10 q 1.25,0.5625 2.14063,0.78125 0.90625,0.21875 2.04687,0.21875 2.4375,0 3.8125,-1.59375 1.39063,-1.60938 1.39063,-5.03125 z m 22.21875,0.35937 h -12.85938 q 0,1.60938 0.48438,2.8125 0.48437,1.1875 1.32812,1.95313 0.8125,0.75 1.92188,1.125 1.125,0.375 2.46875,0.375 1.78125,0 3.57812,-0.70313 1.8125,-0.71875 2.57813,-1.40625 h 0.15625 v 3.20313 q -1.48438,0.625 -3.03125,1.04687 -1.54688,0.42188 -3.25,0.42188 -4.34375,0 -6.78125,-2.34375 -2.4375,-2.35938 -2.4375,-6.6875 0,-4.28125 2.32812,-6.79688 2.34375,-2.51562 6.15625,-2.51562 3.53125,0 5.4375,2.0625 1.92188,2.0625 1.92188,5.85937 z m -2.85938,-2.25 q -0.0156,-2.3125 -1.17187,-3.57812 -1.14063,-1.26563 -3.48438,-1.26563 -2.35937,0 -3.76562,1.39063 -1.39063,1.39062 -1.57813,3.45312 z M 218.20312,250 h -2.92187 v -1.85938 q -0.39063,0.26563 -1.0625,0.75 -0.65625,0.46875 -1.28125,0.75 -0.73438,0.35938 -1.6875,0.59375 -0.95313,0.25 -2.23438,0.25 -2.35937,0 -4,-1.5625 -1.64062,-1.5625 -1.64062,-3.98437 0,-1.98438 0.84375,-3.20313 0.85937,-1.23437 2.4375,-1.9375 1.59375,-0.70312 3.82812,-0.95312 2.23438,-0.25 4.79688,-0.375 v -0.45313 q 0,-1 -0.35938,-1.65625 -0.34375,-0.65625 -1,-1.03125 -0.625,-0.35937 -1.5,-0.48437 -0.875,-0.125 -1.82812,-0.125 -1.15625,0 -2.57813,0.3125 -1.42187,0.29687 -2.9375,0.875 h -0.15625 v -2.98438 q 0.85938,-0.23437 2.48438,-0.51562 1.625,-0.28125 3.20312,-0.28125 1.84375,0 3.20313,0.3125 1.375,0.29687 2.375,1.03125 0.98437,0.71875 1.5,1.85937 0.51562,1.14063 0.51562,2.82813 z m -2.92187,-4.29688 v -4.85937 q -1.34375,0.0781 -3.17188,0.23437 -1.8125,0.15625 -2.875,0.45313 -1.26562,0.35937 -2.04687,1.125 -0.78125,0.75 -0.78125,2.07812 0,1.5 0.90625,2.26563 0.90625,0.75 2.76562,0.75 1.54688,0 2.82813,-0.59375 1.28125,-0.60938 2.375,-1.45313 z M 238.32812,250 h -2.9375 v -1.9375 q -1.48437,1.17187 -2.84375,1.79687 -1.35937,0.625 -3,0.625 -2.75,0 -4.28125,-1.67187 -1.53125,-1.6875 -1.53125,-4.9375 v -11.32813 h 2.9375 v 9.9375 q 0,1.32813 0.125,2.28125 0.125,0.9375 0.53125,1.60938 0.42188,0.6875 1.09375,1 0.67188,0.3125 1.95313,0.3125 1.14062,0 2.48437,-0.59375 1.35938,-0.59375 2.53125,-1.51563 v -13.03125 h 2.9375 z m 14.84375,-0.15625 q -0.82812,0.21875 -1.8125,0.35937 -0.96875,0.14063 -1.73437,0.14063 -2.67188,0 -4.0625,-1.4375 -1.39063,-1.4375 -1.39063,-4.60938 v -9.28125 h -1.98437 v -2.46875 h 1.98437 v -5.01562 h 2.9375 v 5.01562 h 6.0625 v 2.46875 h -6.0625 v 7.95313 q 0,1.375 0.0625,2.15625 0.0625,0.76562 0.4375,1.4375 0.34375,0.625 0.9375,0.92187 0.60938,0.28125 1.84375,0.28125 0.71875,0 1.5,-0.20312 0.78125,-0.21875 1.125,-0.35938 h 0.15625 z m 18.48438,-17.29688 -10.1875,23.89063 h -3.14063 l 3.25,-7.28125 -6.95312,-16.60938 h 3.1875 l 5.35937,12.9375 5.40625,-12.9375 z m 6.96875,13 -4.40625,10.23438 h -2.28125 l 2.71875,-10.23438 z M 300.85937,229.625 h -3.3125 v -3.04688 h 3.3125 z m -0.1875,20.79687 q 0,3.0625 -1.5625,4.625 -1.5625,1.5625 -4.1875,1.5625 -0.625,0 -1.65625,-0.125 -1.01562,-0.125 -1.70312,-0.3125 V 253.375 h 0.15625 q 0.4375,0.17187 1.17187,0.39062 0.75,0.21875 1.45313,0.21875 1.125,0 1.8125,-0.3125 0.6875,-0.3125 1.03125,-0.9375 0.34375,-0.625 0.4375,-1.51562 0.10937,-0.875 0.10937,-2.14063 v -14.0625 h -3.64062 v -2.46875 h 6.57812 z m 20.64063,-9.14062 q 0,4.26562 -2.1875,6.73437 -2.1875,2.46875 -5.85938,2.46875 -3.70312,0 -5.89062,-2.46875 -2.17188,-2.46875 -2.17188,-6.73437 0,-4.26563 2.17188,-6.73438 2.1875,-2.48437 5.89062,-2.48437 3.67188,0 5.85938,2.48437 2.1875,2.46875 2.1875,6.73438 z m -3.03125,0 q 0,-3.39063 -1.32813,-5.03125 -1.32812,-1.65625 -3.6875,-1.65625 -2.39062,0 -3.71875,1.65625 -1.3125,1.64062 -1.3125,5.03125 0,3.28125 1.32813,4.98437 1.32812,1.6875 3.70312,1.6875 2.34375,0 3.67188,-1.67187 1.34375,-1.6875 1.34375,-5 z m 22.4375,-8.73438 -10.1875,23.89063 h -3.14063 l 3.25,-7.28125 -6.95312,-16.60938 h 3.1875 l 5.35937,12.9375 5.40625,-12.9375 z m 18.4375,8.73438 q 0,4.26562 -2.1875,6.73437 -2.1875,2.46875 -5.85938,2.46875 -3.70312,0 -5.89062,-2.46875 -2.17188,-2.46875 -2.17188,-6.73437 0,-4.26563 2.17188,-6.73438 2.1875,-2.48437 5.89062,-2.48437 3.67188,0 5.85938,2.48437 2.1875,2.46875 2.1875,6.73438 z m -3.03125,0 q 0,-3.39063 -1.32813,-5.03125 -1.32812,-1.65625 -3.6875,-1.65625 -2.39062,0 -3.71875,1.65625 -1.3125,1.64062 -1.3125,5.03125 0,3.28125 1.32813,4.98437 1.32812,1.6875 3.70312,1.6875 2.34375,0 3.67188,-1.67187 1.34375,-1.6875 1.34375,-5 z M 378.17187,250 h -2.9375 v -1.9375 q -1.48437,1.17187 -2.84375,1.79687 -1.35937,0.625 -3,0.625 -2.75,0 -4.28125,-1.67187 -1.53125,-1.6875 -1.53125,-4.9375 v -11.32813 h 2.9375 v 9.9375 q 0,1.32813 0.125,2.28125 0.125,0.9375 0.53125,1.60938 0.42188,0.6875 1.09375,1 0.67188,0.3125 1.95313,0.3125 1.14062,0 2.48437,-0.59375 1.35938,-0.59375 2.53125,-1.51563 v -13.03125 h 2.9375 z m 18.25,-5.03125 q 0,2.39062 -1.98437,3.92187 -1.96875,1.53125 -5.39063,1.53125 -1.9375,0 -3.5625,-0.45312 -1.60937,-0.46875 -2.70312,-1.01563 v -3.29687 h 0.15625 q 1.39062,1.04687 3.09375,1.67187 1.70312,0.60938 3.26562,0.60938 1.9375,0 3.03125,-0.625 1.09375,-0.625 1.09375,-1.96875 0,-1.03125 -0.59375,-1.5625 -0.59375,-0.53125 -2.28125,-0.90625 -0.625,-0.14063 -1.64062,-0.32813 -1,-0.1875 -1.82813,-0.40625 -2.29687,-0.60937 -3.26562,-1.78125 -0.95313,-1.1875 -0.95313,-2.90625 0,-1.07812 0.4375,-2.03125 0.45313,-0.95312 1.35938,-1.70312 0.875,-0.73438 2.21875,-1.15625 1.35937,-0.4375 3.03125,-0.4375 1.5625,0 3.15625,0.39062 1.60937,0.375 2.67187,0.92188 v 3.14062 h -0.15625 q -1.125,-0.82812 -2.73437,-1.39062 -1.60938,-0.57813 -3.15625,-0.57813 -1.60938,0 -2.71875,0.625 -1.10938,0.60938 -1.10938,1.82813 0,1.07812 0.67188,1.625 0.65625,0.54687 2.125,0.89062 0.8125,0.1875 1.8125,0.375 1.01562,0.1875 1.6875,0.34375 2.04687,0.46875 3.15625,1.60938 1.10937,1.15625 1.10937,3.0625 z m 30.8125,-3.82813 q 0,2.1875 -0.625,3.9375 -0.60937,1.75 -1.65625,2.9375 -1.10937,1.23438 -2.4375,1.85938 -1.32812,0.60937 -2.92187,0.60937 -1.48438,0 -2.59375,-0.35937 -1.10938,-0.34375 -2.1875,-0.9375 L 414.625,250 h -2.75 v -24.3125 h 2.9375 v 8.6875 q 1.23437,-1.01563 2.625,-1.65625 1.39062,-0.65625 3.125,-0.65625 3.09375,0 4.875,2.375 1.79687,2.375 1.79687,6.70312 z m -3.03125,0.0781 q 0,-3.125 -1.03125,-4.73438 -1.03125,-1.625 -3.32812,-1.625 -1.28125,0 -2.59375,0.5625 -1.3125,0.54688 -2.4375,1.42188 v 10 q 1.25,0.5625 2.14062,0.78125 0.90625,0.21875 2.04688,0.21875 2.4375,0 3.8125,-1.59375 1.39062,-1.60938 1.39062,-5.03125 z M 434.96875,229.625 h -3.3125 v -3.04688 h 3.3125 z M 434.78125,250 h -2.9375 v -17.45313 h 2.9375 z m 16.70312,-14.25 h -0.15625 q -0.65625,-0.15625 -1.28125,-0.21875 -0.60937,-0.0781 -1.45312,-0.0781 -1.35938,0 -2.625,0.60938 -1.26563,0.59375 -2.4375,1.54687 V 250 h -2.9375 v -17.45313 h 2.9375 v 2.57813 q 1.75,-1.40625 3.07812,-1.98438 1.34375,-0.59375 2.73438,-0.59375 0.76562,0 1.10937,0.0469 0.34375,0.0312 1.03125,0.14062 z m 11.82813,14.09375 q -0.82813,0.21875 -1.8125,0.35937 -0.96875,0.14063 -1.73438,0.14063 -2.67187,0 -4.0625,-1.4375 -1.39062,-1.4375 -1.39062,-4.60938 v -9.28125 h -1.98438 v -2.46875 h 1.98438 v -5.01562 h 2.9375 v 5.01562 h 6.0625 v 2.46875 H 457.25 v 7.95313 q 0,1.375 0.0625,2.15625 0.0625,0.76562 0.4375,1.4375 0.34375,0.625 0.9375,0.92187 0.60937,0.28125 1.84375,0.28125 0.71875,0 1.5,-0.20312 0.78125,-0.21875 1.125,-0.35938 h 0.15625 z M 481.45312,250 h -2.9375 v -9.9375 q 0,-1.20313 -0.14062,-2.25 -0.14063,-1.0625 -0.51563,-1.65625 -0.39062,-0.65625 -1.125,-0.96875 -0.73437,-0.32813 -1.90625,-0.32813 -1.20312,0 -2.51562,0.59375 -1.3125,0.59375 -2.51563,1.51563 V 250 h -2.9375 v -24.3125 h 2.9375 v 8.79687 q 1.375,-1.14062 2.84375,-1.78125 1.46875,-0.64062 3.01563,-0.64062 2.82812,0 4.3125,1.70312 1.48437,1.70313 1.48437,4.90625 z m 10.45313,0 h -3.73438 v -4.45313 h 3.73438 z"
         id="path7" />
    </g>
  </g>
</svg>
