<?xml version="1.0" encoding="UTF-8" standalone="no"?>
<svg
   width="800"
   height="600"
   version="1.1"
   id="svg4"
   sodipodi:docname="sima_marathi.svg"
   xmlns:inkscape="http://www.inkscape.org/namespaces/inkscape"
   xmlns:sodipodi="http://sodipodi.sourceforge.net/DTD/sodipodi-0.dtd"
   xmlns="http://www.w3.org/2000/svg"
   xmlns:svg="http://www.w3.org/2000/svg">
  <sodipodi:namedview
     id="namedview4"
     pagecolor="#ffffff"
     bordercolor="#666666"
     borderopacity="1.0"
     inkscape:showpageshadow="2"
     inkscape:pageopacity="0.0"
     inkscape:pagecheckerboard="0"
     inkscape:deskcolor="#d1d1d1" />
  <defs
     id="defs1">
    <style
       type="text/css"
       id="style1">
      @font-face {{
        font-family: 'Kalam';
        src: url('AxiDraw_API(1)/Kalam-Regular.ttf');
      }}
    </style>
  </defs>
  <g
     id="g4">
    <g
       id="text4"
       style="font-size:32px;font-family:Kalam"
       aria-label="सीमेवरची ही माती,मराठीची ओळख साती.भाषा, संस्कृती, गौरव,जीवनातला हाच आधार होव.">
      <path
         d="M 73.59375,76.703125 V 79 H 70.3125 v 21 H 67.71875 V 89.5 H 58.671875 Q 57.84375,90.046875 56.6875,90.15625 l -0.03125,0.07813 q 1.515625,2.375 3.328125,4.421875 1.8125,2.046875 4.125,3.796875 L 62.4375,100.375 q -1.328125,-0.984375 -2.53125,-2.125 -1.1875,-1.140625 -2.25,-2.359375 Q 56.609375,94.65625 55.6875,93.40625 54.765625,92.140625 54,90.921875 53.234375,89.703125 52.625,88.578125 52.015625,87.4375 51.5625,86.46875 L 53.703125,85.3125 Q 54,86 54.28125,86.46875 q 0.296875,0.453125 0.59375,0.734375 0.296875,0.265625 0.625,0.390625 0.328125,0.109375 0.703125,0.109375 1.078125,0 1.578125,-0.84375 0.515625,-0.84375 0.515625,-2.21875 0,-0.8125 -0.15625,-1.59375 Q 57.984375,82.25 57.734375,81.53125 57.5,80.796875 57.21875,80.15625 56.9375,79.515625 56.6875,79 H 49.453125 V 76.703125 Z M 67.71875,79 h -8.328125 q 0.65625,1.421875 1.03125,2.859375 0.375,1.4375 0.375,2.859375 0,0.65625 -0.109375,1.296875 -0.09375,0.625 -0.328125,1.1875 l 0.03125,0.03125 h 7.328125 z m 14.1875,0 H 78.625 v 21 H 76.0625 V 79 H 72.5 v -2.296875 h 3.8125 Q 76.03125,75.109375 75.59375,73.984375 75.15625,72.84375 74.640625,72.09375 74.125,71.328125 73.5625,70.890625 73,70.453125 72.484375,70.234375 71.953125,70.015625 71.5,69.953125 q -0.46875,-0.0625 -0.765625,-0.0625 -0.96875,0 -1.546875,0.3125 -0.59375,0.296875 -0.90625,0.71875 -0.3125,0.421875 -0.40625,0.890625 -0.109375,0.453125 -0.109375,0.78125 0,0.125 0.04687,0.515625 0.03125,0.375 0.25,0.953125 0.203125,0.578125 0.640625,1.296875 0.4375,0.71875 1.234375,1.515625 h -2.65625 q -0.984375,-1.125 -1.46875,-2.328125 -0.5,-1.21875 -0.5,-2.359375 0,-0.953125 0.34375,-1.8125 Q 66,69.515625 66.6875,68.890625 67.375,68.25 68.40625,67.875 69.4375,67.5 70.796875,67.5 q 1.875,0 3.234375,0.734375 1.359375,0.71875 2.28125,1.96875 0.9375,1.25 1.46875,2.9375 0.546875,1.671875 0.765625,3.5625 h 3.359375 z m 21.54688,0 h -3.28125 v 21 h -2.562505 v -8.765625 h -8.59375 v 1.859375 q 0,0.484375 -0.04687,0.859375 -0.03125,0.375 -0.171875,0.625 -0.125,0.25 -0.375,0.390625 -0.234375,0.125 -0.640625,0.125 -0.40625,0 -0.90625,-0.234375 -0.5,-0.25 -1.015625,-0.65625 -0.515625,-0.421875 -1,-0.9375 -0.484375,-0.53125 -0.875,-1.09375 Q 83.609375,91.59375 83.375,91.03125 83.140625,90.46875 83.140625,90 q 0,-0.328125 0.109375,-0.53125 Q 83.375,89.25 83.578125,89.140625 83.796875,89.03125 84.09375,89 q 0.296875,-0.04687 0.671875,-0.04687 h 1.6875 V 79 H 80.8125 v -2.296875 h 22.64063 z m -14.437505,0 v 9.953125 h 8.59375 V 79 Z m 10.9375,-1.859375 H 97.6875 L 96.265625,74.46875 q -0.90625,-1.703125 -1.640625,-2.703125 -0.75,-1 -1.40625,-1.515625 -0.671875,-0.53125 -1.3125,-0.671875 -0.640625,-0.15625 -1.34375,-0.15625 h -3.03125 v -2.53125 h 2.859375 q 0.90625,0 1.640625,0.15625 0.734375,0.140625 1.40625,0.53125 0.65625,0.375 1.296875,1.0625 0.625,0.671875 1.34375,1.75 0.71875,1.0625 1.578125,2.5625 Q 98.5,74.4375 99.59375,76.46875 Z M 122.26563,79 h -3.28125 v 21 h -2.5625 v -5.578125 l -0.0625,-0.01563 q -0.3125,0.296875 -0.73438,0.625 -0.42187,0.3125 -0.96875,0.578125 -0.54687,0.25 -1.23437,0.421875 -0.67188,0.171875 -1.51563,0.171875 -1.54687,0 -2.82812,-0.59375 -1.26563,-0.59375 -2.1875,-1.578125 -0.92188,-1 -1.4375,-2.28125 -0.5,-1.296875 -0.5,-2.703125 0,-1.40625 0.5,-2.609375 0.51562,-1.21875 1.40625,-2.109375 0.89062,-0.890625 2.07812,-1.390625 1.1875,-0.515625 2.54688,-0.515625 0.375,0 0.9375,0.0625 0.57812,0.0625 1.23437,0.28125 0.65625,0.21875 1.35938,0.640625 0.70312,0.40625 1.34375,1.109375 L 116.42188,84.5 V 79 h -14.0625 v -2.296875 h 19.90625 z m -5.78125,8.421875 q -0.98438,-1.1875 -2.14063,-1.90625 -1.15625,-0.734375 -2.625,-0.734375 -1.15625,0 -1.96875,0.4375 -0.79687,0.4375 -1.3125,1.109375 -0.51562,0.65625 -0.75,1.46875 -0.23437,0.8125 -0.23437,1.5625 0,0.8125 0.26562,1.609375 0.26563,0.796875 0.78125,1.4375 0.53125,0.625 1.3125,1.03125 0.78125,0.390625 1.82813,0.390625 1.07812,0 1.96875,-0.40625 Q 114.5,93 115.14063,92.359375 115.78125,91.71875 116.125,90.921875 116.48438,90.125 116.48438,89.375 Z M 137.90625,79 h -5.89063 q 0.79688,1.375 1.28125,2.8125 0.5,1.421875 0.5,2.890625 0,1.109375 -0.34375,2.140625 -0.32812,1.015625 -0.98437,1.828125 -0.64063,0.796875 -1.60938,1.3125 -0.95312,0.5 -2.20312,0.5625 L 128.625,90.625 q 1.40625,2.1875 3.15625,4.140625 1.75,1.9375 4.04687,3.6875 l -1.67187,1.921875 q -1.32813,-0.984375 -2.53125,-2.125 -1.1875,-1.15625 -2.25,-2.375 -1.0625,-1.234375 -1.98437,-2.484375 Q 126.48438,92.125 125.71875,90.9375 124.96875,89.734375 124.375,88.640625 123.78125,87.53125 123.35938,86.625 L 125.5,85.46875 q 0.5625,1.21875 1.26563,1.921875 0.71875,0.6875 1.65624,0.6875 0.67188,0 1.20313,-0.34375 0.53125,-0.34375 0.89062,-0.875 0.35938,-0.546875 0.54688,-1.1875 0.1875,-0.65625 0.1875,-1.28125 0,-0.734375 -0.1875,-1.4375 -0.1875,-0.71875 -0.48438,-1.390625 -0.29687,-0.6875 -0.67187,-1.328125 Q 129.54687,79.59375 129.20312,79 h -8.03124 v -2.296875 h 16.73437 z m 21.64062,0 h -3.28125 v 21 h -2.59375 v -6.578125 l -0.0625,-0.04687 q -0.85937,0.78125 -1.6875,1.234375 -0.8125,0.4375 -1.53125,0.671875 -0.70312,0.21875 -1.28125,0.28125 -0.57812,0.0625 -0.95312,0.0625 -1.4375,0 -2.54688,-0.453125 -1.10937,-0.453125 -1.85937,-1.1875 -0.75,-0.75 -1.14063,-1.703125 -0.39062,-0.96875 -0.39062,-2 0,-1.078125 0.4375,-2.140625 0.45312,-1.0625 1.40625,-1.90625 l -0.0156,-0.0625 h -4.95312 V 83.875 h 12.5625 v 2.296875 h -1.60938 q -1.60937,0 -2.64062,0.421875 -1.03125,0.421875 -1.625,1.03125 -0.59375,0.609375 -0.82813,1.3125 -0.21875,0.6875 -0.21875,1.25 0,0.46875 0.15625,1.015625 0.15625,0.53125 0.51563,0.984375 0.375,0.453125 0.98437,0.75 0.625,0.296875 1.5625,0.296875 0.98438,0 1.82813,-0.3125 0.85937,-0.328125 1.57812,-0.84375 0.71875,-0.515625 1.29688,-1.15625 0.59375,-0.65625 1.01562,-1.296875 V 79 H 136.8125 v -2.296875 h 22.73437 z m 8.3125,0 h -3.28125 v 21 h -2.5625 V 79 h -3.5625 v -2.296875 h 3.8125 q -0.28125,-1.59375 -0.71875,-2.71875 -0.4375,-1.140625 -0.95312,-1.890625 -0.51563,-0.765625 -1.07813,-1.203125 -0.5625,-0.4375 -1.07812,-0.65625 -0.53125,-0.21875 -0.98438,-0.28125 -0.46875,-0.0625 -0.76562,-0.0625 -0.96875,0 -1.54688,0.3125 -0.59375,0.296875 -0.90625,0.71875 -0.3125,0.421875 -0.40625,0.890625 -0.10937,0.453125 -0.10937,0.78125 0,0.125 0.0469,0.515625 0.0312,0.375 0.25,0.953125 0.20313,0.578125 0.64063,1.296875 0.4375,0.71875 1.23437,1.515625 h -2.65625 q -0.98437,-1.125 -1.46875,-2.328125 -0.5,-1.21875 -0.5,-2.359375 0,-0.953125 0.34375,-1.8125 0.34375,-0.859375 1.03125,-1.484375 Q 153.32812,68.25 154.35937,67.875 155.39062,67.5 156.75,67.5 q 1.875,0 3.23437,0.734375 1.35938,0.71875 2.28125,1.96875 0.9375,1.25 1.46875,2.9375 0.54688,1.671875 0.76563,3.5625 h 3.35937 z m 19.67188,16.59375 q 0.51562,-0.15625 1.01562,-0.390625 0.51563,-0.234375 0.90625,-0.5625 0.40625,-0.34375 0.65625,-0.796875 0.25,-0.453125 0.25,-1.0625 0,-1.296875 -1.07812,-2.015625 -1.07813,-0.734375 -3.0625,-0.734375 -0.79688,0 -1.64063,0.171875 -0.82812,0.15625 -1.51562,0.59375 -0.6875,0.421875 -1.125,1.171875 -0.4375,0.734375 -0.4375,1.875 0,1.15625 0.45312,2.15625 0.45313,0.984375 1.17188,1.8125 0.73437,0.828125 1.64062,1.5 0.90625,0.671875 1.79688,1.1875 0.90625,0.51563 1.70312,0.85938 0.79688,0.35937 1.32813,0.5625 l -1.03125,2.15625 q -1.09375,-0.46875 -2.23438,-1.03125 -1.125,-0.54688 -2.1875,-1.21875 -1.0625,-0.65625 -2,-1.45313 -0.9375,-0.796875 -1.64062,-1.765625 -0.6875,-0.96875 -1.09375,-2.125 -0.39063,-1.15625 -0.39063,-2.515625 0,-1.328125 0.34375,-2.3125 0.35938,-1 0.98438,-1.75 -0.85938,-0.984375 -1.26563,-1.984375 -0.40625,-1 -0.40625,-2.171875 0,-0.671875 0.15625,-1.265625 0.17188,-0.59375 0.59375,-1.03125 0.4375,-0.453125 1.20313,-0.71875 0.76562,-0.265625 1.98437,-0.265625 h 7.07813 V 79 h -14.15625 v -2.296875 h 20.35937 V 79 H 192.25 v 5.75 h -8.98438 q -0.60937,0 -1.03125,0.109375 -0.40625,0.09375 -0.65625,0.296875 -0.25,0.203125 -0.35937,0.515625 -0.0937,0.296875 -0.0937,0.703125 0,0.546875 0.1875,1.0625 0.1875,0.515625 0.70312,1.15625 0.90625,-0.46875 1.98438,-0.6875 1.09375,-0.234375 2.28125,-0.234375 1.375,0 2.5625,0.3125 1.20312,0.3125 2.07812,0.953125 0.89063,0.625 1.39063,1.609375 0.51562,0.96875 0.51562,2.28125 0,1.265625 -0.4375,2.140625 -0.42187,0.875 -1.07812,1.46875 -0.64063,0.59375 -1.40625,0.96875 Q 189.14062,97.765625 188.48437,98 Z M 204.20312,79 h -3.28125 v 21 h -2.5625 V 79 h -3.5625 v -2.296875 h 3.8125 q -0.28125,-1.59375 -0.71875,-2.71875 -0.4375,-1.140625 -0.95312,-1.890625 -0.51563,-0.765625 -1.07813,-1.203125 -0.5625,-0.4375 -1.07812,-0.65625 -0.53125,-0.21875 -0.98438,-0.28125 -0.46875,-0.0625 -0.76562,-0.0625 -0.96875,0 -1.54688,0.3125 -0.59375,0.296875 -0.90625,0.71875 -0.3125,0.421875 -0.40625,0.890625 -0.10937,0.453125 -0.10937,0.78125 0,0.125 0.0469,0.515625 0.0312,0.375 0.25,0.953125 0.20313,0.578125 0.64063,1.296875 0.4375,0.71875 1.23437,1.515625 h -2.65625 q -0.98437,-1.125 -1.46875,-2.328125 -0.5,-1.21875 -0.5,-2.359375 0,-0.953125 0.34375,-1.8125 0.34375,-0.859375 1.03125,-1.484375 0.6875,-0.640625 1.71875,-1.015625 1.03125,-0.375 2.39063,-0.375 1.875,0 3.23437,0.734375 1.35938,0.71875 2.28125,1.96875 0.9375,1.25 1.46875,2.9375 0.54688,1.671875 0.76563,3.5625 h 3.35937 z m 30.3125,0 h -3.28125 v 21 h -2.5625 v -8.765625 h -8.59375 v 1.859375 q 0,0.484375 -0.0469,0.859375 -0.0312,0.375 -0.17188,0.625 -0.125,0.25 -0.375,0.390625 -0.23437,0.125 -0.64062,0.125 -0.40625,0 -0.90625,-0.234375 -0.5,-0.25 -1.01563,-0.65625 -0.51562,-0.421875 -1,-0.9375 -0.48437,-0.53125 -0.875,-1.09375 -0.375,-0.578125 -0.60937,-1.140625 -0.23438,-0.5625 -0.23438,-1.03125 0,-0.328125 0.10938,-0.53125 0.125,-0.21875 0.32812,-0.328125 0.21875,-0.109375 0.51563,-0.140625 0.29687,-0.04687 0.67187,-0.04687 h 1.6875 V 79 H 211.875 v -2.296875 h 22.64062 z m -14.4375,0 v 9.953125 h 8.59375 V 79 Z m 22.75,0 h -3.28125 v 21 h -2.5625 V 79 h -3.5625 v -2.296875 h 9.40625 z m 19.57813,0 H 259.125 v 21 h -2.54688 V 86.28125 H 251.5 q -1.04688,0 -1.89063,0.140625 -0.84375,0.125 -1.4375,0.53125 -0.59375,0.390625 -0.92187,1.109375 -0.3125,0.703125 -0.3125,1.859375 0,1.5 0.48437,2.765625 0.5,1.265625 1.26563,2.328125 0.76562,1.046875 1.6875,1.9375 0.9375,0.890625 1.79687,1.640625 l -1.5625,1.78125 q -0.14062,-0.0781 -0.67187,-0.453125 -0.51563,-0.390625 -1.21875,-1.046875 -0.6875,-0.65625 -1.46875,-1.59375 -0.76563,-0.9375 -1.42188,-2.109375 -0.64062,-1.1875 -1.07812,-2.609375 -0.42188,-1.421875 -0.42188,-3.0625 0,-1.625 0.45313,-2.6875 0.46875,-1.078125 1.3125,-1.703125 0.84375,-0.640625 2.04687,-0.890625 1.20313,-0.25 2.6875,-0.25 h 5.75 V 79 h -14.84375 v -2.296875 h 20.67188 z m 8.3125,0 h -3.28125 v 21 H 264.875 V 79 h -3.5625 v -2.296875 h 3.8125 q -0.28125,-1.59375 -0.71875,-2.71875 -0.4375,-1.140625 -0.95313,-1.890625 -0.51562,-0.765625 -1.07812,-1.203125 -0.5625,-0.4375 -1.07813,-0.65625 -0.53125,-0.21875 -0.98437,-0.28125 -0.46875,-0.0625 -0.76563,-0.0625 -0.96875,0 -1.54687,0.3125 -0.59375,0.296875 -0.90625,0.71875 -0.3125,0.421875 -0.40625,0.890625 -0.10938,0.453125 -0.10938,0.78125 0,0.125 0.0469,0.515625 0.0312,0.375 0.25,0.953125 0.20312,0.578125 0.64062,1.296875 0.4375,0.71875 1.23438,1.515625 h -2.65625 q -0.98438,-1.125 -1.46875,-2.328125 -0.5,-1.21875 -0.5,-2.359375 0,-0.953125 0.34375,-1.8125 Q 254.8125,69.515625 255.5,68.890625 256.1875,68.25 257.21875,67.875 258.25,67.5 259.60937,67.5 q 1.875,0 3.23438,0.734375 1.35937,0.71875 2.28125,1.96875 0.9375,1.25 1.46875,2.9375 0.54687,1.671875 0.76562,3.5625 h 3.35938 z m 4.39062,17.4375 -2.5,7.6875 h -1.82812 l 1.82812,-7.6875 z"
         id="path4" />
      <path
         d="M 72.09375,129 H 68.8125 v 21 H 66.25 v -8.76563 h -8.59375 v 1.85938 q 0,0.48437 -0.04687,0.85937 -0.03125,0.375 -0.171875,0.625 -0.125,0.25 -0.375,0.39063 -0.234375,0.125 -0.640625,0.125 -0.40625,0 -0.90625,-0.23438 -0.5,-0.25 -1.015625,-0.65625 -0.515625,-0.42187 -1,-0.9375 -0.484375,-0.53125 -0.875,-1.09375 -0.375,-0.57812 -0.609375,-1.14062 Q 51.78125,140.46875 51.78125,140 q 0,-0.32813 0.109375,-0.53125 0.125,-0.21875 0.328125,-0.32813 0.21875,-0.10937 0.515625,-0.14062 0.296875,-0.0469 0.671875,-0.0469 h 1.6875 V 129 h -5.640625 v -2.29687 H 72.09375 Z m -14.4375,0 v 9.95312 H 66.25 V 129 Z m 30.078125,0 H 81.84375 q 0.796875,1.375 1.28125,2.8125 0.5,1.42187 0.5,2.89062 0,1.10938 -0.34375,2.14063 -0.328125,1.01562 -0.984375,1.82812 -0.640625,0.79688 -1.609375,1.3125 -0.953125,0.5 -2.203125,0.5625 l -0.03125,0.0781 q 1.40625,2.1875 3.15625,4.14062 1.75,1.9375 4.046875,3.6875 l -1.671875,1.92188 q -1.328125,-0.98438 -2.53125,-2.125 -1.1875,-1.15625 -2.25,-2.375 -1.0625,-1.23438 -1.984375,-2.48438 -0.90625,-1.26562 -1.671875,-2.45312 -0.75,-1.20313 -1.34375,-2.29688 -0.59375,-1.10937 -1.015625,-2.01562 l 2.140625,-1.15625 q 0.5625,1.21875 1.265625,1.92187 0.71875,0.6875 1.65625,0.6875 0.671875,0 1.203125,-0.34375 0.53125,-0.34375 0.890625,-0.875 0.359375,-0.54687 0.546875,-1.1875 0.1875,-0.65625 0.1875,-1.28125 0,-0.73437 -0.1875,-1.4375 -0.1875,-0.71875 -0.484375,-1.39062 -0.296875,-0.6875 -0.671875,-1.32813 Q 79.375,129.59375 79.03125,129 H 71 v -2.29687 h 16.734375 z m 8.3125,0 h -3.28125 v 21 h -2.5625 v -21 h -3.5625 v -2.29687 h 9.40625 z m 9.937505,19 q 1.29687,0 2.40625,-0.46875 1.10937,-0.46875 1.90625,-1.29688 0.8125,-0.82812 1.26562,-1.95312 0.45313,-1.14063 0.45313,-2.48438 0,-1.125 -0.3125,-1.96875 -0.29688,-0.85937 -0.78125,-1.48437 -0.46875,-0.625 -1.04688,-1.04688 -0.5625,-0.42187 -1.09375,-0.6875 -0.53125,-0.26562 -0.95312,-0.39062 -0.40625,-0.125 -0.57813,-0.15625 -0.40625,0.1875 -1.01562,0.375 -0.59375,0.17187 -1.26563,0.39062 -0.78125,0.26563 -1.57812,0.67188 -0.79688,0.40625 -1.4375,1.0625 -0.64063,0.65625 -1.04688,1.625 -0.39062,0.96875 -0.39062,2.34375 0,1.20312 0.40625,2.21875 0.40625,1 1.125,1.73437 0.73437,0.71875 1.73437,1.125 1,0.39063 2.20313,0.39063 z m 11.79687,-19 h -7.60937 v 2.53125 q 0,0.76562 -0.25,1.59375 -0.25,0.82812 -0.73438,1.40625 1.23438,0.4375 2.20313,1.20312 0.98437,0.75 1.65625,1.75 0.6875,0.98438 1.04687,2.17188 0.375,1.1875 0.375,2.48437 0,1.71875 -0.625,3.21875 -0.625,1.5 -1.75,2.625 -1.10937,1.10938 -2.65625,1.75 -1.54687,0.64063 -3.39062,0.64063 -1.95313,0 -3.45313,-0.6875 -1.5,-0.70313 -2.51562,-1.85938 Q 99.0625,146.67187 98.53125,145.1875 98,143.70312 98,142.10937 q 0,-1.67187 0.484375,-2.92187 0.5,-1.25 1.359375,-2.15625 0.85938,-0.92188 2.03125,-1.53125 1.1875,-0.60938 2.57813,-1 0.64062,-0.1875 1.21875,-0.375 0.57812,-0.1875 1,-0.53125 0.4375,-0.34375 0.6875,-0.89063 0.25,-0.5625 0.25,-1.45312 V 129 H 94.953125 v -2.29687 h 22.828125 z m 8.3125,0 h -3.28125 v 21 H 120.25 v -21 h -3.5625 v -2.29687 H 120.5 q -0.28125,-1.59375 -0.71875,-2.71875 -0.4375,-1.14063 -0.95312,-1.89063 -0.51563,-0.76562 -1.07813,-1.20312 -0.5625,-0.4375 -1.07812,-0.65625 -0.53125,-0.21875 -0.98438,-0.28125 -0.46875,-0.0625 -0.76562,-0.0625 -0.96875,0 -1.54688,0.3125 -0.59375,0.29687 -0.90625,0.71875 -0.3125,0.42187 -0.40625,0.89062 -0.10937,0.45313 -0.10937,0.78125 0,0.125 0.0469,0.51563 0.0312,0.375 0.25,0.95312 0.20313,0.57813 0.64063,1.29688 0.4375,0.71875 1.23437,1.51562 h -2.65625 Q 110.48438,125.75 110,124.54688 q -0.5,-1.21875 -0.5,-2.35938 0,-0.95312 0.34375,-1.8125 0.34375,-0.85937 1.03125,-1.48437 0.6875,-0.64063 1.71875,-1.01563 1.03125,-0.375 2.39063,-0.375 1.875,0 3.23437,0.73438 1.35938,0.71875 2.28125,1.96875 0.9375,1.25 1.46875,2.9375 0.54688,1.67187 0.76563,3.5625 h 3.35937 z m 21.64062,0 h -3.28125 v 21 h -2.59375 v -6.57813 l -0.0625,-0.0469 q -0.85937,0.78125 -1.6875,1.23437 -0.8125,0.4375 -1.53125,0.67188 -0.70312,0.21875 -1.28125,0.28125 -0.57812,0.0625 -0.95312,0.0625 -1.4375,0 -2.54688,-0.45313 -1.10937,-0.45312 -1.85937,-1.1875 -0.75,-0.75 -1.14063,-1.70312 -0.39062,-0.96875 -0.39062,-2 0,-1.07813 0.4375,-2.14063 0.45312,-1.0625 1.40625,-1.90625 l -0.0156,-0.0625 h -4.95312 V 133.875 h 12.5625 v 2.29687 h -1.60938 q -1.60937,0 -2.64062,0.42188 -1.03125,0.42187 -1.625,1.03125 -0.59375,0.60937 -0.82813,1.3125 -0.21875,0.6875 -0.21875,1.25 0,0.46875 0.15625,1.01562 0.15625,0.53125 0.51563,0.98438 0.375,0.45312 0.98437,0.75 0.625,0.29687 1.5625,0.29687 0.98438,0 1.82813,-0.3125 0.85937,-0.32812 1.57812,-0.84375 0.71875,-0.51562 1.29688,-1.15625 0.59375,-0.65625 1.01562,-1.29687 V 129 H 125 v -2.29687 h 22.73437 z m 8.3125,0 h -3.28125 v 21 h -2.5625 v -21 h -3.5625 v -2.29687 h 3.8125 q -0.28125,-1.59375 -0.71875,-2.71875 -0.4375,-1.14063 -0.95312,-1.89063 -0.51563,-0.76562 -1.07813,-1.20312 -0.5625,-0.4375 -1.07812,-0.65625 -0.53125,-0.21875 -0.98438,-0.28125 -0.46875,-0.0625 -0.76562,-0.0625 -0.96875,0 -1.54688,0.3125 -0.59375,0.29687 -0.90625,0.71875 -0.3125,0.42187 -0.40625,0.89062 -0.10937,0.45313 -0.10937,0.78125 0,0.125 0.0469,0.51563 0.0312,0.375 0.25,0.95312 0.20313,0.57813 0.64063,1.29688 0.4375,0.71875 1.23437,1.51562 h -2.65625 q -0.98437,-1.125 -1.46875,-2.32812 -0.5,-1.21875 -0.5,-2.35938 0,-0.95312 0.34375,-1.8125 0.34375,-0.85937 1.03125,-1.48437 0.6875,-0.64063 1.71875,-1.01563 1.03125,-0.375 2.39063,-0.375 1.875,0 3.23437,0.73438 1.35938,0.71875 2.28125,1.96875 0.9375,1.25 1.46875,2.9375 0.54688,1.67187 0.76563,3.5625 h 3.35937 z m 11.85938,7.1875 q 0.23437,0.73437 0.54687,1.60937 0.3125,0.85938 0.73438,1.75 0.4375,0.875 0.96875,1.70313 0.54687,0.82812 1.23437,1.46875 0.70313,0.64062 1.54688,1.03125 0.84375,0.375 1.875,0.375 1.01562,0 1.71875,-0.29688 0.70312,-0.29687 1.14062,-0.79687 0.4375,-0.5 0.625,-1.17188 0.20313,-0.67187 0.20313,-1.40625 0,-1.60937 -1.17188,-2.51562 -1.15625,-0.90625 -3.35937,-0.90625 -0.26563,0 -0.53125,0.0156 -0.26563,0.0156 -0.53125,0.0469 v -2.375 q 0.125,0.0156 0.21875,0.0156 0.10937,0 0.125,0 1.09375,0 1.9375,-0.26562 0.85937,-0.28125 1.4375,-0.75 0.57812,-0.46875 0.875,-1.09375 0.29687,-0.625 0.29687,-1.3125 0,-0.625 -0.21875,-1.10938 -0.21875,-0.48437 -0.59375,-0.8125 -0.375,-0.32812 -0.89062,-0.48437 -0.51563,-0.17188 -1.125,-0.17188 -0.42188,0 -0.8125,0.0625 -0.39063,0.0469 -0.82813,0.17188 -0.4375,0.10937 -0.9375,0.29687 -0.48437,0.1875 -1.10937,0.46875 l -0.89063,-2.14062 q 1.21875,-0.59375 2.34375,-0.89062 1.125,-0.3125 2.29688,-0.3125 1.125,0 2.07812,0.35937 0.96875,0.35938 1.65625,1 0.70313,0.625 1.09375,1.5 0.39063,0.875 0.39063,1.89062 0,2.79688 -2.67188,4.5 v 0.0625 q 1.04688,0.4375 1.75,1.07813 0.45313,0.0781 0.95313,0.125 0.51562,0.0469 0.9375,0.0469 0.4375,0 0.92187,-0.0625 0.48438,-0.0625 0.98438,-0.23437 0.51562,-0.17188 1.03125,-0.48438 0.53125,-0.3125 1.0625,-0.8125 v -8.65624 h 5.84375 V 129 h -3.28125 v 21 h -2.5625 v -11.875 l -0.0625,-0.0156 q -0.89063,0.59375 -1.67188,0.78125 -0.78125,0.1875 -1.60937,0.1875 -0.26563,0 -0.54688,-0.0156 Q 181.04687,139.03125 180.75,139 l -0.0156,0.0625 q 0.25,0.64062 0.25,1.57812 0,1.26563 -0.42187,2.34375 -0.42188,1.07813 -1.21875,1.875 -0.78125,0.78125 -1.90625,1.21875 -1.10938,0.4375 -2.5,0.4375 -1.48438,0 -2.6875,-0.51562 -1.1875,-0.53125 -2.15625,-1.35938 -0.95313,-0.82812 -1.67188,-1.85937 -0.71875,-1.04688 -1.23437,-2.09375 -0.51563,-1.04688 -0.84375,-1.98438 -0.32813,-0.95312 -0.48438,-1.57812 z M 199.375,129 h -3.28125 v 21 h -2.5625 v -21 h -3.5625 v -2.29687 h 9.40625 z m -3.51563,-1.85937 h -2.26562 l -1.42188,-2.67188 q -0.90625,-1.70312 -1.65625,-2.70312 -0.73437,-1 -1.40625,-1.51563 -0.65625,-0.53125 -1.29687,-0.67187 -0.64063,-0.15625 -1.34375,-0.15625 h -3.03125 v -2.53125 h 2.85937 q 0.90625,0 1.64063,0.15625 0.73437,0.14062 1.39062,0.53125 0.67188,0.375 1.29688,1.0625 0.64062,0.67187 1.35937,1.75 0.71875,1.0625 1.5625,2.5625 0.85938,1.48437 1.95313,3.51562 z m 11.03125,19.32812 q -1.39062,0 -2.53125,-0.51563 -1.14062,-0.51562 -1.96875,-1.42187 -0.8125,-0.92188 -1.26562,-2.15625 -0.45313,-1.25 -0.45313,-2.6875 0,-1.5625 0.48438,-2.8125 0.48437,-1.26563 1.32812,-2.15625 0.85938,-0.89063 2,-1.35938 1.15625,-0.48437 2.48438,-0.48437 1.70312,0 3.21875,0.8125 1.51562,0.79687 3.03125,2.35937 0.70312,-1.09375 1.64062,-1.89062 0.9375,-0.8125 2.3125,-1.0625 V 129 h -18.89062 v -2.29687 h 29.26562 V 129 h -7.82812 v 4.17187 q 1.04687,0.25 1.89062,0.82813 0.84375,0.57812 1.42188,1.39062 0.59375,0.8125 0.90625,1.82813 0.32812,1 0.32812,2.10937 0,1.625 -0.5625,2.95313 -0.54687,1.32812 -1.48437,2.29687 -0.92188,0.95313 -2.10938,1.48438 -1.1875,0.51562 -2.45312,0.51562 -1.64063,0 -3.0625,-0.76562 -1.42188,-0.76563 -2.8125,-2.10938 -0.40625,0.59375 -0.90625,1.10938 -0.48438,0.5 -1.07813,0.875 -0.59375,0.35937 -1.3125,0.57812 -0.71875,0.20313 -1.59375,0.20313 z m 0.32813,-11.3125 q -0.9375,0 -1.6875,0.375 -0.73438,0.35937 -1.26563,0.98437 -0.53125,0.60938 -0.8125,1.45313 -0.28125,0.82812 -0.28125,1.76562 0,0.8125 0.23438,1.59375 0.23437,0.78125 0.6875,1.39063 0.46875,0.60937 1.15625,0.98437 0.6875,0.375 1.57812,0.375 1.09375,0 1.85938,-0.54687 0.78125,-0.5625 1.375,-1.45313 0.60937,-0.89062 1.10937,-2 0.5,-1.125 1.04688,-2.25 -1.1875,-1.375 -2.46875,-2.01562 -1.26563,-0.65625 -2.53125,-0.65625 z m 10.0625,9.03125 q 0.90625,0 1.71875,-0.28125 0.8125,-0.29688 1.42187,-0.875 0.625,-0.59375 0.98438,-1.46875 0.375,-0.89063 0.375,-2.09375 0,-0.76563 -0.20313,-1.51563 -0.1875,-0.75 -0.59375,-1.34375 -0.40625,-0.59375 -1.04687,-0.95312 -0.625,-0.375 -1.48438,-0.375 -0.76562,0 -1.375,0.29687 -0.60937,0.28125 -1.10937,0.78125 -0.5,0.48438 -0.92188,1.15625 -0.40625,0.65625 -0.78125,1.42188 -0.375,0.75 -0.75,1.5625 -0.35937,0.79687 -0.76562,1.57812 0.39062,0.39063 0.875,0.76563 0.5,0.375 1.0625,0.67187 0.57812,0.29688 1.23437,0.48438 0.65625,0.1875 1.35938,0.1875 z m 29.54687,5.46875 q -0.71875,0.26562 -1.76562,0.45312 -1.04688,0.1875 -2.375,0.1875 -2.48438,0 -4.4375,-0.85937 -1.95313,-0.85938 -3.625,-2.51563 -1.65625,-1.65625 -3.17188,-4.09375 -1.5,-2.4375 -3.09375,-5.57812 l 2.07813,-1.1875 q 0.59375,1.125 1.10937,1.60937 0.53125,0.46875 1.17188,0.46875 0.53125,0 0.92187,-0.29687 0.40625,-0.29688 0.65625,-0.76563 0.26563,-0.48437 0.39063,-1.09375 0.14062,-0.60937 0.14062,-1.21875 0,-0.70312 -0.15625,-1.46875 -0.15625,-0.76562 -0.42187,-1.51562 -0.26563,-0.75 -0.625,-1.45313 -0.34375,-0.71875 -0.73438,-1.3125 V 129 h -6.4375 v -2.29687 h 28.15625 V 129 h -3.28125 v 21 h -2.5625 v -7.59375 l -0.0625,-0.0156 q -0.85937,0.84375 -1.90625,1.25 -1.04687,0.40625 -2.07812,0.40625 -1.28125,0 -2.35938,-0.53125 -1.07812,-0.53125 -1.85937,-1.40625 -0.78125,-0.875 -1.21875,-2 -0.4375,-1.125 -0.4375,-2.32812 0,-1.14063 0.39062,-2.20313 0.40625,-1.0625 1.10938,-1.875 0.71875,-0.82812 1.6875,-1.3125 0.98437,-0.48437 2.15625,-0.48437 0.67187,0 1.28125,0.15625 0.60937,0.15625 1.17187,0.4375 0.5625,0.28125 1.07813,0.67187 0.51562,0.375 0.98437,0.8125 l 0.0625,-0.0156 V 129 H 235.625 q 0.79687,1.51562 1.25,2.96875 0.45312,1.4375 0.45312,2.90625 0,1 -0.25,1.98437 -0.25,0.98438 -0.78125,1.78125 -0.51562,0.79688 -1.32812,1.32813 -0.8125,0.53125 -1.9375,0.625 v 0.0781 q 1.07812,2.10938 2.25,3.48438 1.1875,1.35937 2.40625,2.15625 1.21875,0.79687 2.4375,1.10937 1.23437,0.3125 2.40625,0.3125 1.32812,0 2.39062,-0.26562 1.0625,-0.28125 1.90625,-0.625 z m 1.95313,-12.76563 q -0.28125,-0.35937 -0.70313,-0.8125 -0.40625,-0.46875 -0.9375,-0.875 -0.51562,-0.40625 -1.15625,-0.67187 -0.625,-0.28125 -1.35937,-0.28125 -0.75,0 -1.35938,0.3125 -0.59375,0.29687 -1.03125,0.79687 -0.4375,0.5 -0.67187,1.17188 -0.23438,0.65625 -0.23438,1.375 0,0.75 0.25,1.4375 0.25,0.67187 0.6875,1.1875 0.45313,0.51562 1.07813,0.82812 0.625,0.29688 1.375,0.29688 0.57812,0 1.28125,-0.21875 0.71875,-0.21875 1.32812,-0.71875 0.625,-0.5 1.03125,-1.32813 0.42188,-0.82812 0.42188,-2.04687 z m 37.64062,-10.18749 V 129 h -3.28125 v 21 h -2.59375 V 139.5 H 271.5 q -0.82813,0.54687 -1.98438,0.65625 l -0.0312,0.0781 q 1.51563,2.375 3.32813,4.42188 1.8125,2.04687 4.125,3.79687 l -1.67188,1.92188 q -1.32812,-0.98438 -2.53125,-2.125 -1.1875,-1.14063 -2.25,-2.35938 -1.04687,-1.23437 -1.96875,-2.48437 -0.92187,-1.26563 -1.6875,-2.48438 -0.76562,-1.21875 -1.375,-2.34375 -0.60937,-1.14062 -1.0625,-2.10937 l 2.14063,-1.15625 q 0.29687,0.6875 0.57812,1.15625 0.29688,0.45312 0.59375,0.73437 0.29688,0.26563 0.625,0.39063 0.32813,0.10937 0.70313,0.10937 1.07812,0 1.57812,-0.84375 0.51563,-0.84375 0.51563,-2.21875 0,-0.8125 -0.15625,-1.59375 -0.15625,-0.79687 -0.40625,-1.51562 -0.23438,-0.73438 -0.51563,-1.375 -0.28125,-0.64063 -0.53125,-1.15625 h -7.23437 v -2.29687 z M 280.54687,129 h -8.32812 q 0.65625,1.42187 1.03125,2.85937 0.375,1.4375 0.375,2.85938 0,0.65625 -0.10938,1.29687 -0.0937,0.625 -0.32812,1.1875 l 0.0312,0.0312 h 7.32812 z m 14.1875,0 h -3.28125 v 21 h -2.5625 v -21 h -3.5625 v -2.29687 h 9.40625 z m 19.57813,0 h -3.28125 v 21 h -2.54688 v -13.71875 h -5.07812 q -1.04688,0 -1.89063,0.14062 -0.84375,0.125 -1.4375,0.53125 -0.59375,0.39063 -0.92187,1.10938 -0.3125,0.70312 -0.3125,1.85937 0,1.5 0.48437,2.76563 0.5,1.26562 1.26563,2.32812 0.76562,1.04688 1.6875,1.9375 0.9375,0.89063 1.79687,1.64063 l -1.5625,1.78125 q -0.14062,-0.0781 -0.67187,-0.45313 -0.51563,-0.39062 -1.21875,-1.04687 -0.6875,-0.65625 -1.46875,-1.59375 -0.76563,-0.9375 -1.42188,-2.10938 -0.64062,-1.1875 -1.07812,-2.60937 -0.42188,-1.42188 -0.42188,-3.0625 0,-1.625 0.45313,-2.6875 0.46875,-1.07813 1.3125,-1.70313 0.84375,-0.64062 2.04687,-0.89062 1.20313,-0.25 2.6875,-0.25 h 5.75 V 129 h -14.84375 v -2.29687 h 20.67188 z m 8.3125,0 h -3.28125 v 21 h -2.5625 v -21 h -3.5625 v -2.29687 h 3.8125 q -0.28125,-1.59375 -0.71875,-2.71875 -0.4375,-1.14063 -0.95313,-1.89063 -0.51562,-0.76562 -1.07812,-1.20312 -0.5625,-0.4375 -1.07813,-0.65625 -0.53125,-0.21875 -0.98437,-0.28125 -0.46875,-0.0625 -0.76563,-0.0625 -0.96875,0 -1.54687,0.3125 Q 309.3125,120.5 309,120.92188 q -0.3125,0.42187 -0.40625,0.89062 -0.10938,0.45313 -0.10938,0.78125 0,0.125 0.0469,0.51563 0.0312,0.375 0.25,0.95312 0.20312,0.57813 0.64062,1.29688 0.4375,0.71875 1.23438,1.51562 H 308 q -0.98438,-1.125 -1.46875,-2.32812 -0.5,-1.21875 -0.5,-2.35938 0,-0.95312 0.34375,-1.8125 0.34375,-0.85937 1.03125,-1.48437 0.6875,-0.64063 1.71875,-1.01563 1.03125,-0.375 2.39062,-0.375 1.875,0 3.23438,0.73438 1.35937,0.71875 2.28125,1.96875 0.9375,1.25 1.46875,2.9375 0.54687,1.67187 0.76562,3.5625 h 3.35938 z m 2.9375,21.34375 q -0.71875,0 -1.23438,-0.51563 -0.5,-0.51562 -0.5,-1.23437 0,-0.71875 0.5,-1.23438 0.51563,-0.53125 1.23438,-0.53125 0.73437,0 1.25,0.53125 0.51562,0.51563 0.51562,1.23438 0,0.71875 -0.51562,1.23437 -0.51563,0.51563 -1.25,0.51563 z"
         id="path5" />
      <path
         d="m 73.484375,179 h -3.28125 v 21 h -2.5625 v -8.76563 H 59.4375 v 2.23438 q 0,0.23437 -0.04687,0.5 -0.03125,0.26562 -0.15625,0.5 -0.109375,0.21875 -0.3125,0.375 -0.1875,0.14062 -0.484375,0.14062 -0.359375,0 -0.859375,-0.21875 -0.484375,-0.23437 -1.015625,-0.60937 -0.515625,-0.39063 -1.03125,-0.875 -0.5,-0.5 -0.90625,-1.03125 -0.390625,-0.53125 -0.640625,-1.0625 -0.25,-0.53125 -0.25,-0.98438 0,-0.65625 0.46875,-0.95312 0.46875,-0.29688 1.234375,-0.29688 h 1.515625 V 180.375 q 0,-0.8125 -0.390625,-1.23438 -0.390625,-0.4375 -0.984375,-0.4375 -0.65625,0 -1.109375,0.48438 -0.4375,0.48437 -0.4375,1.23437 0,0.14063 0.03125,0.34375 0.03125,0.20313 0.15625,0.46875 0.125,0.25 0.375,0.57813 0.25,0.3125 0.671875,0.67187 L 53.875,184.1875 Q 53.15625,183.79687 52.703125,183.32812 52.25,182.84375 52,182.34375 q -0.25,-0.5 -0.34375,-0.96875 -0.09375,-0.48438 -0.09375,-0.89063 0,-0.75 0.25,-1.46875 0.265625,-0.73437 0.78125,-1.3125 0.515625,-0.59375 1.28125,-0.95312 0.78125,-0.35938 1.8125,-0.35938 0.90625,0 1.609375,0.29688 0.703125,0.29687 1.171875,0.85937 0.484375,0.54688 0.71875,1.32813 0.25,0.76562 0.25,1.71875 v 8.35937 h 8.203125 v -12.25 h 5.84375 z m 8.3125,0 h -3.28125 v 21 h -2.5625 v -21 h -3.5625 v -2.29688 h 9.40625 z m 19.406255,0 h -3.281255 v 21 h -2.5625 v -7.53125 l -0.0625,-0.0156 q -1.09375,0.9375 -2.421875,1.375 -1.3125,0.42188 -2.640625,0.42188 -1.34375,0 -2.453125,-0.39063 -1.109375,-0.39062 -1.90625,-1.1875 -0.796875,-0.8125 -1.25,-2.03125 -0.4375,-1.23437 -0.4375,-2.92187 V 179 h -3.484375 v -2.29688 h 20.500005 z m -7.437505,11.53125 -6.984375,-9.8125 -0.0625,0.0156 v 6.84375 q 0,0.98438 0.15625,1.76563 0.171875,0.78125 0.5625,1.32812 0.40625,0.54688 1.0625,0.84375 0.65625,0.28125 1.640625,0.28125 1.078125,0 1.96875,-0.3125 0.90625,-0.3125 1.671875,-0.875 z M 95.359375,179 H 88.3125 v 0.0469 l 6.96875,10.09375 0.07813,-0.10937 z m 14.156255,0 h -3.28125 v 21 h -2.5625 v -21 h -3.5625 v -2.29688 h 9.40625 z m 4.39062,17.4375 -2.5,7.6875 h -1.82812 l 1.82812,-7.6875 z m 34.35937,-19.73438 V 179 h -3.28125 v 21 h -2.59375 v -10.5 h -9.04687 q -0.82813,0.54687 -1.98438,0.65625 l -0.0312,0.0781 q 1.51563,2.375 3.32813,4.42188 1.8125,2.04687 4.125,3.79687 l -1.67188,1.92188 q -1.32812,-0.98438 -2.53125,-2.125 -1.1875,-1.14063 -2.25,-2.35938 -1.04687,-1.23437 -1.96875,-2.48437 -0.92187,-1.26563 -1.6875,-2.48438 -0.76562,-1.21875 -1.37499,-2.34375 -0.60938,-1.14062 -1.0625,-2.10937 l 2.14062,-1.15625 q 0.29687,0.6875 0.57812,1.15625 0.29688,0.45312 0.59375,0.73437 0.29688,0.26563 0.625,0.39063 0.32813,0.10937 0.70313,0.10937 1.07812,0 1.57812,-0.84375 0.51563,-0.84375 0.51563,-2.21875 0,-0.8125 -0.15625,-1.59375 -0.15625,-0.79687 -0.40625,-1.51562 -0.23438,-0.73438 -0.51563,-1.375 Q 131.60937,179.51562 131.35937,179 H 124.125 v -2.29688 z M 142.39062,179 h -8.32812 q 0.65625,1.42187 1.03125,2.85937 0.375,1.4375 0.375,2.85938 0,0.65625 -0.10938,1.29687 -0.0937,0.625 -0.32812,1.1875 l 0.0312,0.0312 h 7.32812 z m -0.60937,-7.0625 q 0,-0.89063 0.53125,-1.4375 0.51562,-0.5625 1.35937,-0.5625 0.39063,0 0.75,0.15625 0.34375,0.15625 0.60938,0.4375 0.26562,0.26562 0.42187,0.64062 0.14063,0.35938 0.14063,0.79688 0,0.89062 -0.51563,1.4375 -0.53125,0.54687 -1.375,0.54687 -0.40625,0 -0.75,-0.14062 -0.35937,-0.15625 -0.60937,-0.42188 -0.26563,-0.28125 -0.40625,-0.64062 -0.15625,-0.375 -0.15625,-0.8125 z M 165.35937,189.5 h -8.96875 q -0.82812,0.54687 -1.98437,0.65625 l -0.0312,0.0781 q 1.51562,2.375 3.32812,4.42188 1.8125,2.04687 4.125,3.79687 l -1.67187,1.92188 q -1.32813,-0.98438 -2.53125,-2.125 -1.1875,-1.14063 -2.25,-2.35938 -1.04688,-1.23437 -1.96875,-2.48437 -0.92188,-1.26563 -1.6875,-2.48438 -0.76563,-1.21875 -1.375,-2.34375 -0.60938,-1.14062 -1.0625,-2.10937 l 2.14062,-1.15625 Q 151.71875,186 152,186.46875 q 0.29687,0.45312 0.59375,0.73437 0.29687,0.26563 0.625,0.39063 0.32812,0.10937 0.70312,0.10937 1.07813,0 1.57813,-0.84375 0.51562,-0.84375 0.51562,-2.21875 0,-0.8125 -0.15625,-1.59375 -0.15625,-0.79687 -0.40625,-1.51562 -0.23437,-0.73438 -0.51562,-1.375 -0.28125,-0.64063 -0.53125,-1.15625 h -7.23438 v -2.29688 h 17.8125 V 179 h -7.875 q 0.65625,1.42187 1.03125,2.85937 0.375,1.4375 0.375,2.85938 0,0.65625 -0.10937,1.29687 -0.0937,0.625 -0.32813,1.1875 l 0.0312,0.0312 H 165.125 Z M 189.20312,179 H 176 v 6.15625 l 0.0781,0.0312 q 0.79688,-1.09375 1.98438,-1.75 1.1875,-0.67188 2.60937,-0.67188 1.125,0 2.07813,0.46875 0.96875,0.45313 1.67187,1.26563 0.70313,0.79687 1.09375,1.89062 0.40625,1.09375 0.40625,2.35938 0,1.4375 -0.5,2.65625 -0.5,1.20312 -1.28125,2.1875 -0.78125,0.98437 -1.76562,1.75 -0.98438,0.75 -1.9375,1.28125 l -1.39063,-2.40625 q 0.3125,-0.17188 0.76563,-0.45313 0.45312,-0.28125 0.9375,-0.65625 0.5,-0.375 0.96875,-0.84375 0.48437,-0.48437 0.85937,-1.04687 0.39063,-0.5625 0.625,-1.21875 0.23438,-0.65625 0.23438,-1.39063 0,-0.67187 -0.21875,-1.28125 -0.20313,-0.60937 -0.57813,-1.0625 -0.375,-0.45312 -0.90625,-0.71875 -0.51562,-0.26562 -1.14062,-0.26562 -0.8125,0 -1.57813,0.42187 -0.76562,0.42188 -1.39062,1.0625 -0.625,0.625 -1.0625,1.34375 -0.42188,0.71875 -0.5625,1.32813 V 200 h -2.5625 v -5.98438 l -0.0625,-0.0312 q -0.23438,0.20313 -0.59375,0.5 -0.35938,0.28125 -0.875,0.54688 -0.5,0.26562 -1.17188,0.45312 -0.65625,0.1875 -1.48437,0.1875 -1.375,0 -2.54688,-0.53125 -1.15625,-0.53125 -2.01562,-1.4375 -0.84375,-0.92187 -1.32813,-2.15625 -0.48437,-1.23437 -0.48437,-2.64062 0,-1.34375 0.4375,-2.48438 0.45312,-1.14062 1.21875,-1.95312 0.78125,-0.82813 1.8125,-1.28125 1.04687,-0.46875 2.25,-0.46875 0.84375,0 1.5625,0.21875 0.73437,0.20312 1.32812,0.51562 0.60938,0.29688 1.07813,0.65625 0.48437,0.34375 0.8125,0.625 l 0.0625,-0.0156 V 179 h -12.95313 v -2.29688 h 28.71875 z m -20.23437,6.15625 q -0.89063,0 -1.57813,0.375 -0.67187,0.35937 -1.125,0.9375 -0.45312,0.5625 -0.6875,1.28125 -0.21875,0.70312 -0.21875,1.39062 0,0.75 0.26563,1.5 0.26562,0.73438 0.75,1.32813 0.5,0.59375 1.1875,0.96875 0.6875,0.35937 1.51562,0.35937 0.70313,0 1.46875,-0.28125 0.78125,-0.29687 1.42188,-0.90625 0.65625,-0.60937 1.07812,-1.54687 0.42188,-0.95313 0.42188,-2.26563 v -0.76562 q -0.375,-0.46875 -0.89063,-0.89063 -0.5,-0.4375 -1.09375,-0.76562 -0.57812,-0.32813 -1.21875,-0.51563 -0.64062,-0.20312 -1.29687,-0.20312 z M 176,201.54687 h -1.70313 q -1.48437,0 -2.20312,0.60938 -0.73438,0.625 -0.73438,1.51562 0,0.95313 0.78125,1.46875 0.76563,0.51563 2.23438,0.51563 0.70312,0 1.39062,-0.125 0.6875,-0.125 1.45313,-0.375 l 0.54687,2.25 q -0.79687,0.28125 -1.57812,0.4375 Q 175.40625,208 174.51562,208 q -1.20312,0 -2.20312,-0.3125 -1.01563,-0.3125 -1.73438,-0.89063 -0.73437,-0.57812 -1.14062,-1.42187 -0.42188,-0.82813 -0.42188,-1.89063 0,-1.10937 0.4375,-1.92187 0.4375,-0.79688 1.15625,-1.32813 0.71875,-0.51562 1.65625,-0.76562 0.92188,-0.25 1.92188,-0.25 H 176 Z M 208.78125,179 H 205.5 v 21 h -2.54688 V 186.28125 H 197.875 q -1.04688,0 -1.89063,0.14062 -0.84375,0.125 -1.4375,0.53125 -0.59375,0.39063 -0.92187,1.10938 -0.3125,0.70312 -0.3125,1.85937 0,1.5 0.48437,2.76563 0.5,1.26562 1.26563,2.32812 0.76562,1.04688 1.6875,1.9375 0.9375,0.89063 1.79687,1.64063 l -1.5625,1.78125 q -0.14062,-0.0781 -0.67187,-0.45313 -0.51563,-0.39062 -1.21875,-1.04687 -0.6875,-0.65625 -1.46875,-1.59375 -0.76563,-0.9375 -1.42188,-2.10938 -0.64062,-1.1875 -1.07812,-2.60937 -0.42188,-1.42188 -0.42188,-3.0625 0,-1.625 0.45313,-2.6875 0.46875,-1.07813 1.3125,-1.70313 0.84375,-0.64062 2.04687,-0.89062 1.20313,-0.25 2.6875,-0.25 h 5.75 V 179 h -14.84375 v -2.29688 h 20.67188 z m 8.3125,0 h -3.28125 v 21 H 211.25 v -21 h -3.5625 v -2.29688 H 211.5 q -0.28125,-1.59375 -0.71875,-2.71875 -0.4375,-1.14062 -0.95313,-1.89062 -0.51562,-0.76563 -1.07812,-1.20313 -0.5625,-0.4375 -1.07813,-0.65625 -0.53125,-0.21875 -0.98437,-0.28125 -0.46875,-0.0625 -0.76563,-0.0625 -0.96875,0 -1.54687,0.3125 -0.59375,0.29688 -0.90625,0.71875 -0.3125,0.42188 -0.40625,0.89063 -0.10938,0.45312 -0.10938,0.78125 0,0.125 0.0469,0.51562 0.0312,0.375 0.25,0.95313 0.20312,0.57812 0.64062,1.29687 0.4375,0.71875 1.23438,1.51563 h -2.65625 Q 201.48437,175.75 201,174.54687 q -0.5,-1.21875 -0.5,-2.35937 0,-0.95313 0.34375,-1.8125 0.34375,-0.85938 1.03125,-1.48438 0.6875,-0.64062 1.71875,-1.01562 1.03125,-0.375 2.39062,-0.375 1.875,0 3.23438,0.73437 1.35937,0.71875 2.28125,1.96875 0.9375,1.25 1.46875,2.9375 0.54687,1.67188 0.76562,3.5625 h 3.35938 z m 4.39062,17.4375 -2.5,7.6875 h -1.82812 l 1.82812,-7.6875 z M 252.75,179 h -3.28125 v 21 h -2.5625 v -21 h -7.04688 v 12.125 q 0,0.25 -0.0312,0.57812 -0.0312,0.32813 -0.15625,0.64063 -0.10937,0.29687 -0.32812,0.51562 -0.21875,0.20313 -0.60938,0.20313 -0.42187,0 -0.9375,-0.26563 -0.5,-0.28125 -1.03125,-0.71875 -0.53125,-0.45312 -1.03125,-1.01562 -0.48437,-0.5625 -0.875,-1.15625 -0.39062,-0.59375 -0.625,-1.15625 Q 234,188.1875 234,187.75 q 0,-0.39063 0.1875,-0.625 0.20312,-0.23438 0.54687,-0.35938 0.35938,-0.125 0.85938,-0.15625 0.51562,-0.0312 1.125,-0.0312 h 0.54687 V 179 h -5.5625 v -2.29688 H 252.75 Z m 8.3125,0 h -3.28125 v 21 h -2.5625 v -21 h -3.5625 v -2.29688 h 9.40625 z m -3.39063,-1.85938 h -2.07812 l -0.5625,-0.5 q -1.21875,-1.07812 -2.15625,-1.8125 -0.92188,-0.75 -1.64063,-1.23437 -0.71875,-0.48438 -1.28125,-0.75 -0.5625,-0.26563 -1.04687,-0.39063 -0.48438,-0.125 -0.9375,-0.14062 -0.45313,-0.0312 -0.95313,-0.0312 h -3 v -2.21875 h 2.78125 q 0.6875,0 1.26563,0.0937 0.57812,0.0781 1.125,0.29687 0.53125,0.20313 1.07812,0.54688 0.54688,0.32812 1.20313,0.84375 0.64062,0.51562 1.42187,1.21875 0.79688,0.70312 1.8125,1.625 l 0.0937,-0.0625 q -0.90625,-1.48438 -1.60937,-2.5625 -0.70313,-1.09375 -1.28125,-1.84375 -0.57813,-0.76563 -1.0625,-1.25 -0.48438,-0.48438 -0.9375,-0.75 -0.45313,-0.26563 -0.92188,-0.35938 -0.46875,-0.0937 -1.01562,-0.0937 h -3.03125 v -2.29687 h 2.85937 q 0.90625,0 1.625,0.17187 0.70313,0.17188 1.35938,0.625 0.64062,0.45313 1.28125,1.23438 0.64062,0.78125 1.39062,2.01562 0.76563,1.21875 1.6875,2.9375 0.9375,1.70313 2.17188,4.01563 z M 276.70312,179 h -5.89062 q 0.79687,1.375 1.28125,2.8125 0.5,1.42187 0.5,2.89062 0,1.10938 -0.34375,2.14063 -0.32813,1.01562 -0.98438,1.82812 -0.64062,0.79688 -1.60937,1.3125 -0.95313,0.5 -2.20313,0.5625 l -0.0312,0.0781 q 1.40625,2.1875 3.15625,4.14062 1.75,1.9375 4.04688,3.6875 l -1.67188,1.92188 q -1.32812,-0.98438 -2.53125,-2.125 -1.1875,-1.15625 -2.25,-2.375 -1.0625,-1.23438 -1.98437,-2.48438 -0.90625,-1.26562 -1.67188,-2.45312 -0.75,-1.20313 -1.34375,-2.29688 -0.59375,-1.10937 -1.01562,-2.01562 l 2.14062,-1.15625 q 0.5625,1.21875 1.26563,1.92187 0.71875,0.6875 1.65625,0.6875 0.67187,0 1.20312,-0.34375 0.53125,-0.34375 0.89063,-0.875 0.35937,-0.54687 0.54687,-1.1875 0.1875,-0.65625 0.1875,-1.28125 0,-0.73437 -0.1875,-1.4375 -0.1875,-0.71875 -0.48437,-1.39062 -0.29688,-0.6875 -0.67188,-1.32813 Q 268.34375,179.59375 268,179 h -8.03125 v -2.29688 h 16.73437 z m 18.8125,0 h -3.28125 v 21 h -2.5625 v -5.57813 l -0.0625,-0.0156 q -0.3125,0.29687 -0.73437,0.625 -0.42188,0.3125 -0.96875,0.57812 -0.54688,0.25 -1.23438,0.42188 -0.67187,0.17187 -1.51562,0.17187 -1.54688,0 -2.82813,-0.59375 -1.26562,-0.59375 -2.1875,-1.57812 -0.92187,-1 -1.4375,-2.28125 -0.5,-1.29688 -0.5,-2.70313 0,-1.40625 0.5,-2.60937 0.51563,-1.21875 1.40625,-2.10938 0.89063,-0.89062 2.07813,-1.39062 1.1875,-0.51563 2.54687,-0.51563 0.375,0 0.9375,0.0625 0.57813,0.0625 1.23438,0.28125 0.65625,0.21875 1.35937,0.64063 0.70313,0.40625 1.34375,1.10937 l 0.0625,-0.0156 V 179 h -14.0625 v -2.29688 h 19.90625 z m -5.78125,8.42187 q -0.98437,-1.1875 -2.14062,-1.90625 -1.15625,-0.73437 -2.625,-0.73437 -1.15625,0 -1.96875,0.4375 -0.79688,0.4375 -1.3125,1.10937 -0.51563,0.65625 -0.75,1.46875 -0.23438,0.8125 -0.23438,1.5625 0,0.8125 0.26563,1.60938 0.26562,0.79687 0.78125,1.4375 0.53125,0.625 1.3125,1.03125 0.78125,0.39062 1.82812,0.39062 1.07813,0 1.96875,-0.40625 0.89063,-0.42187 1.53125,-1.0625 0.64063,-0.64062 0.98438,-1.4375 0.35937,-0.79687 0.35937,-1.54687 z m 10.17188,9.01563 -2.5,7.6875 h -1.82813 l 1.82813,-7.6875 z"
         id="path6" />
      <path
         d="m 74.5,229 h -3.28125 v 21 h -2.5625 V 236.4375 H 63.625 l -0.01563,0.0625 q 0.1875,0.21875 0.5625,0.67187 0.375,0.4375 0.75,1.09375 0.375,0.64063 0.65625,1.46875 0.28125,0.8125 0.28125,1.76563 0,0.95312 -0.328125,1.89062 -0.3125,0.92188 -0.953125,1.67188 -0.625,0.73437 -1.59375,1.1875 -0.96875,0.45312 -2.25,0.45312 -1.265625,0 -2.328125,-0.4375 -1.046875,-0.45312 -1.921875,-1.20312 -0.859375,-0.75 -1.546875,-1.73438 -0.6875,-0.98437 -1.234375,-2.07812 -0.53125,-1.10938 -0.9375,-2.23438 Q 52.375,237.875 52.09375,236.84375 51.8125,235.79687 51.640625,234.92187 51.46875,234.04687 51.375,233.46875 l 2.3125,-0.45313 q 0.515625,2.8125 1.25,4.9375 0.75,2.10938 1.65625,3.53125 0.90625,1.42188 1.953125,2.14063 1.046875,0.70312 2.1875,0.70312 0.8125,0 1.3125,-0.3125 0.5,-0.32812 0.78125,-0.78125 0.28125,-0.46875 0.375,-0.95312 0.109375,-0.5 0.109375,-0.85938 0,-0.64062 -0.265625,-1.35937 -0.25,-0.73438 -0.75,-1.45313 -0.484375,-0.73437 -1.21875,-1.40625 -0.734375,-0.67187 -1.6875,-1.21875 v -1.82812 H 68.65625 V 229 H 49.453125 v -2.29688 H 74.5 Z m 8.3125,0 h -3.28125 v 21 h -2.5625 v -21 h -3.5625 v -2.29688 h 3.8125 Q 76.9375,225.10937 76.5,223.98437 q -0.4375,-1.14062 -0.953125,-1.89062 -0.515625,-0.76563 -1.078125,-1.20313 -0.5625,-0.4375 -1.078125,-0.65625 -0.53125,-0.21875 -0.984375,-0.28125 -0.46875,-0.0625 -0.765625,-0.0625 -0.96875,0 -1.546875,0.3125 Q 69.5,220.5 69.1875,220.92187 q -0.3125,0.42188 -0.40625,0.89063 -0.109375,0.45312 -0.109375,0.78125 0,0.125 0.04687,0.51562 0.03125,0.375 0.25,0.95313 0.203125,0.57812 0.640625,1.29687 0.4375,0.71875 1.234375,1.51563 H 68.1875 q -0.984375,-1.125 -1.46875,-2.32813 -0.5,-1.21875 -0.5,-2.35937 0,-0.95313 0.34375,-1.8125 0.34375,-0.85938 1.03125,-1.48438 0.6875,-0.64062 1.71875,-1.01562 1.03125,-0.375 2.390625,-0.375 1.875,0 3.234375,0.73437 1.359375,0.71875 2.28125,1.96875 0.9375,1.25 1.46875,2.9375 0.546875,1.67188 0.765625,3.5625 H 82.8125 Z m 18.8125,0 h -3.28125 v 21 h -2.5625 v -5.57813 l -0.0625,-0.0156 q -0.3125,0.29687 -0.734375,0.625 -0.421875,0.3125 -0.96875,0.57812 -0.546875,0.25 -1.234375,0.42188 -0.671875,0.17187 -1.515625,0.17187 -1.546875,0 -2.828125,-0.59375 -1.265625,-0.59375 -2.1875,-1.57812 -0.921875,-1 -1.4375,-2.28125 -0.5,-1.29688 -0.5,-2.70313 0,-1.40625 0.5,-2.60937 0.515625,-1.21875 1.40625,-2.10938 0.890625,-0.89062 2.078125,-1.39062 1.1875,-0.51563 2.546875,-0.51563 0.375,0 0.9375,0.0625 0.578125,0.0625 1.234375,0.28125 0.65625,0.21875 1.359375,0.64063 0.703125,0.40625 1.34375,1.10937 L 95.78125,234.5 V 229 h -14.0625 v -2.29688 H 101.625 Z m -5.78125,8.42187 q -0.984375,-1.1875 -2.140625,-1.90625 -1.15625,-0.73437 -2.625,-0.73437 -1.15625,0 -1.96875,0.4375 -0.796875,0.4375 -1.3125,1.10937 -0.515625,0.65625 -0.75,1.46875 -0.234375,0.8125 -0.234375,1.5625 0,0.8125 0.265625,1.60938 0.265625,0.79687 0.78125,1.4375 0.53125,0.625 1.3125,1.03125 0.78125,0.39062 1.828125,0.39062 1.078125,0 1.96875,-0.40625 Q 93.859375,243 94.5,242.35937 q 0.640625,-0.64062 0.984375,-1.4375 Q 95.84375,240.125 95.84375,239.375 Z M 121.0625,229 h -3.28125 v 21 h -2.57812 v -12.04688 h -7.3125 q 0,1.03125 -0.0312,1.76563 -0.0156,0.73437 -0.125,1.21875 -0.10938,0.46875 -0.32813,0.6875 -0.21875,0.21875 -0.60937,0.21875 -0.8125,0 -1.54688,-0.53125 -0.71875,-0.53125 -1.28125,-1.28125 -0.54687,-0.75 -0.875,-1.5625 -0.32812,-0.8125 -0.32812,-1.375 0,-0.5 0.21875,-0.78125 0.21875,-0.28125 0.57812,-0.42188 0.35938,-0.14062 0.8125,-0.17187 0.46875,-0.0312 0.9375,-0.0312 h 9.89063 V 229 h -14.67188 v -2.29688 h 20.53125 z m 8.3125,0 h -3.28125 v 21 h -2.5625 v -21 h -3.5625 v -2.29688 h 9.40625 z m 19.57812,0 h -3.28125 v 21 H 143.125 v -13.71875 h -5.07813 q -1.04687,0 -1.89062,0.14062 -0.84375,0.125 -1.4375,0.53125 -0.59375,0.39063 -0.92188,1.10938 -0.3125,0.70312 -0.3125,1.85937 0,1.5 0.48438,2.76563 0.5,1.26562 1.26562,2.32812 0.76563,1.04688 1.6875,1.9375 0.9375,0.89063 1.79688,1.64063 l -1.5625,1.78125 q -0.14063,-0.0781 -0.67188,-0.45313 -0.51562,-0.39062 -1.21875,-1.04687 -0.6875,-0.65625 -1.46875,-1.59375 -0.76562,-0.9375 -1.42187,-2.10938 -0.64063,-1.1875 -1.07813,-2.60937 -0.42187,-1.42188 -0.42187,-3.0625 0,-1.625 0.45312,-2.6875 0.46875,-1.07813 1.3125,-1.70313 0.84375,-0.64062 2.04688,-0.89062 1.20312,-0.25 2.6875,-0.25 h 5.75 V 229 h -14.84375 v -2.29688 h 20.67187 z m 22.85938,0 h -3.28125 v 21.01562 h -2.5625 V 235.375 q -0.82813,-0.29688 -1.5625,-0.29688 -0.73438,0 -1.28125,0.28125 -0.54688,0.26563 -0.92188,0.71875 -0.35937,0.45313 -0.54687,1.0625 -0.1875,0.60938 -0.1875,1.28125 0,0.26563 0.0156,0.54688 0.0312,0.26562 0.0625,0.53125 h -2.39062 q -0.125,-0.90625 -0.29688,-1.73438 -0.15625,-0.82812 -0.46875,-1.45312 -0.29687,-0.625 -0.78125,-0.98438 -0.48437,-0.375 -1.25,-0.375 -0.73437,0 -1.26562,0.29688 -0.51563,0.29687 -0.85938,0.82812 -0.34375,0.53125 -0.51562,1.25 -0.15625,0.70313 -0.15625,1.53125 0,1.78125 0.60937,3.20313 0.60938,1.40625 1.64063,2.53125 1.04687,1.125 2.40625,2.01562 1.375,0.875 2.89062,1.60938 l -1.26562,2.15625 q -0.5625,-0.25 -1.45313,-0.75 -0.875,-0.5 -1.875,-1.23438 -0.98437,-0.73437 -1.98437,-1.71875 -1,-0.98437 -1.8125,-2.20312 -0.79688,-1.21875 -1.29688,-2.6875 -0.5,-1.46875 -0.5,-3.17188 0,-1.3125 0.375,-2.4375 0.375,-1.14062 1.0625,-1.96875 0.70313,-0.84375 1.6875,-1.3125 0.98438,-0.48437 2.1875,-0.48437 0.90625,0 1.5625,0.26562 0.65625,0.25 1.125,0.64063 0.48438,0.375 0.79688,0.82812 0.3125,0.4375 0.54687,0.82813 l 0.0781,-0.0156 q 0.29687,-0.65625 0.70312,-1.10937 0.42188,-0.45313 0.90625,-0.73438 0.5,-0.28125 1.04688,-0.40625 0.54687,-0.14062 1.09375,-0.14062 0.48437,0 0.95312,0.0937 0.48438,0.0781 0.92188,0.23437 V 229 h -18.10938 v -2.29688 h 23.95313 z m 8.3125,0 h -3.28125 v 21 h -2.5625 v -21 h -3.5625 v -2.29688 h 9.40625 z m 19.67187,16.59375 q 0.51563,-0.15625 1.01563,-0.39063 0.51562,-0.23437 0.90625,-0.5625 0.40625,-0.34375 0.65625,-0.79687 0.25,-0.45313 0.25,-1.0625 0,-1.29688 -1.07813,-2.01563 -1.07812,-0.73437 -3.0625,-0.73437 -0.79687,0 -1.64062,0.17187 -0.82813,0.15625 -1.51563,0.59375 -0.6875,0.42188 -1.125,1.17188 -0.4375,0.73437 -0.4375,1.875 0,1.15625 0.45313,2.15625 0.45312,0.98437 1.17187,1.8125 0.73438,0.82812 1.64063,1.5 0.90625,0.67187 1.79687,1.1875 0.90625,0.51562 1.70313,0.85937 0.79687,0.35938 1.32812,0.5625 l -1.03125,2.15625 q -1.09375,-0.46875 -2.23437,-1.03125 -1.125,-0.54687 -2.1875,-1.21875 -1.0625,-0.65625 -2,-1.45312 -0.9375,-0.79688 -1.64063,-1.76563 -0.6875,-0.96875 -1.09375,-2.125 -0.39062,-1.15625 -0.39062,-2.51562 0,-1.32813 0.34375,-2.3125 0.35937,-1 0.98437,-1.75 -0.85937,-0.98438 -1.26562,-1.98438 -0.40625,-1 -0.40625,-2.17187 0,-0.67188 0.15625,-1.26563 0.17187,-0.59375 0.59375,-1.03125 0.4375,-0.45312 1.20312,-0.71875 0.76563,-0.26562 1.98438,-0.26562 h 7.07812 V 229 h -14.15625 v -2.29688 h 20.35938 V 229 h -3.64063 v 5.75 h -8.98437 q -0.60938,0 -1.03125,0.10937 -0.40625,0.0937 -0.65625,0.29688 -0.25,0.20312 -0.35938,0.51562 -0.0937,0.29688 -0.0937,0.70313 0,0.54687 0.1875,1.0625 0.1875,0.51562 0.70313,1.15625 0.90625,-0.46875 1.98437,-0.6875 1.09375,-0.23438 2.28125,-0.23438 1.375,0 2.5625,0.3125 1.20313,0.3125 2.07813,0.95313 0.89062,0.625 1.39062,1.60937 0.51563,0.96875 0.51563,2.28125 0,1.26563 -0.4375,2.14063 -0.42188,0.875 -1.07813,1.46875 -0.64062,0.59375 -1.40625,0.96875 Q 201.40625,247.76562 200.75,248 Z M 216.46875,229 h -3.28125 v 21 h -2.5625 v -21 h -3.5625 v -2.29688 h 9.40625 z m 21.64062,0 h -3.28125 v 21 h -2.59375 v -6.57813 l -0.0625,-0.0469 q -0.85937,0.78125 -1.6875,1.23437 -0.8125,0.4375 -1.53125,0.67188 -0.70312,0.21875 -1.28125,0.28125 -0.57812,0.0625 -0.95312,0.0625 -1.4375,0 -2.54688,-0.45313 -1.10937,-0.45312 -1.85937,-1.1875 -0.75,-0.75 -1.14063,-1.70312 -0.39062,-0.96875 -0.39062,-2 0,-1.07813 0.4375,-2.14063 0.45312,-1.0625 1.40625,-1.90625 l -0.0156,-0.0625 h -4.95312 V 233.875 h 12.5625 v 2.29687 h -1.60938 q -1.60937,0 -2.64062,0.42188 -1.03125,0.42187 -1.625,1.03125 -0.59375,0.60937 -0.82813,1.3125 -0.21875,0.6875 -0.21875,1.25 0,0.46875 0.15625,1.01562 0.15625,0.53125 0.51563,0.98438 0.375,0.45312 0.98437,0.75 0.625,0.29687 1.5625,0.29687 0.98438,0 1.82813,-0.3125 0.85937,-0.32812 1.57812,-0.84375 0.71875,-0.51562 1.29688,-1.15625 0.59375,-0.65625 1.01562,-1.29687 V 229 H 215.375 v -2.29688 h 22.73437 z m 11.85938,7.1875 q 0.23437,0.73437 0.54687,1.60937 0.3125,0.85938 0.73438,1.75 0.4375,0.875 0.96875,1.70313 0.54687,0.82812 1.23437,1.46875 0.70313,0.64062 1.54688,1.03125 0.84375,0.375 1.875,0.375 1.01562,0 1.71875,-0.29688 0.70312,-0.29687 1.14062,-0.79687 0.4375,-0.5 0.625,-1.17188 0.20313,-0.67187 0.20313,-1.40625 0,-1.60937 -1.17188,-2.51562 -1.15625,-0.90625 -3.35937,-0.90625 -0.26563,0 -0.53125,0.0156 -0.26563,0.0156 -0.53125,0.0469 v -2.375 q 0.125,0.0156 0.21875,0.0156 0.10937,0 0.125,0 1.09375,0 1.9375,-0.26562 0.85937,-0.28125 1.4375,-0.75 0.57812,-0.46875 0.875,-1.09375 0.29687,-0.625 0.29687,-1.3125 0,-0.625 -0.21875,-1.10938 -0.21875,-0.48437 -0.59375,-0.8125 -0.375,-0.32812 -0.89062,-0.48437 -0.51563,-0.17188 -1.125,-0.17188 -0.42188,0 -0.8125,0.0625 -0.39063,0.0469 -0.82813,0.17188 -0.4375,0.10937 -0.9375,0.29687 -0.48437,0.1875 -1.10937,0.46875 l -0.89063,-2.14062 q 1.21875,-0.59375 2.34375,-0.89063 1.125,-0.3125 2.29688,-0.3125 1.125,0 2.07812,0.35938 0.96875,0.35937 1.65625,1 0.70313,0.625 1.09375,1.5 0.39063,0.875 0.39063,1.89062 0,2.79688 -2.67188,4.5 v 0.0625 q 1.04688,0.4375 1.75,1.07813 0.45313,0.0781 0.95313,0.125 0.51562,0.0469 0.9375,0.0469 0.4375,0 0.92187,-0.0625 0.48438,-0.0625 0.98438,-0.23437 0.51562,-0.17188 1.03125,-0.48438 0.53125,-0.3125 1.0625,-0.8125 v -8.65625 H 273.125 V 229 h -3.28125 v 21 h -2.5625 v -11.875 l -0.0625,-0.0156 q -0.89063,0.59375 -1.67188,0.78125 -0.78125,0.1875 -1.60937,0.1875 -0.26563,0 -0.54688,-0.0156 -0.28125,-0.0312 -0.57812,-0.0625 l -0.0156,0.0625 q 0.25,0.64062 0.25,1.57812 0,1.26563 -0.42187,2.34375 -0.42188,1.07813 -1.21875,1.875 -0.78125,0.78125 -1.90625,1.21875 -1.10938,0.4375 -2.5,0.4375 -1.48438,0 -2.6875,-0.51562 -1.1875,-0.53125 -2.15625,-1.35938 -0.95313,-0.82812 -1.67188,-1.85937 -0.71875,-1.04688 -1.23437,-2.09375 -0.51563,-1.04688 -0.84375,-1.98438 -0.32813,-0.95312 -0.48438,-1.57812 z M 281.4375,229 h -3.28125 v 21 h -2.5625 v -21 h -3.5625 v -2.29688 h 9.40625 z m 7.07812,2.98437 q 0.17188,-0.25 0.3125,-0.625 0.15625,-0.39062 0.15625,-0.875 0,-0.4375 -0.15625,-0.76562 -0.15625,-0.32813 -0.40625,-0.53125 -0.23437,-0.20313 -0.54687,-0.29688 -0.3125,-0.10937 -0.625,-0.10937 -0.375,0 -0.75,0.15625 -0.35938,0.14062 -0.65625,0.46875 -0.28125,0.32812 -0.46875,0.84375 -0.1875,0.5 -0.1875,1.20312 0,0.76563 0.21875,1.45313 0.23437,0.67187 0.70312,1.1875 0.48438,0.5 1.20313,0.79687 0.73437,0.29688 1.75,0.29688 0.70312,0 1.29687,-0.10938 0.59375,-0.125 1.03125,-0.23437 l 0.42188,2.40625 q -0.25,0.0312 -0.67188,0.125 -0.42187,0.0781 -0.92187,0.26562 -0.48438,0.17188 -1,0.45313 -0.5,0.28125 -0.90625,0.70312 -0.40625,0.40625 -0.67188,0.96875 -0.25,0.5625 -0.25,1.3125 0,0.70313 0.23438,1.25 0.23437,0.54688 0.65625,0.9375 0.42187,0.39063 1.01562,0.59375 0.59375,0.20313 1.29688,0.20313 1,0 1.84375,-0.375 0.84375,-0.375 1.51562,-0.92188 0.67188,-0.5625 1.15625,-1.20312 0.48438,-0.64063 0.76563,-1.17188 v -13.6875 h 5.84375 V 229 h -3.28125 v 21 h -2.5625 v -5.84375 l -0.0625,-0.0156 q -0.57813,0.64063 -1.21875,1.07813 -0.64063,0.4375 -1.3125,0.71875 -0.65625,0.26562 -1.32813,0.39062 -0.67187,0.125 -1.29687,0.125 -1.23438,0 -2.29688,-0.40625 -1.04687,-0.40625 -1.8125,-1.14062 -0.76562,-0.73438 -1.20312,-1.73438 -0.4375,-1.01562 -0.4375,-2.23437 0,-1.125 0.42187,-2.0625 0.4375,-0.9375 1.51563,-1.78125 l -0.0156,-0.0625 q -1.0625,-0.28125 -1.84375,-0.85938 -0.76562,-0.57812 -1.28125,-1.32812 -0.5,-0.75 -0.75,-1.625 -0.25,-0.89063 -0.25,-1.78125 0,-1.09375 0.34375,-2.01563 0.35938,-0.92187 0.98438,-1.59375 0.64062,-0.67187 1.5,-1.04687 0.85937,-0.39063 1.89062,-0.39063 1.07813,0 1.84375,0.375 0.78125,0.375 1.26563,0.95313 0.5,0.57812 0.73437,1.28125 0.23438,0.6875 0.23438,1.3125 0,0.4375 -0.0937,0.85937 -0.0937,0.42188 -0.23438,0.79688 -0.14062,0.375 -0.3125,0.6875 -0.15625,0.3125 -0.29687,0.53125 z M 310.03125,229 H 306.75 v 21 h -2.5625 v -21 h -3.5625 v -2.29688 h 9.40625 z m 15.64062,0 h -5.89062 q 0.79687,1.375 1.28125,2.8125 0.5,1.42187 0.5,2.89062 0,1.10938 -0.34375,2.14063 -0.32813,1.01562 -0.98438,1.82812 -0.64062,0.79688 -1.60937,1.3125 -0.95313,0.5 -2.20313,0.5625 l -0.0312,0.0781 q 1.40625,2.1875 3.15625,4.14062 1.75,1.9375 4.04688,3.6875 l -1.67188,1.92188 q -1.32812,-0.98438 -2.53125,-2.125 -1.1875,-1.15625 -2.25,-2.375 -1.0625,-1.23438 -1.98437,-2.48438 -0.90625,-1.26562 -1.67188,-2.45312 -0.75,-1.20313 -1.34375,-2.29688 -0.59375,-1.10937 -1.01562,-2.01562 l 2.14062,-1.15625 q 0.5625,1.21875 1.26563,1.92187 0.71875,0.6875 1.65625,0.6875 0.67187,0 1.20312,-0.34375 0.53125,-0.34375 0.89063,-0.875 0.35937,-0.54687 0.54687,-1.1875 0.1875,-0.65625 0.1875,-1.28125 0,-0.73437 -0.1875,-1.4375 -0.1875,-0.71875 -0.48437,-1.39062 -0.29688,-0.6875 -0.67188,-1.32813 Q 317.3125,229.59375 316.96875,229 h -8.03125 v -2.29688 h 16.73437 z m 19.67188,16.59375 q 0.51562,-0.15625 1.01562,-0.39063 0.51563,-0.23437 0.90625,-0.5625 0.40625,-0.34375 0.65625,-0.79687 0.25,-0.45313 0.25,-1.0625 0,-1.29688 -1.07812,-2.01563 -1.07813,-0.73437 -3.0625,-0.73437 -0.79688,0 -1.64063,0.17187 -0.82812,0.15625 -1.51562,0.59375 -0.6875,0.42188 -1.125,1.17188 -0.4375,0.73437 -0.4375,1.875 0,1.15625 0.45312,2.15625 0.45313,0.98437 1.17188,1.8125 0.73437,0.82812 1.64062,1.5 0.90625,0.67187 1.79688,1.1875 0.90625,0.51562 1.70312,0.85937 0.79688,0.35938 1.32813,0.5625 l -1.03125,2.15625 q -1.09375,-0.46875 -2.23438,-1.03125 -1.125,-0.54687 -2.1875,-1.21875 -1.0625,-0.65625 -2,-1.45312 -0.9375,-0.79688 -1.64062,-1.76563 -0.6875,-0.96875 -1.09375,-2.125 -0.39063,-1.15625 -0.39063,-2.51562 0,-1.32813 0.34375,-2.3125 0.35938,-1 0.98438,-1.75 -0.85938,-0.98438 -1.26563,-1.98438 -0.40625,-1 -0.40625,-2.17187 0,-0.67188 0.15625,-1.26563 0.17188,-0.59375 0.59375,-1.03125 0.4375,-0.45312 1.20313,-0.71875 0.76562,-0.26562 1.98437,-0.26562 H 347.5 V 229 h -14.15625 v -2.29688 h 20.35937 V 229 h -3.64062 v 5.75 h -8.98438 q -0.60937,0 -1.03125,0.10937 -0.40625,0.0937 -0.65625,0.29688 -0.25,0.20312 -0.35937,0.51562 -0.0937,0.29688 -0.0937,0.70313 0,0.54687 0.1875,1.0625 0.1875,0.51562 0.70312,1.15625 0.90625,-0.46875 1.98438,-0.6875 1.09375,-0.23438 2.28125,-0.23438 1.375,0 2.5625,0.3125 1.20312,0.3125 2.07812,0.95313 0.89063,0.625 1.39063,1.60937 0.51562,0.96875 0.51562,2.28125 0,1.26563 -0.4375,2.14063 -0.42187,0.875 -1.07812,1.46875 -0.64063,0.59375 -1.40625,0.96875 -0.76563,0.35937 -1.42188,0.59375 z M 362.01562,229 h -3.28125 v 21 h -2.5625 v -21 h -3.5625 v -2.29688 h 9.40625 z m -3.5,-1.85938 H 356.25 l -1.42188,-2.67187 q -0.90625,-1.70313 -1.65625,-2.70313 -0.73437,-1 -1.39062,-1.51562 -0.67188,-0.53125 -1.3125,-0.67188 -0.64063,-0.15625 -1.34375,-0.15625 h -3.03125 v -2.53125 h 2.85937 q 0.90625,0 1.64063,0.15625 0.73437,0.14063 1.40625,0.53125 0.65625,0.375 1.28125,1.0625 0.64062,0.67188 1.35937,1.75 0.71875,1.0625 1.5625,2.5625 0.85938,1.48438 1.95313,3.51563 z M 380.82812,229 h -3.28125 v 21 h -2.5625 v -5.57813 l -0.0625,-0.0156 q -0.3125,0.29687 -0.73437,0.625 -0.42188,0.3125 -0.96875,0.57812 -0.54688,0.25 -1.23438,0.42188 -0.67187,0.17187 -1.51562,0.17187 -1.54688,0 -2.82813,-0.59375 -1.26562,-0.59375 -2.1875,-1.57812 -0.92187,-1 -1.4375,-2.28125 -0.5,-1.29688 -0.5,-2.70313 0,-1.40625 0.5,-2.60937 0.51563,-1.21875 1.40625,-2.10938 0.89063,-0.89062 2.07813,-1.39062 1.1875,-0.51563 2.54687,-0.51563 0.375,0 0.9375,0.0625 0.57813,0.0625 1.23438,0.28125 0.65625,0.21875 1.35937,0.64063 0.70313,0.40625 1.34375,1.10937 l 0.0625,-0.0156 V 229 h -14.0625 v -2.29688 h 19.90625 z m -5.78125,8.42187 q -0.98437,-1.1875 -2.14062,-1.90625 -1.15625,-0.73437 -2.625,-0.73437 -1.15625,0 -1.96875,0.4375 -0.79688,0.4375 -1.3125,1.10937 -0.51563,0.65625 -0.75,1.46875 -0.23438,0.8125 -0.23438,1.5625 0,0.8125 0.26563,1.60938 0.26562,0.79687 0.78125,1.4375 0.53125,0.625 1.3125,1.03125 0.78125,0.39062 1.82812,0.39062 1.07813,0 1.96875,-0.40625 0.89063,-0.42187 1.53125,-1.0625 0.64063,-0.64062 0.98438,-1.4375 0.35937,-0.79687 0.35937,-1.54687 z m 8.71875,12.92188 q -0.71875,0 -1.23437,-0.51563 -0.5,-0.51562 -0.5,-1.23437 0,-0.71875 0.5,-1.23438 0.51562,-0.53125 1.23437,-0.53125 0.73438,0 1.25,0.53125 0.51563,0.51563 0.51563,1.23438 0,0.71875 -0.51563,1.23437 -0.51562,0.51563 -1.25,0.51563 z"
         id="path7" />
    </g>
  </g>
</svg>
