<?xml version="1.0" encoding="UTF-8" standalone="no"?>
<svg
   width="800"
   height="600"
   version="1.1"
   id="svg4"
   sodipodi:docname="tejas_sound.svg"
   xmlns:inkscape="http://www.inkscape.org/namespaces/inkscape"
   xmlns:sodipodi="http://sodipodi.sourceforge.net/DTD/sodipodi-0.dtd"
   xmlns="http://www.w3.org/2000/svg"
   xmlns:svg="http://www.w3.org/2000/svg">
  <sodipodi:namedview
     id="namedview4"
     pagecolor="#ffffff"
     bordercolor="#666666"
     borderopacity="1.0"
     inkscape:showpageshadow="2"
     inkscape:pageopacity="0.0"
     inkscape:pagecheckerboard="0"
     inkscape:deskcolor="#d1d1d1" />
  <defs
     id="defs1">
    <style
       type="text/css"
       id="style1">
      @font-face {{
        font-family: 'Kalam';
        src: url('AxiDraw_API(1)/Kalam-Regular.ttf');
      }}
    </style>
  </defs>
  <g
     id="g4">
    <g
       id="text4"
       style="font-size:32px;font-family:Kalam"
       aria-label="तेजसाचा प्रखर प्रकाश,आवाजाचा गूंज मधुर साक्ष.दोन्ही मिळून एक रस,अनुपम सौंदर्य, अद्भुत वास.">
      <path
         d="m 70.125,79 h -3.28125 v 21 H 64.296875 V 86.28125 H 59.21875 q -1.046875,0 -1.890625,0.140625 -0.84375,0.125 -1.4375,0.53125 -0.59375,0.390625 -0.921875,1.109375 -0.3125,0.703125 -0.3125,1.859375 0,1.5 0.484375,2.765625 0.5,1.265625 1.265625,2.328125 0.765625,1.046875 1.6875,1.9375 0.9375,0.890625 1.796875,1.640625 l -1.5625,1.78125 Q 58.1875,100.29688 57.65625,99.921875 57.140625,99.53125 56.4375,98.875 55.75,98.21875 54.96875,97.28125 54.203125,96.34375 53.546875,95.171875 52.90625,93.984375 52.46875,92.5625 52.046875,91.140625 52.046875,89.5 q 0,-1.625 0.453125,-2.6875 0.46875,-1.078125 1.3125,-1.703125 0.84375,-0.640625 2.046875,-0.890625 1.203125,-0.25 2.6875,-0.25 h 5.75 V 79 H 49.453125 V 76.703125 H 70.125 Z m -3.5,-1.859375 H 64.359375 L 62.9375,74.46875 q -0.90625,-1.703125 -1.640625,-2.703125 -0.75,-1 -1.40625,-1.515625 -0.671875,-0.53125 -1.3125,-0.671875 -0.640625,-0.15625 -1.34375,-0.15625 h -3.03125 v -2.53125 H 57.0625 q 0.90625,0 1.640625,0.15625 0.734375,0.140625 1.40625,0.53125 0.65625,0.375 1.296875,1.0625 0.625,0.671875 1.34375,1.75 0.71875,1.0625 1.578125,2.5625 0.84375,1.484375 1.9375,3.515625 z M 94.078125,79 h -3.28125 v 21 h -2.5625 V 86.4375 h -5.03125 L 83.1875,86.5 q 0.1875,0.21875 0.5625,0.671875 0.375,0.4375 0.75,1.09375 0.375,0.640625 0.65625,1.46875 0.28125,0.8125 0.28125,1.765625 0,0.953125 -0.328125,1.890625 -0.3125,0.921875 -0.953125,1.671875 -0.625,0.734375 -1.59375,1.1875 -0.96875,0.453125 -2.25,0.453125 -1.265625,0 -2.328125,-0.4375 Q 76.9375,95.8125 76.0625,95.0625 75.203125,94.3125 74.515625,93.328125 73.828125,92.34375 73.28125,91.25 72.75,90.140625 72.34375,89.015625 71.953125,87.875 71.671875,86.84375 q -0.28125,-1.046875 -0.453125,-1.921875 -0.171875,-0.875 -0.265625,-1.453125 l 2.3125,-0.453125 q 0.515625,2.8125 1.25,4.9375 0.75,2.109375 1.65625,3.53125 0.90625,1.421875 1.953125,2.140625 1.046875,0.703125 2.1875,0.703125 0.8125,0 1.3125,-0.3125 0.5,-0.328125 0.78125,-0.78125 0.28125,-0.46875 0.375,-0.953125 0.109375,-0.5 0.109375,-0.859375 0,-0.640625 -0.265625,-1.359375 -0.25,-0.734375 -0.75,-1.453125 -0.484375,-0.734375 -1.21875,-1.40625 -0.734375,-0.671875 -1.6875,-1.21875 V 84.15625 h 9.265625 V 79 H 69.03125 V 76.703125 H 94.078125 Z M 117.125,76.703125 V 79 h -3.28125 v 21 H 111.25 V 89.5 h -9.04687 q -0.82813,0.546875 -1.98438,0.65625 l -0.0312,0.07813 q 1.51563,2.375 3.32813,4.421875 1.8125,2.046875 4.125,3.796875 l -1.67188,1.921875 q -1.32812,-0.984375 -2.53125,-2.125 -1.1875,-1.140625 -2.25,-2.359375 -1.04687,-1.234375 -1.96875,-2.484375 -0.921875,-1.265625 -1.6875,-2.484375 -0.765625,-1.21875 -1.375,-2.34375 Q 95.546875,87.4375 95.09375,86.46875 L 97.234375,85.3125 Q 97.53125,86 97.8125,86.46875 q 0.296875,0.453125 0.59375,0.734375 0.296875,0.265625 0.625,0.390625 0.328125,0.109375 0.703125,0.109375 1.078125,0 1.578125,-0.84375 0.51563,-0.84375 0.51563,-2.21875 0,-0.8125 -0.15625,-1.59375 Q 101.51563,82.25 101.26563,81.53125 101.03125,80.796875 100.75,80.15625 100.46875,79.515625 100.21875,79 H 92.984375 V 76.703125 Z M 111.25,79 h -8.32812 q 0.65625,1.421875 1.03125,2.859375 0.375,1.4375 0.375,2.859375 0,0.65625 -0.10938,1.296875 -0.0937,0.625 -0.32812,1.1875 l 0.0312,0.03125 H 111.25 Z m 14.1875,0 h -3.28125 v 21 h -2.5625 V 79 h -3.5625 v -2.296875 h 9.40625 z m 21.64062,0 h -3.28125 v 21 h -2.59375 v -6.578125 l -0.0625,-0.04687 q -0.85937,0.78125 -1.6875,1.234375 -0.8125,0.4375 -1.53125,0.671875 -0.70312,0.21875 -1.28125,0.28125 -0.57812,0.0625 -0.95312,0.0625 -1.4375,0 -2.54688,-0.453125 -1.10937,-0.453125 -1.85937,-1.1875 -0.75,-0.75 -1.14063,-1.703125 -0.39062,-0.96875 -0.39062,-2 0,-1.078125 0.4375,-2.140625 0.45312,-1.0625 1.40625,-1.90625 l -0.0156,-0.0625 H 126.625 V 83.875 h 12.5625 v 2.296875 h -1.60938 q -1.60937,0 -2.64062,0.421875 -1.03125,0.421875 -1.625,1.03125 -0.59375,0.609375 -0.82813,1.3125 -0.21875,0.6875 -0.21875,1.25 0,0.46875 0.15625,1.015625 0.15625,0.53125 0.51563,0.984375 0.375,0.453125 0.98437,0.75 0.625,0.296875 1.5625,0.296875 0.98438,0 1.82813,-0.3125 0.85937,-0.328125 1.57812,-0.84375 0.71875,-0.515625 1.29688,-1.15625 0.59375,-0.65625 1.01562,-1.296875 V 79 h -16.85937 v -2.296875 h 22.73437 z m 8.3125,0 h -3.28125 v 21 h -2.5625 V 79 h -3.5625 v -2.296875 h 9.40625 z m 28.03125,0 h -3.28125 v 21 h -2.57812 v -6.96875 l -0.0625,-0.01563 -9.53125,7.171875 -1.60938,-1.953125 5.54688,-3.984375 -0.0156,-0.0625 q -1.20312,-0.09375 -2.1875,-0.53125 -0.98437,-0.4375 -1.6875,-1.234375 -0.70312,-0.796875 -1.09375,-1.96875 -0.375,-1.171875 -0.375,-2.734375 V 79 h -3.48437 v -2.296875 h 20.35937 z m -5.85937,0 h -8.48438 v 8.578125 q 0,0.984375 0.15625,1.765625 0.17188,0.78125 0.5625,1.328125 0.40625,0.546875 1.0625,0.84375 0.65625,0.28125 1.64063,0.28125 1.60937,0 2.90625,-0.703125 1.29687,-0.71875 2.15625,-1.890625 z m 25.14062,20.65625 q -0.71875,0.265625 -1.76562,0.45313 -1.04688,0.1875 -2.375,0.1875 -2.48438,0 -4.4375,-0.85938 -1.95313,-0.859375 -3.625,-2.515625 -1.65625,-1.65625 -3.17188,-4.09375 -1.5,-2.4375 -3.09375,-5.578125 l 2.07813,-1.1875 q 0.59375,1.125 1.10937,1.609375 0.53125,0.46875 1.17188,0.46875 0.53125,0 0.92187,-0.296875 0.40625,-0.296875 0.65625,-0.765625 0.26563,-0.484375 0.39063,-1.09375 0.14062,-0.609375 0.14062,-1.21875 0,-0.703125 -0.15625,-1.46875 -0.15625,-0.765625 -0.42187,-1.515625 -0.26563,-0.75 -0.625,-1.453125 -0.34375,-0.71875 -0.73438,-1.3125 V 79 h -6.4375 v -2.296875 h 28.15625 V 79 h -3.28125 v 21 h -2.5625 v -7.59375 l -0.0625,-0.01563 q -0.85937,0.84375 -1.90625,1.25 -1.04687,0.40625 -2.07812,0.40625 -1.28125,0 -2.35938,-0.53125 -1.07812,-0.53125 -1.85937,-1.40625 -0.78125,-0.875 -1.21875,-2 -0.4375,-1.125 -0.4375,-2.328125 0,-1.140625 0.39062,-2.203125 0.40625,-1.0625 1.10938,-1.875 0.71875,-0.828125 1.6875,-1.3125 0.98437,-0.484375 2.15625,-0.484375 0.67187,0 1.28125,0.15625 0.60937,0.15625 1.17187,0.4375 0.5625,0.28125 1.07813,0.671875 0.51562,0.375 0.98437,0.8125 l 0.0625,-0.01563 V 79 H 191.5 q 0.79687,1.515625 1.25,2.96875 0.45312,1.4375 0.45312,2.90625 0,1 -0.25,1.984375 -0.25,0.984375 -0.78125,1.78125 -0.51562,0.796875 -1.32812,1.328125 -0.8125,0.53125 -1.9375,0.625 v 0.07813 q 1.07812,2.109375 2.25,3.484375 1.1875,1.359375 2.40625,2.15625 1.21875,0.796875 2.4375,1.109375 1.23437,0.3125 2.40625,0.3125 1.32812,0 2.39062,-0.265625 1.0625,-0.28125 1.90625,-0.625 z m 1.95313,-12.765625 q -0.28125,-0.359375 -0.70313,-0.8125 -0.40625,-0.46875 -0.9375,-0.875 Q 202.5,84.796875 201.85937,84.53125 201.23437,84.25 200.5,84.25 q -0.75,0 -1.35938,0.3125 -0.59375,0.296875 -1.03125,0.796875 -0.4375,0.5 -0.67187,1.171875 -0.23438,0.65625 -0.23438,1.375 0,0.75 0.25,1.4375 0.25,0.671875 0.6875,1.1875 0.45313,0.515625 1.07813,0.828125 0.625,0.296875 1.375,0.296875 0.57812,0 1.28125,-0.21875 0.71875,-0.21875 1.32812,-0.71875 0.625,-0.5 1.03125,-1.328125 0.42188,-0.828125 0.42188,-2.046875 z M 226.125,79 h -5.89063 q 0.79688,1.375 1.28125,2.8125 0.5,1.421875 0.5,2.890625 0,1.109375 -0.34375,2.140625 -0.32812,1.015625 -0.98437,1.828125 -0.64063,0.796875 -1.60938,1.3125 -0.95312,0.5 -2.20312,0.5625 l -0.0312,0.07813 Q 218.25,92.8125 220,94.765625 q 1.75,1.9375 4.04687,3.6875 L 222.375,100.375 q -1.32813,-0.984375 -2.53125,-2.125 -1.1875,-1.15625 -2.25,-2.375 -1.0625,-1.234375 -1.98438,-2.484375 Q 214.70312,92.125 213.9375,90.9375 213.1875,89.734375 212.59375,88.640625 212,87.53125 211.57812,86.625 l 2.14063,-1.15625 q 0.5625,1.21875 1.26562,1.921875 0.71875,0.6875 1.65625,0.6875 0.67188,0 1.20313,-0.34375 0.53125,-0.34375 0.89062,-0.875 0.35938,-0.546875 0.54688,-1.1875 0.1875,-0.65625 0.1875,-1.28125 0,-0.734375 -0.1875,-1.4375 -0.1875,-0.71875 -0.48438,-1.390625 Q 218.5,80.875 218.125,80.234375 217.76562,79.59375 217.42187,79 h -8.03125 V 76.703125 H 226.125 Z m 28.03125,0 H 250.875 v 21 h -2.57813 v -6.96875 l -0.0625,-0.01563 -9.53125,7.171875 -1.60937,-1.953125 5.54687,-3.984375 -0.0156,-0.0625 q -1.20313,-0.09375 -2.1875,-0.53125 -0.98438,-0.4375 -1.6875,-1.234375 -0.70313,-0.796875 -1.09375,-1.96875 -0.375,-1.171875 -0.375,-2.734375 V 79 h -3.48438 v -2.296875 h 20.35938 z m -5.85938,0 h -8.48437 v 8.578125 q 0,0.984375 0.15625,1.765625 0.17187,0.78125 0.5625,1.328125 0.40625,0.546875 1.0625,0.84375 0.65625,0.28125 1.64062,0.28125 1.60938,0 2.90625,-0.703125 1.29688,-0.71875 2.15625,-1.890625 z m 33.48438,0 h -13.20313 v 6.15625 l 0.0781,0.03125 q 0.79687,-1.09375 1.98437,-1.75 1.1875,-0.671875 2.60938,-0.671875 1.125,0 2.07812,0.46875 Q 276.29687,83.6875 277,84.5 q 0.70312,0.796875 1.09375,1.890625 Q 278.5,87.484375 278.5,88.75 q 0,1.4375 -0.5,2.65625 -0.5,1.203125 -1.28125,2.1875 -0.78125,0.984375 -1.76563,1.75 -0.98437,0.75 -1.9375,1.28125 L 271.625,94.21875 q 0.3125,-0.171875 0.76562,-0.453125 0.45313,-0.28125 0.9375,-0.65625 0.5,-0.375 0.96875,-0.84375 0.48438,-0.484375 0.85938,-1.046875 0.39062,-0.5625 0.625,-1.21875 0.23437,-0.65625 0.23437,-1.390625 0,-0.671875 -0.21875,-1.28125 -0.20312,-0.609375 -0.57812,-1.0625 -0.375,-0.453125 -0.90625,-0.71875 -0.51563,-0.265625 -1.14063,-0.265625 -0.8125,0 -1.57812,0.421875 -0.76563,0.421875 -1.39063,1.0625 -0.625,0.625 -1.0625,1.34375 -0.42187,0.71875 -0.5625,1.328125 V 100 h -2.5625 v -5.984375 l -0.0625,-0.03125 q -0.23437,0.203125 -0.59375,0.5 -0.35937,0.28125 -0.875,0.546875 -0.5,0.265625 -1.17187,0.453125 -0.65625,0.1875 -1.48438,0.1875 -1.375,0 -2.54687,-0.53125 -1.15625,-0.53125 -2.01563,-1.4375 -0.84375,-0.921875 -1.32812,-2.15625 -0.48438,-1.234375 -0.48438,-2.640625 0,-1.34375 0.4375,-2.484375 0.45313,-1.140625 1.21875,-1.953125 0.78125,-0.828125 1.8125,-1.28125 1.04688,-0.46875 2.25,-0.46875 0.84375,0 1.5625,0.21875 0.73438,0.203125 1.32813,0.515625 0.60937,0.296875 1.07812,0.65625 0.48438,0.34375 0.8125,0.625 l 0.0625,-0.01563 V 79 H 253.0625 v -2.296875 h 28.71875 z m -20.23438,6.15625 q -0.89062,0 -1.57812,0.375 -0.67188,0.359375 -1.125,0.9375 -0.45313,0.5625 -0.6875,1.28125 -0.21875,0.703125 -0.21875,1.390625 0,0.75 0.26562,1.5 0.26563,0.734375 0.75,1.328125 0.5,0.59375 1.1875,0.96875 0.6875,0.359375 1.51563,0.359375 0.70312,0 1.46875,-0.28125 0.78125,-0.296875 1.42187,-0.90625 Q 265.20312,91.5 265.625,90.5625 q 0.42187,-0.953125 0.42187,-2.265625 V 87.53125 q -0.375,-0.46875 -0.89062,-0.890625 -0.5,-0.4375 -1.09375,-0.765625 -0.57813,-0.328125 -1.21875,-0.515625 -0.64063,-0.203125 -1.29688,-0.203125 z M 290.09375,79 h -3.28125 v 21 H 284.25 V 79 h -3.5625 v -2.296875 h 9.40625 z m 9.59375,8.5 q -0.28125,0.03125 -0.53125,0.0625 -0.25,0.01563 -0.51563,0.01563 -1.26562,0 -2.29687,-0.453125 -1.01563,-0.453125 -1.75,-1.21875 -0.71875,-0.765625 -1.10938,-1.765625 -0.39062,-1.015625 -0.39062,-2.125 0,-0.796875 0.21875,-1.546875 0.21875,-0.75 0.6875,-1.40625 L 293.98437,79 H 289 v -2.296875 h 26.125 V 79 h -3.28125 v 21 h -2.5625 V 79 h -5.89063 l -0.0156,0.0625 q 0.40625,0.40625 0.75,0.984375 0.34375,0.5625 0.57812,1.234375 0.25,0.671875 0.39063,1.40625 0.14062,0.734375 0.14062,1.484375 0,1.21875 -0.39062,2.359375 -0.375,1.140625 -1.07813,2.15625 -0.6875,1.015625 -1.67187,1.890625 -0.96875,0.859375 -2.15625,1.53125 v 0.0625 q 0.78125,0.609375 1.67187,1.46875 0.89063,0.84375 1.76563,1.765625 0.875,0.921875 1.65625,1.84375 0.78125,0.90625 1.34375,1.65625 l -1.76563,1.48438 q -0.48437,-0.60938 -1.21875,-1.48438 -0.73437,-0.890625 -1.64062,-1.84375 -0.90625,-0.96875 -1.96875,-1.921875 -1.04688,-0.96875 -2.1875,-1.75 -0.5625,0.265625 -1.1875,0.390625 -0.60938,0.125 -1.21875,0.125 -0.70313,0 -1.35938,-0.171875 -0.64062,-0.171875 -1.15625,-0.5 -0.5,-0.328125 -0.79687,-0.796875 -0.29688,-0.484375 -0.29688,-1.109375 0,-0.984375 0.71875,-1.515625 0.73438,-0.546875 1.90625,-0.546875 0.85938,0 1.73438,0.3125 0.89062,0.296875 1.73437,0.90625 0.4375,-0.09375 0.98438,-0.328125 0.54687,-0.25 1.10937,-0.625 0.57813,-0.390625 1.10938,-0.90625 0.54687,-0.53125 0.96875,-1.203125 0.42187,-0.671875 0.67187,-1.46875 0.26563,-0.8125 0.26563,-1.75 0,-0.9375 -0.28125,-1.84375 -0.26563,-0.90625 -0.79688,-1.609375 -0.53125,-0.71875 -1.32812,-1.15625 -0.79688,-0.4375 -1.84375,-0.4375 -0.82813,0 -1.375,0.265625 -0.54688,0.25 -0.89063,0.65625 -0.34375,0.40625 -0.48437,0.90625 -0.14063,0.484375 -0.14063,0.953125 0,0.609375 0.21875,1.203125 0.21875,0.578125 0.64063,1.046875 0.4375,0.453125 1.07812,0.734375 0.64063,0.28125 1.46875,0.28125 0.26563,0 0.64063,-0.04687 z m 19.82812,8.9375 -2.5,7.6875 h -1.82812 l 1.82812,-7.6875 z"
         id="path4" />
      <path
         d="m 53.640625,136.1875 q 0.234375,0.73437 0.546875,1.60937 0.3125,0.85938 0.734375,1.75 0.4375,0.875 0.96875,1.70313 0.546875,0.82812 1.234375,1.46875 0.703125,0.64062 1.546875,1.03125 0.84375,0.375 1.875,0.375 1.015625,0 1.71875,-0.29688 0.703125,-0.29687 1.140625,-0.79687 0.4375,-0.5 0.625,-1.17188 0.203125,-0.67187 0.203125,-1.40625 0,-1.60937 -1.171875,-2.51562 -1.15625,-0.90625 -3.359375,-0.90625 -0.265625,0 -0.53125,0.0156 -0.265625,0.0156 -0.53125,0.0469 v -2.375 q 0.125,0.0156 0.21875,0.0156 0.109375,0 0.125,0 1.09375,0 1.9375,-0.26562 0.859375,-0.28125 1.4375,-0.75 0.578125,-0.46875 0.875,-1.09375 0.296875,-0.625 0.296875,-1.3125 0,-0.625 -0.21875,-1.10938 -0.21875,-0.48437 -0.59375,-0.8125 -0.375,-0.32812 -0.890625,-0.48437 -0.515625,-0.17188 -1.125,-0.17188 -0.421875,0 -0.8125,0.0625 -0.390625,0.0469 -0.828125,0.17188 -0.4375,0.10937 -0.9375,0.29687 -0.484375,0.1875 -1.109375,0.46875 L 56.125,127.59375 q 1.21875,-0.59375 2.34375,-0.89062 1.125,-0.3125 2.296875,-0.3125 1.125,0 2.078125,0.35937 0.96875,0.35938 1.65625,1 0.703125,0.625 1.09375,1.5 0.390625,0.875 0.390625,1.89062 0,2.79688 -2.671875,4.5 v 0.0625 q 1.046875,0.4375 1.75,1.07813 0.453125,0.0781 0.953125,0.125 0.515625,0.0469 0.9375,0.0469 0.4375,0 0.921875,-0.0625 0.484375,-0.0625 0.984375,-0.23437 0.515625,-0.17188 1.03125,-0.48438 0.53125,-0.3125 1.0625,-0.8125 v -8.65624 h 5.84375 V 129 h -3.28125 v 21 h -2.5625 v -11.875 l -0.0625,-0.0156 Q 70,138.70312 69.21875,138.89062 q -0.78125,0.1875 -1.609375,0.1875 -0.265625,0 -0.546875,-0.0156 -0.28125,-0.0312 -0.578125,-0.0625 l -0.01563,0.0625 q 0.25,0.64062 0.25,1.57812 0,1.26563 -0.421875,2.34375 -0.421875,1.07813 -1.21875,1.875 -0.78125,0.78125 -1.90625,1.21875 -1.109375,0.4375 -2.5,0.4375 -1.484375,0 -2.6875,-0.51562 -1.1875,-0.53125 -2.15625,-1.35938 Q 54.875,143.8125 54.15625,142.78125 53.4375,141.73437 52.921875,140.6875 52.40625,139.64062 52.078125,138.70312 51.75,137.75 51.59375,137.125 Z M 85.109375,129 h -3.28125 v 21 h -2.5625 v -21 h -3.5625 v -2.29687 h 9.40625 z m 18.812505,0 h -3.28125 v 21 h -2.562505 v -5.57813 l -0.0625,-0.0156 q -0.3125,0.29687 -0.734375,0.625 -0.421875,0.3125 -0.96875,0.57812 -0.546875,0.25 -1.234375,0.42188 -0.671875,0.17187 -1.515625,0.17187 -1.546875,0 -2.828125,-0.59375 -1.265625,-0.59375 -2.1875,-1.57812 -0.921875,-1 -1.4375,-2.28125 -0.5,-1.29688 -0.5,-2.70313 0,-1.40625 0.5,-2.60937 0.515625,-1.21875 1.40625,-2.10938 0.890625,-0.89062 2.078125,-1.39062 1.1875,-0.51563 2.546875,-0.51563 0.375,0 0.9375,0.0625 0.578125,0.0625 1.234375,0.28125 0.65625,0.21875 1.359375,0.64063 0.703125,0.40625 1.34375,1.10937 l 0.0625,-0.0156 V 129 h -14.0625 v -2.29687 h 19.906255 z m -5.781255,8.42187 Q 97.15625,136.23437 96,135.51562 q -1.15625,-0.73437 -2.625,-0.73437 -1.15625,0 -1.96875,0.4375 -0.796875,0.4375 -1.3125,1.10937 -0.515625,0.65625 -0.75,1.46875 -0.234375,0.8125 -0.234375,1.5625 0,0.8125 0.265625,1.60938 0.265625,0.79687 0.78125,1.4375 0.53125,0.625 1.3125,1.03125 0.78125,0.39062 1.828125,0.39062 1.078125,0 1.96875,-0.40625 0.890625,-0.42187 1.53125,-1.0625 0.640625,-0.64062 0.984375,-1.4375 0.359375,-0.79687 0.359375,-1.54687 z M 112.23438,129 h -3.28125 v 21 h -2.5625 v -21 h -3.5625 v -2.29687 h 9.40625 z m 23.95312,0 h -3.28125 v 21 h -2.5625 v -13.5625 h -5.03125 l -0.0156,0.0625 q 0.1875,0.21875 0.5625,0.67187 0.375,0.4375 0.75,1.09375 0.375,0.64063 0.65625,1.46875 0.28125,0.8125 0.28125,1.76563 0,0.95312 -0.32813,1.89062 -0.3125,0.92188 -0.95312,1.67188 -0.625,0.73437 -1.59375,1.1875 -0.96875,0.45312 -2.25,0.45312 -1.26563,0 -2.32813,-0.4375 -1.04687,-0.45312 -1.92187,-1.20312 -0.85938,-0.75 -1.54688,-1.73438 -0.6875,-0.98437 -1.23437,-2.07812 -0.53125,-1.10938 -0.9375,-2.23438 -0.39063,-1.14062 -0.67188,-2.17187 -0.28125,-1.04688 -0.45312,-1.92188 -0.17188,-0.875 -0.26563,-1.45312 l 2.3125,-0.45313 q 0.51563,2.8125 1.25,4.9375 0.75,2.10938 1.65625,3.53125 0.90625,1.42188 1.95313,2.14063 1.04687,0.70312 2.1875,0.70312 0.8125,0 1.3125,-0.3125 0.5,-0.32812 0.78125,-0.78125 0.28125,-0.46875 0.375,-0.95312 0.10937,-0.5 0.10937,-0.85938 0,-0.64062 -0.26562,-1.35937 -0.25,-0.73438 -0.75,-1.45313 -0.48438,-0.73437 -1.21875,-1.40625 -0.73438,-0.67187 -1.6875,-1.21875 v -1.82812 h 9.26562 V 129 h -19.20312 v -2.29687 h 25.04687 z m 8.3125,0 h -3.28125 v 21 h -2.5625 v -21 h -3.5625 v -2.29687 H 144.5 Z m 21.64062,0 h -3.28125 v 21 h -2.59375 v -6.57813 l -0.0625,-0.0469 q -0.85937,0.78125 -1.6875,1.23437 -0.8125,0.4375 -1.53125,0.67188 -0.70312,0.21875 -1.28125,0.28125 -0.57812,0.0625 -0.95312,0.0625 -1.4375,0 -2.54688,-0.45313 -1.10937,-0.45312 -1.85937,-1.1875 -0.75,-0.75 -1.14063,-1.70312 -0.39062,-0.96875 -0.39062,-2 0,-1.07813 0.4375,-2.14063 0.45312,-1.0625 1.40625,-1.90625 l -0.0156,-0.0625 H 145.6875 V 133.875 H 158.25 v 2.29687 h -1.60938 q -1.60937,0 -2.64062,0.42188 -1.03125,0.42187 -1.625,1.03125 -0.59375,0.60937 -0.82813,1.3125 -0.21875,0.6875 -0.21875,1.25 0,0.46875 0.15625,1.01562 0.15625,0.53125 0.51563,0.98438 0.375,0.45312 0.98437,0.75 0.625,0.29687 1.5625,0.29687 0.98438,0 1.82813,-0.3125 0.85937,-0.32812 1.57812,-0.84375 0.71875,-0.51562 1.29688,-1.15625 0.59375,-0.65625 1.01562,-1.29687 V 129 h -16.85937 v -2.29687 h 22.73437 z m 8.3125,0 h -3.28125 v 21 h -2.5625 v -21 h -3.5625 v -2.29687 h 9.40625 z m 28.71875,0 h -3.28125 v 21 h -2.5625 v -21 h -7.04687 v 12.125 q 0,0.25 -0.0312,0.57812 -0.0312,0.32813 -0.15625,0.64063 -0.10938,0.29687 -0.32813,0.51562 -0.21875,0.20313 -0.60937,0.20313 -0.42188,0 -0.9375,-0.26563 -0.5,-0.28125 -1.03125,-0.71875 -0.53125,-0.45312 -1.03125,-1.01562 -0.48438,-0.5625 -0.875,-1.15625 -0.39063,-0.59375 -0.625,-1.15625 -0.23438,-0.5625 -0.23438,-1 0,-0.39063 0.1875,-0.625 0.20313,-0.23438 0.54688,-0.35938 0.35937,-0.125 0.85937,-0.15625 0.51563,-0.0312 1.125,-0.0312 h 0.54688 V 129 h -5.5625 v -2.29687 h 21.04687 z m 3.125,29 q -0.79687,-1.3125 -1.64062,-2.5 -0.84375,-1.17188 -1.79688,-2.04688 -0.95312,-0.875 -2.04687,-1.39062 -1.10938,-0.51563 -2.42188,-0.51563 -0.79687,0 -1.40625,0.1875 -0.625,0.1875 -1.04687,0.5 -0.42188,0.3125 -0.64063,0.71875 -0.21875,0.42188 -0.21875,0.85938 0,0.84375 0.6875,1.34375 0.67188,0.5 1.84375,0.5 1.09375,0 2.26563,-0.4375 l 0.54687,2.25 Q 199.75,157.73437 199.0625,157.85937 198.35937,158 197.6875,158 q -1,0 -1.89063,-0.28125 -0.90625,-0.28125 -1.57812,-0.82813 -0.6875,-0.53125 -1.07813,-1.34375 -0.40625,-0.79687 -0.40625,-1.82812 0,-1.14063 0.48438,-2 0.46875,-0.84375 1.25,-1.40625 0.78125,-0.54688 1.78125,-0.8125 1,-0.28125 2.03125,-0.28125 1.32812,0 2.5,0.40625 1.15625,0.40625 2.15625,1.0625 1,0.67187 1.82812,1.5 0.82813,0.84375 1.48438,1.70312 0.67187,0.85938 1.17187,1.67188 0.51563,0.8125 0.85938,1.42187 z m -9.60937,-36.0625 q 0,-0.89062 0.53125,-1.4375 0.51562,-0.5625 1.35937,-0.5625 0.39063,0 0.75,0.15625 0.34375,0.15625 0.60938,0.4375 0.26562,0.26563 0.42187,0.64063 0.14063,0.35937 0.14063,0.79687 0,0.89063 -0.51563,1.4375 -0.53125,0.54688 -1.375,0.54688 -0.40625,0 -0.75,-0.14063 -0.35937,-0.15625 -0.60937,-0.42187 -0.26563,-0.28125 -0.40625,-0.64063 -0.15625,-0.375 -0.15625,-0.8125 z M 227.125,129 h -3.28125 v 21 h -2.5625 V 136.4375 H 216.25 l -0.0156,0.0625 q 0.1875,0.21875 0.5625,0.67187 0.375,0.4375 0.75,1.09375 0.375,0.64063 0.65625,1.46875 0.28125,0.8125 0.28125,1.76563 0,0.95312 -0.32812,1.89062 -0.3125,0.92188 -0.95313,1.67188 -0.625,0.73437 -1.59375,1.1875 -0.96875,0.45312 -2.25,0.45312 -1.26562,0 -2.32812,-0.4375 -1.04688,-0.45312 -1.92188,-1.20312 -0.85937,-0.75 -1.54687,-1.73438 -0.6875,-0.98437 -1.23438,-2.07812 -0.53125,-1.10938 -0.9375,-2.23438 -0.39062,-1.14062 -0.67187,-2.17187 -0.28125,-1.04688 -0.45313,-1.92188 -0.17187,-0.875 -0.26562,-1.45312 l 2.3125,-0.45313 q 0.51562,2.8125 1.25,4.9375 0.75,2.10938 1.65625,3.53125 0.90625,1.42188 1.95312,2.14063 1.04688,0.70312 2.1875,0.70312 0.8125,0 1.3125,-0.3125 0.5,-0.32812 0.78125,-0.78125 0.28125,-0.46875 0.375,-0.95312 0.10938,-0.5 0.10938,-0.85938 0,-0.64062 -0.26563,-1.35937 -0.25,-0.73438 -0.75,-1.45313 -0.48437,-0.73437 -1.21875,-1.40625 -0.73437,-0.67187 -1.6875,-1.21875 v -1.82812 h 9.26563 V 129 h -19.20313 v -2.29687 H 227.125 Z m 30.3125,0 h -3.28125 v 21 h -2.5625 v -8.76563 H 243 v 1.85938 q 0,0.48437 -0.0469,0.85937 -0.0312,0.375 -0.17187,0.625 -0.125,0.25 -0.375,0.39063 -0.23438,0.125 -0.64063,0.125 -0.40625,0 -0.90625,-0.23438 -0.5,-0.25 -1.01562,-0.65625 -0.51563,-0.42187 -1,-0.9375 -0.48438,-0.53125 -0.875,-1.09375 -0.375,-0.57812 -0.60938,-1.14062 Q 237.125,140.46875 237.125,140 q 0,-0.32813 0.10937,-0.53125 0.125,-0.21875 0.32813,-0.32813 0.21875,-0.10937 0.51562,-0.14062 0.29688,-0.0469 0.67188,-0.0469 h 1.6875 V 129 h -5.64063 v -2.29687 H 257.4375 Z M 243,129 v 9.95312 h 8.59375 V 129 Z m 21.51562,2.98437 q 0.17188,-0.25 0.3125,-0.625 0.15625,-0.39062 0.15625,-0.875 0,-0.4375 -0.15625,-0.76562 -0.15625,-0.32813 -0.40625,-0.53125 -0.23437,-0.20313 -0.54687,-0.29688 -0.3125,-0.10937 -0.625,-0.10937 -0.375,0 -0.75,0.15625 -0.35938,0.14062 -0.65625,0.46875 -0.28125,0.32812 -0.46875,0.84375 -0.1875,0.5 -0.1875,1.20312 0,0.76563 0.21875,1.45313 0.23437,0.67187 0.70312,1.1875 0.48438,0.5 1.20313,0.79687 0.73437,0.29688 1.75,0.29688 0.70312,0 1.29687,-0.10938 0.59375,-0.125 1.03125,-0.23437 l 0.42188,2.40625 q -0.25,0.0312 -0.67188,0.125 -0.42187,0.0781 -0.92187,0.26562 -0.48438,0.17188 -1,0.45313 -0.5,0.28125 -0.90625,0.70312 -0.40625,0.40625 -0.67188,0.96875 -0.25,0.5625 -0.25,1.3125 0,0.70313 0.23438,1.25 0.23437,0.54688 0.65625,0.9375 0.42187,0.39063 1.01562,0.59375 0.59375,0.20313 1.29688,0.20313 1,0 1.84375,-0.375 0.84375,-0.375 1.51562,-0.92188 0.67188,-0.5625 1.15625,-1.20312 0.48438,-0.64063 0.76563,-1.17188 v -13.68749 h 5.84375 V 129 h -3.28125 v 21 h -2.5625 v -5.84375 l -0.0625,-0.0156 q -0.57813,0.64063 -1.21875,1.07813 -0.64063,0.4375 -1.3125,0.71875 -0.65625,0.26562 -1.32813,0.39062 -0.67187,0.125 -1.29687,0.125 -1.23438,0 -2.29688,-0.40625 -1.04687,-0.40625 -1.8125,-1.14062 -0.76562,-0.73438 -1.20312,-1.73438 -0.4375,-1.01562 -0.4375,-2.23437 0,-1.125 0.42187,-2.0625 0.4375,-0.9375 1.51563,-1.78125 l -0.0156,-0.0625 q -1.0625,-0.28125 -1.84375,-0.85938 -0.76562,-0.57812 -1.28125,-1.32812 -0.5,-0.75 -0.75,-1.625 -0.25,-0.89063 -0.25,-1.78125 0,-1.09375 0.34375,-2.01563 0.35938,-0.92187 0.98438,-1.59374 0.64062,-0.67188 1.5,-1.04688 0.85937,-0.39062 1.89062,-0.39062 1.07813,0 1.84375,0.375 0.78125,0.375 1.26563,0.95312 0.5,0.57812 0.73437,1.28125 0.23438,0.6875 0.23438,1.3125 0,0.4375 -0.0937,0.85937 -0.0937,0.42188 -0.23438,0.79688 -0.14062,0.375 -0.3125,0.6875 -0.15625,0.3125 -0.29687,0.53125 z m 4.29688,18.48438 q 1,-0.625 2.21875,-0.96875 1.20312,-0.34375 2.29687,-0.34375 0.95313,0 1.78125,0.28125 0.8125,0.26562 1.42188,0.78125 0.60937,0.53125 0.95312,1.28125 0.34375,0.75 0.34375,1.6875 0,1 -0.40625,1.875 -0.39062,0.875 -1.1875,1.53125 -0.79687,0.65625 -1.96875,1.03125 -1.17187,0.39062 -2.71875,0.39062 -1.76562,0 -3.15625,-0.48437 -1.40625,-0.46875 -2.51562,-1.20313 -1.10938,-0.71875 -1.95313,-1.59375 -0.84375,-0.875 -1.48437,-1.65625 l 1.45312,-1.70312 q 0.89063,0.96875 1.70313,1.75 0.8125,0.78125 1.6875,1.32812 0.875,0.5625 1.89062,0.85938 1,0.29687 2.26563,0.29687 1.07812,0 1.84375,-0.21875 0.75,-0.20312 1.23437,-0.54687 0.48438,-0.32813 0.70313,-0.76563 0.21875,-0.42187 0.21875,-0.85937 0,-0.79688 -0.59375,-1.26563 -0.60938,-0.46875 -1.64063,-0.46875 -0.67187,0 -1.54687,0.23438 -0.89063,0.23437 -1.79688,0.78125 z M 293.35937,129 h -5.89062 q 0.79687,1.375 1.28125,2.8125 0.5,1.42187 0.5,2.89062 0,1.10938 -0.34375,2.14063 -0.32813,1.01562 -0.98438,1.82812 -0.64062,0.79688 -1.60937,1.3125 -0.95313,0.5 -2.20313,0.5625 l -0.0312,0.0781 q 1.40625,2.1875 3.15625,4.14062 1.75,1.9375 4.04688,3.6875 l -1.67188,1.92188 q -1.32812,-0.98438 -2.53125,-2.125 -1.1875,-1.15625 -2.25,-2.375 -1.0625,-1.23438 -1.98437,-2.48438 -0.90625,-1.26562 -1.67188,-2.45312 -0.75,-1.20313 -1.34375,-2.29688 -0.59375,-1.10937 -1.01562,-2.01562 l 2.14062,-1.15625 q 0.5625,1.21875 1.26563,1.92187 0.71875,0.6875 1.65625,0.6875 0.67187,0 1.20312,-0.34375 0.53125,-0.34375 0.89063,-0.875 0.35937,-0.54687 0.54687,-1.1875 0.1875,-0.65625 0.1875,-1.28125 0,-0.73437 -0.1875,-1.4375 -0.1875,-0.71875 -0.48437,-1.39062 -0.29688,-0.6875 -0.67188,-1.32813 Q 285,129.59375 284.65625,129 H 276.625 v -2.29687 h 16.73437 z m 31.8125,-2.29687 V 129 h -3.28125 v 21 h -2.59375 V 139.5 H 310.25 q -0.82813,0.54687 -1.98438,0.65625 l -0.0312,0.0781 q 1.51563,2.375 3.32813,4.42188 1.8125,2.04687 4.125,3.79687 l -1.67188,1.92188 q -1.32812,-0.98438 -2.53125,-2.125 -1.1875,-1.14063 -2.25,-2.35938 -1.04687,-1.23437 -1.96875,-2.48437 -0.92187,-1.26563 -1.6875,-2.48438 -0.76562,-1.21875 -1.375,-2.34375 -0.60937,-1.14062 -1.0625,-2.10937 l 2.14063,-1.15625 q 0.29687,0.6875 0.57812,1.15625 0.29688,0.45312 0.59375,0.73437 0.29688,0.26563 0.625,0.39063 0.32813,0.10937 0.70313,0.10937 1.07812,0 1.57812,-0.84375 0.51563,-0.84375 0.51563,-2.21875 0,-0.8125 -0.15625,-1.59375 -0.15625,-0.79687 -0.40625,-1.51562 -0.23438,-0.73438 -0.51563,-1.375 -0.28125,-0.64063 -0.53125,-1.15625 h -7.23437 v -2.29687 z M 319.29687,129 h -8.32812 q 0.65625,1.42187 1.03125,2.85937 0.375,1.4375 0.375,2.85938 0,0.65625 -0.10938,1.29687 -0.0937,0.625 -0.32812,1.1875 l 0.0312,0.0312 h 7.32812 z m 14.1875,0 h -3.28125 v 21 h -2.5625 v -21 h -3.5625 v -2.29687 h 9.40625 z m 17.10938,-2.29687 h 5.84375 V 129 h -3.28125 v 21 h -2.5625 v -13.57813 q -1.57813,0.64063 -2.95313,0.89063 -1.35937,0.25 -2.625,0.25 -1.32812,0 -2.39062,-0.21875 -1.04688,-0.21875 -1.98438,-0.625 -0.67187,0.45312 -1.3125,0.98437 -0.625,0.53125 -1.125,1.1875 -0.48437,0.64063 -0.79687,1.4375 -0.29688,0.79688 -0.29688,1.78125 0,0.5625 0.14063,1.26563 0.15625,0.70312 0.60937,1.34375 0.45313,0.625 1.29688,1.0625 0.85937,0.42187 2.26562,0.42187 0.5,0 0.98438,-0.0625 0.5,-0.0625 0.85937,-0.20312 -0.0625,-0.29688 -0.0937,-0.59375 -0.0312,-0.3125 -0.0312,-0.64063 0,-0.70312 0.15625,-1.40625 0.17188,-0.70312 0.5,-1.25 0.34375,-0.5625 0.85938,-0.90625 0.51562,-0.34375 1.20312,-0.34375 0.53125,0 0.92188,0.20313 0.39062,0.20312 0.65625,0.54687 0.26562,0.34375 0.39062,0.8125 0.14063,0.45313 0.14063,0.96875 0,0.57813 -0.15625,1.10938 -0.15625,0.53125 -0.42188,1 -0.25,0.45312 -0.59375,0.85937 -0.32812,0.39063 -0.70312,0.71875 0.29687,0.67188 0.625,1.20313 0.32812,0.51562 0.67187,0.9375 0.35938,0.40625 0.71875,0.75 0.375,0.32812 0.73438,0.625 l -1.92188,2.01562 q -0.71875,-0.67187 -1.23437,-1.34375 -0.5,-0.65625 -0.84375,-1.23437 -0.34375,-0.57813 -0.5625,-1.04688 -0.21875,-0.46875 -0.35938,-0.75 -0.51562,0.21875 -1.17187,0.3125 -0.64063,0.0781 -1.20313,0.0781 -1.53125,0 -2.8125,-0.48438 -1.26562,-0.5 -2.17187,-1.39062 -0.90625,-0.89063 -1.40625,-2.125 -0.5,-1.25 -0.5,-2.73438 0,-1.28125 0.34375,-2.26562 0.35937,-1 0.9375,-1.76563 0.57812,-0.76562 1.29687,-1.34375 0.73438,-0.59375 1.46875,-1.07812 l 0.0156,-0.0625 q -1.17188,-0.9375 -1.6875,-2.01563 -0.51563,-1.09375 -0.51563,-2.26562 0,-1.04688 0.35938,-1.89063 0.375,-0.85937 1,-1.46874 0.625,-0.60938 1.4375,-0.9375 0.8125,-0.34375 1.6875,-0.34375 0.85937,0 1.65625,0.3125 0.79687,0.3125 1.42187,0.90625 0.625,0.57812 1,1.43749 0.375,0.84375 0.375,1.90625 0,0.71875 -0.17187,1.29688 -0.17188,0.57812 -0.48438,1.0625 -0.29687,0.48437 -0.73437,0.90625 Q 343.625,134.625 343.10937,135 l 0.0156,0.0625 q 0.45312,0.0937 0.92187,0.14062 0.46875,0.0312 0.90625,0.0312 1.28125,0 2.70313,-0.34375 1.42187,-0.34375 2.9375,-1.23437 z m -7.625,4.23437 q 0,-0.48438 -0.15625,-0.875 -0.14063,-0.40625 -0.42188,-0.6875 -0.26562,-0.29688 -0.625,-0.45313 -0.35937,-0.15625 -0.78125,-0.15625 -0.3125,0 -0.65625,0.10938 -0.34375,0.0937 -0.65625,0.35937 -0.29687,0.25 -0.5,0.6875 -0.1875,0.42188 -0.1875,1.07813 0,0.98437 0.45313,1.70312 0.46875,0.70313 1.40625,1.25 0.4375,-0.29687 0.82812,-0.60937 0.39063,-0.3125 0.67188,-0.67188 0.29687,-0.375 0.45312,-0.79687 0.17188,-0.42188 0.17188,-0.9375 z m 16.40625,19.40625 q -0.71875,0 -1.23438,-0.51563 -0.5,-0.51562 -0.5,-1.23437 0,-0.71875 0.5,-1.23438 0.51563,-0.53125 1.23438,-0.53125 0.73437,0 1.25,0.53125 0.51562,0.51563 0.51562,1.23438 0,0.71875 -0.51562,1.23437 -0.51563,0.51563 -1.25,0.51563 z"
         id="path5" />
      <path
         d="m 70.46875,179 h -5.296875 v 6.85937 H 59.90625 q -2.453125,0 -3.703125,1.21875 -1.25,1.20313 -1.25,3.46875 0,1.28125 0.40625,2.26563 0.421875,0.98437 1.140625,1.65625 0.734375,0.65625 1.734375,1 1,0.34375 2.171875,0.34375 1.234375,0 1.984375,-0.375 -0.0625,-0.39063 -0.09375,-0.6875 -0.03125,-0.29688 -0.03125,-0.59375 0,-0.65625 0.15625,-1.34375 0.171875,-0.70313 0.5,-1.26563 0.34375,-0.57812 0.859375,-0.9375 0.53125,-0.35937 1.265625,-0.35937 0.453125,0 0.859375,0.15625 0.40625,0.15625 0.703125,0.48437 0.3125,0.3125 0.484375,0.79688 0.1875,0.48437 0.1875,1.125 0,0.64062 -0.171875,1.1875 -0.171875,0.53125 -0.453125,1 -0.265625,0.45312 -0.609375,0.85937 -0.34375,0.39063 -0.671875,0.71875 0.34375,0.75 0.71875,1.34375 0.390625,0.59375 0.796875,1.0625 0.421875,0.46875 0.84375,0.84375 0.421875,0.375 0.84375,0.70313 l -1.921875,2.01562 q -0.828125,-0.73437 -1.421875,-1.46875 -0.578125,-0.71875 -0.984375,-1.35937 -0.390625,-0.64063 -0.640625,-1.15625 -0.25,-0.51563 -0.40625,-0.82813 -1.078125,0.42188 -2.65625,0.42188 -2.03125,0 -3.546875,-0.65625 -1.515625,-0.67188 -2.53125,-1.78125 -1,-1.125 -1.5,-2.5625 -0.5,-1.4375 -0.5,-2.98438 0,-1.60937 0.515625,-2.82812 0.515625,-1.23438 1.4375,-2.0625 0.921875,-0.84375 2.1875,-1.26563 1.28125,-0.4375 2.796875,-0.4375 h 3.203125 V 179 h -13.15625 v -2.29688 H 70.46875 Z m 8.3125,0 H 75.5 v 21 H 72.9375 V 179 H 69.375 v -2.29688 h 9.40625 z m -3.5,-1.85938 h -2.265625 l -1.421875,-2.67187 q -0.90625,-1.70313 -1.65625,-2.70313 -0.734375,-1 -1.390625,-1.51562 -0.671875,-0.53125 -1.3125,-0.67188 -0.640625,-0.15625 -1.34375,-0.15625 h -3.03125 v -2.53125 h 2.859375 q 0.90625,0 1.640625,0.15625 0.734375,0.14063 1.40625,0.53125 0.65625,0.375 1.28125,1.0625 0.640625,0.67188 1.359375,1.75 0.71875,1.0625 1.5625,2.5625 0.859375,1.48438 1.953125,3.51563 z M 90.90625,179 H 77.6875 v -2.29688 h 13.21875 z m 0.953125,8.95312 h -6.8125 q 0,1.03125 -0.03125,1.76563 -0.01563,0.73437 -0.125,1.21875 -0.109375,0.46875 -0.328125,0.6875 -0.21875,0.21875 -0.609375,0.21875 -0.8125,0 -1.546875,-0.53125 -0.71875,-0.53125 -1.28125,-1.28125 -0.546875,-0.75 -0.875,-1.5625 -0.328125,-0.8125 -0.328125,-1.375 0,-0.5 0.21875,-0.78125 0.21875,-0.28125 0.578125,-0.42188 0.359375,-0.14062 0.8125,-0.17187 0.46875,-0.0312 0.9375,-0.0312 h 9.390625 z m 6.4375,7.64063 q 0.515625,-0.15625 1.015625,-0.39063 0.515625,-0.23437 0.90625,-0.5625 0.40625,-0.34375 0.65625,-0.79687 0.25,-0.45313 0.25,-1.0625 0,-1.29688 -1.07812,-2.01563 -1.07813,-0.73437 -3.062505,-0.73437 -0.796875,0 -1.640625,0.17187 -0.828125,0.15625 -1.515625,0.59375 -0.6875,0.42188 -1.125,1.17188 -0.4375,0.73437 -0.4375,1.875 0,1.15625 0.453125,2.15625 0.453125,0.98437 1.171875,1.8125 0.734375,0.82812 1.640625,1.5 0.90625,0.67187 1.796875,1.1875 0.90625,0.51562 1.703125,0.85937 0.796875,0.35938 1.32813,0.5625 l -1.031255,2.15625 q -1.09375,-0.46875 -2.234375,-1.03125 -1.125,-0.54687 -2.1875,-1.21875 -1.0625,-0.65625 -2,-1.45312 -0.9375,-0.79688 -1.640625,-1.76563 -0.6875,-0.96875 -1.09375,-2.125 -0.390625,-1.15625 -0.390625,-2.51562 0,-1.32813 0.34375,-2.3125 0.359375,-1 0.984375,-1.75 -0.859375,-0.98438 -1.265625,-1.98438 -0.40625,-1 -0.40625,-2.17187 0,-0.67188 0.15625,-1.26563 0.171875,-0.59375 0.59375,-1.03125 Q 90.625,183 91.390625,182.73437 92.15625,182.46875 93.375,182.46875 h 7.07813 V 179 H 86.296875 v -2.29688 H 106.65625 V 179 h -3.64062 v 5.75 h -8.98438 q -0.609375,0 -1.03125,0.10937 -0.40625,0.0937 -0.65625,0.29688 -0.25,0.20312 -0.359375,0.51562 -0.09375,0.29688 -0.09375,0.70313 0,0.54687 0.1875,1.0625 0.1875,0.51562 0.703125,1.15625 0.90625,-0.46875 1.984375,-0.6875 1.09375,-0.23438 2.28125,-0.23438 1.375,0 2.5625,0.3125 1.203125,0.3125 2.078125,0.95313 0.89063,0.625 1.39063,1.60937 0.51562,0.96875 0.51562,2.28125 0,1.26563 -0.4375,2.14063 -0.42187,0.875 -1.07812,1.46875 -0.64063,0.59375 -1.40625,0.96875 Q 99.90625,197.76562 99.25,198 Z M 114.96875,179 h -3.28125 v 21 h -2.5625 v -21 h -3.5625 v -2.29688 h 3.8125 q -0.28125,-1.59375 -0.71875,-2.71875 -0.4375,-1.14062 -0.95312,-1.89062 -0.51563,-0.76563 -1.07813,-1.20313 -0.5625,-0.4375 -1.07812,-0.65625 -0.53125,-0.21875 -0.98438,-0.28125 -0.46875,-0.0625 -0.76562,-0.0625 -0.96875,0 -1.54688,0.3125 -0.59375,0.29688 -0.90625,0.71875 -0.3125,0.42188 -0.40625,0.89063 -0.10937,0.45312 -0.10937,0.78125 0,0.125 0.0469,0.51562 0.0312,0.375 0.25,0.95313 0.20313,0.57812 0.64063,1.29687 0.4375,0.71875 1.23437,1.51563 h -2.65625 q -0.984375,-1.125 -1.46875,-2.32813 -0.5,-1.21875 -0.5,-2.35937 0,-0.95313 0.34375,-1.8125 0.34375,-0.85938 1.03125,-1.48438 0.6875,-0.64062 1.71875,-1.01562 1.03125,-0.375 2.39063,-0.375 1.875,0 3.23437,0.73437 1.35938,0.71875 2.28125,1.96875 0.9375,1.25 1.46875,2.9375 0.54688,1.67188 0.76563,3.5625 h 3.35937 z m 17.07812,0 h -3.28125 v 21 h -2.56249 v -21 h -3.5625 v -2.29688 h 3.5625 q -0.85938,-2.0625 -0.85938,-3.84375 0,-1.14062 0.375,-2.125 0.375,-0.98437 1.14063,-1.70312 0.78125,-0.71875 1.98437,-1.125 1.20312,-0.40625 2.85937,-0.40625 2.17188,0 4.17188,0.70312 2.01562,0.70313 3.9375,1.95313 1.92187,1.25 3.79687,2.96875 1.89063,1.71875 3.8125,3.75 h -2.71875 q -0.4375,-0.42188 -1.17187,-1.09375 -0.71875,-0.6875 -1.67188,-1.45313 -0.95312,-0.78125 -2.10937,-1.5625 -1.15625,-0.79687 -2.4375,-1.4375 -1.28125,-0.64062 -2.67188,-1.03125 -1.375,-0.40625 -2.78125,-0.40625 -1.14062,0 -1.92187,0.26563 -0.76563,0.26562 -1.25,0.73437 -0.46875,0.46875 -0.67188,1.10938 -0.20312,0.625 -0.20312,1.34375 0,1.40625 0.76562,3.35937 h 3.46875 z m 21.54688,0 h -3.28125 v 21 H 147.75 v -8.76563 h -8.59375 v 1.85938 q 0,0.48437 -0.0469,0.85937 -0.0312,0.375 -0.17187,0.625 -0.125,0.25 -0.375,0.39063 -0.23438,0.125 -0.64063,0.125 -0.40625,0 -0.90625,-0.23438 -0.5,-0.25 -1.01562,-0.65625 -0.51563,-0.42187 -1,-0.9375 -0.48438,-0.53125 -0.875,-1.09375 -0.375,-0.57812 -0.60938,-1.14062 -0.23437,-0.5625 -0.23437,-1.03125 0,-0.32813 0.10937,-0.53125 0.125,-0.21875 0.32813,-0.32813 0.21875,-0.10937 0.51562,-0.14062 0.29688,-0.0469 0.67188,-0.0469 h 1.6875 V 179 h -5.64063 v -2.29688 h 22.64063 z m -14.4375,0 v 9.95312 H 147.75 V 179 Z m 21.95312,17.46875 q -1.39062,0 -2.53125,-0.51563 -1.14062,-0.51562 -1.96875,-1.42187 -0.8125,-0.92188 -1.26562,-2.15625 -0.45313,-1.25 -0.45313,-2.6875 0,-1.5625 0.48438,-2.8125 0.48437,-1.26563 1.32812,-2.15625 0.85938,-0.89063 2,-1.35938 1.15625,-0.48437 2.48438,-0.48437 1.70312,0 3.21875,0.8125 1.51562,0.79687 3.03125,2.35937 0.70312,-1.09375 1.64062,-1.89062 0.9375,-0.8125 2.3125,-1.0625 V 179 H 152.5 v -2.29688 h 29.26562 V 179 h -7.82812 v 4.17187 q 1.04687,0.25 1.89062,0.82813 0.84375,0.57812 1.42188,1.39062 0.59375,0.8125 0.90625,1.82813 0.32812,1 0.32812,2.10937 0,1.625 -0.5625,2.95313 -0.54687,1.32812 -1.48437,2.29687 -0.92188,0.95313 -2.10938,1.48438 -1.1875,0.51562 -2.45312,0.51562 -1.64063,0 -3.0625,-0.76562 -1.42188,-0.76563 -2.8125,-2.10938 -0.40625,0.59375 -0.90625,1.10938 -0.48438,0.5 -1.07813,0.875 -0.59375,0.35937 -1.3125,0.57812 -0.71875,0.20313 -1.59375,0.20313 z m 0.32813,-11.3125 q -0.9375,0 -1.6875,0.375 -0.73438,0.35937 -1.26563,0.98437 -0.53125,0.60938 -0.8125,1.45313 -0.28125,0.82812 -0.28125,1.76562 0,0.8125 0.23438,1.59375 0.23437,0.78125 0.6875,1.39063 0.46875,0.60937 1.15625,0.98437 0.6875,0.375 1.57812,0.375 1.09375,0 1.85938,-0.54687 0.78125,-0.5625 1.375,-1.45313 0.60937,-0.89062 1.10937,-2 0.5,-1.125 1.04688,-2.25 -1.1875,-1.375 -2.46875,-2.01562 -1.26563,-0.65625 -2.53125,-0.65625 z M 171.5,194.1875 q 0.90625,0 1.71875,-0.28125 0.8125,-0.29688 1.42187,-0.875 0.625,-0.59375 0.98438,-1.46875 0.375,-0.89063 0.375,-2.09375 0,-0.76563 -0.20313,-1.51563 -0.1875,-0.75 -0.59375,-1.34375 -0.40625,-0.59375 -1.04687,-0.95312 -0.625,-0.375 -1.48438,-0.375 -0.76562,0 -1.375,0.29687 -0.60937,0.28125 -1.10937,0.78125 -0.5,0.48438 -0.92188,1.15625 -0.40625,0.65625 -0.78125,1.42188 -0.375,0.75 -0.75,1.5625 -0.35937,0.79687 -0.76562,1.57812 0.39062,0.39063 0.875,0.76563 0.5,0.375 1.0625,0.67187 0.57812,0.29688 1.23437,0.48438 0.65625,0.1875 1.35938,0.1875 z M 180.34375,208 q -0.79688,-1.3125 -1.64063,-2.5 -0.84375,-1.17188 -1.79687,-2.04688 -0.95313,-0.875 -2.04688,-1.39062 -1.10937,-0.51563 -2.42187,-0.51563 -0.79688,0 -1.40625,0.1875 -0.625,0.1875 -1.04688,0.5 -0.42187,0.3125 -0.64062,0.71875 -0.21875,0.42188 -0.21875,0.85938 0,0.84375 0.6875,1.34375 0.67187,0.5 1.84375,0.5 1.09375,0 2.26562,-0.4375 l 0.54688,2.25 q -0.67188,0.26562 -1.35938,0.39062 -0.70312,0.14063 -1.375,0.14063 -1,0 -1.89062,-0.28125 -0.90625,-0.28125 -1.57813,-0.82813 -0.6875,-0.53125 -1.07812,-1.34375 -0.40625,-0.79687 -0.40625,-1.82812 0,-1.14063 0.48437,-2 0.46875,-0.84375 1.25,-1.40625 0.78125,-0.54688 1.78125,-0.8125 1,-0.28125 2.03125,-0.28125 1.32813,0 2.5,0.40625 1.15625,0.40625 2.15625,1.0625 1,0.67187 1.82813,1.5 0.82812,0.84375 1.48437,1.70312 0.67188,0.85938 1.17188,1.67188 0.51562,0.8125 0.85937,1.42187 z m 20.85937,-29 h -3.28125 v 21 h -2.57812 v -12.04688 h -7.3125 q 0,1.03125 -0.0312,1.76563 -0.0156,0.73437 -0.125,1.21875 -0.10938,0.46875 -0.32813,0.6875 -0.21875,0.21875 -0.60937,0.21875 -0.8125,0 -1.54688,-0.53125 -0.71875,-0.53125 -1.28125,-1.28125 -0.54687,-0.75 -0.875,-1.5625 -0.32812,-0.8125 -0.32812,-1.375 0,-0.5 0.21875,-0.78125 0.21875,-0.28125 0.57812,-0.42188 0.35938,-0.14062 0.8125,-0.17187 0.46875,-0.0312 0.9375,-0.0312 h 9.89063 V 179 h -14.67188 v -2.29688 h 20.53125 z m 21.17188,0 h -7.42188 v 11.1875 q 0,1.14062 0.28125,1.90625 0.29688,0.75 0.9375,1.34375 0.64063,0.57812 1.64063,1.125 1.01562,0.53125 2.45312,1.25 1.32813,0.65625 2.46875,1.26562 1.15625,0.60938 2,1.28125 0.84375,0.67188 1.32813,1.45313 0.48437,0.78125 0.48437,1.78125 0,0.76562 -0.3125,1.53125 -0.3125,0.78125 -0.90625,1.48437 l -2.10937,-1.28125 q 0.23437,-0.375 0.4375,-0.79687 0.21875,-0.42188 0.21875,-0.875 0,-0.60938 -0.42188,-1.14063 -0.40625,-0.51562 -1.09375,-0.98437 -0.6875,-0.48438 -1.57812,-0.9375 -0.89063,-0.45313 -1.85938,-0.92188 -1.64062,-0.79687 -2.85937,-1.4375 -1.21875,-0.64062 -2.04688,-1.39062 -0.8125,-0.76563 -1.21875,-1.78125 -0.40625,-1.01563 -0.40625,-2.54688 V 179 H 208.875 v -2.29688 h 19.34375 V 179 h -3.28125 v 9.90625 q 0,1.20312 -0.34375,2 -0.32813,0.78125 -0.85938,1.23437 -0.51562,0.45313 -1.15625,0.64063 -0.625,0.17187 -1.21875,0.17187 -0.59375,0 -1.17187,-0.125 -0.57813,-0.14062 -1.09375,-0.35937 v -2.54688 q 0.34375,0.20313 0.84375,0.35938 0.5,0.14062 1,0.14062 0.46875,0 0.75,-0.15625 0.28125,-0.15625 0.4375,-0.46875 0.15625,-0.3125 0.20312,-0.76562 0.0469,-0.45313 0.0469,-1.04688 z m 33.46875,0 h -13.20313 v 6.15625 l 0.0781,0.0312 q 0.79687,-1.09375 1.98437,-1.75 1.1875,-0.67188 2.60938,-0.67188 1.125,0 2.07812,0.46875 0.96875,0.45313 1.67188,1.26563 0.70312,0.79687 1.09375,1.89062 0.40625,1.09375 0.40625,2.35938 0,1.4375 -0.5,2.65625 -0.5,1.20312 -1.28125,2.1875 -0.78125,0.98437 -1.76563,1.75 -0.98437,0.75 -1.9375,1.28125 l -1.39062,-2.40625 q 0.3125,-0.17188 0.76562,-0.45313 0.45313,-0.28125 0.9375,-0.65625 0.5,-0.375 0.96875,-0.84375 0.48438,-0.48437 0.85938,-1.04687 0.39062,-0.5625 0.625,-1.21875 0.23437,-0.65625 0.23437,-1.39063 0,-0.67187 -0.21875,-1.28125 -0.20312,-0.60937 -0.57812,-1.0625 -0.375,-0.45312 -0.90625,-0.71875 -0.51563,-0.26562 -1.14063,-0.26562 -0.8125,0 -1.57812,0.42187 -0.76563,0.42188 -1.39063,1.0625 -0.625,0.625 -1.0625,1.34375 -0.42187,0.71875 -0.5625,1.32813 V 200 h -2.5625 v -5.98438 l -0.0625,-0.0312 q -0.23437,0.20313 -0.59375,0.5 -0.35937,0.28125 -0.875,0.54688 -0.5,0.26562 -1.17187,0.45312 -0.65625,0.1875 -1.48438,0.1875 -1.375,0 -2.54687,-0.53125 -1.15625,-0.53125 -2.01563,-1.4375 -0.84375,-0.92187 -1.32812,-2.15625 -0.48438,-1.23437 -0.48438,-2.64062 0,-1.34375 0.4375,-2.48438 0.45313,-1.14062 1.21875,-1.95312 0.78125,-0.82813 1.8125,-1.28125 1.04688,-0.46875 2.25,-0.46875 0.84375,0 1.5625,0.21875 0.73438,0.20312 1.32813,0.51562 0.60937,0.29688 1.07812,0.65625 0.48438,0.34375 0.8125,0.625 l 0.0625,-0.0156 V 179 H 227.125 v -2.29688 h 28.71875 z m -20.23438,6.15625 q -0.89062,0 -1.57812,0.375 -0.67188,0.35937 -1.125,0.9375 -0.45313,0.5625 -0.6875,1.28125 Q 232,188.45312 232,189.14062 q 0,0.75 0.26562,1.5 0.26563,0.73438 0.75,1.32813 0.5,0.59375 1.1875,0.96875 0.6875,0.35937 1.51563,0.35937 0.70312,0 1.46875,-0.28125 0.78125,-0.29687 1.42187,-0.90625 0.65625,-0.60937 1.07813,-1.54687 0.42187,-0.95313 0.42187,-2.26563 v -0.76562 q -0.375,-0.46875 -0.89062,-0.89063 -0.5,-0.4375 -1.09375,-0.76562 -0.57813,-0.32813 -1.21875,-0.51563 -0.64063,-0.20312 -1.29688,-0.20312 z M 280.25,179 h -5.89063 q 0.79688,1.375 1.28125,2.8125 0.5,1.42187 0.5,2.89062 0,1.10938 -0.34375,2.14063 -0.32812,1.01562 -0.98437,1.82812 -0.64063,0.79688 -1.60938,1.3125 -0.95312,0.5 -2.20312,0.5625 l -0.0312,0.0781 q 1.40625,2.1875 3.15625,4.14062 1.75,1.9375 4.04687,3.6875 L 276.5,200.375 q -1.32813,-0.98438 -2.53125,-2.125 -1.1875,-1.15625 -2.25,-2.375 -1.0625,-1.23438 -1.98438,-2.48438 -0.90625,-1.26562 -1.67187,-2.45312 -0.75,-1.20313 -1.34375,-2.29688 -0.59375,-1.10937 -1.01563,-2.01562 l 2.14063,-1.15625 q 0.5625,1.21875 1.26562,1.92187 0.71875,0.6875 1.65625,0.6875 0.67188,0 1.20313,-0.34375 0.53125,-0.34375 0.89062,-0.875 0.35938,-0.54687 0.54688,-1.1875 0.1875,-0.65625 0.1875,-1.28125 0,-0.73437 -0.1875,-1.4375 -0.1875,-0.71875 -0.48438,-1.39062 Q 272.625,180.875 272.25,180.23437 271.89062,179.59375 271.54687,179 h -8.03125 v -2.29688 H 280.25 Z m 23.04687,-2.29688 V 179 h -3.28125 v 21 h -2.59375 V 189.5 H 288.375 q -0.82813,0.54687 -1.98438,0.65625 l -0.0312,0.0781 q 1.51563,2.375 3.32813,4.42188 1.8125,2.04687 4.125,3.79687 l -1.67188,1.92188 q -1.32812,-0.98438 -2.53125,-2.125 -1.1875,-1.14063 -2.25,-2.35938 -1.04687,-1.23437 -1.96875,-2.48437 -0.92187,-1.26563 -1.6875,-2.48438 -0.76562,-1.21875 -1.375,-2.34375 -0.60937,-1.14062 -1.0625,-2.10937 l 2.14063,-1.15625 q 0.29687,0.6875 0.57812,1.15625 0.29688,0.45312 0.59375,0.73437 0.29688,0.26563 0.625,0.39063 0.32813,0.10937 0.70313,0.10937 1.07812,0 1.57812,-0.84375 Q 288,186.01562 288,184.64062 q 0,-0.8125 -0.15625,-1.59375 -0.15625,-0.79687 -0.40625,-1.51562 -0.23438,-0.73438 -0.51563,-1.375 -0.28125,-0.64063 -0.53125,-1.15625 h -7.23437 v -2.29688 z M 297.42187,179 h -8.32812 q 0.65625,1.42187 1.03125,2.85937 0.375,1.4375 0.375,2.85938 0,0.65625 -0.10938,1.29687 -0.0937,0.625 -0.32812,1.1875 l 0.0312,0.0312 h 7.32812 z m 10.26563,17.4375 -2.5,7.6875 h -1.82813 l 1.82813,-7.6875 z"
         id="path6" />
      <path
         d="m 53.640625,236.1875 q 0.234375,0.73437 0.546875,1.60937 0.3125,0.85938 0.734375,1.75 0.4375,0.875 0.96875,1.70313 0.546875,0.82812 1.234375,1.46875 0.703125,0.64062 1.546875,1.03125 0.84375,0.375 1.875,0.375 1.015625,0 1.71875,-0.29688 0.703125,-0.29687 1.140625,-0.79687 0.4375,-0.5 0.625,-1.17188 0.203125,-0.67187 0.203125,-1.40625 0,-1.60937 -1.171875,-2.51562 -1.15625,-0.90625 -3.359375,-0.90625 -0.265625,0 -0.53125,0.0156 -0.265625,0.0156 -0.53125,0.0469 v -2.375 q 0.125,0.0156 0.21875,0.0156 0.109375,0 0.125,0 1.09375,0 1.9375,-0.26562 0.859375,-0.28125 1.4375,-0.75 0.578125,-0.46875 0.875,-1.09375 0.296875,-0.625 0.296875,-1.3125 0,-0.625 -0.21875,-1.10938 -0.21875,-0.48437 -0.59375,-0.8125 -0.375,-0.32812 -0.890625,-0.48437 -0.515625,-0.17188 -1.125,-0.17188 -0.421875,0 -0.8125,0.0625 -0.390625,0.0469 -0.828125,0.17188 -0.4375,0.10937 -0.9375,0.29687 -0.484375,0.1875 -1.109375,0.46875 L 56.125,227.59375 q 1.21875,-0.59375 2.34375,-0.89063 1.125,-0.3125 2.296875,-0.3125 1.125,0 2.078125,0.35938 0.96875,0.35937 1.65625,1 0.703125,0.625 1.09375,1.5 0.390625,0.875 0.390625,1.89062 0,2.79688 -2.671875,4.5 v 0.0625 q 1.046875,0.4375 1.75,1.07813 0.453125,0.0781 0.953125,0.125 0.515625,0.0469 0.9375,0.0469 0.4375,0 0.921875,-0.0625 0.484375,-0.0625 0.984375,-0.23437 0.515625,-0.17188 1.03125,-0.48438 0.53125,-0.3125 1.0625,-0.8125 v -8.65625 h 5.84375 V 229 h -3.28125 v 21 h -2.5625 v -11.875 l -0.0625,-0.0156 Q 70,238.70312 69.21875,238.89062 q -0.78125,0.1875 -1.609375,0.1875 -0.265625,0 -0.546875,-0.0156 -0.28125,-0.0312 -0.578125,-0.0625 l -0.01563,0.0625 q 0.25,0.64062 0.25,1.57812 0,1.26563 -0.421875,2.34375 -0.421875,1.07813 -1.21875,1.875 -0.78125,0.78125 -1.90625,1.21875 -1.109375,0.4375 -2.5,0.4375 -1.484375,0 -2.6875,-0.51562 -1.1875,-0.53125 -2.15625,-1.35938 Q 54.875,243.8125 54.15625,242.78125 53.4375,241.73437 52.921875,240.6875 52.40625,239.64062 52.078125,238.70312 51.75,237.75 51.59375,237.125 Z M 96.234375,229 h -3.28125 v 21 H 90.375 v -12.04688 h -7.3125 q 0,1.03125 -0.03125,1.76563 -0.01563,0.73437 -0.125,1.21875 -0.109375,0.46875 -0.328125,0.6875 -0.21875,0.21875 -0.609375,0.21875 -0.8125,0 -1.546875,-0.53125 -0.71875,-0.53125 -1.28125,-1.28125 -0.546875,-0.75 -0.875,-1.5625 -0.328125,-0.8125 -0.328125,-1.375 0,-0.5 0.21875,-0.78125 0.21875,-0.28125 0.578125,-0.42188 0.359375,-0.14062 0.8125,-0.17187 0.46875,-0.0312 0.9375,-0.0312 H 90.375 V 229 H 75.703125 v -2.29688 h 20.53125 z m -8.90625,21.46875 q 1,-0.625 2.21875,-0.96875 1.203125,-0.34375 2.296875,-0.34375 0.953125,0 1.78125,0.28125 0.8125,0.26562 1.421875,0.78125 Q 95.65625,250.75 96,251.5 q 0.34375,0.75 0.34375,1.6875 0,1 -0.40625,1.875 -0.390625,0.875 -1.1875,1.53125 -0.796875,0.65625 -1.96875,1.03125 -1.171875,0.39062 -2.71875,0.39062 -1.765625,0 -3.15625,-0.48437 -1.40625,-0.46875 -2.515625,-1.20313 -1.109375,-0.71875 -1.953125,-1.59375 -0.84375,-0.875 -1.484375,-1.65625 L 82.40625,251.375 q 0.890625,0.96875 1.703125,1.75 0.8125,0.78125 1.6875,1.32812 0.875,0.5625 1.890625,0.85938 1,0.29687 2.265625,0.29687 1.078125,0 1.84375,-0.21875 0.75,-0.20312 1.234375,-0.54687 0.484375,-0.32813 0.703125,-0.76563 0.21875,-0.42187 0.21875,-0.85937 0,-0.79688 -0.59375,-1.26563 -0.609375,-0.46875 -1.640625,-0.46875 -0.671875,0 -1.546875,0.23438 Q 89.28125,251.95312 88.375,252.5 Z M 115.5,229 h -3.28125 v 21 h -2.57812 v -7.46875 l -0.0625,-0.0156 q -1.04688,0.9375 -2.34375,1.34375 -1.29688,0.39063 -2.5625,0.39063 -1.34375,0 -2.45313,-0.39063 -1.10937,-0.39062 -1.90625,-1.1875 -0.796875,-0.8125 -1.25,-2.03125 -0.4375,-1.23437 -0.4375,-2.92187 V 229 h -3.484375 v -2.29688 H 115.5 Z m -5.85937,0 h -8.48438 v 8.57812 q 0,0.98438 0.15625,1.76563 0.17188,0.78125 0.5625,1.32812 0.40625,0.54688 1.0625,0.84375 0.65625,0.28125 1.64063,0.28125 1.60937,0 2.90625,-0.75 1.29687,-0.76562 2.15625,-2 z m 27.40624,0 h -3.28125 v 21 h -2.5625 v -8.76563 h -8.59374 v 1.85938 q 0,0.48437 -0.0469,0.85937 -0.0312,0.375 -0.17187,0.625 -0.125,0.25 -0.375,0.39063 -0.23438,0.125 -0.64063,0.125 -0.40625,0 -0.90625,-0.23438 -0.5,-0.25 -1.01562,-0.65625 -0.51563,-0.42187 -1,-0.9375 -0.48438,-0.53125 -0.875,-1.09375 -0.375,-0.57812 -0.60938,-1.14062 -0.23437,-0.5625 -0.23437,-1.03125 0,-0.32813 0.10937,-0.53125 0.125,-0.21875 0.32813,-0.32813 0.21875,-0.10937 0.51562,-0.14062 0.29688,-0.0469 0.67188,-0.0469 h 1.6875 V 229 h -5.64063 v -2.29688 h 22.64062 z m -14.43749,0 v 9.95312 h 8.59374 V 229 Z m 46.24999,-2.29688 V 229 h -3.28125 v 21 h -2.59375 v -10.5 h -9.04687 q -0.82813,0.54687 -1.98438,0.65625 l -0.0312,0.0781 q 1.51563,2.375 3.32813,4.42188 1.8125,2.04687 4.125,3.79687 l -1.67188,1.92188 q -1.32812,-0.98438 -2.53125,-2.125 -1.1875,-1.14063 -2.25,-2.35938 -1.04687,-1.23437 -1.96875,-2.48437 -0.92187,-1.26563 -1.6875,-2.48438 -0.76562,-1.21875 -1.375,-2.34375 -0.60937,-1.14062 -1.0625,-2.10937 l 2.14063,-1.15625 q 0.29687,0.6875 0.57812,1.15625 0.29688,0.45312 0.59375,0.73437 0.29688,0.26563 0.625,0.39063 0.32813,0.10937 0.70313,0.10937 1.07812,0 1.57812,-0.84375 0.51563,-0.84375 0.51563,-2.21875 0,-0.8125 -0.15625,-1.59375 Q 153.25,232.25 153,231.53125 q -0.23438,-0.73438 -0.51563,-1.375 -0.28125,-0.64063 -0.53125,-1.15625 h -7.23437 v -2.29688 z M 162.98437,229 h -8.32812 q 0.65625,1.42187 1.03125,2.85937 0.375,1.4375 0.375,2.85938 0,0.65625 -0.10938,1.29687 -0.0937,0.625 -0.32812,1.1875 l 0.0312,0.0312 h 7.32812 z m 14.1875,0 h -3.28125 v 21 h -2.5625 v -21 h -3.5625 v -2.29688 h 9.40625 z m -3.39062,-1.85938 h -2.07813 l -0.5625,-0.5 q -1.21875,-1.07812 -2.15625,-1.8125 -0.92187,-0.75 -1.64062,-1.23437 -0.71875,-0.48438 -1.28125,-0.75 -0.5625,-0.26563 -1.04688,-0.39063 -0.48437,-0.125 -0.9375,-0.14062 -0.45312,-0.0312 -0.95312,-0.0312 h -3 v -2.21875 h 2.78125 q 0.6875,0 1.26562,0.0937 0.57813,0.0781 1.125,0.29687 0.53125,0.20313 1.07813,0.54688 0.54687,0.32812 1.20312,0.84375 0.64063,0.51562 1.42188,1.21875 0.79687,0.70312 1.8125,1.625 l 0.0937,-0.0625 q -0.90625,-1.48438 -1.60938,-2.5625 -0.70312,-1.09375 -1.28125,-1.84375 -0.57812,-0.76563 -1.0625,-1.25 -0.48437,-0.48438 -0.9375,-0.75 -0.45312,-0.26563 -0.92187,-0.35938 -0.46875,-0.0937 -1.01563,-0.0937 h -3.03125 v -2.29687 h 2.85938 q 0.90625,0 1.625,0.17187 0.70312,0.17188 1.35937,0.625 0.64063,0.45313 1.28125,1.23438 0.64063,0.78125 1.39063,2.01562 0.76562,1.21875 1.6875,2.9375 0.9375,1.70313 2.17187,4.01563 z m -0.75,-5.20312 q 0,-0.89063 0.53125,-1.4375 0.51562,-0.5625 1.35937,-0.5625 0.39063,0 0.75,0.15625 0.34375,0.15625 0.60938,0.4375 0.26562,0.26562 0.42187,0.64062 0.14063,0.35938 0.14063,0.79688 0,0.89062 -0.51563,1.4375 -0.53125,0.54687 -1.375,0.54687 -0.40625,0 -0.75,-0.14062 -0.35937,-0.15625 -0.60937,-0.42188 -0.26563,-0.28125 -0.40625,-0.64062 -0.15625,-0.375 -0.15625,-0.8125 z M 197.09375,229 h -5.29688 v 6.85937 h -5.26562 q -2.45313,0 -3.70313,1.21875 -1.25,1.20313 -1.25,3.46875 0,1.28125 0.40625,2.26563 0.42188,0.98437 1.14063,1.65625 0.73437,0.65625 1.73437,1 1,0.34375 2.17188,0.34375 1.23437,0 1.98437,-0.375 -0.0625,-0.39063 -0.0937,-0.6875 -0.0312,-0.29688 -0.0312,-0.59375 0,-0.65625 0.15625,-1.34375 0.17188,-0.70313 0.5,-1.26563 0.34375,-0.57812 0.85938,-0.9375 0.53125,-0.35937 1.26562,-0.35937 0.45313,0 0.85938,0.15625 0.40625,0.15625 0.70312,0.48437 0.3125,0.3125 0.48438,0.79688 0.1875,0.48437 0.1875,1.125 0,0.64062 -0.17188,1.1875 -0.17187,0.53125 -0.45312,1 -0.26563,0.45312 -0.60938,0.85937 -0.34375,0.39063 -0.67187,0.71875 0.34375,0.75 0.71875,1.34375 0.39062,0.59375 0.79687,1.0625 0.42188,0.46875 0.84375,0.84375 0.42188,0.375 0.84375,0.70313 l -1.92187,2.01562 q -0.82813,-0.73437 -1.42188,-1.46875 -0.57812,-0.71875 -0.98437,-1.35937 -0.39063,-0.64063 -0.64063,-1.15625 -0.25,-0.51563 -0.40625,-0.82813 -1.07812,0.42188 -2.65625,0.42188 -2.03125,0 -3.54687,-0.65625 -1.51563,-0.67188 -2.53125,-1.78125 -1,-1.125 -1.5,-2.5625 -0.5,-1.4375 -0.5,-2.98438 0,-1.60937 0.51562,-2.82812 0.51563,-1.23438 1.4375,-2.0625 0.92188,-0.84375 2.1875,-1.26563 1.28125,-0.4375 2.79688,-0.4375 h 3.20312 V 229 h -13.15625 v -2.29688 h 21.01563 z M 217,229 h -3.28125 v 21 h -2.5625 v -7.3125 l -0.0625,-0.0156 q -0.42188,0.34375 -1.01563,0.6875 -0.57812,0.32813 -1.29687,0.59375 -0.71875,0.25 -1.54688,0.42188 -0.82812,0.15625 -1.73437,0.15625 -1.8125,0 -3.10938,-0.65625 -1.28125,-0.65625 -2.15625,-1.75 -0.85937,-1.10938 -1.35937,-2.51563 -0.5,-1.42187 -0.71875,-2.95312 1.03125,-0.14063 1.76562,-0.48438 0.73438,-0.34375 1.1875,-0.8125 0.45313,-0.48437 0.65625,-1.04687 0.21875,-0.5625 0.21875,-1.125 0,-0.375 -0.0781,-0.84375 -0.0625,-0.46875 -0.23438,-1 Q 201.5,230.79687 201.21875,230.20312 200.9375,229.60937 200.51562,229 H 196 v -2.29688 h 21 z m -13.71875,0 q 0.5625,0.95312 0.875,2.09375 0.32812,1.125 0.32812,2.21875 0,0.79687 -0.21875,1.54687 -0.20312,0.75 -0.64062,1.40625 -0.4375,0.64063 -1.09375,1.15625 -0.64063,0.5 -1.5,0.79688 0.25,1.04687 0.6875,1.79687 0.4375,0.73438 1.03125,1.21875 0.59375,0.46875 1.32812,0.6875 0.73438,0.21875 1.57813,0.21875 0.8125,0 1.59375,-0.1875 0.79687,-0.1875 1.5,-0.53125 0.71875,-0.35937 1.32812,-0.85937 0.60938,-0.5 1.07813,-1.125 V 229 Z m 13.29687,-9.125 q -0.6875,-0.78125 -1.28125,-1.14063 -0.59375,-0.35937 -1.39062,-0.35937 -1.21875,0 -1.95313,0.84375 -0.73437,0.82812 -0.73437,2.34375 0,0.625 0.14062,1.3125 0.14063,0.67187 0.40625,1.35937 0.26563,0.6875 0.65625,1.35938 0.39063,0.67187 0.89063,1.28125 h -2.59375 q -0.9375,-1.32813 -1.40625,-2.71875 -0.46875,-1.40625 -0.46875,-2.73438 0,-1.28125 0.42187,-2.29687 0.40625,-1.01563 1.09375,-1.70313 0.6875,-0.6875 1.60938,-1.04687 0.90625,-0.375 1.92187,-0.375 1.35938,0 2.42188,0.54687 1.07812,0.53125 2.01562,1.71875 z m 4.8125,26.5625 -2.5,7.6875 h -1.82812 l 1.82812,-7.6875 z m 14.40625,-10.25 q 0.23438,0.73437 0.54688,1.60937 0.3125,0.85938 0.73437,1.75 0.4375,0.875 0.96875,1.70313 0.54688,0.82812 1.23438,1.46875 0.70312,0.64062 1.54687,1.03125 0.84375,0.375 1.875,0.375 1.01563,0 1.71875,-0.29688 0.70313,-0.29687 1.14063,-0.79687 0.4375,-0.5 0.625,-1.17188 0.20312,-0.67187 0.20312,-1.40625 0,-1.60937 -1.17187,-2.51562 -1.15625,-0.90625 -3.35938,-0.90625 -0.26562,0 -0.53125,0.0156 -0.26562,0.0156 -0.53125,0.0469 v -2.375 q 0.125,0.0156 0.21875,0.0156 0.10938,0 0.125,0 1.09375,0 1.9375,-0.26562 0.85938,-0.28125 1.4375,-0.75 0.57813,-0.46875 0.875,-1.09375 0.29688,-0.625 0.29688,-1.3125 0,-0.625 -0.21875,-1.10938 -0.21875,-0.48437 -0.59375,-0.8125 -0.375,-0.32812 -0.89063,-0.48437 -0.51562,-0.17188 -1.125,-0.17188 -0.42187,0 -0.8125,0.0625 -0.39062,0.0469 -0.82812,0.17188 -0.4375,0.10937 -0.9375,0.29687 -0.48438,0.1875 -1.10938,0.46875 l -0.89062,-2.14062 Q 239.5,227 240.625,226.70312 q 1.125,-0.3125 2.29687,-0.3125 1.125,0 2.07813,0.35938 0.96875,0.35937 1.65625,1 0.70312,0.625 1.09375,1.5 0.39062,0.875 0.39062,1.89062 0,2.79688 -2.67187,4.5 v 0.0625 q 1.04687,0.4375 1.75,1.07813 0.45312,0.0781 0.95312,0.125 0.51563,0.0469 0.9375,0.0469 0.4375,0 0.92188,-0.0625 0.48437,-0.0625 0.98437,-0.23437 0.51563,-0.17188 1.03125,-0.48438 0.53125,-0.3125 1.0625,-0.8125 v -8.65625 h 5.84375 V 229 h -3.28125 v 21 h -2.5625 v -11.875 l -0.0625,-0.0156 q -0.89062,0.59375 -1.67187,0.78125 -0.78125,0.1875 -1.60938,0.1875 -0.26562,0 -0.54687,-0.0156 -0.28125,-0.0312 -0.57813,-0.0625 l -0.0156,0.0625 q 0.25,0.64062 0.25,1.57812 0,1.26563 -0.42188,2.34375 -0.42187,1.07813 -1.21875,1.875 -0.78125,0.78125 -1.90625,1.21875 -1.10937,0.4375 -2.5,0.4375 -1.48437,0 -2.6875,-0.51562 -1.1875,-0.53125 -2.15625,-1.35938 -0.95312,-0.82812 -1.67187,-1.85937 -0.71875,-1.04688 -1.23438,-2.09375 -0.51562,-1.04688 -0.84375,-1.98438 Q 233.90625,237.75 233.75,237.125 Z M 278.875,229 h -5.29688 v 6.85937 h -5.26562 q -2.45313,0 -3.70313,1.21875 -1.25,1.20313 -1.25,3.46875 0,1.28125 0.40625,2.26563 0.42188,0.98437 1.14063,1.65625 0.73437,0.65625 1.73437,1 1,0.34375 2.17188,0.34375 1.23437,0 1.98437,-0.375 -0.0625,-0.39063 -0.0937,-0.6875 -0.0312,-0.29688 -0.0312,-0.59375 0,-0.65625 0.15625,-1.34375 0.17188,-0.70313 0.5,-1.26563 0.34375,-0.57812 0.85938,-0.9375 0.53125,-0.35937 1.26562,-0.35937 0.45313,0 0.85938,0.15625 0.40625,0.15625 0.70312,0.48437 0.3125,0.3125 0.48438,0.79688 0.1875,0.48437 0.1875,1.125 0,0.64062 -0.17188,1.1875 -0.17187,0.53125 -0.45312,1 -0.26563,0.45312 -0.60938,0.85937 -0.34375,0.39063 -0.67187,0.71875 0.34375,0.75 0.71875,1.34375 0.39062,0.59375 0.79687,1.0625 0.42188,0.46875 0.84375,0.84375 0.42188,0.375 0.84375,0.70313 l -1.92187,2.01562 q -0.82813,-0.73437 -1.42188,-1.46875 -0.57812,-0.71875 -0.98437,-1.35937 -0.39063,-0.64063 -0.64063,-1.15625 -0.25,-0.51563 -0.40625,-0.82813 -1.07812,0.42188 -2.65625,0.42188 -2.03125,0 -3.54687,-0.65625 -1.51563,-0.67188 -2.53125,-1.78125 -1,-1.125 -1.5,-2.5625 -0.5,-1.4375 -0.5,-2.98438 0,-1.60937 0.51562,-2.82812 0.51563,-1.23438 1.4375,-2.0625 0.92188,-0.84375 2.1875,-1.26563 1.28125,-0.4375 2.79688,-0.4375 h 3.20312 V 229 h -13.15625 v -2.29688 H 278.875 Z m -5.32813,29.01562 -6.21875,-5.79687 1.53125,-1.71875 6.26563,5.75 z M 301.8125,229 h -3.28125 v 21 h -2.5625 v -8.76563 h -8.20313 v 2.23438 q 0,0.23437 -0.0469,0.5 -0.0312,0.26562 -0.15625,0.5 -0.10938,0.21875 -0.3125,0.375 -0.1875,0.14062 -0.48438,0.14062 -0.35937,0 -0.85937,-0.21875 -0.48438,-0.23437 -1.01563,-0.60937 -0.51562,-0.39063 -1.03125,-0.875 -0.5,-0.5 -0.90625,-1.03125 -0.39062,-0.53125 -0.64062,-1.0625 -0.25,-0.53125 -0.25,-0.98438 0,-0.65625 0.46875,-0.95312 0.46875,-0.29688 1.23437,-0.29688 h 1.51563 V 230.375 q 0,-0.8125 -0.39063,-1.23438 -0.39062,-0.4375 -0.98437,-0.4375 -0.65625,0 -1.10938,0.48438 -0.4375,0.48437 -0.4375,1.23437 0,0.14063 0.0312,0.34375 0.0312,0.20313 0.15625,0.46875 0.125,0.25 0.375,0.57813 0.25,0.3125 0.67188,0.67187 l -1.39063,1.70313 q -0.71875,-0.39063 -1.17187,-0.85938 -0.45313,-0.48437 -0.70313,-0.98437 -0.25,-0.5 -0.34375,-0.96875 -0.0937,-0.48438 -0.0937,-0.89063 0,-0.75 0.25,-1.46875 0.26563,-0.73437 0.78125,-1.3125 0.51563,-0.59375 1.28125,-0.95312 0.78125,-0.35938 1.8125,-0.35938 0.90625,0 1.60938,0.29688 0.70312,0.29687 1.17187,0.85937 0.48438,0.54688 0.71875,1.32813 0.25,0.76562 0.25,1.71875 v 8.35937 h 8.20313 v -12.25 h 5.84375 z m -8.90625,21.46875 q 1,-0.625 2.21875,-0.96875 1.20312,-0.34375 2.29687,-0.34375 0.95313,0 1.78125,0.28125 0.8125,0.26562 1.42188,0.78125 0.60937,0.53125 0.95312,1.28125 0.34375,0.75 0.34375,1.6875 0,1 -0.40625,1.875 -0.39062,0.875 -1.1875,1.53125 -0.79687,0.65625 -1.96875,1.03125 -1.17187,0.39062 -2.71875,0.39062 -1.76562,0 -3.15625,-0.48437 -1.40625,-0.46875 -2.51562,-1.20313 -1.10938,-0.71875 -1.95313,-1.59375 -0.84375,-0.875 -1.48437,-1.65625 l 1.45312,-1.70312 q 0.89063,0.96875 1.70313,1.75 0.8125,0.78125 1.6875,1.32812 0.875,0.5625 1.89062,0.85938 1,0.29687 2.26563,0.29687 1.07812,0 1.84375,-0.21875 0.75,-0.20312 1.23437,-0.54687 0.48438,-0.32813 0.70313,-0.76563 0.21875,-0.42187 0.21875,-0.85937 0,-0.79688 -0.59375,-1.26563 -0.60938,-0.46875 -1.64063,-0.46875 -0.67187,0 -1.54687,0.23438 -0.89063,0.23437 -1.79688,0.78125 z M 321.39062,229 h -3.28125 v 21 h -2.54687 v -13.71875 h -5.07813 q -1.04687,0 -1.89062,0.14062 -0.84375,0.125 -1.4375,0.53125 -0.59375,0.39063 -0.92188,1.10938 -0.3125,0.70312 -0.3125,1.85937 0,1.5 0.48438,2.76563 0.5,1.26562 1.26562,2.32812 0.76563,1.04688 1.6875,1.9375 0.9375,0.89063 1.79688,1.64063 l -1.5625,1.78125 q -0.14063,-0.0781 -0.67188,-0.45313 -0.51562,-0.39062 -1.21875,-1.04687 -0.6875,-0.65625 -1.46875,-1.59375 -0.76562,-0.9375 -1.42187,-2.10938 -0.64063,-1.1875 -1.07813,-2.60937 -0.42187,-1.42188 -0.42187,-3.0625 0,-1.625 0.45312,-2.6875 0.46875,-1.07813 1.3125,-1.70313 0.84375,-0.64062 2.04688,-0.89062 1.20312,-0.25 2.6875,-0.25 h 5.75 V 229 h -14.84375 v -2.29688 h 20.67187 z m 27.57813,0 h -3.28125 v 21 h -2.5625 v -5.57813 l -0.0625,-0.0156 q -0.3125,0.29687 -0.73438,0.625 -0.42187,0.3125 -0.96875,0.57812 -0.54687,0.25 -1.23437,0.42188 -0.67188,0.17187 -1.51563,0.17187 -1.54687,0 -2.82812,-0.59375 -1.26563,-0.59375 -2.1875,-1.57812 -0.92188,-1 -1.4375,-2.28125 -0.5,-1.29688 -0.5,-2.70313 0,-1.40625 0.5,-2.60937 0.51562,-1.21875 1.40625,-2.10938 0.89062,-0.89062 2.07812,-1.39062 1.1875,-0.51563 2.54688,-0.51563 0.375,0 0.9375,0.0625 0.57812,0.0625 1.23437,0.28125 0.65625,0.21875 1.35938,0.64063 0.70312,0.40625 1.34375,1.10937 L 343.125,234.5 V 229 h -14.0625 v -2.29688 h 19.90625 z m -5.78125,8.42187 q -0.98438,-1.1875 -2.14063,-1.90625 -1.15625,-0.73437 -2.625,-0.73437 -1.15625,0 -1.96875,0.4375 -0.79687,0.4375 -1.3125,1.10937 -0.51562,0.65625 -0.75,1.46875 -0.23437,0.8125 -0.23437,1.5625 0,0.8125 0.26562,1.60938 0.26563,0.79687 0.78125,1.4375 0.53125,0.625 1.3125,1.03125 0.78125,0.39062 1.82813,0.39062 1.07812,0 1.96875,-0.40625 0.89062,-0.42187 1.53125,-1.0625 0.64062,-0.64062 0.98437,-1.4375 0.35938,-0.79687 0.35938,-1.54687 z M 357.28125,229 H 354 v 21 h -2.5625 v -21 h -3.5625 v -2.29688 h 9.40625 z m 23.04687,-2.29688 V 229 h -3.28125 v 21 h -2.59375 v -10.5 h -9.04687 q -0.82813,0.54687 -1.98438,0.65625 l -0.0312,0.0781 q 1.51563,2.375 3.32813,4.42188 1.8125,2.04687 4.125,3.79687 l -1.67188,1.92188 q -1.32812,-0.98438 -2.53125,-2.125 -1.1875,-1.14063 -2.25,-2.35938 -1.04687,-1.23437 -1.96875,-2.48437 -0.92187,-1.26563 -1.6875,-2.48438 -0.76562,-1.21875 -1.375,-2.34375 -0.60937,-1.14062 -1.0625,-2.10937 l 2.14063,-1.15625 q 0.29687,0.6875 0.57812,1.15625 0.29688,0.45312 0.59375,0.73437 0.29688,0.26563 0.625,0.39063 0.32813,0.10937 0.70313,0.10937 1.07812,0 1.57812,-0.84375 0.51563,-0.84375 0.51563,-2.21875 0,-0.8125 -0.15625,-1.59375 -0.15625,-0.79687 -0.40625,-1.51562 -0.23438,-0.73438 -0.51563,-1.375 -0.28125,-0.64063 -0.53125,-1.15625 h -7.23437 v -2.29688 z M 374.45312,229 H 366.125 q 0.65625,1.42187 1.03125,2.85937 0.375,1.4375 0.375,2.85938 0,0.65625 -0.10938,1.29687 -0.0937,0.625 -0.32812,1.1875 l 0.0312,0.0312 h 7.32812 z m 8.8125,21.34375 q -0.71875,0 -1.23437,-0.51563 -0.5,-0.51562 -0.5,-1.23437 0,-0.71875 0.5,-1.23438 0.51562,-0.53125 1.23437,-0.53125 0.73438,0 1.25,0.53125 0.51563,0.51563 0.51563,1.23438 0,0.71875 -0.51563,1.23437 -0.51562,0.51563 -1.25,0.51563 z"
         id="path7" />
    </g>
  </g>
</svg>
